G75*
%MOIN*%
%OFA0B0*%
%FSLAX24Y24*%
%IPPOS*%
%LPD*%
%AMOC8*
5,1,8,0,0,1.08239X$1,22.5*
%
%ADD10R,0.0669X0.0256*%
%ADD11R,0.0800X0.0260*%
%ADD12R,0.0591X0.0512*%
%ADD13R,0.0551X0.0394*%
%ADD14R,0.0315X0.0472*%
%ADD15R,0.0315X0.0512*%
%ADD16R,0.0827X0.1181*%
D10*
X003798Y000930D03*
X003798Y001430D03*
X003798Y001930D03*
X003798Y002430D03*
X003798Y002930D03*
X003798Y003430D03*
X003798Y003930D03*
X003798Y004430D03*
X003798Y004930D03*
X003798Y005430D03*
X003798Y005930D03*
X003798Y006430D03*
X003798Y006930D03*
X003798Y007430D03*
X007562Y007430D03*
X007562Y006930D03*
X007562Y006430D03*
X007562Y005930D03*
X007562Y005430D03*
X007562Y004930D03*
X007562Y004430D03*
X007562Y003930D03*
X007562Y003430D03*
X007562Y002930D03*
X007562Y002430D03*
X007562Y001930D03*
X007562Y001430D03*
X007562Y000930D03*
D11*
X012000Y006930D03*
X012000Y007430D03*
X012000Y007930D03*
X012000Y008430D03*
X012000Y008930D03*
X012000Y009430D03*
X012000Y009930D03*
X012000Y010430D03*
X012000Y010930D03*
X015860Y010930D03*
X015860Y010430D03*
X015860Y009930D03*
X015860Y009430D03*
X015860Y008930D03*
X015860Y008430D03*
X015860Y007930D03*
X015860Y007430D03*
X015860Y006930D03*
D12*
X028180Y008806D03*
X028180Y009554D03*
X031330Y009554D03*
X031330Y008806D03*
D13*
X030263Y009180D03*
X029397Y008806D03*
X029397Y009554D03*
D14*
X020284Y006930D03*
X019576Y006930D03*
X019576Y005930D03*
X020284Y005930D03*
D15*
X027196Y002422D03*
X027688Y002422D03*
X028180Y002422D03*
X028672Y002422D03*
X029164Y002422D03*
D16*
X030168Y001339D03*
X026192Y001339D03*
M02*
