G75*
%MOIN*%
%OFA0B0*%
%FSLAX24Y24*%
%IPPOS*%
%LPD*%
%AMOC8*
5,1,8,0,0,1.08239X$1,22.5*
%
%ADD10C,0.0000*%
%ADD11C,0.0050*%
%ADD12C,0.0080*%
%ADD13C,0.0060*%
%ADD14C,0.0020*%
%ADD15R,0.0050X0.0200*%
%ADD16C,0.0040*%
%ADD17C,0.0079*%
D10*
X000180Y000180D02*
X000180Y017666D01*
X043241Y017666D01*
X043241Y000180D01*
X000180Y000180D01*
X012629Y004430D02*
X012631Y004477D01*
X012637Y004523D01*
X012647Y004569D01*
X012660Y004614D01*
X012678Y004657D01*
X012699Y004699D01*
X012723Y004739D01*
X012751Y004776D01*
X012782Y004811D01*
X012816Y004844D01*
X012852Y004873D01*
X012891Y004899D01*
X012932Y004922D01*
X012975Y004941D01*
X013019Y004957D01*
X013064Y004969D01*
X013110Y004977D01*
X013157Y004981D01*
X013203Y004981D01*
X013250Y004977D01*
X013296Y004969D01*
X013341Y004957D01*
X013385Y004941D01*
X013428Y004922D01*
X013469Y004899D01*
X013508Y004873D01*
X013544Y004844D01*
X013578Y004811D01*
X013609Y004776D01*
X013637Y004739D01*
X013661Y004699D01*
X013682Y004657D01*
X013700Y004614D01*
X013713Y004569D01*
X013723Y004523D01*
X013729Y004477D01*
X013731Y004430D01*
X013729Y004383D01*
X013723Y004337D01*
X013713Y004291D01*
X013700Y004246D01*
X013682Y004203D01*
X013661Y004161D01*
X013637Y004121D01*
X013609Y004084D01*
X013578Y004049D01*
X013544Y004016D01*
X013508Y003987D01*
X013469Y003961D01*
X013428Y003938D01*
X013385Y003919D01*
X013341Y003903D01*
X013296Y003891D01*
X013250Y003883D01*
X013203Y003879D01*
X013157Y003879D01*
X013110Y003883D01*
X013064Y003891D01*
X013019Y003903D01*
X012975Y003919D01*
X012932Y003938D01*
X012891Y003961D01*
X012852Y003987D01*
X012816Y004016D01*
X012782Y004049D01*
X012751Y004084D01*
X012723Y004121D01*
X012699Y004161D01*
X012678Y004203D01*
X012660Y004246D01*
X012647Y004291D01*
X012637Y004337D01*
X012631Y004383D01*
X012629Y004430D01*
X021129Y002430D02*
X021131Y002477D01*
X021137Y002523D01*
X021147Y002569D01*
X021160Y002614D01*
X021178Y002657D01*
X021199Y002699D01*
X021223Y002739D01*
X021251Y002776D01*
X021282Y002811D01*
X021316Y002844D01*
X021352Y002873D01*
X021391Y002899D01*
X021432Y002922D01*
X021475Y002941D01*
X021519Y002957D01*
X021564Y002969D01*
X021610Y002977D01*
X021657Y002981D01*
X021703Y002981D01*
X021750Y002977D01*
X021796Y002969D01*
X021841Y002957D01*
X021885Y002941D01*
X021928Y002922D01*
X021969Y002899D01*
X022008Y002873D01*
X022044Y002844D01*
X022078Y002811D01*
X022109Y002776D01*
X022137Y002739D01*
X022161Y002699D01*
X022182Y002657D01*
X022200Y002614D01*
X022213Y002569D01*
X022223Y002523D01*
X022229Y002477D01*
X022231Y002430D01*
X022229Y002383D01*
X022223Y002337D01*
X022213Y002291D01*
X022200Y002246D01*
X022182Y002203D01*
X022161Y002161D01*
X022137Y002121D01*
X022109Y002084D01*
X022078Y002049D01*
X022044Y002016D01*
X022008Y001987D01*
X021969Y001961D01*
X021928Y001938D01*
X021885Y001919D01*
X021841Y001903D01*
X021796Y001891D01*
X021750Y001883D01*
X021703Y001879D01*
X021657Y001879D01*
X021610Y001883D01*
X021564Y001891D01*
X021519Y001903D01*
X021475Y001919D01*
X021432Y001938D01*
X021391Y001961D01*
X021352Y001987D01*
X021316Y002016D01*
X021282Y002049D01*
X021251Y002084D01*
X021223Y002121D01*
X021199Y002161D01*
X021178Y002203D01*
X021160Y002246D01*
X021147Y002291D01*
X021137Y002337D01*
X021131Y002383D01*
X021129Y002430D01*
X029629Y004430D02*
X029631Y004477D01*
X029637Y004523D01*
X029647Y004569D01*
X029660Y004614D01*
X029678Y004657D01*
X029699Y004699D01*
X029723Y004739D01*
X029751Y004776D01*
X029782Y004811D01*
X029816Y004844D01*
X029852Y004873D01*
X029891Y004899D01*
X029932Y004922D01*
X029975Y004941D01*
X030019Y004957D01*
X030064Y004969D01*
X030110Y004977D01*
X030157Y004981D01*
X030203Y004981D01*
X030250Y004977D01*
X030296Y004969D01*
X030341Y004957D01*
X030385Y004941D01*
X030428Y004922D01*
X030469Y004899D01*
X030508Y004873D01*
X030544Y004844D01*
X030578Y004811D01*
X030609Y004776D01*
X030637Y004739D01*
X030661Y004699D01*
X030682Y004657D01*
X030700Y004614D01*
X030713Y004569D01*
X030723Y004523D01*
X030729Y004477D01*
X030731Y004430D01*
X030729Y004383D01*
X030723Y004337D01*
X030713Y004291D01*
X030700Y004246D01*
X030682Y004203D01*
X030661Y004161D01*
X030637Y004121D01*
X030609Y004084D01*
X030578Y004049D01*
X030544Y004016D01*
X030508Y003987D01*
X030469Y003961D01*
X030428Y003938D01*
X030385Y003919D01*
X030341Y003903D01*
X030296Y003891D01*
X030250Y003883D01*
X030203Y003879D01*
X030157Y003879D01*
X030110Y003883D01*
X030064Y003891D01*
X030019Y003903D01*
X029975Y003919D01*
X029932Y003938D01*
X029891Y003961D01*
X029852Y003987D01*
X029816Y004016D01*
X029782Y004049D01*
X029751Y004084D01*
X029723Y004121D01*
X029699Y004161D01*
X029678Y004203D01*
X029660Y004246D01*
X029647Y004291D01*
X029637Y004337D01*
X029631Y004383D01*
X029629Y004430D01*
X034540Y004930D02*
X034542Y004980D01*
X034548Y005030D01*
X034558Y005079D01*
X034571Y005128D01*
X034589Y005175D01*
X034610Y005221D01*
X034634Y005264D01*
X034662Y005306D01*
X034693Y005346D01*
X034727Y005383D01*
X034764Y005417D01*
X034804Y005448D01*
X034846Y005476D01*
X034889Y005500D01*
X034935Y005521D01*
X034982Y005539D01*
X035031Y005552D01*
X035080Y005562D01*
X035130Y005568D01*
X035180Y005570D01*
X035230Y005568D01*
X035280Y005562D01*
X035329Y005552D01*
X035378Y005539D01*
X035425Y005521D01*
X035471Y005500D01*
X035514Y005476D01*
X035556Y005448D01*
X035596Y005417D01*
X035633Y005383D01*
X035667Y005346D01*
X035698Y005306D01*
X035726Y005264D01*
X035750Y005221D01*
X035771Y005175D01*
X035789Y005128D01*
X035802Y005079D01*
X035812Y005030D01*
X035818Y004980D01*
X035820Y004930D01*
X035818Y004880D01*
X035812Y004830D01*
X035802Y004781D01*
X035789Y004732D01*
X035771Y004685D01*
X035750Y004639D01*
X035726Y004596D01*
X035698Y004554D01*
X035667Y004514D01*
X035633Y004477D01*
X035596Y004443D01*
X035556Y004412D01*
X035514Y004384D01*
X035471Y004360D01*
X035425Y004339D01*
X035378Y004321D01*
X035329Y004308D01*
X035280Y004298D01*
X035230Y004292D01*
X035180Y004290D01*
X035130Y004292D01*
X035080Y004298D01*
X035031Y004308D01*
X034982Y004321D01*
X034935Y004339D01*
X034889Y004360D01*
X034846Y004384D01*
X034804Y004412D01*
X034764Y004443D01*
X034727Y004477D01*
X034693Y004514D01*
X034662Y004554D01*
X034634Y004596D01*
X034610Y004639D01*
X034589Y004685D01*
X034571Y004732D01*
X034558Y004781D01*
X034548Y004830D01*
X034542Y004880D01*
X034540Y004930D01*
X039040Y004930D02*
X039042Y004980D01*
X039048Y005030D01*
X039058Y005079D01*
X039071Y005128D01*
X039089Y005175D01*
X039110Y005221D01*
X039134Y005264D01*
X039162Y005306D01*
X039193Y005346D01*
X039227Y005383D01*
X039264Y005417D01*
X039304Y005448D01*
X039346Y005476D01*
X039389Y005500D01*
X039435Y005521D01*
X039482Y005539D01*
X039531Y005552D01*
X039580Y005562D01*
X039630Y005568D01*
X039680Y005570D01*
X039730Y005568D01*
X039780Y005562D01*
X039829Y005552D01*
X039878Y005539D01*
X039925Y005521D01*
X039971Y005500D01*
X040014Y005476D01*
X040056Y005448D01*
X040096Y005417D01*
X040133Y005383D01*
X040167Y005346D01*
X040198Y005306D01*
X040226Y005264D01*
X040250Y005221D01*
X040271Y005175D01*
X040289Y005128D01*
X040302Y005079D01*
X040312Y005030D01*
X040318Y004980D01*
X040320Y004930D01*
X040318Y004880D01*
X040312Y004830D01*
X040302Y004781D01*
X040289Y004732D01*
X040271Y004685D01*
X040250Y004639D01*
X040226Y004596D01*
X040198Y004554D01*
X040167Y004514D01*
X040133Y004477D01*
X040096Y004443D01*
X040056Y004412D01*
X040014Y004384D01*
X039971Y004360D01*
X039925Y004339D01*
X039878Y004321D01*
X039829Y004308D01*
X039780Y004298D01*
X039730Y004292D01*
X039680Y004290D01*
X039630Y004292D01*
X039580Y004298D01*
X039531Y004308D01*
X039482Y004321D01*
X039435Y004339D01*
X039389Y004360D01*
X039346Y004384D01*
X039304Y004412D01*
X039264Y004443D01*
X039227Y004477D01*
X039193Y004514D01*
X039162Y004554D01*
X039134Y004596D01*
X039110Y004639D01*
X039089Y004685D01*
X039071Y004732D01*
X039058Y004781D01*
X039048Y004830D01*
X039042Y004880D01*
X039040Y004930D01*
X036629Y008930D02*
X036631Y008977D01*
X036637Y009023D01*
X036647Y009069D01*
X036660Y009114D01*
X036678Y009157D01*
X036699Y009199D01*
X036723Y009239D01*
X036751Y009276D01*
X036782Y009311D01*
X036816Y009344D01*
X036852Y009373D01*
X036891Y009399D01*
X036932Y009422D01*
X036975Y009441D01*
X037019Y009457D01*
X037064Y009469D01*
X037110Y009477D01*
X037157Y009481D01*
X037203Y009481D01*
X037250Y009477D01*
X037296Y009469D01*
X037341Y009457D01*
X037385Y009441D01*
X037428Y009422D01*
X037469Y009399D01*
X037508Y009373D01*
X037544Y009344D01*
X037578Y009311D01*
X037609Y009276D01*
X037637Y009239D01*
X037661Y009199D01*
X037682Y009157D01*
X037700Y009114D01*
X037713Y009069D01*
X037723Y009023D01*
X037729Y008977D01*
X037731Y008930D01*
X037729Y008883D01*
X037723Y008837D01*
X037713Y008791D01*
X037700Y008746D01*
X037682Y008703D01*
X037661Y008661D01*
X037637Y008621D01*
X037609Y008584D01*
X037578Y008549D01*
X037544Y008516D01*
X037508Y008487D01*
X037469Y008461D01*
X037428Y008438D01*
X037385Y008419D01*
X037341Y008403D01*
X037296Y008391D01*
X037250Y008383D01*
X037203Y008379D01*
X037157Y008379D01*
X037110Y008383D01*
X037064Y008391D01*
X037019Y008403D01*
X036975Y008419D01*
X036932Y008438D01*
X036891Y008461D01*
X036852Y008487D01*
X036816Y008516D01*
X036782Y008549D01*
X036751Y008584D01*
X036723Y008621D01*
X036699Y008661D01*
X036678Y008703D01*
X036660Y008746D01*
X036647Y008791D01*
X036637Y008837D01*
X036631Y008883D01*
X036629Y008930D01*
X029629Y013430D02*
X029631Y013477D01*
X029637Y013523D01*
X029647Y013569D01*
X029660Y013614D01*
X029678Y013657D01*
X029699Y013699D01*
X029723Y013739D01*
X029751Y013776D01*
X029782Y013811D01*
X029816Y013844D01*
X029852Y013873D01*
X029891Y013899D01*
X029932Y013922D01*
X029975Y013941D01*
X030019Y013957D01*
X030064Y013969D01*
X030110Y013977D01*
X030157Y013981D01*
X030203Y013981D01*
X030250Y013977D01*
X030296Y013969D01*
X030341Y013957D01*
X030385Y013941D01*
X030428Y013922D01*
X030469Y013899D01*
X030508Y013873D01*
X030544Y013844D01*
X030578Y013811D01*
X030609Y013776D01*
X030637Y013739D01*
X030661Y013699D01*
X030682Y013657D01*
X030700Y013614D01*
X030713Y013569D01*
X030723Y013523D01*
X030729Y013477D01*
X030731Y013430D01*
X030729Y013383D01*
X030723Y013337D01*
X030713Y013291D01*
X030700Y013246D01*
X030682Y013203D01*
X030661Y013161D01*
X030637Y013121D01*
X030609Y013084D01*
X030578Y013049D01*
X030544Y013016D01*
X030508Y012987D01*
X030469Y012961D01*
X030428Y012938D01*
X030385Y012919D01*
X030341Y012903D01*
X030296Y012891D01*
X030250Y012883D01*
X030203Y012879D01*
X030157Y012879D01*
X030110Y012883D01*
X030064Y012891D01*
X030019Y012903D01*
X029975Y012919D01*
X029932Y012938D01*
X029891Y012961D01*
X029852Y012987D01*
X029816Y013016D01*
X029782Y013049D01*
X029751Y013084D01*
X029723Y013121D01*
X029699Y013161D01*
X029678Y013203D01*
X029660Y013246D01*
X029647Y013291D01*
X029637Y013337D01*
X029631Y013383D01*
X029629Y013430D01*
X021129Y015430D02*
X021131Y015477D01*
X021137Y015523D01*
X021147Y015569D01*
X021160Y015614D01*
X021178Y015657D01*
X021199Y015699D01*
X021223Y015739D01*
X021251Y015776D01*
X021282Y015811D01*
X021316Y015844D01*
X021352Y015873D01*
X021391Y015899D01*
X021432Y015922D01*
X021475Y015941D01*
X021519Y015957D01*
X021564Y015969D01*
X021610Y015977D01*
X021657Y015981D01*
X021703Y015981D01*
X021750Y015977D01*
X021796Y015969D01*
X021841Y015957D01*
X021885Y015941D01*
X021928Y015922D01*
X021969Y015899D01*
X022008Y015873D01*
X022044Y015844D01*
X022078Y015811D01*
X022109Y015776D01*
X022137Y015739D01*
X022161Y015699D01*
X022182Y015657D01*
X022200Y015614D01*
X022213Y015569D01*
X022223Y015523D01*
X022229Y015477D01*
X022231Y015430D01*
X022229Y015383D01*
X022223Y015337D01*
X022213Y015291D01*
X022200Y015246D01*
X022182Y015203D01*
X022161Y015161D01*
X022137Y015121D01*
X022109Y015084D01*
X022078Y015049D01*
X022044Y015016D01*
X022008Y014987D01*
X021969Y014961D01*
X021928Y014938D01*
X021885Y014919D01*
X021841Y014903D01*
X021796Y014891D01*
X021750Y014883D01*
X021703Y014879D01*
X021657Y014879D01*
X021610Y014883D01*
X021564Y014891D01*
X021519Y014903D01*
X021475Y014919D01*
X021432Y014938D01*
X021391Y014961D01*
X021352Y014987D01*
X021316Y015016D01*
X021282Y015049D01*
X021251Y015084D01*
X021223Y015121D01*
X021199Y015161D01*
X021178Y015203D01*
X021160Y015246D01*
X021147Y015291D01*
X021137Y015337D01*
X021131Y015383D01*
X021129Y015430D01*
X012629Y013430D02*
X012631Y013477D01*
X012637Y013523D01*
X012647Y013569D01*
X012660Y013614D01*
X012678Y013657D01*
X012699Y013699D01*
X012723Y013739D01*
X012751Y013776D01*
X012782Y013811D01*
X012816Y013844D01*
X012852Y013873D01*
X012891Y013899D01*
X012932Y013922D01*
X012975Y013941D01*
X013019Y013957D01*
X013064Y013969D01*
X013110Y013977D01*
X013157Y013981D01*
X013203Y013981D01*
X013250Y013977D01*
X013296Y013969D01*
X013341Y013957D01*
X013385Y013941D01*
X013428Y013922D01*
X013469Y013899D01*
X013508Y013873D01*
X013544Y013844D01*
X013578Y013811D01*
X013609Y013776D01*
X013637Y013739D01*
X013661Y013699D01*
X013682Y013657D01*
X013700Y013614D01*
X013713Y013569D01*
X013723Y013523D01*
X013729Y013477D01*
X013731Y013430D01*
X013729Y013383D01*
X013723Y013337D01*
X013713Y013291D01*
X013700Y013246D01*
X013682Y013203D01*
X013661Y013161D01*
X013637Y013121D01*
X013609Y013084D01*
X013578Y013049D01*
X013544Y013016D01*
X013508Y012987D01*
X013469Y012961D01*
X013428Y012938D01*
X013385Y012919D01*
X013341Y012903D01*
X013296Y012891D01*
X013250Y012883D01*
X013203Y012879D01*
X013157Y012879D01*
X013110Y012883D01*
X013064Y012891D01*
X013019Y012903D01*
X012975Y012919D01*
X012932Y012938D01*
X012891Y012961D01*
X012852Y012987D01*
X012816Y013016D01*
X012782Y013049D01*
X012751Y013084D01*
X012723Y013121D01*
X012699Y013161D01*
X012678Y013203D01*
X012660Y013246D01*
X012647Y013291D01*
X012637Y013337D01*
X012631Y013383D01*
X012629Y013430D01*
X005629Y008930D02*
X005631Y008977D01*
X005637Y009023D01*
X005647Y009069D01*
X005660Y009114D01*
X005678Y009157D01*
X005699Y009199D01*
X005723Y009239D01*
X005751Y009276D01*
X005782Y009311D01*
X005816Y009344D01*
X005852Y009373D01*
X005891Y009399D01*
X005932Y009422D01*
X005975Y009441D01*
X006019Y009457D01*
X006064Y009469D01*
X006110Y009477D01*
X006157Y009481D01*
X006203Y009481D01*
X006250Y009477D01*
X006296Y009469D01*
X006341Y009457D01*
X006385Y009441D01*
X006428Y009422D01*
X006469Y009399D01*
X006508Y009373D01*
X006544Y009344D01*
X006578Y009311D01*
X006609Y009276D01*
X006637Y009239D01*
X006661Y009199D01*
X006682Y009157D01*
X006700Y009114D01*
X006713Y009069D01*
X006723Y009023D01*
X006729Y008977D01*
X006731Y008930D01*
X006729Y008883D01*
X006723Y008837D01*
X006713Y008791D01*
X006700Y008746D01*
X006682Y008703D01*
X006661Y008661D01*
X006637Y008621D01*
X006609Y008584D01*
X006578Y008549D01*
X006544Y008516D01*
X006508Y008487D01*
X006469Y008461D01*
X006428Y008438D01*
X006385Y008419D01*
X006341Y008403D01*
X006296Y008391D01*
X006250Y008383D01*
X006203Y008379D01*
X006157Y008379D01*
X006110Y008383D01*
X006064Y008391D01*
X006019Y008403D01*
X005975Y008419D01*
X005932Y008438D01*
X005891Y008461D01*
X005852Y008487D01*
X005816Y008516D01*
X005782Y008549D01*
X005751Y008584D01*
X005723Y008621D01*
X005699Y008661D01*
X005678Y008703D01*
X005660Y008746D01*
X005647Y008791D01*
X005637Y008837D01*
X005631Y008883D01*
X005629Y008930D01*
X021129Y008930D02*
X021131Y008977D01*
X021137Y009023D01*
X021147Y009069D01*
X021160Y009114D01*
X021178Y009157D01*
X021199Y009199D01*
X021223Y009239D01*
X021251Y009276D01*
X021282Y009311D01*
X021316Y009344D01*
X021352Y009373D01*
X021391Y009399D01*
X021432Y009422D01*
X021475Y009441D01*
X021519Y009457D01*
X021564Y009469D01*
X021610Y009477D01*
X021657Y009481D01*
X021703Y009481D01*
X021750Y009477D01*
X021796Y009469D01*
X021841Y009457D01*
X021885Y009441D01*
X021928Y009422D01*
X021969Y009399D01*
X022008Y009373D01*
X022044Y009344D01*
X022078Y009311D01*
X022109Y009276D01*
X022137Y009239D01*
X022161Y009199D01*
X022182Y009157D01*
X022200Y009114D01*
X022213Y009069D01*
X022223Y009023D01*
X022229Y008977D01*
X022231Y008930D01*
X022229Y008883D01*
X022223Y008837D01*
X022213Y008791D01*
X022200Y008746D01*
X022182Y008703D01*
X022161Y008661D01*
X022137Y008621D01*
X022109Y008584D01*
X022078Y008549D01*
X022044Y008516D01*
X022008Y008487D01*
X021969Y008461D01*
X021928Y008438D01*
X021885Y008419D01*
X021841Y008403D01*
X021796Y008391D01*
X021750Y008383D01*
X021703Y008379D01*
X021657Y008379D01*
X021610Y008383D01*
X021564Y008391D01*
X021519Y008403D01*
X021475Y008419D01*
X021432Y008438D01*
X021391Y008461D01*
X021352Y008487D01*
X021316Y008516D01*
X021282Y008549D01*
X021251Y008584D01*
X021223Y008621D01*
X021199Y008661D01*
X021178Y008703D01*
X021160Y008746D01*
X021147Y008791D01*
X021137Y008837D01*
X021131Y008883D01*
X021129Y008930D01*
D11*
X016532Y011505D02*
X016305Y011505D01*
X016418Y011505D02*
X016418Y011845D01*
X016305Y011732D01*
X013355Y010503D02*
X013355Y010353D01*
X013280Y010278D01*
X013280Y010118D02*
X013355Y010043D01*
X013355Y009892D01*
X013280Y009817D01*
X013205Y009817D01*
X013130Y009892D01*
X013130Y010043D01*
X013205Y010118D01*
X013280Y010118D01*
X013130Y010043D02*
X013055Y010118D01*
X012980Y010118D01*
X012905Y010043D01*
X012905Y009892D01*
X012980Y009817D01*
X013055Y009817D01*
X013130Y009892D01*
X012980Y009657D02*
X013280Y009657D01*
X013355Y009582D01*
X013355Y009432D01*
X013280Y009357D01*
X012980Y009657D01*
X012905Y009582D01*
X012905Y009432D01*
X012980Y009357D01*
X013280Y009357D01*
X013355Y009197D02*
X013355Y008897D01*
X013055Y009197D01*
X012980Y009197D01*
X012905Y009122D01*
X012905Y008972D01*
X012980Y008897D01*
X012905Y008736D02*
X012980Y008586D01*
X013130Y008436D01*
X013130Y008661D01*
X013205Y008736D01*
X013280Y008736D01*
X013355Y008661D01*
X013355Y008511D01*
X013280Y008436D01*
X013130Y008436D01*
X013280Y008276D02*
X012980Y008276D01*
X012905Y008201D01*
X012905Y007976D01*
X013355Y007976D01*
X013355Y008201D01*
X013280Y008276D01*
X013280Y007816D02*
X013355Y007741D01*
X013355Y007515D01*
X012905Y007515D01*
X012905Y007741D01*
X012980Y007816D01*
X013055Y007816D01*
X013130Y007741D01*
X013130Y007515D01*
X013130Y007741D02*
X013205Y007816D01*
X013280Y007816D01*
X012905Y007355D02*
X012905Y007055D01*
X012905Y007205D02*
X013355Y007205D01*
X012980Y010278D02*
X012905Y010353D01*
X012905Y010503D01*
X012980Y010578D01*
X013055Y010578D01*
X013130Y010503D01*
X013205Y010578D01*
X013280Y010578D01*
X013355Y010503D01*
X013130Y010503D02*
X013130Y010428D01*
X006886Y012205D02*
X006736Y012355D01*
X006811Y012355D02*
X006586Y012355D01*
X006586Y012205D02*
X006586Y012655D01*
X006811Y012655D01*
X006886Y012580D01*
X006886Y012430D01*
X006811Y012355D01*
X006426Y012280D02*
X006351Y012205D01*
X006201Y012205D01*
X006126Y012280D01*
X006426Y012580D01*
X006426Y012280D01*
X006126Y012280D02*
X006126Y012580D01*
X006201Y012655D01*
X006351Y012655D01*
X006426Y012580D01*
X005966Y012580D02*
X005891Y012655D01*
X005740Y012655D01*
X005665Y012580D01*
X005505Y012580D02*
X005430Y012655D01*
X005280Y012655D01*
X005205Y012580D01*
X005505Y012580D02*
X005505Y012505D01*
X005205Y012205D01*
X005505Y012205D01*
X005665Y012205D02*
X005966Y012505D01*
X005966Y012580D01*
X005966Y012205D02*
X005665Y012205D01*
X001032Y011505D02*
X000805Y011505D01*
X000918Y011505D02*
X000918Y011845D01*
X000805Y011732D01*
X020705Y012205D02*
X021005Y012205D01*
X020855Y012205D02*
X020855Y012655D01*
X020705Y012505D01*
X021165Y012430D02*
X021316Y012505D01*
X021391Y012505D01*
X021466Y012430D01*
X021466Y012280D01*
X021391Y012205D01*
X021240Y012205D01*
X021165Y012280D01*
X021165Y012430D02*
X021165Y012655D01*
X021466Y012655D01*
X021626Y012580D02*
X021701Y012655D01*
X021851Y012655D01*
X021926Y012580D01*
X021626Y012280D01*
X021701Y012205D01*
X021851Y012205D01*
X021926Y012280D01*
X021926Y012580D01*
X022086Y012655D02*
X022311Y012655D01*
X022386Y012580D01*
X022386Y012430D01*
X022311Y012355D01*
X022086Y012355D01*
X022086Y012205D02*
X022086Y012655D01*
X022236Y012355D02*
X022386Y012205D01*
X021626Y012280D02*
X021626Y012580D01*
X031805Y011732D02*
X031918Y011845D01*
X031918Y011505D01*
X031805Y011505D02*
X032032Y011505D01*
X036205Y012205D02*
X036505Y012205D01*
X036355Y012205D02*
X036355Y012655D01*
X036205Y012505D01*
X036665Y012580D02*
X036740Y012655D01*
X036891Y012655D01*
X036966Y012580D01*
X036665Y012280D01*
X036740Y012205D01*
X036891Y012205D01*
X036966Y012280D01*
X036966Y012580D01*
X037126Y012655D02*
X037126Y012205D01*
X037126Y012355D02*
X037426Y012655D01*
X037201Y012430D02*
X037426Y012205D01*
X036665Y012280D02*
X036665Y012580D01*
X034283Y016272D02*
X034283Y016822D01*
X034558Y016822D01*
X034650Y016730D01*
X034650Y016547D01*
X034558Y016455D01*
X034283Y016455D01*
X034098Y016730D02*
X033731Y016730D01*
X033545Y016730D02*
X033545Y016638D01*
X033178Y016638D01*
X033178Y016547D02*
X033178Y016730D01*
X033270Y016822D01*
X033453Y016822D01*
X033545Y016730D01*
X033453Y016455D02*
X033270Y016455D01*
X033178Y016547D01*
X032993Y016455D02*
X032993Y016730D01*
X032901Y016822D01*
X032626Y016822D01*
X032626Y016455D01*
X032441Y016455D02*
X032257Y016455D01*
X032349Y016455D02*
X032349Y016822D01*
X032257Y016822D01*
X032349Y017005D02*
X032349Y017097D01*
X032072Y017005D02*
X032072Y016455D01*
X031705Y017005D01*
X031705Y016455D01*
X034836Y016547D02*
X034927Y016455D01*
X035111Y016455D01*
X035203Y016547D01*
X035203Y016730D01*
X035111Y016822D01*
X034927Y016822D01*
X034836Y016730D01*
X034836Y016547D01*
X035388Y016638D02*
X035663Y016822D01*
X035849Y016730D02*
X035940Y016822D01*
X036124Y016822D01*
X036216Y016730D01*
X036216Y016638D01*
X035849Y016638D01*
X035849Y016547D02*
X035849Y016730D01*
X035849Y016547D02*
X035940Y016455D01*
X036124Y016455D01*
X036401Y016730D02*
X036768Y016730D01*
X036953Y016822D02*
X037045Y016822D01*
X037045Y016455D01*
X036953Y016455D02*
X037137Y016455D01*
X037322Y016455D02*
X037689Y016822D01*
X037689Y016914D01*
X037597Y017005D01*
X037414Y017005D01*
X037322Y016914D01*
X037045Y017005D02*
X037045Y017097D01*
X037874Y016730D02*
X037874Y016547D01*
X037966Y016455D01*
X038241Y016455D01*
X037966Y016822D02*
X037874Y016730D01*
X037966Y016822D02*
X038241Y016822D01*
X038979Y016822D02*
X039163Y017005D01*
X039163Y016455D01*
X039346Y016455D02*
X038979Y016455D01*
X039532Y016455D02*
X039623Y016455D01*
X039623Y016547D01*
X039532Y016547D01*
X039532Y016455D01*
X039808Y016547D02*
X040175Y016914D01*
X040175Y016547D01*
X040083Y016455D01*
X039900Y016455D01*
X039808Y016547D01*
X039808Y016914D01*
X039900Y017005D01*
X040083Y017005D01*
X040175Y016914D01*
X037689Y016455D02*
X037322Y016455D01*
X035663Y016455D02*
X035388Y016638D01*
X035388Y016455D02*
X035388Y017005D01*
D12*
X034467Y006994D02*
X034467Y000671D01*
X040393Y000671D01*
X040393Y006994D01*
X034467Y006994D01*
D13*
X036232Y006451D02*
X036552Y006451D01*
X036659Y006344D01*
X036659Y006130D01*
X036552Y006024D01*
X036232Y006024D01*
X036445Y006024D02*
X036659Y005810D01*
X036876Y005917D02*
X036983Y005810D01*
X037090Y005810D01*
X037197Y005917D01*
X037197Y006451D01*
X037303Y006451D02*
X037090Y006451D01*
X037521Y006130D02*
X037948Y006130D01*
X038165Y006130D02*
X038379Y006237D01*
X038486Y006237D01*
X038592Y006130D01*
X038592Y005917D01*
X038486Y005810D01*
X038272Y005810D01*
X038165Y005917D01*
X038165Y006130D02*
X038165Y006451D01*
X038592Y006451D01*
X037841Y006451D02*
X037521Y006130D01*
X037841Y005810D02*
X037841Y006451D01*
X036232Y006451D02*
X036232Y005810D01*
X030090Y008620D02*
X029770Y008620D01*
X030090Y008620D02*
X030090Y008840D01*
X030090Y009520D02*
X030090Y009740D01*
X029770Y009740D01*
X032330Y011330D02*
X032330Y012030D01*
X033030Y012030D01*
X033030Y011330D01*
X032330Y011330D01*
X032380Y011280D02*
X041980Y011280D01*
X042006Y011282D01*
X042032Y011287D01*
X042057Y011295D01*
X042080Y011307D01*
X042102Y011321D01*
X042121Y011339D01*
X042139Y011358D01*
X042153Y011380D01*
X042165Y011403D01*
X042173Y011428D01*
X042178Y011454D01*
X042180Y011480D01*
X042180Y011880D01*
X042178Y011906D01*
X042173Y011932D01*
X042165Y011957D01*
X042153Y011980D01*
X042139Y012002D01*
X042121Y012021D01*
X042102Y012039D01*
X042080Y012053D01*
X042057Y012065D01*
X042032Y012073D01*
X042006Y012078D01*
X041980Y012080D01*
X032380Y012080D01*
X032354Y012078D01*
X032328Y012073D01*
X032303Y012065D01*
X032280Y012053D01*
X032258Y012039D01*
X032239Y012021D01*
X032221Y012002D01*
X032207Y011980D01*
X032195Y011957D01*
X032187Y011932D01*
X032182Y011906D01*
X032180Y011880D01*
X032180Y011480D01*
X032182Y011454D01*
X032187Y011428D01*
X032195Y011403D01*
X032207Y011380D01*
X032221Y011358D01*
X032239Y011339D01*
X032258Y011321D01*
X032280Y011307D01*
X032303Y011295D01*
X032328Y011287D01*
X032354Y011282D01*
X032380Y011280D01*
X026680Y011480D02*
X026680Y011880D01*
X026678Y011906D01*
X026673Y011932D01*
X026665Y011957D01*
X026653Y011980D01*
X026639Y012002D01*
X026621Y012021D01*
X026602Y012039D01*
X026580Y012053D01*
X026557Y012065D01*
X026532Y012073D01*
X026506Y012078D01*
X026480Y012080D01*
X016880Y012080D01*
X016830Y012030D02*
X017530Y012030D01*
X017530Y011330D01*
X016830Y011330D01*
X016830Y012030D01*
X016880Y012080D02*
X016854Y012078D01*
X016828Y012073D01*
X016803Y012065D01*
X016780Y012053D01*
X016758Y012039D01*
X016739Y012021D01*
X016721Y012002D01*
X016707Y011980D01*
X016695Y011957D01*
X016687Y011932D01*
X016682Y011906D01*
X016680Y011880D01*
X016680Y011480D01*
X016682Y011454D01*
X016687Y011428D01*
X016695Y011403D01*
X016707Y011380D01*
X016721Y011358D01*
X016739Y011339D01*
X016758Y011321D01*
X016780Y011307D01*
X016803Y011295D01*
X016828Y011287D01*
X016854Y011282D01*
X016880Y011280D01*
X026480Y011280D01*
X026506Y011282D01*
X026532Y011287D01*
X026557Y011295D01*
X026580Y011307D01*
X026602Y011321D01*
X026621Y011339D01*
X026639Y011358D01*
X026653Y011380D01*
X026665Y011403D01*
X026673Y011428D01*
X026678Y011454D01*
X026680Y011480D01*
X020048Y007166D02*
X019812Y007166D01*
X019812Y006694D02*
X020048Y006694D01*
X020048Y006166D02*
X019812Y006166D01*
X019812Y005694D02*
X020048Y005694D01*
X015400Y006780D02*
X015400Y011080D01*
X015398Y011103D01*
X015393Y011126D01*
X015384Y011148D01*
X015371Y011168D01*
X015356Y011186D01*
X015338Y011201D01*
X015318Y011214D01*
X015296Y011223D01*
X015273Y011228D01*
X015250Y011230D01*
X014430Y011230D01*
X013430Y011230D01*
X012610Y011230D01*
X012587Y011228D01*
X012564Y011223D01*
X012542Y011214D01*
X012522Y011201D01*
X012504Y011186D01*
X012489Y011168D01*
X012476Y011148D01*
X012467Y011126D01*
X012462Y011103D01*
X012460Y011080D01*
X012460Y006780D01*
X012462Y006757D01*
X012467Y006734D01*
X012476Y006712D01*
X012489Y006692D01*
X012504Y006674D01*
X012522Y006659D01*
X012542Y006646D01*
X012564Y006637D01*
X012587Y006632D01*
X012610Y006630D01*
X015250Y006630D01*
X015273Y006632D01*
X015296Y006637D01*
X015318Y006646D01*
X015338Y006659D01*
X015356Y006674D01*
X015371Y006692D01*
X015384Y006712D01*
X015393Y006734D01*
X015398Y006757D01*
X015400Y006780D01*
X007142Y007660D02*
X004218Y007660D01*
X004218Y000710D01*
X007142Y000710D01*
X007142Y007660D01*
X005200Y006778D02*
X005110Y006868D01*
X004750Y006868D01*
X004660Y006778D01*
X004660Y006598D01*
X004750Y006508D01*
X005110Y006508D01*
X005200Y006598D01*
X005200Y006778D01*
X005110Y006315D02*
X005200Y006225D01*
X005200Y006045D01*
X005110Y005955D01*
X004930Y006045D02*
X004930Y006225D01*
X005020Y006315D01*
X005110Y006315D01*
X004750Y006315D02*
X004660Y006225D01*
X004660Y006045D01*
X004750Y005955D01*
X004840Y005955D01*
X004930Y006045D01*
X004750Y005763D02*
X005110Y005403D01*
X005200Y005403D01*
X005200Y005210D02*
X005200Y004850D01*
X005200Y005030D02*
X004660Y005030D01*
X004840Y004850D01*
X004750Y004658D02*
X005110Y004298D01*
X005200Y004388D01*
X005200Y004568D01*
X005110Y004658D01*
X004750Y004658D01*
X004660Y004568D01*
X004660Y004388D01*
X004750Y004298D01*
X005110Y004298D01*
X005110Y004105D02*
X005200Y004015D01*
X005200Y003835D01*
X005110Y003745D01*
X005200Y003553D02*
X005200Y003193D01*
X004840Y003553D01*
X004750Y003553D01*
X004660Y003463D01*
X004660Y003283D01*
X004750Y003193D01*
X004750Y003001D02*
X004930Y003001D01*
X005020Y002910D01*
X005020Y002640D01*
X005200Y002640D02*
X004660Y002640D01*
X004660Y002910D01*
X004750Y003001D01*
X004750Y002448D02*
X004660Y002358D01*
X004660Y002178D01*
X004750Y002088D01*
X005110Y002088D01*
X005200Y002178D01*
X005200Y002358D01*
X005110Y002448D01*
X005200Y001896D02*
X004660Y001896D01*
X004840Y001715D01*
X004660Y001535D01*
X005200Y001535D01*
X006710Y001080D02*
X006712Y001109D01*
X006718Y001137D01*
X006727Y001164D01*
X006741Y001189D01*
X006757Y001213D01*
X006777Y001233D01*
X006799Y001252D01*
X006823Y001266D01*
X006850Y001278D01*
X006877Y001286D01*
X006906Y001290D01*
X006934Y001290D01*
X006963Y001286D01*
X006990Y001278D01*
X007017Y001266D01*
X007041Y001252D01*
X007063Y001233D01*
X007083Y001213D01*
X007099Y001189D01*
X007113Y001164D01*
X007122Y001137D01*
X007128Y001109D01*
X007130Y001080D01*
X007128Y001051D01*
X007122Y001023D01*
X007113Y000996D01*
X007099Y000971D01*
X007083Y000947D01*
X007063Y000927D01*
X007041Y000908D01*
X007017Y000894D01*
X006990Y000882D01*
X006963Y000874D01*
X006934Y000870D01*
X006906Y000870D01*
X006877Y000874D01*
X006850Y000882D01*
X006823Y000894D01*
X006799Y000908D01*
X006777Y000927D01*
X006757Y000947D01*
X006741Y000971D01*
X006727Y000996D01*
X006718Y001023D01*
X006712Y001051D01*
X006710Y001080D01*
X004750Y003745D02*
X004660Y003835D01*
X004660Y004015D01*
X004750Y004105D01*
X004840Y004105D01*
X004930Y004015D01*
X005020Y004105D01*
X005110Y004105D01*
X004930Y004015D02*
X004930Y003925D01*
X004660Y005403D02*
X004660Y005763D01*
X004750Y005763D01*
X013430Y011230D02*
X013432Y011186D01*
X013438Y011143D01*
X013447Y011101D01*
X013460Y011059D01*
X013477Y011019D01*
X013497Y010980D01*
X013520Y010943D01*
X013547Y010909D01*
X013576Y010876D01*
X013609Y010847D01*
X013643Y010820D01*
X013680Y010797D01*
X013719Y010777D01*
X013759Y010760D01*
X013801Y010747D01*
X013843Y010738D01*
X013886Y010732D01*
X013930Y010730D01*
X013974Y010732D01*
X014017Y010738D01*
X014059Y010747D01*
X014101Y010760D01*
X014141Y010777D01*
X014180Y010797D01*
X014217Y010820D01*
X014251Y010847D01*
X014284Y010876D01*
X014313Y010909D01*
X014340Y010943D01*
X014363Y010980D01*
X014383Y011019D01*
X014400Y011059D01*
X014413Y011101D01*
X014422Y011143D01*
X014428Y011186D01*
X014430Y011230D01*
X011180Y011480D02*
X011180Y011880D01*
X011178Y011906D01*
X011173Y011932D01*
X011165Y011957D01*
X011153Y011980D01*
X011139Y012002D01*
X011121Y012021D01*
X011102Y012039D01*
X011080Y012053D01*
X011057Y012065D01*
X011032Y012073D01*
X011006Y012078D01*
X010980Y012080D01*
X001380Y012080D01*
X001330Y012030D02*
X002030Y012030D01*
X002030Y011330D01*
X001330Y011330D01*
X001330Y012030D01*
X001380Y012080D02*
X001354Y012078D01*
X001328Y012073D01*
X001303Y012065D01*
X001280Y012053D01*
X001258Y012039D01*
X001239Y012021D01*
X001221Y012002D01*
X001207Y011980D01*
X001195Y011957D01*
X001187Y011932D01*
X001182Y011906D01*
X001180Y011880D01*
X001180Y011480D01*
X001182Y011454D01*
X001187Y011428D01*
X001195Y011403D01*
X001207Y011380D01*
X001221Y011358D01*
X001239Y011339D01*
X001258Y011321D01*
X001280Y011307D01*
X001303Y011295D01*
X001328Y011287D01*
X001354Y011282D01*
X001380Y011280D01*
X010980Y011280D01*
X011006Y011282D01*
X011032Y011287D01*
X011057Y011295D01*
X011080Y011307D01*
X011102Y011321D01*
X011121Y011339D01*
X011139Y011358D01*
X011153Y011380D01*
X011165Y011403D01*
X011173Y011428D01*
X011178Y011454D01*
X011180Y011480D01*
X026605Y002363D02*
X026605Y001969D01*
X026605Y002363D02*
X026999Y002363D01*
X027393Y002363D02*
X027491Y002363D01*
X027885Y002363D02*
X027983Y002363D01*
X028377Y002363D02*
X028475Y002363D01*
X028869Y002363D02*
X028967Y002363D01*
X029361Y002363D02*
X029755Y002363D01*
X029755Y001969D01*
X029706Y000906D02*
X026654Y000906D01*
D14*
X012600Y006630D02*
X012600Y011230D01*
D15*
X012435Y010930D03*
X012435Y010430D03*
X012435Y009930D03*
X012435Y009430D03*
X012435Y008930D03*
X012435Y008430D03*
X012435Y007930D03*
X012435Y007430D03*
X012435Y006930D03*
X015425Y006930D03*
X015425Y007430D03*
X015425Y007930D03*
X015425Y008430D03*
X015425Y008930D03*
X015425Y009430D03*
X015425Y009930D03*
X015425Y010430D03*
X015425Y010930D03*
D16*
X020619Y007084D02*
X020696Y007160D01*
X020849Y007160D01*
X020926Y007084D01*
X020926Y007007D01*
X020619Y006700D01*
X020926Y006700D01*
X021079Y006700D02*
X021079Y007160D01*
X021079Y006853D02*
X021386Y007160D01*
X021540Y007084D02*
X021616Y007160D01*
X021770Y007160D01*
X021847Y007084D01*
X021847Y007007D01*
X021540Y006700D01*
X021847Y006700D01*
X021386Y006700D02*
X021156Y006930D01*
X021079Y006210D02*
X021079Y005750D01*
X020926Y005750D02*
X020619Y005750D01*
X020926Y006057D01*
X020926Y006134D01*
X020849Y006210D01*
X020696Y006210D01*
X020619Y006134D01*
X021079Y005903D02*
X021386Y006210D01*
X021540Y006134D02*
X021616Y006210D01*
X021770Y006210D01*
X021847Y006134D01*
X021847Y006057D01*
X021540Y005750D01*
X021847Y005750D01*
X021386Y005750D02*
X021156Y005980D01*
X027200Y008472D02*
X027660Y008472D01*
X027660Y008319D02*
X027660Y008626D01*
X027583Y008779D02*
X027660Y008856D01*
X027660Y009086D01*
X027353Y009086D01*
X027430Y009240D02*
X027430Y009393D01*
X027660Y009240D02*
X027200Y009240D01*
X027200Y009547D01*
X027353Y008779D02*
X027583Y008779D01*
X027200Y008472D02*
X027353Y008319D01*
X028100Y008410D02*
X028253Y008257D01*
X028407Y008410D01*
X028407Y007950D01*
X028560Y008027D02*
X028637Y007950D01*
X028791Y007950D01*
X028867Y008027D01*
X029021Y008103D02*
X029251Y008103D01*
X029328Y008180D01*
X029328Y008334D01*
X029251Y008410D01*
X029021Y008410D01*
X029021Y007950D01*
X029481Y007950D02*
X029788Y007950D01*
X029635Y007950D02*
X029635Y008410D01*
X029481Y008257D01*
X028867Y008334D02*
X028791Y008410D01*
X028637Y008410D01*
X028560Y008334D01*
X028560Y008027D01*
X028100Y007950D02*
X028100Y008410D01*
X029942Y008410D02*
X030248Y008410D01*
X030248Y008334D01*
X029942Y008027D01*
X029942Y007950D01*
X030402Y008027D02*
X030709Y008334D01*
X030709Y008027D01*
X030632Y007950D01*
X030479Y007950D01*
X030402Y008027D01*
X030402Y008334D01*
X030479Y008410D01*
X030632Y008410D01*
X030709Y008334D01*
X030862Y008334D02*
X030939Y008410D01*
X031093Y008410D01*
X031169Y008334D01*
X031169Y008257D01*
X031093Y008180D01*
X031169Y008103D01*
X031169Y008027D01*
X031093Y007950D01*
X030939Y007950D01*
X030862Y008027D01*
X031016Y008180D02*
X031093Y008180D01*
X031850Y008472D02*
X032310Y008472D01*
X032310Y008319D02*
X032310Y008626D01*
X032233Y008779D02*
X032003Y008779D01*
X032233Y008779D02*
X032310Y008856D01*
X032310Y009086D01*
X032003Y009086D01*
X032080Y009240D02*
X032080Y009393D01*
X032310Y009240D02*
X031850Y009240D01*
X031850Y009547D01*
X031850Y008472D02*
X032003Y008319D01*
X027020Y003160D02*
X027020Y002950D01*
X026950Y002950D02*
X027090Y002950D01*
X026950Y003090D02*
X027020Y003160D01*
X026860Y003160D02*
X026720Y002950D01*
X026860Y002950D02*
X026720Y003160D01*
D17*
X026802Y002560D02*
X026804Y002572D01*
X026809Y002583D01*
X026818Y002592D01*
X026829Y002597D01*
X026841Y002599D01*
X026853Y002597D01*
X026864Y002592D01*
X026873Y002583D01*
X026878Y002572D01*
X026880Y002560D01*
X026878Y002548D01*
X026873Y002537D01*
X026864Y002528D01*
X026853Y002523D01*
X026841Y002521D01*
X026829Y002523D01*
X026818Y002528D01*
X026809Y002537D01*
X026804Y002548D01*
X026802Y002560D01*
M02*
