%
M48
M72
T01C0.0240
T02C0.0320
T03C0.0354
T04C0.1102
T05C0.1200
T06C0.1280
%
T01
X2880Y830
X2880Y1330
X2880Y2930
X2080Y3230
X2880Y3430
X2880Y4530
X2880Y5330
X2880Y5830
X4880Y8130
X4480Y8530
X7280Y9230
X7680Y9530
X5080Y10530
X2080Y13030
X6480Y13330
X7480Y14830
X6980Y15030
X6180Y16030
X7780Y16830
X10080Y15830
X14480Y14430
X16680Y15230
X15380Y16230
X15380Y16730
X14880Y17230
X18880Y16430
X20480Y15930
X20180Y15530
X19380Y14930
X20180Y14530
X19380Y14130
X18180Y14130
X15880Y13330
X15180Y13130
X21680Y10730
X22780Y10530
X22880Y9930
X20380Y9030
X20480Y8430
X19380Y7930
X20780Y7630
X23280Y8030
X26380Y6630
X27780Y7630
X26780Y8030
X28580Y5830
X31380Y5830
X36580Y4830
X32780Y8430
X34880Y8830
X25580Y4530
X25880Y4130
X27380Y3430
X24180Y3030
X23080Y3730
X19580Y4430
X17880Y3930
X15080Y4630
X14480Y4230
X11880Y4630
X11880Y3330
X10580Y2930
X10280Y3330
X8880Y3430
X8880Y2930
X8880Y2430
X8880Y1930
X11480Y2130
X11880Y2530
X12380Y2530
X11480Y930
X17080Y2130
X17080Y2630
X19180Y2430
X20480Y1530
X17380Y1530
X20880Y5230
X18580Y6230
X17880Y6130
X17080Y6530
X16680Y6130
X16880Y7330
X17280Y8330
X16780Y9330
X16780Y9830
X16780Y10330
X18580Y10230
X20180Y9930
X23680Y12630
X24580Y12730
X25380Y13330
X24780Y13830
X31380Y14430
X20480Y16930
X11080Y7530
X9280Y7530
X8780Y7330
X8880Y6430
X10080Y6230
X8880Y5730
X8480Y5430
X8480Y4930
X11480Y6230
X24180Y5430
X27680Y1130
T02
X25180Y1930
X25180Y2930
X26680Y3930
X26680Y4930
X33680Y4930
X33680Y3930
X33680Y8430
X33680Y9430
X33680Y11680
X32680Y11680
X34680Y11680
X35680Y11680
X36680Y11680
X37680Y11680
X38680Y11680
X39680Y11680
X40680Y11680
X41680Y11680
X40680Y9430
X40680Y8430
X33680Y12930
X33680Y13930
X26680Y13930
X26680Y12930
X26180Y11680
X25180Y11680
X24180Y11680
X23180Y11680
X22180Y11680
X21180Y11680
X20180Y11680
X19180Y11680
X18180Y11680
X17180Y11680
X16680Y12930
X16680Y13930
X18180Y14930
X18180Y15930
X25180Y15930
X25180Y14930
X25180Y9430
X25180Y8430
X18180Y8430
X18180Y9430
X10680Y11680
X9680Y11680
X8680Y11680
X7680Y11680
X6680Y11680
X5680Y11680
X4680Y11680
X3680Y11680
X2680Y11680
X1680Y11680
X2680Y9430
X2680Y8430
X9680Y8430
X9680Y9430
X9680Y12930
X9680Y13930
X9680Y4930
X9680Y3930
X16680Y3930
X16680Y4930
X18180Y2930
X18180Y1930
T03
X35680Y1430
X36680Y1430
X37680Y1430
X38680Y1430
X38180Y2430
X39180Y2430
X37180Y2430
X36180Y2430
T04
X30180Y4430
X21680Y2430
X13180Y4430
X6180Y8930
X13180Y13430
X21680Y15430
X30180Y13430
X37180Y8930
X21680Y8930
T05
X41930Y1430
X41930Y16430
X1430Y16430
X1430Y1430
T06
X35180Y4930
X39680Y4930
M30
