G75*
%MOIN*%
%OFA0B0*%
%FSLAX24Y24*%
%IPPOS*%
%LPD*%
%AMOC8*
5,1,8,0,0,1.08239X$1,22.5*
%
%ADD10C,0.0025*%
%ADD11C,0.0098*%
%ADD12C,0.0040*%
%ADD13C,0.0060*%
%ADD14C,0.0020*%
%ADD15C,0.0050*%
D10*
X013121Y005430D02*
X013190Y005361D01*
X013249Y005420D01*
X013180Y005489D01*
X013121Y005430D01*
X021621Y003430D02*
X021690Y003361D01*
X021749Y003420D01*
X021680Y003489D01*
X021621Y003430D01*
X030121Y005430D02*
X030190Y005361D01*
X030249Y005420D01*
X030180Y005489D01*
X030121Y005430D01*
X037121Y009930D02*
X037190Y009861D01*
X037249Y009920D01*
X037180Y009989D01*
X037121Y009930D01*
X030249Y014420D02*
X030190Y014361D01*
X030121Y014430D01*
X030180Y014489D01*
X030249Y014420D01*
X021749Y016420D02*
X021690Y016361D01*
X021621Y016430D01*
X021680Y016489D01*
X021749Y016420D01*
X013249Y014420D02*
X013190Y014361D01*
X013121Y014430D01*
X013180Y014489D01*
X013249Y014420D01*
X006249Y009920D02*
X006190Y009861D01*
X006121Y009930D01*
X006180Y009989D01*
X006249Y009920D01*
X021621Y009930D02*
X021690Y009861D01*
X021749Y009920D01*
X021680Y009989D01*
X021621Y009930D01*
D11*
X021788Y010087D03*
X013288Y005587D03*
X021788Y003587D03*
X030288Y005587D03*
X037288Y010087D03*
X030288Y014587D03*
X021788Y016587D03*
X013288Y014587D03*
X006288Y010087D03*
D12*
X006290Y010344D02*
X005983Y010344D01*
X005830Y010344D02*
X005600Y010344D01*
X005523Y010420D01*
X005523Y010727D01*
X005600Y010804D01*
X005830Y010804D01*
X005830Y010344D01*
X006290Y010344D02*
X006290Y010804D01*
X005983Y010804D01*
X006137Y010574D02*
X006290Y010574D01*
X006751Y010804D02*
X006751Y010344D01*
X006444Y010344D01*
X005369Y010420D02*
X005369Y010574D01*
X005139Y010574D01*
X005062Y010497D01*
X005062Y010420D01*
X005139Y010344D01*
X005293Y010344D01*
X005369Y010420D01*
X005369Y010574D02*
X005216Y010727D01*
X005062Y010804D01*
X012062Y014920D02*
X012139Y014844D01*
X012293Y014844D01*
X012369Y014920D01*
X012523Y014920D02*
X012523Y015227D01*
X012600Y015304D01*
X012830Y015304D01*
X012830Y014844D01*
X012600Y014844D01*
X012523Y014920D01*
X012216Y015074D02*
X012139Y015074D01*
X012062Y014997D01*
X012062Y014920D01*
X012139Y015074D02*
X012062Y015151D01*
X012062Y015227D01*
X012139Y015304D01*
X012293Y015304D01*
X012369Y015227D01*
X012983Y015304D02*
X013290Y015304D01*
X013290Y014844D01*
X012983Y014844D01*
X013137Y015074D02*
X013290Y015074D01*
X013444Y014844D02*
X013751Y014844D01*
X013751Y015304D01*
X020562Y016844D02*
X020869Y016844D01*
X020716Y016844D02*
X020716Y017304D01*
X020869Y017151D01*
X021023Y017227D02*
X021100Y017304D01*
X021330Y017304D01*
X021330Y016844D01*
X021100Y016844D01*
X021023Y016920D01*
X021023Y017227D01*
X021483Y017304D02*
X021790Y017304D01*
X021790Y016844D01*
X021483Y016844D01*
X021637Y017074D02*
X021790Y017074D01*
X021944Y016844D02*
X022251Y016844D01*
X022251Y017304D01*
X029062Y015227D02*
X029062Y015151D01*
X029369Y014844D01*
X029062Y014844D01*
X029523Y014920D02*
X029523Y015227D01*
X029600Y015304D01*
X029830Y015304D01*
X029830Y014844D01*
X029600Y014844D01*
X029523Y014920D01*
X029983Y014844D02*
X030290Y014844D01*
X030290Y015304D01*
X029983Y015304D01*
X030137Y015074D02*
X030290Y015074D01*
X030444Y014844D02*
X030751Y014844D01*
X030751Y015304D01*
X029369Y015227D02*
X029293Y015304D01*
X029139Y015304D01*
X029062Y015227D01*
X022251Y010804D02*
X022251Y010344D01*
X021944Y010344D01*
X021790Y010344D02*
X021483Y010344D01*
X021330Y010344D02*
X021100Y010344D01*
X021023Y010420D01*
X021023Y010727D01*
X021100Y010804D01*
X021330Y010804D01*
X021330Y010344D01*
X021790Y010344D02*
X021790Y010804D01*
X021483Y010804D01*
X021637Y010574D02*
X021790Y010574D01*
X020869Y010574D02*
X020716Y010651D01*
X020639Y010651D01*
X020562Y010574D01*
X020562Y010420D01*
X020639Y010344D01*
X020793Y010344D01*
X020869Y010420D01*
X020869Y010574D02*
X020869Y010804D01*
X020562Y010804D01*
X013751Y006304D02*
X013751Y005844D01*
X013444Y005844D01*
X013290Y005844D02*
X012983Y005844D01*
X012830Y005844D02*
X012600Y005844D01*
X012523Y005920D01*
X012523Y006227D01*
X012600Y006304D01*
X012830Y006304D01*
X012830Y005844D01*
X013290Y005844D02*
X013290Y006304D01*
X012983Y006304D01*
X013137Y006074D02*
X013290Y006074D01*
X012369Y006151D02*
X012369Y006227D01*
X012293Y006304D01*
X012139Y006304D01*
X012062Y006227D01*
X012062Y006151D01*
X012139Y006074D01*
X012293Y006074D01*
X012369Y006151D01*
X012293Y006074D02*
X012369Y005997D01*
X012369Y005920D01*
X012293Y005844D01*
X012139Y005844D01*
X012062Y005920D01*
X012062Y005997D01*
X012139Y006074D01*
X020562Y004227D02*
X020562Y003920D01*
X020639Y003844D01*
X020793Y003844D01*
X020869Y003920D01*
X021023Y003920D02*
X021023Y004227D01*
X021100Y004304D01*
X021330Y004304D01*
X021330Y003844D01*
X021100Y003844D01*
X021023Y003920D01*
X020793Y004074D02*
X020562Y004074D01*
X020562Y004227D02*
X020639Y004304D01*
X020793Y004304D01*
X020869Y004227D01*
X020869Y004151D01*
X020793Y004074D01*
X021483Y004304D02*
X021790Y004304D01*
X021790Y003844D01*
X021483Y003844D01*
X021637Y004074D02*
X021790Y004074D01*
X021944Y003844D02*
X022251Y003844D01*
X022251Y004304D01*
X029062Y006227D02*
X029369Y005920D01*
X029369Y005844D01*
X029523Y005920D02*
X029523Y006227D01*
X029600Y006304D01*
X029830Y006304D01*
X029830Y005844D01*
X029600Y005844D01*
X029523Y005920D01*
X029983Y005844D02*
X030290Y005844D01*
X030290Y006304D01*
X029983Y006304D01*
X030137Y006074D02*
X030290Y006074D01*
X030751Y006304D02*
X030751Y005844D01*
X030444Y005844D01*
X029369Y006304D02*
X029062Y006304D01*
X029062Y006227D01*
X036139Y010344D02*
X036139Y010804D01*
X036369Y010574D01*
X036062Y010574D01*
X036523Y010727D02*
X036523Y010420D01*
X036600Y010344D01*
X036830Y010344D01*
X036830Y010804D01*
X036600Y010804D01*
X036523Y010727D01*
X036983Y010804D02*
X037290Y010804D01*
X037290Y010344D01*
X036983Y010344D01*
X037444Y010344D02*
X037751Y010344D01*
X037751Y010804D01*
X037290Y010574D02*
X037137Y010574D01*
D13*
X009330Y005330D02*
X009330Y003530D01*
X010030Y003530D01*
X010030Y005330D01*
X009330Y005330D01*
X010030Y004780D02*
X010067Y004778D01*
X010103Y004772D01*
X010138Y004763D01*
X010172Y004750D01*
X010205Y004733D01*
X010236Y004713D01*
X010264Y004690D01*
X010290Y004664D01*
X010313Y004636D01*
X010333Y004605D01*
X010350Y004572D01*
X010363Y004538D01*
X010372Y004503D01*
X010378Y004467D01*
X010380Y004430D01*
X010378Y004393D01*
X010372Y004357D01*
X010363Y004322D01*
X010350Y004288D01*
X010333Y004255D01*
X010313Y004224D01*
X010290Y004196D01*
X010264Y004170D01*
X010236Y004147D01*
X010205Y004127D01*
X010172Y004110D01*
X010138Y004097D01*
X010103Y004088D01*
X010067Y004082D01*
X010030Y004080D01*
X016330Y004130D02*
X016330Y004730D01*
X016296Y004728D01*
X016263Y004722D01*
X016231Y004713D01*
X016200Y004700D01*
X016170Y004684D01*
X016143Y004665D01*
X016118Y004642D01*
X016095Y004617D01*
X016076Y004590D01*
X016060Y004560D01*
X016047Y004529D01*
X016038Y004497D01*
X016032Y004464D01*
X016030Y004430D01*
X016032Y004396D01*
X016038Y004363D01*
X016047Y004331D01*
X016060Y004300D01*
X016076Y004270D01*
X016095Y004243D01*
X016118Y004218D01*
X016143Y004195D01*
X016170Y004176D01*
X016200Y004160D01*
X016231Y004147D01*
X016263Y004138D01*
X016296Y004132D01*
X016330Y004130D01*
X017030Y004130D02*
X017030Y004680D01*
X017030Y005130D02*
X017030Y005330D01*
X016330Y005330D01*
X016330Y005130D01*
X016330Y003730D02*
X016330Y003530D01*
X017030Y003530D01*
X017030Y003730D01*
X017830Y003330D02*
X018530Y003330D01*
X018530Y001530D01*
X017830Y001530D01*
X017830Y003330D01*
X018530Y002780D02*
X018567Y002778D01*
X018603Y002772D01*
X018638Y002763D01*
X018672Y002750D01*
X018705Y002733D01*
X018736Y002713D01*
X018764Y002690D01*
X018790Y002664D01*
X018813Y002636D01*
X018833Y002605D01*
X018850Y002572D01*
X018863Y002538D01*
X018872Y002503D01*
X018878Y002467D01*
X018880Y002430D01*
X018878Y002393D01*
X018872Y002357D01*
X018863Y002322D01*
X018850Y002288D01*
X018833Y002255D01*
X018813Y002224D01*
X018790Y002196D01*
X018764Y002170D01*
X018736Y002147D01*
X018705Y002127D01*
X018672Y002110D01*
X018638Y002097D01*
X018603Y002088D01*
X018567Y002082D01*
X018530Y002080D01*
X024830Y002130D02*
X024830Y002730D01*
X025530Y002680D02*
X025530Y002130D01*
X025530Y001730D02*
X025530Y001530D01*
X024830Y001530D01*
X024830Y001730D01*
X024830Y002130D02*
X024796Y002132D01*
X024763Y002138D01*
X024731Y002147D01*
X024700Y002160D01*
X024670Y002176D01*
X024643Y002195D01*
X024618Y002218D01*
X024595Y002243D01*
X024576Y002270D01*
X024560Y002300D01*
X024547Y002331D01*
X024538Y002363D01*
X024532Y002396D01*
X024530Y002430D01*
X024532Y002464D01*
X024538Y002497D01*
X024547Y002529D01*
X024560Y002560D01*
X024576Y002590D01*
X024595Y002617D01*
X024618Y002642D01*
X024643Y002665D01*
X024670Y002684D01*
X024700Y002700D01*
X024731Y002713D01*
X024763Y002722D01*
X024796Y002728D01*
X024830Y002730D01*
X024830Y003130D02*
X024830Y003330D01*
X025530Y003330D01*
X025530Y003130D01*
X026330Y003530D02*
X026330Y005330D01*
X027030Y005330D01*
X027030Y003530D01*
X026330Y003530D01*
X027030Y004080D02*
X027067Y004082D01*
X027103Y004088D01*
X027138Y004097D01*
X027172Y004110D01*
X027205Y004127D01*
X027236Y004147D01*
X027264Y004170D01*
X027290Y004196D01*
X027313Y004224D01*
X027333Y004255D01*
X027350Y004288D01*
X027363Y004322D01*
X027372Y004357D01*
X027378Y004393D01*
X027380Y004430D01*
X027378Y004467D01*
X027372Y004503D01*
X027363Y004538D01*
X027350Y004572D01*
X027333Y004605D01*
X027313Y004636D01*
X027290Y004664D01*
X027264Y004690D01*
X027236Y004713D01*
X027205Y004733D01*
X027172Y004750D01*
X027138Y004763D01*
X027103Y004772D01*
X027067Y004778D01*
X027030Y004780D01*
X033330Y004730D02*
X033330Y004130D01*
X033296Y004132D01*
X033263Y004138D01*
X033231Y004147D01*
X033200Y004160D01*
X033170Y004176D01*
X033143Y004195D01*
X033118Y004218D01*
X033095Y004243D01*
X033076Y004270D01*
X033060Y004300D01*
X033047Y004331D01*
X033038Y004363D01*
X033032Y004396D01*
X033030Y004430D01*
X033032Y004464D01*
X033038Y004497D01*
X033047Y004529D01*
X033060Y004560D01*
X033076Y004590D01*
X033095Y004617D01*
X033118Y004642D01*
X033143Y004665D01*
X033170Y004684D01*
X033200Y004700D01*
X033231Y004713D01*
X033263Y004722D01*
X033296Y004728D01*
X033330Y004730D01*
X033330Y005130D02*
X033330Y005330D01*
X034030Y005330D01*
X034030Y005130D01*
X034030Y004680D02*
X034030Y004130D01*
X034030Y003730D02*
X034030Y003530D01*
X033330Y003530D01*
X033330Y003730D01*
X033330Y008030D02*
X033330Y009830D01*
X034030Y009830D01*
X034030Y008030D01*
X033330Y008030D01*
X034030Y008580D02*
X034067Y008582D01*
X034103Y008588D01*
X034138Y008597D01*
X034172Y008610D01*
X034205Y008627D01*
X034236Y008647D01*
X034264Y008670D01*
X034290Y008696D01*
X034313Y008724D01*
X034333Y008755D01*
X034350Y008788D01*
X034363Y008822D01*
X034372Y008857D01*
X034378Y008893D01*
X034380Y008930D01*
X034378Y008967D01*
X034372Y009003D01*
X034363Y009038D01*
X034350Y009072D01*
X034333Y009105D01*
X034313Y009136D01*
X034290Y009164D01*
X034264Y009190D01*
X034236Y009213D01*
X034205Y009233D01*
X034172Y009250D01*
X034138Y009263D01*
X034103Y009272D01*
X034067Y009278D01*
X034030Y009280D01*
X040330Y009230D02*
X040330Y008630D01*
X041030Y008630D02*
X041030Y009180D01*
X040330Y009230D02*
X040296Y009228D01*
X040263Y009222D01*
X040231Y009213D01*
X040200Y009200D01*
X040170Y009184D01*
X040143Y009165D01*
X040118Y009142D01*
X040095Y009117D01*
X040076Y009090D01*
X040060Y009060D01*
X040047Y009029D01*
X040038Y008997D01*
X040032Y008964D01*
X040030Y008930D01*
X040032Y008896D01*
X040038Y008863D01*
X040047Y008831D01*
X040060Y008800D01*
X040076Y008770D01*
X040095Y008743D01*
X040118Y008718D01*
X040143Y008695D01*
X040170Y008676D01*
X040200Y008660D01*
X040231Y008647D01*
X040263Y008638D01*
X040296Y008632D01*
X040330Y008630D01*
X040330Y008230D02*
X040330Y008030D01*
X041030Y008030D01*
X041030Y008230D01*
X041030Y009630D02*
X041030Y009830D01*
X040330Y009830D01*
X040330Y009630D01*
X034030Y012530D02*
X033330Y012530D01*
X033330Y012730D01*
X033330Y013130D02*
X033330Y013730D01*
X033296Y013728D01*
X033263Y013722D01*
X033231Y013713D01*
X033200Y013700D01*
X033170Y013684D01*
X033143Y013665D01*
X033118Y013642D01*
X033095Y013617D01*
X033076Y013590D01*
X033060Y013560D01*
X033047Y013529D01*
X033038Y013497D01*
X033032Y013464D01*
X033030Y013430D01*
X033032Y013396D01*
X033038Y013363D01*
X033047Y013331D01*
X033060Y013300D01*
X033076Y013270D01*
X033095Y013243D01*
X033118Y013218D01*
X033143Y013195D01*
X033170Y013176D01*
X033200Y013160D01*
X033231Y013147D01*
X033263Y013138D01*
X033296Y013132D01*
X033330Y013130D01*
X034030Y013130D02*
X034030Y013680D01*
X034030Y014130D02*
X034030Y014330D01*
X033330Y014330D01*
X033330Y014130D01*
X034030Y012730D02*
X034030Y012530D01*
X027030Y012530D02*
X027030Y014330D01*
X026330Y014330D01*
X026330Y012530D01*
X027030Y012530D01*
X027030Y013080D02*
X027067Y013082D01*
X027103Y013088D01*
X027138Y013097D01*
X027172Y013110D01*
X027205Y013127D01*
X027236Y013147D01*
X027264Y013170D01*
X027290Y013196D01*
X027313Y013224D01*
X027333Y013255D01*
X027350Y013288D01*
X027363Y013322D01*
X027372Y013357D01*
X027378Y013393D01*
X027380Y013430D01*
X027378Y013467D01*
X027372Y013503D01*
X027363Y013538D01*
X027350Y013572D01*
X027333Y013605D01*
X027313Y013636D01*
X027290Y013664D01*
X027264Y013690D01*
X027236Y013713D01*
X027205Y013733D01*
X027172Y013750D01*
X027138Y013763D01*
X027103Y013772D01*
X027067Y013778D01*
X027030Y013780D01*
X025530Y014530D02*
X024830Y014530D01*
X024830Y014730D01*
X025530Y014730D02*
X025530Y014530D01*
X025530Y015130D02*
X025530Y015680D01*
X024830Y015730D02*
X024830Y015130D01*
X024796Y015132D01*
X024763Y015138D01*
X024731Y015147D01*
X024700Y015160D01*
X024670Y015176D01*
X024643Y015195D01*
X024618Y015218D01*
X024595Y015243D01*
X024576Y015270D01*
X024560Y015300D01*
X024547Y015331D01*
X024538Y015363D01*
X024532Y015396D01*
X024530Y015430D01*
X024532Y015464D01*
X024538Y015497D01*
X024547Y015529D01*
X024560Y015560D01*
X024576Y015590D01*
X024595Y015617D01*
X024618Y015642D01*
X024643Y015665D01*
X024670Y015684D01*
X024700Y015700D01*
X024731Y015713D01*
X024763Y015722D01*
X024796Y015728D01*
X024830Y015730D01*
X024830Y016130D02*
X024830Y016330D01*
X025530Y016330D01*
X025530Y016130D01*
X018530Y016330D02*
X018530Y014530D01*
X017830Y014530D01*
X017830Y016330D01*
X018530Y016330D01*
X018530Y015780D02*
X018567Y015778D01*
X018603Y015772D01*
X018638Y015763D01*
X018672Y015750D01*
X018705Y015733D01*
X018736Y015713D01*
X018764Y015690D01*
X018790Y015664D01*
X018813Y015636D01*
X018833Y015605D01*
X018850Y015572D01*
X018863Y015538D01*
X018872Y015503D01*
X018878Y015467D01*
X018880Y015430D01*
X018878Y015393D01*
X018872Y015357D01*
X018863Y015322D01*
X018850Y015288D01*
X018833Y015255D01*
X018813Y015224D01*
X018790Y015196D01*
X018764Y015170D01*
X018736Y015147D01*
X018705Y015127D01*
X018672Y015110D01*
X018638Y015097D01*
X018603Y015088D01*
X018567Y015082D01*
X018530Y015080D01*
X017030Y014330D02*
X016330Y014330D01*
X016330Y014130D01*
X017030Y014130D02*
X017030Y014330D01*
X017030Y013680D02*
X017030Y013130D01*
X017030Y012730D02*
X017030Y012530D01*
X016330Y012530D01*
X016330Y012730D01*
X016330Y013130D02*
X016330Y013730D01*
X016296Y013728D01*
X016263Y013722D01*
X016231Y013713D01*
X016200Y013700D01*
X016170Y013684D01*
X016143Y013665D01*
X016118Y013642D01*
X016095Y013617D01*
X016076Y013590D01*
X016060Y013560D01*
X016047Y013529D01*
X016038Y013497D01*
X016032Y013464D01*
X016030Y013430D01*
X016032Y013396D01*
X016038Y013363D01*
X016047Y013331D01*
X016060Y013300D01*
X016076Y013270D01*
X016095Y013243D01*
X016118Y013218D01*
X016143Y013195D01*
X016170Y013176D01*
X016200Y013160D01*
X016231Y013147D01*
X016263Y013138D01*
X016296Y013132D01*
X016330Y013130D01*
X010030Y013080D02*
X010067Y013082D01*
X010103Y013088D01*
X010138Y013097D01*
X010172Y013110D01*
X010205Y013127D01*
X010236Y013147D01*
X010264Y013170D01*
X010290Y013196D01*
X010313Y013224D01*
X010333Y013255D01*
X010350Y013288D01*
X010363Y013322D01*
X010372Y013357D01*
X010378Y013393D01*
X010380Y013430D01*
X010378Y013467D01*
X010372Y013503D01*
X010363Y013538D01*
X010350Y013572D01*
X010333Y013605D01*
X010313Y013636D01*
X010290Y013664D01*
X010264Y013690D01*
X010236Y013713D01*
X010205Y013733D01*
X010172Y013750D01*
X010138Y013763D01*
X010103Y013772D01*
X010067Y013778D01*
X010030Y013780D01*
X010030Y014330D02*
X009330Y014330D01*
X009330Y012530D01*
X010030Y012530D01*
X010030Y014330D01*
X010030Y009830D02*
X009330Y009830D01*
X009330Y009630D01*
X009330Y009230D02*
X009330Y008630D01*
X009296Y008632D01*
X009263Y008638D01*
X009231Y008647D01*
X009200Y008660D01*
X009170Y008676D01*
X009143Y008695D01*
X009118Y008718D01*
X009095Y008743D01*
X009076Y008770D01*
X009060Y008800D01*
X009047Y008831D01*
X009038Y008863D01*
X009032Y008896D01*
X009030Y008930D01*
X009032Y008964D01*
X009038Y008997D01*
X009047Y009029D01*
X009060Y009060D01*
X009076Y009090D01*
X009095Y009117D01*
X009118Y009142D01*
X009143Y009165D01*
X009170Y009184D01*
X009200Y009200D01*
X009231Y009213D01*
X009263Y009222D01*
X009296Y009228D01*
X009330Y009230D01*
X010030Y009180D02*
X010030Y008630D01*
X010030Y008230D02*
X010030Y008030D01*
X009330Y008030D01*
X009330Y008230D01*
X010030Y009630D02*
X010030Y009830D01*
X003030Y009830D02*
X003030Y008030D01*
X002330Y008030D01*
X002330Y009830D01*
X003030Y009830D01*
X003030Y009280D02*
X003067Y009278D01*
X003103Y009272D01*
X003138Y009263D01*
X003172Y009250D01*
X003205Y009233D01*
X003236Y009213D01*
X003264Y009190D01*
X003290Y009164D01*
X003313Y009136D01*
X003333Y009105D01*
X003350Y009072D01*
X003363Y009038D01*
X003372Y009003D01*
X003378Y008967D01*
X003380Y008930D01*
X003378Y008893D01*
X003372Y008857D01*
X003363Y008822D01*
X003350Y008788D01*
X003333Y008755D01*
X003313Y008724D01*
X003290Y008696D01*
X003264Y008670D01*
X003236Y008647D01*
X003205Y008627D01*
X003172Y008610D01*
X003138Y008597D01*
X003103Y008588D01*
X003067Y008582D01*
X003030Y008580D01*
X017830Y008030D02*
X017830Y009830D01*
X018530Y009830D01*
X018530Y008030D01*
X017830Y008030D01*
X018530Y008580D02*
X018567Y008582D01*
X018603Y008588D01*
X018638Y008597D01*
X018672Y008610D01*
X018705Y008627D01*
X018736Y008647D01*
X018764Y008670D01*
X018790Y008696D01*
X018813Y008724D01*
X018833Y008755D01*
X018850Y008788D01*
X018863Y008822D01*
X018872Y008857D01*
X018878Y008893D01*
X018880Y008930D01*
X018878Y008967D01*
X018872Y009003D01*
X018863Y009038D01*
X018850Y009072D01*
X018833Y009105D01*
X018813Y009136D01*
X018790Y009164D01*
X018764Y009190D01*
X018736Y009213D01*
X018705Y009233D01*
X018672Y009250D01*
X018638Y009263D01*
X018603Y009272D01*
X018567Y009278D01*
X018530Y009280D01*
X024830Y009230D02*
X024830Y008630D01*
X025530Y008630D02*
X025530Y009180D01*
X024830Y009230D02*
X024796Y009228D01*
X024763Y009222D01*
X024731Y009213D01*
X024700Y009200D01*
X024670Y009184D01*
X024643Y009165D01*
X024618Y009142D01*
X024595Y009117D01*
X024576Y009090D01*
X024560Y009060D01*
X024547Y009029D01*
X024538Y008997D01*
X024532Y008964D01*
X024530Y008930D01*
X024532Y008896D01*
X024538Y008863D01*
X024547Y008831D01*
X024560Y008800D01*
X024576Y008770D01*
X024595Y008743D01*
X024618Y008718D01*
X024643Y008695D01*
X024670Y008676D01*
X024700Y008660D01*
X024731Y008647D01*
X024763Y008638D01*
X024796Y008632D01*
X024830Y008630D01*
X024830Y008230D02*
X024830Y008030D01*
X025530Y008030D01*
X025530Y008230D01*
X025530Y009630D02*
X025530Y009830D01*
X024830Y009830D01*
X024830Y009630D01*
D14*
X024730Y009130D02*
X024730Y008730D01*
X024630Y008830D02*
X024630Y009030D01*
X016230Y013230D02*
X016230Y013630D01*
X016130Y013530D02*
X016130Y013330D01*
X024630Y015330D02*
X024630Y015530D01*
X024730Y015630D02*
X024730Y015230D01*
X033130Y013530D02*
X033130Y013330D01*
X033230Y013230D02*
X033230Y013630D01*
X040230Y009130D02*
X040230Y008730D01*
X040130Y008830D02*
X040130Y009030D01*
X033230Y004630D02*
X033230Y004230D01*
X033130Y004330D02*
X033130Y004530D01*
X024730Y002630D02*
X024730Y002230D01*
X024630Y002330D02*
X024630Y002530D01*
X016230Y004230D02*
X016230Y004630D01*
X016130Y004530D02*
X016130Y004330D01*
X009230Y008730D02*
X009230Y009130D01*
X009130Y009030D02*
X009130Y008830D01*
D15*
X008805Y008487D02*
X008730Y008562D01*
X008580Y008562D01*
X008505Y008487D01*
X008505Y008262D01*
X008355Y008262D02*
X008805Y008262D01*
X008805Y008487D01*
X008505Y008412D02*
X008355Y008562D01*
X008280Y008722D02*
X008280Y009023D01*
X008355Y009183D02*
X008355Y009483D01*
X008355Y009643D02*
X008355Y009943D01*
X008355Y010103D02*
X008355Y010329D01*
X008430Y010404D01*
X008730Y010404D01*
X008805Y010329D01*
X008805Y010103D01*
X008355Y010103D01*
X008805Y009943D02*
X008805Y009643D01*
X008355Y009643D01*
X008580Y009643D02*
X008580Y009793D01*
X008805Y009183D02*
X008355Y009183D01*
X008355Y008105D02*
X008355Y007955D01*
X008355Y008030D02*
X008805Y008030D01*
X008805Y007955D02*
X008805Y008105D01*
X004155Y008199D02*
X004155Y007974D01*
X003705Y007974D01*
X003855Y007974D02*
X003855Y008199D01*
X003930Y008274D01*
X004080Y008274D01*
X004155Y008199D01*
X004155Y008434D02*
X004155Y008734D01*
X004155Y008584D02*
X003705Y008584D01*
X003780Y008895D02*
X003705Y008970D01*
X003705Y009120D01*
X003780Y009195D01*
X003855Y009195D01*
X003930Y009120D01*
X003930Y008895D01*
X003780Y008895D01*
X003930Y008895D02*
X004080Y009045D01*
X004155Y009195D01*
X008355Y010639D02*
X008355Y010789D01*
X008430Y010864D01*
X008505Y010864D01*
X008580Y010789D01*
X008580Y010564D01*
X008430Y010564D01*
X008355Y010639D01*
X008580Y010564D02*
X008730Y010714D01*
X008805Y010864D01*
X010705Y012555D02*
X011155Y012555D01*
X011155Y012780D01*
X011080Y012855D01*
X010930Y012855D01*
X010855Y012780D01*
X010855Y012555D01*
X011155Y013015D02*
X011155Y013316D01*
X011155Y013166D02*
X010705Y013166D01*
X010780Y013476D02*
X010705Y013551D01*
X010705Y013701D01*
X010780Y013776D01*
X010855Y013776D01*
X010930Y013701D01*
X010930Y013626D01*
X010930Y013701D02*
X011005Y013776D01*
X011080Y013776D01*
X011155Y013701D01*
X011155Y013551D01*
X011080Y013476D01*
X015280Y013523D02*
X015280Y013222D01*
X015355Y013062D02*
X015505Y012912D01*
X015505Y012987D02*
X015505Y012762D01*
X015355Y012762D02*
X015805Y012762D01*
X015805Y012987D01*
X015730Y013062D01*
X015580Y013062D01*
X015505Y012987D01*
X015355Y012605D02*
X015355Y012455D01*
X015355Y012530D02*
X015805Y012530D01*
X015805Y012455D02*
X015805Y012605D01*
X015805Y013683D02*
X015355Y013683D01*
X015355Y013983D01*
X015355Y014143D02*
X015355Y014443D01*
X015355Y014603D02*
X015355Y014829D01*
X015430Y014904D01*
X015730Y014904D01*
X015805Y014829D01*
X015805Y014603D01*
X015355Y014603D01*
X015580Y014293D02*
X015580Y014143D01*
X015805Y014143D02*
X015355Y014143D01*
X015805Y014143D02*
X015805Y014443D01*
X015730Y015064D02*
X015805Y015139D01*
X015805Y015289D01*
X015730Y015364D01*
X015655Y015364D01*
X015580Y015289D01*
X015505Y015364D01*
X015430Y015364D01*
X015355Y015289D01*
X015355Y015139D01*
X015430Y015064D01*
X015580Y015214D02*
X015580Y015289D01*
X019205Y015395D02*
X019205Y015695D01*
X019205Y015545D02*
X019655Y015545D01*
X019505Y015395D01*
X019655Y015234D02*
X019655Y014934D01*
X019655Y015084D02*
X019205Y015084D01*
X019430Y014774D02*
X019355Y014699D01*
X019355Y014474D01*
X019205Y014474D02*
X019655Y014474D01*
X019655Y014699D01*
X019580Y014774D01*
X019430Y014774D01*
X023730Y015222D02*
X023730Y015523D01*
X023805Y015683D02*
X023805Y015983D01*
X023805Y016143D02*
X023805Y016443D01*
X023805Y016603D02*
X023805Y016829D01*
X023880Y016904D01*
X024180Y016904D01*
X024255Y016829D01*
X024255Y016603D01*
X023805Y016603D01*
X024030Y016293D02*
X024030Y016143D01*
X024255Y016143D02*
X023805Y016143D01*
X024255Y016143D02*
X024255Y016443D01*
X024105Y017064D02*
X024255Y017214D01*
X023805Y017214D01*
X023805Y017064D02*
X023805Y017364D01*
X023805Y015683D02*
X024255Y015683D01*
X024180Y015062D02*
X024030Y015062D01*
X023955Y014987D01*
X023955Y014762D01*
X023805Y014762D02*
X024255Y014762D01*
X024255Y014987D01*
X024180Y015062D01*
X023955Y014912D02*
X023805Y015062D01*
X023805Y014605D02*
X023805Y014455D01*
X023805Y014530D02*
X024255Y014530D01*
X024255Y014455D02*
X024255Y014605D01*
X027705Y013695D02*
X027705Y013395D01*
X028005Y013695D01*
X028080Y013695D01*
X028155Y013620D01*
X028155Y013470D01*
X028080Y013395D01*
X028155Y013234D02*
X028155Y012934D01*
X028155Y013084D02*
X027705Y013084D01*
X027930Y012774D02*
X027855Y012699D01*
X027855Y012474D01*
X027705Y012474D02*
X028155Y012474D01*
X028155Y012699D01*
X028080Y012774D01*
X027930Y012774D01*
X032280Y013222D02*
X032280Y013523D01*
X032355Y013683D02*
X032355Y013983D01*
X032355Y014143D02*
X032355Y014443D01*
X032355Y014603D02*
X032355Y014829D01*
X032430Y014904D01*
X032730Y014904D01*
X032805Y014829D01*
X032805Y014603D01*
X032355Y014603D01*
X032580Y014293D02*
X032580Y014143D01*
X032805Y014143D02*
X032355Y014143D01*
X032805Y014143D02*
X032805Y014443D01*
X032730Y015064D02*
X032805Y015139D01*
X032805Y015289D01*
X032730Y015364D01*
X032655Y015364D01*
X032355Y015064D01*
X032355Y015364D01*
X032355Y013683D02*
X032805Y013683D01*
X032730Y013062D02*
X032580Y013062D01*
X032505Y012987D01*
X032505Y012762D01*
X032355Y012762D02*
X032805Y012762D01*
X032805Y012987D01*
X032730Y013062D01*
X032505Y012912D02*
X032355Y013062D01*
X032355Y012605D02*
X032355Y012455D01*
X032355Y012530D02*
X032805Y012530D01*
X032805Y012455D02*
X032805Y012605D01*
X039355Y010789D02*
X039805Y010789D01*
X039580Y010564D01*
X039580Y010864D01*
X039430Y010404D02*
X039730Y010404D01*
X039805Y010329D01*
X039805Y010103D01*
X039355Y010103D01*
X039355Y010329D01*
X039430Y010404D01*
X039355Y009943D02*
X039355Y009643D01*
X039805Y009643D01*
X039805Y009943D01*
X039580Y009793D02*
X039580Y009643D01*
X039355Y009483D02*
X039355Y009183D01*
X039805Y009183D01*
X039280Y009023D02*
X039280Y008722D01*
X039355Y008562D02*
X039505Y008412D01*
X039505Y008487D02*
X039505Y008262D01*
X039355Y008262D02*
X039805Y008262D01*
X039805Y008487D01*
X039730Y008562D01*
X039580Y008562D01*
X039505Y008487D01*
X039355Y008105D02*
X039355Y007955D01*
X039355Y008030D02*
X039805Y008030D01*
X039805Y007955D02*
X039805Y008105D01*
X035155Y008199D02*
X035155Y007974D01*
X034705Y007974D01*
X034855Y007974D02*
X034855Y008199D01*
X034930Y008274D01*
X035080Y008274D01*
X035155Y008199D01*
X035155Y008434D02*
X035155Y008734D01*
X035155Y008584D02*
X034705Y008584D01*
X034930Y008895D02*
X034930Y009195D01*
X034705Y009120D02*
X035155Y009120D01*
X034930Y008895D01*
X032505Y006295D02*
X032430Y006295D01*
X032130Y005995D01*
X032055Y005995D01*
X032130Y005834D02*
X032055Y005759D01*
X032055Y005534D01*
X032505Y005534D01*
X032505Y005759D01*
X032430Y005834D01*
X032130Y005834D01*
X032505Y005995D02*
X032505Y006295D01*
X032505Y005374D02*
X032505Y005074D01*
X032055Y005074D01*
X032055Y005374D01*
X032280Y005224D02*
X032280Y005074D01*
X032055Y004914D02*
X032055Y004613D01*
X032505Y004613D01*
X031980Y004453D02*
X031980Y004153D01*
X032055Y003993D02*
X032205Y003843D01*
X032205Y003918D02*
X032205Y003693D01*
X032055Y003693D02*
X032505Y003693D01*
X032505Y003918D01*
X032430Y003993D01*
X032280Y003993D01*
X032205Y003918D01*
X032055Y003536D02*
X032055Y003386D01*
X032055Y003461D02*
X032505Y003461D01*
X032505Y003386D02*
X032505Y003536D01*
X028155Y003474D02*
X028155Y003699D01*
X028080Y003774D01*
X027930Y003774D01*
X027855Y003699D01*
X027855Y003474D01*
X027705Y003474D02*
X028155Y003474D01*
X028155Y003934D02*
X028155Y004234D01*
X028155Y004084D02*
X027705Y004084D01*
X027705Y004395D02*
X027780Y004395D01*
X028080Y004695D01*
X028155Y004695D01*
X028155Y004395D01*
X024305Y004289D02*
X024305Y004139D01*
X024230Y004064D01*
X024155Y004064D01*
X024080Y004139D01*
X024080Y004364D01*
X023930Y004364D02*
X024230Y004364D01*
X024305Y004289D01*
X023930Y004364D02*
X023855Y004289D01*
X023855Y004139D01*
X023930Y004064D01*
X023930Y003904D02*
X024230Y003904D01*
X024305Y003829D01*
X024305Y003603D01*
X023855Y003603D01*
X023855Y003829D01*
X023930Y003904D01*
X023855Y003443D02*
X023855Y003143D01*
X024305Y003143D01*
X024305Y003443D01*
X024080Y003293D02*
X024080Y003143D01*
X023855Y002983D02*
X023855Y002683D01*
X024305Y002683D01*
X023780Y002523D02*
X023780Y002222D01*
X023855Y002062D02*
X024005Y001912D01*
X024005Y001987D02*
X024005Y001762D01*
X023855Y001762D02*
X024305Y001762D01*
X024305Y001987D01*
X024230Y002062D01*
X024080Y002062D01*
X024005Y001987D01*
X023855Y001605D02*
X023855Y001455D01*
X023855Y001530D02*
X024305Y001530D01*
X024305Y001455D02*
X024305Y001605D01*
X019655Y001699D02*
X019655Y001474D01*
X019205Y001474D01*
X019355Y001474D02*
X019355Y001699D01*
X019430Y001774D01*
X019580Y001774D01*
X019655Y001699D01*
X019655Y001934D02*
X019655Y002234D01*
X019655Y002084D02*
X019205Y002084D01*
X019280Y002395D02*
X019205Y002470D01*
X019205Y002620D01*
X019280Y002695D01*
X019580Y002695D01*
X019655Y002620D01*
X019655Y002470D01*
X019580Y002395D01*
X019505Y002395D01*
X019430Y002470D01*
X019430Y002695D01*
X015805Y003455D02*
X015805Y003605D01*
X015805Y003530D02*
X015355Y003530D01*
X015355Y003455D02*
X015355Y003605D01*
X015355Y003762D02*
X015805Y003762D01*
X015805Y003987D01*
X015730Y004062D01*
X015580Y004062D01*
X015505Y003987D01*
X015505Y003762D01*
X015505Y003912D02*
X015355Y004062D01*
X015280Y004222D02*
X015280Y004523D01*
X015355Y004683D02*
X015355Y004983D01*
X015355Y005143D02*
X015355Y005443D01*
X015355Y005603D02*
X015355Y005829D01*
X015430Y005904D01*
X015730Y005904D01*
X015805Y005829D01*
X015805Y005603D01*
X015355Y005603D01*
X015805Y005443D02*
X015805Y005143D01*
X015355Y005143D01*
X015580Y005143D02*
X015580Y005293D01*
X015805Y004683D02*
X015355Y004683D01*
X015430Y006064D02*
X015505Y006064D01*
X015580Y006139D01*
X015580Y006289D01*
X015505Y006364D01*
X015430Y006364D01*
X015355Y006289D01*
X015355Y006139D01*
X015430Y006064D01*
X015580Y006139D02*
X015655Y006064D01*
X015730Y006064D01*
X015805Y006139D01*
X015805Y006289D01*
X015730Y006364D01*
X015655Y006364D01*
X015580Y006289D01*
X019205Y007974D02*
X019655Y007974D01*
X019655Y008199D01*
X019580Y008274D01*
X019430Y008274D01*
X019355Y008199D01*
X019355Y007974D01*
X019655Y008434D02*
X019655Y008734D01*
X019655Y008584D02*
X019205Y008584D01*
X019280Y008895D02*
X019205Y008970D01*
X019205Y009120D01*
X019280Y009195D01*
X019430Y009195D01*
X019505Y009120D01*
X019505Y009045D01*
X019430Y008895D01*
X019655Y008895D01*
X019655Y009195D01*
X023780Y009023D02*
X023780Y008722D01*
X023855Y008562D02*
X024005Y008412D01*
X024005Y008487D02*
X024005Y008262D01*
X023855Y008262D02*
X024305Y008262D01*
X024305Y008487D01*
X024230Y008562D01*
X024080Y008562D01*
X024005Y008487D01*
X023855Y008105D02*
X023855Y007955D01*
X023855Y008030D02*
X024305Y008030D01*
X024305Y007955D02*
X024305Y008105D01*
X024305Y009183D02*
X023855Y009183D01*
X023855Y009483D01*
X023855Y009643D02*
X023855Y009943D01*
X023855Y010103D02*
X023855Y010329D01*
X023930Y010404D01*
X024230Y010404D01*
X024305Y010329D01*
X024305Y010103D01*
X023855Y010103D01*
X024305Y009943D02*
X024305Y009643D01*
X023855Y009643D01*
X024080Y009643D02*
X024080Y009793D01*
X024080Y010564D02*
X024155Y010714D01*
X024155Y010789D01*
X024080Y010864D01*
X023930Y010864D01*
X023855Y010789D01*
X023855Y010639D01*
X023930Y010564D01*
X024080Y010564D02*
X024305Y010564D01*
X024305Y010864D01*
X011155Y004620D02*
X011080Y004695D01*
X011005Y004695D01*
X010930Y004620D01*
X010930Y004470D01*
X011005Y004395D01*
X011080Y004395D01*
X011155Y004470D01*
X011155Y004620D01*
X010930Y004620D02*
X010855Y004695D01*
X010780Y004695D01*
X010705Y004620D01*
X010705Y004470D01*
X010780Y004395D01*
X010855Y004395D01*
X010930Y004470D01*
X011155Y004234D02*
X011155Y003934D01*
X011155Y004084D02*
X010705Y004084D01*
X010930Y003774D02*
X010855Y003699D01*
X010855Y003474D01*
X010705Y003474D02*
X011155Y003474D01*
X011155Y003699D01*
X011080Y003774D01*
X010930Y003774D01*
M02*
