G75*
%MOIN*%
%OFA0B0*%
%FSLAX24Y24*%
%IPPOS*%
%LPD*%
%AMOC8*
5,1,8,0,0,1.08239X$1,22.5*
%
%ADD10C,0.0060*%
%ADD11C,0.0554*%
%ADD12OC8,0.0520*%
%ADD13C,0.0600*%
%ADD14C,0.0160*%
%ADD15C,0.0150*%
%ADD16C,0.0400*%
%ADD17C,0.1800*%
D10*
X000924Y007288D02*
X000924Y007929D01*
X001137Y007929D02*
X000710Y007929D01*
X001355Y007715D02*
X001355Y007288D01*
X001355Y007608D02*
X001782Y007608D01*
X001782Y007715D02*
X001782Y007288D01*
X001782Y007715D02*
X001568Y007929D01*
X001355Y007715D01*
D11*
X002430Y021008D03*
X003430Y021008D03*
X004430Y021008D03*
X005430Y021008D03*
X004930Y022008D03*
X005930Y022008D03*
X003930Y022008D03*
X002930Y022008D03*
D12*
X000680Y014008D03*
X000680Y013008D03*
X007680Y013008D03*
X007680Y014008D03*
D13*
X007180Y010808D02*
X007180Y010208D01*
X006180Y010208D02*
X006180Y010808D01*
X005180Y010808D02*
X005180Y010208D01*
X004180Y010208D02*
X004180Y010808D01*
X003180Y010808D02*
X003180Y010208D01*
X002180Y010208D02*
X002180Y010808D01*
X001180Y010808D02*
X001180Y010208D01*
D14*
X000760Y010020D02*
X000460Y010020D01*
X000460Y010178D02*
X000720Y010178D01*
X000720Y010117D02*
X000790Y009948D01*
X000919Y009818D01*
X001088Y009748D01*
X001271Y009748D01*
X001441Y009818D01*
X001570Y009948D01*
X001640Y010117D01*
X001640Y010636D01*
X001715Y010711D01*
X001715Y019961D01*
X002330Y020576D01*
X002343Y020571D01*
X002517Y020571D01*
X002645Y020624D01*
X002645Y019905D01*
X002083Y019343D01*
X001945Y019205D01*
X001945Y011209D01*
X001919Y011198D01*
X001790Y011069D01*
X001720Y010900D01*
X001720Y010117D01*
X001790Y009948D01*
X001919Y009818D01*
X002088Y009748D01*
X002271Y009748D01*
X002441Y009818D01*
X002570Y009948D01*
X002618Y010062D01*
X002642Y009985D01*
X002684Y009904D01*
X002738Y009830D01*
X002802Y009766D01*
X002876Y009712D01*
X002957Y009671D01*
X003044Y009642D01*
X003134Y009628D01*
X003160Y009628D01*
X003160Y010488D01*
X003200Y010488D01*
X003200Y009628D01*
X003226Y009628D01*
X003316Y009642D01*
X003403Y009671D01*
X003484Y009712D01*
X003558Y009766D01*
X003622Y009830D01*
X003676Y009904D01*
X003718Y009985D01*
X003742Y010062D01*
X003790Y009948D01*
X003919Y009818D01*
X004088Y009748D01*
X004271Y009748D01*
X004441Y009818D01*
X004570Y009948D01*
X004640Y010117D01*
X004640Y010900D01*
X004570Y011069D01*
X004441Y011198D01*
X004271Y011268D01*
X004088Y011268D01*
X003919Y011198D01*
X003871Y011150D01*
X003315Y011705D01*
X003315Y017886D01*
X003332Y017857D01*
X003529Y017660D01*
X003771Y017520D01*
X004040Y017448D01*
X004320Y017448D01*
X004589Y017520D01*
X004831Y017660D01*
X005028Y017857D01*
X005168Y018099D01*
X005240Y018369D01*
X005240Y018648D01*
X005168Y018917D01*
X005028Y019159D01*
X004831Y019356D01*
X004589Y019496D01*
X004320Y019568D01*
X004040Y019568D01*
X003771Y019496D01*
X003529Y019356D01*
X003332Y019159D01*
X003315Y019130D01*
X003315Y019561D01*
X004330Y020576D01*
X004343Y020571D01*
X004517Y020571D01*
X004678Y020638D01*
X004690Y020650D01*
X004690Y020610D01*
X004585Y020518D01*
X004458Y020518D01*
X004326Y020463D01*
X004225Y020362D01*
X004170Y020230D01*
X004170Y020087D01*
X004225Y019954D01*
X004326Y019853D01*
X004458Y019798D01*
X004602Y019798D01*
X004734Y019853D01*
X004835Y019954D01*
X004890Y020087D01*
X004890Y020161D01*
X005044Y020296D01*
X005066Y020305D01*
X005133Y020372D01*
X005135Y020375D01*
X005158Y020395D01*
X005161Y020438D01*
X005170Y020460D01*
X005170Y020515D01*
X005216Y020492D01*
X005300Y020465D01*
X005386Y020451D01*
X005421Y020451D01*
X005421Y021000D01*
X005439Y021000D01*
X005439Y020451D01*
X005474Y020451D01*
X005560Y020465D01*
X005644Y020492D01*
X005722Y020532D01*
X005793Y020583D01*
X005855Y020645D01*
X005907Y020716D01*
X005946Y020794D01*
X005950Y020806D01*
X006245Y020511D01*
X006245Y015929D01*
X006152Y015968D01*
X006008Y015968D01*
X005876Y015913D01*
X005775Y015812D01*
X005720Y015680D01*
X005720Y015537D01*
X005775Y015404D01*
X005845Y015334D01*
X005845Y011505D01*
X005489Y011150D01*
X005441Y011198D01*
X005271Y011268D01*
X005088Y011268D01*
X004919Y011198D01*
X004790Y011069D01*
X004720Y010900D01*
X004720Y010117D01*
X004790Y009948D01*
X004919Y009818D01*
X005088Y009748D01*
X005271Y009748D01*
X005441Y009818D01*
X005570Y009948D01*
X005640Y010117D01*
X005640Y010636D01*
X005720Y010716D01*
X005720Y010117D01*
X005790Y009948D01*
X005919Y009818D01*
X006088Y009748D01*
X006271Y009748D01*
X006441Y009818D01*
X006570Y009948D01*
X006640Y010117D01*
X006640Y010636D01*
X006715Y010711D01*
X006715Y020705D01*
X006577Y020843D01*
X005850Y021571D01*
X006017Y021571D01*
X006178Y021638D01*
X006301Y021761D01*
X006367Y021921D01*
X006367Y022095D01*
X006301Y022256D01*
X006178Y022379D01*
X006165Y022384D01*
X006165Y022805D01*
X006027Y022943D01*
X002883Y022943D01*
X002745Y022805D01*
X000995Y021055D01*
X000995Y014457D01*
X000904Y014548D01*
X000680Y014548D01*
X000460Y014548D01*
X000460Y026464D01*
X007961Y026464D01*
X007961Y014321D01*
X007854Y014428D01*
X007506Y014428D01*
X007260Y014182D01*
X007260Y013834D01*
X007506Y013588D01*
X007854Y013588D01*
X007961Y013695D01*
X007961Y013491D01*
X007904Y013548D01*
X007680Y013548D01*
X007456Y013548D01*
X007140Y013232D01*
X007140Y013008D01*
X007140Y012784D01*
X007456Y012468D01*
X007680Y012468D01*
X007680Y013008D01*
X007680Y012468D01*
X007904Y012468D01*
X007961Y012525D01*
X007961Y007288D01*
X002349Y007288D01*
X002349Y008202D01*
X002346Y008223D01*
X002341Y008243D01*
X002333Y008262D01*
X002322Y008281D01*
X002310Y008297D01*
X002295Y008312D01*
X002278Y008325D01*
X002260Y008335D01*
X002240Y008343D01*
X002220Y008349D01*
X002199Y008351D01*
X000460Y008351D01*
X000460Y012634D01*
X000506Y012588D01*
X000854Y012588D01*
X001100Y012834D01*
X001100Y013096D01*
X001245Y013241D01*
X001245Y011268D01*
X001088Y011268D01*
X000919Y011198D01*
X000790Y011069D01*
X000720Y010900D01*
X000720Y010117D01*
X000720Y010337D02*
X000460Y010337D01*
X000460Y010495D02*
X000720Y010495D01*
X000720Y010654D02*
X000460Y010654D01*
X000460Y010812D02*
X000720Y010812D01*
X000749Y010971D02*
X000460Y010971D01*
X000460Y011129D02*
X000850Y011129D01*
X000460Y011288D02*
X001245Y011288D01*
X001245Y011446D02*
X000460Y011446D01*
X000460Y011605D02*
X001245Y011605D01*
X001245Y011763D02*
X000460Y011763D01*
X000460Y011922D02*
X001245Y011922D01*
X001245Y012080D02*
X000460Y012080D01*
X000460Y012239D02*
X001245Y012239D01*
X001245Y012397D02*
X000460Y012397D01*
X000460Y012556D02*
X001245Y012556D01*
X001245Y012714D02*
X000980Y012714D01*
X001100Y012873D02*
X001245Y012873D01*
X001245Y013031D02*
X001100Y013031D01*
X001194Y013190D02*
X001245Y013190D01*
X001715Y013190D02*
X001945Y013190D01*
X001945Y013348D02*
X001715Y013348D01*
X001715Y013507D02*
X001945Y013507D01*
X001945Y013665D02*
X001715Y013665D01*
X001715Y013824D02*
X001945Y013824D01*
X001945Y013982D02*
X001715Y013982D01*
X001715Y014141D02*
X001945Y014141D01*
X001945Y014299D02*
X001715Y014299D01*
X001715Y014458D02*
X001945Y014458D01*
X001945Y014616D02*
X001715Y014616D01*
X001715Y014775D02*
X001945Y014775D01*
X001945Y014933D02*
X001715Y014933D01*
X001715Y015092D02*
X001945Y015092D01*
X001945Y015250D02*
X001715Y015250D01*
X001715Y015409D02*
X001945Y015409D01*
X001945Y015567D02*
X001715Y015567D01*
X001715Y015726D02*
X001945Y015726D01*
X001945Y015884D02*
X001715Y015884D01*
X001715Y016043D02*
X001945Y016043D01*
X001945Y016201D02*
X001715Y016201D01*
X001715Y016360D02*
X001945Y016360D01*
X001945Y016518D02*
X001715Y016518D01*
X001715Y016677D02*
X001945Y016677D01*
X001945Y016835D02*
X001715Y016835D01*
X001715Y016994D02*
X001945Y016994D01*
X001945Y017152D02*
X001715Y017152D01*
X001715Y017311D02*
X001945Y017311D01*
X001945Y017469D02*
X001715Y017469D01*
X001715Y017628D02*
X001945Y017628D01*
X001945Y017786D02*
X001715Y017786D01*
X001715Y017945D02*
X001945Y017945D01*
X001945Y018103D02*
X001715Y018103D01*
X001715Y018262D02*
X001945Y018262D01*
X001945Y018420D02*
X001715Y018420D01*
X001715Y018579D02*
X001945Y018579D01*
X001945Y018737D02*
X001715Y018737D01*
X001715Y018896D02*
X001945Y018896D01*
X001945Y019054D02*
X001715Y019054D01*
X001715Y019213D02*
X001952Y019213D01*
X002111Y019371D02*
X001715Y019371D01*
X001715Y019530D02*
X002269Y019530D01*
X002428Y019688D02*
X001715Y019688D01*
X001715Y019847D02*
X002586Y019847D01*
X002645Y020005D02*
X001759Y020005D01*
X001918Y020164D02*
X002645Y020164D01*
X002645Y020322D02*
X002076Y020322D01*
X002235Y020481D02*
X002645Y020481D01*
X003442Y019688D02*
X006245Y019688D01*
X006245Y019530D02*
X004463Y019530D01*
X004341Y019847D02*
X003601Y019847D01*
X003759Y020005D02*
X004204Y020005D01*
X004170Y020164D02*
X003918Y020164D01*
X004076Y020322D02*
X004208Y020322D01*
X004235Y020481D02*
X004368Y020481D01*
X004679Y020639D02*
X004690Y020639D01*
X004930Y020508D02*
X004930Y022008D01*
X005421Y020956D02*
X005439Y020956D01*
X005439Y020798D02*
X005421Y020798D01*
X005421Y020639D02*
X005439Y020639D01*
X005439Y020481D02*
X005421Y020481D01*
X005250Y020481D02*
X005170Y020481D01*
X005083Y020322D02*
X006245Y020322D01*
X006245Y020164D02*
X004893Y020164D01*
X004856Y020005D02*
X006245Y020005D01*
X006245Y019847D02*
X004719Y019847D01*
X004805Y019371D02*
X006245Y019371D01*
X006245Y019213D02*
X004975Y019213D01*
X005089Y019054D02*
X006245Y019054D01*
X006245Y018896D02*
X005174Y018896D01*
X005216Y018737D02*
X006245Y018737D01*
X006245Y018579D02*
X005240Y018579D01*
X005240Y018420D02*
X006245Y018420D01*
X006245Y018262D02*
X005211Y018262D01*
X005169Y018103D02*
X006245Y018103D01*
X006245Y017945D02*
X005079Y017945D01*
X004957Y017786D02*
X006245Y017786D01*
X006245Y017628D02*
X004775Y017628D01*
X004398Y017469D02*
X006245Y017469D01*
X006245Y017311D02*
X003315Y017311D01*
X003315Y017469D02*
X003962Y017469D01*
X003585Y017628D02*
X003315Y017628D01*
X003315Y017786D02*
X003403Y017786D01*
X003315Y017152D02*
X006245Y017152D01*
X006245Y016994D02*
X003315Y016994D01*
X003315Y016835D02*
X006245Y016835D01*
X006245Y016677D02*
X003315Y016677D01*
X003315Y016518D02*
X006245Y016518D01*
X006245Y016360D02*
X003315Y016360D01*
X003315Y016201D02*
X006245Y016201D01*
X006245Y016043D02*
X003315Y016043D01*
X003315Y015884D02*
X005847Y015884D01*
X005739Y015726D02*
X003315Y015726D01*
X003315Y015567D02*
X005720Y015567D01*
X005773Y015409D02*
X003315Y015409D01*
X003315Y015250D02*
X005845Y015250D01*
X005845Y015092D02*
X003315Y015092D01*
X003315Y014933D02*
X005845Y014933D01*
X005845Y014775D02*
X003315Y014775D01*
X003315Y014616D02*
X005845Y014616D01*
X005845Y014458D02*
X003315Y014458D01*
X003315Y014299D02*
X003918Y014299D01*
X004015Y014339D02*
X003709Y014213D01*
X003475Y013979D01*
X003349Y013673D01*
X003349Y013343D01*
X003475Y013037D01*
X003709Y012803D01*
X004015Y012677D01*
X004345Y012677D01*
X004651Y012803D01*
X004885Y013037D01*
X005011Y013343D01*
X005011Y013673D01*
X004885Y013979D01*
X004651Y014213D01*
X004345Y014339D01*
X004015Y014339D01*
X004442Y014299D02*
X005845Y014299D01*
X005845Y014141D02*
X004723Y014141D01*
X004881Y013982D02*
X005845Y013982D01*
X005845Y013824D02*
X004949Y013824D01*
X005011Y013665D02*
X005845Y013665D01*
X005845Y013507D02*
X005011Y013507D01*
X005011Y013348D02*
X005845Y013348D01*
X005845Y013190D02*
X004948Y013190D01*
X004878Y013031D02*
X005845Y013031D01*
X005845Y012873D02*
X004720Y012873D01*
X004435Y012714D02*
X005845Y012714D01*
X005845Y012556D02*
X003315Y012556D01*
X003315Y012714D02*
X003925Y012714D01*
X003640Y012873D02*
X003315Y012873D01*
X003315Y013031D02*
X003482Y013031D01*
X003412Y013190D02*
X003315Y013190D01*
X003315Y013348D02*
X003349Y013348D01*
X003349Y013507D02*
X003315Y013507D01*
X003315Y013665D02*
X003349Y013665D01*
X003315Y013824D02*
X003411Y013824D01*
X003479Y013982D02*
X003315Y013982D01*
X003315Y014141D02*
X003637Y014141D01*
X001945Y013031D02*
X001715Y013031D01*
X001715Y012873D02*
X001945Y012873D01*
X001945Y012714D02*
X001715Y012714D01*
X001715Y012556D02*
X001945Y012556D01*
X001945Y012397D02*
X001715Y012397D01*
X001715Y012239D02*
X001945Y012239D01*
X001945Y012080D02*
X001715Y012080D01*
X001715Y011922D02*
X001945Y011922D01*
X001945Y011763D02*
X001715Y011763D01*
X001715Y011605D02*
X001945Y011605D01*
X001945Y011446D02*
X001715Y011446D01*
X001715Y011288D02*
X001945Y011288D01*
X001850Y011129D02*
X001715Y011129D01*
X001715Y010971D02*
X001749Y010971D01*
X001720Y010812D02*
X001715Y010812D01*
X001720Y010654D02*
X001658Y010654D01*
X001640Y010495D02*
X001720Y010495D01*
X001720Y010337D02*
X001640Y010337D01*
X001640Y010178D02*
X001720Y010178D01*
X001760Y010020D02*
X001600Y010020D01*
X001484Y009861D02*
X001876Y009861D01*
X002484Y009861D02*
X002715Y009861D01*
X002631Y010020D02*
X002600Y010020D01*
X002895Y009703D02*
X000460Y009703D01*
X000460Y009861D02*
X000876Y009861D01*
X000460Y009544D02*
X003951Y009544D01*
X004040Y009568D02*
X003771Y009496D01*
X003529Y009356D01*
X003332Y009159D01*
X003192Y008917D01*
X003120Y008648D01*
X003120Y008369D01*
X003192Y008099D01*
X003332Y007857D01*
X003529Y007660D01*
X003771Y007520D01*
X004040Y007448D01*
X004320Y007448D01*
X004589Y007520D01*
X004831Y007660D01*
X005028Y007857D01*
X005168Y008099D01*
X005240Y008369D01*
X005240Y008648D01*
X005168Y008917D01*
X005028Y009159D01*
X004831Y009356D01*
X004589Y009496D01*
X004320Y009568D01*
X004040Y009568D01*
X003876Y009861D02*
X003645Y009861D01*
X003729Y010020D02*
X003760Y010020D01*
X003465Y009703D02*
X007961Y009703D01*
X007961Y009861D02*
X007484Y009861D01*
X007441Y009818D02*
X007570Y009948D01*
X007640Y010117D01*
X007640Y010900D01*
X007570Y011069D01*
X007441Y011198D01*
X007271Y011268D01*
X007088Y011268D01*
X006919Y011198D01*
X006790Y011069D01*
X006720Y010900D01*
X006720Y010117D01*
X006790Y009948D01*
X006919Y009818D01*
X007088Y009748D01*
X007271Y009748D01*
X007441Y009818D01*
X007600Y010020D02*
X007961Y010020D01*
X007961Y010178D02*
X007640Y010178D01*
X007640Y010337D02*
X007961Y010337D01*
X007961Y010495D02*
X007640Y010495D01*
X007640Y010654D02*
X007961Y010654D01*
X007961Y010812D02*
X007640Y010812D01*
X007611Y010971D02*
X007961Y010971D01*
X007961Y011129D02*
X007510Y011129D01*
X007961Y011288D02*
X006715Y011288D01*
X006715Y011446D02*
X007961Y011446D01*
X007961Y011605D02*
X006715Y011605D01*
X006715Y011763D02*
X007961Y011763D01*
X007961Y011922D02*
X006715Y011922D01*
X006715Y012080D02*
X007961Y012080D01*
X007961Y012239D02*
X006715Y012239D01*
X006715Y012397D02*
X007961Y012397D01*
X007680Y012556D02*
X007680Y012556D01*
X007680Y012714D02*
X007680Y012714D01*
X007680Y012873D02*
X007680Y012873D01*
X007680Y013008D02*
X007680Y013008D01*
X007140Y013008D01*
X007680Y013008D01*
X007680Y013008D01*
X007680Y013548D01*
X007680Y013008D01*
X007680Y013008D01*
X007680Y013031D02*
X007680Y013031D01*
X007680Y013190D02*
X007680Y013190D01*
X007680Y013348D02*
X007680Y013348D01*
X007680Y013507D02*
X007680Y013507D01*
X007945Y013507D02*
X007961Y013507D01*
X007961Y013665D02*
X007931Y013665D01*
X007429Y013665D02*
X006715Y013665D01*
X006715Y013507D02*
X007415Y013507D01*
X007256Y013348D02*
X006715Y013348D01*
X006715Y013190D02*
X007140Y013190D01*
X007140Y013031D02*
X006715Y013031D01*
X006715Y012873D02*
X007140Y012873D01*
X007210Y012714D02*
X006715Y012714D01*
X006715Y012556D02*
X007369Y012556D01*
X007271Y013824D02*
X006715Y013824D01*
X006715Y013982D02*
X007260Y013982D01*
X007260Y014141D02*
X006715Y014141D01*
X006715Y014299D02*
X007377Y014299D01*
X007961Y014458D02*
X006715Y014458D01*
X006715Y014616D02*
X007961Y014616D01*
X007961Y014775D02*
X006715Y014775D01*
X006715Y014933D02*
X007961Y014933D01*
X007961Y015092D02*
X006715Y015092D01*
X006715Y015250D02*
X007961Y015250D01*
X007961Y015409D02*
X006715Y015409D01*
X006715Y015567D02*
X007961Y015567D01*
X007961Y015726D02*
X006715Y015726D01*
X006715Y015884D02*
X007961Y015884D01*
X007961Y016043D02*
X006715Y016043D01*
X006715Y016201D02*
X007961Y016201D01*
X007961Y016360D02*
X006715Y016360D01*
X006715Y016518D02*
X007961Y016518D01*
X007961Y016677D02*
X006715Y016677D01*
X006715Y016835D02*
X007961Y016835D01*
X007961Y016994D02*
X006715Y016994D01*
X006715Y017152D02*
X007961Y017152D01*
X007961Y017311D02*
X006715Y017311D01*
X006715Y017469D02*
X007961Y017469D01*
X007961Y017628D02*
X006715Y017628D01*
X006715Y017786D02*
X007961Y017786D01*
X007961Y017945D02*
X006715Y017945D01*
X006715Y018103D02*
X007961Y018103D01*
X007961Y018262D02*
X006715Y018262D01*
X006715Y018420D02*
X007961Y018420D01*
X007961Y018579D02*
X006715Y018579D01*
X006715Y018737D02*
X007961Y018737D01*
X007961Y018896D02*
X006715Y018896D01*
X006715Y019054D02*
X007961Y019054D01*
X007961Y019213D02*
X006715Y019213D01*
X006715Y019371D02*
X007961Y019371D01*
X007961Y019530D02*
X006715Y019530D01*
X006715Y019688D02*
X007961Y019688D01*
X007961Y019847D02*
X006715Y019847D01*
X006715Y020005D02*
X007961Y020005D01*
X007961Y020164D02*
X006715Y020164D01*
X006715Y020322D02*
X007961Y020322D01*
X007961Y020481D02*
X006715Y020481D01*
X006715Y020639D02*
X007961Y020639D01*
X007961Y020798D02*
X006623Y020798D01*
X006464Y020956D02*
X007961Y020956D01*
X007961Y021115D02*
X006306Y021115D01*
X006147Y021273D02*
X007961Y021273D01*
X007961Y021432D02*
X005989Y021432D01*
X006063Y021590D02*
X007961Y021590D01*
X007961Y021749D02*
X006289Y021749D01*
X006361Y021907D02*
X007961Y021907D01*
X007961Y022066D02*
X006367Y022066D01*
X006314Y022224D02*
X007961Y022224D01*
X007961Y022383D02*
X006168Y022383D01*
X006165Y022541D02*
X007961Y022541D01*
X007961Y022700D02*
X006165Y022700D01*
X006112Y022858D02*
X007961Y022858D01*
X007961Y023017D02*
X000460Y023017D01*
X000460Y023175D02*
X007961Y023175D01*
X007961Y023334D02*
X000460Y023334D01*
X000460Y023492D02*
X007961Y023492D01*
X007961Y023651D02*
X006764Y023651D01*
X006613Y023588D02*
X006951Y023728D01*
X007210Y023987D01*
X007350Y024325D01*
X007350Y024691D01*
X007210Y025029D01*
X006951Y025288D01*
X006613Y025428D01*
X006247Y025428D01*
X005909Y025288D01*
X005650Y025029D01*
X005510Y024691D01*
X005510Y024325D01*
X005650Y023987D01*
X005909Y023728D01*
X006247Y023588D01*
X006613Y023588D01*
X006096Y023651D02*
X002264Y023651D01*
X002113Y023588D02*
X002451Y023728D01*
X002710Y023987D01*
X002850Y024325D01*
X002850Y024691D01*
X002710Y025029D01*
X002451Y025288D01*
X002113Y025428D01*
X001747Y025428D01*
X001409Y025288D01*
X001150Y025029D01*
X001010Y024691D01*
X001010Y024325D01*
X001150Y023987D01*
X001409Y023728D01*
X001747Y023588D01*
X002113Y023588D01*
X001596Y023651D02*
X000460Y023651D01*
X000460Y023809D02*
X001328Y023809D01*
X001169Y023968D02*
X000460Y023968D01*
X000460Y024126D02*
X001092Y024126D01*
X001027Y024285D02*
X000460Y024285D01*
X000460Y024443D02*
X001010Y024443D01*
X001010Y024602D02*
X000460Y024602D01*
X000460Y024760D02*
X001039Y024760D01*
X001104Y024919D02*
X000460Y024919D01*
X000460Y025077D02*
X001198Y025077D01*
X001356Y025236D02*
X000460Y025236D01*
X000460Y025394D02*
X001665Y025394D01*
X002195Y025394D02*
X006165Y025394D01*
X005856Y025236D02*
X002504Y025236D01*
X002662Y025077D02*
X005698Y025077D01*
X005604Y024919D02*
X002756Y024919D01*
X002821Y024760D02*
X005539Y024760D01*
X005510Y024602D02*
X002850Y024602D01*
X002850Y024443D02*
X005510Y024443D01*
X005527Y024285D02*
X002833Y024285D01*
X002768Y024126D02*
X005592Y024126D01*
X005669Y023968D02*
X002691Y023968D01*
X002532Y023809D02*
X005828Y023809D01*
X007032Y023809D02*
X007961Y023809D01*
X007961Y023968D02*
X007191Y023968D01*
X007268Y024126D02*
X007961Y024126D01*
X007961Y024285D02*
X007333Y024285D01*
X007350Y024443D02*
X007961Y024443D01*
X007961Y024602D02*
X007350Y024602D01*
X007321Y024760D02*
X007961Y024760D01*
X007961Y024919D02*
X007256Y024919D01*
X007162Y025077D02*
X007961Y025077D01*
X007961Y025236D02*
X007004Y025236D01*
X006695Y025394D02*
X007961Y025394D01*
X007961Y025553D02*
X000460Y025553D01*
X000460Y025711D02*
X007961Y025711D01*
X007961Y025870D02*
X000460Y025870D01*
X000460Y026028D02*
X007961Y026028D01*
X007961Y026187D02*
X000460Y026187D01*
X000460Y026345D02*
X007961Y026345D01*
X002798Y022858D02*
X000460Y022858D01*
X000460Y022700D02*
X002639Y022700D01*
X002481Y022541D02*
X000460Y022541D01*
X000460Y022383D02*
X002322Y022383D01*
X002164Y022224D02*
X000460Y022224D01*
X000460Y022066D02*
X002005Y022066D01*
X001847Y021907D02*
X000460Y021907D01*
X000460Y021749D02*
X001688Y021749D01*
X001530Y021590D02*
X000460Y021590D01*
X000460Y021432D02*
X001371Y021432D01*
X001213Y021273D02*
X000460Y021273D01*
X000460Y021115D02*
X001054Y021115D01*
X000995Y020956D02*
X000460Y020956D01*
X000460Y020798D02*
X000995Y020798D01*
X000995Y020639D02*
X000460Y020639D01*
X000460Y020481D02*
X000995Y020481D01*
X000995Y020322D02*
X000460Y020322D01*
X000460Y020164D02*
X000995Y020164D01*
X000995Y020005D02*
X000460Y020005D01*
X000460Y019847D02*
X000995Y019847D01*
X000995Y019688D02*
X000460Y019688D01*
X000460Y019530D02*
X000995Y019530D01*
X000995Y019371D02*
X000460Y019371D01*
X000460Y019213D02*
X000995Y019213D01*
X000995Y019054D02*
X000460Y019054D01*
X000460Y018896D02*
X000995Y018896D01*
X000995Y018737D02*
X000460Y018737D01*
X000460Y018579D02*
X000995Y018579D01*
X000995Y018420D02*
X000460Y018420D01*
X000460Y018262D02*
X000995Y018262D01*
X000995Y018103D02*
X000460Y018103D01*
X000460Y017945D02*
X000995Y017945D01*
X000995Y017786D02*
X000460Y017786D01*
X000460Y017628D02*
X000995Y017628D01*
X000995Y017469D02*
X000460Y017469D01*
X000460Y017311D02*
X000995Y017311D01*
X000995Y017152D02*
X000460Y017152D01*
X000460Y016994D02*
X000995Y016994D01*
X000995Y016835D02*
X000460Y016835D01*
X000460Y016677D02*
X000995Y016677D01*
X000995Y016518D02*
X000460Y016518D01*
X000460Y016360D02*
X000995Y016360D01*
X000995Y016201D02*
X000460Y016201D01*
X000460Y016043D02*
X000995Y016043D01*
X000995Y015884D02*
X000460Y015884D01*
X000460Y015726D02*
X000995Y015726D01*
X000995Y015567D02*
X000460Y015567D01*
X000460Y015409D02*
X000995Y015409D01*
X000995Y015250D02*
X000460Y015250D01*
X000460Y015092D02*
X000995Y015092D01*
X000995Y014933D02*
X000460Y014933D01*
X000460Y014775D02*
X000995Y014775D01*
X000995Y014616D02*
X000460Y014616D01*
X000680Y014548D02*
X000680Y014008D01*
X000680Y013468D01*
X000680Y014008D01*
X000680Y014008D01*
X000680Y014008D01*
X000680Y014548D01*
X000680Y014458D02*
X000680Y014458D01*
X000680Y014299D02*
X000680Y014299D01*
X000680Y014141D02*
X000680Y014141D01*
X000680Y013982D02*
X000680Y013982D01*
X000680Y013824D02*
X000680Y013824D01*
X000680Y013665D02*
X000680Y013665D01*
X000680Y013507D02*
X000680Y013507D01*
X000680Y013468D02*
X000808Y013468D01*
X000768Y013428D01*
X000506Y013428D01*
X000460Y013382D01*
X000460Y013468D01*
X000680Y013468D01*
X000994Y014458D02*
X000995Y014458D01*
X003315Y012397D02*
X005845Y012397D01*
X005845Y012239D02*
X003315Y012239D01*
X003315Y012080D02*
X005845Y012080D01*
X005845Y011922D02*
X003315Y011922D01*
X003315Y011763D02*
X005845Y011763D01*
X005845Y011605D02*
X003416Y011605D01*
X003574Y011446D02*
X005786Y011446D01*
X005627Y011288D02*
X003733Y011288D01*
X004510Y011129D02*
X004850Y011129D01*
X004749Y010971D02*
X004611Y010971D01*
X004640Y010812D02*
X004720Y010812D01*
X004720Y010654D02*
X004640Y010654D01*
X004640Y010495D02*
X004720Y010495D01*
X004720Y010337D02*
X004640Y010337D01*
X004640Y010178D02*
X004720Y010178D01*
X004760Y010020D02*
X004600Y010020D01*
X004484Y009861D02*
X004876Y009861D01*
X004780Y009386D02*
X007961Y009386D01*
X007961Y009544D02*
X004409Y009544D01*
X004960Y009227D02*
X007961Y009227D01*
X007961Y009069D02*
X005080Y009069D01*
X005170Y008910D02*
X007961Y008910D01*
X007961Y008752D02*
X005212Y008752D01*
X005240Y008593D02*
X007961Y008593D01*
X007961Y008435D02*
X005240Y008435D01*
X005215Y008276D02*
X007961Y008276D01*
X007961Y008118D02*
X005173Y008118D01*
X005087Y007959D02*
X007961Y007959D01*
X007961Y007801D02*
X004972Y007801D01*
X004800Y007642D02*
X007961Y007642D01*
X007961Y007484D02*
X004452Y007484D01*
X003908Y007484D02*
X002349Y007484D01*
X002349Y007642D02*
X003560Y007642D01*
X003388Y007801D02*
X002349Y007801D01*
X002349Y007959D02*
X003273Y007959D01*
X003187Y008118D02*
X002349Y008118D01*
X002325Y008276D02*
X003145Y008276D01*
X003120Y008435D02*
X000460Y008435D01*
X000460Y008593D02*
X003120Y008593D01*
X003148Y008752D02*
X000460Y008752D01*
X000460Y008910D02*
X003190Y008910D01*
X003280Y009069D02*
X000460Y009069D01*
X000460Y009227D02*
X003400Y009227D01*
X003580Y009386D02*
X000460Y009386D01*
X002349Y007325D02*
X007961Y007325D01*
X006876Y009861D02*
X006484Y009861D01*
X006600Y010020D02*
X006760Y010020D01*
X006720Y010178D02*
X006640Y010178D01*
X006640Y010337D02*
X006720Y010337D01*
X006720Y010495D02*
X006640Y010495D01*
X006658Y010654D02*
X006720Y010654D01*
X006715Y010812D02*
X006720Y010812D01*
X006715Y010971D02*
X006749Y010971D01*
X006715Y011129D02*
X006850Y011129D01*
X005720Y010654D02*
X005658Y010654D01*
X005640Y010495D02*
X005720Y010495D01*
X005720Y010337D02*
X005640Y010337D01*
X005640Y010178D02*
X005720Y010178D01*
X005760Y010020D02*
X005600Y010020D01*
X005484Y009861D02*
X005876Y009861D01*
X003200Y009861D02*
X003160Y009861D01*
X003160Y009703D02*
X003200Y009703D01*
X003200Y010020D02*
X003160Y010020D01*
X003160Y010178D02*
X003200Y010178D01*
X003200Y010337D02*
X003160Y010337D01*
X003315Y019213D02*
X003385Y019213D01*
X003315Y019371D02*
X003555Y019371D01*
X003315Y019530D02*
X003897Y019530D01*
X005610Y020481D02*
X006245Y020481D01*
X006117Y020639D02*
X005849Y020639D01*
X005947Y020798D02*
X005958Y020798D01*
D15*
X006480Y020608D02*
X006480Y010808D01*
X006180Y010508D01*
X006080Y011408D02*
X006080Y015608D01*
X002180Y019108D02*
X002180Y010508D01*
X001480Y010808D02*
X001180Y010508D01*
X001480Y010808D02*
X001480Y020058D01*
X002430Y021008D01*
X002880Y021958D02*
X002880Y019808D01*
X002180Y019108D01*
X003080Y019658D02*
X003080Y011608D01*
X004180Y010508D01*
X004680Y010058D02*
X004330Y009708D01*
X003180Y009708D01*
X003180Y010508D01*
X004680Y010058D02*
X004680Y010958D01*
X005430Y011708D01*
X005430Y021008D01*
X005480Y021608D02*
X006480Y020608D01*
X005480Y021608D02*
X005480Y022458D01*
X004730Y022458D01*
X004480Y022208D01*
X004480Y022008D01*
X003930Y022008D01*
X002930Y022008D02*
X002880Y021958D01*
X002980Y022708D02*
X005930Y022708D01*
X005930Y022008D01*
X004930Y020508D02*
X004530Y020158D01*
X004430Y021008D02*
X003080Y019658D01*
X001230Y020958D02*
X002980Y022708D01*
X001230Y020958D02*
X001230Y013558D01*
X000680Y013008D01*
X005180Y010508D02*
X006080Y011408D01*
D16*
X006080Y015608D03*
X004530Y020158D03*
D17*
X004180Y018508D03*
X004180Y008508D03*
M02*
