%
M48
M72
T01C0.0240
T02C0.0320
T03C0.0354
T04C0.0400
T05C0.1102
T06C0.1200
T07C0.1280
%
T01
X6080Y15608
X4530Y20158
T02
X7680Y14008
X7680Y13008
X680Y13008
X680Y14008
T03
X2430Y21008
X3430Y21008
X4430Y21008
X5430Y21008
X4930Y22008
X5930Y22008
X3930Y22008
X2930Y22008
T04
X3180Y10508
X2180Y10508
X1180Y10508
X4180Y10508
X5180Y10508
X6180Y10508
X7180Y10508
T05
X4180Y13508
T06
X4180Y8508
X4180Y18508
T07
X1930Y24508
X6430Y24508
M30
