G75*
%MOIN*%
%OFA0B0*%
%FSLAX24Y24*%
%IPPOS*%
%LPD*%
%AMOC8*
5,1,8,0,0,1.08239X$1,22.5*
%
%ADD10C,0.0000*%
%ADD11C,0.0040*%
%ADD12C,0.0120*%
%ADD13C,0.0050*%
%ADD14C,0.0080*%
%ADD15C,0.0060*%
D10*
X000180Y007008D02*
X000180Y026744D01*
X008241Y026744D01*
X008241Y007008D01*
X000180Y007008D01*
X003629Y013508D02*
X003631Y013555D01*
X003637Y013601D01*
X003647Y013647D01*
X003660Y013692D01*
X003678Y013735D01*
X003699Y013777D01*
X003723Y013817D01*
X003751Y013854D01*
X003782Y013889D01*
X003816Y013922D01*
X003852Y013951D01*
X003891Y013977D01*
X003932Y014000D01*
X003975Y014019D01*
X004019Y014035D01*
X004064Y014047D01*
X004110Y014055D01*
X004157Y014059D01*
X004203Y014059D01*
X004250Y014055D01*
X004296Y014047D01*
X004341Y014035D01*
X004385Y014019D01*
X004428Y014000D01*
X004469Y013977D01*
X004508Y013951D01*
X004544Y013922D01*
X004578Y013889D01*
X004609Y013854D01*
X004637Y013817D01*
X004661Y013777D01*
X004682Y013735D01*
X004700Y013692D01*
X004713Y013647D01*
X004723Y013601D01*
X004729Y013555D01*
X004731Y013508D01*
X004729Y013461D01*
X004723Y013415D01*
X004713Y013369D01*
X004700Y013324D01*
X004682Y013281D01*
X004661Y013239D01*
X004637Y013199D01*
X004609Y013162D01*
X004578Y013127D01*
X004544Y013094D01*
X004508Y013065D01*
X004469Y013039D01*
X004428Y013016D01*
X004385Y012997D01*
X004341Y012981D01*
X004296Y012969D01*
X004250Y012961D01*
X004203Y012957D01*
X004157Y012957D01*
X004110Y012961D01*
X004064Y012969D01*
X004019Y012981D01*
X003975Y012997D01*
X003932Y013016D01*
X003891Y013039D01*
X003852Y013065D01*
X003816Y013094D01*
X003782Y013127D01*
X003751Y013162D01*
X003723Y013199D01*
X003699Y013239D01*
X003678Y013281D01*
X003660Y013324D01*
X003647Y013369D01*
X003637Y013415D01*
X003631Y013461D01*
X003629Y013508D01*
X001290Y024508D02*
X001292Y024558D01*
X001298Y024608D01*
X001308Y024657D01*
X001321Y024706D01*
X001339Y024753D01*
X001360Y024799D01*
X001384Y024842D01*
X001412Y024884D01*
X001443Y024924D01*
X001477Y024961D01*
X001514Y024995D01*
X001554Y025026D01*
X001596Y025054D01*
X001639Y025078D01*
X001685Y025099D01*
X001732Y025117D01*
X001781Y025130D01*
X001830Y025140D01*
X001880Y025146D01*
X001930Y025148D01*
X001980Y025146D01*
X002030Y025140D01*
X002079Y025130D01*
X002128Y025117D01*
X002175Y025099D01*
X002221Y025078D01*
X002264Y025054D01*
X002306Y025026D01*
X002346Y024995D01*
X002383Y024961D01*
X002417Y024924D01*
X002448Y024884D01*
X002476Y024842D01*
X002500Y024799D01*
X002521Y024753D01*
X002539Y024706D01*
X002552Y024657D01*
X002562Y024608D01*
X002568Y024558D01*
X002570Y024508D01*
X002568Y024458D01*
X002562Y024408D01*
X002552Y024359D01*
X002539Y024310D01*
X002521Y024263D01*
X002500Y024217D01*
X002476Y024174D01*
X002448Y024132D01*
X002417Y024092D01*
X002383Y024055D01*
X002346Y024021D01*
X002306Y023990D01*
X002264Y023962D01*
X002221Y023938D01*
X002175Y023917D01*
X002128Y023899D01*
X002079Y023886D01*
X002030Y023876D01*
X001980Y023870D01*
X001930Y023868D01*
X001880Y023870D01*
X001830Y023876D01*
X001781Y023886D01*
X001732Y023899D01*
X001685Y023917D01*
X001639Y023938D01*
X001596Y023962D01*
X001554Y023990D01*
X001514Y024021D01*
X001477Y024055D01*
X001443Y024092D01*
X001412Y024132D01*
X001384Y024174D01*
X001360Y024217D01*
X001339Y024263D01*
X001321Y024310D01*
X001308Y024359D01*
X001298Y024408D01*
X001292Y024458D01*
X001290Y024508D01*
X005790Y024508D02*
X005792Y024558D01*
X005798Y024608D01*
X005808Y024657D01*
X005821Y024706D01*
X005839Y024753D01*
X005860Y024799D01*
X005884Y024842D01*
X005912Y024884D01*
X005943Y024924D01*
X005977Y024961D01*
X006014Y024995D01*
X006054Y025026D01*
X006096Y025054D01*
X006139Y025078D01*
X006185Y025099D01*
X006232Y025117D01*
X006281Y025130D01*
X006330Y025140D01*
X006380Y025146D01*
X006430Y025148D01*
X006480Y025146D01*
X006530Y025140D01*
X006579Y025130D01*
X006628Y025117D01*
X006675Y025099D01*
X006721Y025078D01*
X006764Y025054D01*
X006806Y025026D01*
X006846Y024995D01*
X006883Y024961D01*
X006917Y024924D01*
X006948Y024884D01*
X006976Y024842D01*
X007000Y024799D01*
X007021Y024753D01*
X007039Y024706D01*
X007052Y024657D01*
X007062Y024608D01*
X007068Y024558D01*
X007070Y024508D01*
X007068Y024458D01*
X007062Y024408D01*
X007052Y024359D01*
X007039Y024310D01*
X007021Y024263D01*
X007000Y024217D01*
X006976Y024174D01*
X006948Y024132D01*
X006917Y024092D01*
X006883Y024055D01*
X006846Y024021D01*
X006806Y023990D01*
X006764Y023962D01*
X006721Y023938D01*
X006675Y023917D01*
X006628Y023899D01*
X006579Y023886D01*
X006530Y023876D01*
X006480Y023870D01*
X006430Y023868D01*
X006380Y023870D01*
X006330Y023876D01*
X006281Y023886D01*
X006232Y023899D01*
X006185Y023917D01*
X006139Y023938D01*
X006096Y023962D01*
X006054Y023990D01*
X006014Y024021D01*
X005977Y024055D01*
X005943Y024092D01*
X005912Y024132D01*
X005884Y024174D01*
X005860Y024217D01*
X005839Y024263D01*
X005821Y024310D01*
X005808Y024359D01*
X005798Y024408D01*
X005792Y024458D01*
X005790Y024508D01*
D11*
X005616Y015489D02*
X005462Y015489D01*
X005386Y015412D01*
X005232Y015335D02*
X005079Y015028D01*
X004925Y015335D01*
X005386Y015028D02*
X005693Y015335D01*
X005693Y015412D01*
X005616Y015489D01*
X005846Y015105D02*
X005923Y015105D01*
X005923Y015028D01*
X005846Y015028D01*
X005846Y015105D01*
X005693Y015028D02*
X005386Y015028D01*
X006076Y015105D02*
X006153Y015028D01*
X006306Y015028D01*
X006383Y015105D01*
X006383Y015182D01*
X006306Y015258D01*
X006230Y015258D01*
X006306Y015258D02*
X006383Y015335D01*
X006383Y015412D01*
X006306Y015489D01*
X006153Y015489D01*
X006076Y015412D01*
X004311Y015258D02*
X004311Y015182D01*
X004004Y015182D01*
X004004Y015258D02*
X004081Y015335D01*
X004235Y015335D01*
X004311Y015258D01*
X004235Y015028D02*
X004081Y015028D01*
X004004Y015105D01*
X004004Y015258D01*
X003851Y015335D02*
X003621Y015182D01*
X003851Y015028D01*
X003621Y015028D02*
X003621Y015489D01*
X003391Y015335D02*
X003237Y015335D01*
X003160Y015258D01*
X003160Y015105D01*
X003237Y015028D01*
X003391Y015028D01*
X003467Y015105D01*
X003467Y015258D01*
X003391Y015335D01*
X003007Y015258D02*
X002930Y015182D01*
X002700Y015182D01*
X002700Y015028D02*
X002700Y015489D01*
X002930Y015489D01*
X003007Y015412D01*
X003007Y015258D01*
X002976Y012756D02*
X002900Y012679D01*
X002900Y012449D01*
X003360Y012449D01*
X003360Y012679D01*
X003283Y012756D01*
X002976Y012756D01*
X002900Y012295D02*
X003360Y012295D01*
X002900Y011989D01*
X003360Y011989D01*
X003283Y011835D02*
X003360Y011758D01*
X003360Y011605D01*
X003283Y011528D01*
X002976Y011528D01*
X002900Y011605D01*
X002900Y011758D01*
X002976Y011835D01*
X003130Y011835D02*
X003130Y011682D01*
X003130Y011835D02*
X003283Y011835D01*
X003900Y011758D02*
X003900Y011528D01*
X004360Y011528D01*
X004360Y011758D01*
X004283Y011835D01*
X003976Y011835D01*
X003900Y011758D01*
X003900Y011989D02*
X003900Y012142D01*
X003900Y012065D02*
X004360Y012065D01*
X004360Y011989D02*
X004360Y012142D01*
X004283Y012295D02*
X004360Y012372D01*
X004360Y012526D01*
X004283Y012602D01*
X003976Y012602D01*
X003900Y012526D01*
X003900Y012372D01*
X003976Y012295D01*
X004283Y012295D01*
X004900Y012295D02*
X005207Y012295D01*
X005360Y012142D01*
X005207Y011989D01*
X004900Y011989D01*
X004900Y011835D02*
X004900Y011528D01*
X005130Y011528D01*
X005053Y011682D01*
X005053Y011758D01*
X005130Y011835D01*
X005283Y011835D01*
X005360Y011758D01*
X005360Y011605D01*
X005283Y011528D01*
X005900Y011605D02*
X005976Y011528D01*
X006283Y011528D01*
X006360Y011605D01*
X006360Y011758D01*
X006283Y011835D01*
X005976Y011835D02*
X005900Y011758D01*
X005900Y011605D01*
X006900Y011682D02*
X007360Y011682D01*
X007360Y011835D02*
X007360Y011528D01*
X007053Y011528D02*
X006900Y011682D01*
X006976Y011989D02*
X006900Y012065D01*
X006900Y012219D01*
X006976Y012295D01*
X007053Y012295D01*
X007360Y011989D01*
X007360Y012295D01*
X007207Y012449D02*
X007360Y012602D01*
X007207Y012756D01*
X006900Y012756D01*
X006900Y012449D02*
X007207Y012449D01*
X002360Y012449D02*
X002360Y012756D01*
X002360Y012449D02*
X001900Y012449D01*
X001976Y012295D02*
X001900Y012219D01*
X001900Y012065D01*
X001976Y011989D01*
X002283Y011989D01*
X002360Y012065D01*
X002360Y012219D01*
X002283Y012295D01*
X001976Y012295D01*
X001976Y011835D02*
X001900Y011758D01*
X001900Y011605D01*
X001976Y011528D01*
X002053Y011528D01*
X002130Y011605D01*
X002130Y011758D01*
X002207Y011835D01*
X002283Y011835D01*
X002360Y011758D01*
X002360Y011605D01*
X002283Y011528D01*
X001360Y011528D02*
X001360Y011835D01*
X001360Y011682D02*
X000900Y011682D01*
X001053Y011528D01*
X000976Y011989D02*
X000900Y012065D01*
X000900Y012219D01*
X000976Y012295D01*
X001053Y012295D01*
X001360Y011989D01*
X001360Y012295D01*
X001207Y012449D02*
X001360Y012602D01*
X001207Y012756D01*
X000900Y012756D01*
X000900Y012449D02*
X001207Y012449D01*
D12*
X000513Y000640D02*
X000660Y000493D01*
X000954Y000493D01*
X001100Y000640D01*
X001434Y000640D02*
X001434Y000934D01*
X001581Y001081D01*
X001874Y001081D01*
X002021Y000934D01*
X002021Y000640D01*
X001874Y000493D01*
X001581Y000493D01*
X001434Y000640D01*
X001100Y001227D02*
X000954Y001374D01*
X000660Y001374D01*
X000513Y001227D01*
X000513Y000640D01*
X002355Y000493D02*
X002795Y000493D01*
X002942Y000640D01*
X002942Y000934D01*
X002795Y001081D01*
X002355Y001081D01*
X002355Y000200D01*
X003276Y000640D02*
X003422Y000493D01*
X003863Y000493D01*
X003863Y000347D02*
X003716Y000200D01*
X003569Y000200D01*
X003863Y000347D02*
X003863Y001081D01*
X004196Y001081D02*
X004196Y000493D01*
X004196Y000787D02*
X004490Y001081D01*
X004637Y001081D01*
X004964Y001081D02*
X005110Y001081D01*
X005110Y000493D01*
X004964Y000493D02*
X005257Y000493D01*
X005578Y000640D02*
X005724Y000493D01*
X006165Y000493D01*
X006165Y000347D02*
X006165Y001081D01*
X005724Y001081D01*
X005578Y000934D01*
X005578Y000640D01*
X005871Y000200D02*
X006018Y000200D01*
X006165Y000347D01*
X006498Y000493D02*
X006498Y001374D01*
X006645Y001081D02*
X006939Y001081D01*
X007086Y000934D01*
X007086Y000493D01*
X007566Y000640D02*
X007713Y000493D01*
X007566Y000640D02*
X007566Y001227D01*
X007419Y001081D02*
X007713Y001081D01*
X006645Y001081D02*
X006498Y000934D01*
X005110Y001374D02*
X005110Y001521D01*
X003276Y001081D02*
X003276Y000640D01*
X003269Y003493D02*
X003122Y003640D01*
X003122Y003934D01*
X003269Y004081D01*
X003709Y004081D01*
X003709Y004374D02*
X003709Y003493D01*
X003269Y003493D01*
X002795Y004081D02*
X002648Y004081D01*
X002355Y003787D01*
X002355Y003493D02*
X002355Y004081D01*
X002021Y003934D02*
X002021Y003493D01*
X001581Y003493D01*
X001434Y003640D01*
X001581Y003787D01*
X002021Y003787D01*
X002021Y003934D02*
X001874Y004081D01*
X001581Y004081D01*
X001100Y003934D02*
X000513Y003934D01*
X000513Y004374D02*
X000513Y003493D01*
X001100Y003493D02*
X001100Y004374D01*
X001100Y004993D02*
X000513Y004993D01*
X000513Y005874D01*
X001434Y005581D02*
X001581Y005581D01*
X001581Y004993D01*
X001434Y004993D02*
X001728Y004993D01*
X002048Y005140D02*
X002195Y004993D01*
X002635Y004993D01*
X002969Y005140D02*
X002969Y005434D01*
X003115Y005581D01*
X003409Y005581D01*
X003556Y005434D01*
X003556Y005287D01*
X002969Y005287D01*
X002969Y005140D02*
X003115Y004993D01*
X003409Y004993D01*
X003889Y004993D02*
X003889Y005581D01*
X004330Y005581D01*
X004477Y005434D01*
X004477Y004993D01*
X004810Y004993D02*
X005251Y004993D01*
X005397Y005140D01*
X005251Y005287D01*
X004957Y005287D01*
X004810Y005434D01*
X004957Y005581D01*
X005397Y005581D01*
X005731Y005434D02*
X005731Y005140D01*
X005878Y004993D01*
X006171Y004993D01*
X006318Y005287D02*
X005731Y005287D01*
X005731Y005434D02*
X005878Y005581D01*
X006171Y005581D01*
X006318Y005434D01*
X006318Y005287D01*
X006652Y005434D02*
X006799Y005581D01*
X007239Y005581D01*
X007239Y005874D02*
X007239Y004993D01*
X006799Y004993D01*
X006652Y005140D01*
X006652Y005434D01*
X006799Y004081D02*
X007092Y004081D01*
X007239Y003934D01*
X007239Y003787D01*
X006652Y003787D01*
X006652Y003934D02*
X006799Y004081D01*
X006652Y003934D02*
X006652Y003640D01*
X006799Y003493D01*
X007092Y003493D01*
X006325Y004081D02*
X006178Y004081D01*
X005884Y003787D01*
X005884Y003493D02*
X005884Y004081D01*
X005551Y003934D02*
X005551Y003493D01*
X005110Y003493D01*
X004964Y003640D01*
X005110Y003787D01*
X005551Y003787D01*
X005551Y003934D02*
X005404Y004081D01*
X005110Y004081D01*
X004630Y004081D02*
X004630Y003640D01*
X004483Y003493D01*
X004336Y003640D01*
X004190Y003493D01*
X004043Y003640D01*
X004043Y004081D01*
X002635Y005581D02*
X002195Y005581D01*
X002048Y005434D01*
X002048Y005140D01*
X001581Y005874D02*
X001581Y006021D01*
X008493Y005581D02*
X008493Y005140D01*
X008640Y004993D01*
X009081Y004993D01*
X009081Y005581D01*
X009414Y005581D02*
X009414Y004993D01*
X010001Y004993D02*
X010001Y005434D01*
X009855Y005581D01*
X009414Y005581D01*
X010335Y005434D02*
X010335Y005140D01*
X010482Y004993D01*
X010922Y004993D01*
X010922Y005874D01*
X010922Y005581D02*
X010482Y005581D01*
X010335Y005434D01*
X011256Y005434D02*
X011256Y005140D01*
X011403Y004993D01*
X011696Y004993D01*
X011843Y005287D02*
X011256Y005287D01*
X011256Y005434D02*
X011403Y005581D01*
X011696Y005581D01*
X011843Y005434D01*
X011843Y005287D01*
X012177Y005287D02*
X012470Y005581D01*
X012617Y005581D01*
X012177Y005581D02*
X012177Y004993D01*
X012310Y004081D02*
X011870Y004081D01*
X011870Y003493D01*
X011536Y003787D02*
X010949Y003787D01*
X010949Y003934D02*
X011096Y004081D01*
X011389Y004081D01*
X011536Y003934D01*
X011536Y003787D01*
X011389Y003493D02*
X011096Y003493D01*
X010949Y003640D01*
X010949Y003934D01*
X010615Y004081D02*
X010175Y004081D01*
X010028Y003934D01*
X010028Y003640D01*
X010175Y003493D01*
X010615Y003493D01*
X009708Y003493D02*
X009414Y003493D01*
X009561Y003493D02*
X009561Y004081D01*
X009414Y004081D01*
X009561Y004374D02*
X009561Y004521D01*
X009081Y003493D02*
X008493Y003493D01*
X008493Y004374D01*
X009101Y001374D02*
X008954Y001227D01*
X009101Y001374D02*
X009394Y001374D01*
X009541Y001227D01*
X009541Y001081D01*
X008954Y000493D01*
X009541Y000493D01*
X009875Y000640D02*
X010462Y001227D01*
X010462Y000640D01*
X010315Y000493D01*
X010021Y000493D01*
X009875Y000640D01*
X009875Y001227D01*
X010021Y001374D01*
X010315Y001374D01*
X010462Y001227D01*
X010795Y001081D02*
X011089Y001374D01*
X011089Y000493D01*
X010795Y000493D02*
X011383Y000493D01*
X011716Y000640D02*
X011863Y000493D01*
X012157Y000493D01*
X012303Y000640D01*
X012303Y000787D01*
X012157Y000934D01*
X011716Y000934D01*
X011716Y000640D01*
X011716Y000934D02*
X012010Y001227D01*
X012303Y001374D01*
X012637Y000934D02*
X013224Y000934D01*
X013558Y001227D02*
X013704Y001374D01*
X013998Y001374D01*
X014145Y001227D01*
X014145Y001081D01*
X013558Y000493D01*
X014145Y000493D01*
X014478Y000640D02*
X015066Y001227D01*
X015066Y000640D01*
X014919Y000493D01*
X014625Y000493D01*
X014478Y000640D01*
X014478Y001227D01*
X014625Y001374D01*
X014919Y001374D01*
X015066Y001227D01*
X015399Y001081D02*
X015693Y001374D01*
X015693Y000493D01*
X015986Y000493D02*
X015399Y000493D01*
X016320Y000493D02*
X016320Y000640D01*
X016907Y001227D01*
X016907Y001374D01*
X016320Y001374D01*
X018162Y001374D02*
X018749Y001374D01*
X018455Y001374D02*
X018455Y000493D01*
X019082Y000493D02*
X019082Y001374D01*
X019229Y001081D02*
X019523Y001081D01*
X019670Y000934D01*
X019670Y000493D01*
X020003Y000640D02*
X020150Y000493D01*
X020444Y000493D01*
X020590Y000640D01*
X020590Y000934D01*
X020444Y001081D01*
X020150Y001081D01*
X020003Y000934D01*
X020003Y000640D01*
X019229Y001081D02*
X019082Y000934D01*
X020924Y001081D02*
X020924Y000493D01*
X021218Y000493D02*
X021218Y000934D01*
X021364Y001081D01*
X021511Y000934D01*
X021511Y000493D01*
X021845Y000640D02*
X021992Y000787D01*
X022432Y000787D01*
X022432Y000934D02*
X022432Y000493D01*
X021992Y000493D01*
X021845Y000640D01*
X021992Y001081D02*
X022285Y001081D01*
X022432Y000934D01*
X022766Y000934D02*
X022912Y000787D01*
X023206Y000787D01*
X023353Y000640D01*
X023206Y000493D01*
X022766Y000493D01*
X022766Y000934D02*
X022912Y001081D01*
X023353Y001081D01*
X024607Y001081D02*
X024607Y000493D01*
X024607Y000934D02*
X025194Y000934D01*
X025194Y001081D02*
X025194Y000493D01*
X025528Y000493D02*
X025528Y001374D01*
X025194Y001081D02*
X024901Y001374D01*
X024607Y001081D01*
X025528Y000787D02*
X025968Y001081D01*
X026442Y001081D02*
X026736Y001081D01*
X026882Y000934D01*
X026882Y000493D01*
X026442Y000493D01*
X026295Y000640D01*
X026442Y000787D01*
X026882Y000787D01*
X027216Y000493D02*
X027216Y001081D01*
X027363Y001081D01*
X027510Y000934D01*
X027656Y001081D01*
X027803Y000934D01*
X027803Y000493D01*
X027510Y000493D02*
X027510Y000934D01*
X025968Y000493D02*
X025528Y000787D01*
X025201Y003200D02*
X025054Y003200D01*
X025201Y003200D02*
X025348Y003347D01*
X025348Y004081D01*
X024907Y004081D01*
X024761Y003934D01*
X024761Y003640D01*
X024907Y003493D01*
X025348Y003493D01*
X025681Y003493D02*
X026269Y004374D01*
X026602Y004227D02*
X026602Y003640D01*
X026749Y003493D01*
X027043Y003493D01*
X027189Y003640D01*
X027189Y004227D01*
X027043Y004374D01*
X026749Y004374D01*
X026602Y004227D01*
X027523Y004374D02*
X027523Y003493D01*
X027523Y003934D02*
X028110Y003934D01*
X028110Y004374D02*
X028110Y003493D01*
X028444Y003493D02*
X029031Y003493D01*
X029365Y003493D02*
X029658Y003787D01*
X029658Y004081D01*
X029365Y004374D01*
X028444Y004374D02*
X028444Y003493D01*
X025194Y004993D02*
X025194Y005434D01*
X025048Y005581D01*
X024607Y005581D01*
X024607Y004993D01*
X024274Y005287D02*
X024274Y005434D01*
X024127Y005581D01*
X023833Y005581D01*
X023686Y005434D01*
X023686Y005140D01*
X023833Y004993D01*
X024127Y004993D01*
X024274Y005287D02*
X023686Y005287D01*
X023353Y005434D02*
X023353Y005140D01*
X023206Y004993D01*
X022766Y004993D01*
X022766Y004700D02*
X022766Y005581D01*
X023206Y005581D01*
X023353Y005434D01*
X022432Y005140D02*
X022432Y005727D01*
X022285Y005874D01*
X021992Y005874D01*
X021845Y005727D01*
X021845Y005140D01*
X021992Y004993D01*
X022285Y004993D01*
X022432Y005140D01*
X022285Y004081D02*
X022138Y004081D01*
X021845Y003787D01*
X021845Y003493D02*
X021845Y004081D01*
X021511Y003934D02*
X021511Y003640D01*
X021364Y003493D01*
X020924Y003493D01*
X020590Y003493D02*
X020590Y003934D01*
X020444Y004081D01*
X020150Y004081D01*
X020150Y003787D02*
X020590Y003787D01*
X020590Y003493D02*
X020150Y003493D01*
X020003Y003640D01*
X020150Y003787D01*
X019683Y004081D02*
X019389Y004081D01*
X019536Y004227D02*
X019536Y003640D01*
X019683Y003493D01*
X019076Y003493D02*
X018929Y003493D01*
X018929Y003640D01*
X019076Y003640D01*
X019076Y003493D01*
X018595Y003640D02*
X018595Y004081D01*
X018595Y003640D02*
X018449Y003493D01*
X018302Y003640D01*
X018155Y003493D01*
X018008Y003640D01*
X018008Y004081D01*
X017675Y004081D02*
X017675Y003640D01*
X017528Y003493D01*
X017381Y003640D01*
X017234Y003493D01*
X017087Y003640D01*
X017087Y004081D01*
X016754Y004081D02*
X016754Y003640D01*
X016607Y003493D01*
X016460Y003640D01*
X016313Y003493D01*
X016167Y003640D01*
X016167Y004081D01*
X015846Y004374D02*
X015553Y004081D01*
X015553Y003787D01*
X015846Y003493D01*
X015840Y004993D02*
X015546Y004993D01*
X015399Y005140D01*
X015399Y005434D01*
X015546Y005581D01*
X015840Y005581D01*
X015986Y005434D01*
X015986Y005287D01*
X015399Y005287D01*
X015066Y005434D02*
X015066Y004993D01*
X015066Y005434D02*
X014919Y005581D01*
X014625Y005581D01*
X014478Y005434D01*
X014158Y005581D02*
X013865Y005581D01*
X014011Y005727D02*
X014011Y005140D01*
X014158Y004993D01*
X014478Y004993D02*
X014478Y005874D01*
X014152Y004081D02*
X013858Y004081D01*
X013711Y003934D01*
X013711Y003640D01*
X013858Y003493D01*
X014152Y003493D01*
X014298Y003787D02*
X013711Y003787D01*
X013378Y003640D02*
X013231Y003787D01*
X012937Y003787D01*
X012790Y003934D01*
X012937Y004081D01*
X013378Y004081D01*
X013378Y003640D02*
X013231Y003493D01*
X012790Y003493D01*
X012457Y003493D02*
X012457Y003934D01*
X012310Y004081D01*
X014152Y004081D02*
X014298Y003934D01*
X014298Y003787D01*
X017241Y005874D02*
X017828Y005874D01*
X017534Y005874D02*
X017534Y004993D01*
X018162Y004993D02*
X018162Y005581D01*
X018455Y005874D01*
X018749Y005581D01*
X018749Y004993D01*
X019082Y004993D02*
X019082Y005874D01*
X019523Y005874D01*
X019670Y005727D01*
X019670Y005434D01*
X019523Y005287D01*
X019082Y005287D01*
X018749Y005434D02*
X018162Y005434D01*
X020003Y005287D02*
X020444Y005287D01*
X020590Y005434D01*
X020590Y005727D01*
X020444Y005874D01*
X020003Y005874D01*
X020003Y004993D01*
X020297Y005287D02*
X020590Y004993D01*
X020924Y004081D02*
X021364Y004081D01*
X021511Y003934D01*
X020924Y004081D02*
X020924Y003200D01*
X022612Y003493D02*
X022759Y003493D01*
X022759Y003640D01*
X022612Y003640D01*
X022612Y003493D01*
X023072Y003640D02*
X023219Y003493D01*
X023513Y003493D01*
X023660Y003640D01*
X023660Y003934D01*
X023513Y004081D01*
X023219Y004081D01*
X023072Y003934D01*
X023072Y003640D01*
X023993Y003493D02*
X023993Y004081D01*
X023993Y003787D02*
X024287Y004081D01*
X024434Y004081D01*
X021218Y000934D02*
X021071Y001081D01*
X020924Y001081D01*
D13*
X006359Y016028D02*
X006449Y016118D01*
X006449Y016209D01*
X006359Y016299D01*
X006359Y016508D02*
X006359Y016689D01*
X006494Y016689D01*
X006539Y016644D01*
X006539Y016508D01*
X006654Y016508D02*
X006789Y016508D01*
X006834Y016553D01*
X006789Y016598D01*
X006699Y016598D01*
X006654Y016644D01*
X006699Y016689D01*
X006834Y016689D01*
X006948Y016644D02*
X006993Y016689D01*
X007083Y016689D01*
X007128Y016644D01*
X007128Y016598D01*
X006948Y016598D01*
X006948Y016553D02*
X006948Y016644D01*
X006948Y016553D02*
X006993Y016508D01*
X007083Y016508D01*
X007218Y016988D02*
X007218Y017259D01*
X007354Y017259D01*
X007399Y017214D01*
X007399Y017124D01*
X007354Y017078D01*
X007218Y017078D01*
X007309Y017078D02*
X007399Y016988D01*
X007104Y017124D02*
X007104Y017214D01*
X007059Y017259D01*
X006924Y017259D01*
X006924Y016988D01*
X006924Y017078D02*
X007059Y017078D01*
X007104Y017124D01*
X006809Y017124D02*
X006629Y017124D01*
X006629Y017169D02*
X006719Y017259D01*
X006809Y017169D01*
X006809Y016988D01*
X006629Y016988D02*
X006629Y017169D01*
X006515Y017259D02*
X006334Y017259D01*
X006425Y017259D02*
X006425Y016988D01*
X006199Y016689D02*
X006245Y016644D01*
X006245Y016598D01*
X006064Y016598D01*
X006064Y016553D02*
X006064Y016644D01*
X006109Y016689D01*
X006199Y016689D01*
X006199Y016508D02*
X006109Y016508D01*
X006064Y016553D01*
X005950Y016508D02*
X005815Y016508D01*
X005770Y016553D01*
X005770Y016644D01*
X005815Y016689D01*
X005950Y016689D01*
X005880Y016988D02*
X005790Y016988D01*
X005745Y017033D01*
X005745Y017124D01*
X005790Y017169D01*
X005880Y017169D01*
X005925Y017124D01*
X005925Y017078D01*
X005745Y017078D01*
X005631Y017124D02*
X005631Y016988D01*
X005631Y017124D02*
X005586Y017169D01*
X005496Y017169D01*
X005451Y017124D01*
X005344Y017169D02*
X005254Y017169D01*
X005299Y017214D02*
X005299Y017033D01*
X005344Y016988D01*
X005451Y016988D02*
X005451Y017259D01*
X005618Y016824D02*
X005618Y016779D01*
X005618Y016689D02*
X005618Y016508D01*
X005573Y016508D02*
X005663Y016508D01*
X005618Y016689D02*
X005573Y016689D01*
X005459Y016508D02*
X005279Y016508D01*
X005279Y016779D01*
X004869Y016644D02*
X004869Y016598D01*
X004689Y016598D01*
X004689Y016553D02*
X004689Y016644D01*
X004734Y016689D01*
X004824Y016689D01*
X004869Y016644D01*
X004824Y016508D02*
X004734Y016508D01*
X004689Y016553D01*
X004579Y016689D02*
X004534Y016689D01*
X004444Y016598D01*
X004444Y016508D02*
X004444Y016689D01*
X004329Y016644D02*
X004329Y016508D01*
X004194Y016508D01*
X004149Y016553D01*
X004194Y016598D01*
X004329Y016598D01*
X004329Y016644D02*
X004284Y016689D01*
X004194Y016689D01*
X004035Y016689D02*
X004035Y016553D01*
X003990Y016508D01*
X003945Y016553D01*
X003900Y016508D01*
X003854Y016553D01*
X003854Y016689D01*
X003740Y016689D02*
X003605Y016689D01*
X003560Y016644D01*
X003560Y016553D01*
X003605Y016508D01*
X003740Y016508D01*
X003740Y016779D01*
X003715Y016988D02*
X003580Y016988D01*
X003535Y017033D01*
X003535Y017169D01*
X003715Y017169D02*
X003715Y016988D01*
X003830Y016988D02*
X003830Y017169D01*
X003965Y017169D01*
X004010Y017124D01*
X004010Y016988D01*
X004125Y017033D02*
X004125Y017124D01*
X004170Y017169D01*
X004305Y017169D01*
X004305Y017259D02*
X004305Y016988D01*
X004170Y016988D01*
X004125Y017033D01*
X004419Y017033D02*
X004419Y017124D01*
X004464Y017169D01*
X004554Y017169D01*
X004599Y017124D01*
X004599Y017078D01*
X004419Y017078D01*
X004419Y017033D02*
X004464Y016988D01*
X004554Y016988D01*
X004714Y016988D02*
X004714Y017169D01*
X004804Y017169D02*
X004849Y017169D01*
X004804Y017169D02*
X004714Y017078D01*
X004730Y016209D02*
X004775Y016209D01*
X004730Y016209D02*
X004640Y016118D01*
X004640Y016028D02*
X004640Y016209D01*
X004526Y016164D02*
X004526Y016073D01*
X004481Y016028D01*
X004391Y016028D01*
X004346Y016073D01*
X004346Y016164D01*
X004391Y016209D01*
X004481Y016209D01*
X004526Y016164D01*
X004243Y016073D02*
X004243Y016028D01*
X004198Y016028D01*
X004198Y016073D01*
X004243Y016073D01*
X004088Y016209D02*
X004043Y016209D01*
X003953Y016118D01*
X003953Y016028D02*
X003953Y016209D01*
X003838Y016164D02*
X003838Y016073D01*
X003793Y016028D01*
X003658Y016028D01*
X003658Y015938D02*
X003658Y016209D01*
X003793Y016209D01*
X003838Y016164D01*
X003544Y016164D02*
X003544Y016028D01*
X003408Y016028D01*
X003363Y016073D01*
X003408Y016118D01*
X003544Y016118D01*
X003544Y016164D02*
X003499Y016209D01*
X003408Y016209D01*
X003257Y016209D02*
X003167Y016209D01*
X003212Y016254D02*
X003212Y016073D01*
X003257Y016028D01*
X003065Y016028D02*
X003020Y016028D01*
X003020Y016073D01*
X003065Y016073D01*
X003065Y016028D01*
X002905Y016073D02*
X002905Y016209D01*
X002905Y016073D02*
X002860Y016028D01*
X002815Y016073D01*
X002770Y016028D01*
X002725Y016073D01*
X002725Y016209D01*
X002610Y016209D02*
X002610Y016073D01*
X002565Y016028D01*
X002520Y016073D01*
X002475Y016028D01*
X002430Y016073D01*
X002430Y016209D01*
X002316Y016209D02*
X002316Y016073D01*
X002271Y016028D01*
X002226Y016073D01*
X002181Y016028D01*
X002136Y016073D01*
X002136Y016209D01*
X002029Y016299D02*
X001939Y016209D01*
X001939Y016118D01*
X002029Y016028D01*
X001976Y016508D02*
X001886Y016508D01*
X001841Y016553D01*
X001841Y016644D01*
X001886Y016689D01*
X001976Y016689D01*
X002021Y016644D01*
X002021Y016598D01*
X001841Y016598D01*
X001727Y016644D02*
X001727Y016553D01*
X001682Y016508D01*
X001546Y016508D01*
X001546Y016418D02*
X001546Y016689D01*
X001682Y016689D01*
X001727Y016644D01*
X001432Y016553D02*
X001432Y016734D01*
X001387Y016779D01*
X001297Y016779D01*
X001252Y016734D01*
X001252Y016553D01*
X001297Y016508D01*
X001387Y016508D01*
X001432Y016553D01*
X001366Y016988D02*
X001276Y016988D01*
X001321Y016988D02*
X001321Y017169D01*
X001276Y017169D01*
X001321Y017259D02*
X001321Y017304D01*
X001473Y017124D02*
X001473Y017033D01*
X001518Y016988D01*
X001653Y016988D01*
X001767Y017033D02*
X001767Y017124D01*
X001812Y017169D01*
X001902Y017169D01*
X001948Y017124D01*
X001948Y017078D01*
X001767Y017078D01*
X001767Y017033D02*
X001812Y016988D01*
X001902Y016988D01*
X002062Y016988D02*
X002062Y017169D01*
X002197Y017169D01*
X002242Y017124D01*
X002242Y016988D01*
X002357Y016988D02*
X002492Y016988D01*
X002537Y017033D01*
X002492Y017078D01*
X002402Y017078D01*
X002357Y017124D01*
X002402Y017169D01*
X002537Y017169D01*
X002651Y017124D02*
X002696Y017169D01*
X002786Y017169D01*
X002831Y017124D01*
X002831Y017078D01*
X002651Y017078D01*
X002651Y017033D02*
X002651Y017124D01*
X002651Y017033D02*
X002696Y016988D01*
X002786Y016988D01*
X002946Y017033D02*
X002946Y017124D01*
X002991Y017169D01*
X003126Y017169D01*
X003126Y017259D02*
X003126Y016988D01*
X002991Y016988D01*
X002946Y017033D01*
X002905Y016779D02*
X002905Y016508D01*
X003020Y016553D02*
X003065Y016598D01*
X003200Y016598D01*
X003200Y016644D02*
X003200Y016508D01*
X003065Y016508D01*
X003020Y016553D01*
X003065Y016689D02*
X003155Y016689D01*
X003200Y016644D01*
X003314Y016689D02*
X003314Y016508D01*
X003314Y016598D02*
X003404Y016689D01*
X003449Y016689D01*
X002905Y016644D02*
X002725Y016644D01*
X002725Y016779D02*
X002725Y016508D01*
X002316Y016508D02*
X002316Y016644D01*
X002271Y016689D01*
X002136Y016689D01*
X002136Y016508D01*
X001653Y017169D02*
X001518Y017169D01*
X001473Y017124D01*
X001162Y016988D02*
X000982Y016988D01*
X000982Y017259D01*
X004886Y016164D02*
X004886Y016073D01*
X004931Y016028D01*
X005066Y016028D01*
X005066Y015983D02*
X005066Y016209D01*
X004931Y016209D01*
X004886Y016164D01*
X004976Y015938D02*
X005021Y015938D01*
X005066Y015983D01*
X005180Y016028D02*
X005361Y016299D01*
X005475Y016254D02*
X005475Y016073D01*
X005520Y016028D01*
X005610Y016028D01*
X005655Y016073D01*
X005655Y016254D01*
X005610Y016299D01*
X005520Y016299D01*
X005475Y016254D01*
X005770Y016299D02*
X005770Y016028D01*
X005770Y016164D02*
X005950Y016164D01*
X005950Y016299D02*
X005950Y016028D01*
X006064Y016028D02*
X006245Y016028D01*
X006064Y016028D02*
X006064Y016299D01*
X001105Y009834D02*
X001105Y009383D01*
X000955Y009383D02*
X001255Y009383D01*
X000955Y009683D02*
X001105Y009834D01*
D14*
X001217Y020249D02*
X001217Y026572D01*
X007143Y026572D01*
X007143Y020249D01*
X001217Y020249D01*
D15*
X002882Y022838D02*
X002882Y023479D01*
X003202Y023479D01*
X003309Y023372D01*
X003309Y023158D01*
X003202Y023052D01*
X002882Y023052D01*
X003095Y023052D02*
X003309Y022838D01*
X003526Y022945D02*
X003633Y022838D01*
X003740Y022838D01*
X003847Y022945D01*
X003847Y023479D01*
X003953Y023479D02*
X003740Y023479D01*
X004171Y023158D02*
X004598Y023158D01*
X004815Y023158D02*
X005029Y023265D01*
X005136Y023265D01*
X005242Y023158D01*
X005242Y022945D01*
X005136Y022838D01*
X004922Y022838D01*
X004815Y022945D01*
X004815Y023158D02*
X004815Y023479D01*
X005242Y023479D01*
X004491Y023479D02*
X004491Y022838D01*
X004171Y023158D02*
X004491Y023479D01*
X004430Y011008D02*
X003930Y011008D01*
X003680Y010758D01*
X003430Y011008D01*
X002930Y011008D01*
X002680Y010758D01*
X002430Y011008D01*
X001930Y011008D01*
X001680Y010758D01*
X001430Y011008D01*
X000930Y011008D01*
X000680Y010758D01*
X000680Y010258D01*
X000930Y010008D01*
X001430Y010008D01*
X001680Y010258D01*
X001930Y010008D01*
X002430Y010008D01*
X002680Y010258D01*
X002930Y010008D01*
X003430Y010008D01*
X003680Y010258D01*
X003930Y010008D01*
X004430Y010008D01*
X004680Y010258D01*
X004930Y010008D01*
X005430Y010008D01*
X005680Y010258D01*
X005930Y010008D01*
X006430Y010008D01*
X006680Y010258D01*
X006930Y010008D01*
X007430Y010008D01*
X007680Y010258D01*
X007680Y010758D01*
X007430Y011008D01*
X006930Y011008D01*
X006680Y010758D01*
X006430Y011008D01*
X005930Y011008D01*
X005680Y010758D01*
X005430Y011008D01*
X004930Y011008D01*
X004680Y010758D01*
X004430Y011008D01*
M02*
