G75*
%MOIN*%
%OFA0B0*%
%FSLAX24Y24*%
%IPPOS*%
%LPD*%
%AMOC8*
5,1,8,0,0,1.08239X$1,22.5*
%
%ADD10C,0.0060*%
%ADD11R,0.0591X0.0512*%
%ADD12R,0.0512X0.0630*%
%ADD13R,0.0472X0.0472*%
%ADD14C,0.0554*%
%ADD15R,0.0630X0.0512*%
%ADD16OC8,0.0520*%
%ADD17C,0.0600*%
%ADD18C,0.0150*%
%ADD19C,0.0160*%
%ADD20C,0.0400*%
%ADD21C,0.1800*%
D10*
X000828Y007288D02*
X000828Y007715D01*
X001042Y007929D01*
X001255Y007715D01*
X001255Y007288D01*
X001255Y007608D02*
X000828Y007608D01*
X001473Y007929D02*
X001900Y007929D01*
X001686Y007929D02*
X001686Y007288D01*
D11*
X006930Y017673D03*
X006930Y018343D03*
D12*
X002554Y016258D03*
X001806Y016258D03*
D13*
X003767Y014508D03*
X004593Y014508D03*
D14*
X004430Y021008D03*
X003430Y021008D03*
X002430Y021008D03*
X002930Y022008D03*
X003930Y022008D03*
X004930Y022008D03*
X005930Y022008D03*
X005430Y021008D03*
D15*
X001430Y019382D03*
X001430Y018634D03*
D16*
X000680Y014008D03*
X000680Y013008D03*
X007680Y013008D03*
X007680Y014008D03*
D17*
X007180Y010808D02*
X007180Y010208D01*
X006180Y010208D02*
X006180Y010808D01*
X005180Y010808D02*
X005180Y010208D01*
X004180Y010208D02*
X004180Y010808D01*
X003180Y010808D02*
X003180Y010208D01*
X002180Y010208D02*
X002180Y010808D01*
X001180Y010808D02*
X001180Y010208D01*
D18*
X001180Y010508D02*
X001980Y009708D01*
X006380Y009708D01*
X007180Y010508D01*
X006230Y011558D02*
X003230Y011558D01*
X003180Y011508D01*
X003180Y010508D01*
X003180Y011508D02*
X000680Y014008D01*
X001780Y016258D02*
X001806Y016258D01*
X001780Y016258D02*
X001780Y018608D01*
X003730Y020558D01*
X003780Y020558D01*
X003830Y020608D01*
X003880Y020558D01*
X004730Y020558D01*
X006930Y018358D01*
X006930Y018343D01*
X006830Y018358D01*
X006930Y017673D02*
X006930Y017658D01*
X006930Y014008D01*
X007680Y014008D01*
X007680Y013008D02*
X006230Y011558D01*
X004630Y014508D02*
X004593Y014508D01*
X004630Y014508D02*
X004630Y017458D01*
X005280Y018108D01*
X005280Y019408D01*
X004530Y020158D01*
X003830Y020608D02*
X003430Y021008D01*
X001430Y021558D02*
X001430Y019408D01*
X001430Y019382D01*
X001430Y018634D02*
X001430Y018608D01*
X001780Y018608D01*
X002554Y016258D02*
X002580Y016258D01*
X003730Y016258D01*
X003730Y014508D01*
X003767Y014508D01*
X005480Y021558D02*
X001430Y021558D01*
X005480Y021558D02*
X005930Y022008D01*
D19*
X006063Y021590D02*
X007961Y021590D01*
X007961Y021432D02*
X005794Y021432D01*
X005793Y021433D02*
X005732Y021478D01*
X005830Y021576D01*
X005843Y021571D01*
X006017Y021571D01*
X006178Y021638D01*
X006301Y021761D01*
X006367Y021921D01*
X006367Y022095D01*
X006301Y022256D01*
X006178Y022379D01*
X006017Y022445D01*
X005843Y022445D01*
X005682Y022379D01*
X005559Y022256D01*
X005493Y022095D01*
X005493Y021921D01*
X005498Y021909D01*
X005383Y021793D01*
X005314Y021793D01*
X005367Y021921D01*
X005367Y022095D01*
X005301Y022256D01*
X005178Y022379D01*
X005017Y022445D01*
X004843Y022445D01*
X004682Y022379D01*
X004559Y022256D01*
X004493Y022095D01*
X004493Y021921D01*
X004546Y021793D01*
X004314Y021793D01*
X004367Y021921D01*
X004367Y022095D01*
X004301Y022256D01*
X004178Y022379D01*
X004017Y022445D01*
X003843Y022445D01*
X003682Y022379D01*
X003559Y022256D01*
X003493Y022095D01*
X003493Y021921D01*
X003546Y021793D01*
X003314Y021793D01*
X003367Y021921D01*
X003367Y022095D01*
X003301Y022256D01*
X003178Y022379D01*
X003017Y022445D01*
X002843Y022445D01*
X002682Y022379D01*
X002559Y022256D01*
X002493Y022095D01*
X002493Y021921D01*
X002546Y021793D01*
X001333Y021793D01*
X001195Y021655D01*
X001195Y019798D01*
X001049Y019798D01*
X000955Y019704D01*
X000955Y019060D01*
X001007Y019008D01*
X000955Y018956D01*
X000955Y018312D01*
X001049Y018218D01*
X001545Y018218D01*
X001545Y016733D01*
X001484Y016733D01*
X001390Y016639D01*
X001390Y015877D01*
X001484Y015783D01*
X002128Y015783D01*
X002180Y015835D01*
X002232Y015783D01*
X002876Y015783D01*
X002970Y015877D01*
X002970Y016023D01*
X003495Y016023D01*
X003495Y014904D01*
X003464Y014904D01*
X003370Y014811D01*
X003370Y014206D01*
X003464Y014112D01*
X003608Y014112D01*
X003475Y013979D01*
X003349Y013673D01*
X003349Y013343D01*
X003475Y013037D01*
X003709Y012803D01*
X004015Y012677D01*
X004345Y012677D01*
X004651Y012803D01*
X004885Y013037D01*
X005011Y013343D01*
X005011Y013673D01*
X004885Y013979D01*
X004752Y014112D01*
X004896Y014112D01*
X004990Y014206D01*
X004990Y014811D01*
X004896Y014904D01*
X004865Y014904D01*
X004865Y017361D01*
X005377Y017873D01*
X005515Y018011D01*
X005515Y019441D01*
X006457Y018499D01*
X005919Y017962D01*
X005852Y017894D01*
X005815Y017806D01*
X005815Y016175D01*
X005813Y016169D01*
X005815Y016127D01*
X005815Y016085D01*
X005817Y016080D01*
X005828Y015865D01*
X005775Y015812D01*
X005720Y015680D01*
X005720Y015537D01*
X005775Y015404D01*
X005876Y015303D01*
X006008Y015248D01*
X006152Y015248D01*
X006284Y015303D01*
X006385Y015404D01*
X006440Y015537D01*
X006440Y015680D01*
X006385Y015812D01*
X006307Y015890D01*
X006295Y016139D01*
X006295Y017659D01*
X006475Y017838D01*
X006475Y017351D01*
X006568Y017258D01*
X006695Y017258D01*
X006695Y013911D01*
X006833Y013773D01*
X007321Y013773D01*
X007506Y013588D01*
X007854Y013588D01*
X007961Y013695D01*
X007961Y013491D01*
X007904Y013548D01*
X007680Y013548D01*
X007456Y013548D01*
X007140Y013232D01*
X007140Y013008D01*
X007140Y012784D01*
X007456Y012468D01*
X007680Y012468D01*
X007680Y013008D01*
X007680Y012468D01*
X007904Y012468D01*
X007961Y012525D01*
X007961Y007288D01*
X002323Y007288D01*
X002323Y008202D01*
X002321Y008223D01*
X002315Y008243D01*
X002307Y008262D01*
X002297Y008281D01*
X002284Y008297D01*
X002269Y008312D01*
X002252Y008325D01*
X002234Y008335D01*
X002215Y008343D01*
X002195Y008349D01*
X002174Y008351D01*
X000460Y008351D01*
X000460Y012634D01*
X000506Y012588D01*
X000854Y012588D01*
X001100Y012834D01*
X001100Y013182D01*
X000854Y013428D01*
X000506Y013428D01*
X000460Y013382D01*
X000460Y013468D01*
X000680Y013468D01*
X000680Y014008D01*
X000680Y013468D01*
X000904Y013468D01*
X001220Y013784D01*
X001220Y014008D01*
X000680Y014008D01*
X000680Y014008D01*
X000680Y014008D01*
X001220Y014008D01*
X001220Y014232D01*
X000904Y014548D01*
X000680Y014548D01*
X000460Y014548D01*
X000460Y026464D01*
X007961Y026464D01*
X007961Y014321D01*
X007854Y014428D01*
X007506Y014428D01*
X007321Y014243D01*
X007165Y014243D01*
X007165Y017258D01*
X007292Y017258D01*
X007385Y017351D01*
X007385Y017996D01*
X007373Y018008D01*
X007385Y018021D01*
X007385Y018665D01*
X007292Y018759D01*
X006862Y018759D01*
X004965Y020655D01*
X004827Y020793D01*
X004814Y020793D01*
X004867Y020921D01*
X004867Y021095D01*
X004801Y021256D01*
X004733Y021323D01*
X004970Y021323D01*
X004953Y021300D01*
X004914Y021222D01*
X004887Y021139D01*
X004873Y021052D01*
X004873Y021017D01*
X005421Y021017D01*
X005421Y021000D01*
X004873Y021000D01*
X004873Y020964D01*
X004887Y020878D01*
X004914Y020794D01*
X004953Y020716D01*
X005005Y020645D01*
X005067Y020583D01*
X005138Y020532D01*
X005216Y020492D01*
X005300Y020465D01*
X005386Y020451D01*
X005421Y020451D01*
X005421Y021000D01*
X005439Y021000D01*
X005439Y021017D01*
X005987Y021017D01*
X005987Y021052D01*
X005973Y021139D01*
X005946Y021222D01*
X005907Y021300D01*
X005855Y021371D01*
X005793Y021433D01*
X005920Y021273D02*
X007961Y021273D01*
X007961Y021115D02*
X005977Y021115D01*
X005987Y021000D02*
X005439Y021000D01*
X005439Y020451D01*
X005474Y020451D01*
X005560Y020465D01*
X005644Y020492D01*
X005722Y020532D01*
X005793Y020583D01*
X005855Y020645D01*
X005907Y020716D01*
X005946Y020794D01*
X005973Y020878D01*
X005987Y020964D01*
X005987Y021000D01*
X005986Y020956D02*
X007961Y020956D01*
X007961Y020798D02*
X005947Y020798D01*
X005849Y020639D02*
X007961Y020639D01*
X007961Y020481D02*
X005610Y020481D01*
X005439Y020481D02*
X005421Y020481D01*
X005421Y020639D02*
X005439Y020639D01*
X005439Y020798D02*
X005421Y020798D01*
X005421Y020956D02*
X005439Y020956D01*
X004913Y020798D02*
X004816Y020798D01*
X004867Y020956D02*
X004874Y020956D01*
X004859Y021115D02*
X004883Y021115D01*
X004940Y021273D02*
X004783Y021273D01*
X004499Y021907D02*
X004361Y021907D01*
X004367Y022066D02*
X004493Y022066D01*
X004546Y022224D02*
X004314Y022224D01*
X004168Y022383D02*
X004692Y022383D01*
X005168Y022383D02*
X005692Y022383D01*
X005546Y022224D02*
X005314Y022224D01*
X005367Y022066D02*
X005493Y022066D01*
X005497Y021907D02*
X005361Y021907D01*
X006168Y022383D02*
X007961Y022383D01*
X007961Y022541D02*
X000460Y022541D01*
X000460Y022383D02*
X002692Y022383D01*
X002546Y022224D02*
X000460Y022224D01*
X000460Y022066D02*
X002493Y022066D01*
X002499Y021907D02*
X000460Y021907D01*
X000460Y021749D02*
X001288Y021749D01*
X001195Y021590D02*
X000460Y021590D01*
X000460Y021432D02*
X001195Y021432D01*
X001195Y021273D02*
X000460Y021273D01*
X000460Y021115D02*
X001195Y021115D01*
X001195Y020956D02*
X000460Y020956D01*
X000460Y020798D02*
X001195Y020798D01*
X001195Y020639D02*
X000460Y020639D01*
X000460Y020481D02*
X001195Y020481D01*
X001195Y020322D02*
X000460Y020322D01*
X000460Y020164D02*
X001195Y020164D01*
X001195Y020005D02*
X000460Y020005D01*
X000460Y019847D02*
X001195Y019847D01*
X000955Y019688D02*
X000460Y019688D01*
X000460Y019530D02*
X000955Y019530D01*
X000955Y019371D02*
X000460Y019371D01*
X000460Y019213D02*
X000955Y019213D01*
X000961Y019054D02*
X000460Y019054D01*
X000460Y018896D02*
X000955Y018896D01*
X000955Y018737D02*
X000460Y018737D01*
X000460Y018579D02*
X000955Y018579D01*
X000955Y018420D02*
X000460Y018420D01*
X000460Y018262D02*
X001005Y018262D01*
X001545Y018103D02*
X000460Y018103D01*
X000460Y017945D02*
X001545Y017945D01*
X001545Y017786D02*
X000460Y017786D01*
X000460Y017628D02*
X001545Y017628D01*
X001545Y017469D02*
X000460Y017469D01*
X000460Y017311D02*
X001545Y017311D01*
X001545Y017152D02*
X000460Y017152D01*
X000460Y016994D02*
X001545Y016994D01*
X001545Y016835D02*
X000460Y016835D01*
X000460Y016677D02*
X001427Y016677D01*
X001390Y016518D02*
X000460Y016518D01*
X000460Y016360D02*
X001390Y016360D01*
X001390Y016201D02*
X000460Y016201D01*
X000460Y016043D02*
X001390Y016043D01*
X001390Y015884D02*
X000460Y015884D01*
X000460Y015726D02*
X003495Y015726D01*
X003495Y015884D02*
X002970Y015884D01*
X003495Y015567D02*
X000460Y015567D01*
X000460Y015409D02*
X003495Y015409D01*
X003495Y015250D02*
X000460Y015250D01*
X000460Y015092D02*
X003495Y015092D01*
X003495Y014933D02*
X000460Y014933D01*
X000460Y014775D02*
X003370Y014775D01*
X003370Y014616D02*
X000460Y014616D01*
X000680Y014548D02*
X000680Y014008D01*
X000680Y014008D01*
X000680Y014548D01*
X000680Y014458D02*
X000680Y014458D01*
X000680Y014299D02*
X000680Y014299D01*
X000680Y014141D02*
X000680Y014141D01*
X000680Y013982D02*
X000680Y013982D01*
X000680Y013824D02*
X000680Y013824D01*
X000680Y013665D02*
X000680Y013665D01*
X000680Y013507D02*
X000680Y013507D01*
X000942Y013507D02*
X003349Y013507D01*
X003349Y013665D02*
X001101Y013665D01*
X001220Y013824D02*
X003411Y013824D01*
X003479Y013982D02*
X001220Y013982D01*
X001220Y014141D02*
X003435Y014141D01*
X003370Y014299D02*
X001153Y014299D01*
X000994Y014458D02*
X003370Y014458D01*
X003349Y013348D02*
X000934Y013348D01*
X001092Y013190D02*
X003412Y013190D01*
X003482Y013031D02*
X001100Y013031D01*
X001100Y012873D02*
X003640Y012873D01*
X003925Y012714D02*
X000980Y012714D01*
X000460Y012556D02*
X007369Y012556D01*
X007210Y012714D02*
X004435Y012714D01*
X004720Y012873D02*
X007140Y012873D01*
X007140Y013008D02*
X007680Y013008D01*
X007680Y013008D01*
X007680Y013008D01*
X007140Y013008D01*
X007140Y013031D02*
X004878Y013031D01*
X004948Y013190D02*
X007140Y013190D01*
X007256Y013348D02*
X005011Y013348D01*
X005011Y013507D02*
X007415Y013507D01*
X007429Y013665D02*
X005011Y013665D01*
X004949Y013824D02*
X006782Y013824D01*
X006695Y013982D02*
X004881Y013982D01*
X004925Y014141D02*
X006695Y014141D01*
X006695Y014299D02*
X004990Y014299D01*
X004990Y014458D02*
X006695Y014458D01*
X006695Y014616D02*
X004990Y014616D01*
X004990Y014775D02*
X006695Y014775D01*
X006695Y014933D02*
X004865Y014933D01*
X004865Y015092D02*
X006695Y015092D01*
X006695Y015250D02*
X006156Y015250D01*
X006004Y015250D02*
X004865Y015250D01*
X004865Y015409D02*
X005773Y015409D01*
X005720Y015567D02*
X004865Y015567D01*
X004865Y015726D02*
X005739Y015726D01*
X005827Y015884D02*
X004865Y015884D01*
X004865Y016043D02*
X005819Y016043D01*
X005815Y016201D02*
X004865Y016201D01*
X004865Y016360D02*
X005815Y016360D01*
X005815Y016518D02*
X004865Y016518D01*
X004865Y016677D02*
X005815Y016677D01*
X005815Y016835D02*
X004865Y016835D01*
X004865Y016994D02*
X005815Y016994D01*
X005815Y017152D02*
X004865Y017152D01*
X004865Y017311D02*
X005815Y017311D01*
X005815Y017469D02*
X004973Y017469D01*
X005132Y017628D02*
X005815Y017628D01*
X005815Y017786D02*
X005290Y017786D01*
X005449Y017945D02*
X005902Y017945D01*
X006061Y018103D02*
X005515Y018103D01*
X005515Y018262D02*
X006219Y018262D01*
X006378Y018420D02*
X005515Y018420D01*
X005515Y018579D02*
X006377Y018579D01*
X006219Y018737D02*
X005515Y018737D01*
X005515Y018896D02*
X006060Y018896D01*
X005902Y019054D02*
X005515Y019054D01*
X005515Y019213D02*
X005743Y019213D01*
X005585Y019371D02*
X005515Y019371D01*
X005932Y019688D02*
X007961Y019688D01*
X007961Y019530D02*
X006091Y019530D01*
X006249Y019371D02*
X007961Y019371D01*
X007961Y019213D02*
X006408Y019213D01*
X006566Y019054D02*
X007961Y019054D01*
X007961Y018896D02*
X006725Y018896D01*
X006655Y018358D02*
X006055Y017758D01*
X006055Y016133D01*
X006080Y015608D01*
X006421Y015726D02*
X006695Y015726D01*
X006695Y015884D02*
X006313Y015884D01*
X006300Y016043D02*
X006695Y016043D01*
X006695Y016201D02*
X006295Y016201D01*
X006295Y016360D02*
X006695Y016360D01*
X006695Y016518D02*
X006295Y016518D01*
X006295Y016677D02*
X006695Y016677D01*
X006695Y016835D02*
X006295Y016835D01*
X006295Y016994D02*
X006695Y016994D01*
X006695Y017152D02*
X006295Y017152D01*
X006295Y017311D02*
X006515Y017311D01*
X006475Y017469D02*
X006295Y017469D01*
X006295Y017628D02*
X006475Y017628D01*
X006475Y017786D02*
X006422Y017786D01*
X006655Y018358D02*
X006830Y018358D01*
X007385Y018420D02*
X007961Y018420D01*
X007961Y018262D02*
X007385Y018262D01*
X007385Y018103D02*
X007961Y018103D01*
X007961Y017945D02*
X007385Y017945D01*
X007385Y017786D02*
X007961Y017786D01*
X007961Y017628D02*
X007385Y017628D01*
X007385Y017469D02*
X007961Y017469D01*
X007961Y017311D02*
X007345Y017311D01*
X007165Y017152D02*
X007961Y017152D01*
X007961Y016994D02*
X007165Y016994D01*
X007165Y016835D02*
X007961Y016835D01*
X007961Y016677D02*
X007165Y016677D01*
X007165Y016518D02*
X007961Y016518D01*
X007961Y016360D02*
X007165Y016360D01*
X007165Y016201D02*
X007961Y016201D01*
X007961Y016043D02*
X007165Y016043D01*
X007165Y015884D02*
X007961Y015884D01*
X007961Y015726D02*
X007165Y015726D01*
X007165Y015567D02*
X007961Y015567D01*
X007961Y015409D02*
X007165Y015409D01*
X007165Y015250D02*
X007961Y015250D01*
X007961Y015092D02*
X007165Y015092D01*
X007165Y014933D02*
X007961Y014933D01*
X007961Y014775D02*
X007165Y014775D01*
X007165Y014616D02*
X007961Y014616D01*
X007961Y014458D02*
X007165Y014458D01*
X007165Y014299D02*
X007377Y014299D01*
X007680Y013548D02*
X007680Y013008D01*
X007680Y013008D01*
X007680Y013548D01*
X007680Y013507D02*
X007680Y013507D01*
X007680Y013348D02*
X007680Y013348D01*
X007680Y013190D02*
X007680Y013190D01*
X007680Y013031D02*
X007680Y013031D01*
X007680Y012873D02*
X007680Y012873D01*
X007680Y012714D02*
X007680Y012714D01*
X007680Y012556D02*
X007680Y012556D01*
X007961Y012397D02*
X000460Y012397D01*
X000460Y012239D02*
X007961Y012239D01*
X007961Y012080D02*
X000460Y012080D01*
X000460Y011922D02*
X007961Y011922D01*
X007961Y011763D02*
X000460Y011763D01*
X000460Y011605D02*
X007961Y011605D01*
X007961Y011446D02*
X000460Y011446D01*
X000460Y011288D02*
X002853Y011288D01*
X002876Y011304D02*
X002802Y011251D01*
X002738Y011186D01*
X002684Y011112D01*
X002642Y011031D01*
X002618Y010954D01*
X002570Y011069D01*
X002441Y011198D01*
X002271Y011268D01*
X002088Y011268D01*
X001919Y011198D01*
X001790Y011069D01*
X001720Y010900D01*
X001720Y010300D01*
X001640Y010380D01*
X001640Y010900D01*
X001570Y011069D01*
X001441Y011198D01*
X001271Y011268D01*
X001088Y011268D01*
X000919Y011198D01*
X000790Y011069D01*
X000720Y010900D01*
X000720Y010117D01*
X000790Y009948D01*
X000919Y009818D01*
X001088Y009748D01*
X001271Y009748D01*
X001441Y009818D01*
X001489Y009867D01*
X001883Y009473D01*
X003731Y009473D01*
X003529Y009356D01*
X003332Y009159D01*
X003192Y008917D01*
X003120Y008648D01*
X003120Y008369D01*
X003192Y008099D01*
X003332Y007857D01*
X003529Y007660D01*
X003771Y007520D01*
X004040Y007448D01*
X004320Y007448D01*
X004589Y007520D01*
X004831Y007660D01*
X005028Y007857D01*
X005168Y008099D01*
X005240Y008369D01*
X005240Y008648D01*
X005168Y008917D01*
X005028Y009159D01*
X004831Y009356D01*
X004629Y009473D01*
X006477Y009473D01*
X006615Y009611D01*
X006871Y009867D01*
X006919Y009818D01*
X007088Y009748D01*
X007271Y009748D01*
X007441Y009818D01*
X007570Y009948D01*
X007640Y010117D01*
X007640Y010900D01*
X007570Y011069D01*
X007441Y011198D01*
X007271Y011268D01*
X007088Y011268D01*
X006919Y011198D01*
X006790Y011069D01*
X006720Y010900D01*
X006720Y010380D01*
X006640Y010300D01*
X006640Y010900D01*
X006570Y011069D01*
X006441Y011198D01*
X006271Y011268D01*
X006088Y011268D01*
X005919Y011198D01*
X005790Y011069D01*
X005720Y010900D01*
X005720Y010117D01*
X005790Y009948D01*
X005794Y009943D01*
X005566Y009943D01*
X005570Y009948D01*
X005640Y010117D01*
X005640Y010900D01*
X005570Y011069D01*
X005441Y011198D01*
X005271Y011268D01*
X005088Y011268D01*
X004919Y011198D01*
X004790Y011069D01*
X004720Y010900D01*
X004720Y010117D01*
X004790Y009948D01*
X004794Y009943D01*
X004566Y009943D01*
X004570Y009948D01*
X004640Y010117D01*
X004640Y010900D01*
X004570Y011069D01*
X004441Y011198D01*
X004271Y011268D01*
X004088Y011268D01*
X003919Y011198D01*
X003790Y011069D01*
X003742Y010954D01*
X003718Y011031D01*
X003676Y011112D01*
X003622Y011186D01*
X003558Y011251D01*
X003484Y011304D01*
X003403Y011346D01*
X003316Y011374D01*
X003226Y011388D01*
X003200Y011388D01*
X003200Y010528D01*
X003160Y010528D01*
X003160Y011388D01*
X003134Y011388D01*
X003044Y011374D01*
X002957Y011346D01*
X002876Y011304D01*
X002696Y011129D02*
X002510Y011129D01*
X002611Y010971D02*
X002623Y010971D01*
X003160Y010971D02*
X003200Y010971D01*
X003200Y011129D02*
X003160Y011129D01*
X003160Y011288D02*
X003200Y011288D01*
X003507Y011288D02*
X007961Y011288D01*
X007961Y011129D02*
X007510Y011129D01*
X007611Y010971D02*
X007961Y010971D01*
X007961Y010812D02*
X007640Y010812D01*
X007640Y010654D02*
X007961Y010654D01*
X007961Y010495D02*
X007640Y010495D01*
X007640Y010337D02*
X007961Y010337D01*
X007961Y010178D02*
X007640Y010178D01*
X007600Y010020D02*
X007961Y010020D01*
X007961Y009861D02*
X007484Y009861D01*
X007961Y009703D02*
X006707Y009703D01*
X006865Y009861D02*
X006876Y009861D01*
X006548Y009544D02*
X007961Y009544D01*
X007961Y009386D02*
X004780Y009386D01*
X004960Y009227D02*
X007961Y009227D01*
X007961Y009069D02*
X005080Y009069D01*
X005170Y008910D02*
X007961Y008910D01*
X007961Y008752D02*
X005212Y008752D01*
X005240Y008593D02*
X007961Y008593D01*
X007961Y008435D02*
X005240Y008435D01*
X005215Y008276D02*
X007961Y008276D01*
X007961Y008118D02*
X005173Y008118D01*
X005087Y007959D02*
X007961Y007959D01*
X007961Y007801D02*
X004972Y007801D01*
X004800Y007642D02*
X007961Y007642D01*
X007961Y007484D02*
X004452Y007484D01*
X003908Y007484D02*
X002323Y007484D01*
X002323Y007642D02*
X003560Y007642D01*
X003388Y007801D02*
X002323Y007801D01*
X002323Y007959D02*
X003273Y007959D01*
X003187Y008118D02*
X002323Y008118D01*
X002299Y008276D02*
X003145Y008276D01*
X003120Y008435D02*
X000460Y008435D01*
X000460Y008593D02*
X003120Y008593D01*
X003148Y008752D02*
X000460Y008752D01*
X000460Y008910D02*
X003190Y008910D01*
X003280Y009069D02*
X000460Y009069D01*
X000460Y009227D02*
X003400Y009227D01*
X003580Y009386D02*
X000460Y009386D01*
X000460Y009544D02*
X001812Y009544D01*
X001653Y009703D02*
X000460Y009703D01*
X000460Y009861D02*
X000876Y009861D01*
X000760Y010020D02*
X000460Y010020D01*
X000460Y010178D02*
X000720Y010178D01*
X000720Y010337D02*
X000460Y010337D01*
X000460Y010495D02*
X000720Y010495D01*
X000720Y010654D02*
X000460Y010654D01*
X000460Y010812D02*
X000720Y010812D01*
X000749Y010971D02*
X000460Y010971D01*
X000460Y011129D02*
X000850Y011129D01*
X001510Y011129D02*
X001850Y011129D01*
X001749Y010971D02*
X001611Y010971D01*
X001640Y010812D02*
X001720Y010812D01*
X001720Y010654D02*
X001640Y010654D01*
X001640Y010495D02*
X001720Y010495D01*
X001720Y010337D02*
X001684Y010337D01*
X001495Y009861D02*
X001484Y009861D01*
X003160Y010654D02*
X003200Y010654D01*
X003200Y010812D02*
X003160Y010812D01*
X003664Y011129D02*
X003850Y011129D01*
X003749Y010971D02*
X003737Y010971D01*
X004510Y011129D02*
X004850Y011129D01*
X004749Y010971D02*
X004611Y010971D01*
X004640Y010812D02*
X004720Y010812D01*
X004720Y010654D02*
X004640Y010654D01*
X004640Y010495D02*
X004720Y010495D01*
X004720Y010337D02*
X004640Y010337D01*
X004640Y010178D02*
X004720Y010178D01*
X004760Y010020D02*
X004600Y010020D01*
X005600Y010020D02*
X005760Y010020D01*
X005720Y010178D02*
X005640Y010178D01*
X005640Y010337D02*
X005720Y010337D01*
X005720Y010495D02*
X005640Y010495D01*
X005640Y010654D02*
X005720Y010654D01*
X005720Y010812D02*
X005640Y010812D01*
X005611Y010971D02*
X005749Y010971D01*
X005850Y011129D02*
X005510Y011129D01*
X006510Y011129D02*
X006850Y011129D01*
X006749Y010971D02*
X006611Y010971D01*
X006640Y010812D02*
X006720Y010812D01*
X006720Y010654D02*
X006640Y010654D01*
X006640Y010495D02*
X006720Y010495D01*
X006676Y010337D02*
X006640Y010337D01*
X007961Y007325D02*
X002323Y007325D01*
X007945Y013507D02*
X007961Y013507D01*
X007961Y013665D02*
X007931Y013665D01*
X006695Y015409D02*
X006387Y015409D01*
X006440Y015567D02*
X006695Y015567D01*
X007385Y018579D02*
X007961Y018579D01*
X007961Y018737D02*
X007313Y018737D01*
X007961Y019847D02*
X005774Y019847D01*
X005615Y020005D02*
X007961Y020005D01*
X007961Y020164D02*
X005457Y020164D01*
X005298Y020322D02*
X007961Y020322D01*
X007961Y021749D02*
X006289Y021749D01*
X006361Y021907D02*
X007961Y021907D01*
X007961Y022066D02*
X006367Y022066D01*
X006314Y022224D02*
X007961Y022224D01*
X007961Y022700D02*
X000460Y022700D01*
X000460Y022858D02*
X007961Y022858D01*
X007961Y023017D02*
X000460Y023017D01*
X000460Y023175D02*
X007961Y023175D01*
X007961Y023334D02*
X000460Y023334D01*
X000460Y023492D02*
X007961Y023492D01*
X007961Y023651D02*
X006764Y023651D01*
X006613Y023588D02*
X006951Y023728D01*
X007210Y023987D01*
X007350Y024325D01*
X007350Y024691D01*
X007210Y025029D01*
X006951Y025288D01*
X006613Y025428D01*
X006247Y025428D01*
X005909Y025288D01*
X005650Y025029D01*
X005510Y024691D01*
X005510Y024325D01*
X005650Y023987D01*
X005909Y023728D01*
X006247Y023588D01*
X006613Y023588D01*
X006096Y023651D02*
X002264Y023651D01*
X002113Y023588D02*
X002451Y023728D01*
X002710Y023987D01*
X002850Y024325D01*
X002850Y024691D01*
X002710Y025029D01*
X002451Y025288D01*
X002113Y025428D01*
X001747Y025428D01*
X001409Y025288D01*
X001150Y025029D01*
X001010Y024691D01*
X001010Y024325D01*
X001150Y023987D01*
X001409Y023728D01*
X001747Y023588D01*
X002113Y023588D01*
X001596Y023651D02*
X000460Y023651D01*
X000460Y023809D02*
X001328Y023809D01*
X001169Y023968D02*
X000460Y023968D01*
X000460Y024126D02*
X001092Y024126D01*
X001027Y024285D02*
X000460Y024285D01*
X000460Y024443D02*
X001010Y024443D01*
X001010Y024602D02*
X000460Y024602D01*
X000460Y024760D02*
X001039Y024760D01*
X001104Y024919D02*
X000460Y024919D01*
X000460Y025077D02*
X001198Y025077D01*
X001356Y025236D02*
X000460Y025236D01*
X000460Y025394D02*
X001665Y025394D01*
X002195Y025394D02*
X006165Y025394D01*
X005856Y025236D02*
X002504Y025236D01*
X002662Y025077D02*
X005698Y025077D01*
X005604Y024919D02*
X002756Y024919D01*
X002821Y024760D02*
X005539Y024760D01*
X005510Y024602D02*
X002850Y024602D01*
X002850Y024443D02*
X005510Y024443D01*
X005527Y024285D02*
X002833Y024285D01*
X002768Y024126D02*
X005592Y024126D01*
X005669Y023968D02*
X002691Y023968D01*
X002532Y023809D02*
X005828Y023809D01*
X007032Y023809D02*
X007961Y023809D01*
X007961Y023968D02*
X007191Y023968D01*
X007268Y024126D02*
X007961Y024126D01*
X007961Y024285D02*
X007333Y024285D01*
X007350Y024443D02*
X007961Y024443D01*
X007961Y024602D02*
X007350Y024602D01*
X007321Y024760D02*
X007961Y024760D01*
X007961Y024919D02*
X007256Y024919D01*
X007162Y025077D02*
X007961Y025077D01*
X007961Y025236D02*
X007004Y025236D01*
X006695Y025394D02*
X007961Y025394D01*
X007961Y025553D02*
X000460Y025553D01*
X000460Y025711D02*
X007961Y025711D01*
X007961Y025870D02*
X000460Y025870D01*
X000460Y026028D02*
X007961Y026028D01*
X007961Y026187D02*
X000460Y026187D01*
X000460Y026345D02*
X007961Y026345D01*
X003692Y022383D02*
X003168Y022383D01*
X003314Y022224D02*
X003546Y022224D01*
X003493Y022066D02*
X003367Y022066D01*
X003361Y021907D02*
X003499Y021907D01*
X004981Y020639D02*
X005011Y020639D01*
X005140Y020481D02*
X005250Y020481D01*
D20*
X004530Y020158D03*
X006080Y015608D03*
D21*
X004180Y018508D03*
X004180Y008508D03*
M02*
