G75*
%MOIN*%
%OFA0B0*%
%FSLAX24Y24*%
%IPPOS*%
%LPD*%
%AMOC8*
5,1,8,0,0,1.08239X$1,22.5*
%
%ADD10C,0.1182*%
%ADD11R,0.0671X0.0592*%
%ADD12R,0.0592X0.0710*%
%ADD13R,0.0552X0.0552*%
%ADD14C,0.0634*%
%ADD15C,0.1360*%
%ADD16R,0.0710X0.0592*%
%ADD17OC8,0.0600*%
%ADD18C,0.0680*%
%ADD19C,0.0480*%
%ADD20C,0.1880*%
D10*
X004180Y013508D03*
D11*
X006930Y017673D03*
X006930Y018343D03*
D12*
X002554Y016258D03*
X001806Y016258D03*
D13*
X003767Y014508D03*
X004593Y014508D03*
D14*
X004430Y021008D03*
X003430Y021008D03*
X002430Y021008D03*
X002930Y022008D03*
X003930Y022008D03*
X004930Y022008D03*
X005930Y022008D03*
X005430Y021008D03*
D15*
X006430Y024508D03*
X001930Y024508D03*
D16*
X001430Y019382D03*
X001430Y018634D03*
D17*
X000680Y014008D03*
X000680Y013008D03*
X007680Y013008D03*
X007680Y014008D03*
D18*
X007180Y010808D02*
X007180Y010208D01*
X006180Y010208D02*
X006180Y010808D01*
X005180Y010808D02*
X005180Y010208D01*
X004180Y010208D02*
X004180Y010808D01*
X003180Y010808D02*
X003180Y010208D01*
X002180Y010208D02*
X002180Y010808D01*
X001180Y010808D02*
X001180Y010208D01*
D19*
X006080Y015608D03*
X004530Y020158D03*
D20*
X004180Y008508D03*
X004180Y018508D03*
M02*
