G75*
%MOIN*%
%OFA0B0*%
%FSLAX24Y24*%
%IPPOS*%
%LPD*%
%AMOC8*
5,1,8,0,0,1.08239X$1,22.5*
%
%ADD10C,0.0765*%
%ADD11C,0.0705*%
%ADD12R,0.0630X0.0709*%
%ADD13C,0.0520*%
%ADD14C,0.0554*%
%ADD15C,0.0700*%
%ADD16C,0.0800*%
%ADD17C,0.0740*%
%ADD18OC8,0.0594*%
%ADD19R,0.2441X0.2126*%
%ADD20R,0.0630X0.0394*%
%ADD21R,0.0236X0.0866*%
%ADD22R,0.0472X0.0276*%
%ADD23C,0.0160*%
%ADD24C,0.0100*%
%ADD25C,0.0140*%
%ADD26C,0.0400*%
%ADD27C,0.2540*%
D10*
X047680Y011680D03*
X051680Y011680D03*
X053930Y011680D03*
X057930Y011680D03*
X060180Y011680D03*
X064180Y011680D03*
X066180Y011680D03*
X070180Y011680D03*
X068180Y013680D03*
X062180Y013680D03*
X055930Y013680D03*
X049680Y013680D03*
X047680Y015680D03*
X051680Y015680D03*
X053930Y015680D03*
X057930Y015680D03*
X060180Y015680D03*
X064180Y015680D03*
X066180Y015680D03*
X070180Y015680D03*
D11*
X025993Y013660D02*
X025288Y013660D01*
X021073Y013660D02*
X020368Y013660D01*
X020368Y011700D02*
X021073Y011700D01*
X025288Y011700D02*
X025993Y011700D01*
X025993Y005660D02*
X025288Y005660D01*
X021073Y005660D02*
X020368Y005660D01*
X020368Y003700D02*
X021073Y003700D01*
X025288Y003700D02*
X025993Y003700D01*
D12*
X074379Y009680D03*
X075481Y009680D03*
X075481Y014180D03*
X074379Y014180D03*
D13*
X045680Y015170D02*
X045680Y015690D01*
X044680Y015690D02*
X044680Y015170D01*
X043680Y015170D02*
X043680Y015690D01*
X042680Y015690D02*
X042680Y015170D01*
X041680Y015170D02*
X041680Y015690D01*
X040680Y015690D02*
X040680Y015170D01*
X039680Y015170D02*
X039680Y015690D01*
X038680Y015690D02*
X038680Y015170D01*
X037680Y015170D02*
X037680Y015690D01*
X035430Y015690D02*
X035430Y015170D01*
X034430Y015170D02*
X034430Y015690D01*
X033430Y015690D02*
X033430Y015170D01*
X032430Y015170D02*
X032430Y015690D01*
X031430Y015690D02*
X031430Y015170D01*
X030430Y015170D02*
X030430Y015690D01*
X029430Y015690D02*
X029430Y015170D01*
X028430Y015170D02*
X028430Y015690D01*
X027430Y015690D02*
X027430Y015170D01*
X027430Y012690D02*
X027430Y012170D01*
X028430Y012170D02*
X028430Y012690D01*
X029430Y012690D02*
X029430Y012170D01*
X030430Y012170D02*
X030430Y012690D01*
X031430Y012690D02*
X031430Y012170D01*
X032430Y012170D02*
X032430Y012690D01*
X033430Y012690D02*
X033430Y012170D01*
X034430Y012170D02*
X034430Y012690D01*
X035430Y012690D02*
X035430Y012170D01*
X037680Y012170D02*
X037680Y012690D01*
X038680Y012690D02*
X038680Y012170D01*
X039680Y012170D02*
X039680Y012690D01*
X040680Y012690D02*
X040680Y012170D01*
X041680Y012170D02*
X041680Y012690D01*
X042680Y012690D02*
X042680Y012170D01*
X043680Y012170D02*
X043680Y012690D01*
X044680Y012690D02*
X044680Y012170D01*
X045680Y012170D02*
X045680Y012690D01*
X013180Y012440D02*
X013180Y011920D01*
X012180Y011920D02*
X012180Y012440D01*
X011180Y012440D02*
X011180Y011920D01*
X010180Y011920D02*
X010180Y012440D01*
X009180Y012440D02*
X009180Y011920D01*
X008180Y011920D02*
X008180Y012440D01*
X007180Y012440D02*
X007180Y011920D01*
X006180Y011920D02*
X006180Y012440D01*
X005180Y012440D02*
X005180Y011920D01*
X004180Y011920D02*
X004180Y012440D01*
X004180Y009440D02*
X004180Y008920D01*
X005180Y008920D02*
X005180Y009440D01*
X006180Y009440D02*
X006180Y008920D01*
X007180Y008920D02*
X007180Y009440D01*
X008180Y009440D02*
X008180Y008920D01*
X009180Y008920D02*
X009180Y009440D01*
X010180Y009440D02*
X010180Y008920D01*
X011180Y008920D02*
X011180Y009440D01*
X012180Y009440D02*
X012180Y008920D01*
X013180Y008920D02*
X013180Y009440D01*
D14*
X028430Y004180D03*
X029430Y004180D03*
X030430Y004180D03*
X031430Y004180D03*
X030930Y003180D03*
X029930Y003180D03*
X028930Y003180D03*
X031930Y003180D03*
X035930Y004180D03*
X036930Y004180D03*
X037930Y004180D03*
X038930Y004180D03*
X038430Y003180D03*
X039430Y003180D03*
X037430Y003180D03*
X036430Y003180D03*
X043430Y004180D03*
X044430Y004180D03*
X045430Y004180D03*
X046430Y004180D03*
X045930Y003180D03*
X044930Y003180D03*
X043930Y003180D03*
X046930Y003180D03*
X050930Y004180D03*
X051930Y004180D03*
X052930Y004180D03*
X053930Y004180D03*
X053430Y003180D03*
X052430Y003180D03*
X051430Y003180D03*
X054430Y003180D03*
X058430Y004180D03*
X059430Y004180D03*
X060430Y004180D03*
X061430Y004180D03*
X060930Y003180D03*
X061930Y003180D03*
X059930Y003180D03*
X058930Y003180D03*
X065930Y004180D03*
X066930Y004180D03*
X067930Y004180D03*
X068930Y004180D03*
X068430Y003180D03*
X067430Y003180D03*
X066430Y003180D03*
X069430Y003180D03*
D15*
X073379Y005251D02*
X074079Y005251D01*
X074930Y006830D02*
X074930Y007530D01*
D16*
X072568Y007580D02*
X072568Y006780D01*
D17*
X018680Y008680D03*
X017680Y008680D03*
X017680Y009680D03*
X018680Y009680D03*
X018680Y010680D03*
X017680Y010680D03*
X017680Y011680D03*
X018680Y011680D03*
X018680Y012680D03*
X017680Y012680D03*
X017680Y013680D03*
X018680Y013680D03*
X018680Y014680D03*
X017680Y014680D03*
X016680Y014680D03*
X015680Y014680D03*
X014680Y014680D03*
X013680Y014680D03*
X012680Y014680D03*
X011680Y014680D03*
X010680Y014680D03*
X009680Y014680D03*
X008680Y014680D03*
X007680Y014680D03*
X006680Y014680D03*
X005680Y014680D03*
X004680Y014680D03*
X003680Y014680D03*
X003680Y003680D03*
X004680Y003680D03*
X005680Y003680D03*
X006680Y003680D03*
X007680Y003680D03*
X008680Y003680D03*
X009680Y003680D03*
X010680Y003680D03*
X011680Y003680D03*
X012680Y003680D03*
X013680Y003680D03*
X014680Y003680D03*
X015680Y003680D03*
X016680Y003680D03*
X017680Y003680D03*
X018680Y003680D03*
D18*
X071680Y004280D03*
X072680Y004280D03*
X072680Y014080D03*
X071680Y014080D03*
D19*
X072696Y011805D03*
D20*
X075570Y010907D03*
X075570Y012703D03*
D21*
X009930Y007204D03*
X009430Y007204D03*
X008930Y007204D03*
X008430Y007204D03*
X007930Y007204D03*
X007430Y007204D03*
X006930Y007204D03*
X006430Y007204D03*
X006430Y005156D03*
X006930Y005156D03*
X007430Y005156D03*
X007930Y005156D03*
X008430Y005156D03*
X008930Y005156D03*
X009430Y005156D03*
X009930Y005156D03*
D22*
X007408Y001180D03*
X005952Y001180D03*
D23*
X004180Y001180D01*
X003680Y001680D01*
X003680Y003680D01*
X004180Y003450D02*
X004214Y003368D01*
X004368Y003214D01*
X004571Y003130D01*
X004789Y003130D01*
X004992Y003214D01*
X005146Y003368D01*
X005155Y003389D01*
X005167Y003366D01*
X005222Y003289D01*
X005289Y003222D01*
X005366Y003167D01*
X005450Y003124D01*
X005539Y003095D01*
X005633Y003080D01*
X005660Y003080D01*
X005660Y003660D01*
X005700Y003660D01*
X006130Y003660D01*
X006130Y003700D01*
X005700Y003700D01*
X005700Y003660D01*
X005700Y003080D01*
X005727Y003080D01*
X005820Y003095D01*
X005910Y003124D01*
X005994Y003167D01*
X006071Y003222D01*
X006138Y003289D01*
X006193Y003366D01*
X006205Y003389D01*
X006214Y003368D01*
X006368Y003214D01*
X006571Y003130D01*
X006789Y003130D01*
X006992Y003214D01*
X007146Y003368D01*
X007180Y003450D01*
X007214Y003368D01*
X007368Y003214D01*
X007571Y003130D01*
X007789Y003130D01*
X007992Y003214D01*
X008146Y003368D01*
X008180Y003450D01*
X008214Y003368D01*
X008368Y003214D01*
X008571Y003130D01*
X008789Y003130D01*
X008992Y003214D01*
X009146Y003368D01*
X009180Y003450D01*
X009214Y003368D01*
X009368Y003214D01*
X009571Y003130D01*
X009789Y003130D01*
X009992Y003214D01*
X010146Y003368D01*
X010180Y003450D01*
X010214Y003368D01*
X010368Y003214D01*
X010571Y003130D01*
X010789Y003130D01*
X010851Y003155D01*
X011088Y002918D01*
X011180Y002880D01*
X014443Y002880D01*
X014408Y002845D01*
X014350Y002706D01*
X014350Y002554D01*
X014408Y002415D01*
X014515Y002308D01*
X014654Y002250D01*
X014756Y002250D01*
X015568Y001438D01*
X015576Y001430D01*
X009834Y001430D01*
X009042Y002222D01*
X008972Y002292D01*
X008880Y002330D01*
X004767Y002330D01*
X004695Y002402D01*
X004556Y002460D01*
X004404Y002460D01*
X004265Y002402D01*
X004158Y002295D01*
X004100Y002156D01*
X004100Y002004D01*
X004158Y001865D01*
X004265Y001758D01*
X004404Y001700D01*
X004556Y001700D01*
X004695Y001758D01*
X004767Y001830D01*
X008402Y001830D01*
X008350Y001706D01*
X008350Y001554D01*
X008408Y001415D01*
X008515Y001308D01*
X008654Y001250D01*
X008756Y001250D01*
X009076Y000930D01*
X008256Y000930D01*
X008232Y000940D01*
X008016Y000940D01*
X007940Y001016D01*
X007825Y001131D01*
X008875Y001131D01*
X009034Y000973D02*
X007984Y000973D01*
X007825Y001131D02*
X007825Y001392D01*
X007719Y001498D01*
X007098Y001498D01*
X006992Y001392D01*
X006992Y001080D01*
X006368Y001080D01*
X006368Y001392D01*
X006262Y001498D01*
X005641Y001498D01*
X005583Y001440D01*
X004288Y001440D01*
X003940Y001788D01*
X003940Y003192D01*
X003992Y003214D01*
X004146Y003368D01*
X004180Y003450D01*
X004128Y003350D02*
X004232Y003350D01*
X004422Y003192D02*
X003940Y003192D01*
X003940Y003033D02*
X010973Y003033D01*
X010422Y003192D02*
X009938Y003192D01*
X010128Y003350D02*
X010232Y003350D01*
X009422Y003192D02*
X008938Y003192D01*
X009128Y003350D02*
X009232Y003350D01*
X008422Y003192D02*
X007938Y003192D01*
X008128Y003350D02*
X008232Y003350D01*
X007422Y003192D02*
X006938Y003192D01*
X007128Y003350D02*
X007232Y003350D01*
X006422Y003192D02*
X006028Y003192D01*
X006182Y003350D02*
X006232Y003350D01*
X006130Y003667D02*
X005700Y003667D01*
X005700Y003700D02*
X005660Y003700D01*
X005660Y004280D01*
X005633Y004280D01*
X005539Y004265D01*
X005450Y004236D01*
X005366Y004193D01*
X005289Y004138D01*
X005222Y004071D01*
X005167Y003994D01*
X005155Y003971D01*
X005146Y003992D01*
X004992Y004146D01*
X004789Y004230D01*
X004571Y004230D01*
X004368Y004146D01*
X004214Y003992D01*
X004180Y003910D01*
X004146Y003992D01*
X003992Y004146D01*
X003789Y004230D01*
X003571Y004230D01*
X003368Y004146D01*
X003214Y003992D01*
X003180Y003910D01*
X003180Y010826D01*
X003916Y011562D01*
X003931Y011547D01*
X004092Y011480D01*
X004268Y011480D01*
X004429Y011547D01*
X004553Y011671D01*
X004620Y011832D01*
X004620Y012528D01*
X004553Y012689D01*
X004429Y012813D01*
X004268Y012880D01*
X004092Y012880D01*
X003931Y012813D01*
X003807Y012689D01*
X003740Y012528D01*
X003740Y012094D01*
X002788Y011142D01*
X002718Y011072D01*
X002680Y010980D01*
X002680Y002731D01*
X002570Y002840D01*
X002240Y003031D01*
X001871Y003130D01*
X001489Y003130D01*
X001120Y003031D01*
X000790Y002840D01*
X000660Y002711D01*
X000660Y015649D01*
X000790Y015520D01*
X001120Y015329D01*
X001489Y015230D01*
X001871Y015230D01*
X002240Y015329D01*
X002570Y015520D01*
X002840Y015790D01*
X003031Y016120D01*
X003130Y016489D01*
X003130Y016871D01*
X003031Y017240D01*
X002840Y017570D01*
X002715Y017696D01*
X021009Y017696D01*
X020908Y017595D01*
X020850Y017456D01*
X020850Y017304D01*
X020881Y017230D01*
X013234Y017230D01*
X013192Y017272D01*
X013122Y017342D01*
X013030Y017380D01*
X006130Y017380D01*
X006038Y017342D01*
X003886Y015190D01*
X003789Y015230D01*
X003571Y015230D01*
X003368Y015146D01*
X003214Y014992D01*
X003130Y014789D01*
X003130Y014571D01*
X003214Y014368D01*
X003368Y014214D01*
X003571Y014130D01*
X003789Y014130D01*
X003851Y014155D01*
X004088Y013918D01*
X004180Y013880D01*
X007781Y013880D01*
X007808Y013815D01*
X007915Y013708D01*
X008054Y013650D01*
X008206Y013650D01*
X008345Y013708D01*
X008452Y013815D01*
X008510Y013954D01*
X008510Y014106D01*
X008485Y014165D01*
X008571Y014130D01*
X008789Y014130D01*
X008992Y014214D01*
X009146Y014368D01*
X009180Y014450D01*
X009214Y014368D01*
X009368Y014214D01*
X009571Y014130D01*
X009789Y014130D01*
X009851Y014155D01*
X010088Y013918D01*
X010180Y013880D01*
X012781Y013880D01*
X012808Y013815D01*
X012915Y013708D01*
X013054Y013650D01*
X013206Y013650D01*
X013345Y013708D01*
X013452Y013815D01*
X013510Y013954D01*
X013510Y014106D01*
X013485Y014165D01*
X013571Y014130D01*
X013789Y014130D01*
X013992Y014214D01*
X014146Y014368D01*
X014180Y014450D01*
X014214Y014368D01*
X014368Y014214D01*
X014571Y014130D01*
X014789Y014130D01*
X014992Y014214D01*
X015146Y014368D01*
X015180Y014450D01*
X015214Y014368D01*
X015368Y014214D01*
X015571Y014130D01*
X015789Y014130D01*
X015992Y014214D01*
X016146Y014368D01*
X016155Y014389D01*
X016167Y014366D01*
X016222Y014289D01*
X016289Y014222D01*
X016366Y014167D01*
X016450Y014124D01*
X016539Y014095D01*
X016633Y014080D01*
X016660Y014080D01*
X016660Y014660D01*
X016700Y014660D01*
X016700Y014080D01*
X016727Y014080D01*
X016820Y014095D01*
X016910Y014124D01*
X016994Y014167D01*
X017071Y014222D01*
X017138Y014289D01*
X017193Y014366D01*
X017205Y014389D01*
X017214Y014368D01*
X017368Y014214D01*
X017450Y014180D01*
X017368Y014146D01*
X017214Y013992D01*
X017130Y013789D01*
X017130Y013571D01*
X017214Y013368D01*
X017368Y013214D01*
X017450Y013180D01*
X017368Y013146D01*
X017214Y012992D01*
X017130Y012789D01*
X017130Y012584D01*
X016622Y013092D01*
X016530Y013130D01*
X006830Y013130D01*
X006738Y013092D01*
X006668Y013022D01*
X006444Y012798D01*
X006429Y012813D01*
X006268Y012880D01*
X006092Y012880D01*
X005931Y012813D01*
X005807Y012689D01*
X005740Y012528D01*
X005740Y011974D01*
X005620Y012094D01*
X005620Y012528D01*
X005553Y012689D01*
X005429Y012813D01*
X005268Y012880D01*
X005092Y012880D01*
X004931Y012813D01*
X004807Y012689D01*
X004740Y012528D01*
X004740Y011832D01*
X004807Y011671D01*
X004931Y011547D01*
X005092Y011480D01*
X005268Y011480D01*
X005429Y011547D01*
X005444Y011562D01*
X007126Y009880D01*
X007092Y009880D01*
X006931Y009813D01*
X006807Y009689D01*
X006740Y009528D01*
X006740Y008988D01*
X006620Y009108D01*
X006620Y009528D01*
X006553Y009689D01*
X006429Y009813D01*
X006268Y009880D01*
X006092Y009880D01*
X005931Y009813D01*
X005807Y009689D01*
X005740Y009528D01*
X005740Y008988D01*
X005620Y009108D01*
X005620Y009528D01*
X005553Y009689D01*
X005429Y009813D01*
X005268Y009880D01*
X005092Y009880D01*
X004931Y009813D01*
X004807Y009689D01*
X004740Y009528D01*
X004740Y008988D01*
X004620Y009108D01*
X004620Y009528D01*
X004553Y009689D01*
X004429Y009813D01*
X004268Y009880D01*
X004092Y009880D01*
X003931Y009813D01*
X003807Y009689D01*
X003740Y009528D01*
X003740Y008832D01*
X003807Y008671D01*
X003931Y008547D01*
X004092Y008480D01*
X004268Y008480D01*
X004429Y008547D01*
X004437Y008555D01*
X006009Y006983D01*
X006105Y006944D01*
X006132Y006944D01*
X006132Y006696D01*
X006237Y006591D01*
X006623Y006591D01*
X006680Y006648D01*
X006737Y006591D01*
X007123Y006591D01*
X007180Y006648D01*
X007237Y006591D01*
X007623Y006591D01*
X007680Y006648D01*
X007737Y006591D01*
X008123Y006591D01*
X008180Y006648D01*
X008237Y006591D01*
X008623Y006591D01*
X008680Y006648D01*
X008737Y006591D01*
X009123Y006591D01*
X009180Y006648D01*
X009237Y006591D01*
X009623Y006591D01*
X009680Y006648D01*
X009737Y006591D01*
X010123Y006591D01*
X010228Y006696D01*
X010228Y007711D01*
X010190Y007749D01*
X010190Y007822D01*
X010923Y008555D01*
X010931Y008547D01*
X011092Y008480D01*
X011268Y008480D01*
X011420Y008543D01*
X011420Y007788D01*
X010190Y007788D01*
X010228Y007630D02*
X011262Y007630D01*
X011420Y007788D02*
X009710Y006077D01*
X009670Y005982D01*
X009670Y005722D01*
X009623Y005769D01*
X009237Y005769D01*
X009180Y005712D01*
X009123Y005769D01*
X008737Y005769D01*
X008680Y005712D01*
X008623Y005769D01*
X008237Y005769D01*
X008180Y005712D01*
X008123Y005769D01*
X007737Y005769D01*
X007680Y005712D01*
X007623Y005769D01*
X007237Y005769D01*
X007180Y005712D01*
X007123Y005769D01*
X006737Y005769D01*
X006715Y005747D01*
X006695Y005768D01*
X006657Y005793D01*
X006615Y005811D01*
X006571Y005819D01*
X006430Y005819D01*
X006289Y005819D01*
X006245Y005811D01*
X006203Y005793D01*
X006165Y005768D01*
X006133Y005736D01*
X006108Y005698D01*
X006091Y005657D01*
X006082Y005612D01*
X006082Y005156D01*
X006082Y004701D01*
X006091Y004656D01*
X006108Y004614D01*
X006133Y004577D01*
X006165Y004545D01*
X006203Y004519D01*
X006245Y004502D01*
X006289Y004493D01*
X006430Y004493D01*
X006571Y004493D01*
X006615Y004502D01*
X006657Y004519D01*
X006695Y004545D01*
X006715Y004565D01*
X006737Y004543D01*
X007123Y004543D01*
X007180Y004601D01*
X007237Y004543D01*
X007623Y004543D01*
X007680Y004601D01*
X007737Y004543D01*
X008123Y004543D01*
X008180Y004601D01*
X008237Y004543D01*
X008623Y004543D01*
X008680Y004601D01*
X008737Y004543D01*
X009123Y004543D01*
X009170Y004591D01*
X009170Y004378D01*
X009210Y004283D01*
X009283Y004210D01*
X009378Y004170D01*
X009426Y004170D01*
X009368Y004146D01*
X009214Y003992D01*
X009180Y003910D01*
X009146Y003992D01*
X008992Y004146D01*
X008789Y004230D01*
X008571Y004230D01*
X008368Y004146D01*
X008214Y003992D01*
X008180Y003910D01*
X008146Y003992D01*
X007992Y004146D01*
X007789Y004230D01*
X007571Y004230D01*
X007368Y004146D01*
X007214Y003992D01*
X007180Y003910D01*
X007146Y003992D01*
X006992Y004146D01*
X006789Y004230D01*
X006571Y004230D01*
X006368Y004146D01*
X006214Y003992D01*
X006205Y003971D01*
X006193Y003994D01*
X006138Y004071D01*
X006071Y004138D01*
X005994Y004193D01*
X005910Y004236D01*
X005820Y004265D01*
X005727Y004280D01*
X005700Y004280D01*
X005700Y003700D01*
X005700Y003826D02*
X005660Y003826D01*
X005660Y003984D02*
X005700Y003984D01*
X005700Y004143D02*
X005660Y004143D01*
X005296Y004143D02*
X004995Y004143D01*
X005149Y003984D02*
X005162Y003984D01*
X004365Y004143D02*
X003995Y004143D01*
X004149Y003984D02*
X004211Y003984D01*
X003365Y004143D02*
X003180Y004143D01*
X003180Y004301D02*
X009202Y004301D01*
X009170Y004460D02*
X003180Y004460D01*
X003180Y004618D02*
X006107Y004618D01*
X006082Y004777D02*
X003180Y004777D01*
X003180Y004935D02*
X006082Y004935D01*
X006082Y005094D02*
X003180Y005094D01*
X003180Y005252D02*
X006082Y005252D01*
X006082Y005156D02*
X006430Y005156D01*
X006430Y004493D01*
X006430Y005156D01*
X006430Y005156D01*
X006082Y005156D01*
X006082Y005411D02*
X003180Y005411D01*
X003180Y005569D02*
X006082Y005569D01*
X006128Y005728D02*
X003180Y005728D01*
X003180Y005886D02*
X009670Y005886D01*
X009665Y005728D02*
X009670Y005728D01*
X009930Y005930D02*
X011680Y007680D01*
X011680Y008680D01*
X012180Y009180D01*
X011180Y009180D02*
X009930Y007930D01*
X009930Y007204D01*
X010228Y007154D02*
X010786Y007154D01*
X010628Y006996D02*
X010228Y006996D01*
X010228Y006837D02*
X010469Y006837D01*
X010311Y006679D02*
X010211Y006679D01*
X010152Y006520D02*
X003180Y006520D01*
X003180Y006362D02*
X009994Y006362D01*
X009835Y006203D02*
X003180Y006203D01*
X003180Y006045D02*
X009696Y006045D01*
X009930Y005930D02*
X009930Y005156D01*
X009430Y005156D02*
X009430Y004430D01*
X010430Y004430D01*
X010430Y005930D01*
X012180Y007680D01*
X012180Y008180D01*
X013180Y009180D01*
X010180Y009180D02*
X009430Y008430D01*
X009430Y007204D01*
X008930Y007204D02*
X008930Y008930D01*
X009180Y009180D01*
X008430Y008930D02*
X008180Y009180D01*
X008430Y008930D02*
X008430Y007204D01*
X007930Y007204D02*
X007930Y008430D01*
X007180Y009180D01*
X006740Y009215D02*
X006620Y009215D01*
X006620Y009373D02*
X006740Y009373D01*
X006742Y009532D02*
X006618Y009532D01*
X006552Y009690D02*
X006808Y009690D01*
X007016Y009849D02*
X006344Y009849D01*
X006016Y009849D02*
X005344Y009849D01*
X005552Y009690D02*
X005808Y009690D01*
X005742Y009532D02*
X005618Y009532D01*
X005620Y009373D02*
X005740Y009373D01*
X005740Y009215D02*
X005620Y009215D01*
X005672Y009056D02*
X005740Y009056D01*
X006180Y009180D02*
X007430Y007930D01*
X007430Y007204D01*
X006930Y007204D02*
X006930Y007430D01*
X006930Y007680D01*
X006430Y008180D01*
X006180Y008180D01*
X005180Y009180D01*
X004740Y009215D02*
X004620Y009215D01*
X004620Y009373D02*
X004740Y009373D01*
X004742Y009532D02*
X004618Y009532D01*
X004552Y009690D02*
X004808Y009690D01*
X005016Y009849D02*
X004344Y009849D01*
X004016Y009849D02*
X003180Y009849D01*
X003180Y010007D02*
X006999Y010007D01*
X006841Y010166D02*
X003180Y010166D01*
X003180Y010324D02*
X006682Y010324D01*
X006524Y010483D02*
X003180Y010483D01*
X003180Y010641D02*
X006365Y010641D01*
X006207Y010800D02*
X003180Y010800D01*
X003312Y010958D02*
X006048Y010958D01*
X005890Y011117D02*
X003470Y011117D01*
X003629Y011275D02*
X005731Y011275D01*
X005573Y011434D02*
X003787Y011434D01*
X003397Y011751D02*
X000660Y011751D01*
X000660Y011909D02*
X003555Y011909D01*
X003714Y012068D02*
X000660Y012068D01*
X000660Y012226D02*
X003740Y012226D01*
X003740Y012385D02*
X000660Y012385D01*
X000660Y012543D02*
X003746Y012543D01*
X003819Y012702D02*
X000660Y012702D01*
X000660Y012860D02*
X004044Y012860D01*
X004316Y012860D02*
X005044Y012860D01*
X005316Y012860D02*
X006044Y012860D01*
X006316Y012860D02*
X006506Y012860D01*
X006665Y013019D02*
X000660Y013019D01*
X000660Y013177D02*
X017443Y013177D01*
X017247Y013336D02*
X000660Y013336D01*
X000660Y013494D02*
X017162Y013494D01*
X017130Y013653D02*
X013212Y013653D01*
X013048Y013653D02*
X008212Y013653D01*
X008048Y013653D02*
X000660Y013653D01*
X000660Y013811D02*
X007812Y013811D01*
X008448Y013811D02*
X012812Y013811D01*
X013448Y013811D02*
X017139Y013811D01*
X017205Y013970D02*
X013510Y013970D01*
X013501Y014128D02*
X016442Y014128D01*
X016660Y014128D02*
X016700Y014128D01*
X016700Y014287D02*
X016660Y014287D01*
X016660Y014445D02*
X016700Y014445D01*
X016700Y014604D02*
X016660Y014604D01*
X016225Y014287D02*
X016064Y014287D01*
X015296Y014287D02*
X015064Y014287D01*
X015178Y014445D02*
X015182Y014445D01*
X014296Y014287D02*
X014064Y014287D01*
X014178Y014445D02*
X014182Y014445D01*
X016918Y014128D02*
X017350Y014128D01*
X017296Y014287D02*
X017135Y014287D01*
X019190Y012886D02*
X019806Y013503D01*
X019828Y013436D01*
X019869Y013355D01*
X019923Y013281D01*
X019988Y013216D01*
X020062Y013162D01*
X020144Y013120D01*
X020231Y013092D01*
X020322Y013078D01*
X020682Y013078D01*
X020682Y013622D01*
X020758Y013622D01*
X020758Y013698D01*
X020682Y013698D01*
X020682Y014242D01*
X020596Y014242D01*
X021054Y014700D01*
X021156Y014700D01*
X021295Y014758D01*
X021402Y014865D01*
X021460Y015004D01*
X021460Y015156D01*
X021429Y015230D01*
X021443Y015230D01*
X021515Y015158D01*
X021654Y015100D01*
X021806Y015100D01*
X021821Y015106D01*
X021800Y015056D01*
X021800Y014904D01*
X021858Y014765D01*
X021965Y014658D01*
X022104Y014600D01*
X022256Y014600D01*
X022355Y014641D01*
X022345Y014616D01*
X022345Y014284D01*
X022472Y013977D01*
X022707Y013742D01*
X023014Y013615D01*
X023346Y013615D01*
X023607Y013723D01*
X023600Y013706D01*
X023600Y013554D01*
X023658Y013415D01*
X023765Y013308D01*
X023904Y013250D01*
X024056Y013250D01*
X024195Y013308D01*
X024302Y013415D01*
X024360Y013554D01*
X024360Y013656D01*
X025034Y014330D01*
X027043Y014330D01*
X027008Y014295D01*
X026950Y014156D01*
X026950Y014004D01*
X026981Y013930D01*
X026880Y013930D01*
X026788Y013892D01*
X026718Y013822D01*
X026519Y013622D01*
X025678Y013622D01*
X025678Y013698D01*
X025602Y013698D01*
X025602Y014242D01*
X025242Y014242D01*
X025151Y014228D01*
X025064Y014200D01*
X024982Y014158D01*
X024908Y014104D01*
X024843Y014039D01*
X024789Y013965D01*
X024748Y013884D01*
X024719Y013796D01*
X024705Y013706D01*
X024705Y013698D01*
X025602Y013698D01*
X025602Y013622D01*
X025678Y013622D01*
X025678Y013078D01*
X025800Y013078D01*
X025750Y012956D01*
X025750Y012804D01*
X025808Y012665D01*
X025915Y012558D01*
X026054Y012500D01*
X026146Y012500D01*
X026126Y012480D01*
X023367Y012480D01*
X023452Y012565D01*
X023510Y012704D01*
X023510Y012856D01*
X023452Y012995D01*
X023345Y013102D01*
X023206Y013160D01*
X023054Y013160D01*
X022915Y013102D01*
X022843Y013030D01*
X020080Y013030D01*
X019988Y012992D01*
X019918Y012922D01*
X019406Y012410D01*
X019304Y012410D01*
X019165Y012352D01*
X019058Y012245D01*
X019009Y012128D01*
X018992Y012146D01*
X018910Y012180D01*
X018992Y012214D01*
X019146Y012368D01*
X019230Y012571D01*
X019230Y012789D01*
X019190Y012886D01*
X019201Y012860D02*
X019856Y012860D01*
X019698Y012702D02*
X019230Y012702D01*
X019219Y012543D02*
X019539Y012543D01*
X019243Y012385D02*
X019153Y012385D01*
X019050Y012226D02*
X019004Y012226D01*
X017130Y012702D02*
X017012Y012702D01*
X017159Y012860D02*
X016854Y012860D01*
X016695Y013019D02*
X017241Y013019D01*
X019322Y013019D02*
X020053Y013019D01*
X020041Y013177D02*
X019481Y013177D01*
X019639Y013336D02*
X019883Y013336D01*
X019809Y013494D02*
X019798Y013494D01*
X020682Y013494D02*
X020758Y013494D01*
X020758Y013622D02*
X020758Y013078D01*
X021118Y013078D01*
X021209Y013092D01*
X021296Y013120D01*
X021378Y013162D01*
X021452Y013216D01*
X021517Y013281D01*
X021571Y013355D01*
X021612Y013436D01*
X021641Y013524D01*
X021655Y013614D01*
X021655Y013622D01*
X020758Y013622D01*
X020758Y013653D02*
X022923Y013653D01*
X022638Y013811D02*
X021636Y013811D01*
X021641Y013796D02*
X021612Y013884D01*
X021571Y013965D01*
X021517Y014039D01*
X021452Y014104D01*
X021378Y014158D01*
X021296Y014200D01*
X021209Y014228D01*
X021118Y014242D01*
X020758Y014242D01*
X020758Y013698D01*
X021655Y013698D01*
X021655Y013706D01*
X021641Y013796D01*
X021568Y013970D02*
X022480Y013970D01*
X022410Y014128D02*
X021419Y014128D01*
X020758Y014128D02*
X020682Y014128D01*
X020682Y013970D02*
X020758Y013970D01*
X020758Y013811D02*
X020682Y013811D01*
X021631Y013494D02*
X023625Y013494D01*
X023600Y013653D02*
X023437Y013653D01*
X024335Y013494D02*
X024729Y013494D01*
X024719Y013524D02*
X024748Y013436D01*
X024789Y013355D01*
X024843Y013281D01*
X024908Y013216D01*
X024982Y013162D01*
X025064Y013120D01*
X025151Y013092D01*
X025242Y013078D01*
X025602Y013078D01*
X025602Y013622D01*
X024705Y013622D01*
X024705Y013614D01*
X024719Y013524D01*
X024803Y013336D02*
X024223Y013336D01*
X023737Y013336D02*
X021557Y013336D01*
X021399Y013177D02*
X024961Y013177D01*
X025602Y013177D02*
X025678Y013177D01*
X025678Y013336D02*
X025602Y013336D01*
X025602Y013494D02*
X025678Y013494D01*
X025678Y013653D02*
X026549Y013653D01*
X026575Y013698D02*
X026575Y013706D01*
X026561Y013796D01*
X026532Y013884D01*
X026491Y013965D01*
X026437Y014039D01*
X026372Y014104D01*
X026298Y014158D01*
X026216Y014200D01*
X026129Y014228D01*
X026038Y014242D01*
X025678Y014242D01*
X025678Y013698D01*
X026575Y013698D01*
X026556Y013811D02*
X026707Y013811D01*
X026488Y013970D02*
X026964Y013970D01*
X026950Y014128D02*
X026339Y014128D01*
X025678Y014128D02*
X025602Y014128D01*
X025602Y013970D02*
X025678Y013970D01*
X025678Y013811D02*
X025602Y013811D01*
X025602Y013653D02*
X024360Y013653D01*
X024515Y013811D02*
X024724Y013811D01*
X024673Y013970D02*
X024792Y013970D01*
X024832Y014128D02*
X024941Y014128D01*
X024990Y014287D02*
X027004Y014287D01*
X025776Y013019D02*
X023429Y013019D01*
X023508Y012860D02*
X025750Y012860D01*
X025793Y012702D02*
X023509Y012702D01*
X023430Y012543D02*
X025951Y012543D01*
X020758Y013177D02*
X020682Y013177D01*
X020682Y013336D02*
X020758Y013336D01*
X020640Y014287D02*
X022345Y014287D01*
X022345Y014445D02*
X020799Y014445D01*
X020957Y014604D02*
X022096Y014604D01*
X022264Y014604D02*
X022345Y014604D01*
X021861Y014762D02*
X021299Y014762D01*
X021425Y014921D02*
X021800Y014921D01*
X021810Y015079D02*
X021460Y015079D01*
X020853Y017298D02*
X013166Y017298D01*
X005994Y017298D02*
X002997Y017298D01*
X003058Y017140D02*
X005836Y017140D01*
X005677Y016981D02*
X003100Y016981D01*
X003130Y016823D02*
X005519Y016823D01*
X005360Y016664D02*
X003130Y016664D01*
X003130Y016506D02*
X005202Y016506D01*
X005043Y016347D02*
X003092Y016347D01*
X003049Y016189D02*
X004885Y016189D01*
X004726Y016030D02*
X002979Y016030D01*
X002888Y015872D02*
X004568Y015872D01*
X004409Y015713D02*
X002764Y015713D01*
X002605Y015555D02*
X004251Y015555D01*
X004092Y015396D02*
X002356Y015396D01*
X001899Y015238D02*
X003934Y015238D01*
X003301Y015079D02*
X000660Y015079D01*
X000660Y014921D02*
X003184Y014921D01*
X003130Y014762D02*
X000660Y014762D01*
X000660Y014604D02*
X003130Y014604D01*
X003182Y014445D02*
X000660Y014445D01*
X000660Y014287D02*
X003296Y014287D01*
X003878Y014128D02*
X000660Y014128D01*
X000660Y013970D02*
X004037Y013970D01*
X008501Y014128D02*
X009878Y014128D01*
X010037Y013970D02*
X008510Y013970D01*
X009064Y014287D02*
X009296Y014287D01*
X009182Y014445D02*
X009178Y014445D01*
X005819Y012702D02*
X005541Y012702D01*
X005614Y012543D02*
X005746Y012543D01*
X005740Y012385D02*
X005620Y012385D01*
X005620Y012226D02*
X005740Y012226D01*
X005740Y012068D02*
X005646Y012068D01*
X004740Y012068D02*
X004620Y012068D01*
X004620Y012226D02*
X004740Y012226D01*
X004740Y012385D02*
X004620Y012385D01*
X004614Y012543D02*
X004746Y012543D01*
X004819Y012702D02*
X004541Y012702D01*
X004620Y011909D02*
X004740Y011909D01*
X004774Y011751D02*
X004586Y011751D01*
X004474Y011592D02*
X004886Y011592D01*
X003238Y011592D02*
X000660Y011592D01*
X000660Y011434D02*
X003080Y011434D01*
X002921Y011275D02*
X000660Y011275D01*
X000660Y011117D02*
X002763Y011117D01*
X002680Y010958D02*
X000660Y010958D01*
X000660Y010800D02*
X002680Y010800D01*
X002680Y010641D02*
X000660Y010641D01*
X000660Y010483D02*
X002680Y010483D01*
X002680Y010324D02*
X000660Y010324D01*
X000660Y010166D02*
X002680Y010166D01*
X002680Y010007D02*
X000660Y010007D01*
X000660Y009849D02*
X002680Y009849D01*
X002680Y009690D02*
X000660Y009690D01*
X000660Y009532D02*
X002680Y009532D01*
X002680Y009373D02*
X000660Y009373D01*
X000660Y009215D02*
X002680Y009215D01*
X002680Y009056D02*
X000660Y009056D01*
X000660Y008898D02*
X002680Y008898D01*
X002680Y008739D02*
X000660Y008739D01*
X000660Y008581D02*
X002680Y008581D01*
X002680Y008422D02*
X000660Y008422D01*
X000660Y008264D02*
X002680Y008264D01*
X002680Y008105D02*
X000660Y008105D01*
X000660Y007947D02*
X002680Y007947D01*
X002680Y007788D02*
X000660Y007788D01*
X000660Y007630D02*
X002680Y007630D01*
X002680Y007471D02*
X000660Y007471D01*
X000660Y007313D02*
X002680Y007313D01*
X002680Y007154D02*
X000660Y007154D01*
X000660Y006996D02*
X002680Y006996D01*
X002680Y006837D02*
X000660Y006837D01*
X000660Y006679D02*
X002680Y006679D01*
X002680Y006520D02*
X000660Y006520D01*
X000660Y006362D02*
X002680Y006362D01*
X002680Y006203D02*
X000660Y006203D01*
X000660Y006045D02*
X002680Y006045D01*
X002680Y005886D02*
X000660Y005886D01*
X000660Y005728D02*
X002680Y005728D01*
X002680Y005569D02*
X000660Y005569D01*
X000660Y005411D02*
X002680Y005411D01*
X002680Y005252D02*
X000660Y005252D01*
X000660Y005094D02*
X002680Y005094D01*
X002680Y004935D02*
X000660Y004935D01*
X000660Y004777D02*
X002680Y004777D01*
X002680Y004618D02*
X000660Y004618D01*
X000660Y004460D02*
X002680Y004460D01*
X002680Y004301D02*
X000660Y004301D01*
X000660Y004143D02*
X002680Y004143D01*
X002680Y003984D02*
X000660Y003984D01*
X000660Y003826D02*
X002680Y003826D01*
X002680Y003667D02*
X000660Y003667D01*
X000660Y003509D02*
X002680Y003509D01*
X002680Y003350D02*
X000660Y003350D01*
X000660Y003192D02*
X002680Y003192D01*
X002680Y003033D02*
X002233Y003033D01*
X002511Y002875D02*
X002680Y002875D01*
X003940Y002875D02*
X014437Y002875D01*
X014354Y002716D02*
X003940Y002716D01*
X003940Y002558D02*
X014350Y002558D01*
X014424Y002399D02*
X004698Y002399D01*
X004262Y002399D02*
X003940Y002399D01*
X003940Y002241D02*
X004135Y002241D01*
X004100Y002082D02*
X003940Y002082D01*
X003940Y001924D02*
X004134Y001924D01*
X004258Y001765D02*
X003963Y001765D01*
X004121Y001607D02*
X008350Y001607D01*
X008375Y001765D02*
X004702Y001765D01*
X004280Y001448D02*
X005591Y001448D01*
X006312Y001448D02*
X007048Y001448D01*
X006992Y001290D02*
X006368Y001290D01*
X006368Y001131D02*
X006992Y001131D01*
X007408Y001180D02*
X007719Y000869D01*
X007908Y000680D01*
X008180Y000680D01*
X007825Y001290D02*
X008559Y001290D01*
X008394Y001448D02*
X007769Y001448D01*
X009340Y001924D02*
X015083Y001924D01*
X014924Y002082D02*
X009182Y002082D01*
X009023Y002241D02*
X014766Y002241D01*
X015241Y001765D02*
X009499Y001765D01*
X009657Y001607D02*
X015400Y001607D01*
X015558Y001448D02*
X009816Y001448D01*
X005700Y003192D02*
X005660Y003192D01*
X005660Y003350D02*
X005700Y003350D01*
X005700Y003509D02*
X005660Y003509D01*
X005332Y003192D02*
X004938Y003192D01*
X005128Y003350D02*
X005178Y003350D01*
X006198Y003984D02*
X006211Y003984D01*
X006064Y004143D02*
X006365Y004143D01*
X006995Y004143D02*
X007365Y004143D01*
X007211Y003984D02*
X007149Y003984D01*
X007995Y004143D02*
X008365Y004143D01*
X008211Y003984D02*
X008149Y003984D01*
X008995Y004143D02*
X009365Y004143D01*
X009211Y003984D02*
X009149Y003984D01*
X006430Y004618D02*
X006430Y004618D01*
X006430Y004777D02*
X006430Y004777D01*
X006430Y004935D02*
X006430Y004935D01*
X006430Y005094D02*
X006430Y005094D01*
X006430Y005156D02*
X006430Y005156D01*
X006430Y005819D01*
X006430Y005156D01*
X006430Y005156D01*
X006430Y005252D02*
X006430Y005252D01*
X006430Y005411D02*
X006430Y005411D01*
X006430Y005569D02*
X006430Y005569D01*
X006430Y005728D02*
X006430Y005728D01*
X007165Y005728D02*
X007195Y005728D01*
X007665Y005728D02*
X007695Y005728D01*
X008165Y005728D02*
X008195Y005728D01*
X008665Y005728D02*
X008695Y005728D01*
X009165Y005728D02*
X009195Y005728D01*
X006149Y006679D02*
X003180Y006679D01*
X003180Y006837D02*
X006132Y006837D01*
X005997Y006996D02*
X003180Y006996D01*
X003180Y007154D02*
X005838Y007154D01*
X005680Y007313D02*
X003180Y007313D01*
X003180Y007471D02*
X005521Y007471D01*
X005363Y007630D02*
X003180Y007630D01*
X003180Y007788D02*
X005204Y007788D01*
X005046Y007947D02*
X003180Y007947D01*
X003180Y008105D02*
X004887Y008105D01*
X004729Y008264D02*
X003180Y008264D01*
X003180Y008422D02*
X004570Y008422D01*
X003897Y008581D02*
X003180Y008581D01*
X003180Y008739D02*
X003779Y008739D01*
X003740Y008898D02*
X003180Y008898D01*
X003180Y009056D02*
X003740Y009056D01*
X003740Y009215D02*
X003180Y009215D01*
X003180Y009373D02*
X003740Y009373D01*
X003742Y009532D02*
X003180Y009532D01*
X003180Y009690D02*
X003808Y009690D01*
X004180Y009180D02*
X006156Y007204D01*
X006430Y007204D01*
X010228Y007313D02*
X010945Y007313D01*
X011103Y007471D02*
X010228Y007471D01*
X010314Y007947D02*
X011420Y007947D01*
X011420Y008105D02*
X010473Y008105D01*
X010631Y008264D02*
X011420Y008264D01*
X011420Y008422D02*
X010790Y008422D01*
X006740Y009056D02*
X006672Y009056D01*
X004740Y009056D02*
X004672Y009056D01*
X018960Y005356D02*
X018960Y005254D01*
X018929Y005180D01*
X020037Y005180D01*
X019988Y005216D01*
X019923Y005281D01*
X019869Y005355D01*
X019828Y005436D01*
X019799Y005524D01*
X019785Y005614D01*
X019785Y005622D01*
X020682Y005622D01*
X020682Y005698D01*
X019785Y005698D01*
X019785Y005706D01*
X019799Y005796D01*
X019828Y005884D01*
X019869Y005965D01*
X019923Y006039D01*
X019988Y006104D01*
X020062Y006158D01*
X020144Y006200D01*
X020231Y006228D01*
X020243Y006230D01*
X019834Y006230D01*
X018960Y005356D01*
X019014Y005411D02*
X019841Y005411D01*
X019792Y005569D02*
X019173Y005569D01*
X019331Y005728D02*
X019788Y005728D01*
X019829Y005886D02*
X019490Y005886D01*
X019648Y006045D02*
X019928Y006045D01*
X019807Y006203D02*
X020154Y006203D01*
X020758Y005698D02*
X021655Y005698D01*
X021655Y005706D01*
X021641Y005796D01*
X021612Y005884D01*
X021571Y005965D01*
X021517Y006039D01*
X021452Y006104D01*
X021378Y006158D01*
X021296Y006200D01*
X021209Y006228D01*
X021197Y006230D01*
X022080Y006230D01*
X022172Y006268D01*
X022345Y006441D01*
X022345Y006284D01*
X022472Y005977D01*
X022707Y005742D01*
X023014Y005615D01*
X023346Y005615D01*
X023653Y005742D01*
X023888Y005977D01*
X024015Y006284D01*
X024015Y006616D01*
X023888Y006923D01*
X023781Y007030D01*
X024652Y007030D01*
X024658Y007015D01*
X024765Y006908D01*
X024904Y006850D01*
X025056Y006850D01*
X025195Y006908D01*
X025302Y007015D01*
X025360Y007154D01*
X025600Y007154D01*
X025658Y007015D01*
X025765Y006908D01*
X025904Y006850D01*
X026056Y006850D01*
X026195Y006908D01*
X026217Y006930D01*
X026837Y006930D01*
X026810Y006827D01*
X026810Y006533D01*
X026886Y006248D01*
X027034Y005992D01*
X027242Y005784D01*
X027249Y005780D01*
X026984Y005780D01*
X026392Y006372D01*
X026322Y006442D01*
X026230Y006480D01*
X025067Y006480D01*
X024995Y006552D01*
X024856Y006610D01*
X024704Y006610D01*
X024565Y006552D01*
X024458Y006445D01*
X024400Y006306D01*
X024400Y006154D01*
X024458Y006015D01*
X024565Y005908D01*
X024704Y005850D01*
X024737Y005850D01*
X024719Y005796D01*
X024705Y005706D01*
X024705Y005698D01*
X025602Y005698D01*
X025602Y005622D01*
X025678Y005622D01*
X025678Y005078D01*
X026038Y005078D01*
X026129Y005092D01*
X026216Y005120D01*
X026298Y005162D01*
X026372Y005216D01*
X026437Y005281D01*
X026491Y005355D01*
X026532Y005436D01*
X026554Y005503D01*
X026738Y005318D01*
X026830Y005280D01*
X027981Y005280D01*
X027950Y005206D01*
X027950Y005054D01*
X028008Y004915D01*
X028085Y004838D01*
X027926Y004680D01*
X025479Y004680D01*
X025510Y004754D01*
X025510Y004906D01*
X025452Y005045D01*
X025420Y005078D01*
X025602Y005078D01*
X025602Y005622D01*
X024705Y005622D01*
X024705Y005614D01*
X024719Y005524D01*
X024748Y005436D01*
X024789Y005355D01*
X024843Y005281D01*
X024908Y005216D01*
X024966Y005173D01*
X024915Y005152D01*
X024808Y005045D01*
X024760Y004930D01*
X024478Y004930D01*
X024545Y004958D01*
X024652Y005065D01*
X024710Y005204D01*
X024710Y005356D01*
X024652Y005495D01*
X024545Y005602D01*
X024406Y005660D01*
X024254Y005660D01*
X024115Y005602D01*
X024008Y005495D01*
X023950Y005356D01*
X023950Y005254D01*
X023876Y005180D01*
X021403Y005180D01*
X021452Y005216D01*
X021517Y005281D01*
X021571Y005355D01*
X021612Y005436D01*
X021641Y005524D01*
X021655Y005614D01*
X021655Y005622D01*
X020758Y005622D01*
X020758Y005698D01*
X021611Y005886D02*
X022563Y005886D01*
X022444Y006045D02*
X021512Y006045D01*
X021286Y006203D02*
X022379Y006203D01*
X022345Y006362D02*
X022265Y006362D01*
X023797Y005886D02*
X024617Y005886D01*
X024708Y005728D02*
X023618Y005728D01*
X023973Y005411D02*
X021599Y005411D01*
X021648Y005569D02*
X024082Y005569D01*
X023948Y005252D02*
X021488Y005252D01*
X021652Y005728D02*
X022742Y005728D01*
X023916Y006045D02*
X024446Y006045D01*
X024400Y006203D02*
X023981Y006203D01*
X024015Y006362D02*
X024423Y006362D01*
X024533Y006520D02*
X024015Y006520D01*
X023989Y006679D02*
X026810Y006679D01*
X026813Y006837D02*
X023923Y006837D01*
X023815Y006996D02*
X024677Y006996D01*
X025283Y006996D02*
X025677Y006996D01*
X025600Y007154D02*
X025600Y007306D01*
X025631Y007380D01*
X025329Y007380D01*
X025360Y007306D01*
X025360Y007154D01*
X025357Y007313D02*
X025603Y007313D01*
X025027Y006520D02*
X026813Y006520D01*
X026856Y006362D02*
X026402Y006362D01*
X026561Y006203D02*
X026912Y006203D01*
X027004Y006045D02*
X026719Y006045D01*
X026878Y005886D02*
X027140Y005886D01*
X026646Y005411D02*
X026519Y005411D01*
X026408Y005252D02*
X027969Y005252D01*
X027950Y005094D02*
X026134Y005094D01*
X025678Y005094D02*
X025602Y005094D01*
X025602Y005252D02*
X025678Y005252D01*
X025678Y005411D02*
X025602Y005411D01*
X025602Y005569D02*
X025678Y005569D01*
X024872Y005252D02*
X024710Y005252D01*
X024687Y005411D02*
X024761Y005411D01*
X024712Y005569D02*
X024578Y005569D01*
X024664Y005094D02*
X024856Y005094D01*
X024762Y004935D02*
X024490Y004935D01*
X025498Y004935D02*
X027999Y004935D01*
X028023Y004777D02*
X025510Y004777D01*
X027071Y003667D02*
X027705Y003667D01*
X027700Y003656D02*
X027700Y003504D01*
X027758Y003365D01*
X027865Y003258D01*
X028004Y003200D01*
X028156Y003200D01*
X028295Y003258D01*
X028402Y003365D01*
X028408Y003380D01*
X028463Y003380D01*
X028460Y003375D01*
X028435Y003299D01*
X028423Y003220D01*
X028423Y003189D01*
X028921Y003189D01*
X028921Y003171D01*
X028423Y003171D01*
X028423Y003140D01*
X028435Y003061D01*
X028460Y002985D01*
X028496Y002914D01*
X028543Y002850D01*
X028583Y002810D01*
X028538Y002792D01*
X028506Y002760D01*
X028404Y002760D01*
X028265Y002702D01*
X028158Y002595D01*
X028100Y002456D01*
X028100Y002304D01*
X028158Y002165D01*
X028265Y002058D01*
X028332Y002030D01*
X028134Y002030D01*
X028042Y002122D01*
X027972Y002192D01*
X027880Y002230D01*
X026910Y002230D01*
X026910Y002306D01*
X026852Y002445D01*
X026745Y002552D01*
X026606Y002610D01*
X026454Y002610D01*
X026315Y002552D01*
X026208Y002445D01*
X026160Y002330D01*
X023781Y002330D01*
X023888Y002437D01*
X024015Y002744D01*
X024015Y002907D01*
X024080Y002880D01*
X026230Y002880D01*
X026322Y002918D01*
X026392Y002988D01*
X027134Y003730D01*
X027731Y003730D01*
X027700Y003656D01*
X027700Y003509D02*
X026912Y003509D01*
X026754Y003350D02*
X027773Y003350D01*
X028387Y003350D02*
X028452Y003350D01*
X028423Y003192D02*
X026595Y003192D01*
X026437Y003033D02*
X028444Y003033D01*
X028525Y002875D02*
X024015Y002875D01*
X024003Y002716D02*
X028298Y002716D01*
X028142Y002558D02*
X026732Y002558D01*
X026871Y002399D02*
X028100Y002399D01*
X028126Y002241D02*
X026910Y002241D01*
X026328Y002558D02*
X023938Y002558D01*
X023850Y002399D02*
X026189Y002399D01*
X028082Y002082D02*
X028241Y002082D01*
X029329Y001530D02*
X029976Y001530D01*
X030038Y001468D01*
X030130Y001430D01*
X031076Y001430D01*
X031788Y000718D01*
X031880Y000680D01*
X045180Y000680D01*
X045228Y000700D01*
X045356Y000700D01*
X045495Y000758D01*
X045602Y000865D01*
X045660Y001004D01*
X045660Y001156D01*
X045602Y001295D01*
X045497Y001400D01*
X045506Y001400D01*
X045645Y001458D01*
X045752Y001565D01*
X045810Y001704D01*
X045810Y001856D01*
X045758Y001980D01*
X047201Y001980D01*
X047443Y001738D01*
X047513Y001668D01*
X047605Y001630D01*
X051631Y001630D01*
X051600Y001556D01*
X051600Y001404D01*
X051658Y001265D01*
X051765Y001158D01*
X051904Y001100D01*
X052006Y001100D01*
X052446Y000660D01*
X030947Y000660D01*
X031052Y000765D01*
X031110Y000904D01*
X031110Y001056D01*
X031052Y001195D01*
X030945Y001302D01*
X030806Y001360D01*
X030654Y001360D01*
X030515Y001302D01*
X030408Y001195D01*
X030350Y001056D01*
X030350Y000954D01*
X030326Y000930D01*
X029779Y000930D01*
X029810Y001004D01*
X029810Y001156D01*
X029752Y001295D01*
X029645Y001402D01*
X029506Y001460D01*
X029358Y001460D01*
X029329Y001530D01*
X029535Y001448D02*
X030087Y001448D01*
X029755Y001290D02*
X030502Y001290D01*
X030381Y001131D02*
X029810Y001131D01*
X029797Y000973D02*
X030350Y000973D01*
X030958Y001290D02*
X031217Y001290D01*
X031079Y001131D02*
X031375Y001131D01*
X031534Y000973D02*
X031110Y000973D01*
X031073Y000814D02*
X031692Y000814D01*
X029633Y002830D02*
X029297Y002830D01*
X029317Y002850D01*
X029364Y002914D01*
X029400Y002985D01*
X029425Y003061D01*
X029437Y003140D01*
X029437Y003171D01*
X028939Y003171D01*
X028939Y003189D01*
X029437Y003189D01*
X029437Y003220D01*
X029425Y003299D01*
X029400Y003375D01*
X029397Y003380D01*
X029518Y003380D01*
X029473Y003271D01*
X029473Y003089D01*
X029542Y002921D01*
X029633Y002830D01*
X029589Y002875D02*
X029335Y002875D01*
X029416Y003033D02*
X029496Y003033D01*
X029473Y003192D02*
X029437Y003192D01*
X029408Y003350D02*
X029506Y003350D01*
X032342Y003380D02*
X032387Y003271D01*
X032387Y003089D01*
X032342Y002980D01*
X035963Y002980D01*
X035960Y002985D01*
X035935Y003061D01*
X035923Y003140D01*
X035923Y003171D01*
X036421Y003171D01*
X036421Y003189D01*
X035923Y003189D01*
X035923Y003220D01*
X035935Y003299D01*
X035960Y003375D01*
X035963Y003380D01*
X032342Y003380D01*
X032354Y003350D02*
X035952Y003350D01*
X035923Y003192D02*
X032387Y003192D01*
X032364Y003033D02*
X035944Y003033D01*
X036439Y003171D02*
X036439Y003189D01*
X036937Y003189D01*
X036937Y003220D01*
X036925Y003299D01*
X036900Y003375D01*
X036897Y003380D01*
X037018Y003380D01*
X036973Y003271D01*
X036973Y003089D01*
X037018Y002980D01*
X036897Y002980D01*
X036900Y002985D01*
X036925Y003061D01*
X036937Y003140D01*
X036937Y003171D01*
X036439Y003171D01*
X036916Y003033D02*
X036996Y003033D01*
X036973Y003192D02*
X036937Y003192D01*
X036908Y003350D02*
X037006Y003350D01*
X039277Y003880D02*
X039318Y003921D01*
X039387Y004089D01*
X039387Y004271D01*
X039318Y004439D01*
X039277Y004480D01*
X041680Y004480D01*
X041772Y004518D01*
X042484Y005230D01*
X051693Y005230D01*
X051765Y005158D01*
X051904Y005100D01*
X052056Y005100D01*
X052195Y005158D01*
X052302Y005265D01*
X052360Y005404D01*
X052360Y005556D01*
X052302Y005695D01*
X052195Y005802D01*
X052056Y005860D01*
X051904Y005860D01*
X051765Y005802D01*
X051693Y005730D01*
X051025Y005730D01*
X051118Y005784D01*
X051326Y005992D01*
X051474Y006248D01*
X051550Y006533D01*
X051550Y006827D01*
X051539Y006867D01*
X053630Y004776D01*
X053630Y004527D01*
X053542Y004439D01*
X053473Y004271D01*
X053473Y004089D01*
X053542Y003921D01*
X053671Y003792D01*
X053719Y003773D01*
X053565Y003619D01*
X053521Y003637D01*
X053339Y003637D01*
X053171Y003568D01*
X053042Y003439D01*
X052973Y003271D01*
X052973Y003126D01*
X052853Y003007D01*
X052887Y003089D01*
X052887Y003271D01*
X052818Y003439D01*
X052689Y003568D01*
X052521Y003637D01*
X052339Y003637D01*
X052295Y003619D01*
X052141Y003773D01*
X052189Y003792D01*
X052318Y003921D01*
X052387Y004089D01*
X052387Y004271D01*
X052318Y004439D01*
X052189Y004568D01*
X052021Y004637D01*
X051839Y004637D01*
X051795Y004619D01*
X051610Y004803D01*
X051600Y004827D01*
X051527Y004900D01*
X051432Y004940D01*
X046157Y004940D01*
X046095Y005002D01*
X045956Y005060D01*
X045804Y005060D01*
X045665Y005002D01*
X045558Y004895D01*
X045500Y004756D01*
X045500Y004637D01*
X045339Y004637D01*
X045171Y004568D01*
X045042Y004439D01*
X044973Y004271D01*
X044973Y004089D01*
X045018Y003980D01*
X044842Y003980D01*
X044887Y004089D01*
X044887Y004271D01*
X044818Y004439D01*
X044689Y004568D01*
X044521Y004637D01*
X044339Y004637D01*
X044171Y004568D01*
X044042Y004439D01*
X043973Y004271D01*
X043973Y004089D01*
X044018Y003980D01*
X043842Y003980D01*
X043887Y004089D01*
X043887Y004271D01*
X043818Y004439D01*
X043689Y004568D01*
X043521Y004637D01*
X043339Y004637D01*
X043171Y004568D01*
X043050Y004447D01*
X042945Y004552D01*
X042806Y004610D01*
X042654Y004610D01*
X042515Y004552D01*
X042408Y004445D01*
X042350Y004306D01*
X042350Y004154D01*
X042408Y004015D01*
X042515Y003908D01*
X042654Y003850D01*
X042756Y003850D01*
X043018Y003588D01*
X043088Y003518D01*
X043180Y003480D01*
X043521Y003480D01*
X043496Y003446D01*
X043460Y003375D01*
X043435Y003299D01*
X043423Y003220D01*
X043423Y003189D01*
X043921Y003189D01*
X043921Y003171D01*
X043423Y003171D01*
X043423Y003140D01*
X043435Y003061D01*
X043460Y002985D01*
X043463Y002980D01*
X039842Y002980D01*
X039887Y003089D01*
X039887Y003271D01*
X039842Y003380D01*
X041193Y003380D01*
X041265Y003308D01*
X041404Y003250D01*
X041556Y003250D01*
X041695Y003308D01*
X041802Y003415D01*
X041860Y003554D01*
X041860Y003706D01*
X041802Y003845D01*
X041695Y003952D01*
X041556Y004010D01*
X041404Y004010D01*
X041265Y003952D01*
X041193Y003880D01*
X039277Y003880D01*
X039344Y003984D02*
X041342Y003984D01*
X041618Y003984D02*
X042439Y003984D01*
X042355Y004143D02*
X039387Y004143D01*
X039375Y004301D02*
X042350Y004301D01*
X042422Y004460D02*
X039297Y004460D01*
X041872Y004618D02*
X043293Y004618D01*
X043567Y004618D02*
X044293Y004618D01*
X044567Y004618D02*
X045293Y004618D01*
X045509Y004777D02*
X042030Y004777D01*
X042189Y004935D02*
X045598Y004935D01*
X045880Y004680D02*
X051380Y004680D01*
X051637Y004777D02*
X053630Y004777D01*
X053630Y004618D02*
X053067Y004618D01*
X053021Y004637D02*
X052839Y004637D01*
X052671Y004568D01*
X052542Y004439D01*
X052473Y004271D01*
X052473Y004089D01*
X052542Y003921D01*
X052671Y003792D01*
X052839Y003723D01*
X053021Y003723D01*
X053189Y003792D01*
X053318Y003921D01*
X053387Y004089D01*
X053387Y004271D01*
X053318Y004439D01*
X053189Y004568D01*
X053021Y004637D01*
X052793Y004618D02*
X052067Y004618D01*
X052297Y004460D02*
X052563Y004460D01*
X052485Y004301D02*
X052375Y004301D01*
X052387Y004143D02*
X052473Y004143D01*
X052516Y003984D02*
X052344Y003984D01*
X052222Y003826D02*
X052638Y003826D01*
X052247Y003667D02*
X053613Y003667D01*
X053638Y003826D02*
X053222Y003826D01*
X053344Y003984D02*
X053516Y003984D01*
X053473Y004143D02*
X053387Y004143D01*
X053375Y004301D02*
X053485Y004301D01*
X053563Y004460D02*
X053297Y004460D01*
X053471Y004935D02*
X051444Y004935D01*
X052289Y005252D02*
X053154Y005252D01*
X052996Y005411D02*
X052360Y005411D01*
X052354Y005569D02*
X052837Y005569D01*
X052679Y005728D02*
X052270Y005728D01*
X052520Y005886D02*
X051220Y005886D01*
X051356Y006045D02*
X052362Y006045D01*
X052203Y006203D02*
X051448Y006203D01*
X051504Y006362D02*
X052045Y006362D01*
X051886Y006520D02*
X051547Y006520D01*
X051550Y006679D02*
X051728Y006679D01*
X051569Y006837D02*
X051547Y006837D01*
X052084Y008230D02*
X053821Y006493D01*
X053810Y006533D01*
X053810Y006827D01*
X053886Y007112D01*
X054034Y007368D01*
X054242Y007576D01*
X054498Y007724D01*
X054783Y007800D01*
X055077Y007800D01*
X055362Y007724D01*
X055618Y007576D01*
X055826Y007368D01*
X055974Y007112D01*
X056050Y006827D01*
X056050Y006533D01*
X055974Y006248D01*
X055826Y005992D01*
X055618Y005784D01*
X055362Y005636D01*
X055077Y005560D01*
X054783Y005560D01*
X054743Y005571D01*
X055384Y004930D01*
X059930Y004930D01*
X060022Y004892D01*
X060295Y004619D01*
X060339Y004637D01*
X060521Y004637D01*
X060689Y004568D01*
X060818Y004439D01*
X060887Y004271D01*
X060887Y004089D01*
X060818Y003921D01*
X060689Y003792D01*
X060641Y003773D01*
X060795Y003619D01*
X060839Y003637D01*
X061021Y003637D01*
X061189Y003568D01*
X061318Y003439D01*
X061387Y003271D01*
X061387Y003089D01*
X061318Y002921D01*
X061189Y002792D01*
X061021Y002723D01*
X060839Y002723D01*
X060671Y002792D01*
X060542Y002921D01*
X060473Y003089D01*
X060473Y003234D01*
X060353Y003353D01*
X060387Y003271D01*
X060387Y003089D01*
X060318Y002921D01*
X060189Y002792D01*
X060021Y002723D01*
X059839Y002723D01*
X059671Y002792D01*
X059542Y002921D01*
X059473Y003089D01*
X059473Y003271D01*
X059539Y003430D01*
X059372Y003430D01*
X059400Y003375D01*
X059425Y003299D01*
X059437Y003220D01*
X059437Y003189D01*
X058939Y003189D01*
X058939Y003171D01*
X059437Y003171D01*
X059437Y003140D01*
X059425Y003061D01*
X059400Y002985D01*
X059364Y002914D01*
X059317Y002850D01*
X059260Y002793D01*
X059196Y002746D01*
X059125Y002710D01*
X059049Y002685D01*
X058970Y002673D01*
X058939Y002673D01*
X058939Y003171D01*
X058921Y003171D01*
X058921Y002673D01*
X058890Y002673D01*
X058811Y002685D01*
X058735Y002710D01*
X058664Y002746D01*
X058600Y002793D01*
X058543Y002850D01*
X058496Y002914D01*
X058460Y002985D01*
X058435Y003061D01*
X058423Y003140D01*
X058423Y003171D01*
X058921Y003171D01*
X058921Y003189D01*
X058423Y003189D01*
X058423Y003220D01*
X058435Y003299D01*
X058460Y003375D01*
X058488Y003430D01*
X054821Y003430D01*
X054887Y003271D01*
X054887Y003126D01*
X055384Y002630D01*
X062112Y002630D01*
X062019Y002723D01*
X061839Y002723D01*
X061671Y002792D01*
X061542Y002921D01*
X061473Y003089D01*
X061473Y003271D01*
X061542Y003439D01*
X061671Y003568D01*
X061839Y003637D01*
X062021Y003637D01*
X062189Y003568D01*
X062318Y003439D01*
X062387Y003271D01*
X062387Y003091D01*
X062925Y002552D01*
X062925Y002552D01*
X063038Y002440D01*
X068572Y002440D01*
X069048Y002916D01*
X069042Y002921D01*
X068973Y003089D01*
X068973Y003271D01*
X069042Y003439D01*
X069171Y003568D01*
X069339Y003637D01*
X069521Y003637D01*
X069630Y003592D01*
X069630Y003930D01*
X069321Y003930D01*
X069318Y003921D01*
X069189Y003792D01*
X069021Y003723D01*
X068839Y003723D01*
X068730Y003768D01*
X068730Y003527D01*
X068818Y003439D01*
X068887Y003271D01*
X068887Y003089D01*
X068818Y002921D01*
X068689Y002792D01*
X068521Y002723D01*
X068339Y002723D01*
X068171Y002792D01*
X068042Y002921D01*
X067973Y003089D01*
X067973Y003271D01*
X068042Y003439D01*
X068171Y003568D01*
X068230Y003592D01*
X068230Y003833D01*
X068189Y003792D01*
X068021Y003723D01*
X067839Y003723D01*
X067671Y003792D01*
X067542Y003921D01*
X067473Y004089D01*
X067473Y004271D01*
X067542Y004439D01*
X067630Y004527D01*
X067630Y005762D01*
X066545Y006848D01*
X066550Y006827D01*
X066550Y006533D01*
X066474Y006248D01*
X066326Y005992D01*
X066118Y005784D01*
X065862Y005636D01*
X065577Y005560D01*
X065283Y005560D01*
X064998Y005636D01*
X064742Y005784D01*
X064534Y005992D01*
X064530Y005999D01*
X064530Y005130D01*
X066230Y005130D01*
X066322Y005092D01*
X066795Y004619D01*
X066839Y004637D01*
X067021Y004637D01*
X067189Y004568D01*
X067318Y004439D01*
X067387Y004271D01*
X067387Y004089D01*
X067318Y003921D01*
X067189Y003792D01*
X067021Y003723D01*
X066839Y003723D01*
X066671Y003792D01*
X066542Y003921D01*
X066473Y004089D01*
X066473Y004234D01*
X066353Y004353D01*
X066387Y004271D01*
X066387Y004089D01*
X066318Y003921D01*
X066189Y003792D01*
X066021Y003723D01*
X065839Y003723D01*
X065671Y003792D01*
X065542Y003921D01*
X065473Y004089D01*
X065473Y004234D01*
X065376Y004330D01*
X062830Y004330D01*
X062738Y004368D01*
X060250Y006856D01*
X060202Y006740D01*
X060095Y006633D01*
X059956Y006575D01*
X059804Y006575D01*
X059665Y006633D01*
X059558Y006740D01*
X059500Y006879D01*
X059500Y006981D01*
X058136Y008346D01*
X058102Y008265D01*
X057995Y008158D01*
X057856Y008100D01*
X057704Y008100D01*
X057565Y008158D01*
X057493Y008230D01*
X052084Y008230D01*
X052209Y008105D02*
X057692Y008105D01*
X057868Y008105D02*
X058376Y008105D01*
X058218Y008264D02*
X058101Y008264D01*
X058535Y007947D02*
X052367Y007947D01*
X052526Y007788D02*
X054738Y007788D01*
X055122Y007788D02*
X057738Y007788D01*
X057783Y007800D02*
X057498Y007724D01*
X057242Y007576D01*
X057034Y007368D01*
X056886Y007112D01*
X056810Y006827D01*
X056810Y006533D01*
X056886Y006248D01*
X057034Y005992D01*
X057242Y005784D01*
X057498Y005636D01*
X057783Y005560D01*
X058077Y005560D01*
X058362Y005636D01*
X058618Y005784D01*
X058826Y005992D01*
X058974Y006248D01*
X059050Y006533D01*
X059050Y006827D01*
X058974Y007112D01*
X058826Y007368D01*
X058618Y007576D01*
X058362Y007724D01*
X058077Y007800D01*
X057783Y007800D01*
X058122Y007788D02*
X058693Y007788D01*
X058852Y007630D02*
X058525Y007630D01*
X058723Y007471D02*
X059010Y007471D01*
X058858Y007313D02*
X059169Y007313D01*
X059327Y007154D02*
X058950Y007154D01*
X059005Y006996D02*
X059486Y006996D01*
X059518Y006837D02*
X059047Y006837D01*
X059050Y006679D02*
X059619Y006679D01*
X060141Y006679D02*
X060428Y006679D01*
X060269Y006837D02*
X060242Y006837D01*
X060586Y006520D02*
X059047Y006520D01*
X059004Y006362D02*
X060745Y006362D01*
X060903Y006203D02*
X058948Y006203D01*
X058856Y006045D02*
X061062Y006045D01*
X061220Y005886D02*
X058720Y005886D01*
X058520Y005728D02*
X061379Y005728D01*
X061537Y005569D02*
X058111Y005569D01*
X057749Y005569D02*
X055111Y005569D01*
X054903Y005411D02*
X061696Y005411D01*
X061854Y005252D02*
X055062Y005252D01*
X055220Y005094D02*
X062013Y005094D01*
X062171Y004935D02*
X055379Y004935D01*
X054749Y005569D02*
X054745Y005569D01*
X055520Y005728D02*
X057340Y005728D01*
X057140Y005886D02*
X055720Y005886D01*
X055856Y006045D02*
X057004Y006045D01*
X056912Y006203D02*
X055948Y006203D01*
X056004Y006362D02*
X056856Y006362D01*
X056813Y006520D02*
X056047Y006520D01*
X056050Y006679D02*
X056810Y006679D01*
X056813Y006837D02*
X056047Y006837D01*
X056005Y006996D02*
X056855Y006996D01*
X056910Y007154D02*
X055950Y007154D01*
X055858Y007313D02*
X057002Y007313D01*
X057137Y007471D02*
X055723Y007471D01*
X055525Y007630D02*
X057335Y007630D01*
X054335Y007630D02*
X052684Y007630D01*
X052843Y007471D02*
X054137Y007471D01*
X054002Y007313D02*
X053001Y007313D01*
X053160Y007154D02*
X053910Y007154D01*
X053855Y006996D02*
X053318Y006996D01*
X053477Y006837D02*
X053813Y006837D01*
X053810Y006679D02*
X053635Y006679D01*
X053794Y006520D02*
X053813Y006520D01*
X053313Y005094D02*
X042347Y005094D01*
X043038Y004460D02*
X043063Y004460D01*
X043797Y004460D02*
X044063Y004460D01*
X043985Y004301D02*
X043875Y004301D01*
X043887Y004143D02*
X043973Y004143D01*
X044016Y003984D02*
X043844Y003984D01*
X042939Y003667D02*
X041860Y003667D01*
X041841Y003509D02*
X043111Y003509D01*
X043452Y003350D02*
X041737Y003350D01*
X041223Y003350D02*
X039854Y003350D01*
X039887Y003192D02*
X043423Y003192D01*
X043444Y003033D02*
X039864Y003033D01*
X041810Y003826D02*
X042781Y003826D01*
X044339Y003480D02*
X044583Y003480D01*
X044542Y003439D01*
X044473Y003271D01*
X044473Y003089D01*
X044518Y002980D01*
X044397Y002980D01*
X044400Y002985D01*
X044425Y003061D01*
X044437Y003140D01*
X044437Y003171D01*
X043939Y003171D01*
X043939Y003189D01*
X044437Y003189D01*
X044437Y003220D01*
X044425Y003299D01*
X044400Y003375D01*
X044364Y003446D01*
X044339Y003480D01*
X044408Y003350D02*
X044506Y003350D01*
X044473Y003192D02*
X044437Y003192D01*
X044416Y003033D02*
X044496Y003033D01*
X047035Y003631D02*
X047084Y003680D01*
X047176Y003680D01*
X047318Y003538D01*
X047388Y003468D01*
X047480Y003430D01*
X047630Y003430D01*
X050988Y003430D01*
X050960Y003375D01*
X050935Y003299D01*
X050923Y003220D01*
X050923Y003189D01*
X051421Y003189D01*
X051421Y003171D01*
X050923Y003171D01*
X050923Y003140D01*
X050935Y003061D01*
X050960Y002985D01*
X050963Y002980D01*
X047342Y002980D01*
X047387Y003089D01*
X047387Y003271D01*
X047318Y003439D01*
X047189Y003568D01*
X047035Y003631D01*
X047071Y003667D02*
X047189Y003667D01*
X047248Y003509D02*
X047348Y003509D01*
X047354Y003350D02*
X050952Y003350D01*
X050923Y003192D02*
X047387Y003192D01*
X047364Y003033D02*
X050944Y003033D01*
X051439Y003171D02*
X051439Y003189D01*
X051937Y003189D01*
X051937Y003220D01*
X051928Y003279D01*
X051973Y003234D01*
X051973Y003089D01*
X052018Y002980D01*
X051897Y002980D01*
X051900Y002985D01*
X051925Y003061D01*
X051937Y003140D01*
X051937Y003171D01*
X051439Y003171D01*
X051916Y003033D02*
X051996Y003033D01*
X051973Y003192D02*
X051937Y003192D01*
X052748Y003509D02*
X053112Y003509D01*
X053006Y003350D02*
X052854Y003350D01*
X052887Y003192D02*
X052973Y003192D01*
X052879Y003033D02*
X052864Y003033D01*
X054854Y003350D02*
X058452Y003350D01*
X058423Y003192D02*
X054887Y003192D01*
X054981Y003033D02*
X058444Y003033D01*
X058525Y002875D02*
X055139Y002875D01*
X055298Y002716D02*
X058724Y002716D01*
X058921Y002716D02*
X058939Y002716D01*
X058939Y002875D02*
X058921Y002875D01*
X058921Y003033D02*
X058939Y003033D01*
X059136Y002716D02*
X062026Y002716D01*
X061589Y002875D02*
X061271Y002875D01*
X061364Y003033D02*
X061496Y003033D01*
X061473Y003192D02*
X061387Y003192D01*
X061354Y003350D02*
X061506Y003350D01*
X061612Y003509D02*
X061248Y003509D01*
X061339Y003723D02*
X061521Y003723D01*
X061689Y003792D01*
X061818Y003921D01*
X061887Y004089D01*
X061887Y004271D01*
X061818Y004439D01*
X061689Y004568D01*
X061521Y004637D01*
X061339Y004637D01*
X061171Y004568D01*
X061042Y004439D01*
X060973Y004271D01*
X060973Y004089D01*
X061042Y003921D01*
X061171Y003792D01*
X061339Y003723D01*
X061138Y003826D02*
X060722Y003826D01*
X060747Y003667D02*
X066288Y003667D01*
X066311Y003675D02*
X066235Y003650D01*
X066164Y003614D01*
X066100Y003567D01*
X066043Y003510D01*
X065996Y003446D01*
X065960Y003375D01*
X065935Y003299D01*
X065923Y003220D01*
X065923Y003189D01*
X066421Y003189D01*
X066421Y003687D01*
X066390Y003687D01*
X066311Y003675D01*
X066421Y003667D02*
X066439Y003667D01*
X066439Y003687D02*
X066470Y003687D01*
X066549Y003675D01*
X066625Y003650D01*
X066696Y003614D01*
X066760Y003567D01*
X066817Y003510D01*
X066864Y003446D01*
X066900Y003375D01*
X066925Y003299D01*
X066937Y003220D01*
X066937Y003189D01*
X066439Y003189D01*
X066439Y003171D01*
X066937Y003171D01*
X066937Y003140D01*
X066925Y003061D01*
X066900Y002985D01*
X066864Y002914D01*
X066817Y002850D01*
X066760Y002793D01*
X066696Y002746D01*
X066625Y002710D01*
X066549Y002685D01*
X066470Y002673D01*
X066439Y002673D01*
X066439Y003171D01*
X066421Y003171D01*
X066421Y002673D01*
X066390Y002673D01*
X066311Y002685D01*
X066235Y002710D01*
X066164Y002746D01*
X066100Y002793D01*
X066043Y002850D01*
X065996Y002914D01*
X065960Y002985D01*
X065935Y003061D01*
X065923Y003140D01*
X065923Y003171D01*
X066421Y003171D01*
X066421Y003189D01*
X066439Y003189D01*
X066439Y003687D01*
X066572Y003667D02*
X068230Y003667D01*
X068222Y003826D02*
X068230Y003826D01*
X068730Y003667D02*
X069630Y003667D01*
X069630Y003826D02*
X069222Y003826D01*
X070130Y003826D02*
X071389Y003826D01*
X071462Y003753D02*
X071662Y003753D01*
X071662Y004262D01*
X071698Y004262D01*
X071698Y003753D01*
X071898Y003753D01*
X072207Y004062D01*
X072207Y004079D01*
X072482Y003803D01*
X072878Y003803D01*
X073157Y004082D01*
X073157Y004478D01*
X072878Y004757D01*
X072482Y004757D01*
X072207Y004481D01*
X072207Y004498D01*
X071898Y004807D01*
X071698Y004807D01*
X071698Y004298D01*
X071662Y004298D01*
X071662Y004807D01*
X071462Y004807D01*
X071153Y004498D01*
X071153Y004298D01*
X071662Y004298D01*
X071662Y004262D01*
X071153Y004262D01*
X071153Y004062D01*
X071462Y003753D01*
X071662Y003826D02*
X071698Y003826D01*
X071698Y003984D02*
X071662Y003984D01*
X071662Y004143D02*
X071698Y004143D01*
X071698Y004301D02*
X071662Y004301D01*
X071662Y004460D02*
X071698Y004460D01*
X071698Y004618D02*
X071662Y004618D01*
X071662Y004777D02*
X071698Y004777D01*
X071929Y004777D02*
X073045Y004777D01*
X073075Y004755D02*
X073157Y004713D01*
X073243Y004685D01*
X073334Y004671D01*
X073729Y004671D01*
X073729Y005251D01*
X073729Y005251D01*
X072799Y005251D01*
X072799Y005297D01*
X072813Y005387D01*
X072842Y005474D01*
X072870Y005530D01*
X070784Y005530D01*
X069792Y004538D01*
X069722Y004468D01*
X069630Y004430D01*
X069321Y004430D01*
X069321Y004430D01*
X069930Y004430D01*
X070022Y004392D01*
X070092Y004322D01*
X070130Y004230D01*
X070130Y002930D01*
X070092Y002838D01*
X070022Y002768D01*
X068922Y001668D01*
X068830Y001630D01*
X060729Y001630D01*
X060760Y001556D01*
X060760Y001404D01*
X060702Y001265D01*
X060595Y001158D01*
X060456Y001100D01*
X060354Y001100D01*
X059914Y000660D01*
X074149Y000660D01*
X074020Y000790D01*
X073829Y001120D01*
X073730Y001489D01*
X073730Y001871D01*
X073829Y002240D01*
X074020Y002570D01*
X074290Y002840D01*
X074620Y003031D01*
X074989Y003130D01*
X075371Y003130D01*
X075740Y003031D01*
X076070Y002840D01*
X076070Y015520D01*
X075740Y015329D01*
X075371Y015230D01*
X074989Y015230D01*
X074620Y015329D01*
X074290Y015520D01*
X074020Y015790D01*
X073829Y016120D01*
X073730Y016489D01*
X073730Y016871D01*
X073829Y017240D01*
X074020Y017570D01*
X074145Y017696D01*
X040251Y017696D01*
X040352Y017595D01*
X040410Y017456D01*
X040410Y017304D01*
X040352Y017165D01*
X040245Y017058D01*
X040106Y017000D01*
X039954Y017000D01*
X039815Y017058D01*
X039708Y017165D01*
X039650Y017304D01*
X039650Y017406D01*
X039626Y017430D01*
X037629Y017430D01*
X037660Y017356D01*
X037660Y017204D01*
X037642Y017160D01*
X037756Y017160D01*
X037895Y017102D01*
X038002Y016995D01*
X038060Y016856D01*
X038060Y016704D01*
X038029Y016630D01*
X038881Y016630D01*
X038850Y016704D01*
X038850Y016856D01*
X038908Y016995D01*
X039015Y017102D01*
X039154Y017160D01*
X039306Y017160D01*
X039445Y017102D01*
X039552Y016995D01*
X039558Y016980D01*
X046576Y016980D01*
X046668Y017072D01*
X046738Y017142D01*
X046830Y017180D01*
X048430Y017180D01*
X048522Y017142D01*
X050222Y015442D01*
X050292Y015372D01*
X050330Y015280D01*
X050330Y014680D01*
X055230Y014680D01*
X055322Y014642D01*
X055392Y014572D01*
X055427Y014486D01*
X055714Y014199D01*
X055818Y014242D01*
X055864Y014242D01*
X054533Y015573D01*
X054527Y015537D01*
X054498Y015445D01*
X054454Y015359D01*
X054397Y015281D01*
X054329Y015213D01*
X054251Y015156D01*
X054165Y015112D01*
X054073Y015083D01*
X053978Y015068D01*
X053978Y015068D01*
X053978Y015632D01*
X053882Y015632D01*
X053882Y015067D01*
X053882Y015068D01*
X053787Y015083D01*
X053695Y015112D01*
X053609Y015156D01*
X053531Y015213D01*
X053463Y015281D01*
X053406Y015359D01*
X053362Y015445D01*
X053333Y015537D01*
X053318Y015632D01*
X053318Y015632D01*
X053882Y015632D01*
X053882Y015728D01*
X053318Y015728D01*
X053318Y015728D01*
X053333Y015823D01*
X053362Y015915D01*
X053406Y016001D01*
X053463Y016079D01*
X053531Y016147D01*
X053609Y016204D01*
X053692Y016246D01*
X053665Y016258D01*
X053605Y016318D01*
X053545Y016258D01*
X053406Y016200D01*
X053254Y016200D01*
X053115Y016258D01*
X053008Y016365D01*
X052950Y016504D01*
X052950Y016656D01*
X052955Y016668D01*
X052945Y016658D01*
X052806Y016600D01*
X052654Y016600D01*
X052515Y016658D01*
X052408Y016765D01*
X052350Y016904D01*
X052350Y017056D01*
X052408Y017195D01*
X052515Y017302D01*
X052654Y017360D01*
X052806Y017360D01*
X052945Y017302D01*
X053017Y017230D01*
X053276Y017230D01*
X053468Y017422D01*
X053538Y017492D01*
X053630Y017530D01*
X057830Y017530D01*
X057922Y017492D01*
X059584Y015829D01*
X059612Y015915D01*
X059656Y016001D01*
X059713Y016079D01*
X059781Y016147D01*
X059859Y016204D01*
X059945Y016248D01*
X060037Y016277D01*
X060132Y016292D01*
X060132Y016292D01*
X060132Y015728D01*
X060228Y015728D01*
X060228Y016292D01*
X060228Y016292D01*
X060323Y016277D01*
X060415Y016248D01*
X060501Y016204D01*
X060579Y016147D01*
X060647Y016079D01*
X060704Y016001D01*
X060748Y015915D01*
X060777Y015823D01*
X060792Y015728D01*
X060792Y015728D01*
X060228Y015728D01*
X060228Y015632D01*
X060792Y015632D01*
X060792Y015632D01*
X060777Y015537D01*
X060748Y015445D01*
X060704Y015359D01*
X060647Y015281D01*
X060579Y015213D01*
X060501Y015156D01*
X060415Y015112D01*
X060329Y015084D01*
X061484Y013930D01*
X061675Y013930D01*
X061703Y013999D01*
X061861Y014157D01*
X062068Y014242D01*
X062292Y014242D01*
X062499Y014157D01*
X062657Y013999D01*
X062742Y013792D01*
X062742Y013568D01*
X062657Y013361D01*
X062499Y013203D01*
X062292Y013118D01*
X062068Y013118D01*
X061861Y013203D01*
X061703Y013361D01*
X061675Y013430D01*
X061330Y013430D01*
X061238Y013468D01*
X061168Y013538D01*
X057676Y017030D01*
X057046Y017030D01*
X057144Y016834D01*
X057150Y016827D01*
X057167Y016788D01*
X057186Y016750D01*
X057186Y016741D01*
X057190Y016732D01*
X057190Y016689D01*
X057193Y016647D01*
X057190Y016638D01*
X057190Y012940D01*
X057193Y012898D01*
X057190Y012889D01*
X057190Y012878D01*
X057174Y012840D01*
X057161Y012800D01*
X057160Y012799D01*
X057160Y012679D01*
X057102Y012540D01*
X057092Y012530D01*
X058904Y012530D01*
X058928Y012540D01*
X059032Y012540D01*
X059127Y012500D01*
X059200Y012427D01*
X059240Y012332D01*
X059240Y010690D01*
X063382Y010690D01*
X063477Y010650D01*
X068100Y006027D01*
X068140Y005932D01*
X068140Y005828D01*
X068130Y005804D01*
X068130Y004592D01*
X068189Y004568D01*
X068258Y004498D01*
X068268Y004522D01*
X068338Y004592D01*
X068638Y004892D01*
X068730Y004930D01*
X069476Y004930D01*
X070117Y005571D01*
X070077Y005560D01*
X069783Y005560D01*
X069498Y005636D01*
X069242Y005784D01*
X069034Y005992D01*
X068886Y006248D01*
X068810Y006533D01*
X068810Y006827D01*
X068886Y007112D01*
X069034Y007368D01*
X069242Y007576D01*
X069498Y007724D01*
X069783Y007800D01*
X070077Y007800D01*
X070362Y007724D01*
X070618Y007576D01*
X070826Y007368D01*
X070974Y007112D01*
X071050Y006827D01*
X071050Y006533D01*
X070974Y006248D01*
X070848Y006030D01*
X075230Y006030D01*
X075230Y006332D01*
X075153Y006292D01*
X075066Y006264D01*
X074976Y006250D01*
X074930Y006250D01*
X074930Y007180D01*
X074930Y007180D01*
X074930Y008110D01*
X074976Y008110D01*
X075066Y008096D01*
X075153Y008068D01*
X075230Y008028D01*
X075230Y009146D01*
X075092Y009146D01*
X074986Y009251D01*
X074986Y010109D01*
X075092Y010214D01*
X075221Y010214D01*
X075221Y010531D01*
X075180Y010531D01*
X075075Y010636D01*
X075075Y011179D01*
X075180Y011284D01*
X075959Y011284D01*
X076065Y011179D01*
X076065Y010636D01*
X075959Y010531D01*
X075741Y010531D01*
X075741Y010214D01*
X075871Y010214D01*
X075976Y010109D01*
X075976Y009251D01*
X075871Y009146D01*
X075730Y009146D01*
X075730Y005730D01*
X075692Y005638D01*
X075622Y005568D01*
X075530Y005530D01*
X074588Y005530D01*
X074617Y005474D01*
X074645Y005387D01*
X074659Y005297D01*
X074659Y005251D01*
X073729Y005251D01*
X072799Y005251D01*
X072799Y005205D01*
X072813Y005115D01*
X072842Y005028D01*
X072883Y004947D01*
X072937Y004873D01*
X073001Y004808D01*
X073075Y004755D01*
X073016Y004618D02*
X076070Y004618D01*
X076070Y004460D02*
X073157Y004460D01*
X073157Y004301D02*
X076070Y004301D01*
X076070Y004143D02*
X073157Y004143D01*
X073058Y003984D02*
X076070Y003984D01*
X076070Y003826D02*
X072900Y003826D01*
X072460Y003826D02*
X071971Y003826D01*
X072129Y003984D02*
X072302Y003984D01*
X071231Y003984D02*
X070130Y003984D01*
X070130Y004143D02*
X071153Y004143D01*
X071153Y004301D02*
X070100Y004301D01*
X069872Y004618D02*
X071273Y004618D01*
X071153Y004460D02*
X069701Y004460D01*
X070030Y004777D02*
X071431Y004777D01*
X072087Y004618D02*
X072344Y004618D01*
X072892Y004935D02*
X070189Y004935D01*
X070347Y005094D02*
X072820Y005094D01*
X072799Y005252D02*
X070506Y005252D01*
X070664Y005411D02*
X072821Y005411D01*
X073729Y005251D02*
X073729Y005251D01*
X073729Y005251D01*
X073729Y004671D01*
X074125Y004671D01*
X074215Y004685D01*
X074302Y004713D01*
X074383Y004755D01*
X074457Y004808D01*
X074522Y004873D01*
X074575Y004947D01*
X074617Y005028D01*
X074645Y005115D01*
X074659Y005205D01*
X074659Y005251D01*
X073729Y005251D01*
X073729Y005094D02*
X073729Y005094D01*
X073729Y004935D02*
X073729Y004935D01*
X073729Y004777D02*
X073729Y004777D01*
X074413Y004777D02*
X076070Y004777D01*
X076070Y004935D02*
X074567Y004935D01*
X074638Y005094D02*
X076070Y005094D01*
X076070Y005252D02*
X074659Y005252D01*
X074637Y005411D02*
X076070Y005411D01*
X076070Y005569D02*
X075623Y005569D01*
X075729Y005728D02*
X076070Y005728D01*
X076070Y005886D02*
X075730Y005886D01*
X075730Y006045D02*
X076070Y006045D01*
X076070Y006203D02*
X075730Y006203D01*
X075730Y006362D02*
X076070Y006362D01*
X076070Y006520D02*
X075730Y006520D01*
X075730Y006679D02*
X076070Y006679D01*
X076070Y006837D02*
X075730Y006837D01*
X075730Y006996D02*
X076070Y006996D01*
X076070Y007154D02*
X075730Y007154D01*
X075730Y007313D02*
X076070Y007313D01*
X076070Y007471D02*
X075730Y007471D01*
X075730Y007630D02*
X076070Y007630D01*
X076070Y007788D02*
X075730Y007788D01*
X075730Y007947D02*
X076070Y007947D01*
X076070Y008105D02*
X075730Y008105D01*
X075730Y008264D02*
X076070Y008264D01*
X076070Y008422D02*
X075730Y008422D01*
X075730Y008581D02*
X076070Y008581D01*
X076070Y008739D02*
X075730Y008739D01*
X075730Y008898D02*
X076070Y008898D01*
X076070Y009056D02*
X075730Y009056D01*
X075940Y009215D02*
X076070Y009215D01*
X076070Y009373D02*
X075976Y009373D01*
X075976Y009532D02*
X076070Y009532D01*
X076070Y009690D02*
X075976Y009690D01*
X075976Y009849D02*
X076070Y009849D01*
X076070Y010007D02*
X075976Y010007D01*
X075920Y010166D02*
X076070Y010166D01*
X076070Y010324D02*
X075741Y010324D01*
X075741Y010483D02*
X076070Y010483D01*
X076065Y010641D02*
X076070Y010641D01*
X076065Y010800D02*
X076070Y010800D01*
X076065Y010958D02*
X076070Y010958D01*
X076065Y011117D02*
X076070Y011117D01*
X076070Y011275D02*
X075968Y011275D01*
X076070Y011434D02*
X074146Y011434D01*
X074146Y011592D02*
X076070Y011592D01*
X076070Y011751D02*
X072776Y011751D01*
X072776Y011725D02*
X072776Y011885D01*
X074146Y011885D01*
X074146Y012891D01*
X074137Y012935D01*
X074120Y012977D01*
X074095Y013015D01*
X074063Y013047D01*
X074025Y013072D01*
X073983Y013089D01*
X073939Y013098D01*
X072776Y013098D01*
X072776Y011885D01*
X072616Y011885D01*
X072616Y013098D01*
X071453Y013098D01*
X071408Y013089D01*
X071366Y013072D01*
X071329Y013047D01*
X071297Y013015D01*
X071271Y012977D01*
X071254Y012935D01*
X071245Y012891D01*
X071245Y011885D01*
X072616Y011885D01*
X072616Y011725D01*
X072776Y011725D01*
X074146Y011725D01*
X074146Y010719D01*
X074137Y010675D01*
X074120Y010633D01*
X074095Y010595D01*
X074063Y010563D01*
X074025Y010538D01*
X073983Y010521D01*
X073939Y010512D01*
X072776Y010512D01*
X072776Y011725D01*
X072696Y011805D02*
X074379Y010122D01*
X072696Y011805D01*
X071680Y012821D01*
X071301Y013019D02*
X057190Y013019D01*
X057190Y013177D02*
X061924Y013177D01*
X061729Y013336D02*
X057190Y013336D01*
X057190Y013494D02*
X061212Y013494D01*
X061054Y013653D02*
X057190Y013653D01*
X057190Y013811D02*
X060895Y013811D01*
X060737Y013970D02*
X057190Y013970D01*
X057190Y014128D02*
X060578Y014128D01*
X060420Y014287D02*
X057190Y014287D01*
X057190Y014445D02*
X060261Y014445D01*
X060103Y014604D02*
X057190Y014604D01*
X057190Y014762D02*
X059944Y014762D01*
X059786Y014921D02*
X057190Y014921D01*
X057190Y015079D02*
X057809Y015079D01*
X057787Y015083D02*
X057882Y015068D01*
X057882Y015067D01*
X057882Y015632D01*
X057978Y015632D01*
X057978Y015728D01*
X058542Y015728D01*
X058527Y015823D01*
X058498Y015915D01*
X058454Y016001D01*
X058397Y016079D01*
X058329Y016147D01*
X058251Y016204D01*
X058165Y016248D01*
X058073Y016277D01*
X057978Y016292D01*
X057978Y016292D01*
X057978Y015728D01*
X057882Y015728D01*
X057882Y016292D01*
X057787Y016277D01*
X057695Y016248D01*
X057609Y016204D01*
X057531Y016147D01*
X057463Y016079D01*
X057406Y016001D01*
X057362Y015915D01*
X057333Y015823D01*
X057318Y015728D01*
X057318Y015728D01*
X057882Y015728D01*
X057882Y015632D01*
X057318Y015632D01*
X057333Y015537D01*
X057362Y015445D01*
X057406Y015359D01*
X057463Y015281D01*
X057531Y015213D01*
X057609Y015156D01*
X057695Y015112D01*
X057787Y015083D01*
X057882Y015079D02*
X057978Y015079D01*
X057978Y015068D02*
X058073Y015083D01*
X058165Y015112D01*
X058251Y015156D01*
X058329Y015213D01*
X058397Y015281D01*
X058454Y015359D01*
X058498Y015445D01*
X058527Y015537D01*
X058542Y015632D01*
X058542Y015632D01*
X057978Y015632D01*
X057978Y015068D01*
X057978Y015068D01*
X058051Y015079D02*
X059627Y015079D01*
X059469Y015238D02*
X058354Y015238D01*
X058473Y015396D02*
X059310Y015396D01*
X059152Y015555D02*
X058530Y015555D01*
X058542Y015728D02*
X058542Y015728D01*
X058512Y015872D02*
X058835Y015872D01*
X058676Y016030D02*
X058433Y016030D01*
X058518Y016189D02*
X058272Y016189D01*
X058359Y016347D02*
X057190Y016347D01*
X057190Y016189D02*
X057588Y016189D01*
X057427Y016030D02*
X057190Y016030D01*
X057190Y015872D02*
X057348Y015872D01*
X057190Y015713D02*
X057882Y015713D01*
X057978Y015713D02*
X058993Y015713D01*
X059384Y016030D02*
X059677Y016030D01*
X059598Y015872D02*
X059542Y015872D01*
X059838Y016189D02*
X059225Y016189D01*
X059067Y016347D02*
X073768Y016347D01*
X073730Y016506D02*
X058908Y016506D01*
X058750Y016664D02*
X073730Y016664D01*
X073730Y016823D02*
X058591Y016823D01*
X058433Y016981D02*
X073760Y016981D01*
X073802Y017140D02*
X058274Y017140D01*
X058116Y017298D02*
X073863Y017298D01*
X073954Y017457D02*
X057957Y017457D01*
X057725Y016981D02*
X057070Y016981D01*
X057152Y016823D02*
X057884Y016823D01*
X058042Y016664D02*
X057192Y016664D01*
X057190Y016506D02*
X058201Y016506D01*
X057882Y016292D02*
X057882Y016292D01*
X057882Y016189D02*
X057978Y016189D01*
X057978Y016030D02*
X057882Y016030D01*
X057882Y015872D02*
X057978Y015872D01*
X057318Y015632D02*
X057318Y015632D01*
X057330Y015555D02*
X057190Y015555D01*
X057190Y015396D02*
X057387Y015396D01*
X057506Y015238D02*
X057190Y015238D01*
X057882Y015238D02*
X057978Y015238D01*
X057978Y015396D02*
X057882Y015396D01*
X057882Y015555D02*
X057978Y015555D01*
X060132Y015872D02*
X060228Y015872D01*
X060228Y016030D02*
X060132Y016030D01*
X060132Y016189D02*
X060228Y016189D01*
X060522Y016189D02*
X063838Y016189D01*
X063859Y016204D02*
X063781Y016147D01*
X063713Y016079D01*
X063656Y016001D01*
X063612Y015915D01*
X063583Y015823D01*
X063568Y015728D01*
X063568Y015728D01*
X064132Y015728D01*
X064132Y016292D01*
X064037Y016277D01*
X063945Y016248D01*
X063859Y016204D01*
X063677Y016030D02*
X060683Y016030D01*
X060762Y015872D02*
X063598Y015872D01*
X063568Y015632D02*
X063568Y015632D01*
X063583Y015537D01*
X063612Y015445D01*
X063656Y015359D01*
X063713Y015281D01*
X063781Y015213D01*
X063859Y015156D01*
X063945Y015112D01*
X064037Y015083D01*
X064132Y015068D01*
X064132Y015067D01*
X064132Y015632D01*
X064228Y015632D01*
X064228Y015728D01*
X064792Y015728D01*
X064777Y015823D01*
X064748Y015915D01*
X064704Y016001D01*
X064647Y016079D01*
X064579Y016147D01*
X064501Y016204D01*
X064415Y016248D01*
X064323Y016277D01*
X064228Y016292D01*
X064228Y016292D01*
X064228Y015728D01*
X064132Y015728D01*
X064132Y015632D01*
X063568Y015632D01*
X063580Y015555D02*
X060780Y015555D01*
X060723Y015396D02*
X063637Y015396D01*
X063756Y015238D02*
X060604Y015238D01*
X060335Y015079D02*
X064059Y015079D01*
X064132Y015079D02*
X064228Y015079D01*
X064228Y015068D02*
X064323Y015083D01*
X064415Y015112D01*
X064501Y015156D01*
X064579Y015213D01*
X064647Y015281D01*
X064704Y015359D01*
X064748Y015445D01*
X064777Y015537D01*
X064792Y015632D01*
X064792Y015632D01*
X064228Y015632D01*
X064228Y015068D01*
X064228Y015068D01*
X064301Y015079D02*
X066059Y015079D01*
X066037Y015083D02*
X066132Y015068D01*
X066132Y015067D01*
X066132Y015632D01*
X066228Y015632D01*
X066228Y015728D01*
X066792Y015728D01*
X066777Y015823D01*
X066748Y015915D01*
X066704Y016001D01*
X066647Y016079D01*
X066579Y016147D01*
X066501Y016204D01*
X066415Y016248D01*
X066323Y016277D01*
X066228Y016292D01*
X066228Y016292D01*
X066228Y015728D01*
X066132Y015728D01*
X066132Y016292D01*
X066037Y016277D01*
X065945Y016248D01*
X065859Y016204D01*
X065781Y016147D01*
X065713Y016079D01*
X065656Y016001D01*
X065612Y015915D01*
X065583Y015823D01*
X065568Y015728D01*
X065568Y015728D01*
X066132Y015728D01*
X066132Y015632D01*
X065568Y015632D01*
X065583Y015537D01*
X065612Y015445D01*
X065656Y015359D01*
X065713Y015281D01*
X065781Y015213D01*
X065859Y015156D01*
X065945Y015112D01*
X066037Y015083D01*
X066132Y015079D02*
X066228Y015079D01*
X066228Y015068D02*
X066323Y015083D01*
X066415Y015112D01*
X066501Y015156D01*
X066579Y015213D01*
X066647Y015281D01*
X066704Y015359D01*
X066748Y015445D01*
X066777Y015537D01*
X066792Y015632D01*
X066792Y015632D01*
X066228Y015632D01*
X066228Y015068D01*
X066228Y015068D01*
X066301Y015079D02*
X070059Y015079D01*
X070037Y015083D02*
X070132Y015068D01*
X070132Y015067D01*
X070132Y015632D01*
X070228Y015632D01*
X070228Y015728D01*
X070792Y015728D01*
X070777Y015823D01*
X070748Y015915D01*
X070704Y016001D01*
X070647Y016079D01*
X070579Y016147D01*
X070501Y016204D01*
X070415Y016248D01*
X070323Y016277D01*
X070228Y016292D01*
X070228Y016292D01*
X070228Y015728D01*
X070132Y015728D01*
X070132Y016292D01*
X070037Y016277D01*
X069945Y016248D01*
X069859Y016204D01*
X069781Y016147D01*
X069713Y016079D01*
X069656Y016001D01*
X069612Y015915D01*
X069583Y015823D01*
X069568Y015728D01*
X069568Y015728D01*
X070132Y015728D01*
X070132Y015632D01*
X069568Y015632D01*
X069583Y015537D01*
X069612Y015445D01*
X069656Y015359D01*
X069713Y015281D01*
X069781Y015213D01*
X069859Y015156D01*
X069945Y015112D01*
X070037Y015083D01*
X070132Y015079D02*
X070228Y015079D01*
X070228Y015068D02*
X070323Y015083D01*
X070415Y015112D01*
X070501Y015156D01*
X070579Y015213D01*
X070647Y015281D01*
X070704Y015359D01*
X070748Y015445D01*
X070777Y015537D01*
X070792Y015632D01*
X070792Y015632D01*
X070228Y015632D01*
X070228Y015068D01*
X070228Y015068D01*
X070301Y015079D02*
X073311Y015079D01*
X073383Y015150D02*
X073478Y015190D01*
X075482Y015190D01*
X075577Y015150D01*
X075650Y015077D01*
X075702Y015026D01*
X075741Y014931D01*
X075741Y014714D01*
X075871Y014714D01*
X075976Y014609D01*
X075976Y013751D01*
X075871Y013646D01*
X075741Y013646D01*
X075741Y013079D01*
X075959Y013079D01*
X076065Y012974D01*
X076065Y012431D01*
X075959Y012326D01*
X075180Y012326D01*
X075075Y012431D01*
X075075Y012974D01*
X075180Y013079D01*
X075221Y013079D01*
X075221Y013646D01*
X075092Y013646D01*
X074986Y013751D01*
X074986Y014609D01*
X075047Y014670D01*
X074880Y014670D01*
X074898Y014643D01*
X074915Y014601D01*
X074924Y014557D01*
X074924Y014257D01*
X074456Y014257D01*
X074456Y014103D01*
X074924Y014103D01*
X074924Y013803D01*
X074915Y013759D01*
X074898Y013717D01*
X074872Y013679D01*
X074840Y013647D01*
X074803Y013622D01*
X074761Y013605D01*
X074716Y013596D01*
X074456Y013596D01*
X074456Y014103D01*
X074301Y014103D01*
X073834Y014103D01*
X073834Y013803D01*
X073843Y013759D01*
X073860Y013717D01*
X073885Y013679D01*
X073917Y013647D01*
X073955Y013622D01*
X073997Y013605D01*
X074041Y013596D01*
X074301Y013596D01*
X074301Y014103D01*
X074301Y014257D01*
X073834Y014257D01*
X073834Y014557D01*
X073843Y014601D01*
X073860Y014643D01*
X073878Y014670D01*
X073638Y014670D01*
X073157Y014189D01*
X073157Y013882D01*
X072878Y013603D01*
X072482Y013603D01*
X072207Y013879D01*
X072207Y013862D01*
X071898Y013553D01*
X071698Y013553D01*
X071698Y014062D01*
X071662Y014062D01*
X071662Y013553D01*
X071462Y013553D01*
X071153Y013862D01*
X071153Y014062D01*
X071662Y014062D01*
X071662Y014098D01*
X071153Y014098D01*
X071153Y014298D01*
X071462Y014607D01*
X071662Y014607D01*
X071662Y014098D01*
X071698Y014098D01*
X071698Y014607D01*
X071898Y014607D01*
X072207Y014298D01*
X072207Y014281D01*
X072482Y014557D01*
X072789Y014557D01*
X073383Y015150D01*
X073530Y014930D02*
X072680Y014080D01*
X072371Y014445D02*
X072060Y014445D01*
X072207Y014287D02*
X072212Y014287D01*
X071902Y014604D02*
X072836Y014604D01*
X072994Y014762D02*
X060652Y014762D01*
X060810Y014604D02*
X071458Y014604D01*
X071662Y014604D02*
X071698Y014604D01*
X071698Y014445D02*
X071662Y014445D01*
X071662Y014287D02*
X071698Y014287D01*
X071698Y014128D02*
X071662Y014128D01*
X071662Y013970D02*
X071698Y013970D01*
X071698Y013811D02*
X071662Y013811D01*
X071662Y013653D02*
X071698Y013653D01*
X071998Y013653D02*
X072433Y013653D01*
X072275Y013811D02*
X072156Y013811D01*
X072927Y013653D02*
X073912Y013653D01*
X073834Y013811D02*
X073085Y013811D01*
X073157Y013970D02*
X073834Y013970D01*
X074301Y013970D02*
X074456Y013970D01*
X074456Y014128D02*
X074986Y014128D01*
X074986Y013970D02*
X074924Y013970D01*
X074924Y013811D02*
X074986Y013811D01*
X075085Y013653D02*
X074846Y013653D01*
X074456Y013653D02*
X074301Y013653D01*
X074301Y013811D02*
X074456Y013811D01*
X074379Y013488D02*
X074375Y013485D01*
X072696Y011805D01*
X072616Y011751D02*
X070789Y011751D01*
X070792Y011728D02*
X070777Y011823D01*
X070748Y011915D01*
X070704Y012001D01*
X070647Y012079D01*
X070579Y012147D01*
X070501Y012204D01*
X070415Y012248D01*
X070323Y012277D01*
X070228Y012292D01*
X070228Y012292D01*
X070228Y011728D01*
X070792Y011728D01*
X070792Y011728D01*
X070792Y011632D02*
X070228Y011632D01*
X070228Y011728D01*
X070132Y011728D01*
X070132Y012292D01*
X070037Y012277D01*
X069945Y012248D01*
X069859Y012204D01*
X069781Y012147D01*
X069713Y012079D01*
X069656Y012001D01*
X069612Y011915D01*
X069583Y011823D01*
X069568Y011728D01*
X069568Y011728D01*
X070132Y011728D01*
X070132Y011632D01*
X070228Y011632D01*
X070228Y011068D01*
X070323Y011083D01*
X070415Y011112D01*
X070501Y011156D01*
X070579Y011213D01*
X070647Y011281D01*
X070704Y011359D01*
X070748Y011445D01*
X070777Y011537D01*
X070792Y011632D01*
X070792Y011632D01*
X070786Y011592D02*
X071245Y011592D01*
X071245Y011725D02*
X071245Y010719D01*
X071254Y010675D01*
X071271Y010633D01*
X071297Y010595D01*
X071329Y010563D01*
X071366Y010538D01*
X071408Y010521D01*
X071453Y010512D01*
X072616Y010512D01*
X072616Y011725D01*
X071245Y011725D01*
X071245Y011909D02*
X070750Y011909D01*
X070656Y012068D02*
X071245Y012068D01*
X071245Y012226D02*
X070458Y012226D01*
X070228Y012226D02*
X070132Y012226D01*
X070132Y012292D02*
X070132Y012292D01*
X070132Y012068D02*
X070228Y012068D01*
X070228Y011909D02*
X070132Y011909D01*
X070132Y011751D02*
X070228Y011751D01*
X070132Y011632D02*
X069568Y011632D01*
X069583Y011537D01*
X069612Y011445D01*
X069656Y011359D01*
X069713Y011281D01*
X069781Y011213D01*
X069859Y011156D01*
X069945Y011112D01*
X070037Y011083D01*
X070132Y011068D01*
X070132Y011067D01*
X070132Y011632D01*
X070132Y011592D02*
X070228Y011592D01*
X070228Y011434D02*
X070132Y011434D01*
X070132Y011275D02*
X070228Y011275D01*
X070228Y011117D02*
X070132Y011117D01*
X070228Y011068D02*
X070228Y011068D01*
X070423Y011117D02*
X071245Y011117D01*
X071245Y011275D02*
X070641Y011275D01*
X070742Y011434D02*
X071245Y011434D01*
X071245Y010958D02*
X059240Y010958D01*
X059240Y010800D02*
X071245Y010800D01*
X071268Y010641D02*
X063487Y010641D01*
X063645Y010483D02*
X075221Y010483D01*
X075221Y010324D02*
X063804Y010324D01*
X063962Y010166D02*
X073875Y010166D01*
X073885Y010181D02*
X073860Y010143D01*
X073843Y010101D01*
X073834Y010057D01*
X073834Y009757D01*
X074301Y009757D01*
X074301Y009603D01*
X073834Y009603D01*
X073834Y009303D01*
X073843Y009259D01*
X073860Y009217D01*
X073885Y009179D01*
X073917Y009147D01*
X073955Y009122D01*
X073997Y009105D01*
X074041Y009096D01*
X074301Y009096D01*
X074301Y009603D01*
X074456Y009603D01*
X074456Y009757D01*
X074924Y009757D01*
X074924Y010057D01*
X074915Y010101D01*
X074898Y010143D01*
X074872Y010181D01*
X074840Y010213D01*
X074803Y010238D01*
X074761Y010255D01*
X074716Y010264D01*
X074456Y010264D01*
X074456Y009757D01*
X074301Y009757D01*
X074301Y010264D01*
X074041Y010264D01*
X073997Y010255D01*
X073955Y010238D01*
X073917Y010213D01*
X073885Y010181D01*
X073834Y010007D02*
X064121Y010007D01*
X064279Y009849D02*
X073834Y009849D01*
X074301Y009849D02*
X074456Y009849D01*
X074456Y010007D02*
X074301Y010007D01*
X074379Y010122D02*
X074379Y009680D01*
X074456Y009690D02*
X074986Y009690D01*
X074924Y009603D02*
X074456Y009603D01*
X074456Y009096D01*
X074716Y009096D01*
X074761Y009105D01*
X074803Y009122D01*
X074840Y009147D01*
X074872Y009179D01*
X074898Y009217D01*
X074915Y009259D01*
X074924Y009303D01*
X074924Y009603D01*
X074924Y009532D02*
X074986Y009532D01*
X074986Y009373D02*
X074924Y009373D01*
X074896Y009215D02*
X075023Y009215D01*
X075230Y009056D02*
X065072Y009056D01*
X065230Y008898D02*
X075230Y008898D01*
X075230Y008739D02*
X065389Y008739D01*
X065547Y008581D02*
X075230Y008581D01*
X075230Y008422D02*
X065706Y008422D01*
X065864Y008264D02*
X075230Y008264D01*
X075230Y008105D02*
X075007Y008105D01*
X074930Y008105D02*
X074930Y008105D01*
X074930Y008110D02*
X074884Y008110D01*
X074794Y008096D01*
X074707Y008068D01*
X074626Y008026D01*
X074552Y007972D01*
X074488Y007908D01*
X074434Y007834D01*
X074392Y007753D01*
X074364Y007666D01*
X074350Y007576D01*
X074350Y007180D01*
X074930Y007180D01*
X074930Y007180D01*
X074930Y007180D01*
X074930Y008110D01*
X074853Y008105D02*
X072816Y008105D01*
X072896Y008072D02*
X072683Y008160D01*
X072452Y008160D01*
X072239Y008072D01*
X072076Y007909D01*
X071988Y007695D01*
X071988Y006665D01*
X072076Y006451D01*
X072239Y006288D01*
X072452Y006200D01*
X072683Y006200D01*
X072896Y006288D01*
X073059Y006451D01*
X073148Y006665D01*
X073148Y007695D01*
X073059Y007909D01*
X072896Y008072D01*
X073022Y007947D02*
X074526Y007947D01*
X074411Y007788D02*
X073109Y007788D01*
X073148Y007630D02*
X074359Y007630D01*
X074350Y007471D02*
X073148Y007471D01*
X073148Y007313D02*
X074350Y007313D01*
X074350Y007180D02*
X074350Y006784D01*
X074364Y006694D01*
X074392Y006607D01*
X074434Y006526D01*
X074488Y006452D01*
X074552Y006388D01*
X074626Y006334D01*
X074707Y006292D01*
X074794Y006264D01*
X074884Y006250D01*
X074930Y006250D01*
X074930Y007180D01*
X074350Y007180D01*
X074350Y007154D02*
X073148Y007154D01*
X073148Y006996D02*
X074350Y006996D01*
X074350Y006837D02*
X073148Y006837D01*
X073148Y006679D02*
X074369Y006679D01*
X074438Y006520D02*
X073088Y006520D01*
X072970Y006362D02*
X074588Y006362D01*
X074930Y006362D02*
X074930Y006362D01*
X074930Y006520D02*
X074930Y006520D01*
X074930Y006679D02*
X074930Y006679D01*
X074930Y006837D02*
X074930Y006837D01*
X074930Y006996D02*
X074930Y006996D01*
X074930Y007154D02*
X074930Y007154D01*
X074930Y007313D02*
X074930Y007313D01*
X074930Y007471D02*
X074930Y007471D01*
X074930Y007630D02*
X074930Y007630D01*
X074930Y007788D02*
X074930Y007788D01*
X074930Y007947D02*
X074930Y007947D01*
X072320Y008105D02*
X066023Y008105D01*
X066181Y007947D02*
X072114Y007947D01*
X072026Y007788D02*
X070122Y007788D01*
X069738Y007788D02*
X066340Y007788D01*
X066498Y007630D02*
X069335Y007630D01*
X069137Y007471D02*
X066657Y007471D01*
X066815Y007313D02*
X069002Y007313D01*
X068910Y007154D02*
X066974Y007154D01*
X067132Y006996D02*
X068855Y006996D01*
X068813Y006837D02*
X067291Y006837D01*
X067449Y006679D02*
X068810Y006679D01*
X068813Y006520D02*
X067608Y006520D01*
X067766Y006362D02*
X068856Y006362D01*
X068912Y006203D02*
X067925Y006203D01*
X068083Y006045D02*
X069004Y006045D01*
X069140Y005886D02*
X068140Y005886D01*
X068130Y005728D02*
X069340Y005728D01*
X069749Y005569D02*
X068130Y005569D01*
X068130Y005411D02*
X069957Y005411D01*
X070111Y005569D02*
X070115Y005569D01*
X069798Y005252D02*
X068130Y005252D01*
X068130Y005094D02*
X069640Y005094D01*
X069481Y004935D02*
X068130Y004935D01*
X068130Y004777D02*
X068523Y004777D01*
X068364Y004618D02*
X068130Y004618D01*
X067630Y004618D02*
X067067Y004618D01*
X067297Y004460D02*
X067563Y004460D01*
X067485Y004301D02*
X067375Y004301D01*
X067387Y004143D02*
X067473Y004143D01*
X067516Y003984D02*
X067344Y003984D01*
X067222Y003826D02*
X067638Y003826D01*
X067521Y003637D02*
X067339Y003637D01*
X067171Y003568D01*
X067042Y003439D01*
X066973Y003271D01*
X066973Y003089D01*
X067042Y002921D01*
X067171Y002792D01*
X067339Y002723D01*
X067521Y002723D01*
X067689Y002792D01*
X067818Y002921D01*
X067887Y003089D01*
X067887Y003271D01*
X067818Y003439D01*
X067689Y003568D01*
X067521Y003637D01*
X067748Y003509D02*
X068112Y003509D01*
X068006Y003350D02*
X067854Y003350D01*
X067887Y003192D02*
X067973Y003192D01*
X067996Y003033D02*
X067864Y003033D01*
X067771Y002875D02*
X068089Y002875D01*
X068690Y002558D02*
X062920Y002558D01*
X062762Y002716D02*
X066224Y002716D01*
X066421Y002716D02*
X066439Y002716D01*
X066439Y002875D02*
X066421Y002875D01*
X066421Y003033D02*
X066439Y003033D01*
X066439Y003192D02*
X066421Y003192D01*
X066421Y003350D02*
X066439Y003350D01*
X066439Y003509D02*
X066421Y003509D01*
X066042Y003509D02*
X062248Y003509D01*
X062354Y003350D02*
X065952Y003350D01*
X065923Y003192D02*
X062387Y003192D01*
X062445Y003033D02*
X065944Y003033D01*
X066025Y002875D02*
X062603Y002875D01*
X062705Y002405D02*
X061930Y003180D01*
X060589Y002875D02*
X060271Y002875D01*
X060364Y003033D02*
X060496Y003033D01*
X060473Y003192D02*
X060387Y003192D01*
X060354Y003350D02*
X060356Y003350D01*
X059506Y003350D02*
X059408Y003350D01*
X059437Y003192D02*
X059473Y003192D01*
X059496Y003033D02*
X059416Y003033D01*
X059335Y002875D02*
X059589Y002875D01*
X062705Y002405D02*
X062930Y002180D01*
X068680Y002180D01*
X069430Y002930D01*
X069430Y003180D01*
X069006Y003350D02*
X068854Y003350D01*
X068887Y003192D02*
X068973Y003192D01*
X068996Y003033D02*
X068864Y003033D01*
X068771Y002875D02*
X069007Y002875D01*
X068848Y002716D02*
X066636Y002716D01*
X066835Y002875D02*
X067089Y002875D01*
X066996Y003033D02*
X066916Y003033D01*
X066937Y003192D02*
X066973Y003192D01*
X067006Y003350D02*
X066908Y003350D01*
X066818Y003509D02*
X067112Y003509D01*
X066638Y003826D02*
X066222Y003826D01*
X066344Y003984D02*
X066516Y003984D01*
X066473Y004143D02*
X066387Y004143D01*
X066375Y004301D02*
X066405Y004301D01*
X066637Y004777D02*
X067630Y004777D01*
X067630Y004935D02*
X066479Y004935D01*
X066318Y005094D02*
X067630Y005094D01*
X067630Y005252D02*
X064530Y005252D01*
X064530Y005411D02*
X067630Y005411D01*
X067630Y005569D02*
X065611Y005569D01*
X065249Y005569D02*
X064530Y005569D01*
X064530Y005728D02*
X064840Y005728D01*
X064640Y005886D02*
X064530Y005886D01*
X066020Y005728D02*
X067630Y005728D01*
X067506Y005886D02*
X066220Y005886D01*
X066356Y006045D02*
X067348Y006045D01*
X067189Y006203D02*
X066448Y006203D01*
X066504Y006362D02*
X067031Y006362D01*
X066872Y006520D02*
X066547Y006520D01*
X066550Y006679D02*
X066714Y006679D01*
X066555Y006837D02*
X066547Y006837D01*
X064998Y007724D02*
X064742Y007576D01*
X064534Y007368D01*
X064386Y007112D01*
X064310Y006827D01*
X064310Y006804D01*
X061222Y009892D01*
X061130Y009930D01*
X047984Y009930D01*
X047284Y010630D01*
X056893Y010630D01*
X056965Y010558D01*
X057104Y010500D01*
X057256Y010500D01*
X057395Y010558D01*
X057502Y010665D01*
X057560Y010804D01*
X057560Y010956D01*
X057502Y011095D01*
X057395Y011202D01*
X057256Y011260D01*
X057104Y011260D01*
X056965Y011202D01*
X056893Y011130D01*
X054200Y011130D01*
X054251Y011156D01*
X054329Y011213D01*
X054397Y011281D01*
X054454Y011359D01*
X054498Y011445D01*
X054527Y011537D01*
X054542Y011632D01*
X054542Y011632D01*
X053978Y011632D01*
X053978Y011728D01*
X054542Y011728D01*
X054527Y011823D01*
X054498Y011915D01*
X054454Y012001D01*
X054433Y012030D01*
X057427Y012030D01*
X057406Y012001D01*
X057362Y011915D01*
X057333Y011823D01*
X057318Y011728D01*
X057318Y011728D01*
X057882Y011728D01*
X057882Y011632D01*
X057978Y011632D01*
X057978Y011728D01*
X058542Y011728D01*
X058527Y011823D01*
X058498Y011915D01*
X058454Y012001D01*
X058433Y012030D01*
X058720Y012030D01*
X058720Y010588D01*
X058710Y010577D01*
X058670Y010482D01*
X058670Y010378D01*
X058710Y010283D01*
X058783Y010210D01*
X058878Y010170D01*
X063222Y010170D01*
X065598Y007795D01*
X065577Y007800D01*
X065283Y007800D01*
X064998Y007724D01*
X064835Y007630D02*
X063484Y007630D01*
X063326Y007788D02*
X065238Y007788D01*
X065446Y007947D02*
X063167Y007947D01*
X063009Y008105D02*
X065287Y008105D01*
X065129Y008264D02*
X062850Y008264D01*
X062692Y008422D02*
X064970Y008422D01*
X064812Y008581D02*
X062533Y008581D01*
X062375Y008739D02*
X064653Y008739D01*
X064495Y008898D02*
X062216Y008898D01*
X062058Y009056D02*
X064336Y009056D01*
X064178Y009215D02*
X061899Y009215D01*
X061741Y009373D02*
X064019Y009373D01*
X063861Y009532D02*
X061582Y009532D01*
X061424Y009690D02*
X063702Y009690D01*
X063544Y009849D02*
X061265Y009849D01*
X061680Y010430D02*
X063330Y010430D01*
X067880Y005880D01*
X070856Y006045D02*
X075230Y006045D01*
X075230Y006203D02*
X072690Y006203D01*
X072445Y006203D02*
X070948Y006203D01*
X071004Y006362D02*
X072166Y006362D01*
X072048Y006520D02*
X071047Y006520D01*
X071050Y006679D02*
X071988Y006679D01*
X071988Y006837D02*
X071047Y006837D01*
X071005Y006996D02*
X071988Y006996D01*
X071988Y007154D02*
X070950Y007154D01*
X070858Y007313D02*
X071988Y007313D01*
X071988Y007471D02*
X070723Y007471D01*
X070525Y007630D02*
X071988Y007630D01*
X073862Y009215D02*
X064913Y009215D01*
X064755Y009373D02*
X073834Y009373D01*
X073834Y009532D02*
X064596Y009532D01*
X064438Y009690D02*
X074301Y009690D01*
X074301Y009532D02*
X074456Y009532D01*
X074456Y009373D02*
X074301Y009373D01*
X074301Y009215D02*
X074456Y009215D01*
X075481Y009680D02*
X075481Y010819D01*
X075570Y010907D01*
X075075Y010958D02*
X074146Y010958D01*
X074146Y010800D02*
X075075Y010800D01*
X075075Y010641D02*
X074123Y010641D01*
X072776Y010641D02*
X072616Y010641D01*
X072616Y010800D02*
X072776Y010800D01*
X072776Y010958D02*
X072616Y010958D01*
X072616Y011117D02*
X072776Y011117D01*
X072776Y011275D02*
X072616Y011275D01*
X072616Y011434D02*
X072776Y011434D01*
X072776Y011592D02*
X072616Y011592D01*
X074146Y011275D02*
X075171Y011275D01*
X075075Y011117D02*
X074146Y011117D01*
X074146Y011909D02*
X076070Y011909D01*
X076070Y012068D02*
X074146Y012068D01*
X074146Y012226D02*
X076070Y012226D01*
X076070Y012385D02*
X076018Y012385D01*
X076065Y012543D02*
X076070Y012543D01*
X076065Y012702D02*
X076070Y012702D01*
X076065Y012860D02*
X076070Y012860D01*
X076070Y013019D02*
X076020Y013019D01*
X076070Y013177D02*
X075741Y013177D01*
X075741Y013336D02*
X076070Y013336D01*
X076070Y013494D02*
X075741Y013494D01*
X075878Y013653D02*
X076070Y013653D01*
X076070Y013811D02*
X075976Y013811D01*
X075976Y013970D02*
X076070Y013970D01*
X076070Y014128D02*
X075976Y014128D01*
X075976Y014287D02*
X076070Y014287D01*
X076070Y014445D02*
X075976Y014445D01*
X075976Y014604D02*
X076070Y014604D01*
X076070Y014762D02*
X075741Y014762D01*
X075741Y014921D02*
X076070Y014921D01*
X076070Y015079D02*
X075649Y015079D01*
X075481Y014879D02*
X075430Y014930D01*
X073680Y014930D01*
X073530Y014930D01*
X073571Y014604D02*
X073844Y014604D01*
X073834Y014445D02*
X073413Y014445D01*
X073254Y014287D02*
X073834Y014287D01*
X074301Y014128D02*
X073157Y014128D01*
X074379Y014180D02*
X074379Y013488D01*
X075221Y013494D02*
X068712Y013494D01*
X068742Y013568D02*
X068657Y013361D01*
X068499Y013203D01*
X068292Y013118D01*
X068068Y013118D01*
X067861Y013203D01*
X067703Y013361D01*
X067618Y013568D01*
X067618Y013792D01*
X067703Y013999D01*
X067861Y014157D01*
X068068Y014242D01*
X068292Y014242D01*
X068499Y014157D01*
X068657Y013999D01*
X068742Y013792D01*
X068742Y013568D01*
X068742Y013653D02*
X071362Y013653D01*
X071204Y013811D02*
X068735Y013811D01*
X068669Y013970D02*
X071153Y013970D01*
X071153Y014128D02*
X068527Y014128D01*
X067833Y014128D02*
X062527Y014128D01*
X062669Y013970D02*
X067691Y013970D01*
X067625Y013811D02*
X062735Y013811D01*
X062742Y013653D02*
X067618Y013653D01*
X067648Y013494D02*
X062712Y013494D01*
X062631Y013336D02*
X067729Y013336D01*
X067924Y013177D02*
X062436Y013177D01*
X061691Y013970D02*
X061444Y013970D01*
X061286Y014128D02*
X061833Y014128D01*
X061127Y014287D02*
X071153Y014287D01*
X071300Y014445D02*
X060969Y014445D01*
X060493Y014921D02*
X073153Y014921D01*
X074504Y015396D02*
X070723Y015396D01*
X070780Y015555D02*
X074255Y015555D01*
X074096Y015713D02*
X070228Y015713D01*
X070132Y015713D02*
X066228Y015713D01*
X066132Y015713D02*
X064228Y015713D01*
X064132Y015713D02*
X060228Y015713D01*
X056930Y016680D02*
X056930Y012930D01*
X056780Y012755D01*
X057160Y012702D02*
X071245Y012702D01*
X071245Y012860D02*
X057182Y012860D01*
X057104Y012543D02*
X071245Y012543D01*
X071245Y012385D02*
X059218Y012385D01*
X059240Y012226D02*
X059902Y012226D01*
X059945Y012248D02*
X059859Y012204D01*
X059781Y012147D01*
X059713Y012079D01*
X059656Y012001D01*
X059612Y011915D01*
X059583Y011823D01*
X059568Y011728D01*
X059568Y011728D01*
X060132Y011728D01*
X060132Y012292D01*
X060037Y012277D01*
X059945Y012248D01*
X060132Y012226D02*
X060228Y012226D01*
X060228Y012292D02*
X060228Y012292D01*
X060323Y012277D01*
X060415Y012248D01*
X060501Y012204D01*
X060579Y012147D01*
X060647Y012079D01*
X060704Y012001D01*
X060748Y011915D01*
X060777Y011823D01*
X060792Y011728D01*
X060792Y011728D01*
X060228Y011728D01*
X060228Y011632D01*
X060792Y011632D01*
X060792Y011632D01*
X060777Y011537D01*
X060748Y011445D01*
X060704Y011359D01*
X060647Y011281D01*
X060579Y011213D01*
X060501Y011156D01*
X060415Y011112D01*
X060323Y011083D01*
X060228Y011068D01*
X060228Y011068D01*
X060228Y011632D01*
X060132Y011632D01*
X060132Y011067D01*
X060132Y011068D01*
X060037Y011083D01*
X059945Y011112D01*
X059859Y011156D01*
X059781Y011213D01*
X059713Y011281D01*
X059656Y011359D01*
X059612Y011445D01*
X059583Y011537D01*
X059568Y011632D01*
X059568Y011632D01*
X060132Y011632D01*
X060132Y011728D01*
X060228Y011728D01*
X060228Y012292D01*
X060132Y012292D02*
X060132Y012292D01*
X060132Y012068D02*
X060228Y012068D01*
X060228Y011909D02*
X060132Y011909D01*
X060132Y011751D02*
X060228Y011751D01*
X060228Y011592D02*
X060132Y011592D01*
X060132Y011434D02*
X060228Y011434D01*
X060228Y011275D02*
X060132Y011275D01*
X060132Y011117D02*
X060228Y011117D01*
X060423Y011117D02*
X063937Y011117D01*
X063945Y011112D02*
X064037Y011083D01*
X064132Y011068D01*
X064132Y011067D01*
X064132Y011632D01*
X064228Y011632D01*
X064228Y011728D01*
X064792Y011728D01*
X064777Y011823D01*
X064748Y011915D01*
X064704Y012001D01*
X064647Y012079D01*
X064579Y012147D01*
X064501Y012204D01*
X064415Y012248D01*
X064323Y012277D01*
X064228Y012292D01*
X064228Y012292D01*
X064228Y011728D01*
X064132Y011728D01*
X064132Y012292D01*
X064037Y012277D01*
X063945Y012248D01*
X063859Y012204D01*
X063781Y012147D01*
X063713Y012079D01*
X063656Y012001D01*
X063612Y011915D01*
X063583Y011823D01*
X063568Y011728D01*
X063568Y011728D01*
X064132Y011728D01*
X064132Y011632D01*
X063568Y011632D01*
X063583Y011537D01*
X063612Y011445D01*
X063656Y011359D01*
X063713Y011281D01*
X063781Y011213D01*
X063859Y011156D01*
X063945Y011112D01*
X064132Y011117D02*
X064228Y011117D01*
X064228Y011068D02*
X064323Y011083D01*
X064415Y011112D01*
X064501Y011156D01*
X064579Y011213D01*
X064647Y011281D01*
X064704Y011359D01*
X064748Y011445D01*
X064777Y011537D01*
X064792Y011632D01*
X064792Y011632D01*
X064228Y011632D01*
X064228Y011068D01*
X064228Y011068D01*
X064423Y011117D02*
X065937Y011117D01*
X065945Y011112D02*
X066037Y011083D01*
X066132Y011068D01*
X066132Y011067D01*
X066132Y011632D01*
X066228Y011632D01*
X066228Y011728D01*
X066792Y011728D01*
X066777Y011823D01*
X066748Y011915D01*
X066704Y012001D01*
X066647Y012079D01*
X066579Y012147D01*
X066501Y012204D01*
X066415Y012248D01*
X066323Y012277D01*
X066228Y012292D01*
X066228Y012292D01*
X066228Y011728D01*
X066132Y011728D01*
X066132Y012292D01*
X066037Y012277D01*
X065945Y012248D01*
X065859Y012204D01*
X065781Y012147D01*
X065713Y012079D01*
X065656Y012001D01*
X065612Y011915D01*
X065583Y011823D01*
X065568Y011728D01*
X065568Y011728D01*
X066132Y011728D01*
X066132Y011632D01*
X065568Y011632D01*
X065583Y011537D01*
X065612Y011445D01*
X065656Y011359D01*
X065713Y011281D01*
X065781Y011213D01*
X065859Y011156D01*
X065945Y011112D01*
X066132Y011117D02*
X066228Y011117D01*
X066228Y011068D02*
X066323Y011083D01*
X066415Y011112D01*
X066501Y011156D01*
X066579Y011213D01*
X066647Y011281D01*
X066704Y011359D01*
X066748Y011445D01*
X066777Y011537D01*
X066792Y011632D01*
X066792Y011632D01*
X066228Y011632D01*
X066228Y011068D01*
X066228Y011068D01*
X066423Y011117D02*
X069937Y011117D01*
X069719Y011275D02*
X066641Y011275D01*
X066742Y011434D02*
X069618Y011434D01*
X069574Y011592D02*
X066786Y011592D01*
X066792Y011728D02*
X066792Y011728D01*
X066789Y011751D02*
X069571Y011751D01*
X069568Y011632D02*
X069568Y011632D01*
X069610Y011909D02*
X066750Y011909D01*
X066656Y012068D02*
X069704Y012068D01*
X069902Y012226D02*
X066458Y012226D01*
X066228Y012226D02*
X066132Y012226D01*
X066132Y012292D02*
X066132Y012292D01*
X066132Y012068D02*
X066228Y012068D01*
X066228Y011909D02*
X066132Y011909D01*
X066132Y011751D02*
X066228Y011751D01*
X066228Y011592D02*
X066132Y011592D01*
X066132Y011434D02*
X066228Y011434D01*
X066228Y011275D02*
X066132Y011275D01*
X065719Y011275D02*
X064641Y011275D01*
X064742Y011434D02*
X065618Y011434D01*
X065574Y011592D02*
X064786Y011592D01*
X064792Y011728D02*
X064792Y011728D01*
X064789Y011751D02*
X065571Y011751D01*
X065568Y011632D02*
X065568Y011632D01*
X065610Y011909D02*
X064750Y011909D01*
X064656Y012068D02*
X065704Y012068D01*
X065902Y012226D02*
X064458Y012226D01*
X064228Y012226D02*
X064132Y012226D01*
X064132Y012292D02*
X064132Y012292D01*
X064132Y012068D02*
X064228Y012068D01*
X064228Y011909D02*
X064132Y011909D01*
X064132Y011751D02*
X064228Y011751D01*
X064228Y011592D02*
X064132Y011592D01*
X064132Y011434D02*
X064228Y011434D01*
X064228Y011275D02*
X064132Y011275D01*
X063719Y011275D02*
X060641Y011275D01*
X060742Y011434D02*
X063618Y011434D01*
X063574Y011592D02*
X060786Y011592D01*
X060789Y011751D02*
X063571Y011751D01*
X063568Y011632D02*
X063568Y011632D01*
X063610Y011909D02*
X060750Y011909D01*
X060656Y012068D02*
X063704Y012068D01*
X063902Y012226D02*
X060458Y012226D01*
X059704Y012068D02*
X059240Y012068D01*
X059240Y011909D02*
X059610Y011909D01*
X059571Y011751D02*
X059240Y011751D01*
X059240Y011592D02*
X059574Y011592D01*
X059618Y011434D02*
X059240Y011434D01*
X059240Y011275D02*
X059719Y011275D01*
X059937Y011117D02*
X059240Y011117D01*
X058720Y011117D02*
X058173Y011117D01*
X058165Y011112D02*
X058251Y011156D01*
X058329Y011213D01*
X058397Y011281D01*
X058454Y011359D01*
X058498Y011445D01*
X058527Y011537D01*
X058542Y011632D01*
X058542Y011632D01*
X057978Y011632D01*
X057978Y011068D01*
X058073Y011083D01*
X058165Y011112D01*
X057978Y011117D02*
X057882Y011117D01*
X057882Y011068D02*
X057882Y011067D01*
X057882Y011068D02*
X057787Y011083D01*
X057695Y011112D01*
X057609Y011156D01*
X057531Y011213D01*
X057463Y011281D01*
X057406Y011359D01*
X057362Y011445D01*
X057333Y011537D01*
X057318Y011632D01*
X057318Y011632D01*
X057882Y011632D01*
X057882Y011067D01*
X057978Y011068D02*
X057978Y011068D01*
X057978Y011275D02*
X057882Y011275D01*
X057882Y011434D02*
X057978Y011434D01*
X057978Y011592D02*
X057882Y011592D01*
X057469Y011275D02*
X054391Y011275D01*
X054492Y011434D02*
X057368Y011434D01*
X057324Y011592D02*
X054536Y011592D01*
X054542Y011728D02*
X054542Y011728D01*
X054539Y011751D02*
X057321Y011751D01*
X057360Y011909D02*
X054500Y011909D01*
X053882Y011728D02*
X053318Y011728D01*
X053318Y011728D01*
X053333Y011823D01*
X053362Y011915D01*
X053406Y012001D01*
X053427Y012030D01*
X052183Y012030D01*
X052204Y012001D01*
X052248Y011915D01*
X052277Y011823D01*
X052292Y011728D01*
X052292Y011728D01*
X051728Y011728D01*
X051728Y011632D01*
X052292Y011632D01*
X052292Y011632D01*
X052277Y011537D01*
X052248Y011445D01*
X052204Y011359D01*
X052147Y011281D01*
X052079Y011213D01*
X052001Y011156D01*
X051950Y011130D01*
X053660Y011130D01*
X053609Y011156D01*
X053531Y011213D01*
X053463Y011281D01*
X053406Y011359D01*
X053362Y011445D01*
X053333Y011537D01*
X053318Y011632D01*
X053318Y011632D01*
X053882Y011632D01*
X053882Y011728D01*
X053360Y011909D02*
X052250Y011909D01*
X052289Y011751D02*
X053321Y011751D01*
X053324Y011592D02*
X052286Y011592D01*
X052242Y011434D02*
X053368Y011434D01*
X053469Y011275D02*
X052141Y011275D01*
X051410Y011130D02*
X047950Y011130D01*
X048001Y011156D01*
X048079Y011213D01*
X048147Y011281D01*
X048204Y011359D01*
X048248Y011445D01*
X048277Y011537D01*
X048292Y011632D01*
X048292Y011632D01*
X047728Y011632D01*
X047728Y011728D01*
X047632Y011728D01*
X047632Y012292D01*
X047537Y012277D01*
X047460Y012253D01*
X047460Y012256D01*
X047402Y012395D01*
X047295Y012502D01*
X047156Y012560D01*
X047004Y012560D01*
X046865Y012502D01*
X046758Y012395D01*
X046700Y012256D01*
X046700Y012104D01*
X046758Y011965D01*
X046830Y011893D01*
X046830Y011084D01*
X046522Y011392D01*
X046515Y011395D01*
X046560Y011504D01*
X046560Y011656D01*
X046502Y011795D01*
X046395Y011902D01*
X046256Y011960D01*
X046104Y011960D01*
X046062Y011942D01*
X046120Y012082D01*
X046120Y012778D01*
X046078Y012880D01*
X046576Y012880D01*
X046618Y012838D01*
X046688Y012768D01*
X046780Y012730D01*
X048693Y012730D01*
X048765Y012658D01*
X048904Y012600D01*
X049056Y012600D01*
X049195Y012658D01*
X049302Y012765D01*
X049343Y012863D01*
X050138Y012068D01*
X050230Y012030D01*
X051177Y012030D01*
X051156Y012001D01*
X051112Y011915D01*
X051083Y011823D01*
X051068Y011728D01*
X051068Y011728D01*
X051632Y011728D01*
X051632Y011632D01*
X051068Y011632D01*
X051083Y011537D01*
X051112Y011445D01*
X051156Y011359D01*
X051213Y011281D01*
X051281Y011213D01*
X051359Y011156D01*
X051410Y011130D01*
X051219Y011275D02*
X048141Y011275D01*
X048242Y011434D02*
X051118Y011434D01*
X051074Y011592D02*
X048286Y011592D01*
X048292Y011728D02*
X048292Y011728D01*
X048277Y011823D01*
X048248Y011915D01*
X048204Y012001D01*
X048147Y012079D01*
X048079Y012147D01*
X048001Y012204D01*
X047915Y012248D01*
X047823Y012277D01*
X047728Y012292D01*
X047728Y012292D01*
X047728Y011728D01*
X048292Y011728D01*
X048289Y011751D02*
X051071Y011751D01*
X051068Y011632D02*
X051068Y011632D01*
X051110Y011909D02*
X048250Y011909D01*
X048156Y012068D02*
X050140Y012068D01*
X049980Y012226D02*
X047958Y012226D01*
X047728Y012226D02*
X047632Y012226D01*
X047632Y012292D02*
X047632Y012292D01*
X047632Y012068D02*
X047728Y012068D01*
X047728Y011909D02*
X047632Y011909D01*
X047632Y011751D02*
X047728Y011751D01*
X046830Y011751D02*
X046521Y011751D01*
X046560Y011592D02*
X046830Y011592D01*
X046830Y011434D02*
X046531Y011434D01*
X046639Y011275D02*
X046830Y011275D01*
X046830Y011117D02*
X046797Y011117D01*
X047431Y010483D02*
X058670Y010483D01*
X058692Y010324D02*
X047590Y010324D01*
X047748Y010166D02*
X063227Y010166D01*
X063385Y010007D02*
X047907Y010007D01*
X046780Y008880D02*
X046780Y008280D01*
X046830Y008230D01*
X057478Y010641D02*
X058720Y010641D01*
X058720Y010800D02*
X057558Y010800D01*
X057559Y010958D02*
X058720Y010958D01*
X058720Y011275D02*
X058391Y011275D01*
X058492Y011434D02*
X058720Y011434D01*
X058720Y011592D02*
X058536Y011592D01*
X058542Y011728D02*
X058542Y011728D01*
X058539Y011751D02*
X058720Y011751D01*
X058720Y011909D02*
X058500Y011909D01*
X058980Y012280D02*
X058980Y010480D01*
X058930Y010430D01*
X061680Y010430D01*
X057687Y011117D02*
X057481Y011117D01*
X056230Y013080D02*
X056555Y013430D01*
X056605Y013855D01*
X055820Y014287D02*
X055627Y014287D01*
X055661Y014445D02*
X055469Y014445D01*
X055503Y014604D02*
X055360Y014604D01*
X055344Y014762D02*
X050330Y014762D01*
X050330Y014921D02*
X055186Y014921D01*
X055027Y015079D02*
X054051Y015079D01*
X053978Y015079D02*
X053882Y015079D01*
X053809Y015079D02*
X051801Y015079D01*
X051823Y015083D02*
X051915Y015112D01*
X052001Y015156D01*
X052079Y015213D01*
X052147Y015281D01*
X052204Y015359D01*
X052248Y015445D01*
X052277Y015537D01*
X052292Y015632D01*
X052292Y015632D01*
X051728Y015632D01*
X051728Y015728D01*
X052292Y015728D01*
X052277Y015823D01*
X052248Y015915D01*
X052204Y016001D01*
X052147Y016079D01*
X052079Y016147D01*
X052001Y016204D01*
X051915Y016248D01*
X051823Y016277D01*
X051728Y016292D01*
X051728Y016292D01*
X051728Y015728D01*
X051632Y015728D01*
X051632Y016292D01*
X051537Y016277D01*
X051445Y016248D01*
X051359Y016204D01*
X051281Y016147D01*
X051213Y016079D01*
X051156Y016001D01*
X051112Y015915D01*
X051083Y015823D01*
X051068Y015728D01*
X051068Y015728D01*
X051632Y015728D01*
X051632Y015632D01*
X051728Y015632D01*
X051728Y015068D01*
X051823Y015083D01*
X051728Y015079D02*
X051632Y015079D01*
X051632Y015068D02*
X051632Y015067D01*
X051632Y015068D02*
X051537Y015083D01*
X051445Y015112D01*
X051359Y015156D01*
X051281Y015213D01*
X051213Y015281D01*
X051156Y015359D01*
X051112Y015445D01*
X051083Y015537D01*
X051068Y015632D01*
X051068Y015632D01*
X051632Y015632D01*
X051632Y015067D01*
X051559Y015079D02*
X050330Y015079D01*
X050330Y015238D02*
X051256Y015238D01*
X051137Y015396D02*
X050268Y015396D01*
X050109Y015555D02*
X051080Y015555D01*
X051632Y015555D02*
X051728Y015555D01*
X051728Y015713D02*
X053882Y015713D01*
X053882Y015555D02*
X053978Y015555D01*
X053978Y015396D02*
X053882Y015396D01*
X053882Y015238D02*
X053978Y015238D01*
X054354Y015238D02*
X054869Y015238D01*
X054710Y015396D02*
X054473Y015396D01*
X054530Y015555D02*
X054552Y015555D01*
X053506Y015238D02*
X052104Y015238D01*
X052223Y015396D02*
X053387Y015396D01*
X053330Y015555D02*
X052280Y015555D01*
X052292Y015728D02*
X052292Y015728D01*
X052262Y015872D02*
X053348Y015872D01*
X053427Y016030D02*
X052183Y016030D01*
X052022Y016189D02*
X053588Y016189D01*
X053026Y016347D02*
X049317Y016347D01*
X049475Y016189D02*
X051338Y016189D01*
X051177Y016030D02*
X049634Y016030D01*
X049792Y015872D02*
X051098Y015872D01*
X051632Y015872D02*
X051728Y015872D01*
X051728Y016030D02*
X051632Y016030D01*
X051632Y016189D02*
X051728Y016189D01*
X051632Y016292D02*
X051632Y016292D01*
X052509Y016664D02*
X049000Y016664D01*
X049158Y016506D02*
X052950Y016506D01*
X052951Y016664D02*
X052953Y016664D01*
X052384Y016823D02*
X048841Y016823D01*
X048683Y016981D02*
X052350Y016981D01*
X052385Y017140D02*
X048524Y017140D01*
X046736Y017140D02*
X040327Y017140D01*
X040407Y017298D02*
X052511Y017298D01*
X052949Y017298D02*
X053344Y017298D01*
X053503Y017457D02*
X040410Y017457D01*
X040332Y017615D02*
X074064Y017615D01*
X070132Y016292D02*
X070132Y016292D01*
X070132Y016189D02*
X070228Y016189D01*
X070228Y016030D02*
X070132Y016030D01*
X070132Y015872D02*
X070228Y015872D01*
X070522Y016189D02*
X073811Y016189D01*
X073881Y016030D02*
X070683Y016030D01*
X070762Y015872D02*
X073972Y015872D01*
X074961Y015238D02*
X070604Y015238D01*
X070228Y015238D02*
X070132Y015238D01*
X070132Y015396D02*
X070228Y015396D01*
X070228Y015555D02*
X070132Y015555D01*
X069756Y015238D02*
X066604Y015238D01*
X066723Y015396D02*
X069637Y015396D01*
X069580Y015555D02*
X066780Y015555D01*
X066792Y015728D02*
X066792Y015728D01*
X066762Y015872D02*
X069598Y015872D01*
X069677Y016030D02*
X066683Y016030D01*
X066522Y016189D02*
X069838Y016189D01*
X069568Y015632D02*
X069568Y015632D01*
X070792Y015728D02*
X070792Y015728D01*
X074914Y014604D02*
X074986Y014604D01*
X074986Y014445D02*
X074924Y014445D01*
X074924Y014287D02*
X074986Y014287D01*
X075481Y014180D02*
X075481Y014879D01*
X075399Y015238D02*
X076070Y015238D01*
X076070Y015396D02*
X075856Y015396D01*
X075481Y014180D02*
X075481Y012791D01*
X075570Y012703D01*
X075075Y012702D02*
X074146Y012702D01*
X074146Y012860D02*
X075075Y012860D01*
X075119Y013019D02*
X074091Y013019D01*
X072776Y013019D02*
X072616Y013019D01*
X072616Y012860D02*
X072776Y012860D01*
X072776Y012702D02*
X072616Y012702D01*
X072616Y012543D02*
X072776Y012543D01*
X072776Y012385D02*
X072616Y012385D01*
X072616Y012226D02*
X072776Y012226D01*
X072776Y012068D02*
X072616Y012068D01*
X072616Y011909D02*
X072776Y011909D01*
X074146Y012385D02*
X075122Y012385D01*
X075075Y012543D02*
X074146Y012543D01*
X075221Y013177D02*
X068436Y013177D01*
X068631Y013336D02*
X075221Y013336D01*
X066228Y015238D02*
X066132Y015238D01*
X066132Y015396D02*
X066228Y015396D01*
X066228Y015555D02*
X066132Y015555D01*
X065756Y015238D02*
X064604Y015238D01*
X064723Y015396D02*
X065637Y015396D01*
X065580Y015555D02*
X064780Y015555D01*
X064792Y015728D02*
X064792Y015728D01*
X064762Y015872D02*
X065598Y015872D01*
X065677Y016030D02*
X064683Y016030D01*
X064522Y016189D02*
X065838Y016189D01*
X066132Y016189D02*
X066228Y016189D01*
X066132Y016292D02*
X066132Y016292D01*
X066132Y016030D02*
X066228Y016030D01*
X066228Y015872D02*
X066132Y015872D01*
X065568Y015632D02*
X065568Y015632D01*
X064228Y015555D02*
X064132Y015555D01*
X064132Y015396D02*
X064228Y015396D01*
X064228Y015238D02*
X064132Y015238D01*
X064132Y015872D02*
X064228Y015872D01*
X064228Y016030D02*
X064132Y016030D01*
X064132Y016189D02*
X064228Y016189D01*
X064132Y016292D02*
X064132Y016292D01*
X056930Y016680D02*
X056780Y016980D01*
X051632Y015713D02*
X049951Y015713D01*
X047632Y015713D02*
X046170Y015713D01*
X046170Y015729D02*
X046158Y015805D01*
X046134Y015878D01*
X046133Y015880D01*
X046693Y015880D01*
X046765Y015808D01*
X046904Y015750D01*
X047056Y015750D01*
X047072Y015757D01*
X047068Y015728D01*
X047068Y015728D01*
X047632Y015728D01*
X047632Y015632D01*
X047068Y015632D01*
X047083Y015537D01*
X047112Y015445D01*
X047156Y015359D01*
X047213Y015281D01*
X047281Y015213D01*
X047359Y015156D01*
X047445Y015112D01*
X047531Y015084D01*
X047426Y014980D01*
X046133Y014980D01*
X046134Y014982D01*
X046158Y015055D01*
X046170Y015131D01*
X046170Y015430D01*
X046170Y015729D01*
X046136Y015872D02*
X046701Y015872D01*
X047068Y015632D02*
X047068Y015632D01*
X047080Y015555D02*
X046170Y015555D01*
X046170Y015430D02*
X045680Y015430D01*
X045680Y015430D01*
X046170Y015430D01*
X046170Y015396D02*
X047137Y015396D01*
X047256Y015238D02*
X046170Y015238D01*
X046162Y015079D02*
X047525Y015079D01*
X045680Y015430D02*
X045190Y015430D01*
X045680Y015430D01*
X045680Y015430D01*
X045190Y015430D02*
X045190Y015274D01*
X045120Y015344D01*
X045120Y015778D01*
X045078Y015880D01*
X045227Y015880D01*
X045226Y015878D01*
X045202Y015805D01*
X045190Y015729D01*
X045190Y015430D01*
X045190Y015396D02*
X045120Y015396D01*
X045120Y015555D02*
X045190Y015555D01*
X045190Y015713D02*
X045120Y015713D01*
X045081Y015872D02*
X045224Y015872D01*
X046577Y016981D02*
X039558Y016981D01*
X039733Y017140D02*
X039355Y017140D01*
X039105Y017140D02*
X037805Y017140D01*
X037660Y017298D02*
X039653Y017298D01*
X038902Y016981D02*
X038008Y016981D01*
X038060Y016823D02*
X038850Y016823D01*
X038867Y016664D02*
X038043Y016664D01*
X036131Y015880D02*
X035883Y015880D01*
X035884Y015878D01*
X035908Y015805D01*
X035920Y015729D01*
X035920Y015430D01*
X035430Y015430D01*
X035430Y015430D01*
X035430Y015430D01*
X034940Y015430D01*
X034940Y015729D01*
X034952Y015805D01*
X034976Y015878D01*
X034977Y015880D01*
X034883Y015880D01*
X034884Y015878D01*
X034908Y015805D01*
X034920Y015729D01*
X034920Y015430D01*
X034430Y015430D01*
X034430Y015430D01*
X034430Y015430D01*
X033940Y015430D01*
X033940Y015729D01*
X033952Y015805D01*
X033976Y015878D01*
X033977Y015880D01*
X033883Y015880D01*
X033884Y015878D01*
X033908Y015805D01*
X033920Y015729D01*
X033920Y015430D01*
X033430Y015430D01*
X033430Y015430D01*
X033430Y015430D01*
X032940Y015430D01*
X032940Y015729D01*
X032952Y015805D01*
X032976Y015878D01*
X032977Y015880D01*
X032828Y015880D01*
X032870Y015778D01*
X032870Y015082D01*
X032803Y014921D01*
X032712Y014830D01*
X033077Y014830D01*
X033056Y014851D01*
X033011Y014913D01*
X032976Y014982D01*
X032952Y015055D01*
X032940Y015131D01*
X032940Y015430D01*
X033430Y015430D01*
X033920Y015430D01*
X033920Y015131D01*
X033908Y015055D01*
X033884Y014982D01*
X033849Y014913D01*
X033804Y014851D01*
X033783Y014830D01*
X034077Y014830D01*
X034056Y014851D01*
X034011Y014913D01*
X033976Y014982D01*
X033952Y015055D01*
X033940Y015131D01*
X033940Y015430D01*
X034430Y015430D01*
X034920Y015430D01*
X034920Y015131D01*
X034908Y015055D01*
X034884Y014982D01*
X034849Y014913D01*
X034804Y014851D01*
X034783Y014830D01*
X035077Y014830D01*
X035056Y014851D01*
X035011Y014913D01*
X034976Y014982D01*
X034952Y015055D01*
X034940Y015131D01*
X034940Y015430D01*
X035430Y015430D01*
X035920Y015430D01*
X035920Y015131D01*
X035908Y015055D01*
X035884Y014982D01*
X035883Y014980D01*
X037282Y014980D01*
X037240Y015082D01*
X037240Y015630D01*
X036850Y015630D01*
X036802Y015515D01*
X036695Y015408D01*
X036556Y015350D01*
X036404Y015350D01*
X036265Y015408D01*
X036158Y015515D01*
X036100Y015654D01*
X036100Y015806D01*
X036131Y015880D01*
X036127Y015872D02*
X035886Y015872D01*
X035920Y015713D02*
X036100Y015713D01*
X036141Y015555D02*
X035920Y015555D01*
X035920Y015396D02*
X036293Y015396D01*
X036667Y015396D02*
X037240Y015396D01*
X037240Y015238D02*
X035920Y015238D01*
X035912Y015079D02*
X037241Y015079D01*
X037240Y015555D02*
X036819Y015555D01*
X034974Y015872D02*
X034886Y015872D01*
X034920Y015713D02*
X034940Y015713D01*
X034940Y015555D02*
X034920Y015555D01*
X034920Y015396D02*
X034940Y015396D01*
X034940Y015238D02*
X034920Y015238D01*
X034912Y015079D02*
X034948Y015079D01*
X035007Y014921D02*
X034853Y014921D01*
X034007Y014921D02*
X033853Y014921D01*
X033912Y015079D02*
X033948Y015079D01*
X033940Y015238D02*
X033920Y015238D01*
X033920Y015396D02*
X033940Y015396D01*
X033940Y015555D02*
X033920Y015555D01*
X033920Y015713D02*
X033940Y015713D01*
X033974Y015872D02*
X033886Y015872D01*
X032974Y015872D02*
X032831Y015872D01*
X032870Y015713D02*
X032940Y015713D01*
X032940Y015555D02*
X032870Y015555D01*
X032870Y015396D02*
X032940Y015396D01*
X032940Y015238D02*
X032870Y015238D01*
X032869Y015079D02*
X032948Y015079D01*
X033007Y014921D02*
X032803Y014921D01*
X020928Y017615D02*
X002796Y017615D01*
X002906Y017457D02*
X020850Y017457D01*
X001461Y015238D02*
X000660Y015238D01*
X000660Y015396D02*
X001004Y015396D01*
X000755Y015555D02*
X000660Y015555D01*
X018959Y005252D02*
X019952Y005252D01*
X003211Y003984D02*
X003180Y003984D01*
X001127Y003033D02*
X000660Y003033D01*
X000660Y002875D02*
X000849Y002875D01*
X000665Y002716D02*
X000660Y002716D01*
X044797Y004460D02*
X045063Y004460D01*
X044985Y004301D02*
X044875Y004301D01*
X044887Y004143D02*
X044973Y004143D01*
X045016Y003984D02*
X044844Y003984D01*
X045782Y001924D02*
X047258Y001924D01*
X047416Y001765D02*
X045810Y001765D01*
X045769Y001607D02*
X051621Y001607D01*
X051600Y001448D02*
X045621Y001448D01*
X045605Y001290D02*
X051648Y001290D01*
X051830Y001131D02*
X045660Y001131D01*
X045647Y000973D02*
X052134Y000973D01*
X052292Y000814D02*
X045551Y000814D01*
X060068Y000814D02*
X074006Y000814D01*
X073914Y000973D02*
X060226Y000973D01*
X060530Y001131D02*
X073826Y001131D01*
X073783Y001290D02*
X060712Y001290D01*
X060760Y001448D02*
X073741Y001448D01*
X073730Y001607D02*
X060739Y001607D01*
X060844Y003984D02*
X061016Y003984D01*
X060973Y004143D02*
X060887Y004143D01*
X060875Y004301D02*
X060985Y004301D01*
X061063Y004460D02*
X060797Y004460D01*
X060567Y004618D02*
X061293Y004618D01*
X061567Y004618D02*
X062488Y004618D01*
X062330Y004777D02*
X060137Y004777D01*
X061797Y004460D02*
X062647Y004460D01*
X061875Y004301D02*
X065405Y004301D01*
X065473Y004143D02*
X061887Y004143D01*
X061844Y003984D02*
X065516Y003984D01*
X065638Y003826D02*
X061722Y003826D01*
X068748Y003509D02*
X069112Y003509D01*
X070130Y003509D02*
X076070Y003509D01*
X076070Y003667D02*
X070130Y003667D01*
X070130Y003350D02*
X076070Y003350D01*
X076070Y003192D02*
X070130Y003192D01*
X070130Y003033D02*
X074627Y003033D01*
X074349Y002875D02*
X070107Y002875D01*
X069970Y002716D02*
X074165Y002716D01*
X074012Y002558D02*
X069811Y002558D01*
X069653Y002399D02*
X073921Y002399D01*
X073829Y002241D02*
X069494Y002241D01*
X069336Y002082D02*
X073787Y002082D01*
X073744Y001924D02*
X069177Y001924D01*
X069019Y001765D02*
X073730Y001765D01*
X076011Y002875D02*
X076070Y002875D01*
X076070Y003033D02*
X075733Y003033D01*
X064313Y006837D02*
X064277Y006837D01*
X064355Y006996D02*
X064118Y006996D01*
X063960Y007154D02*
X064410Y007154D01*
X064502Y007313D02*
X063801Y007313D01*
X063643Y007471D02*
X064637Y007471D01*
X074301Y010166D02*
X074456Y010166D01*
X074883Y010166D02*
X075043Y010166D01*
X074986Y010007D02*
X074924Y010007D01*
X074924Y009849D02*
X074986Y009849D01*
X051728Y015068D02*
X051728Y015068D01*
X051728Y015238D02*
X051632Y015238D01*
X051632Y015396D02*
X051728Y015396D01*
X049346Y012860D02*
X049342Y012860D01*
X049239Y012702D02*
X049505Y012702D01*
X049663Y012543D02*
X047197Y012543D01*
X046963Y012543D02*
X046120Y012543D01*
X046120Y012385D02*
X046753Y012385D01*
X046700Y012226D02*
X046120Y012226D01*
X046114Y012068D02*
X046715Y012068D01*
X046814Y011909D02*
X046379Y011909D01*
X047407Y012385D02*
X049822Y012385D01*
X048721Y012702D02*
X046120Y012702D01*
X046086Y012860D02*
X046596Y012860D01*
D24*
X071055Y012887D02*
X074180Y012887D01*
X074180Y012985D02*
X071055Y012985D01*
X071055Y013084D02*
X074180Y013084D01*
X074180Y013180D02*
X074180Y010180D01*
X071055Y010180D01*
X071055Y013180D01*
X074180Y013180D01*
X074180Y012788D02*
X071055Y012788D01*
X071055Y012690D02*
X074180Y012690D01*
X074180Y012591D02*
X071055Y012591D01*
X071055Y012493D02*
X074180Y012493D01*
X074180Y012394D02*
X071055Y012394D01*
X071055Y012296D02*
X074180Y012296D01*
X074180Y012197D02*
X071055Y012197D01*
X071055Y012099D02*
X074180Y012099D01*
X074180Y012000D02*
X071055Y012000D01*
X071055Y011902D02*
X074180Y011902D01*
X074180Y011803D02*
X071055Y011803D01*
X071055Y011705D02*
X074180Y011705D01*
X074180Y011606D02*
X071055Y011606D01*
X071055Y011508D02*
X074180Y011508D01*
X074180Y011409D02*
X071055Y011409D01*
X071055Y011311D02*
X074180Y011311D01*
X074180Y011212D02*
X071055Y011212D01*
X071055Y011114D02*
X074180Y011114D01*
X074180Y011015D02*
X071055Y011015D01*
X071055Y010917D02*
X074180Y010917D01*
X074180Y010818D02*
X071055Y010818D01*
X071055Y010720D02*
X074180Y010720D01*
X074180Y010621D02*
X071055Y010621D01*
X071055Y010523D02*
X074180Y010523D01*
X074180Y010424D02*
X071055Y010424D01*
X071055Y010326D02*
X074180Y010326D01*
X074180Y010227D02*
X071055Y010227D01*
D25*
X007680Y000830D02*
X003430Y000830D01*
X003430Y001980D01*
X002930Y002480D01*
X002930Y010930D01*
X004180Y012180D01*
X005180Y012180D02*
X007430Y009930D01*
X017430Y009930D01*
X017680Y009680D01*
X018680Y009680D02*
X020480Y009680D01*
X020730Y009430D01*
X020330Y009080D02*
X020480Y008930D01*
X026230Y008930D01*
X027430Y010130D01*
X034430Y010130D01*
X034580Y009980D01*
X040480Y009980D01*
X040630Y009830D01*
X041530Y010230D02*
X036780Y010230D01*
X036630Y010380D01*
X029630Y010380D01*
X028980Y011030D01*
X027480Y011030D01*
X027380Y010630D02*
X028280Y010630D01*
X027380Y010630D02*
X026480Y009730D01*
X025980Y010080D02*
X027980Y012080D01*
X027980Y013130D01*
X029630Y013130D01*
X029980Y012780D01*
X029980Y011730D01*
X034630Y011730D01*
X034980Y012080D01*
X034980Y013430D01*
X036230Y013430D01*
X036480Y013680D01*
X036330Y014080D02*
X035930Y013680D01*
X026930Y013680D01*
X026130Y012880D01*
X026530Y012530D02*
X026230Y012230D01*
X023080Y012230D01*
X021530Y010680D01*
X018680Y010680D01*
X017680Y010680D02*
X017480Y010880D01*
X007180Y010880D01*
X007180Y012180D01*
X006880Y012880D02*
X006180Y012180D01*
X006880Y012880D02*
X016480Y012880D01*
X017680Y011680D01*
X018680Y011680D02*
X018730Y011630D01*
X019530Y011630D01*
X020280Y012380D01*
X022180Y012380D01*
X023130Y012780D02*
X020130Y012780D01*
X019380Y012030D01*
X018680Y012680D02*
X018680Y012730D01*
X020180Y014230D01*
X020230Y014230D01*
X021080Y015080D01*
X022180Y014980D02*
X022880Y015680D01*
X026780Y015680D01*
X027230Y016130D01*
X037130Y016130D01*
X037380Y016380D01*
X046680Y016380D01*
X046830Y016530D01*
X048230Y016530D01*
X048280Y016530D01*
X048280Y015480D01*
X047480Y014680D01*
X047430Y014680D01*
X047380Y014730D01*
X045380Y014730D01*
X044680Y015430D01*
X046980Y016130D02*
X037480Y016130D01*
X037230Y015880D01*
X036630Y015880D01*
X036480Y015730D01*
X035430Y015430D02*
X034430Y015430D01*
X035330Y014580D02*
X035480Y014730D01*
X038180Y014730D01*
X038780Y014330D02*
X035630Y014330D01*
X035330Y014580D02*
X024930Y014580D01*
X023980Y013630D01*
X025230Y013230D02*
X025630Y013630D01*
X025640Y013660D01*
X025230Y013230D02*
X021130Y013230D01*
X020730Y013630D01*
X020720Y013660D01*
X019780Y014380D02*
X018930Y015230D01*
X013230Y015230D01*
X012680Y014680D01*
X013030Y014130D02*
X010230Y014130D01*
X009680Y014680D01*
X008130Y014030D02*
X008030Y014130D01*
X004230Y014130D01*
X003680Y014680D01*
X003730Y014680D01*
X006180Y017130D01*
X012980Y017130D01*
X013130Y016980D01*
X021380Y016980D01*
X021630Y017230D01*
X029530Y017230D01*
X029580Y017280D01*
X029730Y016880D02*
X030030Y017180D01*
X037180Y017180D01*
X037280Y017280D01*
X037580Y016880D02*
X032330Y016880D01*
X032280Y016930D01*
X030430Y016930D01*
X030130Y016630D01*
X026880Y016630D01*
X026430Y016180D01*
X013230Y016180D01*
X013130Y016080D01*
X012380Y016080D01*
X012230Y016230D01*
X012380Y016630D02*
X012680Y016330D01*
X012980Y016330D01*
X013080Y016430D01*
X025230Y016430D01*
X025380Y016580D01*
X026430Y016980D02*
X026530Y016880D01*
X029730Y016880D01*
X031980Y016380D02*
X026980Y016380D01*
X026530Y015930D01*
X013430Y015930D01*
X013330Y015830D01*
X005830Y015830D01*
X005430Y015980D02*
X005430Y015230D01*
X007130Y015230D01*
X007680Y014680D01*
X009280Y015380D02*
X009380Y015480D01*
X021730Y015480D01*
X021480Y016730D02*
X012830Y016730D01*
X012380Y016630D02*
X006080Y016630D01*
X005430Y015980D01*
X013030Y014130D02*
X013130Y014030D01*
X007880Y011280D02*
X007730Y011430D01*
X007880Y011280D02*
X015680Y011280D01*
X015830Y010330D02*
X014130Y010330D01*
X014630Y009530D02*
X016030Y008130D01*
X019230Y008130D01*
X019380Y007730D02*
X019880Y008230D01*
X028180Y008230D01*
X028330Y008380D01*
X027630Y007980D02*
X030680Y007980D01*
X032030Y009330D01*
X041130Y009330D01*
X041330Y008930D02*
X038130Y008930D01*
X037980Y009080D01*
X032130Y009080D01*
X029280Y006230D01*
X030880Y006730D02*
X032830Y008680D01*
X037830Y008680D01*
X039980Y008530D02*
X040380Y008130D01*
X046280Y008130D01*
X046030Y007830D02*
X046280Y007580D01*
X046580Y007580D01*
X046830Y007830D01*
X046830Y008230D01*
X046030Y007830D02*
X041480Y007830D01*
X041380Y007730D01*
X044480Y007280D02*
X045880Y005880D01*
X042380Y005480D02*
X051980Y005480D01*
X051530Y005080D02*
X042330Y005080D01*
X042330Y003230D01*
X042330Y003180D01*
X043930Y003180D01*
X043230Y003730D02*
X046780Y003730D01*
X046980Y003930D01*
X047280Y003930D01*
X047530Y003680D01*
X047580Y003680D01*
X051880Y003680D01*
X052380Y003180D01*
X052430Y003180D01*
X052905Y002705D02*
X053380Y003180D01*
X053430Y003180D01*
X053480Y003180D01*
X053980Y003680D01*
X060380Y003680D01*
X060880Y003180D01*
X060930Y003180D01*
X061080Y002680D02*
X061480Y003080D01*
X061480Y003680D01*
X065880Y003680D01*
X066380Y003180D01*
X066430Y003180D01*
X068430Y003180D02*
X068480Y003180D01*
X068480Y004380D01*
X068780Y004680D01*
X069580Y004680D01*
X070680Y005780D01*
X075480Y005780D01*
X075480Y009680D01*
X075481Y009680D01*
X074380Y009680D02*
X074379Y009680D01*
X074380Y009680D02*
X074380Y007180D01*
X074880Y007180D01*
X074930Y007180D01*
X073729Y005251D02*
X073680Y005180D01*
X072580Y005180D01*
X071680Y004280D01*
X069880Y004180D02*
X068980Y004180D01*
X068930Y004180D01*
X069880Y004180D02*
X069880Y002980D01*
X068780Y001880D01*
X047655Y001880D01*
X047355Y002180D01*
X047330Y002230D01*
X040680Y002230D01*
X040530Y002080D01*
X040680Y001680D02*
X040980Y001980D01*
X044780Y001980D01*
X044930Y001830D01*
X045430Y001780D02*
X044830Y001180D01*
X032530Y001180D01*
X032280Y001430D01*
X033030Y001830D02*
X033430Y001430D01*
X044280Y001430D01*
X044430Y001580D01*
X045130Y000930D02*
X031930Y000930D01*
X031180Y001680D01*
X030180Y001680D01*
X030080Y001780D01*
X028030Y001780D01*
X027830Y001980D01*
X026830Y001980D01*
X026680Y001830D01*
X016080Y001830D01*
X014780Y003130D01*
X011230Y003130D01*
X010680Y003680D01*
X011680Y003680D02*
X013130Y005130D01*
X015380Y005130D01*
X015580Y004930D01*
X023980Y004930D01*
X024330Y005280D01*
X024080Y005580D02*
X024180Y005680D01*
X025630Y005680D01*
X025640Y005660D01*
X026180Y006230D02*
X024780Y006230D01*
X024080Y005580D02*
X020780Y005580D01*
X020730Y005630D01*
X020720Y005660D01*
X019730Y006480D02*
X018580Y005330D01*
X018080Y005380D02*
X011780Y005380D01*
X010830Y004430D01*
X014630Y004730D02*
X015680Y003680D01*
X017680Y003680D02*
X018430Y004430D01*
X028030Y004430D01*
X028330Y004730D01*
X041630Y004730D01*
X042380Y005480D01*
X045880Y004680D02*
X045930Y004630D01*
X043230Y003730D02*
X042730Y004230D01*
X041480Y003630D02*
X028130Y003630D01*
X028080Y003580D01*
X028230Y003980D02*
X027030Y003980D01*
X026180Y003130D01*
X024130Y003130D01*
X023480Y003780D01*
X022080Y003780D01*
X021430Y003130D01*
X019680Y003130D01*
X019530Y003280D01*
X018680Y002880D02*
X022030Y002880D01*
X020030Y002080D02*
X019880Y002230D01*
X020030Y002080D02*
X026380Y002080D01*
X026530Y002230D01*
X027680Y001580D02*
X015780Y001580D01*
X014730Y002630D01*
X018680Y002880D02*
X018680Y003680D01*
X021780Y004030D02*
X024280Y004030D01*
X024980Y004680D02*
X015280Y004680D01*
X018080Y005380D02*
X018580Y005880D01*
X019730Y006480D02*
X022030Y006480D01*
X022830Y007280D01*
X024930Y007280D01*
X024980Y007230D01*
X025980Y007230D02*
X026030Y007180D01*
X026830Y007180D01*
X027630Y007980D01*
X026880Y007830D02*
X026730Y007980D01*
X020880Y007980D01*
X020730Y007830D01*
X020680Y007830D01*
X019830Y006980D01*
X012030Y006980D01*
X011880Y006830D01*
X014380Y007380D02*
X019680Y007380D01*
X020130Y007830D01*
X019380Y007730D02*
X014580Y007730D01*
X014530Y007780D01*
X012730Y007780D01*
X015030Y006580D02*
X015180Y006730D01*
X021930Y006730D01*
X022830Y007630D01*
X026330Y007630D01*
X026380Y007580D01*
X026530Y008680D02*
X018680Y008680D01*
X020730Y010030D02*
X020780Y010080D01*
X025980Y010080D01*
X027980Y009730D02*
X034280Y009730D01*
X036930Y010630D02*
X029930Y010630D01*
X029480Y011080D01*
X029380Y011480D02*
X036380Y011480D01*
X036830Y011030D01*
X038680Y011030D01*
X039080Y010630D01*
X040730Y010830D02*
X046230Y010830D01*
X046255Y010780D01*
X048555Y008480D01*
X057780Y008480D01*
X057955Y008880D02*
X048780Y008880D01*
X048480Y009280D02*
X058180Y009280D01*
X062880Y004580D01*
X065480Y004580D01*
X065880Y004180D01*
X065930Y004180D01*
X066180Y004880D02*
X066880Y004180D01*
X066930Y004180D01*
X067880Y004180D02*
X067930Y004180D01*
X067880Y004180D02*
X067880Y005880D01*
X064280Y006480D02*
X064280Y004880D01*
X066180Y004880D01*
X060430Y004180D02*
X060380Y004180D01*
X059880Y004680D01*
X055280Y004680D01*
X051780Y008180D01*
X048330Y008180D01*
X048330Y008230D01*
X047030Y009530D01*
X043680Y009530D01*
X042780Y010430D01*
X042130Y009730D02*
X041330Y008930D01*
X044830Y008980D02*
X045130Y009280D01*
X046930Y009280D01*
X047930Y008280D01*
X047930Y007930D01*
X050880Y007930D01*
X050880Y007880D01*
X053880Y004880D01*
X053880Y004180D01*
X053930Y004180D01*
X051930Y004180D02*
X051880Y004180D01*
X051380Y004680D01*
X053480Y002280D02*
X054380Y003180D01*
X054430Y003180D01*
X054480Y003180D01*
X055280Y002380D01*
X062680Y002380D01*
X062705Y002405D01*
X061080Y002680D02*
X059480Y002680D01*
X058980Y003180D01*
X058930Y003180D01*
X053480Y002280D02*
X047880Y002280D01*
X047830Y002280D01*
X047630Y002480D01*
X038730Y002480D01*
X038680Y002480D01*
X032080Y002480D01*
X031930Y002330D01*
X032080Y001930D02*
X032380Y002230D01*
X036680Y002230D01*
X036830Y002080D01*
X037980Y002730D02*
X038430Y003180D01*
X038530Y003180D01*
X038980Y002730D01*
X045430Y002730D01*
X045880Y003180D01*
X045930Y003180D01*
X046380Y002730D01*
X052880Y002730D01*
X052905Y002705D01*
X052880Y002680D01*
X051980Y001480D02*
X052680Y000780D01*
X059630Y000780D01*
X059680Y000780D01*
X060380Y001480D01*
X045280Y001080D02*
X045130Y000930D01*
X040680Y001680D02*
X033780Y001680D01*
X033630Y001830D01*
X032080Y001930D02*
X030280Y001930D01*
X030030Y002180D01*
X028980Y002180D01*
X028680Y002580D02*
X028480Y002380D01*
X028680Y002580D02*
X031280Y002580D01*
X031480Y002980D02*
X031730Y002730D01*
X037980Y002730D01*
X040130Y003180D02*
X042330Y003180D01*
X033680Y005130D02*
X028330Y005130D01*
X026880Y005530D02*
X026180Y006230D01*
X026880Y005530D02*
X033280Y005530D01*
X033680Y005130D02*
X033680Y006530D01*
X035280Y008130D01*
X026930Y009080D02*
X026530Y008680D01*
X025930Y009330D02*
X023580Y009330D01*
X030480Y011080D02*
X030530Y011030D01*
X035780Y011030D01*
X036130Y011730D02*
X036680Y011730D01*
X036130Y011730D02*
X035430Y012430D01*
X036180Y013030D02*
X036280Y013130D01*
X046680Y013130D01*
X046830Y012980D01*
X048980Y012980D01*
X049680Y013680D02*
X050280Y013080D01*
X056230Y013080D01*
X055930Y013680D02*
X055880Y013680D01*
X055180Y014380D01*
X055180Y014430D01*
X050080Y014430D01*
X050080Y015230D01*
X048380Y016930D01*
X046880Y016930D01*
X046680Y016730D01*
X039280Y016730D01*
X039230Y016780D01*
X040030Y017380D02*
X039730Y017680D01*
X021530Y017680D01*
X021230Y017380D01*
X021730Y016980D02*
X021480Y016730D01*
X021730Y016980D02*
X026430Y016980D01*
X031980Y016380D02*
X032130Y016530D01*
X037580Y016880D02*
X037680Y016780D01*
X038780Y014330D02*
X038930Y014180D01*
X043680Y014180D01*
X043380Y013930D02*
X043680Y013630D01*
X046680Y013630D01*
X047030Y013980D01*
X048530Y013980D01*
X048580Y013980D01*
X050280Y012280D01*
X058980Y012280D01*
X057930Y011680D02*
X057880Y011680D01*
X053980Y011680D01*
X053930Y011680D01*
X057180Y010880D02*
X047080Y010880D01*
X047080Y012130D01*
X047080Y012180D01*
X046380Y011180D02*
X046330Y011180D01*
X046030Y011180D01*
X045980Y011230D01*
X038880Y011230D01*
X037680Y012430D01*
X039180Y011730D02*
X043180Y011730D01*
X046380Y011180D02*
X047880Y009680D01*
X061080Y009680D01*
X064280Y006480D01*
X059880Y006955D02*
X057955Y008880D01*
X064180Y011680D02*
X064180Y015680D01*
X061380Y013680D02*
X057780Y017280D01*
X053680Y017280D01*
X053380Y016980D01*
X052730Y016980D01*
X053330Y016580D02*
X053730Y016980D01*
X056730Y016980D01*
X056780Y016980D01*
X053880Y016580D02*
X056605Y013855D01*
X061380Y013680D02*
X062180Y013680D01*
X070180Y011680D02*
X071030Y011680D01*
X071055Y011680D01*
X071030Y012680D02*
X071055Y012680D01*
X071030Y012680D02*
X070580Y012680D01*
X070555Y012680D01*
X070580Y013180D02*
X070555Y013180D01*
X070580Y013180D02*
X071030Y013180D01*
X071055Y013180D01*
X071080Y013180D02*
X071080Y013430D01*
X071055Y013430D01*
X074375Y013485D02*
X074430Y013430D01*
X074680Y013180D01*
X074680Y013130D01*
X074680Y012680D01*
X073430Y010180D02*
X073430Y009930D01*
X072930Y009930D02*
X072930Y010180D01*
X072430Y010180D02*
X072430Y009930D01*
X071930Y009930D02*
X071930Y010180D01*
X071430Y010180D02*
X071430Y009930D01*
X071080Y010180D02*
X070830Y009930D01*
X070805Y009930D01*
X048330Y008180D02*
X048180Y008180D01*
X031130Y002980D02*
X030930Y003180D01*
X031130Y002980D02*
X031480Y002980D01*
X028930Y003180D02*
X026930Y003180D01*
X028230Y003980D02*
X028430Y004180D01*
X025130Y004830D02*
X024980Y004680D01*
X028780Y001180D02*
X028980Y001380D01*
X028780Y001180D02*
X009730Y001180D01*
X008830Y002080D01*
X004480Y002080D01*
X007680Y000830D02*
X007719Y000869D01*
X008180Y000680D02*
X030430Y000680D01*
X030730Y000980D01*
X030930Y001380D02*
X031280Y001030D01*
X030930Y001380D02*
X029930Y001380D01*
X029430Y001080D02*
X029280Y000930D01*
X009430Y000930D01*
X008730Y001630D01*
X006180Y004130D02*
X005730Y003680D01*
X005680Y003680D01*
X006180Y004130D02*
X006180Y004180D01*
X006380Y004180D01*
X006380Y005080D01*
X006430Y005156D01*
X023930Y011780D02*
X025580Y011780D01*
X025630Y011730D01*
X025640Y011700D01*
X028430Y012430D02*
X029380Y011480D01*
X027180Y013380D02*
X026930Y013130D01*
X027180Y013380D02*
X029930Y013380D01*
X030030Y013280D01*
X028980Y014080D02*
X035130Y014080D01*
X036330Y014080D02*
X038480Y014080D01*
X038630Y013930D01*
X039030Y013530D02*
X039280Y013780D01*
X039030Y013530D02*
X037730Y013530D01*
X039830Y013530D02*
X040230Y013930D01*
X043380Y013930D01*
X042030Y013380D02*
X041880Y013530D01*
X042030Y013380D02*
X046980Y013380D01*
X045980Y014330D02*
X046080Y014430D01*
X048080Y014430D01*
X048280Y016530D02*
X048280Y016680D01*
X028280Y014180D02*
X028180Y014080D01*
X027330Y014080D01*
D26*
X027330Y014080D03*
X028280Y014180D03*
X028980Y014080D03*
X030030Y013280D03*
X026930Y013130D03*
X026130Y012880D03*
X026530Y012530D03*
X023930Y011780D03*
X022180Y012380D03*
X023130Y012780D03*
X023980Y013630D03*
X019780Y014380D03*
X021080Y015080D03*
X022180Y014980D03*
X021730Y015480D03*
X025380Y016580D03*
X021230Y017380D03*
X029580Y017280D03*
X032130Y016530D03*
X036480Y015730D03*
X038180Y014730D03*
X035630Y014330D03*
X035130Y014080D03*
X036480Y013680D03*
X037730Y013530D03*
X038630Y013930D03*
X039280Y013780D03*
X039830Y013530D03*
X041880Y013530D03*
X043680Y014180D03*
X045980Y014330D03*
X048080Y014430D03*
X046980Y013380D03*
X048980Y012980D03*
X047080Y012180D03*
X046180Y011580D03*
X043180Y011730D03*
X040730Y010830D03*
X039080Y010630D03*
X040630Y009830D03*
X041530Y010230D03*
X042780Y010430D03*
X042130Y009730D03*
X041130Y009330D03*
X039980Y008530D03*
X037830Y008680D03*
X035280Y008130D03*
X030880Y006730D03*
X029280Y006230D03*
X028330Y005130D03*
X025130Y004830D03*
X024330Y005280D03*
X024780Y006230D03*
X024980Y007230D03*
X025980Y007230D03*
X026380Y007580D03*
X026880Y007830D03*
X028330Y008380D03*
X026930Y009080D03*
X025930Y009330D03*
X026480Y009730D03*
X027980Y009730D03*
X028280Y010630D03*
X027480Y011030D03*
X029480Y011080D03*
X030480Y011080D03*
X034280Y009730D03*
X036930Y010630D03*
X035780Y011030D03*
X036680Y011730D03*
X039180Y011730D03*
X036180Y013030D03*
X046980Y016130D03*
X052730Y016980D03*
X053330Y016580D03*
X053880Y016580D03*
X056780Y012755D03*
X057180Y010880D03*
X057780Y008480D03*
X059880Y006955D03*
X051980Y005480D03*
X051530Y005080D03*
X045880Y004680D03*
X042730Y004230D03*
X041480Y003630D03*
X040130Y003180D03*
X038680Y002480D03*
X036830Y002080D03*
X033630Y001830D03*
X033030Y001830D03*
X032280Y001430D03*
X031280Y001030D03*
X030730Y000980D03*
X029930Y001380D03*
X028980Y001380D03*
X029430Y001080D03*
X027680Y001580D03*
X026530Y002230D03*
X028480Y002380D03*
X028980Y002180D03*
X031280Y002580D03*
X031930Y002330D03*
X028080Y003580D03*
X026930Y003180D03*
X024280Y004030D03*
X021780Y004030D03*
X019530Y003280D03*
X022030Y002880D03*
X019880Y002230D03*
X014730Y002630D03*
X008730Y001630D03*
X004480Y002080D03*
X010830Y004430D03*
X014630Y004730D03*
X015280Y004680D03*
X018580Y005330D03*
X018580Y005880D03*
X015030Y006580D03*
X014380Y007380D03*
X012730Y007780D03*
X011880Y006830D03*
X019230Y008130D03*
X020130Y007830D03*
X020680Y007830D03*
X020330Y009080D03*
X020730Y009430D03*
X020730Y010030D03*
X023580Y009330D03*
X015830Y010330D03*
X014130Y010330D03*
X014630Y009530D03*
X015680Y011280D03*
X019380Y012030D03*
X013130Y014030D03*
X009280Y015380D03*
X012230Y016230D03*
X012830Y016730D03*
X005830Y015830D03*
X008130Y014030D03*
X007730Y011430D03*
X033280Y005530D03*
X041380Y007730D03*
X044480Y007280D03*
X046280Y008130D03*
X046780Y008880D03*
X044830Y008980D03*
X048480Y009280D03*
X048780Y008880D03*
X045880Y005880D03*
X047880Y002280D03*
X045430Y001780D03*
X044930Y001830D03*
X044430Y001580D03*
X045280Y001080D03*
X040530Y002080D03*
X051980Y001480D03*
X060380Y001480D03*
X070805Y009930D03*
X071430Y009930D03*
X071930Y009930D03*
X072430Y009930D03*
X072930Y009930D03*
X073430Y009930D03*
X073180Y010430D03*
X072680Y010430D03*
X072180Y010430D03*
X071680Y010430D03*
X071055Y010430D03*
X070555Y010430D03*
X070555Y010930D03*
X071055Y010930D03*
X071055Y011430D03*
X071055Y011930D03*
X071055Y012430D03*
X070555Y012680D03*
X071055Y012930D03*
X070555Y013180D03*
X071055Y013430D03*
X071680Y013180D03*
X072180Y013180D03*
X072680Y013180D03*
X073180Y013180D03*
X073680Y013180D03*
X074180Y013180D03*
X074680Y013180D03*
X074680Y012680D03*
X074680Y012180D03*
X074680Y011680D03*
X074680Y011180D03*
X074680Y010680D03*
X074180Y010430D03*
X073680Y010430D03*
X040030Y017380D03*
X039230Y016780D03*
X037680Y016780D03*
X037280Y017280D03*
D27*
X001680Y016680D03*
X001680Y001680D03*
X075180Y001680D03*
X075180Y016680D03*
M02*
