%
M48
M72
T01C0.0200
T02C0.0236
T03C0.0320
T04C0.0354
T05C0.0400
T06C0.0433
T07C0.1280
T08C0.1300
%
T01
X5270Y4317
X5720Y4317
X6120Y4317
X6520Y4317
X6920Y4317
X5720Y6367
X6920Y6867
X7570Y10217
X7170Y14617
X7470Y17767
X2070Y14917
X1570Y13817
X1170Y18317
X1820Y23017
X2170Y6067
X1370Y5167
T02
X4970Y5567
X7720Y4317
T03
X4220Y11567
X3220Y13567
X5220Y13567
T04
X5470Y21317
X4470Y21317
X3470Y21317
X2470Y21317
X2970Y22317
X3970Y22317
X4970Y22317
X5970Y22317
T05
X3220Y2067
X4220Y2067
X5220Y2067
X5500Y15427
X5500Y17207
X2940Y17207
X2940Y15427
T06
X3220Y7067
X4220Y7067
X5220Y7067
T07
X6470Y24817
X1970Y24817
T08
X4220Y19317
X4220Y9317
M30
