G75*
%MOIN*%
%OFA0B0*%
%FSLAX24Y24*%
%IPPOS*%
%LPD*%
%AMOC8*
5,1,8,0,0,1.08239X$1,22.5*
%
%ADD10R,0.0472X0.0217*%
%ADD11R,0.0315X0.0472*%
%ADD12R,0.0512X0.0591*%
%ADD13R,0.2362X0.0984*%
%ADD14R,0.0472X0.0276*%
%ADD15R,0.0236X0.0472*%
%ADD16R,0.0472X0.0315*%
D10*
X003708Y003943D03*
X003708Y004691D03*
X004732Y004691D03*
X004732Y004317D03*
X004732Y003943D03*
D11*
X006716Y006367D03*
X007424Y006367D03*
X007374Y009267D03*
X006666Y009267D03*
X001674Y006367D03*
X000966Y006367D03*
X000866Y009867D03*
X001574Y009867D03*
X001574Y013317D03*
X000866Y013317D03*
X000866Y016317D03*
X001574Y016317D03*
X001574Y019517D03*
X000866Y019517D03*
D12*
X001346Y002917D03*
X002094Y002917D03*
X002094Y004317D03*
X001346Y004317D03*
X003596Y005567D03*
X004344Y005567D03*
X006396Y019217D03*
X007144Y019217D03*
D13*
X006789Y005153D03*
X006789Y003460D03*
D14*
X004998Y003117D03*
X003542Y003117D03*
D15*
X006746Y015602D03*
X007494Y015602D03*
X007494Y016631D03*
X007120Y016631D03*
X006746Y016631D03*
D16*
X006720Y013371D03*
X006720Y012662D03*
X007620Y011371D03*
X007620Y010662D03*
M02*
