G75*
%MOIN*%
%OFA0B0*%
%FSLAX24Y24*%
%IPPOS*%
%LPD*%
%AMOC8*
5,1,8,0,0,1.08239X$1,22.5*
%
%ADD10C,0.0650*%
%ADD11C,0.0600*%
%ADD12C,0.0554*%
%ADD13C,0.0520*%
%ADD14C,0.0240*%
%ADD15C,0.0360*%
%ADD16C,0.0396*%
D10*
X003220Y006742D02*
X003220Y007391D01*
X004220Y007391D02*
X004220Y006742D01*
X005220Y006742D02*
X005220Y007391D01*
D11*
X005220Y002367D02*
X005220Y001767D01*
X004220Y001767D02*
X004220Y002367D01*
X003220Y002367D02*
X003220Y001767D01*
X003240Y015427D02*
X002640Y015427D01*
X002640Y017207D02*
X003240Y017207D01*
X005200Y017207D02*
X005800Y017207D01*
X005800Y015427D02*
X005200Y015427D01*
D12*
X005470Y021317D03*
X004470Y021317D03*
X003470Y021317D03*
X002470Y021317D03*
X002970Y022317D03*
X003970Y022317D03*
X004970Y022317D03*
X005970Y022317D03*
D13*
X005220Y013827D02*
X005220Y013307D01*
X004220Y011827D02*
X004220Y011307D01*
X003220Y013307D02*
X003220Y013827D01*
D14*
X000540Y005944D02*
X000540Y000637D01*
X007892Y000637D01*
X007892Y001792D01*
X007784Y001747D01*
X005720Y001747D01*
X005720Y001667D01*
X005644Y001483D01*
X005503Y001343D01*
X005319Y001267D01*
X005123Y001267D01*
X004651Y000795D01*
X004534Y000747D01*
X003656Y000747D01*
X003539Y000795D01*
X003449Y000885D01*
X003030Y001304D01*
X002937Y001343D01*
X002796Y001483D01*
X002720Y001667D01*
X002720Y002466D01*
X002796Y002650D01*
X002937Y002791D01*
X003121Y002867D01*
X003319Y002867D01*
X003503Y002791D01*
X003644Y002650D01*
X003720Y002466D01*
X003720Y001667D01*
X003677Y001563D01*
X003853Y001387D01*
X003893Y001387D01*
X003796Y001483D01*
X003720Y001667D01*
X003720Y002466D01*
X003796Y002650D01*
X003937Y002791D01*
X004121Y002867D01*
X004319Y002867D01*
X004503Y002791D01*
X004644Y002650D01*
X004720Y002466D01*
X004720Y001769D01*
X004720Y001769D01*
X004720Y002466D01*
X004796Y002650D01*
X004937Y002791D01*
X005121Y002867D01*
X005319Y002867D01*
X005503Y002791D01*
X005644Y002650D01*
X005720Y002466D01*
X005720Y002387D01*
X007400Y002387D01*
X007400Y004074D01*
X007382Y004091D01*
X007322Y004237D01*
X007322Y004262D01*
X006337Y005247D01*
X005213Y005247D01*
X005196Y005229D01*
X005049Y005169D01*
X004891Y005169D01*
X004744Y005229D01*
X004632Y005341D01*
X004572Y005487D01*
X004572Y005646D01*
X004614Y005747D01*
X002387Y005747D01*
X002385Y005745D01*
X002246Y005687D01*
X002094Y005687D01*
X001955Y005745D01*
X001853Y005847D01*
X000706Y005847D01*
X000589Y005895D01*
X000540Y005944D01*
X000540Y005802D02*
X001897Y005802D01*
X002170Y006067D02*
X002120Y006167D01*
X000770Y006167D01*
X000770Y019617D01*
X002470Y021317D01*
X001993Y021305D02*
X000540Y021305D01*
X000540Y021543D02*
X002047Y021543D01*
X002065Y021587D02*
X001993Y021412D01*
X001993Y021292D01*
X000589Y019888D01*
X000540Y019839D01*
X000540Y026167D01*
X007892Y026167D01*
X007892Y010432D01*
X007890Y010434D01*
X007890Y015330D01*
X007841Y015448D01*
X007790Y015499D01*
X007790Y017549D01*
X007792Y017551D01*
X007850Y017691D01*
X007850Y017842D01*
X007792Y017982D01*
X007685Y018089D01*
X007546Y018147D01*
X007394Y018147D01*
X007255Y018089D01*
X007148Y017982D01*
X007090Y017842D01*
X007090Y017691D01*
X007148Y017551D01*
X007150Y017549D01*
X007150Y015303D01*
X007199Y015185D01*
X007250Y015134D01*
X007250Y015077D01*
X007241Y015098D01*
X007219Y015121D01*
X007201Y015147D01*
X007174Y015165D01*
X007151Y015188D01*
X007122Y015200D01*
X007095Y015218D01*
X007063Y015224D01*
X007034Y015237D01*
X007002Y015237D01*
X006970Y015243D01*
X006939Y015237D01*
X006262Y015237D01*
X006300Y015327D01*
X006300Y015526D01*
X006224Y015710D01*
X006083Y015851D01*
X005899Y015927D01*
X005101Y015927D01*
X004917Y015851D01*
X004776Y015710D01*
X004700Y015526D01*
X004700Y015327D01*
X004738Y015237D01*
X003702Y015237D01*
X003740Y015327D01*
X003740Y015526D01*
X003664Y015710D01*
X003523Y015851D01*
X003339Y015927D01*
X002541Y015927D01*
X002357Y015851D01*
X002216Y015710D01*
X002140Y015526D01*
X002140Y015327D01*
X002154Y015293D01*
X002146Y015297D01*
X001994Y015297D01*
X001855Y015239D01*
X001748Y015132D01*
X001690Y014992D01*
X001690Y014841D01*
X001748Y014701D01*
X001855Y014595D01*
X001994Y014537D01*
X002146Y014537D01*
X002285Y014595D01*
X002287Y014597D01*
X006790Y014597D01*
X006790Y014541D01*
X006848Y014401D01*
X006955Y014295D01*
X007094Y014237D01*
X007246Y014237D01*
X007250Y014238D01*
X007250Y010434D01*
X007248Y010432D01*
X007190Y010292D01*
X007190Y010141D01*
X007248Y010001D01*
X007355Y009895D01*
X007494Y009837D01*
X007646Y009837D01*
X007785Y009895D01*
X007892Y010001D01*
X007892Y004676D01*
X007799Y004715D01*
X007774Y004715D01*
X006651Y005838D01*
X006534Y005887D01*
X005693Y005887D01*
X005793Y005987D01*
X005796Y005987D01*
X005935Y006045D01*
X006042Y006151D01*
X006100Y006291D01*
X006100Y006442D01*
X006042Y006582D01*
X005935Y006689D01*
X005796Y006747D01*
X005745Y006747D01*
X006558Y006747D01*
X006598Y006651D01*
X006705Y006545D01*
X006844Y006487D01*
X006996Y006487D01*
X007135Y006545D01*
X007242Y006651D01*
X007300Y006791D01*
X007300Y006942D01*
X007242Y007082D01*
X007135Y007189D01*
X006996Y007247D01*
X006993Y007247D01*
X006991Y007248D01*
X006901Y007338D01*
X006784Y007387D01*
X005745Y007387D01*
X005745Y007496D01*
X005665Y007689D01*
X005517Y007836D01*
X005324Y007916D01*
X005116Y007916D01*
X004923Y007836D01*
X004775Y007689D01*
X004720Y007556D01*
X004665Y007689D01*
X004517Y007836D01*
X004324Y007916D01*
X004116Y007916D01*
X003923Y007836D01*
X003775Y007689D01*
X003720Y007556D01*
X003665Y007689D01*
X003517Y007836D01*
X003324Y007916D01*
X003116Y007916D01*
X002923Y007836D01*
X002775Y007689D01*
X002695Y007496D01*
X002695Y006637D01*
X002775Y006445D01*
X002833Y006387D01*
X002387Y006387D01*
X002385Y006389D01*
X002326Y006413D01*
X002301Y006438D01*
X002290Y006442D01*
X002282Y006450D01*
X002232Y006467D01*
X002184Y006487D01*
X002172Y006487D01*
X002161Y006490D01*
X002109Y006487D01*
X001090Y006487D01*
X001090Y017938D01*
X001094Y017937D01*
X001246Y017937D01*
X001385Y017995D01*
X001492Y018101D01*
X001550Y018241D01*
X001550Y018244D01*
X004151Y020845D01*
X004213Y020907D01*
X004375Y020840D01*
X004565Y020840D01*
X004740Y020912D01*
X004875Y021046D01*
X004947Y021222D01*
X004947Y021412D01*
X004912Y021497D01*
X005006Y021497D01*
X004985Y021433D01*
X004973Y021356D01*
X004973Y021317D01*
X005470Y021317D01*
X005967Y021317D01*
X005967Y021356D01*
X005955Y021433D01*
X005931Y021508D01*
X005895Y021577D01*
X005849Y021641D01*
X005798Y021692D01*
X005945Y021840D01*
X006065Y021840D01*
X006240Y021912D01*
X006375Y022046D01*
X006447Y022222D01*
X006447Y022412D01*
X006375Y022587D01*
X006240Y022721D01*
X006065Y022794D01*
X005875Y022794D01*
X005700Y022721D01*
X005565Y022587D01*
X005493Y022412D01*
X005493Y022292D01*
X005447Y022246D01*
X005447Y022412D01*
X005375Y022587D01*
X005240Y022721D01*
X005065Y022794D01*
X004875Y022794D01*
X004700Y022721D01*
X004565Y022587D01*
X004493Y022412D01*
X004493Y022222D01*
X004528Y022137D01*
X004412Y022137D01*
X004447Y022222D01*
X004447Y022412D01*
X004375Y022587D01*
X004240Y022721D01*
X004065Y022794D01*
X003875Y022794D01*
X003700Y022721D01*
X003565Y022587D01*
X003493Y022412D01*
X003493Y022222D01*
X003565Y022046D01*
X003674Y021938D01*
X003650Y021880D01*
X003650Y021759D01*
X003565Y021794D01*
X003375Y021794D01*
X003200Y021721D01*
X003065Y021587D01*
X002993Y021412D01*
X002993Y021222D01*
X003065Y021046D01*
X003200Y020912D01*
X003280Y020879D01*
X001097Y018697D01*
X001094Y018697D01*
X001090Y018695D01*
X001090Y019484D01*
X002445Y020840D01*
X002565Y020840D01*
X002740Y020912D01*
X002875Y021046D01*
X002947Y021222D01*
X002947Y021412D01*
X002875Y021587D01*
X002740Y021721D01*
X002565Y021794D01*
X002375Y021794D01*
X002200Y021721D01*
X002065Y021587D01*
X002346Y021782D02*
X000540Y021782D01*
X000540Y022020D02*
X002592Y022020D01*
X002565Y022046D02*
X002700Y021912D01*
X002875Y021840D01*
X003065Y021840D01*
X003240Y021912D01*
X003375Y022046D01*
X003447Y022222D01*
X003447Y022412D01*
X003375Y022587D01*
X003240Y022721D01*
X003065Y022794D01*
X002875Y022794D01*
X002700Y022721D01*
X002565Y022587D01*
X002493Y022412D01*
X002493Y022222D01*
X002565Y022046D01*
X002493Y022259D02*
X000540Y022259D01*
X000540Y022497D02*
X002528Y022497D01*
X002735Y022736D02*
X000540Y022736D01*
X000540Y022974D02*
X007892Y022974D01*
X007892Y022736D02*
X006205Y022736D01*
X006412Y022497D02*
X007892Y022497D01*
X007892Y022259D02*
X006447Y022259D01*
X006348Y022020D02*
X007892Y022020D01*
X007892Y021782D02*
X005888Y021782D01*
X005913Y021543D02*
X007892Y021543D01*
X007892Y021305D02*
X005967Y021305D01*
X005967Y021317D02*
X005470Y021317D01*
X005470Y021317D01*
X005470Y021317D01*
X004973Y021317D01*
X004973Y021278D01*
X004985Y021200D01*
X005009Y021126D01*
X005045Y021056D01*
X005091Y020993D01*
X005146Y020937D01*
X005209Y020891D01*
X005279Y020856D01*
X005354Y020832D01*
X005431Y020820D01*
X005470Y020819D01*
X005470Y021317D01*
X005470Y020820D01*
X005509Y020820D01*
X005586Y020832D01*
X005661Y020856D01*
X005731Y020891D01*
X005794Y020937D01*
X005849Y020993D01*
X005895Y021056D01*
X005931Y021126D01*
X005955Y021200D01*
X005967Y021278D01*
X005967Y021317D01*
X005900Y021066D02*
X007892Y021066D01*
X007892Y020828D02*
X005561Y020828D01*
X005470Y020828D02*
X005470Y020828D01*
X005379Y020828D02*
X004134Y020828D01*
X003970Y021117D02*
X003970Y021817D01*
X005470Y021817D01*
X005970Y022317D01*
X005528Y022497D02*
X005412Y022497D01*
X005447Y022259D02*
X005459Y022259D01*
X005205Y022736D02*
X005735Y022736D01*
X004735Y022736D02*
X004205Y022736D01*
X004412Y022497D02*
X004528Y022497D01*
X004493Y022259D02*
X004447Y022259D01*
X003735Y022736D02*
X003205Y022736D01*
X003412Y022497D02*
X003528Y022497D01*
X003493Y022259D02*
X003447Y022259D01*
X003348Y022020D02*
X003592Y022020D01*
X003594Y021782D02*
X003650Y021782D01*
X003346Y021782D02*
X002594Y021782D01*
X002893Y021543D02*
X003047Y021543D01*
X002993Y021305D02*
X002947Y021305D01*
X002883Y021066D02*
X003057Y021066D01*
X003228Y020828D02*
X002434Y020828D01*
X002195Y020589D02*
X002990Y020589D01*
X002751Y020351D02*
X001957Y020351D01*
X001718Y020112D02*
X002513Y020112D01*
X002274Y019874D02*
X001480Y019874D01*
X001241Y019635D02*
X002036Y019635D01*
X001797Y019397D02*
X001090Y019397D01*
X001090Y019158D02*
X001559Y019158D01*
X001320Y018920D02*
X001090Y018920D01*
X001749Y018443D02*
X003795Y018443D01*
X003671Y018494D02*
X004027Y018347D01*
X004413Y018347D01*
X004769Y018494D01*
X005042Y018767D01*
X005190Y019124D01*
X005190Y019510D01*
X005042Y019866D01*
X004769Y020139D01*
X004413Y020287D01*
X004027Y020287D01*
X003671Y020139D01*
X003398Y019866D01*
X003250Y019510D01*
X003250Y019124D01*
X003398Y018767D01*
X003671Y018494D01*
X003484Y018681D02*
X001987Y018681D01*
X002226Y018920D02*
X003335Y018920D01*
X003250Y019158D02*
X002464Y019158D01*
X002703Y019397D02*
X003250Y019397D01*
X003302Y019635D02*
X002941Y019635D01*
X003180Y019874D02*
X003405Y019874D01*
X003418Y020112D02*
X003644Y020112D01*
X003657Y020351D02*
X007892Y020351D01*
X007892Y020589D02*
X003895Y020589D01*
X003970Y021117D02*
X001170Y018317D01*
X001316Y017966D02*
X007141Y017966D01*
X007090Y017727D02*
X001090Y017727D01*
X001090Y017489D02*
X002216Y017489D01*
X002216Y017490D02*
X002140Y017306D01*
X002140Y017107D01*
X002216Y016923D01*
X002357Y016783D01*
X002541Y016707D01*
X003339Y016707D01*
X003523Y016783D01*
X003664Y016923D01*
X003740Y017107D01*
X003740Y017306D01*
X003664Y017490D01*
X003523Y017631D01*
X003339Y017707D01*
X002541Y017707D01*
X002357Y017631D01*
X002216Y017490D01*
X002140Y017250D02*
X001090Y017250D01*
X001090Y017012D02*
X002180Y017012D01*
X002380Y016773D02*
X001090Y016773D01*
X001090Y016535D02*
X007150Y016535D01*
X007150Y016773D02*
X006060Y016773D01*
X006083Y016783D02*
X006224Y016923D01*
X006300Y017107D01*
X006300Y017306D01*
X006224Y017490D01*
X006083Y017631D01*
X005899Y017707D01*
X005101Y017707D01*
X004917Y017631D01*
X004776Y017490D01*
X004700Y017306D01*
X004700Y017107D01*
X004776Y016923D01*
X004917Y016783D01*
X005101Y016707D01*
X005899Y016707D01*
X006083Y016783D01*
X006260Y017012D02*
X007150Y017012D01*
X007150Y017250D02*
X006300Y017250D01*
X006224Y017489D02*
X007150Y017489D01*
X007470Y017767D02*
X007470Y015367D01*
X007570Y015267D01*
X007570Y010217D01*
X007209Y010095D02*
X004813Y010095D01*
X004769Y010139D02*
X005042Y009866D01*
X005190Y009510D01*
X005190Y009124D01*
X005042Y008767D01*
X004769Y008494D01*
X004413Y008347D01*
X004027Y008347D01*
X003671Y008494D01*
X003398Y008767D01*
X003250Y009124D01*
X003250Y009510D01*
X003398Y009866D01*
X003671Y010139D01*
X004027Y010287D01*
X004413Y010287D01*
X004769Y010139D01*
X005046Y009857D02*
X007446Y009857D01*
X007694Y009857D02*
X007892Y009857D01*
X007892Y009618D02*
X005145Y009618D01*
X005190Y009380D02*
X007892Y009380D01*
X007892Y009141D02*
X005190Y009141D01*
X005098Y008903D02*
X007892Y008903D01*
X007892Y008664D02*
X004939Y008664D01*
X004604Y008426D02*
X007892Y008426D01*
X007892Y008187D02*
X001090Y008187D01*
X001090Y007949D02*
X007892Y007949D01*
X007892Y007710D02*
X005643Y007710D01*
X005745Y007472D02*
X007892Y007472D01*
X007892Y007233D02*
X007028Y007233D01*
X007278Y006995D02*
X007892Y006995D01*
X007892Y006756D02*
X007286Y006756D01*
X007070Y006518D02*
X007892Y006518D01*
X007892Y006279D02*
X006095Y006279D01*
X006069Y006518D02*
X006770Y006518D01*
X006920Y006867D02*
X006720Y007067D01*
X005220Y007067D01*
X005745Y006747D02*
X005745Y006747D01*
X005720Y006367D02*
X005420Y006067D01*
X002170Y006067D01*
X002745Y006518D02*
X001090Y006518D01*
X001090Y006756D02*
X002695Y006756D01*
X002695Y006995D02*
X001090Y006995D01*
X001090Y007233D02*
X002695Y007233D01*
X002695Y007472D02*
X001090Y007472D01*
X001090Y007710D02*
X002797Y007710D01*
X003643Y007710D02*
X003797Y007710D01*
X003836Y008426D02*
X001090Y008426D01*
X001090Y008664D02*
X003501Y008664D01*
X003342Y008903D02*
X001090Y008903D01*
X001090Y009141D02*
X003250Y009141D01*
X003250Y009380D02*
X001090Y009380D01*
X001090Y009618D02*
X003295Y009618D01*
X003394Y009857D02*
X001090Y009857D01*
X001090Y010095D02*
X003627Y010095D01*
X003959Y010917D02*
X004128Y010847D01*
X004311Y010847D01*
X004481Y010917D01*
X004610Y011046D01*
X004680Y011215D01*
X004680Y011918D01*
X004610Y012087D01*
X004481Y012217D01*
X004311Y012287D01*
X004128Y012287D01*
X003959Y012217D01*
X003830Y012087D01*
X003760Y011918D01*
X003760Y011215D01*
X003830Y011046D01*
X003959Y010917D01*
X003829Y011049D02*
X001090Y011049D01*
X001090Y010811D02*
X007250Y010811D01*
X007250Y011049D02*
X004611Y011049D01*
X004680Y011288D02*
X007250Y011288D01*
X007250Y011526D02*
X004680Y011526D01*
X004680Y011765D02*
X007250Y011765D01*
X007250Y012003D02*
X004645Y012003D01*
X004420Y012242D02*
X007250Y012242D01*
X007250Y012480D02*
X001090Y012480D01*
X001090Y012242D02*
X004020Y012242D01*
X003795Y012003D02*
X001090Y012003D01*
X001090Y011765D02*
X003760Y011765D01*
X003760Y011526D02*
X001090Y011526D01*
X001090Y011288D02*
X003760Y011288D01*
X003311Y012847D02*
X003128Y012847D01*
X002959Y012917D01*
X002830Y013046D01*
X002760Y013215D01*
X002760Y013247D01*
X001756Y013247D01*
X001639Y013295D01*
X001549Y013385D01*
X001497Y013437D01*
X001494Y013437D01*
X001355Y013495D01*
X001248Y013601D01*
X001190Y013741D01*
X001190Y013892D01*
X001248Y014032D01*
X001355Y014139D01*
X001494Y014197D01*
X001646Y014197D01*
X001785Y014139D01*
X001892Y014032D01*
X001950Y013892D01*
X001950Y013889D01*
X001953Y013887D01*
X002760Y013887D01*
X002760Y013918D01*
X002830Y014087D01*
X002959Y014217D01*
X003128Y014287D01*
X003311Y014287D01*
X003481Y014217D01*
X003610Y014087D01*
X003680Y013918D01*
X003680Y013215D01*
X003610Y013046D01*
X003481Y012917D01*
X003311Y012847D01*
X003521Y012957D02*
X004919Y012957D01*
X004959Y012917D02*
X005128Y012847D01*
X005311Y012847D01*
X005481Y012917D01*
X005610Y013046D01*
X005680Y013215D01*
X005680Y013918D01*
X005610Y014087D01*
X005481Y014217D01*
X005311Y014287D01*
X005128Y014287D01*
X004959Y014217D01*
X004830Y014087D01*
X004760Y013918D01*
X004760Y013215D01*
X004830Y013046D01*
X004959Y012917D01*
X004768Y013196D02*
X003672Y013196D01*
X003680Y013434D02*
X004760Y013434D01*
X004760Y013673D02*
X003680Y013673D01*
X003680Y013911D02*
X004760Y013911D01*
X004892Y014150D02*
X003548Y014150D01*
X002892Y014150D02*
X001759Y014150D01*
X001942Y013911D02*
X002760Y013911D01*
X003220Y013567D02*
X001820Y013567D01*
X001570Y013817D01*
X001218Y013673D02*
X001090Y013673D01*
X001090Y013911D02*
X001198Y013911D01*
X001090Y014150D02*
X001381Y014150D01*
X001090Y014388D02*
X006861Y014388D01*
X007170Y014617D02*
X006970Y014917D01*
X002070Y014917D01*
X001823Y014627D02*
X001090Y014627D01*
X001090Y014865D02*
X001690Y014865D01*
X001736Y015104D02*
X001090Y015104D01*
X001090Y015342D02*
X002140Y015342D01*
X002163Y015581D02*
X001090Y015581D01*
X001090Y015819D02*
X002325Y015819D01*
X003555Y015819D02*
X004885Y015819D01*
X004723Y015581D02*
X003717Y015581D01*
X003740Y015342D02*
X004700Y015342D01*
X005548Y014150D02*
X007250Y014150D01*
X007250Y013911D02*
X005680Y013911D01*
X005680Y013673D02*
X007250Y013673D01*
X007250Y013434D02*
X005680Y013434D01*
X005672Y013196D02*
X007250Y013196D01*
X007250Y012957D02*
X005521Y012957D01*
X007250Y012719D02*
X001090Y012719D01*
X001090Y012957D02*
X002919Y012957D01*
X002768Y013196D02*
X001090Y013196D01*
X001090Y013434D02*
X001500Y013434D01*
X001090Y016058D02*
X007150Y016058D01*
X007150Y016296D02*
X001090Y016296D01*
X001535Y018204D02*
X007892Y018204D01*
X007892Y017966D02*
X007799Y017966D01*
X007850Y017727D02*
X007892Y017727D01*
X007892Y017489D02*
X007790Y017489D01*
X007790Y017250D02*
X007892Y017250D01*
X007892Y017012D02*
X007790Y017012D01*
X007790Y016773D02*
X007892Y016773D01*
X007892Y016535D02*
X007790Y016535D01*
X007790Y016296D02*
X007892Y016296D01*
X007892Y016058D02*
X007790Y016058D01*
X007790Y015819D02*
X007892Y015819D01*
X007892Y015581D02*
X007790Y015581D01*
X007885Y015342D02*
X007892Y015342D01*
X007890Y015104D02*
X007892Y015104D01*
X007890Y014865D02*
X007892Y014865D01*
X007890Y014627D02*
X007892Y014627D01*
X007890Y014388D02*
X007892Y014388D01*
X007890Y014150D02*
X007892Y014150D01*
X007890Y013911D02*
X007892Y013911D01*
X007890Y013673D02*
X007892Y013673D01*
X007890Y013434D02*
X007892Y013434D01*
X007890Y013196D02*
X007892Y013196D01*
X007890Y012957D02*
X007892Y012957D01*
X007890Y012719D02*
X007892Y012719D01*
X007890Y012480D02*
X007892Y012480D01*
X007890Y012242D02*
X007892Y012242D01*
X007890Y012003D02*
X007892Y012003D01*
X007890Y011765D02*
X007892Y011765D01*
X007890Y011526D02*
X007892Y011526D01*
X007890Y011288D02*
X007892Y011288D01*
X007890Y011049D02*
X007892Y011049D01*
X007890Y010811D02*
X007892Y010811D01*
X007890Y010572D02*
X007892Y010572D01*
X007250Y010572D02*
X001090Y010572D01*
X001090Y010334D02*
X007207Y010334D01*
X004797Y007710D02*
X004643Y007710D01*
X005926Y006041D02*
X007892Y006041D01*
X007892Y005802D02*
X006687Y005802D01*
X006470Y005567D02*
X007720Y004317D01*
X007720Y002067D01*
X005220Y002067D01*
X005220Y001817D01*
X004470Y001067D01*
X003720Y001067D01*
X003220Y001567D01*
X003220Y002067D01*
X003720Y001986D02*
X003720Y001986D01*
X003720Y001748D02*
X003720Y001748D01*
X003730Y001509D02*
X003785Y001509D01*
X003302Y001032D02*
X000540Y001032D01*
X000540Y000794D02*
X003543Y000794D01*
X003063Y001271D02*
X000540Y001271D01*
X000540Y001509D02*
X002785Y001509D01*
X002720Y001748D02*
X000540Y001748D01*
X000540Y001986D02*
X002720Y001986D01*
X002720Y002225D02*
X000540Y002225D01*
X000540Y002463D02*
X002720Y002463D01*
X002848Y002702D02*
X000540Y002702D01*
X000540Y002940D02*
X007400Y002940D01*
X007400Y002702D02*
X005592Y002702D01*
X005720Y002463D02*
X007400Y002463D01*
X007400Y003179D02*
X000540Y003179D01*
X000540Y003417D02*
X007400Y003417D01*
X007400Y003656D02*
X000540Y003656D01*
X000540Y003894D02*
X007400Y003894D01*
X007365Y004133D02*
X000540Y004133D01*
X000540Y004371D02*
X007213Y004371D01*
X006974Y004610D02*
X000540Y004610D01*
X000540Y004848D02*
X006736Y004848D01*
X006497Y005087D02*
X000540Y005087D01*
X000540Y005325D02*
X004648Y005325D01*
X004572Y005564D02*
X000540Y005564D01*
X001370Y005167D02*
X004720Y004867D01*
X005270Y004317D01*
X004970Y005567D02*
X006470Y005567D01*
X006926Y005564D02*
X007892Y005564D01*
X007892Y005325D02*
X007164Y005325D01*
X007403Y005087D02*
X007892Y005087D01*
X007892Y004848D02*
X007641Y004848D01*
X004848Y002702D02*
X004592Y002702D01*
X004720Y002463D02*
X004720Y002463D01*
X004720Y002225D02*
X004720Y002225D01*
X004720Y001986D02*
X004720Y001986D01*
X003848Y002702D02*
X003592Y002702D01*
X003720Y002463D02*
X003720Y002463D01*
X003720Y002225D02*
X003720Y002225D01*
X004888Y001032D02*
X007892Y001032D01*
X007892Y000794D02*
X004647Y000794D01*
X005329Y001271D02*
X007892Y001271D01*
X007892Y001509D02*
X005655Y001509D01*
X007786Y001748D02*
X007892Y001748D01*
X007250Y015104D02*
X007236Y015104D01*
X007150Y015342D02*
X006300Y015342D01*
X006277Y015581D02*
X007150Y015581D01*
X007150Y015819D02*
X006115Y015819D01*
X004940Y016773D02*
X003500Y016773D01*
X003700Y017012D02*
X004740Y017012D01*
X004700Y017250D02*
X003740Y017250D01*
X003664Y017489D02*
X004776Y017489D01*
X004645Y018443D02*
X007892Y018443D01*
X007892Y018681D02*
X004956Y018681D01*
X005105Y018920D02*
X007892Y018920D01*
X007892Y019158D02*
X005190Y019158D01*
X005190Y019397D02*
X007892Y019397D01*
X007892Y019635D02*
X005138Y019635D01*
X005035Y019874D02*
X007892Y019874D01*
X007892Y020112D02*
X004796Y020112D01*
X004883Y021066D02*
X005040Y021066D01*
X004973Y021305D02*
X004947Y021305D01*
X005470Y021305D02*
X005470Y021305D01*
X005470Y021317D02*
X005470Y021317D01*
X005470Y021066D02*
X005470Y021066D01*
X007892Y023213D02*
X000540Y023213D01*
X000540Y023451D02*
X007892Y023451D01*
X007892Y023690D02*
X000540Y023690D01*
X000540Y023928D02*
X001606Y023928D01*
X001779Y023857D02*
X002161Y023857D01*
X002514Y024003D01*
X002784Y024273D01*
X002930Y024626D01*
X002930Y025008D01*
X002784Y025360D01*
X002514Y025631D01*
X002161Y025777D01*
X001779Y025777D01*
X001426Y025631D01*
X001156Y025360D01*
X001010Y025008D01*
X001010Y024626D01*
X001156Y024273D01*
X001426Y024003D01*
X001779Y023857D01*
X002334Y023928D02*
X006106Y023928D01*
X006279Y023857D02*
X006661Y023857D01*
X007014Y024003D01*
X007284Y024273D01*
X007430Y024626D01*
X007430Y025008D01*
X007284Y025360D01*
X007014Y025631D01*
X006661Y025777D01*
X006279Y025777D01*
X005926Y025631D01*
X005656Y025360D01*
X005510Y025008D01*
X005510Y024626D01*
X005656Y024273D01*
X005926Y024003D01*
X006279Y023857D01*
X005762Y024167D02*
X002678Y024167D01*
X002839Y024405D02*
X005601Y024405D01*
X005510Y024644D02*
X002930Y024644D01*
X002930Y024882D02*
X005510Y024882D01*
X005557Y025121D02*
X002883Y025121D01*
X002784Y025359D02*
X005656Y025359D01*
X005893Y025598D02*
X002547Y025598D01*
X001393Y025598D02*
X000540Y025598D01*
X000540Y025836D02*
X007892Y025836D01*
X007892Y025598D02*
X007047Y025598D01*
X007284Y025359D02*
X007892Y025359D01*
X007892Y025121D02*
X007383Y025121D01*
X007430Y024882D02*
X007892Y024882D01*
X007892Y024644D02*
X007430Y024644D01*
X007339Y024405D02*
X007892Y024405D01*
X007892Y024167D02*
X007178Y024167D01*
X006834Y023928D02*
X007892Y023928D01*
X007892Y026075D02*
X000540Y026075D01*
X000540Y025359D02*
X001156Y025359D01*
X001057Y025121D02*
X000540Y025121D01*
X000540Y024882D02*
X001010Y024882D01*
X001010Y024644D02*
X000540Y024644D01*
X000540Y024405D02*
X001101Y024405D01*
X001262Y024167D02*
X000540Y024167D01*
X000540Y021066D02*
X001767Y021066D01*
X001528Y020828D02*
X000540Y020828D01*
X000540Y020589D02*
X001290Y020589D01*
X001051Y020351D02*
X000540Y020351D01*
X000540Y020112D02*
X000813Y020112D01*
X000574Y019874D02*
X000540Y019874D01*
D15*
X001170Y018317D03*
X002070Y014917D03*
X001570Y013817D03*
X007170Y014617D03*
X007470Y017767D03*
X001820Y023017D03*
X007570Y010217D03*
X006920Y006867D03*
X005720Y006367D03*
X005720Y004317D03*
X005270Y004317D03*
X006120Y004317D03*
X006520Y004317D03*
X006920Y004317D03*
X002170Y006067D03*
X001370Y005167D03*
D16*
X004970Y005567D03*
X007720Y004317D03*
M02*
