G75*
%MOIN*%
%OFA0B0*%
%FSLAX24Y24*%
%IPPOS*%
%LPD*%
%AMOC8*
5,1,8,0,0,1.08239X$1,22.5*
%
%ADD10C,0.1380*%
%ADD11C,0.0730*%
%ADD12C,0.0680*%
%ADD13C,0.0634*%
%ADD14C,0.1360*%
%ADD15C,0.0600*%
%ADD16C,0.0440*%
%ADD17C,0.0476*%
D10*
X004220Y009317D03*
X004220Y019317D03*
D11*
X004220Y007391D02*
X004220Y006742D01*
X003220Y006742D02*
X003220Y007391D01*
X005220Y007391D02*
X005220Y006742D01*
D12*
X003220Y002367D02*
X003220Y001767D01*
X004220Y001767D02*
X004220Y002367D01*
X005220Y002367D02*
X005220Y001767D01*
X005200Y015427D02*
X005800Y015427D01*
X005800Y017207D02*
X005200Y017207D01*
X003240Y017207D02*
X002640Y017207D01*
X002640Y015427D02*
X003240Y015427D01*
D13*
X003470Y021317D03*
X002470Y021317D03*
X002970Y022317D03*
X003970Y022317D03*
X004970Y022317D03*
X005970Y022317D03*
X005470Y021317D03*
X004470Y021317D03*
D14*
X006470Y024817D03*
X001970Y024817D03*
D15*
X003220Y013827D02*
X003220Y013307D01*
X004220Y011827D02*
X004220Y011307D01*
X005220Y013307D02*
X005220Y013827D01*
D16*
X007170Y014617D03*
X007470Y017767D03*
X002070Y014917D03*
X001570Y013817D03*
X001170Y018317D03*
X001820Y023017D03*
X007570Y010217D03*
X006920Y006867D03*
X005720Y006367D03*
X005720Y004317D03*
X005270Y004317D03*
X006120Y004317D03*
X006520Y004317D03*
X006920Y004317D03*
X002170Y006067D03*
X001370Y005167D03*
D17*
X004970Y005567D03*
X007720Y004317D03*
M02*
