0
SECTION
2
HEADER
9
$INSUNITS
70
4
9
$ACADVER
1
AC1014
9
$HANDSEED
5
FFFF
0
ENDSEC
0
SECTION
2
TABLES
0
TABLE
2
VPORT
5
8
100
AcDbSymbolTable
0
ENDTAB
0
TABLE
2
LTYPE
5
5
100
AcDbSymbolTable
0
LTYPE
5
14
100
AcDbSymbolTableRecord
100
AcDbLinetypeTableRecord
2
BYBLOCK
70
0
0
LTYPE
5
15
100
AcDbSymbolTableRecord
100
AcDbLinetypeTableRecord
2
BYLAYER
70
0
0
LTYPE
5
16
100
AcDbSymbolTableRecord
100
AcDbLinetypeTableRecord
2
DASHED
70
0
3
Dashed __ __ __ __ __ __ __ __ __ __ __ __ __ _
72
65
73
2
40
0.75
49
0.5
74
0
49
-0.25
74
0
0
ENDTAB
0
TABLE
2
LAYER
5
2
100
AcDbSymbolTable
70
2
0
LAYER
5
50
100
AcDbSymbolTableRecord
100
AcDbLayerTableRecord
2
0
70
0
62
7
6
CONTINUOUS
0
ENDTAB
0
TABLE
2
STYLE
5
3
100
AcDbSymbolTable
70
1
0
STYLE
5
11
100
AcDbSymbolTableRecord
100
AcDbTextStyleTableRecord
2
STANDARD
70
0
0
ENDTAB
0
TABLE
2
VIEW
5
6
100
AcDbSymbolTable
70
0
0
ENDTAB
0
TABLE
2
UCS
5
7
100
AcDbSymbolTable
70
0
0
ENDTAB
0
TABLE
2
APPID
5
9
100
AcDbSymbolTable
70
2
0
APPID
5
12
100
AcDbSymbolTableRecord
100
AcDbRegAppTableRecord
2
ACAD
70
0
0
ENDTAB
0
TABLE
2
DIMSTYLE
5
A
100
AcDbSymbolTable
70
1
0
ENDTAB
0
TABLE
2
BLOCK_RECORD
5
1
100
AcDbSymbolTable
70
1
0
BLOCK_RECORD
5
1F
100
AcDbSymbolTableRecord
100
AcDbBlockTableRecord
2
*MODEL_SPACE
0
BLOCK_RECORD
5
1B
100
AcDbSymbolTableRecord
100
AcDbBlockTableRecord
2
*PAPER_SPACE
0
ENDTAB
0
ENDSEC
0
SECTION
2
BLOCKS
0
BLOCK
5
20
100
AcDbEntity
100
AcDbBlockBegin
2
*MODEL_SPACE
0
ENDBLK
5
21
100
AcDbEntity
100
AcDbBlockEnd
0
BLOCK
5
1C
100
AcDbEntity
100
AcDbBlockBegin
2
*PAPER_SPACE
0
ENDBLK
5
1D
100
AcDbEntity
100
AcDbBlockEnd
0
ENDSEC
0
SECTION
2
ENTITIES
0
LWPOLYLINE
5
100
100
AcDbEntity
8
0
100
AcDbPolyline
90
30
70
1
43
0.0
10
2.6645261555368926e-14
20
-114.99784975793767
10
2.220435379909378e-14
20
-29.998515056937674
10
-5.7949999999999768
20
-29.998515056937674
10
-6.8787785158683299
20
-34.998716722337711
10
-12.999543279499976
20
-34.998716722337711
10
-12.999543279499981
20
-22.498530058837716
10
2.063706108967111e-14
20
-4.9984592298377066
10
2.063706108967111e-14
20
0.0017424355622936679
10
120.00025082740002
20
0.0017424355622947781
10
120.00025082740002
20
-4.9984592298538502
10
119.99963176801374
20
-4.9984592387808009
10
133.00067605129988
20
-22.498530058812129
10
133.00067605129988
20
-34.998716722337718
10
126.79561113809083
20
-34.998716722337718
10
125.79525082740004
20
-29.980063494415937
10
120.00025082740002
20
-29.980063494415937
10
120.00025082740002
20
-114.99540485476389
10
120.00161239829323
20
-114.99540481546831
10
133.00067605130005
20
-132.49595076800711
10
133.00067605130005
20
-144.99581649136584
10
126.81521108550413
20
-144.99590498045586
10
125.79525082737133
20
-139.99751752941066
10
120.00025082740004
20
-139.99751752940969
10
120.00025082740008
20
-169.99809252190883
10
2.9518906182518942e-14
20
-169.99809252182325
10
2.9518906182518942e-14
20
-139.99751752929623
10
-5.7949999994069623
20
-139.99760043240531
10
-6.8140783137040604
20
-144.99781667735692
10
-12.999543279499976
20
-144.997905166447
10
-12.999543279499976
20
-132.49803944308826
0
LINE
5
101
100
AcDbEntity
8
0
100
AcDbLine
10
120.0006388827539
20
-139.99751752381383
30
0
11
120.00025082740004
21
-139.99751752940969
31
0
0
LINE
5
102
100
AcDbEntity
8
0
100
AcDbLine
10
120.00079221941024
20
-29.980063403934455
30
0
11
120.00025082740002
21
-29.980063494415937
31
0
0
SPLINE
5
103
100
AcDbEntity
8
0
100
AcDbSpline
70
0
71
3
72
17
73
13
74
0
42
0.000000001
43
0.0000000001
44
0.0000000001
40
0
40
0
40
0
40
0
40
1
40
1
40
1
40
2
40
2
40
2
40
3
40
3
40
3
40
4
40
4
40
4
40
4
10
69.964363432509899
20
-81.226067748523093
30
0
10
68.859534016251999
20
-81.226067748523093
30
0
10
67.964148761317389
20
-80.330682470969293
30
0
10
67.964148761317389
20
-79.226205804578484
30
0
10
67.964148761317389
20
-78.12169386041009
30
0
10
68.859534016251999
20
-77.226308582856234
30
0
10
69.964363432509899
20
-77.226308582856234
30
0
10
71.068875348775876
20
-77.226308582856234
30
0
10
71.964260603709789
20
-78.12169386041009
30
0
10
71.964260603709789
20
-79.226205804578484
30
0
10
71.964260603709789
20
-80.330682470969293
30
0
10
71.068875348775876
20
-81.226067748523093
30
0
10
69.964363432509899
20
-81.226067748523093
30
0
0
LINE
5
104
100
AcDbEntity
8
0
100
AcDbLine
10
67.289055584095408
20
-131.98680356916654
30
0
11
67.289055584095408
21
-131.31017579155804
31
0
0
SPLINE
5
105
100
AcDbEntity
8
0
100
AcDbSpline
70
0
71
3
72
17
73
13
74
0
42
0.000000001
43
0.0000000001
44
0.0000000001
40
0
40
0
40
0
40
0
40
1
40
1
40
1
40
2
40
2
40
2
40
3
40
3
40
3
40
4
40
4
40
4
40
4
10
76.964109365041963
20
-98.473408577545385
30
0
10
75.859632726552761
20
-98.473408577545385
30
0
10
74.964247471618151
20
-97.578199688879806
30
0
10
74.964247471618151
20
-96.473193855822942
30
0
10
74.964247471618151
20
-95.368717189431408
30
0
10
75.859632726552761
20
-94.473331911878219
30
0
10
76.964109365041963
20
-94.473331911878219
30
0
10
78.068974059076652
20
-94.473331911878219
30
0
10
78.964324036234345
20
-95.368717189431408
30
0
10
78.964324036234345
20
-96.473193855822942
30
0
10
78.964324036234345
20
-97.578199688879806
30
0
10
78.068974059076652
20
-98.473408577545385
30
0
10
76.964109365041963
20
-98.473408577545385
30
0
0
SPLINE
5
106
100
AcDbEntity
8
0
100
AcDbSpline
70
0
71
3
72
17
73
13
74
0
42
0.000000001
43
0.0000000001
44
0.0000000001
40
0
40
0
40
0
40
0
40
1
40
1
40
1
40
2
40
2
40
2
40
3
40
3
40
3
40
4
40
4
40
4
40
4
10
59.964280528231669
20
-99.217734410692401
30
0
10
58.859448438042151
20
-99.217734410692401
30
0
10
57.964063183107555
20
-98.322349133137905
30
0
10
57.964063183107555
20
-97.217872466747821
30
0
10
57.964063183107555
20
-96.113360522578716
30
0
10
58.859448438042151
20
-95.217975245025528
30
0
10
59.964280528231669
20
-95.217975245025528
30
0
10
61.068789770566056
20
-95.217975245025528
30
0
10
61.964177749954537
20
-96.113360522578716
30
0
10
61.964177749954537
20
-97.217872466747821
30
0
10
61.964177749954537
20
-98.322349133137905
30
0
10
61.068789770566056
20
-99.217734410692401
30
0
10
59.964280528231669
20
-99.217734410692401
30
0
0
LINE
5
107
100
AcDbEntity
8
0
100
AcDbLine
10
52.670156512610838
20
-131.31017579155804
30
0
11
52.670826790371493
21
-132.03157106915575
31
0
0
SPLINE
5
108
100
AcDbEntity
8
0
100
AcDbSpline
70
0
71
3
72
17
73
13
74
0
42
0.000000001
43
0.0000000001
44
0.0000000001
40
0
40
0
40
0
40
0
40
1
40
1
40
1
40
2
40
2
40
2
40
3
40
3
40
3
40
4
40
4
40
4
40
4
10
76.964109365041963
20
-75.973171360947305
30
0
10
75.859632726552761
20
-75.973171360947305
30
0
10
74.964247471618151
20
-75.07778608339342
30
0
10
74.964247471618151
20
-73.973274139225154
30
0
10
74.964247471618151
20
-72.868797472834956
30
0
10
75.859632726552761
20
-71.973412195280446
30
0
10
76.964109365041963
20
-71.973412195280446
30
0
10
78.068974059076652
20
-71.973412195280446
30
0
10
78.964324036234345
20
-72.868797472834956
30
0
10
78.964324036234345
20
-73.973274139225154
30
0
10
78.964324036234345
20
-75.07778608339342
30
0
10
78.068974059076652
20
-75.973171360947305
30
0
10
76.964109365041963
20
-75.973171360947305
30
0
0
LINE
5
109
100
AcDbEntity
8
0
100
AcDbLine
10
50.239976296831486
20
-134.55753051296875
30
0
11
50.239976296831486
21
-131.31017579155804
31
0
0
SPLINE
5
110
100
AcDbEntity
8
0
100
AcDbSpline
70
0
71
3
72
8
73
4
74
0
42
0.000000001
43
0.0000000001
44
0.0000000001
40
3
40
3
40
3
40
3
40
4
40
4
40
4
40
4
10
59.964368115739532
20
-118.6661530425537
30
0
10
60.829604417651318
20
-118.70215431412321
30
0
10
61.514489851934123
20
-119.38721200329452
30
0
10
61.514489851934123
20
-120.21627477874831
30
0
0
SPLINE
5
111
100
AcDbEntity
8
0
100
AcDbSpline
70
0
71
3
72
17
73
13
74
0
42
0.000000001
43
0.0000000001
44
0.0000000001
40
0
40
0
40
0
40
0
40
1
40
1
40
1
40
2
40
2
40
2
40
3
40
3
40
3
40
4
40
4
40
4
40
4
10
42.964481621334379
20
-75.973171360947305
30
0
10
41.85996970506838
20
-75.973171360947305
30
0
10
40.964584450133444
20
-75.07778608339342
30
0
10
40.964584450133444
20
-73.973274139225154
30
0
10
40.964584450133444
20
-72.868797472834956
30
0
10
41.85996970506838
20
-71.973412195280446
30
0
10
42.964481621334379
20
-71.973412195280446
30
0
10
44.069311037592264
20
-71.973412195280446
30
0
10
44.96469629252686
20
-72.868797472834956
30
0
10
44.96469629252686
20
-73.973274139225154
30
0
10
44.96469629252686
20
-75.07778608339342
30
0
10
44.069311037592264
20
-75.973171360947305
30
0
10
42.964481621334379
20
-75.973171360947305
30
0
0
SPLINE
5
112
100
AcDbEntity
8
0
100
AcDbSpline
70
0
71
3
72
17
73
13
74
0
42
0.000000001
43
0.0000000001
44
0.0000000001
40
0
40
0
40
0
40
0
40
1
40
1
40
1
40
2
40
2
40
2
40
3
40
3
40
3
40
4
40
4
40
4
40
4
10
54.964781870736658
20
-90.221901079608131
30
0
10
53.859917176701934
20
-90.221901079608131
30
0
10
52.964531921767339
20
-89.326515802053663
30
0
10
52.964531921767339
20
-88.222039135663422
30
0
10
52.964531921767339
20
-87.117527191495086
30
0
10
53.859917176701934
20
-86.222141913940561
30
0
10
54.964781870736658
20
-86.222141913940561
30
0
10
56.06926108476064
20
-86.222141913940561
30
0
10
56.964290986391653
20
-87.117527191495086
30
0
10
56.964290986391653
20
-88.222039135663422
30
0
10
56.964290986391653
20
-89.326515802053663
30
0
10
56.06926108476064
20
-90.221901079608131
30
0
10
54.964781870736658
20
-90.221901079608131
30
0
0
LINE
5
113
100
AcDbEntity
8
0
100
AcDbLine
10
69.688932189536089
20
-131.31017579155804
30
0
11
69.688932189536089
21
-134.55753051296875
31
0
0
SPLINE
5
114
100
AcDbEntity
8
0
100
AcDbSpline
70
0
71
3
72
17
73
13
74
0
42
0.000000001
43
0.0000000001
44
0.0000000001
40
0
40
0
40
0
40
0
40
1
40
1
40
1
40
2
40
2
40
2
40
3
40
3
40
3
40
4
40
4
40
4
40
4
10
64.964161893409027
20
-90.221901079608131
30
0
10
63.859652749479807
20
-90.221901079608131
30
0
10
62.964264722208398
20
-89.326515802053663
30
0
10
62.964264722208398
20
-88.222039135663422
30
0
10
62.964264722208398
20
-87.117527191495086
30
0
10
63.859652749479807
20
-86.222141913940561
30
0
10
64.964161893409027
20
-86.222141913940561
30
0
10
66.068991309666899
20
-86.222141913940561
30
0
10
66.964376564601523
20
-87.117527191495086
30
0
10
66.964376564601523
20
-88.222039135663422
30
0
10
66.964376564601523
20
-89.326515802053663
30
0
10
66.068991309666899
20
-90.221901079608131
30
0
10
64.964161893409027
20
-90.221901079608131
30
0
0
LINE
5
115
100
AcDbEntity
8
0
100
AcDbLine
10
52.670826790371493
20
-132.03157106915575
30
0
11
54.642466462292354
21
-132.03019523582284
31
0
0
LINE
5
116
100
AcDbEntity
8
0
100
AcDbLine
10
52.64017040226409
20
-134.55753051296875
30
0
11
50.239976296831486
21
-134.55753051296875
31
0
0
SPLINE
5
117
100
AcDbEntity
8
0
100
AcDbSpline
70
0
71
3
72
11
73
7
74
0
42
0.000000001
43
0.0000000001
44
0.0000000001
40
9
40
9
40
9
40
9
40
10
40
10
40
10
40
11
40
11
40
11
40
11
10
30.450765917522226
20
-133.72864384650882
30
0
10
30.092484815551007
20
-136.3276282903031
30
0
10
27.75395626410106
20
-138.43395856755484
30
0
10
24.964792039881637
20
-138.43395856755484
30
0
10
22.175657795304524
20
-138.43395856755484
30
0
10
19.872265909624531
20
-136.32900412363659
30
0
10
19.513279252116362
20
-133.71417995762317
30
0
0
LINE
5
118
100
AcDbEntity
8
0
100
AcDbLine
10
30.370156197356227
20
-131.98680356916654
30
0
11
32.289055592845145
21
-131.98680356916654
31
0
0
SPLINE
5
119
100
AcDbEntity
8
0
100
AcDbSpline
70
0
71
3
72
8
73
4
74
0
42
0.000000001
43
0.0000000001
44
0.0000000001
40
3
40
3
40
3
40
3
40
4
40
4
40
4
40
4
10
94.999680359007925
20
-144.06616979245297
30
0
10
95.865088915808172
20
-144.10234331891158
30
0
10
96.549629840315276
20
-144.78722875319374
30
0
10
96.549629840315276
20
-145.61611927376038
30
0
0
SPLINE
5
120
100
AcDbEntity
8
0
100
AcDbSpline
70
0
71
3
72
14
73
10
74
0
42
0.000000001
43
0.0000000001
44
0.0000000001
40
0
40
0
40
0
40
0
40
1
40
1
40
1
40
2
40
2
40
2
40
3
40
3
40
3
40
3
10
26.549629857815482
20
-145.61611927376035
30
0
10
26.549629857815482
20
-146.4453543041007
30
0
10
25.865088933308336
20
-147.16641326484151
30
0
10
24.999680376508074
20
-147.16641326484151
30
0
10
24.170617601054904
20
-147.16641326484151
30
0
10
23.449558640313462
20
-146.48152783055932
30
0
10
23.449558640313462
20
-145.61611927376035
30
0
10
23.449558640313462
20
-144.78722875319374
30
0
10
24.134616329483482
20
-144.06616979245294
30
0
10
24.999680376508074
20
-144.06616979245294
30
0
0
SPLINE
5
121
100
AcDbEntity
8
0
100
AcDbSpline
70
0
71
3
72
17
73
13
74
0
42
0.000000001
43
0.0000000001
44
0.0000000001
40
0
40
0
40
0
40
0
40
1
40
1
40
1
40
2
40
2
40
2
40
3
40
3
40
3
40
4
40
4
40
4
40
4
10
49.964545053858942
20
-87.223289969246665
30
0
10
48.860068415369817
20
-87.223289969246665
30
0
10
47.964683160435222
20
-86.327904691692154
30
0
10
47.964683160435222
20
-85.223428025301345
30
0
10
47.964683160435222
20
-84.118916081132966
30
0
10
48.860068415369817
20
-83.223530803579166
30
0
10
49.964545053858942
20
-83.223530803579166
30
0
10
51.069409747893751
20
-83.223530803579166
30
0
10
51.964795002828332
20
-84.118916081132966
30
0
10
51.964795002828332
20
-85.223428025301345
30
0
10
51.964795002828332
20
-86.327904691692154
30
0
10
51.069409747893751
20
-87.223289969246665
30
0
10
49.964545053858942
20
-87.223289969246665
30
0
0
SPLINE
5
122
100
AcDbEntity
8
0
100
AcDbSpline
70
0
71
3
72
17
73
13
74
0
42
0.000000001
43
0.0000000001
44
0.0000000001
40
0
40
0
40
0
40
0
40
1
40
1
40
1
40
2
40
2
40
2
40
3
40
3
40
3
40
4
40
4
40
4
40
4
10
64.964161893409027
20
-84.224678858884587
30
0
10
63.859652749479807
20
-84.224678858884587
30
0
10
62.964264722208398
20
-83.329293581330788
30
0
10
62.964264722208398
20
-82.224816914939851
30
0
10
62.964264722208398
20
-81.120304970771485
30
0
10
63.859652749479807
20
-80.224919693217686
30
0
10
64.964161893409027
20
-80.224919693217686
30
0
10
66.068991309666899
20
-80.224919693217686
30
0
10
66.964376564601523
20
-81.120304970771485
30
0
10
66.964376564601523
20
-82.224816914939851
30
0
10
66.964376564601523
20
-83.329293581330788
30
0
10
66.068991309666899
20
-84.224678858884587
30
0
10
64.964161893409027
20
-84.224678858884587
30
0
0
LINE
5
123
100
AcDbEntity
8
0
100
AcDbLine
10
87.670156503860426
20
-131.31017579155807
30
0
11
87.670826781621116
21
-132.03157106915575
31
0
0
LINE
5
124
100
AcDbEntity
8
0
100
AcDbLine
10
100.37015617985634
20
-131.98680356916657
30
0
11
102.28905557534563
21
-131.98680356916657
31
0
0
LINE
5
125
100
AcDbEntity
8
0
100
AcDbLine
10
102.28905557534563
20
-131.98680356916657
30
0
11
102.28905557534563
21
-131.31017579155807
31
0
0
LINE
5
126
100
AcDbEntity
8
0
100
AcDbLine
10
17.670826799121272
20
-132.03157106915575
30
0
11
19.642466471042759
21
-132.03019523582284
31
0
0
LINE
5
127
100
AcDbEntity
8
0
100
AcDbLine
10
34.688932198285855
20
-134.55753051296875
30
0
11
32.289055592845145
21
-134.55753051296875
31
0
0
SPLINE
5
128
100
AcDbEntity
8
0
100
AcDbSpline
70
0
71
3
72
11
73
7
74
0
42
0.000000001
43
0.0000000001
44
0.0000000001
40
0
40
0
40
0
40
0
40
1
40
1
40
1
40
2
40
2
40
2
40
2
10
89.642466453542625
20
-132.03019523582287
30
0
10
90.197809217152411
20
-129.38573773648318
30
0
10
92.347213606760903
20
-127.43374773697187
30
0
10
94.964792022381488
20
-127.43374773697187
30
0
10
97.618207361175564
20
-127.43374773697187
30
0
10
99.851325915315073
20
-129.33684273649538
30
0
10
100.37015617985634
20
-131.98680356916657
30
0
0
SPLINE
5
129
100
AcDbEntity
8
0
100
AcDbSpline
70
0
71
3
72
17
73
13
74
0
42
0.000000001
43
0.0000000001
44
0.0000000001
40
0
40
0
40
0
40
0
40
1
40
1
40
1
40
2
40
2
40
2
40
3
40
3
40
3
40
4
40
4
40
4
40
4
10
64.964161893409027
20
-96.219123300331006
30
0
10
63.859652749479807
20
-96.219123300331006
30
0
10
62.964264722208398
20
-95.323738022777121
30
0
10
62.964264722208398
20
-94.219261356386312
30
0
10
62.964264722208398
20
-93.114749412217918
30
0
10
63.859652749479807
20
-92.219364134663536
30
0
10
64.964161893409027
20
-92.219364134663536
30
0
10
66.068991309666899
20
-92.219364134663536
30
0
10
66.964376564601523
20
-93.114749412217918
30
0
10
66.964376564601523
20
-94.219261356386312
30
0
10
66.964376564601523
20
-95.323738022777121
30
0
10
66.068991309666899
20
-96.219123300331006
30
0
10
64.964161893409027
20
-96.219123300331006
30
0
0
SPLINE
5
130
100
AcDbEntity
8
0
100
AcDbSpline
70
0
71
3
72
17
73
13
74
0
42
0.000000001
43
0.0000000001
44
0.0000000001
40
0
40
0
40
0
40
0
40
1
40
1
40
1
40
2
40
2
40
2
40
3
40
3
40
3
40
4
40
4
40
4
40
4
10
64.964161893409027
20
-78.227456638161698
30
0
10
63.859652749479807
20
-78.227456638161698
30
0
10
62.964264722208398
20
-77.332071360607813
30
0
10
62.964264722208398
20
-76.227594694217004
30
0
10
62.964264722208398
20
-75.123082750048653
30
0
10
63.859652749479807
20
-74.22769747249481
30
0
10
64.964161893409027
20
-74.22769747249481
30
0
10
66.068991309666899
20
-74.22769747249481
30
0
10
66.964376564601523
20
-75.123082750048653
30
0
10
66.964376564601523
20
-76.227594694217004
30
0
10
66.964376564601523
20
-77.332071360607813
30
0
10
66.068991309666899
20
-78.227456638161698
30
0
10
64.964161893409027
20
-78.227456638161698
30
0
0
SPLINE
5
131
100
AcDbEntity
8
0
100
AcDbSpline
70
0
71
3
72
14
73
10
74
0
42
0.000000001
43
0.0000000001
44
0.0000000001
40
0
40
0
40
0
40
0
40
1
40
1
40
1
40
2
40
2
40
2
40
3
40
3
40
3
40
3
10
96.514489843183782
20
-120.21627477874833
30
0
10
96.514489843183782
20
-121.04533755420141
30
0
10
95.829604408900877
20
-121.76639651494219
30
0
10
94.96436810698907
20
-121.76639651494219
30
0
10
94.135305331535974
20
-121.76639651494219
30
0
10
93.414590880570188
20
-121.08133882577162
30
0
10
93.414590880570188
20
-120.21627477874833
30
0
10
93.414590880570188
20
-119.38721200329454
30
0
10
94.099476314852978
20
-118.66615304255373
30
0
10
94.96436810698907
20
-118.66615304255373
30
0
0
LINE
5
132
100
AcDbEntity
8
0
100
AcDbLine
10
102.28905557534563
20
-133.72864384650885
30
0
11
100.45076590002203
21
-133.72864384650885
31
0
0
SPLINE
5
133
100
AcDbEntity
8
0
100
AcDbSpline
70
0
71
3
72
8
73
4
74
0
42
0.000000001
43
0.0000000001
44
0.0000000001
40
3
40
3
40
3
40
3
40
4
40
4
40
4
40
4
10
94.96436810698907
20
-118.66615304255373
30
0
10
95.829604408900877
20
-118.70215431412322
30
0
10
96.514489843183782
20
-119.38721200329454
30
0
10
96.514489843183782
20
-120.21627477874833
30
0
0
LINE
5
134
100
AcDbEntity
8
0
100
AcDbLine
10
32.289055592845145
20
-134.55753051296875
30
0
11
32.289055592845145
21
-133.72864384650882
31
0
0
SPLINE
5
135
100
AcDbEntity
8
0
100
AcDbSpline
70
0
71
3
72
17
73
13
74
0
42
0.000000001
43
0.0000000001
44
0.0000000001
40
0
40
0
40
0
40
0
40
1
40
1
40
1
40
2
40
2
40
2
40
3
40
3
40
3
40
4
40
4
40
4
40
4
10
42.964481621334379
20
-98.473408577545385
30
0
10
41.85996970506838
20
-98.473408577545385
30
0
10
40.964584450133444
20
-97.578199688879806
30
0
10
40.964584450133444
20
-96.473193855822942
30
0
10
40.964584450133444
20
-95.368717189431408
30
0
10
41.85996970506838
20
-94.473331911878219
30
0
10
42.964481621334379
20
-94.473331911878219
30
0
10
44.069311037592264
20
-94.473331911878219
30
0
10
44.96469629252686
20
-95.368717189431408
30
0
10
44.96469629252686
20
-96.473193855822942
30
0
10
44.96469629252686
20
-97.578199688879806
30
0
10
44.069311037592264
20
-98.473408577545385
30
0
10
42.964481621334379
20
-98.473408577545385
30
0
0
SPLINE
5
136
100
AcDbEntity
8
0
100
AcDbSpline
70
0
71
3
72
17
73
13
74
0
42
0.000000001
43
0.0000000001
44
0.0000000001
40
0
40
0
40
0
40
0
40
1
40
1
40
1
40
2
40
2
40
2
40
3
40
3
40
3
40
4
40
4
40
4
40
4
10
54.964781870736658
20
-96.219123300331006
30
0
10
53.859917176701934
20
-96.219123300331006
30
0
10
52.964531921767339
20
-95.323738022777121
30
0
10
52.964531921767339
20
-94.219261356386312
30
0
10
52.964531921767339
20
-93.114749412217918
30
0
10
53.859917176701934
20
-92.219364134663536
30
0
10
54.964781870736658
20
-92.219364134663536
30
0
10
56.06926108476064
20
-92.219364134663536
30
0
10
56.964290986391653
20
-93.114749412217918
30
0
10
56.964290986391653
20
-94.219261356386312
30
0
10
56.964290986391653
20
-95.323738022777121
30
0
10
56.06926108476064
20
-96.219123300331006
30
0
10
54.964781870736658
20
-96.219123300331006
30
0
0
LINE
5
137
100
AcDbEntity
8
0
100
AcDbLine
10
17.670156521360592
20
-131.31017579155804
30
0
11
17.670826799121272
21
-132.03157106915575
31
0
0
LINE
5
138
100
AcDbEntity
8
0
100
AcDbLine
10
104.68893218078634
20
-134.55753051296875
30
0
11
102.28905557534563
21
-134.55753051296875
31
0
0
LINE
5
139
100
AcDbEntity
8
0
100
AcDbLine
10
89.513279234616192
20
-133.7141799576232
30
0
11
87.640170393514325
21
-133.7128041242903
31
0
0
LINE
5
140
100
AcDbEntity
8
0
100
AcDbLine
10
87.670826781621116
20
-132.03157106915575
30
0
11
89.642466453542625
21
-132.03019523582287
31
0
0
LINE
5
141
100
AcDbEntity
8
0
100
AcDbLine
10
104.68893218078634
20
-131.31017579155807
30
0
11
104.68893218078634
21
-134.55753051296875
31
0
0
LINE
5
142
100
AcDbEntity
8
0
100
AcDbLine
10
32.289055592845145
20
-133.72864384650882
30
0
11
30.450765917522226
21
-133.72864384650882
31
0
0
LINE
5
143
100
AcDbEntity
8
0
100
AcDbLine
10
32.289055592845145
20
-131.98680356916654
30
0
11
32.289055592845145
21
-131.31017579155804
31
0
0
SPLINE
5
144
100
AcDbEntity
8
0
100
AcDbSpline
70
0
71
3
72
8
73
4
74
0
42
0.000000001
43
0.0000000001
44
0.0000000001
40
3
40
3
40
3
40
3
40
4
40
4
40
4
40
4
10
24.999680376508074
20
-144.06616979245294
30
0
10
25.865088933308336
20
-144.10234331891155
30
0
10
26.549629857815482
20
-144.78722875319374
30
0
10
26.549629857815482
20
-145.61611927376035
30
0
0
LINE
5
145
100
AcDbEntity
8
0
100
AcDbLine
10
19.513279252116362
20
-133.71417995762317
30
0
11
17.640170411014488
21
-133.71280412429027
31
0
0
SPLINE
5
146
100
AcDbEntity
8
0
100
AcDbSpline
70
0
71
3
72
17
73
13
74
0
42
0.000000001
43
0.0000000001
44
0.0000000001
40
0
40
0
40
0
40
0
40
1
40
1
40
1
40
2
40
2
40
2
40
3
40
3
40
3
40
4
40
4
40
4
40
4
10
49.964545053858942
20
-93.22051218996954
30
0
10
48.860068415369817
20
-93.22051218996954
30
0
10
47.964683160435222
20
-92.32512691241503
30
0
10
47.964683160435222
20
-91.220650246024832
30
0
10
47.964683160435222
20
-90.116138301856552
30
0
10
48.860068415369817
20
-89.22075302430207
30
0
10
49.964545053858942
20
-89.22075302430207
30
0
10
51.069409747893751
20
-89.22075302430207
30
0
10
51.964795002828332
20
-90.116138301856552
30
0
10
51.964795002828332
20
-91.220650246024832
30
0
10
51.964795002828332
20
-92.32512691241503
30
0
10
51.069409747893751
20
-93.22051218996954
30
0
10
49.964545053858942
20
-93.22051218996954
30
0
0
LINE
5
147
100
AcDbEntity
8
0
100
AcDbLine
10
32.289055592845145
20
-131.31017579155804
30
0
11
34.688932198285855
21
-131.31017579155804
31
0
0
LINE
5
148
100
AcDbEntity
8
0
100
AcDbLine
10
54.513279243365965
20
-133.71417995762317
30
0
11
52.64017040226409
21
-133.71280412429027
31
0
0
LINE
5
149
100
AcDbEntity
8
0
100
AcDbLine
10
102.28905557534563
20
-131.31017579155807
30
0
11
104.68893218078634
21
-131.31017579155807
31
0
0
SPLINE
5
150
100
AcDbEntity
8
0
100
AcDbSpline
70
0
71
3
72
14
73
10
74
0
42
0.000000001
43
0.0000000001
44
0.0000000001
40
0
40
0
40
0
40
0
40
1
40
1
40
1
40
2
40
2
40
2
40
3
40
3
40
3
40
3
10
96.549629840315276
20
-145.61611927376038
30
0
10
96.549629840315276
20
-146.4453543041007
30
0
10
95.865088915808172
20
-147.16641326484154
30
0
10
94.999680359007925
20
-147.16641326484154
30
0
10
94.170617583554701
20
-147.16641326484154
30
0
10
93.449558622813271
20
-146.48152783055934
30
0
10
93.449558622813271
20
-145.61611927376038
30
0
10
93.449558622813271
20
-144.78722875319374
30
0
10
94.134616311983308
20
-144.06616979245297
30
0
10
94.999680359007925
20
-144.06616979245297
30
0
0
SPLINE
5
151
100
AcDbEntity
8
0
100
AcDbSpline
70
0
71
3
72
17
73
13
74
0
42
0.000000001
43
0.0000000001
44
0.0000000001
40
0
40
0
40
0
40
0
40
1
40
1
40
1
40
2
40
2
40
2
40
3
40
3
40
3
40
4
40
4
40
4
40
4
10
69.964363432509899
20
-87.223289969246665
30
0
10
68.859534016251999
20
-87.223289969246665
30
0
10
67.964148761317389
20
-86.327904691692154
30
0
10
67.964148761317389
20
-85.223428025301345
30
0
10
67.964148761317389
20
-84.118916081132966
30
0
10
68.859534016251999
20
-83.223530803579166
30
0
10
69.964363432509899
20
-83.223530803579166
30
0
10
71.068875348775876
20
-83.223530803579166
30
0
10
71.964260603709789
20
-84.118916081132966
30
0
10
71.964260603709789
20
-85.223428025301345
30
0
10
71.964260603709789
20
-86.327904691692154
30
0
10
71.068875348775876
20
-87.223289969246665
30
0
10
69.964363432509899
20
-87.223289969246665
30
0
0
LINE
5
152
100
AcDbEntity
8
0
100
AcDbLine
10
67.289055584095408
20
-133.72864384650882
30
0
11
65.450765908772539
21
-133.72864384650882
31
0
0
LINE
5
153
100
AcDbEntity
8
0
100
AcDbLine
10
87.640170393514325
20
-134.55753051296875
30
0
11
85.239976288081721
21
-134.55753051296875
31
0
0
SPLINE
5
154
100
AcDbEntity
8
0
100
AcDbSpline
70
0
71
3
72
17
73
13
74
0
42
0.000000001
43
0.0000000001
44
0.0000000001
40
0
40
0
40
0
40
0
40
1
40
1
40
1
40
2
40
2
40
2
40
3
40
3
40
3
40
4
40
4
40
4
40
4
10
54.964781870736658
20
-78.227456638161698
30
0
10
53.859917176701934
20
-78.227456638161698
30
0
10
52.964531921767339
20
-77.332071360607813
30
0
10
52.964531921767339
20
-76.227594694217004
30
0
10
52.964531921767339
20
-75.123082750048653
30
0
10
53.859917176701934
20
-74.22769747249481
30
0
10
54.964781870736658
20
-74.22769747249481
30
0
10
56.06926108476064
20
-74.22769747249481
30
0
10
56.964290986391653
20
-75.123082750048653
30
0
10
56.964290986391653
20
-76.227594694217004
30
0
10
56.964290986391653
20
-77.332071360607813
30
0
10
56.06926108476064
20
-78.227456638161698
30
0
10
54.964781870736658
20
-78.227456638161698
30
0
0
SPLINE
5
155
100
AcDbEntity
8
0
100
AcDbSpline
70
0
71
3
72
17
73
13
74
0
42
0.000000001
43
0.0000000001
44
0.0000000001
40
0
40
0
40
0
40
0
40
1
40
1
40
1
40
2
40
2
40
2
40
3
40
3
40
3
40
4
40
4
40
4
40
4
10
59.964280528231669
20
-93.22051218996954
30
0
10
58.859448438042151
20
-93.22051218996954
30
0
10
57.964063183107555
20
-92.32512691241503
30
0
10
57.964063183107555
20
-91.220650246024832
30
0
10
57.964063183107555
20
-90.116138301856552
30
0
10
58.859448438042151
20
-89.22075302430207
30
0
10
59.964280528231669
20
-89.22075302430207
30
0
10
61.068789770566056
20
-89.22075302430207
30
0
10
61.964177749954537
20
-90.116138301856552
30
0
10
61.964177749954537
20
-91.220650246024832
30
0
10
61.964177749954537
20
-92.32512691241503
30
0
10
61.068789770566056
20
-93.22051218996954
30
0
10
59.964280528231669
20
-93.22051218996954
30
0
0
LINE
5
156
100
AcDbEntity
8
0
100
AcDbLine
10
69.688932189536089
20
-134.55753051296875
30
0
11
67.289055584095408
21
-134.55753051296875
31
0
0
LINE
5
157
100
AcDbEntity
8
0
100
AcDbLine
10
102.28905557534563
20
-134.55753051296875
30
0
11
102.28905557534563
21
-133.72864384650885
31
0
0
LINE
5
158
100
AcDbEntity
8
0
100
AcDbLine
10
17.640170411014488
20
-134.55753051296875
30
0
11
15.239976305581884
21
-134.55753051296875
31
0
0
SPLINE
5
159
100
AcDbEntity
8
0
100
AcDbSpline
70
0
71
3
72
14
73
10
74
0
42
0.000000001
43
0.0000000001
44
0.0000000001
40
0
40
0
40
0
40
0
40
1
40
1
40
1
40
2
40
2
40
2
40
3
40
3
40
3
40
3
10
61.549629849065724
20
-145.61611927376035
30
0
10
61.549629849065724
20
-146.4453543041007
30
0
10
60.865088924558542
20
-147.16641326484151
30
0
10
59.999680367758359
20
-147.16641326484151
30
0
10
59.170617592305142
20
-147.16641326484151
30
0
10
58.44955863156364
20
-146.48152783055932
30
0
10
58.44955863156364
20
-145.61611927376035
30
0
10
58.44955863156364
20
-144.78722875319374
30
0
10
59.134616320733741
20
-144.06616979245294
30
0
10
59.999680367758359
20
-144.06616979245294
30
0
0
LINE
5
160
100
AcDbEntity
8
0
100
AcDbLine
10
52.64017040226409
20
-133.71280412429027
30
0
11
52.64017040226409
21
-134.55753051296875
31
0
0
LINE
5
161
100
AcDbEntity
8
0
100
AcDbLine
10
87.640170393514325
20
-133.7128041242903
30
0
11
87.640170393514325
21
-134.55753051296875
31
0
0
SPLINE
5
162
100
AcDbEntity
8
0
100
AcDbSpline
70
0
71
3
72
8
73
4
74
0
42
0.000000001
43
0.0000000001
44
0.0000000001
40
3
40
3
40
3
40
3
40
4
40
4
40
4
40
4
10
59.999680367758359
20
-144.06616979245294
30
0
10
60.865088924558542
20
-144.10234331891155
30
0
10
61.549629849065724
20
-144.78722875319374
30
0
10
61.549629849065724
20
-145.61611927376035
30
0
0
SPLINE
5
163
100
AcDbEntity
8
0
100
AcDbSpline
70
0
71
3
72
17
73
13
74
0
42
0.000000001
43
0.0000000001
44
0.0000000001
40
0
40
0
40
0
40
0
40
1
40
1
40
1
40
2
40
2
40
2
40
3
40
3
40
3
40
4
40
4
40
4
40
4
10
49.964545053858942
20
-81.226067748523093
30
0
10
48.860068415369817
20
-81.226067748523093
30
0
10
47.964683160435222
20
-80.330682470969293
30
0
10
47.964683160435222
20
-79.226205804578484
30
0
10
47.964683160435222
20
-78.12169386041009
30
0
10
48.860068415369817
20
-77.226308582856234
30
0
10
49.964545053858942
20
-77.226308582856234
30
0
10
51.069409747893751
20
-77.226308582856234
30
0
10
51.964795002828332
20
-78.12169386041009
30
0
10
51.964795002828332
20
-79.226205804578484
30
0
10
51.964795002828332
20
-80.330682470969293
30
0
10
51.069409747893751
20
-81.226067748523093
30
0
10
49.964545053858942
20
-81.226067748523093
30
0
0
SPLINE
5
164
100
AcDbEntity
8
0
100
AcDbSpline
70
0
71
3
72
14
73
10
74
0
42
0.000000001
43
0.0000000001
44
0.0000000001
40
0
40
0
40
0
40
0
40
1
40
1
40
1
40
2
40
2
40
2
40
3
40
3
40
3
40
3
10
61.514489851934123
20
-120.21627477874831
30
0
10
61.514489851934123
20
-121.04533755420138
30
0
10
60.829604417651318
20
-121.76639651494216
30
0
10
59.964368115739532
20
-121.76639651494216
30
0
10
59.135305340286337
20
-121.76639651494216
30
0
10
58.41459088932065
20
-121.08133882577161
30
0
10
58.41459088932065
20
-120.21627477874831
30
0
10
58.41459088932065
20
-119.38721200329452
30
0
10
59.099476323603419
20
-118.6661530425537
30
0
10
59.964368115739532
20
-118.6661530425537
30
0
0
SPLINE
5
165
100
AcDbEntity
8
0
100
AcDbSpline
70
0
71
3
72
17
73
13
74
0
42
0.000000001
43
0.0000000001
44
0.0000000001
40
0
40
0
40
0
40
0
40
1
40
1
40
1
40
2
40
2
40
2
40
3
40
3
40
3
40
4
40
4
40
4
40
4
10
69.964363432509899
20
-93.22051218996954
30
0
10
68.859534016251999
20
-93.22051218996954
30
0
10
67.964148761317389
20
-92.32512691241503
30
0
10
67.964148761317389
20
-91.220650246024832
30
0
10
67.964148761317389
20
-90.116138301856552
30
0
10
68.859534016251999
20
-89.22075302430207
30
0
10
69.964363432509899
20
-89.22075302430207
30
0
10
71.068875348775876
20
-89.22075302430207
30
0
10
71.964260603709789
20
-90.116138301856552
30
0
10
71.964260603709789
20
-91.220650246024832
30
0
10
71.964260603709789
20
-92.32512691241503
30
0
10
71.068875348775876
20
-93.22051218996954
30
0
10
69.964363432509899
20
-93.22051218996954
30
0
0
LINE
5
166
100
AcDbEntity
8
0
100
AcDbLine
10
67.289055584095408
20
-131.31017579155804
30
0
11
69.688932189536089
21
-131.31017579155804
31
0
0
LINE
5
167
100
AcDbEntity
8
0
100
AcDbLine
10
67.289055584095408
20
-134.55753051296875
30
0
11
67.289055584095408
21
-133.72864384650882
31
0
0
LINE
5
168
100
AcDbEntity
8
0
100
AcDbLine
10
50.239976296831486
20
-131.31017579155804
30
0
11
52.670156512610838
21
-131.31017579155804
31
0
0
LINE
5
169
100
AcDbEntity
8
0
100
AcDbLine
10
34.688932198285855
20
-131.31017579155804
30
0
11
34.688932198285855
21
-134.55753051296875
31
0
0
LINE
5
170
100
AcDbEntity
8
0
100
AcDbLine
10
85.239976288081721
20
-134.55753051296875
30
0
11
85.239976288081721
21
-131.31017579155807
31
0
0
SPLINE
5
171
100
AcDbEntity
8
0
100
AcDbSpline
70
0
71
3
72
17
73
13
74
0
42
0.000000001
43
0.0000000001
44
0.0000000001
40
0
40
0
40
0
40
0
40
1
40
1
40
1
40
2
40
2
40
2
40
3
40
3
40
3
40
4
40
4
40
4
40
4
10
54.964781870736658
20
-84.224678858884587
30
0
10
53.859917176701934
20
-84.224678858884587
30
0
10
52.964531921767339
20
-83.329293581330788
30
0
10
52.964531921767339
20
-82.224816914939851
30
0
10
52.964531921767339
20
-81.120304970771485
30
0
10
53.859917176701934
20
-80.224919693217686
30
0
10
54.964781870736658
20
-80.224919693217686
30
0
10
56.06926108476064
20
-80.224919693217686
30
0
10
56.964290986391653
20
-81.120304970771485
30
0
10
56.964290986391653
20
-82.224816914939851
30
0
10
56.964290986391653
20
-83.329293581330788
30
0
10
56.06926108476064
20
-84.224678858884587
30
0
10
54.964781870736658
20
-84.224678858884587
30
0
0
LINE
5
172
100
AcDbEntity
8
0
100
AcDbLine
10
85.239976288081721
20
-131.31017579155807
30
0
11
87.670156503860426
21
-131.31017579155807
31
0
0
LINE
5
173
100
AcDbEntity
8
0
100
AcDbLine
10
15.239976305581884
20
-134.55753051296875
30
0
11
15.239976305581884
21
-131.31017579155804
31
0
0
SPLINE
5
174
100
AcDbEntity
8
0
100
AcDbSpline
70
0
71
3
72
11
73
7
74
0
42
0.000000001
43
0.0000000001
44
0.0000000001
40
0
40
0
40
0
40
0
40
1
40
1
40
1
40
2
40
2
40
2
40
2
10
54.642466462292354
20
-132.03019523582284
30
0
10
55.197809225902176
20
-129.38573773648315
30
0
10
57.347213615510768
20
-127.43374773697185
30
0
10
59.964792031131864
20
-127.43374773697185
30
0
10
62.618207369925322
20
-127.43374773697185
30
0
10
64.851325924064824
20
-129.33684273649536
30
0
10
65.370156188606117
20
-131.98680356916654
30
0
0
SPLINE
5
175
100
AcDbEntity
8
0
100
AcDbSpline
70
0
71
3
72
8
73
4
74
0
42
0.000000001
43
0.0000000001
44
0.0000000001
40
3
40
3
40
3
40
3
40
4
40
4
40
4
40
4
10
24.964368124489305
20
-118.6661530425537
30
0
10
25.82960442640141
20
-118.70215431412321
30
0
10
26.51448986068392
20
-119.38721200329452
30
0
10
26.51448986068392
20
-120.21627477874831
30
0
0
SPLINE
5
176
100
AcDbEntity
8
0
100
AcDbSpline
70
0
71
3
72
14
73
10
74
0
42
0.000000001
43
0.0000000001
44
0.0000000001
40
0
40
0
40
0
40
0
40
1
40
1
40
1
40
2
40
2
40
2
40
3
40
3
40
3
40
3
10
26.51448986068392
20
-120.21627477874831
30
0
10
26.51448986068392
20
-121.04533755420138
30
0
10
25.82960442640141
20
-121.76639651494216
30
0
10
24.964368124489305
20
-121.76639651494216
30
0
10
24.135305349036138
20
-121.76639651494216
30
0
10
23.414590898070379
20
-121.08133882577161
30
0
10
23.414590898070379
20
-120.21627477874831
30
0
10
23.414590898070379
20
-119.38721200329452
30
0
10
24.099476332353198
20
-118.6661530425537
30
0
10
24.964368124489305
20
-118.6661530425537
30
0
0
LINE
5
177
100
AcDbEntity
8
0
100
AcDbLine
10
65.370156188606117
20
-131.98680356916654
30
0
11
67.289055584095408
21
-131.98680356916654
31
0
0
SPLINE
5
178
100
AcDbEntity
8
0
100
AcDbSpline
70
0
71
3
72
17
73
13
74
0
42
0.000000001
43
0.0000000001
44
0.0000000001
40
0
40
0
40
0
40
0
40
1
40
1
40
1
40
2
40
2
40
2
40
3
40
3
40
3
40
4
40
4
40
4
40
4
10
59.964280528231669
20
-87.223289969246665
30
0
10
58.859448438042151
20
-87.223289969246665
30
0
10
57.964063183107555
20
-86.327904691692154
30
0
10
57.964063183107555
20
-85.223428025301345
30
0
10
57.964063183107555
20
-84.118916081132966
30
0
10
58.859448438042151
20
-83.223530803579166
30
0
10
59.964280528231669
20
-83.223530803579166
30
0
10
61.068789770566056
20
-83.223530803579166
30
0
10
61.964177749954537
20
-84.118916081132966
30
0
10
61.964177749954537
20
-85.223428025301345
30
0
10
61.964177749954537
20
-86.327904691692154
30
0
10
61.068789770566056
20
-87.223289969246665
30
0
10
59.964280528231669
20
-87.223289969246665
30
0
0
SPLINE
5
179
100
AcDbEntity
8
0
100
AcDbSpline
70
0
71
3
72
17
73
13
74
0
42
0.000000001
43
0.0000000001
44
0.0000000001
40
0
40
0
40
0
40
0
40
1
40
1
40
1
40
2
40
2
40
2
40
3
40
3
40
3
40
4
40
4
40
4
40
4
10
59.964280528231669
20
-81.226067748523093
30
0
10
58.859448438042151
20
-81.226067748523093
30
0
10
57.964063183107555
20
-80.330682470969293
30
0
10
57.964063183107555
20
-79.226205804578484
30
0
10
57.964063183107555
20
-78.12169386041009
30
0
10
58.859448438042151
20
-77.226308582856234
30
0
10
59.964280528231669
20
-77.226308582856234
30
0
10
61.068789770566056
20
-77.226308582856234
30
0
10
61.964177749954537
20
-78.12169386041009
30
0
10
61.964177749954537
20
-79.226205804578484
30
0
10
61.964177749954537
20
-80.330682470969293
30
0
10
61.068789770566056
20
-81.226067748523093
30
0
10
59.964280528231669
20
-81.226067748523093
30
0
0
SPLINE
5
180
100
AcDbEntity
8
0
100
AcDbSpline
70
0
71
3
72
11
73
7
74
0
42
0.000000001
43
0.0000000001
44
0.0000000001
40
9
40
9
40
9
40
9
40
10
40
10
40
10
40
11
40
11
40
11
40
11
10
100.45076590002203
20
-133.72864384650885
30
0
10
100.09248479805144
20
-136.3276282903031
30
0
10
97.753956246601135
20
-138.43395856755487
30
0
10
94.964792022381488
20
-138.43395856755487
30
0
10
92.175657777804432
20
-138.43395856755487
30
0
10
89.87226589212429
20
-136.32900412363659
30
0
10
89.513279234616192
20
-133.7141799576232
30
0
0
LINE
5
181
100
AcDbEntity
8
0
100
AcDbLine
10
15.239976305581884
20
-131.31017579155804
30
0
11
17.670156521360592
21
-131.31017579155804
31
0
0
LINE
5
182
100
AcDbEntity
8
0
100
AcDbLine
10
17.640170411014488
20
-133.71280412429027
30
0
11
17.640170411014488
21
-134.55753051296875
31
0
0
SPLINE
5
183
100
AcDbEntity
8
0
100
AcDbSpline
70
0
71
3
72
11
73
7
74
0
42
0.000000001
43
0.0000000001
44
0.0000000001
40
0
40
0
40
0
40
0
40
1
40
1
40
1
40
2
40
2
40
2
40
2
10
19.642466471042759
20
-132.03019523582284
30
0
10
20.19780923465256
20
-129.38573773648315
30
0
10
22.34721362426113
20
-127.43374773697185
30
0
10
24.96479203988164
20
-127.43374773697185
30
0
10
27.618207378675102
20
-127.43374773697185
30
0
10
29.851325932814913
20
-129.33684273649536
30
0
10
30.370156197356227
20
-131.98680356916654
30
0
0
SPLINE
5
184
100
AcDbEntity
8
0
100
AcDbSpline
70
0
71
3
72
17
73
13
74
0
42
0.000000001
43
0.0000000001
44
0.0000000001
40
0
40
0
40
0
40
0
40
1
40
1
40
1
40
2
40
2
40
2
40
3
40
3
40
3
40
4
40
4
40
4
40
4
10
59.964280528231669
20
-75.228845527800232
30
0
10
58.859448438042151
20
-75.228845527800232
30
0
10
57.964063183107555
20
-74.333460250246432
30
0
10
57.964063183107555
20
-73.228983583855495
30
0
10
57.964063183107555
20
-72.124471639687215
30
0
10
58.859448438042151
20
-71.229086362133359
30
0
10
59.964280528231669
20
-71.229086362133359
30
0
10
61.068789770566056
20
-71.229086362133359
30
0
10
61.964177749954537
20
-72.124471639687215
30
0
10
61.964177749954537
20
-73.228983583855495
30
0
10
61.964177749954537
20
-74.333460250246432
30
0
10
61.068789770566056
20
-75.228845527800232
30
0
10
59.964280528231669
20
-75.228845527800232
30
0
0
SPLINE
5
185
100
AcDbEntity
8
0
100
AcDbSpline
70
0
71
3
72
11
73
7
74
0
42
0.000000001
43
0.0000000001
44
0.0000000001
40
9
40
9
40
9
40
9
40
10
40
10
40
10
40
11
40
11
40
11
40
11
10
65.450765908772539
20
-133.72864384650882
30
0
10
65.092484806801238
20
-136.3276282903031
30
0
10
62.753956255350928
20
-138.43395856755484
30
0
10
59.964792031131864
20
-138.43395856755484
30
0
10
57.175657786554169
20
-138.43395856755484
30
0
10
54.872265900874162
20
-136.32900412363659
30
0
10
54.513279243365965
20
-133.71417995762317
30
0
0
ENDSEC
0
SECTION
2
OBJECTS
0
DICTIONARY
5
C
100
AcDbDictionary
3
ACAD_GROUP
350
D
3
ACAD_MLINESTYLE
350
17
0
DICTIONARY
5
D
100
AcDbDictionary
0
DICTIONARY
5
1A
330
C
100
AcDbDictionary
0
DICTIONARY
5
17
100
AcDbDictionary
0
ENDSEC
0
EOF
