0
SECTION
2
HEADER
9
$INSUNITS
70
4
9
$ACADVER
1
AC1014
9
$HANDSEED
5
FFFF
0
ENDSEC
0
SECTION
2
TABLES
0
TABLE
2
VPORT
5
8
100
AcDbSymbolTable
0
ENDTAB
0
TABLE
2
LTYPE
5
5
100
AcDbSymbolTable
0
LTYPE
5
14
100
AcDbSymbolTableRecord
100
AcDbLinetypeTableRecord
2
BYBLOCK
70
0
0
LTYPE
5
15
100
AcDbSymbolTableRecord
100
AcDbLinetypeTableRecord
2
BYLAYER
70
0
0
LTYPE
5
16
100
AcDbSymbolTableRecord
100
AcDbLinetypeTableRecord
2
DASHED
70
0
3
Dashed __ __ __ __ __ __ __ __ __ __ __ __ __ _
72
65
73
2
40
0.75
49
0.5
74
0
49
-0.25
74
0
0
ENDTAB
0
TABLE
2
LAYER
5
2
100
AcDbSymbolTable
70
2
0
LAYER
5
50
100
AcDbSymbolTableRecord
100
AcDbLayerTableRecord
2
0
70
0
62
7
6
CONTINUOUS
0
ENDTAB
0
TABLE
2
STYLE
5
3
100
AcDbSymbolTable
70
1
0
STYLE
5
11
100
AcDbSymbolTableRecord
100
AcDbTextStyleTableRecord
2
STANDARD
70
0
0
ENDTAB
0
TABLE
2
VIEW
5
6
100
AcDbSymbolTable
70
0
0
ENDTAB
0
TABLE
2
UCS
5
7
100
AcDbSymbolTable
70
0
0
ENDTAB
0
TABLE
2
APPID
5
9
100
AcDbSymbolTable
70
2
0
APPID
5
12
100
AcDbSymbolTableRecord
100
AcDbRegAppTableRecord
2
ACAD
70
0
0
ENDTAB
0
TABLE
2
DIMSTYLE
5
A
100
AcDbSymbolTable
70
1
0
ENDTAB
0
TABLE
2
BLOCK_RECORD
5
1
100
AcDbSymbolTable
70
1
0
BLOCK_RECORD
5
1F
100
AcDbSymbolTableRecord
100
AcDbBlockTableRecord
2
*MODEL_SPACE
0
BLOCK_RECORD
5
1B
100
AcDbSymbolTableRecord
100
AcDbBlockTableRecord
2
*PAPER_SPACE
0
ENDTAB
0
ENDSEC
0
SECTION
2
BLOCKS
0
BLOCK
5
20
100
AcDbEntity
100
AcDbBlockBegin
2
*MODEL_SPACE
0
ENDBLK
5
21
100
AcDbEntity
100
AcDbBlockEnd
0
BLOCK
5
1C
100
AcDbEntity
100
AcDbBlockBegin
2
*PAPER_SPACE
0
ENDBLK
5
1D
100
AcDbEntity
100
AcDbBlockEnd
0
ENDSEC
0
SECTION
2
ENTITIES
0
LWPOLYLINE
5
100
100
AcDbEntity
8
0
100
AcDbPolyline
90
4
70
1
43
0.0
10
145.44994373291414
20
-155.04995968347737
10
145.44994373290746
20
-162.89995968347736
10
139.99994372564407
20
-162.89995968347736
10
139.99994372565078
20
-155.0499596834772
0
LWPOLYLINE
5
101
100
AcDbEntity
8
0
100
AcDbPolyline
90
4
70
1
43
0.0
10
14.549943725649408
20
-162.90027805091384
10
14.54994372565055
20
-155.05027805091385
10
19.999943725649409
20
-155.05027805091385
10
19.999943725649402
20
-162.90027805091384
0
LWPOLYLINE
5
102
100
AcDbEntity
8
0
100
AcDbPolyline
90
4
70
1
43
0.0
10
-1.8369699318754848e-14
20
-299.99995641187729
10
159.99988745840002
20
-299.99995641187729
10
159.9998874584
20
2.2670755376138357e-11
10
6.6613381477509392e-15
20
-4.4408920985006262e-15
0
LWPOLYLINE
5
103
100
AcDbEntity
8
0
100
AcDbPolyline
90
4
70
1
43
0.0
10
139.99994372935973
20
-24.750278051277327
10
139.99994372936089
20
-16.900278051277326
10
145.44994373662428
20
-16.900278051277319
10
145.44994373662308
20
-24.750278051277334
0
LWPOLYLINE
5
104
100
AcDbEntity
8
0
100
AcDbPolyline
90
4
70
1
43
0.0
10
14.549943722096623
20
-16.90027805089802
10
19.99994372935992
20
-16.900278050929607
10
19.999943729358783
20
-24.750278050929605
10
14.549943722095467
20
-24.750278050898864
0
SPLINE
5
105
100
AcDbEntity
8
0
100
AcDbSpline
70
0
71
3
72
17
73
13
74
0
42
0.000000001
43
0.0000000001
44
0.0000000001
40
0
40
0
40
0
40
0
40
1
40
1
40
1
40
2
40
2
40
2
40
3
40
3
40
3
40
4
40
4
40
4
40
4
10
111.00976043782154
20
-220.40756106246405
30
0
10
111.00976043792232
20
-219.30313095737438
30
0
10
111.90503944768125
20
-218.40754538671905
30
0
10
113.0097592690727
20
-218.40754538681784
30
0
10
114.11419806127799
20
-218.40754538691738
30
0
10
115.00976043500461
20
-219.30313095773374
30
0
10
115.00976043490709
20
-220.40756106282345
30
0
10
115.00976043480702
20
-221.51227339025584
30
0
10
114.11419806092063
20
-222.40754538052994
30
0
10
113.00975926871523
20
-222.40754538043052
30
0
10
111.90503944732313
20
-222.40754538033161
30
0
10
111.00976043772405
20
-221.51227338989642
30
0
10
111.00976043782154
20
-220.40756106246405
30
0
0
SPLINE
5
106
100
AcDbEntity
8
0
100
AcDbSpline
70
0
71
3
72
17
73
13
74
0
42
0.000000001
43
0.0000000001
44
0.0000000001
40
0
40
0
40
0
40
0
40
1
40
1
40
1
40
2
40
2
40
2
40
3
40
3
40
3
40
4
40
4
40
4
40
4
10
111.00976043782154
20
-220.40756106246405
30
0
10
111.00976043792232
20
-219.30313095737438
30
0
10
111.90503944768125
20
-218.40754538671905
30
0
10
113.0097592690727
20
-218.40754538681784
30
0
10
114.11419806127799
20
-218.40754538691738
30
0
10
115.00976043500461
20
-219.30313095773374
30
0
10
115.00976043490709
20
-220.40756106282345
30
0
10
115.00976043480702
20
-221.51227339025584
30
0
10
114.11419806092063
20
-222.40754538052994
30
0
10
113.00975926871523
20
-222.40754538043052
30
0
10
111.90503944732313
20
-222.40754538033161
30
0
10
111.00976043772405
20
-221.51227338989642
30
0
10
111.00976043782154
20
-220.40756106246405
30
0
0
SPLINE
5
107
100
AcDbEntity
8
0
100
AcDbSpline
70
0
71
3
72
17
73
13
74
0
42
0.000000001
43
0.0000000001
44
0.0000000001
40
0
40
0
40
0
40
0
40
1
40
1
40
1
40
2
40
2
40
2
40
3
40
3
40
3
40
4
40
4
40
4
40
4
10
111.00976043590734
20
-243.86038196462292
30
0
10
111.00976043600741
20
-242.75602650556547
30
0
10
111.90503944576645
20
-241.86047603826415
30
0
10
113.00975926715853
20
-241.86047603836363
30
0
10
114.11419805936319
20
-241.86047603846305
30
0
10
115.00976043308981
20
-242.75602650592475
30
0
10
115.00976043299289
20
-243.86038196498222
30
0
10
115.00976043289211
20
-244.96476878084945
30
0
10
114.11419805900638
20
-245.86047603219569
30
0
10
113.00975926680042
20
-245.86047603209633
30
0
10
111.90503944540905
20
-245.86047603199742
30
0
10
111.00976043580921
20
-244.96476878049003
30
0
10
111.00976043590734
20
-243.86038196462292
30
0
0
SPLINE
5
108
100
AcDbEntity
8
0
100
AcDbSpline
70
0
71
3
72
17
73
13
74
0
42
0.000000001
43
0.0000000001
44
0.0000000001
40
0
40
0
40
0
40
0
40
1
40
1
40
1
40
2
40
2
40
2
40
3
40
3
40
3
40
4
40
4
40
4
40
4
10
111.00976043590734
20
-243.86038196462292
30
0
10
111.00976043600741
20
-242.75602650556547
30
0
10
111.90503944576645
20
-241.86047603826415
30
0
10
113.00975926715853
20
-241.86047603836363
30
0
10
114.11419805936319
20
-241.86047603846305
30
0
10
115.00976043308981
20
-242.75602650592475
30
0
10
115.00976043299289
20
-243.86038196498222
30
0
10
115.00976043289211
20
-244.96476878084945
30
0
10
114.11419805900638
20
-245.86047603219569
30
0
10
113.00975926680042
20
-245.86047603209633
30
0
10
111.90503944540905
20
-245.86047603199742
30
0
10
111.00976043580921
20
-244.96476878049003
30
0
10
111.00976043590734
20
-243.86038196462292
30
0
0
SPLINE
5
109
100
AcDbEntity
8
0
100
AcDbSpline
70
0
71
3
72
17
73
13
74
0
42
0.000000001
43
0.0000000001
44
0.0000000001
40
0
40
0
40
0
40
0
40
1
40
1
40
1
40
2
40
2
40
2
40
3
40
3
40
3
40
4
40
4
40
4
40
4
10
45.012076297269779
20
-220.40756105707641
30
0
10
45.012076297366676
20
-219.30313095198795
30
0
10
45.9075071743395
20
-218.40754538133137
30
0
10
47.012061966973292
20
-218.40754538143077
30
0
10
48.116648117621224
20
-218.40754538152964
30
0
10
49.012076294455404
20
-219.30313095234726
30
0
10
49.012076294354976
20
-220.40756105743577
30
0
10
49.012076294258399
20
-221.51227338486814
30
0
10
48.1166481172638
20
-222.40754537514226
30
0
10
47.012061966612649
20
-222.40754537504341
30
0
10
45.907507173982374
20
-222.40754537494394
30
0
10
45.012076297169344
20
-221.51227338450872
30
0
10
45.012076297269779
20
-220.40756105707641
30
0
0
SPLINE
5
110
100
AcDbEntity
8
0
100
AcDbSpline
70
0
71
3
72
17
73
13
74
0
42
0.000000001
43
0.0000000001
44
0.0000000001
40
0
40
0
40
0
40
0
40
1
40
1
40
1
40
2
40
2
40
2
40
3
40
3
40
3
40
4
40
4
40
4
40
4
10
45.012076297269779
20
-220.40756105707641
30
0
10
45.012076297366676
20
-219.30313095198795
30
0
10
45.9075071743395
20
-218.40754538133137
30
0
10
47.012061966973292
20
-218.40754538143077
30
0
10
48.116648117621224
20
-218.40754538152964
30
0
10
49.012076294455404
20
-219.30313095234726
30
0
10
49.012076294354976
20
-220.40756105743577
30
0
10
49.012076294258399
20
-221.51227338486814
30
0
10
48.1166481172638
20
-222.40754537514226
30
0
10
47.012061966612649
20
-222.40754537504341
30
0
10
45.907507173982374
20
-222.40754537494394
30
0
10
45.012076297169344
20
-221.51227338450872
30
0
10
45.012076297269779
20
-220.40756105707641
30
0
0
SPLINE
5
111
100
AcDbEntity
8
0
100
AcDbSpline
70
0
71
3
72
17
73
13
74
0
42
0.000000001
43
0.0000000001
44
0.0000000001
40
0
40
0
40
0
40
0
40
1
40
1
40
1
40
2
40
2
40
2
40
3
40
3
40
3
40
4
40
4
40
4
40
4
10
45.01207629535525
20
-243.86038195935581
30
0
10
45.012076295452147
20
-242.75602650029779
30
0
10
45.907507172424964
20
-241.86047603299716
30
0
10
47.012061965058756
20
-241.86047603309657
30
0
10
48.11664811570671
20
-241.86047603319537
30
0
10
49.012076292540883
20
-242.75602650065707
30
0
10
49.012076292440447
20
-243.86038195971523
30
0
10
49.012076292343885
20
-244.96476877558234
30
0
10
48.116648115348966
20
-245.86047602692872
30
0
10
47.012061964698134
20
-245.86047602682922
30
0
10
45.90750717206754
20
-245.86047602673045
30
0
10
45.012076295254815
20
-244.96476877522301
30
0
10
45.01207629535525
20
-243.86038195935581
30
0
0
SPLINE
5
112
100
AcDbEntity
8
0
100
AcDbSpline
70
0
71
3
72
17
73
13
74
0
42
0.000000001
43
0.0000000001
44
0.0000000001
40
0
40
0
40
0
40
0
40
1
40
1
40
1
40
2
40
2
40
2
40
3
40
3
40
3
40
4
40
4
40
4
40
4
10
45.01207629535525
20
-243.86038195935581
30
0
10
45.012076295452147
20
-242.75602650029779
30
0
10
45.907507172424964
20
-241.86047603299716
30
0
10
47.012061965058756
20
-241.86047603309657
30
0
10
48.11664811570671
20
-241.86047603319537
30
0
10
49.012076292540883
20
-242.75602650065707
30
0
10
49.012076292440447
20
-243.86038195971523
30
0
10
49.012076292343885
20
-244.96476877558234
30
0
10
48.116648115348966
20
-245.86047602692872
30
0
10
47.012061964698134
20
-245.86047602682922
30
0
10
45.90750717206754
20
-245.86047602673045
30
0
10
45.012076295254815
20
-244.96476877522301
30
0
10
45.01207629535525
20
-243.86038195935581
30
0
0
SPLINE
5
113
100
AcDbEntity
8
0
100
AcDbSpline
70
0
71
3
72
17
73
13
74
0
42
0.000000001
43
0.0000000001
44
0.0000000001
40
0
40
0
40
0
40
0
40
1
40
1
40
1
40
2
40
2
40
2
40
3
40
3
40
3
40
4
40
4
40
4
40
4
10
134.8501638356766
20
-272.99367361161222
30
0
10
134.85016383577673
20
-271.88924350754087
30
0
10
135.74544284573966
20
-270.99365793771079
30
0
10
136.8501638348508
20
-270.99365793781027
30
0
10
137.95460259940458
20
-270.99365793790969
30
0
10
138.85016383376129
20
-271.88924350790023
30
0
10
138.85016383366118
20
-272.99367361197159
30
0
10
138.85016383356432
20
-274.09807235800378
30
0
10
137.95460259904399
20
-274.99365792783397
30
0
10
136.85016383449016
20
-274.99365792773506
30
0
10
135.7454428453791
20
-274.99365792763558
30
0
10
134.85016383557843
20
-274.09807235764441
30
0
10
134.8501638356766
20
-272.99367361161222
30
0
0
SPLINE
5
114
100
AcDbEntity
8
0
100
AcDbSpline
70
0
71
3
72
17
73
13
74
0
42
0.000000001
43
0.0000000001
44
0.0000000001
40
0
40
0
40
0
40
0
40
1
40
1
40
1
40
2
40
2
40
2
40
3
40
3
40
3
40
4
40
4
40
4
40
4
10
84.850107071848157
20
-272.99367360762079
30
0
10
84.850107071948884
20
-271.88924350354955
30
0
10
85.745692643968496
20
-270.99365793372004
30
0
10
86.850122750546959
20
-270.99365793381952
30
0
10
87.954552857123474
20
-270.99365793391888
30
0
10
88.85010707094861
20
-271.8892435039088
30
0
10
88.85010707084848
20
-272.99367360798021
30
0
10
88.850107070747768
20
-274.09807235401234
30
0
10
87.95455285676347
20
-274.9936579238431
30
0
10
86.850122750189513
20
-274.99365792374431
30
0
10
85.745692643611704
20
-274.99365792364483
30
0
10
84.850107071751239
20
-274.09807235365298
30
0
10
84.850107071848157
20
-272.99367360762079
30
0
0
SPLINE
5
115
100
AcDbEntity
8
0
100
AcDbSpline
70
0
71
3
72
17
73
13
74
0
42
0.000000001
43
0.0000000001
44
0.0000000001
40
0
40
0
40
0
40
0
40
1
40
1
40
1
40
2
40
2
40
2
40
3
40
3
40
3
40
4
40
4
40
4
40
4
10
33.850295039627674
20
-272.99367360355052
30
0
10
33.850295039727783
20
-271.88924349947979
30
0
10
34.745723821559984
20
-270.99365792964971
30
0
10
35.850310718328714
20
-270.99365792974845
30
0
10
36.9548662570567
20
-270.99365792984804
30
0
10
37.850295038727808
20
-271.88924349983915
30
0
10
37.850295038627372
20
-272.99367360390983
30
0
10
37.850295038530803
20
-274.0980723499427
30
0
10
36.954866256698622
20
-274.99365791977277
30
0
10
35.850310717968085
20
-274.99365791967341
30
0
10
34.745723821202219
20
-274.99365791957382
30
0
10
33.850295039530785
20
-274.09807234958333
30
0
10
33.850295039627674
20
-272.99367360355052
30
0
0
SPLINE
5
116
100
AcDbEntity
8
0
100
AcDbSpline
70
0
71
3
72
17
73
13
74
0
42
0.000000001
43
0.0000000001
44
0.0000000001
40
0
40
0
40
0
40
0
40
1
40
1
40
1
40
2
40
2
40
2
40
3
40
3
40
3
40
4
40
4
40
4
40
4
10
122.15016438268125
20
-272.99367361059836
30
0
10
122.15016438278138
20
-271.88924350652701
30
0
10
123.04544358697328
20
-270.99365793669739
30
0
10
124.15016481575506
20
-270.9936579367963
30
0
10
125.25460381991547
20
-270.99365793689509
30
0
10
126.15016438178176
20
-271.88924350688632
30
0
10
126.15016438168105
20
-272.99367361095756
30
0
10
126.15016438158413
20
-274.0980723569898
30
0
10
125.25460381955746
20
-274.99365792681931
30
0
10
124.15016481539503
20
-274.99365792672108
30
0
10
123.04544358661585
20
-274.99365792662172
30
0
10
122.15016438258445
20
-274.09807235663038
30
0
10
122.15016438268125
20
-272.99367361059836
30
0
0
SPLINE
5
117
100
AcDbEntity
8
0
100
AcDbSpline
70
0
71
3
72
17
73
13
74
0
42
0.000000001
43
0.0000000001
44
0.0000000001
40
0
40
0
40
0
40
0
40
1
40
1
40
1
40
2
40
2
40
2
40
3
40
3
40
3
40
4
40
4
40
4
40
4
10
134.85016383669245
20
-260.29399535534645
30
0
10
134.85016383678862
20
-259.1895966093137
30
0
10
135.74544284675289
20
-258.29401103948362
30
0
10
136.85016383586341
20
-258.29401103958304
30
0
10
137.9546026004179
20
-258.29401103968189
30
0
10
138.85016383477389
20
-259.189596609673
30
0
10
138.85016383467632
20
-260.29399535570593
30
0
10
138.85016383457616
20
-261.3984254597766
30
0
10
137.95460260005729
20
-262.29401102960668
30
0
10
136.85016383550209
20
-262.29401102950789
30
0
10
135.745442846391
20
-262.29401102940841
30
0
10
134.85016383659172
20
-261.39842545941724
30
0
10
134.85016383669245
20
-260.29399535534645
30
0
0
SPLINE
5
118
100
AcDbEntity
8
0
100
AcDbSpline
70
0
71
3
72
17
73
13
74
0
42
0.000000001
43
0.0000000001
44
0.0000000001
40
0
40
0
40
0
40
0
40
1
40
1
40
1
40
2
40
2
40
2
40
3
40
3
40
3
40
4
40
4
40
4
40
4
10
72.150107395854107
20
-272.99367360660818
30
0
10
72.150107395951011
20
-271.88924350253689
30
0
10
73.045692967975114
20
-270.99365793270613
30
0
10
74.150123074552582
20
-270.99365793280555
30
0
10
75.254553181126539
20
-270.99365793290502
30
0
10
76.150107394951391
20
-271.88924350289557
30
0
10
76.150107394853833
20
-272.99367360696692
30
0
10
76.150107394753732
20
-274.09807235299837
30
0
10
75.25455318076942
20
-274.99365792282919
30
0
10
74.150123074191953
20
-274.99365792273039
30
0
10
73.045692967617356
20
-274.99365792263086
30
0
10
72.150107395753693
20
-274.09807235263969
30
0
10
72.150107395854107
20
-272.99367360660818
30
0
0
SPLINE
5
119
100
AcDbEntity
8
0
100
AcDbSpline
70
0
71
3
72
17
73
13
74
0
42
0.000000001
43
0.0000000001
44
0.0000000001
40
0
40
0
40
0
40
0
40
1
40
1
40
1
40
2
40
2
40
2
40
3
40
3
40
3
40
4
40
4
40
4
40
4
10
21.150295364202812
20
-272.9936736025366
30
0
10
21.150295364303247
20
-271.88924349846582
30
0
10
22.045724145908288
20
-270.99365792863574
30
0
10
23.15031104239468
20
-270.99365792873459
30
0
10
24.254866580845444
20
-270.99365792883412
30
0
10
25.150295362290041
20
-271.88924349882535
30
0
10
25.150295362189937
20
-272.99367360289602
30
0
10
25.150295362092724
20
-274.09807234892878
30
0
10
24.254866580488009
20
-274.99365791875891
30
0
10
23.150311042036922
20
-274.99365791865938
30
0
10
22.045724145547645
20
-274.99365791856002
30
0
10
21.150295364105929
20
-274.09807234856936
30
0
10
21.150295364202812
20
-272.9936736025366
30
0
0
SPLINE
5
120
100
AcDbEntity
8
0
100
AcDbSpline
70
0
71
3
72
17
73
13
74
0
42
0.000000001
43
0.0000000001
44
0.0000000001
40
0
40
0
40
0
40
0
40
1
40
1
40
1
40
2
40
2
40
2
40
3
40
3
40
3
40
4
40
4
40
4
40
4
10
21.150295365218639
20
-260.29399534627157
30
0
10
21.150295365315856
20
-259.18959660023876
30
0
10
22.045724146920882
20
-258.29401103040863
30
0
10
23.150311043407285
20
-258.29401103050748
30
0
10
24.254866581857723
20
-258.29401103060684
30
0
10
25.150295363302963
20
-259.18959660059818
30
0
10
25.150295363202872
20
-260.29399534663094
30
0
10
25.150295363105016
20
-261.39842545070167
30
0
10
24.254866581499975
20
-262.29401102053174
30
0
10
23.150311043050174
20
-262.29401102043227
30
0
10
22.045724146563465
20
-262.29401102033347
30
0
10
21.150295365118854
20
-261.3984254503423
30
0
10
21.150295365218639
20
-260.29399534627157
30
0
0
SPLINE
5
121
100
AcDbEntity
8
0
100
AcDbSpline
70
0
71
3
72
17
73
13
74
0
42
0.000000001
43
0.0000000001
44
0.0000000001
40
0
40
0
40
0
40
0
40
1
40
1
40
1
40
2
40
2
40
2
40
3
40
3
40
3
40
4
40
4
40
4
40
4
10
12.000238738768147
20
-289.9997880260911
30
0
10
12.000238738768147
20
-291.1043575254148
30
0
10
11.104808238592023
20
-291.99978802559065
30
0
10
10.000238739267981
20
-291.99978802559065
30
0
10
8.8956692399442421
20
-291.99978802559065
30
0
10
8.0002387397681183
20
-291.1043575254148
30
0
10
8.0002387397681183
20
-289.9997880260911
30
0
10
8.0002387397681201
20
-288.89521852676677
30
0
10
8.8956692399442456
20
-287.99978802659092
30
0
10
10.000238739267983
20
-287.99978802659092
30
0
10
11.104808238592025
20
-287.99978802659092
30
0
10
12.000238738768147
20
-288.89521852676677
30
0
10
12.000238738768147
20
-289.9997880260911
30
0
0
SPLINE
5
122
100
AcDbEntity
8
0
100
AcDbSpline
70
0
71
3
72
17
73
13
74
0
42
0.000000001
43
0.0000000001
44
0.0000000001
40
0
40
0
40
0
40
0
40
1
40
1
40
1
40
2
40
2
40
2
40
3
40
3
40
3
40
4
40
4
40
4
40
4
10
152.00023870376711
20
-289.99978802609115
30
0
10
152.00023870376711
20
-291.10435752541485
30
0
10
151.10480820359072
20
-291.9997880255907
30
0
10
150.00023870426762
20
-291.9997880255907
30
0
10
148.89566920494391
20
-291.9997880255907
30
0
10
148.00023870476741
20
-291.10435752541485
30
0
10
148.00023870476741
20
-289.99978802609115
30
0
10
148.00023870476741
20
-288.89521852676683
30
0
10
148.89566920494391
20
-287.99978802659098
30
0
10
150.00023870426762
20
-287.99978802659098
30
0
10
151.10480820359072
20
-287.99978802659098
30
0
10
152.00023870376711
20
-288.89521852676683
30
0
10
152.00023870376711
20
-289.99978802609115
30
0
0
SPLINE
5
123
100
AcDbEntity
8
0
100
AcDbSpline
70
0
71
3
72
17
73
13
74
0
42
0.000000001
43
0.0000000001
44
0.0000000001
40
0
40
0
40
0
40
0
40
1
40
1
40
1
40
2
40
2
40
2
40
3
40
3
40
3
40
4
40
4
40
4
40
4
10
11.9999437336
20
-9.9999782469773333
30
0
10
11.9999437336
20
-11.104547746301066
30
0
10
11.104513233423873
20
-11.999978246476871
30
0
10
9.9999437340998281
20
-11.999978246476871
30
0
10
8.8953742347760851
20
-11.999978246476871
30
0
10
7.9999437345999569
20
-11.104547746301066
30
0
10
7.9999437345999542
20
-9.9999782469773351
30
0
10
7.9999437345999542
20
-8.8954087476529544
30
0
10
8.8953742347760834
20
-7.999978247477145
30
0
10
9.9999437340998263
20
-7.999978247477145
30
0
10
11.104513233423873
20
-7.9999782474771433
30
0
10
11.9999437336
20
-8.8954087476529526
30
0
10
11.9999437336
20
-9.9999782469773333
30
0
0
SPLINE
5
124
100
AcDbEntity
8
0
100
AcDbSpline
70
0
71
3
72
17
73
13
74
0
42
0.000000001
43
0.0000000001
44
0.0000000001
40
0
40
0
40
0
40
0
40
1
40
1
40
1
40
2
40
2
40
2
40
3
40
3
40
3
40
4
40
4
40
4
40
4
10
151.99994369859999
20
-9.9999782344773305
30
0
10
151.99994369859999
20
-11.104547733801059
30
0
10
151.1045131984236
20
-11.999978233976867
30
0
10
149.9999436991005
20
-11.999978233976867
30
0
10
148.8953741997768
20
-11.999978233976867
30
0
10
147.99994369960029
20
-11.104547733801059
30
0
10
147.99994369960029
20
-9.9999782344773305
30
0
10
147.99994369960029
20
-8.8954087351529481
30
0
10
148.8953741997768
20
-7.9999782349771396
30
0
10
149.9999436991005
20
-7.9999782349771396
30
0
10
151.1045131984236
20
-7.9999782349771396
30
0
10
151.99994369859999
20
-8.8954087351529481
30
0
10
151.99994369859999
20
-9.9999782344773305
30
0
0
ENDSEC
0
SECTION
2
OBJECTS
0
DICTIONARY
5
C
100
AcDbDictionary
3
ACAD_GROUP
350
D
3
ACAD_MLINESTYLE
350
17
0
DICTIONARY
5
D
100
AcDbDictionary
0
DICTIONARY
5
1A
330
C
100
AcDbDictionary
0
DICTIONARY
5
17
100
AcDbDictionary
0
ENDSEC
0
EOF
