0
SECTION
2
HEADER
9
$INSUNITS
70
4
9
$ACADVER
1
AC1014
9
$HANDSEED
5
FFFF
0
ENDSEC
0
SECTION
2
TABLES
0
TABLE
2
VPORT
5
8
100
AcDbSymbolTable
0
ENDTAB
0
TABLE
2
LTYPE
5
5
100
AcDbSymbolTable
0
LTYPE
5
14
100
AcDbSymbolTableRecord
100
AcDbLinetypeTableRecord
2
BYBLOCK
70
0
0
LTYPE
5
15
100
AcDbSymbolTableRecord
100
AcDbLinetypeTableRecord
2
BYLAYER
70
0
0
LTYPE
5
16
100
AcDbSymbolTableRecord
100
AcDbLinetypeTableRecord
2
DASHED
70
0
3
Dashed __ __ __ __ __ __ __ __ __ __ __ __ __ _
72
65
73
2
40
0.75
49
0.5
74
0
49
-0.25
74
0
0
ENDTAB
0
TABLE
2
LAYER
5
2
100
AcDbSymbolTable
70
2
0
LAYER
5
50
100
AcDbSymbolTableRecord
100
AcDbLayerTableRecord
2
0
70
0
62
7
6
CONTINUOUS
0
ENDTAB
0
TABLE
2
STYLE
5
3
100
AcDbSymbolTable
70
1
0
STYLE
5
11
100
AcDbSymbolTableRecord
100
AcDbTextStyleTableRecord
2
STANDARD
70
0
0
ENDTAB
0
TABLE
2
VIEW
5
6
100
AcDbSymbolTable
70
0
0
ENDTAB
0
TABLE
2
UCS
5
7
100
AcDbSymbolTable
70
0
0
ENDTAB
0
TABLE
2
APPID
5
9
100
AcDbSymbolTable
70
2
0
APPID
5
12
100
AcDbSymbolTableRecord
100
AcDbRegAppTableRecord
2
ACAD
70
0
0
ENDTAB
0
TABLE
2
DIMSTYLE
5
A
100
AcDbSymbolTable
70
1
0
ENDTAB
0
TABLE
2
BLOCK_RECORD
5
1
100
AcDbSymbolTable
70
1
0
BLOCK_RECORD
5
1F
100
AcDbSymbolTableRecord
100
AcDbBlockTableRecord
2
*MODEL_SPACE
0
BLOCK_RECORD
5
1B
100
AcDbSymbolTableRecord
100
AcDbBlockTableRecord
2
*PAPER_SPACE
0
ENDTAB
0
ENDSEC
0
SECTION
2
BLOCKS
0
BLOCK
5
20
100
AcDbEntity
100
AcDbBlockBegin
2
*MODEL_SPACE
0
ENDBLK
5
21
100
AcDbEntity
100
AcDbBlockEnd
0
BLOCK
5
1C
100
AcDbEntity
100
AcDbBlockBegin
2
*PAPER_SPACE
0
ENDBLK
5
1D
100
AcDbEntity
100
AcDbBlockEnd
0
ENDSEC
0
SECTION
2
ENTITIES
0
LWPOLYLINE
5
100
100
AcDbEntity
8
0
100
AcDbPolyline
90
30
70
1
43
0.0
10
8.8817841970026439e-15
20
-114.99959219349934
10
4.4408920985006262e-15
20
-30.000257492499344
10
-5.7949999999999946
20
-30.000257492499344
10
-6.7910744061018473
20
-35.000459157900004
10
-12.999543279499992
20
-35.000459157900004
10
-12.999543279499996
20
-22.500272494374411
10
2.2204460492503131e-15
20
-5.0002016654161441
10
2.2204460492503131e-15
20
-5.5511151231257827e-16
10
120.00025082740002
20
5.5511151231245304e-16
10
120.00025082740002
20
-5.0002016654161423
10
119.9998980496442
20
-5.0002016654161441
10
133.00067605129999
20
-22.500272494374411
10
133.00067605129988
20
-35.000459157849811
10
126.84553885618767
20
-35.000459157852291
10
125.79525082740003
20
-29.999259965000601
10
120.00025082740002
20
-29.999259965000604
10
120.00025082740002
20
-115.06612485559691
10
120.01206762655099
20
-115.06613142822044
10
133.00067605130002
20
-132.56209759206556
10
133.00067605130002
20
-145.06747683813072
10
126.81189477299566
20
-145.06431198806803
10
125.79525082740004
20
-139.99925996500045
10
120.00025082740004
20
-139.99925996500059
10
120.00025082740008
20
-169.99983495750001
10
1.1102230246251565e-14
20
-169.99983495749959
10
1.1102230246251565e-14
20
-139.99925996500059
10
-5.7949992422614596
20
-139.99629648917426
10
-6.8107620011956218
20
-144.99597936252445
10
-12.999543279499992
20
-144.99281451246179
10
-12.999543279499992
20
-132.48743526639663
0
LINE
5
101
100
AcDbEntity
8
0
100
AcDbLine
10
120.0008113751001
20
-29.999260031290802
30
0
11
120.00025082740002
21
-29.999259965000604
31
0
0
LINE
5
102
100
AcDbEntity
8
0
100
AcDbLine
10
120.00063888297345
20
-139.99925996500059
30
0
11
120.00025082740004
21
-139.99925996500059
31
0
0
ENDSEC
0
SECTION
2
OBJECTS
0
DICTIONARY
5
C
100
AcDbDictionary
3
ACAD_GROUP
350
D
3
ACAD_MLINESTYLE
350
17
0
DICTIONARY
5
D
100
AcDbDictionary
0
DICTIONARY
5
1A
330
C
100
AcDbDictionary
0
DICTIONARY
5
17
100
AcDbDictionary
0
ENDSEC
0
EOF
