0
SECTION
2
HEADER
9
$INSUNITS
70
4
9
$ACADVER
1
AC1014
9
$HANDSEED
5
FFFF
0
ENDSEC
0
SECTION
2
TABLES
0
TABLE
2
VPORT
5
8
100
AcDbSymbolTable
0
ENDTAB
0
TABLE
2
LTYPE
5
5
100
AcDbSymbolTable
0
LTYPE
5
14
100
AcDbSymbolTableRecord
100
AcDbLinetypeTableRecord
2
BYBLOCK
70
0
0
LTYPE
5
15
100
AcDbSymbolTableRecord
100
AcDbLinetypeTableRecord
2
BYLAYER
70
0
0
LTYPE
5
16
100
AcDbSymbolTableRecord
100
AcDbLinetypeTableRecord
2
DASHED
70
0
3
Dashed __ __ __ __ __ __ __ __ __ __ __ __ __ _
72
65
73
2
40
0.75
49
0.5
74
0
49
-0.25
74
0
0
ENDTAB
0
TABLE
2
LAYER
5
2
100
AcDbSymbolTable
70
2
0
LAYER
5
50
100
AcDbSymbolTableRecord
100
AcDbLayerTableRecord
2
0
70
0
62
7
6
CONTINUOUS
0
ENDTAB
0
TABLE
2
STYLE
5
3
100
AcDbSymbolTable
70
1
0
STYLE
5
11
100
AcDbSymbolTableRecord
100
AcDbTextStyleTableRecord
2
STANDARD
70
0
0
ENDTAB
0
TABLE
2
VIEW
5
6
100
AcDbSymbolTable
70
0
0
ENDTAB
0
TABLE
2
UCS
5
7
100
AcDbSymbolTable
70
0
0
ENDTAB
0
TABLE
2
APPID
5
9
100
AcDbSymbolTable
70
2
0
APPID
5
12
100
AcDbSymbolTableRecord
100
AcDbRegAppTableRecord
2
ACAD
70
0
0
ENDTAB
0
TABLE
2
DIMSTYLE
5
A
100
AcDbSymbolTable
70
1
0
ENDTAB
0
TABLE
2
BLOCK_RECORD
5
1
100
AcDbSymbolTable
70
1
0
BLOCK_RECORD
5
1F
100
AcDbSymbolTableRecord
100
AcDbBlockTableRecord
2
*MODEL_SPACE
0
BLOCK_RECORD
5
1B
100
AcDbSymbolTableRecord
100
AcDbBlockTableRecord
2
*PAPER_SPACE
0
ENDTAB
0
ENDSEC
0
SECTION
2
BLOCKS
0
BLOCK
5
20
100
AcDbEntity
100
AcDbBlockBegin
2
*MODEL_SPACE
0
ENDBLK
5
21
100
AcDbEntity
100
AcDbBlockEnd
0
BLOCK
5
1C
100
AcDbEntity
100
AcDbBlockBegin
2
*PAPER_SPACE
0
ENDBLK
5
1D
100
AcDbEntity
100
AcDbBlockEnd
0
ENDSEC
0
SECTION
2
ENTITIES
0
LWPOLYLINE
5
100
100
AcDbEntity
8
0
100
AcDbPolyline
90
46
70
1
43
0.0
10
-19.607018379499166
20
134.91478802247929
10
-32.616890967473402
20
118.16702085903253
10
-32.616890967434216
20
33.20140353905024
10
-26.821890967434214
20
33.20140353905343
10
-25.561976107696793
20
38.200729841154121
10
-19.60701837944605
20
38.200729841156907
10
-19.607018379423675
20
-2.5485964609330516
10
-27.606854210723675
20
-2.5485964609361766
10
-27.60685421072683
20
3.2014035390638234
10
-157.60684112262607
20
3.2014035389964892
10
-157.60684112262362
20
-2.5485964610035117
10
-165.60688862062361
20
-2.548596461010729
10
-165.60688862063668
20
38.200729841088645
10
-159.65193089238593
20
38.20072984109143
10
-158.71189096742657
20
33.201403538992253
10
-152.91689096742661
20
33.201403538994917
10
-152.91689096747325
20
118.02184551977285
10
-165.60688862066763
20
135.06904146268349
10
-165.60688862067178
20
148.19989703939029
10
-159.40416024117127
20
148.19989703939379
10
-158.70191023102589
20
143.20140353899208
10
-152.90691023102596
20
143.20140353899336
10
-152.90691023102596
20
172.47034270383961
10
-142.80339241541083
20
172.47034270384563
10
-142.80339241541083
20
178.07034270384563
10
-136.01568857627328
20
182.45129403760831
10
-129.0159857459515
20
182.45129403761212
10
-122.54246489896042
20
178.07034270385793
10
-122.54246489896036
20
172.47034270385794
10
-102.54229323726034
20
172.4703427038699
10
-102.5422932372604
20
178.0703427038699
10
-95.650916684506768
20
182.45129403763053
10
-89.000804953211599
20
182.45129403763423
10
-82.521600398490364
20
178.07034270388192
10
-82.521600398490307
20
172.47034270388195
10
-62.521428736790327
20
172.47034270389406
10
-62.521428736790341
20
178.07034270389406
10
-55.947227669625164
20
182.45129403765233
10
-49.19789831585657
20
182.45129403765606
10
-42.712371987582294
20
178.07034270390596
10
-42.712371987577825
20
172.47034270390597
10
-32.60885417196269
20
172.47034270391211
10
-32.608854171945033
20
143.20140353906584
10
-26.81385417194511
20
143.20140353907004
10
-25.809746759006977
20
148.19989703946993
10
-19.607018379506457
20
148.1998970394734
0
ENDSEC
0
SECTION
2
OBJECTS
0
DICTIONARY
5
C
100
AcDbDictionary
3
ACAD_GROUP
350
D
3
ACAD_MLINESTYLE
350
17
0
DICTIONARY
5
D
100
AcDbDictionary
0
DICTIONARY
5
1A
330
C
100
AcDbDictionary
0
DICTIONARY
5
17
100
AcDbDictionary
0
ENDSEC
0
EOF
