G75*
%MOIN*%
%OFA0B0*%
%FSLAX24Y24*%
%IPPOS*%
%LPD*%
%AMOC8*
5,1,8,0,0,1.08239X$1,22.5*
%
%ADD10C,0.0845*%
%ADD11C,0.0785*%
%ADD12C,0.0790*%
%ADD13R,0.0710X0.0789*%
%ADD14C,0.0600*%
%ADD15C,0.0634*%
%ADD16C,0.1360*%
%ADD17C,0.0780*%
%ADD18C,0.0880*%
%ADD19C,0.0820*%
%ADD20OC8,0.0674*%
%ADD21R,0.2521X0.2206*%
%ADD22R,0.0710X0.0474*%
%ADD23R,0.0316X0.0946*%
%ADD24R,0.0552X0.0356*%
%ADD25C,0.0480*%
%ADD26C,0.2620*%
D10*
X047680Y011680D03*
X051680Y011680D03*
X053930Y011680D03*
X057930Y011680D03*
X060180Y011680D03*
X064180Y011680D03*
X066180Y011680D03*
X070180Y011680D03*
X068180Y013680D03*
X062180Y013680D03*
X055930Y013680D03*
X049680Y013680D03*
X047680Y015680D03*
X051680Y015680D03*
X053930Y015680D03*
X057930Y015680D03*
X060180Y015680D03*
X064180Y015680D03*
X066180Y015680D03*
X070180Y015680D03*
D11*
X025993Y013660D02*
X025288Y013660D01*
X021073Y013660D02*
X020368Y013660D01*
X020368Y011700D02*
X021073Y011700D01*
X025288Y011700D02*
X025993Y011700D01*
X025993Y005660D02*
X025288Y005660D01*
X021073Y005660D02*
X020368Y005660D01*
X020368Y003700D02*
X021073Y003700D01*
X025288Y003700D02*
X025993Y003700D01*
D12*
X023180Y002910D03*
X023180Y006450D03*
X023180Y010910D03*
X023180Y014450D03*
D13*
X074379Y014180D03*
X075481Y014180D03*
X075481Y009680D03*
X074379Y009680D03*
D14*
X045680Y012170D02*
X045680Y012690D01*
X044680Y012690D02*
X044680Y012170D01*
X043680Y012170D02*
X043680Y012690D01*
X042680Y012690D02*
X042680Y012170D01*
X041680Y012170D02*
X041680Y012690D01*
X040680Y012690D02*
X040680Y012170D01*
X039680Y012170D02*
X039680Y012690D01*
X038680Y012690D02*
X038680Y012170D01*
X037680Y012170D02*
X037680Y012690D01*
X035430Y012690D02*
X035430Y012170D01*
X034430Y012170D02*
X034430Y012690D01*
X033430Y012690D02*
X033430Y012170D01*
X032430Y012170D02*
X032430Y012690D01*
X031430Y012690D02*
X031430Y012170D01*
X030430Y012170D02*
X030430Y012690D01*
X029430Y012690D02*
X029430Y012170D01*
X028430Y012170D02*
X028430Y012690D01*
X027430Y012690D02*
X027430Y012170D01*
X027430Y015170D02*
X027430Y015690D01*
X028430Y015690D02*
X028430Y015170D01*
X029430Y015170D02*
X029430Y015690D01*
X030430Y015690D02*
X030430Y015170D01*
X031430Y015170D02*
X031430Y015690D01*
X032430Y015690D02*
X032430Y015170D01*
X033430Y015170D02*
X033430Y015690D01*
X034430Y015690D02*
X034430Y015170D01*
X035430Y015170D02*
X035430Y015690D01*
X037680Y015690D02*
X037680Y015170D01*
X038680Y015170D02*
X038680Y015690D01*
X039680Y015690D02*
X039680Y015170D01*
X040680Y015170D02*
X040680Y015690D01*
X041680Y015690D02*
X041680Y015170D01*
X042680Y015170D02*
X042680Y015690D01*
X043680Y015690D02*
X043680Y015170D01*
X044680Y015170D02*
X044680Y015690D01*
X045680Y015690D02*
X045680Y015170D01*
X013180Y012440D02*
X013180Y011920D01*
X012180Y011920D02*
X012180Y012440D01*
X011180Y012440D02*
X011180Y011920D01*
X010180Y011920D02*
X010180Y012440D01*
X009180Y012440D02*
X009180Y011920D01*
X008180Y011920D02*
X008180Y012440D01*
X007180Y012440D02*
X007180Y011920D01*
X006180Y011920D02*
X006180Y012440D01*
X005180Y012440D02*
X005180Y011920D01*
X004180Y011920D02*
X004180Y012440D01*
X004180Y009440D02*
X004180Y008920D01*
X005180Y008920D02*
X005180Y009440D01*
X006180Y009440D02*
X006180Y008920D01*
X007180Y008920D02*
X007180Y009440D01*
X008180Y009440D02*
X008180Y008920D01*
X009180Y008920D02*
X009180Y009440D01*
X010180Y009440D02*
X010180Y008920D01*
X011180Y008920D02*
X011180Y009440D01*
X012180Y009440D02*
X012180Y008920D01*
X013180Y008920D02*
X013180Y009440D01*
D15*
X028430Y004180D03*
X029430Y004180D03*
X030430Y004180D03*
X031430Y004180D03*
X030930Y003180D03*
X029930Y003180D03*
X028930Y003180D03*
X031930Y003180D03*
X035930Y004180D03*
X036930Y004180D03*
X037930Y004180D03*
X038930Y004180D03*
X038430Y003180D03*
X039430Y003180D03*
X037430Y003180D03*
X036430Y003180D03*
X043430Y004180D03*
X044430Y004180D03*
X045430Y004180D03*
X046430Y004180D03*
X045930Y003180D03*
X044930Y003180D03*
X043930Y003180D03*
X046930Y003180D03*
X050930Y004180D03*
X051930Y004180D03*
X052930Y004180D03*
X053930Y004180D03*
X053430Y003180D03*
X052430Y003180D03*
X051430Y003180D03*
X054430Y003180D03*
X058430Y004180D03*
X059430Y004180D03*
X060430Y004180D03*
X061430Y004180D03*
X060930Y003180D03*
X061930Y003180D03*
X059930Y003180D03*
X058930Y003180D03*
X065930Y004180D03*
X066930Y004180D03*
X067930Y004180D03*
X068930Y004180D03*
X068430Y003180D03*
X067430Y003180D03*
X066430Y003180D03*
X069430Y003180D03*
D16*
X069930Y006680D03*
X065430Y006680D03*
X062430Y006680D03*
X057930Y006680D03*
X054930Y006680D03*
X050430Y006680D03*
X047430Y006680D03*
X042930Y006680D03*
X039930Y006680D03*
X035430Y006680D03*
X032430Y006680D03*
X027930Y006680D03*
D17*
X073379Y005251D02*
X074079Y005251D01*
X074930Y006830D02*
X074930Y007530D01*
D18*
X072568Y007580D02*
X072568Y006780D01*
D19*
X018680Y008680D03*
X017680Y008680D03*
X017680Y009680D03*
X018680Y009680D03*
X018680Y010680D03*
X017680Y010680D03*
X017680Y011680D03*
X018680Y011680D03*
X018680Y012680D03*
X017680Y012680D03*
X017680Y013680D03*
X018680Y013680D03*
X018680Y014680D03*
X017680Y014680D03*
X016680Y014680D03*
X015680Y014680D03*
X014680Y014680D03*
X013680Y014680D03*
X012680Y014680D03*
X011680Y014680D03*
X010680Y014680D03*
X009680Y014680D03*
X008680Y014680D03*
X007680Y014680D03*
X006680Y014680D03*
X005680Y014680D03*
X004680Y014680D03*
X003680Y014680D03*
X003680Y003680D03*
X004680Y003680D03*
X005680Y003680D03*
X006680Y003680D03*
X007680Y003680D03*
X008680Y003680D03*
X009680Y003680D03*
X010680Y003680D03*
X011680Y003680D03*
X012680Y003680D03*
X013680Y003680D03*
X014680Y003680D03*
X015680Y003680D03*
X016680Y003680D03*
X017680Y003680D03*
X018680Y003680D03*
D20*
X071680Y004280D03*
X072680Y004280D03*
X072680Y014080D03*
X071680Y014080D03*
D21*
X072696Y011805D03*
D22*
X075570Y010907D03*
X075570Y012703D03*
D23*
X009930Y007204D03*
X009430Y007204D03*
X008930Y007204D03*
X008430Y007204D03*
X007930Y007204D03*
X007430Y007204D03*
X006930Y007204D03*
X006430Y007204D03*
X006430Y005156D03*
X006930Y005156D03*
X007430Y005156D03*
X007930Y005156D03*
X008430Y005156D03*
X008930Y005156D03*
X009430Y005156D03*
X009930Y005156D03*
D24*
X007408Y001180D03*
X005952Y001180D03*
D25*
X004480Y002080D03*
X008730Y001630D03*
X014730Y002630D03*
X019530Y003280D03*
X022030Y002880D03*
X019880Y002230D03*
X026530Y002230D03*
X027680Y001580D03*
X028980Y001380D03*
X029930Y001380D03*
X029430Y001080D03*
X030730Y000980D03*
X031280Y001030D03*
X032280Y001430D03*
X033030Y001830D03*
X033630Y001830D03*
X031930Y002330D03*
X031280Y002580D03*
X028980Y002180D03*
X028480Y002380D03*
X026930Y003180D03*
X028080Y003580D03*
X024280Y004030D03*
X025130Y004830D03*
X024330Y005280D03*
X024780Y006230D03*
X024980Y007230D03*
X025980Y007230D03*
X026380Y007580D03*
X026880Y007830D03*
X028330Y008380D03*
X026930Y009080D03*
X025930Y009330D03*
X026480Y009730D03*
X027980Y009730D03*
X028280Y010630D03*
X027480Y011030D03*
X029480Y011080D03*
X030480Y011080D03*
X034280Y009730D03*
X036930Y010630D03*
X035780Y011030D03*
X036680Y011730D03*
X039180Y011730D03*
X040730Y010830D03*
X039080Y010630D03*
X040630Y009830D03*
X041530Y010230D03*
X042780Y010430D03*
X042130Y009730D03*
X041130Y009330D03*
X039980Y008530D03*
X037830Y008680D03*
X035280Y008130D03*
X030880Y006730D03*
X029280Y006230D03*
X028330Y005130D03*
X033280Y005530D03*
X040130Y003180D03*
X041480Y003630D03*
X042730Y004230D03*
X045880Y004680D03*
X045880Y005880D03*
X044480Y007280D03*
X041380Y007730D03*
X044830Y008980D03*
X046780Y008880D03*
X046280Y008130D03*
X048780Y008880D03*
X048480Y009280D03*
X046180Y011580D03*
X047080Y012180D03*
X048980Y012980D03*
X046980Y013380D03*
X045980Y014330D03*
X048080Y014430D03*
X043680Y014180D03*
X041880Y013530D03*
X039830Y013530D03*
X039280Y013780D03*
X038630Y013930D03*
X037730Y013530D03*
X036480Y013680D03*
X035130Y014080D03*
X035630Y014330D03*
X038180Y014730D03*
X036480Y015730D03*
X037680Y016780D03*
X037280Y017280D03*
X039230Y016780D03*
X040030Y017380D03*
X046980Y016130D03*
X052730Y016980D03*
X053330Y016580D03*
X053880Y016580D03*
X056780Y012755D03*
X057180Y010880D03*
X057780Y008480D03*
X059880Y006955D03*
X051980Y005480D03*
X051530Y005080D03*
X047880Y002280D03*
X045430Y001780D03*
X044930Y001830D03*
X044430Y001580D03*
X045280Y001080D03*
X040530Y002080D03*
X038680Y002480D03*
X036830Y002080D03*
X051980Y001480D03*
X060380Y001480D03*
X070805Y009930D03*
X071430Y009930D03*
X071930Y009930D03*
X072430Y009930D03*
X072930Y009930D03*
X073430Y009930D03*
X073180Y010430D03*
X072680Y010430D03*
X072180Y010430D03*
X071680Y010430D03*
X071055Y010430D03*
X070555Y010430D03*
X070555Y010930D03*
X071055Y010930D03*
X071055Y011430D03*
X071055Y011930D03*
X071055Y012430D03*
X070555Y012680D03*
X071055Y012930D03*
X070555Y013180D03*
X071055Y013430D03*
X071680Y013180D03*
X072180Y013180D03*
X072680Y013180D03*
X073180Y013180D03*
X073680Y013180D03*
X074180Y013180D03*
X074680Y013180D03*
X074680Y012680D03*
X074680Y012180D03*
X074680Y011680D03*
X074680Y011180D03*
X074680Y010680D03*
X074180Y010430D03*
X073680Y010430D03*
X043180Y011730D03*
X036180Y013030D03*
X030030Y013280D03*
X028980Y014080D03*
X028280Y014180D03*
X027330Y014080D03*
X026930Y013130D03*
X026130Y012880D03*
X026530Y012530D03*
X023930Y011780D03*
X022180Y012380D03*
X023130Y012780D03*
X023980Y013630D03*
X019780Y014380D03*
X021080Y015080D03*
X022180Y014980D03*
X021730Y015480D03*
X025380Y016580D03*
X021230Y017380D03*
X029580Y017280D03*
X032130Y016530D03*
X019380Y012030D03*
X015680Y011280D03*
X015830Y010330D03*
X014130Y010330D03*
X014630Y009530D03*
X019230Y008130D03*
X020130Y007830D03*
X020680Y007830D03*
X020330Y009080D03*
X020730Y009430D03*
X020730Y010030D03*
X023580Y009330D03*
X015030Y006580D03*
X014380Y007380D03*
X012730Y007780D03*
X011880Y006830D03*
X018580Y005880D03*
X018580Y005330D03*
X015280Y004680D03*
X014630Y004730D03*
X010830Y004430D03*
X021780Y004030D03*
X007730Y011430D03*
X008130Y014030D03*
X009280Y015380D03*
X012230Y016230D03*
X012830Y016730D03*
X005830Y015830D03*
X013130Y014030D03*
D26*
X001680Y001680D03*
X001680Y016680D03*
X075180Y016680D03*
X075180Y001680D03*
M02*
