%
M48
M72
T01C0.0240
T02C0.0320
T03C0.0354
T04C0.0394
T05C0.0400
T06C0.0470
T07C0.0510
T08C0.0710
T09C0.1260
T10C0.1280
%
T01
X4480Y2080
X8730Y1630
X14730Y2630
X19530Y3280
X22030Y2880
X19880Y2230
X26530Y2230
X27680Y1580
X28980Y1380
X29930Y1380
X29430Y1080
X30730Y980
X31280Y1030
X32280Y1430
X33030Y1830
X33630Y1830
X31930Y2330
X31280Y2580
X28980Y2180
X28480Y2380
X26930Y3180
X28080Y3580
X24280Y4030
X25130Y4830
X24330Y5280
X24780Y6230
X24980Y7230
X25980Y7230
X26380Y7580
X26880Y7830
X28330Y8380
X26930Y9080
X25930Y9330
X26480Y9730
X27980Y9730
X28280Y10630
X27480Y11030
X29480Y11080
X30480Y11080
X34280Y9730
X36930Y10630
X35780Y11030
X36680Y11730
X39180Y11730
X40730Y10830
X39080Y10630
X40630Y9830
X41530Y10230
X42780Y10430
X42130Y9730
X41130Y9330
X39980Y8530
X37830Y8680
X35280Y8130
X30880Y6730
X29280Y6230
X28330Y5130
X33280Y5530
X40130Y3180
X41480Y3630
X42730Y4230
X45880Y4680
X45880Y5880
X44480Y7280
X41380Y7730
X44830Y8980
X46780Y8880
X46280Y8130
X48780Y8880
X48480Y9280
X46180Y11580
X47080Y12180
X48980Y12980
X46980Y13380
X45980Y14330
X48080Y14430
X43680Y14180
X41880Y13530
X39830Y13530
X39280Y13780
X38630Y13930
X37730Y13530
X36480Y13680
X35130Y14080
X35630Y14330
X38180Y14730
X36480Y15730
X37680Y16780
X37280Y17280
X39230Y16780
X40030Y17380
X46980Y16130
X52730Y16980
X53330Y16580
X53880Y16580
X56780Y12755
X57180Y10880
X57780Y8480
X59880Y6955
X51980Y5480
X51530Y5080
X47880Y2280
X45430Y1780
X44930Y1830
X44430Y1580
X45280Y1080
X40530Y2080
X38680Y2480
X36830Y2080
X51980Y1480
X60380Y1480
X70805Y9930
X71430Y9930
X71930Y9930
X72430Y9930
X72930Y9930
X73430Y9930
X73180Y10430
X72680Y10430
X72180Y10430
X71680Y10430
X71055Y10430
X70555Y10430
X70555Y10930
X71055Y10930
X71055Y11430
X71055Y11930
X71055Y12430
X70555Y12680
X71055Y12930
X70555Y13180
X71055Y13430
X71680Y13180
X72180Y13180
X72680Y13180
X73180Y13180
X73680Y13180
X74180Y13180
X74680Y13180
X74680Y12680
X74680Y12180
X74680Y11680
X74680Y11180
X74680Y10680
X74180Y10430
X73680Y10430
X43180Y11730
X36180Y13030
X30030Y13280
X28980Y14080
X28280Y14180
X27330Y14080
X26930Y13130
X26130Y12880
X26530Y12530
X23930Y11780
X22180Y12380
X23130Y12780
X23980Y13630
X19780Y14380
X21080Y15080
X22180Y14980
X21730Y15480
X25380Y16580
X21230Y17380
X29580Y17280
X32130Y16530
X19380Y12030
X15680Y11280
X15830Y10330
X14130Y10330
X14630Y9530
X19230Y8130
X20130Y7830
X20680Y7830
X20330Y9080
X20730Y9430
X20730Y10030
X23580Y9330
X15030Y6580
X14380Y7380
X12730Y7780
X11880Y6830
X18580Y5880
X18580Y5330
X15280Y4680
X14630Y4730
X10830Y4430
X21780Y4030
X7730Y11430
X8130Y14030
X9280Y15380
X12230Y16230
X12830Y16730
X5830Y15830
X13130Y14030
T02
X13180Y12180
X12180Y12180
X11180Y12180
X10180Y12180
X9180Y12180
X8180Y12180
X7180Y12180
X6180Y12180
X5180Y12180
X4180Y12180
X4180Y9180
X5180Y9180
X6180Y9180
X7180Y9180
X8180Y9180
X9180Y9180
X10180Y9180
X11180Y9180
X12180Y9180
X13180Y9180
X27430Y12430
X28430Y12430
X29430Y12430
X30430Y12430
X31430Y12430
X32430Y12430
X33430Y12430
X34430Y12430
X35430Y12430
X37680Y12430
X38680Y12430
X39680Y12430
X40680Y12430
X41680Y12430
X42680Y12430
X43680Y12430
X44680Y12430
X45680Y12430
X45680Y15430
X44680Y15430
X43680Y15430
X42680Y15430
X41680Y15430
X40680Y15430
X39680Y15430
X38680Y15430
X37680Y15430
X35430Y15430
X34430Y15430
X33430Y15430
X32430Y15430
X31430Y15430
X30430Y15430
X29430Y15430
X28430Y15430
X27430Y15430
X72568Y7180
X74930Y7180
X73729Y5251
T03
X68930Y4180
X67930Y4180
X66930Y4180
X65930Y4180
X66430Y3180
X67430Y3180
X68430Y3180
X69430Y3180
X61930Y3180
X60930Y3180
X59930Y3180
X58930Y3180
X58430Y4180
X59430Y4180
X60430Y4180
X61430Y4180
X54430Y3180
X53430Y3180
X52430Y3180
X51430Y3180
X50930Y4180
X51930Y4180
X52930Y4180
X53930Y4180
X46930Y3180
X45930Y3180
X44930Y3180
X43930Y3180
X43430Y4180
X44430Y4180
X45430Y4180
X46430Y4180
X39430Y3180
X38430Y3180
X37430Y3180
X36430Y3180
X35930Y4180
X36930Y4180
X37930Y4180
X38930Y4180
X31930Y3180
X30930Y3180
X29930Y3180
X28930Y3180
X28430Y4180
X29430Y4180
X30430Y4180
X31430Y4180
T04
X71680Y4280
X72680Y4280
X72680Y14080
X71680Y14080
T05
X18680Y13680
X17680Y13680
X17680Y14680
X16680Y14680
X15680Y14680
X14680Y14680
X13680Y14680
X12680Y14680
X11680Y14680
X10680Y14680
X9680Y14680
X8680Y14680
X7680Y14680
X6680Y14680
X5680Y14680
X4680Y14680
X3680Y14680
X17680Y12680
X18680Y12680
X18680Y11680
X17680Y11680
X17680Y10680
X18680Y10680
X18680Y9680
X17680Y9680
X17680Y8680
X18680Y8680
X18680Y3680
X17680Y3680
X16680Y3680
X15680Y3680
X14680Y3680
X13680Y3680
X12680Y3680
X11680Y3680
X10680Y3680
X9680Y3680
X8680Y3680
X7680Y3680
X6680Y3680
X5680Y3680
X4680Y3680
X3680Y3680
X18680Y14680
T06
X20720Y13660
X25640Y13660
X25640Y11700
X20720Y11700
X20720Y5660
X25640Y5660
X25640Y3700
X20720Y3700
T07
X47680Y11680
X51680Y11680
X53930Y11680
X57930Y11680
X60180Y11680
X64180Y11680
X66180Y11680
X70180Y11680
X68180Y13680
X62180Y13680
X55930Y13680
X49680Y13680
X47680Y15680
X51680Y15680
X53930Y15680
X57930Y15680
X60180Y15680
X64180Y15680
X66180Y15680
X70180Y15680
T08
X23180Y14450
X23180Y10910
X23180Y6450
X23180Y2910
T09
X1680Y1680
X1680Y16680
X75180Y16680
X75180Y1680
T10
X69930Y6680
X65430Y6680
X62430Y6680
X57930Y6680
X54930Y6680
X50430Y6680
X47430Y6680
X42930Y6680
X39930Y6680
X35430Y6680
X32430Y6680
X27930Y6680
M30
