<?xml version="1.0" encoding="utf-8"?>
<!-- Generator: Adobe Illustrator 22.0.1, SVG Export Plug-In . SVG Version: 6.00 Build 0)  -->
<svg version="1.1" id="Layer_1" xmlns="http://www.w3.org/2000/svg" xmlns:xlink="http://www.w3.org/1999/xlink" x="0px" y="0px"
	 viewBox="0 0 841.9 595.3" style="enable-background:new 0 0 841.9 595.3;" xml:space="preserve">
<style type="text/css">
	.st0{fill:none;stroke:#000000;stroke-miterlimit:10;}
	.st1{fill:none;}
	.st2{font-family:'MyriadPro-Regular';}
	.st3{font-size:15px;}
</style>
<g>
	<g>
		<path class="st0" d="M223.4,124.5c0,11-8.9,19.8-19.8,19.8c-11,0-19.8-8.9-19.8-19.8c0-11,8.9-19.8,19.8-19.8
			C214.6,104.7,223.4,113.6,223.4,124.5z"/>
		<path class="st0" d="M338.6,124.5c0,11-8.9,19.8-19.8,19.8c-11,0-19.8-8.9-19.8-19.8c0-11,8.9-19.8,19.8-19.8
			C329.8,104.7,338.6,113.6,338.6,124.5z"/>
		<path class="st0" d="M453.9,124.5c0,11-8.9,19.8-19.8,19.8c-11,0-19.8-8.9-19.8-19.8c0-11,8.9-19.8,19.8-19.8
			C445,104.7,453.9,113.6,453.9,124.5z"/>
		<path class="st0" d="M568.9,124.5c0,11-8.9,19.8-19.8,19.8c-11,0-19.8-8.9-19.8-19.8c0-11,8.9-19.8,19.8-19.8
			C560.1,104.7,568.9,113.6,568.9,124.5z"/>
		<path class="st0" d="M684.2,124.5c0,11-8.9,19.8-19.8,19.8c-11,0-19.8-8.9-19.8-19.8c0-11,8.9-19.8,19.8-19.8
			C675.3,104.7,684.2,113.6,684.2,124.5z"/>
		<path class="st0" d="M702.6,101.2c0,2.3-1.9,4.3-4.3,4.3c-2.3,0-4.3-1.9-4.3-4.3c0-2.3,1.9-4.3,4.3-4.3
			C700.7,96.9,702.6,98.8,702.6,101.2z"/>
		<path class="st0" d="M702.6,101.2c0,2.3-1.9,4.3-4.3,4.3c-2.3,0-4.3-1.9-4.3-4.3c0-2.3,1.9-4.3,4.3-4.3
			C700.7,96.9,702.6,98.8,702.6,101.2z"/>
		<path class="st0" d="M702.6,147.8c0,2.3-1.9,4.3-4.3,4.3c-2.3,0-4.3-1.9-4.3-4.3c0-2.3,1.9-4.3,4.3-4.3
			C700.7,143.6,702.6,145.5,702.6,147.8z"/>
		<path class="st0" d="M702.6,147.8c0,2.3-1.9,4.3-4.3,4.3c-2.3,0-4.3-1.9-4.3-4.3c0-2.3,1.9-4.3,4.3-4.3
			C700.7,143.6,702.6,145.5,702.6,147.8z"/>
		<path class="st0" d="M173.6,147.8c0,2.3-1.9,4.3-4.3,4.3c-2.3,0-4.3-1.9-4.3-4.3c0-2.3,1.9-4.3,4.3-4.3
			C171.7,143.6,173.6,145.5,173.6,147.8z"/>
		<path class="st0" d="M173.6,147.8c0,2.3-1.9,4.3-4.3,4.3c-2.3,0-4.3-1.9-4.3-4.3c0-2.3,1.9-4.3,4.3-4.3
			C171.7,143.6,173.6,145.5,173.6,147.8z"/>
		<path class="st0" d="M173.6,101.2c0,2.3-1.9,4.3-4.3,4.3c-2.3,0-4.3-1.9-4.3-4.3c0-2.3,1.9-4.3,4.3-4.3
			C171.7,96.9,173.6,98.8,173.6,101.2z"/>
		<path class="st0" d="M173.6,101.2c0,2.3-1.9,4.3-4.3,4.3c-2.3,0-4.3-1.9-4.3-4.3c0-2.3,1.9-4.3,4.3-4.3
			C171.7,96.9,173.6,98.8,173.6,101.2z"/>
	</g>
	<path class="st0" d="M705.3,167.1H162.4c-6.6,0-12-5.4-12-12V94c0-6.6,5.4-12,12-12h542.9c6.6,0,12,5.4,12,12v61
		C717.3,161.7,711.9,167.1,705.3,167.1z"/>
</g>
<g>
	<path class="st0" d="M704.2,499.5H161.2c-6.6,0-12-5.4-12-12v-61c0-6.6,5.4-12,12-12h542.9c6.6,0,12,5.4,12,12v61
		C716.2,494.1,710.8,499.5,704.2,499.5z"/>
	<g>
		<rect x="174.9" y="452.3" class="st0" width="9.1" height="9.1"/>
		<rect x="220.9" y="452.5" class="st0" width="9.1" height="9.1"/>
		<path class="st0" d="M204.2,456.9c0,0.9-0.8,1.7-1.7,1.7c-0.9,0-1.7-0.8-1.7-1.7c0-0.9,0.8-1.7,1.7-1.7
			C203.4,455.2,204.2,456,204.2,456.9z"/>
		<rect x="290.1" y="452.3" class="st0" width="9.1" height="9.1"/>
		<rect x="336.1" y="452.5" class="st0" width="9.1" height="9.1"/>
		<path class="st0" d="M319.4,456.9c0,0.9-0.8,1.7-1.7,1.7c-0.9,0-1.7-0.8-1.7-1.7c0-0.9,0.8-1.7,1.7-1.7
			C318.6,455.2,319.4,456,319.4,456.9z"/>
		<rect x="405.3" y="452.3" class="st0" width="9.1" height="9.1"/>
		<rect x="451.4" y="452.5" class="st0" width="9.1" height="9.1"/>
		<path class="st0" d="M434.6,456.9c0,0.9-0.8,1.7-1.7,1.7c-0.9,0-1.7-0.8-1.7-1.7c0-0.9,0.8-1.7,1.7-1.7
			C433.8,455.2,434.6,456,434.6,456.9z"/>
		<rect x="520.4" y="452.3" class="st0" width="9.1" height="9.1"/>
		<rect x="566.5" y="452.5" class="st0" width="9.1" height="9.1"/>
		<path class="st0" d="M549.7,456.9c0,0.9-0.8,1.7-1.7,1.7c-0.9,0-1.7-0.8-1.7-1.7c0-0.9,0.8-1.7,1.7-1.7
			C548.9,455.2,549.7,456,549.7,456.9z"/>
		<rect x="635.6" y="452.3" class="st0" width="9.1" height="9.1"/>
		<rect x="681.7" y="452.5" class="st0" width="9.1" height="9.1"/>
		<circle class="st0" cx="663.2" cy="456.9" r="1.7"/>
		<path class="st0" d="M701.4,433.5c0,2.3-1.9,4.3-4.3,4.3c-2.3,0-4.3-1.9-4.3-4.3c0-2.3,1.9-4.3,4.3-4.3
			C699.5,429.3,701.4,431.2,701.4,433.5z"/>
		<path class="st0" d="M701.4,480.2c0,2.3-1.9,4.3-4.3,4.3c-2.3,0-4.3-1.9-4.3-4.3c0-2.3,1.9-4.3,4.3-4.3
			C699.5,476,701.4,477.9,701.4,480.2z"/>
		<path class="st0" d="M172.5,480.2c0,2.3-1.9,4.3-4.3,4.3c-2.3,0-4.3-1.9-4.3-4.3c0-2.3,1.9-4.3,4.3-4.3
			C170.6,476,172.5,477.9,172.5,480.2z"/>
		<path class="st0" d="M172.5,433.5c0,2.3-1.9,4.3-4.3,4.3c-2.3,0-4.3-1.9-4.3-4.3c0-2.3,1.9-4.3,4.3-4.3
			C170.6,429.3,172.5,431.2,172.5,433.5z"/>
		<path class="st0" d="M260.1,479L260.1,479c-4.7,0-8.5-3.8-8.5-8.5v-23c0-4.7,3.8-8.5,8.5-8.5c4.7,0,8.5,3.8,8.5,8.5v23
			C268.6,475.2,264.7,479,260.1,479z"/>
		<path class="st0" d="M375.3,477.4L375.3,477.4c-4.7,0-8.5-3.8-8.5-8.5v-23c0-4.7,3.8-8.5,8.5-8.5c4.7,0,8.5,3.8,8.5,8.5v23
			C383.8,473.6,379.9,477.4,375.3,477.4z"/>
		<path class="st0" d="M490.4,476.5L490.4,476.5c-4.7,0-8.5-3.8-8.5-8.5v-23c0-4.7,3.8-8.5,8.5-8.5c4.7,0,8.5,3.8,8.5,8.5v23
			C498.9,472.7,495.1,476.5,490.4,476.5z"/>
		<path class="st0" d="M605.6,476.5L605.6,476.5c-4.7,0-8.5-3.8-8.5-8.5v-23c0-4.7,3.8-8.5,8.5-8.5c4.7,0,8.5,3.8,8.5,8.5v23
			C614.1,472.7,610.2,476.5,605.6,476.5z"/>
	</g>
</g>
<g>
	<g>
		<path class="st0" d="M188.5,288.9c1.6-7.5,7.7-13,15.1-13c7.5,0,13.9,5.4,15.3,12.9h5.4v-1.9h6.8v9.2h-6.8v-2.3h-5.2
			c-1,7.4-7.6,13.3-15.6,13.3c-7.9,0-14.4-6-15.5-13.4l-5.3,0v2.4H176v-9.2h6.9l0,2L188.5,288.9z"/>
		<path class="st0" d="M303.7,288.9c1.6-7.5,7.7-13,15.1-13c7.5,0,13.9,5.4,15.3,12.9h5.4v-1.9h6.8v9.2h-6.8v-2.3h-5.2
			c-1,7.4-7.6,13.3-15.6,13.3c-7.9,0-14.4-6-15.5-13.4l-5.3,0v2.4h-6.8v-9.2h6.9l0,2L303.7,288.9z"/>
		<path class="st0" d="M418.9,288.9c1.6-7.5,7.7-13,15.1-13c7.5,0,13.9,5.4,15.3,12.9h5.4v-1.9h6.8v9.2h-6.8v-2.3h-5.2
			c-1,7.4-7.6,13.3-15.6,13.3c-7.9,0-14.4-6-15.5-13.4l-5.3,0v2.4h-6.8v-9.2h6.9l0,2L418.9,288.9z"/>
		<path class="st0" d="M534,288.9c1.6-7.5,7.7-13,15.1-13c7.5,0,13.9,5.4,15.3,12.9h5.4v-1.9h6.8v9.2h-6.8v-2.3h-5.2
			c-1,7.4-7.6,13.3-15.6,13.3c-7.9,0-14.4-6-15.5-13.4l-5.3,0v2.4h-6.8v-9.2h6.9l0,2L534,288.9z"/>
		<path class="st0" d="M649.2,288.9c1.6-7.5,7.7-13,15.1-13c7.5,0,13.9,5.4,15.3,12.9h5.4v-1.9h6.8v9.2h-6.8v-2.3h-5.2
			c-1,7.4-7.6,13.3-15.6,13.3c-7.9,0-14.4-6-15.5-13.4l-5.3,0v2.4h-6.8v-9.2h6.9l0,2L649.2,288.9z"/>
		<path class="st0" d="M702.6,268.1c0,2.3-1.9,4.3-4.3,4.3c-2.3,0-4.3-1.9-4.3-4.3c0-2.3,1.9-4.3,4.3-4.3
			C700.7,263.8,702.6,265.7,702.6,268.1z"/>
		<path class="st0" d="M702.6,268.1c0,2.3-1.9,4.3-4.3,4.3c-2.3,0-4.3-1.9-4.3-4.3c0-2.3,1.9-4.3,4.3-4.3
			C700.7,263.8,702.6,265.7,702.6,268.1z"/>
		<path class="st0" d="M702.6,314.8c0,2.3-1.9,4.3-4.3,4.3c-2.3,0-4.3-1.9-4.3-4.3c0-2.3,1.9-4.3,4.3-4.3
			C700.7,310.5,702.6,312.4,702.6,314.8z"/>
		<path class="st0" d="M702.6,314.8c0,2.3-1.9,4.3-4.3,4.3c-2.3,0-4.3-1.9-4.3-4.3c0-2.3,1.9-4.3,4.3-4.3
			C700.7,310.5,702.6,312.4,702.6,314.8z"/>
		<path class="st0" d="M173.6,314.8c0,2.3-1.9,4.3-4.3,4.3c-2.3,0-4.3-1.9-4.3-4.3c0-2.3,1.9-4.3,4.3-4.3
			C171.7,310.5,173.6,312.4,173.6,314.8z"/>
		<path class="st0" d="M173.6,314.8c0,2.3-1.9,4.3-4.3,4.3c-2.3,0-4.3-1.9-4.3-4.3c0-2.3,1.9-4.3,4.3-4.3
			C171.7,310.5,173.6,312.4,173.6,314.8z"/>
		<path class="st0" d="M173.6,314.8c0,2.3-1.9,4.3-4.3,4.3c-2.3,0-4.3-1.9-4.3-4.3c0-2.3,1.9-4.3,4.3-4.3
			C171.7,310.5,173.6,312.4,173.6,314.8z"/>
		<path class="st0" d="M173.6,268.1c0,2.3-1.9,4.3-4.3,4.3c-2.3,0-4.3-1.9-4.3-4.3c0-2.3,1.9-4.3,4.3-4.3
			C171.7,263.8,173.6,265.7,173.6,268.1z"/>
		<path class="st0" d="M173.6,268.1c0,2.3-1.9,4.3-4.3,4.3c-2.3,0-4.3-1.9-4.3-4.3c0-2.3,1.9-4.3,4.3-4.3
			C171.7,263.8,173.6,265.7,173.6,268.1z"/>
		<path class="st0" d="M173.6,268.1c0,2.3-1.9,4.3-4.3,4.3c-2.3,0-4.3-1.9-4.3-4.3c0-2.3,1.9-4.3,4.3-4.3
			C171.7,263.8,173.6,265.7,173.6,268.1z"/>
		<path class="st0" d="M738.7,343.1c0,6.7-5.4,12.1-12,12.1H141.3c-6.6,0-12-5.4-12-12.1V239.8c0-6.7,5.4-12.1,12-12.1h585.4
			c6.6,0,12,5.4,12,12.1V343.1z"/>
		<g>
			<path class="st0" d="M146.3,240.4c0,2.3-1.9,4.3-4.3,4.3c-2.3,0-4.3-1.9-4.3-4.3c0-2.3,1.9-4.3,4.3-4.3
				C144.4,236.2,146.3,238.1,146.3,240.4z"/>
			<path class="st0" d="M146.3,342.5c0,2.3-1.9,4.3-4.3,4.3c-2.3,0-4.3-1.9-4.3-4.3c0-2.3,1.9-4.3,4.3-4.3
				C144.4,338.2,146.3,340.1,146.3,342.5z"/>
			<path class="st0" d="M730.2,240.4c0,2.3-1.9,4.3-4.3,4.3c-2.3,0-4.3-1.9-4.3-4.3c0-2.3,1.9-4.3,4.3-4.3
				C728.3,236.2,730.2,238.1,730.2,240.4z"/>
			<path class="st0" d="M730.2,342.5c0,2.3-1.9,4.3-4.3,4.3c-2.3,0-4.3-1.9-4.3-4.3c0-2.3,1.9-4.3,4.3-4.3
				C728.3,338.2,730.2,340.1,730.2,342.5z"/>
		</g>
	</g>
</g>
<rect x="107.2" y="57.2" class="st1" width="169.5" height="15"/>
<text transform="matrix(1 0 0 1 107.1577 67.8091)" class="st2 st3">Front 2mm black HIPS</text>
<rect x="107.2" y="387.2" class="st1" width="169.5" height="15"/>
<text transform="matrix(1 0 0 1 107.1577 397.8091)" class="st2 st3">Back, 5mm opal 030 acrylic</text>
<rect x="107.2" y="197.2" class="st1" width="478.1" height="15"/>
<text transform="matrix(1 0 0 1 107.1577 207.8091)" class="st2 st3">Middle, 5mm white acrylic</text>
</svg>
