G75*
%MOIN*%
%OFA0B0*%
%FSLAX24Y24*%
%IPPOS*%
%LPD*%
%AMOC8*
5,1,8,0,0,1.08239X$1,22.5*
%
%ADD10C,0.0000*%
%ADD11C,0.0100*%
%ADD12C,0.0130*%
%ADD13C,0.0070*%
%ADD14C,0.0120*%
%ADD15C,0.0060*%
%ADD16C,0.0020*%
%ADD17R,0.0050X0.0200*%
%ADD18C,0.0050*%
%ADD19C,0.0080*%
%ADD20C,0.0040*%
%ADD21C,0.0079*%
D10*
X000180Y000180D02*
X000180Y011916D01*
X028741Y011916D01*
X028741Y000180D01*
X000180Y000180D01*
D11*
X003420Y007075D02*
X003420Y007455D01*
X003230Y007265D02*
X003610Y007265D01*
X004230Y007265D02*
X004610Y007265D01*
X006230Y007265D02*
X006610Y007265D01*
X006420Y007455D02*
X006420Y007075D01*
X007230Y007265D02*
X007610Y007265D01*
X009230Y007265D02*
X009610Y007265D01*
X009420Y007455D02*
X009420Y007075D01*
X010230Y007265D02*
X010610Y007265D01*
X012230Y007265D02*
X012610Y007265D01*
X012420Y007455D02*
X012420Y007075D01*
X013230Y007265D02*
X013610Y007265D01*
X015230Y007265D02*
X015610Y007265D01*
X015420Y007455D02*
X015420Y007075D01*
X016230Y007265D02*
X016610Y007265D01*
X018230Y007265D02*
X018610Y007265D01*
X018420Y007455D02*
X018420Y007075D01*
X019230Y007265D02*
X019610Y007265D01*
X021230Y007265D02*
X021610Y007265D01*
X021420Y007455D02*
X021420Y007075D01*
X022230Y007265D02*
X022610Y007265D01*
X024230Y007265D02*
X024610Y007265D01*
X024420Y007455D02*
X024420Y007075D01*
X025230Y007265D02*
X025610Y007265D01*
D12*
X025074Y006653D02*
X025184Y006543D01*
X025184Y006434D01*
X025074Y006324D01*
X024855Y006324D01*
X024745Y006434D01*
X024745Y006543D01*
X024855Y006653D01*
X025074Y006653D01*
X025074Y006324D02*
X025184Y006214D01*
X025184Y006105D01*
X025074Y005995D01*
X024855Y005995D01*
X024745Y006105D01*
X024745Y006214D01*
X024855Y006324D01*
X022184Y006543D02*
X021745Y006105D01*
X021745Y005995D01*
X022184Y006543D02*
X022184Y006653D01*
X021745Y006653D01*
X019184Y006653D02*
X018964Y006543D01*
X018745Y006324D01*
X019074Y006324D01*
X019184Y006214D01*
X019184Y006105D01*
X019074Y005995D01*
X018855Y005995D01*
X018745Y006105D01*
X018745Y006324D01*
X016184Y006324D02*
X016184Y006105D01*
X016074Y005995D01*
X015855Y005995D01*
X015745Y006105D01*
X015745Y006324D02*
X015964Y006434D01*
X016074Y006434D01*
X016184Y006324D01*
X016184Y006653D02*
X015745Y006653D01*
X015745Y006324D01*
X013184Y006324D02*
X012745Y006324D01*
X013074Y006653D01*
X013074Y005995D01*
X010184Y006105D02*
X010074Y005995D01*
X009855Y005995D01*
X009745Y006105D01*
X009964Y006324D02*
X010074Y006324D01*
X010184Y006214D01*
X010184Y006105D01*
X010074Y006324D02*
X010184Y006434D01*
X010184Y006543D01*
X010074Y006653D01*
X009855Y006653D01*
X009745Y006543D01*
X007184Y006543D02*
X007074Y006653D01*
X006855Y006653D01*
X006745Y006543D01*
X007184Y006543D02*
X007184Y006434D01*
X006745Y005995D01*
X007184Y005995D01*
X004184Y005995D02*
X003745Y005995D01*
X003964Y005995D02*
X003964Y006653D01*
X003745Y006434D01*
D13*
X003934Y004834D02*
X003934Y004745D01*
X003934Y004569D02*
X003934Y004215D01*
X003846Y004215D02*
X004022Y004215D01*
X004214Y004303D02*
X004214Y004480D01*
X004302Y004569D01*
X004568Y004569D01*
X004568Y004745D02*
X004568Y004215D01*
X004302Y004215D01*
X004214Y004303D01*
X003934Y004569D02*
X003846Y004569D01*
X003647Y004480D02*
X003558Y004569D01*
X003382Y004569D01*
X003293Y004480D01*
X003293Y004303D01*
X003382Y004215D01*
X003558Y004215D01*
X003647Y004303D01*
X003647Y004480D01*
X003094Y004480D02*
X003094Y004215D01*
X002741Y004215D02*
X002741Y004569D01*
X003006Y004569D01*
X003094Y004480D01*
X002542Y004480D02*
X002542Y004392D01*
X002188Y004392D01*
X002188Y004480D02*
X002277Y004569D01*
X002453Y004569D01*
X002542Y004480D01*
X002188Y004480D02*
X002188Y004303D01*
X002277Y004215D01*
X002453Y004215D01*
X001997Y004215D02*
X001820Y004215D01*
X001908Y004215D02*
X001908Y004745D01*
X001820Y004745D01*
X001621Y004480D02*
X001533Y004569D01*
X001356Y004569D01*
X001267Y004480D01*
X001267Y004303D01*
X001356Y004215D01*
X001533Y004215D01*
X001621Y004303D01*
X001621Y004480D01*
X001069Y004392D02*
X001069Y004303D01*
X000980Y004215D01*
X000803Y004215D01*
X000715Y004303D01*
X000803Y004480D02*
X000980Y004480D01*
X001069Y004392D01*
X000803Y004480D02*
X000715Y004569D01*
X000715Y004657D01*
X000803Y004745D01*
X000980Y004745D01*
X001069Y004657D01*
X005319Y004480D02*
X005319Y004303D01*
X005407Y004215D01*
X005673Y004215D01*
X005673Y004745D01*
X005673Y004569D02*
X005407Y004569D01*
X005319Y004480D01*
X005871Y004392D02*
X006048Y004569D01*
X006137Y004569D01*
X006332Y004569D02*
X006420Y004569D01*
X006420Y004215D01*
X006332Y004215D02*
X006509Y004215D01*
X006877Y004215D02*
X007054Y004569D01*
X007253Y004480D02*
X007341Y004569D01*
X007518Y004569D01*
X007606Y004480D01*
X007606Y004392D01*
X007253Y004392D01*
X007253Y004480D02*
X007253Y004303D01*
X007341Y004215D01*
X007518Y004215D01*
X007805Y004215D02*
X007805Y004569D01*
X007982Y004569D02*
X008070Y004569D01*
X007982Y004569D02*
X007805Y004392D01*
X006877Y004215D02*
X006700Y004569D01*
X006420Y004745D02*
X006420Y004834D01*
X005871Y004569D02*
X005871Y004215D01*
D14*
X012230Y005180D02*
X012232Y005208D01*
X012238Y005235D01*
X012247Y005261D01*
X012260Y005286D01*
X012277Y005309D01*
X012296Y005329D01*
X012318Y005346D01*
X012342Y005360D01*
X012368Y005370D01*
X012395Y005377D01*
X012423Y005380D01*
X012451Y005379D01*
X012478Y005374D01*
X012505Y005365D01*
X012530Y005353D01*
X012553Y005338D01*
X012574Y005319D01*
X012592Y005298D01*
X012607Y005274D01*
X012618Y005248D01*
X012626Y005222D01*
X012630Y005194D01*
X012630Y005166D01*
X012626Y005138D01*
X012618Y005112D01*
X012607Y005086D01*
X012592Y005062D01*
X012574Y005041D01*
X012553Y005022D01*
X012530Y005007D01*
X012505Y004995D01*
X012478Y004986D01*
X012451Y004981D01*
X012423Y004980D01*
X012395Y004983D01*
X012368Y004990D01*
X012342Y005000D01*
X012318Y005014D01*
X012296Y005031D01*
X012277Y005051D01*
X012260Y005074D01*
X012247Y005099D01*
X012238Y005125D01*
X012232Y005152D01*
X012230Y005180D01*
D15*
X019210Y005330D02*
X019210Y001030D01*
X019212Y001007D01*
X019217Y000984D01*
X019226Y000962D01*
X019239Y000942D01*
X019254Y000924D01*
X019272Y000909D01*
X019292Y000896D01*
X019314Y000887D01*
X019337Y000882D01*
X019360Y000880D01*
X022000Y000880D01*
X022023Y000882D01*
X022046Y000887D01*
X022068Y000896D01*
X022088Y000909D01*
X022106Y000924D01*
X022121Y000942D01*
X022134Y000962D01*
X022143Y000984D01*
X022148Y001007D01*
X022150Y001030D01*
X022150Y005330D01*
X022148Y005353D01*
X022143Y005376D01*
X022134Y005398D01*
X022121Y005418D01*
X022106Y005436D01*
X022088Y005451D01*
X022068Y005464D01*
X022046Y005473D01*
X022023Y005478D01*
X022000Y005480D01*
X021180Y005480D01*
X020180Y005480D01*
X019360Y005480D01*
X019337Y005478D01*
X019314Y005473D01*
X019292Y005464D01*
X019272Y005451D01*
X019254Y005436D01*
X019239Y005418D01*
X019226Y005398D01*
X019217Y005376D01*
X019212Y005353D01*
X019210Y005330D01*
X020180Y005480D02*
X020182Y005436D01*
X020188Y005393D01*
X020197Y005351D01*
X020210Y005309D01*
X020227Y005269D01*
X020247Y005230D01*
X020270Y005193D01*
X020297Y005159D01*
X020326Y005126D01*
X020359Y005097D01*
X020393Y005070D01*
X020430Y005047D01*
X020469Y005027D01*
X020509Y005010D01*
X020551Y004997D01*
X020593Y004988D01*
X020636Y004982D01*
X020680Y004980D01*
X020724Y004982D01*
X020767Y004988D01*
X020809Y004997D01*
X020851Y005010D01*
X020891Y005027D01*
X020930Y005047D01*
X020967Y005070D01*
X021001Y005097D01*
X021034Y005126D01*
X021063Y005159D01*
X021090Y005193D01*
X021113Y005230D01*
X021133Y005269D01*
X021150Y005309D01*
X021163Y005351D01*
X021172Y005393D01*
X021178Y005436D01*
X021180Y005480D01*
X008755Y001916D02*
X008755Y001631D01*
X008755Y001916D02*
X008391Y001916D01*
X007938Y001916D02*
X007899Y001916D01*
X007446Y001916D02*
X007406Y001916D01*
X006954Y001916D02*
X006914Y001916D01*
X006461Y001916D02*
X006422Y001916D01*
X005969Y001916D02*
X005605Y001916D01*
X005605Y001631D01*
X005605Y000312D02*
X005605Y000263D01*
X008755Y000263D01*
X008755Y000312D01*
D16*
X019350Y000880D02*
X019350Y005480D01*
D17*
X019185Y005180D03*
X019185Y004680D03*
X019185Y004180D03*
X019185Y003680D03*
X019185Y003180D03*
X019185Y002680D03*
X019185Y002180D03*
X019185Y001680D03*
X019185Y001180D03*
X022175Y001180D03*
X022175Y001680D03*
X022175Y002180D03*
X022175Y002680D03*
X022175Y003180D03*
X022175Y003680D03*
X022175Y004180D03*
X022175Y004680D03*
X022175Y005180D03*
D18*
X020105Y004753D02*
X020105Y004603D01*
X020030Y004528D01*
X020030Y004368D02*
X020105Y004293D01*
X020105Y004142D01*
X020030Y004067D01*
X019955Y004067D01*
X019880Y004142D01*
X019880Y004293D01*
X019955Y004368D01*
X020030Y004368D01*
X019880Y004293D02*
X019805Y004368D01*
X019730Y004368D01*
X019655Y004293D01*
X019655Y004142D01*
X019730Y004067D01*
X019805Y004067D01*
X019880Y004142D01*
X019730Y003907D02*
X020030Y003907D01*
X020105Y003832D01*
X020105Y003682D01*
X020030Y003607D01*
X019730Y003907D01*
X019655Y003832D01*
X019655Y003682D01*
X019730Y003607D01*
X020030Y003607D01*
X020105Y003447D02*
X020105Y003147D01*
X019805Y003447D01*
X019730Y003447D01*
X019655Y003372D01*
X019655Y003222D01*
X019730Y003147D01*
X019655Y002986D02*
X019730Y002836D01*
X019880Y002686D01*
X019880Y002911D01*
X019955Y002986D01*
X020030Y002986D01*
X020105Y002911D01*
X020105Y002761D01*
X020030Y002686D01*
X019880Y002686D01*
X020030Y002526D02*
X019730Y002526D01*
X019655Y002451D01*
X019655Y002226D01*
X020105Y002226D01*
X020105Y002451D01*
X020030Y002526D01*
X020030Y002066D02*
X020105Y001991D01*
X020105Y001765D01*
X019655Y001765D01*
X019655Y001991D01*
X019730Y002066D01*
X019805Y002066D01*
X019880Y001991D01*
X019880Y001765D01*
X019655Y001605D02*
X019655Y001305D01*
X019655Y001455D02*
X020105Y001455D01*
X019880Y001991D02*
X019955Y002066D01*
X020030Y002066D01*
X019730Y004528D02*
X019655Y004603D01*
X019655Y004753D01*
X019730Y004828D01*
X019805Y004828D01*
X019880Y004753D01*
X019955Y004828D01*
X020030Y004828D01*
X020105Y004753D01*
X019880Y004753D02*
X019880Y004678D01*
X019489Y011057D02*
X019082Y011057D01*
X019285Y011057D02*
X019285Y011667D01*
X019082Y011464D01*
X016489Y011057D02*
X016082Y011057D01*
X016285Y011057D02*
X016285Y011667D01*
X016082Y011464D01*
X013489Y011057D02*
X013082Y011057D01*
X013285Y011057D02*
X013285Y011667D01*
X013082Y011464D01*
X010489Y011057D02*
X010082Y011057D01*
X010285Y011057D02*
X010285Y011667D01*
X010082Y011464D01*
X007489Y011057D02*
X007082Y011057D01*
X007285Y011057D02*
X007285Y011667D01*
X007082Y011464D01*
X004489Y011057D02*
X004082Y011057D01*
X004285Y011057D02*
X004285Y011667D01*
X004082Y011464D01*
X022082Y011464D02*
X022285Y011667D01*
X022285Y011057D01*
X022082Y011057D02*
X022489Y011057D01*
X025082Y011057D02*
X025489Y011057D01*
X025285Y011057D02*
X025285Y011667D01*
X025082Y011464D01*
D19*
X025981Y011986D02*
X023879Y011986D01*
X023879Y008722D01*
X025981Y008722D01*
X025981Y011986D01*
X022981Y011986D02*
X022981Y008722D01*
X020879Y008722D01*
X020879Y011986D01*
X022981Y011986D01*
X019981Y011986D02*
X019981Y008722D01*
X017879Y008722D01*
X017879Y011986D01*
X019981Y011986D01*
X016981Y011986D02*
X016981Y008722D01*
X014879Y008722D01*
X014879Y011986D01*
X016981Y011986D01*
X013981Y011986D02*
X013981Y008722D01*
X011879Y008722D01*
X011879Y011986D01*
X013981Y011986D01*
X010981Y011986D02*
X010981Y008722D01*
X008879Y008722D01*
X008879Y011986D01*
X010981Y011986D01*
X007981Y011986D02*
X007981Y008722D01*
X005879Y008722D01*
X005879Y011986D01*
X007981Y011986D01*
X004981Y011986D02*
X004981Y008722D01*
X002879Y008722D01*
X002879Y011986D01*
X004981Y011986D01*
D20*
X013950Y004470D02*
X014026Y004547D01*
X014103Y004547D01*
X014180Y004470D01*
X014180Y004316D01*
X014103Y004240D01*
X014026Y004240D01*
X013950Y004316D01*
X013950Y004470D01*
X014180Y004470D02*
X014257Y004547D01*
X014333Y004547D01*
X014410Y004470D01*
X014410Y004316D01*
X014333Y004240D01*
X014257Y004240D01*
X014180Y004316D01*
X014026Y004086D02*
X014333Y004086D01*
X014410Y004009D01*
X014410Y003856D01*
X014333Y003779D01*
X014026Y004086D01*
X013950Y004009D01*
X013950Y003856D01*
X014026Y003779D01*
X014333Y003779D01*
X014333Y003626D02*
X014026Y003626D01*
X014333Y003319D01*
X014410Y003396D01*
X014410Y003549D01*
X014333Y003626D01*
X014026Y003626D02*
X013950Y003549D01*
X013950Y003396D01*
X014026Y003319D01*
X014333Y003319D01*
X014333Y003165D02*
X014410Y003089D01*
X014410Y002935D01*
X014333Y002858D01*
X014410Y002705D02*
X014410Y002398D01*
X014103Y002705D01*
X014026Y002705D01*
X013950Y002628D01*
X013950Y002475D01*
X014026Y002398D01*
X014026Y002245D02*
X014180Y002245D01*
X014257Y002168D01*
X014257Y001938D01*
X014410Y001938D02*
X013950Y001938D01*
X013950Y002168D01*
X014026Y002245D01*
X014026Y001784D02*
X013950Y001707D01*
X013950Y001554D01*
X014026Y001477D01*
X014333Y001477D01*
X014410Y001554D01*
X014410Y001707D01*
X014333Y001784D01*
X014410Y001324D02*
X013950Y001324D01*
X014103Y001170D01*
X013950Y001017D01*
X014410Y001017D01*
X014026Y002858D02*
X013950Y002935D01*
X013950Y003089D01*
X014026Y003165D01*
X014103Y003165D01*
X014180Y003089D01*
X014257Y003165D01*
X014333Y003165D01*
X014180Y003089D02*
X014180Y003012D01*
X006090Y002700D02*
X005950Y002700D01*
X006020Y002700D02*
X006020Y002910D01*
X005950Y002840D01*
X005860Y002910D02*
X005720Y002700D01*
X005860Y002700D02*
X005720Y002910D01*
D21*
X005763Y002152D02*
X005765Y002164D01*
X005770Y002175D01*
X005779Y002184D01*
X005790Y002189D01*
X005802Y002191D01*
X005814Y002189D01*
X005825Y002184D01*
X005834Y002175D01*
X005839Y002164D01*
X005841Y002152D01*
X005839Y002140D01*
X005834Y002129D01*
X005825Y002120D01*
X005814Y002115D01*
X005802Y002113D01*
X005790Y002115D01*
X005779Y002120D01*
X005770Y002129D01*
X005765Y002140D01*
X005763Y002152D01*
M02*
