G75*
%MOIN*%
%OFA0B0*%
%FSLAX24Y24*%
%IPPOS*%
%LPD*%
%AMOC8*
5,1,8,0,0,1.08239X$1,22.5*
%
%ADD10R,0.0800X0.0260*%
%ADD11OC8,0.0594*%
%ADD12R,0.0866X0.0236*%
%ADD13R,0.0315X0.0630*%
%ADD14R,0.0827X0.1181*%
%ADD15C,0.0160*%
%ADD16C,0.0140*%
%ADD17C,0.0400*%
%ADD18C,0.2362*%
D10*
X018750Y001180D03*
X018750Y001680D03*
X018750Y002180D03*
X018750Y002680D03*
X018750Y003180D03*
X018750Y003680D03*
X018750Y004180D03*
X018750Y004680D03*
X018750Y005180D03*
X022610Y005180D03*
X022610Y004680D03*
X022610Y004180D03*
X022610Y003680D03*
X022610Y003180D03*
X022610Y002680D03*
X022610Y002180D03*
X022610Y001680D03*
X022610Y001180D03*
D11*
X022430Y008080D03*
X021430Y008080D03*
X019430Y008080D03*
X018430Y008080D03*
X016430Y008080D03*
X015430Y008080D03*
X013430Y008080D03*
X012430Y008080D03*
X010430Y008080D03*
X009430Y008080D03*
X007430Y008080D03*
X006430Y008080D03*
X004430Y008080D03*
X003430Y008080D03*
X024430Y008080D03*
X025430Y008080D03*
D12*
X015241Y005180D03*
X015241Y004668D03*
X015241Y004156D03*
X015241Y003656D03*
X015241Y003156D03*
X015241Y002656D03*
X015241Y002156D03*
X015241Y001656D03*
X015241Y001156D03*
X011619Y001180D03*
X011619Y001680D03*
X011619Y002180D03*
X011619Y002680D03*
X011619Y003180D03*
X011619Y003680D03*
X011619Y004180D03*
X011619Y004680D03*
X011619Y005180D03*
D13*
X008164Y002113D03*
X007672Y002113D03*
X007180Y002113D03*
X006688Y002113D03*
X006196Y002113D03*
D14*
X005192Y000971D03*
X009168Y000971D03*
D15*
X002503Y000607D02*
X002357Y000460D01*
X004618Y000460D01*
X004618Y001628D01*
X004712Y001722D01*
X005671Y001722D01*
X005765Y001628D01*
X005765Y000460D01*
X008595Y000460D01*
X008595Y001628D01*
X008689Y001722D01*
X009648Y001722D01*
X009742Y001628D01*
X009742Y000460D01*
X019291Y000460D01*
X019275Y000476D01*
X019220Y000608D01*
X019220Y000752D01*
X019232Y000781D01*
X019232Y000781D01*
X019178Y000770D01*
X018750Y000770D01*
X018750Y001180D01*
X018750Y001180D01*
X018750Y001180D01*
X018070Y001180D01*
X018070Y001338D01*
X018081Y001392D01*
X018102Y001443D01*
X018107Y001450D01*
X016175Y001450D01*
X015834Y001109D01*
X015834Y000972D01*
X015740Y000878D01*
X014742Y000878D01*
X014648Y000972D01*
X014648Y001341D01*
X014714Y001406D01*
X014648Y001472D01*
X014648Y001841D01*
X014714Y001906D01*
X014648Y001972D01*
X014648Y002341D01*
X014714Y002406D01*
X014648Y002472D01*
X014648Y002841D01*
X014714Y002906D01*
X014648Y002972D01*
X014648Y003341D01*
X014714Y003406D01*
X014648Y003472D01*
X014648Y003841D01*
X014714Y003906D01*
X014648Y003972D01*
X014648Y004341D01*
X014719Y004412D01*
X014648Y004484D01*
X014648Y004853D01*
X014719Y004924D01*
X014648Y004996D01*
X014648Y005364D01*
X014742Y005458D01*
X014950Y005458D01*
X014950Y005550D01*
X012510Y005550D01*
X012510Y004885D01*
X012212Y004587D01*
X012212Y004528D01*
X012231Y004516D01*
X012270Y004477D01*
X012300Y004431D01*
X012321Y004380D01*
X012332Y004326D01*
X012332Y004180D01*
X011619Y004180D01*
X011619Y004180D01*
X012332Y004180D01*
X012332Y004034D01*
X012321Y003980D01*
X012300Y003930D01*
X012321Y003880D01*
X012332Y003826D01*
X012332Y003680D01*
X011619Y003680D01*
X011619Y003680D01*
X012332Y003680D01*
X012332Y003534D01*
X012321Y003480D01*
X012300Y003429D01*
X012270Y003383D01*
X012231Y003344D01*
X012212Y003332D01*
X012212Y002996D01*
X012146Y002930D01*
X012212Y002864D01*
X012212Y002496D01*
X012146Y002430D01*
X012212Y002364D01*
X012212Y001996D01*
X012146Y001930D01*
X012212Y001864D01*
X012212Y001528D01*
X012231Y001516D01*
X012270Y001477D01*
X012300Y001431D01*
X012321Y001380D01*
X012332Y001326D01*
X012332Y001180D01*
X011619Y001180D01*
X011619Y001180D01*
X012332Y001180D01*
X012332Y001034D01*
X012321Y000980D01*
X012300Y000929D01*
X012270Y000883D01*
X012231Y000844D01*
X012185Y000814D01*
X018199Y000814D01*
X018217Y000802D02*
X018268Y000781D01*
X018322Y000770D01*
X018750Y000770D01*
X018750Y001180D01*
X018070Y001180D01*
X018070Y001022D01*
X018081Y000968D01*
X018102Y000917D01*
X018133Y000872D01*
X018172Y000833D01*
X018217Y000802D01*
X018750Y000814D02*
X018750Y000814D01*
X018750Y000973D02*
X018750Y000973D01*
X018750Y001131D02*
X018750Y001131D01*
X018070Y001131D02*
X015856Y001131D01*
X015834Y000973D02*
X018080Y000973D01*
X018070Y001290D02*
X016015Y001290D01*
X016173Y001448D02*
X018105Y001448D01*
X019220Y000656D02*
X009742Y000656D01*
X009742Y000814D02*
X011053Y000814D01*
X011104Y000793D01*
X011158Y000782D01*
X011619Y000782D01*
X012080Y000782D01*
X012134Y000793D01*
X012185Y000814D01*
X012318Y000973D02*
X014648Y000973D01*
X014648Y001131D02*
X012332Y001131D01*
X012332Y001290D02*
X014648Y001290D01*
X014672Y001448D02*
X012289Y001448D01*
X012212Y001607D02*
X014648Y001607D01*
X014648Y001765D02*
X012212Y001765D01*
X012153Y001924D02*
X014696Y001924D01*
X014648Y002082D02*
X012212Y002082D01*
X012212Y002241D02*
X014648Y002241D01*
X014706Y002399D02*
X012177Y002399D01*
X012212Y002558D02*
X014648Y002558D01*
X014648Y002716D02*
X012212Y002716D01*
X012202Y002875D02*
X014682Y002875D01*
X014648Y003033D02*
X012212Y003033D01*
X012212Y003192D02*
X014648Y003192D01*
X014657Y003350D02*
X012236Y003350D01*
X012327Y003509D02*
X014648Y003509D01*
X014648Y003667D02*
X012332Y003667D01*
X012332Y003826D02*
X014648Y003826D01*
X014648Y003984D02*
X012322Y003984D01*
X012332Y004143D02*
X014648Y004143D01*
X014648Y004301D02*
X012332Y004301D01*
X012281Y004460D02*
X014672Y004460D01*
X014648Y004618D02*
X012243Y004618D01*
X012402Y004777D02*
X014648Y004777D01*
X014709Y004935D02*
X012510Y004935D01*
X012510Y005094D02*
X014648Y005094D01*
X014648Y005252D02*
X012510Y005252D01*
X012510Y005411D02*
X014694Y005411D01*
X015410Y005458D02*
X015410Y005875D01*
X015275Y006010D01*
X009785Y006010D01*
X009650Y005875D01*
X008996Y005222D01*
X008952Y005240D01*
X008808Y005240D01*
X008676Y005185D01*
X008575Y005084D01*
X008520Y004952D01*
X008520Y004808D01*
X008538Y004764D01*
X007050Y003275D01*
X007050Y002619D01*
X007024Y002646D01*
X006978Y002676D01*
X006927Y002697D01*
X006873Y002708D01*
X006688Y002708D01*
X006688Y002113D01*
X006688Y001518D01*
X006873Y001518D01*
X006927Y001529D01*
X006978Y001550D01*
X007024Y001581D01*
X007063Y001620D01*
X007075Y001638D01*
X007404Y001638D01*
X007426Y001660D01*
X007448Y001638D01*
X007896Y001638D01*
X007918Y001660D01*
X007940Y001638D01*
X008388Y001638D01*
X008482Y001732D01*
X008482Y002156D01*
X011026Y004701D01*
X011026Y004528D01*
X011007Y004516D01*
X010968Y004477D01*
X010938Y004431D01*
X010917Y004380D01*
X010906Y004326D01*
X010906Y004180D01*
X010906Y004034D01*
X010917Y003980D01*
X010937Y003930D01*
X010917Y003880D01*
X010906Y003826D01*
X010906Y003680D01*
X010906Y003534D01*
X010917Y003480D01*
X010938Y003429D01*
X010951Y003410D01*
X010859Y003410D01*
X010784Y003485D01*
X010652Y003540D01*
X010508Y003540D01*
X010376Y003485D01*
X010275Y003384D01*
X010220Y003252D01*
X010220Y003108D01*
X010275Y002976D01*
X010376Y002875D01*
X010508Y002820D01*
X010652Y002820D01*
X010784Y002875D01*
X010859Y002950D01*
X011072Y002950D01*
X011092Y002930D01*
X011026Y002864D01*
X011026Y002496D01*
X011092Y002430D01*
X011026Y002364D01*
X011026Y001996D01*
X011092Y001930D01*
X011026Y001864D01*
X011026Y001528D01*
X011007Y001516D01*
X010968Y001477D01*
X010938Y001431D01*
X010917Y001380D01*
X010906Y001326D01*
X010906Y001180D01*
X010906Y001034D01*
X010917Y000980D01*
X010938Y000929D01*
X010968Y000883D01*
X011007Y000844D01*
X011053Y000814D01*
X010920Y000973D02*
X009742Y000973D01*
X009742Y001131D02*
X010906Y001131D01*
X010906Y001180D02*
X011619Y001180D01*
X011619Y000782D01*
X011619Y001180D01*
X011619Y001180D01*
X011619Y001180D01*
X010906Y001180D01*
X010906Y001290D02*
X009742Y001290D01*
X009742Y001448D02*
X010949Y001448D01*
X011026Y001607D02*
X009742Y001607D01*
X008595Y001607D02*
X007050Y001607D01*
X006688Y001607D02*
X006688Y001607D01*
X006688Y001518D02*
X006503Y001518D01*
X006449Y001529D01*
X006398Y001550D01*
X006352Y001581D01*
X006313Y001620D01*
X006301Y001638D01*
X005972Y001638D01*
X005878Y001732D01*
X005878Y002494D01*
X005972Y002588D01*
X006150Y002588D01*
X006150Y005085D01*
X003612Y007623D01*
X003241Y007623D01*
X002973Y007891D01*
X002973Y008269D01*
X003241Y008537D01*
X003619Y008537D01*
X003887Y008269D01*
X003887Y007998D01*
X003973Y007912D01*
X003973Y008269D01*
X004241Y008537D01*
X004619Y008537D01*
X004887Y008269D01*
X004887Y007891D01*
X004619Y007623D01*
X004262Y007623D01*
X006150Y005735D01*
X006150Y007714D01*
X005973Y007891D01*
X005973Y008269D01*
X006241Y008537D01*
X006619Y008537D01*
X006887Y008269D01*
X006887Y007891D01*
X006619Y007623D01*
X006610Y007623D01*
X006610Y002708D01*
X006688Y002708D01*
X006688Y002113D01*
X006688Y002113D01*
X006688Y001518D01*
X006688Y001765D02*
X006688Y001765D01*
X006688Y001924D02*
X006688Y001924D01*
X006688Y002082D02*
X006688Y002082D01*
X006688Y002113D02*
X006688Y002113D01*
X006688Y002241D02*
X006688Y002241D01*
X006688Y002399D02*
X006688Y002399D01*
X006688Y002558D02*
X006688Y002558D01*
X006610Y002716D02*
X007050Y002716D01*
X007050Y002875D02*
X006610Y002875D01*
X006150Y002875D02*
X000460Y002875D01*
X000460Y002716D02*
X001048Y002716D01*
X000912Y002680D02*
X000607Y002503D01*
X000460Y002357D01*
X000460Y009753D01*
X000607Y009607D01*
X000912Y009430D01*
X001253Y009339D01*
X001607Y009339D01*
X001948Y009430D01*
X002253Y009607D01*
X002503Y009857D01*
X002680Y010162D01*
X002771Y010503D01*
X002771Y010857D01*
X002680Y011198D01*
X002503Y011503D01*
X002370Y011636D01*
X026490Y011636D01*
X026357Y011503D01*
X026180Y011198D01*
X026089Y010857D01*
X026089Y010503D01*
X026180Y010162D01*
X026357Y009857D01*
X026607Y009607D01*
X026912Y009430D01*
X027253Y009339D01*
X027607Y009339D01*
X027948Y009430D01*
X028253Y009607D01*
X028461Y009814D01*
X028461Y002296D01*
X028253Y002503D01*
X027948Y002680D01*
X027607Y002771D01*
X027253Y002771D01*
X026912Y002680D01*
X026607Y002503D01*
X026357Y002253D01*
X026180Y001948D01*
X026089Y001607D01*
X026089Y001253D01*
X026180Y000912D01*
X026357Y000607D01*
X026503Y000460D01*
X019869Y000460D01*
X019885Y000476D01*
X019940Y000608D01*
X019940Y000752D01*
X019885Y000884D01*
X019810Y000959D01*
X019810Y001450D01*
X022084Y001450D01*
X022104Y001430D01*
X022050Y001376D01*
X022050Y000984D01*
X022144Y000890D01*
X023076Y000890D01*
X023136Y000950D01*
X024475Y000950D01*
X024610Y001085D01*
X024610Y007623D01*
X024619Y007623D01*
X024887Y007891D01*
X024887Y008269D01*
X024806Y008350D01*
X025054Y008350D01*
X024973Y008269D01*
X024973Y007891D01*
X025241Y007623D01*
X025619Y007623D01*
X025887Y007891D01*
X025887Y008269D01*
X025619Y008537D01*
X025610Y008537D01*
X025610Y008675D01*
X025475Y008810D01*
X024185Y008810D01*
X024050Y008675D01*
X023750Y008375D01*
X023750Y006575D01*
X022645Y005470D01*
X022210Y005470D01*
X022210Y007585D01*
X022248Y007623D01*
X022619Y007623D01*
X022887Y007891D01*
X022887Y008269D01*
X022619Y008537D01*
X022241Y008537D01*
X021973Y008269D01*
X021973Y007998D01*
X021887Y007912D01*
X021887Y008269D01*
X021619Y008537D01*
X021241Y008537D01*
X020973Y008269D01*
X020973Y007891D01*
X021241Y007623D01*
X021619Y007623D01*
X021750Y007754D01*
X021750Y004585D01*
X021885Y004450D01*
X022084Y004450D01*
X022104Y004430D01*
X022084Y004410D01*
X020510Y004410D01*
X020510Y007375D01*
X019887Y007998D01*
X019887Y008269D01*
X019619Y008537D01*
X019241Y008537D01*
X018973Y008269D01*
X018973Y007891D01*
X019241Y007623D01*
X019612Y007623D01*
X020050Y007185D01*
X020050Y005835D01*
X018262Y007623D01*
X018619Y007623D01*
X018887Y007891D01*
X018887Y008269D01*
X018619Y008537D01*
X018241Y008537D01*
X017973Y008269D01*
X017973Y007912D01*
X017710Y008175D01*
X017575Y008310D01*
X016846Y008310D01*
X016619Y008537D01*
X016241Y008537D01*
X015973Y008269D01*
X015973Y007891D01*
X016054Y007810D01*
X015806Y007810D01*
X015887Y007891D01*
X015887Y008269D01*
X015619Y008537D01*
X015241Y008537D01*
X014973Y008269D01*
X014973Y007891D01*
X015054Y007810D01*
X013806Y007810D01*
X013887Y007891D01*
X013887Y008269D01*
X013619Y008537D01*
X013241Y008537D01*
X012973Y008269D01*
X012973Y007891D01*
X013241Y007623D01*
X013250Y007623D01*
X013250Y007485D01*
X013385Y007350D01*
X017485Y007350D01*
X017525Y007310D01*
X007710Y007310D01*
X007710Y007714D01*
X007887Y007891D01*
X007887Y008269D01*
X007619Y008537D01*
X007241Y008537D01*
X006973Y008269D01*
X006973Y007891D01*
X007241Y007623D01*
X007250Y007623D01*
X007250Y006985D01*
X007385Y006850D01*
X017585Y006850D01*
X018965Y005470D01*
X018284Y005470D01*
X018224Y005410D01*
X015788Y005410D01*
X015740Y005458D01*
X015410Y005458D01*
X015410Y005569D02*
X018866Y005569D01*
X018707Y005728D02*
X015410Y005728D01*
X015399Y005886D02*
X018549Y005886D01*
X018390Y006045D02*
X006610Y006045D01*
X006610Y005886D02*
X009661Y005886D01*
X009502Y005728D02*
X006610Y005728D01*
X006150Y005886D02*
X005999Y005886D01*
X006150Y006045D02*
X005841Y006045D01*
X005682Y006203D02*
X006150Y006203D01*
X006150Y006362D02*
X005524Y006362D01*
X005365Y006520D02*
X006150Y006520D01*
X006610Y006520D02*
X017915Y006520D01*
X018073Y006362D02*
X006610Y006362D01*
X006610Y006203D02*
X018232Y006203D01*
X017756Y006679D02*
X006610Y006679D01*
X006610Y006837D02*
X017598Y006837D01*
X017522Y007313D02*
X007710Y007313D01*
X007710Y007471D02*
X013264Y007471D01*
X013234Y007630D02*
X012626Y007630D01*
X012619Y007623D02*
X012887Y007891D01*
X012887Y008269D01*
X012619Y008537D01*
X012241Y008537D01*
X011973Y008269D01*
X011973Y007891D01*
X012241Y007623D01*
X012619Y007623D01*
X012234Y007630D02*
X010626Y007630D01*
X010619Y007623D02*
X010887Y007891D01*
X010887Y008269D01*
X010619Y008537D01*
X010241Y008537D01*
X009973Y008269D01*
X009973Y007891D01*
X010241Y007623D01*
X010619Y007623D01*
X010234Y007630D02*
X009626Y007630D01*
X009619Y007623D02*
X009887Y007891D01*
X009887Y008269D01*
X009619Y008537D01*
X009241Y008537D01*
X008973Y008269D01*
X008973Y007891D01*
X009241Y007623D01*
X009619Y007623D01*
X009784Y007788D02*
X010076Y007788D01*
X009973Y007947D02*
X009887Y007947D01*
X009887Y008105D02*
X009973Y008105D01*
X009973Y008264D02*
X009887Y008264D01*
X009734Y008422D02*
X010126Y008422D01*
X010734Y008422D02*
X012126Y008422D01*
X011973Y008264D02*
X010887Y008264D01*
X010887Y008105D02*
X011973Y008105D01*
X011973Y007947D02*
X010887Y007947D01*
X010784Y007788D02*
X012076Y007788D01*
X012784Y007788D02*
X013076Y007788D01*
X012973Y007947D02*
X012887Y007947D01*
X012887Y008105D02*
X012973Y008105D01*
X012973Y008264D02*
X012887Y008264D01*
X012734Y008422D02*
X013126Y008422D01*
X013734Y008422D02*
X015126Y008422D01*
X014973Y008264D02*
X013887Y008264D01*
X013887Y008105D02*
X014973Y008105D01*
X014973Y007947D02*
X013887Y007947D01*
X015734Y008422D02*
X016126Y008422D01*
X015973Y008264D02*
X015887Y008264D01*
X015887Y008105D02*
X015973Y008105D01*
X015973Y007947D02*
X015887Y007947D01*
X016734Y008422D02*
X018126Y008422D01*
X017973Y008264D02*
X017622Y008264D01*
X017780Y008105D02*
X017973Y008105D01*
X017973Y007947D02*
X017939Y007947D01*
X018626Y007630D02*
X019234Y007630D01*
X019076Y007788D02*
X018784Y007788D01*
X018887Y007947D02*
X018973Y007947D01*
X018973Y008105D02*
X018887Y008105D01*
X018887Y008264D02*
X018973Y008264D01*
X019126Y008422D02*
X018734Y008422D01*
X019734Y008422D02*
X021126Y008422D01*
X020973Y008264D02*
X019887Y008264D01*
X019887Y008105D02*
X020973Y008105D01*
X020973Y007947D02*
X019939Y007947D01*
X020097Y007788D02*
X021076Y007788D01*
X021234Y007630D02*
X020256Y007630D01*
X020414Y007471D02*
X021750Y007471D01*
X021750Y007313D02*
X020510Y007313D01*
X020510Y007154D02*
X021750Y007154D01*
X021750Y006996D02*
X020510Y006996D01*
X020510Y006837D02*
X021750Y006837D01*
X021750Y006679D02*
X020510Y006679D01*
X020510Y006520D02*
X021750Y006520D01*
X021750Y006362D02*
X020510Y006362D01*
X020510Y006203D02*
X021750Y006203D01*
X022210Y006203D02*
X023378Y006203D01*
X023536Y006362D02*
X022210Y006362D01*
X022210Y006520D02*
X023695Y006520D01*
X023750Y006679D02*
X022210Y006679D01*
X022210Y006837D02*
X023750Y006837D01*
X023750Y006996D02*
X022210Y006996D01*
X022210Y007154D02*
X023750Y007154D01*
X023750Y007313D02*
X022210Y007313D01*
X022210Y007471D02*
X023750Y007471D01*
X023750Y007630D02*
X022626Y007630D01*
X022784Y007788D02*
X023750Y007788D01*
X023750Y007947D02*
X022887Y007947D01*
X022887Y008105D02*
X023750Y008105D01*
X023750Y008264D02*
X022887Y008264D01*
X022734Y008422D02*
X023797Y008422D01*
X023955Y008581D02*
X000460Y008581D01*
X000460Y008422D02*
X003126Y008422D01*
X002973Y008264D02*
X000460Y008264D01*
X000460Y008105D02*
X002973Y008105D01*
X002973Y007947D02*
X000460Y007947D01*
X000460Y007788D02*
X003076Y007788D01*
X003234Y007630D02*
X000460Y007630D01*
X000460Y007471D02*
X003764Y007471D01*
X003922Y007313D02*
X000460Y007313D01*
X000460Y007154D02*
X004081Y007154D01*
X004239Y006996D02*
X000460Y006996D01*
X000460Y006837D02*
X004398Y006837D01*
X004556Y006679D02*
X000460Y006679D01*
X000460Y006520D02*
X004715Y006520D01*
X004873Y006362D02*
X000460Y006362D01*
X000460Y006203D02*
X005032Y006203D01*
X005190Y006045D02*
X000460Y006045D01*
X000460Y005886D02*
X005349Y005886D01*
X005507Y005728D02*
X000460Y005728D01*
X000460Y005569D02*
X005666Y005569D01*
X005824Y005411D02*
X000460Y005411D01*
X000460Y005252D02*
X005983Y005252D01*
X006141Y005094D02*
X000460Y005094D01*
X000460Y004935D02*
X006150Y004935D01*
X006150Y004777D02*
X000460Y004777D01*
X000460Y004618D02*
X006150Y004618D01*
X006610Y004618D02*
X008393Y004618D01*
X008533Y004777D02*
X006610Y004777D01*
X006610Y004935D02*
X008520Y004935D01*
X008584Y005094D02*
X006610Y005094D01*
X006610Y005252D02*
X009027Y005252D01*
X009185Y005411D02*
X006610Y005411D01*
X006610Y005569D02*
X009344Y005569D01*
X010943Y004618D02*
X011026Y004618D01*
X010957Y004460D02*
X010785Y004460D01*
X010906Y004301D02*
X010626Y004301D01*
X010468Y004143D02*
X010906Y004143D01*
X010906Y004180D02*
X011619Y004180D01*
X011619Y003680D01*
X011619Y003680D01*
X011619Y004078D01*
X011619Y004180D01*
X011619Y004180D01*
X011619Y004180D01*
X010906Y004180D01*
X010916Y003984D02*
X010309Y003984D01*
X010151Y003826D02*
X010906Y003826D01*
X010906Y003680D02*
X011619Y003680D01*
X010906Y003680D01*
X010906Y003667D02*
X009992Y003667D01*
X009834Y003509D02*
X010432Y003509D01*
X010261Y003350D02*
X009675Y003350D01*
X009517Y003192D02*
X010220Y003192D01*
X010251Y003033D02*
X009358Y003033D01*
X009200Y002875D02*
X010377Y002875D01*
X010783Y002875D02*
X011036Y002875D01*
X011026Y002716D02*
X009041Y002716D01*
X008883Y002558D02*
X011026Y002558D01*
X011061Y002399D02*
X008724Y002399D01*
X008566Y002241D02*
X011026Y002241D01*
X011026Y002082D02*
X008482Y002082D01*
X008482Y001924D02*
X011085Y001924D01*
X011026Y001765D02*
X008482Y001765D01*
X008595Y001448D02*
X005765Y001448D01*
X005765Y001290D02*
X008595Y001290D01*
X008595Y001131D02*
X005765Y001131D01*
X005765Y000973D02*
X008595Y000973D01*
X008595Y000814D02*
X005765Y000814D01*
X005765Y000656D02*
X008595Y000656D01*
X008595Y000497D02*
X005765Y000497D01*
X004618Y000497D02*
X002394Y000497D01*
X002503Y000607D02*
X002680Y000912D01*
X002771Y001253D01*
X002771Y001607D01*
X002680Y001948D01*
X002503Y002253D01*
X002253Y002503D01*
X001948Y002680D01*
X001607Y002771D01*
X001253Y002771D01*
X000912Y002680D01*
X000701Y002558D02*
X000460Y002558D01*
X000460Y002399D02*
X000502Y002399D01*
X001812Y002716D02*
X006150Y002716D01*
X005941Y002558D02*
X002159Y002558D01*
X002358Y002399D02*
X005878Y002399D01*
X005878Y002241D02*
X002511Y002241D01*
X002602Y002082D02*
X005878Y002082D01*
X005878Y001924D02*
X002686Y001924D01*
X002729Y001765D02*
X005878Y001765D01*
X005765Y001607D02*
X006326Y001607D01*
X004618Y001607D02*
X002771Y001607D01*
X002771Y001448D02*
X004618Y001448D01*
X004618Y001290D02*
X002771Y001290D01*
X002738Y001131D02*
X004618Y001131D01*
X004618Y000973D02*
X002696Y000973D01*
X002623Y000814D02*
X004618Y000814D01*
X004618Y000656D02*
X002531Y000656D01*
X000460Y003033D02*
X006150Y003033D01*
X006150Y003192D02*
X000460Y003192D01*
X000460Y003350D02*
X006150Y003350D01*
X006150Y003509D02*
X000460Y003509D01*
X000460Y003667D02*
X006150Y003667D01*
X006150Y003826D02*
X000460Y003826D01*
X000460Y003984D02*
X006150Y003984D01*
X006610Y003984D02*
X007759Y003984D01*
X007600Y003826D02*
X006610Y003826D01*
X006610Y003667D02*
X007442Y003667D01*
X007283Y003509D02*
X006610Y003509D01*
X006610Y003350D02*
X007125Y003350D01*
X007050Y003192D02*
X006610Y003192D01*
X006610Y003033D02*
X007050Y003033D01*
X006610Y004143D02*
X007917Y004143D01*
X008076Y004301D02*
X006610Y004301D01*
X006610Y004460D02*
X008234Y004460D01*
X006150Y004460D02*
X000460Y004460D01*
X000460Y004301D02*
X006150Y004301D01*
X006150Y004143D02*
X000460Y004143D01*
X005207Y006679D02*
X006150Y006679D01*
X006150Y006837D02*
X005048Y006837D01*
X004890Y006996D02*
X006150Y006996D01*
X006150Y007154D02*
X004731Y007154D01*
X004573Y007313D02*
X006150Y007313D01*
X006150Y007471D02*
X004414Y007471D01*
X004626Y007630D02*
X006150Y007630D01*
X006626Y007630D02*
X007234Y007630D01*
X007250Y007471D02*
X006610Y007471D01*
X006610Y007313D02*
X007250Y007313D01*
X007250Y007154D02*
X006610Y007154D01*
X006610Y006996D02*
X007250Y006996D01*
X007710Y007630D02*
X009234Y007630D01*
X009076Y007788D02*
X007784Y007788D01*
X007887Y007947D02*
X008973Y007947D01*
X008973Y008105D02*
X007887Y008105D01*
X007887Y008264D02*
X008973Y008264D01*
X009126Y008422D02*
X007734Y008422D01*
X007126Y008422D02*
X006734Y008422D01*
X006887Y008264D02*
X006973Y008264D01*
X006973Y008105D02*
X006887Y008105D01*
X006887Y007947D02*
X006973Y007947D01*
X007076Y007788D02*
X006784Y007788D01*
X006076Y007788D02*
X004784Y007788D01*
X004887Y007947D02*
X005973Y007947D01*
X005973Y008105D02*
X004887Y008105D01*
X004887Y008264D02*
X005973Y008264D01*
X006126Y008422D02*
X004734Y008422D01*
X004126Y008422D02*
X003734Y008422D01*
X003887Y008264D02*
X003973Y008264D01*
X003973Y008105D02*
X003887Y008105D01*
X003939Y007947D02*
X003973Y007947D01*
X001734Y009373D02*
X027126Y009373D01*
X026737Y009532D02*
X002123Y009532D01*
X002337Y009690D02*
X026523Y009690D01*
X026365Y009849D02*
X002495Y009849D01*
X002590Y010007D02*
X026270Y010007D01*
X026179Y010166D02*
X002681Y010166D01*
X002723Y010324D02*
X026137Y010324D01*
X026095Y010483D02*
X002765Y010483D01*
X002771Y010641D02*
X026089Y010641D01*
X026089Y010800D02*
X002771Y010800D01*
X002744Y010958D02*
X026116Y010958D01*
X026159Y011117D02*
X002701Y011117D01*
X002635Y011275D02*
X026225Y011275D01*
X026316Y011434D02*
X002544Y011434D01*
X002415Y011592D02*
X026445Y011592D01*
X028337Y009690D02*
X028461Y009690D01*
X028461Y009532D02*
X028123Y009532D01*
X028461Y009373D02*
X027734Y009373D01*
X028461Y009215D02*
X000460Y009215D01*
X000460Y009056D02*
X028461Y009056D01*
X028461Y008898D02*
X000460Y008898D01*
X000460Y008739D02*
X024114Y008739D01*
X024887Y008264D02*
X024973Y008264D01*
X024973Y008105D02*
X024887Y008105D01*
X024887Y007947D02*
X024973Y007947D01*
X025076Y007788D02*
X024784Y007788D01*
X024626Y007630D02*
X025234Y007630D01*
X025626Y007630D02*
X028461Y007630D01*
X028461Y007471D02*
X024610Y007471D01*
X024610Y007313D02*
X028461Y007313D01*
X028461Y007154D02*
X024610Y007154D01*
X024610Y006996D02*
X028461Y006996D01*
X028461Y006837D02*
X024610Y006837D01*
X024610Y006679D02*
X028461Y006679D01*
X028461Y006520D02*
X024610Y006520D01*
X024610Y006362D02*
X028461Y006362D01*
X028461Y006203D02*
X024610Y006203D01*
X024610Y006045D02*
X028461Y006045D01*
X028461Y005886D02*
X024610Y005886D01*
X024610Y005728D02*
X028461Y005728D01*
X028461Y005569D02*
X024610Y005569D01*
X024610Y005411D02*
X028461Y005411D01*
X028461Y005252D02*
X024610Y005252D01*
X024610Y005094D02*
X028461Y005094D01*
X028461Y004935D02*
X024610Y004935D01*
X024610Y004777D02*
X028461Y004777D01*
X028461Y004618D02*
X024610Y004618D01*
X024610Y004460D02*
X028461Y004460D01*
X028461Y004301D02*
X024610Y004301D01*
X024610Y004143D02*
X028461Y004143D01*
X028461Y003984D02*
X024610Y003984D01*
X024610Y003826D02*
X028461Y003826D01*
X028461Y003667D02*
X024610Y003667D01*
X024610Y003509D02*
X028461Y003509D01*
X028461Y003350D02*
X024610Y003350D01*
X024610Y003192D02*
X028461Y003192D01*
X028461Y003033D02*
X024610Y003033D01*
X024610Y002875D02*
X028461Y002875D01*
X028461Y002716D02*
X027812Y002716D01*
X028159Y002558D02*
X028461Y002558D01*
X028461Y002399D02*
X028358Y002399D01*
X027048Y002716D02*
X024610Y002716D01*
X024610Y002558D02*
X026701Y002558D01*
X026502Y002399D02*
X024610Y002399D01*
X024610Y002241D02*
X026349Y002241D01*
X026258Y002082D02*
X024610Y002082D01*
X024610Y001924D02*
X026174Y001924D01*
X026131Y001765D02*
X024610Y001765D01*
X024610Y001607D02*
X026089Y001607D01*
X026089Y001448D02*
X024610Y001448D01*
X024610Y001290D02*
X026089Y001290D01*
X026122Y001131D02*
X024610Y001131D01*
X024498Y000973D02*
X026164Y000973D01*
X026237Y000814D02*
X019914Y000814D01*
X019940Y000656D02*
X026329Y000656D01*
X026466Y000497D02*
X019894Y000497D01*
X019266Y000497D02*
X009742Y000497D01*
X011619Y000814D02*
X011619Y000814D01*
X011619Y000973D02*
X011619Y000973D01*
X011619Y001131D02*
X011619Y001131D01*
X010911Y003509D02*
X010728Y003509D01*
X011619Y003680D02*
X011619Y003680D01*
X011619Y003826D02*
X011619Y003826D01*
X011619Y003984D02*
X011619Y003984D01*
X011619Y004143D02*
X011619Y004143D01*
X015788Y005411D02*
X018224Y005411D01*
X019841Y006045D02*
X020050Y006045D01*
X020050Y005886D02*
X019999Y005886D01*
X020510Y005886D02*
X021750Y005886D01*
X021750Y005728D02*
X020510Y005728D01*
X020510Y005569D02*
X021750Y005569D01*
X021750Y005411D02*
X020510Y005411D01*
X020510Y005252D02*
X021750Y005252D01*
X021750Y005094D02*
X020510Y005094D01*
X020510Y004935D02*
X021750Y004935D01*
X021750Y004777D02*
X020510Y004777D01*
X020510Y004618D02*
X021750Y004618D01*
X021875Y004460D02*
X020510Y004460D01*
X022210Y005569D02*
X022744Y005569D01*
X022902Y005728D02*
X022210Y005728D01*
X022210Y005886D02*
X023061Y005886D01*
X023219Y006045D02*
X022210Y006045D01*
X021750Y006045D02*
X020510Y006045D01*
X020050Y006203D02*
X019682Y006203D01*
X019524Y006362D02*
X020050Y006362D01*
X020050Y006520D02*
X019365Y006520D01*
X019207Y006679D02*
X020050Y006679D01*
X020050Y006837D02*
X019048Y006837D01*
X018890Y006996D02*
X020050Y006996D01*
X020050Y007154D02*
X018731Y007154D01*
X018573Y007313D02*
X019922Y007313D01*
X019764Y007471D02*
X018414Y007471D01*
X021626Y007630D02*
X021750Y007630D01*
X021887Y007947D02*
X021921Y007947D01*
X021887Y008105D02*
X021973Y008105D01*
X021973Y008264D02*
X021887Y008264D01*
X021734Y008422D02*
X022126Y008422D01*
X025546Y008739D02*
X028461Y008739D01*
X028461Y008581D02*
X025610Y008581D01*
X025734Y008422D02*
X028461Y008422D01*
X028461Y008264D02*
X025887Y008264D01*
X025887Y008105D02*
X028461Y008105D01*
X028461Y007947D02*
X025887Y007947D01*
X025784Y007788D02*
X028461Y007788D01*
X022086Y001448D02*
X019810Y001448D01*
X019810Y001290D02*
X022050Y001290D01*
X022050Y001131D02*
X019810Y001131D01*
X019810Y000973D02*
X022061Y000973D01*
X001126Y009373D02*
X000460Y009373D01*
X000460Y009532D02*
X000737Y009532D01*
X000523Y009690D02*
X000460Y009690D01*
D16*
X003430Y008080D02*
X003480Y008080D01*
X006380Y005180D01*
X006380Y002280D01*
X006280Y002180D01*
X006196Y002113D01*
X006688Y002113D02*
X006780Y002080D01*
X006780Y001780D01*
X006980Y001580D01*
X008580Y001580D01*
X008580Y001680D01*
X010580Y003680D01*
X011619Y003680D01*
X011680Y003680D01*
X012280Y003680D01*
X012280Y000880D01*
X015780Y000880D01*
X015980Y001080D01*
X015980Y001180D01*
X018750Y001180D01*
X018750Y001680D02*
X015980Y001680D01*
X015980Y001580D01*
X015580Y001180D01*
X015280Y001180D01*
X015241Y001156D01*
X015241Y001656D02*
X015280Y001680D01*
X015580Y001680D01*
X015980Y002080D01*
X015980Y002180D01*
X018750Y002180D01*
X019380Y002180D02*
X019380Y005380D01*
X017680Y007080D01*
X007480Y007080D01*
X007480Y008080D01*
X007430Y008080D01*
X006430Y008080D02*
X006380Y008080D01*
X006380Y005180D01*
X008880Y004880D02*
X008980Y004880D01*
X007280Y003180D01*
X007280Y002280D01*
X007180Y002180D01*
X007180Y002113D01*
X007672Y002113D02*
X007680Y002180D01*
X007780Y002280D01*
X007780Y003280D01*
X009980Y005480D01*
X012280Y005480D01*
X012280Y004980D01*
X011980Y004680D01*
X011619Y004680D01*
X011619Y005180D02*
X011180Y005180D01*
X008180Y002180D01*
X008164Y002113D01*
X010580Y003180D02*
X011619Y003180D01*
X011680Y003180D01*
X011680Y002680D01*
X011619Y002680D01*
X011680Y003680D02*
X011680Y004180D01*
X011619Y004180D01*
X009880Y005780D02*
X008980Y004880D01*
X009880Y005780D02*
X015180Y005780D01*
X015180Y005180D01*
X015241Y005180D01*
X015580Y004680D02*
X015880Y004980D01*
X015880Y005180D01*
X018750Y005180D01*
X018750Y004680D02*
X015980Y004680D01*
X015980Y004580D01*
X015580Y004180D01*
X015280Y004180D01*
X015241Y004156D01*
X015580Y003680D02*
X015980Y004080D01*
X015980Y004180D01*
X018750Y004180D01*
X018750Y003680D02*
X015980Y003680D01*
X015980Y003580D01*
X015580Y003180D01*
X015280Y003180D01*
X015241Y003156D01*
X015580Y002680D02*
X015980Y003080D01*
X015980Y003180D01*
X018750Y003180D01*
X018750Y002680D02*
X015980Y002680D01*
X015980Y002580D01*
X015580Y002180D01*
X015280Y002180D01*
X015241Y002156D01*
X015241Y002656D02*
X015280Y002680D01*
X015580Y002680D01*
X015580Y003680D02*
X015280Y003680D01*
X015241Y003656D01*
X015241Y004668D02*
X015280Y004680D01*
X015580Y004680D01*
X017580Y007580D02*
X019680Y005480D01*
X019680Y003180D01*
X022610Y003180D01*
X022610Y002680D02*
X023580Y002680D01*
X022610Y002180D02*
X019380Y002180D01*
X019580Y001680D02*
X019580Y000680D01*
X019580Y001680D02*
X022610Y001680D01*
X022610Y001180D02*
X024380Y001180D01*
X024380Y008080D01*
X024430Y008080D01*
X023980Y008280D02*
X024280Y008580D01*
X025380Y008580D01*
X025380Y008080D01*
X025430Y008080D01*
X023980Y008280D02*
X023980Y006480D01*
X022680Y005180D01*
X022610Y005180D01*
X022610Y004680D02*
X021980Y004680D01*
X021980Y007680D01*
X022380Y008080D01*
X022430Y008080D01*
X020280Y007280D02*
X019480Y008080D01*
X019430Y008080D01*
X020280Y007280D02*
X020280Y004180D01*
X022610Y004180D01*
X022610Y003680D02*
X019980Y003680D01*
X019980Y005580D01*
X017480Y008080D01*
X016430Y008080D01*
X017580Y007580D02*
X013480Y007580D01*
X013480Y008080D01*
X013430Y008080D01*
X011680Y001180D02*
X011619Y001180D01*
X011680Y001180D02*
X011680Y000880D01*
X012280Y000880D01*
D17*
X010580Y003180D03*
X008880Y004880D03*
X019580Y000680D03*
X023580Y002680D03*
X026180Y004180D03*
D18*
X027430Y001430D03*
X027430Y010680D03*
X001430Y010680D03*
X001430Y001430D03*
M02*
