%
M48
M72
T01C0.0240
T02C0.0394
T03C0.1200
%
T01
X10580Y3180
X8880Y4880
X19580Y680
X23580Y2680
X26180Y4180
T02
X25430Y8080
X24430Y8080
X22430Y8080
X21430Y8080
X19430Y8080
X18430Y8080
X16430Y8080
X15430Y8080
X13430Y8080
X12430Y8080
X10430Y8080
X9430Y8080
X7430Y8080
X6430Y8080
X4430Y8080
X3430Y8080
T03
X1430Y1430
X1430Y10680
X27430Y10680
X27430Y1430
M30
