G75*
%MOIN*%
%OFA0B0*%
%FSLAX24Y24*%
%IPPOS*%
%LPD*%
%AMOC8*
5,1,8,0,0,1.08239X$1,22.5*
%
%ADD10R,0.0800X0.0260*%
%ADD11R,0.0866X0.0236*%
%ADD12R,0.0315X0.0630*%
%ADD13R,0.0827X0.1181*%
D10*
X018750Y001180D03*
X018750Y001680D03*
X018750Y002180D03*
X018750Y002680D03*
X018750Y003180D03*
X018750Y003680D03*
X018750Y004180D03*
X018750Y004680D03*
X018750Y005180D03*
X022610Y005180D03*
X022610Y004680D03*
X022610Y004180D03*
X022610Y003680D03*
X022610Y003180D03*
X022610Y002680D03*
X022610Y002180D03*
X022610Y001680D03*
X022610Y001180D03*
D11*
X015241Y001156D03*
X015241Y001656D03*
X015241Y002156D03*
X015241Y002656D03*
X015241Y003156D03*
X015241Y003656D03*
X015241Y004156D03*
X015241Y004668D03*
X015241Y005180D03*
X011619Y005180D03*
X011619Y004680D03*
X011619Y004180D03*
X011619Y003680D03*
X011619Y003180D03*
X011619Y002680D03*
X011619Y002180D03*
X011619Y001680D03*
X011619Y001180D03*
D12*
X008164Y002113D03*
X007672Y002113D03*
X007180Y002113D03*
X006688Y002113D03*
X006196Y002113D03*
D13*
X005192Y000971D03*
X009168Y000971D03*
M02*
