G75*
%MOIN*%
%OFA0B0*%
%FSLAX24Y24*%
%IPPOS*%
%LPD*%
%AMOC8*
5,1,8,0,0,1.08239X$1,22.5*
%
%ADD10C,0.0000*%
%ADD11C,0.0100*%
%ADD12C,0.0080*%
%ADD13C,0.0060*%
%ADD14C,0.0040*%
D10*
X000180Y000188D02*
X035550Y000188D01*
X035550Y008180D01*
X000180Y008180D01*
X000180Y000188D01*
X011030Y004180D02*
X011032Y004230D01*
X011038Y004280D01*
X011048Y004330D01*
X011061Y004378D01*
X011078Y004426D01*
X011099Y004472D01*
X011123Y004516D01*
X011151Y004558D01*
X011182Y004598D01*
X011216Y004635D01*
X011253Y004670D01*
X011292Y004701D01*
X011333Y004730D01*
X011377Y004755D01*
X011423Y004777D01*
X011470Y004795D01*
X011518Y004809D01*
X011567Y004820D01*
X011617Y004827D01*
X011667Y004830D01*
X011718Y004829D01*
X011768Y004824D01*
X011818Y004815D01*
X011866Y004803D01*
X011914Y004786D01*
X011960Y004766D01*
X012005Y004743D01*
X012048Y004716D01*
X012088Y004686D01*
X012126Y004653D01*
X012161Y004617D01*
X012194Y004578D01*
X012223Y004537D01*
X012249Y004494D01*
X012272Y004449D01*
X012291Y004402D01*
X012306Y004354D01*
X012318Y004305D01*
X012326Y004255D01*
X012330Y004205D01*
X012330Y004155D01*
X012326Y004105D01*
X012318Y004055D01*
X012306Y004006D01*
X012291Y003958D01*
X012272Y003911D01*
X012249Y003866D01*
X012223Y003823D01*
X012194Y003782D01*
X012161Y003743D01*
X012126Y003707D01*
X012088Y003674D01*
X012048Y003644D01*
X012005Y003617D01*
X011960Y003594D01*
X011914Y003574D01*
X011866Y003557D01*
X011818Y003545D01*
X011768Y003536D01*
X011718Y003531D01*
X011667Y003530D01*
X011617Y003533D01*
X011567Y003540D01*
X011518Y003551D01*
X011470Y003565D01*
X011423Y003583D01*
X011377Y003605D01*
X011333Y003630D01*
X011292Y003659D01*
X011253Y003690D01*
X011216Y003725D01*
X011182Y003762D01*
X011151Y003802D01*
X011123Y003844D01*
X011099Y003888D01*
X011078Y003934D01*
X011061Y003982D01*
X011048Y004030D01*
X011038Y004080D01*
X011032Y004130D01*
X011030Y004180D01*
X016030Y004180D02*
X016032Y004230D01*
X016038Y004280D01*
X016048Y004330D01*
X016061Y004378D01*
X016078Y004426D01*
X016099Y004472D01*
X016123Y004516D01*
X016151Y004558D01*
X016182Y004598D01*
X016216Y004635D01*
X016253Y004670D01*
X016292Y004701D01*
X016333Y004730D01*
X016377Y004755D01*
X016423Y004777D01*
X016470Y004795D01*
X016518Y004809D01*
X016567Y004820D01*
X016617Y004827D01*
X016667Y004830D01*
X016718Y004829D01*
X016768Y004824D01*
X016818Y004815D01*
X016866Y004803D01*
X016914Y004786D01*
X016960Y004766D01*
X017005Y004743D01*
X017048Y004716D01*
X017088Y004686D01*
X017126Y004653D01*
X017161Y004617D01*
X017194Y004578D01*
X017223Y004537D01*
X017249Y004494D01*
X017272Y004449D01*
X017291Y004402D01*
X017306Y004354D01*
X017318Y004305D01*
X017326Y004255D01*
X017330Y004205D01*
X017330Y004155D01*
X017326Y004105D01*
X017318Y004055D01*
X017306Y004006D01*
X017291Y003958D01*
X017272Y003911D01*
X017249Y003866D01*
X017223Y003823D01*
X017194Y003782D01*
X017161Y003743D01*
X017126Y003707D01*
X017088Y003674D01*
X017048Y003644D01*
X017005Y003617D01*
X016960Y003594D01*
X016914Y003574D01*
X016866Y003557D01*
X016818Y003545D01*
X016768Y003536D01*
X016718Y003531D01*
X016667Y003530D01*
X016617Y003533D01*
X016567Y003540D01*
X016518Y003551D01*
X016470Y003565D01*
X016423Y003583D01*
X016377Y003605D01*
X016333Y003630D01*
X016292Y003659D01*
X016253Y003690D01*
X016216Y003725D01*
X016182Y003762D01*
X016151Y003802D01*
X016123Y003844D01*
X016099Y003888D01*
X016078Y003934D01*
X016061Y003982D01*
X016048Y004030D01*
X016038Y004080D01*
X016032Y004130D01*
X016030Y004180D01*
X020530Y005680D02*
X020532Y005730D01*
X020538Y005780D01*
X020548Y005830D01*
X020561Y005878D01*
X020578Y005926D01*
X020599Y005972D01*
X020623Y006016D01*
X020651Y006058D01*
X020682Y006098D01*
X020716Y006135D01*
X020753Y006170D01*
X020792Y006201D01*
X020833Y006230D01*
X020877Y006255D01*
X020923Y006277D01*
X020970Y006295D01*
X021018Y006309D01*
X021067Y006320D01*
X021117Y006327D01*
X021167Y006330D01*
X021218Y006329D01*
X021268Y006324D01*
X021318Y006315D01*
X021366Y006303D01*
X021414Y006286D01*
X021460Y006266D01*
X021505Y006243D01*
X021548Y006216D01*
X021588Y006186D01*
X021626Y006153D01*
X021661Y006117D01*
X021694Y006078D01*
X021723Y006037D01*
X021749Y005994D01*
X021772Y005949D01*
X021791Y005902D01*
X021806Y005854D01*
X021818Y005805D01*
X021826Y005755D01*
X021830Y005705D01*
X021830Y005655D01*
X021826Y005605D01*
X021818Y005555D01*
X021806Y005506D01*
X021791Y005458D01*
X021772Y005411D01*
X021749Y005366D01*
X021723Y005323D01*
X021694Y005282D01*
X021661Y005243D01*
X021626Y005207D01*
X021588Y005174D01*
X021548Y005144D01*
X021505Y005117D01*
X021460Y005094D01*
X021414Y005074D01*
X021366Y005057D01*
X021318Y005045D01*
X021268Y005036D01*
X021218Y005031D01*
X021167Y005030D01*
X021117Y005033D01*
X021067Y005040D01*
X021018Y005051D01*
X020970Y005065D01*
X020923Y005083D01*
X020877Y005105D01*
X020833Y005130D01*
X020792Y005159D01*
X020753Y005190D01*
X020716Y005225D01*
X020682Y005262D01*
X020651Y005302D01*
X020623Y005344D01*
X020599Y005388D01*
X020578Y005434D01*
X020561Y005482D01*
X020548Y005530D01*
X020538Y005580D01*
X020532Y005630D01*
X020530Y005680D01*
X032790Y006430D02*
X032792Y006480D01*
X032798Y006530D01*
X032808Y006579D01*
X032821Y006628D01*
X032839Y006675D01*
X032860Y006721D01*
X032884Y006764D01*
X032912Y006806D01*
X032943Y006846D01*
X032977Y006883D01*
X033014Y006917D01*
X033054Y006948D01*
X033096Y006976D01*
X033139Y007000D01*
X033185Y007021D01*
X033232Y007039D01*
X033281Y007052D01*
X033330Y007062D01*
X033380Y007068D01*
X033430Y007070D01*
X033480Y007068D01*
X033530Y007062D01*
X033579Y007052D01*
X033628Y007039D01*
X033675Y007021D01*
X033721Y007000D01*
X033764Y006976D01*
X033806Y006948D01*
X033846Y006917D01*
X033883Y006883D01*
X033917Y006846D01*
X033948Y006806D01*
X033976Y006764D01*
X034000Y006721D01*
X034021Y006675D01*
X034039Y006628D01*
X034052Y006579D01*
X034062Y006530D01*
X034068Y006480D01*
X034070Y006430D01*
X034068Y006380D01*
X034062Y006330D01*
X034052Y006281D01*
X034039Y006232D01*
X034021Y006185D01*
X034000Y006139D01*
X033976Y006096D01*
X033948Y006054D01*
X033917Y006014D01*
X033883Y005977D01*
X033846Y005943D01*
X033806Y005912D01*
X033764Y005884D01*
X033721Y005860D01*
X033675Y005839D01*
X033628Y005821D01*
X033579Y005808D01*
X033530Y005798D01*
X033480Y005792D01*
X033430Y005790D01*
X033380Y005792D01*
X033330Y005798D01*
X033281Y005808D01*
X033232Y005821D01*
X033185Y005839D01*
X033139Y005860D01*
X033096Y005884D01*
X033054Y005912D01*
X033014Y005943D01*
X032977Y005977D01*
X032943Y006014D01*
X032912Y006054D01*
X032884Y006096D01*
X032860Y006139D01*
X032839Y006185D01*
X032821Y006232D01*
X032808Y006281D01*
X032798Y006330D01*
X032792Y006380D01*
X032790Y006430D01*
X032790Y001930D02*
X032792Y001980D01*
X032798Y002030D01*
X032808Y002079D01*
X032821Y002128D01*
X032839Y002175D01*
X032860Y002221D01*
X032884Y002264D01*
X032912Y002306D01*
X032943Y002346D01*
X032977Y002383D01*
X033014Y002417D01*
X033054Y002448D01*
X033096Y002476D01*
X033139Y002500D01*
X033185Y002521D01*
X033232Y002539D01*
X033281Y002552D01*
X033330Y002562D01*
X033380Y002568D01*
X033430Y002570D01*
X033480Y002568D01*
X033530Y002562D01*
X033579Y002552D01*
X033628Y002539D01*
X033675Y002521D01*
X033721Y002500D01*
X033764Y002476D01*
X033806Y002448D01*
X033846Y002417D01*
X033883Y002383D01*
X033917Y002346D01*
X033948Y002306D01*
X033976Y002264D01*
X034000Y002221D01*
X034021Y002175D01*
X034039Y002128D01*
X034052Y002079D01*
X034062Y002030D01*
X034068Y001980D01*
X034070Y001930D01*
X034068Y001880D01*
X034062Y001830D01*
X034052Y001781D01*
X034039Y001732D01*
X034021Y001685D01*
X034000Y001639D01*
X033976Y001596D01*
X033948Y001554D01*
X033917Y001514D01*
X033883Y001477D01*
X033846Y001443D01*
X033806Y001412D01*
X033764Y001384D01*
X033721Y001360D01*
X033675Y001339D01*
X033628Y001321D01*
X033579Y001308D01*
X033530Y001298D01*
X033480Y001292D01*
X033430Y001290D01*
X033380Y001292D01*
X033330Y001298D01*
X033281Y001308D01*
X033232Y001321D01*
X033185Y001339D01*
X033139Y001360D01*
X033096Y001384D01*
X033054Y001412D01*
X033014Y001443D01*
X032977Y001477D01*
X032943Y001514D01*
X032912Y001554D01*
X032884Y001596D01*
X032860Y001639D01*
X032839Y001685D01*
X032821Y001732D01*
X032808Y001781D01*
X032798Y001830D01*
X032792Y001880D01*
X032790Y001930D01*
D11*
X024180Y001680D02*
X024180Y000680D01*
X022180Y000680D01*
X022180Y001680D01*
X023180Y001680D01*
X023180Y000680D01*
X023180Y001680D02*
X024180Y001680D01*
X024180Y006680D02*
X022180Y006680D01*
X022180Y007680D01*
X023180Y007680D01*
X023180Y006680D01*
X024180Y006680D02*
X024180Y007680D01*
X023180Y007680D01*
X012180Y007680D02*
X012180Y006680D01*
X008180Y006680D01*
X008180Y007680D01*
X009180Y007680D01*
X009180Y006680D01*
X009180Y007680D02*
X012180Y007680D01*
D12*
X003524Y008188D02*
X002924Y008188D01*
X002734Y008188D01*
X001160Y008188D01*
X000966Y008188D01*
X000966Y000188D01*
X000699Y000188D01*
X000454Y000188D01*
X000336Y000188D01*
X000336Y008188D01*
X000454Y008188D01*
X000454Y000188D01*
X000699Y000188D02*
X000699Y008188D01*
X000620Y008188D01*
X000454Y008188D01*
X000561Y008309D02*
X000620Y008239D01*
X000620Y008188D01*
X000699Y008188D02*
X000783Y008188D01*
X000966Y008188D01*
X000842Y008309D02*
X000783Y008239D01*
X000783Y008188D01*
X000842Y008309D02*
X000842Y008413D01*
X000561Y008413D01*
X000561Y008309D01*
X001186Y007188D02*
X001188Y007242D01*
X001194Y007297D01*
X001204Y007350D01*
X001217Y007403D01*
X001235Y007454D01*
X001256Y007505D01*
X001280Y007553D01*
X001308Y007600D01*
X001340Y007644D01*
X001374Y007686D01*
X001412Y007726D01*
X001452Y007763D01*
X001495Y007796D01*
X001540Y007827D01*
X001587Y007854D01*
X001636Y007878D01*
X001686Y007898D01*
X001738Y007915D01*
X001791Y007927D01*
X001845Y007936D01*
X001899Y007941D01*
X001954Y007942D01*
X002008Y007939D01*
X002062Y007932D01*
X002115Y007921D01*
X002168Y007907D01*
X002219Y007888D01*
X002269Y007866D01*
X002317Y007841D01*
X002363Y007812D01*
X002407Y007780D01*
X002449Y007745D01*
X002487Y007707D01*
X002523Y007666D01*
X002556Y007622D01*
X002586Y007577D01*
X002612Y007529D01*
X002635Y007480D01*
X002655Y007429D01*
X002670Y007377D01*
X002682Y007323D01*
X002690Y007270D01*
X002694Y007215D01*
X002694Y007161D01*
X002690Y007106D01*
X002682Y007053D01*
X002670Y006999D01*
X002655Y006947D01*
X002635Y006896D01*
X002612Y006847D01*
X002586Y006799D01*
X002556Y006754D01*
X002523Y006710D01*
X002487Y006669D01*
X002449Y006631D01*
X002407Y006596D01*
X002363Y006564D01*
X002317Y006535D01*
X002269Y006510D01*
X002219Y006488D01*
X002168Y006469D01*
X002115Y006455D01*
X002062Y006444D01*
X002008Y006437D01*
X001954Y006434D01*
X001899Y006435D01*
X001845Y006440D01*
X001791Y006449D01*
X001738Y006461D01*
X001686Y006478D01*
X001636Y006498D01*
X001587Y006522D01*
X001540Y006549D01*
X001495Y006580D01*
X001452Y006613D01*
X001412Y006650D01*
X001374Y006690D01*
X001340Y006732D01*
X001308Y006776D01*
X001280Y006823D01*
X001256Y006871D01*
X001235Y006922D01*
X001217Y006973D01*
X001204Y007026D01*
X001194Y007079D01*
X001188Y007134D01*
X001186Y007188D01*
X002924Y008188D02*
X002924Y000188D01*
X003524Y000188D01*
X003524Y008188D01*
X001186Y005188D02*
X001188Y005242D01*
X001194Y005297D01*
X001204Y005350D01*
X001217Y005403D01*
X001235Y005454D01*
X001256Y005505D01*
X001280Y005553D01*
X001308Y005600D01*
X001340Y005644D01*
X001374Y005686D01*
X001412Y005726D01*
X001452Y005763D01*
X001495Y005796D01*
X001540Y005827D01*
X001587Y005854D01*
X001636Y005878D01*
X001686Y005898D01*
X001738Y005915D01*
X001791Y005927D01*
X001845Y005936D01*
X001899Y005941D01*
X001954Y005942D01*
X002008Y005939D01*
X002062Y005932D01*
X002115Y005921D01*
X002168Y005907D01*
X002219Y005888D01*
X002269Y005866D01*
X002317Y005841D01*
X002363Y005812D01*
X002407Y005780D01*
X002449Y005745D01*
X002487Y005707D01*
X002523Y005666D01*
X002556Y005622D01*
X002586Y005577D01*
X002612Y005529D01*
X002635Y005480D01*
X002655Y005429D01*
X002670Y005377D01*
X002682Y005323D01*
X002690Y005270D01*
X002694Y005215D01*
X002694Y005161D01*
X002690Y005106D01*
X002682Y005053D01*
X002670Y004999D01*
X002655Y004947D01*
X002635Y004896D01*
X002612Y004847D01*
X002586Y004799D01*
X002556Y004754D01*
X002523Y004710D01*
X002487Y004669D01*
X002449Y004631D01*
X002407Y004596D01*
X002363Y004564D01*
X002317Y004535D01*
X002269Y004510D01*
X002219Y004488D01*
X002168Y004469D01*
X002115Y004455D01*
X002062Y004444D01*
X002008Y004437D01*
X001954Y004434D01*
X001899Y004435D01*
X001845Y004440D01*
X001791Y004449D01*
X001738Y004461D01*
X001686Y004478D01*
X001636Y004498D01*
X001587Y004522D01*
X001540Y004549D01*
X001495Y004580D01*
X001452Y004613D01*
X001412Y004650D01*
X001374Y004690D01*
X001340Y004732D01*
X001308Y004776D01*
X001280Y004823D01*
X001256Y004871D01*
X001235Y004922D01*
X001217Y004973D01*
X001204Y005026D01*
X001194Y005079D01*
X001188Y005134D01*
X001186Y005188D01*
X001186Y003188D02*
X001188Y003242D01*
X001194Y003297D01*
X001204Y003350D01*
X001217Y003403D01*
X001235Y003454D01*
X001256Y003505D01*
X001280Y003553D01*
X001308Y003600D01*
X001340Y003644D01*
X001374Y003686D01*
X001412Y003726D01*
X001452Y003763D01*
X001495Y003796D01*
X001540Y003827D01*
X001587Y003854D01*
X001636Y003878D01*
X001686Y003898D01*
X001738Y003915D01*
X001791Y003927D01*
X001845Y003936D01*
X001899Y003941D01*
X001954Y003942D01*
X002008Y003939D01*
X002062Y003932D01*
X002115Y003921D01*
X002168Y003907D01*
X002219Y003888D01*
X002269Y003866D01*
X002317Y003841D01*
X002363Y003812D01*
X002407Y003780D01*
X002449Y003745D01*
X002487Y003707D01*
X002523Y003666D01*
X002556Y003622D01*
X002586Y003577D01*
X002612Y003529D01*
X002635Y003480D01*
X002655Y003429D01*
X002670Y003377D01*
X002682Y003323D01*
X002690Y003270D01*
X002694Y003215D01*
X002694Y003161D01*
X002690Y003106D01*
X002682Y003053D01*
X002670Y002999D01*
X002655Y002947D01*
X002635Y002896D01*
X002612Y002847D01*
X002586Y002799D01*
X002556Y002754D01*
X002523Y002710D01*
X002487Y002669D01*
X002449Y002631D01*
X002407Y002596D01*
X002363Y002564D01*
X002317Y002535D01*
X002269Y002510D01*
X002219Y002488D01*
X002168Y002469D01*
X002115Y002455D01*
X002062Y002444D01*
X002008Y002437D01*
X001954Y002434D01*
X001899Y002435D01*
X001845Y002440D01*
X001791Y002449D01*
X001738Y002461D01*
X001686Y002478D01*
X001636Y002498D01*
X001587Y002522D01*
X001540Y002549D01*
X001495Y002580D01*
X001452Y002613D01*
X001412Y002650D01*
X001374Y002690D01*
X001340Y002732D01*
X001308Y002776D01*
X001280Y002823D01*
X001256Y002871D01*
X001235Y002922D01*
X001217Y002973D01*
X001204Y003026D01*
X001194Y003079D01*
X001188Y003134D01*
X001186Y003188D01*
X001186Y001188D02*
X001188Y001242D01*
X001194Y001297D01*
X001204Y001350D01*
X001217Y001403D01*
X001235Y001454D01*
X001256Y001505D01*
X001280Y001553D01*
X001308Y001600D01*
X001340Y001644D01*
X001374Y001686D01*
X001412Y001726D01*
X001452Y001763D01*
X001495Y001796D01*
X001540Y001827D01*
X001587Y001854D01*
X001636Y001878D01*
X001686Y001898D01*
X001738Y001915D01*
X001791Y001927D01*
X001845Y001936D01*
X001899Y001941D01*
X001954Y001942D01*
X002008Y001939D01*
X002062Y001932D01*
X002115Y001921D01*
X002168Y001907D01*
X002219Y001888D01*
X002269Y001866D01*
X002317Y001841D01*
X002363Y001812D01*
X002407Y001780D01*
X002449Y001745D01*
X002487Y001707D01*
X002523Y001666D01*
X002556Y001622D01*
X002586Y001577D01*
X002612Y001529D01*
X002635Y001480D01*
X002655Y001429D01*
X002670Y001377D01*
X002682Y001323D01*
X002690Y001270D01*
X002694Y001215D01*
X002694Y001161D01*
X002690Y001106D01*
X002682Y001053D01*
X002670Y000999D01*
X002655Y000947D01*
X002635Y000896D01*
X002612Y000847D01*
X002586Y000799D01*
X002556Y000754D01*
X002523Y000710D01*
X002487Y000669D01*
X002449Y000631D01*
X002407Y000596D01*
X002363Y000564D01*
X002317Y000535D01*
X002269Y000510D01*
X002219Y000488D01*
X002168Y000469D01*
X002115Y000455D01*
X002062Y000444D01*
X002008Y000437D01*
X001954Y000434D01*
X001899Y000435D01*
X001845Y000440D01*
X001791Y000449D01*
X001738Y000461D01*
X001686Y000478D01*
X001636Y000498D01*
X001587Y000522D01*
X001540Y000549D01*
X001495Y000580D01*
X001452Y000613D01*
X001412Y000650D01*
X001374Y000690D01*
X001340Y000732D01*
X001308Y000776D01*
X001280Y000823D01*
X001256Y000871D01*
X001235Y000922D01*
X001217Y000973D01*
X001204Y001026D01*
X001194Y001079D01*
X001188Y001134D01*
X001186Y001188D01*
X001160Y000188D02*
X000966Y000188D01*
X001160Y000188D02*
X002734Y000188D01*
X002924Y000188D01*
X025198Y002904D02*
X025906Y002904D01*
X027954Y002904D02*
X028662Y002904D01*
X028662Y006763D01*
X025198Y006763D01*
X025198Y008141D02*
X025198Y005070D01*
X028662Y006763D02*
X028662Y008141D01*
X025198Y008141D01*
X029171Y007143D02*
X035494Y007143D01*
X035494Y001217D01*
X029171Y001217D01*
X029171Y007143D01*
D13*
X032259Y005571D02*
X032259Y005144D01*
X032580Y005144D01*
X032473Y005357D01*
X032473Y005464D01*
X032580Y005571D01*
X032793Y005571D01*
X032900Y005464D01*
X032900Y005250D01*
X032793Y005144D01*
X032580Y004926D02*
X032580Y004499D01*
X032259Y004819D01*
X032900Y004819D01*
X032259Y004282D02*
X032259Y004068D01*
X032259Y004175D02*
X032793Y004175D01*
X032900Y004068D01*
X032900Y003961D01*
X032793Y003855D01*
X032900Y003637D02*
X032686Y003424D01*
X032686Y003530D02*
X032686Y003210D01*
X032900Y003210D02*
X032259Y003210D01*
X032259Y003530D01*
X032366Y003637D01*
X032580Y003637D01*
X032686Y003530D01*
D14*
X028111Y005030D02*
X028111Y005424D01*
X028111Y005621D02*
X028111Y006015D01*
X028111Y006211D02*
X028111Y006605D01*
X027324Y006605D02*
X027324Y005621D01*
X026536Y005621D02*
X026536Y006605D01*
X025749Y006605D02*
X025749Y006211D01*
X025749Y006015D02*
X025749Y005621D01*
X025749Y005424D02*
X025749Y005030D01*
X025749Y006999D02*
X025749Y007393D01*
X025749Y007589D02*
X025749Y007983D01*
X026536Y007786D02*
X026733Y007983D01*
X027127Y007983D01*
X027324Y007786D01*
X027324Y006999D01*
X028111Y006999D02*
X028111Y007393D01*
X028111Y007589D02*
X028111Y007983D01*
X026536Y007786D02*
X026536Y006999D01*
M02*
