%
M48
M72
T01C0.0320
T02C0.0354
T03C0.0400
T04C0.0512
T05C0.1280
T06C0.1300
%
T01
X25001Y3948
X26930Y2786
X26930Y5149
T02
X29930Y4930
X30930Y4430
X29930Y3930
X30930Y3430
X29930Y2930
X30930Y2430
X30930Y5430
X29930Y5930
T03
X23680Y7180
X22680Y7180
X11680Y7180
X10680Y7180
X9680Y7180
X8680Y7180
X22680Y1180
X23680Y1180
T04
X1940Y1188
X1940Y3188
X1940Y5188
X1940Y7188
T05
X33430Y6430
X33430Y1930
T06
X21180Y5680
X16680Y4180
X11680Y4180
M30
