%
M48
M72
T01C0.0240
T02C0.0354
T03C0.0394
T04C0.0472
T05C0.1260
T06C0.1280
%
T01
X1583Y4833
X7333Y5333
X11633Y5433
X7833Y8833
X9333Y9733
X4533Y13333
X4533Y14083
X7583Y14083
X1083Y11833
T02
X13083Y8833
X14083Y8333
X13083Y7833
X14083Y7333
X13083Y6833
X14083Y6333
X13083Y5833
X14083Y5333
T03
X14083Y10733
X13083Y10733
X17083Y10733
X18083Y10733
T04
X1583Y10583
X1583Y9583
X1583Y8583
T05
X10583Y6833
X10583Y11833
T06
X16583Y9333
X16583Y4833
M30
