G75*
%MOIN*%
%OFA0B0*%
%FSLAX24Y24*%
%IPPOS*%
%LPD*%
%AMOC8*
5,1,8,0,0,1.08239X$1,22.5*
%
%ADD10C,0.0000*%
%ADD11C,0.0060*%
%ADD12C,0.0050*%
%ADD13C,0.0080*%
%ADD14C,0.0030*%
%ADD15C,0.0040*%
%ADD16C,0.0100*%
D10*
X000333Y003833D02*
X000333Y014703D01*
X019075Y014703D01*
X019075Y003833D01*
X000333Y003833D01*
X009953Y006833D02*
X009955Y006883D01*
X009961Y006933D01*
X009971Y006982D01*
X009985Y007030D01*
X010002Y007077D01*
X010023Y007122D01*
X010048Y007166D01*
X010076Y007207D01*
X010108Y007246D01*
X010142Y007283D01*
X010179Y007317D01*
X010219Y007347D01*
X010261Y007374D01*
X010305Y007398D01*
X010351Y007419D01*
X010398Y007435D01*
X010446Y007448D01*
X010496Y007457D01*
X010545Y007462D01*
X010596Y007463D01*
X010646Y007460D01*
X010695Y007453D01*
X010744Y007442D01*
X010792Y007427D01*
X010838Y007409D01*
X010883Y007387D01*
X010926Y007361D01*
X010967Y007332D01*
X011006Y007300D01*
X011042Y007265D01*
X011074Y007227D01*
X011104Y007187D01*
X011131Y007144D01*
X011154Y007100D01*
X011173Y007054D01*
X011189Y007006D01*
X011201Y006957D01*
X011209Y006908D01*
X011213Y006858D01*
X011213Y006808D01*
X011209Y006758D01*
X011201Y006709D01*
X011189Y006660D01*
X011173Y006612D01*
X011154Y006566D01*
X011131Y006522D01*
X011104Y006479D01*
X011074Y006439D01*
X011042Y006401D01*
X011006Y006366D01*
X010967Y006334D01*
X010926Y006305D01*
X010883Y006279D01*
X010838Y006257D01*
X010792Y006239D01*
X010744Y006224D01*
X010695Y006213D01*
X010646Y006206D01*
X010596Y006203D01*
X010545Y006204D01*
X010496Y006209D01*
X010446Y006218D01*
X010398Y006231D01*
X010351Y006247D01*
X010305Y006268D01*
X010261Y006292D01*
X010219Y006319D01*
X010179Y006349D01*
X010142Y006383D01*
X010108Y006420D01*
X010076Y006459D01*
X010048Y006500D01*
X010023Y006544D01*
X010002Y006589D01*
X009985Y006636D01*
X009971Y006684D01*
X009961Y006733D01*
X009955Y006783D01*
X009953Y006833D01*
X015943Y004833D02*
X015945Y004883D01*
X015951Y004933D01*
X015961Y004982D01*
X015974Y005031D01*
X015992Y005078D01*
X016013Y005124D01*
X016037Y005167D01*
X016065Y005209D01*
X016096Y005249D01*
X016130Y005286D01*
X016167Y005320D01*
X016207Y005351D01*
X016249Y005379D01*
X016292Y005403D01*
X016338Y005424D01*
X016385Y005442D01*
X016434Y005455D01*
X016483Y005465D01*
X016533Y005471D01*
X016583Y005473D01*
X016633Y005471D01*
X016683Y005465D01*
X016732Y005455D01*
X016781Y005442D01*
X016828Y005424D01*
X016874Y005403D01*
X016917Y005379D01*
X016959Y005351D01*
X016999Y005320D01*
X017036Y005286D01*
X017070Y005249D01*
X017101Y005209D01*
X017129Y005167D01*
X017153Y005124D01*
X017174Y005078D01*
X017192Y005031D01*
X017205Y004982D01*
X017215Y004933D01*
X017221Y004883D01*
X017223Y004833D01*
X017221Y004783D01*
X017215Y004733D01*
X017205Y004684D01*
X017192Y004635D01*
X017174Y004588D01*
X017153Y004542D01*
X017129Y004499D01*
X017101Y004457D01*
X017070Y004417D01*
X017036Y004380D01*
X016999Y004346D01*
X016959Y004315D01*
X016917Y004287D01*
X016874Y004263D01*
X016828Y004242D01*
X016781Y004224D01*
X016732Y004211D01*
X016683Y004201D01*
X016633Y004195D01*
X016583Y004193D01*
X016533Y004195D01*
X016483Y004201D01*
X016434Y004211D01*
X016385Y004224D01*
X016338Y004242D01*
X016292Y004263D01*
X016249Y004287D01*
X016207Y004315D01*
X016167Y004346D01*
X016130Y004380D01*
X016096Y004417D01*
X016065Y004457D01*
X016037Y004499D01*
X016013Y004542D01*
X015992Y004588D01*
X015974Y004635D01*
X015961Y004684D01*
X015951Y004733D01*
X015945Y004783D01*
X015943Y004833D01*
X015943Y009333D02*
X015945Y009383D01*
X015951Y009433D01*
X015961Y009482D01*
X015974Y009531D01*
X015992Y009578D01*
X016013Y009624D01*
X016037Y009667D01*
X016065Y009709D01*
X016096Y009749D01*
X016130Y009786D01*
X016167Y009820D01*
X016207Y009851D01*
X016249Y009879D01*
X016292Y009903D01*
X016338Y009924D01*
X016385Y009942D01*
X016434Y009955D01*
X016483Y009965D01*
X016533Y009971D01*
X016583Y009973D01*
X016633Y009971D01*
X016683Y009965D01*
X016732Y009955D01*
X016781Y009942D01*
X016828Y009924D01*
X016874Y009903D01*
X016917Y009879D01*
X016959Y009851D01*
X016999Y009820D01*
X017036Y009786D01*
X017070Y009749D01*
X017101Y009709D01*
X017129Y009667D01*
X017153Y009624D01*
X017174Y009578D01*
X017192Y009531D01*
X017205Y009482D01*
X017215Y009433D01*
X017221Y009383D01*
X017223Y009333D01*
X017221Y009283D01*
X017215Y009233D01*
X017205Y009184D01*
X017192Y009135D01*
X017174Y009088D01*
X017153Y009042D01*
X017129Y008999D01*
X017101Y008957D01*
X017070Y008917D01*
X017036Y008880D01*
X016999Y008846D01*
X016959Y008815D01*
X016917Y008787D01*
X016874Y008763D01*
X016828Y008742D01*
X016781Y008724D01*
X016732Y008711D01*
X016683Y008701D01*
X016633Y008695D01*
X016583Y008693D01*
X016533Y008695D01*
X016483Y008701D01*
X016434Y008711D01*
X016385Y008724D01*
X016338Y008742D01*
X016292Y008763D01*
X016249Y008787D01*
X016207Y008815D01*
X016167Y008846D01*
X016130Y008880D01*
X016096Y008917D01*
X016065Y008957D01*
X016037Y008999D01*
X016013Y009042D01*
X015992Y009088D01*
X015974Y009135D01*
X015961Y009184D01*
X015951Y009233D01*
X015945Y009283D01*
X015943Y009333D01*
X009953Y011833D02*
X009955Y011883D01*
X009961Y011933D01*
X009971Y011982D01*
X009985Y012030D01*
X010002Y012077D01*
X010023Y012122D01*
X010048Y012166D01*
X010076Y012207D01*
X010108Y012246D01*
X010142Y012283D01*
X010179Y012317D01*
X010219Y012347D01*
X010261Y012374D01*
X010305Y012398D01*
X010351Y012419D01*
X010398Y012435D01*
X010446Y012448D01*
X010496Y012457D01*
X010545Y012462D01*
X010596Y012463D01*
X010646Y012460D01*
X010695Y012453D01*
X010744Y012442D01*
X010792Y012427D01*
X010838Y012409D01*
X010883Y012387D01*
X010926Y012361D01*
X010967Y012332D01*
X011006Y012300D01*
X011042Y012265D01*
X011074Y012227D01*
X011104Y012187D01*
X011131Y012144D01*
X011154Y012100D01*
X011173Y012054D01*
X011189Y012006D01*
X011201Y011957D01*
X011209Y011908D01*
X011213Y011858D01*
X011213Y011808D01*
X011209Y011758D01*
X011201Y011709D01*
X011189Y011660D01*
X011173Y011612D01*
X011154Y011566D01*
X011131Y011522D01*
X011104Y011479D01*
X011074Y011439D01*
X011042Y011401D01*
X011006Y011366D01*
X010967Y011334D01*
X010926Y011305D01*
X010883Y011279D01*
X010838Y011257D01*
X010792Y011239D01*
X010744Y011224D01*
X010695Y011213D01*
X010646Y011206D01*
X010596Y011203D01*
X010545Y011204D01*
X010496Y011209D01*
X010446Y011218D01*
X010398Y011231D01*
X010351Y011247D01*
X010305Y011268D01*
X010261Y011292D01*
X010219Y011319D01*
X010179Y011349D01*
X010142Y011383D01*
X010108Y011420D01*
X010076Y011459D01*
X010048Y011500D01*
X010023Y011544D01*
X010002Y011589D01*
X009985Y011636D01*
X009971Y011684D01*
X009961Y011733D01*
X009955Y011783D01*
X009953Y011833D01*
D11*
X007063Y012373D02*
X007063Y013293D01*
X005103Y013293D02*
X005103Y012373D01*
X005103Y012713D02*
X005124Y012716D01*
X005144Y012722D01*
X005162Y012732D01*
X005179Y012744D01*
X005193Y012760D01*
X005204Y012777D01*
X005212Y012797D01*
X005217Y012817D01*
X005218Y012838D01*
X005215Y012859D01*
X005209Y012879D01*
X005199Y012897D01*
X005187Y012914D01*
X005171Y012928D01*
X005154Y012939D01*
X005134Y012947D01*
X005114Y012952D01*
X005093Y012953D01*
X004116Y011254D02*
X004116Y010613D01*
X004329Y010613D02*
X003902Y010613D01*
X003685Y010613D02*
X003365Y010934D01*
X003258Y010827D02*
X003685Y011254D01*
X003902Y011040D02*
X004116Y011254D01*
X003258Y011254D02*
X003258Y010613D01*
X003040Y010613D02*
X002613Y010613D01*
X002613Y011254D01*
X002016Y011091D02*
X002016Y008075D01*
X002613Y008113D02*
X003040Y008113D01*
X003258Y008113D02*
X003258Y008754D01*
X003258Y008327D02*
X003685Y008754D01*
X003902Y008647D02*
X004009Y008754D01*
X004223Y008754D01*
X004329Y008647D01*
X004329Y008540D01*
X003902Y008113D01*
X004329Y008113D01*
X003685Y008113D02*
X003365Y008434D01*
X002613Y008754D02*
X002613Y008113D01*
X002720Y009363D02*
X002934Y009363D01*
X003040Y009470D01*
X003040Y009684D01*
X002827Y009684D01*
X003040Y009897D02*
X002934Y010004D01*
X002720Y010004D01*
X002613Y009897D01*
X002613Y009470D01*
X002720Y009363D01*
X003258Y009363D02*
X003258Y010004D01*
X003685Y009363D01*
X003685Y010004D01*
X003902Y010004D02*
X004223Y010004D01*
X004329Y009897D01*
X004329Y009470D01*
X004223Y009363D01*
X003902Y009363D01*
X003902Y010004D01*
X005103Y007793D02*
X005103Y006873D01*
X005103Y007213D02*
X005124Y007216D01*
X005144Y007222D01*
X005162Y007232D01*
X005179Y007244D01*
X005193Y007260D01*
X005204Y007277D01*
X005212Y007297D01*
X005217Y007317D01*
X005218Y007338D01*
X005215Y007359D01*
X005209Y007379D01*
X005199Y007397D01*
X005187Y007414D01*
X005171Y007428D01*
X005154Y007439D01*
X005134Y007447D01*
X005114Y007452D01*
X005093Y007453D01*
X007063Y007793D02*
X007063Y006873D01*
X017163Y006971D02*
X017163Y007185D01*
X017163Y007078D02*
X017697Y007078D01*
X017803Y006971D01*
X017803Y006865D01*
X017697Y006758D01*
X017803Y006540D02*
X017590Y006327D01*
X017590Y006434D02*
X017590Y006113D01*
X017803Y006113D02*
X017163Y006113D01*
X017163Y006434D01*
X017270Y006540D01*
X017483Y006540D01*
X017590Y006434D01*
X017483Y007402D02*
X017483Y007829D01*
X017483Y008047D02*
X017163Y008047D01*
X017163Y008474D01*
X017376Y008367D02*
X017483Y008474D01*
X017697Y008474D01*
X017803Y008367D01*
X017803Y008154D01*
X017697Y008047D01*
X017483Y008047D02*
X017376Y008260D01*
X017376Y008367D01*
X017163Y007723D02*
X017483Y007402D01*
X017803Y007723D02*
X017163Y007723D01*
D12*
X011858Y007798D02*
X011408Y007798D01*
X011408Y008098D01*
X011633Y007948D02*
X011633Y007798D01*
X011558Y007638D02*
X011858Y007638D01*
X011858Y007413D01*
X011783Y007338D01*
X011558Y007338D01*
X011483Y007177D02*
X011783Y006877D01*
X011858Y006952D01*
X011858Y007102D01*
X011783Y007177D01*
X011483Y007177D01*
X011408Y007102D01*
X011408Y006952D01*
X011483Y006877D01*
X011783Y006877D01*
X011858Y006717D02*
X011858Y006417D01*
X011858Y006567D02*
X011408Y006567D01*
X011558Y006417D01*
X007708Y007008D02*
X007708Y007158D01*
X007708Y007083D02*
X007258Y007083D01*
X007258Y007008D02*
X007258Y007158D01*
X007333Y007315D02*
X007633Y007315D01*
X007708Y007390D01*
X007708Y007540D01*
X007633Y007616D01*
X007708Y007776D02*
X007408Y008076D01*
X007333Y008076D01*
X007258Y008001D01*
X007258Y007851D01*
X007333Y007776D01*
X007333Y007616D02*
X007258Y007540D01*
X007258Y007390D01*
X007333Y007315D01*
X007708Y007776D02*
X007708Y008076D01*
X007708Y012508D02*
X007708Y012658D01*
X007708Y012583D02*
X007258Y012583D01*
X007258Y012508D02*
X007258Y012658D01*
X007333Y012815D02*
X007633Y012815D01*
X007708Y012890D01*
X007708Y013040D01*
X007633Y013116D01*
X007708Y013276D02*
X007708Y013576D01*
X007708Y013426D02*
X007258Y013426D01*
X007408Y013276D01*
X007333Y013116D02*
X007258Y013040D01*
X007258Y012890D01*
X007333Y012815D01*
X013735Y013710D02*
X014142Y013710D01*
X013938Y013710D02*
X013938Y014321D01*
X013735Y014117D01*
X014758Y014160D02*
X014850Y014068D01*
X014758Y014160D02*
X014758Y014343D01*
X014850Y014435D01*
X014941Y014435D01*
X015308Y014068D01*
X015308Y014435D01*
X015758Y014252D02*
X016308Y014252D01*
X016308Y014435D02*
X016308Y014068D01*
X016033Y013883D02*
X016033Y013516D01*
X016308Y013330D02*
X016308Y012963D01*
X015758Y012963D01*
X015850Y012778D02*
X015758Y012686D01*
X015758Y012503D01*
X015850Y012411D01*
X016217Y012411D01*
X016308Y012503D01*
X016308Y012686D01*
X016217Y012778D01*
X015850Y012778D01*
X015308Y012686D02*
X015308Y012503D01*
X015217Y012411D01*
X014850Y012411D01*
X014758Y012503D01*
X014758Y012686D01*
X014850Y012778D01*
X015217Y012778D01*
X015308Y012686D01*
X015308Y012963D02*
X015308Y013330D01*
X015033Y013516D02*
X015033Y013883D01*
X015758Y014252D02*
X015941Y014068D01*
X015308Y012963D02*
X014758Y012963D01*
X014850Y012225D02*
X014758Y012134D01*
X014758Y011950D01*
X014850Y011858D01*
X014941Y011858D01*
X015033Y011950D01*
X015033Y012134D01*
X015125Y012225D01*
X015217Y012225D01*
X015308Y012134D01*
X015308Y011950D01*
X015217Y011858D01*
X015758Y011950D02*
X015850Y011858D01*
X015941Y011858D01*
X016033Y011950D01*
X016033Y012134D01*
X016125Y012225D01*
X016217Y012225D01*
X016308Y012134D01*
X016308Y011950D01*
X016217Y011858D01*
X015758Y011950D02*
X015758Y012134D01*
X015850Y012225D01*
X017735Y013710D02*
X018142Y013710D01*
X017938Y013710D02*
X017938Y014321D01*
X017735Y014117D01*
D13*
X018634Y014639D02*
X018634Y011375D01*
X016533Y011375D01*
X016533Y014639D01*
X018634Y014639D01*
X014634Y014639D02*
X014634Y011375D01*
X012533Y011375D01*
X012533Y014639D01*
X014634Y014639D01*
X012324Y010047D02*
X018647Y010047D01*
X018647Y004120D01*
X012324Y004120D01*
X012324Y010047D01*
D14*
X005070Y011588D02*
X004756Y011902D01*
X004756Y011745D02*
X005070Y011745D01*
X005070Y011902D02*
X004756Y011588D01*
X004913Y011588D02*
X004913Y011902D01*
X004913Y006402D02*
X004913Y006088D01*
X004756Y006088D02*
X005070Y006402D01*
X005070Y006245D02*
X004756Y006245D01*
X004756Y006402D02*
X005070Y006088D01*
D15*
X004463Y006039D02*
X004310Y005886D01*
X004310Y005963D02*
X004310Y005733D01*
X004463Y005733D02*
X004003Y005733D01*
X004003Y005963D01*
X004080Y006039D01*
X004233Y006039D01*
X004310Y005963D01*
X004233Y006193D02*
X004233Y006500D01*
X004003Y006423D02*
X004233Y006193D01*
X004463Y006423D02*
X004003Y006423D01*
X003163Y006500D02*
X002933Y006270D01*
X003010Y006193D02*
X002703Y006500D01*
X002463Y006423D02*
X002463Y006270D01*
X002387Y006193D01*
X002310Y006193D01*
X002233Y006270D01*
X002233Y006423D01*
X002310Y006500D01*
X002387Y006500D01*
X002463Y006423D01*
X002233Y006423D02*
X002156Y006500D01*
X002080Y006500D01*
X002003Y006423D01*
X002003Y006270D01*
X002080Y006193D01*
X002156Y006193D01*
X002233Y006270D01*
X002233Y006039D02*
X002080Y006039D01*
X002003Y005963D01*
X002003Y005733D01*
X002463Y005733D01*
X002310Y005733D02*
X002310Y005963D01*
X002233Y006039D01*
X002310Y005886D02*
X002463Y006039D01*
X002703Y005963D02*
X002780Y006039D01*
X003087Y005733D01*
X003163Y005809D01*
X003163Y005963D01*
X003087Y006039D01*
X002780Y006039D01*
X002703Y005963D02*
X002703Y005809D01*
X002780Y005733D01*
X003087Y005733D01*
X003087Y005579D02*
X003163Y005502D01*
X003163Y005349D01*
X003087Y005272D01*
X002780Y005579D01*
X002703Y005502D01*
X002703Y005349D01*
X002780Y005272D01*
X003087Y005272D01*
X003163Y005119D02*
X003163Y004812D01*
X003163Y004965D02*
X002703Y004965D01*
X002856Y004812D01*
X002780Y005579D02*
X003087Y005579D01*
X003163Y006193D02*
X002703Y006193D01*
X001163Y006193D02*
X001087Y006193D01*
X000780Y006500D01*
X000703Y006500D01*
X000703Y006193D01*
X000703Y006039D02*
X001163Y006039D01*
X001163Y005733D02*
X000703Y005733D01*
X000856Y005886D01*
X000703Y006039D01*
X000933Y005579D02*
X000933Y005272D01*
X000703Y005502D01*
X001163Y005502D01*
X005803Y005407D02*
X006034Y005407D01*
X006110Y005484D01*
X006110Y005637D01*
X006034Y005714D01*
X005803Y005714D01*
X005803Y005253D01*
X005957Y005407D02*
X006110Y005253D01*
X006264Y005330D02*
X006340Y005253D01*
X006494Y005253D01*
X006571Y005330D01*
X006571Y005407D01*
X006494Y005484D01*
X006264Y005484D01*
X006264Y005330D01*
X006264Y005484D02*
X006417Y005637D01*
X006571Y005714D01*
X007703Y005500D02*
X008010Y005193D01*
X007933Y005270D02*
X008163Y005500D01*
X008163Y005193D02*
X007703Y005193D01*
X007703Y004886D02*
X008163Y004886D01*
X008163Y004733D02*
X008163Y005039D01*
X007856Y004733D02*
X007703Y004886D01*
X007491Y004414D02*
X007185Y004107D01*
X007261Y004184D02*
X007491Y003953D01*
X007185Y003953D02*
X007185Y004414D01*
X007031Y004337D02*
X006724Y004030D01*
X006801Y003953D01*
X006954Y003953D01*
X007031Y004030D01*
X007031Y004337D01*
X006954Y004414D01*
X006801Y004414D01*
X006724Y004337D01*
X006724Y004030D01*
X006571Y004030D02*
X006494Y003953D01*
X006340Y003953D01*
X006264Y004030D01*
X006571Y004337D01*
X006571Y004030D01*
X006264Y004030D02*
X006264Y004337D01*
X006340Y004414D01*
X006494Y004414D01*
X006571Y004337D01*
X006110Y004337D02*
X006034Y004414D01*
X005880Y004414D01*
X005803Y004337D01*
X006110Y004337D02*
X006110Y004260D01*
X005803Y003953D01*
X006110Y003953D01*
X009003Y004733D02*
X009003Y004963D01*
X009080Y005039D01*
X009233Y005039D01*
X009310Y004963D01*
X009310Y004733D01*
X009310Y004886D02*
X009463Y005039D01*
X009463Y005193D02*
X009156Y005500D01*
X009080Y005500D01*
X009003Y005423D01*
X009003Y005270D01*
X009080Y005193D01*
X009463Y005193D02*
X009463Y005500D01*
X009463Y004733D02*
X009003Y004733D01*
X011606Y009151D02*
X011453Y009305D01*
X011913Y009305D01*
X011913Y009458D02*
X011913Y009151D01*
X011837Y009612D02*
X011530Y009612D01*
X011453Y009688D01*
X011453Y009842D01*
X011530Y009919D01*
X011837Y009612D01*
X011913Y009688D01*
X011913Y009842D01*
X011837Y009919D01*
X011530Y009919D01*
X011530Y010072D02*
X011453Y010149D01*
X011453Y010302D01*
X011530Y010379D01*
X011837Y010072D01*
X011913Y010149D01*
X011913Y010302D01*
X011837Y010379D01*
X011530Y010379D01*
X011606Y010533D02*
X011606Y010763D01*
X011683Y010839D01*
X011913Y010839D01*
X011913Y010993D02*
X011453Y010993D01*
X011453Y011300D01*
X011683Y011146D02*
X011683Y010993D01*
X011606Y010533D02*
X011913Y010533D01*
X011837Y010072D02*
X011530Y010072D01*
X009713Y012733D02*
X009253Y012733D01*
X009253Y012963D01*
X009330Y013039D01*
X009483Y013039D01*
X009560Y012963D01*
X009560Y012733D01*
X009560Y012886D02*
X009713Y013039D01*
X009713Y013193D02*
X009713Y013500D01*
X009713Y013346D02*
X009253Y013346D01*
X009406Y013193D01*
X008413Y013193D02*
X007953Y013193D01*
X008183Y013270D02*
X008413Y013500D01*
X008260Y013193D02*
X007953Y013500D01*
X008413Y013039D02*
X008413Y012733D01*
X008413Y012886D02*
X007953Y012886D01*
X008106Y012733D01*
X006571Y010964D02*
X006264Y010964D01*
X006264Y010734D01*
X006417Y010810D01*
X006494Y010810D01*
X006571Y010734D01*
X006571Y010580D01*
X006494Y010503D01*
X006340Y010503D01*
X006264Y010580D01*
X006110Y010503D02*
X005957Y010657D01*
X006034Y010657D02*
X005803Y010657D01*
X005803Y010503D02*
X005803Y010964D01*
X006034Y010964D01*
X006110Y010887D01*
X006110Y010734D01*
X006034Y010657D01*
X006034Y009664D02*
X005880Y009664D01*
X005803Y009587D01*
X006034Y009664D02*
X006110Y009587D01*
X006110Y009510D01*
X005803Y009203D01*
X006110Y009203D01*
X006264Y009280D02*
X006571Y009587D01*
X006571Y009280D01*
X006494Y009203D01*
X006340Y009203D01*
X006264Y009280D01*
X006264Y009587D01*
X006340Y009664D01*
X006494Y009664D01*
X006571Y009587D01*
X006724Y009587D02*
X006801Y009664D01*
X006954Y009664D01*
X007031Y009587D01*
X006724Y009280D01*
X006801Y009203D01*
X006954Y009203D01*
X007031Y009280D01*
X007031Y009587D01*
X007185Y009664D02*
X007185Y009203D01*
X007185Y009357D02*
X007491Y009664D01*
X007261Y009434D02*
X007491Y009203D01*
X006724Y009280D02*
X006724Y009587D01*
X004463Y011983D02*
X004003Y011983D01*
X004003Y012213D01*
X004080Y012289D01*
X004233Y012289D01*
X004310Y012213D01*
X004310Y011983D01*
X004310Y012136D02*
X004463Y012289D01*
X004387Y012443D02*
X004463Y012520D01*
X004463Y012673D01*
X004387Y012750D01*
X004310Y012750D01*
X004233Y012673D01*
X004233Y012596D01*
X004233Y012673D02*
X004156Y012750D01*
X004080Y012750D01*
X004003Y012673D01*
X004003Y012520D01*
X004080Y012443D01*
X003163Y012443D02*
X002703Y012443D01*
X002780Y012289D02*
X003087Y011983D01*
X003163Y012059D01*
X003163Y012213D01*
X003087Y012289D01*
X002780Y012289D01*
X002703Y012213D01*
X002703Y012059D01*
X002780Y011983D01*
X003087Y011983D01*
X003087Y011829D02*
X003163Y011752D01*
X003163Y011599D01*
X003087Y011522D01*
X002780Y011829D01*
X003087Y011829D01*
X003087Y011522D02*
X002780Y011522D01*
X002703Y011599D01*
X002703Y011752D01*
X002780Y011829D01*
X003163Y011369D02*
X003163Y011062D01*
X003163Y011215D02*
X002703Y011215D01*
X002856Y011062D01*
X003010Y012443D02*
X002703Y012750D01*
X002933Y012520D02*
X003163Y012750D01*
X002463Y013034D02*
X002003Y013034D01*
X002233Y012803D01*
X002233Y013110D01*
X002003Y013264D02*
X002156Y013417D01*
X002003Y013571D01*
X002463Y013571D01*
X002463Y013724D02*
X002387Y013724D01*
X002080Y014031D01*
X002003Y014031D01*
X002003Y013724D01*
X002003Y013264D02*
X002463Y013264D01*
X001163Y013264D02*
X001087Y013264D01*
X000780Y013571D01*
X000703Y013571D01*
X000703Y013264D01*
X000780Y013110D02*
X000933Y013110D01*
X001010Y013034D01*
X001010Y012803D01*
X001163Y012803D02*
X000703Y012803D01*
X000703Y013034D01*
X000780Y013110D01*
X001010Y012957D02*
X001163Y013110D01*
D16*
X001012Y011135D02*
X002154Y011135D01*
X002154Y008032D01*
X001012Y008032D01*
X001012Y011135D01*
M02*
