G75*
%MOIN*%
%OFA0B0*%
%FSLAX24Y24*%
%IPPOS*%
%LPD*%
%AMOC8*
5,1,8,0,0,1.08239X$1,22.5*
%
%ADD10C,0.1340*%
%ADD11R,0.0710X0.0789*%
%ADD12C,0.0634*%
%ADD13C,0.1360*%
%ADD14R,0.0300X0.0940*%
%ADD15R,0.0671X0.0592*%
%ADD16R,0.0592X0.0671*%
%ADD17C,0.0789*%
%ADD18OC8,0.0674*%
%ADD19C,0.0480*%
D10*
X010583Y006833D03*
X010583Y011833D03*
D11*
X010032Y008833D03*
X011135Y008833D03*
D12*
X013083Y008833D03*
X014083Y008333D03*
X013083Y007833D03*
X014083Y007333D03*
X013083Y006833D03*
X014083Y006333D03*
X013083Y005833D03*
X014083Y005333D03*
D13*
X016583Y004833D03*
X016583Y009333D03*
D14*
X006833Y008263D03*
X006333Y008263D03*
X005833Y008263D03*
X005333Y008263D03*
X005333Y006403D03*
X005833Y006403D03*
X006333Y006403D03*
X006833Y006403D03*
X006833Y011903D03*
X006333Y011903D03*
X005833Y011903D03*
X005333Y011903D03*
X005333Y013763D03*
X005833Y013763D03*
X006333Y013763D03*
X006833Y013763D03*
D15*
X008833Y013668D03*
X008833Y012999D03*
X003583Y012918D03*
X003583Y012249D03*
X001583Y012749D03*
X001583Y013418D03*
X001583Y006668D03*
X001583Y005999D03*
X003583Y005999D03*
X003583Y006668D03*
X008583Y005668D03*
X008583Y004999D03*
D16*
X006418Y004833D03*
X005749Y004833D03*
X010249Y009833D03*
X010918Y009833D03*
X006418Y010083D03*
X005749Y010083D03*
D17*
X001938Y009583D02*
X001229Y009583D01*
X001229Y008583D02*
X001938Y008583D01*
X001938Y010583D02*
X001229Y010583D01*
D18*
X013083Y010733D03*
X014083Y010733D03*
X017083Y010733D03*
X018083Y010733D03*
D19*
X001583Y004833D03*
X007333Y005333D03*
X011633Y005433D03*
X007833Y008833D03*
X009333Y009733D03*
X004533Y013333D03*
X004533Y014083D03*
X007583Y014083D03*
X001083Y011833D03*
M02*
