G75*
%MOIN*%
%OFA0B0*%
%FSLAX24Y24*%
%IPPOS*%
%LPD*%
%AMOC8*
5,1,8,0,0,1.08239X$1,22.5*
%
%ADD10C,0.0554*%
%ADD11C,0.0709*%
%ADD12OC8,0.0594*%
%ADD13C,0.0160*%
%ADD14C,0.0400*%
%ADD15C,0.0140*%
D10*
X013083Y005833D03*
X014083Y005333D03*
X014083Y006333D03*
X013083Y006833D03*
X014083Y007333D03*
X013083Y007833D03*
X014083Y008333D03*
X013083Y008833D03*
D11*
X001938Y008583D02*
X001229Y008583D01*
X001229Y009583D02*
X001938Y009583D01*
X001938Y010583D02*
X001229Y010583D01*
D12*
X013083Y010733D03*
X014083Y010733D03*
X017083Y010733D03*
X018083Y010733D03*
D13*
X000813Y008272D02*
X000813Y004313D01*
X015590Y004313D01*
X015540Y004401D01*
X015463Y004686D01*
X015463Y004981D01*
X015540Y005266D01*
X015687Y005521D01*
X015896Y005730D01*
X016151Y005877D01*
X016436Y005953D01*
X016731Y005953D01*
X017016Y005877D01*
X017271Y005730D01*
X017480Y005521D01*
X017627Y005266D01*
X017703Y004981D01*
X017703Y004686D01*
X017627Y004401D01*
X017576Y004313D01*
X018595Y004313D01*
X018595Y014223D01*
X004865Y014223D01*
X004893Y014155D01*
X004893Y014049D01*
X008979Y009963D01*
X009054Y009963D01*
X009129Y010039D01*
X009262Y010093D01*
X009405Y010093D01*
X009537Y010039D01*
X009639Y009937D01*
X009693Y009805D01*
X009693Y009699D01*
X010729Y008663D01*
X012329Y008663D01*
X012812Y008180D01*
X012836Y008204D01*
X012996Y008270D01*
X013170Y008270D01*
X013331Y008204D01*
X013454Y008081D01*
X013520Y007920D01*
X013520Y007746D01*
X013454Y007586D01*
X013331Y007463D01*
X013170Y007396D01*
X012996Y007396D01*
X012836Y007463D01*
X012713Y007586D01*
X012664Y007703D01*
X012638Y007703D01*
X012503Y007838D01*
X012138Y008203D01*
X010538Y008203D01*
X010403Y008338D01*
X009368Y009373D01*
X009262Y009373D01*
X009129Y009428D01*
X009054Y009503D01*
X008788Y009503D01*
X008653Y009638D01*
X004893Y013398D01*
X004893Y013262D01*
X004839Y013129D01*
X004763Y013054D01*
X004763Y010629D01*
X010129Y005263D01*
X011314Y005263D01*
X011273Y005362D01*
X011273Y005505D01*
X011328Y005637D01*
X011429Y005739D01*
X011562Y005793D01*
X011668Y005793D01*
X012646Y006771D01*
X012646Y006920D01*
X012713Y007081D01*
X012836Y007204D01*
X012996Y007270D01*
X013170Y007270D01*
X013331Y007204D01*
X013454Y007081D01*
X013520Y006920D01*
X013520Y006746D01*
X013454Y006586D01*
X013331Y006463D01*
X013170Y006396D01*
X012996Y006396D01*
X012943Y006418D01*
X011993Y005468D01*
X011993Y005362D01*
X011953Y005263D01*
X013638Y005263D01*
X013646Y005271D01*
X013646Y005420D01*
X013713Y005581D01*
X013836Y005704D01*
X013996Y005770D01*
X014170Y005770D01*
X014331Y005704D01*
X014454Y005581D01*
X014520Y005420D01*
X014520Y005246D01*
X014454Y005086D01*
X014331Y004963D01*
X014170Y004896D01*
X013996Y004896D01*
X013943Y004918D01*
X013829Y004803D01*
X009938Y004803D01*
X004303Y010438D01*
X004303Y013054D01*
X004228Y013129D01*
X004173Y013262D01*
X004173Y013405D01*
X004228Y013537D01*
X004329Y013639D01*
X004462Y013693D01*
X004598Y013693D01*
X004568Y013723D01*
X004462Y013723D01*
X004329Y013778D01*
X004228Y013879D01*
X004173Y014012D01*
X004173Y014155D01*
X004202Y014223D01*
X000813Y014223D01*
X000813Y010895D01*
X000938Y011019D01*
X001127Y011098D01*
X002040Y011098D01*
X002229Y011019D01*
X002374Y010875D01*
X002452Y010686D01*
X002452Y010481D01*
X002374Y010292D01*
X002229Y010147D01*
X002098Y010093D01*
X002143Y010079D01*
X002218Y010040D01*
X002286Y009991D01*
X002345Y009931D01*
X002395Y009863D01*
X002433Y009788D01*
X002459Y009708D01*
X002472Y009625D01*
X002472Y009621D01*
X001621Y009621D01*
X001621Y009545D01*
X002472Y009545D01*
X002472Y009541D01*
X002459Y009458D01*
X002433Y009378D01*
X002395Y009303D01*
X002345Y009235D01*
X002286Y009176D01*
X002218Y009126D01*
X002143Y009088D01*
X002098Y009074D01*
X002229Y009019D01*
X002374Y008875D01*
X002452Y008686D01*
X002452Y008481D01*
X002374Y008292D01*
X002229Y008147D01*
X002040Y008069D01*
X001127Y008069D01*
X000938Y008147D01*
X000813Y008272D01*
X000813Y008271D02*
X000814Y008271D01*
X000813Y008113D02*
X001021Y008113D01*
X000813Y007954D02*
X006787Y007954D01*
X006946Y007796D02*
X000813Y007796D01*
X000813Y007637D02*
X007104Y007637D01*
X007263Y007479D02*
X000813Y007479D01*
X000813Y007320D02*
X007421Y007320D01*
X007580Y007162D02*
X000813Y007162D01*
X000813Y007003D02*
X007738Y007003D01*
X007897Y006845D02*
X000813Y006845D01*
X000813Y006686D02*
X008055Y006686D01*
X008214Y006528D02*
X000813Y006528D01*
X000813Y006369D02*
X008372Y006369D01*
X008531Y006211D02*
X000813Y006211D01*
X000813Y006052D02*
X008689Y006052D01*
X008848Y005894D02*
X000813Y005894D01*
X000813Y005735D02*
X009006Y005735D01*
X009165Y005577D02*
X000813Y005577D01*
X000813Y005418D02*
X009323Y005418D01*
X009482Y005260D02*
X000813Y005260D01*
X000813Y005101D02*
X009640Y005101D01*
X009799Y004943D02*
X000813Y004943D01*
X000813Y004784D02*
X015463Y004784D01*
X015463Y004943D02*
X014283Y004943D01*
X014460Y005101D02*
X015496Y005101D01*
X015538Y005260D02*
X014520Y005260D01*
X014520Y005418D02*
X015628Y005418D01*
X015743Y005577D02*
X014456Y005577D01*
X014255Y005735D02*
X015906Y005735D01*
X016214Y005894D02*
X013537Y005894D01*
X013540Y005869D02*
X013529Y005940D01*
X013507Y006009D01*
X013474Y006073D01*
X013432Y006131D01*
X013381Y006182D01*
X013323Y006224D01*
X013259Y006257D01*
X013190Y006279D01*
X013119Y006290D01*
X013092Y006290D01*
X013092Y005842D01*
X013075Y005842D01*
X013075Y006290D01*
X013047Y006290D01*
X012976Y006279D01*
X012908Y006257D01*
X012844Y006224D01*
X012786Y006182D01*
X012735Y006131D01*
X012692Y006073D01*
X012660Y006009D01*
X012637Y005940D01*
X012626Y005869D01*
X012626Y005842D01*
X013075Y005842D01*
X013075Y005825D01*
X012626Y005825D01*
X012626Y005797D01*
X012637Y005726D01*
X012660Y005658D01*
X012692Y005594D01*
X012735Y005536D01*
X012786Y005485D01*
X012844Y005442D01*
X012908Y005410D01*
X012976Y005387D01*
X013047Y005376D01*
X013075Y005376D01*
X013075Y005825D01*
X013092Y005825D01*
X013092Y005842D01*
X013540Y005842D01*
X013540Y005869D01*
X013540Y005825D02*
X013092Y005825D01*
X013092Y005376D01*
X013119Y005376D01*
X013190Y005387D01*
X013259Y005410D01*
X013323Y005442D01*
X013381Y005485D01*
X013432Y005536D01*
X013474Y005594D01*
X013507Y005658D01*
X013529Y005726D01*
X013540Y005797D01*
X013540Y005825D01*
X013531Y005735D02*
X013911Y005735D01*
X013996Y005896D02*
X013836Y005963D01*
X013713Y006086D01*
X013646Y006246D01*
X013646Y006420D01*
X013713Y006581D01*
X013836Y006704D01*
X013996Y006770D01*
X014170Y006770D01*
X014331Y006704D01*
X014454Y006581D01*
X014520Y006420D01*
X014520Y006246D01*
X014454Y006086D01*
X014331Y005963D01*
X014170Y005896D01*
X013996Y005896D01*
X013746Y006052D02*
X013485Y006052D01*
X013342Y006211D02*
X013661Y006211D01*
X013646Y006369D02*
X012895Y006369D01*
X012825Y006211D02*
X012736Y006211D01*
X012682Y006052D02*
X012578Y006052D01*
X012630Y005894D02*
X012419Y005894D01*
X012261Y005735D02*
X012636Y005735D01*
X012705Y005577D02*
X012102Y005577D01*
X011993Y005418D02*
X012891Y005418D01*
X013075Y005418D02*
X013092Y005418D01*
X013075Y005577D02*
X013092Y005577D01*
X013075Y005735D02*
X013092Y005735D01*
X013075Y005894D02*
X013092Y005894D01*
X013075Y006052D02*
X013092Y006052D01*
X013075Y006211D02*
X013092Y006211D01*
X013396Y006528D02*
X013691Y006528D01*
X013818Y006686D02*
X013496Y006686D01*
X013520Y006845D02*
X018595Y006845D01*
X018595Y007003D02*
X014372Y007003D01*
X014331Y006963D02*
X014170Y006896D01*
X013996Y006896D01*
X013836Y006963D01*
X013713Y007086D01*
X013646Y007246D01*
X013646Y007420D01*
X013713Y007581D01*
X013836Y007704D01*
X013996Y007770D01*
X014170Y007770D01*
X014331Y007704D01*
X014454Y007581D01*
X014520Y007420D01*
X014520Y007246D01*
X014454Y007086D01*
X014331Y006963D01*
X014485Y007162D02*
X018595Y007162D01*
X018595Y007320D02*
X014520Y007320D01*
X014496Y007479D02*
X018595Y007479D01*
X018595Y007637D02*
X014398Y007637D01*
X014311Y007954D02*
X018595Y007954D01*
X018595Y007796D02*
X013520Y007796D01*
X013506Y007954D02*
X013856Y007954D01*
X013836Y007963D02*
X013996Y007896D01*
X014170Y007896D01*
X014331Y007963D01*
X014454Y008086D01*
X014520Y008246D01*
X014520Y008420D01*
X014454Y008581D01*
X014331Y008704D01*
X014323Y008707D01*
X014323Y009381D01*
X014287Y009469D01*
X014219Y009537D01*
X013376Y010380D01*
X013540Y010544D01*
X013540Y010923D01*
X013273Y011190D01*
X012894Y011190D01*
X012626Y010923D01*
X012626Y010544D01*
X012843Y010327D01*
X012843Y010286D01*
X012880Y010197D01*
X013843Y009234D01*
X013843Y008707D01*
X013836Y008704D01*
X013713Y008581D01*
X013646Y008420D01*
X013646Y008246D01*
X013713Y008086D01*
X013836Y007963D01*
X013701Y008113D02*
X013422Y008113D01*
X013646Y008271D02*
X012721Y008271D01*
X012836Y008463D02*
X012996Y008396D01*
X013170Y008396D01*
X013331Y008463D01*
X013454Y008586D01*
X013520Y008746D01*
X013520Y008920D01*
X013454Y009081D01*
X013331Y009204D01*
X013170Y009270D01*
X012996Y009270D01*
X012836Y009204D01*
X012713Y009081D01*
X012646Y008920D01*
X012646Y008746D01*
X012713Y008586D01*
X012836Y008463D01*
X012915Y008430D02*
X012562Y008430D01*
X012712Y008588D02*
X012404Y008588D01*
X012646Y008747D02*
X010645Y008747D01*
X010487Y008905D02*
X012646Y008905D01*
X012706Y009064D02*
X010328Y009064D01*
X010170Y009222D02*
X012880Y009222D01*
X013287Y009222D02*
X013843Y009222D01*
X013843Y009064D02*
X013461Y009064D01*
X013520Y008905D02*
X013843Y008905D01*
X013843Y008747D02*
X013520Y008747D01*
X013455Y008588D02*
X013720Y008588D01*
X013650Y008430D02*
X013252Y008430D01*
X014083Y008333D02*
X014083Y009333D01*
X013083Y010333D01*
X013083Y010733D01*
X012626Y010807D02*
X011026Y010807D01*
X011012Y010799D02*
X011265Y010945D01*
X011472Y011152D01*
X011618Y011405D01*
X011693Y011687D01*
X011693Y011979D01*
X011618Y012262D01*
X011472Y012515D01*
X011265Y012722D01*
X011012Y012868D01*
X010729Y012943D01*
X010437Y012943D01*
X010155Y012868D01*
X009902Y012722D01*
X009695Y012515D01*
X009549Y012262D01*
X009473Y011979D01*
X009473Y011687D01*
X009549Y011405D01*
X009695Y011152D01*
X009902Y010945D01*
X010155Y010799D01*
X010437Y010723D01*
X010729Y010723D01*
X011012Y010799D01*
X011286Y010966D02*
X012670Y010966D01*
X012828Y011124D02*
X011444Y011124D01*
X011547Y011283D02*
X018595Y011283D01*
X018595Y011441D02*
X011627Y011441D01*
X011670Y011600D02*
X018595Y011600D01*
X018595Y011758D02*
X011693Y011758D01*
X011693Y011917D02*
X018595Y011917D01*
X018595Y012075D02*
X011668Y012075D01*
X011625Y012234D02*
X018595Y012234D01*
X018595Y012392D02*
X011542Y012392D01*
X011436Y012551D02*
X018595Y012551D01*
X018595Y012709D02*
X011277Y012709D01*
X011011Y012868D02*
X018595Y012868D01*
X018595Y013026D02*
X005916Y013026D01*
X006074Y012868D02*
X010155Y012868D01*
X009890Y012709D02*
X006233Y012709D01*
X006391Y012551D02*
X009731Y012551D01*
X009624Y012392D02*
X006550Y012392D01*
X006708Y012234D02*
X009541Y012234D01*
X009499Y012075D02*
X006867Y012075D01*
X007025Y011917D02*
X009473Y011917D01*
X009473Y011758D02*
X007184Y011758D01*
X007342Y011600D02*
X009497Y011600D01*
X009539Y011441D02*
X007501Y011441D01*
X007659Y011283D02*
X009619Y011283D01*
X009723Y011124D02*
X007818Y011124D01*
X007976Y010966D02*
X009881Y010966D01*
X010140Y010807D02*
X008135Y010807D01*
X008293Y010649D02*
X012626Y010649D01*
X012680Y010490D02*
X008452Y010490D01*
X008610Y010332D02*
X012839Y010332D01*
X012904Y010173D02*
X008769Y010173D01*
X008927Y010015D02*
X009106Y010015D01*
X009561Y010015D02*
X013062Y010015D01*
X013221Y009856D02*
X009672Y009856D01*
X009694Y009698D02*
X013379Y009698D01*
X013538Y009539D02*
X009853Y009539D01*
X010011Y009381D02*
X013696Y009381D01*
X014058Y009698D02*
X015521Y009698D01*
X015540Y009766D02*
X015463Y009481D01*
X015463Y009186D01*
X015540Y008901D01*
X015687Y008646D01*
X015896Y008437D01*
X016151Y008290D01*
X016436Y008213D01*
X016731Y008213D01*
X017016Y008290D01*
X017271Y008437D01*
X017480Y008646D01*
X017627Y008901D01*
X017703Y009186D01*
X017703Y009481D01*
X017627Y009766D01*
X017480Y010021D01*
X017271Y010230D01*
X017190Y010276D01*
X017273Y010276D01*
X017540Y010544D01*
X017540Y010923D01*
X017273Y011190D01*
X016894Y011190D01*
X016626Y010923D01*
X016626Y010544D01*
X016717Y010453D01*
X016436Y010453D01*
X016151Y010377D01*
X015896Y010230D01*
X015687Y010021D01*
X015540Y009766D01*
X015592Y009856D02*
X013900Y009856D01*
X013741Y010015D02*
X015684Y010015D01*
X015839Y010173D02*
X013583Y010173D01*
X013424Y010332D02*
X013839Y010332D01*
X013894Y010276D02*
X014273Y010276D01*
X014540Y010544D01*
X014540Y010923D01*
X014273Y011190D01*
X013894Y011190D01*
X013626Y010923D01*
X013626Y010544D01*
X013894Y010276D01*
X013680Y010490D02*
X013486Y010490D01*
X013540Y010649D02*
X013626Y010649D01*
X013626Y010807D02*
X013540Y010807D01*
X013497Y010966D02*
X013670Y010966D01*
X013828Y011124D02*
X013338Y011124D01*
X014338Y011124D02*
X016828Y011124D01*
X016670Y010966D02*
X014497Y010966D01*
X014540Y010807D02*
X016626Y010807D01*
X016626Y010649D02*
X014540Y010649D01*
X014486Y010490D02*
X016680Y010490D01*
X017328Y010332D02*
X017839Y010332D01*
X017894Y010276D02*
X018273Y010276D01*
X018540Y010544D01*
X018540Y010923D01*
X018273Y011190D01*
X017894Y011190D01*
X017626Y010923D01*
X017626Y010544D01*
X017894Y010276D01*
X017680Y010490D02*
X017486Y010490D01*
X017540Y010649D02*
X017626Y010649D01*
X017626Y010807D02*
X017540Y010807D01*
X017497Y010966D02*
X017670Y010966D01*
X017828Y011124D02*
X017338Y011124D01*
X018338Y011124D02*
X018595Y011124D01*
X018595Y010966D02*
X018497Y010966D01*
X018540Y010807D02*
X018595Y010807D01*
X018595Y010649D02*
X018540Y010649D01*
X018486Y010490D02*
X018595Y010490D01*
X018595Y010332D02*
X018328Y010332D01*
X018595Y010173D02*
X017327Y010173D01*
X017483Y010015D02*
X018595Y010015D01*
X018595Y009856D02*
X017575Y009856D01*
X017645Y009698D02*
X018595Y009698D01*
X018595Y009539D02*
X017688Y009539D01*
X017703Y009381D02*
X018595Y009381D01*
X018595Y009222D02*
X017703Y009222D01*
X017671Y009064D02*
X018595Y009064D01*
X018595Y008905D02*
X017628Y008905D01*
X017538Y008747D02*
X018595Y008747D01*
X018595Y008588D02*
X017422Y008588D01*
X017258Y008430D02*
X018595Y008430D01*
X018595Y008271D02*
X016947Y008271D01*
X016219Y008271D02*
X014520Y008271D01*
X014517Y008430D02*
X015908Y008430D01*
X015744Y008588D02*
X014447Y008588D01*
X014323Y008747D02*
X015629Y008747D01*
X015539Y008905D02*
X014323Y008905D01*
X014323Y009064D02*
X015496Y009064D01*
X015463Y009222D02*
X014323Y009222D01*
X014323Y009381D02*
X015463Y009381D01*
X015479Y009539D02*
X014217Y009539D01*
X014328Y010332D02*
X016073Y010332D01*
X014465Y008113D02*
X018595Y008113D01*
X018595Y006686D02*
X014349Y006686D01*
X014476Y006528D02*
X018595Y006528D01*
X018595Y006369D02*
X014520Y006369D01*
X014506Y006211D02*
X018595Y006211D01*
X018595Y006052D02*
X014421Y006052D01*
X013711Y005577D02*
X013462Y005577D01*
X013646Y005418D02*
X013276Y005418D01*
X012086Y006211D02*
X011506Y006211D01*
X011472Y006152D02*
X011618Y006405D01*
X011693Y006687D01*
X011693Y006979D01*
X011618Y007262D01*
X011472Y007515D01*
X011265Y007722D01*
X011012Y007868D01*
X010729Y007943D01*
X010437Y007943D01*
X010155Y007868D01*
X009902Y007722D01*
X009695Y007515D01*
X009549Y007262D01*
X009473Y006979D01*
X009473Y006687D01*
X009549Y006405D01*
X009695Y006152D01*
X009902Y005945D01*
X010155Y005799D01*
X010437Y005723D01*
X010729Y005723D01*
X011012Y005799D01*
X011265Y005945D01*
X011472Y006152D01*
X011372Y006052D02*
X011927Y006052D01*
X011769Y005894D02*
X011176Y005894D01*
X011426Y005735D02*
X010774Y005735D01*
X010392Y005735D02*
X009657Y005735D01*
X009815Y005577D02*
X011303Y005577D01*
X011273Y005418D02*
X009974Y005418D01*
X009991Y005894D02*
X009498Y005894D01*
X009340Y006052D02*
X009795Y006052D01*
X009661Y006211D02*
X009181Y006211D01*
X009023Y006369D02*
X009570Y006369D01*
X009516Y006528D02*
X008864Y006528D01*
X008706Y006686D02*
X009474Y006686D01*
X009473Y006845D02*
X008547Y006845D01*
X008389Y007003D02*
X009480Y007003D01*
X009522Y007162D02*
X008230Y007162D01*
X008072Y007320D02*
X009583Y007320D01*
X009674Y007479D02*
X007913Y007479D01*
X007755Y007637D02*
X009818Y007637D01*
X010030Y007796D02*
X007596Y007796D01*
X007438Y007954D02*
X012387Y007954D01*
X012546Y007796D02*
X011136Y007796D01*
X011349Y007637D02*
X012691Y007637D01*
X012820Y007479D02*
X011492Y007479D01*
X011584Y007320D02*
X013646Y007320D01*
X013670Y007479D02*
X013347Y007479D01*
X013475Y007637D02*
X013769Y007637D01*
X013681Y007162D02*
X013373Y007162D01*
X013486Y007003D02*
X013795Y007003D01*
X012794Y007162D02*
X011644Y007162D01*
X011687Y007003D02*
X012681Y007003D01*
X012646Y006845D02*
X011693Y006845D01*
X011693Y006686D02*
X012561Y006686D01*
X012403Y006528D02*
X011651Y006528D01*
X011597Y006369D02*
X012244Y006369D01*
X012229Y008113D02*
X007279Y008113D01*
X007121Y008271D02*
X010470Y008271D01*
X010312Y008430D02*
X006962Y008430D01*
X006804Y008588D02*
X010153Y008588D01*
X009995Y008747D02*
X006645Y008747D01*
X006487Y008905D02*
X009836Y008905D01*
X009678Y009064D02*
X006328Y009064D01*
X006170Y009222D02*
X009519Y009222D01*
X009244Y009381D02*
X006011Y009381D01*
X005853Y009539D02*
X008752Y009539D01*
X008594Y009698D02*
X005694Y009698D01*
X005536Y009856D02*
X008435Y009856D01*
X008277Y010015D02*
X005377Y010015D01*
X005219Y010173D02*
X008118Y010173D01*
X007960Y010332D02*
X005060Y010332D01*
X004902Y010490D02*
X007801Y010490D01*
X007643Y010649D02*
X004763Y010649D01*
X004763Y010807D02*
X007484Y010807D01*
X007326Y010966D02*
X004763Y010966D01*
X004763Y011124D02*
X007167Y011124D01*
X007009Y011283D02*
X004763Y011283D01*
X004763Y011441D02*
X006850Y011441D01*
X006692Y011600D02*
X004763Y011600D01*
X004763Y011758D02*
X006533Y011758D01*
X006375Y011917D02*
X004763Y011917D01*
X004763Y012075D02*
X006216Y012075D01*
X006058Y012234D02*
X004763Y012234D01*
X004763Y012392D02*
X005899Y012392D01*
X005741Y012551D02*
X004763Y012551D01*
X004763Y012709D02*
X005582Y012709D01*
X005424Y012868D02*
X004763Y012868D01*
X004763Y013026D02*
X005265Y013026D01*
X005107Y013185D02*
X004861Y013185D01*
X004893Y013343D02*
X004948Y013343D01*
X005282Y013660D02*
X018595Y013660D01*
X018595Y013502D02*
X005440Y013502D01*
X005599Y013343D02*
X018595Y013343D01*
X018595Y013185D02*
X005757Y013185D01*
X005123Y013819D02*
X018595Y013819D01*
X018595Y013977D02*
X004965Y013977D01*
X004893Y014136D02*
X018595Y014136D01*
X006629Y008113D02*
X002146Y008113D01*
X002353Y008271D02*
X006470Y008271D01*
X006312Y008430D02*
X002431Y008430D01*
X002452Y008588D02*
X006153Y008588D01*
X005995Y008747D02*
X002427Y008747D01*
X002343Y008905D02*
X005836Y008905D01*
X005678Y009064D02*
X002122Y009064D01*
X002332Y009222D02*
X005519Y009222D01*
X005361Y009381D02*
X002434Y009381D01*
X002472Y009539D02*
X005202Y009539D01*
X005044Y009698D02*
X002461Y009698D01*
X002398Y009856D02*
X004885Y009856D01*
X004727Y010015D02*
X002253Y010015D01*
X002255Y010173D02*
X004568Y010173D01*
X004410Y010332D02*
X002390Y010332D01*
X002452Y010490D02*
X004303Y010490D01*
X004303Y010649D02*
X002452Y010649D01*
X002402Y010807D02*
X004303Y010807D01*
X004303Y010966D02*
X002283Y010966D01*
X000884Y010966D02*
X000813Y010966D01*
X000813Y011124D02*
X004303Y011124D01*
X004303Y011283D02*
X000813Y011283D01*
X000813Y011441D02*
X004303Y011441D01*
X004303Y011600D02*
X000813Y011600D01*
X000813Y011758D02*
X004303Y011758D01*
X004303Y011917D02*
X000813Y011917D01*
X000813Y012075D02*
X004303Y012075D01*
X004303Y012234D02*
X000813Y012234D01*
X000813Y012392D02*
X004303Y012392D01*
X004303Y012551D02*
X000813Y012551D01*
X000813Y012709D02*
X004303Y012709D01*
X004303Y012868D02*
X000813Y012868D01*
X000813Y013026D02*
X004303Y013026D01*
X004205Y013185D02*
X000813Y013185D01*
X000813Y013343D02*
X004173Y013343D01*
X004213Y013502D02*
X000813Y013502D01*
X000813Y013660D02*
X004382Y013660D01*
X004289Y013819D02*
X000813Y013819D01*
X000813Y013977D02*
X004188Y013977D01*
X004173Y014136D02*
X000813Y014136D01*
X000813Y004626D02*
X015479Y004626D01*
X015522Y004467D02*
X000813Y004467D01*
X016953Y005894D02*
X018595Y005894D01*
X018595Y005735D02*
X017261Y005735D01*
X017424Y005577D02*
X018595Y005577D01*
X018595Y005418D02*
X017539Y005418D01*
X017629Y005260D02*
X018595Y005260D01*
X018595Y005101D02*
X017671Y005101D01*
X017703Y004943D02*
X018595Y004943D01*
X018595Y004784D02*
X017703Y004784D01*
X017687Y004626D02*
X018595Y004626D01*
X018595Y004467D02*
X017645Y004467D01*
D14*
X011633Y005433D03*
X007333Y005333D03*
X007833Y008833D03*
X009333Y009733D03*
X004533Y013333D03*
X004533Y014083D03*
X007583Y014083D03*
X001083Y011833D03*
X001583Y004833D03*
D15*
X008883Y009733D02*
X009333Y009733D01*
X010633Y008433D01*
X012233Y008433D01*
X012733Y007933D01*
X012933Y007933D01*
X013033Y007833D01*
X013083Y007833D01*
X013083Y006833D02*
X013033Y006833D01*
X011633Y005433D01*
X010033Y005033D02*
X004533Y010533D01*
X004533Y013333D01*
X004533Y014083D02*
X008883Y009733D01*
X013733Y005033D02*
X014033Y005333D01*
X014083Y005333D01*
X013733Y005033D02*
X010033Y005033D01*
M02*
