G75*
%MOIN*%
%OFA0B0*%
%FSLAX24Y24*%
%IPPOS*%
%LPD*%
%AMOC8*
5,1,8,0,0,1.08239X$1,22.5*
%
%ADD10C,0.0060*%
%ADD11C,0.0554*%
%ADD12OC8,0.0520*%
%ADD13C,0.0520*%
%ADD14C,0.0160*%
%ADD15C,0.0140*%
%ADD16C,0.0400*%
%ADD17C,0.2200*%
D10*
X006424Y007538D02*
X006424Y008179D01*
X006637Y008179D02*
X006210Y008179D01*
X006855Y007965D02*
X007068Y008179D01*
X007282Y007965D01*
X007282Y007538D01*
X006855Y007538D02*
X006855Y007965D01*
X006855Y007858D02*
X007282Y007858D01*
D11*
X028430Y009008D03*
X029430Y009008D03*
X030430Y009008D03*
X031430Y009008D03*
X030930Y010008D03*
X029930Y010008D03*
X028930Y010008D03*
X031930Y010008D03*
X044430Y009008D03*
X045430Y009008D03*
X046430Y009008D03*
X047430Y009008D03*
X046930Y010008D03*
X045930Y010008D03*
X044930Y010008D03*
X047930Y010008D03*
D12*
X050680Y011008D03*
X050680Y012008D03*
X057680Y012008D03*
X057680Y011008D03*
X066680Y011008D03*
X066680Y012008D03*
X073680Y012008D03*
X073680Y011008D03*
X041680Y011008D03*
X041680Y012008D03*
X034680Y012008D03*
X034680Y011008D03*
X025680Y011008D03*
X025680Y012008D03*
X018680Y012008D03*
X018680Y011008D03*
X009680Y011008D03*
X009680Y012008D03*
X002680Y012008D03*
X002680Y011008D03*
D13*
X017180Y008268D02*
X017180Y007748D01*
X018180Y007748D02*
X018180Y008268D01*
X019180Y008268D02*
X019180Y007748D01*
X020180Y007748D02*
X020180Y008268D01*
X021180Y008268D02*
X021180Y007748D01*
X022180Y007748D02*
X022180Y008268D01*
X034680Y008268D02*
X034680Y007748D01*
X035680Y007748D02*
X035680Y008268D01*
X036680Y008268D02*
X036680Y007748D01*
X037680Y007748D02*
X037680Y008268D01*
X038680Y008268D02*
X038680Y007748D01*
X039680Y007748D02*
X039680Y008268D01*
X051680Y008268D02*
X051680Y007748D01*
X052680Y007748D02*
X052680Y008268D01*
X053680Y008268D02*
X053680Y007748D01*
X054680Y007748D02*
X054680Y008268D01*
X055680Y008268D02*
X055680Y007748D01*
X056680Y007748D02*
X056680Y008268D01*
D14*
X002438Y007484D02*
X002242Y007288D01*
X005787Y007288D01*
X005787Y008452D01*
X005789Y008473D01*
X005795Y008493D01*
X005803Y008512D01*
X005813Y008531D01*
X005826Y008547D01*
X005841Y008562D01*
X005858Y008575D01*
X005876Y008585D01*
X005895Y008593D01*
X002645Y008593D01*
X002604Y008744D02*
X002690Y008424D01*
X002690Y008092D01*
X002604Y007772D01*
X002438Y007484D01*
X002437Y007484D02*
X005787Y007484D01*
X005787Y007642D02*
X002529Y007642D01*
X002612Y007801D02*
X005787Y007801D01*
X005787Y007959D02*
X002654Y007959D01*
X002690Y008118D02*
X005787Y008118D01*
X005787Y008276D02*
X002690Y008276D01*
X002687Y008435D02*
X005787Y008435D01*
X005895Y008593D02*
X005915Y008599D01*
X005936Y008601D01*
X007699Y008601D01*
X007720Y008599D01*
X007740Y008593D01*
X007760Y008585D01*
X007778Y008575D01*
X007795Y008562D01*
X007810Y008547D01*
X007822Y008531D01*
X007833Y008512D01*
X007841Y008493D01*
X007846Y008473D01*
X007849Y008452D01*
X007849Y007288D01*
X014075Y007288D01*
X010220Y011143D01*
X010220Y011008D01*
X009680Y011008D01*
X009680Y010468D01*
X009680Y011008D01*
X009680Y011008D01*
X009680Y011008D01*
X009140Y011008D01*
X009140Y010784D01*
X009456Y010468D01*
X009680Y010468D01*
X009904Y010468D01*
X010220Y010784D01*
X010220Y011008D01*
X009680Y011008D01*
X009680Y011008D01*
X009140Y011008D01*
X009140Y011232D01*
X009456Y011548D01*
X009680Y011548D01*
X009680Y011008D01*
X009680Y011008D01*
X009680Y011548D01*
X009815Y011548D01*
X009775Y011588D01*
X009506Y011588D01*
X009260Y011834D01*
X009260Y012182D01*
X009506Y012428D01*
X009854Y012428D01*
X010100Y012182D01*
X010100Y011913D01*
X014475Y007538D01*
X016812Y007538D01*
X016760Y007665D01*
X016760Y008352D01*
X016824Y008506D01*
X016942Y008624D01*
X017096Y008688D01*
X017264Y008688D01*
X017418Y008624D01*
X017536Y008506D01*
X017600Y008352D01*
X017600Y007665D01*
X017548Y007538D01*
X017812Y007538D01*
X017760Y007665D01*
X017760Y008352D01*
X017824Y008506D01*
X017942Y008624D01*
X018096Y008688D01*
X018264Y008688D01*
X018418Y008624D01*
X018444Y008598D01*
X021100Y011253D01*
X021100Y011953D01*
X024320Y015173D01*
X024320Y015280D01*
X024340Y015328D01*
X024225Y015328D01*
X021440Y012543D01*
X021440Y012437D01*
X021385Y012304D01*
X021284Y012203D01*
X021152Y012148D01*
X021008Y012148D01*
X020876Y012203D01*
X020775Y012304D01*
X020720Y012437D01*
X020720Y012580D01*
X020775Y012712D01*
X020876Y012813D01*
X021008Y012868D01*
X021115Y012868D01*
X023900Y015653D01*
X023961Y015714D01*
X002256Y015714D01*
X002438Y015532D01*
X002604Y015244D01*
X002690Y014924D01*
X002690Y014592D01*
X002604Y014272D01*
X002438Y013984D01*
X002204Y013750D01*
X001916Y013584D01*
X001596Y013498D01*
X001264Y013498D01*
X000944Y013584D01*
X000656Y013750D01*
X000460Y013946D01*
X000460Y009070D01*
X000656Y009266D01*
X000944Y009432D01*
X001264Y009518D01*
X001596Y009518D01*
X001916Y009432D01*
X002204Y009266D01*
X002438Y009032D01*
X002604Y008744D01*
X002600Y008752D02*
X012611Y008752D01*
X012453Y008910D02*
X002508Y008910D01*
X002401Y009069D02*
X012294Y009069D01*
X012136Y009227D02*
X002243Y009227D01*
X001997Y009386D02*
X011977Y009386D01*
X011819Y009544D02*
X000460Y009544D01*
X000460Y009386D02*
X000863Y009386D01*
X000617Y009227D02*
X000460Y009227D01*
X000460Y009703D02*
X011660Y009703D01*
X011502Y009861D02*
X000460Y009861D01*
X000460Y010020D02*
X011343Y010020D01*
X011185Y010178D02*
X000460Y010178D01*
X000460Y010337D02*
X011026Y010337D01*
X010868Y010495D02*
X009931Y010495D01*
X010089Y010654D02*
X010709Y010654D01*
X010551Y010812D02*
X010220Y010812D01*
X010220Y010971D02*
X010392Y010971D01*
X010234Y011129D02*
X010220Y011129D01*
X010726Y011288D02*
X018366Y011288D01*
X018260Y011182D02*
X018506Y011428D01*
X018775Y011428D01*
X018815Y011468D01*
X018680Y011468D01*
X018680Y012008D01*
X018680Y011468D01*
X018456Y011468D01*
X018140Y011784D01*
X018140Y012008D01*
X018680Y012008D01*
X018680Y012008D01*
X018680Y012008D01*
X019220Y012008D01*
X019220Y011873D01*
X020770Y013423D01*
X020770Y013530D01*
X020825Y013662D01*
X020926Y013763D01*
X021058Y013818D01*
X021202Y013818D01*
X021334Y013763D01*
X021435Y013662D01*
X021490Y013530D01*
X021490Y013387D01*
X021435Y013254D01*
X021334Y013153D01*
X021202Y013098D01*
X021095Y013098D01*
X019100Y011103D01*
X019100Y010834D01*
X018854Y010588D01*
X018506Y010588D01*
X018260Y010834D01*
X018260Y011182D01*
X018260Y011129D02*
X010884Y011129D01*
X011043Y010971D02*
X018260Y010971D01*
X018282Y010812D02*
X011201Y010812D01*
X011360Y010654D02*
X018441Y010654D01*
X018919Y010654D02*
X020500Y010654D01*
X020659Y010812D02*
X019078Y010812D01*
X019100Y010971D02*
X020817Y010971D01*
X020976Y011129D02*
X019126Y011129D01*
X019285Y011288D02*
X021100Y011288D01*
X021100Y011446D02*
X019443Y011446D01*
X019602Y011605D02*
X021100Y011605D01*
X021100Y011763D02*
X019760Y011763D01*
X019919Y011922D02*
X021100Y011922D01*
X021227Y012080D02*
X020077Y012080D01*
X020236Y012239D02*
X020840Y012239D01*
X020736Y012397D02*
X020394Y012397D01*
X020553Y012556D02*
X020720Y012556D01*
X020711Y012714D02*
X020777Y012714D01*
X020870Y012873D02*
X021119Y012873D01*
X021028Y013031D02*
X021278Y013031D01*
X021371Y013190D02*
X021436Y013190D01*
X021474Y013348D02*
X021595Y013348D01*
X021490Y013507D02*
X021753Y013507D01*
X021912Y013665D02*
X021432Y013665D01*
X020828Y013665D02*
X002057Y013665D01*
X002277Y013824D02*
X022070Y013824D01*
X022229Y013982D02*
X002436Y013982D01*
X002528Y014141D02*
X022387Y014141D01*
X022546Y014299D02*
X002611Y014299D01*
X002654Y014458D02*
X022704Y014458D01*
X022863Y014616D02*
X002690Y014616D01*
X002690Y014775D02*
X023021Y014775D01*
X023180Y014933D02*
X002688Y014933D01*
X002645Y015092D02*
X023338Y015092D01*
X023497Y015250D02*
X002601Y015250D01*
X002509Y015409D02*
X023655Y015409D01*
X023814Y015567D02*
X002403Y015567D01*
X000583Y013824D02*
X000460Y013824D01*
X000460Y013665D02*
X000803Y013665D01*
X000460Y013507D02*
X001232Y013507D01*
X001628Y013507D02*
X020770Y013507D01*
X020695Y013348D02*
X000460Y013348D01*
X000460Y013190D02*
X020536Y013190D01*
X020378Y013031D02*
X000460Y013031D01*
X000460Y012873D02*
X020219Y012873D01*
X020061Y012714D02*
X000460Y012714D01*
X000460Y012556D02*
X019902Y012556D01*
X019744Y012397D02*
X019055Y012397D01*
X018904Y012548D02*
X018680Y012548D01*
X018456Y012548D01*
X018140Y012232D01*
X018140Y012008D01*
X018680Y012008D01*
X018680Y012008D01*
X019220Y012008D01*
X019220Y012232D01*
X018904Y012548D01*
X018680Y012548D02*
X018680Y012008D01*
X018680Y012548D01*
X018680Y012397D02*
X018680Y012397D01*
X018680Y012239D02*
X018680Y012239D01*
X018680Y012080D02*
X018680Y012080D01*
X018680Y012008D02*
X018680Y012008D01*
X018680Y011922D02*
X018680Y011922D01*
X018680Y011763D02*
X018680Y011763D01*
X018680Y011605D02*
X018680Y011605D01*
X018793Y011446D02*
X010567Y011446D01*
X010409Y011605D02*
X018320Y011605D01*
X018161Y011763D02*
X010250Y011763D01*
X010100Y011922D02*
X018140Y011922D01*
X018140Y012080D02*
X010100Y012080D01*
X010043Y012239D02*
X018147Y012239D01*
X018305Y012397D02*
X009885Y012397D01*
X009475Y012397D02*
X003055Y012397D01*
X002904Y012548D02*
X002680Y012548D01*
X002456Y012548D01*
X002140Y012232D01*
X002140Y012008D01*
X002140Y011784D01*
X002456Y011468D01*
X002680Y011468D01*
X002680Y012008D01*
X002680Y011468D01*
X002904Y011468D01*
X003220Y011784D01*
X003220Y012008D01*
X002680Y012008D01*
X002680Y012008D01*
X002680Y012008D01*
X002140Y012008D01*
X002680Y012008D01*
X002680Y012008D01*
X003220Y012008D01*
X003220Y012232D01*
X002904Y012548D01*
X002680Y012548D02*
X002680Y012008D01*
X002680Y012548D01*
X002680Y012397D02*
X002680Y012397D01*
X002680Y012239D02*
X002680Y012239D01*
X002680Y012080D02*
X002680Y012080D01*
X002680Y012008D02*
X002680Y012008D01*
X002680Y011922D02*
X002680Y011922D01*
X002680Y011763D02*
X002680Y011763D01*
X002680Y011605D02*
X002680Y011605D01*
X002506Y011428D02*
X002260Y011182D01*
X002260Y010834D01*
X002506Y010588D01*
X002854Y010588D01*
X003100Y010834D01*
X003100Y011182D01*
X002854Y011428D01*
X002506Y011428D01*
X002366Y011288D02*
X000460Y011288D01*
X000460Y011446D02*
X005349Y011446D01*
X005349Y011343D02*
X005475Y011037D01*
X005709Y010803D01*
X006015Y010677D01*
X006345Y010677D01*
X006651Y010803D01*
X006885Y011037D01*
X007011Y011343D01*
X007011Y011673D01*
X006885Y011979D01*
X006651Y012213D01*
X006345Y012339D01*
X006015Y012339D01*
X005709Y012213D01*
X005475Y011979D01*
X005349Y011673D01*
X005349Y011343D01*
X005372Y011288D02*
X002994Y011288D01*
X003100Y011129D02*
X005437Y011129D01*
X005542Y010971D02*
X003100Y010971D01*
X003078Y010812D02*
X005701Y010812D01*
X006659Y010812D02*
X009140Y010812D01*
X009140Y010971D02*
X006818Y010971D01*
X006923Y011129D02*
X009140Y011129D01*
X009196Y011288D02*
X006988Y011288D01*
X007011Y011446D02*
X009354Y011446D01*
X009490Y011605D02*
X007011Y011605D01*
X006974Y011763D02*
X009331Y011763D01*
X009260Y011922D02*
X006908Y011922D01*
X006783Y012080D02*
X009260Y012080D01*
X009317Y012239D02*
X006588Y012239D01*
X005772Y012239D02*
X003213Y012239D01*
X003220Y012080D02*
X005577Y012080D01*
X005452Y011922D02*
X003220Y011922D01*
X003199Y011763D02*
X005386Y011763D01*
X005349Y011605D02*
X003040Y011605D01*
X002320Y011605D02*
X000460Y011605D01*
X000460Y011763D02*
X002161Y011763D01*
X002140Y011922D02*
X000460Y011922D01*
X000460Y012080D02*
X002140Y012080D01*
X002147Y012239D02*
X000460Y012239D01*
X000460Y012397D02*
X002305Y012397D01*
X002260Y011129D02*
X000460Y011129D01*
X000460Y010971D02*
X002260Y010971D01*
X002282Y010812D02*
X000460Y010812D01*
X000460Y010654D02*
X002441Y010654D01*
X002919Y010654D02*
X009271Y010654D01*
X009429Y010495D02*
X000460Y010495D01*
X007741Y008593D02*
X012770Y008593D01*
X012928Y008435D02*
X007849Y008435D01*
X007849Y008276D02*
X013087Y008276D01*
X013245Y008118D02*
X007849Y008118D01*
X007849Y007959D02*
X013404Y007959D01*
X013562Y007801D02*
X007849Y007801D01*
X007849Y007642D02*
X013721Y007642D01*
X013879Y007484D02*
X007849Y007484D01*
X007849Y007325D02*
X014038Y007325D01*
X014371Y007642D02*
X016769Y007642D01*
X016760Y007801D02*
X014213Y007801D01*
X014054Y007959D02*
X016760Y007959D01*
X016760Y008118D02*
X013896Y008118D01*
X013737Y008276D02*
X016760Y008276D01*
X016794Y008435D02*
X013579Y008435D01*
X013420Y008593D02*
X016911Y008593D01*
X017449Y008593D02*
X017911Y008593D01*
X017794Y008435D02*
X017566Y008435D01*
X017600Y008276D02*
X017760Y008276D01*
X017760Y008118D02*
X017600Y008118D01*
X017600Y007959D02*
X017760Y007959D01*
X017760Y007801D02*
X017600Y007801D01*
X017591Y007642D02*
X017769Y007642D01*
X018598Y008752D02*
X013262Y008752D01*
X013103Y008910D02*
X018757Y008910D01*
X018915Y009069D02*
X012945Y009069D01*
X012786Y009227D02*
X019074Y009227D01*
X019232Y009386D02*
X012628Y009386D01*
X012469Y009544D02*
X019391Y009544D01*
X019549Y009703D02*
X012311Y009703D01*
X012152Y009861D02*
X019708Y009861D01*
X019866Y010020D02*
X011994Y010020D01*
X011835Y010178D02*
X020025Y010178D01*
X020183Y010337D02*
X011677Y010337D01*
X011518Y010495D02*
X020342Y010495D01*
X022885Y011039D02*
X023011Y011343D01*
X023011Y011673D01*
X022885Y011979D01*
X022651Y012213D01*
X022345Y012339D01*
X022136Y012339D01*
X024645Y014848D01*
X024752Y014848D01*
X024884Y014903D01*
X024985Y015004D01*
X025040Y015137D01*
X025040Y015280D01*
X025020Y015328D01*
X052400Y015328D01*
X052400Y015213D01*
X055128Y012485D01*
X055076Y012463D01*
X055001Y012388D01*
X054825Y012388D01*
X054760Y012453D01*
X054625Y012588D01*
X052585Y012588D01*
X052450Y012453D01*
X052450Y008627D01*
X052442Y008624D01*
X052341Y008523D01*
X052325Y008538D01*
X049390Y011473D01*
X049390Y011580D01*
X049335Y011712D01*
X049234Y011813D01*
X049102Y011868D01*
X049091Y011868D01*
X049210Y011987D01*
X049350Y012325D01*
X049350Y012691D01*
X049210Y013029D01*
X048951Y013288D01*
X048613Y013428D01*
X048247Y013428D01*
X047909Y013288D01*
X047650Y013029D01*
X047510Y012691D01*
X047510Y012325D01*
X047650Y011987D01*
X047909Y011728D01*
X048247Y011588D01*
X048613Y011588D01*
X048686Y011618D01*
X048670Y011580D01*
X048670Y011437D01*
X048725Y011304D01*
X048826Y011203D01*
X048958Y011148D01*
X049065Y011148D01*
X051546Y008667D01*
X051442Y008624D01*
X051324Y008506D01*
X051260Y008352D01*
X051260Y008238D01*
X045660Y008238D01*
X045660Y008630D01*
X045678Y008638D01*
X045801Y008761D01*
X045867Y008921D01*
X045867Y009095D01*
X045801Y009256D01*
X045678Y009379D01*
X045517Y009445D01*
X045343Y009445D01*
X045182Y009379D01*
X045059Y009256D01*
X044993Y009095D01*
X044993Y008921D01*
X045059Y008761D01*
X045182Y008638D01*
X045200Y008630D01*
X045200Y007913D01*
X045335Y007778D01*
X051260Y007778D01*
X051260Y007665D01*
X051324Y007510D01*
X051442Y007392D01*
X051596Y007328D01*
X051764Y007328D01*
X051918Y007392D01*
X052019Y007494D01*
X052225Y007288D01*
X029020Y007288D01*
X029040Y007337D01*
X029040Y007480D01*
X028985Y007612D01*
X028884Y007713D01*
X028752Y007768D01*
X028645Y007768D01*
X025924Y010489D01*
X026220Y010784D01*
X026220Y011008D01*
X025680Y011008D01*
X025680Y011008D01*
X026220Y011008D01*
X026220Y011232D01*
X025904Y011548D01*
X025680Y011548D01*
X025456Y011548D01*
X025253Y011345D01*
X025184Y011413D01*
X025052Y011468D01*
X024965Y011468D01*
X025275Y011778D01*
X025316Y011778D01*
X025506Y011588D01*
X025854Y011588D01*
X026100Y011834D01*
X026100Y012182D01*
X025854Y012428D01*
X025506Y012428D01*
X025316Y012238D01*
X025235Y012238D01*
X027195Y014198D01*
X027302Y014198D01*
X027434Y014253D01*
X027535Y014354D01*
X027590Y014487D01*
X027590Y014630D01*
X027535Y014762D01*
X027434Y014863D01*
X027302Y014918D01*
X027158Y014918D01*
X027026Y014863D01*
X026925Y014762D01*
X026870Y014630D01*
X026870Y014523D01*
X026307Y013960D01*
X026285Y014012D01*
X026184Y014113D01*
X026052Y014168D01*
X025908Y014168D01*
X025776Y014113D01*
X025675Y014012D01*
X025620Y013880D01*
X025620Y013773D01*
X022885Y011039D01*
X022923Y011129D02*
X022976Y011129D01*
X022988Y011288D02*
X023134Y011288D01*
X023011Y011446D02*
X023293Y011446D01*
X023451Y011605D02*
X023011Y011605D01*
X022974Y011763D02*
X023610Y011763D01*
X023768Y011922D02*
X022908Y011922D01*
X022783Y012080D02*
X023927Y012080D01*
X024085Y012239D02*
X022588Y012239D01*
X022194Y012397D02*
X024244Y012397D01*
X024402Y012556D02*
X022353Y012556D01*
X022511Y012714D02*
X024561Y012714D01*
X024719Y012873D02*
X022670Y012873D01*
X022828Y013031D02*
X024878Y013031D01*
X025036Y013190D02*
X022987Y013190D01*
X023145Y013348D02*
X025195Y013348D01*
X025353Y013507D02*
X023304Y013507D01*
X023462Y013665D02*
X025512Y013665D01*
X025620Y013824D02*
X023621Y013824D01*
X023779Y013982D02*
X025662Y013982D01*
X025842Y014141D02*
X023938Y014141D01*
X024096Y014299D02*
X026646Y014299D01*
X026804Y014458D02*
X024255Y014458D01*
X024413Y014616D02*
X026870Y014616D01*
X026937Y014775D02*
X024572Y014775D01*
X024914Y014933D02*
X030730Y014933D01*
X030700Y014903D02*
X030700Y014548D01*
X030652Y014568D01*
X030508Y014568D01*
X030376Y014513D01*
X030275Y014412D01*
X030220Y014280D01*
X030220Y014173D01*
X028835Y012788D01*
X028817Y012771D01*
X028710Y013029D01*
X028451Y013288D01*
X028113Y013428D01*
X027747Y013428D01*
X027409Y013288D01*
X027150Y013029D01*
X027010Y012691D01*
X027010Y012325D01*
X027150Y011987D01*
X027409Y011728D01*
X027747Y011588D01*
X028113Y011588D01*
X028451Y011728D01*
X028700Y011977D01*
X028700Y010386D01*
X028682Y010379D01*
X028559Y010256D01*
X028493Y010095D01*
X028493Y009921D01*
X028559Y009761D01*
X028682Y009638D01*
X028843Y009571D01*
X029017Y009571D01*
X029178Y009638D01*
X029301Y009761D01*
X029367Y009921D01*
X029367Y010095D01*
X029301Y010256D01*
X029178Y010379D01*
X029160Y010386D01*
X029160Y012463D01*
X030545Y013848D01*
X030652Y013848D01*
X030700Y013868D01*
X030700Y010386D01*
X030682Y010379D01*
X030559Y010256D01*
X030493Y010095D01*
X030493Y009921D01*
X030559Y009761D01*
X030632Y009688D01*
X030335Y009688D01*
X030200Y009553D01*
X030200Y009386D01*
X030182Y009379D01*
X030160Y009356D01*
X030160Y009630D01*
X030178Y009638D01*
X030301Y009761D01*
X030367Y009921D01*
X030367Y010095D01*
X030301Y010256D01*
X030178Y010379D01*
X030017Y010445D01*
X029843Y010445D01*
X029682Y010379D01*
X029559Y010256D01*
X029493Y010095D01*
X029493Y009921D01*
X029559Y009761D01*
X029682Y009638D01*
X029700Y009630D01*
X029700Y009356D01*
X029678Y009379D01*
X029517Y009445D01*
X029343Y009445D01*
X029182Y009379D01*
X029059Y009256D01*
X028993Y009095D01*
X028993Y008921D01*
X029059Y008761D01*
X029182Y008638D01*
X029343Y008571D01*
X029517Y008571D01*
X029678Y008638D01*
X029700Y008660D01*
X029700Y008463D01*
X029835Y008328D01*
X031725Y008328D01*
X033610Y010213D01*
X033610Y012778D01*
X036851Y012778D01*
X036926Y012703D01*
X036978Y012681D01*
X034221Y009925D01*
X034185Y010012D01*
X034084Y010113D01*
X033952Y010168D01*
X033808Y010168D01*
X033676Y010113D01*
X033575Y010012D01*
X033520Y009880D01*
X033520Y009737D01*
X033575Y009604D01*
X033676Y009503D01*
X033808Y009448D01*
X033915Y009448D01*
X033925Y009438D01*
X033925Y009438D01*
X034060Y009303D01*
X034675Y008688D01*
X034596Y008688D01*
X034442Y008624D01*
X034324Y008506D01*
X034260Y008352D01*
X034260Y007665D01*
X034324Y007510D01*
X034442Y007392D01*
X034596Y007328D01*
X034764Y007328D01*
X034918Y007392D01*
X035036Y007510D01*
X035100Y007665D01*
X035100Y008263D01*
X035260Y008103D01*
X035260Y007665D01*
X035324Y007510D01*
X035442Y007392D01*
X035596Y007328D01*
X035764Y007328D01*
X035918Y007392D01*
X036036Y007510D01*
X036100Y007665D01*
X036100Y008263D01*
X036260Y008103D01*
X036260Y007665D01*
X036324Y007510D01*
X036442Y007392D01*
X036596Y007328D01*
X036764Y007328D01*
X036918Y007392D01*
X037036Y007510D01*
X037100Y007665D01*
X037100Y008263D01*
X037260Y008103D01*
X037260Y007665D01*
X037324Y007510D01*
X037442Y007392D01*
X037596Y007328D01*
X037764Y007328D01*
X037918Y007392D01*
X038036Y007510D01*
X038100Y007665D01*
X038100Y008352D01*
X038036Y008506D01*
X037918Y008624D01*
X037764Y008688D01*
X037596Y008688D01*
X037442Y008624D01*
X037416Y008598D01*
X035840Y010173D01*
X035840Y010280D01*
X035785Y010412D01*
X035684Y010513D01*
X035552Y010568D01*
X035515Y010568D01*
X036603Y011656D01*
X036625Y011604D01*
X036726Y011503D01*
X036858Y011448D01*
X036965Y011448D01*
X037100Y011313D01*
X037100Y011063D01*
X038075Y010088D01*
X037709Y010088D01*
X037634Y010163D01*
X037502Y010218D01*
X037358Y010218D01*
X037226Y010163D01*
X037125Y010062D01*
X037070Y009930D01*
X037070Y009787D01*
X037125Y009654D01*
X037226Y009553D01*
X037358Y009498D01*
X037502Y009498D01*
X037634Y009553D01*
X037709Y009628D01*
X038620Y009628D01*
X038620Y009537D01*
X038675Y009404D01*
X038776Y009303D01*
X038908Y009248D01*
X039052Y009248D01*
X039100Y009268D01*
X039100Y008753D01*
X038944Y008598D01*
X038918Y008624D01*
X038764Y008688D01*
X038596Y008688D01*
X038442Y008624D01*
X038324Y008506D01*
X038260Y008352D01*
X038260Y007665D01*
X038324Y007510D01*
X038442Y007392D01*
X038596Y007328D01*
X038764Y007328D01*
X038918Y007392D01*
X039036Y007510D01*
X039100Y007665D01*
X039100Y008103D01*
X039260Y008263D01*
X039260Y007665D01*
X039324Y007510D01*
X039442Y007392D01*
X039596Y007328D01*
X039764Y007328D01*
X039918Y007392D01*
X040036Y007510D01*
X040100Y007665D01*
X040100Y008113D01*
X040220Y007993D01*
X040220Y007887D01*
X040275Y007754D01*
X040376Y007653D01*
X040508Y007598D01*
X040652Y007598D01*
X040784Y007653D01*
X040885Y007754D01*
X040940Y007887D01*
X040940Y008030D01*
X040885Y008162D01*
X040784Y008263D01*
X040652Y008318D01*
X040545Y008318D01*
X039610Y009253D01*
X039560Y009303D01*
X039560Y010203D01*
X039425Y010338D01*
X038475Y010338D01*
X038136Y010677D01*
X038345Y010677D01*
X038651Y010803D01*
X038885Y011037D01*
X039011Y011343D01*
X039011Y011673D01*
X038885Y011979D01*
X038651Y012213D01*
X038345Y012339D01*
X038015Y012339D01*
X037709Y012213D01*
X037475Y011979D01*
X037361Y011703D01*
X037290Y011773D01*
X037290Y011880D01*
X037235Y012012D01*
X037134Y012113D01*
X037082Y012135D01*
X037710Y012763D01*
X037710Y013628D01*
X039835Y013628D01*
X039900Y013563D01*
X039900Y011463D01*
X040035Y011328D01*
X041236Y011328D01*
X041140Y011232D01*
X041140Y011008D01*
X041140Y010784D01*
X041456Y010468D01*
X041680Y010468D01*
X041680Y011008D01*
X041680Y010468D01*
X041904Y010468D01*
X042220Y010784D01*
X042220Y011008D01*
X041680Y011008D01*
X041680Y011008D01*
X041680Y011008D01*
X041140Y011008D01*
X041680Y011008D01*
X041680Y011008D01*
X042220Y011008D01*
X042220Y011232D01*
X042124Y011328D01*
X043461Y011328D01*
X043420Y011230D01*
X043420Y011087D01*
X043475Y010954D01*
X043576Y010853D01*
X043708Y010798D01*
X043815Y010798D01*
X044500Y010113D01*
X044493Y010095D01*
X044493Y009921D01*
X044559Y009761D01*
X044682Y009638D01*
X044843Y009571D01*
X045017Y009571D01*
X045178Y009638D01*
X045301Y009761D01*
X045367Y009921D01*
X045367Y010095D01*
X045301Y010256D01*
X045178Y010379D01*
X045017Y010445D01*
X044843Y010445D01*
X044825Y010438D01*
X044140Y011123D01*
X044140Y011230D01*
X044099Y011328D01*
X045935Y011328D01*
X046825Y010438D01*
X046682Y010379D01*
X046559Y010256D01*
X046493Y010095D01*
X046493Y009921D01*
X046559Y009761D01*
X046682Y009638D01*
X046843Y009571D01*
X047017Y009571D01*
X047178Y009638D01*
X047251Y009711D01*
X047285Y009678D01*
X047398Y009565D01*
X047386Y009565D01*
X047300Y009552D01*
X047216Y009524D01*
X047138Y009485D01*
X047067Y009433D01*
X047005Y009371D01*
X046953Y009300D01*
X046914Y009222D01*
X046887Y009139D01*
X046873Y009052D01*
X046873Y009017D01*
X047421Y009017D01*
X047421Y009000D01*
X046873Y009000D01*
X046873Y008964D01*
X046887Y008878D01*
X046914Y008794D01*
X046953Y008716D01*
X047005Y008645D01*
X047067Y008583D01*
X047138Y008532D01*
X047216Y008492D01*
X047300Y008465D01*
X047386Y008451D01*
X047421Y008451D01*
X047421Y009000D01*
X047439Y009000D01*
X047439Y008451D01*
X047474Y008451D01*
X047560Y008465D01*
X047644Y008492D01*
X047722Y008532D01*
X047793Y008583D01*
X047855Y008645D01*
X047907Y008716D01*
X047946Y008794D01*
X047973Y008878D01*
X047987Y008964D01*
X047987Y008976D01*
X048020Y008943D01*
X048020Y008837D01*
X048075Y008704D01*
X048176Y008603D01*
X048308Y008548D01*
X048452Y008548D01*
X048584Y008603D01*
X048685Y008704D01*
X048740Y008837D01*
X048740Y008980D01*
X048685Y009112D01*
X048584Y009213D01*
X048452Y009268D01*
X048345Y009268D01*
X048035Y009578D01*
X048178Y009638D01*
X048301Y009761D01*
X048367Y009921D01*
X048367Y010095D01*
X048301Y010256D01*
X048178Y010379D01*
X048017Y010445D01*
X047843Y010445D01*
X047682Y010379D01*
X047609Y010305D01*
X046260Y011653D01*
X046125Y011788D01*
X044511Y011788D01*
X044710Y011987D01*
X044850Y012325D01*
X044850Y012691D01*
X044710Y013029D01*
X044451Y013288D01*
X044113Y013428D01*
X043747Y013428D01*
X043409Y013288D01*
X043150Y013029D01*
X043010Y012691D01*
X043010Y012325D01*
X043150Y011987D01*
X043349Y011788D01*
X042054Y011788D01*
X042100Y011834D01*
X042100Y012182D01*
X041910Y012372D01*
X041910Y012603D01*
X041775Y012738D01*
X040840Y013673D01*
X040840Y013780D01*
X040785Y013912D01*
X040684Y014013D01*
X040552Y014068D01*
X040408Y014068D01*
X040276Y014013D01*
X040188Y013925D01*
X040160Y013953D01*
X040025Y014088D01*
X037385Y014088D01*
X037250Y013953D01*
X037250Y013348D01*
X037202Y013368D01*
X037058Y013368D01*
X036926Y013313D01*
X036851Y013238D01*
X033285Y013238D01*
X033150Y013103D01*
X033150Y013089D01*
X032951Y013288D01*
X032613Y013428D01*
X032247Y013428D01*
X031909Y013288D01*
X031650Y013029D01*
X031510Y012691D01*
X031510Y012325D01*
X031650Y011987D01*
X031909Y011728D01*
X032247Y011588D01*
X032613Y011588D01*
X032951Y011728D01*
X033150Y011927D01*
X033150Y010647D01*
X033134Y010663D01*
X033002Y010718D01*
X032858Y010718D01*
X032726Y010663D01*
X032625Y010562D01*
X032570Y010430D01*
X032570Y010323D01*
X032360Y010113D01*
X032301Y010256D01*
X032178Y010379D01*
X032017Y010445D01*
X031843Y010445D01*
X031682Y010379D01*
X031559Y010256D01*
X031493Y010095D01*
X031493Y009921D01*
X031559Y009761D01*
X031632Y009688D01*
X031228Y009688D01*
X031301Y009761D01*
X031367Y009921D01*
X031367Y010095D01*
X031301Y010256D01*
X031178Y010379D01*
X031160Y010386D01*
X031160Y014578D01*
X041401Y014578D01*
X041476Y014503D01*
X041608Y014448D01*
X041752Y014448D01*
X041884Y014503D01*
X041985Y014604D01*
X042040Y014737D01*
X042040Y014880D01*
X041985Y015012D01*
X041884Y015113D01*
X041752Y015168D01*
X041608Y015168D01*
X041476Y015113D01*
X041401Y015038D01*
X030835Y015038D01*
X030700Y014903D01*
X030700Y014775D02*
X027523Y014775D01*
X027590Y014616D02*
X030700Y014616D01*
X030320Y014458D02*
X027578Y014458D01*
X027480Y014299D02*
X030228Y014299D01*
X030187Y014141D02*
X027138Y014141D01*
X026979Y013982D02*
X030029Y013982D01*
X029870Y013824D02*
X026821Y013824D01*
X026662Y013665D02*
X029712Y013665D01*
X029553Y013507D02*
X026504Y013507D01*
X026345Y013348D02*
X027554Y013348D01*
X027310Y013190D02*
X026187Y013190D01*
X026028Y013031D02*
X027152Y013031D01*
X027085Y012873D02*
X025870Y012873D01*
X025711Y012714D02*
X027020Y012714D01*
X027010Y012556D02*
X025553Y012556D01*
X025475Y012397D02*
X025394Y012397D01*
X025317Y012239D02*
X025236Y012239D01*
X025885Y012397D02*
X027010Y012397D01*
X027046Y012239D02*
X026043Y012239D01*
X026100Y012080D02*
X027111Y012080D01*
X027215Y011922D02*
X026100Y011922D01*
X026029Y011763D02*
X027374Y011763D01*
X027707Y011605D02*
X025870Y011605D01*
X025680Y011548D02*
X025680Y011008D01*
X025680Y011548D01*
X025680Y011446D02*
X025680Y011446D01*
X025680Y011288D02*
X025680Y011288D01*
X025680Y011129D02*
X025680Y011129D01*
X025680Y011008D02*
X025680Y011008D01*
X026220Y010971D02*
X028700Y010971D01*
X028700Y011129D02*
X026220Y011129D01*
X026164Y011288D02*
X028700Y011288D01*
X028700Y011446D02*
X026006Y011446D01*
X025490Y011605D02*
X025102Y011605D01*
X025105Y011446D02*
X025354Y011446D01*
X025331Y011763D02*
X025260Y011763D01*
X028153Y011605D02*
X028700Y011605D01*
X028700Y011763D02*
X028486Y011763D01*
X028645Y011922D02*
X028700Y011922D01*
X029160Y011922D02*
X030700Y011922D01*
X030700Y012080D02*
X029160Y012080D01*
X029160Y012239D02*
X030700Y012239D01*
X030700Y012397D02*
X029160Y012397D01*
X029253Y012556D02*
X030700Y012556D01*
X030700Y012714D02*
X029411Y012714D01*
X029570Y012873D02*
X030700Y012873D01*
X030700Y013031D02*
X029728Y013031D01*
X029887Y013190D02*
X030700Y013190D01*
X030700Y013348D02*
X030045Y013348D01*
X030204Y013507D02*
X030700Y013507D01*
X030700Y013665D02*
X030362Y013665D01*
X030521Y013824D02*
X030700Y013824D01*
X031160Y013824D02*
X037250Y013824D01*
X037250Y013665D02*
X031160Y013665D01*
X031160Y013507D02*
X037250Y013507D01*
X037250Y013348D02*
X037250Y013348D01*
X037010Y013348D02*
X032806Y013348D01*
X033050Y013190D02*
X033236Y013190D01*
X032054Y013348D02*
X031160Y013348D01*
X031160Y013190D02*
X031810Y013190D01*
X031652Y013031D02*
X031160Y013031D01*
X031160Y012873D02*
X031585Y012873D01*
X031520Y012714D02*
X031160Y012714D01*
X031160Y012556D02*
X031510Y012556D01*
X031510Y012397D02*
X031160Y012397D01*
X031160Y012239D02*
X031546Y012239D01*
X031611Y012080D02*
X031160Y012080D01*
X031160Y011922D02*
X031715Y011922D01*
X031874Y011763D02*
X031160Y011763D01*
X031160Y011605D02*
X032207Y011605D01*
X032653Y011605D02*
X033150Y011605D01*
X033150Y011763D02*
X032986Y011763D01*
X033145Y011922D02*
X033150Y011922D01*
X033610Y011922D02*
X034140Y011922D01*
X034140Y012008D02*
X034140Y011784D01*
X034456Y011468D01*
X034680Y011468D01*
X034680Y012008D01*
X034680Y011468D01*
X034904Y011468D01*
X035220Y011784D01*
X035220Y012008D01*
X034680Y012008D01*
X034680Y012008D01*
X034680Y012008D01*
X034140Y012008D01*
X034680Y012008D01*
X034680Y012008D01*
X035220Y012008D01*
X035220Y012232D01*
X034904Y012548D01*
X034680Y012548D01*
X034456Y012548D01*
X034140Y012232D01*
X034140Y012008D01*
X034140Y012080D02*
X033610Y012080D01*
X033610Y012239D02*
X034147Y012239D01*
X034305Y012397D02*
X033610Y012397D01*
X033610Y012556D02*
X036852Y012556D01*
X036915Y012714D02*
X033610Y012714D01*
X034680Y012548D02*
X034680Y012008D01*
X034680Y012008D01*
X034680Y012548D01*
X034680Y012397D02*
X034680Y012397D01*
X034680Y012239D02*
X034680Y012239D01*
X034680Y012080D02*
X034680Y012080D01*
X034680Y011922D02*
X034680Y011922D01*
X034680Y011763D02*
X034680Y011763D01*
X034680Y011605D02*
X034680Y011605D01*
X034506Y011428D02*
X034260Y011182D01*
X034260Y010834D01*
X034506Y010588D01*
X034854Y010588D01*
X035100Y010834D01*
X035100Y011182D01*
X034854Y011428D01*
X034506Y011428D01*
X034366Y011288D02*
X033610Y011288D01*
X033610Y011446D02*
X035743Y011446D01*
X035901Y011605D02*
X035040Y011605D01*
X035199Y011763D02*
X036060Y011763D01*
X036218Y011922D02*
X035220Y011922D01*
X035220Y012080D02*
X036377Y012080D01*
X036535Y012239D02*
X035213Y012239D01*
X035055Y012397D02*
X036694Y012397D01*
X037186Y012239D02*
X037772Y012239D01*
X037577Y012080D02*
X037167Y012080D01*
X037273Y011922D02*
X037452Y011922D01*
X037386Y011763D02*
X037300Y011763D01*
X036625Y011605D02*
X036552Y011605D01*
X036393Y011446D02*
X036967Y011446D01*
X037100Y011288D02*
X036235Y011288D01*
X036076Y011129D02*
X037100Y011129D01*
X037192Y010971D02*
X035918Y010971D01*
X035759Y010812D02*
X037351Y010812D01*
X037509Y010654D02*
X035601Y010654D01*
X035702Y010495D02*
X037668Y010495D01*
X037826Y010337D02*
X035816Y010337D01*
X035840Y010178D02*
X037262Y010178D01*
X037107Y010020D02*
X035994Y010020D01*
X036152Y009861D02*
X037070Y009861D01*
X037105Y009703D02*
X036311Y009703D01*
X036469Y009544D02*
X037247Y009544D01*
X037613Y009544D02*
X038620Y009544D01*
X038693Y009386D02*
X036628Y009386D01*
X036786Y009227D02*
X039100Y009227D01*
X039100Y009069D02*
X036945Y009069D01*
X037103Y008910D02*
X039100Y008910D01*
X039098Y008752D02*
X037262Y008752D01*
X037949Y008593D02*
X038411Y008593D01*
X038294Y008435D02*
X038066Y008435D01*
X038100Y008276D02*
X038260Y008276D01*
X038260Y008118D02*
X038100Y008118D01*
X038100Y007959D02*
X038260Y007959D01*
X038260Y007801D02*
X038100Y007801D01*
X038091Y007642D02*
X038269Y007642D01*
X038351Y007484D02*
X038009Y007484D01*
X037351Y007484D02*
X037009Y007484D01*
X037091Y007642D02*
X037269Y007642D01*
X037260Y007801D02*
X037100Y007801D01*
X037100Y007959D02*
X037260Y007959D01*
X037245Y008118D02*
X037100Y008118D01*
X036245Y008118D02*
X036100Y008118D01*
X036100Y007959D02*
X036260Y007959D01*
X036260Y007801D02*
X036100Y007801D01*
X036091Y007642D02*
X036269Y007642D01*
X036351Y007484D02*
X036009Y007484D01*
X035351Y007484D02*
X035009Y007484D01*
X035091Y007642D02*
X035269Y007642D01*
X035260Y007801D02*
X035100Y007801D01*
X035100Y007959D02*
X035260Y007959D01*
X035245Y008118D02*
X035100Y008118D01*
X034260Y008118D02*
X028296Y008118D01*
X028137Y008276D02*
X034260Y008276D01*
X034294Y008435D02*
X031832Y008435D01*
X031990Y008593D02*
X034411Y008593D01*
X034611Y008752D02*
X032149Y008752D01*
X032307Y008910D02*
X034453Y008910D01*
X034294Y009069D02*
X032466Y009069D01*
X032624Y009227D02*
X034136Y009227D01*
X034060Y009303D02*
X034060Y009303D01*
X033977Y009386D02*
X032783Y009386D01*
X032941Y009544D02*
X033635Y009544D01*
X033534Y009703D02*
X033100Y009703D01*
X033258Y009861D02*
X033520Y009861D01*
X033582Y010020D02*
X033417Y010020D01*
X033575Y010178D02*
X034475Y010178D01*
X034633Y010337D02*
X033610Y010337D01*
X033610Y010495D02*
X034792Y010495D01*
X034919Y010654D02*
X034950Y010654D01*
X035078Y010812D02*
X035109Y010812D01*
X035100Y010971D02*
X035267Y010971D01*
X035426Y011129D02*
X035100Y011129D01*
X034994Y011288D02*
X035584Y011288D01*
X034320Y011605D02*
X033610Y011605D01*
X033610Y011763D02*
X034161Y011763D01*
X033150Y011446D02*
X031160Y011446D01*
X031160Y011288D02*
X033150Y011288D01*
X033150Y011129D02*
X031160Y011129D01*
X031160Y010971D02*
X033150Y010971D01*
X033150Y010812D02*
X031160Y010812D01*
X031160Y010654D02*
X032716Y010654D01*
X032597Y010495D02*
X031160Y010495D01*
X031220Y010337D02*
X031640Y010337D01*
X031527Y010178D02*
X031333Y010178D01*
X031367Y010020D02*
X031493Y010020D01*
X031518Y009861D02*
X031342Y009861D01*
X031243Y009703D02*
X031617Y009703D01*
X030617Y009703D02*
X030243Y009703D01*
X030200Y009544D02*
X030160Y009544D01*
X030160Y009386D02*
X030199Y009386D01*
X029700Y009386D02*
X029661Y009386D01*
X029700Y009544D02*
X026869Y009544D01*
X026711Y009703D02*
X028617Y009703D01*
X028518Y009861D02*
X026552Y009861D01*
X026394Y010020D02*
X028493Y010020D01*
X028527Y010178D02*
X026235Y010178D01*
X026077Y010337D02*
X028640Y010337D01*
X028700Y010495D02*
X025931Y010495D01*
X026089Y010654D02*
X028700Y010654D01*
X028700Y010812D02*
X026220Y010812D01*
X029160Y010812D02*
X030700Y010812D01*
X030700Y010654D02*
X029160Y010654D01*
X029160Y010495D02*
X030700Y010495D01*
X030640Y010337D02*
X030220Y010337D01*
X030333Y010178D02*
X030527Y010178D01*
X030493Y010020D02*
X030367Y010020D01*
X030342Y009861D02*
X030518Y009861D01*
X029617Y009703D02*
X029243Y009703D01*
X029342Y009861D02*
X029518Y009861D01*
X029493Y010020D02*
X029367Y010020D01*
X029333Y010178D02*
X029527Y010178D01*
X029640Y010337D02*
X029220Y010337D01*
X029160Y010971D02*
X030700Y010971D01*
X030700Y011129D02*
X029160Y011129D01*
X029160Y011288D02*
X030700Y011288D01*
X030700Y011446D02*
X029160Y011446D01*
X029160Y011605D02*
X030700Y011605D01*
X030700Y011763D02*
X029160Y011763D01*
X033610Y011129D02*
X034260Y011129D01*
X034260Y010971D02*
X033610Y010971D01*
X033610Y010812D02*
X034282Y010812D01*
X034441Y010654D02*
X033610Y010654D01*
X033150Y010654D02*
X033144Y010654D01*
X032570Y010337D02*
X032220Y010337D01*
X032333Y010178D02*
X032425Y010178D01*
X034178Y010020D02*
X034316Y010020D01*
X030917Y009228D02*
X030914Y009222D01*
X030887Y009139D01*
X030873Y009052D01*
X030873Y009017D01*
X031421Y009017D01*
X031421Y009000D01*
X030873Y009000D01*
X030873Y008964D01*
X030887Y008878D01*
X030914Y008794D01*
X030917Y008788D01*
X030812Y008788D01*
X030867Y008921D01*
X030867Y009095D01*
X030812Y009228D01*
X030917Y009228D01*
X030916Y009227D02*
X030812Y009227D01*
X030867Y009069D02*
X030875Y009069D01*
X030863Y008910D02*
X030881Y008910D01*
X029700Y008593D02*
X029570Y008593D01*
X029728Y008435D02*
X027979Y008435D01*
X027820Y008593D02*
X028290Y008593D01*
X028343Y008571D02*
X028517Y008571D01*
X028678Y008638D01*
X028801Y008761D01*
X028867Y008921D01*
X028867Y009095D01*
X028801Y009256D01*
X028678Y009379D01*
X028517Y009445D01*
X028343Y009445D01*
X028182Y009379D01*
X028059Y009256D01*
X027993Y009095D01*
X027993Y008921D01*
X028059Y008761D01*
X028182Y008638D01*
X028343Y008571D01*
X028570Y008593D02*
X029290Y008593D01*
X029068Y008752D02*
X028792Y008752D01*
X028863Y008910D02*
X028997Y008910D01*
X028993Y009069D02*
X028867Y009069D01*
X028812Y009227D02*
X029048Y009227D01*
X029199Y009386D02*
X028661Y009386D01*
X028199Y009386D02*
X027028Y009386D01*
X027186Y009227D02*
X028048Y009227D01*
X027993Y009069D02*
X027345Y009069D01*
X027503Y008910D02*
X027997Y008910D01*
X028068Y008752D02*
X027662Y008752D01*
X028454Y007959D02*
X034260Y007959D01*
X034260Y007801D02*
X028613Y007801D01*
X028955Y007642D02*
X034269Y007642D01*
X034351Y007484D02*
X029038Y007484D01*
X029035Y007325D02*
X052188Y007325D01*
X052029Y007484D02*
X052009Y007484D01*
X051351Y007484D02*
X040009Y007484D01*
X040091Y007642D02*
X040402Y007642D01*
X040256Y007801D02*
X040100Y007801D01*
X040100Y007959D02*
X040220Y007959D01*
X040904Y008118D02*
X045200Y008118D01*
X045200Y008276D02*
X040753Y008276D01*
X040429Y008435D02*
X045200Y008435D01*
X045200Y008593D02*
X044570Y008593D01*
X044517Y008571D02*
X044678Y008638D01*
X044801Y008761D01*
X044867Y008921D01*
X044867Y009095D01*
X044801Y009256D01*
X044678Y009379D01*
X044517Y009445D01*
X044343Y009445D01*
X044182Y009379D01*
X044059Y009256D01*
X043993Y009095D01*
X043993Y008921D01*
X044059Y008761D01*
X044182Y008638D01*
X044343Y008571D01*
X044517Y008571D01*
X044290Y008593D02*
X040270Y008593D01*
X040112Y008752D02*
X044068Y008752D01*
X043997Y008910D02*
X039953Y008910D01*
X039795Y009069D02*
X043993Y009069D01*
X044048Y009227D02*
X039636Y009227D01*
X039560Y009386D02*
X044199Y009386D01*
X044661Y009386D02*
X045199Y009386D01*
X045048Y009227D02*
X044812Y009227D01*
X044867Y009069D02*
X044993Y009069D01*
X044997Y008910D02*
X044863Y008910D01*
X044792Y008752D02*
X045068Y008752D01*
X045660Y008593D02*
X046290Y008593D01*
X046343Y008571D02*
X046182Y008638D01*
X046059Y008761D01*
X045993Y008921D01*
X045993Y009095D01*
X046059Y009256D01*
X046182Y009379D01*
X046343Y009445D01*
X046517Y009445D01*
X046678Y009379D01*
X046801Y009256D01*
X046867Y009095D01*
X046867Y008921D01*
X046801Y008761D01*
X046678Y008638D01*
X046517Y008571D01*
X046343Y008571D01*
X046570Y008593D02*
X047057Y008593D01*
X046935Y008752D02*
X046792Y008752D01*
X046863Y008910D02*
X046881Y008910D01*
X046867Y009069D02*
X046875Y009069D01*
X046916Y009227D02*
X046812Y009227D01*
X046661Y009386D02*
X047020Y009386D01*
X047277Y009544D02*
X039560Y009544D01*
X039560Y009703D02*
X044617Y009703D01*
X044518Y009861D02*
X042292Y009861D01*
X042335Y009904D02*
X042234Y009803D01*
X042102Y009748D01*
X041958Y009748D01*
X041826Y009803D01*
X041725Y009904D01*
X041670Y010037D01*
X041670Y010180D01*
X041725Y010312D01*
X041826Y010413D01*
X041958Y010468D01*
X042065Y010468D01*
X042370Y010773D01*
X042370Y010880D01*
X042425Y011012D01*
X042526Y011113D01*
X042658Y011168D01*
X042802Y011168D01*
X042934Y011113D01*
X043035Y011012D01*
X043090Y010880D01*
X043090Y010737D01*
X043035Y010604D01*
X042934Y010503D01*
X042802Y010448D01*
X042695Y010448D01*
X042390Y010143D01*
X042390Y010037D01*
X042335Y009904D01*
X042383Y010020D02*
X044493Y010020D01*
X044435Y010178D02*
X042425Y010178D01*
X042584Y010337D02*
X044276Y010337D01*
X044118Y010495D02*
X042915Y010495D01*
X043056Y010654D02*
X043959Y010654D01*
X043675Y010812D02*
X043090Y010812D01*
X043052Y010971D02*
X043468Y010971D01*
X043420Y011129D02*
X042896Y011129D01*
X042564Y011129D02*
X042220Y011129D01*
X042220Y010971D02*
X042408Y010971D01*
X042370Y010812D02*
X042220Y010812D01*
X042250Y010654D02*
X042089Y010654D01*
X042092Y010495D02*
X041931Y010495D01*
X041749Y010337D02*
X039427Y010337D01*
X039560Y010178D02*
X041670Y010178D01*
X041677Y010020D02*
X039560Y010020D01*
X039560Y009861D02*
X041768Y009861D01*
X041680Y010495D02*
X041680Y010495D01*
X041680Y010654D02*
X041680Y010654D01*
X041680Y010812D02*
X041680Y010812D01*
X041680Y010971D02*
X041680Y010971D01*
X041140Y010971D02*
X038818Y010971D01*
X038923Y011129D02*
X041140Y011129D01*
X041196Y011288D02*
X038988Y011288D01*
X039011Y011446D02*
X039917Y011446D01*
X039900Y011605D02*
X039011Y011605D01*
X038974Y011763D02*
X039900Y011763D01*
X039900Y011922D02*
X038908Y011922D01*
X038783Y012080D02*
X039900Y012080D01*
X039900Y012239D02*
X038588Y012239D01*
X037503Y012556D02*
X039900Y012556D01*
X039900Y012714D02*
X037661Y012714D01*
X037710Y012873D02*
X039900Y012873D01*
X039900Y013031D02*
X037710Y013031D01*
X037710Y013190D02*
X039900Y013190D01*
X039900Y013348D02*
X037710Y013348D01*
X037710Y013507D02*
X039900Y013507D01*
X040848Y013665D02*
X053948Y013665D01*
X054106Y013507D02*
X041007Y013507D01*
X041165Y013348D02*
X043554Y013348D01*
X043310Y013190D02*
X041324Y013190D01*
X041482Y013031D02*
X043152Y013031D01*
X043085Y012873D02*
X041641Y012873D01*
X041799Y012714D02*
X043020Y012714D01*
X043010Y012556D02*
X041910Y012556D01*
X041910Y012397D02*
X043010Y012397D01*
X043046Y012239D02*
X042043Y012239D01*
X042100Y012080D02*
X043111Y012080D01*
X043215Y011922D02*
X042100Y011922D01*
X039900Y012397D02*
X037344Y012397D01*
X042164Y011288D02*
X043444Y011288D01*
X044116Y011288D02*
X045975Y011288D01*
X046134Y011129D02*
X044140Y011129D01*
X044293Y010971D02*
X046292Y010971D01*
X046451Y010812D02*
X044451Y010812D01*
X044610Y010654D02*
X046609Y010654D01*
X046768Y010495D02*
X044768Y010495D01*
X045220Y010337D02*
X045640Y010337D01*
X045682Y010379D02*
X045559Y010256D01*
X045493Y010095D01*
X045493Y009921D01*
X045559Y009761D01*
X045682Y009638D01*
X045843Y009571D01*
X046017Y009571D01*
X046178Y009638D01*
X046301Y009761D01*
X046367Y009921D01*
X046367Y010095D01*
X046301Y010256D01*
X046178Y010379D01*
X046017Y010445D01*
X045843Y010445D01*
X045682Y010379D01*
X046220Y010337D02*
X046640Y010337D01*
X046527Y010178D02*
X046333Y010178D01*
X046367Y010020D02*
X046493Y010020D01*
X046518Y009861D02*
X046342Y009861D01*
X046243Y009703D02*
X046617Y009703D01*
X047243Y009703D02*
X047260Y009703D01*
X047421Y009541D02*
X047439Y009524D01*
X047439Y009017D01*
X047421Y009017D01*
X047421Y009541D01*
X047421Y009386D02*
X047439Y009386D01*
X047439Y009227D02*
X047421Y009227D01*
X047421Y009069D02*
X047439Y009069D01*
X047439Y008910D02*
X047421Y008910D01*
X047421Y008752D02*
X047439Y008752D01*
X047439Y008593D02*
X047421Y008593D01*
X047803Y008593D02*
X048200Y008593D01*
X048055Y008752D02*
X047925Y008752D01*
X047979Y008910D02*
X048020Y008910D01*
X048551Y009227D02*
X050986Y009227D01*
X051144Y009069D02*
X048703Y009069D01*
X048740Y008910D02*
X051303Y008910D01*
X051461Y008752D02*
X048705Y008752D01*
X048560Y008593D02*
X051411Y008593D01*
X051294Y008435D02*
X045660Y008435D01*
X045660Y008276D02*
X051260Y008276D01*
X052270Y008593D02*
X052411Y008593D01*
X052450Y008752D02*
X052112Y008752D01*
X051953Y008910D02*
X052450Y008910D01*
X052450Y009069D02*
X051795Y009069D01*
X051636Y009227D02*
X052450Y009227D01*
X052450Y009386D02*
X051478Y009386D01*
X051319Y009544D02*
X052450Y009544D01*
X052450Y009703D02*
X051161Y009703D01*
X051002Y009861D02*
X052450Y009861D01*
X052450Y010020D02*
X050844Y010020D01*
X050685Y010178D02*
X052450Y010178D01*
X052450Y010337D02*
X050527Y010337D01*
X050368Y010495D02*
X052450Y010495D01*
X052450Y010654D02*
X050919Y010654D01*
X050854Y010588D02*
X051100Y010834D01*
X051100Y011182D01*
X050854Y011428D01*
X050506Y011428D01*
X050260Y011182D01*
X050260Y010834D01*
X050506Y010588D01*
X050854Y010588D01*
X051078Y010812D02*
X052450Y010812D01*
X052450Y010971D02*
X051100Y010971D01*
X051100Y011129D02*
X052450Y011129D01*
X052450Y011288D02*
X050994Y011288D01*
X050904Y011468D02*
X051220Y011784D01*
X051220Y012008D01*
X050680Y012008D01*
X050680Y011468D01*
X050680Y012008D01*
X050680Y012008D01*
X050680Y012008D01*
X050140Y012008D01*
X050140Y011784D01*
X050456Y011468D01*
X050680Y011468D01*
X050904Y011468D01*
X051040Y011605D02*
X052450Y011605D01*
X052450Y011763D02*
X051199Y011763D01*
X051220Y011922D02*
X052450Y011922D01*
X052450Y012080D02*
X051220Y012080D01*
X051220Y012008D02*
X051220Y012232D01*
X050904Y012548D01*
X050680Y012548D01*
X050456Y012548D01*
X050140Y012232D01*
X050140Y012008D01*
X050680Y012008D01*
X050680Y012008D01*
X051220Y012008D01*
X051213Y012239D02*
X052450Y012239D01*
X052450Y012397D02*
X051055Y012397D01*
X050680Y012397D02*
X050680Y012397D01*
X050680Y012548D02*
X050680Y012008D01*
X050680Y012008D01*
X050680Y012548D01*
X050305Y012397D02*
X049350Y012397D01*
X049350Y012556D02*
X052552Y012556D01*
X050680Y012239D02*
X050680Y012239D01*
X050680Y012080D02*
X050680Y012080D01*
X050680Y011922D02*
X050680Y011922D01*
X050680Y011763D02*
X050680Y011763D01*
X050680Y011605D02*
X050680Y011605D01*
X050320Y011605D02*
X049380Y011605D01*
X049417Y011446D02*
X052450Y011446D01*
X053560Y010953D02*
X053709Y010803D01*
X054015Y010677D01*
X054345Y010677D01*
X054651Y010803D01*
X054885Y011037D01*
X055011Y011343D01*
X055011Y011673D01*
X054906Y011928D01*
X055001Y011928D01*
X055076Y011853D01*
X055208Y011798D01*
X055352Y011798D01*
X055450Y011839D01*
X055450Y008627D01*
X055442Y008624D01*
X055324Y008506D01*
X055260Y008352D01*
X055260Y007665D01*
X055324Y007510D01*
X055442Y007392D01*
X055596Y007328D01*
X055764Y007328D01*
X055918Y007392D01*
X056036Y007510D01*
X056100Y007665D01*
X056100Y008352D01*
X056036Y008506D01*
X055918Y008624D01*
X055910Y008627D01*
X055910Y012303D01*
X056450Y011763D01*
X056450Y008627D01*
X056442Y008624D01*
X056324Y008506D01*
X056260Y008352D01*
X056260Y007665D01*
X056324Y007510D01*
X056442Y007392D01*
X056596Y007328D01*
X056764Y007328D01*
X056918Y007392D01*
X057036Y007510D01*
X057100Y007665D01*
X057100Y008352D01*
X057036Y008506D01*
X056918Y008624D01*
X056910Y008627D01*
X056910Y011953D01*
X056775Y012088D01*
X053340Y015523D01*
X053340Y015630D01*
X053305Y015714D01*
X074104Y015714D01*
X073922Y015532D01*
X073756Y015244D01*
X073670Y014924D01*
X073670Y014592D01*
X073756Y014272D01*
X073922Y013984D01*
X074156Y013750D01*
X074444Y013584D01*
X074764Y013498D01*
X075096Y013498D01*
X075416Y013584D01*
X075704Y013750D01*
X075938Y013984D01*
X075961Y014024D01*
X075961Y008992D01*
X075938Y009032D01*
X075704Y009266D01*
X075416Y009432D01*
X075096Y009518D01*
X074764Y009518D01*
X074444Y009432D01*
X074156Y009266D01*
X073922Y009032D01*
X073756Y008744D01*
X073670Y008424D01*
X073670Y008092D01*
X073756Y007772D01*
X073922Y007484D01*
X074118Y007288D01*
X054910Y007288D01*
X054910Y007389D01*
X054918Y007392D01*
X055036Y007510D01*
X055100Y007665D01*
X055100Y008352D01*
X055036Y008506D01*
X054918Y008624D01*
X054764Y008688D01*
X054596Y008688D01*
X054442Y008624D01*
X054324Y008506D01*
X054260Y008352D01*
X054260Y007665D01*
X054312Y007538D01*
X054048Y007538D01*
X054100Y007665D01*
X054100Y008352D01*
X054036Y008506D01*
X053918Y008624D01*
X053764Y008688D01*
X053596Y008688D01*
X053560Y008673D01*
X053560Y010953D01*
X053560Y010812D02*
X053701Y010812D01*
X053560Y010654D02*
X055450Y010654D01*
X055450Y010812D02*
X054659Y010812D01*
X054818Y010971D02*
X055450Y010971D01*
X055450Y011129D02*
X054923Y011129D01*
X054988Y011288D02*
X055450Y011288D01*
X055450Y011446D02*
X055011Y011446D01*
X055011Y011605D02*
X055450Y011605D01*
X055450Y011763D02*
X054974Y011763D01*
X055007Y011922D02*
X054908Y011922D01*
X055910Y011922D02*
X056291Y011922D01*
X056133Y012080D02*
X055910Y012080D01*
X055910Y012239D02*
X055974Y012239D01*
X056466Y012397D02*
X057450Y012397D01*
X057450Y012372D02*
X057260Y012182D01*
X057260Y011834D01*
X057506Y011588D01*
X057854Y011588D01*
X058100Y011834D01*
X058100Y012182D01*
X057910Y012372D01*
X057910Y013703D01*
X057775Y013838D01*
X057190Y014423D01*
X057190Y014530D01*
X057135Y014662D01*
X057034Y014763D01*
X056902Y014818D01*
X056758Y014818D01*
X056626Y014763D01*
X056525Y014662D01*
X056470Y014530D01*
X056470Y014387D01*
X056525Y014254D01*
X056626Y014153D01*
X056758Y014098D01*
X056865Y014098D01*
X057450Y013513D01*
X057450Y012372D01*
X057450Y012556D02*
X056308Y012556D01*
X056149Y012714D02*
X057450Y012714D01*
X057450Y012873D02*
X055991Y012873D01*
X055832Y013031D02*
X057450Y013031D01*
X057450Y013190D02*
X055674Y013190D01*
X055515Y013348D02*
X057450Y013348D01*
X057450Y013507D02*
X055357Y013507D01*
X055198Y013665D02*
X057298Y013665D01*
X057139Y013824D02*
X055040Y013824D01*
X054881Y013982D02*
X056981Y013982D01*
X056656Y014141D02*
X054723Y014141D01*
X054564Y014299D02*
X056506Y014299D01*
X056470Y014458D02*
X054406Y014458D01*
X054247Y014616D02*
X056506Y014616D01*
X056653Y014775D02*
X054089Y014775D01*
X053930Y014933D02*
X073672Y014933D01*
X073670Y014775D02*
X057007Y014775D01*
X057154Y014616D02*
X073670Y014616D01*
X073706Y014458D02*
X057190Y014458D01*
X057314Y014299D02*
X073749Y014299D01*
X073832Y014141D02*
X057473Y014141D01*
X057631Y013982D02*
X073924Y013982D01*
X074083Y013824D02*
X057790Y013824D01*
X057910Y013665D02*
X074303Y013665D01*
X074732Y013507D02*
X057910Y013507D01*
X057910Y013348D02*
X075961Y013348D01*
X075961Y013190D02*
X057910Y013190D01*
X057910Y013031D02*
X075961Y013031D01*
X075961Y012873D02*
X057910Y012873D01*
X057910Y012714D02*
X075961Y012714D01*
X075961Y012556D02*
X057910Y012556D01*
X057910Y012397D02*
X066305Y012397D01*
X066456Y012548D02*
X066140Y012232D01*
X066140Y012008D01*
X066140Y011784D01*
X066456Y011468D01*
X066680Y011468D01*
X066680Y012008D01*
X066680Y011468D01*
X066904Y011468D01*
X067220Y011784D01*
X067220Y012008D01*
X066680Y012008D01*
X066680Y012008D01*
X066680Y012008D01*
X066140Y012008D01*
X066680Y012008D01*
X066680Y012008D01*
X067220Y012008D01*
X067220Y012232D01*
X066904Y012548D01*
X066680Y012548D01*
X066456Y012548D01*
X066680Y012548D02*
X066680Y012008D01*
X066680Y012008D01*
X066680Y012548D01*
X066680Y012397D02*
X066680Y012397D01*
X066680Y012239D02*
X066680Y012239D01*
X066680Y012080D02*
X066680Y012080D01*
X066680Y011922D02*
X066680Y011922D01*
X066680Y011763D02*
X066680Y011763D01*
X066680Y011605D02*
X066680Y011605D01*
X066506Y011428D02*
X066260Y011182D01*
X066260Y010834D01*
X066506Y010588D01*
X066854Y010588D01*
X067100Y010834D01*
X067100Y011182D01*
X066854Y011428D01*
X066506Y011428D01*
X066366Y011288D02*
X058164Y011288D01*
X058220Y011232D02*
X057904Y011548D01*
X057680Y011548D01*
X057456Y011548D01*
X057140Y011232D01*
X057140Y011008D01*
X057140Y010784D01*
X057456Y010468D01*
X057680Y010468D01*
X057680Y011008D01*
X057680Y010468D01*
X057904Y010468D01*
X058220Y010784D01*
X058220Y011008D01*
X057680Y011008D01*
X057680Y011008D01*
X057680Y011008D01*
X057140Y011008D01*
X057680Y011008D01*
X057680Y011008D01*
X058220Y011008D01*
X058220Y011232D01*
X058220Y011129D02*
X066260Y011129D01*
X066260Y010971D02*
X058220Y010971D01*
X058220Y010812D02*
X066282Y010812D01*
X066441Y010654D02*
X058089Y010654D01*
X057931Y010495D02*
X073429Y010495D01*
X073456Y010468D02*
X073680Y010468D01*
X073680Y011008D01*
X073680Y010468D01*
X073904Y010468D01*
X074220Y010784D01*
X074220Y011008D01*
X073680Y011008D01*
X073680Y011008D01*
X073680Y011008D01*
X073140Y011008D01*
X073140Y010784D01*
X073456Y010468D01*
X073680Y010495D02*
X073680Y010495D01*
X073680Y010654D02*
X073680Y010654D01*
X073680Y010812D02*
X073680Y010812D01*
X073680Y010971D02*
X073680Y010971D01*
X073680Y011008D02*
X073680Y011008D01*
X074220Y011008D01*
X074220Y011232D01*
X073904Y011548D01*
X073680Y011548D01*
X073456Y011548D01*
X073140Y011232D01*
X073140Y011008D01*
X073680Y011008D01*
X073680Y011548D01*
X073680Y011008D01*
X073680Y011008D01*
X073680Y011129D02*
X073680Y011129D01*
X073680Y011288D02*
X073680Y011288D01*
X073680Y011446D02*
X073680Y011446D01*
X073854Y011588D02*
X074100Y011834D01*
X074100Y012182D01*
X073854Y012428D01*
X073506Y012428D01*
X073260Y012182D01*
X073260Y011834D01*
X073506Y011588D01*
X073854Y011588D01*
X073870Y011605D02*
X075961Y011605D01*
X075961Y011763D02*
X074029Y011763D01*
X074100Y011922D02*
X075961Y011922D01*
X075961Y012080D02*
X074100Y012080D01*
X074043Y012239D02*
X075961Y012239D01*
X075961Y012397D02*
X073885Y012397D01*
X073475Y012397D02*
X067055Y012397D01*
X067213Y012239D02*
X069772Y012239D01*
X069709Y012213D02*
X069475Y011979D01*
X069349Y011673D01*
X069349Y011343D01*
X069475Y011037D01*
X069709Y010803D01*
X070015Y010677D01*
X070345Y010677D01*
X070651Y010803D01*
X070885Y011037D01*
X071011Y011343D01*
X071011Y011673D01*
X070885Y011979D01*
X070651Y012213D01*
X070345Y012339D01*
X070015Y012339D01*
X069709Y012213D01*
X069577Y012080D02*
X067220Y012080D01*
X067220Y011922D02*
X069452Y011922D01*
X069386Y011763D02*
X067199Y011763D01*
X067040Y011605D02*
X069349Y011605D01*
X069349Y011446D02*
X058006Y011446D01*
X057870Y011605D02*
X066320Y011605D01*
X066161Y011763D02*
X058029Y011763D01*
X058100Y011922D02*
X066140Y011922D01*
X066140Y012080D02*
X058100Y012080D01*
X058043Y012239D02*
X066147Y012239D01*
X066994Y011288D02*
X069372Y011288D01*
X069437Y011129D02*
X067100Y011129D01*
X067100Y010971D02*
X069542Y010971D01*
X069701Y010812D02*
X067078Y010812D01*
X066919Y010654D02*
X073271Y010654D01*
X073140Y010812D02*
X070659Y010812D01*
X070818Y010971D02*
X073140Y010971D01*
X073140Y011129D02*
X070923Y011129D01*
X070988Y011288D02*
X073196Y011288D01*
X073354Y011446D02*
X071011Y011446D01*
X071011Y011605D02*
X073490Y011605D01*
X073331Y011763D02*
X070974Y011763D01*
X070908Y011922D02*
X073260Y011922D01*
X073260Y012080D02*
X070783Y012080D01*
X070588Y012239D02*
X073317Y012239D01*
X074006Y011446D02*
X075961Y011446D01*
X075961Y011288D02*
X074164Y011288D01*
X074220Y011129D02*
X075961Y011129D01*
X075961Y010971D02*
X074220Y010971D01*
X074220Y010812D02*
X075961Y010812D01*
X075961Y010654D02*
X074089Y010654D01*
X073931Y010495D02*
X075961Y010495D01*
X075961Y010337D02*
X056910Y010337D01*
X056910Y010495D02*
X057429Y010495D01*
X057271Y010654D02*
X056910Y010654D01*
X056910Y010812D02*
X057140Y010812D01*
X057140Y010971D02*
X056910Y010971D01*
X056910Y011129D02*
X057140Y011129D01*
X057196Y011288D02*
X056910Y011288D01*
X056910Y011446D02*
X057354Y011446D01*
X057490Y011605D02*
X056910Y011605D01*
X056910Y011763D02*
X057331Y011763D01*
X057260Y011922D02*
X056910Y011922D01*
X056783Y012080D02*
X057260Y012080D01*
X057317Y012239D02*
X056625Y012239D01*
X055057Y012556D02*
X054658Y012556D01*
X054816Y012397D02*
X055010Y012397D01*
X054899Y012714D02*
X049340Y012714D01*
X049275Y012873D02*
X054740Y012873D01*
X054582Y013031D02*
X049208Y013031D01*
X049050Y013190D02*
X054423Y013190D01*
X054265Y013348D02*
X048806Y013348D01*
X048054Y013348D02*
X044306Y013348D01*
X044550Y013190D02*
X047810Y013190D01*
X047652Y013031D02*
X044708Y013031D01*
X044775Y012873D02*
X047585Y012873D01*
X047520Y012714D02*
X044840Y012714D01*
X044850Y012556D02*
X047510Y012556D01*
X047510Y012397D02*
X044850Y012397D01*
X044814Y012239D02*
X047546Y012239D01*
X047611Y012080D02*
X044749Y012080D01*
X044645Y011922D02*
X047715Y011922D01*
X047874Y011763D02*
X046150Y011763D01*
X046309Y011605D02*
X048207Y011605D01*
X048653Y011605D02*
X048680Y011605D01*
X048670Y011446D02*
X046467Y011446D01*
X046626Y011288D02*
X048741Y011288D01*
X049084Y011129D02*
X046784Y011129D01*
X046943Y010971D02*
X049242Y010971D01*
X049401Y010812D02*
X047101Y010812D01*
X047260Y010654D02*
X049559Y010654D01*
X049718Y010495D02*
X047418Y010495D01*
X047577Y010337D02*
X047640Y010337D01*
X048220Y010337D02*
X049876Y010337D01*
X050035Y010178D02*
X048333Y010178D01*
X048367Y010020D02*
X050193Y010020D01*
X050352Y009861D02*
X048342Y009861D01*
X048243Y009703D02*
X050510Y009703D01*
X050669Y009544D02*
X048069Y009544D01*
X048228Y009386D02*
X050827Y009386D01*
X053560Y009386D02*
X055450Y009386D01*
X055450Y009544D02*
X053560Y009544D01*
X053560Y009703D02*
X055450Y009703D01*
X055450Y009861D02*
X053560Y009861D01*
X053560Y010020D02*
X055450Y010020D01*
X055450Y010178D02*
X053560Y010178D01*
X053560Y010337D02*
X055450Y010337D01*
X055450Y010495D02*
X053560Y010495D01*
X055910Y010495D02*
X056450Y010495D01*
X056450Y010337D02*
X055910Y010337D01*
X055910Y010178D02*
X056450Y010178D01*
X056450Y010020D02*
X055910Y010020D01*
X055910Y009861D02*
X056450Y009861D01*
X056450Y009703D02*
X055910Y009703D01*
X055910Y009544D02*
X056450Y009544D01*
X056450Y009386D02*
X055910Y009386D01*
X055910Y009227D02*
X056450Y009227D01*
X056450Y009069D02*
X055910Y009069D01*
X055910Y008910D02*
X056450Y008910D01*
X056450Y008752D02*
X055910Y008752D01*
X055949Y008593D02*
X056411Y008593D01*
X056294Y008435D02*
X056066Y008435D01*
X056100Y008276D02*
X056260Y008276D01*
X056260Y008118D02*
X056100Y008118D01*
X056100Y007959D02*
X056260Y007959D01*
X056260Y007801D02*
X056100Y007801D01*
X056091Y007642D02*
X056269Y007642D01*
X056351Y007484D02*
X056009Y007484D01*
X055351Y007484D02*
X055009Y007484D01*
X055091Y007642D02*
X055269Y007642D01*
X055260Y007801D02*
X055100Y007801D01*
X055100Y007959D02*
X055260Y007959D01*
X055260Y008118D02*
X055100Y008118D01*
X055100Y008276D02*
X055260Y008276D01*
X055294Y008435D02*
X055066Y008435D01*
X054949Y008593D02*
X055411Y008593D01*
X055450Y008752D02*
X053560Y008752D01*
X053560Y008910D02*
X055450Y008910D01*
X055450Y009069D02*
X053560Y009069D01*
X053560Y009227D02*
X055450Y009227D01*
X056910Y009227D02*
X074117Y009227D01*
X073959Y009069D02*
X056910Y009069D01*
X056910Y008910D02*
X073852Y008910D01*
X073760Y008752D02*
X056910Y008752D01*
X056949Y008593D02*
X073715Y008593D01*
X073673Y008435D02*
X057066Y008435D01*
X057100Y008276D02*
X073670Y008276D01*
X073670Y008118D02*
X057100Y008118D01*
X057100Y007959D02*
X073706Y007959D01*
X073748Y007801D02*
X057100Y007801D01*
X057091Y007642D02*
X073831Y007642D01*
X073923Y007484D02*
X057009Y007484D01*
X054910Y007325D02*
X074081Y007325D01*
X075901Y009069D02*
X075961Y009069D01*
X075961Y009227D02*
X075743Y009227D01*
X075961Y009386D02*
X075497Y009386D01*
X075961Y009544D02*
X056910Y009544D01*
X056910Y009386D02*
X074363Y009386D01*
X075961Y009703D02*
X056910Y009703D01*
X056910Y009861D02*
X075961Y009861D01*
X075961Y010020D02*
X056910Y010020D01*
X056910Y010178D02*
X075961Y010178D01*
X075961Y013507D02*
X075128Y013507D01*
X075557Y013665D02*
X075961Y013665D01*
X075961Y013824D02*
X075777Y013824D01*
X075936Y013982D02*
X075961Y013982D01*
X073715Y015092D02*
X053772Y015092D01*
X053613Y015250D02*
X073759Y015250D01*
X073851Y015409D02*
X053455Y015409D01*
X053340Y015567D02*
X073957Y015567D01*
X056450Y011763D02*
X055910Y011763D01*
X055910Y011605D02*
X056450Y011605D01*
X056450Y011446D02*
X055910Y011446D01*
X055910Y011288D02*
X056450Y011288D01*
X056450Y011129D02*
X055910Y011129D01*
X055910Y010971D02*
X056450Y010971D01*
X056450Y010812D02*
X055910Y010812D01*
X055910Y010654D02*
X056450Y010654D01*
X057680Y010654D02*
X057680Y010654D01*
X057680Y010812D02*
X057680Y010812D01*
X057680Y010971D02*
X057680Y010971D01*
X057680Y011008D02*
X057680Y011548D01*
X057680Y011008D01*
X057680Y011008D01*
X057680Y011129D02*
X057680Y011129D01*
X057680Y011288D02*
X057680Y011288D01*
X057680Y011446D02*
X057680Y011446D01*
X057680Y010495D02*
X057680Y010495D01*
X050441Y010654D02*
X050210Y010654D01*
X050282Y010812D02*
X050051Y010812D01*
X049893Y010971D02*
X050260Y010971D01*
X050260Y011129D02*
X049734Y011129D01*
X049576Y011288D02*
X050366Y011288D01*
X050161Y011763D02*
X049284Y011763D01*
X049145Y011922D02*
X050140Y011922D01*
X050140Y012080D02*
X049249Y012080D01*
X049314Y012239D02*
X050147Y012239D01*
X053789Y013824D02*
X040822Y013824D01*
X040715Y013982D02*
X053631Y013982D01*
X053472Y014141D02*
X031160Y014141D01*
X031160Y014299D02*
X053314Y014299D01*
X053155Y014458D02*
X041775Y014458D01*
X041585Y014458D02*
X031160Y014458D01*
X031160Y013982D02*
X037279Y013982D01*
X040131Y013982D02*
X040245Y013982D01*
X041990Y014616D02*
X052997Y014616D01*
X052838Y014775D02*
X042040Y014775D01*
X042018Y014933D02*
X052680Y014933D01*
X052521Y015092D02*
X041906Y015092D01*
X041454Y015092D02*
X025021Y015092D01*
X025040Y015250D02*
X052400Y015250D01*
X041140Y010812D02*
X038659Y010812D01*
X038160Y010654D02*
X041271Y010654D01*
X041429Y010495D02*
X038318Y010495D01*
X037985Y010178D02*
X037598Y010178D01*
X045243Y009703D02*
X045617Y009703D01*
X045518Y009861D02*
X045342Y009861D01*
X045367Y010020D02*
X045493Y010020D01*
X045527Y010178D02*
X045333Y010178D01*
X045661Y009386D02*
X046199Y009386D01*
X046048Y009227D02*
X045812Y009227D01*
X045867Y009069D02*
X045993Y009069D01*
X045997Y008910D02*
X045863Y008910D01*
X045792Y008752D02*
X046068Y008752D01*
X045200Y007959D02*
X040940Y007959D01*
X040904Y007801D02*
X045312Y007801D01*
X040758Y007642D02*
X051269Y007642D01*
X054091Y007642D02*
X054269Y007642D01*
X054260Y007801D02*
X054100Y007801D01*
X054100Y007959D02*
X054260Y007959D01*
X054260Y008118D02*
X054100Y008118D01*
X054100Y008276D02*
X054260Y008276D01*
X054294Y008435D02*
X054066Y008435D01*
X053949Y008593D02*
X054411Y008593D01*
X039351Y007484D02*
X039009Y007484D01*
X039091Y007642D02*
X039269Y007642D01*
X039260Y007801D02*
X039100Y007801D01*
X039100Y007959D02*
X039260Y007959D01*
X039260Y008118D02*
X039115Y008118D01*
X021385Y012239D02*
X021320Y012239D01*
X021424Y012397D02*
X021544Y012397D01*
X021453Y012556D02*
X021702Y012556D01*
X021611Y012714D02*
X021861Y012714D01*
X021770Y012873D02*
X022019Y012873D01*
X021928Y013031D02*
X022178Y013031D01*
X022087Y013190D02*
X022336Y013190D01*
X022245Y013348D02*
X022495Y013348D01*
X022404Y013507D02*
X022653Y013507D01*
X022562Y013665D02*
X022812Y013665D01*
X022721Y013824D02*
X022970Y013824D01*
X022879Y013982D02*
X023129Y013982D01*
X023038Y014141D02*
X023287Y014141D01*
X023196Y014299D02*
X023446Y014299D01*
X023355Y014458D02*
X023604Y014458D01*
X023513Y014616D02*
X023763Y014616D01*
X023672Y014775D02*
X023921Y014775D01*
X023830Y014933D02*
X024080Y014933D01*
X023989Y015092D02*
X024238Y015092D01*
X024320Y015250D02*
X024147Y015250D01*
X026118Y014141D02*
X026487Y014141D01*
X026329Y013982D02*
X026298Y013982D01*
X028306Y013348D02*
X029395Y013348D01*
X029236Y013190D02*
X028550Y013190D01*
X028708Y013031D02*
X029078Y013031D01*
X028919Y012873D02*
X028775Y012873D01*
X019585Y012239D02*
X019213Y012239D01*
X019220Y012080D02*
X019427Y012080D01*
X019268Y011922D02*
X019220Y011922D01*
X009680Y011446D02*
X009680Y011446D01*
X009680Y011288D02*
X009680Y011288D01*
X009680Y011129D02*
X009680Y011129D01*
X009680Y010971D02*
X009680Y010971D01*
X009680Y010812D02*
X009680Y010812D01*
X009680Y010654D02*
X009680Y010654D01*
X009680Y010495D02*
X009680Y010495D01*
X005787Y007325D02*
X002279Y007325D01*
D15*
X009680Y012008D02*
X014380Y007308D01*
X022180Y007308D01*
X022180Y008008D01*
X021180Y008008D02*
X025180Y012008D01*
X025680Y012008D01*
X028930Y012558D02*
X028930Y010008D01*
X029930Y010008D02*
X029930Y008558D01*
X031630Y008558D01*
X033380Y010308D01*
X033380Y013008D01*
X037130Y013008D01*
X037480Y012858D02*
X034155Y009533D01*
X035680Y008008D01*
X036680Y008008D02*
X035230Y009458D01*
X035230Y009508D01*
X034155Y009533D02*
X033880Y009808D01*
X033630Y010058D02*
X032580Y009008D01*
X032730Y009108D01*
X034530Y007308D01*
X041630Y007308D01*
X041630Y009958D01*
X041680Y009958D01*
X042180Y009458D01*
X047430Y009458D01*
X047430Y009008D01*
X047380Y009908D02*
X048380Y008908D01*
X045430Y009008D02*
X045430Y008008D01*
X051680Y008008D01*
X052680Y008008D02*
X052680Y012358D01*
X054530Y012358D01*
X054730Y012158D01*
X055280Y012158D01*
X055680Y012258D02*
X055680Y008008D01*
X054680Y008008D02*
X054680Y007308D01*
X052530Y007308D01*
X052230Y007608D01*
X052230Y008308D01*
X049030Y011508D01*
X047380Y010208D02*
X046030Y011558D01*
X040130Y011558D01*
X040130Y013658D01*
X039930Y013858D01*
X037480Y013858D01*
X037480Y012858D01*
X034680Y012008D02*
X033630Y010958D01*
X033630Y010058D01*
X032930Y010358D02*
X032030Y009458D01*
X030430Y009458D01*
X030430Y009008D01*
X031730Y008308D02*
X032430Y009008D01*
X032580Y009008D01*
X031730Y008308D02*
X028130Y008308D01*
X028130Y008558D01*
X025680Y011008D01*
X024980Y011108D02*
X028680Y007408D01*
X021730Y009058D02*
X027230Y014558D01*
X025980Y013808D02*
X020180Y008008D01*
X018180Y008008D02*
X021330Y011158D01*
X021330Y011858D01*
X024680Y015208D01*
X024130Y015558D02*
X052630Y015558D01*
X052630Y015308D01*
X055680Y012258D01*
X056680Y011858D02*
X056680Y008008D01*
X053680Y008008D02*
X053330Y008358D01*
X053330Y011808D01*
X053180Y011958D01*
X056680Y011858D02*
X052980Y015558D01*
X056830Y014458D02*
X057680Y013608D01*
X057680Y012008D01*
X047380Y010208D02*
X047380Y009908D01*
X044930Y010008D02*
X043780Y011158D01*
X042730Y010808D02*
X042030Y010108D01*
X041680Y009958D02*
X041680Y011008D01*
X041680Y012008D02*
X041680Y012508D01*
X040480Y013708D01*
X041680Y014808D02*
X030930Y014808D01*
X030930Y010008D01*
X035480Y010208D02*
X037680Y008008D01*
X038680Y008008D02*
X039330Y008658D01*
X039330Y009158D01*
X039380Y009158D01*
X040580Y007958D01*
X039330Y009158D02*
X039330Y010108D01*
X038380Y010108D01*
X037330Y011158D01*
X037330Y011408D01*
X036930Y011808D01*
X030580Y014208D02*
X028930Y012558D01*
X024130Y015558D02*
X021080Y012508D01*
X021130Y013458D02*
X018680Y011008D01*
X037430Y009858D02*
X038980Y009858D01*
X038980Y009608D01*
D16*
X038980Y009608D03*
X037430Y009858D03*
X035480Y010208D03*
X033880Y009808D03*
X035230Y009508D03*
X032580Y009008D03*
X032930Y010358D03*
X036930Y011808D03*
X042730Y010808D03*
X043780Y011158D03*
X042030Y010108D03*
X048380Y008908D03*
X040580Y007958D03*
X028680Y007408D03*
X021730Y009058D03*
X024980Y011108D03*
X021080Y012508D03*
X021130Y013458D03*
X025980Y013808D03*
X027230Y014558D03*
X024680Y015208D03*
X030580Y014208D03*
X037130Y013008D03*
X040480Y013708D03*
X041680Y014808D03*
X052980Y015558D03*
X056830Y014458D03*
X055280Y012158D03*
X053180Y011958D03*
X049030Y011508D03*
D17*
X074930Y008258D03*
X074930Y014758D03*
X001430Y014758D03*
X001430Y008258D03*
M02*
