G75*
%MOIN*%
%OFA0B0*%
%FSLAX24Y24*%
%IPPOS*%
%LPD*%
%AMOC8*
5,1,8,0,0,1.08239X$1,22.5*
%
%ADD10C,0.0060*%
%ADD11R,0.0472X0.0472*%
%ADD12C,0.0554*%
%ADD13OC8,0.0520*%
%ADD14C,0.0520*%
%ADD15C,0.0160*%
%ADD16C,0.0140*%
%ADD17C,0.0400*%
%ADD18C,0.2200*%
D10*
X006328Y007538D02*
X006328Y007965D01*
X006542Y008179D01*
X006755Y007965D01*
X006755Y007538D01*
X007186Y007538D02*
X007186Y008179D01*
X006973Y008179D02*
X007400Y008179D01*
X006755Y007858D02*
X006328Y007858D01*
D11*
X006593Y012508D03*
X005767Y012508D03*
X021767Y012508D03*
X022593Y012508D03*
X037767Y012508D03*
X038593Y012508D03*
X053767Y012508D03*
X054593Y012508D03*
X069767Y012508D03*
X070593Y012508D03*
D12*
X047930Y010008D03*
X046930Y010008D03*
X045930Y010008D03*
X044930Y010008D03*
X044430Y009008D03*
X045430Y009008D03*
X046430Y009008D03*
X047430Y009008D03*
X031930Y010008D03*
X030930Y010008D03*
X029930Y010008D03*
X028930Y010008D03*
X028430Y009008D03*
X029430Y009008D03*
X030430Y009008D03*
X031430Y009008D03*
D13*
X034680Y011008D03*
X034680Y012008D03*
X041680Y012008D03*
X041680Y011008D03*
X050680Y011008D03*
X050680Y012008D03*
X057680Y012008D03*
X057680Y011008D03*
X066680Y011008D03*
X066680Y012008D03*
X073680Y012008D03*
X073680Y011008D03*
X025680Y011008D03*
X025680Y012008D03*
X018680Y012008D03*
X018680Y011008D03*
X009680Y011008D03*
X009680Y012008D03*
X002680Y012008D03*
X002680Y011008D03*
D14*
X017180Y008268D02*
X017180Y007748D01*
X018180Y007748D02*
X018180Y008268D01*
X019180Y008268D02*
X019180Y007748D01*
X020180Y007748D02*
X020180Y008268D01*
X021180Y008268D02*
X021180Y007748D01*
X022180Y007748D02*
X022180Y008268D01*
X034680Y008268D02*
X034680Y007748D01*
X035680Y007748D02*
X035680Y008268D01*
X036680Y008268D02*
X036680Y007748D01*
X037680Y007748D02*
X037680Y008268D01*
X038680Y008268D02*
X038680Y007748D01*
X039680Y007748D02*
X039680Y008268D01*
X051680Y008268D02*
X051680Y007748D01*
X052680Y007748D02*
X052680Y008268D01*
X053680Y008268D02*
X053680Y007748D01*
X054680Y007748D02*
X054680Y008268D01*
X055680Y008268D02*
X055680Y007748D01*
X056680Y007748D02*
X056680Y008268D01*
D15*
X002438Y007484D02*
X002242Y007288D01*
X005761Y007288D01*
X005761Y008452D01*
X005764Y008473D01*
X005769Y008493D01*
X005777Y008512D01*
X005788Y008531D01*
X005800Y008547D01*
X005815Y008562D01*
X005832Y008575D01*
X005850Y008585D01*
X005869Y008593D01*
X002645Y008593D01*
X002604Y008744D02*
X002690Y008424D01*
X002690Y008092D01*
X002604Y007772D01*
X002438Y007484D01*
X002437Y007484D02*
X005761Y007484D01*
X005761Y007642D02*
X002529Y007642D01*
X002612Y007801D02*
X005761Y007801D01*
X005761Y007959D02*
X002654Y007959D01*
X002690Y008118D02*
X005761Y008118D01*
X005761Y008276D02*
X002690Y008276D01*
X002687Y008435D02*
X005761Y008435D01*
X005869Y008593D02*
X005890Y008599D01*
X005911Y008601D01*
X007674Y008601D01*
X007695Y008599D01*
X007715Y008593D01*
X016500Y008593D01*
X016500Y008435D02*
X007823Y008435D01*
X007823Y008452D02*
X007821Y008473D01*
X007815Y008493D01*
X007807Y008512D01*
X007797Y008531D01*
X007784Y008547D01*
X007769Y008562D01*
X007752Y008575D01*
X007734Y008585D01*
X007715Y008593D01*
X007823Y008452D02*
X007823Y007288D01*
X016725Y007288D01*
X016635Y007378D01*
X016500Y007513D01*
X016500Y009153D01*
X016635Y009288D01*
X021451Y009288D01*
X021526Y009363D01*
X021658Y009418D01*
X021802Y009418D01*
X021934Y009363D01*
X022035Y009262D01*
X022090Y009130D01*
X022090Y008987D01*
X022070Y008938D01*
X027993Y008938D01*
X027993Y009095D01*
X028059Y009256D01*
X028182Y009379D01*
X028343Y009445D01*
X028517Y009445D01*
X028535Y009438D01*
X028650Y009553D01*
X028719Y009622D01*
X028682Y009638D01*
X028559Y009761D01*
X028493Y009921D01*
X028493Y010095D01*
X028559Y010256D01*
X028682Y010379D01*
X028843Y010445D01*
X029017Y010445D01*
X029178Y010379D01*
X029301Y010256D01*
X029367Y010095D01*
X029367Y009921D01*
X029301Y009761D01*
X029228Y009688D01*
X029632Y009688D01*
X029559Y009761D01*
X029493Y009921D01*
X029493Y010095D01*
X029559Y010256D01*
X029682Y010379D01*
X029843Y010445D01*
X030017Y010445D01*
X030178Y010379D01*
X030301Y010256D01*
X030367Y010095D01*
X030367Y009921D01*
X030301Y009761D01*
X030228Y009688D01*
X030632Y009688D01*
X030559Y009761D01*
X030493Y009921D01*
X030493Y010095D01*
X030559Y010256D01*
X030682Y010379D01*
X030843Y010445D01*
X031017Y010445D01*
X031178Y010379D01*
X031301Y010256D01*
X031367Y010095D01*
X031367Y009921D01*
X031301Y009761D01*
X031228Y009688D01*
X031632Y009688D01*
X031559Y009761D01*
X031493Y009921D01*
X031493Y010095D01*
X031559Y010256D01*
X031682Y010379D01*
X031843Y010445D01*
X032017Y010445D01*
X032178Y010379D01*
X032301Y010256D01*
X032308Y010238D01*
X032590Y010238D01*
X032570Y010287D01*
X032570Y010430D01*
X032625Y010562D01*
X032726Y010663D01*
X032762Y010678D01*
X028925Y010678D01*
X028425Y010178D01*
X003185Y010178D01*
X003050Y010313D01*
X002775Y010588D01*
X002506Y010588D01*
X002260Y010834D01*
X002260Y011182D01*
X002506Y011428D01*
X002854Y011428D01*
X003100Y011182D01*
X003100Y010913D01*
X003375Y010638D01*
X009286Y010638D01*
X009140Y010784D01*
X009140Y011008D01*
X009680Y011008D01*
X009680Y011008D01*
X009680Y011008D01*
X010220Y011008D01*
X010220Y010784D01*
X010074Y010638D01*
X018456Y010638D01*
X018260Y010834D01*
X018260Y011182D01*
X018506Y011428D01*
X018854Y011428D01*
X019100Y011182D01*
X019100Y010834D01*
X018904Y010638D01*
X025286Y010638D01*
X025140Y010784D01*
X025140Y010785D01*
X025052Y010748D01*
X024908Y010748D01*
X024776Y010803D01*
X024701Y010878D01*
X023935Y010878D01*
X022921Y011892D01*
X023011Y011673D01*
X023011Y011343D01*
X022885Y011037D01*
X022651Y010803D01*
X022345Y010677D01*
X022015Y010677D01*
X021709Y010803D01*
X021475Y011037D01*
X021349Y011343D01*
X021349Y011673D01*
X021475Y011979D01*
X021608Y012112D01*
X021464Y012112D01*
X021370Y012206D01*
X021370Y012278D01*
X021359Y012278D01*
X021284Y012203D01*
X021152Y012148D01*
X021008Y012148D01*
X020876Y012203D01*
X020775Y012304D01*
X020720Y012437D01*
X020720Y012580D01*
X020761Y012678D01*
X007125Y012678D01*
X006990Y012542D01*
X006990Y012206D01*
X006896Y012112D01*
X006752Y012112D01*
X006885Y011979D01*
X007011Y011673D01*
X007011Y011343D01*
X006885Y011037D01*
X006651Y010803D01*
X006345Y010677D01*
X006015Y010677D01*
X005709Y010803D01*
X005475Y011037D01*
X005349Y011343D01*
X005349Y011673D01*
X005475Y011979D01*
X005608Y012112D01*
X005464Y012112D01*
X005370Y012206D01*
X005370Y012811D01*
X005464Y012904D01*
X005851Y012904D01*
X008600Y015653D01*
X008661Y015714D01*
X002256Y015714D01*
X002438Y015532D01*
X002604Y015244D01*
X002690Y014924D01*
X002690Y014592D01*
X002604Y014272D01*
X002438Y013984D01*
X002204Y013750D01*
X001916Y013584D01*
X001596Y013498D01*
X001264Y013498D01*
X000944Y013584D01*
X000656Y013750D01*
X000460Y013946D01*
X000460Y009070D01*
X000656Y009266D01*
X000944Y009432D01*
X001264Y009518D01*
X001596Y009518D01*
X001916Y009432D01*
X002204Y009266D01*
X002438Y009032D01*
X002604Y008744D01*
X002600Y008752D02*
X016500Y008752D01*
X016500Y008910D02*
X002508Y008910D01*
X002401Y009069D02*
X016500Y009069D01*
X016574Y009227D02*
X002243Y009227D01*
X001997Y009386D02*
X021580Y009386D01*
X021880Y009386D02*
X028199Y009386D01*
X028048Y009227D02*
X022050Y009227D01*
X022090Y009069D02*
X027993Y009069D01*
X028641Y009544D02*
X000460Y009544D01*
X000460Y009386D02*
X000863Y009386D01*
X000617Y009227D02*
X000460Y009227D01*
X000460Y009703D02*
X028617Y009703D01*
X028518Y009861D02*
X000460Y009861D01*
X000460Y010020D02*
X028493Y010020D01*
X028527Y010178D02*
X028425Y010178D01*
X028584Y010337D02*
X028640Y010337D01*
X028742Y010495D02*
X032597Y010495D01*
X032570Y010337D02*
X032220Y010337D01*
X031640Y010337D02*
X031220Y010337D01*
X031333Y010178D02*
X031527Y010178D01*
X031493Y010020D02*
X031367Y010020D01*
X031342Y009861D02*
X031518Y009861D01*
X031617Y009703D02*
X031243Y009703D01*
X030617Y009703D02*
X030243Y009703D01*
X030342Y009861D02*
X030518Y009861D01*
X030493Y010020D02*
X030367Y010020D01*
X030333Y010178D02*
X030527Y010178D01*
X030640Y010337D02*
X030220Y010337D01*
X029640Y010337D02*
X029220Y010337D01*
X029333Y010178D02*
X029527Y010178D01*
X029493Y010020D02*
X029367Y010020D01*
X029342Y009861D02*
X029518Y009861D01*
X029617Y009703D02*
X029243Y009703D01*
X030812Y009228D02*
X030917Y009228D01*
X030914Y009222D01*
X030887Y009139D01*
X030873Y009052D01*
X030873Y009017D01*
X031421Y009017D01*
X031421Y009000D01*
X030873Y009000D01*
X030873Y008964D01*
X030887Y008878D01*
X030914Y008794D01*
X030917Y008788D01*
X030812Y008788D01*
X030867Y008921D01*
X030867Y009095D01*
X030812Y009228D01*
X030812Y009227D02*
X030916Y009227D01*
X030875Y009069D02*
X030867Y009069D01*
X030863Y008910D02*
X030881Y008910D01*
X031439Y009000D02*
X031439Y009017D01*
X031987Y009017D01*
X031987Y009052D01*
X031973Y009139D01*
X031946Y009222D01*
X031943Y009228D01*
X034685Y009228D01*
X035000Y008913D01*
X035135Y008778D01*
X035175Y008778D01*
X034969Y008573D01*
X034918Y008624D01*
X034764Y008688D01*
X034596Y008688D01*
X034442Y008624D01*
X034416Y008598D01*
X034360Y008653D01*
X034225Y008788D01*
X031943Y008788D01*
X031946Y008794D01*
X031973Y008878D01*
X031987Y008964D01*
X031987Y009000D01*
X031439Y009000D01*
X031979Y008910D02*
X035003Y008910D01*
X035148Y008752D02*
X034262Y008752D01*
X034949Y008593D02*
X034990Y008593D01*
X034844Y009069D02*
X031985Y009069D01*
X031944Y009227D02*
X034686Y009227D01*
X032716Y010654D02*
X028901Y010654D01*
X028600Y011003D02*
X028235Y010638D01*
X026074Y010638D01*
X026220Y010784D01*
X026220Y011008D01*
X025680Y011008D01*
X025680Y011008D01*
X026220Y011008D01*
X026220Y011232D01*
X025904Y011548D01*
X025680Y011548D01*
X025456Y011548D01*
X025253Y011345D01*
X025184Y011413D01*
X025052Y011468D01*
X024908Y011468D01*
X024776Y011413D01*
X024701Y011338D01*
X024125Y011338D01*
X022990Y012474D01*
X022990Y012678D01*
X025785Y012678D01*
X027250Y011213D01*
X027385Y011078D01*
X028675Y011078D01*
X028600Y011003D01*
X028567Y010971D02*
X026220Y010971D01*
X026220Y011129D02*
X027334Y011129D01*
X027175Y011288D02*
X026164Y011288D01*
X026006Y011446D02*
X027017Y011446D01*
X026858Y011605D02*
X025870Y011605D01*
X025854Y011588D02*
X026100Y011834D01*
X026100Y012182D01*
X025854Y012428D01*
X025506Y012428D01*
X025260Y012182D01*
X025260Y011834D01*
X025506Y011588D01*
X025854Y011588D01*
X025680Y011548D02*
X025680Y011008D01*
X025680Y011548D01*
X025680Y011446D02*
X025680Y011446D01*
X025680Y011288D02*
X025680Y011288D01*
X025680Y011129D02*
X025680Y011129D01*
X025680Y011008D02*
X025680Y011008D01*
X025354Y011446D02*
X025105Y011446D01*
X024855Y011446D02*
X024017Y011446D01*
X023859Y011605D02*
X025490Y011605D01*
X025331Y011763D02*
X023700Y011763D01*
X023542Y011922D02*
X025260Y011922D01*
X025260Y012080D02*
X023383Y012080D01*
X023225Y012239D02*
X025317Y012239D01*
X025475Y012397D02*
X023066Y012397D01*
X022990Y012556D02*
X025907Y012556D01*
X025885Y012397D02*
X026066Y012397D01*
X026043Y012239D02*
X026224Y012239D01*
X026100Y012080D02*
X026383Y012080D01*
X026541Y011922D02*
X026100Y011922D01*
X026029Y011763D02*
X026700Y011763D01*
X027150Y011987D02*
X027409Y011728D01*
X027747Y011588D01*
X028113Y011588D01*
X028451Y011728D01*
X028710Y011987D01*
X028850Y012325D01*
X028850Y012691D01*
X028710Y013029D01*
X028511Y013228D01*
X031849Y013228D01*
X031650Y013029D01*
X031510Y012691D01*
X031510Y012325D01*
X031650Y011987D01*
X031909Y011728D01*
X032247Y011588D01*
X032613Y011588D01*
X032951Y011728D01*
X033210Y011987D01*
X033350Y012325D01*
X033350Y012691D01*
X033210Y013029D01*
X033011Y013228D01*
X035185Y013228D01*
X036570Y011843D01*
X036570Y011737D01*
X036590Y011688D01*
X035124Y011688D01*
X035220Y011784D01*
X035220Y012008D01*
X034680Y012008D01*
X034680Y012008D01*
X034140Y012008D01*
X034140Y011784D01*
X034336Y011589D01*
X034300Y011553D01*
X034285Y011538D01*
X027575Y011538D01*
X025975Y013138D01*
X021298Y013138D01*
X021334Y013153D01*
X021409Y013228D01*
X027349Y013228D01*
X027150Y013029D01*
X027010Y012691D01*
X027010Y012325D01*
X027150Y011987D01*
X027192Y011922D02*
X027215Y011922D01*
X027111Y012080D02*
X027033Y012080D01*
X027046Y012239D02*
X026875Y012239D01*
X027010Y012397D02*
X026716Y012397D01*
X026558Y012556D02*
X027010Y012556D01*
X027020Y012714D02*
X026399Y012714D01*
X026241Y012873D02*
X027085Y012873D01*
X027152Y013031D02*
X026082Y013031D01*
X027310Y013190D02*
X021371Y013190D01*
X020720Y012556D02*
X007003Y012556D01*
X006990Y012397D02*
X009475Y012397D01*
X009506Y012428D02*
X009260Y012182D01*
X009260Y011834D01*
X009506Y011588D01*
X009854Y011588D01*
X010100Y011834D01*
X010100Y012182D01*
X009854Y012428D01*
X009506Y012428D01*
X009317Y012239D02*
X006990Y012239D01*
X006783Y012080D02*
X009260Y012080D01*
X009260Y011922D02*
X006908Y011922D01*
X006974Y011763D02*
X009331Y011763D01*
X009490Y011605D02*
X007011Y011605D01*
X007011Y011446D02*
X009354Y011446D01*
X009456Y011548D02*
X009140Y011232D01*
X009140Y011008D01*
X009680Y011008D01*
X010220Y011008D01*
X010220Y011232D01*
X009904Y011548D01*
X009680Y011548D01*
X009456Y011548D01*
X009680Y011548D02*
X009680Y011008D01*
X009680Y011008D01*
X009680Y011548D01*
X009680Y011446D02*
X009680Y011446D01*
X009680Y011288D02*
X009680Y011288D01*
X009680Y011129D02*
X009680Y011129D01*
X010164Y011288D02*
X018366Y011288D01*
X018260Y011129D02*
X010220Y011129D01*
X010220Y010971D02*
X018260Y010971D01*
X018282Y010812D02*
X010220Y010812D01*
X010089Y010654D02*
X018441Y010654D01*
X018919Y010654D02*
X025271Y010654D01*
X024767Y010812D02*
X022659Y010812D01*
X022818Y010971D02*
X023842Y010971D01*
X023684Y011129D02*
X022923Y011129D01*
X022988Y011288D02*
X023525Y011288D01*
X023367Y011446D02*
X023011Y011446D01*
X023011Y011605D02*
X023208Y011605D01*
X023050Y011763D02*
X022974Y011763D01*
X021577Y012080D02*
X019220Y012080D01*
X019220Y012008D02*
X019220Y012232D01*
X018904Y012548D01*
X018680Y012548D01*
X018456Y012548D01*
X018140Y012232D01*
X018140Y012008D01*
X018140Y011784D01*
X018456Y011468D01*
X018680Y011468D01*
X018680Y012008D01*
X018680Y011468D01*
X018904Y011468D01*
X019220Y011784D01*
X019220Y012008D01*
X018680Y012008D01*
X018680Y012008D01*
X018680Y012008D01*
X018140Y012008D01*
X018680Y012008D01*
X018680Y012008D01*
X019220Y012008D01*
X019220Y011922D02*
X021452Y011922D01*
X021386Y011763D02*
X019199Y011763D01*
X019040Y011605D02*
X021349Y011605D01*
X021349Y011446D02*
X010006Y011446D01*
X009870Y011605D02*
X018320Y011605D01*
X018161Y011763D02*
X010029Y011763D01*
X010100Y011922D02*
X018140Y011922D01*
X018140Y012080D02*
X010100Y012080D01*
X010043Y012239D02*
X018147Y012239D01*
X018305Y012397D02*
X009885Y012397D01*
X006136Y013190D02*
X000460Y013190D01*
X000460Y013348D02*
X006295Y013348D01*
X006453Y013507D02*
X001628Y013507D01*
X001232Y013507D02*
X000460Y013507D01*
X000460Y013665D02*
X000803Y013665D01*
X000583Y013824D02*
X000460Y013824D01*
X002057Y013665D02*
X006612Y013665D01*
X006770Y013824D02*
X002277Y013824D01*
X002436Y013982D02*
X006929Y013982D01*
X007087Y014141D02*
X002528Y014141D01*
X002611Y014299D02*
X007246Y014299D01*
X007404Y014458D02*
X002654Y014458D01*
X002690Y014616D02*
X007563Y014616D01*
X007721Y014775D02*
X002690Y014775D01*
X002688Y014933D02*
X007880Y014933D01*
X008038Y015092D02*
X002645Y015092D01*
X002601Y015250D02*
X008197Y015250D01*
X008355Y015409D02*
X002509Y015409D01*
X002403Y015567D02*
X008514Y015567D01*
X005978Y013031D02*
X000460Y013031D01*
X000460Y012873D02*
X005432Y012873D01*
X005370Y012714D02*
X000460Y012714D01*
X000460Y012556D02*
X005370Y012556D01*
X005370Y012397D02*
X003055Y012397D01*
X002904Y012548D02*
X002680Y012548D01*
X002456Y012548D01*
X002140Y012232D01*
X002140Y012008D01*
X002140Y011784D01*
X002456Y011468D01*
X002680Y011468D01*
X002680Y012008D01*
X002680Y011468D01*
X002904Y011468D01*
X003220Y011784D01*
X003220Y012008D01*
X002680Y012008D01*
X002680Y012008D01*
X002680Y012008D01*
X002140Y012008D01*
X002680Y012008D01*
X002680Y012008D01*
X003220Y012008D01*
X003220Y012232D01*
X002904Y012548D01*
X002680Y012548D02*
X002680Y012008D01*
X002680Y012548D01*
X002680Y012397D02*
X002680Y012397D01*
X002680Y012239D02*
X002680Y012239D01*
X002680Y012080D02*
X002680Y012080D01*
X002680Y012008D02*
X002680Y012008D01*
X002680Y011922D02*
X002680Y011922D01*
X002680Y011763D02*
X002680Y011763D01*
X002680Y011605D02*
X002680Y011605D01*
X003040Y011605D02*
X005349Y011605D01*
X005349Y011446D02*
X000460Y011446D01*
X000460Y011288D02*
X002366Y011288D01*
X002260Y011129D02*
X000460Y011129D01*
X000460Y010971D02*
X002260Y010971D01*
X002282Y010812D02*
X000460Y010812D01*
X000460Y010654D02*
X002441Y010654D01*
X002868Y010495D02*
X000460Y010495D01*
X000460Y010337D02*
X003026Y010337D01*
X003185Y010178D02*
X000460Y010178D01*
X003201Y010812D02*
X005701Y010812D01*
X005542Y010971D02*
X003100Y010971D01*
X003100Y011129D02*
X005437Y011129D01*
X005372Y011288D02*
X002994Y011288D01*
X002320Y011605D02*
X000460Y011605D01*
X000460Y011763D02*
X002161Y011763D01*
X002140Y011922D02*
X000460Y011922D01*
X000460Y012080D02*
X002140Y012080D01*
X002147Y012239D02*
X000460Y012239D01*
X000460Y012397D02*
X002305Y012397D01*
X003213Y012239D02*
X005370Y012239D01*
X005577Y012080D02*
X003220Y012080D01*
X003220Y011922D02*
X005452Y011922D01*
X005386Y011763D02*
X003199Y011763D01*
X006818Y010971D02*
X009140Y010971D01*
X009140Y011129D02*
X006923Y011129D01*
X006988Y011288D02*
X009196Y011288D01*
X009140Y010812D02*
X006659Y010812D01*
X009271Y010654D02*
X003360Y010654D01*
X007823Y008276D02*
X016500Y008276D01*
X016500Y008118D02*
X007823Y008118D01*
X007823Y007959D02*
X016500Y007959D01*
X016500Y007801D02*
X007823Y007801D01*
X007823Y007642D02*
X016500Y007642D01*
X016529Y007484D02*
X007823Y007484D01*
X007823Y007325D02*
X016688Y007325D01*
X005761Y007325D02*
X002279Y007325D01*
X019078Y010812D02*
X021701Y010812D01*
X021542Y010971D02*
X019100Y010971D01*
X019100Y011129D02*
X021437Y011129D01*
X021372Y011288D02*
X018994Y011288D01*
X018680Y011605D02*
X018680Y011605D01*
X018680Y011763D02*
X018680Y011763D01*
X018680Y011922D02*
X018680Y011922D01*
X018680Y012008D02*
X018680Y012548D01*
X018680Y012008D01*
X018680Y012008D01*
X018680Y012080D02*
X018680Y012080D01*
X018680Y012239D02*
X018680Y012239D01*
X018680Y012397D02*
X018680Y012397D01*
X019055Y012397D02*
X020736Y012397D01*
X020840Y012239D02*
X019213Y012239D01*
X021320Y012239D02*
X021370Y012239D01*
X027350Y011763D02*
X027374Y011763D01*
X027509Y011605D02*
X027707Y011605D01*
X028153Y011605D02*
X032207Y011605D01*
X031874Y011763D02*
X028486Y011763D01*
X028645Y011922D02*
X031715Y011922D01*
X031611Y012080D02*
X028749Y012080D01*
X028814Y012239D02*
X031546Y012239D01*
X031510Y012397D02*
X028850Y012397D01*
X028850Y012556D02*
X031510Y012556D01*
X031520Y012714D02*
X028840Y012714D01*
X028775Y012873D02*
X031585Y012873D01*
X031652Y013031D02*
X028708Y013031D01*
X028550Y013190D02*
X031810Y013190D01*
X033050Y013190D02*
X035223Y013190D01*
X035382Y013031D02*
X033208Y013031D01*
X033275Y012873D02*
X035540Y012873D01*
X035699Y012714D02*
X033340Y012714D01*
X033350Y012556D02*
X035857Y012556D01*
X036016Y012397D02*
X035055Y012397D01*
X034904Y012548D02*
X034680Y012548D01*
X034456Y012548D01*
X034140Y012232D01*
X034140Y012008D01*
X034680Y012008D01*
X034680Y012008D01*
X035220Y012008D01*
X035220Y012232D01*
X034904Y012548D01*
X034680Y012548D02*
X034680Y012008D01*
X034680Y012548D01*
X034680Y012397D02*
X034680Y012397D01*
X034680Y012239D02*
X034680Y012239D01*
X034680Y012080D02*
X034680Y012080D01*
X034680Y012008D02*
X034680Y012008D01*
X035220Y012080D02*
X036333Y012080D01*
X036491Y011922D02*
X035220Y011922D01*
X035199Y011763D02*
X036570Y011763D01*
X036174Y012239D02*
X035213Y012239D01*
X034305Y012397D02*
X033350Y012397D01*
X033314Y012239D02*
X034147Y012239D01*
X034140Y012080D02*
X033249Y012080D01*
X033145Y011922D02*
X034140Y011922D01*
X034161Y011763D02*
X032986Y011763D01*
X032653Y011605D02*
X034320Y011605D01*
X039385Y010688D02*
X039925Y011228D01*
X041140Y011228D01*
X041140Y011008D01*
X041140Y010784D01*
X041236Y010688D01*
X039385Y010688D01*
X039509Y010812D02*
X041140Y010812D01*
X041140Y010971D02*
X039668Y010971D01*
X039826Y011129D02*
X041140Y011129D01*
X041140Y011008D02*
X041680Y011008D01*
X041140Y011008D01*
X041680Y011008D02*
X041680Y011008D01*
X041680Y011008D01*
X042220Y011008D01*
X042220Y010784D01*
X042124Y010688D01*
X042390Y010688D01*
X042370Y010737D01*
X042370Y010880D01*
X042425Y011012D01*
X042526Y011113D01*
X042658Y011168D01*
X042802Y011168D01*
X042934Y011113D01*
X043009Y011038D01*
X043425Y011038D01*
X043400Y011063D01*
X043235Y011228D01*
X042220Y011228D01*
X042220Y011008D01*
X041680Y011008D01*
X042220Y010971D02*
X042408Y010971D01*
X042370Y010812D02*
X042220Y010812D01*
X042220Y011129D02*
X042564Y011129D01*
X042896Y011129D02*
X043334Y011129D01*
X044120Y011038D02*
X044140Y011087D01*
X044140Y011230D01*
X044120Y011278D01*
X048751Y011278D01*
X048826Y011203D01*
X048958Y011148D01*
X049102Y011148D01*
X049234Y011203D01*
X049335Y011304D01*
X049390Y011437D01*
X049390Y011580D01*
X049335Y011712D01*
X049234Y011813D01*
X049102Y011868D01*
X049091Y011868D01*
X049210Y011987D01*
X049350Y012325D01*
X049350Y012691D01*
X049210Y013029D01*
X048951Y013288D01*
X048613Y013428D01*
X048247Y013428D01*
X047909Y013288D01*
X047650Y013029D01*
X047510Y012691D01*
X047510Y012325D01*
X047650Y011987D01*
X047899Y011738D01*
X044461Y011738D01*
X044710Y011987D01*
X044850Y012325D01*
X044850Y012691D01*
X044710Y013029D01*
X044451Y013288D01*
X044113Y013428D01*
X043747Y013428D01*
X043409Y013288D01*
X043150Y013029D01*
X043010Y012691D01*
X043010Y012453D01*
X042775Y012688D01*
X040425Y012688D01*
X039635Y013478D01*
X040201Y013478D01*
X040276Y013403D01*
X040408Y013348D01*
X039765Y013348D01*
X039924Y013190D02*
X043310Y013190D01*
X043152Y013031D02*
X040082Y013031D01*
X040241Y012873D02*
X043085Y012873D01*
X043020Y012714D02*
X040399Y012714D01*
X040408Y013348D02*
X040552Y013348D01*
X043554Y013348D01*
X044306Y013348D02*
X048054Y013348D01*
X047810Y013190D02*
X044550Y013190D01*
X044708Y013031D02*
X047652Y013031D01*
X047585Y012873D02*
X044775Y012873D01*
X044840Y012714D02*
X047520Y012714D01*
X047510Y012556D02*
X044850Y012556D01*
X044850Y012397D02*
X047510Y012397D01*
X047546Y012239D02*
X044814Y012239D01*
X044749Y012080D02*
X047611Y012080D01*
X047715Y011922D02*
X044645Y011922D01*
X044486Y011763D02*
X047874Y011763D01*
X049145Y011922D02*
X050140Y011922D01*
X050140Y012008D02*
X050140Y011784D01*
X050456Y011468D01*
X050680Y011468D01*
X050680Y012008D01*
X050680Y011468D01*
X050904Y011468D01*
X051220Y011784D01*
X051220Y012008D01*
X050680Y012008D01*
X050680Y012008D01*
X050680Y012008D01*
X050140Y012008D01*
X050680Y012008D01*
X050680Y012008D01*
X051220Y012008D01*
X051220Y012232D01*
X050904Y012548D01*
X050680Y012548D01*
X050456Y012548D01*
X050140Y012232D01*
X050140Y012008D01*
X050140Y012080D02*
X049249Y012080D01*
X049314Y012239D02*
X050147Y012239D01*
X050305Y012397D02*
X049350Y012397D01*
X049350Y012556D02*
X053370Y012556D01*
X053370Y012474D02*
X053215Y012318D01*
X053108Y012318D01*
X052976Y012263D01*
X052875Y012162D01*
X052820Y012030D01*
X052820Y011887D01*
X052875Y011754D01*
X052976Y011653D01*
X053108Y011598D01*
X053252Y011598D01*
X053349Y011638D01*
X053349Y011343D01*
X053475Y011037D01*
X053709Y010803D01*
X054015Y010677D01*
X054345Y010677D01*
X054651Y010803D01*
X054885Y011037D01*
X055011Y011343D01*
X055011Y011673D01*
X054885Y011979D01*
X054752Y012112D01*
X054896Y012112D01*
X054920Y012136D01*
X054920Y012087D01*
X054975Y011954D01*
X055076Y011853D01*
X055208Y011798D01*
X055352Y011798D01*
X055484Y011853D01*
X055585Y011954D01*
X055640Y012087D01*
X055640Y012193D01*
X055675Y012228D01*
X057306Y012228D01*
X057260Y012182D01*
X057260Y011834D01*
X057506Y011588D01*
X057854Y011588D01*
X058100Y011834D01*
X058100Y012182D01*
X058054Y012228D01*
X066140Y012228D01*
X066140Y012008D01*
X066140Y011784D01*
X066456Y011468D01*
X066680Y011468D01*
X066680Y012008D01*
X066680Y011468D01*
X066904Y011468D01*
X067220Y011784D01*
X067220Y012008D01*
X066680Y012008D01*
X066680Y012008D01*
X066680Y012008D01*
X066140Y012008D01*
X066680Y012008D01*
X066680Y012008D01*
X067220Y012008D01*
X067220Y012228D01*
X069370Y012228D01*
X069370Y012206D01*
X069464Y012112D01*
X069608Y012112D01*
X069475Y011979D01*
X069349Y011673D01*
X069349Y011343D01*
X069475Y011037D01*
X069709Y010803D01*
X070015Y010677D01*
X070345Y010677D01*
X070651Y010803D01*
X070885Y011037D01*
X071011Y011343D01*
X071011Y011673D01*
X070885Y011979D01*
X070752Y012112D01*
X070896Y012112D01*
X070990Y012206D01*
X070990Y012811D01*
X070896Y012904D01*
X070509Y012904D01*
X068510Y014903D01*
X068435Y014978D01*
X070385Y014978D01*
X073260Y012103D01*
X073260Y011834D01*
X073506Y011588D01*
X073854Y011588D01*
X074100Y011834D01*
X074100Y012182D01*
X073854Y012428D01*
X073585Y012428D01*
X070575Y015438D01*
X053320Y015438D01*
X053340Y015487D01*
X053340Y015630D01*
X053305Y015714D01*
X074104Y015714D01*
X073922Y015532D01*
X073756Y015244D01*
X073670Y014924D01*
X073670Y014592D01*
X073756Y014272D01*
X073922Y013984D01*
X074156Y013750D01*
X074444Y013584D01*
X074764Y013498D01*
X075096Y013498D01*
X075416Y013584D01*
X075704Y013750D01*
X075938Y013984D01*
X075961Y014024D01*
X075961Y008992D01*
X075938Y009032D01*
X075704Y009266D01*
X075416Y009432D01*
X075096Y009518D01*
X074764Y009518D01*
X074444Y009432D01*
X074156Y009266D01*
X073922Y009032D01*
X073756Y008744D01*
X073670Y008424D01*
X073670Y008092D01*
X073756Y007772D01*
X073922Y007484D01*
X074118Y007288D01*
X045685Y007288D01*
X047024Y008627D01*
X047067Y008583D01*
X047138Y008532D01*
X047216Y008492D01*
X047300Y008465D01*
X047386Y008451D01*
X047421Y008451D01*
X047421Y009000D01*
X047439Y009000D01*
X047439Y009017D01*
X047987Y009017D01*
X047987Y009052D01*
X047973Y009139D01*
X047946Y009222D01*
X047907Y009300D01*
X047855Y009371D01*
X047793Y009433D01*
X047722Y009485D01*
X047644Y009524D01*
X047560Y009552D01*
X047474Y009565D01*
X047439Y009565D01*
X047439Y009017D01*
X047421Y009017D01*
X047421Y009565D01*
X047386Y009565D01*
X047300Y009552D01*
X047216Y009524D01*
X047160Y009496D01*
X047160Y009630D01*
X047178Y009638D01*
X047301Y009761D01*
X047367Y009921D01*
X047367Y010095D01*
X047312Y010228D01*
X047385Y010228D01*
X047500Y010113D01*
X047493Y010095D01*
X047493Y009921D01*
X047559Y009761D01*
X047682Y009638D01*
X047843Y009571D01*
X048017Y009571D01*
X048178Y009638D01*
X048301Y009761D01*
X048367Y009921D01*
X048367Y010095D01*
X048301Y010256D01*
X048178Y010379D01*
X048017Y010445D01*
X047843Y010445D01*
X047825Y010438D01*
X047710Y010553D01*
X047685Y010578D01*
X050575Y010578D01*
X050585Y010588D01*
X050854Y010588D01*
X051100Y010834D01*
X051100Y011182D01*
X050854Y011428D01*
X050506Y011428D01*
X050260Y011182D01*
X050260Y011038D01*
X044120Y011038D01*
X044140Y011129D02*
X050260Y011129D01*
X050366Y011288D02*
X049319Y011288D01*
X049390Y011446D02*
X053349Y011446D01*
X053349Y011605D02*
X053267Y011605D01*
X053093Y011605D02*
X051040Y011605D01*
X051199Y011763D02*
X052871Y011763D01*
X052820Y011922D02*
X051220Y011922D01*
X051220Y012080D02*
X052841Y012080D01*
X052951Y012239D02*
X051213Y012239D01*
X051055Y012397D02*
X053294Y012397D01*
X053370Y012474D02*
X053370Y012811D01*
X053464Y012904D01*
X054069Y012904D01*
X054163Y012811D01*
X054163Y012339D01*
X054197Y012339D01*
X054197Y012811D01*
X054291Y012904D01*
X054701Y012904D01*
X055000Y013203D01*
X055135Y013338D01*
X056285Y013338D01*
X056350Y013403D01*
X056350Y013978D01*
X040719Y013978D01*
X040785Y013912D01*
X040840Y013780D01*
X040840Y013637D01*
X040785Y013504D01*
X040684Y013403D01*
X040552Y013348D01*
X040786Y013507D02*
X056350Y013507D01*
X056350Y013665D02*
X040840Y013665D01*
X040822Y013824D02*
X056350Y013824D01*
X056295Y013348D02*
X048806Y013348D01*
X049050Y013190D02*
X054986Y013190D01*
X054828Y013031D02*
X049208Y013031D01*
X049275Y012873D02*
X053432Y012873D01*
X053370Y012714D02*
X049340Y012714D01*
X050680Y012548D02*
X050680Y012008D01*
X050680Y012008D01*
X050680Y012548D01*
X050680Y012397D02*
X050680Y012397D01*
X050680Y012239D02*
X050680Y012239D01*
X050680Y012080D02*
X050680Y012080D01*
X050680Y011922D02*
X050680Y011922D01*
X050680Y011763D02*
X050680Y011763D01*
X050680Y011605D02*
X050680Y011605D01*
X050320Y011605D02*
X049380Y011605D01*
X049284Y011763D02*
X050161Y011763D01*
X050994Y011288D02*
X053372Y011288D01*
X053437Y011129D02*
X051100Y011129D01*
X051100Y010971D02*
X053542Y010971D01*
X053701Y010812D02*
X051078Y010812D01*
X050919Y010654D02*
X057271Y010654D01*
X057140Y010784D02*
X057456Y010468D01*
X057680Y010468D01*
X057680Y011008D01*
X057680Y010468D01*
X057904Y010468D01*
X058220Y010784D01*
X058220Y011008D01*
X057680Y011008D01*
X057680Y011008D01*
X057680Y011008D01*
X057140Y011008D01*
X057140Y010784D01*
X057140Y010812D02*
X054659Y010812D01*
X054818Y010971D02*
X057140Y010971D01*
X057140Y011008D02*
X057680Y011008D01*
X057680Y011008D01*
X058220Y011008D01*
X058220Y011232D01*
X057904Y011548D01*
X057680Y011548D01*
X057456Y011548D01*
X057140Y011232D01*
X057140Y011008D01*
X057140Y011129D02*
X054923Y011129D01*
X054988Y011288D02*
X057196Y011288D01*
X057354Y011446D02*
X055011Y011446D01*
X055011Y011605D02*
X057490Y011605D01*
X057680Y011548D02*
X057680Y011008D01*
X057680Y011008D01*
X057680Y011548D01*
X057680Y011446D02*
X057680Y011446D01*
X057680Y011288D02*
X057680Y011288D01*
X057680Y011129D02*
X057680Y011129D01*
X057680Y010971D02*
X057680Y010971D01*
X057680Y010812D02*
X057680Y010812D01*
X057680Y010654D02*
X057680Y010654D01*
X057680Y010495D02*
X057680Y010495D01*
X057931Y010495D02*
X065842Y010495D01*
X066000Y010654D02*
X058089Y010654D01*
X058220Y010812D02*
X066159Y010812D01*
X066260Y010913D02*
X064585Y009238D01*
X048524Y009238D01*
X048452Y009268D01*
X048308Y009268D01*
X048176Y009213D01*
X048075Y009112D01*
X048020Y008980D01*
X048020Y008837D01*
X048075Y008704D01*
X048176Y008603D01*
X048308Y008548D01*
X048452Y008548D01*
X048584Y008603D01*
X048685Y008704D01*
X048716Y008778D01*
X064775Y008778D01*
X064910Y008913D01*
X066585Y010588D01*
X066854Y010588D01*
X067100Y010834D01*
X067100Y011182D01*
X066854Y011428D01*
X066506Y011428D01*
X066260Y011182D01*
X066260Y010913D01*
X066260Y010971D02*
X058220Y010971D01*
X058220Y011129D02*
X066260Y011129D01*
X066366Y011288D02*
X058164Y011288D01*
X058006Y011446D02*
X069349Y011446D01*
X069349Y011605D02*
X067040Y011605D01*
X067199Y011763D02*
X069386Y011763D01*
X069452Y011922D02*
X067220Y011922D01*
X067220Y012080D02*
X069577Y012080D01*
X070783Y012080D02*
X073260Y012080D01*
X073260Y011922D02*
X070908Y011922D01*
X070974Y011763D02*
X073331Y011763D01*
X073490Y011605D02*
X071011Y011605D01*
X071011Y011446D02*
X073354Y011446D01*
X073456Y011548D02*
X073140Y011232D01*
X073140Y011008D01*
X073140Y010784D01*
X073456Y010468D01*
X073680Y010468D01*
X073680Y011008D01*
X073680Y010468D01*
X073904Y010468D01*
X074220Y010784D01*
X074220Y011008D01*
X073680Y011008D01*
X073680Y011008D01*
X073680Y011008D01*
X073140Y011008D01*
X073680Y011008D01*
X073680Y011008D01*
X074220Y011008D01*
X074220Y011232D01*
X073904Y011548D01*
X073680Y011548D01*
X073456Y011548D01*
X073680Y011548D02*
X073680Y011008D01*
X073680Y011008D01*
X073680Y011548D01*
X073680Y011446D02*
X073680Y011446D01*
X073680Y011288D02*
X073680Y011288D01*
X073680Y011129D02*
X073680Y011129D01*
X073680Y010971D02*
X073680Y010971D01*
X073680Y010812D02*
X073680Y010812D01*
X073680Y010654D02*
X073680Y010654D01*
X073680Y010495D02*
X073680Y010495D01*
X073931Y010495D02*
X075961Y010495D01*
X075961Y010337D02*
X066334Y010337D01*
X066492Y010495D02*
X073429Y010495D01*
X073271Y010654D02*
X066919Y010654D01*
X067078Y010812D02*
X069701Y010812D01*
X069542Y010971D02*
X067100Y010971D01*
X067100Y011129D02*
X069437Y011129D01*
X069372Y011288D02*
X066994Y011288D01*
X066680Y011605D02*
X066680Y011605D01*
X066680Y011763D02*
X066680Y011763D01*
X066680Y011922D02*
X066680Y011922D01*
X066140Y011922D02*
X058100Y011922D01*
X058100Y012080D02*
X066140Y012080D01*
X066161Y011763D02*
X058029Y011763D01*
X057870Y011605D02*
X066320Y011605D01*
X070659Y010812D02*
X073140Y010812D01*
X073140Y010971D02*
X070818Y010971D01*
X070923Y011129D02*
X073140Y011129D01*
X073196Y011288D02*
X070988Y011288D01*
X073870Y011605D02*
X075961Y011605D01*
X075961Y011763D02*
X074029Y011763D01*
X074100Y011922D02*
X075961Y011922D01*
X075961Y012080D02*
X074100Y012080D01*
X074043Y012239D02*
X075961Y012239D01*
X075961Y012397D02*
X073885Y012397D01*
X073458Y012556D02*
X075961Y012556D01*
X075961Y012714D02*
X073299Y012714D01*
X073141Y012873D02*
X075961Y012873D01*
X075961Y013031D02*
X072982Y013031D01*
X072824Y013190D02*
X075961Y013190D01*
X075961Y013348D02*
X072665Y013348D01*
X072507Y013507D02*
X074732Y013507D01*
X075128Y013507D02*
X075961Y013507D01*
X075961Y013665D02*
X075557Y013665D01*
X075777Y013824D02*
X075961Y013824D01*
X075961Y013982D02*
X075936Y013982D01*
X074303Y013665D02*
X072348Y013665D01*
X072190Y013824D02*
X074083Y013824D01*
X073924Y013982D02*
X072031Y013982D01*
X071873Y014141D02*
X073832Y014141D01*
X073749Y014299D02*
X071714Y014299D01*
X071556Y014458D02*
X073706Y014458D01*
X073670Y014616D02*
X071397Y014616D01*
X071239Y014775D02*
X073670Y014775D01*
X073672Y014933D02*
X071080Y014933D01*
X070922Y015092D02*
X073715Y015092D01*
X073759Y015250D02*
X070763Y015250D01*
X070605Y015409D02*
X073851Y015409D01*
X073957Y015567D02*
X053340Y015567D01*
X054101Y012873D02*
X054259Y012873D01*
X054197Y012714D02*
X054163Y012714D01*
X054163Y012556D02*
X054197Y012556D01*
X054197Y012397D02*
X054163Y012397D01*
X054783Y012080D02*
X054923Y012080D01*
X054908Y011922D02*
X055007Y011922D01*
X054974Y011763D02*
X057331Y011763D01*
X057260Y011922D02*
X055553Y011922D01*
X055637Y012080D02*
X057260Y012080D01*
X057429Y010495D02*
X047768Y010495D01*
X048220Y010337D02*
X065683Y010337D01*
X065525Y010178D02*
X048333Y010178D01*
X048367Y010020D02*
X065366Y010020D01*
X065208Y009861D02*
X048342Y009861D01*
X048243Y009703D02*
X065049Y009703D01*
X064891Y009544D02*
X047583Y009544D01*
X047439Y009544D02*
X047421Y009544D01*
X047277Y009544D02*
X047160Y009544D01*
X047243Y009703D02*
X047617Y009703D01*
X047518Y009861D02*
X047342Y009861D01*
X047367Y010020D02*
X047493Y010020D01*
X047435Y010178D02*
X047333Y010178D01*
X047421Y009386D02*
X047439Y009386D01*
X047439Y009227D02*
X047421Y009227D01*
X047421Y009069D02*
X047439Y009069D01*
X047439Y009000D02*
X047987Y009000D01*
X047987Y008964D01*
X047973Y008878D01*
X047946Y008794D01*
X047907Y008716D01*
X047855Y008645D01*
X047793Y008583D01*
X047722Y008532D01*
X047644Y008492D01*
X047560Y008465D01*
X047474Y008451D01*
X047439Y008451D01*
X047439Y009000D01*
X047439Y008910D02*
X047421Y008910D01*
X047421Y008752D02*
X047439Y008752D01*
X047439Y008593D02*
X047421Y008593D01*
X047057Y008593D02*
X046990Y008593D01*
X046832Y008435D02*
X051294Y008435D01*
X051324Y008506D02*
X051260Y008352D01*
X051260Y007665D01*
X051324Y007510D01*
X051442Y007392D01*
X051596Y007328D01*
X051764Y007328D01*
X051918Y007392D01*
X052036Y007510D01*
X052100Y007665D01*
X052100Y008352D01*
X052036Y008506D01*
X051918Y008624D01*
X051764Y008688D01*
X051596Y008688D01*
X051442Y008624D01*
X051324Y008506D01*
X051411Y008593D02*
X048560Y008593D01*
X048705Y008752D02*
X073760Y008752D01*
X073715Y008593D02*
X056949Y008593D01*
X056918Y008624D02*
X056764Y008688D01*
X056596Y008688D01*
X056442Y008624D01*
X056324Y008506D01*
X056260Y008352D01*
X056260Y007665D01*
X056324Y007510D01*
X056442Y007392D01*
X056596Y007328D01*
X056764Y007328D01*
X056918Y007392D01*
X057036Y007510D01*
X057100Y007665D01*
X057100Y008352D01*
X057036Y008506D01*
X056918Y008624D01*
X057066Y008435D02*
X073673Y008435D01*
X073670Y008276D02*
X057100Y008276D01*
X057100Y008118D02*
X073670Y008118D01*
X073706Y007959D02*
X057100Y007959D01*
X057100Y007801D02*
X073748Y007801D01*
X073831Y007642D02*
X057091Y007642D01*
X057009Y007484D02*
X073923Y007484D01*
X074081Y007325D02*
X045722Y007325D01*
X045881Y007484D02*
X051351Y007484D01*
X051269Y007642D02*
X046039Y007642D01*
X046198Y007801D02*
X051260Y007801D01*
X051260Y007959D02*
X046356Y007959D01*
X046515Y008118D02*
X051260Y008118D01*
X051260Y008276D02*
X046673Y008276D01*
X047803Y008593D02*
X048200Y008593D01*
X048055Y008752D02*
X047925Y008752D01*
X047979Y008910D02*
X048020Y008910D01*
X047985Y009069D02*
X048057Y009069D01*
X047944Y009227D02*
X048209Y009227D01*
X047840Y009386D02*
X064732Y009386D01*
X065066Y009069D02*
X073959Y009069D01*
X073852Y008910D02*
X064907Y008910D01*
X065224Y009227D02*
X074117Y009227D01*
X074363Y009386D02*
X065383Y009386D01*
X065541Y009544D02*
X075961Y009544D01*
X075961Y009386D02*
X075497Y009386D01*
X075743Y009227D02*
X075961Y009227D01*
X075961Y009069D02*
X075901Y009069D01*
X075961Y009703D02*
X065700Y009703D01*
X065858Y009861D02*
X075961Y009861D01*
X075961Y010020D02*
X066017Y010020D01*
X066175Y010178D02*
X075961Y010178D01*
X075961Y010654D02*
X074089Y010654D01*
X074220Y010812D02*
X075961Y010812D01*
X075961Y010971D02*
X074220Y010971D01*
X074220Y011129D02*
X075961Y011129D01*
X075961Y011288D02*
X074164Y011288D01*
X074006Y011446D02*
X075961Y011446D01*
X073124Y012239D02*
X070990Y012239D01*
X070990Y012397D02*
X072966Y012397D01*
X072807Y012556D02*
X070990Y012556D01*
X070990Y012714D02*
X072649Y012714D01*
X072490Y012873D02*
X070928Y012873D01*
X070382Y013031D02*
X072332Y013031D01*
X072173Y013190D02*
X070224Y013190D01*
X070065Y013348D02*
X072015Y013348D01*
X071856Y013507D02*
X069907Y013507D01*
X069748Y013665D02*
X071698Y013665D01*
X071539Y013824D02*
X069590Y013824D01*
X069431Y013982D02*
X071381Y013982D01*
X071222Y014141D02*
X069273Y014141D01*
X069114Y014299D02*
X071064Y014299D01*
X070905Y014458D02*
X068956Y014458D01*
X068797Y014616D02*
X070747Y014616D01*
X070588Y014775D02*
X068639Y014775D01*
X068480Y014933D02*
X070430Y014933D01*
X043010Y012556D02*
X042908Y012556D01*
X028409Y010812D02*
X026220Y010812D01*
X026089Y010654D02*
X028250Y010654D01*
X051949Y008593D02*
X052411Y008593D01*
X052442Y008624D02*
X052324Y008506D01*
X052260Y008352D01*
X052260Y007665D01*
X052324Y007510D01*
X052442Y007392D01*
X052596Y007328D01*
X052764Y007328D01*
X052918Y007392D01*
X053036Y007510D01*
X053100Y007665D01*
X053100Y008352D01*
X053036Y008506D01*
X052918Y008624D01*
X052764Y008688D01*
X052596Y008688D01*
X052442Y008624D01*
X052294Y008435D02*
X052066Y008435D01*
X052100Y008276D02*
X052260Y008276D01*
X052260Y008118D02*
X052100Y008118D01*
X052100Y007959D02*
X052260Y007959D01*
X052260Y007801D02*
X052100Y007801D01*
X052091Y007642D02*
X052269Y007642D01*
X052351Y007484D02*
X052009Y007484D01*
X053009Y007484D02*
X053351Y007484D01*
X053324Y007510D02*
X053442Y007392D01*
X053596Y007328D01*
X053764Y007328D01*
X053918Y007392D01*
X054036Y007510D01*
X054100Y007665D01*
X054100Y008352D01*
X054036Y008506D01*
X053918Y008624D01*
X053764Y008688D01*
X053596Y008688D01*
X053442Y008624D01*
X053324Y008506D01*
X053260Y008352D01*
X053260Y007665D01*
X053324Y007510D01*
X053269Y007642D02*
X053091Y007642D01*
X053100Y007801D02*
X053260Y007801D01*
X053260Y007959D02*
X053100Y007959D01*
X053100Y008118D02*
X053260Y008118D01*
X053260Y008276D02*
X053100Y008276D01*
X053066Y008435D02*
X053294Y008435D01*
X053411Y008593D02*
X052949Y008593D01*
X053949Y008593D02*
X054411Y008593D01*
X054442Y008624D02*
X054324Y008506D01*
X054260Y008352D01*
X054260Y007665D01*
X054324Y007510D01*
X054442Y007392D01*
X054596Y007328D01*
X054764Y007328D01*
X054918Y007392D01*
X055036Y007510D01*
X055100Y007665D01*
X055100Y008352D01*
X055036Y008506D01*
X054918Y008624D01*
X054764Y008688D01*
X054596Y008688D01*
X054442Y008624D01*
X054294Y008435D02*
X054066Y008435D01*
X054100Y008276D02*
X054260Y008276D01*
X054260Y008118D02*
X054100Y008118D01*
X054100Y007959D02*
X054260Y007959D01*
X054260Y007801D02*
X054100Y007801D01*
X054091Y007642D02*
X054269Y007642D01*
X054351Y007484D02*
X054009Y007484D01*
X055009Y007484D02*
X055351Y007484D01*
X055324Y007510D02*
X055442Y007392D01*
X055596Y007328D01*
X055764Y007328D01*
X055918Y007392D01*
X056036Y007510D01*
X056100Y007665D01*
X056100Y008352D01*
X056036Y008506D01*
X055918Y008624D01*
X055764Y008688D01*
X055596Y008688D01*
X055442Y008624D01*
X055324Y008506D01*
X055260Y008352D01*
X055260Y007665D01*
X055324Y007510D01*
X055269Y007642D02*
X055091Y007642D01*
X055100Y007801D02*
X055260Y007801D01*
X055260Y007959D02*
X055100Y007959D01*
X055100Y008118D02*
X055260Y008118D01*
X055260Y008276D02*
X055100Y008276D01*
X055066Y008435D02*
X055294Y008435D01*
X055411Y008593D02*
X054949Y008593D01*
X055949Y008593D02*
X056411Y008593D01*
X056294Y008435D02*
X056066Y008435D01*
X056100Y008276D02*
X056260Y008276D01*
X056260Y008118D02*
X056100Y008118D01*
X056100Y007959D02*
X056260Y007959D01*
X056260Y007801D02*
X056100Y007801D01*
X056091Y007642D02*
X056269Y007642D01*
X056351Y007484D02*
X056009Y007484D01*
D16*
X048480Y009008D02*
X048380Y008908D01*
X048480Y009008D02*
X064680Y009008D01*
X066680Y011008D01*
X066630Y012008D02*
X065630Y011008D01*
X057680Y011008D01*
X057330Y010658D01*
X051230Y010658D01*
X051230Y011458D01*
X050680Y012008D01*
X049030Y011508D02*
X043630Y011508D01*
X042680Y012458D01*
X040330Y012458D01*
X039430Y013358D01*
X036780Y013358D01*
X036780Y012858D01*
X036980Y012658D01*
X037580Y012658D01*
X037730Y012508D01*
X037767Y012508D01*
X038080Y013008D02*
X038580Y012508D01*
X038593Y012508D01*
X038080Y013008D02*
X037130Y013008D01*
X036930Y011808D02*
X035280Y013458D01*
X021130Y013458D01*
X021080Y012508D02*
X021767Y012508D01*
X022593Y012508D02*
X022630Y012508D01*
X024030Y011108D01*
X024980Y011108D01*
X025330Y010658D02*
X025680Y011008D01*
X027480Y011308D02*
X034380Y011308D01*
X034530Y011458D01*
X037030Y011458D01*
X037830Y010658D01*
X039030Y010658D01*
X039830Y011458D01*
X043330Y011458D01*
X043630Y011158D01*
X043780Y011158D01*
X042730Y010808D02*
X050480Y010808D01*
X050680Y011008D01*
X051230Y010658D02*
X051230Y009258D01*
X047680Y009258D01*
X047430Y009008D01*
X046930Y008858D02*
X046930Y010008D01*
X047480Y010458D02*
X047930Y010008D01*
X045930Y010008D02*
X045930Y009558D01*
X039030Y009558D01*
X038980Y009608D01*
X038030Y009958D02*
X037580Y009508D01*
X035230Y009508D01*
X034380Y010358D01*
X032930Y010358D01*
X033680Y010008D02*
X031930Y010008D01*
X033680Y010008D02*
X033880Y009808D01*
X034780Y009458D02*
X035230Y009008D01*
X044430Y009008D01*
X044980Y008558D02*
X045430Y009008D01*
X045930Y008858D02*
X045930Y009558D01*
X046430Y009008D02*
X045380Y007958D01*
X040580Y007958D01*
X039980Y008308D02*
X045380Y008308D01*
X045930Y008858D01*
X046930Y008858D02*
X045380Y007308D01*
X028780Y007308D01*
X028680Y007408D01*
X028980Y008558D02*
X028230Y008558D01*
X028080Y008708D01*
X017880Y008708D01*
X017180Y008008D01*
X016730Y007608D02*
X016730Y009058D01*
X021730Y009058D01*
X019180Y008008D02*
X018480Y007308D01*
X017030Y007308D01*
X016730Y007608D01*
X028430Y009008D02*
X028880Y009458D01*
X034780Y009458D01*
X035230Y009858D02*
X037430Y009858D01*
X038030Y009958D02*
X041880Y009958D01*
X042030Y010108D01*
X039180Y010458D02*
X038930Y010208D01*
X035480Y010208D01*
X034680Y011008D01*
X034180Y010908D02*
X035230Y009858D01*
X032580Y009008D02*
X031430Y009008D01*
X029430Y009008D02*
X028980Y008558D01*
X034130Y008558D01*
X034680Y008008D01*
X034730Y008008D01*
X035430Y008708D01*
X039830Y008708D01*
X039980Y008558D01*
X044980Y008558D01*
X039980Y008308D02*
X039680Y008008D01*
X039180Y010458D02*
X047480Y010458D01*
X053180Y011958D02*
X053730Y012508D01*
X053767Y012508D01*
X054593Y012508D02*
X054630Y012508D01*
X055230Y013108D01*
X056380Y013108D01*
X056580Y013308D01*
X056580Y014208D01*
X030580Y014208D01*
X027230Y014558D02*
X041430Y014558D01*
X041530Y014458D01*
X056830Y014458D01*
X052980Y015558D02*
X008830Y015558D01*
X005780Y012508D01*
X005767Y012508D01*
X006593Y012508D02*
X006630Y012508D01*
X007030Y012908D01*
X025880Y012908D01*
X027480Y011308D01*
X028330Y010408D02*
X028830Y010908D01*
X034180Y010908D01*
X028330Y010408D02*
X003280Y010408D01*
X002680Y011008D01*
X002680Y012008D02*
X004030Y010658D01*
X009330Y010658D01*
X009680Y011008D01*
X009730Y011008D01*
X010730Y012008D01*
X018680Y012008D01*
X020030Y010658D01*
X025330Y010658D01*
X026080Y013708D02*
X040480Y013708D01*
X041680Y014808D02*
X068280Y014808D01*
X070580Y012508D01*
X070593Y012508D01*
X069767Y012508D02*
X069730Y012508D01*
X069680Y012458D01*
X055580Y012458D01*
X055280Y012158D01*
X066630Y012008D02*
X066680Y012008D01*
X068030Y010658D01*
X073330Y010658D01*
X073680Y011008D01*
X073680Y012008D02*
X070480Y015208D01*
X024680Y015208D01*
X025980Y013808D02*
X026080Y013708D01*
D17*
X025980Y013808D03*
X027230Y014558D03*
X024680Y015208D03*
X030580Y014208D03*
X037130Y013008D03*
X040480Y013708D03*
X041680Y014808D03*
X052980Y015558D03*
X056830Y014458D03*
X055280Y012158D03*
X053180Y011958D03*
X049030Y011508D03*
X043780Y011158D03*
X042730Y010808D03*
X042030Y010108D03*
X038980Y009608D03*
X037430Y009858D03*
X035480Y010208D03*
X033880Y009808D03*
X035230Y009508D03*
X032580Y009008D03*
X032930Y010358D03*
X036930Y011808D03*
X024980Y011108D03*
X021080Y012508D03*
X021130Y013458D03*
X021730Y009058D03*
X028680Y007408D03*
X040580Y007958D03*
X048380Y008908D03*
D18*
X074930Y008258D03*
X074930Y014758D03*
X001430Y014758D03*
X001430Y008258D03*
M02*
