%
M48
M72
T01C0.0240
T02C0.0320
T03C0.0354
T04C0.1102
T05C0.1200
T06C0.1280
%
T01
X28680Y7408
X32580Y9008
X35230Y9508
X33880Y9808
X32930Y10358
X35480Y10208
X37430Y9858
X38980Y9608
X42030Y10108
X42730Y10808
X43780Y11158
X49030Y11508
X53180Y11958
X55280Y12158
X56830Y14458
X52980Y15558
X41680Y14808
X40480Y13708
X37130Y13008
X36930Y11808
X25980Y13808
X27230Y14558
X24680Y15208
X30580Y14208
X21130Y13458
X21080Y12508
X24980Y11108
X21730Y9058
X40580Y7958
X48380Y8908
T02
X51680Y8008
X52680Y8008
X53680Y8008
X54680Y8008
X55680Y8008
X56680Y8008
X57680Y11008
X57680Y12008
X50680Y12008
X50680Y11008
X41680Y11008
X41680Y12008
X34680Y12008
X34680Y11008
X25680Y11008
X25680Y12008
X18680Y12008
X18680Y11008
X9680Y11008
X9680Y12008
X2680Y12008
X2680Y11008
X17180Y8008
X18180Y8008
X19180Y8008
X20180Y8008
X21180Y8008
X22180Y8008
X34680Y8008
X35680Y8008
X36680Y8008
X37680Y8008
X38680Y8008
X39680Y8008
X66680Y11008
X66680Y12008
X73680Y12008
X73680Y11008
T03
X47930Y10008
X46930Y10008
X45930Y10008
X44930Y10008
X44430Y9008
X45430Y9008
X46430Y9008
X47430Y9008
X31930Y10008
X30930Y10008
X29930Y10008
X28930Y10008
X28430Y9008
X29430Y9008
X30430Y9008
X31430Y9008
T04
X38180Y11508
X54180Y11508
X70180Y11508
X22180Y11508
X6180Y11508
T05
X1430Y8258
X1430Y14758
X74930Y14758
X74930Y8258
T06
X48430Y12508
X43930Y12508
X32430Y12508
X27930Y12508
M30
