G75*
%MOIN*%
%OFA0B0*%
%FSLAX24Y24*%
%IPPOS*%
%LPD*%
%AMOC8*
5,1,8,0,0,1.08239X$1,22.5*
%
%ADD10C,0.0000*%
%ADD11C,0.0050*%
%ADD12C,0.0120*%
%ADD13C,0.0080*%
%ADD14C,0.0060*%
D10*
X000180Y007008D02*
X000180Y015994D01*
X076241Y015994D01*
X076241Y007008D01*
X000180Y007008D01*
X005629Y011508D02*
X005631Y011555D01*
X005637Y011601D01*
X005647Y011647D01*
X005660Y011692D01*
X005678Y011735D01*
X005699Y011777D01*
X005723Y011817D01*
X005751Y011854D01*
X005782Y011889D01*
X005816Y011922D01*
X005852Y011951D01*
X005891Y011977D01*
X005932Y012000D01*
X005975Y012019D01*
X006019Y012035D01*
X006064Y012047D01*
X006110Y012055D01*
X006157Y012059D01*
X006203Y012059D01*
X006250Y012055D01*
X006296Y012047D01*
X006341Y012035D01*
X006385Y012019D01*
X006428Y012000D01*
X006469Y011977D01*
X006508Y011951D01*
X006544Y011922D01*
X006578Y011889D01*
X006609Y011854D01*
X006637Y011817D01*
X006661Y011777D01*
X006682Y011735D01*
X006700Y011692D01*
X006713Y011647D01*
X006723Y011601D01*
X006729Y011555D01*
X006731Y011508D01*
X006729Y011461D01*
X006723Y011415D01*
X006713Y011369D01*
X006700Y011324D01*
X006682Y011281D01*
X006661Y011239D01*
X006637Y011199D01*
X006609Y011162D01*
X006578Y011127D01*
X006544Y011094D01*
X006508Y011065D01*
X006469Y011039D01*
X006428Y011016D01*
X006385Y010997D01*
X006341Y010981D01*
X006296Y010969D01*
X006250Y010961D01*
X006203Y010957D01*
X006157Y010957D01*
X006110Y010961D01*
X006064Y010969D01*
X006019Y010981D01*
X005975Y010997D01*
X005932Y011016D01*
X005891Y011039D01*
X005852Y011065D01*
X005816Y011094D01*
X005782Y011127D01*
X005751Y011162D01*
X005723Y011199D01*
X005699Y011239D01*
X005678Y011281D01*
X005660Y011324D01*
X005647Y011369D01*
X005637Y011415D01*
X005631Y011461D01*
X005629Y011508D01*
X021629Y011508D02*
X021631Y011555D01*
X021637Y011601D01*
X021647Y011647D01*
X021660Y011692D01*
X021678Y011735D01*
X021699Y011777D01*
X021723Y011817D01*
X021751Y011854D01*
X021782Y011889D01*
X021816Y011922D01*
X021852Y011951D01*
X021891Y011977D01*
X021932Y012000D01*
X021975Y012019D01*
X022019Y012035D01*
X022064Y012047D01*
X022110Y012055D01*
X022157Y012059D01*
X022203Y012059D01*
X022250Y012055D01*
X022296Y012047D01*
X022341Y012035D01*
X022385Y012019D01*
X022428Y012000D01*
X022469Y011977D01*
X022508Y011951D01*
X022544Y011922D01*
X022578Y011889D01*
X022609Y011854D01*
X022637Y011817D01*
X022661Y011777D01*
X022682Y011735D01*
X022700Y011692D01*
X022713Y011647D01*
X022723Y011601D01*
X022729Y011555D01*
X022731Y011508D01*
X022729Y011461D01*
X022723Y011415D01*
X022713Y011369D01*
X022700Y011324D01*
X022682Y011281D01*
X022661Y011239D01*
X022637Y011199D01*
X022609Y011162D01*
X022578Y011127D01*
X022544Y011094D01*
X022508Y011065D01*
X022469Y011039D01*
X022428Y011016D01*
X022385Y010997D01*
X022341Y010981D01*
X022296Y010969D01*
X022250Y010961D01*
X022203Y010957D01*
X022157Y010957D01*
X022110Y010961D01*
X022064Y010969D01*
X022019Y010981D01*
X021975Y010997D01*
X021932Y011016D01*
X021891Y011039D01*
X021852Y011065D01*
X021816Y011094D01*
X021782Y011127D01*
X021751Y011162D01*
X021723Y011199D01*
X021699Y011239D01*
X021678Y011281D01*
X021660Y011324D01*
X021647Y011369D01*
X021637Y011415D01*
X021631Y011461D01*
X021629Y011508D01*
X027290Y012508D02*
X027292Y012558D01*
X027298Y012608D01*
X027308Y012657D01*
X027321Y012706D01*
X027339Y012753D01*
X027360Y012799D01*
X027384Y012842D01*
X027412Y012884D01*
X027443Y012924D01*
X027477Y012961D01*
X027514Y012995D01*
X027554Y013026D01*
X027596Y013054D01*
X027639Y013078D01*
X027685Y013099D01*
X027732Y013117D01*
X027781Y013130D01*
X027830Y013140D01*
X027880Y013146D01*
X027930Y013148D01*
X027980Y013146D01*
X028030Y013140D01*
X028079Y013130D01*
X028128Y013117D01*
X028175Y013099D01*
X028221Y013078D01*
X028264Y013054D01*
X028306Y013026D01*
X028346Y012995D01*
X028383Y012961D01*
X028417Y012924D01*
X028448Y012884D01*
X028476Y012842D01*
X028500Y012799D01*
X028521Y012753D01*
X028539Y012706D01*
X028552Y012657D01*
X028562Y012608D01*
X028568Y012558D01*
X028570Y012508D01*
X028568Y012458D01*
X028562Y012408D01*
X028552Y012359D01*
X028539Y012310D01*
X028521Y012263D01*
X028500Y012217D01*
X028476Y012174D01*
X028448Y012132D01*
X028417Y012092D01*
X028383Y012055D01*
X028346Y012021D01*
X028306Y011990D01*
X028264Y011962D01*
X028221Y011938D01*
X028175Y011917D01*
X028128Y011899D01*
X028079Y011886D01*
X028030Y011876D01*
X027980Y011870D01*
X027930Y011868D01*
X027880Y011870D01*
X027830Y011876D01*
X027781Y011886D01*
X027732Y011899D01*
X027685Y011917D01*
X027639Y011938D01*
X027596Y011962D01*
X027554Y011990D01*
X027514Y012021D01*
X027477Y012055D01*
X027443Y012092D01*
X027412Y012132D01*
X027384Y012174D01*
X027360Y012217D01*
X027339Y012263D01*
X027321Y012310D01*
X027308Y012359D01*
X027298Y012408D01*
X027292Y012458D01*
X027290Y012508D01*
X031790Y012508D02*
X031792Y012558D01*
X031798Y012608D01*
X031808Y012657D01*
X031821Y012706D01*
X031839Y012753D01*
X031860Y012799D01*
X031884Y012842D01*
X031912Y012884D01*
X031943Y012924D01*
X031977Y012961D01*
X032014Y012995D01*
X032054Y013026D01*
X032096Y013054D01*
X032139Y013078D01*
X032185Y013099D01*
X032232Y013117D01*
X032281Y013130D01*
X032330Y013140D01*
X032380Y013146D01*
X032430Y013148D01*
X032480Y013146D01*
X032530Y013140D01*
X032579Y013130D01*
X032628Y013117D01*
X032675Y013099D01*
X032721Y013078D01*
X032764Y013054D01*
X032806Y013026D01*
X032846Y012995D01*
X032883Y012961D01*
X032917Y012924D01*
X032948Y012884D01*
X032976Y012842D01*
X033000Y012799D01*
X033021Y012753D01*
X033039Y012706D01*
X033052Y012657D01*
X033062Y012608D01*
X033068Y012558D01*
X033070Y012508D01*
X033068Y012458D01*
X033062Y012408D01*
X033052Y012359D01*
X033039Y012310D01*
X033021Y012263D01*
X033000Y012217D01*
X032976Y012174D01*
X032948Y012132D01*
X032917Y012092D01*
X032883Y012055D01*
X032846Y012021D01*
X032806Y011990D01*
X032764Y011962D01*
X032721Y011938D01*
X032675Y011917D01*
X032628Y011899D01*
X032579Y011886D01*
X032530Y011876D01*
X032480Y011870D01*
X032430Y011868D01*
X032380Y011870D01*
X032330Y011876D01*
X032281Y011886D01*
X032232Y011899D01*
X032185Y011917D01*
X032139Y011938D01*
X032096Y011962D01*
X032054Y011990D01*
X032014Y012021D01*
X031977Y012055D01*
X031943Y012092D01*
X031912Y012132D01*
X031884Y012174D01*
X031860Y012217D01*
X031839Y012263D01*
X031821Y012310D01*
X031808Y012359D01*
X031798Y012408D01*
X031792Y012458D01*
X031790Y012508D01*
X037629Y011508D02*
X037631Y011555D01*
X037637Y011601D01*
X037647Y011647D01*
X037660Y011692D01*
X037678Y011735D01*
X037699Y011777D01*
X037723Y011817D01*
X037751Y011854D01*
X037782Y011889D01*
X037816Y011922D01*
X037852Y011951D01*
X037891Y011977D01*
X037932Y012000D01*
X037975Y012019D01*
X038019Y012035D01*
X038064Y012047D01*
X038110Y012055D01*
X038157Y012059D01*
X038203Y012059D01*
X038250Y012055D01*
X038296Y012047D01*
X038341Y012035D01*
X038385Y012019D01*
X038428Y012000D01*
X038469Y011977D01*
X038508Y011951D01*
X038544Y011922D01*
X038578Y011889D01*
X038609Y011854D01*
X038637Y011817D01*
X038661Y011777D01*
X038682Y011735D01*
X038700Y011692D01*
X038713Y011647D01*
X038723Y011601D01*
X038729Y011555D01*
X038731Y011508D01*
X038729Y011461D01*
X038723Y011415D01*
X038713Y011369D01*
X038700Y011324D01*
X038682Y011281D01*
X038661Y011239D01*
X038637Y011199D01*
X038609Y011162D01*
X038578Y011127D01*
X038544Y011094D01*
X038508Y011065D01*
X038469Y011039D01*
X038428Y011016D01*
X038385Y010997D01*
X038341Y010981D01*
X038296Y010969D01*
X038250Y010961D01*
X038203Y010957D01*
X038157Y010957D01*
X038110Y010961D01*
X038064Y010969D01*
X038019Y010981D01*
X037975Y010997D01*
X037932Y011016D01*
X037891Y011039D01*
X037852Y011065D01*
X037816Y011094D01*
X037782Y011127D01*
X037751Y011162D01*
X037723Y011199D01*
X037699Y011239D01*
X037678Y011281D01*
X037660Y011324D01*
X037647Y011369D01*
X037637Y011415D01*
X037631Y011461D01*
X037629Y011508D01*
X043290Y012508D02*
X043292Y012558D01*
X043298Y012608D01*
X043308Y012657D01*
X043321Y012706D01*
X043339Y012753D01*
X043360Y012799D01*
X043384Y012842D01*
X043412Y012884D01*
X043443Y012924D01*
X043477Y012961D01*
X043514Y012995D01*
X043554Y013026D01*
X043596Y013054D01*
X043639Y013078D01*
X043685Y013099D01*
X043732Y013117D01*
X043781Y013130D01*
X043830Y013140D01*
X043880Y013146D01*
X043930Y013148D01*
X043980Y013146D01*
X044030Y013140D01*
X044079Y013130D01*
X044128Y013117D01*
X044175Y013099D01*
X044221Y013078D01*
X044264Y013054D01*
X044306Y013026D01*
X044346Y012995D01*
X044383Y012961D01*
X044417Y012924D01*
X044448Y012884D01*
X044476Y012842D01*
X044500Y012799D01*
X044521Y012753D01*
X044539Y012706D01*
X044552Y012657D01*
X044562Y012608D01*
X044568Y012558D01*
X044570Y012508D01*
X044568Y012458D01*
X044562Y012408D01*
X044552Y012359D01*
X044539Y012310D01*
X044521Y012263D01*
X044500Y012217D01*
X044476Y012174D01*
X044448Y012132D01*
X044417Y012092D01*
X044383Y012055D01*
X044346Y012021D01*
X044306Y011990D01*
X044264Y011962D01*
X044221Y011938D01*
X044175Y011917D01*
X044128Y011899D01*
X044079Y011886D01*
X044030Y011876D01*
X043980Y011870D01*
X043930Y011868D01*
X043880Y011870D01*
X043830Y011876D01*
X043781Y011886D01*
X043732Y011899D01*
X043685Y011917D01*
X043639Y011938D01*
X043596Y011962D01*
X043554Y011990D01*
X043514Y012021D01*
X043477Y012055D01*
X043443Y012092D01*
X043412Y012132D01*
X043384Y012174D01*
X043360Y012217D01*
X043339Y012263D01*
X043321Y012310D01*
X043308Y012359D01*
X043298Y012408D01*
X043292Y012458D01*
X043290Y012508D01*
X047790Y012508D02*
X047792Y012558D01*
X047798Y012608D01*
X047808Y012657D01*
X047821Y012706D01*
X047839Y012753D01*
X047860Y012799D01*
X047884Y012842D01*
X047912Y012884D01*
X047943Y012924D01*
X047977Y012961D01*
X048014Y012995D01*
X048054Y013026D01*
X048096Y013054D01*
X048139Y013078D01*
X048185Y013099D01*
X048232Y013117D01*
X048281Y013130D01*
X048330Y013140D01*
X048380Y013146D01*
X048430Y013148D01*
X048480Y013146D01*
X048530Y013140D01*
X048579Y013130D01*
X048628Y013117D01*
X048675Y013099D01*
X048721Y013078D01*
X048764Y013054D01*
X048806Y013026D01*
X048846Y012995D01*
X048883Y012961D01*
X048917Y012924D01*
X048948Y012884D01*
X048976Y012842D01*
X049000Y012799D01*
X049021Y012753D01*
X049039Y012706D01*
X049052Y012657D01*
X049062Y012608D01*
X049068Y012558D01*
X049070Y012508D01*
X049068Y012458D01*
X049062Y012408D01*
X049052Y012359D01*
X049039Y012310D01*
X049021Y012263D01*
X049000Y012217D01*
X048976Y012174D01*
X048948Y012132D01*
X048917Y012092D01*
X048883Y012055D01*
X048846Y012021D01*
X048806Y011990D01*
X048764Y011962D01*
X048721Y011938D01*
X048675Y011917D01*
X048628Y011899D01*
X048579Y011886D01*
X048530Y011876D01*
X048480Y011870D01*
X048430Y011868D01*
X048380Y011870D01*
X048330Y011876D01*
X048281Y011886D01*
X048232Y011899D01*
X048185Y011917D01*
X048139Y011938D01*
X048096Y011962D01*
X048054Y011990D01*
X048014Y012021D01*
X047977Y012055D01*
X047943Y012092D01*
X047912Y012132D01*
X047884Y012174D01*
X047860Y012217D01*
X047839Y012263D01*
X047821Y012310D01*
X047808Y012359D01*
X047798Y012408D01*
X047792Y012458D01*
X047790Y012508D01*
X053629Y011508D02*
X053631Y011555D01*
X053637Y011601D01*
X053647Y011647D01*
X053660Y011692D01*
X053678Y011735D01*
X053699Y011777D01*
X053723Y011817D01*
X053751Y011854D01*
X053782Y011889D01*
X053816Y011922D01*
X053852Y011951D01*
X053891Y011977D01*
X053932Y012000D01*
X053975Y012019D01*
X054019Y012035D01*
X054064Y012047D01*
X054110Y012055D01*
X054157Y012059D01*
X054203Y012059D01*
X054250Y012055D01*
X054296Y012047D01*
X054341Y012035D01*
X054385Y012019D01*
X054428Y012000D01*
X054469Y011977D01*
X054508Y011951D01*
X054544Y011922D01*
X054578Y011889D01*
X054609Y011854D01*
X054637Y011817D01*
X054661Y011777D01*
X054682Y011735D01*
X054700Y011692D01*
X054713Y011647D01*
X054723Y011601D01*
X054729Y011555D01*
X054731Y011508D01*
X054729Y011461D01*
X054723Y011415D01*
X054713Y011369D01*
X054700Y011324D01*
X054682Y011281D01*
X054661Y011239D01*
X054637Y011199D01*
X054609Y011162D01*
X054578Y011127D01*
X054544Y011094D01*
X054508Y011065D01*
X054469Y011039D01*
X054428Y011016D01*
X054385Y010997D01*
X054341Y010981D01*
X054296Y010969D01*
X054250Y010961D01*
X054203Y010957D01*
X054157Y010957D01*
X054110Y010961D01*
X054064Y010969D01*
X054019Y010981D01*
X053975Y010997D01*
X053932Y011016D01*
X053891Y011039D01*
X053852Y011065D01*
X053816Y011094D01*
X053782Y011127D01*
X053751Y011162D01*
X053723Y011199D01*
X053699Y011239D01*
X053678Y011281D01*
X053660Y011324D01*
X053647Y011369D01*
X053637Y011415D01*
X053631Y011461D01*
X053629Y011508D01*
X069629Y011508D02*
X069631Y011555D01*
X069637Y011601D01*
X069647Y011647D01*
X069660Y011692D01*
X069678Y011735D01*
X069699Y011777D01*
X069723Y011817D01*
X069751Y011854D01*
X069782Y011889D01*
X069816Y011922D01*
X069852Y011951D01*
X069891Y011977D01*
X069932Y012000D01*
X069975Y012019D01*
X070019Y012035D01*
X070064Y012047D01*
X070110Y012055D01*
X070157Y012059D01*
X070203Y012059D01*
X070250Y012055D01*
X070296Y012047D01*
X070341Y012035D01*
X070385Y012019D01*
X070428Y012000D01*
X070469Y011977D01*
X070508Y011951D01*
X070544Y011922D01*
X070578Y011889D01*
X070609Y011854D01*
X070637Y011817D01*
X070661Y011777D01*
X070682Y011735D01*
X070700Y011692D01*
X070713Y011647D01*
X070723Y011601D01*
X070729Y011555D01*
X070731Y011508D01*
X070729Y011461D01*
X070723Y011415D01*
X070713Y011369D01*
X070700Y011324D01*
X070682Y011281D01*
X070661Y011239D01*
X070637Y011199D01*
X070609Y011162D01*
X070578Y011127D01*
X070544Y011094D01*
X070508Y011065D01*
X070469Y011039D01*
X070428Y011016D01*
X070385Y010997D01*
X070341Y010981D01*
X070296Y010969D01*
X070250Y010961D01*
X070203Y010957D01*
X070157Y010957D01*
X070110Y010961D01*
X070064Y010969D01*
X070019Y010981D01*
X069975Y010997D01*
X069932Y011016D01*
X069891Y011039D01*
X069852Y011065D01*
X069816Y011094D01*
X069782Y011127D01*
X069751Y011162D01*
X069723Y011199D01*
X069699Y011239D01*
X069678Y011281D01*
X069660Y011324D01*
X069647Y011369D01*
X069637Y011415D01*
X069631Y011461D01*
X069629Y011508D01*
D11*
X055636Y008908D02*
X055636Y008758D01*
X055561Y008683D01*
X055336Y008683D01*
X055336Y008533D02*
X055336Y008984D01*
X055561Y008984D01*
X055636Y008908D01*
X055176Y008908D02*
X054876Y008608D01*
X054951Y008533D01*
X055101Y008533D01*
X055176Y008608D01*
X055176Y008908D01*
X055101Y008984D01*
X054951Y008984D01*
X054876Y008908D01*
X054876Y008608D01*
X054716Y008608D02*
X054641Y008533D01*
X054490Y008533D01*
X054415Y008608D01*
X054415Y008758D02*
X054566Y008833D01*
X054641Y008833D01*
X054716Y008758D01*
X054716Y008608D01*
X054415Y008758D02*
X054415Y008984D01*
X054716Y008984D01*
X054105Y008984D02*
X053955Y008833D01*
X054105Y008984D02*
X054105Y008533D01*
X053955Y008533D02*
X054255Y008533D01*
X055486Y008683D02*
X055636Y008533D01*
X052426Y008608D02*
X052351Y008533D01*
X052201Y008533D01*
X052126Y008608D01*
X051966Y008533D02*
X051966Y008984D01*
X052126Y008908D02*
X052201Y008984D01*
X052351Y008984D01*
X052426Y008908D01*
X052426Y008833D01*
X052351Y008758D01*
X052426Y008683D01*
X052426Y008608D01*
X052351Y008758D02*
X052276Y008758D01*
X051966Y008533D02*
X051665Y008984D01*
X051665Y008533D01*
X051505Y008533D02*
X051355Y008683D01*
X051430Y008683D02*
X051205Y008683D01*
X051205Y008533D02*
X051205Y008984D01*
X051430Y008984D01*
X051505Y008908D01*
X051505Y008758D01*
X051430Y008683D01*
X050918Y008173D02*
X050918Y007833D01*
X050805Y007833D02*
X051032Y007833D01*
X050805Y008060D02*
X050918Y008173D01*
X038176Y008533D02*
X037951Y008758D01*
X037876Y008683D02*
X038176Y008984D01*
X037876Y008984D02*
X037876Y008533D01*
X037716Y008608D02*
X037641Y008533D01*
X037490Y008533D01*
X037415Y008608D01*
X037716Y008908D01*
X037716Y008608D01*
X037415Y008608D02*
X037415Y008908D01*
X037490Y008984D01*
X037641Y008984D01*
X037716Y008908D01*
X037105Y008984D02*
X036955Y008833D01*
X037105Y008984D02*
X037105Y008533D01*
X036955Y008533D02*
X037255Y008533D01*
X035426Y008533D02*
X035126Y008533D01*
X035426Y008833D01*
X035426Y008908D01*
X035351Y008984D01*
X035201Y008984D01*
X035126Y008908D01*
X034966Y008984D02*
X034966Y008533D01*
X034665Y008984D01*
X034665Y008533D01*
X034505Y008533D02*
X034355Y008683D01*
X034430Y008683D02*
X034205Y008683D01*
X034205Y008533D02*
X034205Y008984D01*
X034430Y008984D01*
X034505Y008908D01*
X034505Y008758D01*
X034430Y008683D01*
X033918Y008173D02*
X033918Y007833D01*
X033805Y007833D02*
X034032Y007833D01*
X033805Y008060D02*
X033918Y008173D01*
X021136Y008533D02*
X020986Y008683D01*
X021061Y008683D02*
X020836Y008683D01*
X020836Y008533D02*
X020836Y008984D01*
X021061Y008984D01*
X021136Y008908D01*
X021136Y008758D01*
X021061Y008683D01*
X020676Y008608D02*
X020601Y008533D01*
X020451Y008533D01*
X020376Y008608D01*
X020676Y008908D01*
X020676Y008608D01*
X020376Y008608D02*
X020376Y008908D01*
X020451Y008984D01*
X020601Y008984D01*
X020676Y008908D01*
X020216Y008908D02*
X020216Y008833D01*
X019915Y008533D01*
X020216Y008533D01*
X019755Y008533D02*
X019455Y008533D01*
X019755Y008833D01*
X019755Y008908D01*
X019680Y008984D01*
X019530Y008984D01*
X019455Y008908D01*
X019915Y008908D02*
X019990Y008984D01*
X020141Y008984D01*
X020216Y008908D01*
X017926Y008533D02*
X017626Y008533D01*
X017776Y008533D02*
X017776Y008984D01*
X017626Y008833D01*
X017466Y008984D02*
X017466Y008533D01*
X017165Y008984D01*
X017165Y008533D01*
X017005Y008533D02*
X016855Y008683D01*
X016930Y008683D02*
X016705Y008683D01*
X016705Y008533D02*
X016705Y008984D01*
X016930Y008984D01*
X017005Y008908D01*
X017005Y008758D01*
X016930Y008683D01*
X016418Y008173D02*
X016418Y007833D01*
X016305Y007833D02*
X016532Y007833D01*
X016305Y008060D02*
X016418Y008173D01*
X066705Y008084D02*
X066705Y007533D01*
X067257Y007533D02*
X067441Y007533D01*
X067349Y007533D02*
X067349Y007900D01*
X067257Y007900D01*
X067349Y008084D02*
X067349Y008175D01*
X067072Y008084D02*
X066705Y008084D01*
X066705Y007808D02*
X066888Y007808D01*
X067626Y007900D02*
X067809Y007533D01*
X067993Y007900D01*
X068178Y007808D02*
X068270Y007900D01*
X068453Y007900D01*
X068545Y007808D01*
X068545Y007717D01*
X068178Y007717D01*
X068178Y007808D02*
X068178Y007625D01*
X068270Y007533D01*
X068453Y007533D01*
X069283Y007533D02*
X069558Y007533D01*
X069650Y007625D01*
X069650Y007808D01*
X069558Y007900D01*
X069283Y007900D01*
X069283Y007350D01*
X069836Y007625D02*
X069927Y007533D01*
X070111Y007533D01*
X070203Y007625D01*
X070203Y007808D01*
X070111Y007900D01*
X069927Y007900D01*
X069836Y007808D01*
X069836Y007625D01*
X070388Y007717D02*
X070663Y007533D01*
X070849Y007625D02*
X070940Y007533D01*
X071124Y007533D01*
X071216Y007717D02*
X070849Y007717D01*
X070849Y007808D02*
X070849Y007625D01*
X070849Y007808D02*
X070940Y007900D01*
X071124Y007900D01*
X071216Y007808D01*
X071216Y007717D01*
X070663Y007900D02*
X070388Y007717D01*
X070388Y007533D02*
X070388Y008084D01*
X069098Y007808D02*
X068731Y007808D01*
X071953Y007900D02*
X072137Y008084D01*
X072137Y007533D01*
X072320Y007533D02*
X071953Y007533D01*
X072506Y007533D02*
X072598Y007533D01*
X072598Y007625D01*
X072506Y007625D01*
X072506Y007533D01*
X072782Y007625D02*
X073149Y007992D01*
X073149Y007625D01*
X073057Y007533D01*
X072874Y007533D01*
X072782Y007625D01*
X072782Y007992D01*
X072874Y008084D01*
X073057Y008084D01*
X073149Y007992D01*
D12*
X000660Y000493D02*
X000513Y000640D01*
X000513Y001227D01*
X000660Y001374D01*
X000954Y001374D01*
X001100Y001227D01*
X001434Y000934D02*
X001581Y001081D01*
X001874Y001081D01*
X002021Y000934D01*
X002021Y000640D01*
X001874Y000493D01*
X001581Y000493D01*
X001434Y000640D01*
X001434Y000934D01*
X001100Y000640D02*
X000954Y000493D01*
X000660Y000493D01*
X002355Y000493D02*
X002795Y000493D01*
X002942Y000640D01*
X002942Y000934D01*
X002795Y001081D01*
X002355Y001081D01*
X002355Y000200D01*
X003569Y000200D02*
X003716Y000200D01*
X003863Y000347D01*
X003863Y001081D01*
X004196Y001081D02*
X004196Y000493D01*
X004196Y000787D02*
X004490Y001081D01*
X004637Y001081D01*
X004964Y001081D02*
X005110Y001081D01*
X005110Y000493D01*
X004964Y000493D02*
X005257Y000493D01*
X005578Y000640D02*
X005724Y000493D01*
X006165Y000493D01*
X006165Y000347D02*
X006165Y001081D01*
X005724Y001081D01*
X005578Y000934D01*
X005578Y000640D01*
X006018Y000200D02*
X006165Y000347D01*
X006018Y000200D02*
X005871Y000200D01*
X006498Y000493D02*
X006498Y001374D01*
X007566Y001227D02*
X007566Y000640D01*
X007713Y000493D01*
X007086Y000493D02*
X007086Y000934D01*
X006939Y001081D01*
X006645Y001081D01*
X006498Y000934D01*
X007419Y001081D02*
X007713Y001081D01*
X008954Y001227D02*
X009101Y001374D01*
X009394Y001374D01*
X009541Y001227D01*
X009541Y001081D01*
X008954Y000493D01*
X009541Y000493D01*
X009875Y000640D02*
X010462Y001227D01*
X010462Y000640D01*
X010315Y000493D01*
X010021Y000493D01*
X009875Y000640D01*
X009875Y001227D01*
X010021Y001374D01*
X010315Y001374D01*
X010462Y001227D01*
X010795Y001081D02*
X011089Y001374D01*
X011089Y000493D01*
X010795Y000493D02*
X011383Y000493D01*
X011716Y000640D02*
X011863Y000493D01*
X012157Y000493D01*
X012303Y000640D01*
X012303Y000787D01*
X012157Y000934D01*
X011716Y000934D01*
X011716Y000640D01*
X011716Y000934D02*
X012010Y001227D01*
X012303Y001374D01*
X013558Y001227D02*
X013704Y001374D01*
X013998Y001374D01*
X014145Y001227D01*
X014145Y001081D01*
X013558Y000493D01*
X014145Y000493D01*
X014478Y000640D02*
X015066Y001227D01*
X015066Y000640D01*
X014919Y000493D01*
X014625Y000493D01*
X014478Y000640D01*
X014478Y001227D01*
X014625Y001374D01*
X014919Y001374D01*
X015066Y001227D01*
X015399Y001081D02*
X015693Y001374D01*
X015693Y000493D01*
X015986Y000493D02*
X015399Y000493D01*
X016320Y000493D02*
X016320Y000640D01*
X016907Y001227D01*
X016907Y001374D01*
X016320Y001374D01*
X018162Y001374D02*
X018749Y001374D01*
X018455Y001374D02*
X018455Y000493D01*
X019082Y000493D02*
X019082Y001374D01*
X019229Y001081D02*
X019523Y001081D01*
X019670Y000934D01*
X019670Y000493D01*
X020003Y000640D02*
X020150Y000493D01*
X020444Y000493D01*
X020590Y000640D01*
X020590Y000934D01*
X020444Y001081D01*
X020150Y001081D01*
X020003Y000934D01*
X020003Y000640D01*
X020924Y000493D02*
X020924Y001081D01*
X021071Y001081D01*
X021218Y000934D01*
X021364Y001081D01*
X021511Y000934D01*
X021511Y000493D01*
X021218Y000493D02*
X021218Y000934D01*
X021845Y000640D02*
X021992Y000787D01*
X022432Y000787D01*
X022432Y000934D02*
X022432Y000493D01*
X021992Y000493D01*
X021845Y000640D01*
X022766Y000493D02*
X023206Y000493D01*
X023353Y000640D01*
X023206Y000787D01*
X022912Y000787D01*
X022766Y000934D01*
X022912Y001081D01*
X023353Y001081D01*
X022432Y000934D02*
X022285Y001081D01*
X021992Y001081D01*
X019229Y001081D02*
X019082Y000934D01*
X013224Y000934D02*
X012637Y000934D01*
X005110Y001374D02*
X005110Y001521D01*
X003276Y001081D02*
X003276Y000640D01*
X003422Y000493D01*
X003863Y000493D01*
X003709Y003493D02*
X003269Y003493D01*
X003122Y003640D01*
X003122Y003934D01*
X003269Y004081D01*
X003709Y004081D01*
X004043Y004081D02*
X004043Y003640D01*
X004190Y003493D01*
X004336Y003640D01*
X004483Y003493D01*
X004630Y003640D01*
X004630Y004081D01*
X005110Y004081D02*
X005404Y004081D01*
X005551Y003934D01*
X005551Y003493D01*
X005110Y003493D01*
X004964Y003640D01*
X005110Y003787D01*
X005551Y003787D01*
X005884Y003787D02*
X006178Y004081D01*
X006325Y004081D01*
X006652Y003934D02*
X006799Y004081D01*
X007092Y004081D01*
X007239Y003934D01*
X007239Y003787D01*
X006652Y003787D01*
X006652Y003640D02*
X006652Y003934D01*
X005884Y004081D02*
X005884Y003493D01*
X006652Y003640D02*
X006799Y003493D01*
X007092Y003493D01*
X008493Y003493D02*
X009081Y003493D01*
X009414Y003493D02*
X009708Y003493D01*
X009561Y003493D02*
X009561Y004081D01*
X009414Y004081D01*
X010028Y003934D02*
X010028Y003640D01*
X010175Y003493D01*
X010615Y003493D01*
X010949Y003640D02*
X010949Y003934D01*
X011096Y004081D01*
X011389Y004081D01*
X011536Y003934D01*
X011536Y003787D01*
X010949Y003787D01*
X010949Y003640D02*
X011096Y003493D01*
X011389Y003493D01*
X011870Y003493D02*
X011870Y004081D01*
X012310Y004081D01*
X012457Y003934D01*
X012457Y003493D01*
X012790Y003493D02*
X013231Y003493D01*
X013378Y003640D01*
X013231Y003787D01*
X012937Y003787D01*
X012790Y003934D01*
X012937Y004081D01*
X013378Y004081D01*
X013711Y003934D02*
X013858Y004081D01*
X014152Y004081D01*
X014298Y003934D01*
X014298Y003787D01*
X013711Y003787D01*
X013711Y003640D02*
X013711Y003934D01*
X013711Y003640D02*
X013858Y003493D01*
X014152Y003493D01*
X015553Y003787D02*
X015553Y004081D01*
X015846Y004374D01*
X016167Y004081D02*
X016167Y003640D01*
X016313Y003493D01*
X016460Y003640D01*
X016607Y003493D01*
X016754Y003640D01*
X016754Y004081D01*
X017087Y004081D02*
X017087Y003640D01*
X017234Y003493D01*
X017381Y003640D01*
X017528Y003493D01*
X017675Y003640D01*
X017675Y004081D01*
X018008Y004081D02*
X018008Y003640D01*
X018155Y003493D01*
X018302Y003640D01*
X018449Y003493D01*
X018595Y003640D01*
X018595Y004081D01*
X019389Y004081D02*
X019683Y004081D01*
X019536Y004227D02*
X019536Y003640D01*
X019683Y003493D01*
X020003Y003640D02*
X020150Y003787D01*
X020590Y003787D01*
X020590Y003934D02*
X020590Y003493D01*
X020150Y003493D01*
X020003Y003640D01*
X020924Y003493D02*
X021364Y003493D01*
X021511Y003640D01*
X021511Y003934D01*
X021364Y004081D01*
X020924Y004081D01*
X020924Y003200D01*
X021845Y003493D02*
X021845Y004081D01*
X022138Y004081D02*
X022285Y004081D01*
X022138Y004081D02*
X021845Y003787D01*
X022612Y003640D02*
X022759Y003640D01*
X022759Y003493D01*
X022612Y003493D01*
X022612Y003640D01*
X023072Y003640D02*
X023219Y003493D01*
X023513Y003493D01*
X023660Y003640D01*
X023660Y003934D01*
X023513Y004081D01*
X023219Y004081D01*
X023072Y003934D01*
X023072Y003640D01*
X023993Y003493D02*
X023993Y004081D01*
X024287Y004081D02*
X024434Y004081D01*
X024287Y004081D02*
X023993Y003787D01*
X024761Y003934D02*
X024761Y003640D01*
X024907Y003493D01*
X025348Y003493D01*
X025348Y003347D02*
X025348Y004081D01*
X024907Y004081D01*
X024761Y003934D01*
X026602Y004227D02*
X026602Y003640D01*
X026749Y003493D01*
X027043Y003493D01*
X027189Y003640D01*
X027189Y004227D01*
X027043Y004374D01*
X026749Y004374D01*
X026602Y004227D01*
X026269Y004374D02*
X025681Y003493D01*
X025348Y003347D02*
X025201Y003200D01*
X025054Y003200D01*
X027523Y003493D02*
X027523Y004374D01*
X028110Y004374D02*
X028110Y003493D01*
X028444Y003493D02*
X029031Y003493D01*
X029365Y003493D02*
X029658Y003787D01*
X029658Y004081D01*
X029365Y004374D01*
X028444Y004374D02*
X028444Y003493D01*
X028110Y003934D02*
X027523Y003934D01*
X025194Y004993D02*
X025194Y005434D01*
X025048Y005581D01*
X024607Y005581D01*
X024607Y004993D01*
X024127Y004993D02*
X023833Y004993D01*
X023686Y005140D01*
X023686Y005434D01*
X023833Y005581D01*
X024127Y005581D01*
X024274Y005434D01*
X024274Y005287D01*
X023686Y005287D01*
X023353Y005434D02*
X023353Y005140D01*
X023206Y004993D01*
X022766Y004993D01*
X022766Y004700D02*
X022766Y005581D01*
X023206Y005581D01*
X023353Y005434D01*
X022432Y005140D02*
X022432Y005727D01*
X022285Y005874D01*
X021992Y005874D01*
X021845Y005727D01*
X021845Y005140D01*
X021992Y004993D01*
X022285Y004993D01*
X022432Y005140D01*
X020590Y004993D02*
X020297Y005287D01*
X020444Y005287D02*
X020003Y005287D01*
X019670Y005434D02*
X019523Y005287D01*
X019082Y005287D01*
X018749Y005434D02*
X018162Y005434D01*
X018162Y005581D02*
X018455Y005874D01*
X018749Y005581D01*
X018749Y004993D01*
X019082Y004993D02*
X019082Y005874D01*
X019523Y005874D01*
X019670Y005727D01*
X019670Y005434D01*
X020444Y005287D02*
X020590Y005434D01*
X020590Y005727D01*
X020444Y005874D01*
X020003Y005874D01*
X020003Y004993D01*
X018162Y004993D02*
X018162Y005581D01*
X017828Y005874D02*
X017241Y005874D01*
X017534Y005874D02*
X017534Y004993D01*
X015986Y005287D02*
X015399Y005287D01*
X015399Y005140D02*
X015399Y005434D01*
X015546Y005581D01*
X015840Y005581D01*
X015986Y005434D01*
X015986Y005287D01*
X015546Y004993D02*
X015399Y005140D01*
X015546Y004993D02*
X015840Y004993D01*
X015066Y004993D02*
X015066Y005434D01*
X014919Y005581D01*
X014625Y005581D01*
X014478Y005434D01*
X014158Y005581D02*
X013865Y005581D01*
X014011Y005727D02*
X014011Y005140D01*
X014158Y004993D01*
X014478Y004993D02*
X014478Y005874D01*
X012617Y005581D02*
X012470Y005581D01*
X012177Y005287D01*
X011843Y005287D02*
X011256Y005287D01*
X011256Y005140D02*
X011256Y005434D01*
X011403Y005581D01*
X011696Y005581D01*
X011843Y005434D01*
X011843Y005287D01*
X011403Y004993D02*
X011256Y005140D01*
X011403Y004993D02*
X011696Y004993D01*
X012177Y004993D02*
X012177Y005581D01*
X010922Y005581D02*
X010482Y005581D01*
X010335Y005434D01*
X010335Y005140D01*
X010482Y004993D01*
X010922Y004993D01*
X010922Y005874D01*
X010001Y005434D02*
X009855Y005581D01*
X009414Y005581D01*
X009414Y004993D01*
X009081Y004993D02*
X009081Y005581D01*
X008493Y005581D02*
X008493Y005140D01*
X008640Y004993D01*
X009081Y004993D01*
X010001Y004993D02*
X010001Y005434D01*
X007239Y005581D02*
X006799Y005581D01*
X006652Y005434D01*
X006652Y005140D01*
X006799Y004993D01*
X007239Y004993D01*
X007239Y005874D01*
X006318Y005434D02*
X006171Y005581D01*
X005878Y005581D01*
X005731Y005434D01*
X005731Y005140D01*
X005878Y004993D01*
X006171Y004993D01*
X005397Y005140D02*
X005251Y005287D01*
X004957Y005287D01*
X004810Y005434D01*
X004957Y005581D01*
X005397Y005581D01*
X006318Y005434D02*
X006318Y005287D01*
X005731Y005287D01*
X005397Y005140D02*
X005251Y004993D01*
X004810Y004993D01*
X004477Y004993D02*
X004477Y005434D01*
X004330Y005581D01*
X003889Y005581D01*
X003889Y004993D01*
X003409Y004993D02*
X003115Y004993D01*
X002969Y005140D01*
X002969Y005434D01*
X003115Y005581D01*
X003409Y005581D01*
X003556Y005434D01*
X003556Y005287D01*
X002969Y005287D01*
X002195Y005581D02*
X002048Y005434D01*
X002048Y005140D01*
X002195Y004993D01*
X002635Y004993D01*
X001728Y004993D02*
X001434Y004993D01*
X001581Y004993D02*
X001581Y005581D01*
X001434Y005581D01*
X002195Y005581D02*
X002635Y005581D01*
X001581Y005874D02*
X001581Y006021D01*
X000513Y005874D02*
X000513Y004993D01*
X001100Y004993D01*
X001100Y004374D02*
X001100Y003493D01*
X001434Y003640D02*
X001581Y003787D01*
X002021Y003787D01*
X002021Y003934D02*
X002021Y003493D01*
X001581Y003493D01*
X001434Y003640D01*
X000513Y003493D02*
X000513Y004374D01*
X001581Y004081D02*
X001874Y004081D01*
X002021Y003934D01*
X002355Y004081D02*
X002355Y003493D01*
X003709Y003493D02*
X003709Y004374D01*
X002795Y004081D02*
X002648Y004081D01*
X002355Y003787D01*
X001100Y003934D02*
X000513Y003934D01*
X008493Y004374D02*
X008493Y003493D01*
X010028Y003934D02*
X010175Y004081D01*
X010615Y004081D01*
X009561Y004374D02*
X009561Y004521D01*
X015553Y003787D02*
X015846Y003493D01*
X018929Y003493D02*
X019076Y003493D01*
X019076Y003640D01*
X018929Y003640D01*
X018929Y003493D01*
X020444Y004081D02*
X020590Y003934D01*
X020444Y004081D02*
X020150Y004081D01*
X024607Y001081D02*
X024901Y001374D01*
X025194Y001081D01*
X025194Y000493D01*
X025528Y000493D02*
X025528Y001374D01*
X025968Y001081D02*
X025528Y000787D01*
X025968Y000493D01*
X026295Y000640D02*
X026442Y000787D01*
X026882Y000787D01*
X026882Y000934D02*
X026882Y000493D01*
X026442Y000493D01*
X026295Y000640D01*
X027216Y000493D02*
X027216Y001081D01*
X027363Y001081D01*
X027510Y000934D01*
X027656Y001081D01*
X027803Y000934D01*
X027803Y000493D01*
X027510Y000493D02*
X027510Y000934D01*
X026882Y000934D02*
X026736Y001081D01*
X026442Y001081D01*
X025194Y000934D02*
X024607Y000934D01*
X024607Y001081D02*
X024607Y000493D01*
D13*
X027217Y008249D02*
X027217Y014572D01*
X033143Y014572D01*
X033143Y008249D01*
X027217Y008249D01*
X043217Y008249D02*
X043217Y014572D01*
X049143Y014572D01*
X049143Y008249D01*
X043217Y008249D01*
D14*
X040180Y008208D02*
X040180Y007808D01*
X040178Y007782D01*
X040173Y007756D01*
X040165Y007731D01*
X040153Y007708D01*
X040139Y007686D01*
X040121Y007667D01*
X040102Y007649D01*
X040080Y007635D01*
X040057Y007623D01*
X040032Y007615D01*
X040006Y007610D01*
X039980Y007608D01*
X034380Y007608D01*
X034330Y007658D02*
X034330Y008358D01*
X035030Y008358D01*
X035030Y007658D01*
X034330Y007658D01*
X034380Y007608D02*
X034354Y007610D01*
X034328Y007615D01*
X034303Y007623D01*
X034280Y007635D01*
X034258Y007649D01*
X034239Y007667D01*
X034221Y007686D01*
X034207Y007708D01*
X034195Y007731D01*
X034187Y007756D01*
X034182Y007782D01*
X034180Y007808D01*
X034180Y008208D01*
X034182Y008234D01*
X034187Y008260D01*
X034195Y008285D01*
X034207Y008308D01*
X034221Y008330D01*
X034239Y008349D01*
X034258Y008367D01*
X034280Y008381D01*
X034303Y008393D01*
X034328Y008401D01*
X034354Y008406D01*
X034380Y008408D01*
X039980Y008408D01*
X040006Y008406D01*
X040032Y008401D01*
X040057Y008393D01*
X040080Y008381D01*
X040102Y008367D01*
X040121Y008349D01*
X040139Y008330D01*
X040153Y008308D01*
X040165Y008285D01*
X040173Y008260D01*
X040178Y008234D01*
X040180Y008208D01*
X051180Y008208D02*
X051180Y007808D01*
X051182Y007782D01*
X051187Y007756D01*
X051195Y007731D01*
X051207Y007708D01*
X051221Y007686D01*
X051239Y007667D01*
X051258Y007649D01*
X051280Y007635D01*
X051303Y007623D01*
X051328Y007615D01*
X051354Y007610D01*
X051380Y007608D01*
X056980Y007608D01*
X057006Y007610D01*
X057032Y007615D01*
X057057Y007623D01*
X057080Y007635D01*
X057102Y007649D01*
X057121Y007667D01*
X057139Y007686D01*
X057153Y007708D01*
X057165Y007731D01*
X057173Y007756D01*
X057178Y007782D01*
X057180Y007808D01*
X057180Y008208D01*
X057178Y008234D01*
X057173Y008260D01*
X057165Y008285D01*
X057153Y008308D01*
X057139Y008330D01*
X057121Y008349D01*
X057102Y008367D01*
X057080Y008381D01*
X057057Y008393D01*
X057032Y008401D01*
X057006Y008406D01*
X056980Y008408D01*
X051380Y008408D01*
X051330Y008358D02*
X051330Y007658D01*
X052030Y007658D01*
X052030Y008358D01*
X051330Y008358D01*
X051380Y008408D02*
X051354Y008406D01*
X051328Y008401D01*
X051303Y008393D01*
X051280Y008381D01*
X051258Y008367D01*
X051239Y008349D01*
X051221Y008330D01*
X051207Y008308D01*
X051195Y008285D01*
X051187Y008260D01*
X051182Y008234D01*
X051180Y008208D01*
X048242Y010945D02*
X048136Y010838D01*
X047922Y010838D01*
X047815Y010945D01*
X047815Y011158D02*
X048029Y011265D01*
X048136Y011265D01*
X048242Y011158D01*
X048242Y010945D01*
X047815Y011158D02*
X047815Y011479D01*
X048242Y011479D01*
X047491Y011479D02*
X047171Y011158D01*
X047598Y011158D01*
X046847Y010945D02*
X046847Y011479D01*
X046953Y011479D02*
X046740Y011479D01*
X046309Y011372D02*
X046309Y011158D01*
X046202Y011052D01*
X045882Y011052D01*
X046095Y011052D02*
X046309Y010838D01*
X046526Y010945D02*
X046633Y010838D01*
X046740Y010838D01*
X046847Y010945D01*
X047491Y010838D02*
X047491Y011479D01*
X046309Y011372D02*
X046202Y011479D01*
X045882Y011479D01*
X045882Y010838D01*
X032242Y010945D02*
X032136Y010838D01*
X031922Y010838D01*
X031815Y010945D01*
X031815Y011158D02*
X032029Y011265D01*
X032136Y011265D01*
X032242Y011158D01*
X032242Y010945D01*
X031815Y011158D02*
X031815Y011479D01*
X032242Y011479D01*
X031491Y011479D02*
X031171Y011158D01*
X031598Y011158D01*
X030847Y010945D02*
X030847Y011479D01*
X030953Y011479D02*
X030740Y011479D01*
X030309Y011372D02*
X030309Y011158D01*
X030202Y011052D01*
X029882Y011052D01*
X030095Y011052D02*
X030309Y010838D01*
X030526Y010945D02*
X030633Y010838D01*
X030740Y010838D01*
X030847Y010945D01*
X031491Y010838D02*
X031491Y011479D01*
X030309Y011372D02*
X030202Y011479D01*
X029882Y011479D01*
X029882Y010838D01*
X022480Y008408D02*
X016880Y008408D01*
X016830Y008358D02*
X016830Y007658D01*
X017530Y007658D01*
X017530Y008358D01*
X016830Y008358D01*
X016880Y008408D02*
X016854Y008406D01*
X016828Y008401D01*
X016803Y008393D01*
X016780Y008381D01*
X016758Y008367D01*
X016739Y008349D01*
X016721Y008330D01*
X016707Y008308D01*
X016695Y008285D01*
X016687Y008260D01*
X016682Y008234D01*
X016680Y008208D01*
X016680Y007808D01*
X016682Y007782D01*
X016687Y007756D01*
X016695Y007731D01*
X016707Y007708D01*
X016721Y007686D01*
X016739Y007667D01*
X016758Y007649D01*
X016780Y007635D01*
X016803Y007623D01*
X016828Y007615D01*
X016854Y007610D01*
X016880Y007608D01*
X022480Y007608D01*
X022506Y007610D01*
X022532Y007615D01*
X022557Y007623D01*
X022580Y007635D01*
X022602Y007649D01*
X022621Y007667D01*
X022639Y007686D01*
X022653Y007708D01*
X022665Y007731D01*
X022673Y007756D01*
X022678Y007782D01*
X022680Y007808D01*
X022680Y008208D01*
X022678Y008234D01*
X022673Y008260D01*
X022665Y008285D01*
X022653Y008308D01*
X022639Y008330D01*
X022621Y008349D01*
X022602Y008367D01*
X022580Y008381D01*
X022557Y008393D01*
X022532Y008401D01*
X022506Y008406D01*
X022480Y008408D01*
X028710Y014788D02*
X028710Y015429D01*
X029030Y015429D01*
X029137Y015322D01*
X029137Y015108D01*
X029030Y015002D01*
X028710Y015002D01*
X029355Y014895D02*
X029461Y014788D01*
X029675Y014788D01*
X029782Y014895D01*
X029782Y015322D01*
X029675Y015429D01*
X029461Y015429D01*
X029355Y015322D01*
X029355Y014895D01*
X029999Y015002D02*
X030319Y015002D01*
X030426Y015108D01*
X030426Y015322D01*
X030319Y015429D01*
X029999Y015429D01*
X029999Y014788D01*
X030213Y015002D02*
X030426Y014788D01*
X030857Y014788D02*
X030857Y015429D01*
X030644Y015429D02*
X031071Y015429D01*
X031288Y015215D02*
X031502Y015429D01*
X031502Y014788D01*
X031715Y014788D02*
X031288Y014788D01*
X044710Y014788D02*
X044710Y015429D01*
X045030Y015429D01*
X045137Y015322D01*
X045137Y015108D01*
X045030Y015002D01*
X044710Y015002D01*
X045355Y014895D02*
X045461Y014788D01*
X045675Y014788D01*
X045782Y014895D01*
X045782Y015322D01*
X045675Y015429D01*
X045461Y015429D01*
X045355Y015322D01*
X045355Y014895D01*
X045999Y015002D02*
X046319Y015002D01*
X046426Y015108D01*
X046426Y015322D01*
X046319Y015429D01*
X045999Y015429D01*
X045999Y014788D01*
X046213Y015002D02*
X046426Y014788D01*
X046857Y014788D02*
X046857Y015429D01*
X046644Y015429D02*
X047071Y015429D01*
X047288Y015322D02*
X047395Y015429D01*
X047608Y015429D01*
X047715Y015322D01*
X047715Y015215D01*
X047288Y014788D01*
X047715Y014788D01*
M02*
