G75*
%MOIN*%
%OFA0B0*%
%FSLAX24Y24*%
%IPPOS*%
%LPD*%
%AMOC8*
5,1,8,0,0,1.08239X$1,22.5*
%
%ADD10C,0.0705*%
%ADD11OC8,0.0520*%
%ADD12C,0.0765*%
%ADD13C,0.0554*%
%ADD14C,0.0520*%
%ADD15C,0.0740*%
%ADD16C,0.0700*%
%ADD17C,0.0800*%
%ADD18C,0.0160*%
%ADD19C,0.0140*%
%ADD20C,0.0400*%
%ADD21C,0.0396*%
D10*
X001368Y002700D02*
X002073Y002700D01*
X006288Y002700D02*
X006993Y002700D01*
X008368Y002700D02*
X009073Y002700D01*
X009073Y004660D02*
X008368Y004660D01*
X006993Y004660D02*
X006288Y004660D01*
X002073Y004660D02*
X001368Y004660D01*
X001368Y008700D02*
X002073Y008700D01*
X006288Y008700D02*
X006993Y008700D01*
X008368Y008700D02*
X009073Y008700D01*
X009073Y010660D02*
X008368Y010660D01*
X006993Y010660D02*
X006288Y010660D01*
X002073Y010660D02*
X001368Y010660D01*
X013288Y010660D02*
X013993Y010660D01*
X015368Y010660D02*
X016073Y010660D01*
X020288Y010660D02*
X020993Y010660D01*
X022368Y010660D02*
X023073Y010660D01*
X027288Y010660D02*
X027993Y010660D01*
X029368Y010660D02*
X030073Y010660D01*
X034288Y010660D02*
X034993Y010660D01*
X036368Y010660D02*
X037073Y010660D01*
X041288Y010660D02*
X041993Y010660D01*
X041993Y008700D02*
X041288Y008700D01*
X037073Y008700D02*
X036368Y008700D01*
X034993Y008700D02*
X034288Y008700D01*
X030073Y008700D02*
X029368Y008700D01*
X027993Y008700D02*
X027288Y008700D01*
X023073Y008700D02*
X022368Y008700D01*
X020993Y008700D02*
X020288Y008700D01*
X016073Y008700D02*
X015368Y008700D01*
X013993Y008700D02*
X013288Y008700D01*
X013288Y004660D02*
X013993Y004660D01*
X015368Y004660D02*
X016073Y004660D01*
X020288Y004660D02*
X020993Y004660D01*
X022368Y004660D02*
X023073Y004660D01*
X027288Y004660D02*
X027993Y004660D01*
X029368Y004660D02*
X030073Y004660D01*
X034288Y004660D02*
X034993Y004660D01*
X036368Y004660D02*
X037073Y004660D01*
X041288Y004660D02*
X041993Y004660D01*
X041993Y002700D02*
X041288Y002700D01*
X037073Y002700D02*
X036368Y002700D01*
X034993Y002700D02*
X034288Y002700D01*
X030073Y002700D02*
X029368Y002700D01*
X027993Y002700D02*
X027288Y002700D01*
X023073Y002700D02*
X022368Y002700D01*
X020993Y002700D02*
X020288Y002700D01*
X016073Y002700D02*
X015368Y002700D01*
X013993Y002700D02*
X013288Y002700D01*
D11*
X013680Y013680D03*
X012680Y013680D03*
X011680Y013680D03*
X010680Y013680D03*
X009680Y013680D03*
X008680Y013680D03*
X006680Y013680D03*
X005680Y013680D03*
X004680Y013680D03*
X003680Y013680D03*
X002680Y013680D03*
X001680Y013680D03*
X016180Y013680D03*
X017180Y013680D03*
X019180Y013680D03*
X020180Y013680D03*
X023180Y013680D03*
X024180Y013680D03*
X026180Y013680D03*
X027180Y013680D03*
X030180Y013680D03*
X031180Y013680D03*
X033180Y013680D03*
X034180Y013680D03*
X037180Y013680D03*
X038180Y013680D03*
X040180Y013680D03*
X041180Y013680D03*
D12*
X041180Y018680D03*
X037180Y018680D03*
X034180Y018680D03*
X030180Y018680D03*
X032180Y020680D03*
X030180Y022680D03*
X034180Y022680D03*
X037180Y022680D03*
X041180Y022680D03*
X039180Y020680D03*
X013180Y018680D03*
X009180Y018680D03*
X006180Y018680D03*
X002180Y018680D03*
X004180Y020680D03*
X002180Y022680D03*
X006180Y022680D03*
X009180Y022680D03*
X013180Y022680D03*
X011180Y020680D03*
D13*
X016930Y018180D03*
X017930Y018180D03*
X018930Y018180D03*
X019930Y018180D03*
X019430Y017180D03*
X018430Y017180D03*
X017430Y017180D03*
X016430Y017180D03*
X023430Y017180D03*
X024430Y017180D03*
X025430Y017180D03*
X026430Y017180D03*
X025930Y018180D03*
X026930Y018180D03*
X024930Y018180D03*
X023930Y018180D03*
D14*
X032180Y017440D02*
X032180Y016920D01*
X033180Y016920D02*
X033180Y017440D01*
X034180Y017440D02*
X034180Y016920D01*
X035180Y016920D02*
X035180Y017440D01*
X036180Y017440D02*
X036180Y016920D01*
X037180Y016920D02*
X037180Y017440D01*
X038180Y017440D02*
X038180Y016920D01*
X039180Y016920D02*
X039180Y017440D01*
X011180Y017440D02*
X011180Y016920D01*
X010180Y016920D02*
X010180Y017440D01*
X009180Y017440D02*
X009180Y016920D01*
X008180Y016920D02*
X008180Y017440D01*
X007180Y017440D02*
X007180Y016920D01*
X006180Y016920D02*
X006180Y017440D01*
X005180Y017440D02*
X005180Y016920D01*
X004180Y016920D02*
X004180Y017440D01*
D15*
X044680Y017180D03*
X044680Y016180D03*
X044680Y015180D03*
X044680Y014180D03*
X044680Y013180D03*
X044680Y012180D03*
X044680Y011180D03*
X044680Y010180D03*
X044680Y009180D03*
X044680Y008180D03*
X044680Y007180D03*
X045680Y007180D03*
X046680Y007180D03*
X047680Y007180D03*
X048680Y007180D03*
X049680Y007180D03*
X050680Y007180D03*
X050680Y006180D03*
X049680Y006180D03*
X048680Y006180D03*
X047680Y006180D03*
X046680Y006180D03*
X045680Y006180D03*
X044680Y006180D03*
X055680Y006180D03*
X055680Y007180D03*
X055680Y008180D03*
X055680Y009180D03*
X055680Y010180D03*
X055680Y011180D03*
X055680Y012180D03*
X055680Y013180D03*
X055680Y014180D03*
X055680Y015180D03*
X055680Y016180D03*
X055680Y017180D03*
X055680Y018180D03*
X055680Y019180D03*
X055680Y020180D03*
X055680Y021180D03*
X044680Y021180D03*
X044680Y020180D03*
X044680Y019180D03*
X044680Y018180D03*
D16*
X052629Y004109D02*
X053329Y004109D01*
X054180Y002530D02*
X054180Y001830D01*
D17*
X051818Y001780D02*
X051818Y002580D01*
D18*
X000660Y002575D02*
X000660Y000660D01*
X031212Y000660D01*
X031176Y000675D01*
X031075Y000776D01*
X031020Y000908D01*
X031020Y001052D01*
X031061Y001150D01*
X027859Y001150D01*
X027784Y001075D01*
X027652Y001020D01*
X027508Y001020D01*
X027376Y001075D01*
X027275Y001176D01*
X027220Y001308D01*
X027220Y001452D01*
X027275Y001584D01*
X027376Y001685D01*
X027508Y001740D01*
X027652Y001740D01*
X027784Y001685D01*
X027859Y001610D01*
X031400Y001610D01*
X031345Y001744D01*
X031345Y002076D01*
X031472Y002383D01*
X031639Y002550D01*
X030565Y002550D01*
X030507Y002410D01*
X030363Y002266D01*
X030174Y002188D01*
X029266Y002188D01*
X029077Y002266D01*
X028933Y002410D01*
X028855Y002598D01*
X028855Y002802D01*
X028933Y002990D01*
X028993Y003050D01*
X028367Y003050D01*
X028427Y002990D01*
X028505Y002802D01*
X028505Y002598D01*
X028427Y002410D01*
X028283Y002266D01*
X028094Y002188D01*
X027186Y002188D01*
X026997Y002266D01*
X026853Y002410D01*
X026795Y002550D01*
X025721Y002550D01*
X025888Y002383D01*
X026015Y002076D01*
X026015Y001744D01*
X025888Y001437D01*
X025653Y001202D01*
X025346Y001075D01*
X025014Y001075D01*
X024707Y001202D01*
X024472Y001437D01*
X024345Y001744D01*
X024345Y002076D01*
X024472Y002383D01*
X024639Y002550D01*
X023565Y002550D01*
X023507Y002410D01*
X023363Y002266D01*
X023174Y002188D01*
X022266Y002188D01*
X022077Y002266D01*
X021933Y002410D01*
X021855Y002598D01*
X021855Y002802D01*
X021933Y002990D01*
X021993Y003050D01*
X021367Y003050D01*
X021427Y002990D01*
X021505Y002802D01*
X021505Y002598D01*
X021427Y002410D01*
X021283Y002266D01*
X021094Y002188D01*
X020186Y002188D01*
X019997Y002266D01*
X019853Y002410D01*
X019775Y002598D01*
X019775Y002802D01*
X019853Y002990D01*
X019913Y003050D01*
X016447Y003050D01*
X016507Y002990D01*
X016585Y002802D01*
X016585Y002598D01*
X016507Y002410D01*
X016363Y002266D01*
X016174Y002188D01*
X015266Y002188D01*
X015077Y002266D01*
X014933Y002410D01*
X014855Y002598D01*
X014855Y002802D01*
X014933Y002990D01*
X014993Y003050D01*
X014367Y003050D01*
X014427Y002990D01*
X014505Y002802D01*
X014505Y002598D01*
X014427Y002410D01*
X014283Y002266D01*
X014094Y002188D01*
X013186Y002188D01*
X012997Y002266D01*
X012853Y002410D01*
X012775Y002598D01*
X012775Y002802D01*
X012853Y002990D01*
X012913Y003050D01*
X011085Y003050D01*
X010950Y003185D01*
X010315Y003820D01*
X010208Y003820D01*
X010076Y003875D01*
X009975Y003976D01*
X009920Y004108D01*
X009920Y004252D01*
X009975Y004384D01*
X010076Y004485D01*
X010208Y004540D01*
X010352Y004540D01*
X010484Y004485D01*
X010585Y004384D01*
X010640Y004252D01*
X010640Y004145D01*
X011275Y003510D01*
X025461Y003510D01*
X025420Y003608D01*
X025420Y003752D01*
X025461Y003850D01*
X012485Y003850D01*
X012415Y003920D01*
X012308Y003920D01*
X012176Y003975D01*
X012075Y004076D01*
X012020Y004208D01*
X012020Y004352D01*
X012075Y004484D01*
X012176Y004585D01*
X012308Y004640D01*
X012452Y004640D01*
X012584Y004585D01*
X012685Y004484D01*
X012740Y004352D01*
X012740Y004310D01*
X012913Y004310D01*
X012853Y004370D01*
X012775Y004558D01*
X012775Y004762D01*
X012853Y004950D01*
X012997Y005094D01*
X013186Y005172D01*
X014094Y005172D01*
X014283Y005094D01*
X014427Y004950D01*
X014505Y004762D01*
X014505Y004558D01*
X014427Y004370D01*
X014367Y004310D01*
X014993Y004310D01*
X014933Y004370D01*
X014855Y004558D01*
X014855Y004762D01*
X014933Y004950D01*
X015077Y005094D01*
X015266Y005172D01*
X016174Y005172D01*
X016363Y005094D01*
X016507Y004950D01*
X016565Y004810D01*
X017639Y004810D01*
X017472Y004977D01*
X017345Y005284D01*
X017345Y005616D01*
X017472Y005923D01*
X017707Y006158D01*
X017898Y006237D01*
X017315Y006820D01*
X017208Y006820D01*
X017076Y006875D01*
X016975Y006976D01*
X016920Y007108D01*
X016920Y007252D01*
X016975Y007384D01*
X017076Y007485D01*
X017208Y007540D01*
X017352Y007540D01*
X017446Y007501D01*
X017345Y007744D01*
X017345Y008076D01*
X017472Y008383D01*
X017639Y008550D01*
X016565Y008550D01*
X016507Y008410D01*
X016363Y008266D01*
X016174Y008188D01*
X015266Y008188D01*
X015077Y008266D01*
X014933Y008410D01*
X014855Y008598D01*
X014855Y008802D01*
X014933Y008990D01*
X014993Y009050D01*
X014367Y009050D01*
X014427Y008990D01*
X014505Y008802D01*
X014505Y008598D01*
X014427Y008410D01*
X014283Y008266D01*
X014094Y008188D01*
X013186Y008188D01*
X012997Y008266D01*
X012853Y008410D01*
X012795Y008550D01*
X011721Y008550D01*
X011888Y008383D01*
X012015Y008076D01*
X012015Y007744D01*
X011888Y007437D01*
X011653Y007202D01*
X011346Y007075D01*
X011014Y007075D01*
X010707Y007202D01*
X010472Y007437D01*
X010345Y007744D01*
X010345Y008076D01*
X010472Y008383D01*
X010639Y008550D01*
X009565Y008550D01*
X009507Y008410D01*
X009363Y008266D01*
X009174Y008188D01*
X008266Y008188D01*
X008077Y008266D01*
X007933Y008410D01*
X007855Y008598D01*
X007855Y008630D01*
X007810Y008585D01*
X007810Y003010D01*
X007953Y003010D01*
X008077Y003134D01*
X008266Y003212D01*
X009174Y003212D01*
X009363Y003134D01*
X009507Y002990D01*
X009585Y002802D01*
X009585Y002598D01*
X009507Y002410D01*
X009363Y002266D01*
X009174Y002188D01*
X008266Y002188D01*
X008077Y002266D01*
X007933Y002410D01*
X007875Y002550D01*
X007485Y002550D01*
X007427Y002410D01*
X007283Y002266D01*
X007094Y002188D01*
X006186Y002188D01*
X005997Y002266D01*
X005853Y002410D01*
X005775Y002598D01*
X005775Y002802D01*
X005853Y002990D01*
X005997Y003134D01*
X006186Y003212D01*
X007094Y003212D01*
X007283Y003134D01*
X007350Y003067D01*
X007350Y004293D01*
X007283Y004226D01*
X007094Y004148D01*
X006186Y004148D01*
X005997Y004226D01*
X005853Y004370D01*
X005775Y004558D01*
X005775Y004762D01*
X005853Y004950D01*
X005997Y005094D01*
X006186Y005172D01*
X007094Y005172D01*
X007283Y005094D01*
X007350Y005027D01*
X007350Y008333D01*
X007283Y008266D01*
X007094Y008188D01*
X006186Y008188D01*
X005997Y008266D01*
X005853Y008410D01*
X005775Y008598D01*
X005775Y008802D01*
X005853Y008990D01*
X005997Y009134D01*
X006186Y009212D01*
X007094Y009212D01*
X007283Y009134D01*
X007427Y008990D01*
X007467Y008893D01*
X007485Y008910D01*
X008085Y009510D01*
X036985Y009510D01*
X037220Y009745D01*
X037220Y009850D01*
X019524Y009850D01*
X019452Y009820D01*
X019308Y009820D01*
X019176Y009875D01*
X019075Y009976D01*
X019020Y010108D01*
X019020Y010252D01*
X019061Y010350D01*
X016487Y010350D01*
X016363Y010226D01*
X016174Y010148D01*
X015266Y010148D01*
X015077Y010226D01*
X014933Y010370D01*
X014855Y010558D01*
X014855Y010762D01*
X014933Y010950D01*
X015077Y011094D01*
X015266Y011172D01*
X016174Y011172D01*
X016363Y011094D01*
X016507Y010950D01*
X016565Y010810D01*
X017639Y010810D01*
X017472Y010977D01*
X017345Y011284D01*
X017345Y011616D01*
X017472Y011923D01*
X017599Y012050D01*
X011761Y012050D01*
X011888Y011923D01*
X012015Y011616D01*
X012015Y011284D01*
X011888Y010977D01*
X011721Y010810D01*
X012795Y010810D01*
X012853Y010950D01*
X012997Y011094D01*
X013186Y011172D01*
X014094Y011172D01*
X014283Y011094D01*
X014427Y010950D01*
X014505Y010762D01*
X014505Y010558D01*
X014427Y010370D01*
X014283Y010226D01*
X014094Y010148D01*
X013186Y010148D01*
X012997Y010226D01*
X012873Y010350D01*
X009487Y010350D01*
X009363Y010226D01*
X009174Y010148D01*
X008266Y010148D01*
X008077Y010226D01*
X007933Y010370D01*
X007855Y010558D01*
X007855Y010762D01*
X007933Y010950D01*
X008077Y011094D01*
X008266Y011172D01*
X009174Y011172D01*
X009363Y011094D01*
X009507Y010950D01*
X009565Y010810D01*
X010639Y010810D01*
X010472Y010977D01*
X010345Y011284D01*
X010345Y011616D01*
X010472Y011923D01*
X010599Y012050D01*
X004761Y012050D01*
X004888Y011923D01*
X005015Y011616D01*
X005015Y011284D01*
X004888Y010977D01*
X004721Y010810D01*
X005795Y010810D01*
X005853Y010950D01*
X005997Y011094D01*
X006186Y011172D01*
X007094Y011172D01*
X007283Y011094D01*
X007427Y010950D01*
X007505Y010762D01*
X007505Y010558D01*
X007427Y010370D01*
X007283Y010226D01*
X007094Y010148D01*
X006186Y010148D01*
X005997Y010226D01*
X005873Y010350D01*
X002487Y010350D01*
X002363Y010226D01*
X002174Y010148D01*
X001266Y010148D01*
X001077Y010226D01*
X001010Y010293D01*
X001010Y009067D01*
X001077Y009134D01*
X001266Y009212D01*
X002174Y009212D01*
X002363Y009134D01*
X002507Y008990D01*
X002585Y008802D01*
X002585Y008598D01*
X002507Y008410D01*
X002363Y008266D01*
X002174Y008188D01*
X001266Y008188D01*
X001077Y008266D01*
X001010Y008333D01*
X001010Y005027D01*
X001077Y005094D01*
X001266Y005172D01*
X002174Y005172D01*
X002363Y005094D01*
X002507Y004950D01*
X002585Y004762D01*
X002585Y004558D01*
X002507Y004370D01*
X002363Y004226D01*
X002174Y004148D01*
X001266Y004148D01*
X001077Y004226D01*
X001010Y004293D01*
X001010Y003067D01*
X001077Y003134D01*
X001266Y003212D01*
X002174Y003212D01*
X002363Y003134D01*
X002507Y002990D01*
X002585Y002802D01*
X002585Y002598D01*
X002507Y002410D01*
X002363Y002266D01*
X002174Y002188D01*
X001266Y002188D01*
X001077Y002266D01*
X000933Y002410D01*
X000875Y002550D01*
X000685Y002550D01*
X000660Y002575D01*
X000660Y002558D02*
X000677Y002558D01*
X000660Y002399D02*
X000944Y002399D01*
X001138Y002241D02*
X000660Y002241D01*
X000660Y002082D02*
X003347Y002082D01*
X003345Y002076D02*
X003345Y001744D01*
X003472Y001437D01*
X003707Y001202D01*
X004014Y001075D01*
X004346Y001075D01*
X004653Y001202D01*
X004888Y001437D01*
X005015Y001744D01*
X005015Y002076D01*
X004888Y002383D01*
X004653Y002618D01*
X004346Y002745D01*
X004014Y002745D01*
X003707Y002618D01*
X003472Y002383D01*
X003345Y002076D01*
X003345Y001924D02*
X000660Y001924D01*
X000660Y001765D02*
X003345Y001765D01*
X003402Y001607D02*
X000660Y001607D01*
X000660Y001448D02*
X003468Y001448D01*
X003620Y001290D02*
X000660Y001290D01*
X000660Y001131D02*
X003879Y001131D01*
X004481Y001131D02*
X010879Y001131D01*
X011014Y001075D02*
X010707Y001202D01*
X010472Y001437D01*
X010345Y001744D01*
X010345Y002076D01*
X010472Y002383D01*
X010707Y002618D01*
X011014Y002745D01*
X011346Y002745D01*
X011653Y002618D01*
X011888Y002383D01*
X012015Y002076D01*
X012015Y001744D01*
X011888Y001437D01*
X011653Y001202D01*
X011346Y001075D01*
X011014Y001075D01*
X010620Y001290D02*
X004740Y001290D01*
X004892Y001448D02*
X010468Y001448D01*
X010402Y001607D02*
X004958Y001607D01*
X005015Y001765D02*
X010345Y001765D01*
X010345Y001924D02*
X005015Y001924D01*
X005013Y002082D02*
X010347Y002082D01*
X010413Y002241D02*
X009302Y002241D01*
X009496Y002399D02*
X010488Y002399D01*
X010647Y002558D02*
X009568Y002558D01*
X009585Y002716D02*
X010944Y002716D01*
X011416Y002716D02*
X012775Y002716D01*
X012792Y002558D02*
X011713Y002558D01*
X011872Y002399D02*
X012864Y002399D01*
X013058Y002241D02*
X011947Y002241D01*
X012013Y002082D02*
X017347Y002082D01*
X017345Y002076D02*
X017345Y001744D01*
X017472Y001437D01*
X017707Y001202D01*
X018014Y001075D01*
X018346Y001075D01*
X018653Y001202D01*
X018888Y001437D01*
X019015Y001744D01*
X019015Y002076D01*
X018888Y002383D01*
X018653Y002618D01*
X018346Y002745D01*
X018014Y002745D01*
X017707Y002618D01*
X017472Y002383D01*
X017345Y002076D01*
X017345Y001924D02*
X012015Y001924D01*
X012015Y001765D02*
X017345Y001765D01*
X017402Y001607D02*
X011958Y001607D01*
X011892Y001448D02*
X017468Y001448D01*
X017620Y001290D02*
X011740Y001290D01*
X011481Y001131D02*
X017879Y001131D01*
X018481Y001131D02*
X024879Y001131D01*
X024620Y001290D02*
X018740Y001290D01*
X018892Y001448D02*
X024468Y001448D01*
X024402Y001607D02*
X018958Y001607D01*
X019015Y001765D02*
X024345Y001765D01*
X024345Y001924D02*
X019015Y001924D01*
X019013Y002082D02*
X024347Y002082D01*
X024413Y002241D02*
X023302Y002241D01*
X023496Y002399D02*
X024488Y002399D01*
X025872Y002399D02*
X026864Y002399D01*
X027058Y002241D02*
X025947Y002241D01*
X026013Y002082D02*
X031347Y002082D01*
X031345Y001924D02*
X026015Y001924D01*
X026015Y001765D02*
X031345Y001765D01*
X031413Y002241D02*
X030302Y002241D01*
X030496Y002399D02*
X031488Y002399D01*
X029138Y002241D02*
X028222Y002241D01*
X028416Y002399D02*
X028944Y002399D01*
X028872Y002558D02*
X028488Y002558D01*
X028505Y002716D02*
X028855Y002716D01*
X028885Y002875D02*
X028475Y002875D01*
X028384Y003033D02*
X028976Y003033D01*
X028993Y004310D02*
X028367Y004310D01*
X028427Y004370D01*
X028505Y004558D01*
X028505Y004762D01*
X028427Y004950D01*
X028283Y005094D01*
X028094Y005172D01*
X027186Y005172D01*
X026997Y005094D01*
X026853Y004950D01*
X026795Y004810D01*
X025721Y004810D01*
X025888Y004977D01*
X026015Y005284D01*
X026015Y005616D01*
X025888Y005923D01*
X025761Y006050D01*
X029401Y006050D01*
X029476Y005975D01*
X029608Y005920D01*
X029752Y005920D01*
X029884Y005975D01*
X029985Y006076D01*
X030040Y006208D01*
X030040Y006352D01*
X029999Y006450D01*
X035661Y006450D01*
X035620Y006352D01*
X035620Y006208D01*
X035675Y006076D01*
X035776Y005975D01*
X035908Y005920D01*
X036052Y005920D01*
X036184Y005975D01*
X036259Y006050D01*
X038599Y006050D01*
X038472Y005923D01*
X038345Y005616D01*
X038345Y005284D01*
X038472Y004977D01*
X038639Y004810D01*
X037565Y004810D01*
X037507Y004950D01*
X037363Y005094D01*
X037174Y005172D01*
X036266Y005172D01*
X036077Y005094D01*
X035933Y004950D01*
X035916Y004910D01*
X035444Y004910D01*
X035427Y004950D01*
X035283Y005094D01*
X035094Y005172D01*
X034186Y005172D01*
X033997Y005094D01*
X033853Y004950D01*
X033795Y004810D01*
X032721Y004810D01*
X032888Y004977D01*
X033015Y005284D01*
X033015Y005616D01*
X032888Y005923D01*
X032653Y006158D01*
X032346Y006285D01*
X032014Y006285D01*
X031707Y006158D01*
X031472Y005923D01*
X031345Y005616D01*
X031345Y005284D01*
X031472Y004977D01*
X031639Y004810D01*
X030565Y004810D01*
X030507Y004950D01*
X030363Y005094D01*
X030174Y005172D01*
X029266Y005172D01*
X029077Y005094D01*
X028933Y004950D01*
X028855Y004762D01*
X028855Y004558D01*
X028933Y004370D01*
X028993Y004310D01*
X028896Y004460D02*
X028464Y004460D01*
X028505Y004618D02*
X028855Y004618D01*
X028861Y004777D02*
X028499Y004777D01*
X028433Y004935D02*
X028927Y004935D01*
X029076Y005094D02*
X028284Y005094D01*
X026996Y005094D02*
X025936Y005094D01*
X026002Y005252D02*
X031358Y005252D01*
X031345Y005411D02*
X026015Y005411D01*
X026015Y005569D02*
X031345Y005569D01*
X031391Y005728D02*
X025969Y005728D01*
X025903Y005886D02*
X031457Y005886D01*
X031594Y006045D02*
X029954Y006045D01*
X030038Y006203D02*
X031816Y006203D01*
X032544Y006203D02*
X035622Y006203D01*
X035624Y006362D02*
X030036Y006362D01*
X029406Y006045D02*
X025766Y006045D01*
X025846Y004935D02*
X026847Y004935D01*
X025451Y003826D02*
X010960Y003826D01*
X010801Y003984D02*
X012167Y003984D01*
X012047Y004143D02*
X010643Y004143D01*
X010620Y004301D02*
X012020Y004301D01*
X012065Y004460D02*
X010510Y004460D01*
X010707Y004742D02*
X011014Y004615D01*
X011346Y004615D01*
X011653Y004742D01*
X011888Y004977D01*
X012015Y005284D01*
X012015Y005616D01*
X011888Y005923D01*
X011653Y006158D01*
X011346Y006285D01*
X011014Y006285D01*
X010707Y006158D01*
X010472Y005923D01*
X010345Y005616D01*
X010345Y005284D01*
X010472Y004977D01*
X010707Y004742D01*
X010673Y004777D02*
X009579Y004777D01*
X009585Y004762D02*
X009507Y004950D01*
X009363Y005094D01*
X009174Y005172D01*
X008266Y005172D01*
X008077Y005094D01*
X007933Y004950D01*
X007855Y004762D01*
X007855Y004558D01*
X007933Y004370D01*
X008077Y004226D01*
X008266Y004148D01*
X009174Y004148D01*
X009363Y004226D01*
X009507Y004370D01*
X009585Y004558D01*
X009585Y004762D01*
X009585Y004618D02*
X011007Y004618D01*
X011353Y004618D02*
X012255Y004618D01*
X012505Y004618D02*
X012775Y004618D01*
X012781Y004777D02*
X011687Y004777D01*
X011846Y004935D02*
X012847Y004935D01*
X012996Y005094D02*
X011936Y005094D01*
X012002Y005252D02*
X017358Y005252D01*
X017345Y005411D02*
X012015Y005411D01*
X012015Y005569D02*
X017345Y005569D01*
X017391Y005728D02*
X011969Y005728D01*
X011903Y005886D02*
X017457Y005886D01*
X017594Y006045D02*
X011766Y006045D01*
X011544Y006203D02*
X017816Y006203D01*
X017773Y006362D02*
X007810Y006362D01*
X007810Y006520D02*
X017615Y006520D01*
X017456Y006679D02*
X007810Y006679D01*
X007810Y006837D02*
X017167Y006837D01*
X016967Y006996D02*
X007810Y006996D01*
X007810Y007154D02*
X010823Y007154D01*
X010597Y007313D02*
X007810Y007313D01*
X007810Y007471D02*
X010458Y007471D01*
X010392Y007630D02*
X007810Y007630D01*
X007810Y007788D02*
X010345Y007788D01*
X010345Y007947D02*
X007810Y007947D01*
X007810Y008105D02*
X010357Y008105D01*
X010423Y008264D02*
X009358Y008264D01*
X009512Y008422D02*
X010511Y008422D01*
X011849Y008422D02*
X012848Y008422D01*
X013002Y008264D02*
X011937Y008264D01*
X012003Y008105D02*
X017357Y008105D01*
X017345Y007947D02*
X012015Y007947D01*
X012015Y007788D02*
X017345Y007788D01*
X017392Y007630D02*
X011968Y007630D01*
X011902Y007471D02*
X017062Y007471D01*
X016945Y007313D02*
X011763Y007313D01*
X011537Y007154D02*
X016920Y007154D01*
X017423Y008264D02*
X016358Y008264D01*
X016512Y008422D02*
X017511Y008422D01*
X015082Y008264D02*
X014278Y008264D01*
X014432Y008422D02*
X014928Y008422D01*
X014862Y008581D02*
X014498Y008581D01*
X014505Y008739D02*
X014855Y008739D01*
X014895Y008898D02*
X014465Y008898D01*
X014138Y010166D02*
X015222Y010166D01*
X014979Y010324D02*
X014381Y010324D01*
X014474Y010483D02*
X014886Y010483D01*
X014855Y010641D02*
X014505Y010641D01*
X014489Y010800D02*
X014871Y010800D01*
X014941Y010958D02*
X014419Y010958D01*
X014230Y011117D02*
X015130Y011117D01*
X016310Y011117D02*
X017414Y011117D01*
X017349Y011275D02*
X012011Y011275D01*
X012015Y011434D02*
X017345Y011434D01*
X017345Y011592D02*
X012015Y011592D01*
X011959Y011751D02*
X017401Y011751D01*
X017466Y011909D02*
X011894Y011909D01*
X010466Y011909D02*
X004894Y011909D01*
X004959Y011751D02*
X010401Y011751D01*
X010345Y011592D02*
X005015Y011592D01*
X005015Y011434D02*
X010345Y011434D01*
X010349Y011275D02*
X005011Y011275D01*
X004946Y011117D02*
X006050Y011117D01*
X005861Y010958D02*
X004869Y010958D01*
X005899Y010324D02*
X002461Y010324D01*
X002218Y010166D02*
X006142Y010166D01*
X007138Y010166D02*
X008222Y010166D01*
X007979Y010324D02*
X007381Y010324D01*
X007474Y010483D02*
X007886Y010483D01*
X007855Y010641D02*
X007505Y010641D01*
X007489Y010800D02*
X007871Y010800D01*
X007941Y010958D02*
X007419Y010958D01*
X007230Y011117D02*
X008130Y011117D01*
X009310Y011117D02*
X010414Y011117D01*
X010491Y010958D02*
X009499Y010958D01*
X009461Y010324D02*
X012899Y010324D01*
X013142Y010166D02*
X009218Y010166D01*
X007948Y009373D02*
X001010Y009373D01*
X001010Y009215D02*
X007789Y009215D01*
X007631Y009056D02*
X007361Y009056D01*
X007465Y008898D02*
X007472Y008898D01*
X007810Y008581D02*
X007862Y008581D01*
X007810Y008422D02*
X007928Y008422D01*
X007810Y008264D02*
X008082Y008264D01*
X007350Y008264D02*
X007278Y008264D01*
X007350Y008105D02*
X005003Y008105D01*
X005015Y008076D02*
X004888Y008383D01*
X004653Y008618D01*
X004346Y008745D01*
X004014Y008745D01*
X003707Y008618D01*
X003472Y008383D01*
X003345Y008076D01*
X003345Y007744D01*
X003472Y007437D01*
X003707Y007202D01*
X004014Y007075D01*
X004346Y007075D01*
X004653Y007202D01*
X004888Y007437D01*
X005015Y007744D01*
X005015Y008076D01*
X005015Y007947D02*
X007350Y007947D01*
X007350Y007788D02*
X005015Y007788D01*
X004968Y007630D02*
X007350Y007630D01*
X007350Y007471D02*
X004902Y007471D01*
X004763Y007313D02*
X007350Y007313D01*
X007350Y007154D02*
X004537Y007154D01*
X003823Y007154D02*
X001010Y007154D01*
X001010Y006996D02*
X007350Y006996D01*
X007350Y006837D02*
X001010Y006837D01*
X001010Y006679D02*
X007350Y006679D01*
X007350Y006520D02*
X001010Y006520D01*
X001010Y006362D02*
X007350Y006362D01*
X007350Y006203D02*
X004544Y006203D01*
X004653Y006158D02*
X004346Y006285D01*
X004014Y006285D01*
X003707Y006158D01*
X003472Y005923D01*
X003345Y005616D01*
X003345Y005284D01*
X003472Y004977D01*
X003707Y004742D01*
X004014Y004615D01*
X004346Y004615D01*
X004653Y004742D01*
X004888Y004977D01*
X005015Y005284D01*
X005015Y005616D01*
X004888Y005923D01*
X004653Y006158D01*
X004766Y006045D02*
X007350Y006045D01*
X007350Y005886D02*
X004903Y005886D01*
X004969Y005728D02*
X007350Y005728D01*
X007350Y005569D02*
X005015Y005569D01*
X005015Y005411D02*
X007350Y005411D01*
X007350Y005252D02*
X005002Y005252D01*
X004936Y005094D02*
X005996Y005094D01*
X005847Y004935D02*
X004846Y004935D01*
X004687Y004777D02*
X005781Y004777D01*
X005775Y004618D02*
X004353Y004618D01*
X004007Y004618D02*
X002585Y004618D01*
X002579Y004777D02*
X003673Y004777D01*
X003514Y004935D02*
X002513Y004935D01*
X002364Y005094D02*
X003424Y005094D01*
X003358Y005252D02*
X001010Y005252D01*
X001010Y005094D02*
X001076Y005094D01*
X001010Y005411D02*
X003345Y005411D01*
X003345Y005569D02*
X001010Y005569D01*
X001010Y005728D02*
X003391Y005728D01*
X003457Y005886D02*
X001010Y005886D01*
X001010Y006045D02*
X003594Y006045D01*
X003816Y006203D02*
X001010Y006203D01*
X001010Y007313D02*
X003597Y007313D01*
X003458Y007471D02*
X001010Y007471D01*
X001010Y007630D02*
X003392Y007630D01*
X003345Y007788D02*
X001010Y007788D01*
X001010Y007947D02*
X003345Y007947D01*
X003357Y008105D02*
X001010Y008105D01*
X001010Y008264D02*
X001082Y008264D01*
X002358Y008264D02*
X003423Y008264D01*
X003511Y008422D02*
X002512Y008422D01*
X002578Y008581D02*
X003670Y008581D01*
X003999Y008739D02*
X002585Y008739D01*
X002545Y008898D02*
X005815Y008898D01*
X005775Y008739D02*
X004361Y008739D01*
X004690Y008581D02*
X005782Y008581D01*
X005848Y008422D02*
X004849Y008422D01*
X004937Y008264D02*
X006002Y008264D01*
X005919Y009056D02*
X002441Y009056D01*
X001010Y009532D02*
X037006Y009532D01*
X037165Y009690D02*
X001010Y009690D01*
X001010Y009849D02*
X019240Y009849D01*
X019062Y010007D02*
X001010Y010007D01*
X001010Y010166D02*
X001222Y010166D01*
X004004Y013410D02*
X004100Y013506D01*
X004100Y013854D01*
X003854Y014100D01*
X003585Y014100D01*
X003410Y014275D01*
X003275Y014410D01*
X001485Y014410D01*
X001085Y014010D01*
X001010Y013935D01*
X001010Y017985D01*
X001580Y018554D01*
X001583Y018537D01*
X001612Y018445D01*
X001656Y018359D01*
X001713Y018281D01*
X001781Y018213D01*
X001859Y018156D01*
X001945Y018112D01*
X002037Y018083D01*
X002132Y018068D01*
X002132Y018067D01*
X002132Y018632D01*
X002228Y018632D01*
X002228Y018728D01*
X002792Y018728D01*
X002777Y018823D01*
X002748Y018915D01*
X002704Y019001D01*
X002647Y019079D01*
X002579Y019147D01*
X002501Y019204D01*
X002415Y019248D01*
X002323Y019277D01*
X002306Y019280D01*
X003638Y020612D01*
X003638Y020572D01*
X003720Y020373D01*
X003873Y020220D01*
X004072Y020138D01*
X004288Y020138D01*
X004487Y020220D01*
X004640Y020373D01*
X004722Y020572D01*
X004722Y020788D01*
X004690Y020865D01*
X005475Y021650D01*
X015370Y021650D01*
X015242Y021576D01*
X015034Y021368D01*
X014886Y021112D01*
X014810Y020827D01*
X014810Y020533D01*
X014886Y020248D01*
X015034Y019992D01*
X015242Y019784D01*
X015370Y019710D01*
X012475Y019710D01*
X011690Y020495D01*
X011722Y020572D01*
X011722Y020788D01*
X011640Y020987D01*
X011487Y021140D01*
X011288Y021222D01*
X011072Y021222D01*
X010873Y021140D01*
X010720Y020987D01*
X010638Y020788D01*
X010638Y020572D01*
X010720Y020373D01*
X010873Y020220D01*
X011072Y020138D01*
X011288Y020138D01*
X011365Y020170D01*
X012150Y019385D01*
X012285Y019250D01*
X012952Y019250D01*
X012945Y019248D01*
X012859Y019204D01*
X012781Y019147D01*
X012713Y019079D01*
X012656Y019001D01*
X012612Y018915D01*
X012583Y018823D01*
X012568Y018728D01*
X012568Y018728D01*
X013132Y018728D01*
X013132Y018632D01*
X013228Y018632D01*
X013228Y018728D01*
X013792Y018728D01*
X013777Y018823D01*
X013748Y018915D01*
X013704Y019001D01*
X013647Y019079D01*
X013579Y019147D01*
X013501Y019204D01*
X013415Y019248D01*
X013408Y019250D01*
X024844Y019250D01*
X024861Y019210D01*
X018685Y019210D01*
X018070Y018595D01*
X018017Y018617D01*
X017843Y018617D01*
X017682Y018551D01*
X017559Y018428D01*
X017493Y018267D01*
X017493Y018093D01*
X017559Y017932D01*
X017682Y017809D01*
X017843Y017743D01*
X018017Y017743D01*
X018178Y017809D01*
X018301Y017932D01*
X018367Y018093D01*
X018367Y018242D01*
X018875Y018750D01*
X029571Y018750D01*
X029568Y018728D01*
X029568Y018728D01*
X030132Y018728D01*
X030132Y018632D01*
X030228Y018632D01*
X030228Y018728D01*
X030792Y018728D01*
X030777Y018823D01*
X030748Y018915D01*
X030704Y019001D01*
X030647Y019079D01*
X030579Y019147D01*
X030501Y019204D01*
X030415Y019248D01*
X030323Y019277D01*
X030306Y019280D01*
X030475Y019450D01*
X030901Y019450D01*
X030976Y019375D01*
X031108Y019320D01*
X031252Y019320D01*
X031384Y019375D01*
X031485Y019476D01*
X031540Y019608D01*
X031540Y019752D01*
X031499Y019850D01*
X038675Y019850D01*
X038995Y020170D01*
X039072Y020138D01*
X039288Y020138D01*
X039365Y020170D01*
X039885Y019650D01*
X044175Y019650D01*
X044310Y019785D01*
X044310Y019800D01*
X044380Y019731D01*
X044502Y019680D01*
X044380Y019629D01*
X044231Y019480D01*
X044150Y019285D01*
X044150Y019075D01*
X044179Y019004D01*
X043485Y018310D01*
X041668Y018310D01*
X041704Y018359D01*
X041748Y018445D01*
X041777Y018537D01*
X041792Y018632D01*
X041792Y018632D01*
X041228Y018632D01*
X041228Y018728D01*
X041132Y018728D01*
X041132Y019292D01*
X041037Y019277D01*
X040945Y019248D01*
X040859Y019204D01*
X040781Y019147D01*
X040713Y019079D01*
X040656Y019001D01*
X040612Y018915D01*
X040583Y018823D01*
X040568Y018728D01*
X040568Y018728D01*
X041132Y018728D01*
X041132Y018632D01*
X040568Y018632D01*
X040583Y018537D01*
X040612Y018445D01*
X040656Y018359D01*
X040692Y018310D01*
X037668Y018310D01*
X037704Y018359D01*
X037748Y018445D01*
X037777Y018537D01*
X037792Y018632D01*
X037792Y018632D01*
X037228Y018632D01*
X037228Y018728D01*
X037132Y018728D01*
X037132Y019292D01*
X037037Y019277D01*
X036945Y019248D01*
X036859Y019204D01*
X036781Y019147D01*
X036713Y019079D01*
X036656Y019001D01*
X036612Y018915D01*
X036583Y018823D01*
X036568Y018728D01*
X036568Y018728D01*
X037132Y018728D01*
X037132Y018632D01*
X036568Y018632D01*
X036583Y018537D01*
X036612Y018445D01*
X036656Y018359D01*
X036692Y018310D01*
X035085Y018310D01*
X034585Y017810D01*
X034494Y017720D01*
X034418Y017796D01*
X034264Y017860D01*
X034096Y017860D01*
X033942Y017796D01*
X033824Y017678D01*
X033760Y017524D01*
X033760Y017085D01*
X033600Y016925D01*
X033600Y017524D01*
X033536Y017678D01*
X033418Y017796D01*
X033264Y017860D01*
X033096Y017860D01*
X032942Y017796D01*
X032824Y017678D01*
X032760Y017524D01*
X032760Y016836D01*
X032812Y016710D01*
X032548Y016710D01*
X032600Y016836D01*
X032600Y017524D01*
X032536Y017678D01*
X032418Y017796D01*
X032264Y017860D01*
X032096Y017860D01*
X031942Y017796D01*
X031824Y017678D01*
X031760Y017524D01*
X031760Y016836D01*
X031812Y016710D01*
X028275Y016710D01*
X028240Y016745D01*
X028240Y016852D01*
X028185Y016984D01*
X028084Y017085D01*
X027952Y017140D01*
X027808Y017140D01*
X027676Y017085D01*
X027575Y016984D01*
X027520Y016852D01*
X027520Y016708D01*
X027561Y016610D01*
X024135Y016610D01*
X024290Y016765D01*
X024343Y016743D01*
X024517Y016743D01*
X024678Y016809D01*
X024801Y016932D01*
X024867Y017093D01*
X024867Y017267D01*
X024801Y017428D01*
X024678Y017551D01*
X024517Y017617D01*
X024343Y017617D01*
X024182Y017551D01*
X024059Y017428D01*
X023993Y017267D01*
X023993Y017118D01*
X023485Y016610D01*
X023135Y016610D01*
X023290Y016765D01*
X023343Y016743D01*
X023517Y016743D01*
X023678Y016809D01*
X023801Y016932D01*
X023867Y017093D01*
X023867Y017267D01*
X023801Y017428D01*
X023678Y017551D01*
X023517Y017617D01*
X023343Y017617D01*
X023182Y017551D01*
X023059Y017428D01*
X022993Y017267D01*
X022993Y017118D01*
X022785Y016910D01*
X019861Y016910D01*
X019864Y016914D01*
X019900Y016985D01*
X019925Y017061D01*
X019937Y017140D01*
X019937Y017171D01*
X019439Y017171D01*
X019439Y017189D01*
X019937Y017189D01*
X019937Y017220D01*
X019925Y017299D01*
X019900Y017375D01*
X019864Y017446D01*
X019817Y017510D01*
X019760Y017567D01*
X019696Y017614D01*
X019625Y017650D01*
X019549Y017675D01*
X019470Y017687D01*
X019439Y017687D01*
X019439Y017189D01*
X019421Y017189D01*
X019421Y017687D01*
X019390Y017687D01*
X019311Y017675D01*
X019235Y017650D01*
X019164Y017614D01*
X019100Y017567D01*
X019043Y017510D01*
X018996Y017446D01*
X018960Y017375D01*
X018935Y017299D01*
X018923Y017220D01*
X018923Y017189D01*
X019421Y017189D01*
X019421Y017171D01*
X018923Y017171D01*
X018923Y017140D01*
X018935Y017061D01*
X018960Y016985D01*
X018996Y016914D01*
X018999Y016910D01*
X018778Y016910D01*
X018801Y016932D01*
X018867Y017093D01*
X018867Y017267D01*
X018801Y017428D01*
X018678Y017551D01*
X018517Y017617D01*
X018343Y017617D01*
X018182Y017551D01*
X018059Y017428D01*
X017993Y017267D01*
X017993Y017093D01*
X018059Y016932D01*
X018082Y016910D01*
X017778Y016910D01*
X017801Y016932D01*
X017867Y017093D01*
X017867Y017267D01*
X017801Y017428D01*
X017678Y017551D01*
X017517Y017617D01*
X017343Y017617D01*
X017182Y017551D01*
X017059Y017428D01*
X016993Y017267D01*
X016993Y017093D01*
X017059Y016932D01*
X017082Y016910D01*
X017075Y016910D01*
X016867Y017118D01*
X016867Y017267D01*
X016801Y017428D01*
X016678Y017551D01*
X016517Y017617D01*
X016343Y017617D01*
X016182Y017551D01*
X016059Y017428D01*
X015993Y017267D01*
X015993Y017093D01*
X016059Y016932D01*
X016182Y016809D01*
X016343Y016743D01*
X016517Y016743D01*
X016570Y016765D01*
X016750Y016585D01*
X016885Y016450D01*
X017961Y016450D01*
X017920Y016352D01*
X017920Y016208D01*
X017975Y016076D01*
X018076Y015975D01*
X018208Y015920D01*
X018352Y015920D01*
X018484Y015975D01*
X018585Y016076D01*
X018616Y016150D01*
X027785Y016150D01*
X027920Y016015D01*
X027920Y015908D01*
X027961Y015810D01*
X015399Y015810D01*
X015440Y015908D01*
X015440Y016052D01*
X015385Y016184D01*
X015284Y016285D01*
X015152Y016340D01*
X015008Y016340D01*
X014876Y016285D01*
X014801Y016210D01*
X011475Y016210D01*
X011250Y016435D01*
X011295Y016442D01*
X011368Y016466D01*
X011437Y016501D01*
X011499Y016546D01*
X011554Y016601D01*
X011599Y016663D01*
X011634Y016732D01*
X011658Y016805D01*
X011670Y016881D01*
X011670Y017180D01*
X011670Y017479D01*
X011658Y017555D01*
X011634Y017628D01*
X011599Y017697D01*
X011554Y017759D01*
X011499Y017814D01*
X011437Y017859D01*
X011368Y017894D01*
X011295Y017918D01*
X011219Y017930D01*
X011180Y017930D01*
X011180Y017180D01*
X011180Y017180D01*
X011670Y017180D01*
X011180Y017180D01*
X011180Y017180D01*
X011180Y017180D01*
X010690Y017180D01*
X010690Y017479D01*
X010702Y017555D01*
X010726Y017628D01*
X010761Y017697D01*
X010806Y017759D01*
X010861Y017814D01*
X010923Y017859D01*
X010992Y017894D01*
X011065Y017918D01*
X011141Y017930D01*
X011180Y017930D01*
X011180Y017180D01*
X010690Y017180D01*
X010690Y016995D01*
X010600Y017085D01*
X010600Y017524D01*
X010536Y017678D01*
X010418Y017796D01*
X010264Y017860D01*
X010096Y017860D01*
X009942Y017796D01*
X009824Y017678D01*
X009760Y017524D01*
X009760Y016836D01*
X009824Y016682D01*
X009942Y016564D01*
X010096Y016500D01*
X010264Y016500D01*
X010418Y016564D01*
X010444Y016590D01*
X011225Y015810D01*
X007559Y015810D01*
X007484Y015885D01*
X007352Y015940D01*
X007208Y015940D01*
X007076Y015885D01*
X006975Y015784D01*
X006920Y015652D01*
X006920Y015508D01*
X006961Y015410D01*
X005085Y015410D01*
X004950Y015275D01*
X004950Y014004D01*
X004854Y014100D01*
X004506Y014100D01*
X004260Y013854D01*
X004260Y013506D01*
X004356Y013410D01*
X004004Y013410D01*
X004088Y013494D02*
X004272Y013494D01*
X004260Y013653D02*
X004100Y013653D01*
X004100Y013811D02*
X004260Y013811D01*
X004376Y013970D02*
X003984Y013970D01*
X003557Y014128D02*
X004950Y014128D01*
X004950Y014287D02*
X003399Y014287D01*
X004950Y014445D02*
X001010Y014445D01*
X001010Y014287D02*
X001361Y014287D01*
X001203Y014128D02*
X001010Y014128D01*
X001010Y013970D02*
X001044Y013970D01*
X001010Y014604D02*
X004950Y014604D01*
X004950Y014762D02*
X001010Y014762D01*
X001010Y014921D02*
X004950Y014921D01*
X004950Y015079D02*
X001010Y015079D01*
X001010Y015238D02*
X004950Y015238D01*
X005071Y015396D02*
X001010Y015396D01*
X001010Y015555D02*
X006920Y015555D01*
X006945Y015713D02*
X001010Y015713D01*
X001010Y015872D02*
X007062Y015872D01*
X007498Y015872D02*
X011163Y015872D01*
X011005Y016030D02*
X001010Y016030D01*
X001010Y016189D02*
X010846Y016189D01*
X010688Y016347D02*
X001010Y016347D01*
X001010Y016506D02*
X004083Y016506D01*
X004096Y016500D02*
X004264Y016500D01*
X004418Y016564D01*
X004536Y016682D01*
X004600Y016836D01*
X004600Y017524D01*
X004536Y017678D01*
X004418Y017796D01*
X004264Y017860D01*
X004096Y017860D01*
X003942Y017796D01*
X003824Y017678D01*
X003760Y017524D01*
X003760Y016836D01*
X003824Y016682D01*
X003942Y016564D01*
X004096Y016500D01*
X004277Y016506D02*
X005083Y016506D01*
X005096Y016500D02*
X005264Y016500D01*
X005418Y016564D01*
X005536Y016682D01*
X005600Y016836D01*
X005600Y017524D01*
X005536Y017678D01*
X005418Y017796D01*
X005264Y017860D01*
X005096Y017860D01*
X004942Y017796D01*
X004824Y017678D01*
X004760Y017524D01*
X004760Y016836D01*
X004824Y016682D01*
X004942Y016564D01*
X005096Y016500D01*
X005277Y016506D02*
X006083Y016506D01*
X006096Y016500D02*
X006264Y016500D01*
X006418Y016564D01*
X006536Y016682D01*
X006600Y016836D01*
X006600Y017524D01*
X006536Y017678D01*
X006418Y017796D01*
X006264Y017860D01*
X006096Y017860D01*
X005942Y017796D01*
X005824Y017678D01*
X005760Y017524D01*
X005760Y016836D01*
X005824Y016682D01*
X005942Y016564D01*
X006096Y016500D01*
X006277Y016506D02*
X007083Y016506D01*
X007096Y016500D02*
X007264Y016500D01*
X007418Y016564D01*
X007536Y016682D01*
X007600Y016836D01*
X007600Y017524D01*
X007536Y017678D01*
X007418Y017796D01*
X007264Y017860D01*
X007096Y017860D01*
X006942Y017796D01*
X006824Y017678D01*
X006760Y017524D01*
X006760Y016836D01*
X006824Y016682D01*
X006942Y016564D01*
X007096Y016500D01*
X007277Y016506D02*
X008083Y016506D01*
X008096Y016500D02*
X008264Y016500D01*
X008418Y016564D01*
X008536Y016682D01*
X008600Y016836D01*
X008600Y017524D01*
X008536Y017678D01*
X008418Y017796D01*
X008264Y017860D01*
X008096Y017860D01*
X007942Y017796D01*
X007824Y017678D01*
X007760Y017524D01*
X007760Y016836D01*
X007824Y016682D01*
X007942Y016564D01*
X008096Y016500D01*
X008277Y016506D02*
X009083Y016506D01*
X009096Y016500D02*
X009264Y016500D01*
X009418Y016564D01*
X009536Y016682D01*
X009600Y016836D01*
X009600Y017524D01*
X009536Y017678D01*
X009418Y017796D01*
X009264Y017860D01*
X009096Y017860D01*
X008942Y017796D01*
X008824Y017678D01*
X008760Y017524D01*
X008760Y016836D01*
X008824Y016682D01*
X008942Y016564D01*
X009096Y016500D01*
X009277Y016506D02*
X010083Y016506D01*
X010277Y016506D02*
X010529Y016506D01*
X009842Y016664D02*
X009518Y016664D01*
X009594Y016823D02*
X009766Y016823D01*
X009760Y016981D02*
X009600Y016981D01*
X009600Y017140D02*
X009760Y017140D01*
X009760Y017298D02*
X009600Y017298D01*
X009600Y017457D02*
X009760Y017457D01*
X009798Y017615D02*
X009562Y017615D01*
X009440Y017774D02*
X009920Y017774D01*
X010440Y017774D02*
X010821Y017774D01*
X010722Y017615D02*
X010562Y017615D01*
X010600Y017457D02*
X010690Y017457D01*
X010690Y017298D02*
X010600Y017298D01*
X010600Y017140D02*
X010690Y017140D01*
X011180Y017298D02*
X011180Y017298D01*
X011180Y017457D02*
X011180Y017457D01*
X011180Y017615D02*
X011180Y017615D01*
X011180Y017774D02*
X011180Y017774D01*
X011539Y017774D02*
X016769Y017774D01*
X016843Y017743D02*
X017017Y017743D01*
X017178Y017809D01*
X017301Y017932D01*
X017367Y018093D01*
X017367Y018267D01*
X017301Y018428D01*
X017178Y018551D01*
X017017Y018617D01*
X016843Y018617D01*
X016682Y018551D01*
X016559Y018428D01*
X016493Y018267D01*
X016493Y018093D01*
X016559Y017932D01*
X016682Y017809D01*
X016843Y017743D01*
X017091Y017774D02*
X017769Y017774D01*
X017560Y017932D02*
X017300Y017932D01*
X017366Y018091D02*
X017494Y018091D01*
X017493Y018249D02*
X017367Y018249D01*
X017309Y018408D02*
X017551Y018408D01*
X017720Y018566D02*
X017140Y018566D01*
X016720Y018566D02*
X013782Y018566D01*
X013777Y018537D02*
X013792Y018632D01*
X013792Y018632D01*
X013228Y018632D01*
X013228Y018068D01*
X013323Y018083D01*
X013415Y018112D01*
X013501Y018156D01*
X013579Y018213D01*
X013647Y018281D01*
X013704Y018359D01*
X013748Y018445D01*
X013777Y018537D01*
X013729Y018408D02*
X016551Y018408D01*
X016493Y018249D02*
X013615Y018249D01*
X013348Y018091D02*
X016494Y018091D01*
X016560Y017932D02*
X001010Y017932D01*
X001010Y017774D02*
X003920Y017774D01*
X003798Y017615D02*
X001010Y017615D01*
X001010Y017457D02*
X003760Y017457D01*
X003760Y017298D02*
X001010Y017298D01*
X001010Y017140D02*
X003760Y017140D01*
X003760Y016981D02*
X001010Y016981D01*
X001010Y016823D02*
X003766Y016823D01*
X003842Y016664D02*
X001010Y016664D01*
X001116Y018091D02*
X002012Y018091D01*
X002132Y018091D02*
X002228Y018091D01*
X002228Y018068D02*
X002323Y018083D01*
X002415Y018112D01*
X002501Y018156D01*
X002579Y018213D01*
X002647Y018281D01*
X002704Y018359D01*
X002748Y018445D01*
X002777Y018537D01*
X002792Y018632D01*
X002792Y018632D01*
X002228Y018632D01*
X002228Y018068D01*
X002228Y018068D01*
X002348Y018091D02*
X006012Y018091D01*
X006037Y018083D02*
X006132Y018068D01*
X006132Y018067D01*
X006132Y018632D01*
X006228Y018632D01*
X006228Y018728D01*
X006792Y018728D01*
X006777Y018823D01*
X006748Y018915D01*
X006704Y019001D01*
X006647Y019079D01*
X006579Y019147D01*
X006501Y019204D01*
X006415Y019248D01*
X006323Y019277D01*
X006228Y019292D01*
X006228Y019292D01*
X006228Y018728D01*
X006132Y018728D01*
X006132Y019292D01*
X006037Y019277D01*
X005945Y019248D01*
X005859Y019204D01*
X005781Y019147D01*
X005713Y019079D01*
X005656Y019001D01*
X005612Y018915D01*
X005583Y018823D01*
X005568Y018728D01*
X005568Y018728D01*
X006132Y018728D01*
X006132Y018632D01*
X005568Y018632D01*
X005583Y018537D01*
X005612Y018445D01*
X005656Y018359D01*
X005713Y018281D01*
X005781Y018213D01*
X005859Y018156D01*
X005945Y018112D01*
X006037Y018083D01*
X006132Y018091D02*
X006228Y018091D01*
X006228Y018068D02*
X006323Y018083D01*
X006415Y018112D01*
X006501Y018156D01*
X006579Y018213D01*
X006647Y018281D01*
X006704Y018359D01*
X006748Y018445D01*
X006777Y018537D01*
X006792Y018632D01*
X006792Y018632D01*
X006228Y018632D01*
X006228Y018068D01*
X006228Y018068D01*
X006348Y018091D02*
X009012Y018091D01*
X009037Y018083D02*
X009132Y018068D01*
X009132Y018067D01*
X009132Y018632D01*
X009228Y018632D01*
X009228Y018728D01*
X009792Y018728D01*
X009777Y018823D01*
X009748Y018915D01*
X009704Y019001D01*
X009647Y019079D01*
X009579Y019147D01*
X009501Y019204D01*
X009415Y019248D01*
X009323Y019277D01*
X009228Y019292D01*
X009228Y019292D01*
X009228Y018728D01*
X009132Y018728D01*
X009132Y019292D01*
X009037Y019277D01*
X008945Y019248D01*
X008859Y019204D01*
X008781Y019147D01*
X008713Y019079D01*
X008656Y019001D01*
X008612Y018915D01*
X008583Y018823D01*
X008568Y018728D01*
X008568Y018728D01*
X009132Y018728D01*
X009132Y018632D01*
X008568Y018632D01*
X008583Y018537D01*
X008612Y018445D01*
X008656Y018359D01*
X008713Y018281D01*
X008781Y018213D01*
X008859Y018156D01*
X008945Y018112D01*
X009037Y018083D01*
X009132Y018091D02*
X009228Y018091D01*
X009228Y018068D02*
X009323Y018083D01*
X009415Y018112D01*
X009501Y018156D01*
X009579Y018213D01*
X009647Y018281D01*
X009704Y018359D01*
X009748Y018445D01*
X009777Y018537D01*
X009792Y018632D01*
X009792Y018632D01*
X009228Y018632D01*
X009228Y018068D01*
X009228Y018068D01*
X009348Y018091D02*
X013012Y018091D01*
X013037Y018083D02*
X013132Y018068D01*
X013132Y018067D01*
X013132Y018632D01*
X012568Y018632D01*
X012583Y018537D01*
X012612Y018445D01*
X012656Y018359D01*
X012713Y018281D01*
X012781Y018213D01*
X012859Y018156D01*
X012945Y018112D01*
X013037Y018083D01*
X013132Y018091D02*
X013228Y018091D01*
X013228Y018068D02*
X013228Y018068D01*
X013228Y018249D02*
X013132Y018249D01*
X013132Y018408D02*
X013228Y018408D01*
X013228Y018566D02*
X013132Y018566D01*
X013132Y018725D02*
X009228Y018725D01*
X009132Y018725D02*
X006228Y018725D01*
X006132Y018725D02*
X002228Y018725D01*
X002228Y018566D02*
X002132Y018566D01*
X002132Y018408D02*
X002228Y018408D01*
X002228Y018249D02*
X002132Y018249D01*
X001745Y018249D02*
X001274Y018249D01*
X001433Y018408D02*
X001631Y018408D01*
X001258Y018883D02*
X000660Y018883D01*
X000660Y018725D02*
X001099Y018725D01*
X000941Y018566D02*
X000660Y018566D01*
X000660Y018408D02*
X000782Y018408D01*
X000685Y018310D02*
X000660Y018285D01*
X000660Y024196D01*
X056570Y024196D01*
X056570Y020615D01*
X056181Y021004D01*
X056210Y021075D01*
X056210Y021285D01*
X056129Y021480D01*
X055980Y021629D01*
X055785Y021710D01*
X055575Y021710D01*
X055380Y021629D01*
X055231Y021480D01*
X055150Y021285D01*
X055150Y021075D01*
X055231Y020880D01*
X055380Y020731D01*
X055502Y020680D01*
X055380Y020629D01*
X055231Y020480D01*
X055150Y020285D01*
X055150Y020075D01*
X055231Y019880D01*
X055380Y019731D01*
X055413Y019717D01*
X055366Y019693D01*
X055289Y019638D01*
X055222Y019571D01*
X055167Y019494D01*
X055124Y019410D01*
X055095Y019320D01*
X055080Y019227D01*
X055080Y019200D01*
X055660Y019200D01*
X055660Y019160D01*
X055080Y019160D01*
X055080Y019133D01*
X055095Y019039D01*
X055124Y018950D01*
X055167Y018866D01*
X055222Y018789D01*
X055289Y018722D01*
X055366Y018667D01*
X055413Y018643D01*
X055380Y018629D01*
X055231Y018480D01*
X055150Y018285D01*
X055150Y018075D01*
X055178Y018007D01*
X053832Y019353D01*
X053884Y019375D01*
X053985Y019476D01*
X054040Y019608D01*
X054040Y019752D01*
X053985Y019884D01*
X053884Y019985D01*
X053752Y020040D01*
X053645Y020040D01*
X049910Y023775D01*
X049775Y023910D01*
X006285Y023910D01*
X000685Y018310D01*
X000660Y019042D02*
X001416Y019042D01*
X001575Y019200D02*
X000660Y019200D01*
X000660Y019359D02*
X001733Y019359D01*
X001892Y019517D02*
X000660Y019517D01*
X000660Y019676D02*
X002050Y019676D01*
X002209Y019834D02*
X000660Y019834D01*
X000660Y019993D02*
X002367Y019993D01*
X002526Y020151D02*
X000660Y020151D01*
X000660Y020310D02*
X002684Y020310D01*
X002843Y020468D02*
X000660Y020468D01*
X000660Y020627D02*
X003001Y020627D01*
X003160Y020785D02*
X000660Y020785D01*
X000660Y020944D02*
X003318Y020944D01*
X003477Y021102D02*
X000660Y021102D01*
X000660Y021261D02*
X003635Y021261D01*
X003794Y021419D02*
X000660Y021419D01*
X000660Y021578D02*
X003952Y021578D01*
X004111Y021736D02*
X000660Y021736D01*
X000660Y021895D02*
X004269Y021895D01*
X004428Y022053D02*
X000660Y022053D01*
X000660Y022212D02*
X001783Y022212D01*
X001781Y022213D02*
X001859Y022156D01*
X001945Y022112D01*
X002037Y022083D01*
X002132Y022068D01*
X002132Y022067D01*
X002132Y022632D01*
X002228Y022632D01*
X002228Y022728D01*
X002792Y022728D01*
X002777Y022823D01*
X002748Y022915D01*
X002704Y023001D01*
X002647Y023079D01*
X002579Y023147D01*
X002501Y023204D01*
X002415Y023248D01*
X002323Y023277D01*
X002228Y023292D01*
X002228Y023292D01*
X002228Y022728D01*
X002132Y022728D01*
X002132Y023292D01*
X002037Y023277D01*
X001945Y023248D01*
X001859Y023204D01*
X001781Y023147D01*
X001713Y023079D01*
X001656Y023001D01*
X001612Y022915D01*
X001583Y022823D01*
X001568Y022728D01*
X001568Y022728D01*
X002132Y022728D01*
X002132Y022632D01*
X001568Y022632D01*
X001583Y022537D01*
X001612Y022445D01*
X001656Y022359D01*
X001713Y022281D01*
X001781Y022213D01*
X001651Y022370D02*
X000660Y022370D01*
X000660Y022529D02*
X001585Y022529D01*
X001568Y022632D02*
X001568Y022632D01*
X001590Y022846D02*
X000660Y022846D01*
X000660Y023004D02*
X001658Y023004D01*
X001802Y023163D02*
X000660Y023163D01*
X000660Y023321D02*
X005696Y023321D01*
X005854Y023480D02*
X000660Y023480D01*
X000660Y023638D02*
X006013Y023638D01*
X006171Y023797D02*
X000660Y023797D01*
X000660Y023955D02*
X056570Y023955D01*
X056570Y023797D02*
X049889Y023797D01*
X050047Y023638D02*
X056570Y023638D01*
X056570Y023480D02*
X050206Y023480D01*
X050364Y023321D02*
X056570Y023321D01*
X056570Y023163D02*
X050523Y023163D01*
X050681Y023004D02*
X056570Y023004D01*
X056570Y022846D02*
X050840Y022846D01*
X050998Y022687D02*
X056570Y022687D01*
X056570Y022529D02*
X051157Y022529D01*
X051315Y022370D02*
X056570Y022370D01*
X056570Y022212D02*
X051474Y022212D01*
X051632Y022053D02*
X056570Y022053D01*
X056570Y021895D02*
X051791Y021895D01*
X051949Y021736D02*
X056570Y021736D01*
X056570Y021578D02*
X056032Y021578D01*
X056155Y021419D02*
X056570Y021419D01*
X056570Y021261D02*
X056210Y021261D01*
X056210Y021102D02*
X056570Y021102D01*
X056570Y020944D02*
X056242Y020944D01*
X056400Y020785D02*
X056570Y020785D01*
X056559Y020627D02*
X056570Y020627D01*
X056225Y020310D02*
X056200Y020310D01*
X056210Y020285D02*
X056182Y020353D01*
X056350Y020185D01*
X056350Y016410D01*
X056158Y016410D01*
X056129Y016480D01*
X055980Y016629D01*
X055858Y016680D01*
X055980Y016731D01*
X056129Y016880D01*
X056210Y017075D01*
X056210Y017285D01*
X056129Y017480D01*
X055980Y017629D01*
X055858Y017680D01*
X055980Y017731D01*
X056129Y017880D01*
X056210Y018075D01*
X056210Y018285D01*
X056129Y018480D01*
X055980Y018629D01*
X055947Y018643D01*
X055994Y018667D01*
X056071Y018722D01*
X056138Y018789D01*
X056193Y018866D01*
X056236Y018950D01*
X056265Y019039D01*
X056280Y019133D01*
X056280Y019160D01*
X055700Y019160D01*
X055700Y019200D01*
X056280Y019200D01*
X056280Y019227D01*
X056265Y019320D01*
X056236Y019410D01*
X056193Y019494D01*
X056138Y019571D01*
X056071Y019638D01*
X055994Y019693D01*
X055947Y019717D01*
X055980Y019731D01*
X056129Y019880D01*
X056210Y020075D01*
X056210Y020285D01*
X056210Y020151D02*
X056350Y020151D01*
X056350Y019993D02*
X056176Y019993D01*
X056084Y019834D02*
X056350Y019834D01*
X056350Y019676D02*
X056019Y019676D01*
X056177Y019517D02*
X056350Y019517D01*
X056350Y019359D02*
X056253Y019359D01*
X056280Y019200D02*
X056350Y019200D01*
X056350Y019042D02*
X056266Y019042D01*
X056202Y018883D02*
X056350Y018883D01*
X056350Y018725D02*
X056073Y018725D01*
X056044Y018566D02*
X056350Y018566D01*
X056350Y018408D02*
X056159Y018408D01*
X056210Y018249D02*
X056350Y018249D01*
X056350Y018091D02*
X056210Y018091D01*
X056151Y017932D02*
X056350Y017932D01*
X056350Y017774D02*
X056023Y017774D01*
X055995Y017615D02*
X056350Y017615D01*
X056350Y017457D02*
X056139Y017457D01*
X056205Y017298D02*
X056350Y017298D01*
X056350Y017140D02*
X056210Y017140D01*
X056171Y016981D02*
X056350Y016981D01*
X056350Y016823D02*
X056072Y016823D01*
X055896Y016664D02*
X056350Y016664D01*
X056350Y016506D02*
X056104Y016506D01*
X055150Y018091D02*
X055095Y018091D01*
X055150Y018249D02*
X054936Y018249D01*
X054778Y018408D02*
X055201Y018408D01*
X055316Y018566D02*
X054619Y018566D01*
X054461Y018725D02*
X055287Y018725D01*
X055158Y018883D02*
X054302Y018883D01*
X054144Y019042D02*
X055094Y019042D01*
X055080Y019200D02*
X053985Y019200D01*
X053845Y019359D02*
X055107Y019359D01*
X055183Y019517D02*
X054002Y019517D01*
X054040Y019676D02*
X055341Y019676D01*
X055276Y019834D02*
X054006Y019834D01*
X053866Y019993D02*
X055184Y019993D01*
X055150Y020151D02*
X053534Y020151D01*
X053376Y020310D02*
X055160Y020310D01*
X055226Y020468D02*
X053217Y020468D01*
X053059Y020627D02*
X055377Y020627D01*
X055325Y020785D02*
X052900Y020785D01*
X052742Y020944D02*
X055204Y020944D01*
X055150Y021102D02*
X052583Y021102D01*
X052425Y021261D02*
X055150Y021261D01*
X055205Y021419D02*
X052266Y021419D01*
X052108Y021578D02*
X055328Y021578D01*
X056570Y024114D02*
X000660Y024114D01*
X002132Y023292D02*
X002132Y023292D01*
X002132Y023163D02*
X002228Y023163D01*
X002228Y023004D02*
X002132Y023004D01*
X002132Y022846D02*
X002228Y022846D01*
X002228Y022687D02*
X005062Y022687D01*
X005220Y022846D02*
X002770Y022846D01*
X002792Y022728D02*
X002792Y022728D01*
X002792Y022632D02*
X002228Y022632D01*
X002228Y022068D01*
X002323Y022083D01*
X002415Y022112D01*
X002501Y022156D01*
X002579Y022213D01*
X002647Y022281D01*
X002704Y022359D01*
X002748Y022445D01*
X002777Y022537D01*
X002792Y022632D01*
X002792Y022632D01*
X002775Y022529D02*
X004903Y022529D01*
X004745Y022370D02*
X002709Y022370D01*
X002577Y022212D02*
X004586Y022212D01*
X005244Y021419D02*
X015085Y021419D01*
X014972Y021261D02*
X005086Y021261D01*
X004927Y021102D02*
X010835Y021102D01*
X010702Y020944D02*
X004769Y020944D01*
X004722Y020785D02*
X010638Y020785D01*
X010638Y020627D02*
X004722Y020627D01*
X004679Y020468D02*
X010681Y020468D01*
X010783Y020310D02*
X004577Y020310D01*
X004321Y020151D02*
X011039Y020151D01*
X011321Y020151D02*
X011384Y020151D01*
X011542Y019993D02*
X003018Y019993D01*
X003176Y020151D02*
X004039Y020151D01*
X003783Y020310D02*
X003335Y020310D01*
X003493Y020468D02*
X003681Y020468D01*
X002859Y019834D02*
X011701Y019834D01*
X011859Y019676D02*
X002701Y019676D01*
X002542Y019517D02*
X012018Y019517D01*
X012176Y019359D02*
X002384Y019359D01*
X002506Y019200D02*
X005854Y019200D01*
X005686Y019042D02*
X002674Y019042D01*
X002758Y018883D02*
X005602Y018883D01*
X005568Y018632D02*
X005568Y018632D01*
X005578Y018566D02*
X002782Y018566D01*
X002792Y018728D02*
X002792Y018728D01*
X002729Y018408D02*
X005631Y018408D01*
X005745Y018249D02*
X002615Y018249D01*
X004440Y017774D02*
X004920Y017774D01*
X004798Y017615D02*
X004562Y017615D01*
X004600Y017457D02*
X004760Y017457D01*
X004760Y017298D02*
X004600Y017298D01*
X004600Y017140D02*
X004760Y017140D01*
X004760Y016981D02*
X004600Y016981D01*
X004594Y016823D02*
X004766Y016823D01*
X004842Y016664D02*
X004518Y016664D01*
X005518Y016664D02*
X005842Y016664D01*
X005766Y016823D02*
X005594Y016823D01*
X005600Y016981D02*
X005760Y016981D01*
X005760Y017140D02*
X005600Y017140D01*
X005600Y017298D02*
X005760Y017298D01*
X005760Y017457D02*
X005600Y017457D01*
X005562Y017615D02*
X005798Y017615D01*
X005920Y017774D02*
X005440Y017774D01*
X006132Y018249D02*
X006228Y018249D01*
X006228Y018408D02*
X006132Y018408D01*
X006132Y018566D02*
X006228Y018566D01*
X006228Y018883D02*
X006132Y018883D01*
X006132Y019042D02*
X006228Y019042D01*
X006228Y019200D02*
X006132Y019200D01*
X006132Y019292D02*
X006132Y019292D01*
X006506Y019200D02*
X008854Y019200D01*
X008686Y019042D02*
X006674Y019042D01*
X006758Y018883D02*
X008602Y018883D01*
X008568Y018632D02*
X008568Y018632D01*
X008578Y018566D02*
X006782Y018566D01*
X006792Y018728D02*
X006792Y018728D01*
X006729Y018408D02*
X008631Y018408D01*
X008745Y018249D02*
X006615Y018249D01*
X006440Y017774D02*
X006920Y017774D01*
X006798Y017615D02*
X006562Y017615D01*
X006600Y017457D02*
X006760Y017457D01*
X006760Y017298D02*
X006600Y017298D01*
X006600Y017140D02*
X006760Y017140D01*
X006760Y016981D02*
X006600Y016981D01*
X006594Y016823D02*
X006766Y016823D01*
X006842Y016664D02*
X006518Y016664D01*
X007518Y016664D02*
X007842Y016664D01*
X007766Y016823D02*
X007594Y016823D01*
X007600Y016981D02*
X007760Y016981D01*
X007760Y017140D02*
X007600Y017140D01*
X007600Y017298D02*
X007760Y017298D01*
X007760Y017457D02*
X007600Y017457D01*
X007562Y017615D02*
X007798Y017615D01*
X007920Y017774D02*
X007440Y017774D01*
X008440Y017774D02*
X008920Y017774D01*
X008798Y017615D02*
X008562Y017615D01*
X008600Y017457D02*
X008760Y017457D01*
X008760Y017298D02*
X008600Y017298D01*
X008600Y017140D02*
X008760Y017140D01*
X008760Y016981D02*
X008600Y016981D01*
X008594Y016823D02*
X008766Y016823D01*
X008842Y016664D02*
X008518Y016664D01*
X011338Y016347D02*
X017920Y016347D01*
X017928Y016189D02*
X015381Y016189D01*
X015440Y016030D02*
X018021Y016030D01*
X018539Y016030D02*
X027905Y016030D01*
X027935Y015872D02*
X015425Y015872D01*
X016829Y016506D02*
X011443Y016506D01*
X011600Y016664D02*
X016671Y016664D01*
X017004Y016981D02*
X017039Y016981D01*
X016993Y017140D02*
X016867Y017140D01*
X016854Y017298D02*
X017006Y017298D01*
X017088Y017457D02*
X016772Y017457D01*
X016522Y017615D02*
X017338Y017615D01*
X017522Y017615D02*
X018338Y017615D01*
X018522Y017615D02*
X019167Y017615D01*
X019091Y017774D02*
X019769Y017774D01*
X019843Y017743D02*
X020017Y017743D01*
X020178Y017809D01*
X020301Y017932D01*
X020367Y018093D01*
X020367Y018267D01*
X020301Y018428D01*
X020178Y018551D01*
X020017Y018617D01*
X019843Y018617D01*
X019682Y018551D01*
X019559Y018428D01*
X019493Y018267D01*
X019493Y018093D01*
X019559Y017932D01*
X019682Y017809D01*
X019843Y017743D01*
X019693Y017615D02*
X023338Y017615D01*
X023522Y017615D02*
X024338Y017615D01*
X024522Y017615D02*
X025338Y017615D01*
X025343Y017617D02*
X025182Y017551D01*
X025059Y017428D01*
X024993Y017267D01*
X024993Y017093D01*
X025059Y016932D01*
X025182Y016809D01*
X025343Y016743D01*
X025517Y016743D01*
X025678Y016809D01*
X025801Y016932D01*
X025867Y017093D01*
X025867Y017267D01*
X025801Y017428D01*
X025678Y017551D01*
X025517Y017617D01*
X025343Y017617D01*
X025522Y017615D02*
X026167Y017615D01*
X026164Y017614D02*
X026100Y017567D01*
X026043Y017510D01*
X025996Y017446D01*
X025960Y017375D01*
X025935Y017299D01*
X025923Y017220D01*
X025923Y017189D01*
X026421Y017189D01*
X026421Y017687D01*
X026390Y017687D01*
X026311Y017675D01*
X026235Y017650D01*
X026164Y017614D01*
X026091Y017774D02*
X026769Y017774D01*
X026843Y017743D02*
X027017Y017743D01*
X027178Y017809D01*
X027301Y017932D01*
X027367Y018093D01*
X027367Y018267D01*
X027301Y018428D01*
X027178Y018551D01*
X027017Y018617D01*
X026843Y018617D01*
X026682Y018551D01*
X026559Y018428D01*
X026493Y018267D01*
X026493Y018093D01*
X026559Y017932D01*
X026682Y017809D01*
X026843Y017743D01*
X026760Y017567D02*
X026696Y017614D01*
X026625Y017650D01*
X026549Y017675D01*
X026470Y017687D01*
X026439Y017687D01*
X026439Y017189D01*
X026937Y017189D01*
X026937Y017220D01*
X026925Y017299D01*
X026900Y017375D01*
X026864Y017446D01*
X026817Y017510D01*
X026760Y017567D01*
X026693Y017615D02*
X031798Y017615D01*
X031760Y017457D02*
X026856Y017457D01*
X026925Y017298D02*
X031760Y017298D01*
X031760Y017140D02*
X027953Y017140D01*
X027807Y017140D02*
X026937Y017140D01*
X026937Y017171D01*
X026439Y017171D01*
X026439Y017189D01*
X026421Y017189D01*
X026421Y017171D01*
X026439Y017171D01*
X026439Y016673D01*
X026470Y016673D01*
X026549Y016685D01*
X026625Y016710D01*
X026696Y016746D01*
X026760Y016793D01*
X026817Y016850D01*
X026864Y016914D01*
X026900Y016985D01*
X026925Y017061D01*
X026937Y017140D01*
X026898Y016981D02*
X027574Y016981D01*
X027520Y016823D02*
X026790Y016823D01*
X026439Y016823D02*
X026421Y016823D01*
X026421Y016673D02*
X026421Y017171D01*
X025923Y017171D01*
X025923Y017140D01*
X025935Y017061D01*
X025960Y016985D01*
X025996Y016914D01*
X026043Y016850D01*
X026100Y016793D01*
X026164Y016746D01*
X026235Y016710D01*
X026311Y016685D01*
X026390Y016673D01*
X026421Y016673D01*
X026421Y016981D02*
X026439Y016981D01*
X026439Y017140D02*
X026421Y017140D01*
X026421Y017298D02*
X026439Y017298D01*
X026439Y017457D02*
X026421Y017457D01*
X026421Y017615D02*
X026439Y017615D01*
X026178Y017809D02*
X026301Y017932D01*
X026367Y018093D01*
X026367Y018267D01*
X026301Y018428D01*
X026178Y018551D01*
X026017Y018617D01*
X025843Y018617D01*
X025682Y018551D01*
X025559Y018428D01*
X025493Y018267D01*
X025493Y018093D01*
X025559Y017932D01*
X025682Y017809D01*
X025843Y017743D01*
X026017Y017743D01*
X026178Y017809D01*
X026300Y017932D02*
X026560Y017932D01*
X026494Y018091D02*
X026366Y018091D01*
X026367Y018249D02*
X026493Y018249D01*
X026551Y018408D02*
X026309Y018408D01*
X026140Y018566D02*
X026720Y018566D01*
X027140Y018566D02*
X029578Y018566D01*
X029583Y018537D02*
X029612Y018445D01*
X029656Y018359D01*
X029713Y018281D01*
X029781Y018213D01*
X029859Y018156D01*
X029945Y018112D01*
X030037Y018083D01*
X030132Y018068D01*
X030132Y018067D01*
X030132Y018632D01*
X029568Y018632D01*
X029583Y018537D01*
X029568Y018632D02*
X029568Y018632D01*
X029631Y018408D02*
X027309Y018408D01*
X027367Y018249D02*
X029745Y018249D01*
X030012Y018091D02*
X027366Y018091D01*
X027300Y017932D02*
X034707Y017932D01*
X034865Y018091D02*
X034348Y018091D01*
X034323Y018083D02*
X034415Y018112D01*
X034501Y018156D01*
X034579Y018213D01*
X034647Y018281D01*
X034704Y018359D01*
X034748Y018445D01*
X034777Y018537D01*
X034792Y018632D01*
X034792Y018632D01*
X034228Y018632D01*
X034228Y018728D01*
X034792Y018728D01*
X034777Y018823D01*
X034748Y018915D01*
X034704Y019001D01*
X034647Y019079D01*
X034579Y019147D01*
X034501Y019204D01*
X034415Y019248D01*
X034323Y019277D01*
X034228Y019292D01*
X034228Y019292D01*
X034228Y018728D01*
X034132Y018728D01*
X034132Y019292D01*
X034037Y019277D01*
X033945Y019248D01*
X033859Y019204D01*
X033781Y019147D01*
X033713Y019079D01*
X033656Y019001D01*
X033612Y018915D01*
X033583Y018823D01*
X033568Y018728D01*
X033568Y018728D01*
X034132Y018728D01*
X034132Y018632D01*
X034228Y018632D01*
X034228Y018068D01*
X034323Y018083D01*
X034228Y018091D02*
X034132Y018091D01*
X034132Y018068D02*
X034132Y018067D01*
X034132Y018068D02*
X034037Y018083D01*
X033945Y018112D01*
X033859Y018156D01*
X033781Y018213D01*
X033713Y018281D01*
X033656Y018359D01*
X033612Y018445D01*
X033583Y018537D01*
X033568Y018632D01*
X033568Y018632D01*
X034132Y018632D01*
X034132Y018067D01*
X034228Y018068D02*
X034228Y018068D01*
X034228Y018249D02*
X034132Y018249D01*
X034132Y018408D02*
X034228Y018408D01*
X034228Y018566D02*
X034132Y018566D01*
X034132Y018725D02*
X030228Y018725D01*
X030228Y018632D02*
X030792Y018632D01*
X030792Y018632D01*
X030777Y018537D01*
X030748Y018445D01*
X030704Y018359D01*
X030647Y018281D01*
X030579Y018213D01*
X030501Y018156D01*
X030415Y018112D01*
X030323Y018083D01*
X030228Y018068D01*
X030228Y018068D01*
X030228Y018632D01*
X030228Y018566D02*
X030132Y018566D01*
X030132Y018408D02*
X030228Y018408D01*
X030228Y018249D02*
X030132Y018249D01*
X030132Y018091D02*
X030228Y018091D01*
X030348Y018091D02*
X034012Y018091D01*
X033745Y018249D02*
X030615Y018249D01*
X030729Y018408D02*
X033631Y018408D01*
X033578Y018566D02*
X030782Y018566D01*
X030792Y018728D02*
X030792Y018728D01*
X030758Y018883D02*
X033602Y018883D01*
X033686Y019042D02*
X030674Y019042D01*
X030506Y019200D02*
X033854Y019200D01*
X034132Y019200D02*
X034228Y019200D01*
X034132Y019292D02*
X034132Y019292D01*
X034132Y019042D02*
X034228Y019042D01*
X034228Y018883D02*
X034132Y018883D01*
X034228Y018725D02*
X037132Y018725D01*
X037228Y018725D02*
X041132Y018725D01*
X041228Y018725D02*
X043899Y018725D01*
X044058Y018883D02*
X041758Y018883D01*
X041748Y018915D02*
X041777Y018823D01*
X041792Y018728D01*
X041792Y018728D01*
X041228Y018728D01*
X041228Y019292D01*
X041228Y019292D01*
X041323Y019277D01*
X041415Y019248D01*
X041501Y019204D01*
X041579Y019147D01*
X041647Y019079D01*
X041704Y019001D01*
X041748Y018915D01*
X041674Y019042D02*
X044164Y019042D01*
X044150Y019200D02*
X041506Y019200D01*
X041228Y019200D02*
X041132Y019200D01*
X041132Y019292D02*
X041132Y019292D01*
X041132Y019042D02*
X041228Y019042D01*
X041228Y018883D02*
X041132Y018883D01*
X040686Y019042D02*
X037674Y019042D01*
X037647Y019079D02*
X037579Y019147D01*
X037501Y019204D01*
X037415Y019248D01*
X037323Y019277D01*
X037228Y019292D01*
X037228Y019292D01*
X037228Y018728D01*
X037792Y018728D01*
X037777Y018823D01*
X037748Y018915D01*
X037704Y019001D01*
X037647Y019079D01*
X037506Y019200D02*
X040854Y019200D01*
X040602Y018883D02*
X037758Y018883D01*
X037792Y018728D02*
X037792Y018728D01*
X037782Y018566D02*
X040578Y018566D01*
X040568Y018632D02*
X040568Y018632D01*
X040631Y018408D02*
X037729Y018408D01*
X037228Y018883D02*
X037132Y018883D01*
X037132Y019042D02*
X037228Y019042D01*
X037228Y019200D02*
X037132Y019200D01*
X037132Y019292D02*
X037132Y019292D01*
X036854Y019200D02*
X034506Y019200D01*
X034674Y019042D02*
X036686Y019042D01*
X036602Y018883D02*
X034758Y018883D01*
X034792Y018728D02*
X034792Y018728D01*
X034782Y018566D02*
X036578Y018566D01*
X036568Y018632D02*
X036568Y018632D01*
X036631Y018408D02*
X034729Y018408D01*
X034615Y018249D02*
X035024Y018249D01*
X034548Y017774D02*
X034440Y017774D01*
X033920Y017774D02*
X033440Y017774D01*
X033562Y017615D02*
X033798Y017615D01*
X033760Y017457D02*
X033600Y017457D01*
X033600Y017298D02*
X033760Y017298D01*
X033760Y017140D02*
X033600Y017140D01*
X033600Y016981D02*
X033656Y016981D01*
X032760Y016981D02*
X032600Y016981D01*
X032600Y017140D02*
X032760Y017140D01*
X032760Y017298D02*
X032600Y017298D01*
X032600Y017457D02*
X032760Y017457D01*
X032798Y017615D02*
X032562Y017615D01*
X032440Y017774D02*
X032920Y017774D01*
X031920Y017774D02*
X027091Y017774D01*
X026004Y017457D02*
X025772Y017457D01*
X025854Y017298D02*
X025935Y017298D01*
X025923Y017140D02*
X025867Y017140D01*
X025821Y016981D02*
X025962Y016981D01*
X026070Y016823D02*
X025691Y016823D01*
X025169Y016823D02*
X024691Y016823D01*
X024821Y016981D02*
X025039Y016981D01*
X024993Y017140D02*
X024867Y017140D01*
X024854Y017298D02*
X025006Y017298D01*
X025088Y017457D02*
X024772Y017457D01*
X024843Y017743D02*
X025017Y017743D01*
X025178Y017809D01*
X025301Y017932D01*
X025367Y018093D01*
X025367Y018267D01*
X025301Y018428D01*
X025178Y018551D01*
X025017Y018617D01*
X024843Y018617D01*
X024682Y018551D01*
X024559Y018428D01*
X024493Y018267D01*
X024493Y018093D01*
X024559Y017932D01*
X024682Y017809D01*
X024843Y017743D01*
X024769Y017774D02*
X024091Y017774D01*
X024017Y017743D02*
X024178Y017809D01*
X024301Y017932D01*
X024367Y018093D01*
X024367Y018267D01*
X024301Y018428D01*
X024178Y018551D01*
X024017Y018617D01*
X023843Y018617D01*
X023682Y018551D01*
X023559Y018428D01*
X023493Y018267D01*
X023493Y018093D01*
X023559Y017932D01*
X023682Y017809D01*
X023843Y017743D01*
X024017Y017743D01*
X023769Y017774D02*
X020091Y017774D01*
X020300Y017932D02*
X023560Y017932D01*
X023494Y018091D02*
X020366Y018091D01*
X020367Y018249D02*
X023493Y018249D01*
X023551Y018408D02*
X020309Y018408D01*
X020140Y018566D02*
X023720Y018566D01*
X024140Y018566D02*
X024720Y018566D01*
X024551Y018408D02*
X024309Y018408D01*
X024367Y018249D02*
X024493Y018249D01*
X024494Y018091D02*
X024366Y018091D01*
X024300Y017932D02*
X024560Y017932D01*
X025091Y017774D02*
X025769Y017774D01*
X025560Y017932D02*
X025300Y017932D01*
X025366Y018091D02*
X025494Y018091D01*
X025493Y018249D02*
X025367Y018249D01*
X025309Y018408D02*
X025551Y018408D01*
X025720Y018566D02*
X025140Y018566D01*
X024088Y017457D02*
X023772Y017457D01*
X023854Y017298D02*
X024006Y017298D01*
X023993Y017140D02*
X023867Y017140D01*
X023856Y016981D02*
X023821Y016981D01*
X023697Y016823D02*
X023691Y016823D01*
X023539Y016664D02*
X023189Y016664D01*
X022856Y016981D02*
X019898Y016981D01*
X019937Y017140D02*
X022993Y017140D01*
X023006Y017298D02*
X019925Y017298D01*
X019856Y017457D02*
X023088Y017457D01*
X024189Y016664D02*
X027538Y016664D01*
X028240Y016823D02*
X031766Y016823D01*
X031760Y016981D02*
X028186Y016981D01*
X030132Y018725D02*
X018850Y018725D01*
X018843Y018617D02*
X018682Y018551D01*
X018559Y018428D01*
X018493Y018267D01*
X018493Y018093D01*
X018559Y017932D01*
X018682Y017809D01*
X018843Y017743D01*
X019017Y017743D01*
X019178Y017809D01*
X019301Y017932D01*
X019367Y018093D01*
X019367Y018267D01*
X019301Y018428D01*
X019178Y018551D01*
X019017Y018617D01*
X018843Y018617D01*
X018720Y018566D02*
X018691Y018566D01*
X018551Y018408D02*
X018533Y018408D01*
X018493Y018249D02*
X018374Y018249D01*
X018366Y018091D02*
X018494Y018091D01*
X018560Y017932D02*
X018300Y017932D01*
X018091Y017774D02*
X018769Y017774D01*
X018772Y017457D02*
X019004Y017457D01*
X018935Y017298D02*
X018854Y017298D01*
X018867Y017140D02*
X018923Y017140D01*
X018962Y016981D02*
X018821Y016981D01*
X019421Y017298D02*
X019439Y017298D01*
X019439Y017457D02*
X019421Y017457D01*
X019421Y017615D02*
X019439Y017615D01*
X019560Y017932D02*
X019300Y017932D01*
X019366Y018091D02*
X019494Y018091D01*
X019493Y018249D02*
X019367Y018249D01*
X019309Y018408D02*
X019551Y018408D01*
X019720Y018566D02*
X019140Y018566D01*
X018358Y018883D02*
X013758Y018883D01*
X013792Y018728D02*
X013792Y018728D01*
X013674Y019042D02*
X018516Y019042D01*
X018675Y019200D02*
X013506Y019200D01*
X012854Y019200D02*
X009506Y019200D01*
X009674Y019042D02*
X012686Y019042D01*
X012602Y018883D02*
X009758Y018883D01*
X009792Y018728D02*
X009792Y018728D01*
X009782Y018566D02*
X012578Y018566D01*
X012568Y018632D02*
X012568Y018632D01*
X012631Y018408D02*
X009729Y018408D01*
X009615Y018249D02*
X012745Y018249D01*
X013228Y018725D02*
X018199Y018725D01*
X018088Y017457D02*
X017772Y017457D01*
X017854Y017298D02*
X018006Y017298D01*
X017993Y017140D02*
X017867Y017140D01*
X017821Y016981D02*
X018039Y016981D01*
X016338Y017615D02*
X011638Y017615D01*
X011670Y017457D02*
X016088Y017457D01*
X016006Y017298D02*
X011670Y017298D01*
X011670Y017140D02*
X015993Y017140D01*
X016039Y016981D02*
X011670Y016981D01*
X011661Y016823D02*
X016169Y016823D01*
X015192Y019834D02*
X012351Y019834D01*
X012193Y019993D02*
X015034Y019993D01*
X014942Y020151D02*
X012034Y020151D01*
X011876Y020310D02*
X014870Y020310D01*
X014827Y020468D02*
X011717Y020468D01*
X011722Y020627D02*
X014810Y020627D01*
X014810Y020785D02*
X011722Y020785D01*
X011658Y020944D02*
X014841Y020944D01*
X014884Y021102D02*
X011525Y021102D01*
X012859Y022156D02*
X012945Y022112D01*
X012952Y022110D01*
X009408Y022110D01*
X009415Y022112D01*
X009501Y022156D01*
X009579Y022213D01*
X009647Y022281D01*
X009704Y022359D01*
X009748Y022445D01*
X009777Y022537D01*
X009792Y022632D01*
X009792Y022632D01*
X009228Y022632D01*
X009228Y022728D01*
X009132Y022728D01*
X009132Y023292D01*
X009037Y023277D01*
X008945Y023248D01*
X008859Y023204D01*
X008781Y023147D01*
X008713Y023079D01*
X008656Y023001D01*
X008612Y022915D01*
X008583Y022823D01*
X008568Y022728D01*
X008568Y022728D01*
X009132Y022728D01*
X009132Y022632D01*
X008568Y022632D01*
X008583Y022537D01*
X008612Y022445D01*
X008656Y022359D01*
X008713Y022281D01*
X008781Y022213D01*
X008859Y022156D01*
X008945Y022112D01*
X008952Y022110D01*
X006408Y022110D01*
X006415Y022112D01*
X006501Y022156D01*
X006579Y022213D01*
X006647Y022281D01*
X006704Y022359D01*
X006748Y022445D01*
X006777Y022537D01*
X006792Y022632D01*
X006792Y022632D01*
X006228Y022632D01*
X006228Y022728D01*
X006792Y022728D01*
X006777Y022823D01*
X006748Y022915D01*
X006704Y023001D01*
X006647Y023079D01*
X006579Y023147D01*
X006501Y023204D01*
X006415Y023248D01*
X006323Y023277D01*
X006306Y023280D01*
X006475Y023450D01*
X020561Y023450D01*
X020520Y023352D01*
X020520Y023208D01*
X020575Y023076D01*
X020676Y022975D01*
X020808Y022920D01*
X020952Y022920D01*
X021084Y022975D01*
X021159Y023050D01*
X029692Y023050D01*
X029656Y023001D01*
X029612Y022915D01*
X029583Y022823D01*
X029568Y022728D01*
X029568Y022728D01*
X030132Y022728D01*
X030132Y022632D01*
X030228Y022632D01*
X030228Y022728D01*
X030792Y022728D01*
X030777Y022823D01*
X030748Y022915D01*
X030704Y023001D01*
X030668Y023050D01*
X033692Y023050D01*
X033656Y023001D01*
X033612Y022915D01*
X033583Y022823D01*
X033568Y022728D01*
X033568Y022728D01*
X034132Y022728D01*
X034132Y022632D01*
X033568Y022632D01*
X033583Y022537D01*
X033612Y022445D01*
X033615Y022440D01*
X033508Y022440D01*
X033376Y022385D01*
X033275Y022284D01*
X033220Y022152D01*
X033220Y022008D01*
X033261Y021910D01*
X028075Y021910D01*
X028010Y021975D01*
X027875Y022110D01*
X013408Y022110D01*
X013415Y022112D01*
X013501Y022156D01*
X013579Y022213D01*
X013647Y022281D01*
X013704Y022359D01*
X013748Y022445D01*
X013777Y022537D01*
X013792Y022632D01*
X013792Y022632D01*
X013228Y022632D01*
X013228Y022728D01*
X013132Y022728D01*
X013132Y023292D01*
X013037Y023277D01*
X012945Y023248D01*
X012859Y023204D01*
X012781Y023147D01*
X012713Y023079D01*
X012656Y023001D01*
X012612Y022915D01*
X012583Y022823D01*
X012568Y022728D01*
X012568Y022728D01*
X013132Y022728D01*
X013132Y022632D01*
X013132Y022110D01*
X013228Y022110D01*
X013228Y022632D01*
X013132Y022632D01*
X012568Y022632D01*
X012583Y022537D01*
X012612Y022445D01*
X012656Y022359D01*
X012713Y022281D01*
X012781Y022213D01*
X012859Y022156D01*
X012783Y022212D02*
X009577Y022212D01*
X009709Y022370D02*
X012651Y022370D01*
X012585Y022529D02*
X009775Y022529D01*
X009792Y022728D02*
X009228Y022728D01*
X009228Y023292D01*
X009228Y023292D01*
X009323Y023277D01*
X009415Y023248D01*
X009501Y023204D01*
X009579Y023147D01*
X009647Y023079D01*
X009704Y023001D01*
X009748Y022915D01*
X009777Y022823D01*
X009792Y022728D01*
X009792Y022728D01*
X009770Y022846D02*
X012590Y022846D01*
X012658Y023004D02*
X009702Y023004D01*
X009558Y023163D02*
X012802Y023163D01*
X013132Y023163D02*
X013228Y023163D01*
X013228Y023292D02*
X013228Y022728D01*
X013792Y022728D01*
X013777Y022823D01*
X013748Y022915D01*
X013704Y023001D01*
X013647Y023079D01*
X013579Y023147D01*
X013501Y023204D01*
X013415Y023248D01*
X013323Y023277D01*
X013228Y023292D01*
X013228Y023292D01*
X013132Y023292D02*
X013132Y023292D01*
X013132Y023004D02*
X013228Y023004D01*
X013228Y022846D02*
X013132Y022846D01*
X013132Y022687D02*
X009228Y022687D01*
X009132Y022687D02*
X006228Y022687D01*
X006770Y022846D02*
X008590Y022846D01*
X008658Y023004D02*
X006702Y023004D01*
X006558Y023163D02*
X008802Y023163D01*
X009132Y023163D02*
X009228Y023163D01*
X009228Y023004D02*
X009132Y023004D01*
X009132Y022846D02*
X009228Y022846D01*
X009132Y023292D02*
X009132Y023292D01*
X008568Y022632D02*
X008568Y022632D01*
X008585Y022529D02*
X006775Y022529D01*
X006709Y022370D02*
X008651Y022370D01*
X008783Y022212D02*
X006577Y022212D01*
X006792Y022728D02*
X006792Y022728D01*
X006346Y023321D02*
X020520Y023321D01*
X020539Y023163D02*
X013558Y023163D01*
X013702Y023004D02*
X020647Y023004D01*
X021113Y023004D02*
X029658Y023004D01*
X029590Y022846D02*
X013770Y022846D01*
X013792Y022728D02*
X013792Y022728D01*
X013775Y022529D02*
X029585Y022529D01*
X029583Y022537D02*
X029612Y022445D01*
X029656Y022359D01*
X029713Y022281D01*
X029781Y022213D01*
X029859Y022156D01*
X029945Y022112D01*
X030037Y022083D01*
X030132Y022068D01*
X030132Y022067D01*
X030132Y022632D01*
X029568Y022632D01*
X029583Y022537D01*
X029568Y022632D02*
X029568Y022632D01*
X030132Y022687D02*
X013228Y022687D01*
X013228Y022529D02*
X013132Y022529D01*
X013132Y022370D02*
X013228Y022370D01*
X013228Y022212D02*
X013132Y022212D01*
X013577Y022212D02*
X029783Y022212D01*
X029651Y022370D02*
X013709Y022370D01*
X012568Y022632D02*
X012568Y022632D01*
X015245Y021578D02*
X005403Y021578D01*
X005379Y023004D02*
X002702Y023004D01*
X002558Y023163D02*
X005537Y023163D01*
X002228Y022529D02*
X002132Y022529D01*
X002132Y022687D02*
X000660Y022687D01*
X002132Y022370D02*
X002228Y022370D01*
X002228Y022212D02*
X002132Y022212D01*
X002228Y022068D02*
X002228Y022068D01*
X009132Y019292D02*
X009132Y019292D01*
X009132Y019200D02*
X009228Y019200D01*
X009228Y019042D02*
X009132Y019042D01*
X009132Y018883D02*
X009228Y018883D01*
X009228Y018566D02*
X009132Y018566D01*
X009132Y018408D02*
X009228Y018408D01*
X009228Y018249D02*
X009132Y018249D01*
X011946Y011117D02*
X013050Y011117D01*
X012861Y010958D02*
X011869Y010958D01*
X016218Y010166D02*
X019020Y010166D01*
X019050Y010324D02*
X016461Y010324D01*
X016499Y010958D02*
X017491Y010958D01*
X019520Y009849D02*
X037220Y009849D01*
X043010Y009361D02*
X043010Y007819D01*
X043076Y007885D01*
X043208Y007940D01*
X043352Y007940D01*
X043484Y007885D01*
X043585Y007784D01*
X043640Y007652D01*
X043640Y007508D01*
X043599Y007410D01*
X044202Y007410D01*
X044231Y007480D01*
X044380Y007629D01*
X044413Y007643D01*
X044366Y007667D01*
X044289Y007722D01*
X044222Y007789D01*
X044167Y007866D01*
X044124Y007950D01*
X044095Y008039D01*
X044080Y008133D01*
X044080Y008160D01*
X044660Y008160D01*
X044660Y008200D01*
X044080Y008200D01*
X044080Y008227D01*
X044095Y008320D01*
X044124Y008410D01*
X044167Y008494D01*
X044222Y008571D01*
X044289Y008638D01*
X044366Y008693D01*
X044413Y008717D01*
X044380Y008731D01*
X044231Y008880D01*
X044150Y009075D01*
X044150Y009285D01*
X044231Y009480D01*
X044380Y009629D01*
X044502Y009680D01*
X044380Y009731D01*
X044231Y009880D01*
X044150Y010075D01*
X044150Y010285D01*
X044178Y010353D01*
X043540Y009715D01*
X043540Y009608D01*
X043485Y009476D01*
X043384Y009375D01*
X043252Y009320D01*
X043108Y009320D01*
X043010Y009361D01*
X043010Y009215D02*
X044150Y009215D01*
X044158Y009056D02*
X043010Y009056D01*
X043010Y008898D02*
X044223Y008898D01*
X044371Y008739D02*
X043010Y008739D01*
X043010Y008581D02*
X044232Y008581D01*
X044130Y008422D02*
X043010Y008422D01*
X043010Y008264D02*
X044086Y008264D01*
X044084Y008105D02*
X043010Y008105D01*
X043010Y007947D02*
X044126Y007947D01*
X044223Y007788D02*
X043581Y007788D01*
X043640Y007630D02*
X044380Y007630D01*
X044227Y007471D02*
X043625Y007471D01*
X044700Y008160D02*
X044700Y008200D01*
X045280Y008200D01*
X045280Y008227D01*
X045265Y008320D01*
X045236Y008410D01*
X045193Y008494D01*
X045138Y008571D01*
X045071Y008638D01*
X044994Y008693D01*
X044947Y008717D01*
X044980Y008731D01*
X045129Y008880D01*
X045210Y009075D01*
X045210Y009285D01*
X045129Y009480D01*
X044980Y009629D01*
X044858Y009680D01*
X044980Y009731D01*
X045129Y009880D01*
X045210Y010075D01*
X045210Y010285D01*
X045129Y010480D01*
X044980Y010629D01*
X044858Y010680D01*
X044980Y010731D01*
X045129Y010880D01*
X045210Y011075D01*
X045210Y011285D01*
X045129Y011480D01*
X044980Y011629D01*
X044858Y011680D01*
X044980Y011731D01*
X045129Y011880D01*
X045210Y012075D01*
X045210Y012285D01*
X045129Y012480D01*
X044980Y012629D01*
X044858Y012680D01*
X044980Y012731D01*
X045129Y012880D01*
X045210Y013075D01*
X045210Y013285D01*
X045129Y013480D01*
X044980Y013629D01*
X044858Y013680D01*
X044980Y013731D01*
X045129Y013880D01*
X045210Y014075D01*
X045210Y014285D01*
X045129Y014480D01*
X044980Y014629D01*
X044858Y014680D01*
X044980Y014731D01*
X045129Y014880D01*
X045210Y015075D01*
X045210Y015285D01*
X045129Y015480D01*
X044980Y015629D01*
X044858Y015680D01*
X044980Y015731D01*
X045129Y015880D01*
X045210Y016075D01*
X045210Y016285D01*
X045129Y016480D01*
X044980Y016629D01*
X044858Y016680D01*
X044980Y016731D01*
X045129Y016880D01*
X045210Y017075D01*
X045210Y017285D01*
X045129Y017480D01*
X044980Y017629D01*
X044858Y017680D01*
X044980Y017731D01*
X045129Y017880D01*
X045210Y018075D01*
X045210Y018285D01*
X045129Y018480D01*
X044980Y018629D01*
X044858Y018680D01*
X044980Y018731D01*
X045129Y018880D01*
X045210Y019075D01*
X045210Y019285D01*
X045129Y019480D01*
X044980Y019629D01*
X044858Y019680D01*
X044980Y019731D01*
X045129Y019880D01*
X045210Y020075D01*
X045210Y020285D01*
X045129Y020480D01*
X044980Y020629D01*
X044858Y020680D01*
X044980Y020731D01*
X045129Y020880D01*
X045210Y021075D01*
X045210Y021125D01*
X051085Y015250D01*
X051285Y015250D01*
X054120Y012415D01*
X054120Y012308D01*
X054175Y012176D01*
X054276Y012075D01*
X054399Y012024D01*
X051415Y009040D01*
X051308Y009040D01*
X051176Y008985D01*
X051075Y008884D01*
X051020Y008752D01*
X051020Y008608D01*
X051075Y008476D01*
X051176Y008375D01*
X051308Y008320D01*
X051452Y008320D01*
X051584Y008375D01*
X051685Y008476D01*
X051740Y008608D01*
X051740Y008715D01*
X052953Y009928D01*
X052975Y009876D01*
X053076Y009775D01*
X053208Y009720D01*
X053352Y009720D01*
X053484Y009775D01*
X053559Y009850D01*
X055260Y009850D01*
X055380Y009731D01*
X055502Y009680D01*
X055380Y009629D01*
X055231Y009480D01*
X055150Y009285D01*
X055150Y009075D01*
X055231Y008880D01*
X055380Y008731D01*
X055502Y008680D01*
X055380Y008629D01*
X055231Y008480D01*
X055150Y008285D01*
X055150Y008075D01*
X055179Y008004D01*
X054985Y007810D01*
X052985Y007810D01*
X051182Y006007D01*
X051210Y006075D01*
X051210Y006285D01*
X051129Y006480D01*
X050980Y006629D01*
X050858Y006680D01*
X050980Y006731D01*
X051129Y006880D01*
X051210Y007075D01*
X051210Y007285D01*
X051129Y007480D01*
X050980Y007629D01*
X050785Y007710D01*
X050575Y007710D01*
X050380Y007629D01*
X050231Y007480D01*
X050180Y007358D01*
X050129Y007480D01*
X049980Y007629D01*
X049785Y007710D01*
X049575Y007710D01*
X049380Y007629D01*
X049231Y007480D01*
X049180Y007358D01*
X049129Y007480D01*
X048980Y007629D01*
X048785Y007710D01*
X048575Y007710D01*
X048380Y007629D01*
X048231Y007480D01*
X048180Y007358D01*
X048129Y007480D01*
X047980Y007629D01*
X047785Y007710D01*
X047575Y007710D01*
X047380Y007629D01*
X047231Y007480D01*
X047180Y007358D01*
X047129Y007480D01*
X046980Y007629D01*
X046785Y007710D01*
X046575Y007710D01*
X046380Y007629D01*
X046231Y007480D01*
X046180Y007358D01*
X046129Y007480D01*
X045980Y007629D01*
X045785Y007710D01*
X045575Y007710D01*
X045380Y007629D01*
X045231Y007480D01*
X045180Y007358D01*
X045129Y007480D01*
X044980Y007629D01*
X044947Y007643D01*
X044994Y007667D01*
X045071Y007722D01*
X045138Y007789D01*
X045193Y007866D01*
X045236Y007950D01*
X045265Y008039D01*
X045280Y008133D01*
X045280Y008160D01*
X044700Y008160D01*
X045137Y007788D02*
X052963Y007788D01*
X052804Y007630D02*
X050980Y007630D01*
X051133Y007471D02*
X052646Y007471D01*
X052487Y007313D02*
X051199Y007313D01*
X051210Y007154D02*
X052329Y007154D01*
X052170Y006996D02*
X051177Y006996D01*
X051087Y006837D02*
X052012Y006837D01*
X051853Y006679D02*
X050861Y006679D01*
X051090Y006520D02*
X051695Y006520D01*
X051536Y006362D02*
X051178Y006362D01*
X051210Y006203D02*
X051378Y006203D01*
X051219Y006045D02*
X051198Y006045D01*
X051553Y005728D02*
X055387Y005728D01*
X055380Y005731D02*
X055575Y005650D01*
X055785Y005650D01*
X055980Y005731D01*
X056050Y005800D01*
X056050Y005475D01*
X052378Y001803D01*
X052378Y002691D01*
X052293Y002897D01*
X052135Y003055D01*
X051929Y003140D01*
X051706Y003140D01*
X051501Y003055D01*
X051366Y002920D01*
X050510Y003775D01*
X050510Y003775D01*
X050375Y003910D01*
X046119Y003910D01*
X046185Y003976D01*
X046216Y004050D01*
X048501Y004050D01*
X048576Y003975D01*
X048708Y003920D01*
X048852Y003920D01*
X048984Y003975D01*
X049085Y004076D01*
X049140Y004208D01*
X049140Y004352D01*
X049085Y004484D01*
X048984Y004585D01*
X048852Y004640D01*
X048708Y004640D01*
X048576Y004585D01*
X048501Y004510D01*
X048399Y004510D01*
X048440Y004608D01*
X048440Y004752D01*
X048385Y004884D01*
X048319Y004950D01*
X048801Y004950D01*
X048876Y004875D01*
X049008Y004820D01*
X049152Y004820D01*
X049284Y004875D01*
X049385Y004976D01*
X049440Y005108D01*
X049440Y005252D01*
X055827Y005252D01*
X055985Y005411D02*
X051236Y005411D01*
X051175Y005350D02*
X051310Y005485D01*
X052153Y006328D01*
X052175Y006276D01*
X052276Y006175D01*
X052408Y006120D01*
X052552Y006120D01*
X052684Y006175D01*
X052759Y006250D01*
X055150Y006250D01*
X055150Y006075D01*
X055231Y005880D01*
X055380Y005731D01*
X055228Y005886D02*
X051711Y005886D01*
X051870Y006045D02*
X055162Y006045D01*
X055150Y006203D02*
X052712Y006203D01*
X052248Y006203D02*
X052028Y006203D01*
X051394Y005569D02*
X056050Y005569D01*
X056050Y005728D02*
X055973Y005728D01*
X055668Y005094D02*
X049434Y005094D01*
X049440Y005252D02*
X049399Y005350D01*
X051175Y005350D01*
X052187Y004487D02*
X052133Y004413D01*
X052092Y004332D01*
X052063Y004245D01*
X052049Y004155D01*
X052049Y004109D01*
X052049Y004063D01*
X052063Y003973D01*
X052092Y003886D01*
X052133Y003805D01*
X052187Y003731D01*
X052251Y003667D01*
X050618Y003667D01*
X050460Y003826D02*
X052123Y003826D01*
X052062Y003984D02*
X048993Y003984D01*
X049113Y004143D02*
X052049Y004143D01*
X052049Y004109D02*
X052979Y004109D01*
X052049Y004109D01*
X052082Y004301D02*
X049140Y004301D01*
X049095Y004460D02*
X052167Y004460D01*
X052187Y004487D02*
X052251Y004552D01*
X052325Y004605D01*
X052407Y004647D01*
X052493Y004675D01*
X052584Y004689D01*
X052979Y004689D01*
X052979Y004109D01*
X052979Y004109D01*
X052979Y004109D01*
X052979Y003529D01*
X052584Y003529D01*
X052493Y003543D01*
X052407Y003572D01*
X052325Y003613D01*
X052251Y003667D01*
X052979Y003667D02*
X052979Y003667D01*
X052979Y003529D02*
X053375Y003529D01*
X053465Y003543D01*
X053552Y003572D01*
X053633Y003613D01*
X053707Y003667D01*
X053772Y003731D01*
X053825Y003805D01*
X053867Y003886D01*
X053895Y003973D01*
X053909Y004063D01*
X053909Y004109D01*
X052979Y004109D01*
X052979Y003529D01*
X052979Y003826D02*
X052979Y003826D01*
X052979Y003984D02*
X052979Y003984D01*
X052979Y004109D02*
X052979Y004109D01*
X052979Y004109D01*
X052979Y004689D01*
X053375Y004689D01*
X053465Y004675D01*
X053552Y004647D01*
X053633Y004605D01*
X053707Y004552D01*
X053772Y004487D01*
X053825Y004413D01*
X053867Y004332D01*
X053895Y004245D01*
X053909Y004155D01*
X053909Y004109D01*
X052979Y004109D01*
X052979Y004143D02*
X052979Y004143D01*
X052979Y004301D02*
X052979Y004301D01*
X052979Y004460D02*
X052979Y004460D01*
X052979Y004618D02*
X052979Y004618D01*
X052350Y004618D02*
X048905Y004618D01*
X048655Y004618D02*
X048440Y004618D01*
X048430Y004777D02*
X055351Y004777D01*
X055510Y004935D02*
X049344Y004935D01*
X048816Y004935D02*
X048334Y004935D01*
X048567Y003984D02*
X046188Y003984D01*
X050777Y003509D02*
X054083Y003509D01*
X054242Y003667D02*
X053707Y003667D01*
X053836Y003826D02*
X054400Y003826D01*
X054559Y003984D02*
X053897Y003984D01*
X053909Y004143D02*
X054717Y004143D01*
X054876Y004301D02*
X053877Y004301D01*
X053792Y004460D02*
X055034Y004460D01*
X055193Y004618D02*
X053608Y004618D01*
X055051Y003826D02*
X055273Y003826D01*
X055308Y003840D02*
X055176Y003785D01*
X055075Y003684D01*
X055020Y003552D01*
X055020Y003408D01*
X055075Y003276D01*
X055176Y003175D01*
X055308Y003120D01*
X055452Y003120D01*
X055584Y003175D01*
X055659Y003250D01*
X055861Y003250D01*
X055820Y003152D01*
X055820Y003045D01*
X054760Y001985D01*
X054760Y002180D01*
X054760Y002576D01*
X054746Y002666D01*
X054718Y002753D01*
X054676Y002834D01*
X054622Y002908D01*
X054558Y002972D01*
X054484Y003026D01*
X054403Y003068D01*
X054320Y003094D01*
X056350Y005125D01*
X056350Y003710D01*
X055659Y003710D01*
X055584Y003785D01*
X055452Y003840D01*
X055308Y003840D01*
X055209Y003984D02*
X056350Y003984D01*
X056350Y003826D02*
X055487Y003826D01*
X055368Y004143D02*
X056350Y004143D01*
X056350Y004301D02*
X055526Y004301D01*
X055685Y004460D02*
X056350Y004460D01*
X056350Y004618D02*
X055843Y004618D01*
X056002Y004777D02*
X056350Y004777D01*
X056350Y004935D02*
X056160Y004935D01*
X056319Y005094D02*
X056350Y005094D01*
X055068Y003667D02*
X054892Y003667D01*
X055020Y003509D02*
X054734Y003509D01*
X054575Y003350D02*
X055044Y003350D01*
X055159Y003192D02*
X054417Y003192D01*
X054470Y003033D02*
X055808Y003033D01*
X055837Y003192D02*
X055601Y003192D01*
X055649Y002875D02*
X054647Y002875D01*
X054729Y002716D02*
X055491Y002716D01*
X055332Y002558D02*
X054760Y002558D01*
X054760Y002399D02*
X055174Y002399D01*
X055015Y002241D02*
X054760Y002241D01*
X054760Y002180D02*
X054180Y002180D01*
X054180Y002180D01*
X054760Y002180D01*
X054760Y002082D02*
X054857Y002082D01*
X054180Y002180D02*
X053600Y002180D01*
X053600Y002375D01*
X052235Y001010D01*
X053785Y001010D01*
X054040Y001266D01*
X053957Y001292D01*
X053876Y001334D01*
X053802Y001388D01*
X053738Y001452D01*
X053684Y001526D01*
X053642Y001607D01*
X053614Y001694D01*
X053600Y001784D01*
X053600Y002180D01*
X054180Y002180D01*
X054180Y002180D01*
X053600Y002241D02*
X053466Y002241D01*
X053600Y002082D02*
X053307Y002082D01*
X053149Y001924D02*
X053600Y001924D01*
X053603Y001765D02*
X052990Y001765D01*
X052832Y001607D02*
X053643Y001607D01*
X053742Y001448D02*
X052673Y001448D01*
X052515Y001290D02*
X053967Y001290D01*
X053906Y001131D02*
X052356Y001131D01*
X052378Y001924D02*
X052498Y001924D01*
X052378Y002082D02*
X052657Y002082D01*
X052815Y002241D02*
X052378Y002241D01*
X052378Y002399D02*
X052974Y002399D01*
X053132Y002558D02*
X052378Y002558D01*
X052368Y002716D02*
X053291Y002716D01*
X053449Y002875D02*
X052302Y002875D01*
X052157Y003033D02*
X053608Y003033D01*
X053766Y003192D02*
X051094Y003192D01*
X050935Y003350D02*
X053925Y003350D01*
X051479Y003033D02*
X051252Y003033D01*
X050227Y007471D02*
X050133Y007471D01*
X049980Y007630D02*
X050380Y007630D01*
X049380Y007630D02*
X048980Y007630D01*
X049133Y007471D02*
X049227Y007471D01*
X048380Y007630D02*
X047980Y007630D01*
X048133Y007471D02*
X048227Y007471D01*
X047380Y007630D02*
X046980Y007630D01*
X047133Y007471D02*
X047227Y007471D01*
X046380Y007630D02*
X045980Y007630D01*
X046133Y007471D02*
X046227Y007471D01*
X045380Y007630D02*
X044980Y007630D01*
X045133Y007471D02*
X045227Y007471D01*
X045234Y007947D02*
X055121Y007947D01*
X055150Y008105D02*
X045276Y008105D01*
X045274Y008264D02*
X055150Y008264D01*
X055207Y008422D02*
X051631Y008422D01*
X051728Y008581D02*
X055331Y008581D01*
X055371Y008739D02*
X051764Y008739D01*
X051923Y008898D02*
X055223Y008898D01*
X055158Y009056D02*
X052081Y009056D01*
X052240Y009215D02*
X055150Y009215D01*
X055186Y009373D02*
X052398Y009373D01*
X052557Y009532D02*
X055282Y009532D01*
X055478Y009690D02*
X052715Y009690D01*
X052874Y009849D02*
X053002Y009849D01*
X053558Y009849D02*
X055262Y009849D01*
X053174Y010800D02*
X045049Y010800D01*
X044952Y010641D02*
X053016Y010641D01*
X052857Y010483D02*
X045127Y010483D01*
X045194Y010324D02*
X052699Y010324D01*
X052540Y010166D02*
X045210Y010166D01*
X045182Y010007D02*
X052382Y010007D01*
X052223Y009849D02*
X045098Y009849D01*
X044882Y009690D02*
X052065Y009690D01*
X051906Y009532D02*
X045078Y009532D01*
X045174Y009373D02*
X051748Y009373D01*
X051589Y009215D02*
X045210Y009215D01*
X045202Y009056D02*
X051431Y009056D01*
X051088Y008898D02*
X045137Y008898D01*
X044989Y008739D02*
X051020Y008739D01*
X051032Y008581D02*
X045128Y008581D01*
X045230Y008422D02*
X051129Y008422D01*
X053333Y010958D02*
X045162Y010958D01*
X045210Y011117D02*
X053491Y011117D01*
X053650Y011275D02*
X045210Y011275D01*
X045149Y011434D02*
X053808Y011434D01*
X053967Y011592D02*
X045018Y011592D01*
X045000Y011751D02*
X054125Y011751D01*
X054284Y011909D02*
X045141Y011909D01*
X045207Y012068D02*
X054294Y012068D01*
X054154Y012226D02*
X045210Y012226D01*
X045169Y012385D02*
X054120Y012385D01*
X053992Y012543D02*
X045067Y012543D01*
X044910Y012702D02*
X053833Y012702D01*
X053675Y012860D02*
X045110Y012860D01*
X045187Y013019D02*
X053516Y013019D01*
X053358Y013177D02*
X045210Y013177D01*
X045189Y013336D02*
X053199Y013336D01*
X053041Y013494D02*
X045116Y013494D01*
X044924Y013653D02*
X052882Y013653D01*
X052724Y013811D02*
X045061Y013811D01*
X045166Y013970D02*
X052565Y013970D01*
X052407Y014128D02*
X045210Y014128D01*
X045210Y014287D02*
X052248Y014287D01*
X052090Y014445D02*
X045144Y014445D01*
X045006Y014604D02*
X051931Y014604D01*
X051773Y014762D02*
X045012Y014762D01*
X045146Y014921D02*
X051614Y014921D01*
X051456Y015079D02*
X045210Y015079D01*
X045210Y015238D02*
X051297Y015238D01*
X050939Y015396D02*
X045164Y015396D01*
X045055Y015555D02*
X050780Y015555D01*
X050622Y015713D02*
X044938Y015713D01*
X045121Y015872D02*
X050463Y015872D01*
X050305Y016030D02*
X045192Y016030D01*
X045210Y016189D02*
X050146Y016189D01*
X049988Y016347D02*
X045184Y016347D01*
X045104Y016506D02*
X049829Y016506D01*
X049671Y016664D02*
X044896Y016664D01*
X045072Y016823D02*
X049512Y016823D01*
X049354Y016981D02*
X045171Y016981D01*
X045210Y017140D02*
X049195Y017140D01*
X049037Y017298D02*
X045205Y017298D01*
X045139Y017457D02*
X048878Y017457D01*
X048720Y017615D02*
X044995Y017615D01*
X045023Y017774D02*
X048561Y017774D01*
X048403Y017932D02*
X045151Y017932D01*
X045210Y018091D02*
X048244Y018091D01*
X048086Y018249D02*
X045210Y018249D01*
X045159Y018408D02*
X047927Y018408D01*
X047769Y018566D02*
X045044Y018566D01*
X044965Y018725D02*
X047610Y018725D01*
X047452Y018883D02*
X045131Y018883D01*
X045196Y019042D02*
X047293Y019042D01*
X047135Y019200D02*
X045210Y019200D01*
X045180Y019359D02*
X046976Y019359D01*
X046818Y019517D02*
X045093Y019517D01*
X044869Y019676D02*
X046659Y019676D01*
X046501Y019834D02*
X045084Y019834D01*
X045176Y019993D02*
X046342Y019993D01*
X046184Y020151D02*
X045210Y020151D01*
X045200Y020310D02*
X046025Y020310D01*
X045867Y020468D02*
X045134Y020468D01*
X044983Y020627D02*
X045708Y020627D01*
X045550Y020785D02*
X045035Y020785D01*
X045156Y020944D02*
X045391Y020944D01*
X045233Y021102D02*
X045210Y021102D01*
X044491Y019676D02*
X044201Y019676D01*
X044267Y019517D02*
X031502Y019517D01*
X031540Y019676D02*
X039859Y019676D01*
X039701Y019834D02*
X031506Y019834D01*
X031345Y019359D02*
X044180Y019359D01*
X043741Y018566D02*
X041782Y018566D01*
X041729Y018408D02*
X043582Y018408D01*
X044074Y018249D02*
X044150Y018249D01*
X044150Y018285D02*
X044150Y018075D01*
X044179Y018004D01*
X043285Y017110D01*
X040659Y017110D01*
X040584Y017185D01*
X040452Y017240D01*
X040308Y017240D01*
X040176Y017185D01*
X040075Y017084D01*
X040020Y016952D01*
X040020Y016808D01*
X040061Y016710D01*
X039623Y016710D01*
X039634Y016732D01*
X039658Y016805D01*
X039670Y016881D01*
X039670Y017180D01*
X039670Y017479D01*
X039658Y017555D01*
X039634Y017628D01*
X039599Y017697D01*
X039554Y017759D01*
X039499Y017814D01*
X039449Y017850D01*
X043675Y017850D01*
X043810Y017985D01*
X044178Y018353D01*
X044150Y018285D01*
X044150Y018091D02*
X043916Y018091D01*
X043757Y017932D02*
X044107Y017932D01*
X043948Y017774D02*
X039539Y017774D01*
X039638Y017615D02*
X043790Y017615D01*
X043631Y017457D02*
X039670Y017457D01*
X039670Y017298D02*
X043473Y017298D01*
X043314Y017140D02*
X040630Y017140D01*
X040130Y017140D02*
X039670Y017140D01*
X039670Y017180D02*
X039180Y017180D01*
X039670Y017180D01*
X039670Y016981D02*
X040032Y016981D01*
X040020Y016823D02*
X039661Y016823D01*
X039180Y017180D02*
X039180Y017180D01*
X039180Y017180D01*
X038690Y017180D01*
X038690Y017479D01*
X038702Y017555D01*
X038726Y017628D01*
X038761Y017697D01*
X038806Y017759D01*
X038861Y017814D01*
X038911Y017850D01*
X038288Y017850D01*
X038418Y017796D01*
X038536Y017678D01*
X038600Y017524D01*
X038600Y017085D01*
X038690Y016995D01*
X038690Y017180D01*
X039180Y017180D01*
X038690Y017140D02*
X038600Y017140D01*
X038600Y017298D02*
X038690Y017298D01*
X038690Y017457D02*
X038600Y017457D01*
X038562Y017615D02*
X038722Y017615D01*
X038821Y017774D02*
X038440Y017774D01*
X038818Y019993D02*
X039542Y019993D01*
X039384Y020151D02*
X039321Y020151D01*
X039039Y020151D02*
X038976Y020151D01*
X037668Y022310D02*
X037704Y022359D01*
X037748Y022445D01*
X037777Y022537D01*
X037792Y022632D01*
X037792Y022632D01*
X037228Y022632D01*
X037228Y022728D01*
X037792Y022728D01*
X037777Y022823D01*
X037748Y022915D01*
X037704Y023001D01*
X037668Y023050D01*
X040692Y023050D01*
X040656Y023001D01*
X040612Y022915D01*
X040583Y022823D01*
X040568Y022728D01*
X040568Y022728D01*
X041132Y022728D01*
X041132Y022632D01*
X040568Y022632D01*
X040583Y022537D01*
X040612Y022445D01*
X040656Y022359D01*
X040692Y022310D01*
X037668Y022310D01*
X037709Y022370D02*
X040651Y022370D01*
X040585Y022529D02*
X037775Y022529D01*
X037792Y022728D02*
X037792Y022728D01*
X037770Y022846D02*
X040590Y022846D01*
X040658Y023004D02*
X037702Y023004D01*
X037228Y022687D02*
X041132Y022687D01*
X040568Y022632D02*
X040568Y022632D01*
X037132Y022632D02*
X036568Y022632D01*
X036583Y022537D01*
X036612Y022445D01*
X036656Y022359D01*
X036692Y022310D01*
X034668Y022310D01*
X034704Y022359D01*
X034748Y022445D01*
X034777Y022537D01*
X034792Y022632D01*
X034792Y022632D01*
X034228Y022632D01*
X034228Y022728D01*
X034792Y022728D01*
X034777Y022823D01*
X034748Y022915D01*
X034704Y023001D01*
X034668Y023050D01*
X036692Y023050D01*
X036656Y023001D01*
X036612Y022915D01*
X036583Y022823D01*
X036568Y022728D01*
X036568Y022728D01*
X037132Y022728D01*
X037132Y022632D01*
X037132Y022687D02*
X034228Y022687D01*
X034132Y022687D02*
X030228Y022687D01*
X030228Y022632D02*
X030792Y022632D01*
X030792Y022632D01*
X030777Y022537D01*
X030748Y022445D01*
X030704Y022359D01*
X030647Y022281D01*
X030579Y022213D01*
X030501Y022156D01*
X030415Y022112D01*
X030323Y022083D01*
X030228Y022068D01*
X030228Y022068D01*
X030228Y022632D01*
X030228Y022529D02*
X030132Y022529D01*
X030132Y022370D02*
X030228Y022370D01*
X030228Y022212D02*
X030132Y022212D01*
X030577Y022212D02*
X033245Y022212D01*
X033220Y022053D02*
X027932Y022053D01*
X030709Y022370D02*
X033361Y022370D01*
X033585Y022529D02*
X030775Y022529D01*
X030792Y022728D02*
X030792Y022728D01*
X030770Y022846D02*
X033590Y022846D01*
X033658Y023004D02*
X030702Y023004D01*
X033568Y022632D02*
X033568Y022632D01*
X034709Y022370D02*
X036651Y022370D01*
X036585Y022529D02*
X034775Y022529D01*
X034792Y022728D02*
X034792Y022728D01*
X034770Y022846D02*
X036590Y022846D01*
X036658Y023004D02*
X034702Y023004D01*
X036568Y022632D02*
X036568Y022632D01*
X031015Y019359D02*
X030384Y019359D01*
X032594Y016823D02*
X032766Y016823D01*
X044149Y010324D02*
X044166Y010324D01*
X044150Y010166D02*
X043991Y010166D01*
X043832Y010007D02*
X044178Y010007D01*
X044262Y009849D02*
X043674Y009849D01*
X043540Y009690D02*
X044478Y009690D01*
X044282Y009532D02*
X043508Y009532D01*
X043380Y009373D02*
X044186Y009373D01*
X038594Y006045D02*
X036254Y006045D01*
X035706Y006045D02*
X032766Y006045D01*
X032903Y005886D02*
X038457Y005886D01*
X038391Y005728D02*
X032969Y005728D01*
X033015Y005569D02*
X038345Y005569D01*
X038345Y005411D02*
X033015Y005411D01*
X033002Y005252D02*
X038358Y005252D01*
X038424Y005094D02*
X037364Y005094D01*
X037513Y004935D02*
X038514Y004935D01*
X036076Y005094D02*
X035284Y005094D01*
X035433Y004935D02*
X035927Y004935D01*
X033996Y005094D02*
X032936Y005094D01*
X032846Y004935D02*
X033847Y004935D01*
X031514Y004935D02*
X030513Y004935D01*
X030364Y005094D02*
X031424Y005094D01*
X025420Y003667D02*
X011118Y003667D01*
X010785Y003350D02*
X007810Y003350D01*
X007810Y003192D02*
X008215Y003192D01*
X007976Y003033D02*
X007810Y003033D01*
X007350Y003192D02*
X007145Y003192D01*
X007350Y003350D02*
X001010Y003350D01*
X001010Y003192D02*
X001215Y003192D01*
X002225Y003192D02*
X006135Y003192D01*
X005896Y003033D02*
X002464Y003033D01*
X002555Y002875D02*
X005805Y002875D01*
X005775Y002716D02*
X004416Y002716D01*
X004713Y002558D02*
X005792Y002558D01*
X005864Y002399D02*
X004872Y002399D01*
X004947Y002241D02*
X006058Y002241D01*
X007222Y002241D02*
X008138Y002241D01*
X007944Y002399D02*
X007416Y002399D01*
X009225Y003192D02*
X010943Y003192D01*
X010626Y003509D02*
X007810Y003509D01*
X007810Y003667D02*
X010468Y003667D01*
X010195Y003826D02*
X007810Y003826D01*
X007810Y003984D02*
X009972Y003984D01*
X009920Y004143D02*
X007810Y004143D01*
X007810Y004301D02*
X008002Y004301D01*
X007896Y004460D02*
X007810Y004460D01*
X007810Y004618D02*
X007855Y004618D01*
X007861Y004777D02*
X007810Y004777D01*
X007810Y004935D02*
X007927Y004935D01*
X007810Y005094D02*
X008076Y005094D01*
X007810Y005252D02*
X010358Y005252D01*
X010345Y005411D02*
X007810Y005411D01*
X007810Y005569D02*
X010345Y005569D01*
X010391Y005728D02*
X007810Y005728D01*
X007810Y005886D02*
X010457Y005886D01*
X010594Y006045D02*
X007810Y006045D01*
X007810Y006203D02*
X010816Y006203D01*
X010424Y005094D02*
X009364Y005094D01*
X009513Y004935D02*
X010514Y004935D01*
X010050Y004460D02*
X009544Y004460D01*
X009438Y004301D02*
X009940Y004301D01*
X009464Y003033D02*
X012896Y003033D01*
X012805Y002875D02*
X009555Y002875D01*
X007350Y003509D02*
X001010Y003509D01*
X001010Y003667D02*
X007350Y003667D01*
X007350Y003826D02*
X001010Y003826D01*
X001010Y003984D02*
X007350Y003984D01*
X007350Y004143D02*
X001010Y004143D01*
X002438Y004301D02*
X005922Y004301D01*
X005816Y004460D02*
X002544Y004460D01*
X002585Y002716D02*
X003944Y002716D01*
X003647Y002558D02*
X002568Y002558D01*
X002496Y002399D02*
X003488Y002399D01*
X003413Y002241D02*
X002302Y002241D01*
X000660Y000973D02*
X031020Y000973D01*
X031053Y001131D02*
X027840Y001131D01*
X027320Y001131D02*
X025481Y001131D01*
X025740Y001290D02*
X027228Y001290D01*
X027220Y001448D02*
X025892Y001448D01*
X025958Y001607D02*
X027297Y001607D01*
X031059Y000814D02*
X000660Y000814D01*
X007284Y005094D02*
X007350Y005094D01*
X012695Y004460D02*
X012816Y004460D01*
X014284Y005094D02*
X015076Y005094D01*
X014927Y004935D02*
X014433Y004935D01*
X014499Y004777D02*
X014861Y004777D01*
X014855Y004618D02*
X014505Y004618D01*
X014464Y004460D02*
X014896Y004460D01*
X016364Y005094D02*
X017424Y005094D01*
X017514Y004935D02*
X016513Y004935D01*
X016464Y003033D02*
X019896Y003033D01*
X019805Y002875D02*
X016555Y002875D01*
X016585Y002716D02*
X017944Y002716D01*
X017647Y002558D02*
X016568Y002558D01*
X016496Y002399D02*
X017488Y002399D01*
X017413Y002241D02*
X016302Y002241D01*
X015138Y002241D02*
X014222Y002241D01*
X014416Y002399D02*
X014944Y002399D01*
X014872Y002558D02*
X014488Y002558D01*
X014505Y002716D02*
X014855Y002716D01*
X014885Y002875D02*
X014475Y002875D01*
X014384Y003033D02*
X014976Y003033D01*
X018416Y002716D02*
X019775Y002716D01*
X019792Y002558D02*
X018713Y002558D01*
X018872Y002399D02*
X019864Y002399D01*
X020058Y002241D02*
X018947Y002241D01*
X021222Y002241D02*
X022138Y002241D01*
X021944Y002399D02*
X021416Y002399D01*
X021488Y002558D02*
X021872Y002558D01*
X021855Y002716D02*
X021505Y002716D01*
X021475Y002875D02*
X021885Y002875D01*
X021976Y003033D02*
X021384Y003033D01*
D19*
X022720Y002700D02*
X022780Y002780D01*
X027580Y002780D01*
X027640Y002700D01*
X029720Y002700D02*
X029780Y002780D01*
X034580Y002780D01*
X034640Y002700D01*
X034680Y002680D01*
X035180Y002180D01*
X037680Y002180D01*
X036780Y002780D02*
X036720Y002700D01*
X036780Y002780D02*
X041580Y002780D01*
X041640Y002700D01*
X041080Y001780D02*
X040480Y002380D01*
X041080Y001780D02*
X050980Y001780D01*
X051580Y001180D01*
X052080Y001180D01*
X056280Y005380D01*
X056280Y016180D01*
X055680Y016180D01*
X055680Y015180D02*
X048280Y022580D01*
X042080Y022580D01*
X042280Y021680D02*
X027980Y021680D01*
X027780Y021880D01*
X005380Y021880D01*
X004180Y020680D01*
X006180Y018680D02*
X009180Y018680D01*
X009680Y018680D01*
X011180Y017180D01*
X012680Y018680D01*
X013180Y018680D01*
X014180Y017680D01*
X018880Y017680D01*
X019380Y017180D01*
X019430Y017180D01*
X019480Y017180D01*
X019980Y017680D01*
X026480Y017680D01*
X026480Y017180D01*
X026430Y017180D01*
X026480Y017680D02*
X026480Y018680D01*
X030180Y018680D01*
X029680Y018980D02*
X030380Y019680D01*
X031180Y019680D01*
X030380Y020080D02*
X038580Y020080D01*
X039180Y020680D01*
X039980Y019880D01*
X044080Y019880D01*
X044080Y021380D01*
X044480Y021780D01*
X044880Y021780D01*
X051180Y015480D01*
X051380Y015480D01*
X054480Y012380D01*
X054880Y012180D02*
X055680Y012180D01*
X054880Y012180D02*
X051380Y008680D01*
X053080Y007580D02*
X051080Y005580D01*
X044480Y005580D01*
X043280Y006780D01*
X042080Y006780D01*
X040080Y008780D01*
X036780Y008780D01*
X036720Y008700D01*
X037080Y009280D02*
X008180Y009280D01*
X007580Y008680D01*
X007580Y002780D01*
X008680Y002780D01*
X008720Y002700D01*
X010280Y004180D02*
X011180Y003280D01*
X032180Y003280D01*
X033180Y003280D02*
X048680Y003280D01*
X049780Y002180D01*
X050280Y003680D02*
X051780Y002180D01*
X051818Y002180D01*
X053880Y000780D02*
X031580Y000780D01*
X031380Y000980D01*
X031780Y001080D02*
X044380Y001080D01*
X044680Y001380D01*
X050280Y003680D02*
X025780Y003680D01*
X027580Y004580D02*
X027640Y004660D01*
X027580Y004580D02*
X022780Y004580D01*
X022720Y004660D01*
X020640Y004660D02*
X020580Y004580D01*
X015780Y004580D01*
X015720Y004660D01*
X012580Y004080D02*
X045380Y004080D01*
X045880Y004180D02*
X045980Y004280D01*
X048780Y004280D01*
X048080Y004680D02*
X047980Y004580D01*
X044480Y004580D01*
X043880Y005180D01*
X041980Y005180D01*
X041280Y005880D01*
X040480Y006680D02*
X028280Y006680D01*
X029680Y006280D02*
X018180Y006280D01*
X017280Y007180D01*
X015720Y008700D02*
X015780Y008780D01*
X020580Y008780D01*
X020640Y008700D01*
X022720Y008700D02*
X022780Y008780D01*
X027580Y008780D01*
X027640Y008700D01*
X029720Y008700D02*
X029780Y008780D01*
X034580Y008780D01*
X034640Y008700D01*
X037080Y009280D02*
X037580Y009780D01*
X037280Y010080D02*
X019480Y010080D01*
X019380Y010180D01*
X020580Y010580D02*
X020640Y010660D01*
X020680Y010680D01*
X022680Y010680D01*
X022720Y010660D01*
X022780Y010580D01*
X027580Y010580D01*
X027640Y010660D01*
X027680Y010680D01*
X029680Y010680D01*
X029720Y010660D01*
X029780Y010580D01*
X034580Y010580D01*
X034640Y010660D01*
X034680Y010680D01*
X036680Y010680D01*
X036720Y010660D01*
X036780Y010580D01*
X041580Y010580D01*
X041640Y010660D01*
X042080Y010080D02*
X038880Y010080D01*
X038780Y010180D01*
X037380Y010180D01*
X037280Y010080D01*
X040080Y008780D02*
X041580Y008780D01*
X041640Y008700D01*
X042780Y007580D02*
X043280Y007580D01*
X042780Y007580D02*
X042780Y010680D01*
X041180Y012280D01*
X034780Y012280D01*
X034680Y012180D01*
X034280Y011680D02*
X034280Y012780D01*
X042380Y012780D01*
X043780Y014180D01*
X044680Y014180D01*
X042680Y014780D02*
X038280Y014780D01*
X037180Y013680D01*
X035280Y013180D02*
X033580Y014880D01*
X021680Y014880D01*
X021580Y014780D01*
X020180Y013680D02*
X020680Y013180D01*
X031680Y013180D01*
X030680Y014180D02*
X030180Y013680D01*
X030680Y014180D02*
X031280Y014180D01*
X033780Y011680D01*
X033880Y011280D02*
X033680Y011280D01*
X032680Y012280D01*
X001180Y012280D01*
X001180Y013780D01*
X001580Y014180D01*
X003180Y014180D01*
X003680Y013680D01*
X004780Y013180D02*
X005180Y013580D01*
X005180Y015180D01*
X044680Y015180D01*
X044080Y015580D02*
X042980Y015580D01*
X043480Y015980D02*
X041480Y015980D01*
X041080Y015580D01*
X036780Y015580D01*
X034680Y015580D02*
X007280Y015580D01*
X005680Y013680D02*
X006680Y012680D01*
X028980Y012680D01*
X032580Y014480D02*
X024980Y014480D01*
X024180Y013680D01*
X027880Y016380D02*
X028280Y015980D01*
X027880Y016380D02*
X023580Y016380D01*
X024380Y017180D01*
X024430Y017180D01*
X023430Y017180D02*
X023380Y017180D01*
X022880Y016680D01*
X016980Y016680D01*
X016480Y017180D01*
X016430Y017180D01*
X017930Y018180D02*
X017980Y018180D01*
X018780Y018980D01*
X029680Y018980D01*
X029680Y019380D02*
X030380Y020080D01*
X029680Y019380D02*
X025180Y019380D01*
X025080Y019780D02*
X024780Y019480D01*
X012380Y019480D01*
X011180Y020680D01*
X006380Y023680D02*
X000780Y018080D01*
X000780Y002780D01*
X001680Y002780D01*
X001720Y002700D01*
X012380Y004280D02*
X012580Y004080D01*
X013640Y008700D02*
X013580Y008780D01*
X008780Y008780D01*
X008720Y008700D01*
X008780Y010580D02*
X008720Y010660D01*
X008780Y010580D02*
X013580Y010580D01*
X013640Y010660D01*
X015720Y010660D02*
X015780Y010580D01*
X020580Y010580D01*
X015080Y015980D02*
X011380Y015980D01*
X010180Y017180D01*
X018280Y016280D02*
X018380Y016380D01*
X023580Y016380D01*
X027880Y016780D02*
X028180Y016480D01*
X033480Y016480D01*
X034180Y017180D01*
X034680Y017580D02*
X034680Y015580D01*
X038180Y017180D02*
X038880Y016480D01*
X040880Y016480D01*
X041180Y016180D01*
X040380Y016880D02*
X043380Y016880D01*
X044680Y018180D01*
X044680Y019180D02*
X043580Y018080D01*
X035180Y018080D01*
X034680Y017580D01*
X043480Y015980D02*
X044680Y017180D01*
X044680Y016180D02*
X044080Y015580D01*
X044680Y013180D02*
X043280Y013180D01*
X042080Y013180D02*
X035280Y013180D01*
X034280Y011680D02*
X033880Y011280D01*
X042080Y010080D02*
X042280Y009880D01*
X043180Y009680D02*
X044680Y011180D01*
X044680Y012180D02*
X043280Y010780D01*
X043180Y010780D01*
X044680Y008180D02*
X054080Y008180D01*
X053080Y007580D02*
X055080Y007580D01*
X055680Y008180D01*
X055680Y007180D02*
X054080Y007180D01*
X055380Y006480D02*
X052480Y006480D01*
X055380Y006480D02*
X055680Y006180D01*
X055380Y003480D02*
X056580Y003480D01*
X056580Y020280D01*
X055680Y021180D01*
X053680Y019680D02*
X049680Y023680D01*
X006380Y023680D01*
X020880Y023280D02*
X049580Y023280D01*
X055680Y017180D01*
X052180Y016080D02*
X046180Y022080D01*
X033580Y022080D01*
X025980Y019780D02*
X025080Y019780D01*
X042280Y021680D02*
X043680Y020280D01*
X051380Y015880D02*
X054080Y013180D01*
X055680Y013180D01*
X055680Y010180D02*
X055580Y010080D01*
X053280Y010080D01*
X044680Y007180D02*
X042480Y007180D01*
X043380Y006280D02*
X044480Y005180D01*
X049080Y005180D01*
X043380Y006280D02*
X035980Y006280D01*
X036680Y004680D02*
X034680Y004680D01*
X034640Y004660D01*
X034580Y004580D01*
X029780Y004580D01*
X029720Y004660D01*
X036680Y004680D02*
X036720Y004660D01*
X036780Y004580D01*
X041580Y004580D01*
X041640Y004660D01*
X031780Y001080D02*
X031480Y001380D01*
X027580Y001380D01*
X006640Y010660D02*
X006580Y010580D01*
X001780Y010580D01*
X001720Y010660D01*
X002180Y013180D02*
X004780Y013180D01*
X002180Y013180D02*
X001680Y013680D01*
X053880Y000780D02*
X056180Y003080D01*
D20*
X056180Y003080D03*
X055380Y003480D03*
X049780Y002180D03*
X045880Y004180D03*
X045380Y004080D03*
X048080Y004680D03*
X048780Y004280D03*
X049080Y005180D03*
X052480Y006480D03*
X054080Y007180D03*
X054080Y008180D03*
X051380Y008680D03*
X053280Y010080D03*
X054480Y012380D03*
X051380Y015880D03*
X052180Y016080D03*
X053680Y019680D03*
X043680Y020280D03*
X042080Y022580D03*
X033580Y022080D03*
X031180Y019680D03*
X025980Y019780D03*
X025180Y019380D03*
X027880Y016780D03*
X028280Y015980D03*
X032580Y014480D03*
X031680Y013180D03*
X028980Y012680D03*
X033780Y011680D03*
X034680Y012180D03*
X037580Y009780D03*
X042280Y009880D03*
X043180Y009680D03*
X043180Y010780D03*
X043280Y013180D03*
X042080Y013180D03*
X042680Y014780D03*
X042980Y015580D03*
X041180Y016180D03*
X040380Y016880D03*
X036780Y015580D03*
X021580Y014780D03*
X018280Y016280D03*
X015080Y015980D03*
X007280Y015580D03*
X019380Y010180D03*
X017280Y007180D03*
X012380Y004280D03*
X010280Y004180D03*
X025780Y003680D03*
X027580Y001380D03*
X031380Y000980D03*
X032180Y003280D03*
X033180Y003280D03*
X037680Y002180D03*
X040480Y002380D03*
X044680Y001380D03*
X041280Y005880D03*
X040480Y006680D03*
X042480Y007180D03*
X043280Y007580D03*
X035980Y006280D03*
X029680Y006280D03*
X028280Y006680D03*
X020880Y023280D03*
D21*
X008680Y006680D03*
X028180Y005680D03*
M02*
