G75*
%MOIN*%
%OFA0B0*%
%FSLAX24Y24*%
%IPPOS*%
%LPD*%
%AMOC8*
5,1,8,0,0,1.08239X$1,22.5*
%
%ADD10C,0.0000*%
%ADD11C,0.0060*%
%ADD12C,0.0080*%
%ADD13C,0.0020*%
%ADD14C,0.0050*%
%ADD15R,0.0850X0.0200*%
%ADD16C,0.0100*%
%ADD17C,0.0120*%
%ADD18C,0.0030*%
%ADD19C,0.0010*%
%ADD20C,0.0040*%
D10*
X000180Y000180D02*
X000180Y024676D01*
X057050Y024676D01*
X057050Y000180D01*
X000180Y000180D01*
X003825Y001910D02*
X003827Y001947D01*
X003833Y001984D01*
X003842Y002020D01*
X003856Y002054D01*
X003873Y002087D01*
X003893Y002119D01*
X003916Y002148D01*
X003942Y002174D01*
X003971Y002197D01*
X004002Y002217D01*
X004036Y002234D01*
X004070Y002248D01*
X004106Y002257D01*
X004143Y002263D01*
X004180Y002265D01*
X004217Y002263D01*
X004254Y002257D01*
X004290Y002248D01*
X004324Y002234D01*
X004357Y002217D01*
X004389Y002197D01*
X004418Y002174D01*
X004444Y002148D01*
X004467Y002119D01*
X004487Y002088D01*
X004504Y002054D01*
X004518Y002020D01*
X004527Y001984D01*
X004533Y001947D01*
X004535Y001910D01*
X004533Y001873D01*
X004527Y001836D01*
X004518Y001800D01*
X004504Y001766D01*
X004487Y001733D01*
X004467Y001701D01*
X004444Y001672D01*
X004418Y001646D01*
X004389Y001623D01*
X004358Y001603D01*
X004324Y001586D01*
X004290Y001572D01*
X004254Y001563D01*
X004217Y001557D01*
X004180Y001555D01*
X004143Y001557D01*
X004106Y001563D01*
X004070Y001572D01*
X004036Y001586D01*
X004003Y001603D01*
X003971Y001623D01*
X003942Y001646D01*
X003916Y001672D01*
X003893Y001701D01*
X003873Y001732D01*
X003856Y001766D01*
X003842Y001800D01*
X003833Y001836D01*
X003827Y001873D01*
X003825Y001910D01*
X010825Y001910D02*
X010827Y001947D01*
X010833Y001984D01*
X010842Y002020D01*
X010856Y002054D01*
X010873Y002087D01*
X010893Y002119D01*
X010916Y002148D01*
X010942Y002174D01*
X010971Y002197D01*
X011002Y002217D01*
X011036Y002234D01*
X011070Y002248D01*
X011106Y002257D01*
X011143Y002263D01*
X011180Y002265D01*
X011217Y002263D01*
X011254Y002257D01*
X011290Y002248D01*
X011324Y002234D01*
X011357Y002217D01*
X011389Y002197D01*
X011418Y002174D01*
X011444Y002148D01*
X011467Y002119D01*
X011487Y002088D01*
X011504Y002054D01*
X011518Y002020D01*
X011527Y001984D01*
X011533Y001947D01*
X011535Y001910D01*
X011533Y001873D01*
X011527Y001836D01*
X011518Y001800D01*
X011504Y001766D01*
X011487Y001733D01*
X011467Y001701D01*
X011444Y001672D01*
X011418Y001646D01*
X011389Y001623D01*
X011358Y001603D01*
X011324Y001586D01*
X011290Y001572D01*
X011254Y001563D01*
X011217Y001557D01*
X011180Y001555D01*
X011143Y001557D01*
X011106Y001563D01*
X011070Y001572D01*
X011036Y001586D01*
X011003Y001603D01*
X010971Y001623D01*
X010942Y001646D01*
X010916Y001672D01*
X010893Y001701D01*
X010873Y001732D01*
X010856Y001766D01*
X010842Y001800D01*
X010833Y001836D01*
X010827Y001873D01*
X010825Y001910D01*
X017825Y001910D02*
X017827Y001947D01*
X017833Y001984D01*
X017842Y002020D01*
X017856Y002054D01*
X017873Y002087D01*
X017893Y002119D01*
X017916Y002148D01*
X017942Y002174D01*
X017971Y002197D01*
X018002Y002217D01*
X018036Y002234D01*
X018070Y002248D01*
X018106Y002257D01*
X018143Y002263D01*
X018180Y002265D01*
X018217Y002263D01*
X018254Y002257D01*
X018290Y002248D01*
X018324Y002234D01*
X018357Y002217D01*
X018389Y002197D01*
X018418Y002174D01*
X018444Y002148D01*
X018467Y002119D01*
X018487Y002088D01*
X018504Y002054D01*
X018518Y002020D01*
X018527Y001984D01*
X018533Y001947D01*
X018535Y001910D01*
X018533Y001873D01*
X018527Y001836D01*
X018518Y001800D01*
X018504Y001766D01*
X018487Y001733D01*
X018467Y001701D01*
X018444Y001672D01*
X018418Y001646D01*
X018389Y001623D01*
X018358Y001603D01*
X018324Y001586D01*
X018290Y001572D01*
X018254Y001563D01*
X018217Y001557D01*
X018180Y001555D01*
X018143Y001557D01*
X018106Y001563D01*
X018070Y001572D01*
X018036Y001586D01*
X018003Y001603D01*
X017971Y001623D01*
X017942Y001646D01*
X017916Y001672D01*
X017893Y001701D01*
X017873Y001732D01*
X017856Y001766D01*
X017842Y001800D01*
X017833Y001836D01*
X017827Y001873D01*
X017825Y001910D01*
X024825Y001910D02*
X024827Y001947D01*
X024833Y001984D01*
X024842Y002020D01*
X024856Y002054D01*
X024873Y002087D01*
X024893Y002119D01*
X024916Y002148D01*
X024942Y002174D01*
X024971Y002197D01*
X025002Y002217D01*
X025036Y002234D01*
X025070Y002248D01*
X025106Y002257D01*
X025143Y002263D01*
X025180Y002265D01*
X025217Y002263D01*
X025254Y002257D01*
X025290Y002248D01*
X025324Y002234D01*
X025357Y002217D01*
X025389Y002197D01*
X025418Y002174D01*
X025444Y002148D01*
X025467Y002119D01*
X025487Y002088D01*
X025504Y002054D01*
X025518Y002020D01*
X025527Y001984D01*
X025533Y001947D01*
X025535Y001910D01*
X025533Y001873D01*
X025527Y001836D01*
X025518Y001800D01*
X025504Y001766D01*
X025487Y001733D01*
X025467Y001701D01*
X025444Y001672D01*
X025418Y001646D01*
X025389Y001623D01*
X025358Y001603D01*
X025324Y001586D01*
X025290Y001572D01*
X025254Y001563D01*
X025217Y001557D01*
X025180Y001555D01*
X025143Y001557D01*
X025106Y001563D01*
X025070Y001572D01*
X025036Y001586D01*
X025003Y001603D01*
X024971Y001623D01*
X024942Y001646D01*
X024916Y001672D01*
X024893Y001701D01*
X024873Y001732D01*
X024856Y001766D01*
X024842Y001800D01*
X024833Y001836D01*
X024827Y001873D01*
X024825Y001910D01*
X031825Y001910D02*
X031827Y001947D01*
X031833Y001984D01*
X031842Y002020D01*
X031856Y002054D01*
X031873Y002087D01*
X031893Y002119D01*
X031916Y002148D01*
X031942Y002174D01*
X031971Y002197D01*
X032002Y002217D01*
X032036Y002234D01*
X032070Y002248D01*
X032106Y002257D01*
X032143Y002263D01*
X032180Y002265D01*
X032217Y002263D01*
X032254Y002257D01*
X032290Y002248D01*
X032324Y002234D01*
X032357Y002217D01*
X032389Y002197D01*
X032418Y002174D01*
X032444Y002148D01*
X032467Y002119D01*
X032487Y002088D01*
X032504Y002054D01*
X032518Y002020D01*
X032527Y001984D01*
X032533Y001947D01*
X032535Y001910D01*
X032533Y001873D01*
X032527Y001836D01*
X032518Y001800D01*
X032504Y001766D01*
X032487Y001733D01*
X032467Y001701D01*
X032444Y001672D01*
X032418Y001646D01*
X032389Y001623D01*
X032358Y001603D01*
X032324Y001586D01*
X032290Y001572D01*
X032254Y001563D01*
X032217Y001557D01*
X032180Y001555D01*
X032143Y001557D01*
X032106Y001563D01*
X032070Y001572D01*
X032036Y001586D01*
X032003Y001603D01*
X031971Y001623D01*
X031942Y001646D01*
X031916Y001672D01*
X031893Y001701D01*
X031873Y001732D01*
X031856Y001766D01*
X031842Y001800D01*
X031833Y001836D01*
X031827Y001873D01*
X031825Y001910D01*
X038825Y001910D02*
X038827Y001947D01*
X038833Y001984D01*
X038842Y002020D01*
X038856Y002054D01*
X038873Y002087D01*
X038893Y002119D01*
X038916Y002148D01*
X038942Y002174D01*
X038971Y002197D01*
X039002Y002217D01*
X039036Y002234D01*
X039070Y002248D01*
X039106Y002257D01*
X039143Y002263D01*
X039180Y002265D01*
X039217Y002263D01*
X039254Y002257D01*
X039290Y002248D01*
X039324Y002234D01*
X039357Y002217D01*
X039389Y002197D01*
X039418Y002174D01*
X039444Y002148D01*
X039467Y002119D01*
X039487Y002088D01*
X039504Y002054D01*
X039518Y002020D01*
X039527Y001984D01*
X039533Y001947D01*
X039535Y001910D01*
X039533Y001873D01*
X039527Y001836D01*
X039518Y001800D01*
X039504Y001766D01*
X039487Y001733D01*
X039467Y001701D01*
X039444Y001672D01*
X039418Y001646D01*
X039389Y001623D01*
X039358Y001603D01*
X039324Y001586D01*
X039290Y001572D01*
X039254Y001563D01*
X039217Y001557D01*
X039180Y001555D01*
X039143Y001557D01*
X039106Y001563D01*
X039070Y001572D01*
X039036Y001586D01*
X039003Y001603D01*
X038971Y001623D01*
X038942Y001646D01*
X038916Y001672D01*
X038893Y001701D01*
X038873Y001732D01*
X038856Y001766D01*
X038842Y001800D01*
X038833Y001836D01*
X038827Y001873D01*
X038825Y001910D01*
X038825Y005450D02*
X038827Y005487D01*
X038833Y005524D01*
X038842Y005560D01*
X038856Y005594D01*
X038873Y005627D01*
X038893Y005659D01*
X038916Y005688D01*
X038942Y005714D01*
X038971Y005737D01*
X039002Y005757D01*
X039036Y005774D01*
X039070Y005788D01*
X039106Y005797D01*
X039143Y005803D01*
X039180Y005805D01*
X039217Y005803D01*
X039254Y005797D01*
X039290Y005788D01*
X039324Y005774D01*
X039357Y005757D01*
X039389Y005737D01*
X039418Y005714D01*
X039444Y005688D01*
X039467Y005659D01*
X039487Y005628D01*
X039504Y005594D01*
X039518Y005560D01*
X039527Y005524D01*
X039533Y005487D01*
X039535Y005450D01*
X039533Y005413D01*
X039527Y005376D01*
X039518Y005340D01*
X039504Y005306D01*
X039487Y005273D01*
X039467Y005241D01*
X039444Y005212D01*
X039418Y005186D01*
X039389Y005163D01*
X039358Y005143D01*
X039324Y005126D01*
X039290Y005112D01*
X039254Y005103D01*
X039217Y005097D01*
X039180Y005095D01*
X039143Y005097D01*
X039106Y005103D01*
X039070Y005112D01*
X039036Y005126D01*
X039003Y005143D01*
X038971Y005163D01*
X038942Y005186D01*
X038916Y005212D01*
X038893Y005241D01*
X038873Y005272D01*
X038856Y005306D01*
X038842Y005340D01*
X038833Y005376D01*
X038827Y005413D01*
X038825Y005450D01*
X038825Y007910D02*
X038827Y007947D01*
X038833Y007984D01*
X038842Y008020D01*
X038856Y008054D01*
X038873Y008087D01*
X038893Y008119D01*
X038916Y008148D01*
X038942Y008174D01*
X038971Y008197D01*
X039002Y008217D01*
X039036Y008234D01*
X039070Y008248D01*
X039106Y008257D01*
X039143Y008263D01*
X039180Y008265D01*
X039217Y008263D01*
X039254Y008257D01*
X039290Y008248D01*
X039324Y008234D01*
X039357Y008217D01*
X039389Y008197D01*
X039418Y008174D01*
X039444Y008148D01*
X039467Y008119D01*
X039487Y008088D01*
X039504Y008054D01*
X039518Y008020D01*
X039527Y007984D01*
X039533Y007947D01*
X039535Y007910D01*
X039533Y007873D01*
X039527Y007836D01*
X039518Y007800D01*
X039504Y007766D01*
X039487Y007733D01*
X039467Y007701D01*
X039444Y007672D01*
X039418Y007646D01*
X039389Y007623D01*
X039358Y007603D01*
X039324Y007586D01*
X039290Y007572D01*
X039254Y007563D01*
X039217Y007557D01*
X039180Y007555D01*
X039143Y007557D01*
X039106Y007563D01*
X039070Y007572D01*
X039036Y007586D01*
X039003Y007603D01*
X038971Y007623D01*
X038942Y007646D01*
X038916Y007672D01*
X038893Y007701D01*
X038873Y007732D01*
X038856Y007766D01*
X038842Y007800D01*
X038833Y007836D01*
X038827Y007873D01*
X038825Y007910D01*
X031825Y007910D02*
X031827Y007947D01*
X031833Y007984D01*
X031842Y008020D01*
X031856Y008054D01*
X031873Y008087D01*
X031893Y008119D01*
X031916Y008148D01*
X031942Y008174D01*
X031971Y008197D01*
X032002Y008217D01*
X032036Y008234D01*
X032070Y008248D01*
X032106Y008257D01*
X032143Y008263D01*
X032180Y008265D01*
X032217Y008263D01*
X032254Y008257D01*
X032290Y008248D01*
X032324Y008234D01*
X032357Y008217D01*
X032389Y008197D01*
X032418Y008174D01*
X032444Y008148D01*
X032467Y008119D01*
X032487Y008088D01*
X032504Y008054D01*
X032518Y008020D01*
X032527Y007984D01*
X032533Y007947D01*
X032535Y007910D01*
X032533Y007873D01*
X032527Y007836D01*
X032518Y007800D01*
X032504Y007766D01*
X032487Y007733D01*
X032467Y007701D01*
X032444Y007672D01*
X032418Y007646D01*
X032389Y007623D01*
X032358Y007603D01*
X032324Y007586D01*
X032290Y007572D01*
X032254Y007563D01*
X032217Y007557D01*
X032180Y007555D01*
X032143Y007557D01*
X032106Y007563D01*
X032070Y007572D01*
X032036Y007586D01*
X032003Y007603D01*
X031971Y007623D01*
X031942Y007646D01*
X031916Y007672D01*
X031893Y007701D01*
X031873Y007732D01*
X031856Y007766D01*
X031842Y007800D01*
X031833Y007836D01*
X031827Y007873D01*
X031825Y007910D01*
X031825Y005450D02*
X031827Y005487D01*
X031833Y005524D01*
X031842Y005560D01*
X031856Y005594D01*
X031873Y005627D01*
X031893Y005659D01*
X031916Y005688D01*
X031942Y005714D01*
X031971Y005737D01*
X032002Y005757D01*
X032036Y005774D01*
X032070Y005788D01*
X032106Y005797D01*
X032143Y005803D01*
X032180Y005805D01*
X032217Y005803D01*
X032254Y005797D01*
X032290Y005788D01*
X032324Y005774D01*
X032357Y005757D01*
X032389Y005737D01*
X032418Y005714D01*
X032444Y005688D01*
X032467Y005659D01*
X032487Y005628D01*
X032504Y005594D01*
X032518Y005560D01*
X032527Y005524D01*
X032533Y005487D01*
X032535Y005450D01*
X032533Y005413D01*
X032527Y005376D01*
X032518Y005340D01*
X032504Y005306D01*
X032487Y005273D01*
X032467Y005241D01*
X032444Y005212D01*
X032418Y005186D01*
X032389Y005163D01*
X032358Y005143D01*
X032324Y005126D01*
X032290Y005112D01*
X032254Y005103D01*
X032217Y005097D01*
X032180Y005095D01*
X032143Y005097D01*
X032106Y005103D01*
X032070Y005112D01*
X032036Y005126D01*
X032003Y005143D01*
X031971Y005163D01*
X031942Y005186D01*
X031916Y005212D01*
X031893Y005241D01*
X031873Y005272D01*
X031856Y005306D01*
X031842Y005340D01*
X031833Y005376D01*
X031827Y005413D01*
X031825Y005450D01*
X024825Y005450D02*
X024827Y005487D01*
X024833Y005524D01*
X024842Y005560D01*
X024856Y005594D01*
X024873Y005627D01*
X024893Y005659D01*
X024916Y005688D01*
X024942Y005714D01*
X024971Y005737D01*
X025002Y005757D01*
X025036Y005774D01*
X025070Y005788D01*
X025106Y005797D01*
X025143Y005803D01*
X025180Y005805D01*
X025217Y005803D01*
X025254Y005797D01*
X025290Y005788D01*
X025324Y005774D01*
X025357Y005757D01*
X025389Y005737D01*
X025418Y005714D01*
X025444Y005688D01*
X025467Y005659D01*
X025487Y005628D01*
X025504Y005594D01*
X025518Y005560D01*
X025527Y005524D01*
X025533Y005487D01*
X025535Y005450D01*
X025533Y005413D01*
X025527Y005376D01*
X025518Y005340D01*
X025504Y005306D01*
X025487Y005273D01*
X025467Y005241D01*
X025444Y005212D01*
X025418Y005186D01*
X025389Y005163D01*
X025358Y005143D01*
X025324Y005126D01*
X025290Y005112D01*
X025254Y005103D01*
X025217Y005097D01*
X025180Y005095D01*
X025143Y005097D01*
X025106Y005103D01*
X025070Y005112D01*
X025036Y005126D01*
X025003Y005143D01*
X024971Y005163D01*
X024942Y005186D01*
X024916Y005212D01*
X024893Y005241D01*
X024873Y005272D01*
X024856Y005306D01*
X024842Y005340D01*
X024833Y005376D01*
X024827Y005413D01*
X024825Y005450D01*
X024825Y007910D02*
X024827Y007947D01*
X024833Y007984D01*
X024842Y008020D01*
X024856Y008054D01*
X024873Y008087D01*
X024893Y008119D01*
X024916Y008148D01*
X024942Y008174D01*
X024971Y008197D01*
X025002Y008217D01*
X025036Y008234D01*
X025070Y008248D01*
X025106Y008257D01*
X025143Y008263D01*
X025180Y008265D01*
X025217Y008263D01*
X025254Y008257D01*
X025290Y008248D01*
X025324Y008234D01*
X025357Y008217D01*
X025389Y008197D01*
X025418Y008174D01*
X025444Y008148D01*
X025467Y008119D01*
X025487Y008088D01*
X025504Y008054D01*
X025518Y008020D01*
X025527Y007984D01*
X025533Y007947D01*
X025535Y007910D01*
X025533Y007873D01*
X025527Y007836D01*
X025518Y007800D01*
X025504Y007766D01*
X025487Y007733D01*
X025467Y007701D01*
X025444Y007672D01*
X025418Y007646D01*
X025389Y007623D01*
X025358Y007603D01*
X025324Y007586D01*
X025290Y007572D01*
X025254Y007563D01*
X025217Y007557D01*
X025180Y007555D01*
X025143Y007557D01*
X025106Y007563D01*
X025070Y007572D01*
X025036Y007586D01*
X025003Y007603D01*
X024971Y007623D01*
X024942Y007646D01*
X024916Y007672D01*
X024893Y007701D01*
X024873Y007732D01*
X024856Y007766D01*
X024842Y007800D01*
X024833Y007836D01*
X024827Y007873D01*
X024825Y007910D01*
X017825Y007910D02*
X017827Y007947D01*
X017833Y007984D01*
X017842Y008020D01*
X017856Y008054D01*
X017873Y008087D01*
X017893Y008119D01*
X017916Y008148D01*
X017942Y008174D01*
X017971Y008197D01*
X018002Y008217D01*
X018036Y008234D01*
X018070Y008248D01*
X018106Y008257D01*
X018143Y008263D01*
X018180Y008265D01*
X018217Y008263D01*
X018254Y008257D01*
X018290Y008248D01*
X018324Y008234D01*
X018357Y008217D01*
X018389Y008197D01*
X018418Y008174D01*
X018444Y008148D01*
X018467Y008119D01*
X018487Y008088D01*
X018504Y008054D01*
X018518Y008020D01*
X018527Y007984D01*
X018533Y007947D01*
X018535Y007910D01*
X018533Y007873D01*
X018527Y007836D01*
X018518Y007800D01*
X018504Y007766D01*
X018487Y007733D01*
X018467Y007701D01*
X018444Y007672D01*
X018418Y007646D01*
X018389Y007623D01*
X018358Y007603D01*
X018324Y007586D01*
X018290Y007572D01*
X018254Y007563D01*
X018217Y007557D01*
X018180Y007555D01*
X018143Y007557D01*
X018106Y007563D01*
X018070Y007572D01*
X018036Y007586D01*
X018003Y007603D01*
X017971Y007623D01*
X017942Y007646D01*
X017916Y007672D01*
X017893Y007701D01*
X017873Y007732D01*
X017856Y007766D01*
X017842Y007800D01*
X017833Y007836D01*
X017827Y007873D01*
X017825Y007910D01*
X017825Y005450D02*
X017827Y005487D01*
X017833Y005524D01*
X017842Y005560D01*
X017856Y005594D01*
X017873Y005627D01*
X017893Y005659D01*
X017916Y005688D01*
X017942Y005714D01*
X017971Y005737D01*
X018002Y005757D01*
X018036Y005774D01*
X018070Y005788D01*
X018106Y005797D01*
X018143Y005803D01*
X018180Y005805D01*
X018217Y005803D01*
X018254Y005797D01*
X018290Y005788D01*
X018324Y005774D01*
X018357Y005757D01*
X018389Y005737D01*
X018418Y005714D01*
X018444Y005688D01*
X018467Y005659D01*
X018487Y005628D01*
X018504Y005594D01*
X018518Y005560D01*
X018527Y005524D01*
X018533Y005487D01*
X018535Y005450D01*
X018533Y005413D01*
X018527Y005376D01*
X018518Y005340D01*
X018504Y005306D01*
X018487Y005273D01*
X018467Y005241D01*
X018444Y005212D01*
X018418Y005186D01*
X018389Y005163D01*
X018358Y005143D01*
X018324Y005126D01*
X018290Y005112D01*
X018254Y005103D01*
X018217Y005097D01*
X018180Y005095D01*
X018143Y005097D01*
X018106Y005103D01*
X018070Y005112D01*
X018036Y005126D01*
X018003Y005143D01*
X017971Y005163D01*
X017942Y005186D01*
X017916Y005212D01*
X017893Y005241D01*
X017873Y005272D01*
X017856Y005306D01*
X017842Y005340D01*
X017833Y005376D01*
X017827Y005413D01*
X017825Y005450D01*
X010825Y005450D02*
X010827Y005487D01*
X010833Y005524D01*
X010842Y005560D01*
X010856Y005594D01*
X010873Y005627D01*
X010893Y005659D01*
X010916Y005688D01*
X010942Y005714D01*
X010971Y005737D01*
X011002Y005757D01*
X011036Y005774D01*
X011070Y005788D01*
X011106Y005797D01*
X011143Y005803D01*
X011180Y005805D01*
X011217Y005803D01*
X011254Y005797D01*
X011290Y005788D01*
X011324Y005774D01*
X011357Y005757D01*
X011389Y005737D01*
X011418Y005714D01*
X011444Y005688D01*
X011467Y005659D01*
X011487Y005628D01*
X011504Y005594D01*
X011518Y005560D01*
X011527Y005524D01*
X011533Y005487D01*
X011535Y005450D01*
X011533Y005413D01*
X011527Y005376D01*
X011518Y005340D01*
X011504Y005306D01*
X011487Y005273D01*
X011467Y005241D01*
X011444Y005212D01*
X011418Y005186D01*
X011389Y005163D01*
X011358Y005143D01*
X011324Y005126D01*
X011290Y005112D01*
X011254Y005103D01*
X011217Y005097D01*
X011180Y005095D01*
X011143Y005097D01*
X011106Y005103D01*
X011070Y005112D01*
X011036Y005126D01*
X011003Y005143D01*
X010971Y005163D01*
X010942Y005186D01*
X010916Y005212D01*
X010893Y005241D01*
X010873Y005272D01*
X010856Y005306D01*
X010842Y005340D01*
X010833Y005376D01*
X010827Y005413D01*
X010825Y005450D01*
X010825Y007910D02*
X010827Y007947D01*
X010833Y007984D01*
X010842Y008020D01*
X010856Y008054D01*
X010873Y008087D01*
X010893Y008119D01*
X010916Y008148D01*
X010942Y008174D01*
X010971Y008197D01*
X011002Y008217D01*
X011036Y008234D01*
X011070Y008248D01*
X011106Y008257D01*
X011143Y008263D01*
X011180Y008265D01*
X011217Y008263D01*
X011254Y008257D01*
X011290Y008248D01*
X011324Y008234D01*
X011357Y008217D01*
X011389Y008197D01*
X011418Y008174D01*
X011444Y008148D01*
X011467Y008119D01*
X011487Y008088D01*
X011504Y008054D01*
X011518Y008020D01*
X011527Y007984D01*
X011533Y007947D01*
X011535Y007910D01*
X011533Y007873D01*
X011527Y007836D01*
X011518Y007800D01*
X011504Y007766D01*
X011487Y007733D01*
X011467Y007701D01*
X011444Y007672D01*
X011418Y007646D01*
X011389Y007623D01*
X011358Y007603D01*
X011324Y007586D01*
X011290Y007572D01*
X011254Y007563D01*
X011217Y007557D01*
X011180Y007555D01*
X011143Y007557D01*
X011106Y007563D01*
X011070Y007572D01*
X011036Y007586D01*
X011003Y007603D01*
X010971Y007623D01*
X010942Y007646D01*
X010916Y007672D01*
X010893Y007701D01*
X010873Y007732D01*
X010856Y007766D01*
X010842Y007800D01*
X010833Y007836D01*
X010827Y007873D01*
X010825Y007910D01*
X003825Y007910D02*
X003827Y007947D01*
X003833Y007984D01*
X003842Y008020D01*
X003856Y008054D01*
X003873Y008087D01*
X003893Y008119D01*
X003916Y008148D01*
X003942Y008174D01*
X003971Y008197D01*
X004002Y008217D01*
X004036Y008234D01*
X004070Y008248D01*
X004106Y008257D01*
X004143Y008263D01*
X004180Y008265D01*
X004217Y008263D01*
X004254Y008257D01*
X004290Y008248D01*
X004324Y008234D01*
X004357Y008217D01*
X004389Y008197D01*
X004418Y008174D01*
X004444Y008148D01*
X004467Y008119D01*
X004487Y008088D01*
X004504Y008054D01*
X004518Y008020D01*
X004527Y007984D01*
X004533Y007947D01*
X004535Y007910D01*
X004533Y007873D01*
X004527Y007836D01*
X004518Y007800D01*
X004504Y007766D01*
X004487Y007733D01*
X004467Y007701D01*
X004444Y007672D01*
X004418Y007646D01*
X004389Y007623D01*
X004358Y007603D01*
X004324Y007586D01*
X004290Y007572D01*
X004254Y007563D01*
X004217Y007557D01*
X004180Y007555D01*
X004143Y007557D01*
X004106Y007563D01*
X004070Y007572D01*
X004036Y007586D01*
X004003Y007603D01*
X003971Y007623D01*
X003942Y007646D01*
X003916Y007672D01*
X003893Y007701D01*
X003873Y007732D01*
X003856Y007766D01*
X003842Y007800D01*
X003833Y007836D01*
X003827Y007873D01*
X003825Y007910D01*
X003825Y005450D02*
X003827Y005487D01*
X003833Y005524D01*
X003842Y005560D01*
X003856Y005594D01*
X003873Y005627D01*
X003893Y005659D01*
X003916Y005688D01*
X003942Y005714D01*
X003971Y005737D01*
X004002Y005757D01*
X004036Y005774D01*
X004070Y005788D01*
X004106Y005797D01*
X004143Y005803D01*
X004180Y005805D01*
X004217Y005803D01*
X004254Y005797D01*
X004290Y005788D01*
X004324Y005774D01*
X004357Y005757D01*
X004389Y005737D01*
X004418Y005714D01*
X004444Y005688D01*
X004467Y005659D01*
X004487Y005628D01*
X004504Y005594D01*
X004518Y005560D01*
X004527Y005524D01*
X004533Y005487D01*
X004535Y005450D01*
X004533Y005413D01*
X004527Y005376D01*
X004518Y005340D01*
X004504Y005306D01*
X004487Y005273D01*
X004467Y005241D01*
X004444Y005212D01*
X004418Y005186D01*
X004389Y005163D01*
X004358Y005143D01*
X004324Y005126D01*
X004290Y005112D01*
X004254Y005103D01*
X004217Y005097D01*
X004180Y005095D01*
X004143Y005097D01*
X004106Y005103D01*
X004070Y005112D01*
X004036Y005126D01*
X004003Y005143D01*
X003971Y005163D01*
X003942Y005186D01*
X003916Y005212D01*
X003893Y005241D01*
X003873Y005272D01*
X003856Y005306D01*
X003842Y005340D01*
X003833Y005376D01*
X003827Y005413D01*
X003825Y005450D01*
X003825Y011450D02*
X003827Y011487D01*
X003833Y011524D01*
X003842Y011560D01*
X003856Y011594D01*
X003873Y011627D01*
X003893Y011659D01*
X003916Y011688D01*
X003942Y011714D01*
X003971Y011737D01*
X004002Y011757D01*
X004036Y011774D01*
X004070Y011788D01*
X004106Y011797D01*
X004143Y011803D01*
X004180Y011805D01*
X004217Y011803D01*
X004254Y011797D01*
X004290Y011788D01*
X004324Y011774D01*
X004357Y011757D01*
X004389Y011737D01*
X004418Y011714D01*
X004444Y011688D01*
X004467Y011659D01*
X004487Y011628D01*
X004504Y011594D01*
X004518Y011560D01*
X004527Y011524D01*
X004533Y011487D01*
X004535Y011450D01*
X004533Y011413D01*
X004527Y011376D01*
X004518Y011340D01*
X004504Y011306D01*
X004487Y011273D01*
X004467Y011241D01*
X004444Y011212D01*
X004418Y011186D01*
X004389Y011163D01*
X004358Y011143D01*
X004324Y011126D01*
X004290Y011112D01*
X004254Y011103D01*
X004217Y011097D01*
X004180Y011095D01*
X004143Y011097D01*
X004106Y011103D01*
X004070Y011112D01*
X004036Y011126D01*
X004003Y011143D01*
X003971Y011163D01*
X003942Y011186D01*
X003916Y011212D01*
X003893Y011241D01*
X003873Y011272D01*
X003856Y011306D01*
X003842Y011340D01*
X003833Y011376D01*
X003827Y011413D01*
X003825Y011450D01*
X010825Y011450D02*
X010827Y011487D01*
X010833Y011524D01*
X010842Y011560D01*
X010856Y011594D01*
X010873Y011627D01*
X010893Y011659D01*
X010916Y011688D01*
X010942Y011714D01*
X010971Y011737D01*
X011002Y011757D01*
X011036Y011774D01*
X011070Y011788D01*
X011106Y011797D01*
X011143Y011803D01*
X011180Y011805D01*
X011217Y011803D01*
X011254Y011797D01*
X011290Y011788D01*
X011324Y011774D01*
X011357Y011757D01*
X011389Y011737D01*
X011418Y011714D01*
X011444Y011688D01*
X011467Y011659D01*
X011487Y011628D01*
X011504Y011594D01*
X011518Y011560D01*
X011527Y011524D01*
X011533Y011487D01*
X011535Y011450D01*
X011533Y011413D01*
X011527Y011376D01*
X011518Y011340D01*
X011504Y011306D01*
X011487Y011273D01*
X011467Y011241D01*
X011444Y011212D01*
X011418Y011186D01*
X011389Y011163D01*
X011358Y011143D01*
X011324Y011126D01*
X011290Y011112D01*
X011254Y011103D01*
X011217Y011097D01*
X011180Y011095D01*
X011143Y011097D01*
X011106Y011103D01*
X011070Y011112D01*
X011036Y011126D01*
X011003Y011143D01*
X010971Y011163D01*
X010942Y011186D01*
X010916Y011212D01*
X010893Y011241D01*
X010873Y011272D01*
X010856Y011306D01*
X010842Y011340D01*
X010833Y011376D01*
X010827Y011413D01*
X010825Y011450D01*
X017825Y011450D02*
X017827Y011487D01*
X017833Y011524D01*
X017842Y011560D01*
X017856Y011594D01*
X017873Y011627D01*
X017893Y011659D01*
X017916Y011688D01*
X017942Y011714D01*
X017971Y011737D01*
X018002Y011757D01*
X018036Y011774D01*
X018070Y011788D01*
X018106Y011797D01*
X018143Y011803D01*
X018180Y011805D01*
X018217Y011803D01*
X018254Y011797D01*
X018290Y011788D01*
X018324Y011774D01*
X018357Y011757D01*
X018389Y011737D01*
X018418Y011714D01*
X018444Y011688D01*
X018467Y011659D01*
X018487Y011628D01*
X018504Y011594D01*
X018518Y011560D01*
X018527Y011524D01*
X018533Y011487D01*
X018535Y011450D01*
X018533Y011413D01*
X018527Y011376D01*
X018518Y011340D01*
X018504Y011306D01*
X018487Y011273D01*
X018467Y011241D01*
X018444Y011212D01*
X018418Y011186D01*
X018389Y011163D01*
X018358Y011143D01*
X018324Y011126D01*
X018290Y011112D01*
X018254Y011103D01*
X018217Y011097D01*
X018180Y011095D01*
X018143Y011097D01*
X018106Y011103D01*
X018070Y011112D01*
X018036Y011126D01*
X018003Y011143D01*
X017971Y011163D01*
X017942Y011186D01*
X017916Y011212D01*
X017893Y011241D01*
X017873Y011272D01*
X017856Y011306D01*
X017842Y011340D01*
X017833Y011376D01*
X017827Y011413D01*
X017825Y011450D01*
X024825Y011450D02*
X024827Y011487D01*
X024833Y011524D01*
X024842Y011560D01*
X024856Y011594D01*
X024873Y011627D01*
X024893Y011659D01*
X024916Y011688D01*
X024942Y011714D01*
X024971Y011737D01*
X025002Y011757D01*
X025036Y011774D01*
X025070Y011788D01*
X025106Y011797D01*
X025143Y011803D01*
X025180Y011805D01*
X025217Y011803D01*
X025254Y011797D01*
X025290Y011788D01*
X025324Y011774D01*
X025357Y011757D01*
X025389Y011737D01*
X025418Y011714D01*
X025444Y011688D01*
X025467Y011659D01*
X025487Y011628D01*
X025504Y011594D01*
X025518Y011560D01*
X025527Y011524D01*
X025533Y011487D01*
X025535Y011450D01*
X025533Y011413D01*
X025527Y011376D01*
X025518Y011340D01*
X025504Y011306D01*
X025487Y011273D01*
X025467Y011241D01*
X025444Y011212D01*
X025418Y011186D01*
X025389Y011163D01*
X025358Y011143D01*
X025324Y011126D01*
X025290Y011112D01*
X025254Y011103D01*
X025217Y011097D01*
X025180Y011095D01*
X025143Y011097D01*
X025106Y011103D01*
X025070Y011112D01*
X025036Y011126D01*
X025003Y011143D01*
X024971Y011163D01*
X024942Y011186D01*
X024916Y011212D01*
X024893Y011241D01*
X024873Y011272D01*
X024856Y011306D01*
X024842Y011340D01*
X024833Y011376D01*
X024827Y011413D01*
X024825Y011450D01*
X031825Y011450D02*
X031827Y011487D01*
X031833Y011524D01*
X031842Y011560D01*
X031856Y011594D01*
X031873Y011627D01*
X031893Y011659D01*
X031916Y011688D01*
X031942Y011714D01*
X031971Y011737D01*
X032002Y011757D01*
X032036Y011774D01*
X032070Y011788D01*
X032106Y011797D01*
X032143Y011803D01*
X032180Y011805D01*
X032217Y011803D01*
X032254Y011797D01*
X032290Y011788D01*
X032324Y011774D01*
X032357Y011757D01*
X032389Y011737D01*
X032418Y011714D01*
X032444Y011688D01*
X032467Y011659D01*
X032487Y011628D01*
X032504Y011594D01*
X032518Y011560D01*
X032527Y011524D01*
X032533Y011487D01*
X032535Y011450D01*
X032533Y011413D01*
X032527Y011376D01*
X032518Y011340D01*
X032504Y011306D01*
X032487Y011273D01*
X032467Y011241D01*
X032444Y011212D01*
X032418Y011186D01*
X032389Y011163D01*
X032358Y011143D01*
X032324Y011126D01*
X032290Y011112D01*
X032254Y011103D01*
X032217Y011097D01*
X032180Y011095D01*
X032143Y011097D01*
X032106Y011103D01*
X032070Y011112D01*
X032036Y011126D01*
X032003Y011143D01*
X031971Y011163D01*
X031942Y011186D01*
X031916Y011212D01*
X031893Y011241D01*
X031873Y011272D01*
X031856Y011306D01*
X031842Y011340D01*
X031833Y011376D01*
X031827Y011413D01*
X031825Y011450D01*
X038825Y011450D02*
X038827Y011487D01*
X038833Y011524D01*
X038842Y011560D01*
X038856Y011594D01*
X038873Y011627D01*
X038893Y011659D01*
X038916Y011688D01*
X038942Y011714D01*
X038971Y011737D01*
X039002Y011757D01*
X039036Y011774D01*
X039070Y011788D01*
X039106Y011797D01*
X039143Y011803D01*
X039180Y011805D01*
X039217Y011803D01*
X039254Y011797D01*
X039290Y011788D01*
X039324Y011774D01*
X039357Y011757D01*
X039389Y011737D01*
X039418Y011714D01*
X039444Y011688D01*
X039467Y011659D01*
X039487Y011628D01*
X039504Y011594D01*
X039518Y011560D01*
X039527Y011524D01*
X039533Y011487D01*
X039535Y011450D01*
X039533Y011413D01*
X039527Y011376D01*
X039518Y011340D01*
X039504Y011306D01*
X039487Y011273D01*
X039467Y011241D01*
X039444Y011212D01*
X039418Y011186D01*
X039389Y011163D01*
X039358Y011143D01*
X039324Y011126D01*
X039290Y011112D01*
X039254Y011103D01*
X039217Y011097D01*
X039180Y011095D01*
X039143Y011097D01*
X039106Y011103D01*
X039070Y011112D01*
X039036Y011126D01*
X039003Y011143D01*
X038971Y011163D01*
X038942Y011186D01*
X038916Y011212D01*
X038893Y011241D01*
X038873Y011272D01*
X038856Y011306D01*
X038842Y011340D01*
X038833Y011376D01*
X038827Y011413D01*
X038825Y011450D01*
X026790Y020680D02*
X026792Y020730D01*
X026798Y020780D01*
X026808Y020829D01*
X026821Y020878D01*
X026839Y020925D01*
X026860Y020971D01*
X026884Y021014D01*
X026912Y021056D01*
X026943Y021096D01*
X026977Y021133D01*
X027014Y021167D01*
X027054Y021198D01*
X027096Y021226D01*
X027139Y021250D01*
X027185Y021271D01*
X027232Y021289D01*
X027281Y021302D01*
X027330Y021312D01*
X027380Y021318D01*
X027430Y021320D01*
X027480Y021318D01*
X027530Y021312D01*
X027579Y021302D01*
X027628Y021289D01*
X027675Y021271D01*
X027721Y021250D01*
X027764Y021226D01*
X027806Y021198D01*
X027846Y021167D01*
X027883Y021133D01*
X027917Y021096D01*
X027948Y021056D01*
X027976Y021014D01*
X028000Y020971D01*
X028021Y020925D01*
X028039Y020878D01*
X028052Y020829D01*
X028062Y020780D01*
X028068Y020730D01*
X028070Y020680D01*
X028068Y020630D01*
X028062Y020580D01*
X028052Y020531D01*
X028039Y020482D01*
X028021Y020435D01*
X028000Y020389D01*
X027976Y020346D01*
X027948Y020304D01*
X027917Y020264D01*
X027883Y020227D01*
X027846Y020193D01*
X027806Y020162D01*
X027764Y020134D01*
X027721Y020110D01*
X027675Y020089D01*
X027628Y020071D01*
X027579Y020058D01*
X027530Y020048D01*
X027480Y020042D01*
X027430Y020040D01*
X027380Y020042D01*
X027330Y020048D01*
X027281Y020058D01*
X027232Y020071D01*
X027185Y020089D01*
X027139Y020110D01*
X027096Y020134D01*
X027054Y020162D01*
X027014Y020193D01*
X026977Y020227D01*
X026943Y020264D01*
X026912Y020304D01*
X026884Y020346D01*
X026860Y020389D01*
X026839Y020435D01*
X026821Y020482D01*
X026808Y020531D01*
X026798Y020580D01*
X026792Y020630D01*
X026790Y020680D01*
X022290Y020680D02*
X022292Y020730D01*
X022298Y020780D01*
X022308Y020829D01*
X022321Y020878D01*
X022339Y020925D01*
X022360Y020971D01*
X022384Y021014D01*
X022412Y021056D01*
X022443Y021096D01*
X022477Y021133D01*
X022514Y021167D01*
X022554Y021198D01*
X022596Y021226D01*
X022639Y021250D01*
X022685Y021271D01*
X022732Y021289D01*
X022781Y021302D01*
X022830Y021312D01*
X022880Y021318D01*
X022930Y021320D01*
X022980Y021318D01*
X023030Y021312D01*
X023079Y021302D01*
X023128Y021289D01*
X023175Y021271D01*
X023221Y021250D01*
X023264Y021226D01*
X023306Y021198D01*
X023346Y021167D01*
X023383Y021133D01*
X023417Y021096D01*
X023448Y021056D01*
X023476Y021014D01*
X023500Y020971D01*
X023521Y020925D01*
X023539Y020878D01*
X023552Y020829D01*
X023562Y020780D01*
X023568Y020730D01*
X023570Y020680D01*
X023568Y020630D01*
X023562Y020580D01*
X023552Y020531D01*
X023539Y020482D01*
X023521Y020435D01*
X023500Y020389D01*
X023476Y020346D01*
X023448Y020304D01*
X023417Y020264D01*
X023383Y020227D01*
X023346Y020193D01*
X023306Y020162D01*
X023264Y020134D01*
X023221Y020110D01*
X023175Y020089D01*
X023128Y020071D01*
X023079Y020058D01*
X023030Y020048D01*
X022980Y020042D01*
X022930Y020040D01*
X022880Y020042D01*
X022830Y020048D01*
X022781Y020058D01*
X022732Y020071D01*
X022685Y020089D01*
X022639Y020110D01*
X022596Y020134D01*
X022554Y020162D01*
X022514Y020193D01*
X022477Y020227D01*
X022443Y020264D01*
X022412Y020304D01*
X022384Y020346D01*
X022360Y020389D01*
X022339Y020435D01*
X022321Y020482D01*
X022308Y020531D01*
X022298Y020580D01*
X022292Y020630D01*
X022290Y020680D01*
X019790Y020680D02*
X019792Y020730D01*
X019798Y020780D01*
X019808Y020829D01*
X019821Y020878D01*
X019839Y020925D01*
X019860Y020971D01*
X019884Y021014D01*
X019912Y021056D01*
X019943Y021096D01*
X019977Y021133D01*
X020014Y021167D01*
X020054Y021198D01*
X020096Y021226D01*
X020139Y021250D01*
X020185Y021271D01*
X020232Y021289D01*
X020281Y021302D01*
X020330Y021312D01*
X020380Y021318D01*
X020430Y021320D01*
X020480Y021318D01*
X020530Y021312D01*
X020579Y021302D01*
X020628Y021289D01*
X020675Y021271D01*
X020721Y021250D01*
X020764Y021226D01*
X020806Y021198D01*
X020846Y021167D01*
X020883Y021133D01*
X020917Y021096D01*
X020948Y021056D01*
X020976Y021014D01*
X021000Y020971D01*
X021021Y020925D01*
X021039Y020878D01*
X021052Y020829D01*
X021062Y020780D01*
X021068Y020730D01*
X021070Y020680D01*
X021068Y020630D01*
X021062Y020580D01*
X021052Y020531D01*
X021039Y020482D01*
X021021Y020435D01*
X021000Y020389D01*
X020976Y020346D01*
X020948Y020304D01*
X020917Y020264D01*
X020883Y020227D01*
X020846Y020193D01*
X020806Y020162D01*
X020764Y020134D01*
X020721Y020110D01*
X020675Y020089D01*
X020628Y020071D01*
X020579Y020058D01*
X020530Y020048D01*
X020480Y020042D01*
X020430Y020040D01*
X020380Y020042D01*
X020330Y020048D01*
X020281Y020058D01*
X020232Y020071D01*
X020185Y020089D01*
X020139Y020110D01*
X020096Y020134D01*
X020054Y020162D01*
X020014Y020193D01*
X019977Y020227D01*
X019943Y020264D01*
X019912Y020304D01*
X019884Y020346D01*
X019860Y020389D01*
X019839Y020435D01*
X019821Y020482D01*
X019808Y020531D01*
X019798Y020580D01*
X019792Y020630D01*
X019790Y020680D01*
X015290Y020680D02*
X015292Y020730D01*
X015298Y020780D01*
X015308Y020829D01*
X015321Y020878D01*
X015339Y020925D01*
X015360Y020971D01*
X015384Y021014D01*
X015412Y021056D01*
X015443Y021096D01*
X015477Y021133D01*
X015514Y021167D01*
X015554Y021198D01*
X015596Y021226D01*
X015639Y021250D01*
X015685Y021271D01*
X015732Y021289D01*
X015781Y021302D01*
X015830Y021312D01*
X015880Y021318D01*
X015930Y021320D01*
X015980Y021318D01*
X016030Y021312D01*
X016079Y021302D01*
X016128Y021289D01*
X016175Y021271D01*
X016221Y021250D01*
X016264Y021226D01*
X016306Y021198D01*
X016346Y021167D01*
X016383Y021133D01*
X016417Y021096D01*
X016448Y021056D01*
X016476Y021014D01*
X016500Y020971D01*
X016521Y020925D01*
X016539Y020878D01*
X016552Y020829D01*
X016562Y020780D01*
X016568Y020730D01*
X016570Y020680D01*
X016568Y020630D01*
X016562Y020580D01*
X016552Y020531D01*
X016539Y020482D01*
X016521Y020435D01*
X016500Y020389D01*
X016476Y020346D01*
X016448Y020304D01*
X016417Y020264D01*
X016383Y020227D01*
X016346Y020193D01*
X016306Y020162D01*
X016264Y020134D01*
X016221Y020110D01*
X016175Y020089D01*
X016128Y020071D01*
X016079Y020058D01*
X016030Y020048D01*
X015980Y020042D01*
X015930Y020040D01*
X015880Y020042D01*
X015830Y020048D01*
X015781Y020058D01*
X015732Y020071D01*
X015685Y020089D01*
X015639Y020110D01*
X015596Y020134D01*
X015554Y020162D01*
X015514Y020193D01*
X015477Y020227D01*
X015443Y020264D01*
X015412Y020304D01*
X015384Y020346D01*
X015360Y020389D01*
X015339Y020435D01*
X015321Y020482D01*
X015308Y020531D01*
X015298Y020580D01*
X015292Y020630D01*
X015290Y020680D01*
D11*
X013150Y023460D02*
X012657Y023460D01*
X013150Y023954D01*
X013150Y024077D01*
X013027Y024201D01*
X012780Y024201D01*
X012657Y024077D01*
X012414Y023830D02*
X011920Y023830D01*
X011677Y023583D02*
X011554Y023460D01*
X011307Y023460D01*
X011183Y023583D01*
X011183Y024077D01*
X011307Y024201D01*
X011554Y024201D01*
X011677Y024077D01*
X010940Y024201D02*
X010940Y023460D01*
X010447Y024201D01*
X010447Y023460D01*
X010204Y023583D02*
X010204Y023707D01*
X010080Y023830D01*
X009710Y023830D01*
X009710Y023460D02*
X010080Y023460D01*
X010204Y023583D01*
X010080Y023830D02*
X010204Y023954D01*
X010204Y024077D01*
X010080Y024201D01*
X009710Y024201D01*
X009710Y023460D01*
X006150Y023460D02*
X005657Y023460D01*
X005903Y023460D02*
X005903Y024201D01*
X005657Y023954D01*
X005414Y023830D02*
X004920Y023830D01*
X004677Y023583D02*
X004554Y023460D01*
X004307Y023460D01*
X004183Y023583D01*
X004183Y024077D01*
X004307Y024201D01*
X004554Y024201D01*
X004677Y024077D01*
X003940Y024201D02*
X003940Y023460D01*
X003447Y024201D01*
X003447Y023460D01*
X003204Y023583D02*
X003204Y023707D01*
X003080Y023830D01*
X002710Y023830D01*
X002710Y023460D02*
X003080Y023460D01*
X003204Y023583D01*
X003080Y023830D02*
X003204Y023954D01*
X003204Y024077D01*
X003080Y024201D01*
X002710Y024201D01*
X002710Y023460D01*
X003880Y017580D02*
X011480Y017580D01*
X011530Y017530D02*
X011530Y016830D01*
X010830Y016830D01*
X010830Y017530D01*
X011530Y017530D01*
X011480Y017580D02*
X011506Y017578D01*
X011532Y017573D01*
X011557Y017565D01*
X011580Y017553D01*
X011602Y017539D01*
X011621Y017521D01*
X011639Y017502D01*
X011653Y017480D01*
X011665Y017457D01*
X011673Y017432D01*
X011678Y017406D01*
X011680Y017380D01*
X011680Y016980D01*
X011678Y016954D01*
X011673Y016928D01*
X011665Y016903D01*
X011653Y016880D01*
X011639Y016858D01*
X011621Y016839D01*
X011602Y016821D01*
X011580Y016807D01*
X011557Y016795D01*
X011532Y016787D01*
X011506Y016782D01*
X011480Y016780D01*
X003880Y016780D01*
X003854Y016782D01*
X003828Y016787D01*
X003803Y016795D01*
X003780Y016807D01*
X003758Y016821D01*
X003739Y016839D01*
X003721Y016858D01*
X003707Y016880D01*
X003695Y016903D01*
X003687Y016928D01*
X003682Y016954D01*
X003680Y016980D01*
X003680Y017380D01*
X003682Y017406D01*
X003687Y017432D01*
X003695Y017457D01*
X003707Y017480D01*
X003721Y017502D01*
X003739Y017521D01*
X003758Y017539D01*
X003780Y017553D01*
X003803Y017565D01*
X003828Y017573D01*
X003854Y017578D01*
X003880Y017580D01*
X003933Y015701D02*
X004304Y015701D01*
X004427Y015577D01*
X004427Y015330D01*
X004304Y015207D01*
X003933Y015207D01*
X003933Y014960D02*
X003933Y015701D01*
X003690Y015577D02*
X003567Y015701D01*
X003320Y015701D01*
X003197Y015577D01*
X003197Y015083D01*
X003320Y014960D01*
X003567Y014960D01*
X003690Y015083D01*
X003690Y015577D01*
X004180Y015207D02*
X004427Y014960D01*
X004917Y014960D02*
X004917Y015701D01*
X004670Y015701D02*
X005164Y015701D01*
X006143Y015454D02*
X006390Y015701D01*
X006390Y014960D01*
X006143Y014960D02*
X006637Y014960D01*
X005900Y015330D02*
X005407Y015330D01*
X002954Y015330D02*
X002830Y015207D01*
X002460Y015207D01*
X002460Y014960D02*
X002460Y015701D01*
X002830Y015701D01*
X002954Y015577D01*
X002954Y015330D01*
X001706Y013312D02*
X001736Y013277D01*
X001767Y013244D01*
X001802Y013214D01*
X001838Y013187D01*
X001876Y013163D01*
X001916Y013141D01*
X001958Y013123D01*
X002001Y013107D01*
X002045Y013095D01*
X002089Y013087D01*
X002135Y013082D01*
X002180Y013080D01*
X001700Y014040D02*
X001729Y014076D01*
X001761Y014110D01*
X001796Y014141D01*
X001832Y014169D01*
X001871Y014194D01*
X001912Y014217D01*
X001954Y014236D01*
X001997Y014252D01*
X002042Y014264D01*
X002088Y014273D01*
X002134Y014278D01*
X002180Y014280D01*
X002654Y013312D02*
X002624Y013277D01*
X002593Y013244D01*
X002558Y013214D01*
X002522Y013187D01*
X002484Y013163D01*
X002444Y013141D01*
X002402Y013123D01*
X002359Y013107D01*
X002315Y013095D01*
X002271Y013087D01*
X002225Y013082D01*
X002180Y013080D01*
X002668Y014029D02*
X002639Y014066D01*
X002607Y014101D01*
X002572Y014134D01*
X002535Y014164D01*
X002496Y014190D01*
X002455Y014213D01*
X002411Y014234D01*
X002367Y014250D01*
X002321Y014263D01*
X002275Y014272D01*
X002227Y014278D01*
X002180Y014280D01*
X004180Y014280D02*
X004227Y014278D01*
X004275Y014272D01*
X004321Y014263D01*
X004367Y014250D01*
X004411Y014234D01*
X004455Y014213D01*
X004496Y014190D01*
X004535Y014164D01*
X004572Y014134D01*
X004607Y014101D01*
X004639Y014066D01*
X004668Y014029D01*
X004180Y013080D02*
X004135Y013082D01*
X004089Y013087D01*
X004045Y013095D01*
X004001Y013107D01*
X003958Y013123D01*
X003916Y013141D01*
X003876Y013163D01*
X003838Y013187D01*
X003802Y013214D01*
X003767Y013244D01*
X003736Y013277D01*
X003706Y013312D01*
X004180Y013080D02*
X004225Y013082D01*
X004271Y013087D01*
X004315Y013095D01*
X004359Y013107D01*
X004402Y013123D01*
X004444Y013141D01*
X004484Y013163D01*
X004522Y013187D01*
X004558Y013214D01*
X004593Y013244D01*
X004624Y013277D01*
X004654Y013312D01*
X004180Y014280D02*
X004134Y014278D01*
X004088Y014273D01*
X004042Y014264D01*
X003997Y014252D01*
X003954Y014236D01*
X003912Y014217D01*
X003871Y014194D01*
X003832Y014169D01*
X003796Y014141D01*
X003761Y014110D01*
X003729Y014076D01*
X003700Y014040D01*
X006180Y014280D02*
X006227Y014278D01*
X006275Y014272D01*
X006321Y014263D01*
X006367Y014250D01*
X006411Y014234D01*
X006455Y014213D01*
X006496Y014190D01*
X006535Y014164D01*
X006572Y014134D01*
X006607Y014101D01*
X006639Y014066D01*
X006668Y014029D01*
X006180Y013080D02*
X006135Y013082D01*
X006089Y013087D01*
X006045Y013095D01*
X006001Y013107D01*
X005958Y013123D01*
X005916Y013141D01*
X005876Y013163D01*
X005838Y013187D01*
X005802Y013214D01*
X005767Y013244D01*
X005736Y013277D01*
X005706Y013312D01*
X006180Y013080D02*
X006225Y013082D01*
X006271Y013087D01*
X006315Y013095D01*
X006359Y013107D01*
X006402Y013123D01*
X006444Y013141D01*
X006484Y013163D01*
X006522Y013187D01*
X006558Y013214D01*
X006593Y013244D01*
X006624Y013277D01*
X006654Y013312D01*
X006180Y014280D02*
X006134Y014278D01*
X006088Y014273D01*
X006042Y014264D01*
X005997Y014252D01*
X005954Y014236D01*
X005912Y014217D01*
X005871Y014194D01*
X005832Y014169D01*
X005796Y014141D01*
X005761Y014110D01*
X005729Y014076D01*
X005700Y014040D01*
X004580Y012230D02*
X003780Y012230D01*
X003780Y012080D01*
X003480Y012080D01*
X003480Y012180D01*
X002280Y012180D01*
X002180Y012080D01*
X001780Y011680D01*
X001780Y011180D01*
X003430Y010430D02*
X003430Y008930D01*
X004930Y008930D01*
X004930Y010430D01*
X003430Y010430D01*
X001780Y010130D02*
X001780Y009230D01*
X002780Y009680D02*
X002782Y009755D01*
X002788Y009829D01*
X002798Y009903D01*
X002812Y009976D01*
X002829Y010048D01*
X002851Y010120D01*
X002876Y010190D01*
X002905Y010258D01*
X002938Y010326D01*
X002974Y010391D01*
X003013Y010454D01*
X003056Y010515D01*
X003102Y010574D01*
X003151Y010630D01*
X003203Y010683D01*
X003258Y010734D01*
X003315Y010781D01*
X003375Y010826D01*
X003437Y010867D01*
X003502Y010905D01*
X003568Y010939D01*
X003636Y010970D01*
X003705Y010997D01*
X003776Y011020D01*
X003848Y011040D01*
X003921Y011056D01*
X003994Y011068D01*
X004068Y011076D01*
X004143Y011080D01*
X004217Y011080D01*
X004292Y011076D01*
X004366Y011068D01*
X004439Y011056D01*
X004512Y011040D01*
X004584Y011020D01*
X004655Y010997D01*
X004724Y010970D01*
X004792Y010939D01*
X004858Y010905D01*
X004923Y010867D01*
X004985Y010826D01*
X005045Y010781D01*
X005102Y010734D01*
X005157Y010683D01*
X005209Y010630D01*
X005258Y010574D01*
X005304Y010515D01*
X005347Y010454D01*
X005386Y010391D01*
X005422Y010326D01*
X005455Y010258D01*
X005484Y010190D01*
X005509Y010120D01*
X005531Y010048D01*
X005548Y009976D01*
X005562Y009903D01*
X005572Y009829D01*
X005578Y009755D01*
X005580Y009680D01*
X005578Y009605D01*
X005572Y009531D01*
X005562Y009457D01*
X005548Y009384D01*
X005531Y009312D01*
X005509Y009240D01*
X005484Y009170D01*
X005455Y009102D01*
X005422Y009034D01*
X005386Y008969D01*
X005347Y008906D01*
X005304Y008845D01*
X005258Y008786D01*
X005209Y008730D01*
X005157Y008677D01*
X005102Y008626D01*
X005045Y008579D01*
X004985Y008534D01*
X004923Y008493D01*
X004858Y008455D01*
X004792Y008421D01*
X004724Y008390D01*
X004655Y008363D01*
X004584Y008340D01*
X004512Y008320D01*
X004439Y008304D01*
X004366Y008292D01*
X004292Y008284D01*
X004217Y008280D01*
X004143Y008280D01*
X004068Y008284D01*
X003994Y008292D01*
X003921Y008304D01*
X003848Y008320D01*
X003776Y008340D01*
X003705Y008363D01*
X003636Y008390D01*
X003568Y008421D01*
X003502Y008455D01*
X003437Y008493D01*
X003375Y008534D01*
X003315Y008579D01*
X003258Y008626D01*
X003203Y008677D01*
X003151Y008730D01*
X003102Y008786D01*
X003056Y008845D01*
X003013Y008906D01*
X002974Y008969D01*
X002938Y009034D01*
X002905Y009102D01*
X002876Y009170D01*
X002851Y009240D01*
X002829Y009312D01*
X002812Y009384D01*
X002798Y009457D01*
X002788Y009531D01*
X002782Y009605D01*
X002780Y009680D01*
X001780Y008180D02*
X001780Y007680D01*
X002180Y007280D01*
X002280Y007180D01*
X003480Y007180D01*
X003480Y007280D01*
X003780Y007280D01*
X004580Y007280D01*
X004880Y007280D01*
X006180Y007280D01*
X006080Y007180D01*
X004880Y007180D01*
X004880Y007280D01*
X004580Y007280D02*
X004580Y007130D01*
X003780Y007130D01*
X003780Y007280D01*
X003480Y007280D02*
X002180Y007280D01*
X003780Y006230D02*
X004580Y006230D01*
X004580Y006080D01*
X004880Y006080D01*
X004880Y006180D01*
X006080Y006180D01*
X006180Y006080D01*
X004880Y006080D01*
X004580Y006080D02*
X003780Y006080D01*
X003480Y006080D01*
X003480Y006180D01*
X002280Y006180D01*
X002180Y006080D01*
X001780Y005680D01*
X001780Y005180D01*
X003430Y004430D02*
X003430Y002930D01*
X004930Y002930D01*
X004930Y004430D01*
X003430Y004430D01*
X001780Y004130D02*
X001780Y003230D01*
X001780Y002180D02*
X001780Y001680D01*
X002180Y001280D01*
X002280Y001180D01*
X003480Y001180D01*
X003480Y001280D01*
X003780Y001280D01*
X004580Y001280D01*
X004880Y001280D01*
X006180Y001280D01*
X006080Y001180D01*
X004880Y001180D01*
X004880Y001280D01*
X004580Y001280D02*
X004580Y001130D01*
X003780Y001130D01*
X003780Y001280D01*
X003480Y001280D02*
X002180Y001280D01*
X006180Y001280D02*
X006580Y001680D01*
X006580Y002180D01*
X006580Y003230D02*
X006580Y004130D01*
X006580Y005180D02*
X006580Y005680D01*
X006180Y006080D01*
X003780Y006080D02*
X003780Y006230D01*
X003480Y006080D02*
X002180Y006080D01*
X006180Y007280D02*
X006580Y007680D01*
X006580Y008180D01*
X008780Y008180D02*
X008780Y007680D01*
X009180Y007280D01*
X009280Y007180D01*
X010480Y007180D01*
X010480Y007280D01*
X010780Y007280D01*
X011580Y007280D01*
X011880Y007280D01*
X013180Y007280D01*
X013080Y007180D01*
X011880Y007180D01*
X011880Y007280D01*
X011580Y007280D02*
X011580Y007130D01*
X010780Y007130D01*
X010780Y007280D01*
X010480Y007280D02*
X009180Y007280D01*
X010780Y006230D02*
X011580Y006230D01*
X011580Y006080D01*
X011880Y006080D01*
X011880Y006180D01*
X013080Y006180D01*
X013180Y006080D01*
X011880Y006080D01*
X011580Y006080D02*
X010780Y006080D01*
X010480Y006080D01*
X010480Y006180D01*
X009280Y006180D01*
X009180Y006080D01*
X008780Y005680D01*
X008780Y005180D01*
X010430Y004430D02*
X010430Y002930D01*
X011930Y002930D01*
X011930Y004430D01*
X010430Y004430D01*
X009780Y003680D02*
X009782Y003755D01*
X009788Y003829D01*
X009798Y003903D01*
X009812Y003976D01*
X009829Y004048D01*
X009851Y004120D01*
X009876Y004190D01*
X009905Y004258D01*
X009938Y004326D01*
X009974Y004391D01*
X010013Y004454D01*
X010056Y004515D01*
X010102Y004574D01*
X010151Y004630D01*
X010203Y004683D01*
X010258Y004734D01*
X010315Y004781D01*
X010375Y004826D01*
X010437Y004867D01*
X010502Y004905D01*
X010568Y004939D01*
X010636Y004970D01*
X010705Y004997D01*
X010776Y005020D01*
X010848Y005040D01*
X010921Y005056D01*
X010994Y005068D01*
X011068Y005076D01*
X011143Y005080D01*
X011217Y005080D01*
X011292Y005076D01*
X011366Y005068D01*
X011439Y005056D01*
X011512Y005040D01*
X011584Y005020D01*
X011655Y004997D01*
X011724Y004970D01*
X011792Y004939D01*
X011858Y004905D01*
X011923Y004867D01*
X011985Y004826D01*
X012045Y004781D01*
X012102Y004734D01*
X012157Y004683D01*
X012209Y004630D01*
X012258Y004574D01*
X012304Y004515D01*
X012347Y004454D01*
X012386Y004391D01*
X012422Y004326D01*
X012455Y004258D01*
X012484Y004190D01*
X012509Y004120D01*
X012531Y004048D01*
X012548Y003976D01*
X012562Y003903D01*
X012572Y003829D01*
X012578Y003755D01*
X012580Y003680D01*
X012578Y003605D01*
X012572Y003531D01*
X012562Y003457D01*
X012548Y003384D01*
X012531Y003312D01*
X012509Y003240D01*
X012484Y003170D01*
X012455Y003102D01*
X012422Y003034D01*
X012386Y002969D01*
X012347Y002906D01*
X012304Y002845D01*
X012258Y002786D01*
X012209Y002730D01*
X012157Y002677D01*
X012102Y002626D01*
X012045Y002579D01*
X011985Y002534D01*
X011923Y002493D01*
X011858Y002455D01*
X011792Y002421D01*
X011724Y002390D01*
X011655Y002363D01*
X011584Y002340D01*
X011512Y002320D01*
X011439Y002304D01*
X011366Y002292D01*
X011292Y002284D01*
X011217Y002280D01*
X011143Y002280D01*
X011068Y002284D01*
X010994Y002292D01*
X010921Y002304D01*
X010848Y002320D01*
X010776Y002340D01*
X010705Y002363D01*
X010636Y002390D01*
X010568Y002421D01*
X010502Y002455D01*
X010437Y002493D01*
X010375Y002534D01*
X010315Y002579D01*
X010258Y002626D01*
X010203Y002677D01*
X010151Y002730D01*
X010102Y002786D01*
X010056Y002845D01*
X010013Y002906D01*
X009974Y002969D01*
X009938Y003034D01*
X009905Y003102D01*
X009876Y003170D01*
X009851Y003240D01*
X009829Y003312D01*
X009812Y003384D01*
X009798Y003457D01*
X009788Y003531D01*
X009782Y003605D01*
X009780Y003680D01*
X008780Y004130D02*
X008780Y003230D01*
X008780Y002180D02*
X008780Y001680D01*
X009180Y001280D01*
X009280Y001180D01*
X010480Y001180D01*
X010480Y001280D01*
X010780Y001280D01*
X011580Y001280D01*
X011880Y001280D01*
X013180Y001280D01*
X013080Y001180D01*
X011880Y001180D01*
X011880Y001280D01*
X011580Y001280D02*
X011580Y001130D01*
X010780Y001130D01*
X010780Y001280D01*
X010480Y001280D02*
X009180Y001280D01*
X013180Y001280D02*
X013580Y001680D01*
X013580Y002180D01*
X013580Y003230D02*
X013580Y004130D01*
X013580Y005180D02*
X013580Y005680D01*
X013180Y006080D01*
X010780Y006080D02*
X010780Y006230D01*
X010480Y006080D02*
X009180Y006080D01*
X013180Y007280D02*
X013580Y007680D01*
X013580Y008180D01*
X011930Y008930D02*
X010430Y008930D01*
X010430Y010430D01*
X011930Y010430D01*
X011930Y008930D01*
X009780Y009680D02*
X009782Y009755D01*
X009788Y009829D01*
X009798Y009903D01*
X009812Y009976D01*
X009829Y010048D01*
X009851Y010120D01*
X009876Y010190D01*
X009905Y010258D01*
X009938Y010326D01*
X009974Y010391D01*
X010013Y010454D01*
X010056Y010515D01*
X010102Y010574D01*
X010151Y010630D01*
X010203Y010683D01*
X010258Y010734D01*
X010315Y010781D01*
X010375Y010826D01*
X010437Y010867D01*
X010502Y010905D01*
X010568Y010939D01*
X010636Y010970D01*
X010705Y010997D01*
X010776Y011020D01*
X010848Y011040D01*
X010921Y011056D01*
X010994Y011068D01*
X011068Y011076D01*
X011143Y011080D01*
X011217Y011080D01*
X011292Y011076D01*
X011366Y011068D01*
X011439Y011056D01*
X011512Y011040D01*
X011584Y011020D01*
X011655Y010997D01*
X011724Y010970D01*
X011792Y010939D01*
X011858Y010905D01*
X011923Y010867D01*
X011985Y010826D01*
X012045Y010781D01*
X012102Y010734D01*
X012157Y010683D01*
X012209Y010630D01*
X012258Y010574D01*
X012304Y010515D01*
X012347Y010454D01*
X012386Y010391D01*
X012422Y010326D01*
X012455Y010258D01*
X012484Y010190D01*
X012509Y010120D01*
X012531Y010048D01*
X012548Y009976D01*
X012562Y009903D01*
X012572Y009829D01*
X012578Y009755D01*
X012580Y009680D01*
X012578Y009605D01*
X012572Y009531D01*
X012562Y009457D01*
X012548Y009384D01*
X012531Y009312D01*
X012509Y009240D01*
X012484Y009170D01*
X012455Y009102D01*
X012422Y009034D01*
X012386Y008969D01*
X012347Y008906D01*
X012304Y008845D01*
X012258Y008786D01*
X012209Y008730D01*
X012157Y008677D01*
X012102Y008626D01*
X012045Y008579D01*
X011985Y008534D01*
X011923Y008493D01*
X011858Y008455D01*
X011792Y008421D01*
X011724Y008390D01*
X011655Y008363D01*
X011584Y008340D01*
X011512Y008320D01*
X011439Y008304D01*
X011366Y008292D01*
X011292Y008284D01*
X011217Y008280D01*
X011143Y008280D01*
X011068Y008284D01*
X010994Y008292D01*
X010921Y008304D01*
X010848Y008320D01*
X010776Y008340D01*
X010705Y008363D01*
X010636Y008390D01*
X010568Y008421D01*
X010502Y008455D01*
X010437Y008493D01*
X010375Y008534D01*
X010315Y008579D01*
X010258Y008626D01*
X010203Y008677D01*
X010151Y008730D01*
X010102Y008786D01*
X010056Y008845D01*
X010013Y008906D01*
X009974Y008969D01*
X009938Y009034D01*
X009905Y009102D01*
X009876Y009170D01*
X009851Y009240D01*
X009829Y009312D01*
X009812Y009384D01*
X009798Y009457D01*
X009788Y009531D01*
X009782Y009605D01*
X009780Y009680D01*
X008780Y010130D02*
X008780Y009230D01*
X006580Y009230D02*
X006580Y010130D01*
X006580Y011180D02*
X006580Y011680D01*
X006180Y012080D01*
X006080Y012180D01*
X004880Y012180D01*
X004880Y012080D01*
X004580Y012080D01*
X004580Y012230D01*
X004580Y012080D02*
X003780Y012080D01*
X003480Y012080D02*
X002180Y012080D01*
X004880Y012080D02*
X006180Y012080D01*
X008780Y011680D02*
X008780Y011180D01*
X008780Y011680D02*
X009180Y012080D01*
X009280Y012180D01*
X010480Y012180D01*
X010480Y012080D01*
X010780Y012080D01*
X011580Y012080D01*
X011880Y012080D01*
X011880Y012180D01*
X013080Y012180D01*
X013180Y012080D01*
X011880Y012080D01*
X011580Y012080D02*
X011580Y012230D01*
X010780Y012230D01*
X010780Y012080D01*
X010480Y012080D02*
X009180Y012080D01*
X013180Y012080D02*
X013580Y011680D01*
X013580Y011180D01*
X013580Y010130D02*
X013580Y009230D01*
X015780Y009230D02*
X015780Y010130D01*
X017430Y010430D02*
X017430Y008930D01*
X018930Y008930D01*
X018930Y010430D01*
X017430Y010430D01*
X016780Y009680D02*
X016782Y009755D01*
X016788Y009829D01*
X016798Y009903D01*
X016812Y009976D01*
X016829Y010048D01*
X016851Y010120D01*
X016876Y010190D01*
X016905Y010258D01*
X016938Y010326D01*
X016974Y010391D01*
X017013Y010454D01*
X017056Y010515D01*
X017102Y010574D01*
X017151Y010630D01*
X017203Y010683D01*
X017258Y010734D01*
X017315Y010781D01*
X017375Y010826D01*
X017437Y010867D01*
X017502Y010905D01*
X017568Y010939D01*
X017636Y010970D01*
X017705Y010997D01*
X017776Y011020D01*
X017848Y011040D01*
X017921Y011056D01*
X017994Y011068D01*
X018068Y011076D01*
X018143Y011080D01*
X018217Y011080D01*
X018292Y011076D01*
X018366Y011068D01*
X018439Y011056D01*
X018512Y011040D01*
X018584Y011020D01*
X018655Y010997D01*
X018724Y010970D01*
X018792Y010939D01*
X018858Y010905D01*
X018923Y010867D01*
X018985Y010826D01*
X019045Y010781D01*
X019102Y010734D01*
X019157Y010683D01*
X019209Y010630D01*
X019258Y010574D01*
X019304Y010515D01*
X019347Y010454D01*
X019386Y010391D01*
X019422Y010326D01*
X019455Y010258D01*
X019484Y010190D01*
X019509Y010120D01*
X019531Y010048D01*
X019548Y009976D01*
X019562Y009903D01*
X019572Y009829D01*
X019578Y009755D01*
X019580Y009680D01*
X019578Y009605D01*
X019572Y009531D01*
X019562Y009457D01*
X019548Y009384D01*
X019531Y009312D01*
X019509Y009240D01*
X019484Y009170D01*
X019455Y009102D01*
X019422Y009034D01*
X019386Y008969D01*
X019347Y008906D01*
X019304Y008845D01*
X019258Y008786D01*
X019209Y008730D01*
X019157Y008677D01*
X019102Y008626D01*
X019045Y008579D01*
X018985Y008534D01*
X018923Y008493D01*
X018858Y008455D01*
X018792Y008421D01*
X018724Y008390D01*
X018655Y008363D01*
X018584Y008340D01*
X018512Y008320D01*
X018439Y008304D01*
X018366Y008292D01*
X018292Y008284D01*
X018217Y008280D01*
X018143Y008280D01*
X018068Y008284D01*
X017994Y008292D01*
X017921Y008304D01*
X017848Y008320D01*
X017776Y008340D01*
X017705Y008363D01*
X017636Y008390D01*
X017568Y008421D01*
X017502Y008455D01*
X017437Y008493D01*
X017375Y008534D01*
X017315Y008579D01*
X017258Y008626D01*
X017203Y008677D01*
X017151Y008730D01*
X017102Y008786D01*
X017056Y008845D01*
X017013Y008906D01*
X016974Y008969D01*
X016938Y009034D01*
X016905Y009102D01*
X016876Y009170D01*
X016851Y009240D01*
X016829Y009312D01*
X016812Y009384D01*
X016798Y009457D01*
X016788Y009531D01*
X016782Y009605D01*
X016780Y009680D01*
X015780Y008180D02*
X015780Y007680D01*
X016180Y007280D01*
X016280Y007180D01*
X017480Y007180D01*
X017480Y007280D01*
X017780Y007280D01*
X018580Y007280D01*
X018880Y007280D01*
X020180Y007280D01*
X020080Y007180D01*
X018880Y007180D01*
X018880Y007280D01*
X018580Y007280D02*
X018580Y007130D01*
X017780Y007130D01*
X017780Y007280D01*
X017480Y007280D02*
X016180Y007280D01*
X017780Y006230D02*
X018580Y006230D01*
X018580Y006080D01*
X018880Y006080D01*
X018880Y006180D01*
X020080Y006180D01*
X020180Y006080D01*
X018880Y006080D01*
X018580Y006080D02*
X017780Y006080D01*
X017480Y006080D01*
X017480Y006180D01*
X016280Y006180D01*
X016180Y006080D01*
X015780Y005680D01*
X015780Y005180D01*
X017430Y004430D02*
X017430Y002930D01*
X018930Y002930D01*
X018930Y004430D01*
X017430Y004430D01*
X016780Y003680D02*
X016782Y003755D01*
X016788Y003829D01*
X016798Y003903D01*
X016812Y003976D01*
X016829Y004048D01*
X016851Y004120D01*
X016876Y004190D01*
X016905Y004258D01*
X016938Y004326D01*
X016974Y004391D01*
X017013Y004454D01*
X017056Y004515D01*
X017102Y004574D01*
X017151Y004630D01*
X017203Y004683D01*
X017258Y004734D01*
X017315Y004781D01*
X017375Y004826D01*
X017437Y004867D01*
X017502Y004905D01*
X017568Y004939D01*
X017636Y004970D01*
X017705Y004997D01*
X017776Y005020D01*
X017848Y005040D01*
X017921Y005056D01*
X017994Y005068D01*
X018068Y005076D01*
X018143Y005080D01*
X018217Y005080D01*
X018292Y005076D01*
X018366Y005068D01*
X018439Y005056D01*
X018512Y005040D01*
X018584Y005020D01*
X018655Y004997D01*
X018724Y004970D01*
X018792Y004939D01*
X018858Y004905D01*
X018923Y004867D01*
X018985Y004826D01*
X019045Y004781D01*
X019102Y004734D01*
X019157Y004683D01*
X019209Y004630D01*
X019258Y004574D01*
X019304Y004515D01*
X019347Y004454D01*
X019386Y004391D01*
X019422Y004326D01*
X019455Y004258D01*
X019484Y004190D01*
X019509Y004120D01*
X019531Y004048D01*
X019548Y003976D01*
X019562Y003903D01*
X019572Y003829D01*
X019578Y003755D01*
X019580Y003680D01*
X019578Y003605D01*
X019572Y003531D01*
X019562Y003457D01*
X019548Y003384D01*
X019531Y003312D01*
X019509Y003240D01*
X019484Y003170D01*
X019455Y003102D01*
X019422Y003034D01*
X019386Y002969D01*
X019347Y002906D01*
X019304Y002845D01*
X019258Y002786D01*
X019209Y002730D01*
X019157Y002677D01*
X019102Y002626D01*
X019045Y002579D01*
X018985Y002534D01*
X018923Y002493D01*
X018858Y002455D01*
X018792Y002421D01*
X018724Y002390D01*
X018655Y002363D01*
X018584Y002340D01*
X018512Y002320D01*
X018439Y002304D01*
X018366Y002292D01*
X018292Y002284D01*
X018217Y002280D01*
X018143Y002280D01*
X018068Y002284D01*
X017994Y002292D01*
X017921Y002304D01*
X017848Y002320D01*
X017776Y002340D01*
X017705Y002363D01*
X017636Y002390D01*
X017568Y002421D01*
X017502Y002455D01*
X017437Y002493D01*
X017375Y002534D01*
X017315Y002579D01*
X017258Y002626D01*
X017203Y002677D01*
X017151Y002730D01*
X017102Y002786D01*
X017056Y002845D01*
X017013Y002906D01*
X016974Y002969D01*
X016938Y003034D01*
X016905Y003102D01*
X016876Y003170D01*
X016851Y003240D01*
X016829Y003312D01*
X016812Y003384D01*
X016798Y003457D01*
X016788Y003531D01*
X016782Y003605D01*
X016780Y003680D01*
X015780Y004130D02*
X015780Y003230D01*
X015780Y002180D02*
X015780Y001680D01*
X016180Y001280D01*
X016280Y001180D01*
X017480Y001180D01*
X017480Y001280D01*
X017780Y001280D01*
X018580Y001280D01*
X018880Y001280D01*
X020180Y001280D01*
X020080Y001180D01*
X018880Y001180D01*
X018880Y001280D01*
X018580Y001280D02*
X018580Y001130D01*
X017780Y001130D01*
X017780Y001280D01*
X017480Y001280D02*
X016180Y001280D01*
X020180Y001280D02*
X020580Y001680D01*
X020580Y002180D01*
X020580Y003230D02*
X020580Y004130D01*
X020580Y005180D02*
X020580Y005680D01*
X020180Y006080D01*
X022780Y005680D02*
X022780Y005180D01*
X022780Y005680D02*
X023180Y006080D01*
X023280Y006180D01*
X024480Y006180D01*
X024480Y006080D01*
X024780Y006080D01*
X025580Y006080D01*
X025880Y006080D01*
X025880Y006180D01*
X027080Y006180D01*
X027180Y006080D01*
X025880Y006080D01*
X025580Y006080D02*
X025580Y006230D01*
X024780Y006230D01*
X024780Y006080D01*
X024480Y006080D02*
X023180Y006080D01*
X023280Y007180D02*
X023180Y007280D01*
X024480Y007280D01*
X024780Y007280D01*
X025580Y007280D01*
X025880Y007280D01*
X027180Y007280D01*
X027080Y007180D01*
X025880Y007180D01*
X025880Y007280D01*
X025580Y007280D02*
X025580Y007130D01*
X024780Y007130D01*
X024780Y007280D01*
X024480Y007280D02*
X024480Y007180D01*
X023280Y007180D01*
X023180Y007280D02*
X022780Y007680D01*
X022780Y008180D01*
X024430Y008930D02*
X024430Y010430D01*
X025930Y010430D01*
X025930Y008930D01*
X024430Y008930D01*
X023780Y009680D02*
X023782Y009755D01*
X023788Y009829D01*
X023798Y009903D01*
X023812Y009976D01*
X023829Y010048D01*
X023851Y010120D01*
X023876Y010190D01*
X023905Y010258D01*
X023938Y010326D01*
X023974Y010391D01*
X024013Y010454D01*
X024056Y010515D01*
X024102Y010574D01*
X024151Y010630D01*
X024203Y010683D01*
X024258Y010734D01*
X024315Y010781D01*
X024375Y010826D01*
X024437Y010867D01*
X024502Y010905D01*
X024568Y010939D01*
X024636Y010970D01*
X024705Y010997D01*
X024776Y011020D01*
X024848Y011040D01*
X024921Y011056D01*
X024994Y011068D01*
X025068Y011076D01*
X025143Y011080D01*
X025217Y011080D01*
X025292Y011076D01*
X025366Y011068D01*
X025439Y011056D01*
X025512Y011040D01*
X025584Y011020D01*
X025655Y010997D01*
X025724Y010970D01*
X025792Y010939D01*
X025858Y010905D01*
X025923Y010867D01*
X025985Y010826D01*
X026045Y010781D01*
X026102Y010734D01*
X026157Y010683D01*
X026209Y010630D01*
X026258Y010574D01*
X026304Y010515D01*
X026347Y010454D01*
X026386Y010391D01*
X026422Y010326D01*
X026455Y010258D01*
X026484Y010190D01*
X026509Y010120D01*
X026531Y010048D01*
X026548Y009976D01*
X026562Y009903D01*
X026572Y009829D01*
X026578Y009755D01*
X026580Y009680D01*
X026578Y009605D01*
X026572Y009531D01*
X026562Y009457D01*
X026548Y009384D01*
X026531Y009312D01*
X026509Y009240D01*
X026484Y009170D01*
X026455Y009102D01*
X026422Y009034D01*
X026386Y008969D01*
X026347Y008906D01*
X026304Y008845D01*
X026258Y008786D01*
X026209Y008730D01*
X026157Y008677D01*
X026102Y008626D01*
X026045Y008579D01*
X025985Y008534D01*
X025923Y008493D01*
X025858Y008455D01*
X025792Y008421D01*
X025724Y008390D01*
X025655Y008363D01*
X025584Y008340D01*
X025512Y008320D01*
X025439Y008304D01*
X025366Y008292D01*
X025292Y008284D01*
X025217Y008280D01*
X025143Y008280D01*
X025068Y008284D01*
X024994Y008292D01*
X024921Y008304D01*
X024848Y008320D01*
X024776Y008340D01*
X024705Y008363D01*
X024636Y008390D01*
X024568Y008421D01*
X024502Y008455D01*
X024437Y008493D01*
X024375Y008534D01*
X024315Y008579D01*
X024258Y008626D01*
X024203Y008677D01*
X024151Y008730D01*
X024102Y008786D01*
X024056Y008845D01*
X024013Y008906D01*
X023974Y008969D01*
X023938Y009034D01*
X023905Y009102D01*
X023876Y009170D01*
X023851Y009240D01*
X023829Y009312D01*
X023812Y009384D01*
X023798Y009457D01*
X023788Y009531D01*
X023782Y009605D01*
X023780Y009680D01*
X022780Y010130D02*
X022780Y009230D01*
X020580Y009230D02*
X020580Y010130D01*
X020580Y011180D02*
X020580Y011680D01*
X020180Y012080D01*
X020080Y012180D01*
X018880Y012180D01*
X018880Y012080D01*
X018580Y012080D01*
X018580Y012230D01*
X017780Y012230D01*
X017780Y012080D01*
X017480Y012080D01*
X017480Y012180D01*
X016280Y012180D01*
X016180Y012080D01*
X015780Y011680D01*
X015780Y011180D01*
X016180Y012080D02*
X017480Y012080D01*
X017780Y012080D02*
X018580Y012080D01*
X018880Y012080D02*
X020180Y012080D01*
X022780Y011680D02*
X022780Y011180D01*
X022780Y011680D02*
X023180Y012080D01*
X023280Y012180D01*
X024480Y012180D01*
X024480Y012080D01*
X024780Y012080D01*
X025580Y012080D01*
X025880Y012080D01*
X025880Y012180D01*
X027080Y012180D01*
X027180Y012080D01*
X025880Y012080D01*
X025580Y012080D02*
X025580Y012230D01*
X024780Y012230D01*
X024780Y012080D01*
X024480Y012080D02*
X023180Y012080D01*
X024168Y014029D02*
X024139Y014066D01*
X024107Y014101D01*
X024072Y014134D01*
X024035Y014164D01*
X023996Y014190D01*
X023955Y014213D01*
X023911Y014234D01*
X023867Y014250D01*
X023821Y014263D01*
X023775Y014272D01*
X023727Y014278D01*
X023680Y014280D01*
X023206Y013312D02*
X023236Y013277D01*
X023267Y013244D01*
X023302Y013214D01*
X023338Y013187D01*
X023376Y013163D01*
X023416Y013141D01*
X023458Y013123D01*
X023501Y013107D01*
X023545Y013095D01*
X023589Y013087D01*
X023635Y013082D01*
X023680Y013080D01*
X023200Y014040D02*
X023229Y014076D01*
X023261Y014110D01*
X023296Y014141D01*
X023332Y014169D01*
X023371Y014194D01*
X023412Y014217D01*
X023454Y014236D01*
X023497Y014252D01*
X023542Y014264D01*
X023588Y014273D01*
X023634Y014278D01*
X023680Y014280D01*
X024154Y013312D02*
X024124Y013277D01*
X024093Y013244D01*
X024058Y013214D01*
X024022Y013187D01*
X023984Y013163D01*
X023944Y013141D01*
X023902Y013123D01*
X023859Y013107D01*
X023815Y013095D01*
X023771Y013087D01*
X023725Y013082D01*
X023680Y013080D01*
X026680Y014280D02*
X026727Y014278D01*
X026775Y014272D01*
X026821Y014263D01*
X026867Y014250D01*
X026911Y014234D01*
X026955Y014213D01*
X026996Y014190D01*
X027035Y014164D01*
X027072Y014134D01*
X027107Y014101D01*
X027139Y014066D01*
X027168Y014029D01*
X026680Y013080D02*
X026635Y013082D01*
X026589Y013087D01*
X026545Y013095D01*
X026501Y013107D01*
X026458Y013123D01*
X026416Y013141D01*
X026376Y013163D01*
X026338Y013187D01*
X026302Y013214D01*
X026267Y013244D01*
X026236Y013277D01*
X026206Y013312D01*
X026680Y013080D02*
X026725Y013082D01*
X026771Y013087D01*
X026815Y013095D01*
X026859Y013107D01*
X026902Y013123D01*
X026944Y013141D01*
X026984Y013163D01*
X027022Y013187D01*
X027058Y013214D01*
X027093Y013244D01*
X027124Y013277D01*
X027154Y013312D01*
X026680Y014280D02*
X026634Y014278D01*
X026588Y014273D01*
X026542Y014264D01*
X026497Y014252D01*
X026454Y014236D01*
X026412Y014217D01*
X026371Y014194D01*
X026332Y014169D01*
X026296Y014141D01*
X026261Y014110D01*
X026229Y014076D01*
X026200Y014040D01*
X025917Y014960D02*
X025917Y015701D01*
X025670Y015701D02*
X026164Y015701D01*
X025427Y015577D02*
X025427Y015330D01*
X025304Y015207D01*
X024933Y015207D01*
X024933Y014960D02*
X024933Y015701D01*
X025304Y015701D01*
X025427Y015577D01*
X025180Y015207D02*
X025427Y014960D01*
X024690Y015083D02*
X024690Y015577D01*
X024567Y015701D01*
X024320Y015701D01*
X024197Y015577D01*
X024197Y015083D01*
X024320Y014960D01*
X024567Y014960D01*
X024690Y015083D01*
X023954Y015330D02*
X023954Y015577D01*
X023830Y015701D01*
X023460Y015701D01*
X023460Y014960D01*
X023460Y015207D02*
X023830Y015207D01*
X023954Y015330D01*
X026407Y015330D02*
X026900Y015330D01*
X027143Y015330D02*
X027637Y015330D01*
X027513Y014960D02*
X027513Y015701D01*
X027143Y015330D01*
X030460Y015207D02*
X030830Y015207D01*
X030954Y015330D01*
X030954Y015577D01*
X030830Y015701D01*
X030460Y015701D01*
X030460Y014960D01*
X031197Y015083D02*
X031320Y014960D01*
X031567Y014960D01*
X031690Y015083D01*
X031690Y015577D01*
X031567Y015701D01*
X031320Y015701D01*
X031197Y015577D01*
X031197Y015083D01*
X031933Y014960D02*
X031933Y015701D01*
X032304Y015701D01*
X032427Y015577D01*
X032427Y015330D01*
X032304Y015207D01*
X031933Y015207D01*
X032180Y015207D02*
X032427Y014960D01*
X032917Y014960D02*
X032917Y015701D01*
X032670Y015701D02*
X033164Y015701D01*
X033407Y015330D02*
X033900Y015330D01*
X034143Y015330D02*
X034390Y015454D01*
X034513Y015454D01*
X034637Y015330D01*
X034637Y015083D01*
X034513Y014960D01*
X034267Y014960D01*
X034143Y015083D01*
X034143Y015330D02*
X034143Y015701D01*
X034637Y015701D01*
X037460Y015701D02*
X037460Y014960D01*
X037460Y015207D02*
X037830Y015207D01*
X037954Y015330D01*
X037954Y015577D01*
X037830Y015701D01*
X037460Y015701D01*
X038197Y015577D02*
X038197Y015083D01*
X038320Y014960D01*
X038567Y014960D01*
X038690Y015083D01*
X038690Y015577D01*
X038567Y015701D01*
X038320Y015701D01*
X038197Y015577D01*
X038933Y015701D02*
X039304Y015701D01*
X039427Y015577D01*
X039427Y015330D01*
X039304Y015207D01*
X038933Y015207D01*
X038933Y014960D02*
X038933Y015701D01*
X039180Y015207D02*
X039427Y014960D01*
X039917Y014960D02*
X039917Y015701D01*
X039670Y015701D02*
X040164Y015701D01*
X040407Y015330D02*
X040900Y015330D01*
X041143Y015330D02*
X041513Y015330D01*
X041637Y015207D01*
X041637Y015083D01*
X041513Y014960D01*
X041267Y014960D01*
X041143Y015083D01*
X041143Y015330D01*
X041390Y015577D01*
X041637Y015701D01*
X039530Y016830D02*
X038830Y016830D01*
X038830Y017530D01*
X039530Y017530D01*
X039530Y016830D01*
X039480Y016780D02*
X031880Y016780D01*
X031854Y016782D01*
X031828Y016787D01*
X031803Y016795D01*
X031780Y016807D01*
X031758Y016821D01*
X031739Y016839D01*
X031721Y016858D01*
X031707Y016880D01*
X031695Y016903D01*
X031687Y016928D01*
X031682Y016954D01*
X031680Y016980D01*
X031680Y017380D01*
X031682Y017406D01*
X031687Y017432D01*
X031695Y017457D01*
X031707Y017480D01*
X031721Y017502D01*
X031739Y017521D01*
X031758Y017539D01*
X031780Y017553D01*
X031803Y017565D01*
X031828Y017573D01*
X031854Y017578D01*
X031880Y017580D01*
X039480Y017580D01*
X039506Y017578D01*
X039532Y017573D01*
X039557Y017565D01*
X039580Y017553D01*
X039602Y017539D01*
X039621Y017521D01*
X039639Y017502D01*
X039653Y017480D01*
X039665Y017457D01*
X039673Y017432D01*
X039678Y017406D01*
X039680Y017380D01*
X039680Y016980D01*
X039678Y016954D01*
X039673Y016928D01*
X039665Y016903D01*
X039653Y016880D01*
X039639Y016858D01*
X039621Y016839D01*
X039602Y016821D01*
X039580Y016807D01*
X039557Y016795D01*
X039532Y016787D01*
X039506Y016782D01*
X039480Y016780D01*
X040680Y014280D02*
X040727Y014278D01*
X040775Y014272D01*
X040821Y014263D01*
X040867Y014250D01*
X040911Y014234D01*
X040955Y014213D01*
X040996Y014190D01*
X041035Y014164D01*
X041072Y014134D01*
X041107Y014101D01*
X041139Y014066D01*
X041168Y014029D01*
X040680Y013080D02*
X040635Y013082D01*
X040589Y013087D01*
X040545Y013095D01*
X040501Y013107D01*
X040458Y013123D01*
X040416Y013141D01*
X040376Y013163D01*
X040338Y013187D01*
X040302Y013214D01*
X040267Y013244D01*
X040236Y013277D01*
X040206Y013312D01*
X040680Y013080D02*
X040725Y013082D01*
X040771Y013087D01*
X040815Y013095D01*
X040859Y013107D01*
X040902Y013123D01*
X040944Y013141D01*
X040984Y013163D01*
X041022Y013187D01*
X041058Y013214D01*
X041093Y013244D01*
X041124Y013277D01*
X041154Y013312D01*
X040680Y014280D02*
X040634Y014278D01*
X040588Y014273D01*
X040542Y014264D01*
X040497Y014252D01*
X040454Y014236D01*
X040412Y014217D01*
X040371Y014194D01*
X040332Y014169D01*
X040296Y014141D01*
X040261Y014110D01*
X040229Y014076D01*
X040200Y014040D01*
X037680Y013080D02*
X037635Y013082D01*
X037589Y013087D01*
X037545Y013095D01*
X037501Y013107D01*
X037458Y013123D01*
X037416Y013141D01*
X037376Y013163D01*
X037338Y013187D01*
X037302Y013214D01*
X037267Y013244D01*
X037236Y013277D01*
X037206Y013312D01*
X037680Y014280D02*
X037727Y014278D01*
X037775Y014272D01*
X037821Y014263D01*
X037867Y014250D01*
X037911Y014234D01*
X037955Y014213D01*
X037996Y014190D01*
X038035Y014164D01*
X038072Y014134D01*
X038107Y014101D01*
X038139Y014066D01*
X038168Y014029D01*
X037680Y014280D02*
X037634Y014278D01*
X037588Y014273D01*
X037542Y014264D01*
X037497Y014252D01*
X037454Y014236D01*
X037412Y014217D01*
X037371Y014194D01*
X037332Y014169D01*
X037296Y014141D01*
X037261Y014110D01*
X037229Y014076D01*
X037200Y014040D01*
X037680Y013080D02*
X037725Y013082D01*
X037771Y013087D01*
X037815Y013095D01*
X037859Y013107D01*
X037902Y013123D01*
X037944Y013141D01*
X037984Y013163D01*
X038022Y013187D01*
X038058Y013214D01*
X038093Y013244D01*
X038124Y013277D01*
X038154Y013312D01*
X038780Y012230D02*
X039580Y012230D01*
X039580Y012080D01*
X039880Y012080D01*
X039880Y012180D01*
X041080Y012180D01*
X041180Y012080D01*
X039880Y012080D01*
X039580Y012080D02*
X038780Y012080D01*
X038480Y012080D01*
X038480Y012180D01*
X037280Y012180D01*
X037180Y012080D01*
X036780Y011680D01*
X036780Y011180D01*
X038430Y010430D02*
X038430Y008930D01*
X039930Y008930D01*
X039930Y010430D01*
X038430Y010430D01*
X036780Y010130D02*
X036780Y009230D01*
X034580Y009230D02*
X034580Y010130D01*
X032930Y010430D02*
X032930Y008930D01*
X031430Y008930D01*
X031430Y010430D01*
X032930Y010430D01*
X030780Y009680D02*
X030782Y009755D01*
X030788Y009829D01*
X030798Y009903D01*
X030812Y009976D01*
X030829Y010048D01*
X030851Y010120D01*
X030876Y010190D01*
X030905Y010258D01*
X030938Y010326D01*
X030974Y010391D01*
X031013Y010454D01*
X031056Y010515D01*
X031102Y010574D01*
X031151Y010630D01*
X031203Y010683D01*
X031258Y010734D01*
X031315Y010781D01*
X031375Y010826D01*
X031437Y010867D01*
X031502Y010905D01*
X031568Y010939D01*
X031636Y010970D01*
X031705Y010997D01*
X031776Y011020D01*
X031848Y011040D01*
X031921Y011056D01*
X031994Y011068D01*
X032068Y011076D01*
X032143Y011080D01*
X032217Y011080D01*
X032292Y011076D01*
X032366Y011068D01*
X032439Y011056D01*
X032512Y011040D01*
X032584Y011020D01*
X032655Y010997D01*
X032724Y010970D01*
X032792Y010939D01*
X032858Y010905D01*
X032923Y010867D01*
X032985Y010826D01*
X033045Y010781D01*
X033102Y010734D01*
X033157Y010683D01*
X033209Y010630D01*
X033258Y010574D01*
X033304Y010515D01*
X033347Y010454D01*
X033386Y010391D01*
X033422Y010326D01*
X033455Y010258D01*
X033484Y010190D01*
X033509Y010120D01*
X033531Y010048D01*
X033548Y009976D01*
X033562Y009903D01*
X033572Y009829D01*
X033578Y009755D01*
X033580Y009680D01*
X033578Y009605D01*
X033572Y009531D01*
X033562Y009457D01*
X033548Y009384D01*
X033531Y009312D01*
X033509Y009240D01*
X033484Y009170D01*
X033455Y009102D01*
X033422Y009034D01*
X033386Y008969D01*
X033347Y008906D01*
X033304Y008845D01*
X033258Y008786D01*
X033209Y008730D01*
X033157Y008677D01*
X033102Y008626D01*
X033045Y008579D01*
X032985Y008534D01*
X032923Y008493D01*
X032858Y008455D01*
X032792Y008421D01*
X032724Y008390D01*
X032655Y008363D01*
X032584Y008340D01*
X032512Y008320D01*
X032439Y008304D01*
X032366Y008292D01*
X032292Y008284D01*
X032217Y008280D01*
X032143Y008280D01*
X032068Y008284D01*
X031994Y008292D01*
X031921Y008304D01*
X031848Y008320D01*
X031776Y008340D01*
X031705Y008363D01*
X031636Y008390D01*
X031568Y008421D01*
X031502Y008455D01*
X031437Y008493D01*
X031375Y008534D01*
X031315Y008579D01*
X031258Y008626D01*
X031203Y008677D01*
X031151Y008730D01*
X031102Y008786D01*
X031056Y008845D01*
X031013Y008906D01*
X030974Y008969D01*
X030938Y009034D01*
X030905Y009102D01*
X030876Y009170D01*
X030851Y009240D01*
X030829Y009312D01*
X030812Y009384D01*
X030798Y009457D01*
X030788Y009531D01*
X030782Y009605D01*
X030780Y009680D01*
X029780Y010130D02*
X029780Y009230D01*
X027580Y009230D02*
X027580Y010130D01*
X027580Y011180D02*
X027580Y011680D01*
X027180Y012080D01*
X029780Y011680D02*
X029780Y011180D01*
X029780Y011680D02*
X030180Y012080D01*
X030280Y012180D01*
X031480Y012180D01*
X031480Y012080D01*
X031780Y012080D01*
X032580Y012080D01*
X032880Y012080D01*
X032880Y012180D01*
X034080Y012180D01*
X034180Y012080D01*
X032880Y012080D01*
X032580Y012080D02*
X032580Y012230D01*
X031780Y012230D01*
X031780Y012080D01*
X031480Y012080D02*
X030180Y012080D01*
X031168Y014029D02*
X031139Y014066D01*
X031107Y014101D01*
X031072Y014134D01*
X031035Y014164D01*
X030996Y014190D01*
X030955Y014213D01*
X030911Y014234D01*
X030867Y014250D01*
X030821Y014263D01*
X030775Y014272D01*
X030727Y014278D01*
X030680Y014280D01*
X030206Y013312D02*
X030236Y013277D01*
X030267Y013244D01*
X030302Y013214D01*
X030338Y013187D01*
X030376Y013163D01*
X030416Y013141D01*
X030458Y013123D01*
X030501Y013107D01*
X030545Y013095D01*
X030589Y013087D01*
X030635Y013082D01*
X030680Y013080D01*
X030200Y014040D02*
X030229Y014076D01*
X030261Y014110D01*
X030296Y014141D01*
X030332Y014169D01*
X030371Y014194D01*
X030412Y014217D01*
X030454Y014236D01*
X030497Y014252D01*
X030542Y014264D01*
X030588Y014273D01*
X030634Y014278D01*
X030680Y014280D01*
X031154Y013312D02*
X031124Y013277D01*
X031093Y013244D01*
X031058Y013214D01*
X031022Y013187D01*
X030984Y013163D01*
X030944Y013141D01*
X030902Y013123D01*
X030859Y013107D01*
X030815Y013095D01*
X030771Y013087D01*
X030725Y013082D01*
X030680Y013080D01*
X033680Y014280D02*
X033727Y014278D01*
X033775Y014272D01*
X033821Y014263D01*
X033867Y014250D01*
X033911Y014234D01*
X033955Y014213D01*
X033996Y014190D01*
X034035Y014164D01*
X034072Y014134D01*
X034107Y014101D01*
X034139Y014066D01*
X034168Y014029D01*
X033680Y013080D02*
X033635Y013082D01*
X033589Y013087D01*
X033545Y013095D01*
X033501Y013107D01*
X033458Y013123D01*
X033416Y013141D01*
X033376Y013163D01*
X033338Y013187D01*
X033302Y013214D01*
X033267Y013244D01*
X033236Y013277D01*
X033206Y013312D01*
X033680Y013080D02*
X033725Y013082D01*
X033771Y013087D01*
X033815Y013095D01*
X033859Y013107D01*
X033902Y013123D01*
X033944Y013141D01*
X033984Y013163D01*
X034022Y013187D01*
X034058Y013214D01*
X034093Y013244D01*
X034124Y013277D01*
X034154Y013312D01*
X033680Y014280D02*
X033634Y014278D01*
X033588Y014273D01*
X033542Y014264D01*
X033497Y014252D01*
X033454Y014236D01*
X033412Y014217D01*
X033371Y014194D01*
X033332Y014169D01*
X033296Y014141D01*
X033261Y014110D01*
X033229Y014076D01*
X033200Y014040D01*
X034180Y012080D02*
X034580Y011680D01*
X034580Y011180D01*
X037180Y012080D02*
X038480Y012080D01*
X038780Y012080D02*
X038780Y012230D01*
X041180Y012080D02*
X041580Y011680D01*
X041580Y011180D01*
X041580Y010130D02*
X041580Y009230D01*
X037780Y009680D02*
X037782Y009755D01*
X037788Y009829D01*
X037798Y009903D01*
X037812Y009976D01*
X037829Y010048D01*
X037851Y010120D01*
X037876Y010190D01*
X037905Y010258D01*
X037938Y010326D01*
X037974Y010391D01*
X038013Y010454D01*
X038056Y010515D01*
X038102Y010574D01*
X038151Y010630D01*
X038203Y010683D01*
X038258Y010734D01*
X038315Y010781D01*
X038375Y010826D01*
X038437Y010867D01*
X038502Y010905D01*
X038568Y010939D01*
X038636Y010970D01*
X038705Y010997D01*
X038776Y011020D01*
X038848Y011040D01*
X038921Y011056D01*
X038994Y011068D01*
X039068Y011076D01*
X039143Y011080D01*
X039217Y011080D01*
X039292Y011076D01*
X039366Y011068D01*
X039439Y011056D01*
X039512Y011040D01*
X039584Y011020D01*
X039655Y010997D01*
X039724Y010970D01*
X039792Y010939D01*
X039858Y010905D01*
X039923Y010867D01*
X039985Y010826D01*
X040045Y010781D01*
X040102Y010734D01*
X040157Y010683D01*
X040209Y010630D01*
X040258Y010574D01*
X040304Y010515D01*
X040347Y010454D01*
X040386Y010391D01*
X040422Y010326D01*
X040455Y010258D01*
X040484Y010190D01*
X040509Y010120D01*
X040531Y010048D01*
X040548Y009976D01*
X040562Y009903D01*
X040572Y009829D01*
X040578Y009755D01*
X040580Y009680D01*
X040578Y009605D01*
X040572Y009531D01*
X040562Y009457D01*
X040548Y009384D01*
X040531Y009312D01*
X040509Y009240D01*
X040484Y009170D01*
X040455Y009102D01*
X040422Y009034D01*
X040386Y008969D01*
X040347Y008906D01*
X040304Y008845D01*
X040258Y008786D01*
X040209Y008730D01*
X040157Y008677D01*
X040102Y008626D01*
X040045Y008579D01*
X039985Y008534D01*
X039923Y008493D01*
X039858Y008455D01*
X039792Y008421D01*
X039724Y008390D01*
X039655Y008363D01*
X039584Y008340D01*
X039512Y008320D01*
X039439Y008304D01*
X039366Y008292D01*
X039292Y008284D01*
X039217Y008280D01*
X039143Y008280D01*
X039068Y008284D01*
X038994Y008292D01*
X038921Y008304D01*
X038848Y008320D01*
X038776Y008340D01*
X038705Y008363D01*
X038636Y008390D01*
X038568Y008421D01*
X038502Y008455D01*
X038437Y008493D01*
X038375Y008534D01*
X038315Y008579D01*
X038258Y008626D01*
X038203Y008677D01*
X038151Y008730D01*
X038102Y008786D01*
X038056Y008845D01*
X038013Y008906D01*
X037974Y008969D01*
X037938Y009034D01*
X037905Y009102D01*
X037876Y009170D01*
X037851Y009240D01*
X037829Y009312D01*
X037812Y009384D01*
X037798Y009457D01*
X037788Y009531D01*
X037782Y009605D01*
X037780Y009680D01*
X036780Y008180D02*
X036780Y007680D01*
X037180Y007280D01*
X037280Y007180D01*
X038480Y007180D01*
X038480Y007280D01*
X038780Y007280D01*
X039580Y007280D01*
X039880Y007280D01*
X041180Y007280D01*
X041080Y007180D01*
X039880Y007180D01*
X039880Y007280D01*
X039580Y007280D02*
X039580Y007130D01*
X038780Y007130D01*
X038780Y007280D01*
X038480Y007280D02*
X037180Y007280D01*
X038780Y006230D02*
X039580Y006230D01*
X039580Y006080D01*
X039880Y006080D01*
X039880Y006180D01*
X041080Y006180D01*
X041180Y006080D01*
X039880Y006080D01*
X039580Y006080D02*
X038780Y006080D01*
X038480Y006080D01*
X038480Y006180D01*
X037280Y006180D01*
X037180Y006080D01*
X036780Y005680D01*
X036780Y005180D01*
X038430Y004430D02*
X038430Y002930D01*
X039930Y002930D01*
X039930Y004430D01*
X038430Y004430D01*
X036780Y004130D02*
X036780Y003230D01*
X036780Y002180D02*
X036780Y001680D01*
X037180Y001280D01*
X037280Y001180D01*
X038480Y001180D01*
X038480Y001280D01*
X038780Y001280D01*
X039580Y001280D01*
X039880Y001280D01*
X041180Y001280D01*
X041080Y001180D01*
X039880Y001180D01*
X039880Y001280D01*
X039580Y001280D02*
X039580Y001130D01*
X038780Y001130D01*
X038780Y001280D01*
X038480Y001280D02*
X037180Y001280D01*
X034580Y001680D02*
X034580Y002180D01*
X034580Y001680D02*
X034180Y001280D01*
X034080Y001180D01*
X032880Y001180D01*
X032880Y001280D01*
X034180Y001280D01*
X032880Y001280D02*
X032580Y001280D01*
X031780Y001280D01*
X031480Y001280D01*
X031480Y001180D01*
X030280Y001180D01*
X030180Y001280D01*
X031480Y001280D01*
X031780Y001280D02*
X031780Y001130D01*
X032580Y001130D01*
X032580Y001280D01*
X030180Y001280D02*
X029780Y001680D01*
X029780Y002180D01*
X031430Y002930D02*
X031430Y004430D01*
X032930Y004430D01*
X032930Y002930D01*
X031430Y002930D01*
X030780Y003680D02*
X030782Y003755D01*
X030788Y003829D01*
X030798Y003903D01*
X030812Y003976D01*
X030829Y004048D01*
X030851Y004120D01*
X030876Y004190D01*
X030905Y004258D01*
X030938Y004326D01*
X030974Y004391D01*
X031013Y004454D01*
X031056Y004515D01*
X031102Y004574D01*
X031151Y004630D01*
X031203Y004683D01*
X031258Y004734D01*
X031315Y004781D01*
X031375Y004826D01*
X031437Y004867D01*
X031502Y004905D01*
X031568Y004939D01*
X031636Y004970D01*
X031705Y004997D01*
X031776Y005020D01*
X031848Y005040D01*
X031921Y005056D01*
X031994Y005068D01*
X032068Y005076D01*
X032143Y005080D01*
X032217Y005080D01*
X032292Y005076D01*
X032366Y005068D01*
X032439Y005056D01*
X032512Y005040D01*
X032584Y005020D01*
X032655Y004997D01*
X032724Y004970D01*
X032792Y004939D01*
X032858Y004905D01*
X032923Y004867D01*
X032985Y004826D01*
X033045Y004781D01*
X033102Y004734D01*
X033157Y004683D01*
X033209Y004630D01*
X033258Y004574D01*
X033304Y004515D01*
X033347Y004454D01*
X033386Y004391D01*
X033422Y004326D01*
X033455Y004258D01*
X033484Y004190D01*
X033509Y004120D01*
X033531Y004048D01*
X033548Y003976D01*
X033562Y003903D01*
X033572Y003829D01*
X033578Y003755D01*
X033580Y003680D01*
X033578Y003605D01*
X033572Y003531D01*
X033562Y003457D01*
X033548Y003384D01*
X033531Y003312D01*
X033509Y003240D01*
X033484Y003170D01*
X033455Y003102D01*
X033422Y003034D01*
X033386Y002969D01*
X033347Y002906D01*
X033304Y002845D01*
X033258Y002786D01*
X033209Y002730D01*
X033157Y002677D01*
X033102Y002626D01*
X033045Y002579D01*
X032985Y002534D01*
X032923Y002493D01*
X032858Y002455D01*
X032792Y002421D01*
X032724Y002390D01*
X032655Y002363D01*
X032584Y002340D01*
X032512Y002320D01*
X032439Y002304D01*
X032366Y002292D01*
X032292Y002284D01*
X032217Y002280D01*
X032143Y002280D01*
X032068Y002284D01*
X031994Y002292D01*
X031921Y002304D01*
X031848Y002320D01*
X031776Y002340D01*
X031705Y002363D01*
X031636Y002390D01*
X031568Y002421D01*
X031502Y002455D01*
X031437Y002493D01*
X031375Y002534D01*
X031315Y002579D01*
X031258Y002626D01*
X031203Y002677D01*
X031151Y002730D01*
X031102Y002786D01*
X031056Y002845D01*
X031013Y002906D01*
X030974Y002969D01*
X030938Y003034D01*
X030905Y003102D01*
X030876Y003170D01*
X030851Y003240D01*
X030829Y003312D01*
X030812Y003384D01*
X030798Y003457D01*
X030788Y003531D01*
X030782Y003605D01*
X030780Y003680D01*
X029780Y004130D02*
X029780Y003230D01*
X027580Y003230D02*
X027580Y004130D01*
X025930Y004430D02*
X025930Y002930D01*
X024430Y002930D01*
X024430Y004430D01*
X025930Y004430D01*
X023780Y003680D02*
X023782Y003755D01*
X023788Y003829D01*
X023798Y003903D01*
X023812Y003976D01*
X023829Y004048D01*
X023851Y004120D01*
X023876Y004190D01*
X023905Y004258D01*
X023938Y004326D01*
X023974Y004391D01*
X024013Y004454D01*
X024056Y004515D01*
X024102Y004574D01*
X024151Y004630D01*
X024203Y004683D01*
X024258Y004734D01*
X024315Y004781D01*
X024375Y004826D01*
X024437Y004867D01*
X024502Y004905D01*
X024568Y004939D01*
X024636Y004970D01*
X024705Y004997D01*
X024776Y005020D01*
X024848Y005040D01*
X024921Y005056D01*
X024994Y005068D01*
X025068Y005076D01*
X025143Y005080D01*
X025217Y005080D01*
X025292Y005076D01*
X025366Y005068D01*
X025439Y005056D01*
X025512Y005040D01*
X025584Y005020D01*
X025655Y004997D01*
X025724Y004970D01*
X025792Y004939D01*
X025858Y004905D01*
X025923Y004867D01*
X025985Y004826D01*
X026045Y004781D01*
X026102Y004734D01*
X026157Y004683D01*
X026209Y004630D01*
X026258Y004574D01*
X026304Y004515D01*
X026347Y004454D01*
X026386Y004391D01*
X026422Y004326D01*
X026455Y004258D01*
X026484Y004190D01*
X026509Y004120D01*
X026531Y004048D01*
X026548Y003976D01*
X026562Y003903D01*
X026572Y003829D01*
X026578Y003755D01*
X026580Y003680D01*
X026578Y003605D01*
X026572Y003531D01*
X026562Y003457D01*
X026548Y003384D01*
X026531Y003312D01*
X026509Y003240D01*
X026484Y003170D01*
X026455Y003102D01*
X026422Y003034D01*
X026386Y002969D01*
X026347Y002906D01*
X026304Y002845D01*
X026258Y002786D01*
X026209Y002730D01*
X026157Y002677D01*
X026102Y002626D01*
X026045Y002579D01*
X025985Y002534D01*
X025923Y002493D01*
X025858Y002455D01*
X025792Y002421D01*
X025724Y002390D01*
X025655Y002363D01*
X025584Y002340D01*
X025512Y002320D01*
X025439Y002304D01*
X025366Y002292D01*
X025292Y002284D01*
X025217Y002280D01*
X025143Y002280D01*
X025068Y002284D01*
X024994Y002292D01*
X024921Y002304D01*
X024848Y002320D01*
X024776Y002340D01*
X024705Y002363D01*
X024636Y002390D01*
X024568Y002421D01*
X024502Y002455D01*
X024437Y002493D01*
X024375Y002534D01*
X024315Y002579D01*
X024258Y002626D01*
X024203Y002677D01*
X024151Y002730D01*
X024102Y002786D01*
X024056Y002845D01*
X024013Y002906D01*
X023974Y002969D01*
X023938Y003034D01*
X023905Y003102D01*
X023876Y003170D01*
X023851Y003240D01*
X023829Y003312D01*
X023812Y003384D01*
X023798Y003457D01*
X023788Y003531D01*
X023782Y003605D01*
X023780Y003680D01*
X022780Y004130D02*
X022780Y003230D01*
X022780Y002180D02*
X022780Y001680D01*
X023180Y001280D01*
X023280Y001180D01*
X024480Y001180D01*
X024480Y001280D01*
X024780Y001280D01*
X025580Y001280D01*
X025880Y001280D01*
X027180Y001280D01*
X027080Y001180D01*
X025880Y001180D01*
X025880Y001280D01*
X025580Y001280D02*
X025580Y001130D01*
X024780Y001130D01*
X024780Y001280D01*
X024480Y001280D02*
X023180Y001280D01*
X027180Y001280D02*
X027580Y001680D01*
X027580Y002180D01*
X027580Y005180D02*
X027580Y005680D01*
X027180Y006080D01*
X029780Y005680D02*
X029780Y005180D01*
X029780Y005680D02*
X030180Y006080D01*
X030280Y006180D01*
X031480Y006180D01*
X031480Y006080D01*
X031780Y006080D01*
X032580Y006080D01*
X032880Y006080D01*
X032880Y006180D01*
X034080Y006180D01*
X034180Y006080D01*
X032880Y006080D01*
X032580Y006080D02*
X032580Y006230D01*
X031780Y006230D01*
X031780Y006080D01*
X031480Y006080D02*
X030180Y006080D01*
X030280Y007180D02*
X030180Y007280D01*
X031480Y007280D01*
X031780Y007280D01*
X032580Y007280D01*
X032880Y007280D01*
X034180Y007280D01*
X034080Y007180D01*
X032880Y007180D01*
X032880Y007280D01*
X032580Y007280D02*
X032580Y007130D01*
X031780Y007130D01*
X031780Y007280D01*
X031480Y007280D02*
X031480Y007180D01*
X030280Y007180D01*
X030180Y007280D02*
X029780Y007680D01*
X029780Y008180D01*
X027580Y008180D02*
X027580Y007680D01*
X027180Y007280D01*
X020580Y007680D02*
X020180Y007280D01*
X020580Y007680D02*
X020580Y008180D01*
X017780Y006230D02*
X017780Y006080D01*
X017480Y006080D02*
X016180Y006080D01*
X002780Y003680D02*
X002782Y003755D01*
X002788Y003829D01*
X002798Y003903D01*
X002812Y003976D01*
X002829Y004048D01*
X002851Y004120D01*
X002876Y004190D01*
X002905Y004258D01*
X002938Y004326D01*
X002974Y004391D01*
X003013Y004454D01*
X003056Y004515D01*
X003102Y004574D01*
X003151Y004630D01*
X003203Y004683D01*
X003258Y004734D01*
X003315Y004781D01*
X003375Y004826D01*
X003437Y004867D01*
X003502Y004905D01*
X003568Y004939D01*
X003636Y004970D01*
X003705Y004997D01*
X003776Y005020D01*
X003848Y005040D01*
X003921Y005056D01*
X003994Y005068D01*
X004068Y005076D01*
X004143Y005080D01*
X004217Y005080D01*
X004292Y005076D01*
X004366Y005068D01*
X004439Y005056D01*
X004512Y005040D01*
X004584Y005020D01*
X004655Y004997D01*
X004724Y004970D01*
X004792Y004939D01*
X004858Y004905D01*
X004923Y004867D01*
X004985Y004826D01*
X005045Y004781D01*
X005102Y004734D01*
X005157Y004683D01*
X005209Y004630D01*
X005258Y004574D01*
X005304Y004515D01*
X005347Y004454D01*
X005386Y004391D01*
X005422Y004326D01*
X005455Y004258D01*
X005484Y004190D01*
X005509Y004120D01*
X005531Y004048D01*
X005548Y003976D01*
X005562Y003903D01*
X005572Y003829D01*
X005578Y003755D01*
X005580Y003680D01*
X005578Y003605D01*
X005572Y003531D01*
X005562Y003457D01*
X005548Y003384D01*
X005531Y003312D01*
X005509Y003240D01*
X005484Y003170D01*
X005455Y003102D01*
X005422Y003034D01*
X005386Y002969D01*
X005347Y002906D01*
X005304Y002845D01*
X005258Y002786D01*
X005209Y002730D01*
X005157Y002677D01*
X005102Y002626D01*
X005045Y002579D01*
X004985Y002534D01*
X004923Y002493D01*
X004858Y002455D01*
X004792Y002421D01*
X004724Y002390D01*
X004655Y002363D01*
X004584Y002340D01*
X004512Y002320D01*
X004439Y002304D01*
X004366Y002292D01*
X004292Y002284D01*
X004217Y002280D01*
X004143Y002280D01*
X004068Y002284D01*
X003994Y002292D01*
X003921Y002304D01*
X003848Y002320D01*
X003776Y002340D01*
X003705Y002363D01*
X003636Y002390D01*
X003568Y002421D01*
X003502Y002455D01*
X003437Y002493D01*
X003375Y002534D01*
X003315Y002579D01*
X003258Y002626D01*
X003203Y002677D01*
X003151Y002730D01*
X003102Y002786D01*
X003056Y002845D01*
X003013Y002906D01*
X002974Y002969D01*
X002938Y003034D01*
X002905Y003102D01*
X002876Y003170D01*
X002851Y003240D01*
X002829Y003312D01*
X002812Y003384D01*
X002798Y003457D01*
X002788Y003531D01*
X002782Y003605D01*
X002780Y003680D01*
X009180Y014280D02*
X009227Y014278D01*
X009275Y014272D01*
X009321Y014263D01*
X009367Y014250D01*
X009411Y014234D01*
X009455Y014213D01*
X009496Y014190D01*
X009535Y014164D01*
X009572Y014134D01*
X009607Y014101D01*
X009639Y014066D01*
X009668Y014029D01*
X009180Y013080D02*
X009135Y013082D01*
X009089Y013087D01*
X009045Y013095D01*
X009001Y013107D01*
X008958Y013123D01*
X008916Y013141D01*
X008876Y013163D01*
X008838Y013187D01*
X008802Y013214D01*
X008767Y013244D01*
X008736Y013277D01*
X008706Y013312D01*
X009180Y013080D02*
X009225Y013082D01*
X009271Y013087D01*
X009315Y013095D01*
X009359Y013107D01*
X009402Y013123D01*
X009444Y013141D01*
X009484Y013163D01*
X009522Y013187D01*
X009558Y013214D01*
X009593Y013244D01*
X009624Y013277D01*
X009654Y013312D01*
X009180Y014280D02*
X009134Y014278D01*
X009088Y014273D01*
X009042Y014264D01*
X008997Y014252D01*
X008954Y014236D01*
X008912Y014217D01*
X008871Y014194D01*
X008832Y014169D01*
X008796Y014141D01*
X008761Y014110D01*
X008729Y014076D01*
X008700Y014040D01*
X009460Y014960D02*
X009460Y015701D01*
X009830Y015701D01*
X009954Y015577D01*
X009954Y015330D01*
X009830Y015207D01*
X009460Y015207D01*
X010197Y015083D02*
X010320Y014960D01*
X010567Y014960D01*
X010690Y015083D01*
X010690Y015577D01*
X010567Y015701D01*
X010320Y015701D01*
X010197Y015577D01*
X010197Y015083D01*
X010933Y014960D02*
X010933Y015701D01*
X011304Y015701D01*
X011427Y015577D01*
X011427Y015330D01*
X011304Y015207D01*
X010933Y015207D01*
X011180Y015207D02*
X011427Y014960D01*
X011917Y014960D02*
X011917Y015701D01*
X011670Y015701D02*
X012164Y015701D01*
X013143Y015577D02*
X013267Y015701D01*
X013513Y015701D01*
X013637Y015577D01*
X013637Y015454D01*
X013143Y014960D01*
X013637Y014960D01*
X012900Y015330D02*
X012407Y015330D01*
X013180Y014280D02*
X013227Y014278D01*
X013275Y014272D01*
X013321Y014263D01*
X013367Y014250D01*
X013411Y014234D01*
X013455Y014213D01*
X013496Y014190D01*
X013535Y014164D01*
X013572Y014134D01*
X013607Y014101D01*
X013639Y014066D01*
X013668Y014029D01*
X013180Y013080D02*
X013135Y013082D01*
X013089Y013087D01*
X013045Y013095D01*
X013001Y013107D01*
X012958Y013123D01*
X012916Y013141D01*
X012876Y013163D01*
X012838Y013187D01*
X012802Y013214D01*
X012767Y013244D01*
X012736Y013277D01*
X012706Y013312D01*
X013180Y013080D02*
X013225Y013082D01*
X013271Y013087D01*
X013315Y013095D01*
X013359Y013107D01*
X013402Y013123D01*
X013444Y013141D01*
X013484Y013163D01*
X013522Y013187D01*
X013558Y013214D01*
X013593Y013244D01*
X013624Y013277D01*
X013654Y013312D01*
X013180Y014280D02*
X013134Y014278D01*
X013088Y014273D01*
X013042Y014264D01*
X012997Y014252D01*
X012954Y014236D01*
X012912Y014217D01*
X012871Y014194D01*
X012832Y014169D01*
X012796Y014141D01*
X012761Y014110D01*
X012729Y014076D01*
X012700Y014040D01*
X011180Y013080D02*
X011135Y013082D01*
X011089Y013087D01*
X011045Y013095D01*
X011001Y013107D01*
X010958Y013123D01*
X010916Y013141D01*
X010876Y013163D01*
X010838Y013187D01*
X010802Y013214D01*
X010767Y013244D01*
X010736Y013277D01*
X010706Y013312D01*
X011180Y014280D02*
X011227Y014278D01*
X011275Y014272D01*
X011321Y014263D01*
X011367Y014250D01*
X011411Y014234D01*
X011455Y014213D01*
X011496Y014190D01*
X011535Y014164D01*
X011572Y014134D01*
X011607Y014101D01*
X011639Y014066D01*
X011668Y014029D01*
X011180Y014280D02*
X011134Y014278D01*
X011088Y014273D01*
X011042Y014264D01*
X010997Y014252D01*
X010954Y014236D01*
X010912Y014217D01*
X010871Y014194D01*
X010832Y014169D01*
X010796Y014141D01*
X010761Y014110D01*
X010729Y014076D01*
X010700Y014040D01*
X011180Y013080D02*
X011225Y013082D01*
X011271Y013087D01*
X011315Y013095D01*
X011359Y013107D01*
X011402Y013123D01*
X011444Y013141D01*
X011484Y013163D01*
X011522Y013187D01*
X011558Y013214D01*
X011593Y013244D01*
X011624Y013277D01*
X011654Y013312D01*
X016460Y014960D02*
X016460Y015701D01*
X016830Y015701D01*
X016954Y015577D01*
X016954Y015330D01*
X016830Y015207D01*
X016460Y015207D01*
X017197Y015083D02*
X017320Y014960D01*
X017567Y014960D01*
X017690Y015083D01*
X017690Y015577D01*
X017567Y015701D01*
X017320Y015701D01*
X017197Y015577D01*
X017197Y015083D01*
X017933Y014960D02*
X017933Y015701D01*
X018304Y015701D01*
X018427Y015577D01*
X018427Y015330D01*
X018304Y015207D01*
X017933Y015207D01*
X018180Y015207D02*
X018427Y014960D01*
X018917Y014960D02*
X018917Y015701D01*
X018670Y015701D02*
X019164Y015701D01*
X019407Y015330D02*
X019900Y015330D01*
X020143Y015083D02*
X020267Y014960D01*
X020513Y014960D01*
X020637Y015083D01*
X020637Y015207D01*
X020513Y015330D01*
X020390Y015330D01*
X020513Y015330D02*
X020637Y015454D01*
X020637Y015577D01*
X020513Y015701D01*
X020267Y015701D01*
X020143Y015577D01*
X019206Y013312D02*
X019236Y013277D01*
X019267Y013244D01*
X019302Y013214D01*
X019338Y013187D01*
X019376Y013163D01*
X019416Y013141D01*
X019458Y013123D01*
X019501Y013107D01*
X019545Y013095D01*
X019589Y013087D01*
X019635Y013082D01*
X019680Y013080D01*
X019200Y014040D02*
X019229Y014076D01*
X019261Y014110D01*
X019296Y014141D01*
X019332Y014169D01*
X019371Y014194D01*
X019412Y014217D01*
X019454Y014236D01*
X019497Y014252D01*
X019542Y014264D01*
X019588Y014273D01*
X019634Y014278D01*
X019680Y014280D01*
X020154Y013312D02*
X020124Y013277D01*
X020093Y013244D01*
X020058Y013214D01*
X020022Y013187D01*
X019984Y013163D01*
X019944Y013141D01*
X019902Y013123D01*
X019859Y013107D01*
X019815Y013095D01*
X019771Y013087D01*
X019725Y013082D01*
X019680Y013080D01*
X020168Y014029D02*
X020139Y014066D01*
X020107Y014101D01*
X020072Y014134D01*
X020035Y014164D01*
X019996Y014190D01*
X019955Y014213D01*
X019911Y014234D01*
X019867Y014250D01*
X019821Y014263D01*
X019775Y014272D01*
X019727Y014278D01*
X019680Y014280D01*
X016680Y013080D02*
X016635Y013082D01*
X016589Y013087D01*
X016545Y013095D01*
X016501Y013107D01*
X016458Y013123D01*
X016416Y013141D01*
X016376Y013163D01*
X016338Y013187D01*
X016302Y013214D01*
X016267Y013244D01*
X016236Y013277D01*
X016206Y013312D01*
X016680Y014280D02*
X016727Y014278D01*
X016775Y014272D01*
X016821Y014263D01*
X016867Y014250D01*
X016911Y014234D01*
X016955Y014213D01*
X016996Y014190D01*
X017035Y014164D01*
X017072Y014134D01*
X017107Y014101D01*
X017139Y014066D01*
X017168Y014029D01*
X016680Y014280D02*
X016634Y014278D01*
X016588Y014273D01*
X016542Y014264D01*
X016497Y014252D01*
X016454Y014236D01*
X016412Y014217D01*
X016371Y014194D01*
X016332Y014169D01*
X016296Y014141D01*
X016261Y014110D01*
X016229Y014076D01*
X016200Y014040D01*
X016680Y013080D02*
X016725Y013082D01*
X016771Y013087D01*
X016815Y013095D01*
X016859Y013107D01*
X016902Y013123D01*
X016944Y013141D01*
X016984Y013163D01*
X017022Y013187D01*
X017058Y013214D01*
X017093Y013244D01*
X017124Y013277D01*
X017154Y013312D01*
X034180Y007280D02*
X034580Y007680D01*
X034580Y008180D01*
X038780Y006230D02*
X038780Y006080D01*
X038480Y006080D02*
X037180Y006080D01*
X034580Y005680D02*
X034580Y005180D01*
X034580Y005680D02*
X034180Y006080D01*
X034580Y004130D02*
X034580Y003230D01*
X037780Y003680D02*
X037782Y003755D01*
X037788Y003829D01*
X037798Y003903D01*
X037812Y003976D01*
X037829Y004048D01*
X037851Y004120D01*
X037876Y004190D01*
X037905Y004258D01*
X037938Y004326D01*
X037974Y004391D01*
X038013Y004454D01*
X038056Y004515D01*
X038102Y004574D01*
X038151Y004630D01*
X038203Y004683D01*
X038258Y004734D01*
X038315Y004781D01*
X038375Y004826D01*
X038437Y004867D01*
X038502Y004905D01*
X038568Y004939D01*
X038636Y004970D01*
X038705Y004997D01*
X038776Y005020D01*
X038848Y005040D01*
X038921Y005056D01*
X038994Y005068D01*
X039068Y005076D01*
X039143Y005080D01*
X039217Y005080D01*
X039292Y005076D01*
X039366Y005068D01*
X039439Y005056D01*
X039512Y005040D01*
X039584Y005020D01*
X039655Y004997D01*
X039724Y004970D01*
X039792Y004939D01*
X039858Y004905D01*
X039923Y004867D01*
X039985Y004826D01*
X040045Y004781D01*
X040102Y004734D01*
X040157Y004683D01*
X040209Y004630D01*
X040258Y004574D01*
X040304Y004515D01*
X040347Y004454D01*
X040386Y004391D01*
X040422Y004326D01*
X040455Y004258D01*
X040484Y004190D01*
X040509Y004120D01*
X040531Y004048D01*
X040548Y003976D01*
X040562Y003903D01*
X040572Y003829D01*
X040578Y003755D01*
X040580Y003680D01*
X040578Y003605D01*
X040572Y003531D01*
X040562Y003457D01*
X040548Y003384D01*
X040531Y003312D01*
X040509Y003240D01*
X040484Y003170D01*
X040455Y003102D01*
X040422Y003034D01*
X040386Y002969D01*
X040347Y002906D01*
X040304Y002845D01*
X040258Y002786D01*
X040209Y002730D01*
X040157Y002677D01*
X040102Y002626D01*
X040045Y002579D01*
X039985Y002534D01*
X039923Y002493D01*
X039858Y002455D01*
X039792Y002421D01*
X039724Y002390D01*
X039655Y002363D01*
X039584Y002340D01*
X039512Y002320D01*
X039439Y002304D01*
X039366Y002292D01*
X039292Y002284D01*
X039217Y002280D01*
X039143Y002280D01*
X039068Y002284D01*
X038994Y002292D01*
X038921Y002304D01*
X038848Y002320D01*
X038776Y002340D01*
X038705Y002363D01*
X038636Y002390D01*
X038568Y002421D01*
X038502Y002455D01*
X038437Y002493D01*
X038375Y002534D01*
X038315Y002579D01*
X038258Y002626D01*
X038203Y002677D01*
X038151Y002730D01*
X038102Y002786D01*
X038056Y002845D01*
X038013Y002906D01*
X037974Y002969D01*
X037938Y003034D01*
X037905Y003102D01*
X037876Y003170D01*
X037851Y003240D01*
X037829Y003312D01*
X037812Y003384D01*
X037798Y003457D01*
X037788Y003531D01*
X037782Y003605D01*
X037780Y003680D01*
X041580Y004130D02*
X041580Y003230D01*
X041580Y002180D02*
X041580Y001680D01*
X041180Y001280D01*
X043210Y001351D02*
X043637Y001351D01*
X043424Y001351D02*
X043424Y000710D01*
X043855Y000710D02*
X043855Y001137D01*
X044068Y001351D01*
X044282Y001137D01*
X044282Y000710D01*
X044282Y001030D02*
X043855Y001030D01*
X041580Y005180D02*
X041580Y005680D01*
X041180Y006080D01*
X041180Y007280D02*
X041580Y007680D01*
X041580Y008180D01*
X045210Y023280D02*
X045210Y023820D01*
X045480Y023820D01*
X045570Y023730D01*
X045570Y023550D01*
X045480Y023460D01*
X045210Y023460D01*
X045762Y023550D02*
X045762Y023820D01*
X045762Y023550D02*
X045853Y023460D01*
X046123Y023460D01*
X046123Y023370D02*
X046033Y023280D01*
X045943Y023280D01*
X046123Y023370D02*
X046123Y023820D01*
X046315Y023910D02*
X046315Y023550D01*
X046405Y023460D01*
X046585Y023460D01*
X046675Y023550D01*
X046867Y023550D02*
X046957Y023460D01*
X047138Y023460D01*
X047228Y023550D01*
X047228Y023730D01*
X047138Y023820D01*
X046957Y023820D01*
X046867Y023730D01*
X046867Y023550D01*
X047420Y023460D02*
X047420Y023820D01*
X047690Y023820D01*
X047780Y023730D01*
X047780Y023460D01*
X048062Y023550D02*
X048153Y023460D01*
X048062Y023550D02*
X048062Y023910D01*
X047972Y023820D02*
X048153Y023820D01*
X048341Y023820D02*
X048341Y023460D01*
X048341Y023640D02*
X048521Y023820D01*
X048611Y023820D01*
X048801Y023730D02*
X048801Y023550D01*
X048891Y023460D01*
X049071Y023460D01*
X049161Y023550D01*
X049161Y023730D01*
X049071Y023820D01*
X048891Y023820D01*
X048801Y023730D01*
X049354Y023460D02*
X049534Y023460D01*
X049444Y023460D02*
X049444Y024000D01*
X049354Y024000D01*
X050274Y024000D02*
X050545Y024000D01*
X050635Y023910D01*
X050635Y023550D01*
X050545Y023460D01*
X050274Y023460D01*
X050274Y024000D01*
X050827Y023730D02*
X050917Y023820D01*
X051097Y023820D01*
X051187Y023730D01*
X051187Y023640D01*
X050827Y023640D01*
X050827Y023550D02*
X050827Y023730D01*
X050827Y023550D02*
X050917Y023460D01*
X051097Y023460D01*
X051379Y023820D02*
X051559Y023460D01*
X051740Y023820D01*
X051932Y023820D02*
X052202Y023820D01*
X052292Y023730D01*
X052292Y023550D01*
X052202Y023460D01*
X051932Y023460D01*
X051932Y024000D01*
X052484Y023730D02*
X052484Y023550D01*
X052574Y023460D01*
X052754Y023460D01*
X052845Y023550D01*
X052845Y023730D01*
X052754Y023820D01*
X052574Y023820D01*
X052484Y023730D01*
X053037Y023550D02*
X053127Y023640D01*
X053397Y023640D01*
X053397Y023730D02*
X053397Y023460D01*
X053127Y023460D01*
X053037Y023550D01*
X053127Y023820D02*
X053307Y023820D01*
X053397Y023730D01*
X053589Y023640D02*
X053769Y023820D01*
X053859Y023820D01*
X054050Y023730D02*
X054050Y023550D01*
X054140Y023460D01*
X054410Y023460D01*
X054410Y024000D01*
X054410Y023820D02*
X054140Y023820D01*
X054050Y023730D01*
X053589Y023820D02*
X053589Y023460D01*
X055154Y023460D02*
X055515Y023460D01*
X055335Y023460D02*
X055335Y024000D01*
X055154Y023820D01*
X055707Y023550D02*
X055797Y023550D01*
X055797Y023460D01*
X055707Y023460D01*
X055707Y023550D01*
X055983Y023460D02*
X056344Y023820D01*
X056344Y023910D01*
X056253Y024000D01*
X056073Y024000D01*
X055983Y023910D01*
X055983Y023460D02*
X056344Y023460D01*
X046675Y023910D02*
X046585Y024000D01*
X046405Y024000D01*
X046315Y023910D01*
X041150Y023954D02*
X041150Y024077D01*
X041027Y024201D01*
X040780Y024201D01*
X040657Y024077D01*
X040414Y023830D02*
X039920Y023830D01*
X039677Y023583D02*
X039554Y023460D01*
X039307Y023460D01*
X039183Y023583D01*
X039183Y024077D01*
X039307Y024201D01*
X039554Y024201D01*
X039677Y024077D01*
X038940Y023954D02*
X038940Y023460D01*
X038940Y023830D02*
X038447Y023830D01*
X038447Y023954D02*
X038447Y023460D01*
X038204Y023583D02*
X038204Y024077D01*
X038080Y024201D01*
X037710Y024201D01*
X037710Y023460D01*
X038080Y023460D01*
X038204Y023583D01*
X038447Y023954D02*
X038694Y024201D01*
X038940Y023954D01*
X040657Y023460D02*
X041150Y023954D01*
X041150Y023460D02*
X040657Y023460D01*
X034150Y023460D02*
X033657Y023460D01*
X033903Y023460D02*
X033903Y024201D01*
X033657Y023954D01*
X033414Y023830D02*
X032920Y023830D01*
X032677Y023583D02*
X032554Y023460D01*
X032307Y023460D01*
X032183Y023583D01*
X032183Y024077D01*
X032307Y024201D01*
X032554Y024201D01*
X032677Y024077D01*
X031940Y023954D02*
X031694Y024201D01*
X031447Y023954D01*
X031447Y023460D01*
X031204Y023583D02*
X031204Y024077D01*
X031080Y024201D01*
X030710Y024201D01*
X030710Y023460D01*
X031080Y023460D01*
X031204Y023583D01*
X031447Y023830D02*
X031940Y023830D01*
X031940Y023954D02*
X031940Y023460D01*
D12*
X028680Y024180D02*
X028680Y016180D01*
X035680Y016180D01*
X042680Y016180D01*
X042680Y000680D01*
X035680Y000680D01*
X028680Y000680D01*
X021680Y000680D01*
X014680Y000680D01*
X007680Y000680D01*
X000680Y000680D01*
X000680Y016180D01*
X007680Y016180D01*
X014680Y016180D01*
X014680Y024180D01*
X021680Y024180D01*
X028680Y024180D01*
X028143Y022744D02*
X028143Y016421D01*
X022217Y016421D01*
X022217Y022744D01*
X028143Y022744D01*
X021680Y024180D02*
X021680Y000680D01*
X014680Y000680D02*
X014680Y016180D01*
X015217Y016421D02*
X015217Y022744D01*
X021143Y022744D01*
X021143Y016421D01*
X015217Y016421D01*
X007680Y016180D02*
X007680Y000680D01*
X028680Y000680D02*
X028680Y016180D01*
X035680Y016180D02*
X035680Y000680D01*
X051936Y000448D02*
X051936Y001156D01*
X051936Y000448D02*
X055794Y000448D01*
X055794Y003912D01*
X057172Y003912D02*
X054101Y003912D01*
X051936Y003912D02*
X051936Y003204D01*
X057172Y003912D02*
X057172Y000448D01*
X055794Y000448D01*
D13*
X039830Y003030D02*
X038530Y003030D01*
X038530Y004330D01*
X039830Y004330D01*
X039830Y003030D01*
X038880Y003680D02*
X038882Y003714D01*
X038888Y003748D01*
X038897Y003781D01*
X038911Y003812D01*
X038928Y003842D01*
X038948Y003870D01*
X038971Y003895D01*
X038997Y003918D01*
X039025Y003937D01*
X039055Y003953D01*
X039087Y003965D01*
X039120Y003974D01*
X039154Y003979D01*
X039189Y003980D01*
X039223Y003977D01*
X039256Y003970D01*
X039289Y003960D01*
X039320Y003945D01*
X039349Y003928D01*
X039376Y003907D01*
X039401Y003883D01*
X039423Y003856D01*
X039441Y003828D01*
X039456Y003797D01*
X039468Y003765D01*
X039476Y003731D01*
X039480Y003697D01*
X039480Y003663D01*
X039476Y003629D01*
X039468Y003595D01*
X039456Y003563D01*
X039441Y003532D01*
X039423Y003504D01*
X039401Y003477D01*
X039376Y003453D01*
X039349Y003432D01*
X039320Y003415D01*
X039289Y003400D01*
X039256Y003390D01*
X039223Y003383D01*
X039189Y003380D01*
X039154Y003381D01*
X039120Y003386D01*
X039087Y003395D01*
X039055Y003407D01*
X039025Y003423D01*
X038997Y003442D01*
X038971Y003465D01*
X038948Y003490D01*
X038928Y003518D01*
X038911Y003548D01*
X038897Y003579D01*
X038888Y003612D01*
X038882Y003646D01*
X038880Y003680D01*
X038780Y003680D02*
X038782Y003720D01*
X038788Y003759D01*
X038798Y003798D01*
X038811Y003835D01*
X038829Y003871D01*
X038850Y003905D01*
X038874Y003937D01*
X038901Y003966D01*
X038931Y003993D01*
X038963Y004016D01*
X038998Y004036D01*
X039034Y004052D01*
X039072Y004065D01*
X039111Y004074D01*
X039150Y004079D01*
X039190Y004080D01*
X039230Y004077D01*
X039269Y004070D01*
X039307Y004059D01*
X039345Y004045D01*
X039380Y004026D01*
X039413Y004005D01*
X039445Y003980D01*
X039473Y003952D01*
X039499Y003922D01*
X039521Y003889D01*
X039540Y003854D01*
X039556Y003817D01*
X039568Y003779D01*
X039576Y003740D01*
X039580Y003700D01*
X039580Y003660D01*
X039576Y003620D01*
X039568Y003581D01*
X039556Y003543D01*
X039540Y003506D01*
X039521Y003471D01*
X039499Y003438D01*
X039473Y003408D01*
X039445Y003380D01*
X039413Y003355D01*
X039380Y003334D01*
X039345Y003315D01*
X039307Y003301D01*
X039269Y003290D01*
X039230Y003283D01*
X039190Y003280D01*
X039150Y003281D01*
X039111Y003286D01*
X039072Y003295D01*
X039034Y003308D01*
X038998Y003324D01*
X038963Y003344D01*
X038931Y003367D01*
X038901Y003394D01*
X038874Y003423D01*
X038850Y003455D01*
X038829Y003489D01*
X038811Y003525D01*
X038798Y003562D01*
X038788Y003601D01*
X038782Y003640D01*
X038780Y003680D01*
X032830Y003030D02*
X031530Y003030D01*
X031530Y004330D01*
X032830Y004330D01*
X032830Y003030D01*
X031880Y003680D02*
X031882Y003714D01*
X031888Y003748D01*
X031897Y003781D01*
X031911Y003812D01*
X031928Y003842D01*
X031948Y003870D01*
X031971Y003895D01*
X031997Y003918D01*
X032025Y003937D01*
X032055Y003953D01*
X032087Y003965D01*
X032120Y003974D01*
X032154Y003979D01*
X032189Y003980D01*
X032223Y003977D01*
X032256Y003970D01*
X032289Y003960D01*
X032320Y003945D01*
X032349Y003928D01*
X032376Y003907D01*
X032401Y003883D01*
X032423Y003856D01*
X032441Y003828D01*
X032456Y003797D01*
X032468Y003765D01*
X032476Y003731D01*
X032480Y003697D01*
X032480Y003663D01*
X032476Y003629D01*
X032468Y003595D01*
X032456Y003563D01*
X032441Y003532D01*
X032423Y003504D01*
X032401Y003477D01*
X032376Y003453D01*
X032349Y003432D01*
X032320Y003415D01*
X032289Y003400D01*
X032256Y003390D01*
X032223Y003383D01*
X032189Y003380D01*
X032154Y003381D01*
X032120Y003386D01*
X032087Y003395D01*
X032055Y003407D01*
X032025Y003423D01*
X031997Y003442D01*
X031971Y003465D01*
X031948Y003490D01*
X031928Y003518D01*
X031911Y003548D01*
X031897Y003579D01*
X031888Y003612D01*
X031882Y003646D01*
X031880Y003680D01*
X031780Y003680D02*
X031782Y003720D01*
X031788Y003759D01*
X031798Y003798D01*
X031811Y003835D01*
X031829Y003871D01*
X031850Y003905D01*
X031874Y003937D01*
X031901Y003966D01*
X031931Y003993D01*
X031963Y004016D01*
X031998Y004036D01*
X032034Y004052D01*
X032072Y004065D01*
X032111Y004074D01*
X032150Y004079D01*
X032190Y004080D01*
X032230Y004077D01*
X032269Y004070D01*
X032307Y004059D01*
X032345Y004045D01*
X032380Y004026D01*
X032413Y004005D01*
X032445Y003980D01*
X032473Y003952D01*
X032499Y003922D01*
X032521Y003889D01*
X032540Y003854D01*
X032556Y003817D01*
X032568Y003779D01*
X032576Y003740D01*
X032580Y003700D01*
X032580Y003660D01*
X032576Y003620D01*
X032568Y003581D01*
X032556Y003543D01*
X032540Y003506D01*
X032521Y003471D01*
X032499Y003438D01*
X032473Y003408D01*
X032445Y003380D01*
X032413Y003355D01*
X032380Y003334D01*
X032345Y003315D01*
X032307Y003301D01*
X032269Y003290D01*
X032230Y003283D01*
X032190Y003280D01*
X032150Y003281D01*
X032111Y003286D01*
X032072Y003295D01*
X032034Y003308D01*
X031998Y003324D01*
X031963Y003344D01*
X031931Y003367D01*
X031901Y003394D01*
X031874Y003423D01*
X031850Y003455D01*
X031829Y003489D01*
X031811Y003525D01*
X031798Y003562D01*
X031788Y003601D01*
X031782Y003640D01*
X031780Y003680D01*
X025830Y003030D02*
X024530Y003030D01*
X024530Y004330D01*
X025830Y004330D01*
X025830Y003030D01*
X024880Y003680D02*
X024882Y003714D01*
X024888Y003748D01*
X024897Y003781D01*
X024911Y003812D01*
X024928Y003842D01*
X024948Y003870D01*
X024971Y003895D01*
X024997Y003918D01*
X025025Y003937D01*
X025055Y003953D01*
X025087Y003965D01*
X025120Y003974D01*
X025154Y003979D01*
X025189Y003980D01*
X025223Y003977D01*
X025256Y003970D01*
X025289Y003960D01*
X025320Y003945D01*
X025349Y003928D01*
X025376Y003907D01*
X025401Y003883D01*
X025423Y003856D01*
X025441Y003828D01*
X025456Y003797D01*
X025468Y003765D01*
X025476Y003731D01*
X025480Y003697D01*
X025480Y003663D01*
X025476Y003629D01*
X025468Y003595D01*
X025456Y003563D01*
X025441Y003532D01*
X025423Y003504D01*
X025401Y003477D01*
X025376Y003453D01*
X025349Y003432D01*
X025320Y003415D01*
X025289Y003400D01*
X025256Y003390D01*
X025223Y003383D01*
X025189Y003380D01*
X025154Y003381D01*
X025120Y003386D01*
X025087Y003395D01*
X025055Y003407D01*
X025025Y003423D01*
X024997Y003442D01*
X024971Y003465D01*
X024948Y003490D01*
X024928Y003518D01*
X024911Y003548D01*
X024897Y003579D01*
X024888Y003612D01*
X024882Y003646D01*
X024880Y003680D01*
X024780Y003680D02*
X024782Y003720D01*
X024788Y003759D01*
X024798Y003798D01*
X024811Y003835D01*
X024829Y003871D01*
X024850Y003905D01*
X024874Y003937D01*
X024901Y003966D01*
X024931Y003993D01*
X024963Y004016D01*
X024998Y004036D01*
X025034Y004052D01*
X025072Y004065D01*
X025111Y004074D01*
X025150Y004079D01*
X025190Y004080D01*
X025230Y004077D01*
X025269Y004070D01*
X025307Y004059D01*
X025345Y004045D01*
X025380Y004026D01*
X025413Y004005D01*
X025445Y003980D01*
X025473Y003952D01*
X025499Y003922D01*
X025521Y003889D01*
X025540Y003854D01*
X025556Y003817D01*
X025568Y003779D01*
X025576Y003740D01*
X025580Y003700D01*
X025580Y003660D01*
X025576Y003620D01*
X025568Y003581D01*
X025556Y003543D01*
X025540Y003506D01*
X025521Y003471D01*
X025499Y003438D01*
X025473Y003408D01*
X025445Y003380D01*
X025413Y003355D01*
X025380Y003334D01*
X025345Y003315D01*
X025307Y003301D01*
X025269Y003290D01*
X025230Y003283D01*
X025190Y003280D01*
X025150Y003281D01*
X025111Y003286D01*
X025072Y003295D01*
X025034Y003308D01*
X024998Y003324D01*
X024963Y003344D01*
X024931Y003367D01*
X024901Y003394D01*
X024874Y003423D01*
X024850Y003455D01*
X024829Y003489D01*
X024811Y003525D01*
X024798Y003562D01*
X024788Y003601D01*
X024782Y003640D01*
X024780Y003680D01*
X018830Y003030D02*
X017530Y003030D01*
X017530Y004330D01*
X018830Y004330D01*
X018830Y003030D01*
X017880Y003680D02*
X017882Y003714D01*
X017888Y003748D01*
X017897Y003781D01*
X017911Y003812D01*
X017928Y003842D01*
X017948Y003870D01*
X017971Y003895D01*
X017997Y003918D01*
X018025Y003937D01*
X018055Y003953D01*
X018087Y003965D01*
X018120Y003974D01*
X018154Y003979D01*
X018189Y003980D01*
X018223Y003977D01*
X018256Y003970D01*
X018289Y003960D01*
X018320Y003945D01*
X018349Y003928D01*
X018376Y003907D01*
X018401Y003883D01*
X018423Y003856D01*
X018441Y003828D01*
X018456Y003797D01*
X018468Y003765D01*
X018476Y003731D01*
X018480Y003697D01*
X018480Y003663D01*
X018476Y003629D01*
X018468Y003595D01*
X018456Y003563D01*
X018441Y003532D01*
X018423Y003504D01*
X018401Y003477D01*
X018376Y003453D01*
X018349Y003432D01*
X018320Y003415D01*
X018289Y003400D01*
X018256Y003390D01*
X018223Y003383D01*
X018189Y003380D01*
X018154Y003381D01*
X018120Y003386D01*
X018087Y003395D01*
X018055Y003407D01*
X018025Y003423D01*
X017997Y003442D01*
X017971Y003465D01*
X017948Y003490D01*
X017928Y003518D01*
X017911Y003548D01*
X017897Y003579D01*
X017888Y003612D01*
X017882Y003646D01*
X017880Y003680D01*
X017780Y003680D02*
X017782Y003720D01*
X017788Y003759D01*
X017798Y003798D01*
X017811Y003835D01*
X017829Y003871D01*
X017850Y003905D01*
X017874Y003937D01*
X017901Y003966D01*
X017931Y003993D01*
X017963Y004016D01*
X017998Y004036D01*
X018034Y004052D01*
X018072Y004065D01*
X018111Y004074D01*
X018150Y004079D01*
X018190Y004080D01*
X018230Y004077D01*
X018269Y004070D01*
X018307Y004059D01*
X018345Y004045D01*
X018380Y004026D01*
X018413Y004005D01*
X018445Y003980D01*
X018473Y003952D01*
X018499Y003922D01*
X018521Y003889D01*
X018540Y003854D01*
X018556Y003817D01*
X018568Y003779D01*
X018576Y003740D01*
X018580Y003700D01*
X018580Y003660D01*
X018576Y003620D01*
X018568Y003581D01*
X018556Y003543D01*
X018540Y003506D01*
X018521Y003471D01*
X018499Y003438D01*
X018473Y003408D01*
X018445Y003380D01*
X018413Y003355D01*
X018380Y003334D01*
X018345Y003315D01*
X018307Y003301D01*
X018269Y003290D01*
X018230Y003283D01*
X018190Y003280D01*
X018150Y003281D01*
X018111Y003286D01*
X018072Y003295D01*
X018034Y003308D01*
X017998Y003324D01*
X017963Y003344D01*
X017931Y003367D01*
X017901Y003394D01*
X017874Y003423D01*
X017850Y003455D01*
X017829Y003489D01*
X017811Y003525D01*
X017798Y003562D01*
X017788Y003601D01*
X017782Y003640D01*
X017780Y003680D01*
X011830Y003030D02*
X010530Y003030D01*
X010530Y004330D01*
X011830Y004330D01*
X011830Y003030D01*
X010880Y003680D02*
X010882Y003714D01*
X010888Y003748D01*
X010897Y003781D01*
X010911Y003812D01*
X010928Y003842D01*
X010948Y003870D01*
X010971Y003895D01*
X010997Y003918D01*
X011025Y003937D01*
X011055Y003953D01*
X011087Y003965D01*
X011120Y003974D01*
X011154Y003979D01*
X011189Y003980D01*
X011223Y003977D01*
X011256Y003970D01*
X011289Y003960D01*
X011320Y003945D01*
X011349Y003928D01*
X011376Y003907D01*
X011401Y003883D01*
X011423Y003856D01*
X011441Y003828D01*
X011456Y003797D01*
X011468Y003765D01*
X011476Y003731D01*
X011480Y003697D01*
X011480Y003663D01*
X011476Y003629D01*
X011468Y003595D01*
X011456Y003563D01*
X011441Y003532D01*
X011423Y003504D01*
X011401Y003477D01*
X011376Y003453D01*
X011349Y003432D01*
X011320Y003415D01*
X011289Y003400D01*
X011256Y003390D01*
X011223Y003383D01*
X011189Y003380D01*
X011154Y003381D01*
X011120Y003386D01*
X011087Y003395D01*
X011055Y003407D01*
X011025Y003423D01*
X010997Y003442D01*
X010971Y003465D01*
X010948Y003490D01*
X010928Y003518D01*
X010911Y003548D01*
X010897Y003579D01*
X010888Y003612D01*
X010882Y003646D01*
X010880Y003680D01*
X010780Y003680D02*
X010782Y003720D01*
X010788Y003759D01*
X010798Y003798D01*
X010811Y003835D01*
X010829Y003871D01*
X010850Y003905D01*
X010874Y003937D01*
X010901Y003966D01*
X010931Y003993D01*
X010963Y004016D01*
X010998Y004036D01*
X011034Y004052D01*
X011072Y004065D01*
X011111Y004074D01*
X011150Y004079D01*
X011190Y004080D01*
X011230Y004077D01*
X011269Y004070D01*
X011307Y004059D01*
X011345Y004045D01*
X011380Y004026D01*
X011413Y004005D01*
X011445Y003980D01*
X011473Y003952D01*
X011499Y003922D01*
X011521Y003889D01*
X011540Y003854D01*
X011556Y003817D01*
X011568Y003779D01*
X011576Y003740D01*
X011580Y003700D01*
X011580Y003660D01*
X011576Y003620D01*
X011568Y003581D01*
X011556Y003543D01*
X011540Y003506D01*
X011521Y003471D01*
X011499Y003438D01*
X011473Y003408D01*
X011445Y003380D01*
X011413Y003355D01*
X011380Y003334D01*
X011345Y003315D01*
X011307Y003301D01*
X011269Y003290D01*
X011230Y003283D01*
X011190Y003280D01*
X011150Y003281D01*
X011111Y003286D01*
X011072Y003295D01*
X011034Y003308D01*
X010998Y003324D01*
X010963Y003344D01*
X010931Y003367D01*
X010901Y003394D01*
X010874Y003423D01*
X010850Y003455D01*
X010829Y003489D01*
X010811Y003525D01*
X010798Y003562D01*
X010788Y003601D01*
X010782Y003640D01*
X010780Y003680D01*
X004830Y003030D02*
X003530Y003030D01*
X003530Y004330D01*
X004830Y004330D01*
X004830Y003030D01*
X003880Y003680D02*
X003882Y003714D01*
X003888Y003748D01*
X003897Y003781D01*
X003911Y003812D01*
X003928Y003842D01*
X003948Y003870D01*
X003971Y003895D01*
X003997Y003918D01*
X004025Y003937D01*
X004055Y003953D01*
X004087Y003965D01*
X004120Y003974D01*
X004154Y003979D01*
X004189Y003980D01*
X004223Y003977D01*
X004256Y003970D01*
X004289Y003960D01*
X004320Y003945D01*
X004349Y003928D01*
X004376Y003907D01*
X004401Y003883D01*
X004423Y003856D01*
X004441Y003828D01*
X004456Y003797D01*
X004468Y003765D01*
X004476Y003731D01*
X004480Y003697D01*
X004480Y003663D01*
X004476Y003629D01*
X004468Y003595D01*
X004456Y003563D01*
X004441Y003532D01*
X004423Y003504D01*
X004401Y003477D01*
X004376Y003453D01*
X004349Y003432D01*
X004320Y003415D01*
X004289Y003400D01*
X004256Y003390D01*
X004223Y003383D01*
X004189Y003380D01*
X004154Y003381D01*
X004120Y003386D01*
X004087Y003395D01*
X004055Y003407D01*
X004025Y003423D01*
X003997Y003442D01*
X003971Y003465D01*
X003948Y003490D01*
X003928Y003518D01*
X003911Y003548D01*
X003897Y003579D01*
X003888Y003612D01*
X003882Y003646D01*
X003880Y003680D01*
X003780Y003680D02*
X003782Y003720D01*
X003788Y003759D01*
X003798Y003798D01*
X003811Y003835D01*
X003829Y003871D01*
X003850Y003905D01*
X003874Y003937D01*
X003901Y003966D01*
X003931Y003993D01*
X003963Y004016D01*
X003998Y004036D01*
X004034Y004052D01*
X004072Y004065D01*
X004111Y004074D01*
X004150Y004079D01*
X004190Y004080D01*
X004230Y004077D01*
X004269Y004070D01*
X004307Y004059D01*
X004345Y004045D01*
X004380Y004026D01*
X004413Y004005D01*
X004445Y003980D01*
X004473Y003952D01*
X004499Y003922D01*
X004521Y003889D01*
X004540Y003854D01*
X004556Y003817D01*
X004568Y003779D01*
X004576Y003740D01*
X004580Y003700D01*
X004580Y003660D01*
X004576Y003620D01*
X004568Y003581D01*
X004556Y003543D01*
X004540Y003506D01*
X004521Y003471D01*
X004499Y003438D01*
X004473Y003408D01*
X004445Y003380D01*
X004413Y003355D01*
X004380Y003334D01*
X004345Y003315D01*
X004307Y003301D01*
X004269Y003290D01*
X004230Y003283D01*
X004190Y003280D01*
X004150Y003281D01*
X004111Y003286D01*
X004072Y003295D01*
X004034Y003308D01*
X003998Y003324D01*
X003963Y003344D01*
X003931Y003367D01*
X003901Y003394D01*
X003874Y003423D01*
X003850Y003455D01*
X003829Y003489D01*
X003811Y003525D01*
X003798Y003562D01*
X003788Y003601D01*
X003782Y003640D01*
X003780Y003680D01*
X003530Y009030D02*
X003530Y010330D01*
X004830Y010330D01*
X004830Y009030D01*
X003530Y009030D01*
X003880Y009680D02*
X003882Y009714D01*
X003888Y009748D01*
X003897Y009781D01*
X003911Y009812D01*
X003928Y009842D01*
X003948Y009870D01*
X003971Y009895D01*
X003997Y009918D01*
X004025Y009937D01*
X004055Y009953D01*
X004087Y009965D01*
X004120Y009974D01*
X004154Y009979D01*
X004189Y009980D01*
X004223Y009977D01*
X004256Y009970D01*
X004289Y009960D01*
X004320Y009945D01*
X004349Y009928D01*
X004376Y009907D01*
X004401Y009883D01*
X004423Y009856D01*
X004441Y009828D01*
X004456Y009797D01*
X004468Y009765D01*
X004476Y009731D01*
X004480Y009697D01*
X004480Y009663D01*
X004476Y009629D01*
X004468Y009595D01*
X004456Y009563D01*
X004441Y009532D01*
X004423Y009504D01*
X004401Y009477D01*
X004376Y009453D01*
X004349Y009432D01*
X004320Y009415D01*
X004289Y009400D01*
X004256Y009390D01*
X004223Y009383D01*
X004189Y009380D01*
X004154Y009381D01*
X004120Y009386D01*
X004087Y009395D01*
X004055Y009407D01*
X004025Y009423D01*
X003997Y009442D01*
X003971Y009465D01*
X003948Y009490D01*
X003928Y009518D01*
X003911Y009548D01*
X003897Y009579D01*
X003888Y009612D01*
X003882Y009646D01*
X003880Y009680D01*
X003780Y009680D02*
X003782Y009720D01*
X003788Y009759D01*
X003798Y009798D01*
X003811Y009835D01*
X003829Y009871D01*
X003850Y009905D01*
X003874Y009937D01*
X003901Y009966D01*
X003931Y009993D01*
X003963Y010016D01*
X003998Y010036D01*
X004034Y010052D01*
X004072Y010065D01*
X004111Y010074D01*
X004150Y010079D01*
X004190Y010080D01*
X004230Y010077D01*
X004269Y010070D01*
X004307Y010059D01*
X004345Y010045D01*
X004380Y010026D01*
X004413Y010005D01*
X004445Y009980D01*
X004473Y009952D01*
X004499Y009922D01*
X004521Y009889D01*
X004540Y009854D01*
X004556Y009817D01*
X004568Y009779D01*
X004576Y009740D01*
X004580Y009700D01*
X004580Y009660D01*
X004576Y009620D01*
X004568Y009581D01*
X004556Y009543D01*
X004540Y009506D01*
X004521Y009471D01*
X004499Y009438D01*
X004473Y009408D01*
X004445Y009380D01*
X004413Y009355D01*
X004380Y009334D01*
X004345Y009315D01*
X004307Y009301D01*
X004269Y009290D01*
X004230Y009283D01*
X004190Y009280D01*
X004150Y009281D01*
X004111Y009286D01*
X004072Y009295D01*
X004034Y009308D01*
X003998Y009324D01*
X003963Y009344D01*
X003931Y009367D01*
X003901Y009394D01*
X003874Y009423D01*
X003850Y009455D01*
X003829Y009489D01*
X003811Y009525D01*
X003798Y009562D01*
X003788Y009601D01*
X003782Y009640D01*
X003780Y009680D01*
X010530Y010330D02*
X010530Y009030D01*
X011830Y009030D01*
X011830Y010330D01*
X010530Y010330D01*
X010880Y009680D02*
X010882Y009714D01*
X010888Y009748D01*
X010897Y009781D01*
X010911Y009812D01*
X010928Y009842D01*
X010948Y009870D01*
X010971Y009895D01*
X010997Y009918D01*
X011025Y009937D01*
X011055Y009953D01*
X011087Y009965D01*
X011120Y009974D01*
X011154Y009979D01*
X011189Y009980D01*
X011223Y009977D01*
X011256Y009970D01*
X011289Y009960D01*
X011320Y009945D01*
X011349Y009928D01*
X011376Y009907D01*
X011401Y009883D01*
X011423Y009856D01*
X011441Y009828D01*
X011456Y009797D01*
X011468Y009765D01*
X011476Y009731D01*
X011480Y009697D01*
X011480Y009663D01*
X011476Y009629D01*
X011468Y009595D01*
X011456Y009563D01*
X011441Y009532D01*
X011423Y009504D01*
X011401Y009477D01*
X011376Y009453D01*
X011349Y009432D01*
X011320Y009415D01*
X011289Y009400D01*
X011256Y009390D01*
X011223Y009383D01*
X011189Y009380D01*
X011154Y009381D01*
X011120Y009386D01*
X011087Y009395D01*
X011055Y009407D01*
X011025Y009423D01*
X010997Y009442D01*
X010971Y009465D01*
X010948Y009490D01*
X010928Y009518D01*
X010911Y009548D01*
X010897Y009579D01*
X010888Y009612D01*
X010882Y009646D01*
X010880Y009680D01*
X010780Y009680D02*
X010782Y009720D01*
X010788Y009759D01*
X010798Y009798D01*
X010811Y009835D01*
X010829Y009871D01*
X010850Y009905D01*
X010874Y009937D01*
X010901Y009966D01*
X010931Y009993D01*
X010963Y010016D01*
X010998Y010036D01*
X011034Y010052D01*
X011072Y010065D01*
X011111Y010074D01*
X011150Y010079D01*
X011190Y010080D01*
X011230Y010077D01*
X011269Y010070D01*
X011307Y010059D01*
X011345Y010045D01*
X011380Y010026D01*
X011413Y010005D01*
X011445Y009980D01*
X011473Y009952D01*
X011499Y009922D01*
X011521Y009889D01*
X011540Y009854D01*
X011556Y009817D01*
X011568Y009779D01*
X011576Y009740D01*
X011580Y009700D01*
X011580Y009660D01*
X011576Y009620D01*
X011568Y009581D01*
X011556Y009543D01*
X011540Y009506D01*
X011521Y009471D01*
X011499Y009438D01*
X011473Y009408D01*
X011445Y009380D01*
X011413Y009355D01*
X011380Y009334D01*
X011345Y009315D01*
X011307Y009301D01*
X011269Y009290D01*
X011230Y009283D01*
X011190Y009280D01*
X011150Y009281D01*
X011111Y009286D01*
X011072Y009295D01*
X011034Y009308D01*
X010998Y009324D01*
X010963Y009344D01*
X010931Y009367D01*
X010901Y009394D01*
X010874Y009423D01*
X010850Y009455D01*
X010829Y009489D01*
X010811Y009525D01*
X010798Y009562D01*
X010788Y009601D01*
X010782Y009640D01*
X010780Y009680D01*
X017530Y010330D02*
X017530Y009030D01*
X018830Y009030D01*
X018830Y010330D01*
X017530Y010330D01*
X017880Y009680D02*
X017882Y009714D01*
X017888Y009748D01*
X017897Y009781D01*
X017911Y009812D01*
X017928Y009842D01*
X017948Y009870D01*
X017971Y009895D01*
X017997Y009918D01*
X018025Y009937D01*
X018055Y009953D01*
X018087Y009965D01*
X018120Y009974D01*
X018154Y009979D01*
X018189Y009980D01*
X018223Y009977D01*
X018256Y009970D01*
X018289Y009960D01*
X018320Y009945D01*
X018349Y009928D01*
X018376Y009907D01*
X018401Y009883D01*
X018423Y009856D01*
X018441Y009828D01*
X018456Y009797D01*
X018468Y009765D01*
X018476Y009731D01*
X018480Y009697D01*
X018480Y009663D01*
X018476Y009629D01*
X018468Y009595D01*
X018456Y009563D01*
X018441Y009532D01*
X018423Y009504D01*
X018401Y009477D01*
X018376Y009453D01*
X018349Y009432D01*
X018320Y009415D01*
X018289Y009400D01*
X018256Y009390D01*
X018223Y009383D01*
X018189Y009380D01*
X018154Y009381D01*
X018120Y009386D01*
X018087Y009395D01*
X018055Y009407D01*
X018025Y009423D01*
X017997Y009442D01*
X017971Y009465D01*
X017948Y009490D01*
X017928Y009518D01*
X017911Y009548D01*
X017897Y009579D01*
X017888Y009612D01*
X017882Y009646D01*
X017880Y009680D01*
X017780Y009680D02*
X017782Y009720D01*
X017788Y009759D01*
X017798Y009798D01*
X017811Y009835D01*
X017829Y009871D01*
X017850Y009905D01*
X017874Y009937D01*
X017901Y009966D01*
X017931Y009993D01*
X017963Y010016D01*
X017998Y010036D01*
X018034Y010052D01*
X018072Y010065D01*
X018111Y010074D01*
X018150Y010079D01*
X018190Y010080D01*
X018230Y010077D01*
X018269Y010070D01*
X018307Y010059D01*
X018345Y010045D01*
X018380Y010026D01*
X018413Y010005D01*
X018445Y009980D01*
X018473Y009952D01*
X018499Y009922D01*
X018521Y009889D01*
X018540Y009854D01*
X018556Y009817D01*
X018568Y009779D01*
X018576Y009740D01*
X018580Y009700D01*
X018580Y009660D01*
X018576Y009620D01*
X018568Y009581D01*
X018556Y009543D01*
X018540Y009506D01*
X018521Y009471D01*
X018499Y009438D01*
X018473Y009408D01*
X018445Y009380D01*
X018413Y009355D01*
X018380Y009334D01*
X018345Y009315D01*
X018307Y009301D01*
X018269Y009290D01*
X018230Y009283D01*
X018190Y009280D01*
X018150Y009281D01*
X018111Y009286D01*
X018072Y009295D01*
X018034Y009308D01*
X017998Y009324D01*
X017963Y009344D01*
X017931Y009367D01*
X017901Y009394D01*
X017874Y009423D01*
X017850Y009455D01*
X017829Y009489D01*
X017811Y009525D01*
X017798Y009562D01*
X017788Y009601D01*
X017782Y009640D01*
X017780Y009680D01*
X024530Y010330D02*
X024530Y009030D01*
X025830Y009030D01*
X025830Y010330D01*
X024530Y010330D01*
X024880Y009680D02*
X024882Y009714D01*
X024888Y009748D01*
X024897Y009781D01*
X024911Y009812D01*
X024928Y009842D01*
X024948Y009870D01*
X024971Y009895D01*
X024997Y009918D01*
X025025Y009937D01*
X025055Y009953D01*
X025087Y009965D01*
X025120Y009974D01*
X025154Y009979D01*
X025189Y009980D01*
X025223Y009977D01*
X025256Y009970D01*
X025289Y009960D01*
X025320Y009945D01*
X025349Y009928D01*
X025376Y009907D01*
X025401Y009883D01*
X025423Y009856D01*
X025441Y009828D01*
X025456Y009797D01*
X025468Y009765D01*
X025476Y009731D01*
X025480Y009697D01*
X025480Y009663D01*
X025476Y009629D01*
X025468Y009595D01*
X025456Y009563D01*
X025441Y009532D01*
X025423Y009504D01*
X025401Y009477D01*
X025376Y009453D01*
X025349Y009432D01*
X025320Y009415D01*
X025289Y009400D01*
X025256Y009390D01*
X025223Y009383D01*
X025189Y009380D01*
X025154Y009381D01*
X025120Y009386D01*
X025087Y009395D01*
X025055Y009407D01*
X025025Y009423D01*
X024997Y009442D01*
X024971Y009465D01*
X024948Y009490D01*
X024928Y009518D01*
X024911Y009548D01*
X024897Y009579D01*
X024888Y009612D01*
X024882Y009646D01*
X024880Y009680D01*
X024780Y009680D02*
X024782Y009720D01*
X024788Y009759D01*
X024798Y009798D01*
X024811Y009835D01*
X024829Y009871D01*
X024850Y009905D01*
X024874Y009937D01*
X024901Y009966D01*
X024931Y009993D01*
X024963Y010016D01*
X024998Y010036D01*
X025034Y010052D01*
X025072Y010065D01*
X025111Y010074D01*
X025150Y010079D01*
X025190Y010080D01*
X025230Y010077D01*
X025269Y010070D01*
X025307Y010059D01*
X025345Y010045D01*
X025380Y010026D01*
X025413Y010005D01*
X025445Y009980D01*
X025473Y009952D01*
X025499Y009922D01*
X025521Y009889D01*
X025540Y009854D01*
X025556Y009817D01*
X025568Y009779D01*
X025576Y009740D01*
X025580Y009700D01*
X025580Y009660D01*
X025576Y009620D01*
X025568Y009581D01*
X025556Y009543D01*
X025540Y009506D01*
X025521Y009471D01*
X025499Y009438D01*
X025473Y009408D01*
X025445Y009380D01*
X025413Y009355D01*
X025380Y009334D01*
X025345Y009315D01*
X025307Y009301D01*
X025269Y009290D01*
X025230Y009283D01*
X025190Y009280D01*
X025150Y009281D01*
X025111Y009286D01*
X025072Y009295D01*
X025034Y009308D01*
X024998Y009324D01*
X024963Y009344D01*
X024931Y009367D01*
X024901Y009394D01*
X024874Y009423D01*
X024850Y009455D01*
X024829Y009489D01*
X024811Y009525D01*
X024798Y009562D01*
X024788Y009601D01*
X024782Y009640D01*
X024780Y009680D01*
X031530Y010330D02*
X031530Y009030D01*
X032830Y009030D01*
X032830Y010330D01*
X031530Y010330D01*
X031880Y009680D02*
X031882Y009714D01*
X031888Y009748D01*
X031897Y009781D01*
X031911Y009812D01*
X031928Y009842D01*
X031948Y009870D01*
X031971Y009895D01*
X031997Y009918D01*
X032025Y009937D01*
X032055Y009953D01*
X032087Y009965D01*
X032120Y009974D01*
X032154Y009979D01*
X032189Y009980D01*
X032223Y009977D01*
X032256Y009970D01*
X032289Y009960D01*
X032320Y009945D01*
X032349Y009928D01*
X032376Y009907D01*
X032401Y009883D01*
X032423Y009856D01*
X032441Y009828D01*
X032456Y009797D01*
X032468Y009765D01*
X032476Y009731D01*
X032480Y009697D01*
X032480Y009663D01*
X032476Y009629D01*
X032468Y009595D01*
X032456Y009563D01*
X032441Y009532D01*
X032423Y009504D01*
X032401Y009477D01*
X032376Y009453D01*
X032349Y009432D01*
X032320Y009415D01*
X032289Y009400D01*
X032256Y009390D01*
X032223Y009383D01*
X032189Y009380D01*
X032154Y009381D01*
X032120Y009386D01*
X032087Y009395D01*
X032055Y009407D01*
X032025Y009423D01*
X031997Y009442D01*
X031971Y009465D01*
X031948Y009490D01*
X031928Y009518D01*
X031911Y009548D01*
X031897Y009579D01*
X031888Y009612D01*
X031882Y009646D01*
X031880Y009680D01*
X031780Y009680D02*
X031782Y009720D01*
X031788Y009759D01*
X031798Y009798D01*
X031811Y009835D01*
X031829Y009871D01*
X031850Y009905D01*
X031874Y009937D01*
X031901Y009966D01*
X031931Y009993D01*
X031963Y010016D01*
X031998Y010036D01*
X032034Y010052D01*
X032072Y010065D01*
X032111Y010074D01*
X032150Y010079D01*
X032190Y010080D01*
X032230Y010077D01*
X032269Y010070D01*
X032307Y010059D01*
X032345Y010045D01*
X032380Y010026D01*
X032413Y010005D01*
X032445Y009980D01*
X032473Y009952D01*
X032499Y009922D01*
X032521Y009889D01*
X032540Y009854D01*
X032556Y009817D01*
X032568Y009779D01*
X032576Y009740D01*
X032580Y009700D01*
X032580Y009660D01*
X032576Y009620D01*
X032568Y009581D01*
X032556Y009543D01*
X032540Y009506D01*
X032521Y009471D01*
X032499Y009438D01*
X032473Y009408D01*
X032445Y009380D01*
X032413Y009355D01*
X032380Y009334D01*
X032345Y009315D01*
X032307Y009301D01*
X032269Y009290D01*
X032230Y009283D01*
X032190Y009280D01*
X032150Y009281D01*
X032111Y009286D01*
X032072Y009295D01*
X032034Y009308D01*
X031998Y009324D01*
X031963Y009344D01*
X031931Y009367D01*
X031901Y009394D01*
X031874Y009423D01*
X031850Y009455D01*
X031829Y009489D01*
X031811Y009525D01*
X031798Y009562D01*
X031788Y009601D01*
X031782Y009640D01*
X031780Y009680D01*
X038530Y010330D02*
X038530Y009030D01*
X039830Y009030D01*
X039830Y010330D01*
X038530Y010330D01*
X038880Y009680D02*
X038882Y009714D01*
X038888Y009748D01*
X038897Y009781D01*
X038911Y009812D01*
X038928Y009842D01*
X038948Y009870D01*
X038971Y009895D01*
X038997Y009918D01*
X039025Y009937D01*
X039055Y009953D01*
X039087Y009965D01*
X039120Y009974D01*
X039154Y009979D01*
X039189Y009980D01*
X039223Y009977D01*
X039256Y009970D01*
X039289Y009960D01*
X039320Y009945D01*
X039349Y009928D01*
X039376Y009907D01*
X039401Y009883D01*
X039423Y009856D01*
X039441Y009828D01*
X039456Y009797D01*
X039468Y009765D01*
X039476Y009731D01*
X039480Y009697D01*
X039480Y009663D01*
X039476Y009629D01*
X039468Y009595D01*
X039456Y009563D01*
X039441Y009532D01*
X039423Y009504D01*
X039401Y009477D01*
X039376Y009453D01*
X039349Y009432D01*
X039320Y009415D01*
X039289Y009400D01*
X039256Y009390D01*
X039223Y009383D01*
X039189Y009380D01*
X039154Y009381D01*
X039120Y009386D01*
X039087Y009395D01*
X039055Y009407D01*
X039025Y009423D01*
X038997Y009442D01*
X038971Y009465D01*
X038948Y009490D01*
X038928Y009518D01*
X038911Y009548D01*
X038897Y009579D01*
X038888Y009612D01*
X038882Y009646D01*
X038880Y009680D01*
X038780Y009680D02*
X038782Y009720D01*
X038788Y009759D01*
X038798Y009798D01*
X038811Y009835D01*
X038829Y009871D01*
X038850Y009905D01*
X038874Y009937D01*
X038901Y009966D01*
X038931Y009993D01*
X038963Y010016D01*
X038998Y010036D01*
X039034Y010052D01*
X039072Y010065D01*
X039111Y010074D01*
X039150Y010079D01*
X039190Y010080D01*
X039230Y010077D01*
X039269Y010070D01*
X039307Y010059D01*
X039345Y010045D01*
X039380Y010026D01*
X039413Y010005D01*
X039445Y009980D01*
X039473Y009952D01*
X039499Y009922D01*
X039521Y009889D01*
X039540Y009854D01*
X039556Y009817D01*
X039568Y009779D01*
X039576Y009740D01*
X039580Y009700D01*
X039580Y009660D01*
X039576Y009620D01*
X039568Y009581D01*
X039556Y009543D01*
X039540Y009506D01*
X039521Y009471D01*
X039499Y009438D01*
X039473Y009408D01*
X039445Y009380D01*
X039413Y009355D01*
X039380Y009334D01*
X039345Y009315D01*
X039307Y009301D01*
X039269Y009290D01*
X039230Y009283D01*
X039190Y009280D01*
X039150Y009281D01*
X039111Y009286D01*
X039072Y009295D01*
X039034Y009308D01*
X038998Y009324D01*
X038963Y009344D01*
X038931Y009367D01*
X038901Y009394D01*
X038874Y009423D01*
X038850Y009455D01*
X038829Y009489D01*
X038811Y009525D01*
X038798Y009562D01*
X038788Y009601D01*
X038782Y009640D01*
X038780Y009680D01*
D14*
X037380Y008305D02*
X037230Y008305D01*
X037155Y008230D01*
X037305Y008080D02*
X037380Y008080D01*
X037455Y008005D01*
X037455Y007930D01*
X037380Y007855D01*
X037230Y007855D01*
X037155Y007930D01*
X037380Y008080D02*
X037455Y008155D01*
X037455Y008230D01*
X037380Y008305D01*
X034105Y008080D02*
X033805Y008080D01*
X034030Y008305D01*
X034030Y007855D01*
X030455Y007930D02*
X030380Y007855D01*
X030230Y007855D01*
X030155Y007930D01*
X030305Y008080D02*
X030380Y008080D01*
X030455Y008005D01*
X030455Y007930D01*
X030380Y008080D02*
X030455Y008155D01*
X030455Y008230D01*
X030380Y008305D01*
X030230Y008305D01*
X030155Y008230D01*
X027105Y008080D02*
X026805Y008080D01*
X027030Y008305D01*
X027030Y007855D01*
X023455Y007930D02*
X023380Y007855D01*
X023230Y007855D01*
X023155Y007930D01*
X023305Y008080D02*
X023380Y008080D01*
X023455Y008005D01*
X023455Y007930D01*
X023380Y008080D02*
X023455Y008155D01*
X023455Y008230D01*
X023380Y008305D01*
X023230Y008305D01*
X023155Y008230D01*
X020105Y008080D02*
X019805Y008080D01*
X020030Y008305D01*
X020030Y007855D01*
X016455Y007930D02*
X016380Y007855D01*
X016230Y007855D01*
X016155Y007930D01*
X016305Y008080D02*
X016380Y008080D01*
X016455Y008005D01*
X016455Y007930D01*
X016380Y008080D02*
X016455Y008155D01*
X016455Y008230D01*
X016380Y008305D01*
X016230Y008305D01*
X016155Y008230D01*
X013105Y008080D02*
X012805Y008080D01*
X013030Y008305D01*
X013030Y007855D01*
X009455Y007930D02*
X009380Y007855D01*
X009230Y007855D01*
X009155Y007930D01*
X009305Y008080D02*
X009380Y008080D01*
X009455Y008005D01*
X009455Y007930D01*
X009380Y008080D02*
X009455Y008155D01*
X009455Y008230D01*
X009380Y008305D01*
X009230Y008305D01*
X009155Y008230D01*
X006105Y008080D02*
X005805Y008080D01*
X006030Y008305D01*
X006030Y007855D01*
X002455Y007930D02*
X002380Y007855D01*
X002230Y007855D01*
X002155Y007930D01*
X002305Y008080D02*
X002380Y008080D01*
X002455Y008005D01*
X002455Y007930D01*
X002380Y008080D02*
X002455Y008155D01*
X002455Y008230D01*
X002380Y008305D01*
X002230Y008305D01*
X002155Y008230D01*
X002155Y011005D02*
X002455Y011005D01*
X002305Y011005D02*
X002305Y011455D01*
X002155Y011305D01*
X005755Y011380D02*
X005830Y011455D01*
X005980Y011455D01*
X006055Y011380D01*
X006055Y011305D01*
X005755Y011005D01*
X006055Y011005D01*
X009155Y011005D02*
X009455Y011005D01*
X009305Y011005D02*
X009305Y011455D01*
X009155Y011305D01*
X012755Y011380D02*
X012830Y011455D01*
X012980Y011455D01*
X013055Y011380D01*
X013055Y011305D01*
X012755Y011005D01*
X013055Y011005D01*
X016155Y011005D02*
X016455Y011005D01*
X016305Y011005D02*
X016305Y011455D01*
X016155Y011305D01*
X019755Y011380D02*
X019830Y011455D01*
X019980Y011455D01*
X020055Y011380D01*
X020055Y011305D01*
X019755Y011005D01*
X020055Y011005D01*
X023155Y011005D02*
X023455Y011005D01*
X023305Y011005D02*
X023305Y011455D01*
X023155Y011305D01*
X026755Y011380D02*
X026830Y011455D01*
X026980Y011455D01*
X027055Y011380D01*
X027055Y011305D01*
X026755Y011005D01*
X027055Y011005D01*
X030155Y011005D02*
X030455Y011005D01*
X030305Y011005D02*
X030305Y011455D01*
X030155Y011305D01*
X033755Y011380D02*
X033830Y011455D01*
X033980Y011455D01*
X034055Y011380D01*
X034055Y011305D01*
X033755Y011005D01*
X034055Y011005D01*
X037155Y011005D02*
X037455Y011005D01*
X037305Y011005D02*
X037305Y011455D01*
X037155Y011305D01*
X040755Y011380D02*
X040830Y011455D01*
X040980Y011455D01*
X041055Y011380D01*
X041055Y011305D01*
X040755Y011005D01*
X041055Y011005D01*
X041030Y008305D02*
X040805Y008080D01*
X041105Y008080D01*
X041030Y007855D02*
X041030Y008305D01*
X040980Y005455D02*
X040830Y005455D01*
X040755Y005380D01*
X040980Y005455D02*
X041055Y005380D01*
X041055Y005305D01*
X040755Y005005D01*
X041055Y005005D01*
X037455Y005005D02*
X037155Y005005D01*
X037305Y005005D02*
X037305Y005455D01*
X037155Y005305D01*
X034055Y005305D02*
X034055Y005380D01*
X033980Y005455D01*
X033830Y005455D01*
X033755Y005380D01*
X034055Y005305D02*
X033755Y005005D01*
X034055Y005005D01*
X030455Y005005D02*
X030155Y005005D01*
X030305Y005005D02*
X030305Y005455D01*
X030155Y005305D01*
X027055Y005305D02*
X027055Y005380D01*
X026980Y005455D01*
X026830Y005455D01*
X026755Y005380D01*
X027055Y005305D02*
X026755Y005005D01*
X027055Y005005D01*
X023455Y005005D02*
X023155Y005005D01*
X023305Y005005D02*
X023305Y005455D01*
X023155Y005305D01*
X020055Y005305D02*
X019755Y005005D01*
X020055Y005005D01*
X020055Y005305D02*
X020055Y005380D01*
X019980Y005455D01*
X019830Y005455D01*
X019755Y005380D01*
X016455Y005005D02*
X016155Y005005D01*
X016305Y005005D02*
X016305Y005455D01*
X016155Y005305D01*
X013055Y005305D02*
X012755Y005005D01*
X013055Y005005D01*
X013055Y005305D02*
X013055Y005380D01*
X012980Y005455D01*
X012830Y005455D01*
X012755Y005380D01*
X009455Y005005D02*
X009155Y005005D01*
X009305Y005005D02*
X009305Y005455D01*
X009155Y005305D01*
X006055Y005305D02*
X005755Y005005D01*
X006055Y005005D01*
X006055Y005305D02*
X006055Y005380D01*
X005980Y005455D01*
X005830Y005455D01*
X005755Y005380D01*
X002455Y005005D02*
X002155Y005005D01*
X002305Y005005D02*
X002305Y005455D01*
X002155Y005305D01*
X002230Y002305D02*
X002380Y002305D01*
X002455Y002230D01*
X002455Y002155D01*
X002380Y002080D01*
X002455Y002005D01*
X002455Y001930D01*
X002380Y001855D01*
X002230Y001855D01*
X002155Y001930D01*
X002305Y002080D02*
X002380Y002080D01*
X002155Y002230D02*
X002230Y002305D01*
X005805Y002080D02*
X006105Y002080D01*
X006030Y001855D02*
X006030Y002305D01*
X005805Y002080D01*
X009155Y001930D02*
X009230Y001855D01*
X009380Y001855D01*
X009455Y001930D01*
X009455Y002005D01*
X009380Y002080D01*
X009305Y002080D01*
X009380Y002080D02*
X009455Y002155D01*
X009455Y002230D01*
X009380Y002305D01*
X009230Y002305D01*
X009155Y002230D01*
X012805Y002080D02*
X013105Y002080D01*
X013030Y001855D02*
X013030Y002305D01*
X012805Y002080D01*
X016155Y001930D02*
X016230Y001855D01*
X016380Y001855D01*
X016455Y001930D01*
X016455Y002005D01*
X016380Y002080D01*
X016305Y002080D01*
X016380Y002080D02*
X016455Y002155D01*
X016455Y002230D01*
X016380Y002305D01*
X016230Y002305D01*
X016155Y002230D01*
X019805Y002080D02*
X020105Y002080D01*
X020030Y001855D02*
X020030Y002305D01*
X019805Y002080D01*
X023155Y001930D02*
X023230Y001855D01*
X023380Y001855D01*
X023455Y001930D01*
X023455Y002005D01*
X023380Y002080D01*
X023305Y002080D01*
X023380Y002080D02*
X023455Y002155D01*
X023455Y002230D01*
X023380Y002305D01*
X023230Y002305D01*
X023155Y002230D01*
X026805Y002080D02*
X027105Y002080D01*
X027030Y001855D02*
X027030Y002305D01*
X026805Y002080D01*
X030155Y001930D02*
X030230Y001855D01*
X030380Y001855D01*
X030455Y001930D01*
X030455Y002005D01*
X030380Y002080D01*
X030305Y002080D01*
X030380Y002080D02*
X030455Y002155D01*
X030455Y002230D01*
X030380Y002305D01*
X030230Y002305D01*
X030155Y002230D01*
X033805Y002080D02*
X034105Y002080D01*
X034030Y001855D02*
X034030Y002305D01*
X033805Y002080D01*
X037155Y001930D02*
X037230Y001855D01*
X037380Y001855D01*
X037455Y001930D01*
X037455Y002005D01*
X037380Y002080D01*
X037305Y002080D01*
X037380Y002080D02*
X037455Y002155D01*
X037455Y002230D01*
X037380Y002305D01*
X037230Y002305D01*
X037155Y002230D01*
X040805Y002080D02*
X041105Y002080D01*
X041030Y001855D02*
X041030Y002305D01*
X040805Y002080D01*
X039973Y017015D02*
X039746Y017015D01*
X039859Y017015D02*
X039859Y017355D01*
X039746Y017242D01*
X036045Y018030D02*
X035970Y017955D01*
X035820Y017955D01*
X035745Y018030D01*
X035586Y017955D02*
X035361Y018105D01*
X035586Y018255D01*
X035745Y018330D02*
X035820Y018405D01*
X035970Y018405D01*
X036045Y018330D01*
X036045Y018255D01*
X035970Y018180D01*
X036045Y018105D01*
X036045Y018030D01*
X035970Y018180D02*
X035895Y018180D01*
X035361Y017955D02*
X035361Y018405D01*
X035201Y018330D02*
X035126Y018405D01*
X034976Y018405D01*
X034901Y018330D01*
X035051Y018180D02*
X035126Y018180D01*
X035201Y018105D01*
X035201Y018030D01*
X035126Y017955D01*
X034976Y017955D01*
X034901Y018030D01*
X035126Y018180D02*
X035201Y018255D01*
X035201Y018330D01*
X011973Y017015D02*
X011746Y017015D01*
X011859Y017015D02*
X011859Y017355D01*
X011746Y017242D01*
X008045Y018030D02*
X007970Y017955D01*
X007820Y017955D01*
X007745Y018030D01*
X007586Y017955D02*
X007361Y018105D01*
X007586Y018255D01*
X007745Y018330D02*
X007820Y018405D01*
X007970Y018405D01*
X008045Y018330D01*
X008045Y018255D01*
X007970Y018180D01*
X008045Y018105D01*
X008045Y018030D01*
X007970Y018180D02*
X007895Y018180D01*
X007361Y017955D02*
X007361Y018405D01*
X007201Y018330D02*
X007126Y018405D01*
X006976Y018405D01*
X006901Y018330D01*
X007051Y018180D02*
X007126Y018180D01*
X007201Y018105D01*
X007201Y018030D01*
X007126Y017955D01*
X006976Y017955D01*
X006901Y018030D01*
X007126Y018180D02*
X007201Y018255D01*
X007201Y018330D01*
D15*
X005505Y012080D03*
X002855Y012080D03*
X009855Y012080D03*
X012505Y012080D03*
X016855Y012080D03*
X019505Y012080D03*
X023855Y012080D03*
X026505Y012080D03*
X030855Y012080D03*
X033505Y012080D03*
X037855Y012080D03*
X040505Y012080D03*
X040505Y007280D03*
X040505Y006080D03*
X037855Y006080D03*
X037855Y007280D03*
X033505Y007280D03*
X033505Y006080D03*
X030855Y006080D03*
X030855Y007280D03*
X026505Y007280D03*
X026505Y006080D03*
X023855Y006080D03*
X023855Y007280D03*
X019505Y007280D03*
X019505Y006080D03*
X016855Y006080D03*
X016855Y007280D03*
X012505Y007280D03*
X009855Y007280D03*
X009855Y006080D03*
X012505Y006080D03*
X005505Y006080D03*
X005505Y007280D03*
X002855Y007280D03*
X002855Y006080D03*
X002855Y001280D03*
X005505Y001280D03*
X009855Y001280D03*
X012505Y001280D03*
X016855Y001280D03*
X019505Y001280D03*
X023855Y001280D03*
X026505Y001280D03*
X030855Y001280D03*
X033505Y001280D03*
X037855Y001280D03*
X040505Y001280D03*
D16*
X039974Y014056D02*
X040001Y014103D01*
X040031Y014148D01*
X040064Y014191D01*
X040100Y014231D01*
X040139Y014269D01*
X040180Y014304D01*
X040223Y014337D01*
X040268Y014366D01*
X040316Y014392D01*
X040365Y014415D01*
X040415Y014435D01*
X040466Y014451D01*
X040519Y014464D01*
X040572Y014473D01*
X040626Y014478D01*
X040680Y014480D01*
X039985Y013283D02*
X040015Y013235D01*
X040048Y013190D01*
X040084Y013147D01*
X040122Y013106D01*
X040164Y013069D01*
X040208Y013034D01*
X040254Y013003D01*
X040303Y012974D01*
X040353Y012950D01*
X040405Y012929D01*
X040459Y012911D01*
X040513Y012898D01*
X040568Y012888D01*
X040624Y012882D01*
X040680Y012880D01*
X040733Y012882D01*
X040787Y012887D01*
X040839Y012896D01*
X040891Y012908D01*
X040942Y012924D01*
X040992Y012943D01*
X041041Y012966D01*
X041088Y012992D01*
X041133Y013020D01*
X041176Y013052D01*
X041216Y013086D01*
X041255Y013124D01*
X041291Y013163D01*
X041295Y014192D02*
X041259Y014232D01*
X041220Y014270D01*
X041179Y014305D01*
X041136Y014337D01*
X041091Y014367D01*
X041044Y014393D01*
X040995Y014415D01*
X040944Y014435D01*
X040893Y014451D01*
X040841Y014464D01*
X040787Y014473D01*
X040734Y014478D01*
X040680Y014480D01*
X037680Y014480D02*
X037626Y014478D01*
X037572Y014473D01*
X037519Y014464D01*
X037466Y014451D01*
X037415Y014435D01*
X037365Y014415D01*
X037316Y014392D01*
X037268Y014366D01*
X037223Y014337D01*
X037180Y014304D01*
X037139Y014269D01*
X037100Y014231D01*
X037064Y014191D01*
X037031Y014148D01*
X037001Y014103D01*
X036974Y014056D01*
X036985Y013283D02*
X037015Y013235D01*
X037048Y013190D01*
X037084Y013147D01*
X037122Y013106D01*
X037164Y013069D01*
X037208Y013034D01*
X037254Y013003D01*
X037303Y012974D01*
X037353Y012950D01*
X037405Y012929D01*
X037459Y012911D01*
X037513Y012898D01*
X037568Y012888D01*
X037624Y012882D01*
X037680Y012880D01*
X037733Y012882D01*
X037787Y012887D01*
X037839Y012896D01*
X037891Y012908D01*
X037942Y012924D01*
X037992Y012943D01*
X038041Y012966D01*
X038088Y012992D01*
X038133Y013020D01*
X038176Y013052D01*
X038216Y013086D01*
X038255Y013124D01*
X038291Y013163D01*
X038295Y014192D02*
X038259Y014232D01*
X038220Y014270D01*
X038179Y014305D01*
X038136Y014337D01*
X038091Y014367D01*
X038044Y014393D01*
X037995Y014415D01*
X037944Y014435D01*
X037893Y014451D01*
X037841Y014464D01*
X037787Y014473D01*
X037734Y014478D01*
X037680Y014480D01*
X033680Y014480D02*
X033626Y014478D01*
X033572Y014473D01*
X033519Y014464D01*
X033466Y014451D01*
X033415Y014435D01*
X033365Y014415D01*
X033316Y014392D01*
X033268Y014366D01*
X033223Y014337D01*
X033180Y014304D01*
X033139Y014269D01*
X033100Y014231D01*
X033064Y014191D01*
X033031Y014148D01*
X033001Y014103D01*
X032974Y014056D01*
X032985Y013283D02*
X033015Y013235D01*
X033048Y013190D01*
X033084Y013147D01*
X033122Y013106D01*
X033164Y013069D01*
X033208Y013034D01*
X033254Y013003D01*
X033303Y012974D01*
X033353Y012950D01*
X033405Y012929D01*
X033459Y012911D01*
X033513Y012898D01*
X033568Y012888D01*
X033624Y012882D01*
X033680Y012880D01*
X033733Y012882D01*
X033787Y012887D01*
X033839Y012896D01*
X033891Y012908D01*
X033942Y012924D01*
X033992Y012943D01*
X034041Y012966D01*
X034088Y012992D01*
X034133Y013020D01*
X034176Y013052D01*
X034216Y013086D01*
X034255Y013124D01*
X034291Y013163D01*
X034295Y014192D02*
X034259Y014232D01*
X034220Y014270D01*
X034179Y014305D01*
X034136Y014337D01*
X034091Y014367D01*
X034044Y014393D01*
X033995Y014415D01*
X033944Y014435D01*
X033893Y014451D01*
X033841Y014464D01*
X033787Y014473D01*
X033734Y014478D01*
X033680Y014480D01*
X030680Y014480D02*
X030626Y014478D01*
X030572Y014473D01*
X030519Y014464D01*
X030466Y014451D01*
X030415Y014435D01*
X030365Y014415D01*
X030316Y014392D01*
X030268Y014366D01*
X030223Y014337D01*
X030180Y014304D01*
X030139Y014269D01*
X030100Y014231D01*
X030064Y014191D01*
X030031Y014148D01*
X030001Y014103D01*
X029974Y014056D01*
X029985Y013283D02*
X030015Y013235D01*
X030048Y013190D01*
X030084Y013147D01*
X030122Y013106D01*
X030164Y013069D01*
X030208Y013034D01*
X030254Y013003D01*
X030303Y012974D01*
X030353Y012950D01*
X030405Y012929D01*
X030459Y012911D01*
X030513Y012898D01*
X030568Y012888D01*
X030624Y012882D01*
X030680Y012880D01*
X030733Y012882D01*
X030787Y012887D01*
X030839Y012896D01*
X030891Y012908D01*
X030942Y012924D01*
X030992Y012943D01*
X031041Y012966D01*
X031088Y012992D01*
X031133Y013020D01*
X031176Y013052D01*
X031216Y013086D01*
X031255Y013124D01*
X031291Y013163D01*
X031295Y014192D02*
X031259Y014232D01*
X031220Y014270D01*
X031179Y014305D01*
X031136Y014337D01*
X031091Y014367D01*
X031044Y014393D01*
X030995Y014415D01*
X030944Y014435D01*
X030893Y014451D01*
X030841Y014464D01*
X030787Y014473D01*
X030734Y014478D01*
X030680Y014480D01*
X026680Y014480D02*
X026626Y014478D01*
X026572Y014473D01*
X026519Y014464D01*
X026466Y014451D01*
X026415Y014435D01*
X026365Y014415D01*
X026316Y014392D01*
X026268Y014366D01*
X026223Y014337D01*
X026180Y014304D01*
X026139Y014269D01*
X026100Y014231D01*
X026064Y014191D01*
X026031Y014148D01*
X026001Y014103D01*
X025974Y014056D01*
X025985Y013283D02*
X026015Y013235D01*
X026048Y013190D01*
X026084Y013147D01*
X026122Y013106D01*
X026164Y013069D01*
X026208Y013034D01*
X026254Y013003D01*
X026303Y012974D01*
X026353Y012950D01*
X026405Y012929D01*
X026459Y012911D01*
X026513Y012898D01*
X026568Y012888D01*
X026624Y012882D01*
X026680Y012880D01*
X026733Y012882D01*
X026787Y012887D01*
X026839Y012896D01*
X026891Y012908D01*
X026942Y012924D01*
X026992Y012943D01*
X027041Y012966D01*
X027088Y012992D01*
X027133Y013020D01*
X027176Y013052D01*
X027216Y013086D01*
X027255Y013124D01*
X027291Y013163D01*
X027295Y014192D02*
X027259Y014232D01*
X027220Y014270D01*
X027179Y014305D01*
X027136Y014337D01*
X027091Y014367D01*
X027044Y014393D01*
X026995Y014415D01*
X026944Y014435D01*
X026893Y014451D01*
X026841Y014464D01*
X026787Y014473D01*
X026734Y014478D01*
X026680Y014480D01*
X023680Y014480D02*
X023626Y014478D01*
X023572Y014473D01*
X023519Y014464D01*
X023466Y014451D01*
X023415Y014435D01*
X023365Y014415D01*
X023316Y014392D01*
X023268Y014366D01*
X023223Y014337D01*
X023180Y014304D01*
X023139Y014269D01*
X023100Y014231D01*
X023064Y014191D01*
X023031Y014148D01*
X023001Y014103D01*
X022974Y014056D01*
X022985Y013283D02*
X023015Y013235D01*
X023048Y013190D01*
X023084Y013147D01*
X023122Y013106D01*
X023164Y013069D01*
X023208Y013034D01*
X023254Y013003D01*
X023303Y012974D01*
X023353Y012950D01*
X023405Y012929D01*
X023459Y012911D01*
X023513Y012898D01*
X023568Y012888D01*
X023624Y012882D01*
X023680Y012880D01*
X023733Y012882D01*
X023787Y012887D01*
X023839Y012896D01*
X023891Y012908D01*
X023942Y012924D01*
X023992Y012943D01*
X024041Y012966D01*
X024088Y012992D01*
X024133Y013020D01*
X024176Y013052D01*
X024216Y013086D01*
X024255Y013124D01*
X024291Y013163D01*
X024295Y014192D02*
X024259Y014232D01*
X024220Y014270D01*
X024179Y014305D01*
X024136Y014337D01*
X024091Y014367D01*
X024044Y014393D01*
X023995Y014415D01*
X023944Y014435D01*
X023893Y014451D01*
X023841Y014464D01*
X023787Y014473D01*
X023734Y014478D01*
X023680Y014480D01*
X019680Y014480D02*
X019626Y014478D01*
X019572Y014473D01*
X019519Y014464D01*
X019466Y014451D01*
X019415Y014435D01*
X019365Y014415D01*
X019316Y014392D01*
X019268Y014366D01*
X019223Y014337D01*
X019180Y014304D01*
X019139Y014269D01*
X019100Y014231D01*
X019064Y014191D01*
X019031Y014148D01*
X019001Y014103D01*
X018974Y014056D01*
X018985Y013283D02*
X019015Y013235D01*
X019048Y013190D01*
X019084Y013147D01*
X019122Y013106D01*
X019164Y013069D01*
X019208Y013034D01*
X019254Y013003D01*
X019303Y012974D01*
X019353Y012950D01*
X019405Y012929D01*
X019459Y012911D01*
X019513Y012898D01*
X019568Y012888D01*
X019624Y012882D01*
X019680Y012880D01*
X019733Y012882D01*
X019787Y012887D01*
X019839Y012896D01*
X019891Y012908D01*
X019942Y012924D01*
X019992Y012943D01*
X020041Y012966D01*
X020088Y012992D01*
X020133Y013020D01*
X020176Y013052D01*
X020216Y013086D01*
X020255Y013124D01*
X020291Y013163D01*
X020295Y014192D02*
X020259Y014232D01*
X020220Y014270D01*
X020179Y014305D01*
X020136Y014337D01*
X020091Y014367D01*
X020044Y014393D01*
X019995Y014415D01*
X019944Y014435D01*
X019893Y014451D01*
X019841Y014464D01*
X019787Y014473D01*
X019734Y014478D01*
X019680Y014480D01*
X016680Y014480D02*
X016626Y014478D01*
X016572Y014473D01*
X016519Y014464D01*
X016466Y014451D01*
X016415Y014435D01*
X016365Y014415D01*
X016316Y014392D01*
X016268Y014366D01*
X016223Y014337D01*
X016180Y014304D01*
X016139Y014269D01*
X016100Y014231D01*
X016064Y014191D01*
X016031Y014148D01*
X016001Y014103D01*
X015974Y014056D01*
X015985Y013283D02*
X016015Y013235D01*
X016048Y013190D01*
X016084Y013147D01*
X016122Y013106D01*
X016164Y013069D01*
X016208Y013034D01*
X016254Y013003D01*
X016303Y012974D01*
X016353Y012950D01*
X016405Y012929D01*
X016459Y012911D01*
X016513Y012898D01*
X016568Y012888D01*
X016624Y012882D01*
X016680Y012880D01*
X016733Y012882D01*
X016787Y012887D01*
X016839Y012896D01*
X016891Y012908D01*
X016942Y012924D01*
X016992Y012943D01*
X017041Y012966D01*
X017088Y012992D01*
X017133Y013020D01*
X017176Y013052D01*
X017216Y013086D01*
X017255Y013124D01*
X017291Y013163D01*
X017295Y014192D02*
X017259Y014232D01*
X017220Y014270D01*
X017179Y014305D01*
X017136Y014337D01*
X017091Y014367D01*
X017044Y014393D01*
X016995Y014415D01*
X016944Y014435D01*
X016893Y014451D01*
X016841Y014464D01*
X016787Y014473D01*
X016734Y014478D01*
X016680Y014480D01*
X013180Y014480D02*
X013126Y014478D01*
X013072Y014473D01*
X013019Y014464D01*
X012966Y014451D01*
X012915Y014435D01*
X012865Y014415D01*
X012816Y014392D01*
X012768Y014366D01*
X012723Y014337D01*
X012680Y014304D01*
X012639Y014269D01*
X012600Y014231D01*
X012564Y014191D01*
X012531Y014148D01*
X012501Y014103D01*
X012474Y014056D01*
X012485Y013283D02*
X012515Y013235D01*
X012548Y013190D01*
X012584Y013147D01*
X012622Y013106D01*
X012664Y013069D01*
X012708Y013034D01*
X012754Y013003D01*
X012803Y012974D01*
X012853Y012950D01*
X012905Y012929D01*
X012959Y012911D01*
X013013Y012898D01*
X013068Y012888D01*
X013124Y012882D01*
X013180Y012880D01*
X013233Y012882D01*
X013287Y012887D01*
X013339Y012896D01*
X013391Y012908D01*
X013442Y012924D01*
X013492Y012943D01*
X013541Y012966D01*
X013588Y012992D01*
X013633Y013020D01*
X013676Y013052D01*
X013716Y013086D01*
X013755Y013124D01*
X013791Y013163D01*
X013795Y014192D02*
X013759Y014232D01*
X013720Y014270D01*
X013679Y014305D01*
X013636Y014337D01*
X013591Y014367D01*
X013544Y014393D01*
X013495Y014415D01*
X013444Y014435D01*
X013393Y014451D01*
X013341Y014464D01*
X013287Y014473D01*
X013234Y014478D01*
X013180Y014480D01*
X011180Y014480D02*
X011126Y014478D01*
X011072Y014473D01*
X011019Y014464D01*
X010966Y014451D01*
X010915Y014435D01*
X010865Y014415D01*
X010816Y014392D01*
X010768Y014366D01*
X010723Y014337D01*
X010680Y014304D01*
X010639Y014269D01*
X010600Y014231D01*
X010564Y014191D01*
X010531Y014148D01*
X010501Y014103D01*
X010474Y014056D01*
X010485Y013283D02*
X010515Y013235D01*
X010548Y013190D01*
X010584Y013147D01*
X010622Y013106D01*
X010664Y013069D01*
X010708Y013034D01*
X010754Y013003D01*
X010803Y012974D01*
X010853Y012950D01*
X010905Y012929D01*
X010959Y012911D01*
X011013Y012898D01*
X011068Y012888D01*
X011124Y012882D01*
X011180Y012880D01*
X011233Y012882D01*
X011287Y012887D01*
X011339Y012896D01*
X011391Y012908D01*
X011442Y012924D01*
X011492Y012943D01*
X011541Y012966D01*
X011588Y012992D01*
X011633Y013020D01*
X011676Y013052D01*
X011716Y013086D01*
X011755Y013124D01*
X011791Y013163D01*
X011795Y014192D02*
X011759Y014232D01*
X011720Y014270D01*
X011679Y014305D01*
X011636Y014337D01*
X011591Y014367D01*
X011544Y014393D01*
X011495Y014415D01*
X011444Y014435D01*
X011393Y014451D01*
X011341Y014464D01*
X011287Y014473D01*
X011234Y014478D01*
X011180Y014480D01*
X009180Y014480D02*
X009126Y014478D01*
X009072Y014473D01*
X009019Y014464D01*
X008966Y014451D01*
X008915Y014435D01*
X008865Y014415D01*
X008816Y014392D01*
X008768Y014366D01*
X008723Y014337D01*
X008680Y014304D01*
X008639Y014269D01*
X008600Y014231D01*
X008564Y014191D01*
X008531Y014148D01*
X008501Y014103D01*
X008474Y014056D01*
X008485Y013283D02*
X008515Y013235D01*
X008548Y013190D01*
X008584Y013147D01*
X008622Y013106D01*
X008664Y013069D01*
X008708Y013034D01*
X008754Y013003D01*
X008803Y012974D01*
X008853Y012950D01*
X008905Y012929D01*
X008959Y012911D01*
X009013Y012898D01*
X009068Y012888D01*
X009124Y012882D01*
X009180Y012880D01*
X009233Y012882D01*
X009287Y012887D01*
X009339Y012896D01*
X009391Y012908D01*
X009442Y012924D01*
X009492Y012943D01*
X009541Y012966D01*
X009588Y012992D01*
X009633Y013020D01*
X009676Y013052D01*
X009716Y013086D01*
X009755Y013124D01*
X009791Y013163D01*
X009795Y014192D02*
X009759Y014232D01*
X009720Y014270D01*
X009679Y014305D01*
X009636Y014337D01*
X009591Y014367D01*
X009544Y014393D01*
X009495Y014415D01*
X009444Y014435D01*
X009393Y014451D01*
X009341Y014464D01*
X009287Y014473D01*
X009234Y014478D01*
X009180Y014480D01*
X006180Y014480D02*
X006126Y014478D01*
X006072Y014473D01*
X006019Y014464D01*
X005966Y014451D01*
X005915Y014435D01*
X005865Y014415D01*
X005816Y014392D01*
X005768Y014366D01*
X005723Y014337D01*
X005680Y014304D01*
X005639Y014269D01*
X005600Y014231D01*
X005564Y014191D01*
X005531Y014148D01*
X005501Y014103D01*
X005474Y014056D01*
X005485Y013283D02*
X005515Y013235D01*
X005548Y013190D01*
X005584Y013147D01*
X005622Y013106D01*
X005664Y013069D01*
X005708Y013034D01*
X005754Y013003D01*
X005803Y012974D01*
X005853Y012950D01*
X005905Y012929D01*
X005959Y012911D01*
X006013Y012898D01*
X006068Y012888D01*
X006124Y012882D01*
X006180Y012880D01*
X006233Y012882D01*
X006287Y012887D01*
X006339Y012896D01*
X006391Y012908D01*
X006442Y012924D01*
X006492Y012943D01*
X006541Y012966D01*
X006588Y012992D01*
X006633Y013020D01*
X006676Y013052D01*
X006716Y013086D01*
X006755Y013124D01*
X006791Y013163D01*
X006795Y014192D02*
X006759Y014232D01*
X006720Y014270D01*
X006679Y014305D01*
X006636Y014337D01*
X006591Y014367D01*
X006544Y014393D01*
X006495Y014415D01*
X006444Y014435D01*
X006393Y014451D01*
X006341Y014464D01*
X006287Y014473D01*
X006234Y014478D01*
X006180Y014480D01*
X004180Y014480D02*
X004126Y014478D01*
X004072Y014473D01*
X004019Y014464D01*
X003966Y014451D01*
X003915Y014435D01*
X003865Y014415D01*
X003816Y014392D01*
X003768Y014366D01*
X003723Y014337D01*
X003680Y014304D01*
X003639Y014269D01*
X003600Y014231D01*
X003564Y014191D01*
X003531Y014148D01*
X003501Y014103D01*
X003474Y014056D01*
X003485Y013283D02*
X003515Y013235D01*
X003548Y013190D01*
X003584Y013147D01*
X003622Y013106D01*
X003664Y013069D01*
X003708Y013034D01*
X003754Y013003D01*
X003803Y012974D01*
X003853Y012950D01*
X003905Y012929D01*
X003959Y012911D01*
X004013Y012898D01*
X004068Y012888D01*
X004124Y012882D01*
X004180Y012880D01*
X004233Y012882D01*
X004287Y012887D01*
X004339Y012896D01*
X004391Y012908D01*
X004442Y012924D01*
X004492Y012943D01*
X004541Y012966D01*
X004588Y012992D01*
X004633Y013020D01*
X004676Y013052D01*
X004716Y013086D01*
X004755Y013124D01*
X004791Y013163D01*
X004795Y014192D02*
X004759Y014232D01*
X004720Y014270D01*
X004679Y014305D01*
X004636Y014337D01*
X004591Y014367D01*
X004544Y014393D01*
X004495Y014415D01*
X004444Y014435D01*
X004393Y014451D01*
X004341Y014464D01*
X004287Y014473D01*
X004234Y014478D01*
X004180Y014480D01*
X002180Y014480D02*
X002126Y014478D01*
X002072Y014473D01*
X002019Y014464D01*
X001966Y014451D01*
X001915Y014435D01*
X001865Y014415D01*
X001816Y014392D01*
X001768Y014366D01*
X001723Y014337D01*
X001680Y014304D01*
X001639Y014269D01*
X001600Y014231D01*
X001564Y014191D01*
X001531Y014148D01*
X001501Y014103D01*
X001474Y014056D01*
X001485Y013283D02*
X001515Y013235D01*
X001548Y013190D01*
X001584Y013147D01*
X001622Y013106D01*
X001664Y013069D01*
X001708Y013034D01*
X001754Y013003D01*
X001803Y012974D01*
X001853Y012950D01*
X001905Y012929D01*
X001959Y012911D01*
X002013Y012898D01*
X002068Y012888D01*
X002124Y012882D01*
X002180Y012880D01*
X002233Y012882D01*
X002287Y012887D01*
X002339Y012896D01*
X002391Y012908D01*
X002442Y012924D01*
X002492Y012943D01*
X002541Y012966D01*
X002588Y012992D01*
X002633Y013020D01*
X002676Y013052D01*
X002716Y013086D01*
X002755Y013124D01*
X002791Y013163D01*
X002795Y014192D02*
X002759Y014232D01*
X002720Y014270D01*
X002679Y014305D01*
X002636Y014337D01*
X002591Y014367D01*
X002544Y014393D01*
X002495Y014415D01*
X002444Y014435D01*
X002393Y014451D01*
X002341Y014464D01*
X002287Y014473D01*
X002234Y014478D01*
X002180Y014480D01*
X002837Y018318D02*
X005523Y018318D01*
X006542Y019337D02*
X006542Y022023D01*
X006330Y021080D02*
X005980Y021080D01*
X006330Y021080D02*
X006330Y020280D01*
X005980Y020280D01*
X002371Y020680D02*
X002373Y020765D01*
X002379Y020849D01*
X002389Y020934D01*
X002403Y021017D01*
X002420Y021100D01*
X002442Y021182D01*
X002468Y021263D01*
X002497Y021343D01*
X002530Y021421D01*
X002566Y021497D01*
X002606Y021572D01*
X002650Y021645D01*
X002697Y021716D01*
X002747Y021784D01*
X002800Y021850D01*
X002857Y021913D01*
X002916Y021974D01*
X002978Y022032D01*
X003043Y022087D01*
X003110Y022139D01*
X003179Y022187D01*
X003251Y022232D01*
X003325Y022274D01*
X003401Y022312D01*
X003478Y022347D01*
X003557Y022378D01*
X003637Y022406D01*
X003719Y022429D01*
X003801Y022449D01*
X003884Y022465D01*
X003968Y022477D01*
X004053Y022485D01*
X004138Y022489D01*
X004222Y022489D01*
X004307Y022485D01*
X004392Y022477D01*
X004476Y022465D01*
X004559Y022449D01*
X004641Y022429D01*
X004723Y022406D01*
X004803Y022378D01*
X004882Y022347D01*
X004959Y022312D01*
X005035Y022274D01*
X005109Y022232D01*
X005181Y022187D01*
X005250Y022139D01*
X005317Y022087D01*
X005382Y022032D01*
X005444Y021974D01*
X005503Y021913D01*
X005560Y021850D01*
X005613Y021784D01*
X005663Y021716D01*
X005710Y021645D01*
X005754Y021572D01*
X005794Y021497D01*
X005830Y021421D01*
X005863Y021343D01*
X005892Y021263D01*
X005918Y021182D01*
X005940Y021100D01*
X005957Y021017D01*
X005971Y020934D01*
X005981Y020849D01*
X005987Y020765D01*
X005989Y020680D01*
X005987Y020595D01*
X005981Y020511D01*
X005971Y020426D01*
X005957Y020343D01*
X005940Y020260D01*
X005918Y020178D01*
X005892Y020097D01*
X005863Y020017D01*
X005830Y019939D01*
X005794Y019863D01*
X005754Y019788D01*
X005710Y019715D01*
X005663Y019644D01*
X005613Y019576D01*
X005560Y019510D01*
X005503Y019447D01*
X005444Y019386D01*
X005382Y019328D01*
X005317Y019273D01*
X005250Y019221D01*
X005181Y019173D01*
X005109Y019128D01*
X005035Y019086D01*
X004959Y019048D01*
X004882Y019013D01*
X004803Y018982D01*
X004723Y018954D01*
X004641Y018931D01*
X004559Y018911D01*
X004476Y018895D01*
X004392Y018883D01*
X004307Y018875D01*
X004222Y018871D01*
X004138Y018871D01*
X004053Y018875D01*
X003968Y018883D01*
X003884Y018895D01*
X003801Y018911D01*
X003719Y018931D01*
X003637Y018954D01*
X003557Y018982D01*
X003478Y019013D01*
X003401Y019048D01*
X003325Y019086D01*
X003251Y019128D01*
X003179Y019173D01*
X003110Y019221D01*
X003043Y019273D01*
X002978Y019328D01*
X002916Y019386D01*
X002857Y019447D01*
X002800Y019510D01*
X002747Y019576D01*
X002697Y019644D01*
X002650Y019715D01*
X002606Y019788D01*
X002566Y019863D01*
X002530Y019939D01*
X002497Y020017D01*
X002468Y020097D01*
X002442Y020178D01*
X002420Y020260D01*
X002403Y020343D01*
X002389Y020426D01*
X002379Y020511D01*
X002373Y020595D01*
X002371Y020680D01*
X002380Y021080D02*
X002030Y021080D01*
X002030Y020280D01*
X002380Y020280D01*
X001818Y019337D02*
X001818Y022023D01*
X002837Y023042D02*
X005523Y023042D01*
X008818Y022023D02*
X008818Y019337D01*
X009030Y020280D02*
X009380Y020280D01*
X009030Y020280D02*
X009030Y021080D01*
X009380Y021080D01*
X009371Y020680D02*
X009373Y020765D01*
X009379Y020849D01*
X009389Y020934D01*
X009403Y021017D01*
X009420Y021100D01*
X009442Y021182D01*
X009468Y021263D01*
X009497Y021343D01*
X009530Y021421D01*
X009566Y021497D01*
X009606Y021572D01*
X009650Y021645D01*
X009697Y021716D01*
X009747Y021784D01*
X009800Y021850D01*
X009857Y021913D01*
X009916Y021974D01*
X009978Y022032D01*
X010043Y022087D01*
X010110Y022139D01*
X010179Y022187D01*
X010251Y022232D01*
X010325Y022274D01*
X010401Y022312D01*
X010478Y022347D01*
X010557Y022378D01*
X010637Y022406D01*
X010719Y022429D01*
X010801Y022449D01*
X010884Y022465D01*
X010968Y022477D01*
X011053Y022485D01*
X011138Y022489D01*
X011222Y022489D01*
X011307Y022485D01*
X011392Y022477D01*
X011476Y022465D01*
X011559Y022449D01*
X011641Y022429D01*
X011723Y022406D01*
X011803Y022378D01*
X011882Y022347D01*
X011959Y022312D01*
X012035Y022274D01*
X012109Y022232D01*
X012181Y022187D01*
X012250Y022139D01*
X012317Y022087D01*
X012382Y022032D01*
X012444Y021974D01*
X012503Y021913D01*
X012560Y021850D01*
X012613Y021784D01*
X012663Y021716D01*
X012710Y021645D01*
X012754Y021572D01*
X012794Y021497D01*
X012830Y021421D01*
X012863Y021343D01*
X012892Y021263D01*
X012918Y021182D01*
X012940Y021100D01*
X012957Y021017D01*
X012971Y020934D01*
X012981Y020849D01*
X012987Y020765D01*
X012989Y020680D01*
X012987Y020595D01*
X012981Y020511D01*
X012971Y020426D01*
X012957Y020343D01*
X012940Y020260D01*
X012918Y020178D01*
X012892Y020097D01*
X012863Y020017D01*
X012830Y019939D01*
X012794Y019863D01*
X012754Y019788D01*
X012710Y019715D01*
X012663Y019644D01*
X012613Y019576D01*
X012560Y019510D01*
X012503Y019447D01*
X012444Y019386D01*
X012382Y019328D01*
X012317Y019273D01*
X012250Y019221D01*
X012181Y019173D01*
X012109Y019128D01*
X012035Y019086D01*
X011959Y019048D01*
X011882Y019013D01*
X011803Y018982D01*
X011723Y018954D01*
X011641Y018931D01*
X011559Y018911D01*
X011476Y018895D01*
X011392Y018883D01*
X011307Y018875D01*
X011222Y018871D01*
X011138Y018871D01*
X011053Y018875D01*
X010968Y018883D01*
X010884Y018895D01*
X010801Y018911D01*
X010719Y018931D01*
X010637Y018954D01*
X010557Y018982D01*
X010478Y019013D01*
X010401Y019048D01*
X010325Y019086D01*
X010251Y019128D01*
X010179Y019173D01*
X010110Y019221D01*
X010043Y019273D01*
X009978Y019328D01*
X009916Y019386D01*
X009857Y019447D01*
X009800Y019510D01*
X009747Y019576D01*
X009697Y019644D01*
X009650Y019715D01*
X009606Y019788D01*
X009566Y019863D01*
X009530Y019939D01*
X009497Y020017D01*
X009468Y020097D01*
X009442Y020178D01*
X009420Y020260D01*
X009403Y020343D01*
X009389Y020426D01*
X009379Y020511D01*
X009373Y020595D01*
X009371Y020680D01*
X012980Y020280D02*
X013330Y020280D01*
X013330Y021080D01*
X012980Y021080D01*
X013542Y022023D02*
X013542Y019337D01*
X012523Y018318D02*
X009837Y018318D01*
X009837Y023042D02*
X012523Y023042D01*
X029818Y022023D02*
X029818Y019337D01*
X030030Y020280D02*
X030380Y020280D01*
X030030Y020280D02*
X030030Y021080D01*
X030380Y021080D01*
X030371Y020680D02*
X030373Y020765D01*
X030379Y020849D01*
X030389Y020934D01*
X030403Y021017D01*
X030420Y021100D01*
X030442Y021182D01*
X030468Y021263D01*
X030497Y021343D01*
X030530Y021421D01*
X030566Y021497D01*
X030606Y021572D01*
X030650Y021645D01*
X030697Y021716D01*
X030747Y021784D01*
X030800Y021850D01*
X030857Y021913D01*
X030916Y021974D01*
X030978Y022032D01*
X031043Y022087D01*
X031110Y022139D01*
X031179Y022187D01*
X031251Y022232D01*
X031325Y022274D01*
X031401Y022312D01*
X031478Y022347D01*
X031557Y022378D01*
X031637Y022406D01*
X031719Y022429D01*
X031801Y022449D01*
X031884Y022465D01*
X031968Y022477D01*
X032053Y022485D01*
X032138Y022489D01*
X032222Y022489D01*
X032307Y022485D01*
X032392Y022477D01*
X032476Y022465D01*
X032559Y022449D01*
X032641Y022429D01*
X032723Y022406D01*
X032803Y022378D01*
X032882Y022347D01*
X032959Y022312D01*
X033035Y022274D01*
X033109Y022232D01*
X033181Y022187D01*
X033250Y022139D01*
X033317Y022087D01*
X033382Y022032D01*
X033444Y021974D01*
X033503Y021913D01*
X033560Y021850D01*
X033613Y021784D01*
X033663Y021716D01*
X033710Y021645D01*
X033754Y021572D01*
X033794Y021497D01*
X033830Y021421D01*
X033863Y021343D01*
X033892Y021263D01*
X033918Y021182D01*
X033940Y021100D01*
X033957Y021017D01*
X033971Y020934D01*
X033981Y020849D01*
X033987Y020765D01*
X033989Y020680D01*
X033987Y020595D01*
X033981Y020511D01*
X033971Y020426D01*
X033957Y020343D01*
X033940Y020260D01*
X033918Y020178D01*
X033892Y020097D01*
X033863Y020017D01*
X033830Y019939D01*
X033794Y019863D01*
X033754Y019788D01*
X033710Y019715D01*
X033663Y019644D01*
X033613Y019576D01*
X033560Y019510D01*
X033503Y019447D01*
X033444Y019386D01*
X033382Y019328D01*
X033317Y019273D01*
X033250Y019221D01*
X033181Y019173D01*
X033109Y019128D01*
X033035Y019086D01*
X032959Y019048D01*
X032882Y019013D01*
X032803Y018982D01*
X032723Y018954D01*
X032641Y018931D01*
X032559Y018911D01*
X032476Y018895D01*
X032392Y018883D01*
X032307Y018875D01*
X032222Y018871D01*
X032138Y018871D01*
X032053Y018875D01*
X031968Y018883D01*
X031884Y018895D01*
X031801Y018911D01*
X031719Y018931D01*
X031637Y018954D01*
X031557Y018982D01*
X031478Y019013D01*
X031401Y019048D01*
X031325Y019086D01*
X031251Y019128D01*
X031179Y019173D01*
X031110Y019221D01*
X031043Y019273D01*
X030978Y019328D01*
X030916Y019386D01*
X030857Y019447D01*
X030800Y019510D01*
X030747Y019576D01*
X030697Y019644D01*
X030650Y019715D01*
X030606Y019788D01*
X030566Y019863D01*
X030530Y019939D01*
X030497Y020017D01*
X030468Y020097D01*
X030442Y020178D01*
X030420Y020260D01*
X030403Y020343D01*
X030389Y020426D01*
X030379Y020511D01*
X030373Y020595D01*
X030371Y020680D01*
X033980Y020280D02*
X034330Y020280D01*
X034330Y021080D01*
X033980Y021080D01*
X034542Y022023D02*
X034542Y019337D01*
X033523Y018318D02*
X030837Y018318D01*
X036818Y019337D02*
X036818Y022023D01*
X037030Y021080D02*
X037030Y020280D01*
X037380Y020280D01*
X037380Y021080D02*
X037030Y021080D01*
X037371Y020680D02*
X037373Y020765D01*
X037379Y020849D01*
X037389Y020934D01*
X037403Y021017D01*
X037420Y021100D01*
X037442Y021182D01*
X037468Y021263D01*
X037497Y021343D01*
X037530Y021421D01*
X037566Y021497D01*
X037606Y021572D01*
X037650Y021645D01*
X037697Y021716D01*
X037747Y021784D01*
X037800Y021850D01*
X037857Y021913D01*
X037916Y021974D01*
X037978Y022032D01*
X038043Y022087D01*
X038110Y022139D01*
X038179Y022187D01*
X038251Y022232D01*
X038325Y022274D01*
X038401Y022312D01*
X038478Y022347D01*
X038557Y022378D01*
X038637Y022406D01*
X038719Y022429D01*
X038801Y022449D01*
X038884Y022465D01*
X038968Y022477D01*
X039053Y022485D01*
X039138Y022489D01*
X039222Y022489D01*
X039307Y022485D01*
X039392Y022477D01*
X039476Y022465D01*
X039559Y022449D01*
X039641Y022429D01*
X039723Y022406D01*
X039803Y022378D01*
X039882Y022347D01*
X039959Y022312D01*
X040035Y022274D01*
X040109Y022232D01*
X040181Y022187D01*
X040250Y022139D01*
X040317Y022087D01*
X040382Y022032D01*
X040444Y021974D01*
X040503Y021913D01*
X040560Y021850D01*
X040613Y021784D01*
X040663Y021716D01*
X040710Y021645D01*
X040754Y021572D01*
X040794Y021497D01*
X040830Y021421D01*
X040863Y021343D01*
X040892Y021263D01*
X040918Y021182D01*
X040940Y021100D01*
X040957Y021017D01*
X040971Y020934D01*
X040981Y020849D01*
X040987Y020765D01*
X040989Y020680D01*
X040987Y020595D01*
X040981Y020511D01*
X040971Y020426D01*
X040957Y020343D01*
X040940Y020260D01*
X040918Y020178D01*
X040892Y020097D01*
X040863Y020017D01*
X040830Y019939D01*
X040794Y019863D01*
X040754Y019788D01*
X040710Y019715D01*
X040663Y019644D01*
X040613Y019576D01*
X040560Y019510D01*
X040503Y019447D01*
X040444Y019386D01*
X040382Y019328D01*
X040317Y019273D01*
X040250Y019221D01*
X040181Y019173D01*
X040109Y019128D01*
X040035Y019086D01*
X039959Y019048D01*
X039882Y019013D01*
X039803Y018982D01*
X039723Y018954D01*
X039641Y018931D01*
X039559Y018911D01*
X039476Y018895D01*
X039392Y018883D01*
X039307Y018875D01*
X039222Y018871D01*
X039138Y018871D01*
X039053Y018875D01*
X038968Y018883D01*
X038884Y018895D01*
X038801Y018911D01*
X038719Y018931D01*
X038637Y018954D01*
X038557Y018982D01*
X038478Y019013D01*
X038401Y019048D01*
X038325Y019086D01*
X038251Y019128D01*
X038179Y019173D01*
X038110Y019221D01*
X038043Y019273D01*
X037978Y019328D01*
X037916Y019386D01*
X037857Y019447D01*
X037800Y019510D01*
X037747Y019576D01*
X037697Y019644D01*
X037650Y019715D01*
X037606Y019788D01*
X037566Y019863D01*
X037530Y019939D01*
X037497Y020017D01*
X037468Y020097D01*
X037442Y020178D01*
X037420Y020260D01*
X037403Y020343D01*
X037389Y020426D01*
X037379Y020511D01*
X037373Y020595D01*
X037371Y020680D01*
X040980Y020280D02*
X041330Y020280D01*
X041330Y021080D01*
X040980Y021080D01*
X041542Y022023D02*
X041542Y019337D01*
X040523Y018318D02*
X037837Y018318D01*
X037837Y023042D02*
X040523Y023042D01*
X033523Y023042D02*
X030837Y023042D01*
D17*
X031590Y020483D02*
X031607Y020438D01*
X031628Y020394D01*
X031652Y020352D01*
X031679Y020312D01*
X031709Y020274D01*
X031742Y020238D01*
X031778Y020205D01*
X031816Y020175D01*
X031857Y020149D01*
X031899Y020125D01*
X031943Y020105D01*
X031989Y020088D01*
X032036Y020075D01*
X032083Y020066D01*
X032131Y020060D01*
X032180Y020058D01*
X032229Y020060D01*
X032277Y020066D01*
X032324Y020075D01*
X032371Y020088D01*
X032417Y020105D01*
X032461Y020125D01*
X032503Y020149D01*
X032544Y020175D01*
X032582Y020205D01*
X032618Y020238D01*
X032651Y020274D01*
X032681Y020312D01*
X032708Y020352D01*
X032732Y020394D01*
X032753Y020438D01*
X032770Y020483D01*
X032770Y020877D02*
X032753Y020922D01*
X032732Y020966D01*
X032708Y021008D01*
X032681Y021048D01*
X032651Y021086D01*
X032618Y021122D01*
X032582Y021155D01*
X032544Y021185D01*
X032503Y021211D01*
X032461Y021235D01*
X032417Y021255D01*
X032371Y021272D01*
X032324Y021285D01*
X032277Y021294D01*
X032229Y021300D01*
X032180Y021302D01*
X032131Y021300D01*
X032083Y021294D01*
X032036Y021285D01*
X031989Y021272D01*
X031943Y021255D01*
X031899Y021235D01*
X031857Y021211D01*
X031816Y021185D01*
X031778Y021155D01*
X031742Y021122D01*
X031709Y021086D01*
X031679Y021048D01*
X031652Y021008D01*
X031628Y020966D01*
X031607Y020922D01*
X031590Y020877D01*
X038590Y020483D02*
X038607Y020438D01*
X038628Y020394D01*
X038652Y020352D01*
X038679Y020312D01*
X038709Y020274D01*
X038742Y020238D01*
X038778Y020205D01*
X038816Y020175D01*
X038857Y020149D01*
X038899Y020125D01*
X038943Y020105D01*
X038989Y020088D01*
X039036Y020075D01*
X039083Y020066D01*
X039131Y020060D01*
X039180Y020058D01*
X039229Y020060D01*
X039277Y020066D01*
X039324Y020075D01*
X039371Y020088D01*
X039417Y020105D01*
X039461Y020125D01*
X039503Y020149D01*
X039544Y020175D01*
X039582Y020205D01*
X039618Y020238D01*
X039651Y020274D01*
X039681Y020312D01*
X039708Y020352D01*
X039732Y020394D01*
X039753Y020438D01*
X039770Y020483D01*
X039770Y020877D02*
X039753Y020922D01*
X039732Y020966D01*
X039708Y021008D01*
X039681Y021048D01*
X039651Y021086D01*
X039618Y021122D01*
X039582Y021155D01*
X039544Y021185D01*
X039503Y021211D01*
X039461Y021235D01*
X039417Y021255D01*
X039371Y021272D01*
X039324Y021285D01*
X039277Y021294D01*
X039229Y021300D01*
X039180Y021302D01*
X039131Y021300D01*
X039083Y021294D01*
X039036Y021285D01*
X038989Y021272D01*
X038943Y021255D01*
X038899Y021235D01*
X038857Y021211D01*
X038816Y021185D01*
X038778Y021155D01*
X038742Y021122D01*
X038709Y021086D01*
X038679Y021048D01*
X038652Y021008D01*
X038628Y020966D01*
X038607Y020922D01*
X038590Y020877D01*
X011770Y020483D02*
X011753Y020438D01*
X011732Y020394D01*
X011708Y020352D01*
X011681Y020312D01*
X011651Y020274D01*
X011618Y020238D01*
X011582Y020205D01*
X011544Y020175D01*
X011503Y020149D01*
X011461Y020125D01*
X011417Y020105D01*
X011371Y020088D01*
X011324Y020075D01*
X011277Y020066D01*
X011229Y020060D01*
X011180Y020058D01*
X011131Y020060D01*
X011083Y020066D01*
X011036Y020075D01*
X010989Y020088D01*
X010943Y020105D01*
X010899Y020125D01*
X010857Y020149D01*
X010816Y020175D01*
X010778Y020205D01*
X010742Y020238D01*
X010709Y020274D01*
X010679Y020312D01*
X010652Y020352D01*
X010628Y020394D01*
X010607Y020438D01*
X010590Y020483D01*
X010590Y020877D02*
X010607Y020922D01*
X010628Y020966D01*
X010652Y021008D01*
X010679Y021048D01*
X010709Y021086D01*
X010742Y021122D01*
X010778Y021155D01*
X010816Y021185D01*
X010857Y021211D01*
X010899Y021235D01*
X010943Y021255D01*
X010989Y021272D01*
X011036Y021285D01*
X011083Y021294D01*
X011131Y021300D01*
X011180Y021302D01*
X011229Y021300D01*
X011277Y021294D01*
X011324Y021285D01*
X011371Y021272D01*
X011417Y021255D01*
X011461Y021235D01*
X011503Y021211D01*
X011544Y021185D01*
X011582Y021155D01*
X011618Y021122D01*
X011651Y021086D01*
X011681Y021048D01*
X011708Y021008D01*
X011732Y020966D01*
X011753Y020922D01*
X011770Y020877D01*
X004770Y020483D02*
X004753Y020438D01*
X004732Y020394D01*
X004708Y020352D01*
X004681Y020312D01*
X004651Y020274D01*
X004618Y020238D01*
X004582Y020205D01*
X004544Y020175D01*
X004503Y020149D01*
X004461Y020125D01*
X004417Y020105D01*
X004371Y020088D01*
X004324Y020075D01*
X004277Y020066D01*
X004229Y020060D01*
X004180Y020058D01*
X004131Y020060D01*
X004083Y020066D01*
X004036Y020075D01*
X003989Y020088D01*
X003943Y020105D01*
X003899Y020125D01*
X003857Y020149D01*
X003816Y020175D01*
X003778Y020205D01*
X003742Y020238D01*
X003709Y020274D01*
X003679Y020312D01*
X003652Y020352D01*
X003628Y020394D01*
X003607Y020438D01*
X003590Y020483D01*
X003590Y020877D02*
X003607Y020922D01*
X003628Y020966D01*
X003652Y021008D01*
X003679Y021048D01*
X003709Y021086D01*
X003742Y021122D01*
X003778Y021155D01*
X003816Y021185D01*
X003857Y021211D01*
X003899Y021235D01*
X003943Y021255D01*
X003989Y021272D01*
X004036Y021285D01*
X004083Y021294D01*
X004131Y021300D01*
X004180Y021302D01*
X004229Y021300D01*
X004277Y021294D01*
X004324Y021285D01*
X004371Y021272D01*
X004417Y021255D01*
X004461Y021235D01*
X004503Y021211D01*
X004544Y021185D01*
X004582Y021155D01*
X004618Y021122D01*
X004651Y021086D01*
X004681Y021048D01*
X004708Y021008D01*
X004732Y020966D01*
X004753Y020922D01*
X004770Y020877D01*
D18*
X043744Y020978D02*
X043792Y020978D01*
X043887Y021073D01*
X044030Y021073D01*
X043887Y021073D02*
X043792Y021168D01*
X043744Y021168D01*
X043839Y021268D02*
X043744Y021363D01*
X044030Y021363D01*
X044030Y021268D02*
X044030Y021458D01*
X044030Y020458D02*
X044030Y020268D01*
X043839Y020458D01*
X043792Y020458D01*
X043744Y020410D01*
X043744Y020315D01*
X043792Y020268D01*
X043792Y020168D02*
X043744Y020168D01*
X043792Y020168D02*
X043887Y020073D01*
X044030Y020073D01*
X043887Y020073D02*
X043792Y019978D01*
X043744Y019978D01*
X043792Y019458D02*
X043839Y019458D01*
X043887Y019410D01*
X043934Y019458D01*
X043982Y019458D01*
X044030Y019410D01*
X044030Y019315D01*
X043982Y019268D01*
X043887Y019363D02*
X043887Y019410D01*
X043792Y019458D02*
X043744Y019410D01*
X043744Y019315D01*
X043792Y019268D01*
X043792Y019168D02*
X043744Y019168D01*
X043792Y019168D02*
X043887Y019073D01*
X044030Y019073D01*
X043887Y019073D02*
X043792Y018978D01*
X043744Y018978D01*
X043887Y018458D02*
X043887Y018268D01*
X043744Y018410D01*
X044030Y018410D01*
X043792Y018168D02*
X043744Y018168D01*
X043792Y018168D02*
X043887Y018073D01*
X044030Y018073D01*
X043887Y018073D02*
X043792Y017978D01*
X043744Y017978D01*
X043744Y017458D02*
X043744Y017268D01*
X043887Y017268D01*
X043839Y017363D01*
X043839Y017410D01*
X043887Y017458D01*
X043982Y017458D01*
X044030Y017410D01*
X044030Y017315D01*
X043982Y017268D01*
X044030Y017073D02*
X043887Y017073D01*
X043792Y017168D01*
X043744Y017168D01*
X043887Y017073D02*
X043792Y016978D01*
X043744Y016978D01*
X043744Y016458D02*
X043792Y016363D01*
X043887Y016268D01*
X043887Y016410D01*
X043934Y016458D01*
X043982Y016458D01*
X044030Y016410D01*
X044030Y016315D01*
X043982Y016268D01*
X043887Y016268D01*
X043792Y016168D02*
X043744Y016168D01*
X043792Y016168D02*
X043887Y016073D01*
X044030Y016073D01*
X043887Y016073D02*
X043792Y015978D01*
X043744Y015978D01*
X043744Y015458D02*
X043792Y015458D01*
X043982Y015268D01*
X044030Y015268D01*
X044030Y015073D02*
X043887Y015073D01*
X043792Y015168D01*
X043744Y015168D01*
X043744Y015268D02*
X043744Y015458D01*
X043887Y015073D02*
X043792Y014978D01*
X043744Y014978D01*
X043792Y014458D02*
X043839Y014458D01*
X043887Y014410D01*
X043887Y014315D01*
X043839Y014268D01*
X043792Y014268D01*
X043744Y014315D01*
X043744Y014410D01*
X043792Y014458D01*
X043887Y014410D02*
X043934Y014458D01*
X043982Y014458D01*
X044030Y014410D01*
X044030Y014315D01*
X043982Y014268D01*
X043934Y014268D01*
X043887Y014315D01*
X043792Y014168D02*
X043744Y014168D01*
X043792Y014168D02*
X043887Y014073D01*
X044030Y014073D01*
X043887Y014073D02*
X043792Y013978D01*
X043744Y013978D01*
X043792Y013458D02*
X043744Y013410D01*
X043744Y013315D01*
X043792Y013268D01*
X043839Y013268D01*
X043887Y013315D01*
X043887Y013458D01*
X043982Y013458D02*
X043792Y013458D01*
X043982Y013458D02*
X044030Y013410D01*
X044030Y013315D01*
X043982Y013268D01*
X044030Y013168D02*
X043744Y012978D01*
X043744Y013168D02*
X044030Y012978D01*
X043982Y012603D02*
X044030Y012555D01*
X044030Y012460D01*
X043982Y012413D01*
X043792Y012603D01*
X043982Y012603D01*
X043792Y012603D02*
X043744Y012555D01*
X043744Y012460D01*
X043792Y012413D01*
X043982Y012413D01*
X044030Y012313D02*
X044030Y012123D01*
X044030Y012218D02*
X043744Y012218D01*
X043839Y012123D01*
X043744Y012023D02*
X044030Y011833D01*
X044030Y012023D02*
X043744Y011833D01*
X043744Y011508D02*
X044030Y011508D01*
X044030Y011413D02*
X044030Y011603D01*
X043839Y011413D02*
X043744Y011508D01*
X043744Y011218D02*
X044030Y011218D01*
X044030Y011123D02*
X044030Y011313D01*
X043839Y011123D02*
X043744Y011218D01*
X043744Y011023D02*
X044030Y010833D01*
X044030Y011023D02*
X043744Y010833D01*
X043792Y010603D02*
X043744Y010555D01*
X043744Y010460D01*
X043792Y010413D01*
X043792Y010603D02*
X043839Y010603D01*
X044030Y010413D01*
X044030Y010603D01*
X044030Y010313D02*
X044030Y010123D01*
X044030Y010218D02*
X043744Y010218D01*
X043839Y010123D01*
X043744Y010023D02*
X044030Y009833D01*
X044030Y010023D02*
X043744Y009833D01*
X043744Y009603D02*
X043744Y009413D01*
X043744Y009508D02*
X044030Y009508D01*
X043982Y009313D02*
X044030Y009265D01*
X044030Y009170D01*
X043982Y009123D01*
X043887Y009170D02*
X043887Y009265D01*
X043934Y009313D01*
X043982Y009313D01*
X043887Y009170D02*
X043839Y009123D01*
X043792Y009123D01*
X043744Y009170D01*
X043744Y009265D01*
X043792Y009313D01*
X043792Y009023D02*
X043887Y009023D01*
X043934Y008975D01*
X043934Y008833D01*
X043934Y008928D02*
X044030Y009023D01*
X044030Y008833D02*
X043744Y008833D01*
X043744Y008975D01*
X043792Y009023D01*
X043792Y008603D02*
X043744Y008555D01*
X043744Y008413D01*
X044030Y008413D01*
X044030Y008555D01*
X043982Y008603D01*
X043792Y008603D01*
X043744Y008313D02*
X044030Y008313D01*
X043744Y008123D01*
X044030Y008123D01*
X043982Y008023D02*
X043887Y008023D01*
X043887Y007928D01*
X043982Y008023D02*
X044030Y007975D01*
X044030Y007880D01*
X043982Y007833D01*
X043792Y007833D01*
X043744Y007880D01*
X043744Y007975D01*
X043792Y008023D01*
X043792Y007603D02*
X043839Y007603D01*
X043887Y007555D01*
X043934Y007603D01*
X043982Y007603D01*
X044030Y007555D01*
X044030Y007460D01*
X043982Y007413D01*
X043934Y007313D02*
X043744Y007313D01*
X043792Y007413D02*
X043744Y007460D01*
X043744Y007555D01*
X043792Y007603D01*
X043887Y007555D02*
X043887Y007508D01*
X043934Y007313D02*
X044030Y007218D01*
X043934Y007123D01*
X043744Y007123D01*
X043792Y007023D02*
X043839Y007023D01*
X043887Y006975D01*
X043934Y007023D01*
X043982Y007023D01*
X044030Y006975D01*
X044030Y006880D01*
X043982Y006833D01*
X043887Y006928D02*
X043887Y006975D01*
X043792Y007023D02*
X043744Y006975D01*
X043744Y006880D01*
X043792Y006833D01*
X043744Y006555D02*
X044030Y006555D01*
X043744Y006365D01*
X044030Y006365D01*
X044030Y006266D02*
X044030Y006171D01*
X044030Y006219D02*
X043744Y006219D01*
X043744Y006266D02*
X043744Y006171D01*
X043744Y006071D02*
X043934Y006071D01*
X044030Y005976D01*
X043934Y005881D01*
X043744Y005881D01*
X045260Y005573D02*
X045450Y005288D01*
X045550Y005288D02*
X045740Y005288D01*
X045645Y005288D02*
X045645Y005573D01*
X045550Y005478D01*
X045450Y005573D02*
X045260Y005288D01*
X045840Y005288D02*
X045840Y005335D01*
X046030Y005525D01*
X046030Y005573D01*
X045840Y005573D01*
X046260Y005573D02*
X046450Y005288D01*
X046550Y005288D02*
X046740Y005288D01*
X046645Y005288D02*
X046645Y005573D01*
X046550Y005478D01*
X046450Y005573D02*
X046260Y005288D01*
X046840Y005335D02*
X046840Y005383D01*
X046888Y005430D01*
X046983Y005430D01*
X047030Y005383D01*
X047030Y005335D01*
X046983Y005288D01*
X046888Y005288D01*
X046840Y005335D01*
X046888Y005430D02*
X046840Y005478D01*
X046840Y005525D01*
X046888Y005573D01*
X046983Y005573D01*
X047030Y005525D01*
X047030Y005478D01*
X046983Y005430D01*
X047260Y005288D02*
X047450Y005573D01*
X047550Y005478D02*
X047645Y005573D01*
X047645Y005288D01*
X047550Y005288D02*
X047740Y005288D01*
X047840Y005335D02*
X047888Y005288D01*
X047983Y005288D01*
X048030Y005335D01*
X048030Y005525D01*
X047983Y005573D01*
X047888Y005573D01*
X047840Y005525D01*
X047840Y005478D01*
X047888Y005430D01*
X048030Y005430D01*
X048260Y005288D02*
X048450Y005573D01*
X048550Y005525D02*
X048598Y005573D01*
X048693Y005573D01*
X048740Y005525D01*
X048740Y005478D01*
X048550Y005288D01*
X048740Y005288D01*
X048840Y005335D02*
X049030Y005525D01*
X049030Y005335D01*
X048983Y005288D01*
X048888Y005288D01*
X048840Y005335D01*
X048840Y005525D01*
X048888Y005573D01*
X048983Y005573D01*
X049030Y005525D01*
X049260Y005573D02*
X049450Y005288D01*
X049550Y005288D02*
X049740Y005478D01*
X049740Y005525D01*
X049693Y005573D01*
X049598Y005573D01*
X049550Y005525D01*
X049450Y005573D02*
X049260Y005288D01*
X049550Y005288D02*
X049740Y005288D01*
X049840Y005288D02*
X050030Y005288D01*
X049935Y005288D02*
X049935Y005573D01*
X049840Y005478D01*
X050260Y005573D02*
X050450Y005288D01*
X050550Y005288D02*
X050740Y005478D01*
X050740Y005525D01*
X050693Y005573D01*
X050598Y005573D01*
X050550Y005525D01*
X050450Y005573D02*
X050260Y005288D01*
X050550Y005288D02*
X050740Y005288D01*
X050840Y005288D02*
X051030Y005478D01*
X051030Y005525D01*
X050983Y005573D01*
X050888Y005573D01*
X050840Y005525D01*
X050840Y005288D02*
X051030Y005288D01*
X048450Y005288D02*
X048260Y005573D01*
X047450Y005288D02*
X047260Y005573D01*
X047405Y007788D02*
X047405Y008073D01*
X047548Y008073D01*
X047595Y008025D01*
X047595Y007930D01*
X047548Y007883D01*
X047405Y007883D01*
X047695Y007835D02*
X047743Y007788D01*
X047838Y007788D01*
X047885Y007835D01*
X047885Y007883D01*
X047838Y007930D01*
X047790Y007930D01*
X047838Y007930D02*
X047885Y007978D01*
X047885Y008025D01*
X047838Y008073D01*
X047743Y008073D01*
X047695Y008025D01*
X048405Y008073D02*
X048405Y007788D01*
X048405Y007883D02*
X048548Y007883D01*
X048595Y007930D01*
X048595Y008025D01*
X048548Y008073D01*
X048405Y008073D01*
X048695Y007930D02*
X048885Y007930D01*
X048838Y007788D02*
X048838Y008073D01*
X048695Y007930D01*
X049405Y007883D02*
X049548Y007883D01*
X049595Y007930D01*
X049595Y008025D01*
X049548Y008073D01*
X049405Y008073D01*
X049405Y007788D01*
X049695Y007835D02*
X049743Y007788D01*
X049838Y007788D01*
X049885Y007835D01*
X049885Y007930D01*
X049838Y007978D01*
X049790Y007978D01*
X049695Y007930D01*
X049695Y008073D01*
X049885Y008073D01*
X050405Y008073D02*
X050405Y007788D01*
X050405Y007883D02*
X050548Y007883D01*
X050595Y007930D01*
X050595Y008025D01*
X050548Y008073D01*
X050405Y008073D01*
X050695Y007930D02*
X050838Y007930D01*
X050885Y007883D01*
X050885Y007835D01*
X050838Y007788D01*
X050743Y007788D01*
X050695Y007835D01*
X050695Y007930D01*
X050790Y008025D01*
X050885Y008073D01*
X046885Y008025D02*
X046838Y008073D01*
X046743Y008073D01*
X046695Y008025D01*
X046595Y008025D02*
X046595Y007930D01*
X046548Y007883D01*
X046405Y007883D01*
X046405Y007788D02*
X046405Y008073D01*
X046548Y008073D01*
X046595Y008025D01*
X046695Y007788D02*
X046885Y007978D01*
X046885Y008025D01*
X046885Y007788D02*
X046695Y007788D01*
X045885Y007788D02*
X045695Y007788D01*
X045790Y007788D02*
X045790Y008073D01*
X045695Y007978D01*
X045595Y008025D02*
X045595Y007930D01*
X045548Y007883D01*
X045405Y007883D01*
X045405Y007788D02*
X045405Y008073D01*
X045548Y008073D01*
X045595Y008025D01*
X056244Y007978D02*
X056530Y008168D01*
X056482Y008268D02*
X056530Y008315D01*
X056530Y008410D01*
X056482Y008458D01*
X056434Y008458D01*
X056387Y008410D01*
X056387Y008363D01*
X056387Y008410D02*
X056339Y008458D01*
X056292Y008458D01*
X056244Y008410D01*
X056244Y008315D01*
X056292Y008268D01*
X056244Y008168D02*
X056530Y007978D01*
X056530Y007458D02*
X056530Y007268D01*
X056339Y007458D01*
X056292Y007458D01*
X056244Y007410D01*
X056244Y007315D01*
X056292Y007268D01*
X056244Y007168D02*
X056530Y006978D01*
X056530Y007168D02*
X056244Y006978D01*
X056530Y006458D02*
X056530Y006268D01*
X056530Y006363D02*
X056244Y006363D01*
X056339Y006268D01*
X056244Y006168D02*
X056530Y005978D01*
X056530Y006168D02*
X056244Y005978D01*
X056244Y008978D02*
X056530Y009168D01*
X056387Y009268D02*
X056387Y009458D01*
X056530Y009410D02*
X056244Y009410D01*
X056387Y009268D01*
X056244Y009168D02*
X056530Y008978D01*
X056530Y009978D02*
X056244Y010168D01*
X056244Y010268D02*
X056387Y010268D01*
X056339Y010363D01*
X056339Y010410D01*
X056387Y010458D01*
X056482Y010458D01*
X056530Y010410D01*
X056530Y010315D01*
X056482Y010268D01*
X056530Y010168D02*
X056244Y009978D01*
X056244Y010268D02*
X056244Y010458D01*
X056244Y010978D02*
X056530Y011168D01*
X056482Y011268D02*
X056530Y011315D01*
X056530Y011410D01*
X056482Y011458D01*
X056434Y011458D01*
X056387Y011410D01*
X056387Y011268D01*
X056482Y011268D01*
X056387Y011268D02*
X056292Y011363D01*
X056244Y011458D01*
X056244Y011168D02*
X056530Y010978D01*
X056530Y011978D02*
X056244Y012168D01*
X056244Y012268D02*
X056244Y012458D01*
X056292Y012458D01*
X056482Y012268D01*
X056530Y012268D01*
X056530Y012168D02*
X056244Y011978D01*
X056244Y012978D02*
X056530Y013168D01*
X056482Y013268D02*
X056434Y013268D01*
X056387Y013315D01*
X056387Y013410D01*
X056434Y013458D01*
X056482Y013458D01*
X056530Y013410D01*
X056530Y013315D01*
X056482Y013268D01*
X056387Y013315D02*
X056339Y013268D01*
X056292Y013268D01*
X056244Y013315D01*
X056244Y013410D01*
X056292Y013458D01*
X056339Y013458D01*
X056387Y013410D01*
X056244Y013168D02*
X056530Y012978D01*
X056292Y013978D02*
X056387Y014073D01*
X056530Y014073D01*
X056387Y014073D02*
X056292Y014168D01*
X056244Y014168D01*
X056292Y014268D02*
X056339Y014268D01*
X056387Y014315D01*
X056387Y014458D01*
X056482Y014458D02*
X056292Y014458D01*
X056244Y014410D01*
X056244Y014315D01*
X056292Y014268D01*
X056482Y014268D02*
X056530Y014315D01*
X056530Y014410D01*
X056482Y014458D01*
X056292Y014833D02*
X056387Y014928D01*
X056530Y014928D01*
X056387Y014928D02*
X056292Y015023D01*
X056244Y015023D01*
X056339Y015123D02*
X056244Y015218D01*
X056530Y015218D01*
X056530Y015123D02*
X056530Y015313D01*
X056482Y015413D02*
X056292Y015603D01*
X056482Y015603D01*
X056530Y015555D01*
X056530Y015460D01*
X056482Y015413D01*
X056292Y015413D01*
X056244Y015460D01*
X056244Y015555D01*
X056292Y015603D01*
X056292Y015833D02*
X056387Y015928D01*
X056530Y015928D01*
X056387Y015928D02*
X056292Y016023D01*
X056244Y016023D01*
X056339Y016123D02*
X056244Y016218D01*
X056530Y016218D01*
X056530Y016123D02*
X056530Y016313D01*
X056530Y016413D02*
X056530Y016603D01*
X056530Y016508D02*
X056244Y016508D01*
X056339Y016413D01*
X056292Y016833D02*
X056387Y016928D01*
X056530Y016928D01*
X056387Y016928D02*
X056292Y017023D01*
X056244Y017023D01*
X056339Y017123D02*
X056244Y017218D01*
X056530Y017218D01*
X056530Y017123D02*
X056530Y017313D01*
X056530Y017413D02*
X056339Y017603D01*
X056292Y017603D01*
X056244Y017555D01*
X056244Y017460D01*
X056292Y017413D01*
X056530Y017413D02*
X056530Y017603D01*
X056530Y017833D02*
X056244Y017833D01*
X056244Y017975D01*
X056292Y018023D01*
X056387Y018023D01*
X056434Y017975D01*
X056434Y017833D01*
X056434Y017928D02*
X056530Y018023D01*
X056482Y018123D02*
X056530Y018170D01*
X056530Y018265D01*
X056482Y018313D01*
X056434Y018313D01*
X056387Y018265D01*
X056387Y018170D01*
X056339Y018123D01*
X056292Y018123D01*
X056244Y018170D01*
X056244Y018265D01*
X056292Y018313D01*
X056244Y018413D02*
X056244Y018603D01*
X056244Y018508D02*
X056530Y018508D01*
X056482Y018833D02*
X056530Y018880D01*
X056530Y018975D01*
X056482Y019023D01*
X056387Y019023D01*
X056387Y018928D01*
X056292Y019023D02*
X056244Y018975D01*
X056244Y018880D01*
X056292Y018833D01*
X056482Y018833D01*
X056530Y019123D02*
X056244Y019123D01*
X056530Y019313D01*
X056244Y019313D01*
X056244Y019413D02*
X056244Y019555D01*
X056292Y019603D01*
X056482Y019603D01*
X056530Y019555D01*
X056530Y019413D01*
X056244Y019413D01*
X056292Y019833D02*
X056244Y019880D01*
X056244Y019975D01*
X056292Y020023D01*
X056339Y020023D01*
X056387Y019975D01*
X056434Y020023D01*
X056482Y020023D01*
X056530Y019975D01*
X056530Y019880D01*
X056482Y019833D01*
X056387Y019928D02*
X056387Y019975D01*
X056434Y020123D02*
X056530Y020218D01*
X056434Y020313D01*
X056244Y020313D01*
X056292Y020413D02*
X056244Y020460D01*
X056244Y020555D01*
X056292Y020603D01*
X056339Y020603D01*
X056387Y020555D01*
X056434Y020603D01*
X056482Y020603D01*
X056530Y020555D01*
X056530Y020460D01*
X056482Y020413D01*
X056387Y020508D02*
X056387Y020555D01*
X056434Y020881D02*
X056530Y020976D01*
X056434Y021071D01*
X056244Y021071D01*
X056244Y021171D02*
X056244Y021266D01*
X056244Y021219D02*
X056530Y021219D01*
X056530Y021266D02*
X056530Y021171D01*
X056530Y021365D02*
X056244Y021365D01*
X056530Y021555D01*
X056244Y021555D01*
X056244Y020881D02*
X056434Y020881D01*
X056434Y020123D02*
X056244Y020123D01*
X056244Y016833D02*
X056292Y016833D01*
X056292Y015833D02*
X056244Y015833D01*
X056244Y014833D02*
X056292Y014833D01*
X056292Y013978D02*
X056244Y013978D01*
D19*
X056680Y021680D02*
X043680Y021680D01*
X043680Y005180D01*
X056680Y005180D01*
X056680Y021680D01*
D20*
X056621Y003361D02*
X057015Y003361D01*
X056424Y003361D02*
X056030Y003361D01*
X055637Y003361D02*
X055243Y003361D01*
X055046Y003361D02*
X054652Y003361D01*
X054456Y003361D02*
X054062Y003361D01*
X054652Y002574D02*
X055637Y002574D01*
X056030Y002574D02*
X056818Y002574D01*
X057015Y002377D01*
X057015Y001983D01*
X056818Y001786D01*
X056030Y001786D01*
X055637Y001786D02*
X054652Y001786D01*
X054652Y000999D02*
X055046Y000999D01*
X055243Y000999D02*
X055637Y000999D01*
X056030Y000999D02*
X056424Y000999D01*
X056621Y000999D02*
X057015Y000999D01*
X054456Y000999D02*
X054062Y000999D01*
M02*
