G75*
%MOIN*%
%OFA0B0*%
%FSLAX24Y24*%
%IPPOS*%
%LPD*%
%AMOC8*
5,1,8,0,0,1.08239X$1,22.5*
%
%ADD10C,0.0705*%
%ADD11OC8,0.0520*%
%ADD12C,0.0765*%
%ADD13C,0.0554*%
%ADD14C,0.0520*%
%ADD15C,0.0740*%
%ADD16C,0.0700*%
%ADD17C,0.0800*%
%ADD18C,0.0160*%
%ADD19C,0.0140*%
%ADD20C,0.0400*%
%ADD21C,0.0396*%
D10*
X001368Y002700D02*
X002073Y002700D01*
X006288Y002700D02*
X006993Y002700D01*
X008368Y002700D02*
X009073Y002700D01*
X009073Y004660D02*
X008368Y004660D01*
X006993Y004660D02*
X006288Y004660D01*
X002073Y004660D02*
X001368Y004660D01*
X001368Y008700D02*
X002073Y008700D01*
X006288Y008700D02*
X006993Y008700D01*
X008368Y008700D02*
X009073Y008700D01*
X009073Y010660D02*
X008368Y010660D01*
X006993Y010660D02*
X006288Y010660D01*
X002073Y010660D02*
X001368Y010660D01*
X013288Y010660D02*
X013993Y010660D01*
X015368Y010660D02*
X016073Y010660D01*
X020288Y010660D02*
X020993Y010660D01*
X022368Y010660D02*
X023073Y010660D01*
X027288Y010660D02*
X027993Y010660D01*
X029368Y010660D02*
X030073Y010660D01*
X034288Y010660D02*
X034993Y010660D01*
X036368Y010660D02*
X037073Y010660D01*
X041288Y010660D02*
X041993Y010660D01*
X041993Y008700D02*
X041288Y008700D01*
X037073Y008700D02*
X036368Y008700D01*
X034993Y008700D02*
X034288Y008700D01*
X030073Y008700D02*
X029368Y008700D01*
X027993Y008700D02*
X027288Y008700D01*
X023073Y008700D02*
X022368Y008700D01*
X020993Y008700D02*
X020288Y008700D01*
X016073Y008700D02*
X015368Y008700D01*
X013993Y008700D02*
X013288Y008700D01*
X013288Y004660D02*
X013993Y004660D01*
X015368Y004660D02*
X016073Y004660D01*
X020288Y004660D02*
X020993Y004660D01*
X022368Y004660D02*
X023073Y004660D01*
X027288Y004660D02*
X027993Y004660D01*
X029368Y004660D02*
X030073Y004660D01*
X034288Y004660D02*
X034993Y004660D01*
X036368Y004660D02*
X037073Y004660D01*
X041288Y004660D02*
X041993Y004660D01*
X041993Y002700D02*
X041288Y002700D01*
X037073Y002700D02*
X036368Y002700D01*
X034993Y002700D02*
X034288Y002700D01*
X030073Y002700D02*
X029368Y002700D01*
X027993Y002700D02*
X027288Y002700D01*
X023073Y002700D02*
X022368Y002700D01*
X020993Y002700D02*
X020288Y002700D01*
X016073Y002700D02*
X015368Y002700D01*
X013993Y002700D02*
X013288Y002700D01*
D11*
X013680Y013680D03*
X012680Y013680D03*
X011680Y013680D03*
X010680Y013680D03*
X009680Y013680D03*
X008680Y013680D03*
X006680Y013680D03*
X005680Y013680D03*
X004680Y013680D03*
X003680Y013680D03*
X002680Y013680D03*
X001680Y013680D03*
X016180Y013680D03*
X017180Y013680D03*
X019180Y013680D03*
X020180Y013680D03*
X023180Y013680D03*
X024180Y013680D03*
X026180Y013680D03*
X027180Y013680D03*
X030180Y013680D03*
X031180Y013680D03*
X033180Y013680D03*
X034180Y013680D03*
X037180Y013680D03*
X038180Y013680D03*
X040180Y013680D03*
X041180Y013680D03*
D12*
X041180Y018680D03*
X037180Y018680D03*
X034180Y018680D03*
X030180Y018680D03*
X032180Y020680D03*
X030180Y022680D03*
X034180Y022680D03*
X037180Y022680D03*
X041180Y022680D03*
X039180Y020680D03*
X013180Y018680D03*
X009180Y018680D03*
X006180Y018680D03*
X002180Y018680D03*
X004180Y020680D03*
X002180Y022680D03*
X006180Y022680D03*
X009180Y022680D03*
X013180Y022680D03*
X011180Y020680D03*
D13*
X016930Y018180D03*
X017930Y018180D03*
X018930Y018180D03*
X019930Y018180D03*
X019430Y017180D03*
X018430Y017180D03*
X017430Y017180D03*
X016430Y017180D03*
X023430Y017180D03*
X024430Y017180D03*
X025430Y017180D03*
X026430Y017180D03*
X025930Y018180D03*
X026930Y018180D03*
X024930Y018180D03*
X023930Y018180D03*
D14*
X032180Y017440D02*
X032180Y016920D01*
X033180Y016920D02*
X033180Y017440D01*
X034180Y017440D02*
X034180Y016920D01*
X035180Y016920D02*
X035180Y017440D01*
X036180Y017440D02*
X036180Y016920D01*
X037180Y016920D02*
X037180Y017440D01*
X038180Y017440D02*
X038180Y016920D01*
X039180Y016920D02*
X039180Y017440D01*
X011180Y017440D02*
X011180Y016920D01*
X010180Y016920D02*
X010180Y017440D01*
X009180Y017440D02*
X009180Y016920D01*
X008180Y016920D02*
X008180Y017440D01*
X007180Y017440D02*
X007180Y016920D01*
X006180Y016920D02*
X006180Y017440D01*
X005180Y017440D02*
X005180Y016920D01*
X004180Y016920D02*
X004180Y017440D01*
D15*
X044680Y017180D03*
X044680Y016180D03*
X044680Y015180D03*
X044680Y014180D03*
X044680Y013180D03*
X044680Y012180D03*
X044680Y011180D03*
X044680Y010180D03*
X044680Y009180D03*
X044680Y008180D03*
X044680Y007180D03*
X045680Y007180D03*
X046680Y007180D03*
X047680Y007180D03*
X048680Y007180D03*
X049680Y007180D03*
X050680Y007180D03*
X050680Y006180D03*
X049680Y006180D03*
X048680Y006180D03*
X047680Y006180D03*
X046680Y006180D03*
X045680Y006180D03*
X044680Y006180D03*
X055680Y006180D03*
X055680Y007180D03*
X055680Y008180D03*
X055680Y009180D03*
X055680Y010180D03*
X055680Y011180D03*
X055680Y012180D03*
X055680Y013180D03*
X055680Y014180D03*
X055680Y015180D03*
X055680Y016180D03*
X055680Y017180D03*
X055680Y018180D03*
X055680Y019180D03*
X055680Y020180D03*
X055680Y021180D03*
X044680Y021180D03*
X044680Y020180D03*
X044680Y019180D03*
X044680Y018180D03*
D16*
X052629Y004109D02*
X053329Y004109D01*
X054180Y002530D02*
X054180Y001830D01*
D17*
X051818Y001780D02*
X051818Y002580D01*
D18*
X000660Y000660D02*
X000660Y024196D01*
X056570Y024196D01*
X056570Y013615D01*
X056181Y014004D01*
X056210Y014075D01*
X056210Y014285D01*
X056129Y014480D01*
X055980Y014629D01*
X055858Y014680D01*
X055980Y014731D01*
X056129Y014880D01*
X056210Y015075D01*
X056210Y015285D01*
X056129Y015480D01*
X055980Y015629D01*
X055858Y015680D01*
X055980Y015731D01*
X056129Y015880D01*
X056210Y016075D01*
X056210Y016285D01*
X056129Y016480D01*
X055980Y016629D01*
X055858Y016680D01*
X055980Y016731D01*
X056129Y016880D01*
X056210Y017075D01*
X056210Y017285D01*
X056129Y017480D01*
X055980Y017629D01*
X055858Y017680D01*
X055980Y017731D01*
X056129Y017880D01*
X056210Y018075D01*
X056210Y018285D01*
X056129Y018480D01*
X055980Y018629D01*
X055947Y018643D01*
X055994Y018667D01*
X056071Y018722D01*
X056138Y018789D01*
X056193Y018866D01*
X056236Y018950D01*
X056265Y019039D01*
X056280Y019133D01*
X056280Y019160D01*
X055700Y019160D01*
X055700Y019200D01*
X056280Y019200D01*
X056280Y019227D01*
X056265Y019320D01*
X056236Y019410D01*
X056193Y019494D01*
X056138Y019571D01*
X056071Y019638D01*
X055994Y019693D01*
X055947Y019717D01*
X055980Y019731D01*
X056129Y019880D01*
X056210Y020075D01*
X056210Y020285D01*
X056129Y020480D01*
X055980Y020629D01*
X055858Y020680D01*
X055980Y020731D01*
X056129Y020880D01*
X056210Y021075D01*
X056210Y021285D01*
X056129Y021480D01*
X055980Y021629D01*
X055785Y021710D01*
X055575Y021710D01*
X055380Y021629D01*
X055231Y021480D01*
X055150Y021285D01*
X055150Y021075D01*
X055231Y020880D01*
X055380Y020731D01*
X055502Y020680D01*
X055380Y020629D01*
X055231Y020480D01*
X055150Y020285D01*
X055150Y020075D01*
X055231Y019880D01*
X055380Y019731D01*
X055413Y019717D01*
X055366Y019693D01*
X055289Y019638D01*
X055222Y019571D01*
X055167Y019494D01*
X055124Y019410D01*
X055095Y019320D01*
X055080Y019227D01*
X055080Y019200D01*
X055660Y019200D01*
X055660Y019160D01*
X055080Y019160D01*
X055080Y019133D01*
X055095Y019039D01*
X055124Y018950D01*
X055167Y018866D01*
X055222Y018789D01*
X055289Y018722D01*
X055366Y018667D01*
X055413Y018643D01*
X055380Y018629D01*
X055231Y018480D01*
X055150Y018285D01*
X055150Y018075D01*
X055231Y017880D01*
X055380Y017731D01*
X055502Y017680D01*
X055380Y017629D01*
X055231Y017480D01*
X055150Y017285D01*
X055150Y017075D01*
X055231Y016880D01*
X055380Y016731D01*
X055502Y016680D01*
X055380Y016629D01*
X055231Y016480D01*
X055150Y016285D01*
X055150Y016075D01*
X055231Y015880D01*
X055380Y015731D01*
X055502Y015680D01*
X055380Y015629D01*
X055231Y015480D01*
X055150Y015285D01*
X055150Y015075D01*
X055231Y014880D01*
X055380Y014731D01*
X055502Y014680D01*
X055380Y014629D01*
X055231Y014480D01*
X055150Y014285D01*
X055150Y014075D01*
X055231Y013880D01*
X055380Y013731D01*
X055502Y013680D01*
X055380Y013629D01*
X055231Y013480D01*
X055150Y013285D01*
X055150Y013075D01*
X055231Y012880D01*
X055380Y012731D01*
X055502Y012680D01*
X055380Y012629D01*
X055231Y012480D01*
X055150Y012285D01*
X055150Y012075D01*
X055178Y012007D01*
X054840Y012345D01*
X054840Y012452D01*
X054785Y012584D01*
X054684Y012685D01*
X054552Y012740D01*
X054408Y012740D01*
X054276Y012685D01*
X054175Y012584D01*
X054120Y012452D01*
X054120Y012308D01*
X054175Y012176D01*
X054276Y012075D01*
X054408Y012020D01*
X054515Y012020D01*
X055179Y011356D01*
X055150Y011285D01*
X055150Y011075D01*
X055231Y010880D01*
X055380Y010731D01*
X055502Y010680D01*
X055380Y010629D01*
X055231Y010480D01*
X055150Y010285D01*
X055150Y010075D01*
X055231Y009880D01*
X055380Y009731D01*
X055502Y009680D01*
X055380Y009629D01*
X055231Y009480D01*
X055150Y009285D01*
X055150Y009075D01*
X055231Y008880D01*
X055380Y008731D01*
X055502Y008680D01*
X055380Y008629D01*
X055231Y008480D01*
X055150Y008285D01*
X055150Y008075D01*
X055231Y007880D01*
X055380Y007731D01*
X055502Y007680D01*
X055380Y007629D01*
X055231Y007480D01*
X055150Y007285D01*
X055150Y007075D01*
X055231Y006880D01*
X055380Y006731D01*
X055502Y006680D01*
X055380Y006629D01*
X055231Y006480D01*
X055150Y006285D01*
X055150Y006075D01*
X055231Y005880D01*
X055380Y005731D01*
X055575Y005650D01*
X055625Y005650D01*
X055550Y005575D01*
X055550Y003799D01*
X055452Y003840D01*
X055308Y003840D01*
X055176Y003785D01*
X055075Y003684D01*
X055020Y003552D01*
X055020Y003445D01*
X054885Y003310D01*
X054750Y003175D01*
X054750Y002639D01*
X054746Y002666D01*
X054718Y002753D01*
X054676Y002834D01*
X054622Y002908D01*
X054558Y002972D01*
X054484Y003026D01*
X054403Y003068D01*
X054316Y003096D01*
X054226Y003110D01*
X054180Y003110D01*
X054180Y002180D01*
X054180Y002180D01*
X054180Y001250D01*
X054226Y001250D01*
X054316Y001264D01*
X054403Y001292D01*
X054484Y001334D01*
X054558Y001388D01*
X054622Y001452D01*
X054676Y001526D01*
X054718Y001607D01*
X054746Y001694D01*
X054750Y001721D01*
X054750Y001575D01*
X054385Y001210D01*
X050010Y001210D01*
X050010Y001901D01*
X050085Y001976D01*
X050140Y002108D01*
X050140Y002252D01*
X050085Y002384D01*
X049984Y002485D01*
X049852Y002540D01*
X049708Y002540D01*
X049610Y002499D01*
X049610Y003985D01*
X051475Y005850D01*
X051610Y005985D01*
X051610Y007025D01*
X051685Y006950D01*
X052120Y006515D01*
X052120Y006408D01*
X052175Y006276D01*
X052276Y006175D01*
X052408Y006120D01*
X052552Y006120D01*
X052684Y006175D01*
X052785Y006276D01*
X052840Y006408D01*
X052840Y006552D01*
X052785Y006684D01*
X052684Y006785D01*
X052552Y006840D01*
X052445Y006840D01*
X052010Y007275D01*
X052010Y011025D01*
X052085Y010950D01*
X052920Y010115D01*
X052920Y010008D01*
X052975Y009876D01*
X053076Y009775D01*
X053208Y009720D01*
X053352Y009720D01*
X053450Y009761D01*
X053450Y007485D01*
X053585Y007350D01*
X053720Y007215D01*
X053720Y007108D01*
X053775Y006976D01*
X053876Y006875D01*
X054008Y006820D01*
X054152Y006820D01*
X054284Y006875D01*
X054385Y006976D01*
X054440Y007108D01*
X054440Y007252D01*
X054385Y007384D01*
X054284Y007485D01*
X054152Y007540D01*
X054045Y007540D01*
X053910Y007675D01*
X053910Y019401D01*
X053985Y019476D01*
X054040Y019608D01*
X054040Y019752D01*
X053985Y019884D01*
X053884Y019985D01*
X053752Y020040D01*
X053608Y020040D01*
X053476Y019985D01*
X053375Y019884D01*
X053320Y019752D01*
X053320Y019608D01*
X053375Y019476D01*
X053450Y019401D01*
X053450Y010399D01*
X053352Y010440D01*
X053245Y010440D01*
X052410Y011275D01*
X053450Y011275D01*
X053450Y011117D02*
X052569Y011117D01*
X052727Y010958D02*
X053450Y010958D01*
X053450Y010800D02*
X052886Y010800D01*
X053044Y010641D02*
X053450Y010641D01*
X053450Y010483D02*
X053203Y010483D01*
X052711Y010324D02*
X052010Y010324D01*
X052010Y010166D02*
X052869Y010166D01*
X052921Y010007D02*
X052010Y010007D01*
X052010Y009849D02*
X053002Y009849D01*
X053450Y009690D02*
X052010Y009690D01*
X052010Y009532D02*
X053450Y009532D01*
X053450Y009373D02*
X052010Y009373D01*
X052010Y009215D02*
X053450Y009215D01*
X053450Y009056D02*
X052010Y009056D01*
X052010Y008898D02*
X053450Y008898D01*
X053450Y008739D02*
X052010Y008739D01*
X052010Y008581D02*
X053450Y008581D01*
X053450Y008422D02*
X052010Y008422D01*
X052010Y008264D02*
X053450Y008264D01*
X053450Y008105D02*
X052010Y008105D01*
X052010Y007947D02*
X053450Y007947D01*
X053450Y007788D02*
X052010Y007788D01*
X052010Y007630D02*
X053450Y007630D01*
X053464Y007471D02*
X052010Y007471D01*
X052010Y007313D02*
X053622Y007313D01*
X053720Y007154D02*
X052131Y007154D01*
X052290Y006996D02*
X053767Y006996D01*
X053967Y006837D02*
X052559Y006837D01*
X052787Y006679D02*
X055499Y006679D01*
X055273Y006837D02*
X054193Y006837D01*
X054393Y006996D02*
X055183Y006996D01*
X055150Y007154D02*
X054440Y007154D01*
X054415Y007313D02*
X055161Y007313D01*
X055227Y007471D02*
X054298Y007471D01*
X053956Y007630D02*
X055380Y007630D01*
X055322Y007788D02*
X053910Y007788D01*
X053910Y007947D02*
X055203Y007947D01*
X055150Y008105D02*
X053910Y008105D01*
X053910Y008264D02*
X055150Y008264D01*
X055207Y008422D02*
X053910Y008422D01*
X053910Y008581D02*
X055331Y008581D01*
X055371Y008739D02*
X053910Y008739D01*
X053910Y008898D02*
X055223Y008898D01*
X055158Y009056D02*
X053910Y009056D01*
X053910Y009215D02*
X055150Y009215D01*
X055186Y009373D02*
X053910Y009373D01*
X053910Y009532D02*
X055282Y009532D01*
X055478Y009690D02*
X053910Y009690D01*
X053910Y009849D02*
X055262Y009849D01*
X055178Y010007D02*
X053910Y010007D01*
X053910Y010166D02*
X055150Y010166D01*
X055166Y010324D02*
X053910Y010324D01*
X053910Y010483D02*
X055233Y010483D01*
X055408Y010641D02*
X053910Y010641D01*
X053910Y010800D02*
X055311Y010800D01*
X055198Y010958D02*
X053910Y010958D01*
X053910Y011117D02*
X055150Y011117D01*
X055150Y011275D02*
X053910Y011275D01*
X053910Y011434D02*
X055101Y011434D01*
X054943Y011592D02*
X053910Y011592D01*
X053910Y011751D02*
X054784Y011751D01*
X054626Y011909D02*
X053910Y011909D01*
X053910Y012068D02*
X054294Y012068D01*
X054154Y012226D02*
X053910Y012226D01*
X053910Y012385D02*
X054120Y012385D01*
X054158Y012543D02*
X053910Y012543D01*
X053910Y012702D02*
X054315Y012702D01*
X054645Y012702D02*
X055450Y012702D01*
X055293Y012543D02*
X054802Y012543D01*
X054840Y012385D02*
X055191Y012385D01*
X055150Y012226D02*
X054959Y012226D01*
X055118Y012068D02*
X055153Y012068D01*
X055250Y012860D02*
X053910Y012860D01*
X053910Y013019D02*
X055173Y013019D01*
X055150Y013177D02*
X053910Y013177D01*
X053910Y013336D02*
X055171Y013336D01*
X055244Y013494D02*
X053910Y013494D01*
X053910Y013653D02*
X055436Y013653D01*
X055299Y013811D02*
X053910Y013811D01*
X053910Y013970D02*
X055194Y013970D01*
X055150Y014128D02*
X053910Y014128D01*
X053910Y014287D02*
X055150Y014287D01*
X055216Y014445D02*
X053910Y014445D01*
X053910Y014604D02*
X055354Y014604D01*
X055348Y014762D02*
X053910Y014762D01*
X053910Y014921D02*
X055214Y014921D01*
X055150Y015079D02*
X053910Y015079D01*
X053910Y015238D02*
X055150Y015238D01*
X055196Y015396D02*
X053910Y015396D01*
X053910Y015555D02*
X055305Y015555D01*
X055422Y015713D02*
X053910Y015713D01*
X053910Y015872D02*
X055239Y015872D01*
X055168Y016030D02*
X053910Y016030D01*
X053910Y016189D02*
X055150Y016189D01*
X055176Y016347D02*
X053910Y016347D01*
X053910Y016506D02*
X055256Y016506D01*
X055464Y016664D02*
X053910Y016664D01*
X053910Y016823D02*
X055288Y016823D01*
X055189Y016981D02*
X053910Y016981D01*
X053910Y017140D02*
X055150Y017140D01*
X055155Y017298D02*
X053910Y017298D01*
X053910Y017457D02*
X055221Y017457D01*
X055365Y017615D02*
X053910Y017615D01*
X053910Y017774D02*
X055337Y017774D01*
X055209Y017932D02*
X053910Y017932D01*
X053910Y018091D02*
X055150Y018091D01*
X055150Y018249D02*
X053910Y018249D01*
X053910Y018408D02*
X055201Y018408D01*
X055316Y018566D02*
X053910Y018566D01*
X053910Y018725D02*
X055287Y018725D01*
X055158Y018883D02*
X053910Y018883D01*
X053910Y019042D02*
X055094Y019042D01*
X055080Y019200D02*
X053910Y019200D01*
X053910Y019359D02*
X055107Y019359D01*
X055183Y019517D02*
X054002Y019517D01*
X054040Y019676D02*
X055341Y019676D01*
X055276Y019834D02*
X054006Y019834D01*
X053866Y019993D02*
X055184Y019993D01*
X055150Y020151D02*
X048934Y020151D01*
X048776Y020310D02*
X055160Y020310D01*
X055226Y020468D02*
X048617Y020468D01*
X048459Y020627D02*
X055377Y020627D01*
X055325Y020785D02*
X048300Y020785D01*
X048142Y020944D02*
X055204Y020944D01*
X055150Y021102D02*
X047983Y021102D01*
X047825Y021261D02*
X055150Y021261D01*
X055205Y021419D02*
X047666Y021419D01*
X047508Y021578D02*
X055328Y021578D01*
X056032Y021578D02*
X056570Y021578D01*
X056570Y021736D02*
X047349Y021736D01*
X047191Y021895D02*
X056570Y021895D01*
X056570Y022053D02*
X047032Y022053D01*
X046874Y022212D02*
X056570Y022212D01*
X056570Y022370D02*
X046715Y022370D01*
X046557Y022529D02*
X056570Y022529D01*
X056570Y022687D02*
X046398Y022687D01*
X046240Y022846D02*
X056570Y022846D01*
X056570Y023004D02*
X046081Y023004D01*
X045923Y023163D02*
X056570Y023163D01*
X056570Y023321D02*
X045764Y023321D01*
X045606Y023480D02*
X056570Y023480D01*
X056570Y023638D02*
X045447Y023638D01*
X045289Y023797D02*
X056570Y023797D01*
X056570Y023955D02*
X045130Y023955D01*
X045110Y023975D02*
X044975Y024110D01*
X009685Y024110D01*
X009550Y023975D01*
X009550Y023168D01*
X009501Y023204D01*
X009415Y023248D01*
X009323Y023277D01*
X009228Y023292D01*
X009228Y023292D01*
X009228Y022728D01*
X009132Y022728D01*
X009132Y023292D01*
X009037Y023277D01*
X008945Y023248D01*
X008859Y023204D01*
X008781Y023147D01*
X008713Y023079D01*
X008656Y023001D01*
X008612Y022915D01*
X008583Y022823D01*
X008568Y022728D01*
X008568Y022728D01*
X009132Y022728D01*
X009132Y022632D01*
X009228Y022632D01*
X009228Y022068D01*
X009323Y022083D01*
X009415Y022112D01*
X009501Y022156D01*
X009550Y022192D01*
X009550Y020775D01*
X006585Y017810D01*
X006585Y017810D01*
X006494Y017720D01*
X006418Y017796D01*
X006264Y017860D01*
X006096Y017860D01*
X005942Y017796D01*
X005824Y017678D01*
X005760Y017524D01*
X005760Y016836D01*
X005824Y016682D01*
X005942Y016564D01*
X005950Y016561D01*
X005950Y014085D01*
X006085Y013950D01*
X006260Y013775D01*
X006260Y013506D01*
X006506Y013260D01*
X006854Y013260D01*
X006950Y013356D01*
X006950Y012375D01*
X005685Y011110D01*
X005550Y010975D01*
X005550Y009010D01*
X002487Y009010D01*
X002363Y009134D01*
X002174Y009212D01*
X001266Y009212D01*
X001077Y009134D01*
X000933Y008990D01*
X000855Y008802D01*
X000855Y008598D01*
X000933Y008410D01*
X001077Y008266D01*
X001266Y008188D01*
X002174Y008188D01*
X002363Y008266D01*
X002507Y008410D01*
X002565Y008550D01*
X003639Y008550D01*
X003472Y008383D01*
X003345Y008076D01*
X003345Y007744D01*
X003472Y007437D01*
X003707Y007202D01*
X004014Y007075D01*
X004346Y007075D01*
X004653Y007202D01*
X004888Y007437D01*
X005015Y007744D01*
X005015Y008076D01*
X004888Y008383D01*
X004721Y008550D01*
X005795Y008550D01*
X005853Y008410D01*
X005997Y008266D01*
X006186Y008188D01*
X007094Y008188D01*
X007283Y008266D01*
X007427Y008410D01*
X007450Y008465D01*
X007450Y004910D01*
X007444Y004910D01*
X007427Y004950D01*
X007283Y005094D01*
X007094Y005172D01*
X006186Y005172D01*
X005997Y005094D01*
X005853Y004950D01*
X005795Y004810D01*
X004721Y004810D01*
X004888Y004977D01*
X005015Y005284D01*
X005015Y005616D01*
X004888Y005923D01*
X004653Y006158D01*
X004346Y006285D01*
X004014Y006285D01*
X003707Y006158D01*
X003472Y005923D01*
X003345Y005616D01*
X003345Y005284D01*
X003472Y004977D01*
X003639Y004810D01*
X002565Y004810D01*
X002507Y004950D01*
X002363Y005094D01*
X002174Y005172D01*
X001266Y005172D01*
X001077Y005094D01*
X000933Y004950D01*
X000855Y004762D01*
X000855Y004558D01*
X000933Y004370D01*
X001077Y004226D01*
X001266Y004148D01*
X002174Y004148D01*
X002363Y004226D01*
X002487Y004350D01*
X005873Y004350D01*
X005997Y004226D01*
X006186Y004148D01*
X007094Y004148D01*
X007283Y004226D01*
X007427Y004370D01*
X007460Y004450D01*
X007900Y004450D01*
X007933Y004370D01*
X008077Y004226D01*
X008266Y004148D01*
X009174Y004148D01*
X009363Y004226D01*
X009507Y004370D01*
X009585Y004558D01*
X009585Y004762D01*
X009507Y004950D01*
X009363Y005094D01*
X009174Y005172D01*
X008266Y005172D01*
X008077Y005094D01*
X007933Y004950D01*
X007916Y004910D01*
X007910Y004910D01*
X007910Y008465D01*
X007933Y008410D01*
X008077Y008266D01*
X008266Y008188D01*
X009174Y008188D01*
X009363Y008266D01*
X009507Y008410D01*
X009585Y008598D01*
X009585Y008802D01*
X009507Y008990D01*
X009411Y009086D01*
X009810Y009485D01*
X009810Y010975D01*
X009675Y011110D01*
X008410Y012375D01*
X008410Y013356D01*
X008506Y013260D01*
X008775Y013260D01*
X010050Y011985D01*
X010050Y004459D01*
X009975Y004384D01*
X009920Y004252D01*
X009920Y004108D01*
X009975Y003976D01*
X010076Y003875D01*
X010208Y003820D01*
X010352Y003820D01*
X010484Y003875D01*
X010585Y003976D01*
X010640Y004108D01*
X010640Y004252D01*
X010585Y004384D01*
X010510Y004459D01*
X010510Y004939D01*
X010707Y004742D01*
X011014Y004615D01*
X011346Y004615D01*
X011653Y004742D01*
X011888Y004977D01*
X012015Y005284D01*
X012015Y005616D01*
X011888Y005923D01*
X011653Y006158D01*
X011346Y006285D01*
X011014Y006285D01*
X010707Y006158D01*
X010510Y005961D01*
X010510Y007399D01*
X010707Y007202D01*
X011014Y007075D01*
X011346Y007075D01*
X011653Y007202D01*
X011888Y007437D01*
X012015Y007744D01*
X012015Y008076D01*
X011888Y008383D01*
X011653Y008618D01*
X011346Y008745D01*
X011014Y008745D01*
X010707Y008618D01*
X010510Y008421D01*
X010510Y010939D01*
X010707Y010742D01*
X011014Y010615D01*
X011346Y010615D01*
X011653Y010742D01*
X011888Y010977D01*
X012015Y011284D01*
X012015Y011616D01*
X011888Y011923D01*
X011653Y012158D01*
X011346Y012285D01*
X011014Y012285D01*
X010707Y012158D01*
X010510Y011961D01*
X010510Y012175D01*
X010375Y012310D01*
X009100Y013585D01*
X009100Y013854D01*
X008854Y014100D01*
X008506Y014100D01*
X008410Y014004D01*
X008410Y014625D01*
X009260Y013775D01*
X009260Y013506D01*
X009506Y013260D01*
X009854Y013260D01*
X010100Y013506D01*
X010100Y013854D01*
X009854Y014100D01*
X009585Y014100D01*
X007410Y016275D01*
X007410Y016561D01*
X007418Y016564D01*
X007536Y016682D01*
X007600Y016836D01*
X007600Y017524D01*
X007536Y017678D01*
X007418Y017796D01*
X007279Y017854D01*
X010010Y020585D01*
X010010Y023650D01*
X026125Y023650D01*
X025950Y023475D01*
X025950Y022375D01*
X024029Y020454D01*
X024050Y020533D01*
X024050Y020827D01*
X023974Y021112D01*
X023826Y021368D01*
X023618Y021576D01*
X023362Y021724D01*
X023077Y021800D01*
X022783Y021800D01*
X022498Y021724D01*
X022242Y021576D01*
X022034Y021368D01*
X021886Y021112D01*
X021810Y020827D01*
X021810Y020533D01*
X021886Y020248D01*
X022034Y019992D01*
X022242Y019784D01*
X022498Y019636D01*
X022783Y019560D01*
X023077Y019560D01*
X023156Y019581D01*
X022750Y019175D01*
X022750Y013785D01*
X022760Y013775D01*
X022760Y013506D01*
X023006Y013260D01*
X023354Y013260D01*
X023450Y013356D01*
X023450Y011007D01*
X023363Y011094D01*
X023174Y011172D01*
X022266Y011172D01*
X022077Y011094D01*
X021933Y010950D01*
X021855Y010762D01*
X021855Y010558D01*
X021933Y010370D01*
X022077Y010226D01*
X022266Y010148D01*
X023174Y010148D01*
X023363Y010226D01*
X023450Y010313D01*
X023450Y009047D01*
X023363Y009134D01*
X023174Y009212D01*
X022266Y009212D01*
X022077Y009134D01*
X021933Y008990D01*
X021855Y008802D01*
X021855Y008598D01*
X021933Y008410D01*
X022077Y008266D01*
X022266Y008188D01*
X023174Y008188D01*
X023363Y008266D01*
X023450Y008353D01*
X023450Y005685D01*
X023585Y005550D01*
X023725Y005410D01*
X023175Y005410D01*
X020398Y008188D01*
X021094Y008188D01*
X021283Y008266D01*
X021427Y008410D01*
X021505Y008598D01*
X021505Y008802D01*
X021427Y008990D01*
X021321Y009096D01*
X021810Y009585D01*
X021810Y014501D01*
X021885Y014576D01*
X021940Y014708D01*
X021940Y014852D01*
X021885Y014984D01*
X021810Y015059D01*
X021810Y016675D01*
X021675Y016810D01*
X020367Y018118D01*
X020367Y018267D01*
X020301Y018428D01*
X020178Y018551D01*
X020017Y018617D01*
X019843Y018617D01*
X019682Y018551D01*
X019559Y018428D01*
X019493Y018267D01*
X019493Y018093D01*
X019559Y017932D01*
X019682Y017809D01*
X019843Y017743D01*
X020017Y017743D01*
X020070Y017765D01*
X021350Y016485D01*
X021350Y015059D01*
X021275Y014984D01*
X021220Y014852D01*
X021220Y014708D01*
X021275Y014576D01*
X021350Y014501D01*
X021350Y011027D01*
X021283Y011094D01*
X021094Y011172D01*
X020186Y011172D01*
X020010Y011100D01*
X020010Y013175D01*
X019875Y013310D01*
X019600Y013585D01*
X019600Y013854D01*
X019354Y014100D01*
X019006Y014100D01*
X018910Y014004D01*
X018910Y017075D01*
X018867Y017118D01*
X018867Y017267D01*
X018801Y017428D01*
X018678Y017551D01*
X018517Y017617D01*
X018343Y017617D01*
X018182Y017551D01*
X018059Y017428D01*
X017993Y017267D01*
X017993Y017093D01*
X018059Y016932D01*
X018182Y016809D01*
X018343Y016743D01*
X018450Y016743D01*
X018450Y016599D01*
X018352Y016640D01*
X018345Y016640D01*
X017867Y017118D01*
X017867Y017267D01*
X017801Y017428D01*
X017678Y017551D01*
X017517Y017617D01*
X017343Y017617D01*
X017182Y017551D01*
X017059Y017428D01*
X016993Y017267D01*
X016993Y017093D01*
X017059Y016932D01*
X017182Y016809D01*
X017343Y016743D01*
X017517Y016743D01*
X017570Y016765D01*
X017938Y016396D01*
X017920Y016352D01*
X017920Y016208D01*
X017975Y016076D01*
X018076Y015975D01*
X018208Y015920D01*
X018352Y015920D01*
X018450Y015961D01*
X018450Y012242D01*
X018346Y012285D01*
X018014Y012285D01*
X017707Y012158D01*
X017510Y011961D01*
X017510Y012675D01*
X017375Y012810D01*
X016600Y013585D01*
X016600Y013854D01*
X016354Y014100D01*
X016006Y014100D01*
X015760Y013854D01*
X015760Y013506D01*
X016006Y013260D01*
X016275Y013260D01*
X017050Y012485D01*
X017050Y007459D01*
X016975Y007384D01*
X016920Y007252D01*
X016920Y007108D01*
X016975Y006976D01*
X017076Y006875D01*
X017208Y006820D01*
X017352Y006820D01*
X017484Y006875D01*
X017585Y006976D01*
X017640Y007108D01*
X017640Y007252D01*
X017628Y007282D01*
X017707Y007202D01*
X018014Y007075D01*
X018346Y007075D01*
X018653Y007202D01*
X018888Y007437D01*
X019015Y007744D01*
X019015Y008076D01*
X018888Y008383D01*
X018653Y008618D01*
X018346Y008745D01*
X018014Y008745D01*
X017707Y008618D01*
X017510Y008421D01*
X017510Y010939D01*
X017707Y010742D01*
X018014Y010615D01*
X018346Y010615D01*
X018653Y010742D01*
X018888Y010977D01*
X019015Y011284D01*
X019015Y011520D01*
X019250Y011285D01*
X019250Y010516D01*
X019176Y010485D01*
X019075Y010384D01*
X019020Y010252D01*
X019020Y010108D01*
X019075Y009976D01*
X019176Y009875D01*
X019250Y009844D01*
X019250Y003010D01*
X016487Y003010D01*
X016363Y003134D01*
X016174Y003212D01*
X015266Y003212D01*
X015077Y003134D01*
X014933Y002990D01*
X014855Y002802D01*
X014855Y002598D01*
X014933Y002410D01*
X015077Y002266D01*
X015266Y002188D01*
X016174Y002188D01*
X016363Y002266D01*
X016507Y002410D01*
X016565Y002550D01*
X017639Y002550D01*
X017472Y002383D01*
X017345Y002076D01*
X017345Y001744D01*
X017472Y001437D01*
X017707Y001202D01*
X018014Y001075D01*
X018346Y001075D01*
X018653Y001202D01*
X018888Y001437D01*
X019015Y001744D01*
X019015Y002076D01*
X018888Y002383D01*
X018721Y002550D01*
X019575Y002550D01*
X019710Y002685D01*
X019710Y003325D01*
X019949Y003086D01*
X019853Y002990D01*
X019775Y002802D01*
X019775Y002598D01*
X019853Y002410D01*
X019997Y002266D01*
X020186Y002188D01*
X021094Y002188D01*
X021283Y002266D01*
X021427Y002410D01*
X021505Y002598D01*
X021505Y002802D01*
X021427Y002990D01*
X021283Y003134D01*
X021094Y003212D01*
X020473Y003212D01*
X019710Y003975D01*
X019710Y008225D01*
X022762Y005172D01*
X022266Y005172D01*
X022077Y005094D01*
X021933Y004950D01*
X021916Y004910D01*
X021444Y004910D01*
X021427Y004950D01*
X021283Y005094D01*
X021094Y005172D01*
X020186Y005172D01*
X019997Y005094D01*
X019853Y004950D01*
X019775Y004762D01*
X019775Y004558D01*
X019853Y004370D01*
X019997Y004226D01*
X020186Y004148D01*
X021094Y004148D01*
X021283Y004226D01*
X021427Y004370D01*
X021460Y004450D01*
X021900Y004450D01*
X021933Y004370D01*
X022077Y004226D01*
X022266Y004148D01*
X023174Y004148D01*
X023363Y004226D01*
X023507Y004370D01*
X023585Y004558D01*
X023585Y004762D01*
X023507Y004950D01*
X023685Y004950D01*
X027220Y001415D01*
X027220Y001308D01*
X027275Y001176D01*
X027376Y001075D01*
X027508Y001020D01*
X027652Y001020D01*
X027784Y001075D01*
X027885Y001176D01*
X027940Y001308D01*
X027940Y001452D01*
X027885Y001584D01*
X027784Y001685D01*
X027652Y001740D01*
X027545Y001740D01*
X027036Y002250D01*
X027186Y002188D01*
X028094Y002188D01*
X028283Y002266D01*
X028427Y002410D01*
X028505Y002598D01*
X028505Y002802D01*
X028427Y002990D01*
X028283Y003134D01*
X028094Y003212D01*
X027473Y003212D01*
X026410Y004275D01*
X026410Y008225D01*
X027920Y006715D01*
X027920Y006608D01*
X027975Y006476D01*
X028076Y006375D01*
X028208Y006320D01*
X028352Y006320D01*
X028484Y006375D01*
X028585Y006476D01*
X028607Y006528D01*
X029962Y005172D01*
X029266Y005172D01*
X029077Y005094D01*
X028933Y004950D01*
X028916Y004910D01*
X028444Y004910D01*
X028427Y004950D01*
X028283Y005094D01*
X028094Y005172D01*
X027186Y005172D01*
X026997Y005094D01*
X026853Y004950D01*
X026775Y004762D01*
X026775Y004558D01*
X026853Y004370D01*
X026997Y004226D01*
X027186Y004148D01*
X028094Y004148D01*
X028283Y004226D01*
X028427Y004370D01*
X028460Y004450D01*
X028900Y004450D01*
X028933Y004370D01*
X029077Y004226D01*
X029266Y004148D01*
X030174Y004148D01*
X030350Y004220D01*
X030350Y003140D01*
X030174Y003212D01*
X029266Y003212D01*
X029077Y003134D01*
X028933Y002990D01*
X028855Y002802D01*
X028855Y002598D01*
X028933Y002410D01*
X029077Y002266D01*
X029266Y002188D01*
X030174Y002188D01*
X030350Y002260D01*
X030350Y001685D01*
X030485Y001550D01*
X031020Y001015D01*
X031020Y000908D01*
X031075Y000776D01*
X031176Y000675D01*
X031212Y000660D01*
X000660Y000660D01*
X000660Y000814D02*
X031059Y000814D01*
X031020Y000973D02*
X000660Y000973D01*
X000660Y001131D02*
X003879Y001131D01*
X004014Y001075D02*
X004346Y001075D01*
X004653Y001202D01*
X004888Y001437D01*
X005015Y001744D01*
X005015Y002076D01*
X004888Y002383D01*
X004721Y002550D01*
X005795Y002550D01*
X005853Y002410D01*
X005997Y002266D01*
X006186Y002188D01*
X007094Y002188D01*
X007283Y002266D01*
X007427Y002410D01*
X007505Y002598D01*
X007505Y002802D01*
X007427Y002990D01*
X007283Y003134D01*
X007094Y003212D01*
X006186Y003212D01*
X005997Y003134D01*
X005873Y003010D01*
X002487Y003010D01*
X002363Y003134D01*
X002174Y003212D01*
X001266Y003212D01*
X001077Y003134D01*
X000933Y002990D01*
X000855Y002802D01*
X000855Y002598D01*
X000933Y002410D01*
X001077Y002266D01*
X001266Y002188D01*
X002174Y002188D01*
X002363Y002266D01*
X002507Y002410D01*
X002565Y002550D01*
X003639Y002550D01*
X003472Y002383D01*
X003345Y002076D01*
X003345Y001744D01*
X003472Y001437D01*
X003707Y001202D01*
X004014Y001075D01*
X003620Y001290D02*
X000660Y001290D01*
X000660Y001448D02*
X003468Y001448D01*
X003402Y001607D02*
X000660Y001607D01*
X000660Y001765D02*
X003345Y001765D01*
X003345Y001924D02*
X000660Y001924D01*
X000660Y002082D02*
X003347Y002082D01*
X003413Y002241D02*
X002302Y002241D01*
X002496Y002399D02*
X003488Y002399D01*
X004872Y002399D02*
X005864Y002399D01*
X006058Y002241D02*
X004947Y002241D01*
X005013Y002082D02*
X010347Y002082D01*
X010345Y002076D02*
X010345Y001744D01*
X010472Y001437D01*
X010707Y001202D01*
X011014Y001075D01*
X011346Y001075D01*
X011653Y001202D01*
X011888Y001437D01*
X012015Y001744D01*
X012015Y002076D01*
X011888Y002383D01*
X011721Y002550D01*
X012795Y002550D01*
X012853Y002410D01*
X012997Y002266D01*
X013186Y002188D01*
X014094Y002188D01*
X014283Y002266D01*
X014427Y002410D01*
X014505Y002598D01*
X014505Y002802D01*
X014427Y002990D01*
X014283Y003134D01*
X014094Y003212D01*
X013186Y003212D01*
X012997Y003134D01*
X012873Y003010D01*
X009487Y003010D01*
X009363Y003134D01*
X009174Y003212D01*
X008266Y003212D01*
X008077Y003134D01*
X007933Y002990D01*
X007855Y002802D01*
X007855Y002598D01*
X007933Y002410D01*
X008077Y002266D01*
X008266Y002188D01*
X009174Y002188D01*
X009363Y002266D01*
X009507Y002410D01*
X009565Y002550D01*
X010639Y002550D01*
X010472Y002383D01*
X010345Y002076D01*
X010345Y001924D02*
X005015Y001924D01*
X005015Y001765D02*
X010345Y001765D01*
X010402Y001607D02*
X004958Y001607D01*
X004892Y001448D02*
X010468Y001448D01*
X010620Y001290D02*
X004740Y001290D01*
X004481Y001131D02*
X010879Y001131D01*
X011481Y001131D02*
X017879Y001131D01*
X017620Y001290D02*
X011740Y001290D01*
X011892Y001448D02*
X017468Y001448D01*
X017402Y001607D02*
X011958Y001607D01*
X012015Y001765D02*
X017345Y001765D01*
X017345Y001924D02*
X012015Y001924D01*
X012013Y002082D02*
X017347Y002082D01*
X017413Y002241D02*
X016302Y002241D01*
X016496Y002399D02*
X017488Y002399D01*
X018872Y002399D02*
X019864Y002399D01*
X019792Y002558D02*
X019583Y002558D01*
X019710Y002716D02*
X019775Y002716D01*
X019805Y002875D02*
X019710Y002875D01*
X019710Y003033D02*
X019896Y003033D01*
X019843Y003192D02*
X019710Y003192D01*
X019250Y003192D02*
X016225Y003192D01*
X016464Y003033D02*
X019250Y003033D01*
X019250Y003350D02*
X000660Y003350D01*
X000660Y003192D02*
X001215Y003192D01*
X000976Y003033D02*
X000660Y003033D01*
X000660Y002875D02*
X000885Y002875D01*
X000855Y002716D02*
X000660Y002716D01*
X000660Y002558D02*
X000872Y002558D01*
X000944Y002399D02*
X000660Y002399D01*
X000660Y002241D02*
X001138Y002241D01*
X002225Y003192D02*
X006135Y003192D01*
X005896Y003033D02*
X002464Y003033D01*
X000660Y003509D02*
X019250Y003509D01*
X019250Y003667D02*
X000660Y003667D01*
X000660Y003826D02*
X010195Y003826D01*
X010365Y003826D02*
X019250Y003826D01*
X019250Y003984D02*
X012593Y003984D01*
X012584Y003975D02*
X012685Y004076D01*
X012740Y004208D01*
X012740Y004352D01*
X012685Y004484D01*
X012610Y004559D01*
X012610Y012075D01*
X012475Y012210D01*
X011100Y013585D01*
X011100Y013854D01*
X010854Y014100D01*
X010506Y014100D01*
X010260Y013854D01*
X010260Y013506D01*
X010506Y013260D01*
X010775Y013260D01*
X012150Y011885D01*
X012150Y004559D01*
X012075Y004484D01*
X012020Y004352D01*
X012020Y004208D01*
X012075Y004076D01*
X012176Y003975D01*
X012308Y003920D01*
X012452Y003920D01*
X012584Y003975D01*
X012713Y004143D02*
X019250Y004143D01*
X019250Y004301D02*
X016438Y004301D01*
X016507Y004370D02*
X016585Y004558D01*
X016585Y004762D01*
X016507Y004950D01*
X016363Y005094D01*
X016174Y005172D01*
X015266Y005172D01*
X015077Y005094D01*
X014933Y004950D01*
X014916Y004910D01*
X014444Y004910D01*
X014427Y004950D01*
X014283Y005094D01*
X014094Y005172D01*
X013186Y005172D01*
X012997Y005094D01*
X012853Y004950D01*
X012775Y004762D01*
X012775Y004558D01*
X012853Y004370D01*
X012997Y004226D01*
X013186Y004148D01*
X014094Y004148D01*
X014283Y004226D01*
X014427Y004370D01*
X014460Y004450D01*
X014900Y004450D01*
X014933Y004370D01*
X015077Y004226D01*
X015266Y004148D01*
X016174Y004148D01*
X016363Y004226D01*
X016507Y004370D01*
X016544Y004460D02*
X019250Y004460D01*
X019250Y004618D02*
X018353Y004618D01*
X018346Y004615D02*
X018653Y004742D01*
X018888Y004977D01*
X019015Y005284D01*
X019015Y005616D01*
X018888Y005923D01*
X018653Y006158D01*
X018346Y006285D01*
X018014Y006285D01*
X017707Y006158D01*
X017472Y005923D01*
X017345Y005616D01*
X017345Y005284D01*
X017472Y004977D01*
X017707Y004742D01*
X018014Y004615D01*
X018346Y004615D01*
X018007Y004618D02*
X016585Y004618D01*
X016579Y004777D02*
X017673Y004777D01*
X017514Y004935D02*
X016513Y004935D01*
X016364Y005094D02*
X017424Y005094D01*
X017358Y005252D02*
X012610Y005252D01*
X012610Y005094D02*
X012996Y005094D01*
X012847Y004935D02*
X012610Y004935D01*
X012610Y004777D02*
X012781Y004777D01*
X012775Y004618D02*
X012610Y004618D01*
X012695Y004460D02*
X012816Y004460D01*
X012740Y004301D02*
X012922Y004301D01*
X012167Y003984D02*
X010588Y003984D01*
X010640Y004143D02*
X012047Y004143D01*
X012020Y004301D02*
X010620Y004301D01*
X010510Y004460D02*
X012065Y004460D01*
X012150Y004618D02*
X011353Y004618D01*
X011007Y004618D02*
X010510Y004618D01*
X010510Y004777D02*
X010673Y004777D01*
X010514Y004935D02*
X010510Y004935D01*
X010050Y004935D02*
X009513Y004935D01*
X009579Y004777D02*
X010050Y004777D01*
X010050Y004618D02*
X009585Y004618D01*
X009544Y004460D02*
X010050Y004460D01*
X009940Y004301D02*
X009438Y004301D01*
X009920Y004143D02*
X000660Y004143D01*
X000660Y004301D02*
X001002Y004301D01*
X000896Y004460D02*
X000660Y004460D01*
X000660Y004618D02*
X000855Y004618D01*
X000861Y004777D02*
X000660Y004777D01*
X000660Y004935D02*
X000927Y004935D01*
X001076Y005094D02*
X000660Y005094D01*
X000660Y005252D02*
X003358Y005252D01*
X003345Y005411D02*
X000660Y005411D01*
X000660Y005569D02*
X003345Y005569D01*
X003391Y005728D02*
X000660Y005728D01*
X000660Y005886D02*
X003457Y005886D01*
X003594Y006045D02*
X000660Y006045D01*
X000660Y006203D02*
X003816Y006203D01*
X004544Y006203D02*
X007450Y006203D01*
X007450Y006045D02*
X004766Y006045D01*
X004903Y005886D02*
X007450Y005886D01*
X007450Y005728D02*
X004969Y005728D01*
X005015Y005569D02*
X007450Y005569D01*
X007450Y005411D02*
X005015Y005411D01*
X005002Y005252D02*
X007450Y005252D01*
X007450Y005094D02*
X007284Y005094D01*
X007433Y004935D02*
X007450Y004935D01*
X007910Y004935D02*
X007927Y004935D01*
X007910Y005094D02*
X008076Y005094D01*
X007910Y005252D02*
X010050Y005252D01*
X010050Y005094D02*
X009364Y005094D01*
X010050Y005411D02*
X007910Y005411D01*
X007910Y005569D02*
X010050Y005569D01*
X010050Y005728D02*
X007910Y005728D01*
X007910Y005886D02*
X010050Y005886D01*
X010050Y006045D02*
X007910Y006045D01*
X007910Y006203D02*
X010050Y006203D01*
X010050Y006362D02*
X007910Y006362D01*
X007910Y006520D02*
X010050Y006520D01*
X010050Y006679D02*
X007910Y006679D01*
X007910Y006837D02*
X010050Y006837D01*
X010050Y006996D02*
X007910Y006996D01*
X007910Y007154D02*
X010050Y007154D01*
X010050Y007313D02*
X007910Y007313D01*
X007910Y007471D02*
X010050Y007471D01*
X010050Y007630D02*
X007910Y007630D01*
X007910Y007788D02*
X010050Y007788D01*
X010050Y007947D02*
X007910Y007947D01*
X007910Y008105D02*
X010050Y008105D01*
X010050Y008264D02*
X009358Y008264D01*
X009512Y008422D02*
X010050Y008422D01*
X010050Y008581D02*
X009578Y008581D01*
X009585Y008739D02*
X010050Y008739D01*
X010050Y008898D02*
X009545Y008898D01*
X009441Y009056D02*
X010050Y009056D01*
X010050Y009215D02*
X009540Y009215D01*
X009698Y009373D02*
X010050Y009373D01*
X010050Y009532D02*
X009810Y009532D01*
X009810Y009690D02*
X010050Y009690D01*
X010050Y009849D02*
X009810Y009849D01*
X009810Y010007D02*
X010050Y010007D01*
X010050Y010166D02*
X009810Y010166D01*
X009810Y010324D02*
X010050Y010324D01*
X010050Y010483D02*
X009810Y010483D01*
X009810Y010641D02*
X010050Y010641D01*
X010050Y010800D02*
X009810Y010800D01*
X009810Y010958D02*
X010050Y010958D01*
X010050Y011117D02*
X009669Y011117D01*
X009510Y011275D02*
X010050Y011275D01*
X010050Y011434D02*
X009352Y011434D01*
X009193Y011592D02*
X010050Y011592D01*
X010050Y011751D02*
X009035Y011751D01*
X008876Y011909D02*
X010050Y011909D01*
X009967Y012068D02*
X008718Y012068D01*
X008559Y012226D02*
X009809Y012226D01*
X009650Y012385D02*
X008410Y012385D01*
X008410Y012543D02*
X009492Y012543D01*
X009333Y012702D02*
X008410Y012702D01*
X008410Y012860D02*
X009175Y012860D01*
X009016Y013019D02*
X008410Y013019D01*
X008410Y013177D02*
X008858Y013177D01*
X008431Y013336D02*
X008410Y013336D01*
X009100Y013653D02*
X009260Y013653D01*
X009272Y013494D02*
X009191Y013494D01*
X009350Y013336D02*
X009431Y013336D01*
X009508Y013177D02*
X010858Y013177D01*
X011016Y013019D02*
X009667Y013019D01*
X009825Y012860D02*
X011175Y012860D01*
X011333Y012702D02*
X009984Y012702D01*
X010142Y012543D02*
X011492Y012543D01*
X011650Y012385D02*
X010301Y012385D01*
X010459Y012226D02*
X010872Y012226D01*
X010617Y012068D02*
X010510Y012068D01*
X011488Y012226D02*
X011809Y012226D01*
X011743Y012068D02*
X011967Y012068D01*
X011894Y011909D02*
X012126Y011909D01*
X012150Y011751D02*
X011959Y011751D01*
X012015Y011592D02*
X012150Y011592D01*
X012150Y011434D02*
X012015Y011434D01*
X012011Y011275D02*
X012150Y011275D01*
X012150Y011117D02*
X011946Y011117D01*
X011869Y010958D02*
X012150Y010958D01*
X012150Y010800D02*
X011710Y010800D01*
X011409Y010641D02*
X012150Y010641D01*
X012150Y010483D02*
X010510Y010483D01*
X010510Y010641D02*
X010951Y010641D01*
X010650Y010800D02*
X010510Y010800D01*
X010510Y010324D02*
X012150Y010324D01*
X012150Y010166D02*
X010510Y010166D01*
X010510Y010007D02*
X012150Y010007D01*
X012150Y009849D02*
X010510Y009849D01*
X010510Y009690D02*
X012150Y009690D01*
X012150Y009532D02*
X010510Y009532D01*
X010510Y009373D02*
X012150Y009373D01*
X012150Y009215D02*
X010510Y009215D01*
X010510Y009056D02*
X012150Y009056D01*
X012150Y008898D02*
X010510Y008898D01*
X010510Y008739D02*
X010999Y008739D01*
X011361Y008739D02*
X012150Y008739D01*
X012150Y008581D02*
X011690Y008581D01*
X011849Y008422D02*
X012150Y008422D01*
X012150Y008264D02*
X011937Y008264D01*
X012003Y008105D02*
X012150Y008105D01*
X012150Y007947D02*
X012015Y007947D01*
X012015Y007788D02*
X012150Y007788D01*
X012150Y007630D02*
X011968Y007630D01*
X011902Y007471D02*
X012150Y007471D01*
X012150Y007313D02*
X011763Y007313D01*
X011537Y007154D02*
X012150Y007154D01*
X012150Y006996D02*
X010510Y006996D01*
X010510Y007154D02*
X010823Y007154D01*
X010597Y007313D02*
X010510Y007313D01*
X010510Y006837D02*
X012150Y006837D01*
X012150Y006679D02*
X010510Y006679D01*
X010510Y006520D02*
X012150Y006520D01*
X012150Y006362D02*
X010510Y006362D01*
X010510Y006203D02*
X010816Y006203D01*
X010594Y006045D02*
X010510Y006045D01*
X011544Y006203D02*
X012150Y006203D01*
X012150Y006045D02*
X011766Y006045D01*
X011903Y005886D02*
X012150Y005886D01*
X012150Y005728D02*
X011969Y005728D01*
X012015Y005569D02*
X012150Y005569D01*
X012150Y005411D02*
X012015Y005411D01*
X012002Y005252D02*
X012150Y005252D01*
X012150Y005094D02*
X011936Y005094D01*
X011846Y004935D02*
X012150Y004935D01*
X012150Y004777D02*
X011687Y004777D01*
X012610Y005411D02*
X017345Y005411D01*
X017345Y005569D02*
X012610Y005569D01*
X012610Y005728D02*
X017391Y005728D01*
X017457Y005886D02*
X012610Y005886D01*
X012610Y006045D02*
X017594Y006045D01*
X017816Y006203D02*
X012610Y006203D01*
X012610Y006362D02*
X019250Y006362D01*
X019250Y006520D02*
X012610Y006520D01*
X012610Y006679D02*
X019250Y006679D01*
X019250Y006837D02*
X017393Y006837D01*
X017167Y006837D02*
X012610Y006837D01*
X012610Y006996D02*
X016967Y006996D01*
X016920Y007154D02*
X012610Y007154D01*
X012610Y007313D02*
X016945Y007313D01*
X017050Y007471D02*
X012610Y007471D01*
X012610Y007630D02*
X017050Y007630D01*
X017050Y007788D02*
X012610Y007788D01*
X012610Y007947D02*
X017050Y007947D01*
X017050Y008105D02*
X012610Y008105D01*
X012610Y008264D02*
X013002Y008264D01*
X012997Y008266D02*
X013186Y008188D01*
X014094Y008188D01*
X014283Y008266D01*
X014427Y008410D01*
X014505Y008598D01*
X014505Y008802D01*
X014427Y008990D01*
X014283Y009134D01*
X014094Y009212D01*
X013186Y009212D01*
X012997Y009134D01*
X012853Y008990D01*
X012775Y008802D01*
X012775Y008598D01*
X012853Y008410D01*
X012997Y008266D01*
X012848Y008422D02*
X012610Y008422D01*
X012610Y008581D02*
X012782Y008581D01*
X012775Y008739D02*
X012610Y008739D01*
X012610Y008898D02*
X012815Y008898D01*
X012919Y009056D02*
X012610Y009056D01*
X012610Y009215D02*
X017050Y009215D01*
X017050Y009373D02*
X012610Y009373D01*
X012610Y009532D02*
X017050Y009532D01*
X017050Y009690D02*
X012610Y009690D01*
X012610Y009849D02*
X017050Y009849D01*
X017050Y010007D02*
X012610Y010007D01*
X012610Y010166D02*
X013142Y010166D01*
X013186Y010148D02*
X014094Y010148D01*
X014283Y010226D01*
X014427Y010370D01*
X014460Y010450D01*
X014900Y010450D01*
X014933Y010370D01*
X015077Y010226D01*
X015266Y010148D01*
X016174Y010148D01*
X016363Y010226D01*
X016507Y010370D01*
X016585Y010558D01*
X016585Y010762D01*
X016507Y010950D01*
X016363Y011094D01*
X016174Y011172D01*
X015266Y011172D01*
X015077Y011094D01*
X014933Y010950D01*
X014916Y010910D01*
X014444Y010910D01*
X014427Y010950D01*
X014283Y011094D01*
X014094Y011172D01*
X013186Y011172D01*
X012997Y011094D01*
X012853Y010950D01*
X012775Y010762D01*
X012775Y010558D01*
X012853Y010370D01*
X012997Y010226D01*
X013186Y010148D01*
X012899Y010324D02*
X012610Y010324D01*
X012610Y010483D02*
X012806Y010483D01*
X012775Y010641D02*
X012610Y010641D01*
X012610Y010800D02*
X012791Y010800D01*
X012861Y010958D02*
X012610Y010958D01*
X012610Y011117D02*
X013050Y011117D01*
X012610Y011275D02*
X017050Y011275D01*
X017050Y011117D02*
X016310Y011117D01*
X016499Y010958D02*
X017050Y010958D01*
X017050Y010800D02*
X016569Y010800D01*
X016585Y010641D02*
X017050Y010641D01*
X017050Y010483D02*
X016554Y010483D01*
X016461Y010324D02*
X017050Y010324D01*
X017050Y010166D02*
X016218Y010166D01*
X015222Y010166D02*
X014138Y010166D01*
X014381Y010324D02*
X014979Y010324D01*
X014941Y010958D02*
X014419Y010958D01*
X014230Y011117D02*
X015130Y011117D01*
X017050Y011434D02*
X012610Y011434D01*
X012610Y011592D02*
X017050Y011592D01*
X017050Y011751D02*
X012610Y011751D01*
X012610Y011909D02*
X017050Y011909D01*
X017050Y012068D02*
X012610Y012068D01*
X012459Y012226D02*
X017050Y012226D01*
X017050Y012385D02*
X012301Y012385D01*
X012142Y012543D02*
X016992Y012543D01*
X016833Y012702D02*
X011984Y012702D01*
X011825Y012860D02*
X016675Y012860D01*
X016516Y013019D02*
X013844Y013019D01*
X013910Y013085D02*
X013910Y013316D01*
X014100Y013506D01*
X014100Y013854D01*
X013854Y014100D01*
X013506Y014100D01*
X013260Y013854D01*
X013260Y013506D01*
X013356Y013410D01*
X013004Y013410D01*
X013100Y013506D01*
X013100Y013775D01*
X014475Y015150D01*
X014610Y015285D01*
X014610Y016685D01*
X020845Y022920D01*
X020952Y022920D01*
X021084Y022975D01*
X021185Y023076D01*
X021240Y023208D01*
X021240Y023352D01*
X021185Y023484D01*
X021084Y023585D01*
X020952Y023640D01*
X020808Y023640D01*
X020676Y023585D01*
X020575Y023484D01*
X020520Y023352D01*
X020520Y023245D01*
X014150Y016875D01*
X014150Y015475D01*
X012775Y014100D01*
X012506Y014100D01*
X012410Y014004D01*
X012410Y014275D01*
X012275Y014410D01*
X010185Y016500D01*
X010264Y016500D01*
X010418Y016564D01*
X010536Y016682D01*
X010600Y016836D01*
X010600Y017524D01*
X010536Y017678D01*
X010418Y017796D01*
X010264Y017860D01*
X010096Y017860D01*
X009942Y017796D01*
X009824Y017678D01*
X009760Y017524D01*
X009760Y016925D01*
X009600Y017085D01*
X009600Y017524D01*
X009536Y017678D01*
X009418Y017796D01*
X009264Y017860D01*
X009096Y017860D01*
X008942Y017796D01*
X008824Y017678D01*
X008760Y017524D01*
X008760Y016925D01*
X008600Y017085D01*
X008600Y017524D01*
X008536Y017678D01*
X008418Y017796D01*
X008264Y017860D01*
X008096Y017860D01*
X007942Y017796D01*
X007824Y017678D01*
X007760Y017524D01*
X007760Y016836D01*
X007824Y016682D01*
X007942Y016564D01*
X008096Y016500D01*
X008264Y016500D01*
X008418Y016564D01*
X008444Y016590D01*
X011260Y013775D01*
X011260Y013506D01*
X011506Y013260D01*
X011854Y013260D01*
X012014Y013420D01*
X012350Y013085D01*
X012485Y012950D01*
X013775Y012950D01*
X013910Y013085D01*
X013910Y013177D02*
X016358Y013177D01*
X015931Y013336D02*
X013929Y013336D01*
X014088Y013494D02*
X015772Y013494D01*
X015760Y013653D02*
X014100Y013653D01*
X014100Y013811D02*
X015760Y013811D01*
X015876Y013970D02*
X013984Y013970D01*
X013612Y014287D02*
X016448Y014287D01*
X016290Y014445D02*
X013770Y014445D01*
X013929Y014604D02*
X016131Y014604D01*
X015973Y014762D02*
X014087Y014762D01*
X014246Y014921D02*
X015814Y014921D01*
X015656Y015079D02*
X014404Y015079D01*
X014563Y015238D02*
X015497Y015238D01*
X015339Y015396D02*
X014610Y015396D01*
X014610Y015555D02*
X015180Y015555D01*
X015115Y015620D02*
X016820Y013914D01*
X016760Y013854D01*
X016760Y013506D01*
X017006Y013260D01*
X017354Y013260D01*
X017600Y013506D01*
X017600Y013854D01*
X017354Y014100D01*
X017285Y014100D01*
X017275Y014110D01*
X015440Y015945D01*
X015440Y016052D01*
X015385Y016184D01*
X015284Y016285D01*
X015152Y016340D01*
X015008Y016340D01*
X014876Y016285D01*
X014775Y016184D01*
X014720Y016052D01*
X014720Y015908D01*
X014775Y015776D01*
X014876Y015675D01*
X015008Y015620D01*
X015115Y015620D01*
X014838Y015713D02*
X014610Y015713D01*
X014610Y015872D02*
X014735Y015872D01*
X014720Y016030D02*
X014610Y016030D01*
X014610Y016189D02*
X014779Y016189D01*
X014610Y016347D02*
X017920Y016347D01*
X017928Y016189D02*
X015381Y016189D01*
X015440Y016030D02*
X018021Y016030D01*
X018450Y015872D02*
X015514Y015872D01*
X015672Y015713D02*
X018450Y015713D01*
X018450Y015555D02*
X015831Y015555D01*
X015989Y015396D02*
X018450Y015396D01*
X018450Y015238D02*
X016148Y015238D01*
X016306Y015079D02*
X018450Y015079D01*
X018450Y014921D02*
X016465Y014921D01*
X016623Y014762D02*
X018450Y014762D01*
X018450Y014604D02*
X016782Y014604D01*
X016940Y014445D02*
X018450Y014445D01*
X018450Y014287D02*
X017099Y014287D01*
X017257Y014128D02*
X018450Y014128D01*
X018450Y013970D02*
X017484Y013970D01*
X017600Y013811D02*
X018450Y013811D01*
X018450Y013653D02*
X017600Y013653D01*
X017588Y013494D02*
X018450Y013494D01*
X018450Y013336D02*
X017429Y013336D01*
X017167Y013019D02*
X018450Y013019D01*
X018450Y013177D02*
X017008Y013177D01*
X016931Y013336D02*
X016850Y013336D01*
X016772Y013494D02*
X016691Y013494D01*
X016760Y013653D02*
X016600Y013653D01*
X016600Y013811D02*
X016760Y013811D01*
X016765Y013970D02*
X016484Y013970D01*
X016607Y014128D02*
X013453Y014128D01*
X013376Y013970D02*
X013295Y013970D01*
X013260Y013811D02*
X013136Y013811D01*
X013100Y013653D02*
X013260Y013653D01*
X013272Y013494D02*
X013088Y013494D01*
X012258Y013177D02*
X011508Y013177D01*
X011431Y013336D02*
X011350Y013336D01*
X011272Y013494D02*
X011191Y013494D01*
X011260Y013653D02*
X011100Y013653D01*
X011100Y013811D02*
X011224Y013811D01*
X011065Y013970D02*
X010984Y013970D01*
X010907Y014128D02*
X009557Y014128D01*
X009399Y014287D02*
X010748Y014287D01*
X010590Y014445D02*
X009240Y014445D01*
X009082Y014604D02*
X010431Y014604D01*
X010273Y014762D02*
X008923Y014762D01*
X008765Y014921D02*
X010114Y014921D01*
X009956Y015079D02*
X008606Y015079D01*
X008448Y015238D02*
X009797Y015238D01*
X009639Y015396D02*
X008289Y015396D01*
X008131Y015555D02*
X009480Y015555D01*
X009322Y015713D02*
X007972Y015713D01*
X007814Y015872D02*
X009163Y015872D01*
X009005Y016030D02*
X007655Y016030D01*
X007497Y016189D02*
X008846Y016189D01*
X008688Y016347D02*
X007410Y016347D01*
X007410Y016506D02*
X008083Y016506D01*
X008277Y016506D02*
X008529Y016506D01*
X007842Y016664D02*
X007518Y016664D01*
X007594Y016823D02*
X007766Y016823D01*
X007760Y016981D02*
X007600Y016981D01*
X007600Y017140D02*
X007760Y017140D01*
X007760Y017298D02*
X007600Y017298D01*
X007600Y017457D02*
X007760Y017457D01*
X007798Y017615D02*
X007562Y017615D01*
X007440Y017774D02*
X007920Y017774D01*
X007516Y018091D02*
X009012Y018091D01*
X009037Y018083D02*
X009132Y018068D01*
X009132Y018067D01*
X009132Y018632D01*
X009228Y018632D01*
X009228Y018728D01*
X009792Y018728D01*
X009777Y018823D01*
X009748Y018915D01*
X009704Y019001D01*
X009647Y019079D01*
X009579Y019147D01*
X009501Y019204D01*
X009415Y019248D01*
X009323Y019277D01*
X009228Y019292D01*
X009228Y019292D01*
X009228Y018728D01*
X009132Y018728D01*
X009132Y019292D01*
X009037Y019277D01*
X008945Y019248D01*
X008859Y019204D01*
X008781Y019147D01*
X008713Y019079D01*
X008656Y019001D01*
X008612Y018915D01*
X008583Y018823D01*
X008568Y018728D01*
X008568Y018728D01*
X009132Y018728D01*
X009132Y018632D01*
X008568Y018632D01*
X008583Y018537D01*
X008612Y018445D01*
X008656Y018359D01*
X008713Y018281D01*
X008781Y018213D01*
X008859Y018156D01*
X008945Y018112D01*
X009037Y018083D01*
X009132Y018091D02*
X009228Y018091D01*
X009228Y018068D02*
X009323Y018083D01*
X009415Y018112D01*
X009501Y018156D01*
X009579Y018213D01*
X009647Y018281D01*
X009704Y018359D01*
X009748Y018445D01*
X009777Y018537D01*
X009792Y018632D01*
X009792Y018632D01*
X009228Y018632D01*
X009228Y018068D01*
X009228Y018068D01*
X009348Y018091D02*
X013012Y018091D01*
X013037Y018083D02*
X013132Y018068D01*
X013132Y018067D01*
X013132Y018632D01*
X013228Y018632D01*
X013228Y018728D01*
X013792Y018728D01*
X013777Y018823D01*
X013748Y018915D01*
X013704Y019001D01*
X013647Y019079D01*
X013579Y019147D01*
X013501Y019204D01*
X013415Y019248D01*
X013323Y019277D01*
X013228Y019292D01*
X013228Y019292D01*
X013228Y018728D01*
X013132Y018728D01*
X013132Y019292D01*
X013037Y019277D01*
X012945Y019248D01*
X012859Y019204D01*
X012781Y019147D01*
X012713Y019079D01*
X012656Y019001D01*
X012612Y018915D01*
X012583Y018823D01*
X012568Y018728D01*
X012568Y018728D01*
X013132Y018728D01*
X013132Y018632D01*
X012568Y018632D01*
X012583Y018537D01*
X012612Y018445D01*
X012656Y018359D01*
X012713Y018281D01*
X012781Y018213D01*
X012859Y018156D01*
X012945Y018112D01*
X013037Y018083D01*
X013132Y018091D02*
X013228Y018091D01*
X013228Y018068D02*
X013323Y018083D01*
X013415Y018112D01*
X013501Y018156D01*
X013579Y018213D01*
X013647Y018281D01*
X013704Y018359D01*
X013748Y018445D01*
X013777Y018537D01*
X013792Y018632D01*
X013792Y018632D01*
X013228Y018632D01*
X013228Y018068D01*
X013228Y018068D01*
X013348Y018091D02*
X015365Y018091D01*
X015524Y018249D02*
X013615Y018249D01*
X013729Y018408D02*
X015682Y018408D01*
X015841Y018566D02*
X013782Y018566D01*
X013792Y018728D02*
X013792Y018728D01*
X013758Y018883D02*
X016158Y018883D01*
X016316Y019042D02*
X013674Y019042D01*
X013506Y019200D02*
X016475Y019200D01*
X016633Y019359D02*
X008784Y019359D01*
X008854Y019200D02*
X008625Y019200D01*
X008686Y019042D02*
X008467Y019042D01*
X008602Y018883D02*
X008308Y018883D01*
X008150Y018725D02*
X009132Y018725D01*
X009228Y018725D02*
X013132Y018725D01*
X013228Y018725D02*
X015999Y018725D01*
X016333Y018408D02*
X016551Y018408D01*
X016559Y018428D02*
X016493Y018267D01*
X016493Y018093D01*
X016559Y017932D01*
X016682Y017809D01*
X016843Y017743D01*
X017017Y017743D01*
X017178Y017809D01*
X017301Y017932D01*
X017367Y018093D01*
X017367Y018267D01*
X017301Y018428D01*
X017178Y018551D01*
X017017Y018617D01*
X016843Y018617D01*
X016682Y018551D01*
X016559Y018428D01*
X016491Y018566D02*
X016720Y018566D01*
X016650Y018725D02*
X022750Y018725D01*
X022750Y018883D02*
X016808Y018883D01*
X016967Y019042D02*
X022750Y019042D01*
X022775Y019200D02*
X017125Y019200D01*
X017284Y019359D02*
X022933Y019359D01*
X023092Y019517D02*
X017442Y019517D01*
X017601Y019676D02*
X019930Y019676D01*
X019998Y019636D02*
X019742Y019784D01*
X019534Y019992D01*
X019386Y020248D01*
X019310Y020533D01*
X019310Y020827D01*
X019386Y021112D01*
X019534Y021368D01*
X019742Y021576D01*
X019998Y021724D01*
X020283Y021800D01*
X020577Y021800D01*
X020862Y021724D01*
X021118Y021576D01*
X021326Y021368D01*
X021474Y021112D01*
X021550Y020827D01*
X021550Y020533D01*
X021474Y020248D01*
X021326Y019992D01*
X021118Y019784D01*
X020862Y019636D01*
X020577Y019560D01*
X020283Y019560D01*
X019998Y019636D01*
X019692Y019834D02*
X017759Y019834D01*
X017918Y019993D02*
X019534Y019993D01*
X019442Y020151D02*
X018076Y020151D01*
X018235Y020310D02*
X019370Y020310D01*
X019327Y020468D02*
X018393Y020468D01*
X018552Y020627D02*
X019310Y020627D01*
X019310Y020785D02*
X018710Y020785D01*
X018869Y020944D02*
X019341Y020944D01*
X019384Y021102D02*
X019027Y021102D01*
X019186Y021261D02*
X019472Y021261D01*
X019585Y021419D02*
X019344Y021419D01*
X019503Y021578D02*
X019745Y021578D01*
X019661Y021736D02*
X020044Y021736D01*
X019820Y021895D02*
X025469Y021895D01*
X025628Y022053D02*
X019978Y022053D01*
X020137Y022212D02*
X025786Y022212D01*
X025945Y022370D02*
X020295Y022370D01*
X020454Y022529D02*
X025950Y022529D01*
X025950Y022687D02*
X020612Y022687D01*
X020771Y022846D02*
X025950Y022846D01*
X025950Y023004D02*
X021113Y023004D01*
X021221Y023163D02*
X025950Y023163D01*
X025950Y023321D02*
X021240Y023321D01*
X021187Y023480D02*
X025954Y023480D01*
X026113Y023638D02*
X020956Y023638D01*
X020804Y023638D02*
X010010Y023638D01*
X010010Y023480D02*
X020573Y023480D01*
X020520Y023321D02*
X010010Y023321D01*
X010010Y023163D02*
X012802Y023163D01*
X012781Y023147D02*
X012713Y023079D01*
X012656Y023001D01*
X012612Y022915D01*
X012583Y022823D01*
X012568Y022728D01*
X012568Y022728D01*
X013132Y022728D01*
X013132Y023292D01*
X013037Y023277D01*
X012945Y023248D01*
X012859Y023204D01*
X012781Y023147D01*
X012658Y023004D02*
X010010Y023004D01*
X010010Y022846D02*
X012590Y022846D01*
X012568Y022632D02*
X012568Y022632D01*
X012583Y022537D01*
X012612Y022445D01*
X012656Y022359D01*
X012713Y022281D01*
X012781Y022213D01*
X012859Y022156D01*
X012945Y022112D01*
X013037Y022083D01*
X013132Y022068D01*
X013132Y022067D01*
X013132Y022632D01*
X013228Y022632D01*
X013228Y022728D01*
X013792Y022728D01*
X013777Y022823D01*
X013748Y022915D01*
X013704Y023001D01*
X013647Y023079D01*
X013579Y023147D01*
X013501Y023204D01*
X013415Y023248D01*
X013323Y023277D01*
X013228Y023292D01*
X013228Y023292D01*
X013228Y022728D01*
X013132Y022728D01*
X013132Y022632D01*
X012568Y022632D01*
X012585Y022529D02*
X010010Y022529D01*
X010010Y022687D02*
X013132Y022687D01*
X013228Y022687D02*
X019962Y022687D01*
X020120Y022846D02*
X013770Y022846D01*
X013792Y022728D02*
X013792Y022728D01*
X013792Y022632D02*
X013228Y022632D01*
X013228Y022068D01*
X013323Y022083D01*
X013415Y022112D01*
X013501Y022156D01*
X013579Y022213D01*
X013647Y022281D01*
X013704Y022359D01*
X013748Y022445D01*
X013777Y022537D01*
X013792Y022632D01*
X013792Y022632D01*
X013775Y022529D02*
X019803Y022529D01*
X019645Y022370D02*
X013709Y022370D01*
X013577Y022212D02*
X019486Y022212D01*
X019328Y022053D02*
X010010Y022053D01*
X010010Y021895D02*
X019169Y021895D01*
X019011Y021736D02*
X016316Y021736D01*
X016362Y021724D02*
X016077Y021800D01*
X015783Y021800D01*
X015498Y021724D01*
X015242Y021576D01*
X015034Y021368D01*
X014886Y021112D01*
X014810Y020827D01*
X014810Y020533D01*
X014886Y020248D01*
X015034Y019992D01*
X015242Y019784D01*
X015498Y019636D01*
X015783Y019560D01*
X016077Y019560D01*
X016362Y019636D01*
X016618Y019784D01*
X016826Y019992D01*
X016974Y020248D01*
X017050Y020533D01*
X017050Y020827D01*
X016974Y021112D01*
X016826Y021368D01*
X016618Y021576D01*
X016362Y021724D01*
X016615Y021578D02*
X018852Y021578D01*
X018694Y021419D02*
X016775Y021419D01*
X016888Y021261D02*
X018535Y021261D01*
X018377Y021102D02*
X016976Y021102D01*
X017019Y020944D02*
X018218Y020944D01*
X018060Y020785D02*
X017050Y020785D01*
X017050Y020627D02*
X017901Y020627D01*
X017743Y020468D02*
X017033Y020468D01*
X016990Y020310D02*
X017584Y020310D01*
X017426Y020151D02*
X016918Y020151D01*
X016826Y019993D02*
X017267Y019993D01*
X017109Y019834D02*
X016668Y019834D01*
X016430Y019676D02*
X016950Y019676D01*
X016792Y019517D02*
X008942Y019517D01*
X009101Y019676D02*
X015430Y019676D01*
X015192Y019834D02*
X009259Y019834D01*
X009418Y019993D02*
X015034Y019993D01*
X014942Y020151D02*
X011321Y020151D01*
X011288Y020138D02*
X011487Y020220D01*
X011640Y020373D01*
X011722Y020572D01*
X011722Y020788D01*
X011640Y020987D01*
X011487Y021140D01*
X011288Y021222D01*
X011072Y021222D01*
X010873Y021140D01*
X010720Y020987D01*
X010638Y020788D01*
X010638Y020572D01*
X010720Y020373D01*
X010873Y020220D01*
X011072Y020138D01*
X011288Y020138D01*
X011039Y020151D02*
X009576Y020151D01*
X009735Y020310D02*
X010783Y020310D01*
X010681Y020468D02*
X009893Y020468D01*
X010010Y020627D02*
X010638Y020627D01*
X010638Y020785D02*
X010010Y020785D01*
X010010Y020944D02*
X010702Y020944D01*
X010835Y021102D02*
X010010Y021102D01*
X010010Y021261D02*
X014972Y021261D01*
X014884Y021102D02*
X011525Y021102D01*
X011658Y020944D02*
X014841Y020944D01*
X014810Y020785D02*
X011722Y020785D01*
X011722Y020627D02*
X014810Y020627D01*
X014827Y020468D02*
X011679Y020468D01*
X011577Y020310D02*
X014870Y020310D01*
X013228Y019200D02*
X013132Y019200D01*
X013132Y019292D02*
X013132Y019292D01*
X013132Y019042D02*
X013228Y019042D01*
X013228Y018883D02*
X013132Y018883D01*
X013132Y018566D02*
X013228Y018566D01*
X013228Y018408D02*
X013132Y018408D01*
X013132Y018249D02*
X013228Y018249D01*
X012745Y018249D02*
X009615Y018249D01*
X009729Y018408D02*
X012631Y018408D01*
X012578Y018566D02*
X009782Y018566D01*
X009792Y018728D02*
X009792Y018728D01*
X009758Y018883D02*
X012602Y018883D01*
X012686Y019042D02*
X009674Y019042D01*
X009506Y019200D02*
X012854Y019200D01*
X012568Y018632D02*
X012568Y018632D01*
X011368Y017894D02*
X011295Y017918D01*
X011219Y017930D01*
X011180Y017930D01*
X011180Y017180D01*
X011180Y017180D01*
X011670Y017180D01*
X011670Y017479D01*
X011658Y017555D01*
X011634Y017628D01*
X011599Y017697D01*
X011554Y017759D01*
X011499Y017814D01*
X011437Y017859D01*
X011368Y017894D01*
X011180Y017930D02*
X011141Y017930D01*
X011065Y017918D01*
X010992Y017894D01*
X010923Y017859D01*
X010861Y017814D01*
X010806Y017759D01*
X010761Y017697D01*
X010726Y017628D01*
X010702Y017555D01*
X010690Y017479D01*
X010690Y017180D01*
X011180Y017180D01*
X011180Y017180D01*
X011180Y017180D01*
X011180Y017930D01*
X011180Y017774D02*
X011180Y017774D01*
X011180Y017615D02*
X011180Y017615D01*
X011180Y017457D02*
X011180Y017457D01*
X011180Y017298D02*
X011180Y017298D01*
X011180Y017180D02*
X010690Y017180D01*
X010690Y016881D01*
X010702Y016805D01*
X010726Y016732D01*
X010761Y016663D01*
X010806Y016601D01*
X010861Y016546D01*
X010923Y016501D01*
X010992Y016466D01*
X011065Y016442D01*
X011141Y016430D01*
X011180Y016430D01*
X011219Y016430D01*
X011295Y016442D01*
X011368Y016466D01*
X011437Y016501D01*
X011499Y016546D01*
X011554Y016601D01*
X011599Y016663D01*
X011634Y016732D01*
X011658Y016805D01*
X011670Y016881D01*
X011670Y017180D01*
X011180Y017180D01*
X011180Y016430D01*
X011180Y017180D01*
X011180Y017180D01*
X011180Y017140D02*
X011180Y017140D01*
X011180Y016981D02*
X011180Y016981D01*
X011180Y016823D02*
X011180Y016823D01*
X011180Y016664D02*
X011180Y016664D01*
X011180Y016506D02*
X011180Y016506D01*
X011443Y016506D02*
X014150Y016506D01*
X014150Y016664D02*
X011600Y016664D01*
X011661Y016823D02*
X014150Y016823D01*
X014256Y016981D02*
X011670Y016981D01*
X011670Y017140D02*
X014414Y017140D01*
X014573Y017298D02*
X011670Y017298D01*
X011670Y017457D02*
X014731Y017457D01*
X014890Y017615D02*
X011638Y017615D01*
X011539Y017774D02*
X015048Y017774D01*
X015207Y017932D02*
X007357Y017932D01*
X007674Y018249D02*
X008745Y018249D01*
X008631Y018408D02*
X007833Y018408D01*
X007991Y018566D02*
X008578Y018566D01*
X008568Y018632D02*
X008568Y018632D01*
X009132Y018566D02*
X009228Y018566D01*
X009228Y018408D02*
X009132Y018408D01*
X009132Y018249D02*
X009228Y018249D01*
X009440Y017774D02*
X009920Y017774D01*
X009798Y017615D02*
X009562Y017615D01*
X009600Y017457D02*
X009760Y017457D01*
X009760Y017298D02*
X009600Y017298D01*
X009600Y017140D02*
X009760Y017140D01*
X009760Y016981D02*
X009704Y016981D01*
X008760Y016981D02*
X008704Y016981D01*
X008760Y017140D02*
X008600Y017140D01*
X008600Y017298D02*
X008760Y017298D01*
X008760Y017457D02*
X008600Y017457D01*
X008562Y017615D02*
X008798Y017615D01*
X008920Y017774D02*
X008440Y017774D01*
X007024Y018249D02*
X006615Y018249D01*
X006647Y018281D02*
X006704Y018359D01*
X006748Y018445D01*
X006777Y018537D01*
X006792Y018632D01*
X006792Y018632D01*
X006228Y018632D01*
X006228Y018728D01*
X006792Y018728D01*
X006777Y018823D01*
X006748Y018915D01*
X006704Y019001D01*
X006647Y019079D01*
X006579Y019147D01*
X006501Y019204D01*
X006415Y019248D01*
X006323Y019277D01*
X006228Y019292D01*
X006228Y019292D01*
X006228Y018728D01*
X006132Y018728D01*
X006132Y019292D01*
X006037Y019277D01*
X005945Y019248D01*
X005859Y019204D01*
X005781Y019147D01*
X005713Y019079D01*
X005656Y019001D01*
X005612Y018915D01*
X005583Y018823D01*
X005568Y018728D01*
X005568Y018728D01*
X006132Y018728D01*
X006132Y018632D01*
X006228Y018632D01*
X006228Y018068D01*
X006323Y018083D01*
X006415Y018112D01*
X006501Y018156D01*
X006579Y018213D01*
X006647Y018281D01*
X006729Y018408D02*
X007182Y018408D01*
X007341Y018566D02*
X006782Y018566D01*
X006792Y018728D02*
X006792Y018728D01*
X006758Y018883D02*
X007658Y018883D01*
X007816Y019042D02*
X006674Y019042D01*
X006506Y019200D02*
X007975Y019200D01*
X008133Y019359D02*
X000660Y019359D01*
X000660Y019517D02*
X008292Y019517D01*
X008450Y019676D02*
X000660Y019676D01*
X000660Y019834D02*
X008609Y019834D01*
X008767Y019993D02*
X000660Y019993D01*
X000660Y020151D02*
X004039Y020151D01*
X004072Y020138D02*
X004288Y020138D01*
X004487Y020220D01*
X004640Y020373D01*
X004722Y020572D01*
X004722Y020788D01*
X004640Y020987D01*
X004487Y021140D01*
X004288Y021222D01*
X004072Y021222D01*
X003873Y021140D01*
X003720Y020987D01*
X003638Y020788D01*
X003638Y020572D01*
X003720Y020373D01*
X003873Y020220D01*
X004072Y020138D01*
X004321Y020151D02*
X008926Y020151D01*
X009084Y020310D02*
X004577Y020310D01*
X004679Y020468D02*
X009243Y020468D01*
X009401Y020627D02*
X004722Y020627D01*
X004722Y020785D02*
X009550Y020785D01*
X009550Y020944D02*
X004658Y020944D01*
X004525Y021102D02*
X009550Y021102D01*
X009550Y021261D02*
X000660Y021261D01*
X000660Y021419D02*
X009550Y021419D01*
X009550Y021578D02*
X000660Y021578D01*
X000660Y021736D02*
X009550Y021736D01*
X009550Y021895D02*
X000660Y021895D01*
X000660Y022053D02*
X009550Y022053D01*
X009228Y022068D02*
X009228Y022068D01*
X009132Y022067D02*
X009132Y022632D01*
X008568Y022632D01*
X008583Y022537D01*
X008612Y022445D01*
X008656Y022359D01*
X008713Y022281D01*
X008781Y022213D01*
X008859Y022156D01*
X008945Y022112D01*
X009037Y022083D01*
X009132Y022068D01*
X009132Y022067D01*
X009132Y022212D02*
X009228Y022212D01*
X009228Y022370D02*
X009132Y022370D01*
X009132Y022529D02*
X009228Y022529D01*
X009132Y022687D02*
X006228Y022687D01*
X006228Y022728D02*
X006792Y022728D01*
X006777Y022823D01*
X006748Y022915D01*
X006704Y023001D01*
X006647Y023079D01*
X006579Y023147D01*
X006501Y023204D01*
X006415Y023248D01*
X006323Y023277D01*
X006228Y023292D01*
X006228Y023292D01*
X006228Y022728D01*
X006228Y022632D01*
X006792Y022632D01*
X006792Y022632D01*
X006777Y022537D01*
X006748Y022445D01*
X006704Y022359D01*
X006647Y022281D01*
X006579Y022213D01*
X006501Y022156D01*
X006415Y022112D01*
X006323Y022083D01*
X006228Y022068D01*
X006228Y022068D01*
X006228Y022632D01*
X006132Y022632D01*
X006132Y022067D01*
X006132Y022068D01*
X006037Y022083D01*
X005945Y022112D01*
X005859Y022156D01*
X005781Y022213D01*
X005713Y022281D01*
X005656Y022359D01*
X005612Y022445D01*
X005583Y022537D01*
X005568Y022632D01*
X005568Y022632D01*
X006132Y022632D01*
X006132Y022728D01*
X006132Y023292D01*
X006037Y023277D01*
X005945Y023248D01*
X005859Y023204D01*
X005781Y023147D01*
X005713Y023079D01*
X005656Y023001D01*
X005612Y022915D01*
X005583Y022823D01*
X005568Y022728D01*
X005568Y022728D01*
X006132Y022728D01*
X006228Y022728D01*
X006132Y022687D02*
X002228Y022687D01*
X002228Y022728D02*
X002792Y022728D01*
X002777Y022823D01*
X002748Y022915D01*
X002704Y023001D01*
X002647Y023079D01*
X002579Y023147D01*
X002501Y023204D01*
X002415Y023248D01*
X002323Y023277D01*
X002228Y023292D01*
X002228Y023292D01*
X002228Y022728D01*
X002228Y022632D01*
X002792Y022632D01*
X002792Y022632D01*
X002777Y022537D01*
X002748Y022445D01*
X002704Y022359D01*
X002647Y022281D01*
X002579Y022213D01*
X002501Y022156D01*
X002415Y022112D01*
X002323Y022083D01*
X002228Y022068D01*
X002228Y022068D01*
X002228Y022632D01*
X002132Y022632D01*
X002132Y022067D01*
X002132Y022068D01*
X002037Y022083D01*
X001945Y022112D01*
X001859Y022156D01*
X001781Y022213D01*
X001713Y022281D01*
X001656Y022359D01*
X001612Y022445D01*
X001583Y022537D01*
X001568Y022632D01*
X001568Y022632D01*
X002132Y022632D01*
X002132Y022728D01*
X002132Y023292D01*
X002037Y023277D01*
X001945Y023248D01*
X001859Y023204D01*
X001781Y023147D01*
X001713Y023079D01*
X001656Y023001D01*
X001612Y022915D01*
X001583Y022823D01*
X001568Y022728D01*
X001568Y022728D01*
X002132Y022728D01*
X002228Y022728D01*
X002132Y022687D02*
X000660Y022687D01*
X000660Y022529D02*
X001585Y022529D01*
X001651Y022370D02*
X000660Y022370D01*
X000660Y022212D02*
X001783Y022212D01*
X002132Y022212D02*
X002228Y022212D01*
X002228Y022370D02*
X002132Y022370D01*
X002132Y022529D02*
X002228Y022529D01*
X002228Y022846D02*
X002132Y022846D01*
X002132Y023004D02*
X002228Y023004D01*
X002228Y023163D02*
X002132Y023163D01*
X002132Y023292D02*
X002132Y023292D01*
X001802Y023163D02*
X000660Y023163D01*
X000660Y023321D02*
X009550Y023321D01*
X009550Y023480D02*
X000660Y023480D01*
X000660Y023638D02*
X009550Y023638D01*
X009550Y023797D02*
X000660Y023797D01*
X000660Y023955D02*
X009550Y023955D01*
X009132Y023292D02*
X009132Y023292D01*
X009132Y023163D02*
X009228Y023163D01*
X009228Y023004D02*
X009132Y023004D01*
X009132Y022846D02*
X009228Y022846D01*
X008658Y023004D02*
X006702Y023004D01*
X006770Y022846D02*
X008590Y022846D01*
X008568Y022632D02*
X008568Y022632D01*
X008585Y022529D02*
X006775Y022529D01*
X006709Y022370D02*
X008651Y022370D01*
X008783Y022212D02*
X006577Y022212D01*
X006228Y022212D02*
X006132Y022212D01*
X006132Y022370D02*
X006228Y022370D01*
X006228Y022529D02*
X006132Y022529D01*
X006132Y022846D02*
X006228Y022846D01*
X006228Y023004D02*
X006132Y023004D01*
X006132Y023163D02*
X006228Y023163D01*
X006132Y023292D02*
X006132Y023292D01*
X005802Y023163D02*
X002558Y023163D01*
X002702Y023004D02*
X005658Y023004D01*
X005590Y022846D02*
X002770Y022846D01*
X002792Y022728D02*
X002792Y022728D01*
X002775Y022529D02*
X005585Y022529D01*
X005651Y022370D02*
X002709Y022370D01*
X002577Y022212D02*
X005783Y022212D01*
X006792Y022728D02*
X006792Y022728D01*
X006558Y023163D02*
X008802Y023163D01*
X010010Y022370D02*
X012651Y022370D01*
X012783Y022212D02*
X010010Y022212D01*
X010010Y021736D02*
X015544Y021736D01*
X015245Y021578D02*
X010010Y021578D01*
X010010Y021419D02*
X015085Y021419D01*
X013228Y022068D02*
X013228Y022068D01*
X013228Y022212D02*
X013132Y022212D01*
X013132Y022370D02*
X013228Y022370D01*
X013228Y022529D02*
X013132Y022529D01*
X013132Y022846D02*
X013228Y022846D01*
X013228Y023004D02*
X013132Y023004D01*
X013132Y023163D02*
X013228Y023163D01*
X013132Y023292D02*
X013132Y023292D01*
X013558Y023163D02*
X020437Y023163D01*
X020279Y023004D02*
X013702Y023004D01*
X020816Y021736D02*
X022544Y021736D01*
X022245Y021578D02*
X021115Y021578D01*
X021275Y021419D02*
X022085Y021419D01*
X021972Y021261D02*
X021388Y021261D01*
X021476Y021102D02*
X021884Y021102D01*
X021841Y020944D02*
X021519Y020944D01*
X021550Y020785D02*
X021810Y020785D01*
X021810Y020627D02*
X021550Y020627D01*
X021533Y020468D02*
X021827Y020468D01*
X021870Y020310D02*
X021490Y020310D01*
X021418Y020151D02*
X021942Y020151D01*
X022034Y019993D02*
X021326Y019993D01*
X021168Y019834D02*
X022192Y019834D01*
X022430Y019676D02*
X020930Y019676D01*
X020140Y018566D02*
X022750Y018566D01*
X022750Y018408D02*
X020309Y018408D01*
X020367Y018249D02*
X022750Y018249D01*
X022750Y018091D02*
X020395Y018091D01*
X020553Y017932D02*
X022750Y017932D01*
X022750Y017774D02*
X020712Y017774D01*
X020870Y017615D02*
X022750Y017615D01*
X022750Y017457D02*
X021029Y017457D01*
X021187Y017298D02*
X022750Y017298D01*
X022750Y017140D02*
X021346Y017140D01*
X021504Y016981D02*
X022750Y016981D01*
X022750Y016823D02*
X021663Y016823D01*
X021810Y016664D02*
X022750Y016664D01*
X022750Y016506D02*
X021810Y016506D01*
X021810Y016347D02*
X022750Y016347D01*
X022750Y016189D02*
X021810Y016189D01*
X021810Y016030D02*
X022750Y016030D01*
X022750Y015872D02*
X021810Y015872D01*
X021810Y015713D02*
X022750Y015713D01*
X022750Y015555D02*
X021810Y015555D01*
X021810Y015396D02*
X022750Y015396D01*
X022750Y015238D02*
X021810Y015238D01*
X021810Y015079D02*
X022750Y015079D01*
X022750Y014921D02*
X021911Y014921D01*
X021940Y014762D02*
X022750Y014762D01*
X022750Y014604D02*
X021897Y014604D01*
X021810Y014445D02*
X022750Y014445D01*
X022750Y014287D02*
X021810Y014287D01*
X021810Y014128D02*
X022750Y014128D01*
X022750Y013970D02*
X021810Y013970D01*
X021810Y013811D02*
X022750Y013811D01*
X022760Y013653D02*
X021810Y013653D01*
X021810Y013494D02*
X022772Y013494D01*
X022931Y013336D02*
X021810Y013336D01*
X021810Y013177D02*
X023450Y013177D01*
X023450Y013019D02*
X021810Y013019D01*
X021810Y012860D02*
X023450Y012860D01*
X023450Y012702D02*
X021810Y012702D01*
X021810Y012543D02*
X023450Y012543D01*
X023450Y012385D02*
X021810Y012385D01*
X021810Y012226D02*
X023450Y012226D01*
X023450Y012068D02*
X021810Y012068D01*
X021810Y011909D02*
X023450Y011909D01*
X023450Y011751D02*
X021810Y011751D01*
X021810Y011592D02*
X023450Y011592D01*
X023450Y011434D02*
X021810Y011434D01*
X021810Y011275D02*
X023450Y011275D01*
X023450Y011117D02*
X023310Y011117D01*
X022130Y011117D02*
X021810Y011117D01*
X021810Y010958D02*
X021941Y010958D01*
X021871Y010800D02*
X021810Y010800D01*
X021810Y010641D02*
X021855Y010641D01*
X021886Y010483D02*
X021810Y010483D01*
X021810Y010324D02*
X021979Y010324D01*
X021810Y010166D02*
X022222Y010166D01*
X021810Y010007D02*
X023450Y010007D01*
X023450Y009849D02*
X021810Y009849D01*
X021810Y009690D02*
X023450Y009690D01*
X023450Y009532D02*
X021757Y009532D01*
X021598Y009373D02*
X023450Y009373D01*
X023450Y009215D02*
X021440Y009215D01*
X021361Y009056D02*
X021999Y009056D01*
X021895Y008898D02*
X021465Y008898D01*
X021505Y008739D02*
X021855Y008739D01*
X021862Y008581D02*
X021498Y008581D01*
X021432Y008422D02*
X021928Y008422D01*
X022082Y008264D02*
X021278Y008264D01*
X020797Y007788D02*
X023450Y007788D01*
X023450Y007630D02*
X020956Y007630D01*
X021114Y007471D02*
X023450Y007471D01*
X023450Y007313D02*
X021273Y007313D01*
X021431Y007154D02*
X023450Y007154D01*
X023450Y006996D02*
X021590Y006996D01*
X021748Y006837D02*
X023450Y006837D01*
X023450Y006679D02*
X021907Y006679D01*
X022065Y006520D02*
X023450Y006520D01*
X023450Y006362D02*
X022224Y006362D01*
X022382Y006203D02*
X023450Y006203D01*
X023450Y006045D02*
X022541Y006045D01*
X022699Y005886D02*
X023450Y005886D01*
X023450Y005728D02*
X022858Y005728D01*
X023016Y005569D02*
X023566Y005569D01*
X023724Y005411D02*
X023175Y005411D01*
X022683Y005252D02*
X019710Y005252D01*
X019710Y005094D02*
X019996Y005094D01*
X019847Y004935D02*
X019710Y004935D01*
X019710Y004777D02*
X019781Y004777D01*
X019775Y004618D02*
X019710Y004618D01*
X019710Y004460D02*
X019816Y004460D01*
X019710Y004301D02*
X019922Y004301D01*
X019710Y004143D02*
X024492Y004143D01*
X024334Y004301D02*
X023438Y004301D01*
X023544Y004460D02*
X024175Y004460D01*
X024017Y004618D02*
X023585Y004618D01*
X023579Y004777D02*
X023858Y004777D01*
X023700Y004935D02*
X023513Y004935D01*
X022524Y005411D02*
X019710Y005411D01*
X019710Y005569D02*
X022366Y005569D01*
X022207Y005728D02*
X019710Y005728D01*
X019710Y005886D02*
X022049Y005886D01*
X021890Y006045D02*
X019710Y006045D01*
X019710Y006203D02*
X021732Y006203D01*
X021573Y006362D02*
X019710Y006362D01*
X019710Y006520D02*
X021415Y006520D01*
X021256Y006679D02*
X019710Y006679D01*
X019710Y006837D02*
X021098Y006837D01*
X020939Y006996D02*
X019710Y006996D01*
X019710Y007154D02*
X020781Y007154D01*
X020622Y007313D02*
X019710Y007313D01*
X019710Y007471D02*
X020464Y007471D01*
X020305Y007630D02*
X019710Y007630D01*
X019710Y007788D02*
X020147Y007788D01*
X019988Y007947D02*
X019710Y007947D01*
X019710Y008105D02*
X019830Y008105D01*
X019250Y008105D02*
X019003Y008105D01*
X019015Y007947D02*
X019250Y007947D01*
X019250Y007788D02*
X019015Y007788D01*
X018968Y007630D02*
X019250Y007630D01*
X019250Y007471D02*
X018902Y007471D01*
X018763Y007313D02*
X019250Y007313D01*
X019250Y007154D02*
X018537Y007154D01*
X017823Y007154D02*
X017640Y007154D01*
X017593Y006996D02*
X019250Y006996D01*
X020639Y007947D02*
X023450Y007947D01*
X023450Y008105D02*
X020480Y008105D01*
X019250Y008264D02*
X018937Y008264D01*
X018849Y008422D02*
X019250Y008422D01*
X019250Y008581D02*
X018690Y008581D01*
X018361Y008739D02*
X019250Y008739D01*
X019250Y008898D02*
X017510Y008898D01*
X017510Y009056D02*
X019250Y009056D01*
X019250Y009215D02*
X017510Y009215D01*
X017510Y009373D02*
X019250Y009373D01*
X019250Y009532D02*
X017510Y009532D01*
X017510Y009690D02*
X019250Y009690D01*
X019240Y009849D02*
X017510Y009849D01*
X017510Y010007D02*
X019062Y010007D01*
X019020Y010166D02*
X017510Y010166D01*
X017510Y010324D02*
X019050Y010324D01*
X019173Y010483D02*
X017510Y010483D01*
X017510Y010641D02*
X017951Y010641D01*
X017650Y010800D02*
X017510Y010800D01*
X018409Y010641D02*
X019250Y010641D01*
X019250Y010800D02*
X018710Y010800D01*
X018869Y010958D02*
X019250Y010958D01*
X019250Y011117D02*
X018946Y011117D01*
X019011Y011275D02*
X019250Y011275D01*
X019101Y011434D02*
X019015Y011434D01*
X020010Y011434D02*
X021350Y011434D01*
X021350Y011592D02*
X020010Y011592D01*
X020010Y011751D02*
X021350Y011751D01*
X021350Y011909D02*
X020010Y011909D01*
X020010Y012068D02*
X021350Y012068D01*
X021350Y012226D02*
X020010Y012226D01*
X020010Y012385D02*
X021350Y012385D01*
X021350Y012543D02*
X020010Y012543D01*
X020010Y012702D02*
X021350Y012702D01*
X021350Y012860D02*
X020010Y012860D01*
X020010Y013019D02*
X021350Y013019D01*
X021350Y013177D02*
X020008Y013177D01*
X020006Y013260D02*
X020354Y013260D01*
X020600Y013506D01*
X020600Y013854D01*
X020354Y014100D01*
X020006Y014100D01*
X019760Y013854D01*
X019760Y013506D01*
X020006Y013260D01*
X019931Y013336D02*
X019850Y013336D01*
X019772Y013494D02*
X019691Y013494D01*
X019760Y013653D02*
X019600Y013653D01*
X019600Y013811D02*
X019760Y013811D01*
X019876Y013970D02*
X019484Y013970D01*
X018910Y014128D02*
X021350Y014128D01*
X021350Y013970D02*
X020484Y013970D01*
X020600Y013811D02*
X021350Y013811D01*
X021350Y013653D02*
X020600Y013653D01*
X020588Y013494D02*
X021350Y013494D01*
X021350Y013336D02*
X020429Y013336D01*
X018450Y012860D02*
X017325Y012860D01*
X017484Y012702D02*
X018450Y012702D01*
X018450Y012543D02*
X017510Y012543D01*
X017510Y012385D02*
X018450Y012385D01*
X017872Y012226D02*
X017510Y012226D01*
X017510Y012068D02*
X017617Y012068D01*
X020010Y011275D02*
X021350Y011275D01*
X021350Y011117D02*
X021230Y011117D01*
X020050Y011117D02*
X020010Y011117D01*
X023218Y010166D02*
X023450Y010166D01*
X023441Y009056D02*
X023450Y009056D01*
X023450Y008264D02*
X023358Y008264D01*
X026410Y008105D02*
X026530Y008105D01*
X026410Y007947D02*
X026688Y007947D01*
X026847Y007788D02*
X026410Y007788D01*
X026410Y007630D02*
X027005Y007630D01*
X027164Y007471D02*
X026410Y007471D01*
X026410Y007313D02*
X027322Y007313D01*
X027481Y007154D02*
X026410Y007154D01*
X026410Y006996D02*
X027639Y006996D01*
X027798Y006837D02*
X026410Y006837D01*
X026410Y006679D02*
X027920Y006679D01*
X027957Y006520D02*
X026410Y006520D01*
X026410Y006362D02*
X028108Y006362D01*
X028452Y006362D02*
X028773Y006362D01*
X028615Y006520D02*
X028603Y006520D01*
X028932Y006203D02*
X026410Y006203D01*
X026410Y006045D02*
X029090Y006045D01*
X029249Y005886D02*
X026410Y005886D01*
X026410Y005728D02*
X029407Y005728D01*
X029566Y005569D02*
X026410Y005569D01*
X026410Y005411D02*
X029724Y005411D01*
X029883Y005252D02*
X026410Y005252D01*
X026410Y005094D02*
X026996Y005094D01*
X026847Y004935D02*
X026410Y004935D01*
X026410Y004777D02*
X026781Y004777D01*
X026775Y004618D02*
X026410Y004618D01*
X026410Y004460D02*
X026816Y004460D01*
X026922Y004301D02*
X026410Y004301D01*
X026543Y004143D02*
X030350Y004143D01*
X030350Y003984D02*
X026701Y003984D01*
X026860Y003826D02*
X030350Y003826D01*
X030350Y003667D02*
X027018Y003667D01*
X027177Y003509D02*
X030350Y003509D01*
X030350Y003350D02*
X027335Y003350D01*
X028145Y003192D02*
X029215Y003192D01*
X028976Y003033D02*
X028384Y003033D01*
X028475Y002875D02*
X028885Y002875D01*
X028855Y002716D02*
X028505Y002716D01*
X028488Y002558D02*
X028872Y002558D01*
X028944Y002399D02*
X028416Y002399D01*
X028222Y002241D02*
X029138Y002241D01*
X030302Y002241D02*
X030350Y002241D01*
X030350Y002082D02*
X027203Y002082D01*
X027058Y002241D02*
X027045Y002241D01*
X026553Y002082D02*
X026013Y002082D01*
X026015Y002076D02*
X025888Y002383D01*
X025653Y002618D01*
X025346Y002745D01*
X025014Y002745D01*
X024707Y002618D01*
X024472Y002383D01*
X024345Y002076D01*
X024345Y001744D01*
X024472Y001437D01*
X024707Y001202D01*
X025014Y001075D01*
X025346Y001075D01*
X025653Y001202D01*
X025888Y001437D01*
X026015Y001744D01*
X026015Y002076D01*
X026015Y001924D02*
X026711Y001924D01*
X026870Y001765D02*
X026015Y001765D01*
X025958Y001607D02*
X027028Y001607D01*
X027187Y001448D02*
X025892Y001448D01*
X025740Y001290D02*
X027228Y001290D01*
X027320Y001131D02*
X025481Y001131D01*
X024879Y001131D02*
X018481Y001131D01*
X018740Y001290D02*
X024620Y001290D01*
X024468Y001448D02*
X018892Y001448D01*
X018958Y001607D02*
X024402Y001607D01*
X024345Y001765D02*
X019015Y001765D01*
X019015Y001924D02*
X024345Y001924D01*
X024347Y002082D02*
X019013Y002082D01*
X018947Y002241D02*
X020058Y002241D01*
X021222Y002241D02*
X022138Y002241D01*
X022077Y002266D02*
X022266Y002188D01*
X023174Y002188D01*
X023363Y002266D01*
X023507Y002410D01*
X023585Y002598D01*
X023585Y002802D01*
X023507Y002990D01*
X023363Y003134D01*
X023174Y003212D01*
X022266Y003212D01*
X022077Y003134D01*
X021933Y002990D01*
X021855Y002802D01*
X021855Y002598D01*
X021933Y002410D01*
X022077Y002266D01*
X021944Y002399D02*
X021416Y002399D01*
X021488Y002558D02*
X021872Y002558D01*
X021855Y002716D02*
X021505Y002716D01*
X021475Y002875D02*
X021885Y002875D01*
X021976Y003033D02*
X021384Y003033D01*
X021145Y003192D02*
X022215Y003192D01*
X023225Y003192D02*
X025443Y003192D01*
X025285Y003350D02*
X020335Y003350D01*
X020177Y003509D02*
X025126Y003509D01*
X024968Y003667D02*
X020018Y003667D01*
X019860Y003826D02*
X024809Y003826D01*
X024651Y003984D02*
X019710Y003984D01*
X019250Y004777D02*
X018687Y004777D01*
X018846Y004935D02*
X019250Y004935D01*
X019250Y005094D02*
X018936Y005094D01*
X019002Y005252D02*
X019250Y005252D01*
X019250Y005411D02*
X019015Y005411D01*
X019015Y005569D02*
X019250Y005569D01*
X019250Y005728D02*
X018969Y005728D01*
X018903Y005886D02*
X019250Y005886D01*
X019250Y006045D02*
X018766Y006045D01*
X018544Y006203D02*
X019250Y006203D01*
X021284Y005094D02*
X022076Y005094D01*
X021927Y004935D02*
X021433Y004935D01*
X021358Y004301D02*
X022002Y004301D01*
X023464Y003033D02*
X025602Y003033D01*
X025760Y002875D02*
X023555Y002875D01*
X023585Y002716D02*
X024944Y002716D01*
X024647Y002558D02*
X023568Y002558D01*
X023496Y002399D02*
X024488Y002399D01*
X024413Y002241D02*
X023302Y002241D01*
X025416Y002716D02*
X025919Y002716D01*
X026077Y002558D02*
X025713Y002558D01*
X025872Y002399D02*
X026236Y002399D01*
X026394Y002241D02*
X025947Y002241D01*
X027362Y001924D02*
X030350Y001924D01*
X030350Y001765D02*
X027520Y001765D01*
X027863Y001607D02*
X030428Y001607D01*
X030587Y001448D02*
X027940Y001448D01*
X027932Y001290D02*
X030745Y001290D01*
X030904Y001131D02*
X027840Y001131D01*
X030225Y003192D02*
X030350Y003192D01*
X029002Y004301D02*
X028358Y004301D01*
X028433Y004935D02*
X028927Y004935D01*
X029076Y005094D02*
X028284Y005094D01*
X033550Y008635D02*
X030910Y011275D01*
X031349Y011275D01*
X031345Y011284D02*
X031472Y010977D01*
X031707Y010742D01*
X032014Y010615D01*
X032346Y010615D01*
X032653Y010742D01*
X032888Y010977D01*
X033015Y011284D01*
X033015Y011616D01*
X032888Y011923D01*
X032653Y012158D01*
X032346Y012285D01*
X032014Y012285D01*
X031707Y012158D01*
X031472Y011923D01*
X031345Y011616D01*
X031345Y011284D01*
X031345Y011434D02*
X030910Y011434D01*
X030910Y011592D02*
X031345Y011592D01*
X031401Y011751D02*
X030910Y011751D01*
X030910Y011909D02*
X031466Y011909D01*
X031617Y012068D02*
X030910Y012068D01*
X030910Y012226D02*
X031872Y012226D01*
X032488Y012226D02*
X034309Y012226D01*
X034320Y012215D02*
X034320Y012108D01*
X034375Y011976D01*
X034476Y011875D01*
X034608Y011820D01*
X034752Y011820D01*
X034884Y011875D01*
X034985Y011976D01*
X035040Y012108D01*
X035040Y012252D01*
X034985Y012384D01*
X034884Y012485D01*
X034752Y012540D01*
X034645Y012540D01*
X033600Y013585D01*
X033600Y013854D01*
X033354Y014100D01*
X033006Y014100D01*
X032760Y013854D01*
X032760Y013506D01*
X033006Y013260D01*
X033275Y013260D01*
X034320Y012215D01*
X034337Y012068D02*
X032743Y012068D01*
X032894Y011909D02*
X033500Y011909D01*
X033475Y011884D02*
X033420Y011752D01*
X033420Y011608D01*
X033475Y011476D01*
X033550Y011401D01*
X033550Y008635D01*
X033550Y008739D02*
X033446Y008739D01*
X033550Y008898D02*
X033288Y008898D01*
X033129Y009056D02*
X033550Y009056D01*
X033550Y009215D02*
X032971Y009215D01*
X032812Y009373D02*
X033550Y009373D01*
X033550Y009532D02*
X032654Y009532D01*
X032495Y009690D02*
X033550Y009690D01*
X033550Y009849D02*
X032337Y009849D01*
X032178Y010007D02*
X033550Y010007D01*
X033550Y010166D02*
X032020Y010166D01*
X031861Y010324D02*
X033550Y010324D01*
X033550Y010483D02*
X031703Y010483D01*
X031544Y010641D02*
X031951Y010641D01*
X031650Y010800D02*
X031386Y010800D01*
X031491Y010958D02*
X031227Y010958D01*
X031069Y011117D02*
X031414Y011117D01*
X030910Y011275D02*
X030910Y013356D01*
X031006Y013260D01*
X031323Y013260D01*
X031320Y013252D01*
X031320Y013108D01*
X031375Y012976D01*
X031476Y012875D01*
X031608Y012820D01*
X031752Y012820D01*
X031884Y012875D01*
X031985Y012976D01*
X032040Y013108D01*
X032040Y013215D01*
X032275Y013450D01*
X032410Y013585D01*
X032410Y014161D01*
X032508Y014120D01*
X032652Y014120D01*
X032784Y014175D01*
X032885Y014276D01*
X032940Y014408D01*
X032940Y014515D01*
X033275Y014850D01*
X033410Y014985D01*
X033410Y016561D01*
X033418Y016564D01*
X033536Y016682D01*
X033600Y016836D01*
X033600Y017524D01*
X033548Y017650D01*
X033812Y017650D01*
X033760Y017524D01*
X033760Y016836D01*
X033824Y016682D01*
X033942Y016564D01*
X034096Y016500D01*
X034264Y016500D01*
X034418Y016564D01*
X034536Y016682D01*
X034600Y016836D01*
X034600Y017524D01*
X034548Y017650D01*
X034812Y017650D01*
X034760Y017524D01*
X034760Y016836D01*
X034824Y016682D01*
X034942Y016564D01*
X035096Y016500D01*
X035264Y016500D01*
X035418Y016564D01*
X035536Y016682D01*
X035600Y016836D01*
X035600Y017524D01*
X035536Y017678D01*
X035418Y017796D01*
X035410Y017799D01*
X035410Y017975D01*
X035275Y018110D01*
X034408Y018110D01*
X034415Y018112D01*
X034501Y018156D01*
X034579Y018213D01*
X034647Y018281D01*
X034704Y018359D01*
X034748Y018445D01*
X034777Y018537D01*
X034792Y018632D01*
X034792Y018632D01*
X034228Y018632D01*
X034228Y018728D01*
X034132Y018728D01*
X034132Y019292D01*
X034037Y019277D01*
X033945Y019248D01*
X033859Y019204D01*
X033781Y019147D01*
X033713Y019079D01*
X033656Y019001D01*
X033612Y018915D01*
X033583Y018823D01*
X033568Y018728D01*
X033568Y018728D01*
X034132Y018728D01*
X034132Y018632D01*
X033568Y018632D01*
X033583Y018537D01*
X033612Y018445D01*
X033656Y018359D01*
X033713Y018281D01*
X033781Y018213D01*
X033859Y018156D01*
X033945Y018112D01*
X033952Y018110D01*
X031885Y018110D01*
X031750Y017975D01*
X031450Y017675D01*
X031450Y014275D01*
X031275Y014100D01*
X031006Y014100D01*
X030910Y014004D01*
X030910Y015175D01*
X030775Y015310D01*
X026340Y019745D01*
X026340Y019852D01*
X026285Y019984D01*
X026184Y020085D01*
X026052Y020140D01*
X025908Y020140D01*
X025810Y020099D01*
X025810Y020285D01*
X026310Y020785D01*
X026310Y020533D01*
X026386Y020248D01*
X026534Y019992D01*
X026742Y019784D01*
X026998Y019636D01*
X027283Y019560D01*
X027577Y019560D01*
X027862Y019636D01*
X028118Y019784D01*
X028326Y019992D01*
X028474Y020248D01*
X028550Y020533D01*
X028550Y020827D01*
X028474Y021112D01*
X028326Y021368D01*
X028118Y021576D01*
X027862Y021724D01*
X027577Y021800D01*
X027283Y021800D01*
X026998Y021724D01*
X026742Y021576D01*
X026710Y021544D01*
X026710Y023050D01*
X029692Y023050D01*
X029656Y023001D01*
X029612Y022915D01*
X029583Y022823D01*
X029568Y022728D01*
X029568Y022728D01*
X030132Y022728D01*
X030132Y022632D01*
X030228Y022632D01*
X030228Y022728D01*
X030792Y022728D01*
X030777Y022823D01*
X030748Y022915D01*
X030704Y023001D01*
X030668Y023050D01*
X033692Y023050D01*
X033656Y023001D01*
X033612Y022915D01*
X033583Y022823D01*
X033568Y022728D01*
X033568Y022728D01*
X034132Y022728D01*
X034132Y022632D01*
X034228Y022632D01*
X034228Y022728D01*
X034792Y022728D01*
X034777Y022823D01*
X034748Y022915D01*
X034704Y023001D01*
X034668Y023050D01*
X036692Y023050D01*
X036656Y023001D01*
X036612Y022915D01*
X036583Y022823D01*
X036568Y022728D01*
X036568Y022728D01*
X037132Y022728D01*
X037132Y022632D01*
X037228Y022632D01*
X037228Y022728D01*
X037792Y022728D01*
X037777Y022823D01*
X037748Y022915D01*
X037704Y023001D01*
X037668Y023050D01*
X040692Y023050D01*
X040656Y023001D01*
X040612Y022915D01*
X040583Y022823D01*
X040568Y022728D01*
X040568Y022728D01*
X041132Y022728D01*
X041132Y022632D01*
X041228Y022632D01*
X041228Y022068D01*
X041323Y022083D01*
X041415Y022112D01*
X041501Y022156D01*
X041579Y022213D01*
X041647Y022281D01*
X041704Y022359D01*
X041747Y022443D01*
X041775Y022376D01*
X041876Y022275D01*
X042008Y022220D01*
X042152Y022220D01*
X042284Y022275D01*
X042385Y022376D01*
X042440Y022508D01*
X042440Y022652D01*
X042385Y022784D01*
X042284Y022885D01*
X042152Y022940D01*
X042045Y022940D01*
X041635Y023350D01*
X044585Y023350D01*
X051150Y016785D01*
X051150Y016159D01*
X051075Y016084D01*
X051020Y015952D01*
X051020Y015808D01*
X051075Y015676D01*
X051176Y015575D01*
X051308Y015520D01*
X051452Y015520D01*
X051550Y015561D01*
X051550Y008999D01*
X051452Y009040D01*
X051308Y009040D01*
X051176Y008985D01*
X051075Y008884D01*
X051020Y008752D01*
X051020Y008608D01*
X051075Y008476D01*
X051150Y008401D01*
X051150Y007430D01*
X051129Y007480D01*
X050980Y007629D01*
X050785Y007710D01*
X050575Y007710D01*
X050380Y007629D01*
X050231Y007480D01*
X050180Y007358D01*
X050129Y007480D01*
X049980Y007629D01*
X049785Y007710D01*
X049575Y007710D01*
X049380Y007629D01*
X049231Y007480D01*
X049180Y007358D01*
X049129Y007480D01*
X048980Y007629D01*
X048785Y007710D01*
X048575Y007710D01*
X048380Y007629D01*
X048231Y007480D01*
X048180Y007358D01*
X048129Y007480D01*
X047980Y007629D01*
X047785Y007710D01*
X047575Y007710D01*
X047380Y007629D01*
X047231Y007480D01*
X047180Y007358D01*
X047129Y007480D01*
X046980Y007629D01*
X046785Y007710D01*
X046575Y007710D01*
X046380Y007629D01*
X046231Y007480D01*
X046180Y007358D01*
X046129Y007480D01*
X045980Y007629D01*
X045785Y007710D01*
X045575Y007710D01*
X045380Y007629D01*
X045231Y007480D01*
X045180Y007358D01*
X045129Y007480D01*
X044980Y007629D01*
X044947Y007643D01*
X044994Y007667D01*
X045071Y007722D01*
X045138Y007789D01*
X045193Y007866D01*
X045236Y007950D01*
X045265Y008039D01*
X045280Y008133D01*
X045280Y008160D01*
X044700Y008160D01*
X044700Y008200D01*
X045280Y008200D01*
X045280Y008227D01*
X045265Y008320D01*
X045236Y008410D01*
X045193Y008494D01*
X045138Y008571D01*
X045071Y008638D01*
X044994Y008693D01*
X044947Y008717D01*
X044980Y008731D01*
X045129Y008880D01*
X045210Y009075D01*
X045210Y009285D01*
X045129Y009480D01*
X044980Y009629D01*
X044858Y009680D01*
X044980Y009731D01*
X045129Y009880D01*
X045210Y010075D01*
X045210Y010285D01*
X045129Y010480D01*
X044980Y010629D01*
X044858Y010680D01*
X044980Y010731D01*
X045129Y010880D01*
X045210Y011075D01*
X045210Y011285D01*
X045129Y011480D01*
X044980Y011629D01*
X044858Y011680D01*
X044980Y011731D01*
X045129Y011880D01*
X045210Y012075D01*
X045210Y012285D01*
X045129Y012480D01*
X044980Y012629D01*
X044858Y012680D01*
X044980Y012731D01*
X045129Y012880D01*
X045210Y013075D01*
X045210Y013285D01*
X045129Y013480D01*
X044980Y013629D01*
X044858Y013680D01*
X044980Y013731D01*
X045129Y013880D01*
X045210Y014075D01*
X045210Y014285D01*
X045129Y014480D01*
X044980Y014629D01*
X044858Y014680D01*
X044980Y014731D01*
X045129Y014880D01*
X045210Y015075D01*
X045210Y015285D01*
X045129Y015480D01*
X044980Y015629D01*
X044858Y015680D01*
X044980Y015731D01*
X045129Y015880D01*
X045210Y016075D01*
X045210Y016285D01*
X045129Y016480D01*
X044980Y016629D01*
X044858Y016680D01*
X044980Y016731D01*
X045129Y016880D01*
X045210Y017075D01*
X045210Y017285D01*
X045129Y017480D01*
X044980Y017629D01*
X044858Y017680D01*
X044980Y017731D01*
X045129Y017880D01*
X045210Y018075D01*
X045210Y018285D01*
X045129Y018480D01*
X044980Y018629D01*
X044858Y018680D01*
X044980Y018731D01*
X045129Y018880D01*
X045210Y019075D01*
X045210Y019285D01*
X045129Y019480D01*
X044980Y019629D01*
X044858Y019680D01*
X044980Y019731D01*
X045129Y019880D01*
X045210Y020075D01*
X045210Y020285D01*
X045181Y020356D01*
X045510Y020685D01*
X045510Y021875D01*
X045375Y022010D01*
X044185Y022010D01*
X044050Y021875D01*
X042750Y020575D01*
X042750Y019175D01*
X040672Y017097D01*
X040584Y017185D01*
X040452Y017240D01*
X040308Y017240D01*
X040176Y017185D01*
X040075Y017084D01*
X040020Y016952D01*
X040020Y016845D01*
X038585Y015410D01*
X038450Y015275D01*
X038450Y014004D01*
X038354Y014100D01*
X038085Y014100D01*
X037410Y014775D01*
X037410Y016561D01*
X037418Y016564D01*
X037536Y016682D01*
X037600Y016836D01*
X037600Y017524D01*
X037536Y017678D01*
X037418Y017796D01*
X037264Y017860D01*
X037096Y017860D01*
X036942Y017796D01*
X036824Y017678D01*
X036760Y017524D01*
X036760Y016836D01*
X036824Y016682D01*
X036942Y016564D01*
X036950Y016561D01*
X036950Y015899D01*
X036852Y015940D01*
X036708Y015940D01*
X036576Y015885D01*
X036475Y015784D01*
X036420Y015652D01*
X036420Y015545D01*
X035485Y014610D01*
X035485Y014610D01*
X035350Y014475D01*
X035350Y011027D01*
X035283Y011094D01*
X035094Y011172D01*
X034186Y011172D01*
X034010Y011100D01*
X034010Y011401D01*
X034085Y011476D01*
X034140Y011608D01*
X034140Y011752D01*
X034085Y011884D01*
X033984Y011985D01*
X033852Y012040D01*
X033708Y012040D01*
X033576Y011985D01*
X033475Y011884D01*
X033420Y011751D02*
X032959Y011751D01*
X033015Y011592D02*
X033427Y011592D01*
X033517Y011434D02*
X033015Y011434D01*
X033011Y011275D02*
X033550Y011275D01*
X033550Y011117D02*
X032946Y011117D01*
X032869Y010958D02*
X033550Y010958D01*
X033550Y010800D02*
X032710Y010800D01*
X032409Y010641D02*
X033550Y010641D01*
X034010Y011117D02*
X034050Y011117D01*
X034010Y011275D02*
X035350Y011275D01*
X035350Y011117D02*
X035230Y011117D01*
X035350Y011434D02*
X034043Y011434D01*
X034133Y011592D02*
X035350Y011592D01*
X035350Y011751D02*
X034140Y011751D01*
X034060Y011909D02*
X034442Y011909D01*
X034918Y011909D02*
X035350Y011909D01*
X035350Y012068D02*
X035023Y012068D01*
X035040Y012226D02*
X035350Y012226D01*
X035350Y012385D02*
X034985Y012385D01*
X034642Y012543D02*
X035350Y012543D01*
X035350Y012702D02*
X034484Y012702D01*
X034325Y012860D02*
X035350Y012860D01*
X035350Y013019D02*
X034167Y013019D01*
X034008Y013177D02*
X035350Y013177D01*
X035350Y013336D02*
X034429Y013336D01*
X034354Y013260D02*
X034600Y013506D01*
X034600Y013775D01*
X036275Y015450D01*
X036410Y015585D01*
X036410Y016561D01*
X036418Y016564D01*
X036536Y016682D01*
X036600Y016836D01*
X036600Y017524D01*
X036536Y017678D01*
X036418Y017796D01*
X036264Y017860D01*
X036096Y017860D01*
X035942Y017796D01*
X035824Y017678D01*
X035760Y017524D01*
X035760Y016836D01*
X035824Y016682D01*
X035942Y016564D01*
X035950Y016561D01*
X035950Y015775D01*
X034275Y014100D01*
X034006Y014100D01*
X033760Y013854D01*
X033760Y013506D01*
X034006Y013260D01*
X034354Y013260D01*
X034588Y013494D02*
X035350Y013494D01*
X035350Y013653D02*
X034600Y013653D01*
X034636Y013811D02*
X035350Y013811D01*
X035350Y013970D02*
X034795Y013970D01*
X034953Y014128D02*
X035350Y014128D01*
X035350Y014287D02*
X035112Y014287D01*
X035270Y014445D02*
X035350Y014445D01*
X035429Y014604D02*
X035478Y014604D01*
X035587Y014762D02*
X035637Y014762D01*
X035746Y014921D02*
X035795Y014921D01*
X035904Y015079D02*
X035954Y015079D01*
X036063Y015238D02*
X036112Y015238D01*
X036221Y015396D02*
X036271Y015396D01*
X036380Y015555D02*
X036420Y015555D01*
X036410Y015713D02*
X036445Y015713D01*
X036410Y015872D02*
X036562Y015872D01*
X036410Y016030D02*
X036950Y016030D01*
X036950Y016189D02*
X036410Y016189D01*
X036410Y016347D02*
X036950Y016347D01*
X036950Y016506D02*
X036410Y016506D01*
X036518Y016664D02*
X036842Y016664D01*
X036766Y016823D02*
X036594Y016823D01*
X036600Y016981D02*
X036760Y016981D01*
X036760Y017140D02*
X036600Y017140D01*
X036600Y017298D02*
X036760Y017298D01*
X036760Y017457D02*
X036600Y017457D01*
X036562Y017615D02*
X036798Y017615D01*
X036920Y017774D02*
X036440Y017774D01*
X035920Y017774D02*
X035440Y017774D01*
X035410Y017932D02*
X041507Y017932D01*
X041415Y018112D02*
X041501Y018156D01*
X041579Y018213D01*
X041647Y018281D01*
X041704Y018359D01*
X041748Y018445D01*
X041777Y018537D01*
X041792Y018632D01*
X041792Y018632D01*
X041228Y018632D01*
X041228Y018728D01*
X041792Y018728D01*
X041777Y018823D01*
X041748Y018915D01*
X041704Y019001D01*
X041647Y019079D01*
X041579Y019147D01*
X041501Y019204D01*
X041415Y019248D01*
X041323Y019277D01*
X041228Y019292D01*
X041228Y019292D01*
X041228Y018728D01*
X041132Y018728D01*
X041132Y019292D01*
X041037Y019277D01*
X040945Y019248D01*
X040859Y019204D01*
X040781Y019147D01*
X040713Y019079D01*
X040656Y019001D01*
X040612Y018915D01*
X040583Y018823D01*
X040568Y018728D01*
X040568Y018728D01*
X041132Y018728D01*
X041132Y018632D01*
X041228Y018632D01*
X041228Y018068D01*
X041323Y018083D01*
X041415Y018112D01*
X041348Y018091D02*
X041665Y018091D01*
X041615Y018249D02*
X041824Y018249D01*
X041729Y018408D02*
X041982Y018408D01*
X042141Y018566D02*
X041782Y018566D01*
X041792Y018728D02*
X041792Y018728D01*
X041758Y018883D02*
X042458Y018883D01*
X042616Y019042D02*
X041674Y019042D01*
X041506Y019200D02*
X042750Y019200D01*
X042750Y019359D02*
X031345Y019359D01*
X031384Y019375D02*
X031485Y019476D01*
X031540Y019608D01*
X031540Y019715D01*
X031995Y020170D01*
X032072Y020138D01*
X032288Y020138D01*
X032487Y020220D01*
X032640Y020373D01*
X032722Y020572D01*
X032722Y020788D01*
X032690Y020865D01*
X033545Y021720D01*
X033652Y021720D01*
X033784Y021775D01*
X033885Y021876D01*
X033940Y022008D01*
X033940Y022115D01*
X033945Y022112D01*
X034037Y022083D01*
X034132Y022068D01*
X034132Y022067D01*
X034132Y022632D01*
X033568Y022632D01*
X033583Y022537D01*
X033612Y022445D01*
X033615Y022440D01*
X033508Y022440D01*
X033376Y022385D01*
X033275Y022284D01*
X033220Y022152D01*
X033220Y022045D01*
X032365Y021190D01*
X032288Y021222D01*
X032072Y021222D01*
X031873Y021140D01*
X031720Y020987D01*
X031638Y020788D01*
X031638Y020572D01*
X031670Y020495D01*
X031215Y020040D01*
X031108Y020040D01*
X030976Y019985D01*
X030875Y019884D01*
X030820Y019752D01*
X030820Y019608D01*
X030875Y019476D01*
X030976Y019375D01*
X031108Y019320D01*
X031252Y019320D01*
X031384Y019375D01*
X031502Y019517D02*
X042750Y019517D01*
X042750Y019676D02*
X031540Y019676D01*
X031659Y019834D02*
X042750Y019834D01*
X042750Y019993D02*
X031818Y019993D01*
X031976Y020151D02*
X032039Y020151D01*
X032321Y020151D02*
X039039Y020151D01*
X039072Y020138D02*
X039288Y020138D01*
X039487Y020220D01*
X039640Y020373D01*
X039722Y020572D01*
X039722Y020788D01*
X039640Y020987D01*
X039487Y021140D01*
X039288Y021222D01*
X039072Y021222D01*
X038873Y021140D01*
X038720Y020987D01*
X038638Y020788D01*
X038638Y020572D01*
X038720Y020373D01*
X038873Y020220D01*
X039072Y020138D01*
X039321Y020151D02*
X042750Y020151D01*
X042750Y020310D02*
X039577Y020310D01*
X039679Y020468D02*
X042750Y020468D01*
X042801Y020627D02*
X039722Y020627D01*
X039722Y020785D02*
X042960Y020785D01*
X043118Y020944D02*
X039658Y020944D01*
X039525Y021102D02*
X043277Y021102D01*
X043435Y021261D02*
X033086Y021261D01*
X033244Y021419D02*
X043594Y021419D01*
X043752Y021578D02*
X033403Y021578D01*
X033690Y021736D02*
X043911Y021736D01*
X044069Y021895D02*
X033893Y021895D01*
X033940Y022053D02*
X045882Y022053D01*
X046040Y021895D02*
X045491Y021895D01*
X045510Y021736D02*
X046199Y021736D01*
X046357Y021578D02*
X045510Y021578D01*
X045510Y021419D02*
X046516Y021419D01*
X046674Y021261D02*
X045510Y021261D01*
X045510Y021102D02*
X046833Y021102D01*
X046991Y020944D02*
X045510Y020944D01*
X045510Y020785D02*
X047150Y020785D01*
X047308Y020627D02*
X045452Y020627D01*
X045293Y020468D02*
X047467Y020468D01*
X047625Y020310D02*
X045200Y020310D01*
X045210Y020151D02*
X047784Y020151D01*
X047942Y019993D02*
X045176Y019993D01*
X045084Y019834D02*
X048101Y019834D01*
X048259Y019676D02*
X044869Y019676D01*
X045093Y019517D02*
X048418Y019517D01*
X048576Y019359D02*
X045180Y019359D01*
X045210Y019200D02*
X048735Y019200D01*
X048893Y019042D02*
X045196Y019042D01*
X045131Y018883D02*
X049052Y018883D01*
X049210Y018725D02*
X044965Y018725D01*
X045044Y018566D02*
X049369Y018566D01*
X049527Y018408D02*
X045159Y018408D01*
X045210Y018249D02*
X049686Y018249D01*
X049844Y018091D02*
X045210Y018091D01*
X045151Y017932D02*
X050003Y017932D01*
X050161Y017774D02*
X045023Y017774D01*
X044995Y017615D02*
X050320Y017615D01*
X050478Y017457D02*
X045139Y017457D01*
X045205Y017298D02*
X050637Y017298D01*
X050795Y017140D02*
X045210Y017140D01*
X045171Y016981D02*
X050954Y016981D01*
X051112Y016823D02*
X045072Y016823D01*
X044896Y016664D02*
X051150Y016664D01*
X051150Y016506D02*
X045104Y016506D01*
X045184Y016347D02*
X051150Y016347D01*
X051150Y016189D02*
X045210Y016189D01*
X045192Y016030D02*
X051052Y016030D01*
X051020Y015872D02*
X045121Y015872D01*
X044938Y015713D02*
X051060Y015713D01*
X051225Y015555D02*
X045055Y015555D01*
X045164Y015396D02*
X051550Y015396D01*
X051550Y015238D02*
X045210Y015238D01*
X045210Y015079D02*
X051550Y015079D01*
X051550Y014921D02*
X045146Y014921D01*
X045012Y014762D02*
X051550Y014762D01*
X051550Y014604D02*
X045006Y014604D01*
X045144Y014445D02*
X051550Y014445D01*
X051550Y014287D02*
X045210Y014287D01*
X045210Y014128D02*
X051550Y014128D01*
X051550Y013970D02*
X045166Y013970D01*
X045061Y013811D02*
X051550Y013811D01*
X051550Y013653D02*
X044924Y013653D01*
X045116Y013494D02*
X051550Y013494D01*
X051550Y013336D02*
X045189Y013336D01*
X045210Y013177D02*
X051550Y013177D01*
X051550Y013019D02*
X045187Y013019D01*
X045110Y012860D02*
X051550Y012860D01*
X051550Y012702D02*
X044910Y012702D01*
X045067Y012543D02*
X051550Y012543D01*
X051550Y012385D02*
X045169Y012385D01*
X045210Y012226D02*
X051550Y012226D01*
X051550Y012068D02*
X045207Y012068D01*
X045141Y011909D02*
X051550Y011909D01*
X051550Y011751D02*
X045000Y011751D01*
X045018Y011592D02*
X051550Y011592D01*
X051550Y011434D02*
X045149Y011434D01*
X045210Y011275D02*
X051550Y011275D01*
X051550Y011117D02*
X045210Y011117D01*
X045162Y010958D02*
X051550Y010958D01*
X051550Y010800D02*
X045049Y010800D01*
X044952Y010641D02*
X051550Y010641D01*
X051550Y010483D02*
X045127Y010483D01*
X045194Y010324D02*
X051550Y010324D01*
X051550Y010166D02*
X045210Y010166D01*
X045182Y010007D02*
X051550Y010007D01*
X051550Y009849D02*
X045098Y009849D01*
X044882Y009690D02*
X051550Y009690D01*
X051550Y009532D02*
X045078Y009532D01*
X045174Y009373D02*
X051550Y009373D01*
X051550Y009215D02*
X045210Y009215D01*
X045202Y009056D02*
X051550Y009056D01*
X051088Y008898D02*
X045137Y008898D01*
X044989Y008739D02*
X051020Y008739D01*
X051032Y008581D02*
X045128Y008581D01*
X045230Y008422D02*
X051129Y008422D01*
X051150Y008264D02*
X045274Y008264D01*
X045276Y008105D02*
X051150Y008105D01*
X051150Y007947D02*
X045234Y007947D01*
X045137Y007788D02*
X051150Y007788D01*
X051150Y007630D02*
X050980Y007630D01*
X051133Y007471D02*
X051150Y007471D01*
X051610Y006996D02*
X051639Y006996D01*
X051610Y006837D02*
X051798Y006837D01*
X051956Y006679D02*
X051610Y006679D01*
X051610Y006520D02*
X052115Y006520D01*
X052139Y006362D02*
X051610Y006362D01*
X051610Y006203D02*
X052248Y006203D01*
X052712Y006203D02*
X055150Y006203D01*
X055162Y006045D02*
X051610Y006045D01*
X051511Y005886D02*
X055228Y005886D01*
X055387Y005728D02*
X051353Y005728D01*
X051194Y005569D02*
X055550Y005569D01*
X055550Y005411D02*
X051036Y005411D01*
X050877Y005252D02*
X055550Y005252D01*
X055550Y005094D02*
X050719Y005094D01*
X050560Y004935D02*
X055550Y004935D01*
X055550Y004777D02*
X050402Y004777D01*
X050243Y004618D02*
X052350Y004618D01*
X052325Y004605D02*
X052251Y004552D01*
X052187Y004487D01*
X052133Y004413D01*
X052092Y004332D01*
X052063Y004245D01*
X052049Y004155D01*
X052049Y004109D01*
X052049Y004063D01*
X052063Y003973D01*
X052092Y003886D01*
X052133Y003805D01*
X052187Y003731D01*
X052251Y003667D01*
X049610Y003667D01*
X049610Y003509D02*
X055020Y003509D01*
X055068Y003667D02*
X053707Y003667D01*
X053772Y003731D01*
X053825Y003805D01*
X053867Y003886D01*
X053895Y003973D01*
X053909Y004063D01*
X053909Y004109D01*
X052979Y004109D01*
X052049Y004109D01*
X052979Y004109D01*
X052979Y004109D01*
X052979Y004109D01*
X052979Y003529D01*
X052584Y003529D01*
X052493Y003543D01*
X052407Y003572D01*
X052325Y003613D01*
X052251Y003667D01*
X052123Y003826D02*
X049610Y003826D01*
X049610Y003984D02*
X052062Y003984D01*
X052049Y004143D02*
X049768Y004143D01*
X049926Y004301D02*
X052082Y004301D01*
X052167Y004460D02*
X050085Y004460D01*
X049610Y003350D02*
X054925Y003350D01*
X054766Y003192D02*
X049610Y003192D01*
X049610Y003033D02*
X051479Y003033D01*
X051501Y003055D02*
X051343Y002897D01*
X051258Y002691D01*
X051258Y001669D01*
X051343Y001463D01*
X051501Y001305D01*
X051706Y001220D01*
X051929Y001220D01*
X052135Y001305D01*
X052293Y001463D01*
X052378Y001669D01*
X052378Y002691D01*
X052293Y002897D01*
X052135Y003055D01*
X051929Y003140D01*
X051706Y003140D01*
X051501Y003055D01*
X051334Y002875D02*
X049610Y002875D01*
X049610Y002716D02*
X051268Y002716D01*
X051258Y002558D02*
X049610Y002558D01*
X050070Y002399D02*
X051258Y002399D01*
X051258Y002241D02*
X050140Y002241D01*
X050129Y002082D02*
X051258Y002082D01*
X051258Y001924D02*
X050033Y001924D01*
X050010Y001765D02*
X051258Y001765D01*
X051284Y001607D02*
X050010Y001607D01*
X050010Y001448D02*
X051358Y001448D01*
X051539Y001290D02*
X050010Y001290D01*
X052097Y001290D02*
X053967Y001290D01*
X053957Y001292D02*
X054044Y001264D01*
X054134Y001250D01*
X054180Y001250D01*
X054180Y002180D01*
X054180Y002180D01*
X054180Y002180D01*
X053600Y002180D01*
X053600Y002576D01*
X053614Y002666D01*
X053642Y002753D01*
X053684Y002834D01*
X053738Y002908D01*
X053802Y002972D01*
X053876Y003026D01*
X053957Y003068D01*
X054044Y003096D01*
X054134Y003110D01*
X054180Y003110D01*
X054180Y002180D01*
X053600Y002180D01*
X053600Y001784D01*
X053614Y001694D01*
X053642Y001607D01*
X053684Y001526D01*
X053738Y001452D01*
X053802Y001388D01*
X053876Y001334D01*
X053957Y001292D01*
X054180Y001290D02*
X054180Y001290D01*
X054180Y001448D02*
X054180Y001448D01*
X054180Y001607D02*
X054180Y001607D01*
X054180Y001765D02*
X054180Y001765D01*
X054180Y001924D02*
X054180Y001924D01*
X054180Y002082D02*
X054180Y002082D01*
X054180Y002241D02*
X054180Y002241D01*
X054180Y002399D02*
X054180Y002399D01*
X054180Y002558D02*
X054180Y002558D01*
X054180Y002716D02*
X054180Y002716D01*
X054180Y002875D02*
X054180Y002875D01*
X054180Y003033D02*
X054180Y003033D01*
X054470Y003033D02*
X054750Y003033D01*
X054750Y002875D02*
X054647Y002875D01*
X054729Y002716D02*
X054750Y002716D01*
X053890Y003033D02*
X052157Y003033D01*
X052302Y002875D02*
X053713Y002875D01*
X053631Y002716D02*
X052368Y002716D01*
X052378Y002558D02*
X053600Y002558D01*
X053600Y002399D02*
X052378Y002399D01*
X052378Y002241D02*
X053600Y002241D01*
X053600Y002082D02*
X052378Y002082D01*
X052378Y001924D02*
X053600Y001924D01*
X053603Y001765D02*
X052378Y001765D01*
X052352Y001607D02*
X053643Y001607D01*
X053742Y001448D02*
X052278Y001448D01*
X054393Y001290D02*
X054464Y001290D01*
X054618Y001448D02*
X054623Y001448D01*
X054717Y001607D02*
X054750Y001607D01*
X053633Y003613D02*
X053707Y003667D01*
X053633Y003613D02*
X053552Y003572D01*
X053465Y003543D01*
X053375Y003529D01*
X052979Y003529D01*
X052979Y004109D01*
X052979Y004689D01*
X052584Y004689D01*
X052493Y004675D01*
X052407Y004647D01*
X052325Y004605D01*
X052979Y004618D02*
X052979Y004618D01*
X052979Y004689D02*
X052979Y004109D01*
X052979Y004109D01*
X052979Y004109D01*
X053909Y004109D01*
X053909Y004155D01*
X053895Y004245D01*
X053867Y004332D01*
X053825Y004413D01*
X053772Y004487D01*
X053707Y004552D01*
X053633Y004605D01*
X053552Y004647D01*
X053465Y004675D01*
X053375Y004689D01*
X052979Y004689D01*
X052979Y004460D02*
X052979Y004460D01*
X052979Y004301D02*
X052979Y004301D01*
X052979Y004143D02*
X052979Y004143D01*
X052979Y003984D02*
X052979Y003984D01*
X052979Y003826D02*
X052979Y003826D01*
X052979Y003667D02*
X052979Y003667D01*
X053836Y003826D02*
X055273Y003826D01*
X055487Y003826D02*
X055550Y003826D01*
X055550Y003984D02*
X053897Y003984D01*
X053909Y004143D02*
X055550Y004143D01*
X055550Y004301D02*
X053877Y004301D01*
X053792Y004460D02*
X055550Y004460D01*
X055550Y004618D02*
X053608Y004618D01*
X052821Y006362D02*
X055182Y006362D01*
X055270Y006520D02*
X052840Y006520D01*
X050380Y007630D02*
X049980Y007630D01*
X050133Y007471D02*
X050227Y007471D01*
X049380Y007630D02*
X048980Y007630D01*
X049133Y007471D02*
X049227Y007471D01*
X048380Y007630D02*
X047980Y007630D01*
X048133Y007471D02*
X048227Y007471D01*
X047380Y007630D02*
X046980Y007630D01*
X047133Y007471D02*
X047227Y007471D01*
X046380Y007630D02*
X045980Y007630D01*
X046133Y007471D02*
X046227Y007471D01*
X045380Y007630D02*
X044980Y007630D01*
X045133Y007471D02*
X045227Y007471D01*
X044413Y007643D02*
X044380Y007629D01*
X044231Y007480D01*
X044150Y007285D01*
X044150Y007075D01*
X044178Y007007D01*
X044175Y007010D01*
X043640Y007545D01*
X043640Y007652D01*
X043585Y007784D01*
X043484Y007885D01*
X043352Y007940D01*
X043208Y007940D01*
X043110Y007899D01*
X043110Y009285D01*
X043145Y009320D01*
X043252Y009320D01*
X043384Y009375D01*
X043485Y009476D01*
X043540Y009608D01*
X043540Y009752D01*
X043485Y009884D01*
X043384Y009985D01*
X043252Y010040D01*
X043108Y010040D01*
X042976Y009985D01*
X042875Y009884D01*
X042820Y009752D01*
X042820Y009645D01*
X042785Y009610D01*
X042650Y009475D01*
X042650Y009335D01*
X042432Y009553D01*
X042484Y009575D01*
X042585Y009676D01*
X042640Y009808D01*
X042640Y009915D01*
X043145Y010420D01*
X043252Y010420D01*
X043384Y010475D01*
X043485Y010576D01*
X043540Y010708D01*
X043540Y010852D01*
X043485Y010984D01*
X043384Y011085D01*
X043252Y011140D01*
X043108Y011140D01*
X042976Y011085D01*
X042875Y010984D01*
X042820Y010852D01*
X042820Y010745D01*
X042315Y010240D01*
X042297Y010240D01*
X042427Y010370D01*
X042505Y010558D01*
X042505Y010762D01*
X042427Y010950D01*
X042283Y011094D01*
X042094Y011172D01*
X041398Y011172D01*
X041910Y011685D01*
X041910Y012861D01*
X042008Y012820D01*
X042152Y012820D01*
X042284Y012875D01*
X042359Y012950D01*
X043001Y012950D01*
X043076Y012875D01*
X043208Y012820D01*
X043352Y012820D01*
X043484Y012875D01*
X043585Y012976D01*
X043640Y013108D01*
X043640Y013252D01*
X043585Y013384D01*
X043484Y013485D01*
X043352Y013540D01*
X043208Y013540D01*
X043076Y013485D01*
X043001Y013410D01*
X042359Y013410D01*
X042284Y013485D01*
X042152Y013540D01*
X042008Y013540D01*
X041910Y013499D01*
X041910Y014185D01*
X042353Y014628D01*
X042375Y014576D01*
X042476Y014475D01*
X042608Y014420D01*
X042752Y014420D01*
X042884Y014475D01*
X042985Y014576D01*
X043040Y014708D01*
X043040Y014815D01*
X043475Y015250D01*
X043610Y015385D01*
X043610Y018575D01*
X043510Y018675D01*
X043510Y019961D01*
X043608Y019920D01*
X043715Y019920D01*
X043850Y019785D01*
X043850Y010685D01*
X043985Y010550D01*
X044179Y010356D01*
X044150Y010285D01*
X044150Y010075D01*
X044231Y009880D01*
X044380Y009731D01*
X044502Y009680D01*
X044380Y009629D01*
X044231Y009480D01*
X044150Y009285D01*
X044150Y009075D01*
X044231Y008880D01*
X044380Y008731D01*
X044413Y008717D01*
X044366Y008693D01*
X044289Y008638D01*
X044222Y008571D01*
X044167Y008494D01*
X044124Y008410D01*
X044095Y008320D01*
X044080Y008227D01*
X044080Y008200D01*
X044660Y008200D01*
X044660Y008160D01*
X044080Y008160D01*
X044080Y008133D01*
X044095Y008039D01*
X044124Y007950D01*
X044167Y007866D01*
X044222Y007789D01*
X044289Y007722D01*
X044366Y007667D01*
X044413Y007643D01*
X044380Y007630D02*
X043640Y007630D01*
X043581Y007788D02*
X044223Y007788D01*
X044126Y007947D02*
X043110Y007947D01*
X043110Y008105D02*
X044084Y008105D01*
X044086Y008264D02*
X043110Y008264D01*
X043110Y008422D02*
X044130Y008422D01*
X044232Y008581D02*
X043110Y008581D01*
X043110Y008739D02*
X044371Y008739D01*
X044223Y008898D02*
X043110Y008898D01*
X043110Y009056D02*
X044158Y009056D01*
X044150Y009215D02*
X043110Y009215D01*
X043380Y009373D02*
X044186Y009373D01*
X044282Y009532D02*
X043508Y009532D01*
X043540Y009690D02*
X044478Y009690D01*
X044262Y009849D02*
X043500Y009849D01*
X043331Y010007D02*
X044178Y010007D01*
X044150Y010166D02*
X042891Y010166D01*
X043029Y010007D02*
X042732Y010007D01*
X042640Y009849D02*
X042860Y009849D01*
X042820Y009690D02*
X042591Y009690D01*
X042706Y009532D02*
X042454Y009532D01*
X042612Y009373D02*
X042650Y009373D01*
X042399Y010324D02*
X042381Y010324D01*
X042474Y010483D02*
X042557Y010483D01*
X042505Y010641D02*
X042716Y010641D01*
X042820Y010800D02*
X042489Y010800D01*
X042419Y010958D02*
X042864Y010958D01*
X043052Y011117D02*
X042230Y011117D01*
X041659Y011434D02*
X043850Y011434D01*
X043850Y011592D02*
X041817Y011592D01*
X041910Y011751D02*
X043850Y011751D01*
X043850Y011909D02*
X041910Y011909D01*
X041910Y012068D02*
X043850Y012068D01*
X043850Y012226D02*
X041910Y012226D01*
X041910Y012385D02*
X043850Y012385D01*
X043850Y012543D02*
X041910Y012543D01*
X041910Y012702D02*
X043850Y012702D01*
X043850Y012860D02*
X043448Y012860D01*
X043603Y013019D02*
X043850Y013019D01*
X043850Y013177D02*
X043640Y013177D01*
X043605Y013336D02*
X043850Y013336D01*
X043850Y013494D02*
X043463Y013494D01*
X043097Y013494D02*
X042263Y013494D01*
X041910Y013653D02*
X043850Y013653D01*
X043850Y013811D02*
X041910Y013811D01*
X041910Y013970D02*
X043850Y013970D01*
X043850Y014128D02*
X041910Y014128D01*
X042012Y014287D02*
X043850Y014287D01*
X043850Y014445D02*
X042812Y014445D01*
X042997Y014604D02*
X043850Y014604D01*
X043850Y014762D02*
X043040Y014762D01*
X043146Y014921D02*
X043850Y014921D01*
X043850Y015079D02*
X043304Y015079D01*
X043463Y015238D02*
X043850Y015238D01*
X043850Y015396D02*
X043610Y015396D01*
X043610Y015555D02*
X043850Y015555D01*
X043850Y015713D02*
X043610Y015713D01*
X043610Y015872D02*
X043850Y015872D01*
X043850Y016030D02*
X043610Y016030D01*
X043610Y016189D02*
X043850Y016189D01*
X043850Y016347D02*
X043610Y016347D01*
X043610Y016506D02*
X043850Y016506D01*
X043850Y016664D02*
X043610Y016664D01*
X043610Y016823D02*
X043850Y016823D01*
X043850Y016981D02*
X043610Y016981D01*
X043610Y017140D02*
X043850Y017140D01*
X043850Y017298D02*
X043610Y017298D01*
X043610Y017457D02*
X043850Y017457D01*
X043850Y017615D02*
X043610Y017615D01*
X043610Y017774D02*
X043850Y017774D01*
X043850Y017932D02*
X043610Y017932D01*
X043610Y018091D02*
X043850Y018091D01*
X043850Y018249D02*
X043610Y018249D01*
X043610Y018408D02*
X043850Y018408D01*
X043850Y018566D02*
X043610Y018566D01*
X043510Y018725D02*
X043850Y018725D01*
X043850Y018883D02*
X043510Y018883D01*
X043510Y019042D02*
X043850Y019042D01*
X043850Y019200D02*
X043510Y019200D01*
X043510Y019359D02*
X043850Y019359D01*
X043850Y019517D02*
X043510Y019517D01*
X043510Y019676D02*
X043850Y019676D01*
X043801Y019834D02*
X043510Y019834D01*
X042299Y018725D02*
X041228Y018725D01*
X041132Y018725D02*
X037228Y018725D01*
X037228Y018728D02*
X037792Y018728D01*
X037777Y018823D01*
X037748Y018915D01*
X037704Y019001D01*
X037647Y019079D01*
X037579Y019147D01*
X037501Y019204D01*
X037415Y019248D01*
X037323Y019277D01*
X037228Y019292D01*
X037228Y019292D01*
X037228Y018728D01*
X037228Y018632D01*
X037792Y018632D01*
X037792Y018632D01*
X037777Y018537D01*
X037748Y018445D01*
X037704Y018359D01*
X037647Y018281D01*
X037579Y018213D01*
X037501Y018156D01*
X037415Y018112D01*
X037323Y018083D01*
X037228Y018068D01*
X037228Y018068D01*
X037228Y018632D01*
X037132Y018632D01*
X037132Y018067D01*
X037132Y018068D01*
X037037Y018083D01*
X036945Y018112D01*
X036859Y018156D01*
X036781Y018213D01*
X036713Y018281D01*
X036656Y018359D01*
X036612Y018445D01*
X036583Y018537D01*
X036568Y018632D01*
X036568Y018632D01*
X037132Y018632D01*
X037132Y018728D01*
X037132Y019292D01*
X037037Y019277D01*
X036945Y019248D01*
X036859Y019204D01*
X036781Y019147D01*
X036713Y019079D01*
X036656Y019001D01*
X036612Y018915D01*
X036583Y018823D01*
X036568Y018728D01*
X036568Y018728D01*
X037132Y018728D01*
X037228Y018728D01*
X037132Y018725D02*
X034228Y018725D01*
X034228Y018728D02*
X034792Y018728D01*
X034777Y018823D01*
X034748Y018915D01*
X034704Y019001D01*
X034647Y019079D01*
X034579Y019147D01*
X034501Y019204D01*
X034415Y019248D01*
X034323Y019277D01*
X034228Y019292D01*
X034228Y019292D01*
X034228Y018728D01*
X034132Y018725D02*
X030228Y018725D01*
X030228Y018728D02*
X030792Y018728D01*
X030777Y018823D01*
X030748Y018915D01*
X030704Y019001D01*
X030647Y019079D01*
X030579Y019147D01*
X030501Y019204D01*
X030415Y019248D01*
X030323Y019277D01*
X030228Y019292D01*
X030228Y019292D01*
X030228Y018728D01*
X030228Y018632D01*
X030792Y018632D01*
X030792Y018632D01*
X030777Y018537D01*
X030748Y018445D01*
X030704Y018359D01*
X030647Y018281D01*
X030579Y018213D01*
X030501Y018156D01*
X030415Y018112D01*
X030323Y018083D01*
X030228Y018068D01*
X030228Y018068D01*
X030228Y018632D01*
X030132Y018632D01*
X030132Y018067D01*
X030132Y018068D01*
X030037Y018083D01*
X029945Y018112D01*
X029859Y018156D01*
X029781Y018213D01*
X029713Y018281D01*
X029656Y018359D01*
X029612Y018445D01*
X029583Y018537D01*
X029568Y018632D01*
X029568Y018632D01*
X030132Y018632D01*
X030132Y018728D01*
X030132Y019292D01*
X030037Y019277D01*
X029945Y019248D01*
X029859Y019204D01*
X029781Y019147D01*
X029713Y019079D01*
X029656Y019001D01*
X029612Y018915D01*
X029583Y018823D01*
X029568Y018728D01*
X029568Y018728D01*
X030132Y018728D01*
X030228Y018728D01*
X030132Y018725D02*
X027361Y018725D01*
X027202Y018883D02*
X029602Y018883D01*
X029686Y019042D02*
X027044Y019042D01*
X026885Y019200D02*
X029854Y019200D01*
X030132Y019200D02*
X030228Y019200D01*
X030132Y019292D02*
X030132Y019292D01*
X030132Y019042D02*
X030228Y019042D01*
X030228Y018883D02*
X030132Y018883D01*
X030132Y018566D02*
X030228Y018566D01*
X030228Y018408D02*
X030132Y018408D01*
X030132Y018249D02*
X030228Y018249D01*
X030228Y018091D02*
X030132Y018091D01*
X030012Y018091D02*
X027995Y018091D01*
X027836Y018249D02*
X029745Y018249D01*
X029631Y018408D02*
X027678Y018408D01*
X027519Y018566D02*
X029578Y018566D01*
X030348Y018091D02*
X031865Y018091D01*
X031707Y017932D02*
X028153Y017932D01*
X028312Y017774D02*
X031548Y017774D01*
X031450Y017615D02*
X028470Y017615D01*
X028629Y017457D02*
X031450Y017457D01*
X031450Y017298D02*
X028787Y017298D01*
X028946Y017140D02*
X031450Y017140D01*
X031450Y016981D02*
X029104Y016981D01*
X029263Y016823D02*
X031450Y016823D01*
X031450Y016664D02*
X029421Y016664D01*
X029580Y016506D02*
X031450Y016506D01*
X031450Y016347D02*
X029738Y016347D01*
X029897Y016189D02*
X031450Y016189D01*
X031450Y016030D02*
X030055Y016030D01*
X030214Y015872D02*
X031450Y015872D01*
X031450Y015713D02*
X030372Y015713D01*
X030531Y015555D02*
X031450Y015555D01*
X031450Y015396D02*
X030689Y015396D01*
X030848Y015238D02*
X031450Y015238D01*
X031450Y015079D02*
X030910Y015079D01*
X030910Y014921D02*
X031450Y014921D01*
X031450Y014762D02*
X030910Y014762D01*
X030910Y014604D02*
X031450Y014604D01*
X031450Y014445D02*
X030910Y014445D01*
X030910Y014287D02*
X031450Y014287D01*
X031303Y014128D02*
X030910Y014128D01*
X030910Y013336D02*
X030931Y013336D01*
X030910Y013177D02*
X031320Y013177D01*
X031357Y013019D02*
X030910Y013019D01*
X030910Y012860D02*
X031512Y012860D01*
X031848Y012860D02*
X033675Y012860D01*
X033833Y012702D02*
X030910Y012702D01*
X030910Y012543D02*
X033992Y012543D01*
X034150Y012385D02*
X030910Y012385D01*
X032003Y013019D02*
X033516Y013019D01*
X033358Y013177D02*
X032040Y013177D01*
X032161Y013336D02*
X032931Y013336D01*
X032772Y013494D02*
X032319Y013494D01*
X032410Y013653D02*
X032760Y013653D01*
X032760Y013811D02*
X032410Y013811D01*
X032410Y013970D02*
X032876Y013970D01*
X032671Y014128D02*
X034303Y014128D01*
X034461Y014287D02*
X032890Y014287D01*
X032940Y014445D02*
X034620Y014445D01*
X034778Y014604D02*
X033029Y014604D01*
X033187Y014762D02*
X034937Y014762D01*
X035095Y014921D02*
X033346Y014921D01*
X033410Y015079D02*
X035254Y015079D01*
X035412Y015238D02*
X033410Y015238D01*
X033410Y015396D02*
X035571Y015396D01*
X035729Y015555D02*
X033410Y015555D01*
X033410Y015713D02*
X035888Y015713D01*
X035950Y015872D02*
X033410Y015872D01*
X033410Y016030D02*
X035950Y016030D01*
X035950Y016189D02*
X033410Y016189D01*
X033410Y016347D02*
X035950Y016347D01*
X035950Y016506D02*
X035277Y016506D01*
X035083Y016506D02*
X034277Y016506D01*
X034083Y016506D02*
X033410Y016506D01*
X033518Y016664D02*
X033842Y016664D01*
X033766Y016823D02*
X033594Y016823D01*
X033600Y016981D02*
X033760Y016981D01*
X033760Y017140D02*
X033600Y017140D01*
X033600Y017298D02*
X033760Y017298D01*
X033760Y017457D02*
X033600Y017457D01*
X033562Y017615D02*
X033798Y017615D01*
X034562Y017615D02*
X034798Y017615D01*
X034760Y017457D02*
X034600Y017457D01*
X034600Y017298D02*
X034760Y017298D01*
X034760Y017140D02*
X034600Y017140D01*
X034600Y016981D02*
X034760Y016981D01*
X034766Y016823D02*
X034594Y016823D01*
X034518Y016664D02*
X034842Y016664D01*
X035518Y016664D02*
X035842Y016664D01*
X035766Y016823D02*
X035594Y016823D01*
X035600Y016981D02*
X035760Y016981D01*
X035760Y017140D02*
X035600Y017140D01*
X035600Y017298D02*
X035760Y017298D01*
X035760Y017457D02*
X035600Y017457D01*
X035562Y017615D02*
X035798Y017615D01*
X035295Y018091D02*
X037012Y018091D01*
X037132Y018091D02*
X037228Y018091D01*
X037348Y018091D02*
X041012Y018091D01*
X041037Y018083D02*
X041132Y018068D01*
X041132Y018067D01*
X041132Y018632D01*
X040568Y018632D01*
X040583Y018537D01*
X040612Y018445D01*
X040656Y018359D01*
X040713Y018281D01*
X040781Y018213D01*
X040859Y018156D01*
X040945Y018112D01*
X041037Y018083D01*
X041132Y018091D02*
X041228Y018091D01*
X041228Y018068D02*
X041228Y018068D01*
X041228Y018249D02*
X041132Y018249D01*
X041132Y018408D02*
X041228Y018408D01*
X041228Y018566D02*
X041132Y018566D01*
X041132Y018883D02*
X041228Y018883D01*
X041228Y019042D02*
X041132Y019042D01*
X041132Y019200D02*
X041228Y019200D01*
X041132Y019292D02*
X041132Y019292D01*
X040854Y019200D02*
X037506Y019200D01*
X037674Y019042D02*
X040686Y019042D01*
X040602Y018883D02*
X037758Y018883D01*
X037792Y018728D02*
X037792Y018728D01*
X037782Y018566D02*
X040578Y018566D01*
X040568Y018632D02*
X040568Y018632D01*
X040631Y018408D02*
X037729Y018408D01*
X037615Y018249D02*
X040745Y018249D01*
X041348Y017774D02*
X039539Y017774D01*
X039554Y017759D02*
X039499Y017814D01*
X039437Y017859D01*
X039368Y017894D01*
X039295Y017918D01*
X039219Y017930D01*
X039180Y017930D01*
X039180Y017180D01*
X039180Y017180D01*
X039670Y017180D01*
X039670Y017479D01*
X039658Y017555D01*
X039634Y017628D01*
X039599Y017697D01*
X039554Y017759D01*
X039638Y017615D02*
X041190Y017615D01*
X041031Y017457D02*
X039670Y017457D01*
X039670Y017298D02*
X040873Y017298D01*
X040714Y017140D02*
X040630Y017140D01*
X040130Y017140D02*
X039670Y017140D01*
X039670Y017180D02*
X039180Y017180D01*
X039180Y017180D01*
X039180Y017180D01*
X038690Y017180D01*
X038690Y017479D01*
X038702Y017555D01*
X038726Y017628D01*
X038761Y017697D01*
X038806Y017759D01*
X038861Y017814D01*
X038923Y017859D01*
X038992Y017894D01*
X039065Y017918D01*
X039141Y017930D01*
X039180Y017930D01*
X039180Y017180D01*
X039180Y016430D01*
X039219Y016430D01*
X039295Y016442D01*
X039368Y016466D01*
X039437Y016501D01*
X039499Y016546D01*
X039554Y016601D01*
X039599Y016663D01*
X039634Y016732D01*
X039658Y016805D01*
X039670Y016881D01*
X039670Y017180D01*
X039670Y016981D02*
X040032Y016981D01*
X039997Y016823D02*
X039661Y016823D01*
X039600Y016664D02*
X039839Y016664D01*
X039680Y016506D02*
X039443Y016506D01*
X039522Y016347D02*
X037410Y016347D01*
X037410Y016189D02*
X039363Y016189D01*
X039205Y016030D02*
X037410Y016030D01*
X037410Y015872D02*
X039046Y015872D01*
X038888Y015713D02*
X037410Y015713D01*
X037410Y015555D02*
X038729Y015555D01*
X038571Y015396D02*
X037410Y015396D01*
X037410Y015238D02*
X038450Y015238D01*
X038450Y015079D02*
X037410Y015079D01*
X037410Y014921D02*
X038450Y014921D01*
X038450Y014762D02*
X037423Y014762D01*
X037582Y014604D02*
X038450Y014604D01*
X038450Y014445D02*
X037740Y014445D01*
X037899Y014287D02*
X038450Y014287D01*
X038450Y014128D02*
X038057Y014128D01*
X041910Y012860D02*
X041912Y012860D01*
X042248Y012860D02*
X043112Y012860D01*
X043850Y011275D02*
X041500Y011275D01*
X043308Y011117D02*
X043850Y011117D01*
X043850Y010958D02*
X043496Y010958D01*
X043540Y010800D02*
X043850Y010800D01*
X043894Y010641D02*
X043512Y010641D01*
X043392Y010483D02*
X044052Y010483D01*
X044166Y010324D02*
X043049Y010324D01*
X043714Y007471D02*
X044227Y007471D01*
X044161Y007313D02*
X043873Y007313D01*
X044031Y007154D02*
X044150Y007154D01*
X052010Y010483D02*
X052552Y010483D01*
X052394Y010641D02*
X052010Y010641D01*
X052010Y010800D02*
X052235Y010800D01*
X052077Y010958D02*
X052010Y010958D01*
X052410Y011275D02*
X052410Y015801D01*
X052485Y015876D01*
X052540Y016008D01*
X052540Y016152D01*
X052485Y016284D01*
X052384Y016385D01*
X052252Y016440D01*
X052108Y016440D01*
X052010Y016399D01*
X052010Y017075D01*
X045110Y023975D01*
X044614Y023321D02*
X041664Y023321D01*
X041823Y023163D02*
X044772Y023163D01*
X044931Y023004D02*
X041981Y023004D01*
X042324Y022846D02*
X045089Y022846D01*
X045248Y022687D02*
X042425Y022687D01*
X042440Y022529D02*
X045406Y022529D01*
X045565Y022370D02*
X042379Y022370D01*
X041781Y022370D02*
X041709Y022370D01*
X041577Y022212D02*
X045723Y022212D01*
X041228Y022212D02*
X041132Y022212D01*
X041132Y022068D02*
X041132Y022067D01*
X041132Y022068D02*
X041037Y022083D01*
X040945Y022112D01*
X040859Y022156D01*
X040781Y022213D01*
X040713Y022281D01*
X040656Y022359D01*
X040612Y022445D01*
X040583Y022537D01*
X040568Y022632D01*
X040568Y022632D01*
X041132Y022632D01*
X041132Y022067D01*
X041228Y022068D02*
X041228Y022068D01*
X041228Y022370D02*
X041132Y022370D01*
X041132Y022529D02*
X041228Y022529D01*
X041132Y022687D02*
X037228Y022687D01*
X037228Y022632D02*
X037792Y022632D01*
X037792Y022632D01*
X037777Y022537D01*
X037748Y022445D01*
X037704Y022359D01*
X037647Y022281D01*
X037579Y022213D01*
X037501Y022156D01*
X037415Y022112D01*
X037323Y022083D01*
X037228Y022068D01*
X037228Y022068D01*
X037228Y022632D01*
X037132Y022632D02*
X037132Y022067D01*
X037132Y022068D01*
X037037Y022083D01*
X036945Y022112D01*
X036859Y022156D01*
X036781Y022213D01*
X036713Y022281D01*
X036656Y022359D01*
X036612Y022445D01*
X036583Y022537D01*
X036568Y022632D01*
X036568Y022632D01*
X037132Y022632D01*
X037132Y022687D02*
X034228Y022687D01*
X034228Y022632D02*
X034792Y022632D01*
X034792Y022632D01*
X034777Y022537D01*
X034748Y022445D01*
X034704Y022359D01*
X034647Y022281D01*
X034579Y022213D01*
X034501Y022156D01*
X034415Y022112D01*
X034323Y022083D01*
X034228Y022068D01*
X034228Y022068D01*
X034228Y022632D01*
X034228Y022529D02*
X034132Y022529D01*
X034132Y022687D02*
X030228Y022687D01*
X030228Y022632D02*
X030792Y022632D01*
X030792Y022632D01*
X030777Y022537D01*
X030748Y022445D01*
X030704Y022359D01*
X030647Y022281D01*
X030579Y022213D01*
X030501Y022156D01*
X030415Y022112D01*
X030323Y022083D01*
X030228Y022068D01*
X030228Y022068D01*
X030228Y022632D01*
X030132Y022632D02*
X030132Y022067D01*
X030132Y022068D01*
X030037Y022083D01*
X029945Y022112D01*
X029859Y022156D01*
X029781Y022213D01*
X029713Y022281D01*
X029656Y022359D01*
X029612Y022445D01*
X029583Y022537D01*
X029568Y022632D01*
X029568Y022632D01*
X030132Y022632D01*
X030132Y022687D02*
X026710Y022687D01*
X026710Y022529D02*
X029585Y022529D01*
X029651Y022370D02*
X026710Y022370D01*
X026710Y022212D02*
X029783Y022212D01*
X030132Y022212D02*
X030228Y022212D01*
X030228Y022370D02*
X030132Y022370D01*
X030132Y022529D02*
X030228Y022529D01*
X030577Y022212D02*
X033245Y022212D01*
X033220Y022053D02*
X026710Y022053D01*
X026710Y021895D02*
X033069Y021895D01*
X032911Y021736D02*
X027816Y021736D01*
X028115Y021578D02*
X032752Y021578D01*
X032594Y021419D02*
X028275Y021419D01*
X028388Y021261D02*
X032435Y021261D01*
X032769Y020944D02*
X038702Y020944D01*
X038638Y020785D02*
X032722Y020785D01*
X032722Y020627D02*
X038638Y020627D01*
X038681Y020468D02*
X032679Y020468D01*
X032577Y020310D02*
X038783Y020310D01*
X038835Y021102D02*
X032927Y021102D01*
X031835Y021102D02*
X028476Y021102D01*
X028519Y020944D02*
X031702Y020944D01*
X031638Y020785D02*
X028550Y020785D01*
X028550Y020627D02*
X031638Y020627D01*
X031643Y020468D02*
X028533Y020468D01*
X028490Y020310D02*
X031484Y020310D01*
X031326Y020151D02*
X028418Y020151D01*
X028326Y019993D02*
X030994Y019993D01*
X030854Y019834D02*
X028168Y019834D01*
X027930Y019676D02*
X030820Y019676D01*
X030858Y019517D02*
X026568Y019517D01*
X026410Y019676D02*
X026930Y019676D01*
X026692Y019834D02*
X026340Y019834D01*
X026277Y019993D02*
X026534Y019993D01*
X026442Y020151D02*
X025810Y020151D01*
X025835Y020310D02*
X026370Y020310D01*
X026327Y020468D02*
X025993Y020468D01*
X026152Y020627D02*
X026310Y020627D01*
X024677Y021102D02*
X023976Y021102D01*
X024019Y020944D02*
X024518Y020944D01*
X024360Y020785D02*
X024050Y020785D01*
X024050Y020627D02*
X024201Y020627D01*
X024043Y020468D02*
X024033Y020468D01*
X023888Y021261D02*
X024835Y021261D01*
X024994Y021419D02*
X023775Y021419D01*
X023615Y021578D02*
X025152Y021578D01*
X025311Y021736D02*
X023316Y021736D01*
X026710Y021736D02*
X027044Y021736D01*
X026745Y021578D02*
X026710Y021578D01*
X026710Y022846D02*
X029590Y022846D01*
X029658Y023004D02*
X026710Y023004D01*
X030702Y023004D02*
X033658Y023004D01*
X033590Y022846D02*
X030770Y022846D01*
X030792Y022728D02*
X030792Y022728D01*
X030775Y022529D02*
X033585Y022529D01*
X033568Y022632D02*
X033568Y022632D01*
X033361Y022370D02*
X030709Y022370D01*
X034132Y022370D02*
X034228Y022370D01*
X034228Y022212D02*
X034132Y022212D01*
X034577Y022212D02*
X036783Y022212D01*
X036651Y022370D02*
X034709Y022370D01*
X034775Y022529D02*
X036585Y022529D01*
X036590Y022846D02*
X034770Y022846D01*
X034792Y022728D02*
X034792Y022728D01*
X034702Y023004D02*
X036658Y023004D01*
X037132Y022529D02*
X037228Y022529D01*
X037228Y022370D02*
X037132Y022370D01*
X037132Y022212D02*
X037228Y022212D01*
X037577Y022212D02*
X040783Y022212D01*
X040651Y022370D02*
X037709Y022370D01*
X037775Y022529D02*
X040585Y022529D01*
X040590Y022846D02*
X037770Y022846D01*
X037792Y022728D02*
X037792Y022728D01*
X037702Y023004D02*
X040658Y023004D01*
X037132Y019292D02*
X037132Y019292D01*
X037132Y019200D02*
X037228Y019200D01*
X037228Y019042D02*
X037132Y019042D01*
X037132Y018883D02*
X037228Y018883D01*
X037228Y018566D02*
X037132Y018566D01*
X037132Y018408D02*
X037228Y018408D01*
X037228Y018249D02*
X037132Y018249D01*
X036745Y018249D02*
X034615Y018249D01*
X034729Y018408D02*
X036631Y018408D01*
X036578Y018566D02*
X034782Y018566D01*
X034792Y018728D02*
X034792Y018728D01*
X034758Y018883D02*
X036602Y018883D01*
X036686Y019042D02*
X034674Y019042D01*
X034506Y019200D02*
X036854Y019200D01*
X034228Y019200D02*
X034132Y019200D01*
X034132Y019292D02*
X034132Y019292D01*
X034132Y019042D02*
X034228Y019042D01*
X034228Y018883D02*
X034132Y018883D01*
X033686Y019042D02*
X030674Y019042D01*
X030758Y018883D02*
X033602Y018883D01*
X033568Y018632D02*
X033568Y018632D01*
X033578Y018566D02*
X030782Y018566D01*
X030792Y018728D02*
X030792Y018728D01*
X030729Y018408D02*
X033631Y018408D01*
X033745Y018249D02*
X030615Y018249D01*
X030506Y019200D02*
X033854Y019200D01*
X031015Y019359D02*
X026727Y019359D01*
X026393Y019042D02*
X025810Y019042D01*
X025810Y019200D02*
X026235Y019200D01*
X026076Y019359D02*
X025810Y019359D01*
X025810Y019461D02*
X025908Y019420D01*
X026015Y019420D01*
X026825Y018610D01*
X026682Y018551D01*
X026559Y018428D01*
X026493Y018267D01*
X026493Y018093D01*
X026559Y017932D01*
X026650Y017842D01*
X026650Y017637D01*
X026625Y017650D01*
X026549Y017675D01*
X026470Y017687D01*
X026439Y017687D01*
X026439Y017189D01*
X026421Y017189D01*
X026421Y017687D01*
X026390Y017687D01*
X026311Y017675D01*
X026235Y017650D01*
X026164Y017614D01*
X026100Y017567D01*
X026043Y017510D01*
X025996Y017446D01*
X025960Y017375D01*
X025935Y017299D01*
X025923Y017220D01*
X025923Y017189D01*
X026421Y017189D01*
X026421Y017171D01*
X026439Y017171D01*
X026439Y016673D01*
X026470Y016673D01*
X026549Y016685D01*
X026625Y016710D01*
X026650Y016723D01*
X026650Y014075D01*
X026585Y014010D01*
X026514Y013940D01*
X026354Y014100D01*
X026006Y014100D01*
X025910Y014004D01*
X025910Y017075D01*
X025867Y017118D01*
X025867Y017267D01*
X025801Y017428D01*
X025710Y017518D01*
X025710Y017798D01*
X025843Y017743D01*
X026017Y017743D01*
X026178Y017809D01*
X026301Y017932D01*
X026367Y018093D01*
X026367Y018267D01*
X026301Y018428D01*
X026178Y018551D01*
X026017Y018617D01*
X025843Y018617D01*
X025810Y018603D01*
X025810Y019461D01*
X025810Y018883D02*
X026552Y018883D01*
X026710Y018725D02*
X025810Y018725D01*
X026140Y018566D02*
X026720Y018566D01*
X026551Y018408D02*
X026309Y018408D01*
X026367Y018249D02*
X026493Y018249D01*
X026494Y018091D02*
X026366Y018091D01*
X026300Y017932D02*
X026560Y017932D01*
X026650Y017774D02*
X026091Y017774D01*
X026167Y017615D02*
X025710Y017615D01*
X025710Y017774D02*
X025769Y017774D01*
X025772Y017457D02*
X026004Y017457D01*
X025935Y017298D02*
X025854Y017298D01*
X025923Y017171D02*
X025923Y017140D01*
X025935Y017061D01*
X025960Y016985D01*
X025996Y016914D01*
X026043Y016850D01*
X026100Y016793D01*
X026164Y016746D01*
X026235Y016710D01*
X026311Y016685D01*
X026390Y016673D01*
X026421Y016673D01*
X026421Y017171D01*
X025923Y017171D01*
X025923Y017140D02*
X025867Y017140D01*
X025910Y016981D02*
X025962Y016981D01*
X025910Y016823D02*
X026070Y016823D01*
X025910Y016664D02*
X026650Y016664D01*
X026650Y016506D02*
X025910Y016506D01*
X025910Y016347D02*
X026650Y016347D01*
X026650Y016189D02*
X025910Y016189D01*
X025910Y016030D02*
X026650Y016030D01*
X026650Y015872D02*
X025910Y015872D01*
X025910Y015713D02*
X026650Y015713D01*
X026650Y015555D02*
X025910Y015555D01*
X025910Y015396D02*
X026650Y015396D01*
X026650Y015238D02*
X025910Y015238D01*
X025910Y015079D02*
X026650Y015079D01*
X026650Y014921D02*
X025910Y014921D01*
X025910Y014762D02*
X026650Y014762D01*
X026650Y014604D02*
X025910Y014604D01*
X025910Y014445D02*
X026650Y014445D01*
X026650Y014287D02*
X025910Y014287D01*
X025910Y014128D02*
X026650Y014128D01*
X026544Y013970D02*
X026484Y013970D01*
X023450Y013336D02*
X023429Y013336D01*
X021350Y014287D02*
X018910Y014287D01*
X018910Y014445D02*
X021350Y014445D01*
X021263Y014604D02*
X018910Y014604D01*
X018910Y014762D02*
X021220Y014762D01*
X021249Y014921D02*
X018910Y014921D01*
X018910Y015079D02*
X021350Y015079D01*
X021350Y015238D02*
X018910Y015238D01*
X018910Y015396D02*
X021350Y015396D01*
X021350Y015555D02*
X018910Y015555D01*
X018910Y015713D02*
X021350Y015713D01*
X021350Y015872D02*
X018910Y015872D01*
X018910Y016030D02*
X021350Y016030D01*
X021350Y016189D02*
X018910Y016189D01*
X018910Y016347D02*
X021350Y016347D01*
X021329Y016506D02*
X018910Y016506D01*
X018910Y016664D02*
X021171Y016664D01*
X021012Y016823D02*
X019790Y016823D01*
X019817Y016850D02*
X019864Y016914D01*
X019900Y016985D01*
X019925Y017061D01*
X019937Y017140D01*
X019937Y017171D01*
X019439Y017171D01*
X019439Y017189D01*
X019937Y017189D01*
X019937Y017220D01*
X019925Y017299D01*
X019900Y017375D01*
X019864Y017446D01*
X019817Y017510D01*
X019760Y017567D01*
X019696Y017614D01*
X019625Y017650D01*
X019549Y017675D01*
X019470Y017687D01*
X019439Y017687D01*
X019439Y017189D01*
X019421Y017189D01*
X019421Y017687D01*
X019390Y017687D01*
X019311Y017675D01*
X019235Y017650D01*
X019164Y017614D01*
X019100Y017567D01*
X019043Y017510D01*
X018996Y017446D01*
X018960Y017375D01*
X018935Y017299D01*
X018923Y017220D01*
X018923Y017189D01*
X019421Y017189D01*
X019421Y017171D01*
X019439Y017171D01*
X019439Y016673D01*
X019470Y016673D01*
X019549Y016685D01*
X019625Y016710D01*
X019696Y016746D01*
X019760Y016793D01*
X019817Y016850D01*
X019898Y016981D02*
X020854Y016981D01*
X020695Y017140D02*
X019937Y017140D01*
X019925Y017298D02*
X020537Y017298D01*
X020378Y017457D02*
X019856Y017457D01*
X019693Y017615D02*
X020220Y017615D01*
X019769Y017774D02*
X019091Y017774D01*
X019017Y017743D02*
X019178Y017809D01*
X019301Y017932D01*
X019367Y018093D01*
X019367Y018267D01*
X019301Y018428D01*
X019178Y018551D01*
X019017Y018617D01*
X018843Y018617D01*
X018682Y018551D01*
X018559Y018428D01*
X018493Y018267D01*
X018493Y018093D01*
X018559Y017932D01*
X018682Y017809D01*
X018843Y017743D01*
X019017Y017743D01*
X019167Y017615D02*
X018522Y017615D01*
X018338Y017615D02*
X017522Y017615D01*
X017338Y017615D02*
X016522Y017615D01*
X016517Y017617D02*
X016343Y017617D01*
X016182Y017551D01*
X016059Y017428D01*
X015993Y017267D01*
X015993Y017093D01*
X016059Y016932D01*
X016182Y016809D01*
X016343Y016743D01*
X016517Y016743D01*
X016678Y016809D01*
X016801Y016932D01*
X016867Y017093D01*
X016867Y017267D01*
X016801Y017428D01*
X016678Y017551D01*
X016517Y017617D01*
X016338Y017615D02*
X015540Y017615D01*
X015382Y017457D02*
X016088Y017457D01*
X016006Y017298D02*
X015223Y017298D01*
X015065Y017140D02*
X015993Y017140D01*
X016039Y016981D02*
X014906Y016981D01*
X014748Y016823D02*
X016169Y016823D01*
X016691Y016823D02*
X017169Y016823D01*
X017039Y016981D02*
X016821Y016981D01*
X016867Y017140D02*
X016993Y017140D01*
X017006Y017298D02*
X016854Y017298D01*
X016772Y017457D02*
X017088Y017457D01*
X017091Y017774D02*
X017769Y017774D01*
X017843Y017743D02*
X017682Y017809D01*
X017559Y017932D01*
X017493Y018093D01*
X017493Y018267D01*
X017559Y018428D01*
X017682Y018551D01*
X017843Y018617D01*
X018017Y018617D01*
X018178Y018551D01*
X018301Y018428D01*
X018367Y018267D01*
X018367Y018093D01*
X018301Y017932D01*
X018178Y017809D01*
X018017Y017743D01*
X017843Y017743D01*
X018091Y017774D02*
X018769Y017774D01*
X018560Y017932D02*
X018300Y017932D01*
X018366Y018091D02*
X018494Y018091D01*
X018493Y018249D02*
X018367Y018249D01*
X018309Y018408D02*
X018551Y018408D01*
X018720Y018566D02*
X018140Y018566D01*
X017720Y018566D02*
X017140Y018566D01*
X017309Y018408D02*
X017551Y018408D01*
X017493Y018249D02*
X017367Y018249D01*
X017366Y018091D02*
X017494Y018091D01*
X017560Y017932D02*
X017300Y017932D01*
X016769Y017774D02*
X015699Y017774D01*
X015857Y017932D02*
X016560Y017932D01*
X016494Y018091D02*
X016016Y018091D01*
X016174Y018249D02*
X016493Y018249D01*
X017772Y017457D02*
X018088Y017457D01*
X018006Y017298D02*
X017854Y017298D01*
X017867Y017140D02*
X017993Y017140D01*
X018004Y016981D02*
X018039Y016981D01*
X018163Y016823D02*
X018169Y016823D01*
X018321Y016664D02*
X018450Y016664D01*
X018910Y016823D02*
X019070Y016823D01*
X019043Y016850D02*
X019100Y016793D01*
X019164Y016746D01*
X019235Y016710D01*
X019311Y016685D01*
X019390Y016673D01*
X019421Y016673D01*
X019421Y017171D01*
X018923Y017171D01*
X018923Y017140D01*
X018935Y017061D01*
X018960Y016985D01*
X018996Y016914D01*
X019043Y016850D01*
X018962Y016981D02*
X018910Y016981D01*
X018923Y017140D02*
X018867Y017140D01*
X018854Y017298D02*
X018935Y017298D01*
X019004Y017457D02*
X018772Y017457D01*
X019421Y017457D02*
X019439Y017457D01*
X019439Y017615D02*
X019421Y017615D01*
X019421Y017298D02*
X019439Y017298D01*
X019439Y017140D02*
X019421Y017140D01*
X019421Y016981D02*
X019439Y016981D01*
X019439Y016823D02*
X019421Y016823D01*
X017829Y016506D02*
X014610Y016506D01*
X014610Y016664D02*
X017671Y016664D01*
X019300Y017932D02*
X019560Y017932D01*
X019494Y018091D02*
X019366Y018091D01*
X019367Y018249D02*
X019493Y018249D01*
X019551Y018408D02*
X019309Y018408D01*
X019140Y018566D02*
X019720Y018566D01*
X014150Y016347D02*
X010338Y016347D01*
X010277Y016506D02*
X010917Y016506D01*
X010760Y016664D02*
X010518Y016664D01*
X010594Y016823D02*
X010699Y016823D01*
X010690Y016981D02*
X010600Y016981D01*
X010600Y017140D02*
X010690Y017140D01*
X010690Y017298D02*
X010600Y017298D01*
X010600Y017457D02*
X010690Y017457D01*
X010722Y017615D02*
X010562Y017615D01*
X010440Y017774D02*
X010821Y017774D01*
X009228Y018883D02*
X009132Y018883D01*
X009132Y019042D02*
X009228Y019042D01*
X009228Y019200D02*
X009132Y019200D01*
X009132Y019292D02*
X009132Y019292D01*
X007499Y018725D02*
X006228Y018725D01*
X006132Y018725D02*
X002228Y018725D01*
X002228Y018728D02*
X002792Y018728D01*
X002777Y018823D01*
X002748Y018915D01*
X002704Y019001D01*
X002647Y019079D01*
X002579Y019147D01*
X002501Y019204D01*
X002415Y019248D01*
X002323Y019277D01*
X002228Y019292D01*
X002228Y019292D01*
X002228Y018728D01*
X002228Y018632D01*
X002792Y018632D01*
X002792Y018632D01*
X002777Y018537D01*
X002748Y018445D01*
X002704Y018359D01*
X002647Y018281D01*
X002579Y018213D01*
X002501Y018156D01*
X002415Y018112D01*
X002323Y018083D01*
X002228Y018068D01*
X002228Y018068D01*
X002228Y018632D01*
X002132Y018632D01*
X002132Y018067D01*
X002132Y018068D01*
X002037Y018083D01*
X001945Y018112D01*
X001859Y018156D01*
X001781Y018213D01*
X001713Y018281D01*
X001656Y018359D01*
X001612Y018445D01*
X001583Y018537D01*
X001568Y018632D01*
X001568Y018632D01*
X002132Y018632D01*
X002132Y018728D01*
X002132Y019292D01*
X002037Y019277D01*
X001945Y019248D01*
X001859Y019204D01*
X001781Y019147D01*
X001713Y019079D01*
X001656Y019001D01*
X001612Y018915D01*
X001583Y018823D01*
X001568Y018728D01*
X001568Y018728D01*
X002132Y018728D01*
X002228Y018728D01*
X002132Y018725D02*
X000660Y018725D01*
X000660Y018883D02*
X001602Y018883D01*
X001686Y019042D02*
X000660Y019042D01*
X000660Y019200D02*
X001854Y019200D01*
X002132Y019200D02*
X002228Y019200D01*
X002132Y019292D02*
X002132Y019292D01*
X002132Y019042D02*
X002228Y019042D01*
X002228Y018883D02*
X002132Y018883D01*
X002132Y018566D02*
X002228Y018566D01*
X002228Y018408D02*
X002132Y018408D01*
X002132Y018249D02*
X002228Y018249D01*
X002228Y018091D02*
X002132Y018091D01*
X002012Y018091D02*
X000660Y018091D01*
X000660Y018249D02*
X001745Y018249D01*
X001631Y018408D02*
X000660Y018408D01*
X000660Y018566D02*
X001578Y018566D01*
X002348Y018091D02*
X006012Y018091D01*
X006037Y018083D02*
X006132Y018068D01*
X006132Y018067D01*
X006132Y018632D01*
X005568Y018632D01*
X005583Y018537D01*
X005612Y018445D01*
X005656Y018359D01*
X005713Y018281D01*
X005781Y018213D01*
X005859Y018156D01*
X005945Y018112D01*
X006037Y018083D01*
X006132Y018091D02*
X006228Y018091D01*
X006228Y018068D02*
X006228Y018068D01*
X006348Y018091D02*
X006865Y018091D01*
X006707Y017932D02*
X000660Y017932D01*
X000660Y017774D02*
X003920Y017774D01*
X003942Y017796D02*
X003824Y017678D01*
X003760Y017524D01*
X003760Y016836D01*
X003824Y016682D01*
X003942Y016564D01*
X003950Y016561D01*
X003950Y015275D01*
X002775Y014100D01*
X002506Y014100D01*
X002260Y013854D01*
X002260Y013506D01*
X002506Y013260D01*
X002854Y013260D01*
X003100Y013506D01*
X003100Y013775D01*
X004275Y014950D01*
X004410Y015085D01*
X004410Y016561D01*
X004418Y016564D01*
X004536Y016682D01*
X004600Y016836D01*
X004600Y017524D01*
X004536Y017678D01*
X004418Y017796D01*
X004264Y017860D01*
X004096Y017860D01*
X003942Y017796D01*
X003798Y017615D02*
X000660Y017615D01*
X000660Y017457D02*
X003760Y017457D01*
X003760Y017298D02*
X000660Y017298D01*
X000660Y017140D02*
X003760Y017140D01*
X003760Y016981D02*
X000660Y016981D01*
X000660Y016823D02*
X003766Y016823D01*
X003842Y016664D02*
X000660Y016664D01*
X000660Y016506D02*
X003950Y016506D01*
X003950Y016347D02*
X000660Y016347D01*
X000660Y016189D02*
X003950Y016189D01*
X003950Y016030D02*
X000660Y016030D01*
X000660Y015872D02*
X003950Y015872D01*
X003950Y015713D02*
X000660Y015713D01*
X000660Y015555D02*
X003950Y015555D01*
X003950Y015396D02*
X000660Y015396D01*
X000660Y015238D02*
X003912Y015238D01*
X003754Y015079D02*
X000660Y015079D01*
X000660Y014921D02*
X003595Y014921D01*
X003437Y014762D02*
X000660Y014762D01*
X000660Y014604D02*
X003278Y014604D01*
X003120Y014445D02*
X000660Y014445D01*
X000660Y014287D02*
X002961Y014287D01*
X002803Y014128D02*
X000660Y014128D01*
X000660Y013970D02*
X001376Y013970D01*
X001260Y013854D02*
X001506Y014100D01*
X001854Y014100D01*
X002100Y013854D01*
X002100Y013506D01*
X001854Y013260D01*
X001506Y013260D01*
X001260Y013506D01*
X001260Y013854D01*
X001260Y013811D02*
X000660Y013811D01*
X000660Y013653D02*
X001260Y013653D01*
X001272Y013494D02*
X000660Y013494D01*
X000660Y013336D02*
X001431Y013336D01*
X001929Y013336D02*
X002431Y013336D01*
X002272Y013494D02*
X002088Y013494D01*
X002100Y013653D02*
X002260Y013653D01*
X002260Y013811D02*
X002100Y013811D01*
X001984Y013970D02*
X002376Y013970D01*
X003136Y013811D02*
X003260Y013811D01*
X003260Y013854D02*
X003260Y013506D01*
X003506Y013260D01*
X003854Y013260D01*
X004100Y013506D01*
X004100Y013854D01*
X003854Y014100D01*
X003506Y014100D01*
X003260Y013854D01*
X003295Y013970D02*
X003376Y013970D01*
X003453Y014128D02*
X004803Y014128D01*
X004775Y014100D02*
X004506Y014100D01*
X004260Y013854D01*
X004260Y013506D01*
X004506Y013260D01*
X004854Y013260D01*
X005100Y013506D01*
X005100Y013775D01*
X005275Y013950D01*
X005410Y014085D01*
X005410Y016561D01*
X005418Y016564D01*
X005536Y016682D01*
X005600Y016836D01*
X005600Y017524D01*
X005536Y017678D01*
X005418Y017796D01*
X005264Y017860D01*
X005096Y017860D01*
X004942Y017796D01*
X004824Y017678D01*
X004760Y017524D01*
X004760Y016836D01*
X004824Y016682D01*
X004942Y016564D01*
X004950Y016561D01*
X004950Y014275D01*
X004775Y014100D01*
X004950Y014287D02*
X003612Y014287D01*
X003770Y014445D02*
X004950Y014445D01*
X004950Y014604D02*
X003929Y014604D01*
X004087Y014762D02*
X004950Y014762D01*
X004950Y014921D02*
X004246Y014921D01*
X004404Y015079D02*
X004950Y015079D01*
X004950Y015238D02*
X004410Y015238D01*
X004410Y015396D02*
X004950Y015396D01*
X004950Y015555D02*
X004410Y015555D01*
X004410Y015713D02*
X004950Y015713D01*
X004950Y015872D02*
X004410Y015872D01*
X004410Y016030D02*
X004950Y016030D01*
X004950Y016189D02*
X004410Y016189D01*
X004410Y016347D02*
X004950Y016347D01*
X004950Y016506D02*
X004410Y016506D01*
X004518Y016664D02*
X004842Y016664D01*
X004766Y016823D02*
X004594Y016823D01*
X004600Y016981D02*
X004760Y016981D01*
X004760Y017140D02*
X004600Y017140D01*
X004600Y017298D02*
X004760Y017298D01*
X004760Y017457D02*
X004600Y017457D01*
X004562Y017615D02*
X004798Y017615D01*
X004920Y017774D02*
X004440Y017774D01*
X005440Y017774D02*
X005920Y017774D01*
X005798Y017615D02*
X005562Y017615D01*
X005600Y017457D02*
X005760Y017457D01*
X005760Y017298D02*
X005600Y017298D01*
X005600Y017140D02*
X005760Y017140D01*
X005760Y016981D02*
X005600Y016981D01*
X005594Y016823D02*
X005766Y016823D01*
X005842Y016664D02*
X005518Y016664D01*
X005410Y016506D02*
X005950Y016506D01*
X005950Y016347D02*
X005410Y016347D01*
X005410Y016189D02*
X005950Y016189D01*
X005950Y016030D02*
X005410Y016030D01*
X005410Y015872D02*
X005950Y015872D01*
X005950Y015713D02*
X005410Y015713D01*
X005410Y015555D02*
X005950Y015555D01*
X005950Y015396D02*
X005410Y015396D01*
X005410Y015238D02*
X005950Y015238D01*
X005950Y015079D02*
X005410Y015079D01*
X005410Y014921D02*
X005950Y014921D01*
X005950Y014762D02*
X005410Y014762D01*
X005410Y014604D02*
X005950Y014604D01*
X005950Y014445D02*
X005410Y014445D01*
X005410Y014287D02*
X005950Y014287D01*
X005950Y014128D02*
X005410Y014128D01*
X005506Y014100D02*
X005260Y013854D01*
X005260Y013506D01*
X005506Y013260D01*
X005854Y013260D01*
X006100Y013506D01*
X006100Y013854D01*
X005854Y014100D01*
X005506Y014100D01*
X005376Y013970D02*
X005295Y013970D01*
X005260Y013811D02*
X005136Y013811D01*
X005100Y013653D02*
X005260Y013653D01*
X005272Y013494D02*
X005088Y013494D01*
X004929Y013336D02*
X005431Y013336D01*
X005929Y013336D02*
X006431Y013336D01*
X006272Y013494D02*
X006088Y013494D01*
X006100Y013653D02*
X006260Y013653D01*
X006224Y013811D02*
X006100Y013811D01*
X006065Y013970D02*
X005984Y013970D01*
X006929Y013336D02*
X006950Y013336D01*
X006950Y013177D02*
X000660Y013177D01*
X000660Y013019D02*
X006950Y013019D01*
X006950Y012860D02*
X000660Y012860D01*
X000660Y012702D02*
X006950Y012702D01*
X006950Y012543D02*
X000660Y012543D01*
X000660Y012385D02*
X006950Y012385D01*
X006801Y012226D02*
X004488Y012226D01*
X004346Y012285D02*
X004014Y012285D01*
X003707Y012158D01*
X003472Y011923D01*
X003345Y011616D01*
X003345Y011284D01*
X003472Y010977D01*
X003707Y010742D01*
X004014Y010615D01*
X004346Y010615D01*
X004653Y010742D01*
X004888Y010977D01*
X005015Y011284D01*
X005015Y011616D01*
X004888Y011923D01*
X004653Y012158D01*
X004346Y012285D01*
X004743Y012068D02*
X006642Y012068D01*
X006484Y011909D02*
X004894Y011909D01*
X004959Y011751D02*
X006325Y011751D01*
X006167Y011592D02*
X005015Y011592D01*
X005015Y011434D02*
X006008Y011434D01*
X005850Y011275D02*
X005011Y011275D01*
X004946Y011117D02*
X005691Y011117D01*
X005550Y010958D02*
X004869Y010958D01*
X004710Y010800D02*
X005550Y010800D01*
X005550Y010641D02*
X004409Y010641D01*
X003951Y010641D02*
X002585Y010641D01*
X002585Y010558D02*
X002585Y010762D01*
X002507Y010950D01*
X002363Y011094D01*
X002174Y011172D01*
X001266Y011172D01*
X001077Y011094D01*
X000933Y010950D01*
X000855Y010762D01*
X000855Y010558D01*
X000933Y010370D01*
X001077Y010226D01*
X001266Y010148D01*
X002174Y010148D01*
X002363Y010226D01*
X002507Y010370D01*
X002585Y010558D01*
X002554Y010483D02*
X005550Y010483D01*
X005550Y010324D02*
X002461Y010324D01*
X002218Y010166D02*
X005550Y010166D01*
X005550Y010007D02*
X000660Y010007D01*
X000660Y009849D02*
X005550Y009849D01*
X005550Y009690D02*
X000660Y009690D01*
X000660Y009532D02*
X005550Y009532D01*
X005550Y009373D02*
X000660Y009373D01*
X000660Y009215D02*
X005550Y009215D01*
X005550Y009056D02*
X002441Y009056D01*
X002512Y008422D02*
X003511Y008422D01*
X003423Y008264D02*
X002358Y008264D01*
X003357Y008105D02*
X000660Y008105D01*
X000660Y007947D02*
X003345Y007947D01*
X003345Y007788D02*
X000660Y007788D01*
X000660Y007630D02*
X003392Y007630D01*
X003458Y007471D02*
X000660Y007471D01*
X000660Y007313D02*
X003597Y007313D01*
X003823Y007154D02*
X000660Y007154D01*
X000660Y006996D02*
X007450Y006996D01*
X007450Y007154D02*
X004537Y007154D01*
X004763Y007313D02*
X007450Y007313D01*
X007450Y007471D02*
X004902Y007471D01*
X004968Y007630D02*
X007450Y007630D01*
X007450Y007788D02*
X005015Y007788D01*
X005015Y007947D02*
X007450Y007947D01*
X007450Y008105D02*
X005003Y008105D01*
X004937Y008264D02*
X006002Y008264D01*
X005848Y008422D02*
X004849Y008422D01*
X007278Y008264D02*
X007450Y008264D01*
X007450Y008422D02*
X007432Y008422D01*
X007910Y008422D02*
X007928Y008422D01*
X007910Y008264D02*
X008082Y008264D01*
X010510Y008422D02*
X010511Y008422D01*
X010510Y008581D02*
X010670Y008581D01*
X014278Y008264D02*
X015082Y008264D01*
X015077Y008266D02*
X015266Y008188D01*
X016174Y008188D01*
X016363Y008266D01*
X016507Y008410D01*
X016585Y008598D01*
X016585Y008802D01*
X016507Y008990D01*
X016363Y009134D01*
X016174Y009212D01*
X015266Y009212D01*
X015077Y009134D01*
X014933Y008990D01*
X014855Y008802D01*
X014855Y008598D01*
X014933Y008410D01*
X015077Y008266D01*
X014928Y008422D02*
X014432Y008422D01*
X014498Y008581D02*
X014862Y008581D01*
X014855Y008739D02*
X014505Y008739D01*
X014465Y008898D02*
X014895Y008898D01*
X014999Y009056D02*
X014361Y009056D01*
X016441Y009056D02*
X017050Y009056D01*
X017050Y008898D02*
X016545Y008898D01*
X016585Y008739D02*
X017050Y008739D01*
X017050Y008581D02*
X016578Y008581D01*
X016512Y008422D02*
X017050Y008422D01*
X017050Y008264D02*
X016358Y008264D01*
X017510Y008422D02*
X017511Y008422D01*
X017510Y008581D02*
X017670Y008581D01*
X017510Y008739D02*
X017999Y008739D01*
X015076Y005094D02*
X014284Y005094D01*
X014433Y004935D02*
X014927Y004935D01*
X015002Y004301D02*
X014358Y004301D01*
X014145Y003192D02*
X015215Y003192D01*
X014976Y003033D02*
X014384Y003033D01*
X014475Y002875D02*
X014885Y002875D01*
X014855Y002716D02*
X014505Y002716D01*
X014488Y002558D02*
X014872Y002558D01*
X014944Y002399D02*
X014416Y002399D01*
X014222Y002241D02*
X015138Y002241D01*
X013058Y002241D02*
X011947Y002241D01*
X011872Y002399D02*
X012864Y002399D01*
X012896Y003033D02*
X009464Y003033D01*
X009225Y003192D02*
X013135Y003192D01*
X010488Y002399D02*
X009496Y002399D01*
X009302Y002241D02*
X010413Y002241D01*
X008138Y002241D02*
X007222Y002241D01*
X007416Y002399D02*
X007944Y002399D01*
X007872Y002558D02*
X007488Y002558D01*
X007505Y002716D02*
X007855Y002716D01*
X007885Y002875D02*
X007475Y002875D01*
X007384Y003033D02*
X007976Y003033D01*
X008215Y003192D02*
X007145Y003192D01*
X007358Y004301D02*
X008002Y004301D01*
X005922Y004301D02*
X002438Y004301D01*
X002513Y004935D02*
X003514Y004935D01*
X003424Y005094D02*
X002364Y005094D01*
X000660Y003984D02*
X009972Y003984D01*
X005996Y005094D02*
X004936Y005094D01*
X004846Y004935D02*
X005847Y004935D01*
X007450Y006362D02*
X000660Y006362D01*
X000660Y006520D02*
X007450Y006520D01*
X007450Y006679D02*
X000660Y006679D01*
X000660Y006837D02*
X007450Y006837D01*
X001082Y008264D02*
X000660Y008264D01*
X000660Y008422D02*
X000928Y008422D01*
X000862Y008581D02*
X000660Y008581D01*
X000660Y008739D02*
X000855Y008739D01*
X000895Y008898D02*
X000660Y008898D01*
X000660Y009056D02*
X000999Y009056D01*
X001222Y010166D02*
X000660Y010166D01*
X000660Y010324D02*
X000979Y010324D01*
X000886Y010483D02*
X000660Y010483D01*
X000660Y010641D02*
X000855Y010641D01*
X000871Y010800D02*
X000660Y010800D01*
X000660Y010958D02*
X000941Y010958D01*
X001130Y011117D02*
X000660Y011117D01*
X000660Y011275D02*
X003349Y011275D01*
X003345Y011434D02*
X000660Y011434D01*
X000660Y011592D02*
X003345Y011592D01*
X003401Y011751D02*
X000660Y011751D01*
X000660Y011909D02*
X003466Y011909D01*
X003617Y012068D02*
X000660Y012068D01*
X000660Y012226D02*
X003872Y012226D01*
X003929Y013336D02*
X004431Y013336D01*
X004272Y013494D02*
X004088Y013494D01*
X004100Y013653D02*
X004260Y013653D01*
X004260Y013811D02*
X004100Y013811D01*
X003984Y013970D02*
X004376Y013970D01*
X003260Y013653D02*
X003100Y013653D01*
X003088Y013494D02*
X003272Y013494D01*
X003431Y013336D02*
X002929Y013336D01*
X003414Y011117D02*
X002310Y011117D01*
X002499Y010958D02*
X003491Y010958D01*
X003650Y010800D02*
X002569Y010800D01*
X009100Y013811D02*
X009224Y013811D01*
X009065Y013970D02*
X008984Y013970D01*
X008907Y014128D02*
X008410Y014128D01*
X008410Y014287D02*
X008748Y014287D01*
X008590Y014445D02*
X008410Y014445D01*
X008410Y014604D02*
X008431Y014604D01*
X009984Y013970D02*
X010376Y013970D01*
X010260Y013811D02*
X010100Y013811D01*
X010100Y013653D02*
X010260Y013653D01*
X010272Y013494D02*
X010088Y013494D01*
X009929Y013336D02*
X010431Y013336D01*
X011667Y013019D02*
X012416Y013019D01*
X012099Y013336D02*
X011929Y013336D01*
X012410Y014128D02*
X012803Y014128D01*
X012961Y014287D02*
X012399Y014287D01*
X012240Y014445D02*
X013120Y014445D01*
X013278Y014604D02*
X012082Y014604D01*
X011923Y014762D02*
X013437Y014762D01*
X013595Y014921D02*
X011765Y014921D01*
X011606Y015079D02*
X013754Y015079D01*
X013912Y015238D02*
X011448Y015238D01*
X011289Y015396D02*
X014071Y015396D01*
X014150Y015555D02*
X011131Y015555D01*
X010972Y015713D02*
X014150Y015713D01*
X014150Y015872D02*
X010814Y015872D01*
X010655Y016030D02*
X014150Y016030D01*
X014150Y016189D02*
X010497Y016189D01*
X006548Y017774D02*
X006440Y017774D01*
X006228Y018249D02*
X006132Y018249D01*
X006132Y018408D02*
X006228Y018408D01*
X006228Y018566D02*
X006132Y018566D01*
X006132Y018883D02*
X006228Y018883D01*
X006228Y019042D02*
X006132Y019042D01*
X006132Y019200D02*
X006228Y019200D01*
X006132Y019292D02*
X006132Y019292D01*
X005854Y019200D02*
X002506Y019200D01*
X002674Y019042D02*
X005686Y019042D01*
X005602Y018883D02*
X002758Y018883D01*
X002792Y018728D02*
X002792Y018728D01*
X002782Y018566D02*
X005578Y018566D01*
X005568Y018632D02*
X005568Y018632D01*
X005631Y018408D02*
X002729Y018408D01*
X002615Y018249D02*
X005745Y018249D01*
X003783Y020310D02*
X000660Y020310D01*
X000660Y020468D02*
X003681Y020468D01*
X003638Y020627D02*
X000660Y020627D01*
X000660Y020785D02*
X003638Y020785D01*
X003702Y020944D02*
X000660Y020944D01*
X000660Y021102D02*
X003835Y021102D01*
X001590Y022846D02*
X000660Y022846D01*
X000660Y023004D02*
X001658Y023004D01*
X000660Y024114D02*
X056570Y024114D01*
X056570Y021419D02*
X056155Y021419D01*
X056210Y021261D02*
X056570Y021261D01*
X056570Y021102D02*
X056210Y021102D01*
X056156Y020944D02*
X056570Y020944D01*
X056570Y020785D02*
X056035Y020785D01*
X055983Y020627D02*
X056570Y020627D01*
X056570Y020468D02*
X056134Y020468D01*
X056200Y020310D02*
X056570Y020310D01*
X056570Y020151D02*
X056210Y020151D01*
X056176Y019993D02*
X056570Y019993D01*
X056570Y019834D02*
X056084Y019834D01*
X056019Y019676D02*
X056570Y019676D01*
X056570Y019517D02*
X056177Y019517D01*
X056253Y019359D02*
X056570Y019359D01*
X056570Y019200D02*
X056280Y019200D01*
X056266Y019042D02*
X056570Y019042D01*
X056570Y018883D02*
X056202Y018883D01*
X056073Y018725D02*
X056570Y018725D01*
X056570Y018566D02*
X056044Y018566D01*
X056159Y018408D02*
X056570Y018408D01*
X056570Y018249D02*
X056210Y018249D01*
X056210Y018091D02*
X056570Y018091D01*
X056570Y017932D02*
X056151Y017932D01*
X056023Y017774D02*
X056570Y017774D01*
X056570Y017615D02*
X055995Y017615D01*
X056139Y017457D02*
X056570Y017457D01*
X056570Y017298D02*
X056205Y017298D01*
X056210Y017140D02*
X056570Y017140D01*
X056570Y016981D02*
X056171Y016981D01*
X056072Y016823D02*
X056570Y016823D01*
X056570Y016664D02*
X055896Y016664D01*
X056104Y016506D02*
X056570Y016506D01*
X056570Y016347D02*
X056184Y016347D01*
X056210Y016189D02*
X056570Y016189D01*
X056570Y016030D02*
X056192Y016030D01*
X056121Y015872D02*
X056570Y015872D01*
X056570Y015713D02*
X055938Y015713D01*
X056055Y015555D02*
X056570Y015555D01*
X056570Y015396D02*
X056164Y015396D01*
X056210Y015238D02*
X056570Y015238D01*
X056570Y015079D02*
X056210Y015079D01*
X056146Y014921D02*
X056570Y014921D01*
X056570Y014762D02*
X056012Y014762D01*
X056006Y014604D02*
X056570Y014604D01*
X056570Y014445D02*
X056144Y014445D01*
X056210Y014287D02*
X056570Y014287D01*
X056570Y014128D02*
X056210Y014128D01*
X056216Y013970D02*
X056570Y013970D01*
X056570Y013811D02*
X056374Y013811D01*
X056533Y013653D02*
X056570Y013653D01*
X053450Y013653D02*
X052410Y013653D01*
X052410Y013811D02*
X053450Y013811D01*
X053450Y013970D02*
X052410Y013970D01*
X052410Y014128D02*
X053450Y014128D01*
X053450Y014287D02*
X052410Y014287D01*
X052410Y014445D02*
X053450Y014445D01*
X053450Y014604D02*
X052410Y014604D01*
X052410Y014762D02*
X053450Y014762D01*
X053450Y014921D02*
X052410Y014921D01*
X052410Y015079D02*
X053450Y015079D01*
X053450Y015238D02*
X052410Y015238D01*
X052410Y015396D02*
X053450Y015396D01*
X053450Y015555D02*
X052410Y015555D01*
X052410Y015713D02*
X053450Y015713D01*
X053450Y015872D02*
X052481Y015872D01*
X052540Y016030D02*
X053450Y016030D01*
X053450Y016189D02*
X052525Y016189D01*
X052422Y016347D02*
X053450Y016347D01*
X053450Y016506D02*
X052010Y016506D01*
X052010Y016664D02*
X053450Y016664D01*
X053450Y016823D02*
X052010Y016823D01*
X052010Y016981D02*
X053450Y016981D01*
X053450Y017140D02*
X051946Y017140D01*
X051787Y017298D02*
X053450Y017298D01*
X053450Y017457D02*
X051629Y017457D01*
X051470Y017615D02*
X053450Y017615D01*
X053450Y017774D02*
X051312Y017774D01*
X051153Y017932D02*
X053450Y017932D01*
X053450Y018091D02*
X050995Y018091D01*
X050836Y018249D02*
X053450Y018249D01*
X053450Y018408D02*
X050678Y018408D01*
X050519Y018566D02*
X053450Y018566D01*
X053450Y018725D02*
X050361Y018725D01*
X050202Y018883D02*
X053450Y018883D01*
X053450Y019042D02*
X050044Y019042D01*
X049885Y019200D02*
X053450Y019200D01*
X053450Y019359D02*
X049727Y019359D01*
X049568Y019517D02*
X053358Y019517D01*
X053320Y019676D02*
X049410Y019676D01*
X049251Y019834D02*
X053354Y019834D01*
X053494Y019993D02*
X049093Y019993D01*
X039180Y017774D02*
X039180Y017774D01*
X039180Y017615D02*
X039180Y017615D01*
X039180Y017457D02*
X039180Y017457D01*
X039180Y017298D02*
X039180Y017298D01*
X039180Y017180D02*
X038690Y017180D01*
X038690Y016881D01*
X038702Y016805D01*
X038726Y016732D01*
X038761Y016663D01*
X038806Y016601D01*
X038861Y016546D01*
X038923Y016501D01*
X038992Y016466D01*
X039065Y016442D01*
X039141Y016430D01*
X039180Y016430D01*
X039180Y017180D01*
X039180Y017180D01*
X039180Y017140D02*
X039180Y017140D01*
X039180Y016981D02*
X039180Y016981D01*
X039180Y016823D02*
X039180Y016823D01*
X039180Y016664D02*
X039180Y016664D01*
X039180Y016506D02*
X039180Y016506D01*
X038917Y016506D02*
X038277Y016506D01*
X038264Y016500D02*
X038418Y016564D01*
X038536Y016682D01*
X038600Y016836D01*
X038600Y017524D01*
X038536Y017678D01*
X038418Y017796D01*
X038264Y017860D01*
X038096Y017860D01*
X037942Y017796D01*
X037824Y017678D01*
X037760Y017524D01*
X037760Y016836D01*
X037824Y016682D01*
X037942Y016564D01*
X038096Y016500D01*
X038264Y016500D01*
X038083Y016506D02*
X037410Y016506D01*
X037518Y016664D02*
X037842Y016664D01*
X037766Y016823D02*
X037594Y016823D01*
X037600Y016981D02*
X037760Y016981D01*
X037760Y017140D02*
X037600Y017140D01*
X037600Y017298D02*
X037760Y017298D01*
X037760Y017457D02*
X037600Y017457D01*
X037562Y017615D02*
X037798Y017615D01*
X037920Y017774D02*
X037440Y017774D01*
X038440Y017774D02*
X038821Y017774D01*
X038722Y017615D02*
X038562Y017615D01*
X038600Y017457D02*
X038690Y017457D01*
X038690Y017298D02*
X038600Y017298D01*
X038600Y017140D02*
X038690Y017140D01*
X038690Y016981D02*
X038600Y016981D01*
X038594Y016823D02*
X038699Y016823D01*
X038760Y016664D02*
X038518Y016664D01*
X042170Y014445D02*
X042548Y014445D01*
X042363Y014604D02*
X042329Y014604D01*
X033876Y013970D02*
X033484Y013970D01*
X033600Y013811D02*
X033760Y013811D01*
X033760Y013653D02*
X033600Y013653D01*
X033691Y013494D02*
X033772Y013494D01*
X033850Y013336D02*
X033931Y013336D01*
X032489Y014128D02*
X032410Y014128D01*
X026439Y016823D02*
X026421Y016823D01*
X026421Y016981D02*
X026439Y016981D01*
X026439Y017140D02*
X026421Y017140D01*
X026421Y017298D02*
X026439Y017298D01*
X026439Y017457D02*
X026421Y017457D01*
X026421Y017615D02*
X026439Y017615D01*
X051535Y015555D02*
X051550Y015555D01*
X052410Y013494D02*
X053450Y013494D01*
X053450Y013336D02*
X052410Y013336D01*
X052410Y013177D02*
X053450Y013177D01*
X053450Y013019D02*
X052410Y013019D01*
X052410Y012860D02*
X053450Y012860D01*
X053450Y012702D02*
X052410Y012702D01*
X052410Y012543D02*
X053450Y012543D01*
X053450Y012385D02*
X052410Y012385D01*
X052410Y012226D02*
X053450Y012226D01*
X053450Y012068D02*
X052410Y012068D01*
X052410Y011909D02*
X053450Y011909D01*
X053450Y011751D02*
X052410Y011751D01*
X052410Y011592D02*
X053450Y011592D01*
X053450Y011434D02*
X052410Y011434D01*
D19*
X052180Y011180D02*
X052180Y016080D01*
X051380Y015880D02*
X051380Y016880D01*
X044780Y023480D01*
X044780Y023580D01*
X026380Y023580D01*
X026180Y023380D01*
X026180Y022280D01*
X022980Y019080D01*
X022980Y013880D01*
X023180Y013680D01*
X021580Y014780D02*
X021580Y016580D01*
X019980Y018180D01*
X019930Y018180D01*
X018680Y016980D02*
X018480Y017180D01*
X018430Y017180D01*
X018680Y016980D02*
X018680Y012180D01*
X019480Y011380D01*
X019480Y010180D01*
X019380Y010180D01*
X019480Y010180D02*
X019480Y003880D01*
X019480Y002780D01*
X015780Y002780D01*
X015720Y002700D01*
X013640Y002700D02*
X013580Y002780D01*
X008780Y002780D01*
X008720Y002700D01*
X006640Y002700D02*
X006580Y002780D01*
X001780Y002780D01*
X001720Y002700D01*
X001780Y004580D02*
X001720Y004660D01*
X001780Y004580D02*
X006580Y004580D01*
X006640Y004660D01*
X006680Y004680D01*
X007680Y004680D01*
X007680Y010680D01*
X008680Y010680D01*
X008720Y010660D01*
X009580Y010880D02*
X009580Y009580D01*
X008780Y008780D01*
X008720Y008700D01*
X006640Y008700D02*
X006580Y008780D01*
X005780Y008780D01*
X005780Y010880D01*
X007180Y012280D01*
X007180Y013780D01*
X006680Y014280D01*
X006680Y017580D01*
X009780Y020680D01*
X009780Y023880D01*
X044880Y023880D01*
X051780Y016980D01*
X051780Y007180D01*
X052480Y006480D01*
X051380Y006080D02*
X051380Y008680D01*
X053680Y007580D02*
X053680Y019680D01*
X055680Y019180D02*
X054080Y017580D01*
X054080Y008180D01*
X054080Y007680D01*
X054480Y007280D01*
X054480Y005680D01*
X052980Y004180D01*
X052979Y004109D01*
X052980Y004080D01*
X054180Y002880D01*
X054180Y002180D01*
X054980Y001480D02*
X054480Y000980D01*
X049780Y000980D01*
X049780Y002180D01*
X049380Y000980D02*
X049380Y004080D01*
X051380Y006080D01*
X050680Y006180D02*
X048780Y004280D01*
X048080Y004680D02*
X048680Y005280D01*
X048680Y006180D01*
X047680Y006180D02*
X047680Y004380D01*
X044680Y001380D01*
X041680Y002780D02*
X041640Y002700D01*
X041680Y002780D02*
X042880Y003980D01*
X042880Y009380D01*
X043180Y009680D01*
X042580Y009080D02*
X041680Y009980D01*
X041680Y010580D01*
X041640Y010660D01*
X042280Y009880D02*
X043180Y010780D01*
X044080Y010780D02*
X044080Y019880D01*
X043680Y020280D01*
X043280Y020380D02*
X044080Y021180D01*
X044680Y021180D01*
X044280Y021780D02*
X045280Y021780D01*
X045280Y020780D01*
X044680Y020180D01*
X043280Y020380D02*
X043280Y018580D01*
X043380Y018480D01*
X043380Y015480D01*
X042680Y014780D01*
X042980Y015580D02*
X041680Y014280D01*
X041680Y011780D01*
X037680Y007780D01*
X037680Y002180D01*
X038280Y002180D02*
X038280Y001780D01*
X036480Y001780D01*
X035780Y002480D01*
X035780Y003280D01*
X034880Y003280D01*
X033780Y004380D01*
X033780Y007680D01*
X030380Y011080D01*
X030380Y011280D01*
X028980Y012680D01*
X027880Y014380D02*
X027180Y013680D01*
X026880Y013980D02*
X026680Y013780D01*
X026680Y013580D01*
X026780Y013480D01*
X026780Y009580D01*
X027580Y008780D01*
X027640Y008700D01*
X027680Y008680D01*
X027680Y007780D01*
X030580Y004880D01*
X030580Y001780D01*
X031380Y000980D01*
X032180Y003280D02*
X034780Y000680D01*
X055780Y000680D01*
X055780Y005480D01*
X056280Y005980D01*
X056280Y008580D01*
X055680Y009180D01*
X053280Y010080D02*
X052180Y011180D01*
X054480Y012380D02*
X055680Y011180D01*
X056580Y013280D02*
X056580Y003480D01*
X056180Y003080D01*
X055380Y003480D02*
X054980Y003080D01*
X054980Y001480D01*
X049380Y000980D02*
X034980Y000980D01*
X029680Y006280D01*
X028280Y006680D02*
X026480Y008480D01*
X026480Y013380D01*
X026180Y013680D01*
X026880Y013980D02*
X026880Y018180D01*
X026930Y018180D01*
X025580Y018480D02*
X025480Y018380D01*
X025480Y017180D01*
X025430Y017180D01*
X025480Y017180D01*
X025680Y016980D01*
X025680Y012180D01*
X026180Y011680D01*
X026180Y004180D01*
X027580Y002780D01*
X027640Y002700D01*
X025780Y003680D02*
X023680Y005780D01*
X023680Y016980D01*
X023480Y017180D01*
X023430Y017180D01*
X024930Y018180D02*
X024980Y018180D01*
X025180Y018380D01*
X025180Y019380D01*
X025980Y019780D02*
X030680Y015080D01*
X030680Y011180D01*
X035580Y006280D01*
X035580Y003880D01*
X036680Y002780D01*
X036720Y002700D01*
X038280Y002180D02*
X038880Y002780D01*
X040480Y002780D01*
X040480Y002380D01*
X041640Y004660D02*
X041680Y004680D01*
X041680Y006380D01*
X042480Y007180D01*
X042580Y007280D01*
X042580Y009080D01*
X044080Y010780D02*
X044680Y010180D01*
X045580Y009080D02*
X045580Y021880D01*
X045280Y022180D01*
X041180Y022180D01*
X041180Y018680D01*
X037680Y018680D01*
X037180Y018680D01*
X034180Y018680D01*
X030180Y018680D01*
X030180Y022680D01*
X034180Y022680D01*
X037180Y022680D01*
X033580Y022080D02*
X032180Y020680D01*
X031180Y019680D01*
X031980Y017880D02*
X035180Y017880D01*
X035180Y017180D01*
X036180Y017180D02*
X036180Y015680D01*
X034180Y013680D01*
X033180Y013680D02*
X034680Y012180D01*
X033780Y011680D02*
X033780Y008480D01*
X035980Y006280D01*
X040480Y006680D02*
X041280Y005880D01*
X043280Y007580D02*
X044080Y006780D01*
X044080Y005980D01*
X045880Y004180D01*
X045680Y003780D02*
X045380Y004080D01*
X045680Y003780D02*
X046680Y003780D01*
X046680Y006180D01*
X049080Y005180D02*
X049680Y005780D01*
X049680Y006180D01*
X053680Y007580D02*
X054080Y007180D01*
X045580Y009080D02*
X044680Y008180D01*
X038680Y012180D02*
X037580Y011080D01*
X037580Y009780D01*
X035580Y009680D02*
X034680Y008780D01*
X034640Y008700D01*
X035580Y009680D02*
X035580Y014380D01*
X036780Y015580D01*
X037180Y014680D02*
X037180Y017180D01*
X037680Y018680D02*
X039180Y017180D01*
X040380Y016880D02*
X038680Y015180D01*
X038680Y012180D01*
X042080Y013180D02*
X043280Y013180D01*
X041180Y013680D02*
X041180Y016180D01*
X040780Y016880D02*
X042980Y019080D01*
X042980Y020480D01*
X044280Y021780D01*
X042080Y022580D02*
X041380Y023280D01*
X026480Y023280D01*
X026480Y021280D01*
X025580Y020380D01*
X025580Y018480D01*
X027880Y016780D02*
X027880Y014380D01*
X028180Y015080D02*
X028580Y014680D01*
X028580Y007880D01*
X033180Y003280D01*
X029720Y004660D02*
X029680Y004680D01*
X027680Y004680D01*
X027640Y004660D01*
X027580Y001380D02*
X023880Y005080D01*
X023880Y005180D01*
X023080Y005180D01*
X019780Y008480D01*
X019780Y013080D01*
X019180Y013680D01*
X017180Y013680D02*
X017180Y013880D01*
X015080Y015980D01*
X014380Y015380D02*
X014380Y016780D01*
X020880Y023280D01*
X013180Y022680D02*
X013180Y018680D01*
X009180Y017180D02*
X012180Y014180D01*
X012180Y013580D01*
X012580Y013180D01*
X013680Y013180D01*
X013680Y013680D01*
X012680Y013680D02*
X014380Y015380D01*
X016180Y013680D02*
X017280Y012580D01*
X017280Y007180D01*
X020640Y008700D02*
X020680Y008780D01*
X021580Y009680D01*
X021580Y014780D01*
X018280Y016280D02*
X018280Y016380D01*
X017480Y017180D01*
X017430Y017180D01*
X011680Y013680D02*
X008180Y017180D01*
X007180Y017180D02*
X007180Y016180D01*
X009680Y013680D01*
X008680Y013680D02*
X010280Y012080D01*
X010280Y004180D01*
X008720Y004660D02*
X008680Y004680D01*
X007680Y004680D01*
X012380Y004280D02*
X012380Y011980D01*
X010680Y013680D01*
X008180Y014680D02*
X008180Y012280D01*
X009580Y010880D01*
X007680Y010680D02*
X006680Y010680D01*
X006640Y010660D01*
X005780Y008780D02*
X001780Y008780D01*
X001720Y008700D01*
X002680Y013680D02*
X004180Y015180D01*
X004180Y017180D01*
X005180Y017180D02*
X005180Y014180D01*
X004680Y013680D01*
X006180Y014180D02*
X006180Y017180D01*
X006180Y018680D02*
X006180Y022680D01*
X002180Y022680D01*
X002180Y018680D01*
X007280Y015580D02*
X008180Y014680D01*
X006680Y013680D02*
X006180Y014180D01*
X013640Y010660D02*
X013680Y010680D01*
X015680Y010680D01*
X015720Y010660D01*
X028180Y015080D02*
X028180Y015880D01*
X028280Y015980D01*
X031680Y017580D02*
X031980Y017880D01*
X031680Y017580D02*
X031680Y014180D01*
X031180Y013680D01*
X031680Y013180D02*
X032180Y013680D01*
X032180Y017180D01*
X033180Y017180D02*
X033180Y015080D01*
X032580Y014480D01*
X037180Y014680D02*
X038180Y013680D01*
X040180Y013680D02*
X040780Y014280D01*
X040780Y016880D01*
X041180Y022180D02*
X041180Y022680D01*
X055680Y014180D02*
X056580Y013280D01*
X022720Y004660D02*
X022680Y004680D01*
X020680Y004680D01*
X020640Y004660D01*
X019480Y003880D02*
X020580Y002780D01*
X020640Y002700D01*
X015720Y004660D02*
X015680Y004680D01*
X013680Y004680D01*
X013640Y004660D01*
X009180Y022680D02*
X006180Y022680D01*
D20*
X018280Y016280D03*
X015080Y015980D03*
X021580Y014780D03*
X027880Y016780D03*
X028280Y015980D03*
X032580Y014480D03*
X031680Y013180D03*
X028980Y012680D03*
X033780Y011680D03*
X034680Y012180D03*
X037580Y009780D03*
X042280Y009880D03*
X043180Y009680D03*
X043180Y010780D03*
X043280Y013180D03*
X042080Y013180D03*
X042680Y014780D03*
X042980Y015580D03*
X041180Y016180D03*
X040380Y016880D03*
X036780Y015580D03*
X031180Y019680D03*
X033580Y022080D03*
X025980Y019780D03*
X025180Y019380D03*
X020880Y023280D03*
X007280Y015580D03*
X019380Y010180D03*
X017280Y007180D03*
X012380Y004280D03*
X010280Y004180D03*
X025780Y003680D03*
X027580Y001380D03*
X031380Y000980D03*
X032180Y003280D03*
X033180Y003280D03*
X037680Y002180D03*
X040480Y002380D03*
X044680Y001380D03*
X049780Y002180D03*
X045880Y004180D03*
X045380Y004080D03*
X048080Y004680D03*
X048780Y004280D03*
X049080Y005180D03*
X052480Y006480D03*
X054080Y007180D03*
X054080Y008180D03*
X051380Y008680D03*
X053280Y010080D03*
X054480Y012380D03*
X051380Y015880D03*
X052180Y016080D03*
X053680Y019680D03*
X043680Y020280D03*
X042080Y022580D03*
X043280Y007580D03*
X042480Y007180D03*
X040480Y006680D03*
X041280Y005880D03*
X035980Y006280D03*
X029680Y006280D03*
X028280Y006680D03*
X055380Y003480D03*
X056180Y003080D03*
D21*
X028180Y005680D03*
X008680Y006680D03*
M02*
