G75*
%MOIN*%
%OFA0B0*%
%FSLAX24Y24*%
%IPPOS*%
%LPD*%
%AMOC8*
5,1,8,0,0,1.08239X$1,22.5*
%
%ADD10C,0.0785*%
%ADD11C,0.0790*%
%ADD12OC8,0.0600*%
%ADD13C,0.0845*%
%ADD14C,0.0634*%
%ADD15C,0.1360*%
%ADD16C,0.0600*%
%ADD17C,0.0820*%
%ADD18C,0.0780*%
%ADD19C,0.0880*%
%ADD20C,0.0480*%
%ADD21C,0.0476*%
D10*
X001368Y002700D02*
X002073Y002700D01*
X006288Y002700D02*
X006993Y002700D01*
X008368Y002700D02*
X009073Y002700D01*
X009073Y004660D02*
X008368Y004660D01*
X006993Y004660D02*
X006288Y004660D01*
X002073Y004660D02*
X001368Y004660D01*
X001368Y008700D02*
X002073Y008700D01*
X006288Y008700D02*
X006993Y008700D01*
X008368Y008700D02*
X009073Y008700D01*
X009073Y010660D02*
X008368Y010660D01*
X006993Y010660D02*
X006288Y010660D01*
X002073Y010660D02*
X001368Y010660D01*
X013288Y010660D02*
X013993Y010660D01*
X015368Y010660D02*
X016073Y010660D01*
X020288Y010660D02*
X020993Y010660D01*
X022368Y010660D02*
X023073Y010660D01*
X027288Y010660D02*
X027993Y010660D01*
X029368Y010660D02*
X030073Y010660D01*
X034288Y010660D02*
X034993Y010660D01*
X036368Y010660D02*
X037073Y010660D01*
X041288Y010660D02*
X041993Y010660D01*
X041993Y008700D02*
X041288Y008700D01*
X037073Y008700D02*
X036368Y008700D01*
X034993Y008700D02*
X034288Y008700D01*
X030073Y008700D02*
X029368Y008700D01*
X027993Y008700D02*
X027288Y008700D01*
X023073Y008700D02*
X022368Y008700D01*
X020993Y008700D02*
X020288Y008700D01*
X016073Y008700D02*
X015368Y008700D01*
X013993Y008700D02*
X013288Y008700D01*
X013288Y004660D02*
X013993Y004660D01*
X015368Y004660D02*
X016073Y004660D01*
X020288Y004660D02*
X020993Y004660D01*
X022368Y004660D02*
X023073Y004660D01*
X027288Y004660D02*
X027993Y004660D01*
X029368Y004660D02*
X030073Y004660D01*
X034288Y004660D02*
X034993Y004660D01*
X036368Y004660D02*
X037073Y004660D01*
X041288Y004660D02*
X041993Y004660D01*
X041993Y002700D02*
X041288Y002700D01*
X037073Y002700D02*
X036368Y002700D01*
X034993Y002700D02*
X034288Y002700D01*
X030073Y002700D02*
X029368Y002700D01*
X027993Y002700D02*
X027288Y002700D01*
X023073Y002700D02*
X022368Y002700D01*
X020993Y002700D02*
X020288Y002700D01*
X016073Y002700D02*
X015368Y002700D01*
X013993Y002700D02*
X013288Y002700D01*
D11*
X004180Y001910D03*
X011180Y001910D03*
X018180Y001910D03*
X025180Y001910D03*
X032180Y001910D03*
X039180Y001910D03*
X039180Y005450D03*
X039180Y007910D03*
X032180Y007910D03*
X032180Y005450D03*
X025180Y005450D03*
X025180Y007910D03*
X018180Y007910D03*
X018180Y005450D03*
X011180Y005450D03*
X011180Y007910D03*
X004180Y007910D03*
X004180Y005450D03*
X004180Y011450D03*
X011180Y011450D03*
X018180Y011450D03*
X025180Y011450D03*
X032180Y011450D03*
X039180Y011450D03*
D12*
X038180Y013680D03*
X037180Y013680D03*
X034180Y013680D03*
X033180Y013680D03*
X031180Y013680D03*
X030180Y013680D03*
X027180Y013680D03*
X026180Y013680D03*
X024180Y013680D03*
X023180Y013680D03*
X020180Y013680D03*
X019180Y013680D03*
X017180Y013680D03*
X016180Y013680D03*
X013680Y013680D03*
X012680Y013680D03*
X011680Y013680D03*
X010680Y013680D03*
X009680Y013680D03*
X008680Y013680D03*
X006680Y013680D03*
X005680Y013680D03*
X004680Y013680D03*
X003680Y013680D03*
X002680Y013680D03*
X001680Y013680D03*
X040180Y013680D03*
X041180Y013680D03*
D13*
X041180Y018680D03*
X037180Y018680D03*
X034180Y018680D03*
X030180Y018680D03*
X032180Y020680D03*
X030180Y022680D03*
X034180Y022680D03*
X037180Y022680D03*
X041180Y022680D03*
X039180Y020680D03*
X013180Y018680D03*
X009180Y018680D03*
X006180Y018680D03*
X002180Y018680D03*
X004180Y020680D03*
X002180Y022680D03*
X006180Y022680D03*
X009180Y022680D03*
X013180Y022680D03*
X011180Y020680D03*
D14*
X016930Y018180D03*
X017930Y018180D03*
X018930Y018180D03*
X019930Y018180D03*
X019430Y017180D03*
X018430Y017180D03*
X017430Y017180D03*
X016430Y017180D03*
X023430Y017180D03*
X024430Y017180D03*
X025430Y017180D03*
X026430Y017180D03*
X025930Y018180D03*
X026930Y018180D03*
X024930Y018180D03*
X023930Y018180D03*
D15*
X022930Y020680D03*
X020430Y020680D03*
X015930Y020680D03*
X027430Y020680D03*
D16*
X032180Y017440D02*
X032180Y016920D01*
X033180Y016920D02*
X033180Y017440D01*
X034180Y017440D02*
X034180Y016920D01*
X035180Y016920D02*
X035180Y017440D01*
X036180Y017440D02*
X036180Y016920D01*
X037180Y016920D02*
X037180Y017440D01*
X038180Y017440D02*
X038180Y016920D01*
X039180Y016920D02*
X039180Y017440D01*
X011180Y017440D02*
X011180Y016920D01*
X010180Y016920D02*
X010180Y017440D01*
X009180Y017440D02*
X009180Y016920D01*
X008180Y016920D02*
X008180Y017440D01*
X007180Y017440D02*
X007180Y016920D01*
X006180Y016920D02*
X006180Y017440D01*
X005180Y017440D02*
X005180Y016920D01*
X004180Y016920D02*
X004180Y017440D01*
D17*
X044680Y017180D03*
X044680Y016180D03*
X044680Y015180D03*
X044680Y014180D03*
X044680Y013180D03*
X044680Y012180D03*
X044680Y011180D03*
X044680Y010180D03*
X044680Y009180D03*
X044680Y008180D03*
X044680Y007180D03*
X045680Y007180D03*
X046680Y007180D03*
X047680Y007180D03*
X048680Y007180D03*
X049680Y007180D03*
X050680Y007180D03*
X050680Y006180D03*
X049680Y006180D03*
X048680Y006180D03*
X047680Y006180D03*
X046680Y006180D03*
X045680Y006180D03*
X044680Y006180D03*
X055680Y006180D03*
X055680Y007180D03*
X055680Y008180D03*
X055680Y009180D03*
X055680Y010180D03*
X055680Y011180D03*
X055680Y012180D03*
X055680Y013180D03*
X055680Y014180D03*
X055680Y015180D03*
X055680Y016180D03*
X055680Y017180D03*
X055680Y018180D03*
X055680Y019180D03*
X055680Y020180D03*
X055680Y021180D03*
X044680Y021180D03*
X044680Y020180D03*
X044680Y019180D03*
X044680Y018180D03*
D18*
X052629Y004109D02*
X053329Y004109D01*
X054180Y002530D02*
X054180Y001830D01*
D19*
X051818Y001780D02*
X051818Y002580D01*
D20*
X049780Y002180D03*
X045880Y004180D03*
X045380Y004080D03*
X048080Y004680D03*
X048780Y004280D03*
X049080Y005180D03*
X052480Y006480D03*
X054080Y007180D03*
X054080Y008180D03*
X051380Y008680D03*
X053280Y010080D03*
X054480Y012380D03*
X051380Y015880D03*
X052180Y016080D03*
X053680Y019680D03*
X043680Y020280D03*
X042080Y022580D03*
X033580Y022080D03*
X031180Y019680D03*
X025980Y019780D03*
X025180Y019380D03*
X027880Y016780D03*
X028280Y015980D03*
X032580Y014480D03*
X031680Y013180D03*
X028980Y012680D03*
X033780Y011680D03*
X034680Y012180D03*
X037580Y009780D03*
X042280Y009880D03*
X043180Y009680D03*
X043180Y010780D03*
X043280Y013180D03*
X042080Y013180D03*
X042680Y014780D03*
X042980Y015580D03*
X041180Y016180D03*
X040380Y016880D03*
X036780Y015580D03*
X021580Y014780D03*
X018280Y016280D03*
X015080Y015980D03*
X007280Y015580D03*
X019380Y010180D03*
X017280Y007180D03*
X012380Y004280D03*
X010280Y004180D03*
X025780Y003680D03*
X027580Y001380D03*
X031380Y000980D03*
X032180Y003280D03*
X033180Y003280D03*
X037680Y002180D03*
X040480Y002380D03*
X044680Y001380D03*
X041280Y005880D03*
X040480Y006680D03*
X042480Y007180D03*
X043280Y007580D03*
X035980Y006280D03*
X029680Y006280D03*
X028280Y006680D03*
X055380Y003480D03*
X056180Y003080D03*
X020880Y023280D03*
D21*
X008680Y006680D03*
X028180Y005680D03*
M02*
