%
M48
M72
T01C0.0236
T02C0.0240
T03C0.0320
T04C0.0354
T05C0.0400
T06C0.0470
T07C0.0510
T08C0.0710
T09C0.1280
%
T01
X8680Y6680
X28180Y5680
T02
X29680Y6280
X28280Y6680
X25780Y3680
X27580Y1380
X31380Y980
X32180Y3280
X33180Y3280
X37680Y2180
X40480Y2380
X44680Y1380
X49780Y2180
X45880Y4180
X45380Y4080
X48080Y4680
X48780Y4280
X49080Y5180
X52480Y6480
X54080Y7180
X54080Y8180
X51380Y8680
X53280Y10080
X54480Y12380
X51380Y15880
X52180Y16080
X53680Y19680
X43680Y20280
X42080Y22580
X33580Y22080
X31180Y19680
X25980Y19780
X25180Y19380
X27880Y16780
X28280Y15980
X32580Y14480
X31680Y13180
X28980Y12680
X33780Y11680
X34680Y12180
X37580Y9780
X42280Y9880
X43180Y9680
X43180Y10780
X43280Y13180
X42080Y13180
X42680Y14780
X42980Y15580
X41180Y16180
X40380Y16880
X36780Y15580
X21580Y14780
X18280Y16280
X15080Y15980
X7280Y15580
X19380Y10180
X17280Y7180
X12380Y4280
X10280Y4180
X35980Y6280
X40480Y6680
X41280Y5880
X42480Y7180
X43280Y7580
X55380Y3480
X56180Y3080
X20880Y23280
T03
X11180Y17180
X10180Y17180
X9180Y17180
X8180Y17180
X7180Y17180
X6180Y17180
X5180Y17180
X4180Y17180
X3680Y13680
X2680Y13680
X1680Y13680
X4680Y13680
X5680Y13680
X6680Y13680
X8680Y13680
X9680Y13680
X10680Y13680
X11680Y13680
X12680Y13680
X13680Y13680
X16180Y13680
X17180Y13680
X19180Y13680
X20180Y13680
X23180Y13680
X24180Y13680
X26180Y13680
X27180Y13680
X30180Y13680
X31180Y13680
X33180Y13680
X34180Y13680
X37180Y13680
X38180Y13680
X40180Y13680
X41180Y13680
X39180Y17180
X38180Y17180
X37180Y17180
X36180Y17180
X35180Y17180
X34180Y17180
X33180Y17180
X32180Y17180
X52979Y4109
X51818Y2180
X54180Y2180
T04
X26430Y17180
X25430Y17180
X24430Y17180
X23430Y17180
X23930Y18180
X24930Y18180
X25930Y18180
X26930Y18180
X19930Y18180
X18930Y18180
X17930Y18180
X16930Y18180
X16430Y17180
X17430Y17180
X18430Y17180
X19430Y17180
T05
X44680Y17180
X44680Y16180
X44680Y15180
X44680Y14180
X44680Y13180
X44680Y12180
X44680Y11180
X44680Y10180
X44680Y9180
X44680Y8180
X44680Y7180
X45680Y7180
X46680Y7180
X47680Y7180
X48680Y7180
X49680Y7180
X50680Y7180
X50680Y6180
X49680Y6180
X48680Y6180
X47680Y6180
X46680Y6180
X45680Y6180
X44680Y6180
X55680Y6180
X55680Y7180
X55680Y8180
X55680Y9180
X55680Y10180
X55680Y11180
X55680Y12180
X55680Y13180
X55680Y14180
X55680Y15180
X55680Y16180
X55680Y17180
X55680Y18180
X55680Y19180
X55680Y20180
X55680Y21180
X44680Y21180
X44680Y20180
X44680Y19180
X44680Y18180
T06
X41640Y10660
X41640Y8700
X36720Y8700
X34640Y8700
X34640Y10660
X36720Y10660
X29720Y10660
X27640Y10660
X27640Y8700
X29720Y8700
X22720Y8700
X20640Y8700
X20640Y10660
X22720Y10660
X15720Y10660
X13640Y10660
X13640Y8700
X15720Y8700
X8720Y8700
X6640Y8700
X6640Y10660
X8720Y10660
X1720Y10660
X1720Y8700
X1720Y4660
X1720Y2700
X6640Y2700
X8720Y2700
X8720Y4660
X6640Y4660
X13640Y4660
X15720Y4660
X15720Y2700
X13640Y2700
X20640Y2700
X22720Y2700
X22720Y4660
X20640Y4660
X27640Y4660
X29720Y4660
X29720Y2700
X27640Y2700
X34640Y2700
X36720Y2700
X36720Y4660
X34640Y4660
X41640Y4660
X41640Y2700
T07
X41180Y18680
X37180Y18680
X34180Y18680
X30180Y18680
X32180Y20680
X30180Y22680
X34180Y22680
X37180Y22680
X41180Y22680
X39180Y20680
X13180Y18680
X9180Y18680
X6180Y18680
X2180Y18680
X4180Y20680
X2180Y22680
X6180Y22680
X9180Y22680
X13180Y22680
X11180Y20680
T08
X4180Y1910
X11180Y1910
X18180Y1910
X25180Y1910
X32180Y1910
X39180Y1910
X39180Y5450
X39180Y7910
X32180Y7910
X32180Y5450
X25180Y5450
X25180Y7910
X18180Y7910
X18180Y5450
X11180Y5450
X11180Y7910
X4180Y7910
X4180Y5450
X4180Y11450
X11180Y11450
X18180Y11450
X25180Y11450
X32180Y11450
X39180Y11450
T09
X27430Y20680
X22930Y20680
X20430Y20680
X15930Y20680
M30
