G75*
%MOIN*%
%OFA0B0*%
%FSLAX24Y24*%
%IPPOS*%
%LPD*%
%AMOC8*
5,1,8,0,0,1.08239X$1,22.5*
%
%ADD10C,0.0554*%
%ADD11C,0.0600*%
%ADD12OC8,0.0594*%
%ADD13C,0.0160*%
%ADD14C,0.0140*%
%ADD15C,0.0400*%
%ADD16C,0.2165*%
D10*
X005704Y001930D03*
X004704Y002430D03*
X005704Y002930D03*
X004704Y003430D03*
X005704Y003930D03*
X004704Y004430D03*
X005704Y004930D03*
X004704Y005430D03*
D11*
X005204Y011380D02*
X005204Y011980D01*
X004204Y011980D02*
X004204Y011380D01*
X003204Y011380D02*
X003204Y011980D01*
X002204Y011980D02*
X002204Y011380D01*
X001204Y011380D02*
X001204Y011980D01*
X006204Y011980D02*
X006204Y011380D01*
X007204Y011380D02*
X007204Y011980D01*
X008204Y011980D02*
X008204Y011380D01*
D12*
X013354Y011180D03*
X013354Y012180D03*
X013354Y010180D03*
X013354Y007680D03*
X013354Y006680D03*
X013354Y005680D03*
X013354Y003180D03*
X013354Y002180D03*
X013354Y001180D03*
D13*
X000684Y000660D02*
X000684Y002950D01*
X002609Y002950D01*
X003474Y002085D01*
X003474Y001085D01*
X003609Y000950D01*
X012299Y000950D01*
X013118Y001769D01*
X013165Y001723D01*
X013543Y001723D01*
X013811Y001991D01*
X013811Y002369D01*
X013543Y002637D01*
X013165Y002637D01*
X012897Y002369D01*
X012897Y002198D01*
X012109Y001410D01*
X003934Y001410D01*
X003934Y002085D01*
X004267Y002418D01*
X004267Y002343D01*
X004333Y002182D01*
X004456Y002059D01*
X004617Y001993D01*
X004791Y001993D01*
X004951Y002059D01*
X005074Y002182D01*
X005141Y002343D01*
X005141Y002517D01*
X005074Y002678D01*
X004951Y002801D01*
X004791Y002867D01*
X004716Y002867D01*
X004799Y002950D01*
X004878Y003029D01*
X004951Y003059D01*
X005074Y003182D01*
X005141Y003343D01*
X005141Y003517D01*
X005074Y003678D01*
X004951Y003801D01*
X004791Y003867D01*
X004617Y003867D01*
X004456Y003801D01*
X004333Y003678D01*
X004267Y003517D01*
X004267Y003343D01*
X004333Y003182D01*
X004357Y003159D01*
X003704Y002505D01*
X002799Y003410D01*
X000934Y003410D01*
X000934Y007585D01*
X003474Y010125D01*
X003474Y005585D01*
X003609Y005450D01*
X004357Y004701D01*
X004333Y004678D01*
X004267Y004517D01*
X004267Y004343D01*
X004333Y004182D01*
X004456Y004059D01*
X004617Y003993D01*
X004791Y003993D01*
X004951Y004059D01*
X005074Y004182D01*
X005141Y004343D01*
X005141Y004517D01*
X005074Y004678D01*
X004951Y004801D01*
X004878Y004831D01*
X004799Y004910D01*
X004716Y004993D01*
X004791Y004993D01*
X004951Y005059D01*
X005074Y005182D01*
X005141Y005343D01*
X005141Y005517D01*
X005074Y005678D01*
X004951Y005801D01*
X004791Y005867D01*
X004617Y005867D01*
X004456Y005801D01*
X004333Y005678D01*
X004267Y005517D01*
X004267Y005442D01*
X003934Y005775D01*
X003934Y009950D01*
X005299Y009950D01*
X005799Y010450D01*
X012799Y010450D01*
X012934Y010585D01*
X013118Y010769D01*
X013165Y010723D01*
X013543Y010723D01*
X013811Y010991D01*
X013811Y011369D01*
X013543Y011637D01*
X013165Y011637D01*
X012897Y011369D01*
X012897Y011198D01*
X012609Y010910D01*
X006259Y010910D01*
X006269Y010920D01*
X006295Y010920D01*
X006464Y010990D01*
X006594Y011119D01*
X006664Y011288D01*
X006664Y012071D01*
X006594Y012241D01*
X006464Y012370D01*
X006295Y012440D01*
X006112Y012440D01*
X005943Y012370D01*
X005814Y012241D01*
X005744Y012071D01*
X005744Y011288D01*
X005814Y011119D01*
X005816Y011117D01*
X005609Y010910D01*
X005609Y010910D01*
X005474Y010775D01*
X005109Y010410D01*
X003759Y010410D01*
X003799Y010450D01*
X004299Y010450D01*
X004434Y010585D01*
X004434Y010977D01*
X004464Y010990D01*
X004594Y011119D01*
X004664Y011288D01*
X004664Y012071D01*
X004594Y012241D01*
X004464Y012370D01*
X004295Y012440D01*
X004112Y012440D01*
X003943Y012370D01*
X003814Y012241D01*
X003744Y012071D01*
X003744Y011288D01*
X003814Y011119D01*
X003943Y010990D01*
X003974Y010977D01*
X003974Y010910D01*
X003609Y010910D01*
X000684Y007985D01*
X000684Y012696D01*
X016844Y012696D01*
X016844Y000660D01*
X003018Y000660D01*
X003100Y000742D01*
X003247Y000998D01*
X003324Y001283D01*
X003324Y001577D01*
X003247Y001862D01*
X003100Y002118D01*
X002891Y002326D01*
X002636Y002474D01*
X002351Y002550D01*
X002056Y002550D01*
X001771Y002474D01*
X001516Y002326D01*
X001308Y002118D01*
X001160Y001862D01*
X001084Y001577D01*
X001084Y001283D01*
X001160Y000998D01*
X001308Y000742D01*
X001390Y000660D01*
X000684Y000660D01*
X000684Y000814D02*
X001266Y000814D01*
X001175Y000973D02*
X000684Y000973D01*
X000684Y001131D02*
X001124Y001131D01*
X001084Y001290D02*
X000684Y001290D01*
X000684Y001448D02*
X001084Y001448D01*
X001092Y001607D02*
X000684Y001607D01*
X000684Y001765D02*
X001134Y001765D01*
X001195Y001924D02*
X000684Y001924D01*
X000684Y002082D02*
X001287Y002082D01*
X001430Y002241D02*
X000684Y002241D01*
X000684Y002399D02*
X001642Y002399D01*
X002765Y002399D02*
X003160Y002399D01*
X003318Y002241D02*
X002977Y002241D01*
X003121Y002082D02*
X003474Y002082D01*
X003474Y001924D02*
X003212Y001924D01*
X003274Y001765D02*
X003474Y001765D01*
X003934Y001765D02*
X005299Y001765D01*
X005267Y001843D02*
X005333Y001682D01*
X005456Y001559D01*
X005617Y001493D01*
X005791Y001493D01*
X005951Y001559D01*
X006074Y001682D01*
X006141Y001843D01*
X006141Y002017D01*
X006074Y002178D01*
X006051Y002201D01*
X006299Y002450D01*
X012799Y002450D01*
X013118Y002769D01*
X013165Y002723D01*
X013543Y002723D01*
X013811Y002991D01*
X013811Y003369D01*
X013543Y003637D01*
X013165Y003637D01*
X012897Y003369D01*
X012897Y003198D01*
X012609Y002910D01*
X006141Y002910D01*
X006141Y003017D01*
X006074Y003178D01*
X006051Y003201D01*
X008299Y005450D01*
X012938Y005450D01*
X013165Y005223D01*
X013543Y005223D01*
X013811Y005491D01*
X013811Y005869D01*
X013543Y006137D01*
X013165Y006137D01*
X012938Y005910D01*
X008109Y005910D01*
X007974Y005775D01*
X006141Y003942D01*
X006141Y004017D01*
X006074Y004178D01*
X005951Y004301D01*
X005950Y004301D02*
X006500Y004301D01*
X006658Y004460D02*
X005141Y004460D01*
X005124Y004301D02*
X005457Y004301D01*
X005456Y004301D02*
X005333Y004178D01*
X005267Y004017D01*
X005267Y003843D01*
X005333Y003682D01*
X005456Y003559D01*
X005617Y003493D01*
X005691Y003493D01*
X005609Y003410D01*
X005530Y003331D01*
X005456Y003301D01*
X005333Y003178D01*
X005267Y003017D01*
X005267Y002843D01*
X005333Y002682D01*
X005456Y002559D01*
X005617Y002493D01*
X005691Y002493D01*
X005609Y002410D01*
X005530Y002331D01*
X005456Y002301D01*
X005333Y002178D01*
X005267Y002017D01*
X005267Y001843D01*
X005267Y001924D02*
X003934Y001924D01*
X003934Y002082D02*
X004434Y002082D01*
X004309Y002241D02*
X004090Y002241D01*
X004248Y002399D02*
X004267Y002399D01*
X003756Y002558D02*
X003652Y002558D01*
X003493Y002716D02*
X003915Y002716D01*
X004073Y002875D02*
X003335Y002875D01*
X003176Y003033D02*
X004232Y003033D01*
X004329Y003192D02*
X003018Y003192D01*
X002859Y003350D02*
X004267Y003350D01*
X004267Y003509D02*
X000934Y003509D01*
X000934Y003667D02*
X004329Y003667D01*
X004516Y003826D02*
X000934Y003826D01*
X000934Y003984D02*
X005267Y003984D01*
X005274Y003826D02*
X004891Y003826D01*
X005079Y003667D02*
X005349Y003667D01*
X005141Y003509D02*
X005579Y003509D01*
X005549Y003350D02*
X005141Y003350D01*
X005078Y003192D02*
X005347Y003192D01*
X005273Y003033D02*
X004888Y003033D01*
X004724Y002875D02*
X005267Y002875D01*
X005319Y002716D02*
X005036Y002716D01*
X005124Y002558D02*
X005461Y002558D01*
X005598Y002399D02*
X005141Y002399D01*
X005098Y002241D02*
X005396Y002241D01*
X005294Y002082D02*
X004974Y002082D01*
X006090Y002241D02*
X012897Y002241D01*
X012927Y002399D02*
X006248Y002399D01*
X006114Y002082D02*
X012781Y002082D01*
X012622Y001924D02*
X006141Y001924D01*
X006109Y001765D02*
X012464Y001765D01*
X012305Y001607D02*
X005999Y001607D01*
X005409Y001607D02*
X003934Y001607D01*
X003934Y001448D02*
X012147Y001448D01*
X012639Y001290D02*
X012897Y001290D01*
X012897Y001369D02*
X012897Y000991D01*
X013165Y000723D01*
X013543Y000723D01*
X013811Y000991D01*
X013811Y001369D01*
X013543Y001637D01*
X013165Y001637D01*
X012897Y001369D01*
X012976Y001448D02*
X012797Y001448D01*
X012956Y001607D02*
X013134Y001607D01*
X013573Y001607D02*
X016844Y001607D01*
X016844Y001448D02*
X013732Y001448D01*
X013811Y001290D02*
X016844Y001290D01*
X016844Y001131D02*
X013811Y001131D01*
X013792Y000973D02*
X016844Y000973D01*
X016844Y000814D02*
X013634Y000814D01*
X013074Y000814D02*
X003141Y000814D01*
X003233Y000973D02*
X003586Y000973D01*
X003474Y001131D02*
X003283Y001131D01*
X003324Y001290D02*
X003474Y001290D01*
X003474Y001448D02*
X003324Y001448D01*
X003316Y001607D02*
X003474Y001607D01*
X003001Y002558D02*
X000684Y002558D01*
X000684Y002716D02*
X002843Y002716D01*
X002684Y002875D02*
X000684Y002875D01*
X000934Y004143D02*
X004373Y004143D01*
X004284Y004301D02*
X000934Y004301D01*
X000934Y004460D02*
X004267Y004460D01*
X004308Y004618D02*
X000934Y004618D01*
X000934Y004777D02*
X004282Y004777D01*
X004124Y004935D02*
X002720Y004935D01*
X002636Y004886D02*
X002891Y005034D01*
X003100Y005242D01*
X003247Y005498D01*
X003324Y005783D01*
X003324Y006077D01*
X003247Y006362D01*
X003100Y006618D01*
X002891Y006826D01*
X002636Y006974D01*
X002351Y007050D01*
X002056Y007050D01*
X001771Y006974D01*
X001516Y006826D01*
X001308Y006618D01*
X001160Y006362D01*
X001084Y006077D01*
X001084Y005783D01*
X001160Y005498D01*
X001308Y005242D01*
X001516Y005034D01*
X001771Y004886D01*
X002056Y004810D01*
X002351Y004810D01*
X002636Y004886D01*
X002951Y005094D02*
X003965Y005094D01*
X003807Y005252D02*
X003106Y005252D01*
X003197Y005411D02*
X003648Y005411D01*
X003490Y005569D02*
X003267Y005569D01*
X003309Y005728D02*
X003474Y005728D01*
X003474Y005886D02*
X003324Y005886D01*
X003934Y005886D02*
X008085Y005886D01*
X007926Y005728D02*
X005025Y005728D01*
X005119Y005569D02*
X007768Y005569D01*
X007609Y005411D02*
X005141Y005411D01*
X005103Y005252D02*
X005379Y005252D01*
X005355Y005228D02*
X005406Y005279D01*
X005464Y005321D01*
X005528Y005354D01*
X005597Y005376D01*
X005668Y005387D01*
X005695Y005387D01*
X005695Y004939D01*
X005712Y004939D01*
X005712Y005387D01*
X005740Y005387D01*
X005811Y005376D01*
X005879Y005354D01*
X005943Y005321D01*
X006002Y005279D01*
X006052Y005228D01*
X006095Y005170D01*
X006127Y005105D01*
X006150Y005037D01*
X006161Y004966D01*
X006161Y004939D01*
X005712Y004939D01*
X005712Y004921D01*
X005712Y004473D01*
X005740Y004473D01*
X005811Y004484D01*
X005879Y004506D01*
X005943Y004539D01*
X006002Y004581D01*
X006052Y004632D01*
X006095Y004690D01*
X006127Y004755D01*
X006150Y004823D01*
X006161Y004894D01*
X006161Y004921D01*
X005712Y004921D01*
X005695Y004921D01*
X005695Y004473D01*
X005668Y004473D01*
X005597Y004484D01*
X005528Y004506D01*
X005464Y004539D01*
X005406Y004581D01*
X005355Y004632D01*
X005313Y004690D01*
X005280Y004755D01*
X005258Y004823D01*
X005247Y004894D01*
X005247Y004921D01*
X005695Y004921D01*
X005695Y004939D01*
X005247Y004939D01*
X005247Y004966D01*
X005258Y005037D01*
X005280Y005105D01*
X005313Y005170D01*
X005355Y005228D01*
X005276Y005094D02*
X004986Y005094D01*
X004799Y004910D02*
X004799Y004910D01*
X004774Y004935D02*
X005695Y004935D01*
X005712Y004935D02*
X007134Y004935D01*
X007292Y005094D02*
X006131Y005094D01*
X006028Y005252D02*
X007451Y005252D01*
X008101Y005252D02*
X009575Y005252D01*
X009441Y005174D02*
X009724Y005338D01*
X010040Y005423D01*
X010367Y005423D01*
X010683Y005338D01*
X010967Y005174D01*
X011198Y004943D01*
X011362Y004660D01*
X011446Y004344D01*
X011446Y004016D01*
X011362Y003700D01*
X011198Y003417D01*
X010967Y003186D01*
X010683Y003022D01*
X010367Y002937D01*
X010040Y002937D01*
X009724Y003022D01*
X009441Y003186D01*
X009209Y003417D01*
X009046Y003700D01*
X008961Y004016D01*
X008961Y004344D01*
X009046Y004660D01*
X009209Y004943D01*
X009441Y005174D01*
X009360Y005094D02*
X007943Y005094D01*
X007784Y004935D02*
X009205Y004935D01*
X009113Y004777D02*
X007626Y004777D01*
X007467Y004618D02*
X009035Y004618D01*
X008992Y004460D02*
X007309Y004460D01*
X007150Y004301D02*
X008961Y004301D01*
X008961Y004143D02*
X006992Y004143D01*
X006833Y003984D02*
X008970Y003984D01*
X009012Y003826D02*
X006675Y003826D01*
X006516Y003667D02*
X009065Y003667D01*
X009157Y003509D02*
X006358Y003509D01*
X006199Y003350D02*
X009276Y003350D01*
X009435Y003192D02*
X006061Y003192D01*
X006134Y003033D02*
X009705Y003033D01*
X010702Y003033D02*
X012732Y003033D01*
X012890Y003192D02*
X010973Y003192D01*
X011131Y003350D02*
X012897Y003350D01*
X013036Y003509D02*
X011251Y003509D01*
X011343Y003667D02*
X016844Y003667D01*
X016844Y003509D02*
X013671Y003509D01*
X013811Y003350D02*
X016844Y003350D01*
X016844Y003192D02*
X013811Y003192D01*
X013811Y003033D02*
X016844Y003033D01*
X016844Y002875D02*
X013694Y002875D01*
X013065Y002716D02*
X016844Y002716D01*
X016844Y002558D02*
X013622Y002558D01*
X013085Y002558D02*
X012907Y002558D01*
X013781Y002399D02*
X016844Y002399D01*
X016844Y002241D02*
X013811Y002241D01*
X013811Y002082D02*
X016844Y002082D01*
X016844Y001924D02*
X013743Y001924D01*
X013585Y001765D02*
X016844Y001765D01*
X013123Y001765D02*
X013114Y001765D01*
X012897Y001131D02*
X012480Y001131D01*
X012322Y000973D02*
X012915Y000973D01*
X011395Y003826D02*
X016844Y003826D01*
X016844Y003984D02*
X011438Y003984D01*
X011446Y004143D02*
X016844Y004143D01*
X016844Y004301D02*
X011446Y004301D01*
X011415Y004460D02*
X016844Y004460D01*
X016844Y004618D02*
X011373Y004618D01*
X011294Y004777D02*
X016844Y004777D01*
X016844Y004935D02*
X011203Y004935D01*
X011048Y005094D02*
X016844Y005094D01*
X016844Y005252D02*
X013572Y005252D01*
X013730Y005411D02*
X016844Y005411D01*
X016844Y005569D02*
X013811Y005569D01*
X013811Y005728D02*
X016844Y005728D01*
X016844Y005886D02*
X013794Y005886D01*
X013635Y006045D02*
X016844Y006045D01*
X016844Y006203D02*
X003934Y006203D01*
X003934Y006045D02*
X013072Y006045D01*
X013165Y006223D02*
X013543Y006223D01*
X013811Y006491D01*
X013811Y006869D01*
X013543Y007137D01*
X013165Y007137D01*
X013118Y007091D01*
X012934Y007275D01*
X012799Y007410D01*
X009483Y007410D01*
X009408Y007485D01*
X009275Y007540D01*
X009132Y007540D01*
X009000Y007485D01*
X008899Y007384D01*
X008844Y007252D01*
X008844Y007108D01*
X008899Y006976D01*
X009000Y006875D01*
X009132Y006820D01*
X009275Y006820D01*
X009408Y006875D01*
X009483Y006950D01*
X012609Y006950D01*
X012897Y006662D01*
X012897Y006491D01*
X013165Y006223D01*
X013026Y006362D02*
X003934Y006362D01*
X003934Y006520D02*
X012897Y006520D01*
X012880Y006679D02*
X003934Y006679D01*
X003934Y006837D02*
X009091Y006837D01*
X009316Y006837D02*
X012721Y006837D01*
X013684Y006996D02*
X016844Y006996D01*
X016844Y007154D02*
X013055Y007154D01*
X013165Y007223D02*
X013543Y007223D01*
X013811Y007491D01*
X013811Y007869D01*
X013543Y008137D01*
X013165Y008137D01*
X012897Y007869D01*
X012897Y007491D01*
X013165Y007223D01*
X013075Y007313D02*
X012897Y007313D01*
X012917Y007471D02*
X009422Y007471D01*
X008986Y007471D02*
X003934Y007471D01*
X003934Y007313D02*
X008869Y007313D01*
X008844Y007154D02*
X003934Y007154D01*
X003934Y006996D02*
X008891Y006996D01*
X009441Y008186D02*
X009724Y008022D01*
X010040Y007937D01*
X010367Y007937D01*
X010683Y008022D01*
X010967Y008186D01*
X011198Y008417D01*
X011362Y008700D01*
X011446Y009016D01*
X011446Y009344D01*
X011362Y009660D01*
X011198Y009943D01*
X010967Y010174D01*
X010683Y010338D01*
X010367Y010423D01*
X010040Y010423D01*
X009724Y010338D01*
X009441Y010174D01*
X009209Y009943D01*
X009046Y009660D01*
X008961Y009344D01*
X008961Y009016D01*
X009046Y008700D01*
X009209Y008417D01*
X009441Y008186D01*
X009363Y008264D02*
X003934Y008264D01*
X003934Y008422D02*
X009206Y008422D01*
X009115Y008581D02*
X003934Y008581D01*
X003474Y008581D02*
X001930Y008581D01*
X001771Y008422D02*
X003474Y008422D01*
X003474Y008264D02*
X001613Y008264D01*
X001454Y008105D02*
X003474Y008105D01*
X003474Y007947D02*
X001296Y007947D01*
X001137Y007788D02*
X003474Y007788D01*
X003934Y007788D02*
X012897Y007788D01*
X012974Y007947D02*
X010402Y007947D01*
X010006Y007947D02*
X003934Y007947D01*
X003934Y008105D02*
X009580Y008105D01*
X010827Y008105D02*
X013133Y008105D01*
X013575Y008105D02*
X016844Y008105D01*
X016844Y007947D02*
X013733Y007947D01*
X013811Y007788D02*
X016844Y007788D01*
X016844Y007630D02*
X013811Y007630D01*
X013791Y007471D02*
X016844Y007471D01*
X016844Y007313D02*
X013632Y007313D01*
X012897Y007630D02*
X003934Y007630D01*
X003474Y007630D02*
X000979Y007630D01*
X000934Y007471D02*
X003474Y007471D01*
X003474Y007313D02*
X000934Y007313D01*
X000934Y007154D02*
X003474Y007154D01*
X003474Y006996D02*
X002555Y006996D01*
X002873Y006837D02*
X003474Y006837D01*
X003474Y006679D02*
X003039Y006679D01*
X003156Y006520D02*
X003474Y006520D01*
X003474Y006362D02*
X003248Y006362D01*
X003290Y006203D02*
X003474Y006203D01*
X003474Y006045D02*
X003324Y006045D01*
X003982Y005728D02*
X004383Y005728D01*
X004288Y005569D02*
X004140Y005569D01*
X005695Y005252D02*
X005712Y005252D01*
X005695Y005094D02*
X005712Y005094D01*
X005695Y004777D02*
X005712Y004777D01*
X005695Y004618D02*
X005712Y004618D01*
X006038Y004618D02*
X006817Y004618D01*
X006975Y004777D02*
X006135Y004777D01*
X005369Y004618D02*
X005099Y004618D01*
X004976Y004777D02*
X005273Y004777D01*
X005456Y004301D02*
X005617Y004367D01*
X005791Y004367D01*
X005951Y004301D01*
X006089Y004143D02*
X006341Y004143D01*
X006183Y003984D02*
X006141Y003984D01*
X005319Y004143D02*
X005035Y004143D01*
X001687Y004935D02*
X000934Y004935D01*
X000934Y005094D02*
X001456Y005094D01*
X001302Y005252D02*
X000934Y005252D01*
X000934Y005411D02*
X001210Y005411D01*
X001141Y005569D02*
X000934Y005569D01*
X000934Y005728D02*
X001099Y005728D01*
X001084Y005886D02*
X000934Y005886D01*
X000934Y006045D02*
X001084Y006045D01*
X001117Y006203D02*
X000934Y006203D01*
X000934Y006362D02*
X001160Y006362D01*
X001251Y006520D02*
X000934Y006520D01*
X000934Y006679D02*
X001368Y006679D01*
X001535Y006837D02*
X000934Y006837D01*
X000934Y006996D02*
X001853Y006996D01*
X000804Y008105D02*
X000684Y008105D01*
X000684Y008264D02*
X000962Y008264D01*
X001121Y008422D02*
X000684Y008422D01*
X000684Y008581D02*
X001279Y008581D01*
X001438Y008739D02*
X000684Y008739D01*
X000684Y008898D02*
X001596Y008898D01*
X001755Y009056D02*
X000684Y009056D01*
X000684Y009215D02*
X001913Y009215D01*
X002072Y009373D02*
X000684Y009373D01*
X000684Y009532D02*
X002230Y009532D01*
X002389Y009690D02*
X000684Y009690D01*
X000684Y009849D02*
X002547Y009849D01*
X002706Y010007D02*
X000684Y010007D01*
X000684Y010166D02*
X002864Y010166D01*
X003023Y010324D02*
X000684Y010324D01*
X000684Y010483D02*
X003181Y010483D01*
X003340Y010641D02*
X000684Y010641D01*
X000684Y010800D02*
X003498Y010800D01*
X003464Y010990D02*
X003594Y011119D01*
X003664Y011288D01*
X003664Y012071D01*
X003594Y012241D01*
X003464Y012370D01*
X003295Y012440D01*
X003112Y012440D01*
X002943Y012370D01*
X002814Y012241D01*
X002744Y012071D01*
X002744Y011288D01*
X002814Y011119D01*
X002943Y010990D01*
X003112Y010920D01*
X003295Y010920D01*
X003464Y010990D01*
X003387Y010958D02*
X003974Y010958D01*
X003817Y011117D02*
X003591Y011117D01*
X003020Y010958D02*
X002387Y010958D01*
X002464Y010990D02*
X002295Y010920D01*
X002112Y010920D01*
X001943Y010990D01*
X001814Y011119D01*
X001744Y011288D01*
X001744Y012071D01*
X001814Y012241D01*
X001943Y012370D01*
X002112Y012440D01*
X002295Y012440D01*
X002464Y012370D01*
X002594Y012241D01*
X002664Y012071D01*
X002664Y011288D01*
X002594Y011119D01*
X002464Y010990D01*
X002591Y011117D02*
X002817Y011117D01*
X002749Y011275D02*
X002658Y011275D01*
X002664Y011434D02*
X002744Y011434D01*
X002744Y011592D02*
X002664Y011592D01*
X002664Y011751D02*
X002744Y011751D01*
X002744Y011909D02*
X002664Y011909D01*
X002664Y012068D02*
X002744Y012068D01*
X002808Y012226D02*
X002600Y012226D01*
X002429Y012385D02*
X002978Y012385D01*
X003429Y012385D02*
X003978Y012385D01*
X003808Y012226D02*
X003600Y012226D01*
X003664Y012068D02*
X003744Y012068D01*
X003744Y011909D02*
X003664Y011909D01*
X003664Y011751D02*
X003744Y011751D01*
X003744Y011592D02*
X003664Y011592D01*
X003664Y011434D02*
X003744Y011434D01*
X003749Y011275D02*
X003658Y011275D01*
X004434Y010958D02*
X005020Y010958D01*
X004943Y010990D02*
X005112Y010920D01*
X005295Y010920D01*
X005464Y010990D01*
X005594Y011119D01*
X005664Y011288D01*
X005664Y012071D01*
X005594Y012241D01*
X005464Y012370D01*
X005295Y012440D01*
X005112Y012440D01*
X004943Y012370D01*
X004814Y012241D01*
X004744Y012071D01*
X004744Y011288D01*
X004814Y011119D01*
X004943Y010990D01*
X004817Y011117D02*
X004591Y011117D01*
X004658Y011275D02*
X004749Y011275D01*
X004744Y011434D02*
X004664Y011434D01*
X004664Y011592D02*
X004744Y011592D01*
X004744Y011751D02*
X004664Y011751D01*
X004664Y011909D02*
X004744Y011909D01*
X004744Y012068D02*
X004664Y012068D01*
X004600Y012226D02*
X004808Y012226D01*
X004978Y012385D02*
X004429Y012385D01*
X005429Y012385D02*
X005978Y012385D01*
X005808Y012226D02*
X005600Y012226D01*
X005664Y012068D02*
X005744Y012068D01*
X005744Y011909D02*
X005664Y011909D01*
X005664Y011751D02*
X005744Y011751D01*
X005744Y011592D02*
X005664Y011592D01*
X005664Y011434D02*
X005744Y011434D01*
X005749Y011275D02*
X005658Y011275D01*
X005591Y011117D02*
X005815Y011117D01*
X005657Y010958D02*
X005387Y010958D01*
X005498Y010800D02*
X004434Y010800D01*
X004434Y010641D02*
X005340Y010641D01*
X005474Y010775D02*
X005474Y010775D01*
X005181Y010483D02*
X004332Y010483D01*
X005515Y010166D02*
X009432Y010166D01*
X009273Y010007D02*
X005356Y010007D01*
X005673Y010324D02*
X009700Y010324D01*
X009155Y009849D02*
X003934Y009849D01*
X003934Y009690D02*
X009063Y009690D01*
X009011Y009532D02*
X003934Y009532D01*
X003474Y009532D02*
X002881Y009532D01*
X003039Y009690D02*
X003474Y009690D01*
X003474Y009849D02*
X003198Y009849D01*
X003356Y010007D02*
X003474Y010007D01*
X003474Y009373D02*
X002722Y009373D01*
X002564Y009215D02*
X003474Y009215D01*
X003474Y009056D02*
X002405Y009056D01*
X002247Y008898D02*
X003474Y008898D01*
X003474Y008739D02*
X002088Y008739D01*
X003934Y008739D02*
X009035Y008739D01*
X008993Y008898D02*
X003934Y008898D01*
X003934Y009056D02*
X008961Y009056D01*
X008961Y009215D02*
X003934Y009215D01*
X003934Y009373D02*
X008969Y009373D01*
X010976Y010166D02*
X012897Y010166D01*
X012897Y010324D02*
X010708Y010324D01*
X011134Y010007D02*
X012897Y010007D01*
X012897Y009991D02*
X013165Y009723D01*
X013543Y009723D01*
X013811Y009991D01*
X013811Y010369D01*
X013543Y010637D01*
X013165Y010637D01*
X012897Y010369D01*
X012897Y009991D01*
X013039Y009849D02*
X011253Y009849D01*
X011344Y009690D02*
X016844Y009690D01*
X016844Y009532D02*
X011396Y009532D01*
X011439Y009373D02*
X016844Y009373D01*
X016844Y009215D02*
X011446Y009215D01*
X011446Y009056D02*
X016844Y009056D01*
X016844Y008898D02*
X011415Y008898D01*
X011372Y008739D02*
X016844Y008739D01*
X016844Y008581D02*
X011293Y008581D01*
X011201Y008422D02*
X016844Y008422D01*
X016844Y008264D02*
X011045Y008264D01*
X013811Y006837D02*
X016844Y006837D01*
X016844Y006679D02*
X013811Y006679D01*
X013811Y006520D02*
X016844Y006520D01*
X016844Y006362D02*
X013681Y006362D01*
X012977Y005411D02*
X010413Y005411D01*
X009995Y005411D02*
X008260Y005411D01*
X010832Y005252D02*
X013136Y005252D01*
X013668Y009849D02*
X016844Y009849D01*
X016844Y010007D02*
X013811Y010007D01*
X013811Y010166D02*
X016844Y010166D01*
X016844Y010324D02*
X013811Y010324D01*
X013697Y010483D02*
X016844Y010483D01*
X016844Y010641D02*
X012990Y010641D01*
X013010Y010483D02*
X012832Y010483D01*
X013619Y010800D02*
X016844Y010800D01*
X016844Y010958D02*
X013778Y010958D01*
X013811Y011117D02*
X016844Y011117D01*
X016844Y011275D02*
X013811Y011275D01*
X013746Y011434D02*
X016844Y011434D01*
X016844Y011592D02*
X013588Y011592D01*
X013543Y011723D02*
X013165Y011723D01*
X012897Y011991D01*
X012897Y012369D01*
X013165Y012637D01*
X013543Y012637D01*
X013811Y012369D01*
X013811Y011991D01*
X013543Y011723D01*
X013570Y011751D02*
X016844Y011751D01*
X016844Y011909D02*
X013729Y011909D01*
X013811Y012068D02*
X016844Y012068D01*
X016844Y012226D02*
X013811Y012226D01*
X013795Y012385D02*
X016844Y012385D01*
X016844Y012543D02*
X013637Y012543D01*
X013071Y012543D02*
X000684Y012543D01*
X000684Y012385D02*
X000944Y012385D01*
X000952Y012391D02*
X000891Y012346D01*
X000838Y012293D01*
X000793Y012232D01*
X000759Y012164D01*
X000736Y012092D01*
X000724Y012018D01*
X000724Y011700D01*
X001184Y011700D01*
X001184Y012460D01*
X001166Y012460D01*
X001091Y012448D01*
X001020Y012425D01*
X000952Y012391D01*
X000790Y012226D02*
X000684Y012226D01*
X001184Y012226D02*
X001224Y012226D01*
X001224Y012385D02*
X001184Y012385D01*
X001224Y012460D02*
X001224Y011700D01*
X001684Y011700D01*
X001684Y012018D01*
X001672Y012092D01*
X001649Y012164D01*
X001614Y012232D01*
X001570Y012293D01*
X001516Y012346D01*
X001455Y012391D01*
X001388Y012425D01*
X001316Y012448D01*
X001242Y012460D01*
X001224Y012460D01*
X001464Y012385D02*
X001978Y012385D01*
X001808Y012226D02*
X001617Y012226D01*
X001676Y012068D02*
X001744Y012068D01*
X001744Y011909D02*
X001684Y011909D01*
X001684Y011751D02*
X001744Y011751D01*
X001684Y011660D02*
X001224Y011660D01*
X001224Y011700D01*
X001184Y011700D01*
X001184Y011660D01*
X001224Y011660D01*
X001224Y010900D01*
X001242Y010900D01*
X001316Y010912D01*
X001388Y010935D01*
X001455Y010969D01*
X001516Y011014D01*
X001570Y011067D01*
X001614Y011128D01*
X001649Y011196D01*
X001672Y011268D01*
X001684Y011342D01*
X001684Y011660D01*
X001684Y011592D02*
X001744Y011592D01*
X001744Y011434D02*
X001684Y011434D01*
X001673Y011275D02*
X001749Y011275D01*
X001817Y011117D02*
X001606Y011117D01*
X001433Y010958D02*
X002020Y010958D01*
X001224Y010958D02*
X001184Y010958D01*
X001184Y010900D02*
X001184Y011660D01*
X000724Y011660D01*
X000724Y011342D01*
X000736Y011268D01*
X000759Y011196D01*
X000793Y011128D01*
X000838Y011067D01*
X000891Y011014D01*
X000952Y010969D01*
X001020Y010935D01*
X001091Y010912D01*
X001166Y010900D01*
X001184Y010900D01*
X001184Y011117D02*
X001224Y011117D01*
X000975Y010958D02*
X000684Y010958D01*
X000684Y011117D02*
X000802Y011117D01*
X000734Y011275D02*
X000684Y011275D01*
X000684Y011434D02*
X000724Y011434D01*
X000724Y011592D02*
X000684Y011592D01*
X000684Y011751D02*
X000724Y011751D01*
X000724Y011909D02*
X000684Y011909D01*
X000684Y012068D02*
X000732Y012068D01*
X001184Y012068D02*
X001224Y012068D01*
X001224Y011909D02*
X001184Y011909D01*
X001184Y011751D02*
X001224Y011751D01*
X001224Y011592D02*
X001184Y011592D01*
X001184Y011434D02*
X001224Y011434D01*
X001224Y011275D02*
X001184Y011275D01*
X006387Y010958D02*
X007020Y010958D01*
X006943Y010990D02*
X007112Y010920D01*
X007295Y010920D01*
X007464Y010990D01*
X007594Y011119D01*
X007664Y011288D01*
X007664Y012071D01*
X007594Y012241D01*
X007464Y012370D01*
X007295Y012440D01*
X007112Y012440D01*
X006943Y012370D01*
X006814Y012241D01*
X006744Y012071D01*
X006744Y011288D01*
X006814Y011119D01*
X006943Y010990D01*
X006817Y011117D02*
X006591Y011117D01*
X006658Y011275D02*
X006749Y011275D01*
X006744Y011434D02*
X006664Y011434D01*
X006664Y011592D02*
X006744Y011592D01*
X006744Y011751D02*
X006664Y011751D01*
X006664Y011909D02*
X006744Y011909D01*
X006744Y012068D02*
X006664Y012068D01*
X006600Y012226D02*
X006808Y012226D01*
X006978Y012385D02*
X006429Y012385D01*
X007429Y012385D02*
X007978Y012385D01*
X007943Y012370D02*
X007814Y012241D01*
X007744Y012071D01*
X007744Y011288D01*
X007814Y011119D01*
X007943Y010990D01*
X008112Y010920D01*
X008295Y010920D01*
X008464Y010990D01*
X008594Y011119D01*
X008664Y011288D01*
X008664Y012071D01*
X008594Y012241D01*
X008464Y012370D01*
X008295Y012440D01*
X008112Y012440D01*
X007943Y012370D01*
X007808Y012226D02*
X007600Y012226D01*
X007664Y012068D02*
X007744Y012068D01*
X007744Y011909D02*
X007664Y011909D01*
X007664Y011751D02*
X007744Y011751D01*
X007744Y011592D02*
X007664Y011592D01*
X007664Y011434D02*
X007744Y011434D01*
X007749Y011275D02*
X007658Y011275D01*
X007591Y011117D02*
X007817Y011117D01*
X008020Y010958D02*
X007387Y010958D01*
X008387Y010958D02*
X012657Y010958D01*
X012815Y011117D02*
X008591Y011117D01*
X008658Y011275D02*
X012897Y011275D01*
X012961Y011434D02*
X008664Y011434D01*
X008664Y011592D02*
X013120Y011592D01*
X013137Y011751D02*
X008664Y011751D01*
X008664Y011909D02*
X012979Y011909D01*
X012897Y012068D02*
X008664Y012068D01*
X008600Y012226D02*
X012897Y012226D01*
X012912Y012385D02*
X008429Y012385D01*
D14*
X006204Y011680D02*
X006204Y011180D01*
X005704Y010680D01*
X012704Y010680D01*
X013204Y011180D01*
X013354Y011180D01*
X005704Y010680D02*
X005204Y010180D01*
X003704Y010180D01*
X003704Y005680D01*
X004704Y004680D01*
X004704Y004430D01*
X004704Y003430D02*
X004704Y003180D01*
X003704Y002180D01*
X002704Y003180D01*
X000704Y003180D01*
X000704Y007680D01*
X003704Y010680D01*
X004204Y010680D01*
X004204Y011680D01*
X009204Y007180D02*
X012704Y007180D01*
X013204Y006680D01*
X013354Y006680D01*
X013354Y005680D02*
X008204Y005680D01*
X005704Y003180D01*
X005704Y002930D01*
X006204Y002680D02*
X012704Y002680D01*
X013204Y003180D01*
X013354Y003180D01*
X013354Y002180D02*
X013204Y002180D01*
X012204Y001180D01*
X003704Y001180D01*
X003704Y002180D01*
X005704Y002180D02*
X005704Y001930D01*
X005704Y002180D02*
X006204Y002680D01*
D15*
X009204Y007180D03*
D16*
X010204Y009180D03*
X010204Y004180D03*
M02*
