%
M48
M72
T01C0.0240
T02C0.0354
T03C0.0394
T04C0.0400
T05C0.1260
T06C0.1280
%
T01
X9204Y7180
T02
X4704Y5430
X5704Y4930
X4704Y4430
X5704Y3930
X4704Y3430
X5704Y2930
X4704Y2430
X5704Y1930
T03
X13354Y2180
X13354Y3180
X13354Y1180
X13354Y5680
X13354Y6680
X13354Y7680
X13354Y10180
X13354Y11180
X13354Y12180
T04
X8204Y11680
X7204Y11680
X6204Y11680
X5204Y11680
X4204Y11680
X3204Y11680
X2204Y11680
X1204Y11680
T05
X10204Y9180
X10204Y4180
T06
X2204Y1430
X2204Y5930
M30
