G75*
%MOIN*%
%OFA0B0*%
%FSLAX24Y24*%
%IPPOS*%
%LPD*%
%AMOC8*
5,1,8,0,0,1.08239X$1,22.5*
%
%ADD10C,0.0050*%
D10*
X000705Y007799D02*
X001005Y007799D01*
X001155Y007949D01*
X001005Y008099D01*
X000705Y008099D01*
X000780Y008259D02*
X000705Y008335D01*
X000705Y008560D01*
X001005Y008560D01*
X000930Y008720D02*
X000780Y008720D01*
X000705Y008795D01*
X000705Y009020D01*
X001155Y009020D01*
X001005Y009020D02*
X001005Y008795D01*
X000930Y008720D01*
X001005Y009180D02*
X001005Y009255D01*
X000705Y009255D01*
X000705Y009180D02*
X000705Y009330D01*
X000780Y009487D02*
X000705Y009562D01*
X000705Y009712D01*
X000780Y009787D01*
X000930Y009787D01*
X001005Y009712D01*
X001005Y009562D01*
X000930Y009487D01*
X000780Y009487D01*
X001155Y009255D02*
X001230Y009255D01*
X001005Y008259D02*
X000780Y008259D01*
X000930Y008099D02*
X000930Y007799D01*
X001005Y010408D02*
X001005Y010633D01*
X000930Y010708D01*
X000780Y010708D01*
X000705Y010633D01*
X000705Y010408D01*
X001155Y010408D01*
X000930Y010868D02*
X000780Y010868D01*
X000705Y010943D01*
X000705Y011094D01*
X000780Y011169D01*
X000930Y011169D01*
X001005Y011094D01*
X001005Y010943D01*
X000930Y010868D01*
X000780Y011329D02*
X000855Y011404D01*
X000855Y011629D01*
X000930Y011629D02*
X000705Y011629D01*
X000705Y011404D01*
X000780Y011329D01*
X001005Y011404D02*
X001005Y011554D01*
X000930Y011629D01*
X000855Y011789D02*
X001005Y011939D01*
X001005Y012014D01*
X000930Y012173D02*
X000780Y012173D01*
X000705Y012248D01*
X000705Y012473D01*
X001155Y012473D01*
X001005Y012473D02*
X001005Y012248D01*
X000930Y012173D01*
X001005Y011789D02*
X000705Y011789D01*
X001005Y013094D02*
X000705Y013244D01*
X001005Y013394D01*
X001005Y013554D02*
X001155Y013704D01*
X000705Y013704D01*
X000705Y013554D02*
X000705Y013854D01*
X000705Y014014D02*
X000705Y014089D01*
X000780Y014089D01*
X000780Y014014D01*
X000705Y014014D01*
X000705Y014245D02*
X000705Y014545D01*
X000705Y014395D02*
X001155Y014395D01*
X001005Y014245D01*
M02*
