G75*
%MOIN*%
%OFA0B0*%
%FSLAX24Y24*%
%IPPOS*%
%LPD*%
%AMOC8*
5,1,8,0,0,1.08239X$1,22.5*
%
%ADD10C,0.0000*%
%ADD11C,0.0100*%
%ADD12C,0.0080*%
%ADD13C,0.0060*%
%ADD14C,0.0040*%
%ADD15C,0.0050*%
%ADD16C,0.0030*%
D10*
X000180Y000180D02*
X000180Y021291D01*
X006866Y021291D01*
X006866Y000180D01*
X000180Y000180D01*
X003030Y008555D02*
X003032Y008605D01*
X003038Y008655D01*
X003048Y008705D01*
X003061Y008753D01*
X003078Y008801D01*
X003099Y008847D01*
X003123Y008891D01*
X003151Y008933D01*
X003182Y008973D01*
X003216Y009010D01*
X003253Y009045D01*
X003292Y009076D01*
X003333Y009105D01*
X003377Y009130D01*
X003423Y009152D01*
X003470Y009170D01*
X003518Y009184D01*
X003567Y009195D01*
X003617Y009202D01*
X003667Y009205D01*
X003718Y009204D01*
X003768Y009199D01*
X003818Y009190D01*
X003866Y009178D01*
X003914Y009161D01*
X003960Y009141D01*
X004005Y009118D01*
X004048Y009091D01*
X004088Y009061D01*
X004126Y009028D01*
X004161Y008992D01*
X004194Y008953D01*
X004223Y008912D01*
X004249Y008869D01*
X004272Y008824D01*
X004291Y008777D01*
X004306Y008729D01*
X004318Y008680D01*
X004326Y008630D01*
X004330Y008580D01*
X004330Y008530D01*
X004326Y008480D01*
X004318Y008430D01*
X004306Y008381D01*
X004291Y008333D01*
X004272Y008286D01*
X004249Y008241D01*
X004223Y008198D01*
X004194Y008157D01*
X004161Y008118D01*
X004126Y008082D01*
X004088Y008049D01*
X004048Y008019D01*
X004005Y007992D01*
X003960Y007969D01*
X003914Y007949D01*
X003866Y007932D01*
X003818Y007920D01*
X003768Y007911D01*
X003718Y007906D01*
X003667Y007905D01*
X003617Y007908D01*
X003567Y007915D01*
X003518Y007926D01*
X003470Y007940D01*
X003423Y007958D01*
X003377Y007980D01*
X003333Y008005D01*
X003292Y008034D01*
X003253Y008065D01*
X003216Y008100D01*
X003182Y008137D01*
X003151Y008177D01*
X003123Y008219D01*
X003099Y008263D01*
X003078Y008309D01*
X003061Y008357D01*
X003048Y008405D01*
X003038Y008455D01*
X003032Y008505D01*
X003030Y008555D01*
X006270Y009935D02*
X006249Y009937D01*
X006229Y009942D01*
X006210Y009951D01*
X006193Y009963D01*
X006178Y009978D01*
X006166Y009995D01*
X006157Y010014D01*
X006152Y010034D01*
X006150Y010055D01*
X006152Y010076D01*
X006157Y010096D01*
X006166Y010115D01*
X006178Y010132D01*
X006193Y010147D01*
X006210Y010159D01*
X006229Y010168D01*
X006249Y010173D01*
X006270Y010175D01*
X003030Y013555D02*
X003032Y013605D01*
X003038Y013655D01*
X003048Y013705D01*
X003061Y013753D01*
X003078Y013801D01*
X003099Y013847D01*
X003123Y013891D01*
X003151Y013933D01*
X003182Y013973D01*
X003216Y014010D01*
X003253Y014045D01*
X003292Y014076D01*
X003333Y014105D01*
X003377Y014130D01*
X003423Y014152D01*
X003470Y014170D01*
X003518Y014184D01*
X003567Y014195D01*
X003617Y014202D01*
X003667Y014205D01*
X003718Y014204D01*
X003768Y014199D01*
X003818Y014190D01*
X003866Y014178D01*
X003914Y014161D01*
X003960Y014141D01*
X004005Y014118D01*
X004048Y014091D01*
X004088Y014061D01*
X004126Y014028D01*
X004161Y013992D01*
X004194Y013953D01*
X004223Y013912D01*
X004249Y013869D01*
X004272Y013824D01*
X004291Y013777D01*
X004306Y013729D01*
X004318Y013680D01*
X004326Y013630D01*
X004330Y013580D01*
X004330Y013530D01*
X004326Y013480D01*
X004318Y013430D01*
X004306Y013381D01*
X004291Y013333D01*
X004272Y013286D01*
X004249Y013241D01*
X004223Y013198D01*
X004194Y013157D01*
X004161Y013118D01*
X004126Y013082D01*
X004088Y013049D01*
X004048Y013019D01*
X004005Y012992D01*
X003960Y012969D01*
X003914Y012949D01*
X003866Y012932D01*
X003818Y012920D01*
X003768Y012911D01*
X003718Y012906D01*
X003667Y012905D01*
X003617Y012908D01*
X003567Y012915D01*
X003518Y012926D01*
X003470Y012940D01*
X003423Y012958D01*
X003377Y012980D01*
X003333Y013005D01*
X003292Y013034D01*
X003253Y013065D01*
X003216Y013100D01*
X003182Y013137D01*
X003151Y013177D01*
X003123Y013219D01*
X003099Y013263D01*
X003078Y013309D01*
X003061Y013357D01*
X003048Y013405D01*
X003038Y013455D01*
X003032Y013505D01*
X003030Y013555D01*
X000665Y019305D02*
X000667Y019355D01*
X000673Y019405D01*
X000683Y019454D01*
X000696Y019503D01*
X000714Y019550D01*
X000735Y019596D01*
X000759Y019639D01*
X000787Y019681D01*
X000818Y019721D01*
X000852Y019758D01*
X000889Y019792D01*
X000929Y019823D01*
X000971Y019851D01*
X001014Y019875D01*
X001060Y019896D01*
X001107Y019914D01*
X001156Y019927D01*
X001205Y019937D01*
X001255Y019943D01*
X001305Y019945D01*
X001355Y019943D01*
X001405Y019937D01*
X001454Y019927D01*
X001503Y019914D01*
X001550Y019896D01*
X001596Y019875D01*
X001639Y019851D01*
X001681Y019823D01*
X001721Y019792D01*
X001758Y019758D01*
X001792Y019721D01*
X001823Y019681D01*
X001851Y019639D01*
X001875Y019596D01*
X001896Y019550D01*
X001914Y019503D01*
X001927Y019454D01*
X001937Y019405D01*
X001943Y019355D01*
X001945Y019305D01*
X001943Y019255D01*
X001937Y019205D01*
X001927Y019156D01*
X001914Y019107D01*
X001896Y019060D01*
X001875Y019014D01*
X001851Y018971D01*
X001823Y018929D01*
X001792Y018889D01*
X001758Y018852D01*
X001721Y018818D01*
X001681Y018787D01*
X001639Y018759D01*
X001596Y018735D01*
X001550Y018714D01*
X001503Y018696D01*
X001454Y018683D01*
X001405Y018673D01*
X001355Y018667D01*
X001305Y018665D01*
X001255Y018667D01*
X001205Y018673D01*
X001156Y018683D01*
X001107Y018696D01*
X001060Y018714D01*
X001014Y018735D01*
X000971Y018759D01*
X000929Y018787D01*
X000889Y018818D01*
X000852Y018852D01*
X000818Y018889D01*
X000787Y018929D01*
X000759Y018971D01*
X000735Y019014D01*
X000714Y019060D01*
X000696Y019107D01*
X000683Y019156D01*
X000673Y019205D01*
X000667Y019255D01*
X000665Y019305D01*
X005165Y019305D02*
X005167Y019355D01*
X005173Y019405D01*
X005183Y019454D01*
X005196Y019503D01*
X005214Y019550D01*
X005235Y019596D01*
X005259Y019639D01*
X005287Y019681D01*
X005318Y019721D01*
X005352Y019758D01*
X005389Y019792D01*
X005429Y019823D01*
X005471Y019851D01*
X005514Y019875D01*
X005560Y019896D01*
X005607Y019914D01*
X005656Y019927D01*
X005705Y019937D01*
X005755Y019943D01*
X005805Y019945D01*
X005855Y019943D01*
X005905Y019937D01*
X005954Y019927D01*
X006003Y019914D01*
X006050Y019896D01*
X006096Y019875D01*
X006139Y019851D01*
X006181Y019823D01*
X006221Y019792D01*
X006258Y019758D01*
X006292Y019721D01*
X006323Y019681D01*
X006351Y019639D01*
X006375Y019596D01*
X006396Y019550D01*
X006414Y019503D01*
X006427Y019454D01*
X006437Y019405D01*
X006443Y019355D01*
X006445Y019305D01*
X006443Y019255D01*
X006437Y019205D01*
X006427Y019156D01*
X006414Y019107D01*
X006396Y019060D01*
X006375Y019014D01*
X006351Y018971D01*
X006323Y018929D01*
X006292Y018889D01*
X006258Y018852D01*
X006221Y018818D01*
X006181Y018787D01*
X006139Y018759D01*
X006096Y018735D01*
X006050Y018714D01*
X006003Y018696D01*
X005954Y018683D01*
X005905Y018673D01*
X005855Y018667D01*
X005805Y018665D01*
X005755Y018667D01*
X005705Y018673D01*
X005656Y018683D01*
X005607Y018696D01*
X005560Y018714D01*
X005514Y018735D01*
X005471Y018759D01*
X005429Y018787D01*
X005389Y018818D01*
X005352Y018852D01*
X005318Y018889D01*
X005287Y018929D01*
X005259Y018971D01*
X005235Y019014D01*
X005214Y019060D01*
X005196Y019107D01*
X005183Y019156D01*
X005173Y019205D01*
X005167Y019255D01*
X005165Y019305D01*
D11*
X002589Y008189D02*
X002589Y007722D01*
X002822Y007955D02*
X002355Y007955D01*
X002430Y003055D02*
X002180Y002555D01*
X002280Y002555D01*
X002300Y002555D01*
X002330Y002555D01*
X002300Y002555D02*
X002300Y001685D01*
X002550Y001685D01*
X002550Y002555D01*
X002530Y002555D01*
X002550Y002555D02*
X002580Y002555D01*
X002680Y002555D01*
X002430Y003055D01*
X002380Y002905D02*
X002480Y002905D01*
X002480Y001705D01*
X002430Y001705D02*
X002380Y001705D01*
X002380Y002905D01*
X002280Y002705D02*
X002280Y002555D01*
X002430Y003155D02*
X002372Y003153D01*
X002315Y003147D01*
X002258Y003137D01*
X002202Y003124D01*
X002147Y003107D01*
X002093Y003085D01*
X002041Y003061D01*
X001991Y003033D01*
X001942Y003001D01*
X001896Y002967D01*
X001853Y002929D01*
X001812Y002888D01*
X001774Y002845D01*
X001738Y002799D01*
X001707Y002751D01*
X001678Y002701D01*
X001653Y002649D01*
X001631Y002596D01*
X001613Y002541D01*
X001599Y002485D01*
X001589Y002428D01*
X001583Y002371D01*
X001580Y002313D01*
X001581Y002256D01*
X001587Y002198D01*
X001596Y002141D01*
X001609Y002085D01*
X001626Y002030D01*
X001646Y001976D01*
X001670Y001924D01*
X001698Y001873D01*
X001729Y001824D01*
X001763Y001778D01*
X001801Y001734D01*
X001841Y001692D01*
X001884Y001654D01*
X001929Y001618D01*
X001977Y001586D01*
X002027Y001557D01*
X002078Y001531D01*
X002132Y001509D01*
X002728Y001509D02*
X002782Y001531D01*
X002833Y001557D01*
X002883Y001586D01*
X002931Y001618D01*
X002976Y001654D01*
X003019Y001692D01*
X003059Y001734D01*
X003097Y001778D01*
X003131Y001824D01*
X003162Y001873D01*
X003190Y001924D01*
X003214Y001976D01*
X003234Y002030D01*
X003251Y002085D01*
X003264Y002141D01*
X003273Y002198D01*
X003279Y002256D01*
X003280Y002313D01*
X003277Y002371D01*
X003271Y002428D01*
X003261Y002485D01*
X003247Y002541D01*
X003229Y002596D01*
X003207Y002649D01*
X003182Y002701D01*
X003153Y002751D01*
X003122Y002799D01*
X003086Y002845D01*
X003048Y002888D01*
X003007Y002929D01*
X002964Y002967D01*
X002918Y003001D01*
X002869Y003033D01*
X002819Y003061D01*
X002767Y003085D01*
X002713Y003107D01*
X002658Y003124D01*
X002602Y003137D01*
X002545Y003147D01*
X002488Y003153D01*
X002430Y003155D01*
X002580Y002705D02*
X002580Y002555D01*
D12*
X004629Y003763D02*
X004629Y000499D01*
X006731Y000499D01*
X006731Y003763D01*
X004629Y003763D01*
X002970Y010105D02*
X000390Y010105D01*
X000390Y011505D01*
X002970Y011505D01*
X002970Y010105D01*
X000592Y015046D02*
X000592Y021369D01*
X006518Y021369D01*
X006518Y015046D01*
X000592Y015046D01*
D13*
X002257Y017635D02*
X002257Y018276D01*
X002577Y018276D01*
X002684Y018169D01*
X002684Y017955D01*
X002577Y017849D01*
X002257Y017849D01*
X002470Y017849D02*
X002684Y017635D01*
X002901Y017742D02*
X003008Y017635D01*
X003115Y017635D01*
X003222Y017742D01*
X003222Y018276D01*
X003328Y018276D02*
X003115Y018276D01*
X003546Y017955D02*
X003973Y017955D01*
X004190Y017955D02*
X004404Y018062D01*
X004511Y018062D01*
X004617Y017955D01*
X004617Y017742D01*
X004511Y017635D01*
X004297Y017635D01*
X004190Y017742D01*
X004190Y017955D02*
X004190Y018276D01*
X004617Y018276D01*
X003866Y018276D02*
X003866Y017635D01*
X003546Y017955D02*
X003866Y018276D01*
X005812Y014041D02*
X006048Y014041D01*
X006048Y013569D02*
X005812Y013569D01*
X005812Y012291D02*
X006048Y012291D01*
X006048Y011819D02*
X005812Y011819D01*
X006270Y010505D02*
X006270Y009605D01*
X005090Y009605D02*
X005090Y010505D01*
X003298Y004791D02*
X003062Y004791D01*
X003062Y004319D02*
X003298Y004319D01*
X004330Y004195D02*
X000530Y004195D01*
X000530Y000405D01*
X000930Y000405D01*
X000930Y000755D01*
X003930Y000755D01*
X003930Y000405D01*
X004330Y000405D01*
X004330Y004195D01*
X001798Y004319D02*
X001562Y004319D01*
X001562Y004791D02*
X001798Y004791D01*
X001214Y003000D02*
X001180Y002935D01*
X001149Y002869D01*
X001121Y002801D01*
X001097Y002732D01*
X001076Y002662D01*
X001059Y002591D01*
X001046Y002519D01*
X001037Y002446D01*
X001032Y002373D01*
X001030Y002300D01*
X001032Y002227D01*
X001038Y002154D01*
X001048Y002082D01*
X001061Y002010D01*
X001079Y001939D01*
X001100Y001869D01*
X001124Y001800D01*
X001152Y001732D01*
X001184Y001666D01*
X001219Y001602D01*
X001257Y001540D01*
X001299Y001480D01*
X001344Y001422D01*
X001391Y001366D01*
X001442Y001313D01*
X001495Y001263D01*
X001551Y001216D01*
X001609Y001171D01*
X001669Y001130D01*
X001731Y001092D01*
X001796Y001057D01*
X001862Y001026D01*
X001929Y000998D01*
X001998Y000973D01*
X002068Y000953D01*
X002140Y000935D01*
X002211Y000922D01*
X002284Y000913D01*
X002357Y000907D01*
X002430Y000905D01*
X003160Y003500D02*
X003100Y003535D01*
X003037Y003566D01*
X002974Y003595D01*
X002909Y003621D01*
X002843Y003643D01*
X002775Y003662D01*
X002707Y003677D01*
X002639Y003689D01*
X002569Y003698D01*
X002500Y003703D01*
X002430Y003705D01*
X003631Y003025D02*
X003667Y002961D01*
X003700Y002895D01*
X003729Y002827D01*
X003755Y002758D01*
X003777Y002687D01*
X003795Y002616D01*
X003810Y002543D01*
X003820Y002470D01*
X003827Y002396D01*
X003830Y002323D01*
X003829Y002249D01*
X003824Y002175D01*
X003815Y002102D01*
X003803Y002029D01*
X003786Y001957D01*
X003766Y001886D01*
X003742Y001816D01*
X003714Y001747D01*
X003683Y001680D01*
X003648Y001615D01*
X003610Y001552D01*
X003569Y001491D01*
X003524Y001432D01*
X003477Y001375D01*
X003426Y001321D01*
X003373Y001270D01*
X003317Y001222D01*
X003259Y001177D01*
X003198Y001134D01*
X003135Y001096D01*
X003070Y001060D01*
X003004Y001028D01*
X002936Y000999D01*
X002866Y000975D01*
X002795Y000953D01*
X002723Y000936D01*
X002651Y000923D01*
X002578Y000913D01*
X002504Y000907D01*
X002430Y000905D01*
X001710Y003505D02*
X001769Y003539D01*
X001831Y003570D01*
X001894Y003598D01*
X001958Y003623D01*
X002023Y003645D01*
X002090Y003663D01*
X002157Y003678D01*
X002224Y003690D01*
X002293Y003698D01*
X002361Y003703D01*
X002430Y003705D01*
D14*
X002122Y004950D02*
X001992Y005080D01*
X001949Y005037D02*
X002122Y005210D01*
X001949Y005210D02*
X001949Y004950D01*
X001846Y004993D02*
X001803Y004950D01*
X001716Y004950D01*
X001673Y004993D01*
X001673Y005080D02*
X001759Y005123D01*
X001803Y005123D01*
X001846Y005080D01*
X001846Y004993D01*
X001673Y005080D02*
X001673Y005210D01*
X001846Y005210D01*
X001660Y005575D02*
X001660Y005748D01*
X001660Y005662D02*
X001400Y005662D01*
X001487Y005575D01*
X001483Y005210D02*
X001483Y004950D01*
X001396Y004950D02*
X001570Y004950D01*
X001396Y005123D02*
X001483Y005210D01*
X001443Y005851D02*
X001400Y005895D01*
X001400Y005981D01*
X001443Y006025D01*
X001617Y005851D01*
X001660Y005895D01*
X001660Y005981D01*
X001617Y006025D01*
X001443Y006025D01*
X001443Y006127D02*
X001400Y006171D01*
X001400Y006258D01*
X001443Y006301D01*
X001617Y006127D01*
X001660Y006171D01*
X001660Y006258D01*
X001617Y006301D01*
X001443Y006301D01*
X001487Y006404D02*
X001487Y006534D01*
X001530Y006577D01*
X001660Y006577D01*
X001660Y006680D02*
X001400Y006680D01*
X001400Y006853D01*
X001530Y006767D02*
X001530Y006680D01*
X001487Y006404D02*
X001660Y006404D01*
X001617Y006127D02*
X001443Y006127D01*
X001443Y005851D02*
X001617Y005851D01*
X002925Y005073D02*
X003012Y005160D01*
X003012Y004900D01*
X003098Y004900D02*
X002925Y004900D01*
X003201Y004943D02*
X003201Y005117D01*
X003245Y005160D01*
X003331Y005160D01*
X003375Y005117D01*
X003201Y004943D01*
X003245Y004900D01*
X003331Y004900D01*
X003375Y004943D01*
X003375Y005117D01*
X003477Y005160D02*
X003477Y004900D01*
X003477Y004987D02*
X003651Y005160D01*
X003521Y005030D02*
X003651Y004900D01*
X001779Y007200D02*
X001779Y007460D01*
X001952Y007460D01*
X001865Y007330D02*
X001779Y007330D01*
X001676Y007373D02*
X001676Y007200D01*
X001546Y007200D01*
X001502Y007243D01*
X001502Y007373D01*
X001400Y007373D02*
X001400Y007417D01*
X001356Y007460D01*
X001270Y007460D01*
X001226Y007417D01*
X001123Y007417D02*
X001080Y007460D01*
X000993Y007460D01*
X000950Y007417D01*
X001123Y007417D02*
X001123Y007373D01*
X000950Y007200D01*
X001123Y007200D01*
X001226Y007200D02*
X001400Y007373D01*
X001400Y007200D02*
X001226Y007200D01*
X005425Y011400D02*
X005598Y011573D01*
X005598Y011617D01*
X005555Y011660D01*
X005468Y011660D01*
X005425Y011617D01*
X005425Y011400D02*
X005598Y011400D01*
X005701Y011400D02*
X005701Y011660D01*
X005745Y011530D02*
X005875Y011400D01*
X005977Y011400D02*
X006151Y011573D01*
X006151Y011617D01*
X006108Y011660D01*
X006021Y011660D01*
X005977Y011617D01*
X005875Y011660D02*
X005701Y011487D01*
X005977Y011400D02*
X006151Y011400D01*
X006151Y013150D02*
X005977Y013150D01*
X006151Y013323D01*
X006151Y013367D01*
X006108Y013410D01*
X006021Y013410D01*
X005977Y013367D01*
X005875Y013410D02*
X005701Y013237D01*
X005745Y013280D02*
X005875Y013150D01*
X005701Y013150D02*
X005701Y013410D01*
X005598Y013367D02*
X005555Y013410D01*
X005468Y013410D01*
X005425Y013367D01*
X005598Y013367D02*
X005598Y013323D01*
X005425Y013150D01*
X005598Y013150D01*
X001972Y012785D02*
X001799Y012785D01*
X001799Y012525D01*
X001696Y012525D02*
X001696Y012698D01*
X001799Y012655D02*
X001886Y012655D01*
X001696Y012525D02*
X001566Y012525D01*
X001523Y012568D01*
X001523Y012698D01*
X001420Y012742D02*
X001376Y012785D01*
X001290Y012785D01*
X001246Y012742D01*
X001246Y012568D01*
X001420Y012742D01*
X001420Y012568D01*
X001376Y012525D01*
X001290Y012525D01*
X001246Y012568D01*
X001144Y012525D02*
X000970Y012525D01*
X001057Y012525D02*
X001057Y012785D01*
X000970Y012698D01*
X000975Y013775D02*
X000888Y013775D01*
X000845Y013818D01*
X001019Y013992D01*
X001019Y013818D01*
X000975Y013775D01*
X000845Y013818D02*
X000845Y013992D01*
X000888Y014035D01*
X000975Y014035D01*
X001019Y013992D01*
X001121Y013992D02*
X001165Y014035D01*
X001251Y014035D01*
X001295Y013992D01*
X001121Y013818D01*
X001165Y013775D01*
X001251Y013775D01*
X001295Y013818D01*
X001295Y013992D01*
X001398Y013948D02*
X001528Y013948D01*
X001571Y013905D01*
X001571Y013775D01*
X001674Y013775D02*
X001674Y014035D01*
X001847Y014035D01*
X001761Y013905D02*
X001674Y013905D01*
X001398Y013948D02*
X001398Y013775D01*
X001121Y013818D02*
X001121Y013992D01*
X000742Y013775D02*
X000569Y013775D01*
X000656Y013775D02*
X000656Y014035D01*
X000569Y013948D01*
D15*
X000955Y001380D02*
X000955Y000930D01*
X000805Y000930D02*
X001105Y000930D01*
X000805Y001230D02*
X000955Y001380D01*
X003755Y001305D02*
X003830Y001380D01*
X003980Y001380D01*
X004055Y001305D01*
X004055Y001230D01*
X003980Y001155D01*
X004055Y001080D01*
X004055Y001005D01*
X003980Y000930D01*
X003830Y000930D01*
X003755Y001005D01*
X003905Y001155D02*
X003980Y001155D01*
X004971Y001225D02*
X005174Y001429D01*
X005174Y000818D01*
X004971Y000818D02*
X005378Y000818D01*
D16*
X006283Y010856D02*
X006597Y011170D01*
X006440Y011170D02*
X006440Y010856D01*
X006597Y010856D02*
X006283Y011170D01*
X006283Y011013D02*
X006597Y011013D01*
M02*
