%
M48
M72
T01C0.0236
T02C0.0320
T03C0.0354
T04C0.0394
T05C0.1280
T06C0.1300
%
T01
X5680Y2180
X4180Y4805
X5430Y6555
X5180Y7555
X5805Y7805
X5180Y8555
X3430Y11055
X4430Y11305
X5555Y12680
X6180Y14555
X2430Y14555
T02
X2430Y1305
X1430Y3305
X3430Y3305
T03
X3805Y15805
X2805Y15805
X1805Y15805
X2305Y16805
X3305Y16805
X4305Y16805
X5305Y16805
X4805Y15805
T04
X5180Y4405
X6180Y4405
T05
X5805Y19305
X1305Y19305
T06
X3680Y13555
X3680Y8555
M30
