G75*
%MOIN*%
%OFA0B0*%
%FSLAX24Y24*%
%IPPOS*%
%LPD*%
%AMOC8*
5,1,8,0,0,1.08239X$1,22.5*
%
%ADD10C,0.1380*%
%ADD11C,0.0634*%
%ADD12C,0.1360*%
%ADD13R,0.0946X0.0316*%
%ADD14R,0.0671X0.0592*%
%ADD15R,0.0710X0.0789*%
%ADD16R,0.0395X0.0552*%
%ADD17C,0.0600*%
%ADD18R,0.0592X0.0671*%
%ADD19R,0.0260X0.0670*%
%ADD20R,0.0671X0.0867*%
%ADD21R,0.1576X0.0867*%
%ADD22OC8,0.0674*%
%ADD23C,0.0476*%
D10*
X003680Y008555D03*
X003680Y013555D03*
D11*
X003805Y015805D03*
X002805Y015805D03*
X001805Y015805D03*
X002305Y016805D03*
X003305Y016805D03*
X004305Y016805D03*
X005305Y016805D03*
X004805Y015805D03*
D12*
X005805Y019305D03*
X001305Y019305D03*
D13*
X002406Y007055D03*
X002406Y006555D03*
X002406Y006055D03*
X002406Y005555D03*
X004454Y005555D03*
X004454Y006055D03*
X004454Y006555D03*
X004454Y007055D03*
D14*
X000930Y006679D03*
X000930Y005931D03*
D15*
X000879Y007930D03*
X001981Y007930D03*
X001981Y013305D03*
X000879Y013305D03*
D16*
X005576Y013805D03*
X006284Y013805D03*
X006284Y012055D03*
X005576Y012055D03*
X003534Y004555D03*
X002826Y004555D03*
X002034Y004555D03*
X001326Y004555D03*
D17*
X002430Y001565D02*
X002430Y001045D01*
X001430Y003045D02*
X001430Y003565D01*
X003430Y003565D02*
X003430Y003045D01*
D18*
X001554Y014555D03*
X000806Y014555D03*
D19*
X005300Y010865D03*
X005550Y010865D03*
X005810Y010865D03*
X006060Y010865D03*
X006060Y009245D03*
X005810Y009245D03*
X005550Y009245D03*
X005300Y009245D03*
D20*
X002586Y012045D03*
X001680Y012045D03*
X000774Y012045D03*
D21*
X001680Y009565D03*
D22*
X005180Y004405D03*
X006180Y004405D03*
D23*
X004180Y004805D03*
X005430Y006555D03*
X005180Y007555D03*
X005805Y007805D03*
X005180Y008555D03*
X003430Y011055D03*
X004430Y011305D03*
X005555Y012680D03*
X006180Y014555D03*
X002430Y014555D03*
X005680Y002180D03*
M02*
