  0
SECTION
  2
HEADER
  9
$ACADVER
  1
AC1018
  9
$ACADMAINTVER
 70
     0
  9
$DWGCODEPAGE
  3
ANSI_1252
  9
$INSBASE
 10
0.0
 20
0.0
 30
0.0
  9
$EXTMIN
 10
1.000000000000000E+20
 20
1.000000000000000E+20
 30
1.000000000000000E+20
  9
$EXTMAX
 10
-1.000000000000000E+20
 20
-1.000000000000000E+20
 30
-1.000000000000000E+20
  9
$LIMMIN
 10
0.0
 20
0.0
  9
$LIMMAX
 10
12.0
 20
9.0
  9
$ORTHOMODE
 70
     0
  9
$REGENMODE
 70
     1
  9
$FILLMODE
 70
     1
  9
$QTEXTMODE
 70
     0
  9
$MIRRTEXT
 70
     1
  9
$LTSCALE
 40
1.0
  9
$ATTMODE
 70
     1
  9
$TEXTSIZE
 40
0.2
  9
$TRACEWID
 40
0.05
  9
$TEXTSTYLE
  7
Standard
  9
$CLAYER
  8
0
  9
$CELTYPE
  6
ByLayer
  9
$CECOLOR
 62
   256
  9
$CELTSCALE
 40
1.0
  9
$DISPSILH
 70
     0
  9
$DIMSCALE
 40
1.0
  9
$DIMASZ
 40
0.18
  9
$DIMEXO
 40
0.0625
  9
$DIMDLI
 40
0.38
  9
$DIMRND
 40
0.0
  9
$DIMDLE
 40
0.0
  9
$DIMEXE
 40
0.18
  9
$DIMTP
 40
0.0
  9
$DIMTM
 40
0.0
  9
$DIMTXT
 40
0.18
  9
$DIMCEN
 40
0.09
  9
$DIMTSZ
 40
0.0
  9
$DIMTOL
 70
     0
  9
$DIMLIM
 70
     0
  9
$DIMTIH
 70
     1
  9
$DIMTOH
 70
     1
  9
$DIMSE1
 70
     0
  9
$DIMSE2
 70
     0
  9
$DIMTAD
 70
     0
  9
$DIMZIN
 70
     0
  9
$DIMBLK
  1

  9
$DIMASO
 70
     1
  9
$DIMSHO
 70
     1
  9
$DIMPOST
  1

  9
$DIMAPOST
  1

  9
$DIMALT
 70
     0
  9
$DIMALTD
 70
     2
  9
$DIMALTF
 40
25.4
  9
$DIMLFAC
 40
1.0
  9
$DIMTOFL
 70
     0
  9
$DIMTVP
 40
0.0
  9
$DIMTIX
 70
     0
  9
$DIMSOXD
 70
     0
  9
$DIMSAH
 70
     0
  9
$DIMBLK1
  1

  9
$DIMBLK2
  1

  9
$DIMSTYLE
  2
Standard
  9
$DIMCLRD
 70
     0
  9
$DIMCLRE
 70
     0
  9
$DIMCLRT
 70
     0
  9
$DIMTFAC
 40
1.0
  9
$DIMGAP
 40
0.09
  9
$DIMJUST
 70
     0
  9
$DIMSD1
 70
     0
  9
$DIMSD2
 70
     0
  9
$DIMTOLJ
 70
     1
  9
$DIMTZIN
 70
     0
  9
$DIMALTZ
 70
     0
  9
$DIMALTTZ
 70
     0
  9
$DIMUPT
 70
     0
  9
$DIMDEC
 70
     4
  9
$DIMTDEC
 70
     4
  9
$DIMALTU
 70
     2
  9
$DIMALTTD
 70
     2
  9
$DIMTXSTY
  7
Standard
  9
$DIMAUNIT
 70
     0
  9
$DIMADEC
 70
     0
  9
$DIMALTRND
 40
0.0
  9
$DIMAZIN
 70
     0
  9
$DIMDSEP
 70
    46
  9
$DIMATFIT
 70
     3
  9
$DIMFRAC
 70
     0
  9
$DIMLDRBLK
  1

  9
$DIMLUNIT
 70
     2
  9
$DIMLWD
 70
    -2
  9
$DIMLWE
 70
    -2
  9
$DIMTMOVE
 70
     0
  9
$LUNITS
 70
     2
  9
$LUPREC
 70
     4
  9
$SKETCHINC
 40
0.1
  9
$FILLETRAD
 40
0.5
  9
$AUNITS
 70
     0
  9
$AUPREC
 70
     0
  9
$MENU
  1
.
  9
$ELEVATION
 40
0.0
  9
$PELEVATION
 40
0.0
  9
$THICKNESS
 40
0.0
  9
$LIMCHECK
 70
     0
  9
$CHAMFERA
 40
0.5
  9
$CHAMFERB
 40
0.5
  9
$CHAMFERC
 40
1.0
  9
$CHAMFERD
 40
0.0
  9
$SKPOLY
 70
     0
  9
$TDCREATE
 40
2458226.835809364
  9
$TDUCREATE
 40
2458226.794142697
  9
$TDUPDATE
 40
2458226.835809375
  9
$TDUUPDATE
 40
2458226.794142708
  9
$TDINDWG
 40
0.0000000116
  9
$TDUSRTIMER
 40
0.0000000116
  9
$USRTIMER
 70
     1
  9
$ANGBASE
 50
0.0
  9
$ANGDIR
 70
     0
  9
$PDMODE
 70
     0
  9
$PDSIZE
 40
0.0
  9
$PLINEWID
 40
0.0
  9
$SPLFRAME
 70
     0
  9
$SPLINETYPE
 70
     6
  9
$SPLINESEGS
 70
     8
  9
$HANDSEED
  5
B5
  9
$SURFTAB1
 70
     6
  9
$SURFTAB2
 70
     6
  9
$SURFTYPE
 70
     6
  9
$SURFU
 70
     6
  9
$SURFV
 70
     6
  9
$UCSBASE
  2

  9
$UCSNAME
  2

  9
$UCSORG
 10
0.0
 20
0.0
 30
0.0
  9
$UCSXDIR
 10
1.0
 20
0.0
 30
0.0
  9
$UCSYDIR
 10
0.0
 20
1.0
 30
0.0
  9
$UCSORTHOREF
  2

  9
$UCSORTHOVIEW
 70
     0
  9
$UCSORGTOP
 10
0.0
 20
0.0
 30
0.0
  9
$UCSORGBOTTOM
 10
0.0
 20
0.0
 30
0.0
  9
$UCSORGLEFT
 10
0.0
 20
0.0
 30
0.0
  9
$UCSORGRIGHT
 10
0.0
 20
0.0
 30
0.0
  9
$UCSORGFRONT
 10
0.0
 20
0.0
 30
0.0
  9
$UCSORGBACK
 10
0.0
 20
0.0
 30
0.0
  9
$PUCSBASE
  2

  9
$PUCSNAME
  2

  9
$PUCSORG
 10
0.0
 20
0.0
 30
0.0
  9
$PUCSXDIR
 10
1.0
 20
0.0
 30
0.0
  9
$PUCSYDIR
 10
0.0
 20
1.0
 30
0.0
  9
$PUCSORTHOREF
  2

  9
$PUCSORTHOVIEW
 70
     0
  9
$PUCSORGTOP
 10
0.0
 20
0.0
 30
0.0
  9
$PUCSORGBOTTOM
 10
0.0
 20
0.0
 30
0.0
  9
$PUCSORGLEFT
 10
0.0
 20
0.0
 30
0.0
  9
$PUCSORGRIGHT
 10
0.0
 20
0.0
 30
0.0
  9
$PUCSORGFRONT
 10
0.0
 20
0.0
 30
0.0
  9
$PUCSORGBACK
 10
0.0
 20
0.0
 30
0.0
  9
$USERI1
 70
     0
  9
$USERI2
 70
     0
  9
$USERI3
 70
     0
  9
$USERI4
 70
     0
  9
$USERI5
 70
     0
  9
$USERR1
 40
0.0
  9
$USERR2
 40
0.0
  9
$USERR3
 40
0.0
  9
$USERR4
 40
0.0
  9
$USERR5
 40
0.0
  9
$WORLDVIEW
 70
     1
  9
$SHADEDGE
 70
     3
  9
$SHADEDIF
 70
    70
  9
$TILEMODE
 70
     1
  9
$MAXACTVP
 70
    64
  9
$PINSBASE
 10
0.0
 20
0.0
 30
0.0
  9
$PLIMCHECK
 70
     0
  9
$PEXTMIN
 10
1.000000000000000E+20
 20
1.000000000000000E+20
 30
1.000000000000000E+20
  9
$PEXTMAX
 10
-1.000000000000000E+20
 20
-1.000000000000000E+20
 30
-1.000000000000000E+20
  9
$PLIMMIN
 10
0.0
 20
0.0
  9
$PLIMMAX
 10
12.0
 20
9.0
  9
$UNITMODE
 70
     0
  9
$VISRETAIN
 70
     1
  9
$PLINEGEN
 70
     0
  9
$PSLTSCALE
 70
     1
  9
$TREEDEPTH
 70
  3020
  9
$CMLSTYLE
  2
Standard
  9
$CMLJUST
 70
     0
  9
$CMLSCALE
 40
1.0
  9
$PROXYGRAPHICS
 70
     1
  9
$MEASUREMENT
 70
     0
  9
$CELWEIGHT
370
    -1
  9
$ENDCAPS
280
     0
  9
$JOINSTYLE
280
     0
  9
$LWDISPLAY
290
     1
  9
$INSUNITS
 70
     1
  9
$HYPERLINKBASE
  1

  9
$STYLESHEET
  1

  9
$XEDIT
290
     1
  9
$CEPSNTYPE
380
     0
  9
$PSTYLEMODE
290
     1
  9
$FINGERPRINTGUID
  2
{24474CAE-860F-4ABA-AEF9-0688E24F2AAD}
  9
$VERSIONGUID
  2
{FAEB1C32-E019-11D5-929B-00C0DF256EC4}
  9
$EXTNAMES
290
     1
  9
$PSVPSCALE
 40
0.0
  9
$OLESTARTUP
290
     0
  9
$SORTENTS
280
   127
  9
$INDEXCTL
280
     0
  9
$HIDETEXT
280
     1
  9
$XCLIPFRAME
290
     0
  9
$HALOGAP
280
     0
  9
$OBSCOLOR
 70
   257
  9
$OBSLTYPE
280
     0
  9
$INTERSECTIONDISPLAY
280
     0
  9
$INTERSECTIONCOLOR
 70
   257
  9
$DIMASSOC
280
     2
  9
$PROJECTNAME
  1

  0
ENDSEC
  0
SECTION
  2
CLASSES
  0
CLASS
  1
ACDBDICTIONARYWDFLT
  2
AcDbDictionaryWithDefault
  3
ObjectDBX Classes
 90
        0
 91
        3
280
     0
281
     0
  0
CLASS
  1
VISUALSTYLE
  2
AcDbVisualStyle
  3
ObjectDBX Classes
 90
     4095
 91
        3
280
     0
281
     0
  0
ENDSEC
  0
SECTION
  2
TABLES
  0
TABLE
  2
VPORT
  5
8
330
0
100
AcDbSymbolTable
 70
     1
  0
VPORT
  5
29
330
8
100
AcDbSymbolTableRecord
100
AcDbViewportTableRecord
  2
*Active
 70
     0
 10
0.0
 20
0.0
 11
1.0
 21
1.0
 12
0.0
 22
0.0
 13
0.0
 23
0.0
 14
0.5
 24
0.5
 15
0.5
 25
0.5
 16
0.0
 26
0.0
 36
1.0
 17
105.0008952513716
 27
-148.5000775824991
 37
0.0
 40
297.0001551649982
 41
0.7070763662937379
 42
50.0
 43
0.0
 44
0.0
 50
0.0
 51
0.0
 71
     0
 72
   100
 73
     1
 74
     3
 75
     0
 76
     0
 77
     0
 78
     0
281
     0
 65
     1
110
0.0
120
0.0
130
0.0
111
1.0
121
0.0
131
0.0
112
0.0
122
1.0
132
0.0
 79
     0
146
0.0
  0
ENDTAB
  0
TABLE
  2
LTYPE
  5
5
330
0
100
AcDbSymbolTable
 70
     1
  0
LTYPE
  5
14
330
5
100
AcDbSymbolTableRecord
100
AcDbLinetypeTableRecord
  2
ByBlock
 70
     0
  3

 72
    65
 73
     0
 40
0.0
  0
LTYPE
  5
15
330
5
100
AcDbSymbolTableRecord
100
AcDbLinetypeTableRecord
  2
ByLayer
 70
     0
  3

 72
    65
 73
     0
 40
0.0
  0
LTYPE
  5
16
330
5
100
AcDbSymbolTableRecord
100
AcDbLinetypeTableRecord
  2
Continuous
 70
     0
  3
Solid line
 72
    65
 73
     0
 40
0.0
  0
ENDTAB
  0
TABLE
  2
LAYER
  5
2
330
0
100
AcDbSymbolTable
 70
     2
  0
LAYER
  5
10
330
2
100
AcDbSymbolTableRecord
100
AcDbLayerTableRecord
  2
0
 70
     0
 62
     7
  6
Continuous
370
    -3
390
F
  0
LAYER
  5
3B
330
2
100
AcDbSymbolTableRecord
100
AcDbLayerTableRecord
  2
Layer 1
 70
     0
 62
     7
  6
Continuous
370
    -3
390
F
  0
ENDTAB
  0
TABLE
  2
STYLE
  5
3
330
0
100
AcDbSymbolTable
 70
     1
  0
STYLE
  5
11
330
3
100
AcDbSymbolTableRecord
100
AcDbTextStyleTableRecord
  2
Standard
 70
     0
 40
0.0
 41
1.0
 50
0.0
 71
     0
 42
0.2
  3
txt
  4

  0
ENDTAB
  0
TABLE
  2
VIEW
  5
6
330
0
100
AcDbSymbolTable
 70
     0
  0
ENDTAB
  0
TABLE
  2
UCS
  5
7
330
0
100
AcDbSymbolTable
 70
     0
  0
ENDTAB
  0
TABLE
  2
APPID
  5
9
330
0
100
AcDbSymbolTable
 70
     1
  0
APPID
  5
12
330
9
100
AcDbSymbolTableRecord
100
AcDbRegAppTableRecord
  2
ACAD
 70
     0
  0
ENDTAB
  0
TABLE
  2
DIMSTYLE
  5
A
330
0
100
AcDbSymbolTable
 70
     1
100
AcDbDimStyleTable
  0
DIMSTYLE
105
27
330
A
100
AcDbSymbolTableRecord
100
AcDbDimStyleTableRecord
  2
Standard
 70
     0
340
11
  0
ENDTAB
  0
TABLE
  2
BLOCK_RECORD
  5
1
330
0
100
AcDbSymbolTable
 70
    11
  0
BLOCK_RECORD
  5
1F
330
1
100
AcDbSymbolTableRecord
100
AcDbBlockTableRecord
  2
*Model_Space
340
22
  0
BLOCK_RECORD
  5
1B
330
1
100
AcDbSymbolTableRecord
100
AcDbBlockTableRecord
  2
*Paper_Space
340
1E
  0
BLOCK_RECORD
  5
23
330
1
100
AcDbSymbolTableRecord
100
AcDbBlockTableRecord
  2
*Paper_Space0
340
26
  0
BLOCK_RECORD
  5
3C
330
1
100
AcDbSymbolTableRecord
100
AcDbBlockTableRecord
  2
block 2
340
0
102
{BLKREFS
331
3D
102
}
  0
BLOCK_RECORD
  5
48
330
1
100
AcDbSymbolTableRecord
100
AcDbBlockTableRecord
  2
block 3
340
0
102
{BLKREFS
331
49
102
}
  0
BLOCK_RECORD
  5
54
330
1
100
AcDbSymbolTableRecord
100
AcDbBlockTableRecord
  2
block 4
340
0
102
{BLKREFS
331
55
102
}
  0
BLOCK_RECORD
  5
60
330
1
100
AcDbSymbolTableRecord
100
AcDbBlockTableRecord
  2
block 5
340
0
102
{BLKREFS
331
61
102
}
  0
BLOCK_RECORD
  5
6C
330
1
100
AcDbSymbolTableRecord
100
AcDbBlockTableRecord
  2
block 6
340
0
102
{BLKREFS
331
6D
102
}
  0
BLOCK_RECORD
  5
78
330
1
100
AcDbSymbolTableRecord
100
AcDbBlockTableRecord
  2
block 7
340
0
102
{BLKREFS
331
79
102
}
  0
BLOCK_RECORD
  5
84
330
1
100
AcDbSymbolTableRecord
100
AcDbBlockTableRecord
  2
block 8
340
0
102
{BLKREFS
331
85
102
}
  0
BLOCK_RECORD
  5
90
330
1
100
AcDbSymbolTableRecord
100
AcDbBlockTableRecord
  2
block 9
340
0
102
{BLKREFS
331
91
102
}
  0
BLOCK_RECORD
  5
9C
330
1
100
AcDbSymbolTableRecord
100
AcDbBlockTableRecord
  2
block 10
340
0
102
{BLKREFS
331
9D
102
}
  0
BLOCK_RECORD
  5
A8
330
1
100
AcDbSymbolTableRecord
100
AcDbBlockTableRecord
  2
block 11
340
0
102
{BLKREFS
331
A9
102
}
  0
ENDTAB
  0
ENDSEC
  0
SECTION
  2
BLOCKS
  0
BLOCK
  5
20
330
1F
100
AcDbEntity
  8
0
100
AcDbBlockBegin
  2
*Model_Space
 70
     0
 71
     0
 10
0.0
 20
0.0
 30
0.0
  3
*Model_Space
  1

  0
ENDBLK
  5
21
330
1F
100
AcDbEntity
  8
0
100
AcDbBlockEnd
  0
BLOCK
  5
1C
330
1B
100
AcDbEntity
 67
     1
  8
0
100
AcDbBlockBegin
  2
*Paper_Space
 70
     0
 71
     0
 10
0.0
 20
0.0
 30
0.0
  3
*Paper_Space
  1

  0
ENDBLK
  5
1D
330
1B
100
AcDbEntity
 67
     1
  8
0
100
AcDbBlockEnd
  0
BLOCK
  5
24
330
23
100
AcDbEntity
  8
0
100
AcDbBlockBegin
  2
*Paper_Space0
 70
     0
 71
     0
 10
0.0
 20
0.0
 30
0.0
  3
*Paper_Space0
  1

  0
ENDBLK
  5
25
330
23
100
AcDbEntity
  8
0
100
AcDbBlockEnd
  0
BLOCK
  5
3E
330
3C
100
AcDbEntity
  8
0
100
AcDbBlockBegin
  2
block 2
 70
     0
 71
     0
 10
0.0
 20
0.0
 30
0.0
  3
block 2
  1

  0
SPLINE
  5
40
330
3C
100
AcDbEntity
  8
Layer 1
370
     0
100
AcDbSpline
210
0.0
220
0.0
230
1.0
 70
    11
 71
     3
 72
    17
 73
    13
 74
     0
 42
0.0000000001
 43
0.0000000001
 40
0.0
 40
0.0
 40
0.0
 40
0.0
 40
1.0
 40
1.0
 40
1.0
 40
2.0
 40
2.0
 40
2.0
 40
3.0
 40
3.0
 40
3.0
 40
4.0
 40
4.0
 40
4.0
 40
4.0
 10
26.47953813235723
 20
-17.30627633223265
 30
0.0
 10
26.47953813235723
 20
-18.13499459791033
 30
0.0
 10
25.79499720785024
 20
-18.85570904887591
 30
0.0
 10
24.92941639616237
 20
-18.85570904887591
 30
0.0
 10
24.10069813048469
 20
-18.85570904887591
 30
0.0
 10
23.3796391697433
 20
-18.17099586948103
 30
0.0
 10
23.3796391697433
 20
-17.30627633223265
 30
0.0
 10
23.3796391697433
 20
-16.47755806655496
 30
0.0
 10
24.06486911380188
 20
-15.75684361558937
 30
0.0
 10
24.92941639616237
 20
-15.75684361558937
 30
0.0
 10
25.79499720785024
 20
-15.75684361558937
 30
0.0
 10
26.47953813235723
 20
-16.44155679498426
 30
0.0
 10
26.47953813235723
 20
-17.30627633223265
 30
0.0
  0
SPLINE
  5
41
330
3C
100
AcDbEntity
  8
Layer 1
370
     0
100
AcDbSpline
210
0.0
220
0.0
230
1.0
 70
    11
 71
     3
 72
    17
 73
    13
 74
     0
 42
0.0000000001
 43
0.0000000001
 40
0.0
 40
0.0
 40
0.0
 40
0.0
 40
1.0
 40
1.0
 40
1.0
 40
2.0
 40
2.0
 40
2.0
 40
3.0
 40
3.0
 40
3.0
 40
4.0
 40
4.0
 40
4.0
 40
4.0
 10
26.51467812948844
 20
-42.69423523997971
 30
0.0
 10
26.51467812948844
 20
-43.5227812507695
 30
0.0
 10
25.83013720498145
 20
-44.24349570173509
 30
0.0
 10
24.96490090306937
 20
-44.24349570173509
 30
0.0
 10
24.13583812761589
 20
-44.24349570173509
 30
0.0
 10
23.41512367665031
 20
-43.5589547772281
 30
0.0
 10
23.41512367665031
 20
-42.69423523997971
 30
0.0
 10
23.41512367665031
 20
-41.86500020963834
 30
0.0
 10
24.10000911093309
 20
-41.14463026844854
 30
0.0
 10
24.96490090306937
 20
-41.14463026844854
 30
0.0
 10
25.83013720498145
 20
-41.14463026844854
 30
0.0
 10
26.51467812948844
 20
-41.82951570273133
 30
0.0
 10
26.51467812948844
 20
-42.69423523997971
 30
0.0
  0
SPLINE
  5
42
330
3C
100
AcDbEntity
  8
Layer 1
370
     0
100
AcDbSpline
210
0.0
220
0.0
230
1.0
 70
    11
 71
     3
 72
    29
 73
    25
 74
     0
 42
0.0000000001
 43
0.0000000001
 40
0.0
 40
0.0
 40
0.0
 40
0.0
 40
1.0
 40
1.0
 40
1.0
 40
2.0
 40
2.0
 40
2.0
 40
3.0
 40
3.0
 40
3.0
 40
4.0
 40
4.0
 40
4.0
 40
5.0
 40
5.0
 40
5.0
 40
6.0
 40
6.0
 40
6.0
 40
7.0
 40
7.0
 40
7.0
 40
8.0
 40
8.0
 40
8.0
 40
8.0
 10
45.00003916938347
 20
-50.52218636562026
 30
0.0
 10
45.00003916938347
 20
-52.99025439942402
 30
0.0
 10
43.09558912878225
 20
-55.00012443141887
 30
0.0
 10
40.73190755704474
 20
-55.00012443141887
 30
0.0
 10
40.73190755704474
 20
-55.00012443141887
 30
0.0
 10
9.268001988468534
 20
-55.00012443141887
 30
0.0
 10
9.268001988468534
 20
-55.00012443141887
 30
0.0
 10
6.90518169117051
 20
-55.00012443141887
 30
0.0
 10
5.000042631017696
 20
-52.99025439942402
 30
0.0
 10
5.000042631017696
 20
-50.52218636562026
 30
0.0
 10
5.000042631017696
 20
-50.52218636562026
 30
0.0
 10
5.000042631017696
 20
-9.478152951704198
 30
0.0
 10
5.000042631017696
 20
-9.478152951704198
 30
0.0
 10
5.000042631017696
 20
-7.010257172788342
 30
0.0
 10
6.90518169117051
 20
-5.000042631017696
 30
0.0
 10
9.268001988468534
 20
-5.000042631017696
 30
0.0
 10
9.268001988468534
 20
-5.000042631017696
 30
0.0
 10
40.73190755704474
 20
-5.000042631017696
 30
0.0
 10
40.73190755704474
 20
-5.000042631017696
 30
0.0
 10
43.09558912878225
 20
-5.000042631017696
 30
0.0
 10
45.00003916938347
 20
-7.010257172788342
 30
0.0
 10
45.00003916938347
 20
-9.478152951704198
 30
0.0
 10
45.00003916938347
 20
-9.478152951704198
 30
0.0
 10
45.00003916938347
 20
-50.52218636562026
 30
0.0
 10
45.00003916938347
 20
-50.52218636562026
 30
0.0
  0
SPLINE
  5
43
330
3C
100
AcDbEntity
  8
Layer 1
370
     0
100
AcDbSpline
210
0.0
220
0.0
230
1.0
 70
    11
 71
     3
 72
    17
 73
    13
 74
     0
 42
0.0000000001
 43
0.0000000001
 40
0.0
 40
0.0
 40
0.0
 40
0.0
 40
1.0
 40
1.0
 40
1.0
 40
2.0
 40
2.0
 40
2.0
 40
3.0
 40
3.0
 40
3.0
 40
4.0
 40
4.0
 40
4.0
 40
4.0
 10
11.52350749060605
 20
-10.00731996732711
 30
0.0
 10
11.52350749060605
 20
-10.8360382330048
 30
0.0
 10
10.83879431121117
 20
-11.55675268397038
 30
0.0
 10
9.973730264186987
 20
-11.55675268397038
 30
0.0
 10
9.144667488733505
 20
-11.55675268397038
 30
0.0
 10
8.423953037767921
 20
-10.8720395045755
 30
0.0
 10
8.423953037767921
 20
-10.00731996732711
 30
0.0
 10
8.423953037767921
 20
-9.178601701649429
 30
0.0
 10
9.108666217162806
 20
-8.457887250683843
 30
0.0
 10
9.973730264186987
 20
-8.457887250683843
 30
0.0
 10
10.83879431121117
 20
-8.457887250683843
 30
0.0
 10
11.52350749060605
 20
-9.142600430078728
 30
0.0
 10
11.52350749060605
 20
-10.00731996732711
 30
0.0
  0
SPLINE
  5
44
330
3C
100
AcDbEntity
  8
Layer 1
370
     0
100
AcDbSpline
210
0.0
220
0.0
230
1.0
 70
    11
 71
     3
 72
    17
 73
    13
 74
     0
 42
0.0000000001
 43
0.0000000001
 40
0.0
 40
0.0
 40
0.0
 40
0.0
 40
1.0
 40
1.0
 40
1.0
 40
2.0
 40
2.0
 40
2.0
 40
3.0
 40
3.0
 40
3.0
 40
4.0
 40
4.0
 40
4.0
 40
4.0
 10
41.54116102038994
 20
-10.00731996732711
 30
0.0
 10
41.54116102038994
 20
-10.8360382330048
 30
0.0
 10
40.85627558610715
 20
-11.55675268397038
 30
0.0
 10
39.99155604885877
 20
-11.55675268397038
 30
0.0
 10
39.16232101851739
 20
-11.55675268397038
 30
0.0
 10
38.44160656755181
 20
-10.8720395045755
 30
0.0
 10
38.44160656755181
 20
-10.00731996732711
 30
0.0
 10
38.44160656755181
 20
-9.178601701649429
 30
0.0
 10
39.12614749205879
 20
-8.457887250683843
 30
0.0
 10
39.99155604885877
 20
-8.457887250683843
 30
0.0
 10
40.85627558610715
 20
-8.457887250683843
 30
0.0
 10
41.54116102038994
 20
-9.142600430078728
 30
0.0
 10
41.54116102038994
 20
-10.00731996732711
 30
0.0
  0
SPLINE
  5
45
330
3C
100
AcDbEntity
  8
Layer 1
370
     0
100
AcDbSpline
210
0.0
220
0.0
230
1.0
 70
    11
 71
     3
 72
    17
 73
    13
 74
     0
 42
0.0000000001
 43
0.0000000001
 40
0.0
 40
0.0
 40
0.0
 40
0.0
 40
1.0
 40
1.0
 40
1.0
 40
2.0
 40
2.0
 40
2.0
 40
3.0
 40
3.0
 40
3.0
 40
4.0
 40
4.0
 40
4.0
 40
4.0
 10
11.52350749060605
 20
-49.99336385977315
 30
0.0
 10
11.52350749060605
 20
-50.82190987056293
 30
0.0
 10
10.83879431121117
 20
-51.54262432152851
 30
0.0
 10
9.973730264186987
 20
-51.54262432152851
 30
0.0
 10
9.144667488733505
 20
-51.54262432152851
 30
0.0
 10
8.423953037767921
 20
-50.85808339702153
 30
0.0
 10
8.423953037767921
 20
-49.99336385977315
 30
0.0
 10
8.423953037767921
 20
-49.16447333920756
 30
0.0
 10
9.108666217162806
 20
-48.44410339801777
 30
0.0
 10
9.973730264186987
 20
-48.44410339801777
 30
0.0
 10
10.83879431121117
 20
-48.44410339801777
 30
0.0
 10
11.52350749060605
 20
-49.12864432252476
 30
0.0
 10
11.52350749060605
 20
-49.99336385977315
 30
0.0
  0
SPLINE
  5
46
330
3C
100
AcDbEntity
  8
Layer 1
370
     0
100
AcDbSpline
210
0.0
220
0.0
230
1.0
 70
    11
 71
     3
 72
    17
 73
    13
 74
     0
 42
0.0000000001
 43
0.0000000001
 40
0.0
 40
0.0
 40
0.0
 40
0.0
 40
1.0
 40
1.0
 40
1.0
 40
2.0
 40
2.0
 40
2.0
 40
3.0
 40
3.0
 40
3.0
 40
4.0
 40
4.0
 40
4.0
 40
4.0
 10
41.54116102038994
 20
-49.99336385977315
 30
0.0
 10
41.54116102038994
 20
-50.82190987056293
 30
0.0
 10
40.85627558610715
 20
-51.54262432152851
 30
0.0
 10
39.99155604885877
 20
-51.54262432152851
 30
0.0
 10
39.16232101851739
 20
-51.54262432152851
 30
0.0
 10
38.44160656755181
 20
-50.85808339702153
 30
0.0
 10
38.44160656755181
 20
-49.99336385977315
 30
0.0
 10
38.44160656755181
 20
-49.16447333920756
 30
0.0
 10
39.12614749205879
 20
-48.44410339801777
 30
0.0
 10
39.99155604885877
 20
-48.44410339801777
 30
0.0
 10
40.85627558610715
 20
-48.44410339801777
 30
0.0
 10
41.54116102038994
 20
-49.12864432252476
 30
0.0
 10
41.54116102038994
 20
-49.99336385977315
 30
0.0
  0
SPLINE
  5
47
330
3C
100
AcDbEntity
  8
Layer 1
370
     0
100
AcDbSpline
210
0.0
220
0.0
230
1.0
 70
    11
 71
     3
 72
    59
 73
    55
 74
     0
 42
0.0000000001
 43
0.0000000001
 40
0.0
 40
0.0
 40
0.0
 40
0.0
 40
1.0
 40
1.0
 40
1.0
 40
2.0
 40
2.0
 40
2.0
 40
3.0
 40
3.0
 40
3.0
 40
4.0
 40
4.0
 40
4.0
 40
5.0
 40
5.0
 40
5.0
 40
6.0
 40
6.0
 40
6.0
 40
7.0
 40
7.0
 40
7.0
 40
8.0
 40
8.0
 40
8.0
 40
9.0
 40
9.0
 40
9.0
 40
10.0
 40
10.0
 40
10.0
 40
11.0
 40
11.0
 40
11.0
 40
12.0
 40
12.0
 40
12.0
 40
13.0
 40
13.0
 40
13.0
 40
14.0
 40
14.0
 40
14.0
 40
15.0
 40
15.0
 40
15.0
 40
16.0
 40
16.0
 40
16.0
 40
17.0
 40
17.0
 40
17.0
 40
18.0
 40
18.0
 40
18.0
 40
18.0
 10
19.70923201841092
 20
-29.08351527271257
 30
0.0
 10
20.27371128605294
 20
-26.43871372392539
 30
0.0
 10
22.42534709078792
 20
-24.49946819596875
 30
0.0
 10
25.03552540710759
 20
-24.49946819596875
 30
0.0
 10
27.68084372055847
 20
-24.49946819596875
 30
0.0
 10
29.93841628135077
 20
-26.40340147190628
 30
0.0
 10
30.43209879006668
 20
-29.04820302069347
 30
0.0
 10
30.43209879006668
 20
-29.04820302069347
 30
0.0
 10
32.33689334044369
 20
-29.04820302069347
 30
0.0
 10
32.33689334044369
 20
-29.04820302069347
 30
0.0
 10
32.33689334044369
 20
-29.04820302069347
 30
0.0
 10
32.33689334044369
 20
-28.37830376165781
 30
0.0
 10
32.33689334044369
 20
-28.37830376165781
 30
0.0
 10
32.33689334044369
 20
-28.37830376165781
 30
0.0
 10
34.73571490931242
 20
-28.37830376165781
 30
0.0
 10
34.73571490931242
 20
-28.37830376165781
 30
0.0
 10
34.73571490931242
 20
-28.37830376165781
 30
0.0
 10
34.73571490931242
 20
-31.62203555566665
 30
0.0
 10
34.73571490931242
 20
-31.62203555566665
 30
0.0
 10
34.73571490931242
 20
-31.62203555566665
 30
0.0
 10
32.33689334044369
 20
-31.62203555566665
 30
0.0
 10
32.33689334044369
 20
-31.62203555566665
 30
0.0
 10
32.33689334044369
 20
-31.62203555566665
 30
0.0
 10
32.33689334044369
 20
-30.81105954344246
 30
0.0
 10
32.33689334044369
 20
-30.81105954344246
 30
0.0
 10
32.33689334044369
 20
-30.81105954344246
 30
0.0
 10
30.50306780388069
 20
-30.81105954344246
 30
0.0
 10
30.50306780388069
 20
-30.81105954344246
 30
0.0
 10
30.15028979346541
 20
-33.42037658532264
 30
0.0
 10
27.8220927286349
 20
-35.50087112135571
 30
0.0
 10
25.00021315508848
 20
-35.50087112135571
 30
0.0
 10
22.21364583356117
 20
-35.50087112135571
 30
0.0
 10
19.92093327563767
 20
-33.38523658819144
 30
0.0
 10
19.53284301320328
 20
-30.77591954631125
 30
0.0
 10
19.53284301320328
 20
-30.77591954631125
 30
0.0
 10
17.66353296973327
 20
-30.77591954631125
 30
0.0
 10
17.66353296973327
 20
-30.77591954631125
 30
0.0
 10
17.66353296973327
 20
-30.77591954631125
 30
0.0
 10
17.66353296973327
 20
-31.62203555566665
 30
0.0
 10
17.66353296973327
 20
-31.62203555566665
 30
0.0
 10
17.66353296973327
 20
-31.62203555566665
 30
0.0
 10
15.26453914597665
 20
-31.62203555566665
 30
0.0
 10
15.26453914597665
 20
-31.62203555566665
 30
0.0
 10
15.26453914597665
 20
-31.62203555566665
 30
0.0
 10
15.26453914597665
 20
-28.37830376165781
 30
0.0
 10
15.26453914597665
 20
-28.37830376165781
 30
0.0
 10
15.26453914597665
 20
-28.37830376165781
 30
0.0
 10
17.69884522175238
 20
-28.37830376165781
 30
0.0
 10
17.69884522175238
 20
-28.37830376165781
 30
0.0
 10
17.69884522175238
 20
-28.37830376165781
 30
0.0
 10
17.69884522175238
 20
-29.08351527271257
 30
0.0
 10
17.69884522175238
 20
-29.08351527271257
 30
0.0
 10
17.69884522175238
 20
-29.08351527271257
 30
0.0
 10
19.70923201841092
 20
-29.08351527271257
 30
0.0
 10
19.70923201841092
 20
-29.08351527271257
 30
0.0
  0
ENDBLK
  5
3F
330
3C
100
AcDbEntity
  8
0
100
AcDbBlockEnd
  0
BLOCK
  5
4A
330
48
100
AcDbEntity
  8
0
100
AcDbBlockBegin
  2
block 3
 70
     0
 71
     0
 10
0.0
 20
0.0
 30
0.0
  3
block 3
  1

  0
SPLINE
  5
4C
330
48
100
AcDbEntity
  8
Layer 1
370
     0
100
AcDbSpline
210
0.0
220
0.0
230
1.0
 70
    11
 71
     3
 72
    17
 73
    13
 74
     0
 42
0.0000000001
 43
0.0000000001
 40
0.0
 40
0.0
 40
0.0
 40
0.0
 40
1.0
 40
1.0
 40
1.0
 40
2.0
 40
2.0
 40
2.0
 40
3.0
 40
3.0
 40
3.0
 40
4.0
 40
4.0
 40
4.0
 40
4.0
 10
70.47946542260442
 20
-17.30627633223265
 30
0.0
 10
70.47946542260442
 20
-18.13499459791033
 30
0.0
 10
69.79492449809744
 20
-18.85570904887591
 30
0.0
 10
68.92934368640957
 20
-18.85570904887591
 30
0.0
 10
68.10062542073189
 20
-18.85570904887591
 30
0.0
 10
67.3795664599905
 20
-18.17099586948103
 30
0.0
 10
67.3795664599905
 20
-17.30627633223265
 30
0.0
 10
67.3795664599905
 20
-16.47755806655496
 30
0.0
 10
68.06479640404908
 20
-15.75684361558937
 30
0.0
 10
68.92934368640957
 20
-15.75684361558937
 30
0.0
 10
69.79492449809744
 20
-15.75684361558937
 30
0.0
 10
70.47946542260442
 20
-16.44155679498426
 30
0.0
 10
70.47946542260442
 20
-17.30627633223265
 30
0.0
  0
SPLINE
  5
4D
330
48
100
AcDbEntity
  8
Layer 1
370
     0
100
AcDbSpline
210
0.0
220
0.0
230
1.0
 70
    11
 71
     3
 72
    17
 73
    13
 74
     0
 42
0.0000000001
 43
0.0000000001
 40
0.0
 40
0.0
 40
0.0
 40
0.0
 40
1.0
 40
1.0
 40
1.0
 40
2.0
 40
2.0
 40
2.0
 40
3.0
 40
3.0
 40
3.0
 40
4.0
 40
4.0
 40
4.0
 40
4.0
 10
70.51460541973563
 20
-42.69423523997971
 30
0.0
 10
70.51460541973563
 20
-43.5227812507695
 30
0.0
 10
69.83006449522865
 20
-44.24349570173509
 30
0.0
 10
68.96482819331656
 20
-44.24349570173509
 30
0.0
 10
68.13576541786308
 20
-44.24349570173509
 30
0.0
 10
67.41505096689751
 20
-43.5589547772281
 30
0.0
 10
67.41505096689751
 20
-42.69423523997971
 30
0.0
 10
67.41505096689751
 20
-41.86500020963834
 30
0.0
 10
68.09993640118029
 20
-41.14463026844854
 30
0.0
 10
68.96482819331656
 20
-41.14463026844854
 30
0.0
 10
69.83006449522865
 20
-41.14463026844854
 30
0.0
 10
70.51460541973563
 20
-41.82951570273133
 30
0.0
 10
70.51460541973563
 20
-42.69423523997971
 30
0.0
  0
SPLINE
  5
4E
330
48
100
AcDbEntity
  8
Layer 1
370
     0
100
AcDbSpline
210
0.0
220
0.0
230
1.0
 70
    11
 71
     3
 72
    29
 73
    25
 74
     0
 42
0.0000000001
 43
0.0000000001
 40
0.0
 40
0.0
 40
0.0
 40
0.0
 40
1.0
 40
1.0
 40
1.0
 40
2.0
 40
2.0
 40
2.0
 40
3.0
 40
3.0
 40
3.0
 40
4.0
 40
4.0
 40
4.0
 40
5.0
 40
5.0
 40
5.0
 40
6.0
 40
6.0
 40
6.0
 40
7.0
 40
7.0
 40
7.0
 40
8.0
 40
8.0
 40
8.0
 40
8.0
 10
88.99996645963067
 20
-50.52218636562026
 30
0.0
 10
88.99996645963067
 20
-52.99025439942402
 30
0.0
 10
87.09551641902945
 20
-55.00012443141887
 30
0.0
 10
84.73183484729194
 20
-55.00012443141887
 30
0.0
 10
84.73183484729194
 20
-55.00012443141887
 30
0.0
 10
53.26792927871573
 20
-55.00012443141887
 30
0.0
 10
53.26792927871573
 20
-55.00012443141887
 30
0.0
 10
50.9051089814177
 20
-55.00012443141887
 30
0.0
 10
48.99996992126489
 20
-52.99025439942402
 30
0.0
 10
48.99996992126489
 20
-50.52218636562026
 30
0.0
 10
48.99996992126489
 20
-50.52218636562026
 30
0.0
 10
48.99996992126489
 20
-9.478152951704198
 30
0.0
 10
48.99996992126489
 20
-9.478152951704198
 30
0.0
 10
48.99996992126489
 20
-7.010257172788342
 30
0.0
 10
50.9051089814177
 20
-5.000042631017696
 30
0.0
 10
53.26792927871573
 20
-5.000042631017696
 30
0.0
 10
53.26792927871573
 20
-5.000042631017696
 30
0.0
 10
84.73183484729194
 20
-5.000042631017696
 30
0.0
 10
84.73183484729194
 20
-5.000042631017696
 30
0.0
 10
87.09551641902945
 20
-5.000042631017696
 30
0.0
 10
88.99996645963067
 20
-7.010257172788342
 30
0.0
 10
88.99996645963067
 20
-9.478152951704198
 30
0.0
 10
88.99996645963067
 20
-9.478152951704198
 30
0.0
 10
88.99996645963067
 20
-50.52218636562026
 30
0.0
 10
88.99996645963067
 20
-50.52218636562026
 30
0.0
  0
SPLINE
  5
4F
330
48
100
AcDbEntity
  8
Layer 1
370
     0
100
AcDbSpline
210
0.0
220
0.0
230
1.0
 70
    11
 71
     3
 72
    17
 73
    13
 74
     0
 42
0.0000000001
 43
0.0000000001
 40
0.0
 40
0.0
 40
0.0
 40
0.0
 40
1.0
 40
1.0
 40
1.0
 40
2.0
 40
2.0
 40
2.0
 40
3.0
 40
3.0
 40
3.0
 40
4.0
 40
4.0
 40
4.0
 40
4.0
 10
55.52343478085324
 20
-10.00731996732711
 30
0.0
 10
55.52343478085324
 20
-10.8360382330048
 30
0.0
 10
54.83872160145836
 20
-11.55675268397038
 30
0.0
 10
53.97365755443418
 20
-11.55675268397038
 30
0.0
 10
53.1445947789807
 20
-11.55675268397038
 30
0.0
 10
52.42388032801512
 20
-10.8720395045755
 30
0.0
 10
52.42388032801512
 20
-10.00731996732711
 30
0.0
 10
52.42388032801512
 20
-9.178601701649429
 30
0.0
 10
53.10859350741
 20
-8.457887250683843
 30
0.0
 10
53.97365755443418
 20
-8.457887250683843
 30
0.0
 10
54.83872160145836
 20
-8.457887250683843
 30
0.0
 10
55.52343478085324
 20
-9.142600430078728
 30
0.0
 10
55.52343478085324
 20
-10.00731996732711
 30
0.0
  0
SPLINE
  5
50
330
48
100
AcDbEntity
  8
Layer 1
370
     0
100
AcDbSpline
210
0.0
220
0.0
230
1.0
 70
    11
 71
     3
 72
    17
 73
    13
 74
     0
 42
0.0000000001
 43
0.0000000001
 40
0.0
 40
0.0
 40
0.0
 40
0.0
 40
1.0
 40
1.0
 40
1.0
 40
2.0
 40
2.0
 40
2.0
 40
3.0
 40
3.0
 40
3.0
 40
4.0
 40
4.0
 40
4.0
 40
4.0
 10
85.54108831063714
 20
-10.00731996732711
 30
0.0
 10
85.54108831063714
 20
-10.8360382330048
 30
0.0
 10
84.85620287635435
 20
-11.55675268397038
 30
0.0
 10
83.99148333910597
 20
-11.55675268397038
 30
0.0
 10
83.16224830876459
 20
-11.55675268397038
 30
0.0
 10
82.441533857799
 20
-10.8720395045755
 30
0.0
 10
82.441533857799
 20
-10.00731996732711
 30
0.0
 10
82.441533857799
 20
-9.178601701649429
 30
0.0
 10
83.12607478230599
 20
-8.457887250683843
 30
0.0
 10
83.99148333910597
 20
-8.457887250683843
 30
0.0
 10
84.85620287635435
 20
-8.457887250683843
 30
0.0
 10
85.54108831063714
 20
-9.142600430078728
 30
0.0
 10
85.54108831063714
 20
-10.00731996732711
 30
0.0
  0
SPLINE
  5
51
330
48
100
AcDbEntity
  8
Layer 1
370
     0
100
AcDbSpline
210
0.0
220
0.0
230
1.0
 70
    11
 71
     3
 72
    17
 73
    13
 74
     0
 42
0.0000000001
 43
0.0000000001
 40
0.0
 40
0.0
 40
0.0
 40
0.0
 40
1.0
 40
1.0
 40
1.0
 40
2.0
 40
2.0
 40
2.0
 40
3.0
 40
3.0
 40
3.0
 40
4.0
 40
4.0
 40
4.0
 40
4.0
 10
55.52343478085324
 20
-49.99336385977315
 30
0.0
 10
55.52343478085324
 20
-50.82190987056293
 30
0.0
 10
54.83872160145836
 20
-51.54262432152851
 30
0.0
 10
53.97365755443418
 20
-51.54262432152851
 30
0.0
 10
53.1445947789807
 20
-51.54262432152851
 30
0.0
 10
52.42388032801512
 20
-50.85808339702153
 30
0.0
 10
52.42388032801512
 20
-49.99336385977315
 30
0.0
 10
52.42388032801512
 20
-49.16447333920756
 30
0.0
 10
53.10859350741
 20
-48.44410339801777
 30
0.0
 10
53.97365755443418
 20
-48.44410339801777
 30
0.0
 10
54.83872160145836
 20
-48.44410339801777
 30
0.0
 10
55.52343478085324
 20
-49.12864432252476
 30
0.0
 10
55.52343478085324
 20
-49.99336385977315
 30
0.0
  0
SPLINE
  5
52
330
48
100
AcDbEntity
  8
Layer 1
370
     0
100
AcDbSpline
210
0.0
220
0.0
230
1.0
 70
    11
 71
     3
 72
    17
 73
    13
 74
     0
 42
0.0000000001
 43
0.0000000001
 40
0.0
 40
0.0
 40
0.0
 40
0.0
 40
1.0
 40
1.0
 40
1.0
 40
2.0
 40
2.0
 40
2.0
 40
3.0
 40
3.0
 40
3.0
 40
4.0
 40
4.0
 40
4.0
 40
4.0
 10
85.54108831063714
 20
-49.99336385977315
 30
0.0
 10
85.54108831063714
 20
-50.82190987056293
 30
0.0
 10
84.85620287635435
 20
-51.54262432152851
 30
0.0
 10
83.99148333910597
 20
-51.54262432152851
 30
0.0
 10
83.16224830876459
 20
-51.54262432152851
 30
0.0
 10
82.441533857799
 20
-50.85808339702153
 30
0.0
 10
82.441533857799
 20
-49.99336385977315
 30
0.0
 10
82.441533857799
 20
-49.16447333920756
 30
0.0
 10
83.12607478230599
 20
-48.44410339801777
 30
0.0
 10
83.99148333910597
 20
-48.44410339801777
 30
0.0
 10
84.85620287635435
 20
-48.44410339801777
 30
0.0
 10
85.54108831063714
 20
-49.12864432252476
 30
0.0
 10
85.54108831063714
 20
-49.99336385977315
 30
0.0
  0
SPLINE
  5
53
330
48
100
AcDbEntity
  8
Layer 1
370
     0
100
AcDbSpline
210
0.0
220
0.0
230
1.0
 70
    11
 71
     3
 72
    59
 73
    55
 74
     0
 42
0.0000000001
 43
0.0000000001
 40
0.0
 40
0.0
 40
0.0
 40
0.0
 40
1.0
 40
1.0
 40
1.0
 40
2.0
 40
2.0
 40
2.0
 40
3.0
 40
3.0
 40
3.0
 40
4.0
 40
4.0
 40
4.0
 40
5.0
 40
5.0
 40
5.0
 40
6.0
 40
6.0
 40
6.0
 40
7.0
 40
7.0
 40
7.0
 40
8.0
 40
8.0
 40
8.0
 40
9.0
 40
9.0
 40
9.0
 40
10.0
 40
10.0
 40
10.0
 40
11.0
 40
11.0
 40
11.0
 40
12.0
 40
12.0
 40
12.0
 40
13.0
 40
13.0
 40
13.0
 40
14.0
 40
14.0
 40
14.0
 40
15.0
 40
15.0
 40
15.0
 40
16.0
 40
16.0
 40
16.0
 40
17.0
 40
17.0
 40
17.0
 40
18.0
 40
18.0
 40
18.0
 40
18.0
 10
63.70915930865812
 20
-29.08351527271257
 30
0.0
 10
64.27363857630014
 20
-26.43871372392539
 30
0.0
 10
66.42527438103511
 20
-24.49946819596875
 30
0.0
 10
69.03545269735478
 20
-24.49946819596875
 30
0.0
 10
71.68077101080567
 20
-24.49946819596875
 30
0.0
 10
73.93834357159797
 20
-26.40340147190628
 30
0.0
 10
74.43202608031388
 20
-29.04820302069347
 30
0.0
 10
74.43202608031388
 20
-29.04820302069347
 30
0.0
 10
76.3368206306909
 20
-29.04820302069347
 30
0.0
 10
76.3368206306909
 20
-29.04820302069347
 30
0.0
 10
76.3368206306909
 20
-29.04820302069347
 30
0.0
 10
76.3368206306909
 20
-28.37830376165781
 30
0.0
 10
76.3368206306909
 20
-28.37830376165781
 30
0.0
 10
76.3368206306909
 20
-28.37830376165781
 30
0.0
 10
78.7356421995596
 20
-28.37830376165781
 30
0.0
 10
78.7356421995596
 20
-28.37830376165781
 30
0.0
 10
78.7356421995596
 20
-28.37830376165781
 30
0.0
 10
78.7356421995596
 20
-31.62203555566665
 30
0.0
 10
78.7356421995596
 20
-31.62203555566665
 30
0.0
 10
78.7356421995596
 20
-31.62203555566665
 30
0.0
 10
76.3368206306909
 20
-31.62203555566665
 30
0.0
 10
76.3368206306909
 20
-31.62203555566665
 30
0.0
 10
76.3368206306909
 20
-31.62203555566665
 30
0.0
 10
76.3368206306909
 20
-30.81105954344246
 30
0.0
 10
76.3368206306909
 20
-30.81105954344246
 30
0.0
 10
76.3368206306909
 20
-30.81105954344246
 30
0.0
 10
74.50299509412788
 20
-30.81105954344246
 30
0.0
 10
74.50299509412788
 20
-30.81105954344246
 30
0.0
 10
74.1502170837126
 20
-33.42037658532264
 30
0.0
 10
71.8220200188821
 20
-35.50087112135571
 30
0.0
 10
69.00014044533567
 20
-35.50087112135571
 30
0.0
 10
66.21357312380836
 20
-35.50087112135571
 30
0.0
 10
63.92086056588487
 20
-33.38523658819144
 30
0.0
 10
63.53277030345048
 20
-30.77591954631125
 30
0.0
 10
63.53277030345048
 20
-30.77591954631125
 30
0.0
 10
61.66346025998047
 20
-30.77591954631125
 30
0.0
 10
61.66346025998047
 20
-30.77591954631125
 30
0.0
 10
61.66346025998047
 20
-30.77591954631125
 30
0.0
 10
61.66346025998047
 20
-31.62203555566665
 30
0.0
 10
61.66346025998047
 20
-31.62203555566665
 30
0.0
 10
61.66346025998047
 20
-31.62203555566665
 30
0.0
 10
59.26446643622384
 20
-31.62203555566665
 30
0.0
 10
59.26446643622384
 20
-31.62203555566665
 30
0.0
 10
59.26446643622384
 20
-31.62203555566665
 30
0.0
 10
59.26446643622384
 20
-28.37830376165781
 30
0.0
 10
59.26446643622384
 20
-28.37830376165781
 30
0.0
 10
59.26446643622384
 20
-28.37830376165781
 30
0.0
 10
61.69877251199957
 20
-28.37830376165781
 30
0.0
 10
61.69877251199957
 20
-28.37830376165781
 30
0.0
 10
61.69877251199957
 20
-28.37830376165781
 30
0.0
 10
61.69877251199957
 20
-29.08351527271257
 30
0.0
 10
61.69877251199957
 20
-29.08351527271257
 30
0.0
 10
61.69877251199957
 20
-29.08351527271257
 30
0.0
 10
63.70915930865812
 20
-29.08351527271257
 30
0.0
 10
63.70915930865812
 20
-29.08351527271257
 30
0.0
  0
ENDBLK
  5
4B
330
48
100
AcDbEntity
  8
0
100
AcDbBlockEnd
  0
BLOCK
  5
56
330
54
100
AcDbEntity
  8
0
100
AcDbBlockBegin
  2
block 4
 70
     0
 71
     0
 10
0.0
 20
0.0
 30
0.0
  3
block 4
  1

  0
SPLINE
  5
58
330
54
100
AcDbEntity
  8
Layer 1
370
     0
100
AcDbSpline
210
0.0
220
0.0
230
1.0
 70
    11
 71
     3
 72
    17
 73
    13
 74
     0
 42
0.0000000001
 43
0.0000000001
 40
0.0
 40
0.0
 40
0.0
 40
0.0
 40
1.0
 40
1.0
 40
1.0
 40
2.0
 40
2.0
 40
2.0
 40
3.0
 40
3.0
 40
3.0
 40
4.0
 40
4.0
 40
4.0
 40
4.0
 10
26.47953813235723
 20
-71.30628888451523
 30
0.0
 10
26.47953813235723
 20
-72.13500715019292
 30
0.0
 10
25.79499720785024
 20
-72.8557216011585
 30
0.0
 10
24.92941639616237
 20
-72.8557216011585
 30
0.0
 10
24.10069813048469
 20
-72.8557216011585
 30
0.0
 10
23.3796391697433
 20
-72.17100842176362
 30
0.0
 10
23.3796391697433
 20
-71.30628888451523
 30
0.0
 10
23.3796391697433
 20
-70.47757061883755
 30
0.0
 10
24.06486911380188
 20
-69.75685616787196
 30
0.0
 10
24.92941639616237
 20
-69.75685616787196
 30
0.0
 10
25.79499720785024
 20
-69.75685616787196
 30
0.0
 10
26.47953813235723
 20
-70.44156934726685
 30
0.0
 10
26.47953813235723
 20
-71.30628888451523
 30
0.0
  0
SPLINE
  5
59
330
54
100
AcDbEntity
  8
Layer 1
370
     0
100
AcDbSpline
210
0.0
220
0.0
230
1.0
 70
    11
 71
     3
 72
    17
 73
    13
 74
     0
 42
0.0000000001
 43
0.0000000001
 40
0.0
 40
0.0
 40
0.0
 40
0.0
 40
1.0
 40
1.0
 40
1.0
 40
2.0
 40
2.0
 40
2.0
 40
3.0
 40
3.0
 40
3.0
 40
4.0
 40
4.0
 40
4.0
 40
4.0
 10
26.51467812948844
 20
-96.6942477922623
 30
0.0
 10
26.51467812948844
 20
-97.52279380305208
 30
0.0
 10
25.83013720498145
 20
-98.24350825401767
 30
0.0
 10
24.96490090306937
 20
-98.24350825401767
 30
0.0
 10
24.13583812761589
 20
-98.24350825401767
 30
0.0
 10
23.41512367665031
 20
-97.5589673295107
 30
0.0
 10
23.41512367665031
 20
-96.6942477922623
 30
0.0
 10
23.41512367665031
 20
-95.86501276192092
 30
0.0
 10
24.10000911093309
 20
-95.14464282073114
 30
0.0
 10
24.96490090306937
 20
-95.14464282073114
 30
0.0
 10
25.83013720498145
 20
-95.14464282073114
 30
0.0
 10
26.51467812948844
 20
-95.82952825501391
 30
0.0
 10
26.51467812948844
 20
-96.6942477922623
 30
0.0
  0
SPLINE
  5
5A
330
54
100
AcDbEntity
  8
Layer 1
370
     0
100
AcDbSpline
210
0.0
220
0.0
230
1.0
 70
    11
 71
     3
 72
    29
 73
    25
 74
     0
 42
0.0000000001
 43
0.0000000001
 40
0.0
 40
0.0
 40
0.0
 40
0.0
 40
1.0
 40
1.0
 40
1.0
 40
2.0
 40
2.0
 40
2.0
 40
3.0
 40
3.0
 40
3.0
 40
4.0
 40
4.0
 40
4.0
 40
5.0
 40
5.0
 40
5.0
 40
6.0
 40
6.0
 40
6.0
 40
7.0
 40
7.0
 40
7.0
 40
8.0
 40
8.0
 40
8.0
 40
8.0
 10
45.00003916938347
 20
-104.5221989179029
 30
0.0
 10
45.00003916938347
 20
-106.9902669517066
 30
0.0
 10
43.09558912878225
 20
-109.0001369837015
 30
0.0
 10
40.73190755704474
 20
-109.0001369837015
 30
0.0
 10
40.73190755704474
 20
-109.0001369837015
 30
0.0
 10
9.268001988468534
 20
-109.0001369837015
 30
0.0
 10
9.268001988468534
 20
-109.0001369837015
 30
0.0
 10
6.90518169117051
 20
-109.0001369837015
 30
0.0
 10
5.000042631017696
 20
-106.9902669517066
 30
0.0
 10
5.000042631017696
 20
-104.5221989179029
 30
0.0
 10
5.000042631017696
 20
-104.5221989179029
 30
0.0
 10
5.000042631017696
 20
-63.47816550398679
 30
0.0
 10
5.000042631017696
 20
-63.47816550398679
 30
0.0
 10
5.000042631017696
 20
-61.01026972507093
 30
0.0
 10
6.90518169117051
 20
-59.00005518330028
 30
0.0
 10
9.268001988468534
 20
-59.00005518330028
 30
0.0
 10
9.268001988468534
 20
-59.00005518330028
 30
0.0
 10
40.73190755704474
 20
-59.00005518330028
 30
0.0
 10
40.73190755704474
 20
-59.00005518330028
 30
0.0
 10
43.09558912878225
 20
-59.00005518330028
 30
0.0
 10
45.00003916938347
 20
-61.01026972507093
 30
0.0
 10
45.00003916938347
 20
-63.47816550398679
 30
0.0
 10
45.00003916938347
 20
-63.47816550398679
 30
0.0
 10
45.00003916938347
 20
-104.5221989179029
 30
0.0
 10
45.00003916938347
 20
-104.5221989179029
 30
0.0
  0
SPLINE
  5
5B
330
54
100
AcDbEntity
  8
Layer 1
370
     0
100
AcDbSpline
210
0.0
220
0.0
230
1.0
 70
    11
 71
     3
 72
    17
 73
    13
 74
     0
 42
0.0000000001
 43
0.0000000001
 40
0.0
 40
0.0
 40
0.0
 40
0.0
 40
1.0
 40
1.0
 40
1.0
 40
2.0
 40
2.0
 40
2.0
 40
3.0
 40
3.0
 40
3.0
 40
4.0
 40
4.0
 40
4.0
 40
4.0
 10
11.52350749060605
 20
-64.0073325196097
 30
0.0
 10
11.52350749060605
 20
-64.83605078528738
 30
0.0
 10
10.83879431121117
 20
-65.55676523625297
 30
0.0
 10
9.973730264186987
 20
-65.55676523625297
 30
0.0
 10
9.144667488733505
 20
-65.55676523625297
 30
0.0
 10
8.423953037767921
 20
-64.87205205685808
 30
0.0
 10
8.423953037767921
 20
-64.0073325196097
 30
0.0
 10
8.423953037767921
 20
-63.17861425393202
 30
0.0
 10
9.108666217162806
 20
-62.45789980296643
 30
0.0
 10
9.973730264186987
 20
-62.45789980296643
 30
0.0
 10
10.83879431121117
 20
-62.45789980296643
 30
0.0
 10
11.52350749060605
 20
-63.14261298236131
 30
0.0
 10
11.52350749060605
 20
-64.0073325196097
 30
0.0
  0
SPLINE
  5
5C
330
54
100
AcDbEntity
  8
Layer 1
370
     0
100
AcDbSpline
210
0.0
220
0.0
230
1.0
 70
    11
 71
     3
 72
    17
 73
    13
 74
     0
 42
0.0000000001
 43
0.0000000001
 40
0.0
 40
0.0
 40
0.0
 40
0.0
 40
1.0
 40
1.0
 40
1.0
 40
2.0
 40
2.0
 40
2.0
 40
3.0
 40
3.0
 40
3.0
 40
4.0
 40
4.0
 40
4.0
 40
4.0
 10
41.54116102038994
 20
-64.0073325196097
 30
0.0
 10
41.54116102038994
 20
-64.83605078528738
 30
0.0
 10
40.85627558610715
 20
-65.55676523625297
 30
0.0
 10
39.99155604885877
 20
-65.55676523625297
 30
0.0
 10
39.16232101851739
 20
-65.55676523625297
 30
0.0
 10
38.44160656755181
 20
-64.87205205685808
 30
0.0
 10
38.44160656755181
 20
-64.0073325196097
 30
0.0
 10
38.44160656755181
 20
-63.17861425393202
 30
0.0
 10
39.12614749205879
 20
-62.45789980296643
 30
0.0
 10
39.99155604885877
 20
-62.45789980296643
 30
0.0
 10
40.85627558610715
 20
-62.45789980296643
 30
0.0
 10
41.54116102038994
 20
-63.14261298236131
 30
0.0
 10
41.54116102038994
 20
-64.0073325196097
 30
0.0
  0
SPLINE
  5
5D
330
54
100
AcDbEntity
  8
Layer 1
370
     0
100
AcDbSpline
210
0.0
220
0.0
230
1.0
 70
    11
 71
     3
 72
    17
 73
    13
 74
     0
 42
0.0000000001
 43
0.0000000001
 40
0.0
 40
0.0
 40
0.0
 40
0.0
 40
1.0
 40
1.0
 40
1.0
 40
2.0
 40
2.0
 40
2.0
 40
3.0
 40
3.0
 40
3.0
 40
4.0
 40
4.0
 40
4.0
 40
4.0
 10
11.52350749060605
 20
-103.9933764120557
 30
0.0
 10
11.52350749060605
 20
-104.8219224228455
 30
0.0
 10
10.83879431121117
 20
-105.5426368738111
 30
0.0
 10
9.973730264186987
 20
-105.5426368738111
 30
0.0
 10
9.144667488733505
 20
-105.5426368738111
 30
0.0
 10
8.423953037767921
 20
-104.8580959493041
 30
0.0
 10
8.423953037767921
 20
-103.9933764120557
 30
0.0
 10
8.423953037767921
 20
-103.1644858914901
 30
0.0
 10
9.108666217162806
 20
-102.4441159503004
 30
0.0
 10
9.973730264186987
 20
-102.4441159503004
 30
0.0
 10
10.83879431121117
 20
-102.4441159503004
 30
0.0
 10
11.52350749060605
 20
-103.1286568748073
 30
0.0
 10
11.52350749060605
 20
-103.9933764120557
 30
0.0
  0
SPLINE
  5
5E
330
54
100
AcDbEntity
  8
Layer 1
370
     0
100
AcDbSpline
210
0.0
220
0.0
230
1.0
 70
    11
 71
     3
 72
    17
 73
    13
 74
     0
 42
0.0000000001
 43
0.0000000001
 40
0.0
 40
0.0
 40
0.0
 40
0.0
 40
1.0
 40
1.0
 40
1.0
 40
2.0
 40
2.0
 40
2.0
 40
3.0
 40
3.0
 40
3.0
 40
4.0
 40
4.0
 40
4.0
 40
4.0
 10
41.54116102038994
 20
-103.9933764120557
 30
0.0
 10
41.54116102038994
 20
-104.8219224228455
 30
0.0
 10
40.85627558610715
 20
-105.5426368738111
 30
0.0
 10
39.99155604885877
 20
-105.5426368738111
 30
0.0
 10
39.16232101851739
 20
-105.5426368738111
 30
0.0
 10
38.44160656755181
 20
-104.8580959493041
 30
0.0
 10
38.44160656755181
 20
-103.9933764120557
 30
0.0
 10
38.44160656755181
 20
-103.1644858914901
 30
0.0
 10
39.12614749205879
 20
-102.4441159503004
 30
0.0
 10
39.99155604885877
 20
-102.4441159503004
 30
0.0
 10
40.85627558610715
 20
-102.4441159503004
 30
0.0
 10
41.54116102038994
 20
-103.1286568748073
 30
0.0
 10
41.54116102038994
 20
-103.9933764120557
 30
0.0
  0
SPLINE
  5
5F
330
54
100
AcDbEntity
  8
Layer 1
370
     0
100
AcDbSpline
210
0.0
220
0.0
230
1.0
 70
    11
 71
     3
 72
    59
 73
    55
 74
     0
 42
0.0000000001
 43
0.0000000001
 40
0.0
 40
0.0
 40
0.0
 40
0.0
 40
1.0
 40
1.0
 40
1.0
 40
2.0
 40
2.0
 40
2.0
 40
3.0
 40
3.0
 40
3.0
 40
4.0
 40
4.0
 40
4.0
 40
5.0
 40
5.0
 40
5.0
 40
6.0
 40
6.0
 40
6.0
 40
7.0
 40
7.0
 40
7.0
 40
8.0
 40
8.0
 40
8.0
 40
9.0
 40
9.0
 40
9.0
 40
10.0
 40
10.0
 40
10.0
 40
11.0
 40
11.0
 40
11.0
 40
12.0
 40
12.0
 40
12.0
 40
13.0
 40
13.0
 40
13.0
 40
14.0
 40
14.0
 40
14.0
 40
15.0
 40
15.0
 40
15.0
 40
16.0
 40
16.0
 40
16.0
 40
17.0
 40
17.0
 40
17.0
 40
18.0
 40
18.0
 40
18.0
 40
18.0
 10
19.70923201841092
 20
-83.08352782499516
 30
0.0
 10
20.27371128605294
 20
-80.43872627620797
 30
0.0
 10
22.42534709078792
 20
-78.49948074825134
 30
0.0
 10
25.03552540710759
 20
-78.49948074825134
 30
0.0
 10
27.68084372055847
 20
-78.49948074825134
 30
0.0
 10
29.93841628135077
 20
-80.40341402418886
 30
0.0
 10
30.43209879006668
 20
-83.04821557297605
 30
0.0
 10
30.43209879006668
 20
-83.04821557297605
 30
0.0
 10
32.33689334044369
 20
-83.04821557297605
 30
0.0
 10
32.33689334044369
 20
-83.04821557297605
 30
0.0
 10
32.33689334044369
 20
-83.04821557297605
 30
0.0
 10
32.33689334044369
 20
-82.3783163139404
 30
0.0
 10
32.33689334044369
 20
-82.3783163139404
 30
0.0
 10
32.33689334044369
 20
-82.3783163139404
 30
0.0
 10
34.73571490931242
 20
-82.3783163139404
 30
0.0
 10
34.73571490931242
 20
-82.3783163139404
 30
0.0
 10
34.73571490931242
 20
-82.3783163139404
 30
0.0
 10
34.73571490931242
 20
-85.62204810794923
 30
0.0
 10
34.73571490931242
 20
-85.62204810794923
 30
0.0
 10
34.73571490931242
 20
-85.62204810794923
 30
0.0
 10
32.33689334044369
 20
-85.62204810794923
 30
0.0
 10
32.33689334044369
 20
-85.62204810794923
 30
0.0
 10
32.33689334044369
 20
-85.62204810794923
 30
0.0
 10
32.33689334044369
 20
-84.81107209572505
 30
0.0
 10
32.33689334044369
 20
-84.81107209572505
 30
0.0
 10
32.33689334044369
 20
-84.81107209572505
 30
0.0
 10
30.50306780388069
 20
-84.81107209572505
 30
0.0
 10
30.50306780388069
 20
-84.81107209572505
 30
0.0
 10
30.15028979346541
 20
-87.42038913760523
 30
0.0
 10
27.8220927286349
 20
-89.5008836736383
 30
0.0
 10
25.00021315508848
 20
-89.5008836736383
 30
0.0
 10
22.21364583356117
 20
-89.5008836736383
 30
0.0
 10
19.92093327563767
 20
-87.38524914047403
 30
0.0
 10
19.53284301320328
 20
-84.77593209859384
 30
0.0
 10
19.53284301320328
 20
-84.77593209859384
 30
0.0
 10
17.66353296973327
 20
-84.77593209859384
 30
0.0
 10
17.66353296973327
 20
-84.77593209859384
 30
0.0
 10
17.66353296973327
 20
-84.77593209859384
 30
0.0
 10
17.66353296973327
 20
-85.62204810794923
 30
0.0
 10
17.66353296973327
 20
-85.62204810794923
 30
0.0
 10
17.66353296973327
 20
-85.62204810794923
 30
0.0
 10
15.26453914597665
 20
-85.62204810794923
 30
0.0
 10
15.26453914597665
 20
-85.62204810794923
 30
0.0
 10
15.26453914597665
 20
-85.62204810794923
 30
0.0
 10
15.26453914597665
 20
-82.3783163139404
 30
0.0
 10
15.26453914597665
 20
-82.3783163139404
 30
0.0
 10
15.26453914597665
 20
-82.3783163139404
 30
0.0
 10
17.69884522175238
 20
-82.3783163139404
 30
0.0
 10
17.69884522175238
 20
-82.3783163139404
 30
0.0
 10
17.69884522175238
 20
-82.3783163139404
 30
0.0
 10
17.69884522175238
 20
-83.08352782499516
 30
0.0
 10
17.69884522175238
 20
-83.08352782499516
 30
0.0
 10
17.69884522175238
 20
-83.08352782499516
 30
0.0
 10
19.70923201841092
 20
-83.08352782499516
 30
0.0
 10
19.70923201841092
 20
-83.08352782499516
 30
0.0
  0
ENDBLK
  5
57
330
54
100
AcDbEntity
  8
0
100
AcDbBlockEnd
  0
BLOCK
  5
62
330
60
100
AcDbEntity
  8
0
100
AcDbBlockBegin
  2
block 5
 70
     0
 71
     0
 10
0.0
 20
0.0
 30
0.0
  3
block 5
  1

  0
SPLINE
  5
64
330
60
100
AcDbEntity
  8
Layer 1
370
     0
100
AcDbSpline
210
0.0
220
0.0
230
1.0
 70
    11
 71
     3
 72
    17
 73
    13
 74
     0
 42
0.0000000001
 43
0.0000000001
 40
0.0
 40
0.0
 40
0.0
 40
0.0
 40
1.0
 40
1.0
 40
1.0
 40
2.0
 40
2.0
 40
2.0
 40
3.0
 40
3.0
 40
3.0
 40
4.0
 40
4.0
 40
4.0
 40
4.0
 10
70.47946542260442
 20
-71.30628888451523
 30
0.0
 10
70.47946542260442
 20
-72.13500715019292
 30
0.0
 10
69.79492449809744
 20
-72.8557216011585
 30
0.0
 10
68.92934368640957
 20
-72.8557216011585
 30
0.0
 10
68.10062542073189
 20
-72.8557216011585
 30
0.0
 10
67.3795664599905
 20
-72.17100842176362
 30
0.0
 10
67.3795664599905
 20
-71.30628888451523
 30
0.0
 10
67.3795664599905
 20
-70.47757061883755
 30
0.0
 10
68.06479640404908
 20
-69.75685616787196
 30
0.0
 10
68.92934368640957
 20
-69.75685616787196
 30
0.0
 10
69.79492449809744
 20
-69.75685616787196
 30
0.0
 10
70.47946542260442
 20
-70.44156934726685
 30
0.0
 10
70.47946542260442
 20
-71.30628888451523
 30
0.0
  0
SPLINE
  5
65
330
60
100
AcDbEntity
  8
Layer 1
370
     0
100
AcDbSpline
210
0.0
220
0.0
230
1.0
 70
    11
 71
     3
 72
    17
 73
    13
 74
     0
 42
0.0000000001
 43
0.0000000001
 40
0.0
 40
0.0
 40
0.0
 40
0.0
 40
1.0
 40
1.0
 40
1.0
 40
2.0
 40
2.0
 40
2.0
 40
3.0
 40
3.0
 40
3.0
 40
4.0
 40
4.0
 40
4.0
 40
4.0
 10
70.51460541973563
 20
-96.6942477922623
 30
0.0
 10
70.51460541973563
 20
-97.52279380305208
 30
0.0
 10
69.83006449522865
 20
-98.24350825401767
 30
0.0
 10
68.96482819331656
 20
-98.24350825401767
 30
0.0
 10
68.13576541786308
 20
-98.24350825401767
 30
0.0
 10
67.41505096689751
 20
-97.5589673295107
 30
0.0
 10
67.41505096689751
 20
-96.6942477922623
 30
0.0
 10
67.41505096689751
 20
-95.86501276192092
 30
0.0
 10
68.09993640118029
 20
-95.14464282073114
 30
0.0
 10
68.96482819331656
 20
-95.14464282073114
 30
0.0
 10
69.83006449522865
 20
-95.14464282073114
 30
0.0
 10
70.51460541973563
 20
-95.82952825501391
 30
0.0
 10
70.51460541973563
 20
-96.6942477922623
 30
0.0
  0
SPLINE
  5
66
330
60
100
AcDbEntity
  8
Layer 1
370
     0
100
AcDbSpline
210
0.0
220
0.0
230
1.0
 70
    11
 71
     3
 72
    29
 73
    25
 74
     0
 42
0.0000000001
 43
0.0000000001
 40
0.0
 40
0.0
 40
0.0
 40
0.0
 40
1.0
 40
1.0
 40
1.0
 40
2.0
 40
2.0
 40
2.0
 40
3.0
 40
3.0
 40
3.0
 40
4.0
 40
4.0
 40
4.0
 40
5.0
 40
5.0
 40
5.0
 40
6.0
 40
6.0
 40
6.0
 40
7.0
 40
7.0
 40
7.0
 40
8.0
 40
8.0
 40
8.0
 40
8.0
 10
88.99996645963067
 20
-104.5221989179029
 30
0.0
 10
88.99996645963067
 20
-106.9902669517066
 30
0.0
 10
87.09551641902945
 20
-109.0001369837015
 30
0.0
 10
84.73183484729194
 20
-109.0001369837015
 30
0.0
 10
84.73183484729194
 20
-109.0001369837015
 30
0.0
 10
53.26792927871573
 20
-109.0001369837015
 30
0.0
 10
53.26792927871573
 20
-109.0001369837015
 30
0.0
 10
50.9051089814177
 20
-109.0001369837015
 30
0.0
 10
48.99996992126489
 20
-106.9902669517066
 30
0.0
 10
48.99996992126489
 20
-104.5221989179029
 30
0.0
 10
48.99996992126489
 20
-104.5221989179029
 30
0.0
 10
48.99996992126489
 20
-63.47816550398679
 30
0.0
 10
48.99996992126489
 20
-63.47816550398679
 30
0.0
 10
48.99996992126489
 20
-61.01026972507093
 30
0.0
 10
50.9051089814177
 20
-59.00005518330028
 30
0.0
 10
53.26792927871573
 20
-59.00005518330028
 30
0.0
 10
53.26792927871573
 20
-59.00005518330028
 30
0.0
 10
84.73183484729194
 20
-59.00005518330028
 30
0.0
 10
84.73183484729194
 20
-59.00005518330028
 30
0.0
 10
87.09551641902945
 20
-59.00005518330028
 30
0.0
 10
88.99996645963067
 20
-61.01026972507093
 30
0.0
 10
88.99996645963067
 20
-63.47816550398679
 30
0.0
 10
88.99996645963067
 20
-63.47816550398679
 30
0.0
 10
88.99996645963067
 20
-104.5221989179029
 30
0.0
 10
88.99996645963067
 20
-104.5221989179029
 30
0.0
  0
SPLINE
  5
67
330
60
100
AcDbEntity
  8
Layer 1
370
     0
100
AcDbSpline
210
0.0
220
0.0
230
1.0
 70
    11
 71
     3
 72
    17
 73
    13
 74
     0
 42
0.0000000001
 43
0.0000000001
 40
0.0
 40
0.0
 40
0.0
 40
0.0
 40
1.0
 40
1.0
 40
1.0
 40
2.0
 40
2.0
 40
2.0
 40
3.0
 40
3.0
 40
3.0
 40
4.0
 40
4.0
 40
4.0
 40
4.0
 10
55.52343478085324
 20
-64.0073325196097
 30
0.0
 10
55.52343478085324
 20
-64.83605078528738
 30
0.0
 10
54.83872160145836
 20
-65.55676523625297
 30
0.0
 10
53.97365755443418
 20
-65.55676523625297
 30
0.0
 10
53.1445947789807
 20
-65.55676523625297
 30
0.0
 10
52.42388032801512
 20
-64.87205205685808
 30
0.0
 10
52.42388032801512
 20
-64.0073325196097
 30
0.0
 10
52.42388032801512
 20
-63.17861425393202
 30
0.0
 10
53.10859350741
 20
-62.45789980296643
 30
0.0
 10
53.97365755443418
 20
-62.45789980296643
 30
0.0
 10
54.83872160145836
 20
-62.45789980296643
 30
0.0
 10
55.52343478085324
 20
-63.14261298236131
 30
0.0
 10
55.52343478085324
 20
-64.0073325196097
 30
0.0
  0
SPLINE
  5
68
330
60
100
AcDbEntity
  8
Layer 1
370
     0
100
AcDbSpline
210
0.0
220
0.0
230
1.0
 70
    11
 71
     3
 72
    17
 73
    13
 74
     0
 42
0.0000000001
 43
0.0000000001
 40
0.0
 40
0.0
 40
0.0
 40
0.0
 40
1.0
 40
1.0
 40
1.0
 40
2.0
 40
2.0
 40
2.0
 40
3.0
 40
3.0
 40
3.0
 40
4.0
 40
4.0
 40
4.0
 40
4.0
 10
85.54108831063714
 20
-64.0073325196097
 30
0.0
 10
85.54108831063714
 20
-64.83605078528738
 30
0.0
 10
84.85620287635435
 20
-65.55676523625297
 30
0.0
 10
83.99148333910597
 20
-65.55676523625297
 30
0.0
 10
83.16224830876459
 20
-65.55676523625297
 30
0.0
 10
82.441533857799
 20
-64.87205205685808
 30
0.0
 10
82.441533857799
 20
-64.0073325196097
 30
0.0
 10
82.441533857799
 20
-63.17861425393202
 30
0.0
 10
83.12607478230599
 20
-62.45789980296643
 30
0.0
 10
83.99148333910597
 20
-62.45789980296643
 30
0.0
 10
84.85620287635435
 20
-62.45789980296643
 30
0.0
 10
85.54108831063714
 20
-63.14261298236131
 30
0.0
 10
85.54108831063714
 20
-64.0073325196097
 30
0.0
  0
SPLINE
  5
69
330
60
100
AcDbEntity
  8
Layer 1
370
     0
100
AcDbSpline
210
0.0
220
0.0
230
1.0
 70
    11
 71
     3
 72
    17
 73
    13
 74
     0
 42
0.0000000001
 43
0.0000000001
 40
0.0
 40
0.0
 40
0.0
 40
0.0
 40
1.0
 40
1.0
 40
1.0
 40
2.0
 40
2.0
 40
2.0
 40
3.0
 40
3.0
 40
3.0
 40
4.0
 40
4.0
 40
4.0
 40
4.0
 10
55.52343478085324
 20
-103.9933764120557
 30
0.0
 10
55.52343478085324
 20
-104.8219224228455
 30
0.0
 10
54.83872160145836
 20
-105.5426368738111
 30
0.0
 10
53.97365755443418
 20
-105.5426368738111
 30
0.0
 10
53.1445947789807
 20
-105.5426368738111
 30
0.0
 10
52.42388032801512
 20
-104.8580959493041
 30
0.0
 10
52.42388032801512
 20
-103.9933764120557
 30
0.0
 10
52.42388032801512
 20
-103.1644858914901
 30
0.0
 10
53.10859350741
 20
-102.4441159503004
 30
0.0
 10
53.97365755443418
 20
-102.4441159503004
 30
0.0
 10
54.83872160145836
 20
-102.4441159503004
 30
0.0
 10
55.52343478085324
 20
-103.1286568748073
 30
0.0
 10
55.52343478085324
 20
-103.9933764120557
 30
0.0
  0
SPLINE
  5
6A
330
60
100
AcDbEntity
  8
Layer 1
370
     0
100
AcDbSpline
210
0.0
220
0.0
230
1.0
 70
    11
 71
     3
 72
    17
 73
    13
 74
     0
 42
0.0000000001
 43
0.0000000001
 40
0.0
 40
0.0
 40
0.0
 40
0.0
 40
1.0
 40
1.0
 40
1.0
 40
2.0
 40
2.0
 40
2.0
 40
3.0
 40
3.0
 40
3.0
 40
4.0
 40
4.0
 40
4.0
 40
4.0
 10
85.54108831063714
 20
-103.9933764120557
 30
0.0
 10
85.54108831063714
 20
-104.8219224228455
 30
0.0
 10
84.85620287635435
 20
-105.5426368738111
 30
0.0
 10
83.99148333910597
 20
-105.5426368738111
 30
0.0
 10
83.16224830876459
 20
-105.5426368738111
 30
0.0
 10
82.441533857799
 20
-104.8580959493041
 30
0.0
 10
82.441533857799
 20
-103.9933764120557
 30
0.0
 10
82.441533857799
 20
-103.1644858914901
 30
0.0
 10
83.12607478230599
 20
-102.4441159503004
 30
0.0
 10
83.99148333910597
 20
-102.4441159503004
 30
0.0
 10
84.85620287635435
 20
-102.4441159503004
 30
0.0
 10
85.54108831063714
 20
-103.1286568748073
 30
0.0
 10
85.54108831063714
 20
-103.9933764120557
 30
0.0
  0
SPLINE
  5
6B
330
60
100
AcDbEntity
  8
Layer 1
370
     0
100
AcDbSpline
210
0.0
220
0.0
230
1.0
 70
    11
 71
     3
 72
    59
 73
    55
 74
     0
 42
0.0000000001
 43
0.0000000001
 40
0.0
 40
0.0
 40
0.0
 40
0.0
 40
1.0
 40
1.0
 40
1.0
 40
2.0
 40
2.0
 40
2.0
 40
3.0
 40
3.0
 40
3.0
 40
4.0
 40
4.0
 40
4.0
 40
5.0
 40
5.0
 40
5.0
 40
6.0
 40
6.0
 40
6.0
 40
7.0
 40
7.0
 40
7.0
 40
8.0
 40
8.0
 40
8.0
 40
9.0
 40
9.0
 40
9.0
 40
10.0
 40
10.0
 40
10.0
 40
11.0
 40
11.0
 40
11.0
 40
12.0
 40
12.0
 40
12.0
 40
13.0
 40
13.0
 40
13.0
 40
14.0
 40
14.0
 40
14.0
 40
15.0
 40
15.0
 40
15.0
 40
16.0
 40
16.0
 40
16.0
 40
17.0
 40
17.0
 40
17.0
 40
18.0
 40
18.0
 40
18.0
 40
18.0
 10
63.70915930865812
 20
-83.08352782499516
 30
0.0
 10
64.27363857630014
 20
-80.43872627620797
 30
0.0
 10
66.42527438103511
 20
-78.49948074825134
 30
0.0
 10
69.03545269735478
 20
-78.49948074825134
 30
0.0
 10
71.68077101080567
 20
-78.49948074825134
 30
0.0
 10
73.93834357159797
 20
-80.40341402418886
 30
0.0
 10
74.43202608031388
 20
-83.04821557297605
 30
0.0
 10
74.43202608031388
 20
-83.04821557297605
 30
0.0
 10
76.3368206306909
 20
-83.04821557297605
 30
0.0
 10
76.3368206306909
 20
-83.04821557297605
 30
0.0
 10
76.3368206306909
 20
-83.04821557297605
 30
0.0
 10
76.3368206306909
 20
-82.3783163139404
 30
0.0
 10
76.3368206306909
 20
-82.3783163139404
 30
0.0
 10
76.3368206306909
 20
-82.3783163139404
 30
0.0
 10
78.7356421995596
 20
-82.3783163139404
 30
0.0
 10
78.7356421995596
 20
-82.3783163139404
 30
0.0
 10
78.7356421995596
 20
-82.3783163139404
 30
0.0
 10
78.7356421995596
 20
-85.62204810794923
 30
0.0
 10
78.7356421995596
 20
-85.62204810794923
 30
0.0
 10
78.7356421995596
 20
-85.62204810794923
 30
0.0
 10
76.3368206306909
 20
-85.62204810794923
 30
0.0
 10
76.3368206306909
 20
-85.62204810794923
 30
0.0
 10
76.3368206306909
 20
-85.62204810794923
 30
0.0
 10
76.3368206306909
 20
-84.81107209572505
 30
0.0
 10
76.3368206306909
 20
-84.81107209572505
 30
0.0
 10
76.3368206306909
 20
-84.81107209572505
 30
0.0
 10
74.50299509412788
 20
-84.81107209572505
 30
0.0
 10
74.50299509412788
 20
-84.81107209572505
 30
0.0
 10
74.1502170837126
 20
-87.42038913760523
 30
0.0
 10
71.8220200188821
 20
-89.5008836736383
 30
0.0
 10
69.00014044533567
 20
-89.5008836736383
 30
0.0
 10
66.21357312380836
 20
-89.5008836736383
 30
0.0
 10
63.92086056588487
 20
-87.38524914047403
 30
0.0
 10
63.53277030345048
 20
-84.77593209859384
 30
0.0
 10
63.53277030345048
 20
-84.77593209859384
 30
0.0
 10
61.66346025998047
 20
-84.77593209859384
 30
0.0
 10
61.66346025998047
 20
-84.77593209859384
 30
0.0
 10
61.66346025998047
 20
-84.77593209859384
 30
0.0
 10
61.66346025998047
 20
-85.62204810794923
 30
0.0
 10
61.66346025998047
 20
-85.62204810794923
 30
0.0
 10
61.66346025998047
 20
-85.62204810794923
 30
0.0
 10
59.26446643622384
 20
-85.62204810794923
 30
0.0
 10
59.26446643622384
 20
-85.62204810794923
 30
0.0
 10
59.26446643622384
 20
-85.62204810794923
 30
0.0
 10
59.26446643622384
 20
-82.3783163139404
 30
0.0
 10
59.26446643622384
 20
-82.3783163139404
 30
0.0
 10
59.26446643622384
 20
-82.3783163139404
 30
0.0
 10
61.69877251199957
 20
-82.3783163139404
 30
0.0
 10
61.69877251199957
 20
-82.3783163139404
 30
0.0
 10
61.69877251199957
 20
-82.3783163139404
 30
0.0
 10
61.69877251199957
 20
-83.08352782499516
 30
0.0
 10
61.69877251199957
 20
-83.08352782499516
 30
0.0
 10
61.69877251199957
 20
-83.08352782499516
 30
0.0
 10
63.70915930865812
 20
-83.08352782499516
 30
0.0
 10
63.70915930865812
 20
-83.08352782499516
 30
0.0
  0
ENDBLK
  5
63
330
60
100
AcDbEntity
  8
0
100
AcDbBlockEnd
  0
BLOCK
  5
6E
330
6C
100
AcDbEntity
  8
0
100
AcDbBlockBegin
  2
block 6
 70
     0
 71
     0
 10
0.0
 20
0.0
 30
0.0
  3
block 6
  1

  0
SPLINE
  5
70
330
6C
100
AcDbEntity
  8
Layer 1
370
     0
100
AcDbSpline
210
0.0
220
0.0
230
1.0
 70
    11
 71
     3
 72
    17
 73
    13
 74
     0
 42
0.0000000001
 43
0.0000000001
 40
0.0
 40
0.0
 40
0.0
 40
0.0
 40
1.0
 40
1.0
 40
1.0
 40
2.0
 40
2.0
 40
2.0
 40
3.0
 40
3.0
 40
3.0
 40
4.0
 40
4.0
 40
4.0
 40
4.0
 10
26.47953813235723
 20
-125.3063014367978
 30
0.0
 10
26.47953813235723
 20
-126.1350197024755
 30
0.0
 10
25.79499720785024
 20
-126.8557341534411
 30
0.0
 10
24.92941639616237
 20
-126.8557341534411
 30
0.0
 10
24.10069813048469
 20
-126.8557341534411
 30
0.0
 10
23.3796391697433
 20
-126.1710209740462
 30
0.0
 10
23.3796391697433
 20
-125.3063014367978
 30
0.0
 10
23.3796391697433
 20
-124.4775831711201
 30
0.0
 10
24.06486911380188
 20
-123.7568687201546
 30
0.0
 10
24.92941639616237
 20
-123.7568687201546
 30
0.0
 10
25.79499720785024
 20
-123.7568687201546
 30
0.0
 10
26.47953813235723
 20
-124.4415818995494
 30
0.0
 10
26.47953813235723
 20
-125.3063014367978
 30
0.0
  0
SPLINE
  5
71
330
6C
100
AcDbEntity
  8
Layer 1
370
     0
100
AcDbSpline
210
0.0
220
0.0
230
1.0
 70
    11
 71
     3
 72
    17
 73
    13
 74
     0
 42
0.0000000001
 43
0.0000000001
 40
0.0
 40
0.0
 40
0.0
 40
0.0
 40
1.0
 40
1.0
 40
1.0
 40
2.0
 40
2.0
 40
2.0
 40
3.0
 40
3.0
 40
3.0
 40
4.0
 40
4.0
 40
4.0
 40
4.0
 10
26.51467812948844
 20
-150.6944325994328
 30
0.0
 10
26.51467812948844
 20
-151.5229786102226
 30
0.0
 10
25.83013720498145
 20
-152.2436930611882
 30
0.0
 10
24.96490090306937
 20
-152.2436930611882
 30
0.0
 10
24.13583812761589
 20
-152.2436930611882
 30
0.0
 10
23.41512367665031
 20
-151.5591521366812
 30
0.0
 10
23.41512367665031
 20
-150.6944325994328
 30
0.0
 10
23.41512367665031
 20
-149.8651975690914
 30
0.0
 10
24.10000911093309
 20
-149.1448276279016
 30
0.0
 10
24.96490090306937
 20
-149.1448276279016
 30
0.0
 10
25.83013720498145
 20
-149.1448276279016
 30
0.0
 10
26.51467812948844
 20
-149.8297130621844
 30
0.0
 10
26.51467812948844
 20
-150.6944325994328
 30
0.0
  0
SPLINE
  5
72
330
6C
100
AcDbEntity
  8
Layer 1
370
     0
100
AcDbSpline
210
0.0
220
0.0
230
1.0
 70
    11
 71
     3
 72
    29
 73
    25
 74
     0
 42
0.0000000001
 43
0.0000000001
 40
0.0
 40
0.0
 40
0.0
 40
0.0
 40
1.0
 40
1.0
 40
1.0
 40
2.0
 40
2.0
 40
2.0
 40
3.0
 40
3.0
 40
3.0
 40
4.0
 40
4.0
 40
4.0
 40
5.0
 40
5.0
 40
5.0
 40
6.0
 40
6.0
 40
6.0
 40
7.0
 40
7.0
 40
7.0
 40
8.0
 40
8.0
 40
8.0
 40
8.0
 10
45.00003916938347
 20
-158.5223837250733
 30
0.0
 10
45.00003916938347
 20
-160.9904517588771
 30
0.0
 10
43.09558912878225
 20
-163.0003217908719
 30
0.0
 10
40.73190755704474
 20
-163.0003217908719
 30
0.0
 10
40.73190755704474
 20
-163.0003217908719
 30
0.0
 10
9.268001988468534
 20
-163.0003217908719
 30
0.0
 10
9.268001988468534
 20
-163.0003217908719
 30
0.0
 10
6.90518169117051
 20
-163.0003217908719
 30
0.0
 10
5.000042631017696
 20
-160.9904517588771
 30
0.0
 10
5.000042631017696
 20
-158.5223837250733
 30
0.0
 10
5.000042631017696
 20
-158.5223837250733
 30
0.0
 10
5.000042631017696
 20
-117.4781780562694
 30
0.0
 10
5.000042631017696
 20
-117.4781780562694
 30
0.0
 10
5.000042631017696
 20
-115.0102822773535
 30
0.0
 10
6.90518169117051
 20
-113.0000677355829
 30
0.0
 10
9.268001988468534
 20
-113.0000677355829
 30
0.0
 10
9.268001988468534
 20
-113.0000677355829
 30
0.0
 10
40.73190755704474
 20
-113.0000677355829
 30
0.0
 10
40.73190755704474
 20
-113.0000677355829
 30
0.0
 10
43.09558912878225
 20
-113.0000677355829
 30
0.0
 10
45.00003916938347
 20
-115.0102822773535
 30
0.0
 10
45.00003916938347
 20
-117.4781780562694
 30
0.0
 10
45.00003916938347
 20
-117.4781780562694
 30
0.0
 10
45.00003916938347
 20
-158.5223837250733
 30
0.0
 10
45.00003916938347
 20
-158.5223837250733
 30
0.0
  0
SPLINE
  5
73
330
6C
100
AcDbEntity
  8
Layer 1
370
     0
100
AcDbSpline
210
0.0
220
0.0
230
1.0
 70
    11
 71
     3
 72
    17
 73
    13
 74
     0
 42
0.0000000001
 43
0.0000000001
 40
0.0
 40
0.0
 40
0.0
 40
0.0
 40
1.0
 40
1.0
 40
1.0
 40
2.0
 40
2.0
 40
2.0
 40
3.0
 40
3.0
 40
3.0
 40
4.0
 40
4.0
 40
4.0
 40
4.0
 10
11.52350749060605
 20
-118.0073450718923
 30
0.0
 10
11.52350749060605
 20
-118.83606333757
 30
0.0
 10
10.83879431121117
 20
-119.5567777885356
 30
0.0
 10
9.973730264186987
 20
-119.5567777885356
 30
0.0
 10
9.144667488733505
 20
-119.5567777885356
 30
0.0
 10
8.423953037767921
 20
-118.8720646091407
 30
0.0
 10
8.423953037767921
 20
-118.0073450718923
 30
0.0
 10
8.423953037767921
 20
-117.1786268062146
 30
0.0
 10
9.108666217162806
 20
-116.457912355249
 30
0.0
 10
9.973730264186987
 20
-116.457912355249
 30
0.0
 10
10.83879431121117
 20
-116.457912355249
 30
0.0
 10
11.52350749060605
 20
-117.1426255346439
 30
0.0
 10
11.52350749060605
 20
-118.0073450718923
 30
0.0
  0
SPLINE
  5
74
330
6C
100
AcDbEntity
  8
Layer 1
370
     0
100
AcDbSpline
210
0.0
220
0.0
230
1.0
 70
    11
 71
     3
 72
    17
 73
    13
 74
     0
 42
0.0000000001
 43
0.0000000001
 40
0.0
 40
0.0
 40
0.0
 40
0.0
 40
1.0
 40
1.0
 40
1.0
 40
2.0
 40
2.0
 40
2.0
 40
3.0
 40
3.0
 40
3.0
 40
4.0
 40
4.0
 40
4.0
 40
4.0
 10
41.54116102038994
 20
-118.0073450718923
 30
0.0
 10
41.54116102038994
 20
-118.83606333757
 30
0.0
 10
40.85627558610715
 20
-119.5567777885356
 30
0.0
 10
39.99155604885877
 20
-119.5567777885356
 30
0.0
 10
39.16232101851739
 20
-119.5567777885356
 30
0.0
 10
38.44160656755181
 20
-118.8720646091407
 30
0.0
 10
38.44160656755181
 20
-118.0073450718923
 30
0.0
 10
38.44160656755181
 20
-117.1786268062146
 30
0.0
 10
39.12614749205879
 20
-116.457912355249
 30
0.0
 10
39.99155604885877
 20
-116.457912355249
 30
0.0
 10
40.85627558610715
 20
-116.457912355249
 30
0.0
 10
41.54116102038994
 20
-117.1426255346439
 30
0.0
 10
41.54116102038994
 20
-118.0073450718923
 30
0.0
  0
SPLINE
  5
75
330
6C
100
AcDbEntity
  8
Layer 1
370
     0
100
AcDbSpline
210
0.0
220
0.0
230
1.0
 70
    11
 71
     3
 72
    17
 73
    13
 74
     0
 42
0.0000000001
 43
0.0000000001
 40
0.0
 40
0.0
 40
0.0
 40
0.0
 40
1.0
 40
1.0
 40
1.0
 40
2.0
 40
2.0
 40
2.0
 40
3.0
 40
3.0
 40
3.0
 40
4.0
 40
4.0
 40
4.0
 40
4.0
 10
11.52350749060605
 20
-157.9935612192262
 30
0.0
 10
11.52350749060605
 20
-158.822107230016
 30
0.0
 10
10.83879431121117
 20
-159.5428216809816
 30
0.0
 10
9.973730264186987
 20
-159.5428216809816
 30
0.0
 10
9.144667488733505
 20
-159.5428216809816
 30
0.0
 10
8.423953037767921
 20
-158.8582807564746
 30
0.0
 10
8.423953037767921
 20
-157.9935612192262
 30
0.0
 10
8.423953037767921
 20
-157.1646706986606
 30
0.0
 10
9.108666217162806
 20
-156.4443007574708
 30
0.0
 10
9.973730264186987
 20
-156.4443007574708
 30
0.0
 10
10.83879431121117
 20
-156.4443007574708
 30
0.0
 10
11.52350749060605
 20
-157.1288416819778
 30
0.0
 10
11.52350749060605
 20
-157.9935612192262
 30
0.0
  0
SPLINE
  5
76
330
6C
100
AcDbEntity
  8
Layer 1
370
     0
100
AcDbSpline
210
0.0
220
0.0
230
1.0
 70
    11
 71
     3
 72
    17
 73
    13
 74
     0
 42
0.0000000001
 43
0.0000000001
 40
0.0
 40
0.0
 40
0.0
 40
0.0
 40
1.0
 40
1.0
 40
1.0
 40
2.0
 40
2.0
 40
2.0
 40
3.0
 40
3.0
 40
3.0
 40
4.0
 40
4.0
 40
4.0
 40
4.0
 10
41.54116102038994
 20
-157.9935612192262
 30
0.0
 10
41.54116102038994
 20
-158.822107230016
 30
0.0
 10
40.85627558610715
 20
-159.5428216809816
 30
0.0
 10
39.99155604885877
 20
-159.5428216809816
 30
0.0
 10
39.16232101851739
 20
-159.5428216809816
 30
0.0
 10
38.44160656755181
 20
-158.8582807564746
 30
0.0
 10
38.44160656755181
 20
-157.9935612192262
 30
0.0
 10
38.44160656755181
 20
-157.1646706986606
 30
0.0
 10
39.12614749205879
 20
-156.4443007574708
 30
0.0
 10
39.99155604885877
 20
-156.4443007574708
 30
0.0
 10
40.85627558610715
 20
-156.4443007574708
 30
0.0
 10
41.54116102038994
 20
-157.1288416819778
 30
0.0
 10
41.54116102038994
 20
-157.9935612192262
 30
0.0
  0
SPLINE
  5
77
330
6C
100
AcDbEntity
  8
Layer 1
370
     0
100
AcDbSpline
210
0.0
220
0.0
230
1.0
 70
    11
 71
     3
 72
    59
 73
    55
 74
     0
 42
0.0000000001
 43
0.0000000001
 40
0.0
 40
0.0
 40
0.0
 40
0.0
 40
1.0
 40
1.0
 40
1.0
 40
2.0
 40
2.0
 40
2.0
 40
3.0
 40
3.0
 40
3.0
 40
4.0
 40
4.0
 40
4.0
 40
5.0
 40
5.0
 40
5.0
 40
6.0
 40
6.0
 40
6.0
 40
7.0
 40
7.0
 40
7.0
 40
8.0
 40
8.0
 40
8.0
 40
9.0
 40
9.0
 40
9.0
 40
10.0
 40
10.0
 40
10.0
 40
11.0
 40
11.0
 40
11.0
 40
12.0
 40
12.0
 40
12.0
 40
13.0
 40
13.0
 40
13.0
 40
14.0
 40
14.0
 40
14.0
 40
15.0
 40
15.0
 40
15.0
 40
16.0
 40
16.0
 40
16.0
 40
17.0
 40
17.0
 40
17.0
 40
18.0
 40
18.0
 40
18.0
 40
18.0
 10
19.70923201841092
 20
-137.0835403772778
 30
0.0
 10
20.27371128605294
 20
-134.4387388284906
 30
0.0
 10
22.42534709078792
 20
-132.4994933005339
 30
0.0
 10
25.03552540710759
 20
-132.4994933005339
 30
0.0
 10
27.68084372055847
 20
-132.4994933005339
 30
0.0
 10
29.93841628135077
 20
-134.4034265764714
 30
0.0
 10
30.43209879006668
 20
-137.0482281252586
 30
0.0
 10
30.43209879006668
 20
-137.0482281252586
 30
0.0
 10
32.33689334044369
 20
-137.0482281252586
 30
0.0
 10
32.33689334044369
 20
-137.0482281252586
 30
0.0
 10
32.33689334044369
 20
-137.0482281252586
 30
0.0
 10
32.33689334044369
 20
-136.378328866223
 30
0.0
 10
32.33689334044369
 20
-136.378328866223
 30
0.0
 10
32.33689334044369
 20
-136.378328866223
 30
0.0
 10
34.73571490931242
 20
-136.378328866223
 30
0.0
 10
34.73571490931242
 20
-136.378328866223
 30
0.0
 10
34.73571490931242
 20
-136.378328866223
 30
0.0
 10
34.73571490931242
 20
-139.6220606602318
 30
0.0
 10
34.73571490931242
 20
-139.6220606602318
 30
0.0
 10
34.73571490931242
 20
-139.6220606602318
 30
0.0
 10
32.33689334044369
 20
-139.6220606602318
 30
0.0
 10
32.33689334044369
 20
-139.6220606602318
 30
0.0
 10
32.33689334044369
 20
-139.6220606602318
 30
0.0
 10
32.33689334044369
 20
-138.8110846480076
 30
0.0
 10
32.33689334044369
 20
-138.8110846480076
 30
0.0
 10
32.33689334044369
 20
-138.8110846480076
 30
0.0
 10
30.50306780388069
 20
-138.8110846480076
 30
0.0
 10
30.50306780388069
 20
-138.8110846480076
 30
0.0
 10
30.15028979346541
 20
-141.4204016898878
 30
0.0
 10
27.8220927286349
 20
-143.5008962259209
 30
0.0
 10
25.00021315508848
 20
-143.5008962259209
 30
0.0
 10
22.21364583356117
 20
-143.5008962259209
 30
0.0
 10
19.92093327563767
 20
-141.3852616927566
 30
0.0
 10
19.53284301320328
 20
-138.7759446508764
 30
0.0
 10
19.53284301320328
 20
-138.7759446508764
 30
0.0
 10
17.66353296973327
 20
-138.7759446508764
 30
0.0
 10
17.66353296973327
 20
-138.7759446508764
 30
0.0
 10
17.66353296973327
 20
-138.7759446508764
 30
0.0
 10
17.66353296973327
 20
-139.6220606602318
 30
0.0
 10
17.66353296973327
 20
-139.6220606602318
 30
0.0
 10
17.66353296973327
 20
-139.6220606602318
 30
0.0
 10
15.26453914597665
 20
-139.6220606602318
 30
0.0
 10
15.26453914597665
 20
-139.6220606602318
 30
0.0
 10
15.26453914597665
 20
-139.6220606602318
 30
0.0
 10
15.26453914597665
 20
-136.378328866223
 30
0.0
 10
15.26453914597665
 20
-136.378328866223
 30
0.0
 10
15.26453914597665
 20
-136.378328866223
 30
0.0
 10
17.69884522175238
 20
-136.378328866223
 30
0.0
 10
17.69884522175238
 20
-136.378328866223
 30
0.0
 10
17.69884522175238
 20
-136.378328866223
 30
0.0
 10
17.69884522175238
 20
-137.0835403772778
 30
0.0
 10
17.69884522175238
 20
-137.0835403772778
 30
0.0
 10
17.69884522175238
 20
-137.0835403772778
 30
0.0
 10
19.70923201841092
 20
-137.0835403772778
 30
0.0
 10
19.70923201841092
 20
-137.0835403772778
 30
0.0
  0
ENDBLK
  5
6F
330
6C
100
AcDbEntity
  8
0
100
AcDbBlockEnd
  0
BLOCK
  5
7A
330
78
100
AcDbEntity
  8
0
100
AcDbBlockBegin
  2
block 7
 70
     0
 71
     0
 10
0.0
 20
0.0
 30
0.0
  3
block 7
  1

  0
SPLINE
  5
7C
330
78
100
AcDbEntity
  8
Layer 1
370
     0
100
AcDbSpline
210
0.0
220
0.0
230
1.0
 70
    11
 71
     3
 72
    17
 73
    13
 74
     0
 42
0.0000000001
 43
0.0000000001
 40
0.0
 40
0.0
 40
0.0
 40
0.0
 40
1.0
 40
1.0
 40
1.0
 40
2.0
 40
2.0
 40
2.0
 40
3.0
 40
3.0
 40
3.0
 40
4.0
 40
4.0
 40
4.0
 40
4.0
 10
70.47946542260442
 20
-125.3063014367978
 30
0.0
 10
70.47946542260442
 20
-126.1350197024755
 30
0.0
 10
69.79492449809744
 20
-126.8557341534411
 30
0.0
 10
68.92934368640957
 20
-126.8557341534411
 30
0.0
 10
68.10062542073189
 20
-126.8557341534411
 30
0.0
 10
67.3795664599905
 20
-126.1710209740462
 30
0.0
 10
67.3795664599905
 20
-125.3063014367978
 30
0.0
 10
67.3795664599905
 20
-124.4775831711201
 30
0.0
 10
68.06479640404908
 20
-123.7568687201546
 30
0.0
 10
68.92934368640957
 20
-123.7568687201546
 30
0.0
 10
69.79492449809744
 20
-123.7568687201546
 30
0.0
 10
70.47946542260442
 20
-124.4415818995494
 30
0.0
 10
70.47946542260442
 20
-125.3063014367978
 30
0.0
  0
SPLINE
  5
7D
330
78
100
AcDbEntity
  8
Layer 1
370
     0
100
AcDbSpline
210
0.0
220
0.0
230
1.0
 70
    11
 71
     3
 72
    17
 73
    13
 74
     0
 42
0.0000000001
 43
0.0000000001
 40
0.0
 40
0.0
 40
0.0
 40
0.0
 40
1.0
 40
1.0
 40
1.0
 40
2.0
 40
2.0
 40
2.0
 40
3.0
 40
3.0
 40
3.0
 40
4.0
 40
4.0
 40
4.0
 40
4.0
 10
70.51460541973563
 20
-150.6944325994328
 30
0.0
 10
70.51460541973563
 20
-151.5229786102226
 30
0.0
 10
69.83006449522865
 20
-152.2436930611882
 30
0.0
 10
68.96482819331656
 20
-152.2436930611882
 30
0.0
 10
68.13576541786308
 20
-152.2436930611882
 30
0.0
 10
67.41505096689751
 20
-151.5591521366812
 30
0.0
 10
67.41505096689751
 20
-150.6944325994328
 30
0.0
 10
67.41505096689751
 20
-149.8651975690914
 30
0.0
 10
68.09993640118029
 20
-149.1448276279016
 30
0.0
 10
68.96482819331656
 20
-149.1448276279016
 30
0.0
 10
69.83006449522865
 20
-149.1448276279016
 30
0.0
 10
70.51460541973563
 20
-149.8297130621844
 30
0.0
 10
70.51460541973563
 20
-150.6944325994328
 30
0.0
  0
SPLINE
  5
7E
330
78
100
AcDbEntity
  8
Layer 1
370
     0
100
AcDbSpline
210
0.0
220
0.0
230
1.0
 70
    11
 71
     3
 72
    29
 73
    25
 74
     0
 42
0.0000000001
 43
0.0000000001
 40
0.0
 40
0.0
 40
0.0
 40
0.0
 40
1.0
 40
1.0
 40
1.0
 40
2.0
 40
2.0
 40
2.0
 40
3.0
 40
3.0
 40
3.0
 40
4.0
 40
4.0
 40
4.0
 40
5.0
 40
5.0
 40
5.0
 40
6.0
 40
6.0
 40
6.0
 40
7.0
 40
7.0
 40
7.0
 40
8.0
 40
8.0
 40
8.0
 40
8.0
 10
88.99996645963067
 20
-158.5223837250733
 30
0.0
 10
88.99996645963067
 20
-160.9904517588771
 30
0.0
 10
87.09551641902945
 20
-163.0003217908719
 30
0.0
 10
84.73183484729194
 20
-163.0003217908719
 30
0.0
 10
84.73183484729194
 20
-163.0003217908719
 30
0.0
 10
53.26792927871573
 20
-163.0003217908719
 30
0.0
 10
53.26792927871573
 20
-163.0003217908719
 30
0.0
 10
50.9051089814177
 20
-163.0003217908719
 30
0.0
 10
48.99996992126489
 20
-160.9904517588771
 30
0.0
 10
48.99996992126489
 20
-158.5223837250733
 30
0.0
 10
48.99996992126489
 20
-158.5223837250733
 30
0.0
 10
48.99996992126489
 20
-117.4781780562694
 30
0.0
 10
48.99996992126489
 20
-117.4781780562694
 30
0.0
 10
48.99996992126489
 20
-115.0102822773535
 30
0.0
 10
50.9051089814177
 20
-113.0000677355829
 30
0.0
 10
53.26792927871573
 20
-113.0000677355829
 30
0.0
 10
53.26792927871573
 20
-113.0000677355829
 30
0.0
 10
84.73183484729194
 20
-113.0000677355829
 30
0.0
 10
84.73183484729194
 20
-113.0000677355829
 30
0.0
 10
87.09551641902945
 20
-113.0000677355829
 30
0.0
 10
88.99996645963067
 20
-115.0102822773535
 30
0.0
 10
88.99996645963067
 20
-117.4781780562694
 30
0.0
 10
88.99996645963067
 20
-117.4781780562694
 30
0.0
 10
88.99996645963067
 20
-158.5223837250733
 30
0.0
 10
88.99996645963067
 20
-158.5223837250733
 30
0.0
  0
SPLINE
  5
7F
330
78
100
AcDbEntity
  8
Layer 1
370
     0
100
AcDbSpline
210
0.0
220
0.0
230
1.0
 70
    11
 71
     3
 72
    17
 73
    13
 74
     0
 42
0.0000000001
 43
0.0000000001
 40
0.0
 40
0.0
 40
0.0
 40
0.0
 40
1.0
 40
1.0
 40
1.0
 40
2.0
 40
2.0
 40
2.0
 40
3.0
 40
3.0
 40
3.0
 40
4.0
 40
4.0
 40
4.0
 40
4.0
 10
55.52343478085324
 20
-118.0073450718923
 30
0.0
 10
55.52343478085324
 20
-118.83606333757
 30
0.0
 10
54.83872160145836
 20
-119.5567777885356
 30
0.0
 10
53.97365755443418
 20
-119.5567777885356
 30
0.0
 10
53.1445947789807
 20
-119.5567777885356
 30
0.0
 10
52.42388032801512
 20
-118.8720646091407
 30
0.0
 10
52.42388032801512
 20
-118.0073450718923
 30
0.0
 10
52.42388032801512
 20
-117.1786268062146
 30
0.0
 10
53.10859350741
 20
-116.457912355249
 30
0.0
 10
53.97365755443418
 20
-116.457912355249
 30
0.0
 10
54.83872160145836
 20
-116.457912355249
 30
0.0
 10
55.52343478085324
 20
-117.1426255346439
 30
0.0
 10
55.52343478085324
 20
-118.0073450718923
 30
0.0
  0
SPLINE
  5
80
330
78
100
AcDbEntity
  8
Layer 1
370
     0
100
AcDbSpline
210
0.0
220
0.0
230
1.0
 70
    11
 71
     3
 72
    17
 73
    13
 74
     0
 42
0.0000000001
 43
0.0000000001
 40
0.0
 40
0.0
 40
0.0
 40
0.0
 40
1.0
 40
1.0
 40
1.0
 40
2.0
 40
2.0
 40
2.0
 40
3.0
 40
3.0
 40
3.0
 40
4.0
 40
4.0
 40
4.0
 40
4.0
 10
85.54108831063714
 20
-118.0073450718923
 30
0.0
 10
85.54108831063714
 20
-118.83606333757
 30
0.0
 10
84.85620287635435
 20
-119.5567777885356
 30
0.0
 10
83.99148333910597
 20
-119.5567777885356
 30
0.0
 10
83.16224830876459
 20
-119.5567777885356
 30
0.0
 10
82.441533857799
 20
-118.8720646091407
 30
0.0
 10
82.441533857799
 20
-118.0073450718923
 30
0.0
 10
82.441533857799
 20
-117.1786268062146
 30
0.0
 10
83.12607478230599
 20
-116.457912355249
 30
0.0
 10
83.99148333910597
 20
-116.457912355249
 30
0.0
 10
84.85620287635435
 20
-116.457912355249
 30
0.0
 10
85.54108831063714
 20
-117.1426255346439
 30
0.0
 10
85.54108831063714
 20
-118.0073450718923
 30
0.0
  0
SPLINE
  5
81
330
78
100
AcDbEntity
  8
Layer 1
370
     0
100
AcDbSpline
210
0.0
220
0.0
230
1.0
 70
    11
 71
     3
 72
    17
 73
    13
 74
     0
 42
0.0000000001
 43
0.0000000001
 40
0.0
 40
0.0
 40
0.0
 40
0.0
 40
1.0
 40
1.0
 40
1.0
 40
2.0
 40
2.0
 40
2.0
 40
3.0
 40
3.0
 40
3.0
 40
4.0
 40
4.0
 40
4.0
 40
4.0
 10
55.52343478085324
 20
-157.9935612192262
 30
0.0
 10
55.52343478085324
 20
-158.822107230016
 30
0.0
 10
54.83872160145836
 20
-159.5428216809816
 30
0.0
 10
53.97365755443418
 20
-159.5428216809816
 30
0.0
 10
53.1445947789807
 20
-159.5428216809816
 30
0.0
 10
52.42388032801512
 20
-158.8582807564746
 30
0.0
 10
52.42388032801512
 20
-157.9935612192262
 30
0.0
 10
52.42388032801512
 20
-157.1646706986606
 30
0.0
 10
53.10859350741
 20
-156.4443007574708
 30
0.0
 10
53.97365755443418
 20
-156.4443007574708
 30
0.0
 10
54.83872160145836
 20
-156.4443007574708
 30
0.0
 10
55.52343478085324
 20
-157.1288416819778
 30
0.0
 10
55.52343478085324
 20
-157.9935612192262
 30
0.0
  0
SPLINE
  5
82
330
78
100
AcDbEntity
  8
Layer 1
370
     0
100
AcDbSpline
210
0.0
220
0.0
230
1.0
 70
    11
 71
     3
 72
    17
 73
    13
 74
     0
 42
0.0000000001
 43
0.0000000001
 40
0.0
 40
0.0
 40
0.0
 40
0.0
 40
1.0
 40
1.0
 40
1.0
 40
2.0
 40
2.0
 40
2.0
 40
3.0
 40
3.0
 40
3.0
 40
4.0
 40
4.0
 40
4.0
 40
4.0
 10
85.54108831063714
 20
-157.9935612192262
 30
0.0
 10
85.54108831063714
 20
-158.822107230016
 30
0.0
 10
84.85620287635435
 20
-159.5428216809816
 30
0.0
 10
83.99148333910597
 20
-159.5428216809816
 30
0.0
 10
83.16224830876459
 20
-159.5428216809816
 30
0.0
 10
82.441533857799
 20
-158.8582807564746
 30
0.0
 10
82.441533857799
 20
-157.9935612192262
 30
0.0
 10
82.441533857799
 20
-157.1646706986606
 30
0.0
 10
83.12607478230599
 20
-156.4443007574708
 30
0.0
 10
83.99148333910597
 20
-156.4443007574708
 30
0.0
 10
84.85620287635435
 20
-156.4443007574708
 30
0.0
 10
85.54108831063714
 20
-157.1288416819778
 30
0.0
 10
85.54108831063714
 20
-157.9935612192262
 30
0.0
  0
SPLINE
  5
83
330
78
100
AcDbEntity
  8
Layer 1
370
     0
100
AcDbSpline
210
0.0
220
0.0
230
1.0
 70
    11
 71
     3
 72
    59
 73
    55
 74
     0
 42
0.0000000001
 43
0.0000000001
 40
0.0
 40
0.0
 40
0.0
 40
0.0
 40
1.0
 40
1.0
 40
1.0
 40
2.0
 40
2.0
 40
2.0
 40
3.0
 40
3.0
 40
3.0
 40
4.0
 40
4.0
 40
4.0
 40
5.0
 40
5.0
 40
5.0
 40
6.0
 40
6.0
 40
6.0
 40
7.0
 40
7.0
 40
7.0
 40
8.0
 40
8.0
 40
8.0
 40
9.0
 40
9.0
 40
9.0
 40
10.0
 40
10.0
 40
10.0
 40
11.0
 40
11.0
 40
11.0
 40
12.0
 40
12.0
 40
12.0
 40
13.0
 40
13.0
 40
13.0
 40
14.0
 40
14.0
 40
14.0
 40
15.0
 40
15.0
 40
15.0
 40
16.0
 40
16.0
 40
16.0
 40
17.0
 40
17.0
 40
17.0
 40
18.0
 40
18.0
 40
18.0
 40
18.0
 10
63.70915930865812
 20
-137.0835403772778
 30
0.0
 10
64.27363857630014
 20
-134.4387388284906
 30
0.0
 10
66.42527438103511
 20
-132.4994933005339
 30
0.0
 10
69.03545269735478
 20
-132.4994933005339
 30
0.0
 10
71.68077101080567
 20
-132.4994933005339
 30
0.0
 10
73.93834357159797
 20
-134.4034265764714
 30
0.0
 10
74.43202608031388
 20
-137.0482281252586
 30
0.0
 10
74.43202608031388
 20
-137.0482281252586
 30
0.0
 10
76.3368206306909
 20
-137.0482281252586
 30
0.0
 10
76.3368206306909
 20
-137.0482281252586
 30
0.0
 10
76.3368206306909
 20
-137.0482281252586
 30
0.0
 10
76.3368206306909
 20
-136.378328866223
 30
0.0
 10
76.3368206306909
 20
-136.378328866223
 30
0.0
 10
76.3368206306909
 20
-136.378328866223
 30
0.0
 10
78.7356421995596
 20
-136.378328866223
 30
0.0
 10
78.7356421995596
 20
-136.378328866223
 30
0.0
 10
78.7356421995596
 20
-136.378328866223
 30
0.0
 10
78.7356421995596
 20
-139.6220606602318
 30
0.0
 10
78.7356421995596
 20
-139.6220606602318
 30
0.0
 10
78.7356421995596
 20
-139.6220606602318
 30
0.0
 10
76.3368206306909
 20
-139.6220606602318
 30
0.0
 10
76.3368206306909
 20
-139.6220606602318
 30
0.0
 10
76.3368206306909
 20
-139.6220606602318
 30
0.0
 10
76.3368206306909
 20
-138.8110846480076
 30
0.0
 10
76.3368206306909
 20
-138.8110846480076
 30
0.0
 10
76.3368206306909
 20
-138.8110846480076
 30
0.0
 10
74.50299509412788
 20
-138.8110846480076
 30
0.0
 10
74.50299509412788
 20
-138.8110846480076
 30
0.0
 10
74.1502170837126
 20
-141.4204016898878
 30
0.0
 10
71.8220200188821
 20
-143.5008962259209
 30
0.0
 10
69.00014044533567
 20
-143.5008962259209
 30
0.0
 10
66.21357312380836
 20
-143.5008962259209
 30
0.0
 10
63.92086056588487
 20
-141.3852616927566
 30
0.0
 10
63.53277030345048
 20
-138.7759446508764
 30
0.0
 10
63.53277030345048
 20
-138.7759446508764
 30
0.0
 10
61.66346025998047
 20
-138.7759446508764
 30
0.0
 10
61.66346025998047
 20
-138.7759446508764
 30
0.0
 10
61.66346025998047
 20
-138.7759446508764
 30
0.0
 10
61.66346025998047
 20
-139.6220606602318
 30
0.0
 10
61.66346025998047
 20
-139.6220606602318
 30
0.0
 10
61.66346025998047
 20
-139.6220606602318
 30
0.0
 10
59.26446643622384
 20
-139.6220606602318
 30
0.0
 10
59.26446643622384
 20
-139.6220606602318
 30
0.0
 10
59.26446643622384
 20
-139.6220606602318
 30
0.0
 10
59.26446643622384
 20
-136.378328866223
 30
0.0
 10
59.26446643622384
 20
-136.378328866223
 30
0.0
 10
59.26446643622384
 20
-136.378328866223
 30
0.0
 10
61.69877251199957
 20
-136.378328866223
 30
0.0
 10
61.69877251199957
 20
-136.378328866223
 30
0.0
 10
61.69877251199957
 20
-136.378328866223
 30
0.0
 10
61.69877251199957
 20
-137.0835403772778
 30
0.0
 10
61.69877251199957
 20
-137.0835403772778
 30
0.0
 10
61.69877251199957
 20
-137.0835403772778
 30
0.0
 10
63.70915930865812
 20
-137.0835403772778
 30
0.0
 10
63.70915930865812
 20
-137.0835403772778
 30
0.0
  0
ENDBLK
  5
7B
330
78
100
AcDbEntity
  8
0
100
AcDbBlockEnd
  0
BLOCK
  5
86
330
84
100
AcDbEntity
  8
0
100
AcDbBlockBegin
  2
block 8
 70
     0
 71
     0
 10
0.0
 20
0.0
 30
0.0
  3
block 8
  1

  0
SPLINE
  5
88
330
84
100
AcDbEntity
  8
Layer 1
370
     0
100
AcDbSpline
210
0.0
220
0.0
230
1.0
 70
    11
 71
     3
 72
    17
 73
    13
 74
     0
 42
0.0000000001
 43
0.0000000001
 40
0.0
 40
0.0
 40
0.0
 40
0.0
 40
1.0
 40
1.0
 40
1.0
 40
2.0
 40
2.0
 40
2.0
 40
3.0
 40
3.0
 40
3.0
 40
4.0
 40
4.0
 40
4.0
 40
4.0
 10
26.47953813235723
 20
-179.3063139890804
 30
0.0
 10
26.47953813235723
 20
-180.135204509646
 30
0.0
 10
25.79499720785024
 20
-180.8559189606116
 30
0.0
 10
24.92941639616237
 20
-180.8559189606116
 30
0.0
 10
24.10069813048469
 20
-180.8559189606116
 30
0.0
 10
23.3796391697433
 20
-180.1710335263288
 30
0.0
 10
23.3796391697433
 20
-179.3063139890804
 30
0.0
 10
23.3796391697433
 20
-178.4777679782906
 30
0.0
 10
24.06486911380188
 20
-177.757053527325
 30
0.0
 10
24.92941639616237
 20
-177.757053527325
 30
0.0
 10
25.79499720785024
 20
-177.757053527325
 30
0.0
 10
26.47953813235723
 20
-178.441594451832
 30
0.0
 10
26.47953813235723
 20
-179.3063139890804
 30
0.0
  0
SPLINE
  5
89
330
84
100
AcDbEntity
  8
Layer 1
370
     0
100
AcDbSpline
210
0.0
220
0.0
230
1.0
 70
    11
 71
     3
 72
    17
 73
    13
 74
     0
 42
0.0000000001
 43
0.0000000001
 40
0.0
 40
0.0
 40
0.0
 40
0.0
 40
1.0
 40
1.0
 40
1.0
 40
2.0
 40
2.0
 40
2.0
 40
3.0
 40
3.0
 40
3.0
 40
4.0
 40
4.0
 40
4.0
 40
4.0
 10
26.51467812948844
 20
-204.6942728968275
 30
0.0
 10
26.51467812948844
 20
-205.5228189076173
 30
0.0
 10
25.83013720498145
 20
-206.2435333585829
 30
0.0
 10
24.96490090306937
 20
-206.2435333585829
 30
0.0
 10
24.13583812761589
 20
-206.2435333585829
 30
0.0
 10
23.41512367665031
 20
-205.5589924340759
 30
0.0
 10
23.41512367665031
 20
-204.6942728968275
 30
0.0
 10
23.41512367665031
 20
-203.8650378664861
 30
0.0
 10
24.10000911093309
 20
-203.1446679252963
 30
0.0
 10
24.96490090306937
 20
-203.1446679252963
 30
0.0
 10
25.83013720498145
 20
-203.1446679252963
 30
0.0
 10
26.51467812948844
 20
-203.8295533595791
 30
0.0
 10
26.51467812948844
 20
-204.6942728968275
 30
0.0
  0
SPLINE
  5
8A
330
84
100
AcDbEntity
  8
Layer 1
370
     0
100
AcDbSpline
210
0.0
220
0.0
230
1.0
 70
    11
 71
     3
 72
    29
 73
    25
 74
     0
 42
0.0000000001
 43
0.0000000001
 40
0.0
 40
0.0
 40
0.0
 40
0.0
 40
1.0
 40
1.0
 40
1.0
 40
2.0
 40
2.0
 40
2.0
 40
3.0
 40
3.0
 40
3.0
 40
4.0
 40
4.0
 40
4.0
 40
5.0
 40
5.0
 40
5.0
 40
6.0
 40
6.0
 40
6.0
 40
7.0
 40
7.0
 40
7.0
 40
8.0
 40
8.0
 40
8.0
 40
8.0
 10
45.00003916938347
 20
-212.522224022468
 30
0.0
 10
45.00003916938347
 20
-214.9902920562718
 30
0.0
 10
43.09558912878225
 20
-217.0001620882666
 30
0.0
 10
40.73190755704474
 20
-217.0001620882666
 30
0.0
 10
40.73190755704474
 20
-217.0001620882666
 30
0.0
 10
9.268001988468534
 20
-217.0001620882666
 30
0.0
 10
9.268001988468534
 20
-217.0001620882666
 30
0.0
 10
6.90518169117051
 20
-217.0001620882666
 30
0.0
 10
5.000042631017696
 20
-214.9902920562718
 30
0.0
 10
5.000042631017696
 20
-212.522224022468
 30
0.0
 10
5.000042631017696
 20
-212.522224022468
 30
0.0
 10
5.000042631017696
 20
-171.4783628634399
 30
0.0
 10
5.000042631017696
 20
-171.4783628634399
 30
0.0
 10
5.000042631017696
 20
-169.0102948296361
 30
0.0
 10
6.90518169117051
 20
-167.0000802878655
 30
0.0
 10
9.268001988468534
 20
-167.0000802878655
 30
0.0
 10
9.268001988468534
 20
-167.0000802878655
 30
0.0
 10
40.73190755704474
 20
-167.0000802878655
 30
0.0
 10
40.73190755704474
 20
-167.0000802878655
 30
0.0
 10
43.09558912878225
 20
-167.0000802878655
 30
0.0
 10
45.00003916938347
 20
-169.0102948296361
 30
0.0
 10
45.00003916938347
 20
-171.4783628634399
 30
0.0
 10
45.00003916938347
 20
-171.4783628634399
 30
0.0
 10
45.00003916938347
 20
-212.522224022468
 30
0.0
 10
45.00003916938347
 20
-212.522224022468
 30
0.0
  0
SPLINE
  5
8B
330
84
100
AcDbEntity
  8
Layer 1
370
     0
100
AcDbSpline
210
0.0
220
0.0
230
1.0
 70
    11
 71
     3
 72
    17
 73
    13
 74
     0
 42
0.0000000001
 43
0.0000000001
 40
0.0
 40
0.0
 40
0.0
 40
0.0
 40
1.0
 40
1.0
 40
1.0
 40
2.0
 40
2.0
 40
2.0
 40
3.0
 40
3.0
 40
3.0
 40
4.0
 40
4.0
 40
4.0
 40
4.0
 10
11.52350749060605
 20
-172.0075298790628
 30
0.0
 10
11.52350749060605
 20
-172.8360758898526
 30
0.0
 10
10.83879431121117
 20
-173.5567903408181
 30
0.0
 10
9.973730264186987
 20
-173.5567903408181
 30
0.0
 10
9.144667488733505
 20
-173.5567903408181
 30
0.0
 10
8.423953037767921
 20
-172.8722494163111
 30
0.0
 10
8.423953037767921
 20
-172.0075298790628
 30
0.0
 10
8.423953037767921
 20
-171.1786393584972
 30
0.0
 10
9.108666217162806
 20
-170.4579249075316
 30
0.0
 10
9.973730264186987
 20
-170.4579249075316
 30
0.0
 10
10.83879431121117
 20
-170.4579249075316
 30
0.0
 10
11.52350749060605
 20
-171.1428103418144
 30
0.0
 10
11.52350749060605
 20
-172.0075298790628
 30
0.0
  0
SPLINE
  5
8C
330
84
100
AcDbEntity
  8
Layer 1
370
     0
100
AcDbSpline
210
0.0
220
0.0
230
1.0
 70
    11
 71
     3
 72
    17
 73
    13
 74
     0
 42
0.0000000001
 43
0.0000000001
 40
0.0
 40
0.0
 40
0.0
 40
0.0
 40
1.0
 40
1.0
 40
1.0
 40
2.0
 40
2.0
 40
2.0
 40
3.0
 40
3.0
 40
3.0
 40
4.0
 40
4.0
 40
4.0
 40
4.0
 10
41.54116102038994
 20
-172.0075298790628
 30
0.0
 10
41.54116102038994
 20
-172.8360758898526
 30
0.0
 10
40.85627558610715
 20
-173.5567903408181
 30
0.0
 10
39.99155604885877
 20
-173.5567903408181
 30
0.0
 10
39.16232101851739
 20
-173.5567903408181
 30
0.0
 10
38.44160656755181
 20
-172.8722494163111
 30
0.0
 10
38.44160656755181
 20
-172.0075298790628
 30
0.0
 10
38.44160656755181
 20
-171.1786393584972
 30
0.0
 10
39.12614749205879
 20
-170.4579249075316
 30
0.0
 10
39.99155604885877
 20
-170.4579249075316
 30
0.0
 10
40.85627558610715
 20
-170.4579249075316
 30
0.0
 10
41.54116102038994
 20
-171.1428103418144
 30
0.0
 10
41.54116102038994
 20
-172.0075298790628
 30
0.0
  0
SPLINE
  5
8D
330
84
100
AcDbEntity
  8
Layer 1
370
     0
100
AcDbSpline
210
0.0
220
0.0
230
1.0
 70
    11
 71
     3
 72
    17
 73
    13
 74
     0
 42
0.0000000001
 43
0.0000000001
 40
0.0
 40
0.0
 40
0.0
 40
0.0
 40
1.0
 40
1.0
 40
1.0
 40
2.0
 40
2.0
 40
2.0
 40
3.0
 40
3.0
 40
3.0
 40
4.0
 40
4.0
 40
4.0
 40
4.0
 10
11.52350749060605
 20
-211.9934015166209
 30
0.0
 10
11.52350749060605
 20
-212.8219475274107
 30
0.0
 10
10.83879431121117
 20
-213.5426619783763
 30
0.0
 10
9.973730264186987
 20
-213.5426619783763
 30
0.0
 10
9.144667488733505
 20
-213.5426619783763
 30
0.0
 10
8.423953037767921
 20
-212.8581210538693
 30
0.0
 10
8.423953037767921
 20
-211.9934015166209
 30
0.0
 10
8.423953037767921
 20
-211.1645109960553
 30
0.0
 10
9.108666217162806
 20
-210.4441410548655
 30
0.0
 10
9.973730264186987
 20
-210.4441410548655
 30
0.0
 10
10.83879431121117
 20
-210.4441410548655
 30
0.0
 10
11.52350749060605
 20
-211.1286819793725
 30
0.0
 10
11.52350749060605
 20
-211.9934015166209
 30
0.0
  0
SPLINE
  5
8E
330
84
100
AcDbEntity
  8
Layer 1
370
     0
100
AcDbSpline
210
0.0
220
0.0
230
1.0
 70
    11
 71
     3
 72
    17
 73
    13
 74
     0
 42
0.0000000001
 43
0.0000000001
 40
0.0
 40
0.0
 40
0.0
 40
0.0
 40
1.0
 40
1.0
 40
1.0
 40
2.0
 40
2.0
 40
2.0
 40
3.0
 40
3.0
 40
3.0
 40
4.0
 40
4.0
 40
4.0
 40
4.0
 10
41.54116102038994
 20
-211.9934015166209
 30
0.0
 10
41.54116102038994
 20
-212.8219475274107
 30
0.0
 10
40.85627558610715
 20
-213.5426619783763
 30
0.0
 10
39.99155604885877
 20
-213.5426619783763
 30
0.0
 10
39.16232101851739
 20
-213.5426619783763
 30
0.0
 10
38.44160656755181
 20
-212.8581210538693
 30
0.0
 10
38.44160656755181
 20
-211.9934015166209
 30
0.0
 10
38.44160656755181
 20
-211.1645109960553
 30
0.0
 10
39.12614749205879
 20
-210.4441410548655
 30
0.0
 10
39.99155604885877
 20
-210.4441410548655
 30
0.0
 10
40.85627558610715
 20
-210.4441410548655
 30
0.0
 10
41.54116102038994
 20
-211.1286819793725
 30
0.0
 10
41.54116102038994
 20
-211.9934015166209
 30
0.0
  0
SPLINE
  5
8F
330
84
100
AcDbEntity
  8
Layer 1
370
     0
100
AcDbSpline
210
0.0
220
0.0
230
1.0
 70
    11
 71
     3
 72
    59
 73
    55
 74
     0
 42
0.0000000001
 43
0.0000000001
 40
0.0
 40
0.0
 40
0.0
 40
0.0
 40
1.0
 40
1.0
 40
1.0
 40
2.0
 40
2.0
 40
2.0
 40
3.0
 40
3.0
 40
3.0
 40
4.0
 40
4.0
 40
4.0
 40
5.0
 40
5.0
 40
5.0
 40
6.0
 40
6.0
 40
6.0
 40
7.0
 40
7.0
 40
7.0
 40
8.0
 40
8.0
 40
8.0
 40
9.0
 40
9.0
 40
9.0
 40
10.0
 40
10.0
 40
10.0
 40
11.0
 40
11.0
 40
11.0
 40
12.0
 40
12.0
 40
12.0
 40
13.0
 40
13.0
 40
13.0
 40
14.0
 40
14.0
 40
14.0
 40
15.0
 40
15.0
 40
15.0
 40
16.0
 40
16.0
 40
16.0
 40
17.0
 40
17.0
 40
17.0
 40
18.0
 40
18.0
 40
18.0
 40
18.0
 10
19.70923201841092
 20
-191.0837251844482
 30
0.0
 10
20.27371128605294
 20
-188.4385791258852
 30
0.0
 10
22.42534709078792
 20
-186.4996781077044
 30
0.0
 10
25.03552540710759
 20
-186.4996781077044
 30
0.0
 10
27.68084372055847
 20
-186.4996781077044
 30
0.0
 10
29.93841628135077
 20
-188.403439128754
 30
0.0
 10
30.43209879006668
 20
-191.0482406775412
 30
0.0
 10
30.43209879006668
 20
-191.0482406775412
 30
0.0
 10
32.33689334044369
 20
-191.0482406775412
 30
0.0
 10
32.33689334044369
 20
-191.0482406775412
 30
0.0
 10
32.33689334044369
 20
-191.0482406775412
 30
0.0
 10
32.33689334044369
 20
-190.3781691636177
 30
0.0
 10
32.33689334044369
 20
-190.3781691636177
 30
0.0
 10
32.33689334044369
 20
-190.3781691636177
 30
0.0
 10
34.73571490931242
 20
-190.3781691636177
 30
0.0
 10
34.73571490931242
 20
-190.3781691636177
 30
0.0
 10
34.73571490931242
 20
-190.3781691636177
 30
0.0
 10
34.73571490931242
 20
-193.6220732125144
 30
0.0
 10
34.73571490931242
 20
-193.6220732125144
 30
0.0
 10
34.73571490931242
 20
-193.6220732125144
 30
0.0
 10
32.33689334044369
 20
-193.6220732125144
 30
0.0
 10
32.33689334044369
 20
-193.6220732125144
 30
0.0
 10
32.33689334044369
 20
-193.6220732125144
 30
0.0
 10
32.33689334044369
 20
-192.8110972002902
 30
0.0
 10
32.33689334044369
 20
-192.8110972002902
 30
0.0
 10
32.33689334044369
 20
-192.8110972002902
 30
0.0
 10
30.50306780388069
 20
-192.8110972002902
 30
0.0
 10
30.50306780388069
 20
-192.8110972002902
 30
0.0
 10
30.15028979346541
 20
-195.4204142421704
 30
0.0
 10
27.8220927286349
 20
-197.5009087782035
 30
0.0
 10
25.00021315508848
 20
-197.5009087782035
 30
0.0
 10
22.21364583356117
 20
-197.5009087782035
 30
0.0
 10
19.92093327563767
 20
-195.3852742450392
 30
0.0
 10
19.53284301320328
 20
-192.775957203159
 30
0.0
 10
19.53284301320328
 20
-192.775957203159
 30
0.0
 10
17.66353296973327
 20
-192.775957203159
 30
0.0
 10
17.66353296973327
 20
-192.775957203159
 30
0.0
 10
17.66353296973327
 20
-192.775957203159
 30
0.0
 10
17.66353296973327
 20
-193.6220732125144
 30
0.0
 10
17.66353296973327
 20
-193.6220732125144
 30
0.0
 10
17.66353296973327
 20
-193.6220732125144
 30
0.0
 10
15.26453914597665
 20
-193.6220732125144
 30
0.0
 10
15.26453914597665
 20
-193.6220732125144
 30
0.0
 10
15.26453914597665
 20
-193.6220732125144
 30
0.0
 10
15.26453914597665
 20
-190.3781691636177
 30
0.0
 10
15.26453914597665
 20
-190.3781691636177
 30
0.0
 10
15.26453914597665
 20
-190.3781691636177
 30
0.0
 10
17.69884522175238
 20
-190.3781691636177
 30
0.0
 10
17.69884522175238
 20
-190.3781691636177
 30
0.0
 10
17.69884522175238
 20
-190.3781691636177
 30
0.0
 10
17.69884522175238
 20
-191.0837251844482
 30
0.0
 10
17.69884522175238
 20
-191.0837251844482
 30
0.0
 10
17.69884522175238
 20
-191.0837251844482
 30
0.0
 10
19.70923201841092
 20
-191.0837251844482
 30
0.0
 10
19.70923201841092
 20
-191.0837251844482
 30
0.0
  0
ENDBLK
  5
87
330
84
100
AcDbEntity
  8
0
100
AcDbBlockEnd
  0
BLOCK
  5
92
330
90
100
AcDbEntity
  8
0
100
AcDbBlockBegin
  2
block 9
 70
     0
 71
     0
 10
0.0
 20
0.0
 30
0.0
  3
block 9
  1

  0
SPLINE
  5
94
330
90
100
AcDbEntity
  8
Layer 1
370
     0
100
AcDbSpline
210
0.0
220
0.0
230
1.0
 70
    11
 71
     3
 72
    17
 73
    13
 74
     0
 42
0.0000000001
 43
0.0000000001
 40
0.0
 40
0.0
 40
0.0
 40
0.0
 40
1.0
 40
1.0
 40
1.0
 40
2.0
 40
2.0
 40
2.0
 40
3.0
 40
3.0
 40
3.0
 40
4.0
 40
4.0
 40
4.0
 40
4.0
 10
70.47946542260442
 20
-179.3063139890804
 30
0.0
 10
70.47946542260442
 20
-180.135204509646
 30
0.0
 10
69.79492449809744
 20
-180.8559189606116
 30
0.0
 10
68.92934368640957
 20
-180.8559189606116
 30
0.0
 10
68.10062542073189
 20
-180.8559189606116
 30
0.0
 10
67.3795664599905
 20
-180.1710335263288
 30
0.0
 10
67.3795664599905
 20
-179.3063139890804
 30
0.0
 10
67.3795664599905
 20
-178.4777679782906
 30
0.0
 10
68.06479640404908
 20
-177.757053527325
 30
0.0
 10
68.92934368640957
 20
-177.757053527325
 30
0.0
 10
69.79492449809744
 20
-177.757053527325
 30
0.0
 10
70.47946542260442
 20
-178.441594451832
 30
0.0
 10
70.47946542260442
 20
-179.3063139890804
 30
0.0
  0
SPLINE
  5
95
330
90
100
AcDbEntity
  8
Layer 1
370
     0
100
AcDbSpline
210
0.0
220
0.0
230
1.0
 70
    11
 71
     3
 72
    17
 73
    13
 74
     0
 42
0.0000000001
 43
0.0000000001
 40
0.0
 40
0.0
 40
0.0
 40
0.0
 40
1.0
 40
1.0
 40
1.0
 40
2.0
 40
2.0
 40
2.0
 40
3.0
 40
3.0
 40
3.0
 40
4.0
 40
4.0
 40
4.0
 40
4.0
 10
70.51460541973563
 20
-204.6942728968275
 30
0.0
 10
70.51460541973563
 20
-205.5228189076173
 30
0.0
 10
69.83006449522865
 20
-206.2435333585829
 30
0.0
 10
68.96482819331656
 20
-206.2435333585829
 30
0.0
 10
68.13576541786308
 20
-206.2435333585829
 30
0.0
 10
67.41505096689751
 20
-205.5589924340759
 30
0.0
 10
67.41505096689751
 20
-204.6942728968275
 30
0.0
 10
67.41505096689751
 20
-203.8650378664861
 30
0.0
 10
68.09993640118029
 20
-203.1446679252963
 30
0.0
 10
68.96482819331656
 20
-203.1446679252963
 30
0.0
 10
69.83006449522865
 20
-203.1446679252963
 30
0.0
 10
70.51460541973563
 20
-203.8295533595791
 30
0.0
 10
70.51460541973563
 20
-204.6942728968275
 30
0.0
  0
SPLINE
  5
96
330
90
100
AcDbEntity
  8
Layer 1
370
     0
100
AcDbSpline
210
0.0
220
0.0
230
1.0
 70
    11
 71
     3
 72
    29
 73
    25
 74
     0
 42
0.0000000001
 43
0.0000000001
 40
0.0
 40
0.0
 40
0.0
 40
0.0
 40
1.0
 40
1.0
 40
1.0
 40
2.0
 40
2.0
 40
2.0
 40
3.0
 40
3.0
 40
3.0
 40
4.0
 40
4.0
 40
4.0
 40
5.0
 40
5.0
 40
5.0
 40
6.0
 40
6.0
 40
6.0
 40
7.0
 40
7.0
 40
7.0
 40
8.0
 40
8.0
 40
8.0
 40
8.0
 10
88.99996645963067
 20
-212.522224022468
 30
0.0
 10
88.99996645963067
 20
-214.9902920562718
 30
0.0
 10
87.09551641902945
 20
-217.0001620882666
 30
0.0
 10
84.73183484729194
 20
-217.0001620882666
 30
0.0
 10
84.73183484729194
 20
-217.0001620882666
 30
0.0
 10
53.26792927871573
 20
-217.0001620882666
 30
0.0
 10
53.26792927871573
 20
-217.0001620882666
 30
0.0
 10
50.9051089814177
 20
-217.0001620882666
 30
0.0
 10
48.99996992126489
 20
-214.9902920562718
 30
0.0
 10
48.99996992126489
 20
-212.522224022468
 30
0.0
 10
48.99996992126489
 20
-212.522224022468
 30
0.0
 10
48.99996992126489
 20
-171.4783628634399
 30
0.0
 10
48.99996992126489
 20
-171.4783628634399
 30
0.0
 10
48.99996992126489
 20
-169.0102948296361
 30
0.0
 10
50.9051089814177
 20
-167.0000802878655
 30
0.0
 10
53.26792927871573
 20
-167.0000802878655
 30
0.0
 10
53.26792927871573
 20
-167.0000802878655
 30
0.0
 10
84.73183484729194
 20
-167.0000802878655
 30
0.0
 10
84.73183484729194
 20
-167.0000802878655
 30
0.0
 10
87.09551641902945
 20
-167.0000802878655
 30
0.0
 10
88.99996645963067
 20
-169.0102948296361
 30
0.0
 10
88.99996645963067
 20
-171.4783628634399
 30
0.0
 10
88.99996645963067
 20
-171.4783628634399
 30
0.0
 10
88.99996645963067
 20
-212.522224022468
 30
0.0
 10
88.99996645963067
 20
-212.522224022468
 30
0.0
  0
SPLINE
  5
97
330
90
100
AcDbEntity
  8
Layer 1
370
     0
100
AcDbSpline
210
0.0
220
0.0
230
1.0
 70
    11
 71
     3
 72
    17
 73
    13
 74
     0
 42
0.0000000001
 43
0.0000000001
 40
0.0
 40
0.0
 40
0.0
 40
0.0
 40
1.0
 40
1.0
 40
1.0
 40
2.0
 40
2.0
 40
2.0
 40
3.0
 40
3.0
 40
3.0
 40
4.0
 40
4.0
 40
4.0
 40
4.0
 10
55.52343478085324
 20
-172.0075298790628
 30
0.0
 10
55.52343478085324
 20
-172.8360758898526
 30
0.0
 10
54.83872160145836
 20
-173.5567903408181
 30
0.0
 10
53.97365755443418
 20
-173.5567903408181
 30
0.0
 10
53.1445947789807
 20
-173.5567903408181
 30
0.0
 10
52.42388032801512
 20
-172.8722494163111
 30
0.0
 10
52.42388032801512
 20
-172.0075298790628
 30
0.0
 10
52.42388032801512
 20
-171.1786393584972
 30
0.0
 10
53.10859350741
 20
-170.4579249075316
 30
0.0
 10
53.97365755443418
 20
-170.4579249075316
 30
0.0
 10
54.83872160145836
 20
-170.4579249075316
 30
0.0
 10
55.52343478085324
 20
-171.1428103418144
 30
0.0
 10
55.52343478085324
 20
-172.0075298790628
 30
0.0
  0
SPLINE
  5
98
330
90
100
AcDbEntity
  8
Layer 1
370
     0
100
AcDbSpline
210
0.0
220
0.0
230
1.0
 70
    11
 71
     3
 72
    17
 73
    13
 74
     0
 42
0.0000000001
 43
0.0000000001
 40
0.0
 40
0.0
 40
0.0
 40
0.0
 40
1.0
 40
1.0
 40
1.0
 40
2.0
 40
2.0
 40
2.0
 40
3.0
 40
3.0
 40
3.0
 40
4.0
 40
4.0
 40
4.0
 40
4.0
 10
85.54108831063714
 20
-172.0075298790628
 30
0.0
 10
85.54108831063714
 20
-172.8360758898526
 30
0.0
 10
84.85620287635435
 20
-173.5567903408181
 30
0.0
 10
83.99148333910597
 20
-173.5567903408181
 30
0.0
 10
83.16224830876459
 20
-173.5567903408181
 30
0.0
 10
82.441533857799
 20
-172.8722494163111
 30
0.0
 10
82.441533857799
 20
-172.0075298790628
 30
0.0
 10
82.441533857799
 20
-171.1786393584972
 30
0.0
 10
83.12607478230599
 20
-170.4579249075316
 30
0.0
 10
83.99148333910597
 20
-170.4579249075316
 30
0.0
 10
84.85620287635435
 20
-170.4579249075316
 30
0.0
 10
85.54108831063714
 20
-171.1428103418144
 30
0.0
 10
85.54108831063714
 20
-172.0075298790628
 30
0.0
  0
SPLINE
  5
99
330
90
100
AcDbEntity
  8
Layer 1
370
     0
100
AcDbSpline
210
0.0
220
0.0
230
1.0
 70
    11
 71
     3
 72
    17
 73
    13
 74
     0
 42
0.0000000001
 43
0.0000000001
 40
0.0
 40
0.0
 40
0.0
 40
0.0
 40
1.0
 40
1.0
 40
1.0
 40
2.0
 40
2.0
 40
2.0
 40
3.0
 40
3.0
 40
3.0
 40
4.0
 40
4.0
 40
4.0
 40
4.0
 10
55.52343478085324
 20
-211.9934015166209
 30
0.0
 10
55.52343478085324
 20
-212.8219475274107
 30
0.0
 10
54.83872160145836
 20
-213.5426619783763
 30
0.0
 10
53.97365755443418
 20
-213.5426619783763
 30
0.0
 10
53.1445947789807
 20
-213.5426619783763
 30
0.0
 10
52.42388032801512
 20
-212.8581210538693
 30
0.0
 10
52.42388032801512
 20
-211.9934015166209
 30
0.0
 10
52.42388032801512
 20
-211.1645109960553
 30
0.0
 10
53.10859350741
 20
-210.4441410548655
 30
0.0
 10
53.97365755443418
 20
-210.4441410548655
 30
0.0
 10
54.83872160145836
 20
-210.4441410548655
 30
0.0
 10
55.52343478085324
 20
-211.1286819793725
 30
0.0
 10
55.52343478085324
 20
-211.9934015166209
 30
0.0
  0
SPLINE
  5
9A
330
90
100
AcDbEntity
  8
Layer 1
370
     0
100
AcDbSpline
210
0.0
220
0.0
230
1.0
 70
    11
 71
     3
 72
    17
 73
    13
 74
     0
 42
0.0000000001
 43
0.0000000001
 40
0.0
 40
0.0
 40
0.0
 40
0.0
 40
1.0
 40
1.0
 40
1.0
 40
2.0
 40
2.0
 40
2.0
 40
3.0
 40
3.0
 40
3.0
 40
4.0
 40
4.0
 40
4.0
 40
4.0
 10
85.54108831063714
 20
-211.9934015166209
 30
0.0
 10
85.54108831063714
 20
-212.8219475274107
 30
0.0
 10
84.85620287635435
 20
-213.5426619783763
 30
0.0
 10
83.99148333910597
 20
-213.5426619783763
 30
0.0
 10
83.16224830876459
 20
-213.5426619783763
 30
0.0
 10
82.441533857799
 20
-212.8581210538693
 30
0.0
 10
82.441533857799
 20
-211.9934015166209
 30
0.0
 10
82.441533857799
 20
-211.1645109960553
 30
0.0
 10
83.12607478230599
 20
-210.4441410548655
 30
0.0
 10
83.99148333910597
 20
-210.4441410548655
 30
0.0
 10
84.85620287635435
 20
-210.4441410548655
 30
0.0
 10
85.54108831063714
 20
-211.1286819793725
 30
0.0
 10
85.54108831063714
 20
-211.9934015166209
 30
0.0
  0
SPLINE
  5
9B
330
90
100
AcDbEntity
  8
Layer 1
370
     0
100
AcDbSpline
210
0.0
220
0.0
230
1.0
 70
    11
 71
     3
 72
    59
 73
    55
 74
     0
 42
0.0000000001
 43
0.0000000001
 40
0.0
 40
0.0
 40
0.0
 40
0.0
 40
1.0
 40
1.0
 40
1.0
 40
2.0
 40
2.0
 40
2.0
 40
3.0
 40
3.0
 40
3.0
 40
4.0
 40
4.0
 40
4.0
 40
5.0
 40
5.0
 40
5.0
 40
6.0
 40
6.0
 40
6.0
 40
7.0
 40
7.0
 40
7.0
 40
8.0
 40
8.0
 40
8.0
 40
9.0
 40
9.0
 40
9.0
 40
10.0
 40
10.0
 40
10.0
 40
11.0
 40
11.0
 40
11.0
 40
12.0
 40
12.0
 40
12.0
 40
13.0
 40
13.0
 40
13.0
 40
14.0
 40
14.0
 40
14.0
 40
15.0
 40
15.0
 40
15.0
 40
16.0
 40
16.0
 40
16.0
 40
17.0
 40
17.0
 40
17.0
 40
18.0
 40
18.0
 40
18.0
 40
18.0
 10
63.70915930865812
 20
-191.0837251844482
 30
0.0
 10
64.27363857630014
 20
-188.4385791258852
 30
0.0
 10
66.42527438103511
 20
-186.4996781077044
 30
0.0
 10
69.03545269735478
 20
-186.4996781077044
 30
0.0
 10
71.68077101080567
 20
-186.4996781077044
 30
0.0
 10
73.93834357159797
 20
-188.403439128754
 30
0.0
 10
74.43202608031388
 20
-191.0482406775412
 30
0.0
 10
74.43202608031388
 20
-191.0482406775412
 30
0.0
 10
76.3368206306909
 20
-191.0482406775412
 30
0.0
 10
76.3368206306909
 20
-191.0482406775412
 30
0.0
 10
76.3368206306909
 20
-191.0482406775412
 30
0.0
 10
76.3368206306909
 20
-190.3781691636177
 30
0.0
 10
76.3368206306909
 20
-190.3781691636177
 30
0.0
 10
76.3368206306909
 20
-190.3781691636177
 30
0.0
 10
78.7356421995596
 20
-190.3781691636177
 30
0.0
 10
78.7356421995596
 20
-190.3781691636177
 30
0.0
 10
78.7356421995596
 20
-190.3781691636177
 30
0.0
 10
78.7356421995596
 20
-193.6220732125144
 30
0.0
 10
78.7356421995596
 20
-193.6220732125144
 30
0.0
 10
78.7356421995596
 20
-193.6220732125144
 30
0.0
 10
76.3368206306909
 20
-193.6220732125144
 30
0.0
 10
76.3368206306909
 20
-193.6220732125144
 30
0.0
 10
76.3368206306909
 20
-193.6220732125144
 30
0.0
 10
76.3368206306909
 20
-192.8110972002902
 30
0.0
 10
76.3368206306909
 20
-192.8110972002902
 30
0.0
 10
76.3368206306909
 20
-192.8110972002902
 30
0.0
 10
74.50299509412788
 20
-192.8110972002902
 30
0.0
 10
74.50299509412788
 20
-192.8110972002902
 30
0.0
 10
74.1502170837126
 20
-195.4204142421704
 30
0.0
 10
71.8220200188821
 20
-197.5009087782035
 30
0.0
 10
69.00014044533567
 20
-197.5009087782035
 30
0.0
 10
66.21357312380836
 20
-197.5009087782035
 30
0.0
 10
63.92086056588487
 20
-195.3852742450392
 30
0.0
 10
63.53277030345048
 20
-192.775957203159
 30
0.0
 10
63.53277030345048
 20
-192.775957203159
 30
0.0
 10
61.66346025998047
 20
-192.775957203159
 30
0.0
 10
61.66346025998047
 20
-192.775957203159
 30
0.0
 10
61.66346025998047
 20
-192.775957203159
 30
0.0
 10
61.66346025998047
 20
-193.6220732125144
 30
0.0
 10
61.66346025998047
 20
-193.6220732125144
 30
0.0
 10
61.66346025998047
 20
-193.6220732125144
 30
0.0
 10
59.26446643622384
 20
-193.6220732125144
 30
0.0
 10
59.26446643622384
 20
-193.6220732125144
 30
0.0
 10
59.26446643622384
 20
-193.6220732125144
 30
0.0
 10
59.26446643622384
 20
-190.3781691636177
 30
0.0
 10
59.26446643622384
 20
-190.3781691636177
 30
0.0
 10
59.26446643622384
 20
-190.3781691636177
 30
0.0
 10
61.69877251199957
 20
-190.3781691636177
 30
0.0
 10
61.69877251199957
 20
-190.3781691636177
 30
0.0
 10
61.69877251199957
 20
-190.3781691636177
 30
0.0
 10
61.69877251199957
 20
-191.0837251844482
 30
0.0
 10
61.69877251199957
 20
-191.0837251844482
 30
0.0
 10
61.69877251199957
 20
-191.0837251844482
 30
0.0
 10
63.70915930865812
 20
-191.0837251844482
 30
0.0
 10
63.70915930865812
 20
-191.0837251844482
 30
0.0
  0
ENDBLK
  5
93
330
90
100
AcDbEntity
  8
0
100
AcDbBlockEnd
  0
BLOCK
  5
9E
330
9C
100
AcDbEntity
  8
0
100
AcDbBlockBegin
  2
block 10
 70
     0
 71
     0
 10
0.0
 20
0.0
 30
0.0
  3
block 10
  1

  0
SPLINE
  5
A0
330
9C
100
AcDbEntity
  8
Layer 1
370
     0
100
AcDbSpline
210
0.0
220
0.0
230
1.0
 70
    11
 71
     3
 72
    17
 73
    13
 74
     0
 42
0.0000000001
 43
0.0000000001
 40
0.0
 40
0.0
 40
0.0
 40
0.0
 40
1.0
 40
1.0
 40
1.0
 40
2.0
 40
2.0
 40
2.0
 40
3.0
 40
3.0
 40
3.0
 40
4.0
 40
4.0
 40
4.0
 40
4.0
 10
26.47953813235723
 20
-233.3064987962509
 30
0.0
 10
26.47953813235723
 20
-234.1353893168165
 30
0.0
 10
25.79499720785024
 20
-234.8561037677821
 30
0.0
 10
24.92941639616237
 20
-234.8561037677821
 30
0.0
 10
24.10069813048469
 20
-234.8561037677821
 30
0.0
 10
23.3796391697433
 20
-234.1712183334993
 30
0.0
 10
23.3796391697433
 20
-233.3064987962509
 30
0.0
 10
23.3796391697433
 20
-232.4779527854611
 30
0.0
 10
24.06486911380188
 20
-231.7572383344955
 30
0.0
 10
24.92941639616237
 20
-231.7572383344955
 30
0.0
 10
25.79499720785024
 20
-231.7572383344955
 30
0.0
 10
26.47953813235723
 20
-232.4417792590025
 30
0.0
 10
26.47953813235723
 20
-233.3064987962509
 30
0.0
  0
SPLINE
  5
A1
330
9C
100
AcDbEntity
  8
Layer 1
370
     0
100
AcDbSpline
210
0.0
220
0.0
230
1.0
 70
    11
 71
     3
 72
    17
 73
    13
 74
     0
 42
0.0000000001
 43
0.0000000001
 40
0.0
 40
0.0
 40
0.0
 40
0.0
 40
1.0
 40
1.0
 40
1.0
 40
2.0
 40
2.0
 40
2.0
 40
3.0
 40
3.0
 40
3.0
 40
4.0
 40
4.0
 40
4.0
 40
4.0
 10
26.51467812948844
 20
-258.694457703998
 30
0.0
 10
26.51467812948844
 20
-259.5230037147878
 30
0.0
 10
25.83013720498145
 20
-260.2437181657533
 30
0.0
 10
24.96490090306937
 20
-260.2437181657533
 30
0.0
 10
24.13583812761589
 20
-260.2437181657533
 30
0.0
 10
23.41512367665031
 20
-259.5591772412463
 30
0.0
 10
23.41512367665031
 20
-258.694457703998
 30
0.0
 10
23.41512367665031
 20
-257.8652226736566
 30
0.0
 10
24.10000911093309
 20
-257.1448527324668
 30
0.0
 10
24.96490090306937
 20
-257.1448527324668
 30
0.0
 10
25.83013720498145
 20
-257.1448527324668
 30
0.0
 10
26.51467812948844
 20
-257.8297381667496
 30
0.0
 10
26.51467812948844
 20
-258.694457703998
 30
0.0
  0
SPLINE
  5
A2
330
9C
100
AcDbEntity
  8
Layer 1
370
     0
100
AcDbSpline
210
0.0
220
0.0
230
1.0
 70
    11
 71
     3
 72
    29
 73
    25
 74
     0
 42
0.0000000001
 43
0.0000000001
 40
0.0
 40
0.0
 40
0.0
 40
0.0
 40
1.0
 40
1.0
 40
1.0
 40
2.0
 40
2.0
 40
2.0
 40
3.0
 40
3.0
 40
3.0
 40
4.0
 40
4.0
 40
4.0
 40
5.0
 40
5.0
 40
5.0
 40
6.0
 40
6.0
 40
6.0
 40
7.0
 40
7.0
 40
7.0
 40
8.0
 40
8.0
 40
8.0
 40
8.0
 10
45.00003916938347
 20
-266.5224088296385
 30
0.0
 10
45.00003916938347
 20
-268.9904768634423
 30
0.0
 10
43.09558912878225
 20
-271.0003468954371
 30
0.0
 10
40.73190755704474
 20
-271.0003468954371
 30
0.0
 10
40.73190755704474
 20
-271.0003468954371
 30
0.0
 10
9.268001988468534
 20
-271.0003468954371
 30
0.0
 10
9.268001988468534
 20
-271.0003468954371
 30
0.0
 10
6.90518169117051
 20
-271.0003468954371
 30
0.0
 10
5.000042631017696
 20
-268.9904768634423
 30
0.0
 10
5.000042631017696
 20
-266.5224088296385
 30
0.0
 10
5.000042631017696
 20
-266.5224088296385
 30
0.0
 10
5.000042631017696
 20
-225.4785476706103
 30
0.0
 10
5.000042631017696
 20
-225.4785476706103
 30
0.0
 10
5.000042631017696
 20
-223.0104796368066
 30
0.0
 10
6.90518169117051
 20
-221.000265095036
 30
0.0
 10
9.268001988468534
 20
-221.000265095036
 30
0.0
 10
9.268001988468534
 20
-221.000265095036
 30
0.0
 10
40.73190755704474
 20
-221.000265095036
 30
0.0
 10
40.73190755704474
 20
-221.000265095036
 30
0.0
 10
43.09558912878225
 20
-221.000265095036
 30
0.0
 10
45.00003916938347
 20
-223.0104796368066
 30
0.0
 10
45.00003916938347
 20
-225.4785476706103
 30
0.0
 10
45.00003916938347
 20
-225.4785476706103
 30
0.0
 10
45.00003916938347
 20
-266.5224088296385
 30
0.0
 10
45.00003916938347
 20
-266.5224088296385
 30
0.0
  0
SPLINE
  5
A3
330
9C
100
AcDbEntity
  8
Layer 1
370
     0
100
AcDbSpline
210
0.0
220
0.0
230
1.0
 70
    11
 71
     3
 72
    17
 73
    13
 74
     0
 42
0.0000000001
 43
0.0000000001
 40
0.0
 40
0.0
 40
0.0
 40
0.0
 40
1.0
 40
1.0
 40
1.0
 40
2.0
 40
2.0
 40
2.0
 40
3.0
 40
3.0
 40
3.0
 40
4.0
 40
4.0
 40
4.0
 40
4.0
 10
11.52350749060605
 20
-226.0077146862333
 30
0.0
 10
11.52350749060605
 20
-226.8362606970231
 30
0.0
 10
10.83879431121117
 20
-227.5569751479886
 30
0.0
 10
9.973730264186987
 20
-227.5569751479886
 30
0.0
 10
9.144667488733505
 20
-227.5569751479886
 30
0.0
 10
8.423953037767921
 20
-226.8724342234816
 30
0.0
 10
8.423953037767921
 20
-226.0077146862333
 30
0.0
 10
8.423953037767921
 20
-225.1788241656677
 30
0.0
 10
9.108666217162806
 20
-224.4581097147021
 30
0.0
 10
9.973730264186987
 20
-224.4581097147021
 30
0.0
 10
10.83879431121117
 20
-224.4581097147021
 30
0.0
 10
11.52350749060605
 20
-225.1429951489849
 30
0.0
 10
11.52350749060605
 20
-226.0077146862333
 30
0.0
  0
SPLINE
  5
A4
330
9C
100
AcDbEntity
  8
Layer 1
370
     0
100
AcDbSpline
210
0.0
220
0.0
230
1.0
 70
    11
 71
     3
 72
    17
 73
    13
 74
     0
 42
0.0000000001
 43
0.0000000001
 40
0.0
 40
0.0
 40
0.0
 40
0.0
 40
1.0
 40
1.0
 40
1.0
 40
2.0
 40
2.0
 40
2.0
 40
3.0
 40
3.0
 40
3.0
 40
4.0
 40
4.0
 40
4.0
 40
4.0
 10
41.54116102038994
 20
-226.0077146862333
 30
0.0
 10
41.54116102038994
 20
-226.8362606970231
 30
0.0
 10
40.85627558610715
 20
-227.5569751479886
 30
0.0
 10
39.99155604885877
 20
-227.5569751479886
 30
0.0
 10
39.16232101851739
 20
-227.5569751479886
 30
0.0
 10
38.44160656755181
 20
-226.8724342234816
 30
0.0
 10
38.44160656755181
 20
-226.0077146862333
 30
0.0
 10
38.44160656755181
 20
-225.1788241656677
 30
0.0
 10
39.12614749205879
 20
-224.4581097147021
 30
0.0
 10
39.99155604885877
 20
-224.4581097147021
 30
0.0
 10
40.85627558610715
 20
-224.4581097147021
 30
0.0
 10
41.54116102038994
 20
-225.1429951489849
 30
0.0
 10
41.54116102038994
 20
-226.0077146862333
 30
0.0
  0
SPLINE
  5
A5
330
9C
100
AcDbEntity
  8
Layer 1
370
     0
100
AcDbSpline
210
0.0
220
0.0
230
1.0
 70
    11
 71
     3
 72
    17
 73
    13
 74
     0
 42
0.0000000001
 43
0.0000000001
 40
0.0
 40
0.0
 40
0.0
 40
0.0
 40
1.0
 40
1.0
 40
1.0
 40
2.0
 40
2.0
 40
2.0
 40
3.0
 40
3.0
 40
3.0
 40
4.0
 40
4.0
 40
4.0
 40
4.0
 10
11.52350749060605
 20
-265.9935863237914
 30
0.0
 10
11.52350749060605
 20
-266.8221323345812
 30
0.0
 10
10.83879431121117
 20
-267.5428467855468
 30
0.0
 10
9.973730264186987
 20
-267.5428467855468
 30
0.0
 10
9.144667488733505
 20
-267.5428467855468
 30
0.0
 10
8.423953037767921
 20
-266.8583058610398
 30
0.0
 10
8.423953037767921
 20
-265.9935863237914
 30
0.0
 10
8.423953037767921
 20
-265.1646958032258
 30
0.0
 10
9.108666217162806
 20
-264.444325862036
 30
0.0
 10
9.973730264186987
 20
-264.444325862036
 30
0.0
 10
10.83879431121117
 20
-264.444325862036
 30
0.0
 10
11.52350749060605
 20
-265.128866786543
 30
0.0
 10
11.52350749060605
 20
-265.9935863237914
 30
0.0
  0
SPLINE
  5
A6
330
9C
100
AcDbEntity
  8
Layer 1
370
     0
100
AcDbSpline
210
0.0
220
0.0
230
1.0
 70
    11
 71
     3
 72
    17
 73
    13
 74
     0
 42
0.0000000001
 43
0.0000000001
 40
0.0
 40
0.0
 40
0.0
 40
0.0
 40
1.0
 40
1.0
 40
1.0
 40
2.0
 40
2.0
 40
2.0
 40
3.0
 40
3.0
 40
3.0
 40
4.0
 40
4.0
 40
4.0
 40
4.0
 10
41.54116102038994
 20
-265.9935863237914
 30
0.0
 10
41.54116102038994
 20
-266.8221323345812
 30
0.0
 10
40.85627558610715
 20
-267.5428467855468
 30
0.0
 10
39.99155604885877
 20
-267.5428467855468
 30
0.0
 10
39.16232101851739
 20
-267.5428467855468
 30
0.0
 10
38.44160656755181
 20
-266.8583058610398
 30
0.0
 10
38.44160656755181
 20
-265.9935863237914
 30
0.0
 10
38.44160656755181
 20
-265.1646958032258
 30
0.0
 10
39.12614749205879
 20
-264.444325862036
 30
0.0
 10
39.99155604885877
 20
-264.444325862036
 30
0.0
 10
40.85627558610715
 20
-264.444325862036
 30
0.0
 10
41.54116102038994
 20
-265.128866786543
 30
0.0
 10
41.54116102038994
 20
-265.9935863237914
 30
0.0
  0
SPLINE
  5
A7
330
9C
100
AcDbEntity
  8
Layer 1
370
     0
100
AcDbSpline
210
0.0
220
0.0
230
1.0
 70
    11
 71
     3
 72
    59
 73
    55
 74
     0
 42
0.0000000001
 43
0.0000000001
 40
0.0
 40
0.0
 40
0.0
 40
0.0
 40
1.0
 40
1.0
 40
1.0
 40
2.0
 40
2.0
 40
2.0
 40
3.0
 40
3.0
 40
3.0
 40
4.0
 40
4.0
 40
4.0
 40
5.0
 40
5.0
 40
5.0
 40
6.0
 40
6.0
 40
6.0
 40
7.0
 40
7.0
 40
7.0
 40
8.0
 40
8.0
 40
8.0
 40
9.0
 40
9.0
 40
9.0
 40
10.0
 40
10.0
 40
10.0
 40
11.0
 40
11.0
 40
11.0
 40
12.0
 40
12.0
 40
12.0
 40
13.0
 40
13.0
 40
13.0
 40
14.0
 40
14.0
 40
14.0
 40
15.0
 40
15.0
 40
15.0
 40
16.0
 40
16.0
 40
16.0
 40
17.0
 40
17.0
 40
17.0
 40
18.0
 40
18.0
 40
18.0
 40
18.0
 10
19.70923201841092
 20
-245.0839099916187
 30
0.0
 10
20.27371128605294
 20
-242.4387639330557
 30
0.0
 10
22.42534709078792
 20
-240.4998629148749
 30
0.0
 10
25.03552540710759
 20
-240.4998629148749
 30
0.0
 10
27.68084372055847
 20
-240.4998629148749
 30
0.0
 10
29.93841628135077
 20
-242.4036239359245
 30
0.0
 10
30.43209879006668
 20
-245.0484254847117
 30
0.0
 10
30.43209879006668
 20
-245.0484254847117
 30
0.0
 10
32.33689334044369
 20
-245.0484254847117
 30
0.0
 10
32.33689334044369
 20
-245.0484254847117
 30
0.0
 10
32.33689334044369
 20
-245.0484254847117
 30
0.0
 10
32.33689334044369
 20
-244.3783539707882
 30
0.0
 10
32.33689334044369
 20
-244.3783539707882
 30
0.0
 10
32.33689334044369
 20
-244.3783539707882
 30
0.0
 10
34.73571490931242
 20
-244.3783539707882
 30
0.0
 10
34.73571490931242
 20
-244.3783539707882
 30
0.0
 10
34.73571490931242
 20
-244.3783539707882
 30
0.0
 10
34.73571490931242
 20
-247.6222580196849
 30
0.0
 10
34.73571490931242
 20
-247.6222580196849
 30
0.0
 10
34.73571490931242
 20
-247.6222580196849
 30
0.0
 10
32.33689334044369
 20
-247.6222580196849
 30
0.0
 10
32.33689334044369
 20
-247.6222580196849
 30
0.0
 10
32.33689334044369
 20
-247.6222580196849
 30
0.0
 10
32.33689334044369
 20
-246.8112820074607
 30
0.0
 10
32.33689334044369
 20
-246.8112820074607
 30
0.0
 10
32.33689334044369
 20
-246.8112820074607
 30
0.0
 10
30.50306780388069
 20
-246.8112820074607
 30
0.0
 10
30.50306780388069
 20
-246.8112820074607
 30
0.0
 10
30.15028979346541
 20
-249.4205990493409
 30
0.0
 10
27.8220927286349
 20
-251.501093585374
 30
0.0
 10
25.00021315508848
 20
-251.501093585374
 30
0.0
 10
22.21364583356117
 20
-251.501093585374
 30
0.0
 10
19.92093327563767
 20
-249.3854590522097
 30
0.0
 10
19.53284301320328
 20
-246.7761420103295
 30
0.0
 10
19.53284301320328
 20
-246.7761420103295
 30
0.0
 10
17.66353296973327
 20
-246.7761420103295
 30
0.0
 10
17.66353296973327
 20
-246.7761420103295
 30
0.0
 10
17.66353296973327
 20
-246.7761420103295
 30
0.0
 10
17.66353296973327
 20
-247.6222580196849
 30
0.0
 10
17.66353296973327
 20
-247.6222580196849
 30
0.0
 10
17.66353296973327
 20
-247.6222580196849
 30
0.0
 10
15.26453914597665
 20
-247.6222580196849
 30
0.0
 10
15.26453914597665
 20
-247.6222580196849
 30
0.0
 10
15.26453914597665
 20
-247.6222580196849
 30
0.0
 10
15.26453914597665
 20
-244.3783539707882
 30
0.0
 10
15.26453914597665
 20
-244.3783539707882
 30
0.0
 10
15.26453914597665
 20
-244.3783539707882
 30
0.0
 10
17.69884522175238
 20
-244.3783539707882
 30
0.0
 10
17.69884522175238
 20
-244.3783539707882
 30
0.0
 10
17.69884522175238
 20
-244.3783539707882
 30
0.0
 10
17.69884522175238
 20
-245.0839099916187
 30
0.0
 10
17.69884522175238
 20
-245.0839099916187
 30
0.0
 10
17.69884522175238
 20
-245.0839099916187
 30
0.0
 10
19.70923201841092
 20
-245.0839099916187
 30
0.0
 10
19.70923201841092
 20
-245.0839099916187
 30
0.0
  0
ENDBLK
  5
9F
330
9C
100
AcDbEntity
  8
0
100
AcDbBlockEnd
  0
BLOCK
  5
AA
330
A8
100
AcDbEntity
  8
0
100
AcDbBlockBegin
  2
block 11
 70
     0
 71
     0
 10
0.0
 20
0.0
 30
0.0
  3
block 11
  1

  0
SPLINE
  5
AC
330
A8
100
AcDbEntity
  8
Layer 1
370
     0
100
AcDbSpline
210
0.0
220
0.0
230
1.0
 70
    11
 71
     3
 72
    17
 73
    13
 74
     0
 42
0.0000000001
 43
0.0000000001
 40
0.0
 40
0.0
 40
0.0
 40
0.0
 40
1.0
 40
1.0
 40
1.0
 40
2.0
 40
2.0
 40
2.0
 40
3.0
 40
3.0
 40
3.0
 40
4.0
 40
4.0
 40
4.0
 40
4.0
 10
70.47946542260442
 20
-233.3064987962509
 30
0.0
 10
70.47946542260442
 20
-234.1353893168165
 30
0.0
 10
69.79492449809744
 20
-234.8561037677821
 30
0.0
 10
68.92934368640957
 20
-234.8561037677821
 30
0.0
 10
68.10062542073189
 20
-234.8561037677821
 30
0.0
 10
67.3795664599905
 20
-234.1712183334993
 30
0.0
 10
67.3795664599905
 20
-233.3064987962509
 30
0.0
 10
67.3795664599905
 20
-232.4779527854611
 30
0.0
 10
68.06479640404908
 20
-231.7572383344955
 30
0.0
 10
68.92934368640957
 20
-231.7572383344955
 30
0.0
 10
69.79492449809744
 20
-231.7572383344955
 30
0.0
 10
70.47946542260442
 20
-232.4417792590025
 30
0.0
 10
70.47946542260442
 20
-233.3064987962509
 30
0.0
  0
SPLINE
  5
AD
330
A8
100
AcDbEntity
  8
Layer 1
370
     0
100
AcDbSpline
210
0.0
220
0.0
230
1.0
 70
    11
 71
     3
 72
    17
 73
    13
 74
     0
 42
0.0000000001
 43
0.0000000001
 40
0.0
 40
0.0
 40
0.0
 40
0.0
 40
1.0
 40
1.0
 40
1.0
 40
2.0
 40
2.0
 40
2.0
 40
3.0
 40
3.0
 40
3.0
 40
4.0
 40
4.0
 40
4.0
 40
4.0
 10
70.51460541973563
 20
-258.694457703998
 30
0.0
 10
70.51460541973563
 20
-259.5230037147878
 30
0.0
 10
69.83006449522865
 20
-260.2437181657533
 30
0.0
 10
68.96482819331656
 20
-260.2437181657533
 30
0.0
 10
68.13576541786308
 20
-260.2437181657533
 30
0.0
 10
67.41505096689751
 20
-259.5591772412463
 30
0.0
 10
67.41505096689751
 20
-258.694457703998
 30
0.0
 10
67.41505096689751
 20
-257.8652226736566
 30
0.0
 10
68.09993640118029
 20
-257.1448527324668
 30
0.0
 10
68.96482819331656
 20
-257.1448527324668
 30
0.0
 10
69.83006449522865
 20
-257.1448527324668
 30
0.0
 10
70.51460541973563
 20
-257.8297381667496
 30
0.0
 10
70.51460541973563
 20
-258.694457703998
 30
0.0
  0
SPLINE
  5
AE
330
A8
100
AcDbEntity
  8
Layer 1
370
     0
100
AcDbSpline
210
0.0
220
0.0
230
1.0
 70
    11
 71
     3
 72
    29
 73
    25
 74
     0
 42
0.0000000001
 43
0.0000000001
 40
0.0
 40
0.0
 40
0.0
 40
0.0
 40
1.0
 40
1.0
 40
1.0
 40
2.0
 40
2.0
 40
2.0
 40
3.0
 40
3.0
 40
3.0
 40
4.0
 40
4.0
 40
4.0
 40
5.0
 40
5.0
 40
5.0
 40
6.0
 40
6.0
 40
6.0
 40
7.0
 40
7.0
 40
7.0
 40
8.0
 40
8.0
 40
8.0
 40
8.0
 10
88.99996645963067
 20
-266.5224088296385
 30
0.0
 10
88.99996645963067
 20
-268.9904768634423
 30
0.0
 10
87.09551641902945
 20
-271.0003468954371
 30
0.0
 10
84.73183484729194
 20
-271.0003468954371
 30
0.0
 10
84.73183484729194
 20
-271.0003468954371
 30
0.0
 10
53.26792927871573
 20
-271.0003468954371
 30
0.0
 10
53.26792927871573
 20
-271.0003468954371
 30
0.0
 10
50.9051089814177
 20
-271.0003468954371
 30
0.0
 10
48.99996992126489
 20
-268.9904768634423
 30
0.0
 10
48.99996992126489
 20
-266.5224088296385
 30
0.0
 10
48.99996992126489
 20
-266.5224088296385
 30
0.0
 10
48.99996992126489
 20
-225.4785476706103
 30
0.0
 10
48.99996992126489
 20
-225.4785476706103
 30
0.0
 10
48.99996992126489
 20
-223.0104796368066
 30
0.0
 10
50.9051089814177
 20
-221.000265095036
 30
0.0
 10
53.26792927871573
 20
-221.000265095036
 30
0.0
 10
53.26792927871573
 20
-221.000265095036
 30
0.0
 10
84.73183484729194
 20
-221.000265095036
 30
0.0
 10
84.73183484729194
 20
-221.000265095036
 30
0.0
 10
87.09551641902945
 20
-221.000265095036
 30
0.0
 10
88.99996645963067
 20
-223.0104796368066
 30
0.0
 10
88.99996645963067
 20
-225.4785476706103
 30
0.0
 10
88.99996645963067
 20
-225.4785476706103
 30
0.0
 10
88.99996645963067
 20
-266.5224088296385
 30
0.0
 10
88.99996645963067
 20
-266.5224088296385
 30
0.0
  0
SPLINE
  5
AF
330
A8
100
AcDbEntity
  8
Layer 1
370
     0
100
AcDbSpline
210
0.0
220
0.0
230
1.0
 70
    11
 71
     3
 72
    17
 73
    13
 74
     0
 42
0.0000000001
 43
0.0000000001
 40
0.0
 40
0.0
 40
0.0
 40
0.0
 40
1.0
 40
1.0
 40
1.0
 40
2.0
 40
2.0
 40
2.0
 40
3.0
 40
3.0
 40
3.0
 40
4.0
 40
4.0
 40
4.0
 40
4.0
 10
55.52343478085324
 20
-226.0077146862333
 30
0.0
 10
55.52343478085324
 20
-226.8362606970231
 30
0.0
 10
54.83872160145836
 20
-227.5569751479886
 30
0.0
 10
53.97365755443418
 20
-227.5569751479886
 30
0.0
 10
53.1445947789807
 20
-227.5569751479886
 30
0.0
 10
52.42388032801512
 20
-226.8724342234816
 30
0.0
 10
52.42388032801512
 20
-226.0077146862333
 30
0.0
 10
52.42388032801512
 20
-225.1788241656677
 30
0.0
 10
53.10859350741
 20
-224.4581097147021
 30
0.0
 10
53.97365755443418
 20
-224.4581097147021
 30
0.0
 10
54.83872160145836
 20
-224.4581097147021
 30
0.0
 10
55.52343478085324
 20
-225.1429951489849
 30
0.0
 10
55.52343478085324
 20
-226.0077146862333
 30
0.0
  0
SPLINE
  5
B0
330
A8
100
AcDbEntity
  8
Layer 1
370
     0
100
AcDbSpline
210
0.0
220
0.0
230
1.0
 70
    11
 71
     3
 72
    17
 73
    13
 74
     0
 42
0.0000000001
 43
0.0000000001
 40
0.0
 40
0.0
 40
0.0
 40
0.0
 40
1.0
 40
1.0
 40
1.0
 40
2.0
 40
2.0
 40
2.0
 40
3.0
 40
3.0
 40
3.0
 40
4.0
 40
4.0
 40
4.0
 40
4.0
 10
85.54108831063714
 20
-226.0077146862333
 30
0.0
 10
85.54108831063714
 20
-226.8362606970231
 30
0.0
 10
84.85620287635435
 20
-227.5569751479886
 30
0.0
 10
83.99148333910597
 20
-227.5569751479886
 30
0.0
 10
83.16224830876459
 20
-227.5569751479886
 30
0.0
 10
82.441533857799
 20
-226.8724342234816
 30
0.0
 10
82.441533857799
 20
-226.0077146862333
 30
0.0
 10
82.441533857799
 20
-225.1788241656677
 30
0.0
 10
83.12607478230599
 20
-224.4581097147021
 30
0.0
 10
83.99148333910597
 20
-224.4581097147021
 30
0.0
 10
84.85620287635435
 20
-224.4581097147021
 30
0.0
 10
85.54108831063714
 20
-225.1429951489849
 30
0.0
 10
85.54108831063714
 20
-226.0077146862333
 30
0.0
  0
SPLINE
  5
B1
330
A8
100
AcDbEntity
  8
Layer 1
370
     0
100
AcDbSpline
210
0.0
220
0.0
230
1.0
 70
    11
 71
     3
 72
    17
 73
    13
 74
     0
 42
0.0000000001
 43
0.0000000001
 40
0.0
 40
0.0
 40
0.0
 40
0.0
 40
1.0
 40
1.0
 40
1.0
 40
2.0
 40
2.0
 40
2.0
 40
3.0
 40
3.0
 40
3.0
 40
4.0
 40
4.0
 40
4.0
 40
4.0
 10
55.52343478085324
 20
-265.9935863237914
 30
0.0
 10
55.52343478085324
 20
-266.8221323345812
 30
0.0
 10
54.83872160145836
 20
-267.5428467855468
 30
0.0
 10
53.97365755443418
 20
-267.5428467855468
 30
0.0
 10
53.1445947789807
 20
-267.5428467855468
 30
0.0
 10
52.42388032801512
 20
-266.8583058610398
 30
0.0
 10
52.42388032801512
 20
-265.9935863237914
 30
0.0
 10
52.42388032801512
 20
-265.1646958032258
 30
0.0
 10
53.10859350741
 20
-264.444325862036
 30
0.0
 10
53.97365755443418
 20
-264.444325862036
 30
0.0
 10
54.83872160145836
 20
-264.444325862036
 30
0.0
 10
55.52343478085324
 20
-265.128866786543
 30
0.0
 10
55.52343478085324
 20
-265.9935863237914
 30
0.0
  0
SPLINE
  5
B2
330
A8
100
AcDbEntity
  8
Layer 1
370
     0
100
AcDbSpline
210
0.0
220
0.0
230
1.0
 70
    11
 71
     3
 72
    17
 73
    13
 74
     0
 42
0.0000000001
 43
0.0000000001
 40
0.0
 40
0.0
 40
0.0
 40
0.0
 40
1.0
 40
1.0
 40
1.0
 40
2.0
 40
2.0
 40
2.0
 40
3.0
 40
3.0
 40
3.0
 40
4.0
 40
4.0
 40
4.0
 40
4.0
 10
85.54108831063714
 20
-265.9935863237914
 30
0.0
 10
85.54108831063714
 20
-266.8221323345812
 30
0.0
 10
84.85620287635435
 20
-267.5428467855468
 30
0.0
 10
83.99148333910597
 20
-267.5428467855468
 30
0.0
 10
83.16224830876459
 20
-267.5428467855468
 30
0.0
 10
82.441533857799
 20
-266.8583058610398
 30
0.0
 10
82.441533857799
 20
-265.9935863237914
 30
0.0
 10
82.441533857799
 20
-265.1646958032258
 30
0.0
 10
83.12607478230599
 20
-264.444325862036
 30
0.0
 10
83.99148333910597
 20
-264.444325862036
 30
0.0
 10
84.85620287635435
 20
-264.444325862036
 30
0.0
 10
85.54108831063714
 20
-265.128866786543
 30
0.0
 10
85.54108831063714
 20
-265.9935863237914
 30
0.0
  0
SPLINE
  5
B3
330
A8
100
AcDbEntity
  8
Layer 1
370
     0
100
AcDbSpline
210
0.0
220
0.0
230
1.0
 70
    11
 71
     3
 72
    59
 73
    55
 74
     0
 42
0.0000000001
 43
0.0000000001
 40
0.0
 40
0.0
 40
0.0
 40
0.0
 40
1.0
 40
1.0
 40
1.0
 40
2.0
 40
2.0
 40
2.0
 40
3.0
 40
3.0
 40
3.0
 40
4.0
 40
4.0
 40
4.0
 40
5.0
 40
5.0
 40
5.0
 40
6.0
 40
6.0
 40
6.0
 40
7.0
 40
7.0
 40
7.0
 40
8.0
 40
8.0
 40
8.0
 40
9.0
 40
9.0
 40
9.0
 40
10.0
 40
10.0
 40
10.0
 40
11.0
 40
11.0
 40
11.0
 40
12.0
 40
12.0
 40
12.0
 40
13.0
 40
13.0
 40
13.0
 40
14.0
 40
14.0
 40
14.0
 40
15.0
 40
15.0
 40
15.0
 40
16.0
 40
16.0
 40
16.0
 40
17.0
 40
17.0
 40
17.0
 40
18.0
 40
18.0
 40
18.0
 40
18.0
 10
63.70915930865812
 20
-245.0839099916187
 30
0.0
 10
64.27363857630014
 20
-242.4387639330557
 30
0.0
 10
66.42527438103511
 20
-240.4998629148749
 30
0.0
 10
69.03545269735478
 20
-240.4998629148749
 30
0.0
 10
71.68077101080567
 20
-240.4998629148749
 30
0.0
 10
73.93834357159797
 20
-242.4036239359245
 30
0.0
 10
74.43202608031388
 20
-245.0484254847117
 30
0.0
 10
74.43202608031388
 20
-245.0484254847117
 30
0.0
 10
76.3368206306909
 20
-245.0484254847117
 30
0.0
 10
76.3368206306909
 20
-245.0484254847117
 30
0.0
 10
76.3368206306909
 20
-245.0484254847117
 30
0.0
 10
76.3368206306909
 20
-244.3783539707882
 30
0.0
 10
76.3368206306909
 20
-244.3783539707882
 30
0.0
 10
76.3368206306909
 20
-244.3783539707882
 30
0.0
 10
78.7356421995596
 20
-244.3783539707882
 30
0.0
 10
78.7356421995596
 20
-244.3783539707882
 30
0.0
 10
78.7356421995596
 20
-244.3783539707882
 30
0.0
 10
78.7356421995596
 20
-247.6222580196849
 30
0.0
 10
78.7356421995596
 20
-247.6222580196849
 30
0.0
 10
78.7356421995596
 20
-247.6222580196849
 30
0.0
 10
76.3368206306909
 20
-247.6222580196849
 30
0.0
 10
76.3368206306909
 20
-247.6222580196849
 30
0.0
 10
76.3368206306909
 20
-247.6222580196849
 30
0.0
 10
76.3368206306909
 20
-246.8112820074607
 30
0.0
 10
76.3368206306909
 20
-246.8112820074607
 30
0.0
 10
76.3368206306909
 20
-246.8112820074607
 30
0.0
 10
74.50299509412788
 20
-246.8112820074607
 30
0.0
 10
74.50299509412788
 20
-246.8112820074607
 30
0.0
 10
74.1502170837126
 20
-249.4205990493409
 30
0.0
 10
71.8220200188821
 20
-251.501093585374
 30
0.0
 10
69.00014044533567
 20
-251.501093585374
 30
0.0
 10
66.21357312380836
 20
-251.501093585374
 30
0.0
 10
63.92086056588487
 20
-249.3854590522097
 30
0.0
 10
63.53277030345048
 20
-246.7761420103295
 30
0.0
 10
63.53277030345048
 20
-246.7761420103295
 30
0.0
 10
61.66346025998047
 20
-246.7761420103295
 30
0.0
 10
61.66346025998047
 20
-246.7761420103295
 30
0.0
 10
61.66346025998047
 20
-246.7761420103295
 30
0.0
 10
61.66346025998047
 20
-247.6222580196849
 30
0.0
 10
61.66346025998047
 20
-247.6222580196849
 30
0.0
 10
61.66346025998047
 20
-247.6222580196849
 30
0.0
 10
59.26446643622384
 20
-247.6222580196849
 30
0.0
 10
59.26446643622384
 20
-247.6222580196849
 30
0.0
 10
59.26446643622384
 20
-247.6222580196849
 30
0.0
 10
59.26446643622384
 20
-244.3783539707882
 30
0.0
 10
59.26446643622384
 20
-244.3783539707882
 30
0.0
 10
59.26446643622384
 20
-244.3783539707882
 30
0.0
 10
61.69877251199957
 20
-244.3783539707882
 30
0.0
 10
61.69877251199957
 20
-244.3783539707882
 30
0.0
 10
61.69877251199957
 20
-244.3783539707882
 30
0.0
 10
61.69877251199957
 20
-245.0839099916187
 30
0.0
 10
61.69877251199957
 20
-245.0839099916187
 30
0.0
 10
61.69877251199957
 20
-245.0839099916187
 30
0.0
 10
63.70915930865812
 20
-245.0839099916187
 30
0.0
 10
63.70915930865812
 20
-245.0839099916187
 30
0.0
  0
ENDBLK
  5
AB
330
A8
100
AcDbEntity
  8
0
100
AcDbBlockEnd
  0
ENDSEC
  0
SECTION
  2
ENTITIES
  0
INSERT
  5
3D
330
1F
100
AcDbEntity
  8
Layer 1
100
AcDbBlockReference
  2
block 2
 10
0.0
 20
0.0
 30
0.0
  0
INSERT
  5
49
330
1F
100
AcDbEntity
  8
Layer 1
100
AcDbBlockReference
  2
block 3
 10
0.0
 20
0.0
 30
0.0
  0
INSERT
  5
55
330
1F
100
AcDbEntity
  8
Layer 1
100
AcDbBlockReference
  2
block 4
 10
0.0
 20
0.0
 30
0.0
  0
INSERT
  5
61
330
1F
100
AcDbEntity
  8
Layer 1
100
AcDbBlockReference
  2
block 5
 10
0.0
 20
0.0
 30
0.0
  0
INSERT
  5
6D
330
1F
100
AcDbEntity
  8
Layer 1
100
AcDbBlockReference
  2
block 6
 10
0.0
 20
0.0
 30
0.0
  0
INSERT
  5
79
330
1F
100
AcDbEntity
  8
Layer 1
100
AcDbBlockReference
  2
block 7
 10
0.0
 20
0.0
 30
0.0
  0
INSERT
  5
85
330
1F
100
AcDbEntity
  8
Layer 1
100
AcDbBlockReference
  2
block 8
 10
0.0
 20
0.0
 30
0.0
  0
INSERT
  5
91
330
1F
100
AcDbEntity
  8
Layer 1
100
AcDbBlockReference
  2
block 9
 10
0.0
 20
0.0
 30
0.0
  0
INSERT
  5
9D
330
1F
100
AcDbEntity
  8
Layer 1
100
AcDbBlockReference
  2
block 10
 10
0.0
 20
0.0
 30
0.0
  0
INSERT
  5
A9
330
1F
100
AcDbEntity
  8
Layer 1
100
AcDbBlockReference
  2
block 11
 10
0.0
 20
0.0
 30
0.0
  0
ENDSEC
  0
SECTION
  2
OBJECTS
  0
DICTIONARY
  5
C
330
0
100
AcDbDictionary
281
     1
  3
ACAD_GROUP
350
D
  3
ACAD_LAYOUT
350
1A
  3
ACAD_MLINESTYLE
350
17
  3
ACAD_PLOTSETTINGS
350
19
  3
ACAD_PLOTSTYLENAME
350
E
  3
ACAD_TABLESTYLE
350
B4
  3
ACAD_VISUALSTYLE
350
2A
  0
DICTIONARY
  5
D
102
{ACAD_REACTORS
330
C
102
}
330
C
100
AcDbDictionary
281
     1
  0
DICTIONARY
  5
1A
102
{ACAD_REACTORS
330
C
102
}
330
C
100
AcDbDictionary
281
     1
  3
Layout1
350
1E
  3
Layout2
350
26
  3
Model
350
22
  0
DICTIONARY
  5
17
102
{ACAD_REACTORS
330
C
102
}
330
C
100
AcDbDictionary
281
     1
  3
Standard
350
18
  0
DICTIONARY
  5
19
102
{ACAD_REACTORS
330
C
102
}
330
C
100
AcDbDictionary
281
     1
  0
ACDBDICTIONARYWDFLT
  5
E
102
{ACAD_REACTORS
330
C
102
}
330
C
100
AcDbDictionary
281
     1
  3
Normal
350
F
100
AcDbDictionaryWithDefault
340
F
  0
DICTIONARY
  5
B4
102
{ACAD_REACTORS
330
C
102
}
330
C
100
AcDbDictionary
281
     1
  0
DICTIONARY
  5
2A
102
{ACAD_REACTORS
330
C
102
}
330
C
100
AcDbDictionary
281
     1
  3
2dWireframe
350
2F
  3
3D Hidden
350
31
  3
3dWireframe
350
30
  3
Basic
350
32
  3
Brighten
350
36
  3
ColorChange
350
3A
  3
Conceptual
350
34
  3
Dim
350
35
  3
Facepattern
350
39
  3
Flat
350
2B
  3
FlatWithEdges
350
2C
  3
Gouraud
350
2D
  3
GouraudWithEdges
350
2E
  3
Linepattern
350
38
  3
Realistic
350
33
  3
Thicken
350
37
  0
LAYOUT
  5
1E
102
{ACAD_REACTORS
330
1A
102
}
330
1A
100
AcDbPlotSettings
  1

  2
none_device
  4

  6

 40
0.0
 41
0.0
 42
0.0
 43
0.0
 44
0.0
 45
0.0
 46
0.0
 47
0.0
 48
0.0
 49
0.0
140
0.0
141
0.0
142
1.0
143
1.0
 70
   688
 72
     0
 73
     0
 74
     5
  7

 75
    16
 76
     0
 77
     2
 78
   300
147
1.0
148
0.0
149
0.0
100
AcDbLayout
  1
Layout1
 70
     1
 71
     1
 10
0.0
 20
0.0
 11
12.0
 21
9.0
 12
0.0
 22
0.0
 32
0.0
 14
1.000000000000000E+20
 24
1.000000000000000E+20
 34
1.000000000000000E+20
 15
-1.000000000000000E+20
 25
-1.000000000000000E+20
 35
-1.000000000000000E+20
146
0.0
 13
0.0
 23
0.0
 33
0.0
 16
1.0
 26
0.0
 36
0.0
 17
0.0
 27
1.0
 37
0.0
 76
     0
330
1B
  0
LAYOUT
  5
26
102
{ACAD_REACTORS
330
1A
102
}
330
1A
100
AcDbPlotSettings
  1

  2
none_device
  4

  6

 40
0.0
 41
0.0
 42
0.0
 43
0.0
 44
0.0
 45
0.0
 46
0.0
 47
0.0
 48
0.0
 49
0.0
140
0.0
141
0.0
142
1.0
143
1.0
 70
   688
 72
     0
 73
     0
 74
     5
  7

 75
    16
 76
     0
 77
     2
 78
   300
147
1.0
148
0.0
149
0.0
100
AcDbLayout
  1
Layout2
 70
     1
 71
     2
 10
0.0
 20
0.0
 11
0.0
 21
0.0
 12
0.0
 22
0.0
 32
0.0
 14
0.0
 24
0.0
 34
0.0
 15
0.0
 25
0.0
 35
0.0
146
0.0
 13
0.0
 23
0.0
 33
0.0
 16
1.0
 26
0.0
 36
0.0
 17
0.0
 27
1.0
 37
0.0
 76
     0
330
23
  0
LAYOUT
  5
22
102
{ACAD_REACTORS
330
1A
102
}
330
1A
100
AcDbPlotSettings
  1

  2
none_device
  4

  6

 40
0.0
 41
0.0
 42
0.0
 43
0.0
 44
0.0
 45
0.0
 46
0.0
 47
0.0
 48
0.0
 49
0.0
140
0.0
141
0.0
142
1.0
143
1.0
 70
  1712
 72
     0
 73
     0
 74
     0
  7

 75
     0
 76
     0
 77
     2
 78
   300
147
1.0
148
0.0
149
0.0
100
AcDbLayout
  1
Model
 70
     1
 71
     0
 10
0.0
 20
0.0
 11
12.0
 21
9.0
 12
0.0
 22
0.0
 32
0.0
 14
1.000000000000000E+20
 24
1.000000000000000E+20
 34
1.000000000000000E+20
 15
-1.000000000000000E+20
 25
-1.000000000000000E+20
 35
-1.000000000000000E+20
146
0.0
 13
0.0
 23
0.0
 33
0.0
 16
1.0
 26
0.0
 36
0.0
 17
0.0
 27
1.0
 37
0.0
 76
     0
330
1F
331
29
  0
MLINESTYLE
  5
18
102
{ACAD_REACTORS
330
17
102
}
330
17
100
AcDbMlineStyle
  2
Standard
 70
     0
  3

 62
   256
 51
90.0
 52
90.0
 71
     2
 49
0.5
 62
   256
  6
BYLAYER
 49
-0.5
 62
   256
  6
BYLAYER
  0
ACDBPLACEHOLDER
  5
F
102
{ACAD_REACTORS
330
E
102
}
330
E
  0
VISUALSTYLE
  5
2F
102
{ACAD_REACTORS
330
2A
102
}
330
2A
100
AcDbVisualStyle
  2
2dWireframe
 70
     4
 71
     0
 72
     2
 73
     0
 90
        0
 40
-0.6
 41
-30.0
 62
     5
 63
     7
421
 16777215
 74
     1
 91
        4
 64
     7
 65
   257
 75
     1
175
     1
 42
1.0
 92
        0
 66
   257
 43
1.0
 76
     1
 77
     6
 78
     2
 67
     7
 79
     5
170
     0
171
     0
290
     0
174
     0
 93
        1
 44
0.0
173
     0
291
     0
 45
0.0
1001
ACAD
1000
AcDbSavedByObjectVersion
1070
     0
  0
VISUALSTYLE
  5
31
102
{ACAD_REACTORS
330
2A
102
}
330
2A
100
AcDbVisualStyle
  2
3D Hidden
 70
     6
 71
     1
 72
     2
 73
     2
 90
        0
 40
-0.6
 41
-30.0
 62
     5
 63
     7
421
 16777215
 74
     2
 91
        2
 64
     7
 65
   257
 75
     2
175
     1
 42
40.0
 92
        0
 66
   257
 43
1.0
 76
     1
 77
     6
 78
     2
 67
     7
 79
     3
170
     0
171
     0
290
     0
174
     0
 93
        1
 44
0.0
173
     0
291
     0
 45
0.0
1001
ACAD
1000
AcDbSavedByObjectVersion
1070
     0
  0
VISUALSTYLE
  5
30
102
{ACAD_REACTORS
330
2A
102
}
330
2A
100
AcDbVisualStyle
  2
3dWireframe
 70
     5
 71
     0
 72
     2
 73
     0
 90
        0
 40
-0.6
 41
-30.0
 62
     5
 63
     7
421
 16777215
 74
     1
 91
        4
 64
     7
 65
   257
 75
     1
175
     1
 42
1.0
 92
        0
 66
   257
 43
1.0
 76
     1
 77
     6
 78
     2
 67
     7
 79
     5
170
     0
171
     0
290
     0
174
     0
 93
        1
 44
0.0
173
     0
291
     0
 45
0.0
1001
ACAD
1000
AcDbSavedByObjectVersion
1070
     0
  0
VISUALSTYLE
  5
32
102
{ACAD_REACTORS
330
2A
102
}
330
2A
100
AcDbVisualStyle
  2
Basic
 70
     7
 71
     1
 72
     0
 73
     1
 90
        0
 40
-0.6
 41
-30.0
 62
     5
 63
     7
421
 16777215
 74
     0
 91
        4
 64
     7
 65
   257
 75
     1
175
     1
 42
1.0
 92
        8
 66
     7
 43
1.0
 76
     1
 77
     6
 78
     2
 67
     7
 79
     5
170
     0
171
     0
290
     0
174
     0
 93
        1
 44
0.0
173
     0
291
     1
 45
0.0
1001
ACAD
1000
AcDbSavedByObjectVersion
1070
     0
  0
VISUALSTYLE
  5
36
102
{ACAD_REACTORS
330
2A
102
}
330
2A
100
AcDbVisualStyle
  2
Brighten
 70
    12
 71
     2
 72
     2
 73
     0
 90
        0
 40
-0.6
 41
-30.0
 62
     5
 63
     7
421
 16777215
 74
     1
 91
        4
 64
     7
 65
   257
 75
     1
175
     1
 42
1.0
 92
        8
 66
     7
 43
1.0
 76
     1
 77
     6
 78
     2
 67
     7
 79
     5
170
     0
171
     0
290
     0
174
     0
 93
        1
 44
50.0
173
     0
291
     1
 45
0.0
1001
ACAD
1000
AcDbSavedByObjectVersion
1070
     0
  0
VISUALSTYLE
  5
3A
102
{ACAD_REACTORS
330
2A
102
}
330
2A
100
AcDbVisualStyle
  2
ColorChange
 70
    16
 71
     2
 72
     2
 73
     3
 90
        0
 40
-0.6
 41
-30.0
 62
     5
 63
     8
421
  8421504
 74
     1
 91
        4
 64
     7
 65
   257
 75
     1
175
     1
 42
1.0
 92
        8
 66
     8
424
  8421504
 43
1.0
 76
     1
 77
     6
 78
     2
 67
     7
 79
     5
170
     0
171
     0
290
     0
174
     0
 93
        1
 44
0.0
173
     0
291
     1
 45
0.0
1001
ACAD
1000
AcDbSavedByObjectVersion
1070
     0
  0
VISUALSTYLE
  5
34
102
{ACAD_REACTORS
330
2A
102
}
330
2A
100
AcDbVisualStyle
  2
Conceptual
 70
     9
 71
     3
 72
     2
 73
     0
 90
        0
 40
-0.6
 41
-30.0
 62
     5
 63
     7
421
 16777215
 74
     2
 91
        2
 64
     7
 65
   257
 75
     1
175
     1
 42
40.0
 92
        8
 66
     7
 43
1.0
 76
     1
 77
     6
 78
     2
 67
     7
 79
     3
170
     0
171
     0
290
     0
174
     0
 93
        1
 44
0.0
173
     0
291
     0
 45
0.0
1001
ACAD
1000
AcDbSavedByObjectVersion
1070
     0
  0
VISUALSTYLE
  5
35
102
{ACAD_REACTORS
330
2A
102
}
330
2A
100
AcDbVisualStyle
  2
Dim
 70
    11
 71
     2
 72
     2
 73
     0
 90
        0
 40
-0.6
 41
-30.0
 62
     5
 63
     7
421
 16777215
 74
     1
 91
        4
 64
     7
 65
   257
 75
     1
175
     1
 42
1.0
 92
        8
 66
     7
 43
1.0
 76
     1
 77
     6
 78
     2
 67
     7
 79
     5
170
     0
171
     0
290
     0
174
     0
 93
        1
 44
-50.0
173
     0
291
     1
 45
0.0
1001
ACAD
1000
AcDbSavedByObjectVersion
1070
     0
  0
VISUALSTYLE
  5
39
102
{ACAD_REACTORS
330
2A
102
}
330
2A
100
AcDbVisualStyle
  2
Facepattern
 70
    15
 71
     2
 72
     2
 73
     0
 90
        0
 40
-0.6
 41
-30.0
 62
     5
 63
     7
421
 16777215
 74
     1
 91
        4
 64
     7
 65
   257
 75
     1
175
     1
 42
1.0
 92
        8
 66
     7
 43
1.0
 76
     1
 77
     6
 78
     2
 67
     7
 79
     5
170
     0
171
     0
290
     0
174
     0
 93
        1
 44
0.0
173
     0
291
     1
 45
0.0
1001
ACAD
1000
AcDbSavedByObjectVersion
1070
     0
  0
VISUALSTYLE
  5
2B
102
{ACAD_REACTORS
330
2A
102
}
330
2A
100
AcDbVisualStyle
  2
Flat
 70
     0
 71
     2
 72
     1
 73
     1
 90
        2
 40
-0.6
 41
30.0
 62
     5
 63
     7
421
 16777215
 74
     0
 91
        4
 64
     7
 65
   257
 75
     1
175
     1
 42
1.0
 92
        8
 66
     7
 43
1.0
 76
     1
 77
     6
 78
     2
 67
     7
 79
     5
170
     0
171
     0
290
     0
174
     0
 93
       13
 44
0.0
173
     0
291
     1
 45
0.0
1001
ACAD
1000
AcDbSavedByObjectVersion
1070
     0
  0
VISUALSTYLE
  5
2C
102
{ACAD_REACTORS
330
2A
102
}
330
2A
100
AcDbVisualStyle
  2
FlatWithEdges
 70
     1
 71
     2
 72
     1
 73
     1
 90
        2
 40
-0.6
 41
30.0
 62
     5
 63
     7
421
 16777215
 74
     1
 91
        4
 64
     7
 65
   257
 75
     1
175
     1
 42
1.0
 92
        0
 66
   257
 43
1.0
 76
     1
 77
     6
 78
     2
 67
     7
 79
     5
170
     0
171
     0
290
     0
174
     0
 93
       13
 44
0.0
173
     0
291
     1
 45
0.0
1001
ACAD
1000
AcDbSavedByObjectVersion
1070
     0
  0
VISUALSTYLE
  5
2D
102
{ACAD_REACTORS
330
2A
102
}
330
2A
100
AcDbVisualStyle
  2
Gouraud
 70
     2
 71
     2
 72
     2
 73
     1
 90
        2
 40
-0.6
 41
30.0
 62
     5
 63
     7
421
 16777215
 74
     0
 91
        4
 64
     7
 65
   257
 75
     1
175
     1
 42
1.0
 92
        0
 66
     7
 43
1.0
 76
     1
 77
     6
 78
     2
 67
     7
 79
     5
170
     0
171
     0
290
     0
174
     0
 93
       13
 44
0.0
173
     0
291
     1
 45
0.0
1001
ACAD
1000
AcDbSavedByObjectVersion
1070
     0
  0
VISUALSTYLE
  5
2E
102
{ACAD_REACTORS
330
2A
102
}
330
2A
100
AcDbVisualStyle
  2
GouraudWithEdges
 70
     3
 71
     2
 72
     2
 73
     1
 90
        2
 40
-0.6
 41
30.0
 62
     5
 63
     7
421
 16777215
 74
     1
 91
        4
 64
     7
 65
   257
 75
     1
175
     1
 42
1.0
 92
        0
 66
   257
 43
1.0
 76
     1
 77
     6
 78
     2
 67
     7
 79
     5
170
     0
171
     0
290
     0
174
     0
 93
       13
 44
0.0
173
     0
291
     1
 45
0.0
1001
ACAD
1000
AcDbSavedByObjectVersion
1070
     0
  0
VISUALSTYLE
  5
38
102
{ACAD_REACTORS
330
2A
102
}
330
2A
100
AcDbVisualStyle
  2
Linepattern
 70
    14
 71
     2
 72
     2
 73
     0
 90
        0
 40
-0.6
 41
-30.0
 62
     5
 63
     7
421
 16777215
 74
     1
 91
        4
 64
     7
 65
   257
 75
     7
175
     7
 42
1.0
 92
        8
 66
     7
 43
1.0
 76
     1
 77
     6
 78
     2
 67
     7
 79
     5
170
     0
171
     0
290
     0
174
     0
 93
        1
 44
0.0
173
     0
291
     1
 45
0.0
1001
ACAD
1000
AcDbSavedByObjectVersion
1070
     0
  0
VISUALSTYLE
  5
33
102
{ACAD_REACTORS
330
2A
102
}
330
2A
100
AcDbVisualStyle
  2
Realistic
 70
     8
 71
     2
 72
     2
 73
     0
 90
        0
 40
-0.6
 41
-30.0
 62
     5
 63
     7
421
 16777215
 74
     1
 91
        0
 64
     7
 65
   257
 75
     1
175
     1
 42
1.0
 92
        8
 66
     8
424
  7895160
 43
1.0
 76
     1
 77
     6
 78
     2
 67
     7
 79
     5
170
     0
171
     0
290
     0
174
     0
 93
       13
 44
0.0
173
     0
291
     0
 45
0.0
1001
ACAD
1000
AcDbSavedByObjectVersion
1070
     0
  0
VISUALSTYLE
  5
37
102
{ACAD_REACTORS
330
2A
102
}
330
2A
100
AcDbVisualStyle
  2
Thicken
 70
    13
 71
     2
 72
     2
 73
     0
 90
        0
 40
-0.6
 41
-30.0
 62
     5
 63
     7
421
 16777215
 74
     1
 91
        4
 64
     7
 65
   257
 75
     1
175
     1
 42
1.0
 92
       12
 66
     7
 43
1.0
 76
     1
 77
     6
 78
     2
 67
     7
 79
     5
170
     0
171
     0
290
     0
174
     0
 93
        1
 44
0.0
173
     0
291
     1
 45
0.0
1001
ACAD
1000
AcDbSavedByObjectVersion
1070
     0
  0
ENDSEC
  0
EOF
