  0
SECTION
  2
HEADER
  9
$ACADVER
  1
AC1024
  9
$ACADMAINTVER
 70
     6
  9
$DWGCODEPAGE
  3
ANSI_1252
  9
$INSBASE
 10
0.0
 20
0.0
 30
0.0
  9
$EXTMIN
 10
1.000000000000000E+20
 20
1.000000000000000E+20
 30
1.000000000000000E+20
  9
$EXTMAX
 10
-1.000000000000000E+20
 20
-1.000000000000000E+20
 30
-1.000000000000000E+20
  9
$LIMMIN
 10
0.0
 20
0.0
  9
$LIMMAX
 10
12.0
 20
9.0
  9
$ORTHOMODE
 70
     0
  9
$REGENMODE
 70
     1
  9
$FILLMODE
 70
     1
  9
$QTEXTMODE
 70
     0
  9
$MIRRTEXT
 70
     1
  9
$LTSCALE
 40
1.0
  9
$ATTMODE
 70
     1
  9
$TEXTSIZE
 40
0.2
  9
$TRACEWID
 40
0.05
  9
$TEXTSTYLE
  7
Standard
  9
$CLAYER
  8
0
  9
$CELTYPE
  6
ByLayer
  9
$CECOLOR
 62
   256
  9
$CELTSCALE
 40
1.0
  9
$DISPSILH
 70
     0
  9
$DIMSCALE
 40
1.0
  9
$DIMASZ
 40
0.18
  9
$DIMEXO
 40
0.0625
  9
$DIMDLI
 40
0.38
  9
$DIMRND
 40
0.0
  9
$DIMDLE
 40
0.0
  9
$DIMEXE
 40
0.18
  9
$DIMTP
 40
0.0
  9
$DIMTM
 40
0.0
  9
$DIMTXT
 40
0.18
  9
$DIMCEN
 40
0.09
  9
$DIMTSZ
 40
0.0
  9
$DIMTOL
 70
     0
  9
$DIMLIM
 70
     0
  9
$DIMTIH
 70
     1
  9
$DIMTOH
 70
     1
  9
$DIMSE1
 70
     0
  9
$DIMSE2
 70
     0
  9
$DIMTAD
 70
     0
  9
$DIMZIN
 70
     0
  9
$DIMBLK
  1

  9
$DIMASO
 70
     1
  9
$DIMSHO
 70
     1
  9
$DIMPOST
  1

  9
$DIMAPOST
  1

  9
$DIMALT
 70
     0
  9
$DIMALTD
 70
     2
  9
$DIMALTF
 40
25.4
  9
$DIMLFAC
 40
1.0
  9
$DIMTOFL
 70
     0
  9
$DIMTVP
 40
0.0
  9
$DIMTIX
 70
     0
  9
$DIMSOXD
 70
     0
  9
$DIMSAH
 70
     0
  9
$DIMBLK1
  1

  9
$DIMBLK2
  1

  9
$DIMSTYLE
  2
Standard
  9
$DIMCLRD
 70
     0
  9
$DIMCLRE
 70
     0
  9
$DIMCLRT
 70
     0
  9
$DIMTFAC
 40
1.0
  9
$DIMGAP
 40
0.09
  9
$DIMJUST
 70
     0
  9
$DIMSD1
 70
     0
  9
$DIMSD2
 70
     0
  9
$DIMTOLJ
 70
     1
  9
$DIMTZIN
 70
     0
  9
$DIMALTZ
 70
     0
  9
$DIMALTTZ
 70
     0
  9
$DIMUPT
 70
     0
  9
$DIMDEC
 70
     4
  9
$DIMTDEC
 70
     4
  9
$DIMALTU
 70
     2
  9
$DIMALTTD
 70
     2
  9
$DIMTXSTY
  7
Standard
  9
$DIMAUNIT
 70
     0
  9
$DIMADEC
 70
     0
  9
$DIMALTRND
 40
0.0
  9
$DIMAZIN
 70
     0
  9
$DIMDSEP
 70
    46
  9
$DIMATFIT
 70
     3
  9
$DIMFRAC
 70
     0
  9
$DIMLDRBLK
  1

  9
$DIMLUNIT
 70
     2
  9
$DIMLWD
 70
    -2
  9
$DIMLWE
 70
    -2
  9
$DIMTMOVE
 70
     0
  9
$DIMFXL
 40
1.0
  9
$DIMFXLON
 70
     0
  9
$DIMJOGANG
 40
0.7853981633974483
  9
$DIMTFILL
 70
     0
  9
$DIMTFILLCLR
 70
     0
  9
$DIMARCSYM
 70
     0
  9
$DIMLTYPE
  6

  9
$DIMLTEX1
  6

  9
$DIMLTEX2
  6

  9
$DIMTXTDIRECTION
 70
     0
  9
$LUNITS
 70
     2
  9
$LUPREC
 70
     4
  9
$SKETCHINC
 40
0.1
  9
$FILLETRAD
 40
0.5
  9
$AUNITS
 70
     0
  9
$AUPREC
 70
     0
  9
$MENU
  1
.
  9
$ELEVATION
 40
0.0
  9
$PELEVATION
 40
0.0
  9
$THICKNESS
 40
0.0
  9
$LIMCHECK
 70
     0
  9
$CHAMFERA
 40
0.5
  9
$CHAMFERB
 40
0.5
  9
$CHAMFERC
 40
1.0
  9
$CHAMFERD
 40
0.0
  9
$SKPOLY
 70
     0
  9
$TDCREATE
 40
2458409.589825335
  9
$TDUCREATE
 40
2458409.548158669
  9
$TDUPDATE
 40
2458409.589825451
  9
$TDUUPDATE
 40
2458409.548158785
  9
$TDINDWG
 40
0.0000000116
  9
$TDUSRTIMER
 40
0.0000000116
  9
$USRTIMER
 70
     1
  9
$ANGBASE
 50
0.0
  9
$ANGDIR
 70
     0
  9
$PDMODE
 70
     0
  9
$PDSIZE
 40
0.0
  9
$PLINEWID
 40
0.0
  9
$SPLFRAME
 70
     0
  9
$SPLINETYPE
 70
     6
  9
$SPLINESEGS
 70
     8
  9
$HANDSEED
  5
1DF
  9
$SURFTAB1
 70
     6
  9
$SURFTAB2
 70
     6
  9
$SURFTYPE
 70
     6
  9
$SURFU
 70
     6
  9
$SURFV
 70
     6
  9
$UCSBASE
  2

  9
$UCSNAME
  2

  9
$UCSORG
 10
0.0
 20
0.0
 30
0.0
  9
$UCSXDIR
 10
1.0
 20
0.0
 30
0.0
  9
$UCSYDIR
 10
0.0
 20
1.0
 30
0.0
  9
$UCSORTHOREF
  2

  9
$UCSORTHOVIEW
 70
     0
  9
$UCSORGTOP
 10
0.0
 20
0.0
 30
0.0
  9
$UCSORGBOTTOM
 10
0.0
 20
0.0
 30
0.0
  9
$UCSORGLEFT
 10
0.0
 20
0.0
 30
0.0
  9
$UCSORGRIGHT
 10
0.0
 20
0.0
 30
0.0
  9
$UCSORGFRONT
 10
0.0
 20
0.0
 30
0.0
  9
$UCSORGBACK
 10
0.0
 20
0.0
 30
0.0
  9
$PUCSBASE
  2

  9
$PUCSNAME
  2

  9
$PUCSORG
 10
0.0
 20
0.0
 30
0.0
  9
$PUCSXDIR
 10
1.0
 20
0.0
 30
0.0
  9
$PUCSYDIR
 10
0.0
 20
1.0
 30
0.0
  9
$PUCSORTHOREF
  2

  9
$PUCSORTHOVIEW
 70
     0
  9
$PUCSORGTOP
 10
0.0
 20
0.0
 30
0.0
  9
$PUCSORGBOTTOM
 10
0.0
 20
0.0
 30
0.0
  9
$PUCSORGLEFT
 10
0.0
 20
0.0
 30
0.0
  9
$PUCSORGRIGHT
 10
0.0
 20
0.0
 30
0.0
  9
$PUCSORGFRONT
 10
0.0
 20
0.0
 30
0.0
  9
$PUCSORGBACK
 10
0.0
 20
0.0
 30
0.0
  9
$USERI1
 70
     0
  9
$USERI2
 70
     0
  9
$USERI3
 70
     0
  9
$USERI4
 70
     0
  9
$USERI5
 70
     0
  9
$USERR1
 40
0.0
  9
$USERR2
 40
0.0
  9
$USERR3
 40
0.0
  9
$USERR4
 40
0.0
  9
$USERR5
 40
0.0
  9
$WORLDVIEW
 70
     1
  9
$SHADEDGE
 70
     3
  9
$SHADEDIF
 70
    70
  9
$TILEMODE
 70
     1
  9
$MAXACTVP
 70
    64
  9
$PINSBASE
 10
0.0
 20
0.0
 30
0.0
  9
$PLIMCHECK
 70
     0
  9
$PEXTMIN
 10
1.000000000000000E+20
 20
1.000000000000000E+20
 30
1.000000000000000E+20
  9
$PEXTMAX
 10
-1.000000000000000E+20
 20
-1.000000000000000E+20
 30
-1.000000000000000E+20
  9
$PLIMMIN
 10
0.0
 20
0.0
  9
$PLIMMAX
 10
12.0
 20
9.0
  9
$UNITMODE
 70
     0
  9
$VISRETAIN
 70
     1
  9
$PLINEGEN
 70
     0
  9
$PSLTSCALE
 70
     1
  9
$TREEDEPTH
 70
  3020
  9
$CMLSTYLE
  2
Standard
  9
$CMLJUST
 70
     0
  9
$CMLSCALE
 40
1.0
  9
$PROXYGRAPHICS
 70
     1
  9
$MEASUREMENT
 70
     0
  9
$CELWEIGHT
370
    -1
  9
$ENDCAPS
280
     0
  9
$JOINSTYLE
280
     0
  9
$LWDISPLAY
290
     1
  9
$INSUNITS
 70
     1
  9
$HYPERLINKBASE
  1

  9
$STYLESHEET
  1

  9
$XEDIT
290
     1
  9
$CEPSNTYPE
380
     0
  9
$PSTYLEMODE
290
     1
  9
$FINGERPRINTGUID
  2
{475DB5AB-C377-4DD0-B4C8-998712B2F66A}
  9
$VERSIONGUID
  2
{FAEB1C32-E019-11D5-929B-00C0DF256EC4}
  9
$EXTNAMES
290
     1
  9
$PSVPSCALE
 40
0.0
  9
$OLESTARTUP
290
     0
  9
$SORTENTS
280
   127
  9
$INDEXCTL
280
     0
  9
$HIDETEXT
280
     1
  9
$XCLIPFRAME
280
     2
  9
$HALOGAP
280
     0
  9
$OBSCOLOR
 70
   257
  9
$OBSLTYPE
280
     0
  9
$INTERSECTIONDISPLAY
280
     0
  9
$INTERSECTIONCOLOR
 70
   257
  9
$DIMASSOC
280
     2
  9
$PROJECTNAME
  1

  9
$CAMERADISPLAY
290
     0
  9
$LENSLENGTH
 40
50.0
  9
$CAMERAHEIGHT
 40
0.0
  9
$STEPSPERSEC
 40
2.0
  9
$STEPSIZE
 40
6.0
  9
$3DDWFPREC
 40
2.0
  9
$PSOLWIDTH
 40
0.25
  9
$PSOLHEIGHT
 40
4.0
  9
$LOFTANG1
 40
1.570796326794897
  9
$LOFTANG2
 40
1.570796326794897
  9
$LOFTMAG1
 40
0.0
  9
$LOFTMAG2
 40
0.0
  9
$LOFTPARAM
 70
     7
  9
$LOFTNORMALS
280
     1
  9
$LATITUDE
 40
37.795
  9
$LONGITUDE
 40
-122.394
  9
$NORTHDIRECTION
 40
0.0
  9
$TIMEZONE
 70
 -8000
  9
$LIGHTGLYPHDISPLAY
280
     1
  9
$TILEMODELIGHTSYNCH
280
     1
  9
$CMATERIAL
347
3C
  9
$SOLIDHIST
280
     1
  9
$SHOWHIST
280
     1
  9
$DWFFRAME
280
     2
  9
$DGNFRAME
280
     2
  9
$REALWORLDSCALE
290
     1
  9
$INTERFERECOLOR
 62
   256
  9
$CSHADOW
280
     0
  9
$SHADOWPLANELOCATION
 40
0.0
  0
ENDSEC
  0
SECTION
  2
CLASSES
  0
CLASS
  1
ACDBDICTIONARYWDFLT
  2
AcDbDictionaryWithDefault
  3
ObjectDBX Classes
 90
        0
 91
        4
280
     0
281
     0
  0
CLASS
  1
VISUALSTYLE
  2
AcDbVisualStyle
  3
ObjectDBX Classes
 90
     4095
 91
        4
280
     0
281
     0
  0
CLASS
  1
MATERIAL
  2
AcDbMaterial
  3
ObjectDBX Classes
 90
     1153
 91
        4
280
     0
281
     0
  0
CLASS
  1
SUN
  2
AcDbSun
  3
SCENEOE
 90
     1024
 91
        4
280
     0
281
     0
  0
ENDSEC
  0
SECTION
  2
TABLES
  0
TABLE
  2
VPORT
  5
8
330
0
100
AcDbSymbolTable
 70
     1
  0
VPORT
  5
29
330
8
100
AcDbSymbolTableRecord
100
AcDbViewportTableRecord
  2
*Active
 70
     0
 10
0.0
 20
0.0
 11
1.0
 21
1.0
 12
0.0
 22
0.0
 13
0.0
 23
0.0
 14
0.5
 24
0.5
 15
0.5
 25
0.5
 16
0.0
 26
0.0
 36
1.0
 17
114.9999999712502
 27
-57.49999998562508
 37
0.0
 40
114.9999999712502
 41
2.0
 42
50.0
 43
0.0
 44
0.0
 50
0.0
 51
0.0
 71
     0
 72
   100
 73
     1
 74
     3
 75
     0
 76
     0
 77
     0
 78
     0
281
     0
 65
     1
110
0.0
120
0.0
130
0.0
111
1.0
121
0.0
131
0.0
112
0.0
122
1.0
132
0.0
 79
     0
146
0.0
 60
     3
 61
     5
292
     1
282
     1
141
0.0
142
0.0
 63
   250
361
3F
  0
ENDTAB
  0
TABLE
  2
LTYPE
  5
5
330
0
100
AcDbSymbolTable
 70
     1
  0
LTYPE
  5
14
330
5
100
AcDbSymbolTableRecord
100
AcDbLinetypeTableRecord
  2
ByBlock
 70
     0
  3

 72
    65
 73
     0
 40
0.0
  0
LTYPE
  5
15
330
5
100
AcDbSymbolTableRecord
100
AcDbLinetypeTableRecord
  2
ByLayer
 70
     0
  3

 72
    65
 73
     0
 40
0.0
  0
LTYPE
  5
16
330
5
100
AcDbSymbolTableRecord
100
AcDbLinetypeTableRecord
  2
Continuous
 70
     0
  3
Solid line
 72
    65
 73
     0
 40
0.0
  0
ENDTAB
  0
TABLE
  2
LAYER
  5
2
330
0
100
AcDbSymbolTable
 70
     2
  0
LAYER
  5
10
330
2
100
AcDbSymbolTableRecord
100
AcDbLayerTableRecord
  2
0
 70
     0
 62
     7
  6
Continuous
370
    -3
390
F
347
3E
  0
LAYER
  5
40
330
2
100
AcDbSymbolTableRecord
100
AcDbLayerTableRecord
  2
Layer 1
 70
     0
 62
     7
  6
Continuous
370
    -3
390
F
347
3E
  0
ENDTAB
  0
TABLE
  2
STYLE
  5
3
330
0
100
AcDbSymbolTable
 70
     1
  0
STYLE
  5
11
330
3
100
AcDbSymbolTableRecord
100
AcDbTextStyleTableRecord
  2
Standard
 70
     0
 40
0.0
 41
1.0
 50
0.0
 71
     0
 42
0.2
  3
txt
  4

  0
ENDTAB
  0
TABLE
  2
VIEW
  5
6
330
0
100
AcDbSymbolTable
 70
     0
  0
ENDTAB
  0
TABLE
  2
UCS
  5
7
330
0
100
AcDbSymbolTable
 70
     0
  0
ENDTAB
  0
TABLE
  2
APPID
  5
9
330
0
100
AcDbSymbolTable
 70
     1
  0
APPID
  5
12
330
9
100
AcDbSymbolTableRecord
100
AcDbRegAppTableRecord
  2
ACAD
 70
     0
  0
ENDTAB
  0
TABLE
  2
DIMSTYLE
  5
A
330
0
100
AcDbSymbolTable
 70
     1
100
AcDbDimStyleTable
  0
DIMSTYLE
105
27
330
A
100
AcDbSymbolTableRecord
100
AcDbDimStyleTableRecord
  2
Standard
 70
     0
178
     0
340
11
  0
ENDTAB
  0
TABLE
  2
BLOCK_RECORD
  5
1
330
0
100
AcDbSymbolTable
 70
    84
  0
BLOCK_RECORD
  5
1F
330
1
100
AcDbSymbolTableRecord
100
AcDbBlockTableRecord
  2
*Model_Space
340
22
 70
     0
280
     1
281
     0
  0
BLOCK_RECORD
  5
1B
330
1
100
AcDbSymbolTableRecord
100
AcDbBlockTableRecord
  2
*Paper_Space
340
1E
 70
     0
280
     1
281
     0
  0
BLOCK_RECORD
  5
23
330
1
100
AcDbSymbolTableRecord
100
AcDbBlockTableRecord
  2
*Paper_Space0
340
26
 70
     0
280
     1
281
     0
  0
BLOCK_RECORD
  5
41
330
1
100
AcDbSymbolTableRecord
100
AcDbBlockTableRecord
  2
block 2
340
0
102
{BLKREFS
331
42
102
}
 70
     0
280
     1
281
     0
  0
BLOCK_RECORD
  5
45
330
1
100
AcDbSymbolTableRecord
100
AcDbBlockTableRecord
  2
block 3
340
0
102
{BLKREFS
331
46
102
}
 70
     0
280
     1
281
     0
  0
BLOCK_RECORD
  5
49
330
1
100
AcDbSymbolTableRecord
100
AcDbBlockTableRecord
  2
block 4
340
0
102
{BLKREFS
331
4A
102
}
 70
     0
280
     1
281
     0
  0
BLOCK_RECORD
  5
4D
330
1
100
AcDbSymbolTableRecord
100
AcDbBlockTableRecord
  2
block 5
340
0
102
{BLKREFS
331
4E
102
}
 70
     0
280
     1
281
     0
  0
BLOCK_RECORD
  5
52
330
1
100
AcDbSymbolTableRecord
100
AcDbBlockTableRecord
  2
block 6
340
0
102
{BLKREFS
331
53
102
}
 70
     0
280
     1
281
     0
  0
BLOCK_RECORD
  5
58
330
1
100
AcDbSymbolTableRecord
100
AcDbBlockTableRecord
  2
block 7
340
0
102
{BLKREFS
331
59
102
}
 70
     0
280
     1
281
     0
  0
BLOCK_RECORD
  5
5C
330
1
100
AcDbSymbolTableRecord
100
AcDbBlockTableRecord
  2
block 8
340
0
102
{BLKREFS
331
5D
102
}
 70
     0
280
     1
281
     0
  0
BLOCK_RECORD
  5
61
330
1
100
AcDbSymbolTableRecord
100
AcDbBlockTableRecord
  2
block 9
340
0
102
{BLKREFS
331
62
102
}
 70
     0
280
     1
281
     0
  0
BLOCK_RECORD
  5
66
330
1
100
AcDbSymbolTableRecord
100
AcDbBlockTableRecord
  2
block 10
340
0
102
{BLKREFS
331
67
102
}
 70
     0
280
     1
281
     0
  0
BLOCK_RECORD
  5
6B
330
1
100
AcDbSymbolTableRecord
100
AcDbBlockTableRecord
  2
block 11
340
0
102
{BLKREFS
331
6C
102
}
 70
     0
280
     1
281
     0
  0
BLOCK_RECORD
  5
71
330
1
100
AcDbSymbolTableRecord
100
AcDbBlockTableRecord
  2
block 12
340
0
102
{BLKREFS
331
72
102
}
 70
     0
280
     1
281
     0
  0
BLOCK_RECORD
  5
75
330
1
100
AcDbSymbolTableRecord
100
AcDbBlockTableRecord
  2
block 13
340
0
102
{BLKREFS
331
76
102
}
 70
     0
280
     1
281
     0
  0
BLOCK_RECORD
  5
7A
330
1
100
AcDbSymbolTableRecord
100
AcDbBlockTableRecord
  2
block 14
340
0
102
{BLKREFS
331
7B
102
}
 70
     0
280
     1
281
     0
  0
BLOCK_RECORD
  5
80
330
1
100
AcDbSymbolTableRecord
100
AcDbBlockTableRecord
  2
block 15
340
0
102
{BLKREFS
331
81
102
}
 70
     0
280
     1
281
     0
  0
BLOCK_RECORD
  5
84
330
1
100
AcDbSymbolTableRecord
100
AcDbBlockTableRecord
  2
block 16
340
0
102
{BLKREFS
331
85
102
}
 70
     0
280
     1
281
     0
  0
BLOCK_RECORD
  5
89
330
1
100
AcDbSymbolTableRecord
100
AcDbBlockTableRecord
  2
block 17
340
0
102
{BLKREFS
331
8A
102
}
 70
     0
280
     1
281
     0
  0
BLOCK_RECORD
  5
8E
330
1
100
AcDbSymbolTableRecord
100
AcDbBlockTableRecord
  2
block 18
340
0
102
{BLKREFS
331
8F
102
}
 70
     0
280
     1
281
     0
  0
BLOCK_RECORD
  5
93
330
1
100
AcDbSymbolTableRecord
100
AcDbBlockTableRecord
  2
block 19
340
0
102
{BLKREFS
331
94
102
}
 70
     0
280
     1
281
     0
  0
BLOCK_RECORD
  5
99
330
1
100
AcDbSymbolTableRecord
100
AcDbBlockTableRecord
  2
block 20
340
0
102
{BLKREFS
331
9A
102
}
 70
     0
280
     1
281
     0
  0
BLOCK_RECORD
  5
9D
330
1
100
AcDbSymbolTableRecord
100
AcDbBlockTableRecord
  2
block 21
340
0
102
{BLKREFS
331
9E
102
}
 70
     0
280
     1
281
     0
  0
BLOCK_RECORD
  5
A2
330
1
100
AcDbSymbolTableRecord
100
AcDbBlockTableRecord
  2
block 22
340
0
102
{BLKREFS
331
A3
102
}
 70
     0
280
     1
281
     0
  0
BLOCK_RECORD
  5
A8
330
1
100
AcDbSymbolTableRecord
100
AcDbBlockTableRecord
  2
block 23
340
0
102
{BLKREFS
331
A9
102
}
 70
     0
280
     1
281
     0
  0
BLOCK_RECORD
  5
AC
330
1
100
AcDbSymbolTableRecord
100
AcDbBlockTableRecord
  2
block 24
340
0
102
{BLKREFS
331
AD
102
}
 70
     0
280
     1
281
     0
  0
BLOCK_RECORD
  5
B1
330
1
100
AcDbSymbolTableRecord
100
AcDbBlockTableRecord
  2
block 25
340
0
102
{BLKREFS
331
B2
102
}
 70
     0
280
     1
281
     0
  0
BLOCK_RECORD
  5
B6
330
1
100
AcDbSymbolTableRecord
100
AcDbBlockTableRecord
  2
block 26
340
0
102
{BLKREFS
331
B7
102
}
 70
     0
280
     1
281
     0
  0
BLOCK_RECORD
  5
BB
330
1
100
AcDbSymbolTableRecord
100
AcDbBlockTableRecord
  2
block 27
340
0
102
{BLKREFS
331
BC
102
}
 70
     0
280
     1
281
     0
  0
BLOCK_RECORD
  5
C1
330
1
100
AcDbSymbolTableRecord
100
AcDbBlockTableRecord
  2
block 28
340
0
102
{BLKREFS
331
C2
102
}
 70
     0
280
     1
281
     0
  0
BLOCK_RECORD
  5
C5
330
1
100
AcDbSymbolTableRecord
100
AcDbBlockTableRecord
  2
block 29
340
0
102
{BLKREFS
331
C6
102
}
 70
     0
280
     1
281
     0
  0
BLOCK_RECORD
  5
CA
330
1
100
AcDbSymbolTableRecord
100
AcDbBlockTableRecord
  2
block 30
340
0
102
{BLKREFS
331
CB
102
}
 70
     0
280
     1
281
     0
  0
BLOCK_RECORD
  5
D0
330
1
100
AcDbSymbolTableRecord
100
AcDbBlockTableRecord
  2
block 31
340
0
102
{BLKREFS
331
D1
102
}
 70
     0
280
     1
281
     0
  0
BLOCK_RECORD
  5
D4
330
1
100
AcDbSymbolTableRecord
100
AcDbBlockTableRecord
  2
block 32
340
0
102
{BLKREFS
331
D5
102
}
 70
     0
280
     1
281
     0
  0
BLOCK_RECORD
  5
D9
330
1
100
AcDbSymbolTableRecord
100
AcDbBlockTableRecord
  2
block 33
340
0
102
{BLKREFS
331
DA
102
}
 70
     0
280
     1
281
     0
  0
BLOCK_RECORD
  5
DE
330
1
100
AcDbSymbolTableRecord
100
AcDbBlockTableRecord
  2
block 34
340
0
102
{BLKREFS
331
DF
102
}
 70
     0
280
     1
281
     0
  0
BLOCK_RECORD
  5
E3
330
1
100
AcDbSymbolTableRecord
100
AcDbBlockTableRecord
  2
block 35
340
0
102
{BLKREFS
331
E4
102
}
 70
     0
280
     1
281
     0
  0
BLOCK_RECORD
  5
E9
330
1
100
AcDbSymbolTableRecord
100
AcDbBlockTableRecord
  2
block 36
340
0
102
{BLKREFS
331
EA
102
}
 70
     0
280
     1
281
     0
  0
BLOCK_RECORD
  5
ED
330
1
100
AcDbSymbolTableRecord
100
AcDbBlockTableRecord
  2
block 37
340
0
102
{BLKREFS
331
EE
102
}
 70
     0
280
     1
281
     0
  0
BLOCK_RECORD
  5
F2
330
1
100
AcDbSymbolTableRecord
100
AcDbBlockTableRecord
  2
block 38
340
0
102
{BLKREFS
331
F3
102
}
 70
     0
280
     1
281
     0
  0
BLOCK_RECORD
  5
F8
330
1
100
AcDbSymbolTableRecord
100
AcDbBlockTableRecord
  2
block 39
340
0
102
{BLKREFS
331
F9
102
}
 70
     0
280
     1
281
     0
  0
BLOCK_RECORD
  5
FC
330
1
100
AcDbSymbolTableRecord
100
AcDbBlockTableRecord
  2
block 40
340
0
102
{BLKREFS
331
FD
102
}
 70
     0
280
     1
281
     0
  0
BLOCK_RECORD
  5
101
330
1
100
AcDbSymbolTableRecord
100
AcDbBlockTableRecord
  2
block 41
340
0
102
{BLKREFS
331
102
102
}
 70
     0
280
     1
281
     0
  0
BLOCK_RECORD
  5
106
330
1
100
AcDbSymbolTableRecord
100
AcDbBlockTableRecord
  2
block 42
340
0
102
{BLKREFS
331
107
102
}
 70
     0
280
     1
281
     0
  0
BLOCK_RECORD
  5
10B
330
1
100
AcDbSymbolTableRecord
100
AcDbBlockTableRecord
  2
block 43
340
0
102
{BLKREFS
331
10C
102
}
 70
     0
280
     1
281
     0
  0
BLOCK_RECORD
  5
111
330
1
100
AcDbSymbolTableRecord
100
AcDbBlockTableRecord
  2
block 44
340
0
102
{BLKREFS
331
112
102
}
 70
     0
280
     1
281
     0
  0
BLOCK_RECORD
  5
115
330
1
100
AcDbSymbolTableRecord
100
AcDbBlockTableRecord
  2
block 45
340
0
102
{BLKREFS
331
116
102
}
 70
     0
280
     1
281
     0
  0
BLOCK_RECORD
  5
119
330
1
100
AcDbSymbolTableRecord
100
AcDbBlockTableRecord
  2
block 46
340
0
102
{BLKREFS
331
11A
102
}
 70
     0
280
     1
281
     0
  0
BLOCK_RECORD
  5
11E
330
1
100
AcDbSymbolTableRecord
100
AcDbBlockTableRecord
  2
block 47
340
0
102
{BLKREFS
331
11F
102
}
 70
     0
280
     1
281
     0
  0
BLOCK_RECORD
  5
124
330
1
100
AcDbSymbolTableRecord
100
AcDbBlockTableRecord
  2
block 48
340
0
102
{BLKREFS
331
125
102
}
 70
     0
280
     1
281
     0
  0
BLOCK_RECORD
  5
128
330
1
100
AcDbSymbolTableRecord
100
AcDbBlockTableRecord
  2
block 49
340
0
102
{BLKREFS
331
129
102
}
 70
     0
280
     1
281
     0
  0
BLOCK_RECORD
  5
12D
330
1
100
AcDbSymbolTableRecord
100
AcDbBlockTableRecord
  2
block 50
340
0
102
{BLKREFS
331
12E
102
}
 70
     0
280
     1
281
     0
  0
BLOCK_RECORD
  5
132
330
1
100
AcDbSymbolTableRecord
100
AcDbBlockTableRecord
  2
block 51
340
0
102
{BLKREFS
331
133
102
}
 70
     0
280
     1
281
     0
  0
BLOCK_RECORD
  5
137
330
1
100
AcDbSymbolTableRecord
100
AcDbBlockTableRecord
  2
block 52
340
0
102
{BLKREFS
331
138
102
}
 70
     0
280
     1
281
     0
  0
BLOCK_RECORD
  5
13D
330
1
100
AcDbSymbolTableRecord
100
AcDbBlockTableRecord
  2
block 53
340
0
102
{BLKREFS
331
13E
102
}
 70
     0
280
     1
281
     0
  0
BLOCK_RECORD
  5
141
330
1
100
AcDbSymbolTableRecord
100
AcDbBlockTableRecord
  2
block 54
340
0
102
{BLKREFS
331
142
102
}
 70
     0
280
     1
281
     0
  0
BLOCK_RECORD
  5
146
330
1
100
AcDbSymbolTableRecord
100
AcDbBlockTableRecord
  2
block 55
340
0
102
{BLKREFS
331
147
102
}
 70
     0
280
     1
281
     0
  0
BLOCK_RECORD
  5
14C
330
1
100
AcDbSymbolTableRecord
100
AcDbBlockTableRecord
  2
block 56
340
0
102
{BLKREFS
331
14D
102
}
 70
     0
280
     1
281
     0
  0
BLOCK_RECORD
  5
150
330
1
100
AcDbSymbolTableRecord
100
AcDbBlockTableRecord
  2
block 57
340
0
102
{BLKREFS
331
151
102
}
 70
     0
280
     1
281
     0
  0
BLOCK_RECORD
  5
155
330
1
100
AcDbSymbolTableRecord
100
AcDbBlockTableRecord
  2
block 58
340
0
102
{BLKREFS
331
156
102
}
 70
     0
280
     1
281
     0
  0
BLOCK_RECORD
  5
15A
330
1
100
AcDbSymbolTableRecord
100
AcDbBlockTableRecord
  2
block 59
340
0
102
{BLKREFS
331
15B
102
}
 70
     0
280
     1
281
     0
  0
BLOCK_RECORD
  5
15F
330
1
100
AcDbSymbolTableRecord
100
AcDbBlockTableRecord
  2
block 60
340
0
102
{BLKREFS
331
160
102
}
 70
     0
280
     1
281
     0
  0
BLOCK_RECORD
  5
165
330
1
100
AcDbSymbolTableRecord
100
AcDbBlockTableRecord
  2
block 61
340
0
102
{BLKREFS
331
166
102
}
 70
     0
280
     1
281
     0
  0
BLOCK_RECORD
  5
169
330
1
100
AcDbSymbolTableRecord
100
AcDbBlockTableRecord
  2
block 62
340
0
102
{BLKREFS
331
16A
102
}
 70
     0
280
     1
281
     0
  0
BLOCK_RECORD
  5
16E
330
1
100
AcDbSymbolTableRecord
100
AcDbBlockTableRecord
  2
block 63
340
0
102
{BLKREFS
331
16F
102
}
 70
     0
280
     1
281
     0
  0
BLOCK_RECORD
  5
174
330
1
100
AcDbSymbolTableRecord
100
AcDbBlockTableRecord
  2
block 64
340
0
102
{BLKREFS
331
175
102
}
 70
     0
280
     1
281
     0
  0
BLOCK_RECORD
  5
178
330
1
100
AcDbSymbolTableRecord
100
AcDbBlockTableRecord
  2
block 65
340
0
102
{BLKREFS
331
179
102
}
 70
     0
280
     1
281
     0
  0
BLOCK_RECORD
  5
17D
330
1
100
AcDbSymbolTableRecord
100
AcDbBlockTableRecord
  2
block 66
340
0
102
{BLKREFS
331
17E
102
}
 70
     0
280
     1
281
     0
  0
BLOCK_RECORD
  5
182
330
1
100
AcDbSymbolTableRecord
100
AcDbBlockTableRecord
  2
block 67
340
0
102
{BLKREFS
331
183
102
}
 70
     0
280
     1
281
     0
  0
BLOCK_RECORD
  5
187
330
1
100
AcDbSymbolTableRecord
100
AcDbBlockTableRecord
  2
block 68
340
0
102
{BLKREFS
331
188
102
}
 70
     0
280
     1
281
     0
  0
BLOCK_RECORD
  5
18D
330
1
100
AcDbSymbolTableRecord
100
AcDbBlockTableRecord
  2
block 69
340
0
102
{BLKREFS
331
18E
102
}
 70
     0
280
     1
281
     0
  0
BLOCK_RECORD
  5
191
330
1
100
AcDbSymbolTableRecord
100
AcDbBlockTableRecord
  2
block 70
340
0
102
{BLKREFS
331
192
102
}
 70
     0
280
     1
281
     0
  0
BLOCK_RECORD
  5
196
330
1
100
AcDbSymbolTableRecord
100
AcDbBlockTableRecord
  2
block 71
340
0
102
{BLKREFS
331
197
102
}
 70
     0
280
     1
281
     0
  0
BLOCK_RECORD
  5
19C
330
1
100
AcDbSymbolTableRecord
100
AcDbBlockTableRecord
  2
block 72
340
0
102
{BLKREFS
331
19D
102
}
 70
     0
280
     1
281
     0
  0
BLOCK_RECORD
  5
1A0
330
1
100
AcDbSymbolTableRecord
100
AcDbBlockTableRecord
  2
block 73
340
0
102
{BLKREFS
331
1A1
102
}
 70
     0
280
     1
281
     0
  0
BLOCK_RECORD
  5
1A5
330
1
100
AcDbSymbolTableRecord
100
AcDbBlockTableRecord
  2
block 74
340
0
102
{BLKREFS
331
1A6
102
}
 70
     0
280
     1
281
     0
  0
BLOCK_RECORD
  5
1AA
330
1
100
AcDbSymbolTableRecord
100
AcDbBlockTableRecord
  2
block 75
340
0
102
{BLKREFS
331
1AB
102
}
 70
     0
280
     1
281
     0
  0
BLOCK_RECORD
  5
1AF
330
1
100
AcDbSymbolTableRecord
100
AcDbBlockTableRecord
  2
block 76
340
0
102
{BLKREFS
331
1B0
102
}
 70
     0
280
     1
281
     0
  0
BLOCK_RECORD
  5
1B5
330
1
100
AcDbSymbolTableRecord
100
AcDbBlockTableRecord
  2
block 77
340
0
102
{BLKREFS
331
1B6
102
}
 70
     0
280
     1
281
     0
  0
BLOCK_RECORD
  5
1B9
330
1
100
AcDbSymbolTableRecord
100
AcDbBlockTableRecord
  2
block 78
340
0
102
{BLKREFS
331
1BA
102
}
 70
     0
280
     1
281
     0
  0
BLOCK_RECORD
  5
1BE
330
1
100
AcDbSymbolTableRecord
100
AcDbBlockTableRecord
  2
block 79
340
0
102
{BLKREFS
331
1BF
102
}
 70
     0
280
     1
281
     0
  0
BLOCK_RECORD
  5
1C4
330
1
100
AcDbSymbolTableRecord
100
AcDbBlockTableRecord
  2
block 80
340
0
102
{BLKREFS
331
1C5
102
}
 70
     0
280
     1
281
     0
  0
BLOCK_RECORD
  5
1C8
330
1
100
AcDbSymbolTableRecord
100
AcDbBlockTableRecord
  2
block 81
340
0
102
{BLKREFS
331
1C9
102
}
 70
     0
280
     1
281
     0
  0
BLOCK_RECORD
  5
1CD
330
1
100
AcDbSymbolTableRecord
100
AcDbBlockTableRecord
  2
block 82
340
0
102
{BLKREFS
331
1CE
102
}
 70
     0
280
     1
281
     0
  0
BLOCK_RECORD
  5
1D2
330
1
100
AcDbSymbolTableRecord
100
AcDbBlockTableRecord
  2
block 83
340
0
102
{BLKREFS
331
1D3
102
}
 70
     0
280
     1
281
     0
  0
BLOCK_RECORD
  5
1D7
330
1
100
AcDbSymbolTableRecord
100
AcDbBlockTableRecord
  2
block 84
340
0
102
{BLKREFS
331
1D8
102
}
 70
     0
280
     1
281
     0
  0
ENDTAB
  0
ENDSEC
  0
SECTION
  2
BLOCKS
  0
BLOCK
  5
20
330
1F
100
AcDbEntity
  8
0
100
AcDbBlockBegin
  2
*Model_Space
 70
     0
 10
0.0
 20
0.0
 30
0.0
  3
*Model_Space
  1

  0
ENDBLK
  5
21
330
1F
100
AcDbEntity
  8
0
100
AcDbBlockEnd
  0
BLOCK
  5
1C
330
1B
100
AcDbEntity
 67
     1
  8
0
100
AcDbBlockBegin
  2
*Paper_Space
 70
     0
 10
0.0
 20
0.0
 30
0.0
  3
*Paper_Space
  1

  0
ENDBLK
  5
1D
330
1B
100
AcDbEntity
 67
     1
  8
0
100
AcDbBlockEnd
  0
BLOCK
  5
24
330
23
100
AcDbEntity
  8
0
100
AcDbBlockBegin
  2
*Paper_Space0
 70
     0
 10
0.0
 20
0.0
 30
0.0
  3
*Paper_Space0
  1

  0
ENDBLK
  5
25
330
23
100
AcDbEntity
  8
0
100
AcDbBlockEnd
  0
BLOCK
  5
43
330
41
100
AcDbEntity
  8
0
100
AcDbBlockBegin
  2
block 2
 70
     0
 10
0.0
 20
0.0
 30
0.0
  3
block 2
  1

  0
INSERT
  5
46
330
41
100
AcDbEntity
  8
Layer 1
100
AcDbBlockReference
  2
block 3
 10
0.0
 20
0.0
 30
0.0
  0
INSERT
  5
112
330
41
100
AcDbEntity
  8
Layer 1
100
AcDbBlockReference
  2
block 44
 10
0.0
 20
0.0
 30
0.0
  0
ENDBLK
  5
44
330
41
100
AcDbEntity
  8
0
100
AcDbBlockEnd
  0
BLOCK
  5
47
330
45
100
AcDbEntity
  8
0
100
AcDbBlockBegin
  2
block 3
 70
     0
 10
0.0
 20
0.0
 30
0.0
  3
block 3
  1

  0
INSERT
  5
4A
330
45
100
AcDbEntity
  8
Layer 1
100
AcDbBlockReference
  2
block 4
 10
0.0
 20
0.0
 30
0.0
  0
INSERT
  5
72
330
45
100
AcDbEntity
  8
Layer 1
100
AcDbBlockReference
  2
block 12
 10
0.0
 20
0.0
 30
0.0
  0
INSERT
  5
9A
330
45
100
AcDbEntity
  8
Layer 1
100
AcDbBlockReference
  2
block 20
 10
0.0
 20
0.0
 30
0.0
  0
INSERT
  5
C2
330
45
100
AcDbEntity
  8
Layer 1
100
AcDbBlockReference
  2
block 28
 10
0.0
 20
0.0
 30
0.0
  0
INSERT
  5
EA
330
45
100
AcDbEntity
  8
Layer 1
100
AcDbBlockReference
  2
block 36
 10
0.0
 20
0.0
 30
0.0
  0
ENDBLK
  5
48
330
45
100
AcDbEntity
  8
0
100
AcDbBlockEnd
  0
BLOCK
  5
4B
330
49
100
AcDbEntity
  8
0
100
AcDbBlockBegin
  2
block 4
 70
     0
 10
0.0
 20
0.0
 30
0.0
  3
block 4
  1

  0
INSERT
  5
4E
330
49
100
AcDbEntity
  8
Layer 1
100
AcDbBlockReference
  2
block 5
 10
0.0
 20
0.0
 30
0.0
  0
INSERT
  5
53
330
49
100
AcDbEntity
  8
Layer 1
100
AcDbBlockReference
  2
block 6
 10
0.0
 20
0.0
 30
0.0
  0
SPLINE
  5
57
330
49
100
AcDbEntity
  8
Layer 1
370
     0
100
AcDbSpline
210
0.0
220
0.0
230
1.0
 70
    11
 71
     3
 72
    32
 73
    28
 74
     0
 42
0.0000000001
 43
0.0000000001
 12
1.0
 22
0.0
 32
0.0
 13
1.0
 23
0.0
 33
0.0
 40
0.0
 40
0.0
 40
0.0
 40
0.0
 40
1.0
 40
1.0
 40
1.0
 40
2.0
 40
2.0
 40
2.0
 40
3.0
 40
3.0
 40
3.0
 40
4.0
 40
4.0
 40
4.0
 40
5.0
 40
5.0
 40
5.0
 40
6.0
 40
6.0
 40
6.0
 40
7.0
 40
7.0
 40
7.0
 40
8.0
 40
8.0
 40
8.0
 40
9.0
 40
9.0
 40
9.0
 40
9.0
 10
224.8649389354071
 20
-105.6490811030861
 30
0.0
 10
224.8649389354071
 20
-108.1173459459435
 30
0.0
 10
222.9601795941153
 20
-110.1272230508687
 30
0.0
 10
220.5968601010288
 20
-110.1272230508687
 30
0.0
 10
220.5968601010288
 20
-110.1272230508687
 30
0.0
 10
189.1330285443607
 20
-110.1272230508687
 30
0.0
 10
189.1330285443607
 20
-110.1272230508687
 30
0.0
 10
186.7697090512736
 20
-110.1272230508687
 30
0.0
 10
184.8649497099824
 20
-108.1173459459435
 30
0.0
 10
184.8649497099824
 20
-105.6490811030861
 30
0.0
 10
184.8649497099824
 20
-105.6490811030861
 30
0.0
 10
184.8649497099824
 20
-64.60535963076131
 30
0.0
 10
184.8649497099824
 20
-64.60535963076131
 30
0.0
 10
184.8649497099824
 20
-62.13709478790323
 30
0.0
 10
186.7697090512736
 20
-60.12722306336849
 30
0.0
 10
189.1330285443607
 20
-60.12722306336849
 30
0.0
 10
189.1330285443607
 20
-60.12722306336849
 30
0.0
 10
220.596870865604
 20
-60.12722306336849
 30
0.0
 10
220.596870865604
 20
-60.12722306336849
 30
0.0
 10
222.9601903586911
 20
-60.12722306336849
 30
0.0
 10
224.8649496999823
 20
-62.13709478790323
 30
0.0
 10
224.8649496999823
 20
-64.60535963076131
 30
0.0
 10
224.8649496999823
 20
-64.60535963076131
 30
0.0
 10
224.8649496999823
 20
-105.6490811030861
 30
0.0
 10
224.8649496999823
 20
-105.6490811030861
 30
0.0
 10
224.8649496999823
 20
-105.6490811030861
 30
0.0
 10
224.8649389354071
 20
-105.6490811030861
 30
0.0
 10
224.8649389354071
 20
-105.6490811030861
 30
0.0
  0
INSERT
  5
59
330
49
100
AcDbEntity
  8
Layer 1
100
AcDbBlockReference
  2
block 7
 10
0.0
 20
0.0
 30
0.0
  0
SPLINE
  5
70
330
49
100
AcDbEntity
  8
Layer 1
370
     0
100
AcDbSpline
210
0.0
220
0.0
230
1.0
 70
    11
 71
     3
 72
    71
 73
    67
 74
     0
 42
0.0000000001
 43
0.0000000001
 12
1.0
 22
0.0
 32
0.0
 13
1.0
 23
0.0
 33
0.0
 40
0.0
 40
0.0
 40
0.0
 40
0.0
 40
1.0
 40
1.0
 40
1.0
 40
2.0
 40
2.0
 40
2.0
 40
3.0
 40
3.0
 40
3.0
 40
4.0
 40
4.0
 40
4.0
 40
5.0
 40
5.0
 40
5.0
 40
6.0
 40
6.0
 40
6.0
 40
7.0
 40
7.0
 40
7.0
 40
8.0
 40
8.0
 40
8.0
 40
9.0
 40
9.0
 40
9.0
 40
10.0
 40
10.0
 40
10.0
 40
11.0
 40
11.0
 40
11.0
 40
12.0
 40
12.0
 40
12.0
 40
13.0
 40
13.0
 40
13.0
 40
14.0
 40
14.0
 40
14.0
 40
15.0
 40
15.0
 40
15.0
 40
16.0
 40
16.0
 40
16.0
 40
17.0
 40
17.0
 40
17.0
 40
18.0
 40
18.0
 40
18.0
 40
19.0
 40
19.0
 40
19.0
 40
20.0
 40
20.0
 40
20.0
 40
21.0
 40
21.0
 40
21.0
 40
22.0
 40
22.0
 40
22.0
 40
22.0
 10
211.7686680588971
 20
-86.00262745720235
 30
0.0
 10
211.3206333910404
 20
-89.3667201348559
 30
0.0
 10
208.3516716336989
 20
-92.17518350627962
 30
0.0
 10
204.8651704070857
 20
-92.17518350627962
 30
0.0
 10
201.3786691804725
 20
-92.17518350627962
 30
0.0
 10
198.4996459471428
 20
-89.36742530283931
 30
0.0
 10
198.0509007283422
 20
-86.00333262518512
 30
0.0
 10
198.0509007283422
 20
-86.00333262518512
 30
0.0
 10
198.0507930691083
 20
-86.00330032741688
 30
0.0
 10
198.0507930691083
 20
-86.00330032741688
 30
0.0
 10
198.0507930691083
 20
-86.00330032741688
 30
0.0
 10
197.5406820869767
 20
-86.00259515943345
 30
0.0
 10
197.5406820869767
 20
-86.00259515943345
 30
0.0
 10
197.5406820869767
 20
-86.00259515943345
 30
0.0
 10
197.5406820869767
 20
-86.70250398799254
 30
0.0
 10
197.5406820869767
 20
-86.70250398799254
 30
0.0
 10
197.5406820869767
 20
-86.70250398799254
 30
0.0
 10
195.1403764031692
 20
-86.70250398799254
 30
0.0
 10
195.1403764031692
 20
-86.70250398799254
 30
0.0
 10
195.1403764031692
 20
-86.70250398799254
 30
0.0
 10
195.1403764031692
 20
-83.50210717550854
 30
0.0
 10
195.1403764031692
 20
-83.50210717550854
 30
0.0
 10
195.1403764031692
 20
-83.50210717550854
 30
0.0
 10
197.5706759495451
 20
-83.50210717550854
 30
0.0
 10
197.5706759495451
 20
-83.50210717550854
 30
0.0
 10
197.5706759495451
 20
-83.50210717550854
 30
0.0
 10
197.5710204590937
 20
-84.20342634003062
 30
0.0
 10
197.5710204590937
 20
-84.20342634003062
 30
0.0
 10
197.5710204590937
 20
-84.20342634003062
 30
0.0
 10
198.2123680473665
 20
-84.20307644751976
 30
0.0
 10
198.2123680473665
 20
-84.20307644751976
 30
0.0
 10
198.2123680473665
 20
-84.20307644751976
 30
0.0
 10
198.2123034518262
 20
-84.20314642602308
 30
0.0
 10
198.2123034518262
 20
-84.20314642602308
 30
0.0
 10
198.9065763194911
 20
-81.14032734855785
 30
0.0
 10
201.5933201610503
 20
-78.4249999803938
 30
0.0
 10
204.86534266186
 20
-78.4249999803938
 30
0.0
 10
208.1818068944293
 20
-78.4249999803938
 30
0.0
 10
210.9736907438289
 20
-81.07824026835833
 30
0.0
 10
211.6224452873951
 20
-84.20208598257031
 30
0.0
 10
211.6224452873951
 20
-84.20208598257031
 30
0.0
 10
211.6222945644676
 20
-84.20219364180423
 30
0.0
 10
211.6222945644676
 20
-84.20219364180423
 30
0.0
 10
211.6222945644676
 20
-84.20219364180423
 30
0.0
 10
212.1899171093561
 20
-84.20219364180423
 30
0.0
 10
212.1899171093561
 20
-84.20219364180423
 30
0.0
 10
212.1899171093561
 20
-84.20219364180423
 30
0.0
 10
212.1899171093561
 20
-83.5022794302828
 30
0.0
 10
212.1899171093561
 20
-83.5022794302828
 30
0.0
 10
212.1899171093561
 20
-83.5022794302828
 30
0.0
 10
214.5895122422197
 20
-83.5022794302828
 30
0.0
 10
214.5895122422197
 20
-83.5022794302828
 30
0.0
 10
214.5895122422197
 20
-83.5022794302828
 30
0.0
 10
214.5895122422197
 20
-86.70268162572914
 30
0.0
 10
214.5895122422197
 20
-86.70268162572914
 30
0.0
 10
214.5895122422197
 20
-86.70268162572914
 30
0.0
 10
212.1899171093561
 20
-86.70268162572914
 30
0.0
 10
212.1899171093561
 20
-86.70268162572914
 30
0.0
 10
212.1899171093561
 20
-86.70268162572914
 30
0.0
 10
212.1899171093561
 20
-86.00277279717005
 30
0.0
 10
212.1899171093561
 20
-86.00277279717005
 30
0.0
 10
212.1899171093561
 20
-86.00277279717005
 30
0.0
 10
211.7231927984918
 20
-86.00277279717005
 30
0.0
 10
211.7231927984918
 20
-86.00277279717005
 30
0.0
 10
211.7231927984918
 20
-86.00277279717005
 30
0.0
 10
211.7686680588971
 20
-86.00262745720235
 30
0.0
 10
211.7686680588971
 20
-86.00262745720235
 30
0.0
  0
ENDBLK
  5
4C
330
49
100
AcDbEntity
  8
0
100
AcDbBlockEnd
  0
BLOCK
  5
4F
330
4D
100
AcDbEntity
  8
0
100
AcDbBlockBegin
  2
block 5
 70
     0
 10
0.0
 20
0.0
 30
0.0
  3
block 5
  1

  0
SPLINE
  5
51
330
4D
100
AcDbEntity
  8
Layer 1
370
     0
100
AcDbSpline
210
0.0
220
0.0
230
1.0
 70
    11
 71
     3
 72
    17
 73
    13
 74
     0
 42
0.0000000001
 43
0.0000000001
 12
1.0
 22
0.0
 32
0.0
 13
1.0
 23
0.0
 33
0.0
 40
0.0
 40
0.0
 40
0.0
 40
0.0
 40
1.0
 40
1.0
 40
1.0
 40
2.0
 40
2.0
 40
2.0
 40
3.0
 40
3.0
 40
3.0
 40
4.0
 40
4.0
 40
4.0
 40
4.0
 10
206.3442153818879
 20
-72.43328431641392
 30
0.0
 10
206.3442153818879
 20
-73.2619530684716
 30
0.0
 10
205.6594176641201
 20
-73.9825384164382
 30
0.0
 10
204.7944094417201
 20
-73.9825384164382
 30
0.0
 10
203.9654455200816
 20
-73.9825384164382
 30
0.0
 10
203.2446035015517
 20
-73.29798453492181
 30
0.0
 10
203.2446035015517
 20
-72.43327881878382
 30
0.0
 10
203.2446035015517
 20
-71.60460456909668
 30
0.0
 10
203.9294012193195
 20
-70.88401922113007
 30
0.0
 10
204.7944094417201
 20
-70.88401922113007
 30
0.0
 10
205.6594066649442
 20
-70.88403021638965
 30
0.0
 10
206.3442153818879
 20
-71.56858409790604
 30
0.0
 10
206.3442153818879
 20
-72.43328431641392
 30
0.0
  0
ENDBLK
  5
50
330
4D
100
AcDbEntity
  8
0
100
AcDbBlockEnd
  0
BLOCK
  5
54
330
52
100
AcDbEntity
  8
0
100
AcDbBlockBegin
  2
block 6
 70
     0
 10
0.0
 20
0.0
 30
0.0
  3
block 6
  1

  0
SPLINE
  5
56
330
52
100
AcDbEntity
  8
Layer 1
370
     0
100
AcDbSpline
210
0.0
220
0.0
230
1.0
 70
    11
 71
     3
 72
    17
 73
    13
 74
     0
 42
0.0000000001
 43
0.0000000001
 12
1.0
 22
0.0
 32
0.0
 13
1.0
 23
0.0
 33
0.0
 40
0.0
 40
0.0
 40
0.0
 40
0.0
 40
1.0
 40
1.0
 40
1.0
 40
2.0
 40
2.0
 40
2.0
 40
3.0
 40
3.0
 40
3.0
 40
4.0
 40
4.0
 40
4.0
 40
4.0
 10
206.3794801312318
 20
-97.82115115428212
 30
0.0
 10
206.3794801312318
 20
-98.64982284692564
 30
0.0
 10
205.6946824134639
 20
-99.3704107519365
 30
0.0
 10
204.8296741910633
 20
-99.3704107519365
 30
0.0
 10
204.0007102694248
 20
-99.3704107519365
 30
0.0
 10
203.2798682508949
 20
-98.68585444123568
 30
0.0
 10
203.2798682508949
 20
-97.82115115428212
 30
0.0
 10
203.2798682508949
 20
-96.9924794616386
 30
0.0
 10
203.9646659686627
 20
-96.27189155662774
 30
0.0
 10
204.8296741910633
 20
-96.27189155662774
 30
0.0
 10
205.6946824134639
 20
-96.27189155662774
 30
0.0
 10
206.3794801312318
 20
-96.95644786732856
 30
0.0
 10
206.3794801312318
 20
-97.82115115428212
 30
0.0
  0
ENDBLK
  5
55
330
52
100
AcDbEntity
  8
0
100
AcDbBlockEnd
  0
BLOCK
  5
5A
330
58
100
AcDbEntity
  8
0
100
AcDbBlockBegin
  2
block 7
 70
     0
 10
0.0
 20
0.0
 30
0.0
  3
block 7
  1

  0
INSERT
  5
5D
330
58
100
AcDbEntity
  8
Layer 1
100
AcDbBlockReference
  2
block 8
 10
0.0
 20
0.0
 30
0.0
  0
INSERT
  5
62
330
58
100
AcDbEntity
  8
Layer 1
100
AcDbBlockReference
  2
block 9
 10
0.0
 20
0.0
 30
0.0
  0
INSERT
  5
67
330
58
100
AcDbEntity
  8
Layer 1
100
AcDbBlockReference
  2
block 10
 10
0.0
 20
0.0
 30
0.0
  0
INSERT
  5
6C
330
58
100
AcDbEntity
  8
Layer 1
100
AcDbBlockReference
  2
block 11
 10
0.0
 20
0.0
 30
0.0
  0
ENDBLK
  5
5B
330
58
100
AcDbEntity
  8
0
100
AcDbBlockEnd
  0
BLOCK
  5
5E
330
5C
100
AcDbEntity
  8
0
100
AcDbBlockBegin
  2
block 8
 70
     0
 10
0.0
 20
0.0
 30
0.0
  3
block 8
  1

  0
SPLINE
  5
60
330
5C
100
AcDbEntity
  8
Layer 1
370
     0
100
AcDbSpline
210
0.0
220
0.0
230
1.0
 70
    11
 71
     3
 72
    17
 73
    13
 74
     0
 42
0.0000000001
 43
0.0000000001
 12
1.0
 22
0.0
 32
0.0
 13
1.0
 23
0.0
 33
0.0
 40
0.0
 40
0.0
 40
0.0
 40
0.0
 40
1.0
 40
1.0
 40
1.0
 40
2.0
 40
2.0
 40
2.0
 40
3.0
 40
3.0
 40
3.0
 40
4.0
 40
4.0
 40
4.0
 40
4.0
 10
191.3883017046049
 20
-65.13427352565915
 30
0.0
 10
191.3883017046049
 20
-65.96294777534693
 30
0.0
 10
190.7035039868371
 20
-66.68353312331354
 30
0.0
 10
189.8384957644371
 20
-66.68353312331354
 30
0.0
 10
189.0095318427986
 20
-66.68353312331354
 30
0.0
 10
188.2886898242687
 20
-65.99897924179714
 30
0.0
 10
188.2886898242687
 20
-65.13427352565915
 30
0.0
 10
188.2886898242687
 20
-64.30559927597137
 30
0.0
 10
188.9734875420371
 20
-63.58501392800477
 30
0.0
 10
189.8384957644371
 20
-63.58501392800477
 30
0.0
 10
190.7035039868371
 20
-63.58501392800477
 30
0.0
 10
191.3883017046049
 20
-64.26957330715126
 30
0.0
 10
191.3883017046049
 20
-65.13427352565915
 30
0.0
  0
ENDBLK
  5
5F
330
5C
100
AcDbEntity
  8
0
100
AcDbBlockEnd
  0
BLOCK
  5
63
330
61
100
AcDbEntity
  8
0
100
AcDbBlockBegin
  2
block 9
 70
     0
 10
0.0
 20
0.0
 30
0.0
  3
block 9
  1

  0
SPLINE
  5
65
330
61
100
AcDbEntity
  8
Layer 1
370
     0
100
AcDbSpline
210
0.0
220
0.0
230
1.0
 70
    11
 71
     3
 72
    17
 73
    13
 74
     0
 42
0.0000000001
 43
0.0000000001
 12
1.0
 22
0.0
 32
0.0
 13
1.0
 23
0.0
 33
0.0
 40
0.0
 40
0.0
 40
0.0
 40
0.0
 40
1.0
 40
1.0
 40
1.0
 40
2.0
 40
2.0
 40
2.0
 40
3.0
 40
3.0
 40
3.0
 40
4.0
 40
4.0
 40
4.0
 40
4.0
 10
221.405934071777
 20
-65.13427352565915
 30
0.0
 10
221.405934071777
 20
-65.96294777534693
 30
0.0
 10
220.7211363540092
 20
-66.68353312331354
 30
0.0
 10
219.8561281316086
 20
-66.68353312331354
 30
0.0
 10
219.0271642099701
 20
-66.68353312331354
 30
0.0
 10
218.3063221914402
 20
-65.99897924179714
 30
0.0
 10
218.3063221914402
 20
-65.13427352565915
 30
0.0
 10
218.3063221914402
 20
-64.30559927597137
 30
0.0
 10
218.991119909208
 20
-63.58501392800477
 30
0.0
 10
219.8561281316086
 20
-63.58501392800477
 30
0.0
 10
220.7211363540092
 20
-63.58501392800477
 30
0.0
 10
221.405934071777
 20
-64.26957330715126
 30
0.0
 10
221.405934071777
 20
-65.13427352565915
 30
0.0
  0
ENDBLK
  5
64
330
61
100
AcDbEntity
  8
0
100
AcDbBlockEnd
  0
BLOCK
  5
68
330
66
100
AcDbEntity
  8
0
100
AcDbBlockBegin
  2
block 10
 70
     0
 10
0.0
 20
0.0
 30
0.0
  3
block 10
  1

  0
SPLINE
  5
6A
330
66
100
AcDbEntity
  8
Layer 1
370
     0
100
AcDbSpline
210
0.0
220
0.0
230
1.0
 70
    11
 71
     3
 72
    17
 73
    13
 74
     0
 42
0.0000000001
 43
0.0000000001
 12
1.0
 22
0.0
 32
0.0
 13
1.0
 23
0.0
 33
0.0
 40
0.0
 40
0.0
 40
0.0
 40
0.0
 40
1.0
 40
1.0
 40
1.0
 40
2.0
 40
2.0
 40
2.0
 40
3.0
 40
3.0
 40
3.0
 40
4.0
 40
4.0
 40
4.0
 40
4.0
 10
191.3883017046049
 20
-105.1201672081882
 30
0.0
 10
191.3883017046049
 20
-105.9488389008318
 30
0.0
 10
190.7035039868371
 20
-106.6694268058426
 30
0.0
 10
189.8384957644371
 20
-106.6694268058426
 30
0.0
 10
189.0095318427986
 20
-106.6694268058426
 30
0.0
 10
188.2886898242687
 20
-105.9848704951418
 30
0.0
 10
188.2886898242687
 20
-105.1201672081882
 30
0.0
 10
188.2886898242687
 20
-104.2914955155447
 30
0.0
 10
188.9734875420371
 20
-103.5709076105339
 30
0.0
 10
189.8384957644371
 20
-103.5709076105339
 30
0.0
 10
190.7035039868371
 20
-103.5708966152351
 30
0.0
 10
191.3883017046049
 20
-104.2554639212347
 30
0.0
 10
191.3883017046049
 20
-105.1201672081882
 30
0.0
  0
ENDBLK
  5
69
330
66
100
AcDbEntity
  8
0
100
AcDbBlockEnd
  0
BLOCK
  5
6D
330
6B
100
AcDbEntity
  8
0
100
AcDbBlockBegin
  2
block 11
 70
     0
 10
0.0
 20
0.0
 30
0.0
  3
block 11
  1

  0
SPLINE
  5
6F
330
6B
100
AcDbEntity
  8
Layer 1
370
     0
100
AcDbSpline
210
0.0
220
0.0
230
1.0
 70
    11
 71
     3
 72
    17
 73
    13
 74
     0
 42
0.0000000001
 43
0.0000000001
 12
1.0
 22
0.0
 32
0.0
 13
1.0
 23
0.0
 33
0.0
 40
0.0
 40
0.0
 40
0.0
 40
0.0
 40
1.0
 40
1.0
 40
1.0
 40
2.0
 40
2.0
 40
2.0
 40
3.0
 40
3.0
 40
3.0
 40
4.0
 40
4.0
 40
4.0
 40
4.0
 10
221.405934071777
 20
-105.1201672081882
 30
0.0
 10
221.405934071777
 20
-105.9488389008318
 30
0.0
 10
220.7211363540092
 20
-106.6694268058426
 30
0.0
 10
219.8561281316086
 20
-106.6694268058426
 30
0.0
 10
219.0271642099701
 20
-106.6694268058426
 30
0.0
 10
218.3063221914402
 20
-105.9848704951418
 30
0.0
 10
218.3063221914402
 20
-105.1201672081882
 30
0.0
 10
218.3063221914402
 20
-104.2914955155447
 30
0.0
 10
218.991119909208
 20
-103.5709076105339
 30
0.0
 10
219.8561281316086
 20
-103.5709076105339
 30
0.0
 10
220.7211363540092
 20
-103.5708966152351
 30
0.0
 10
221.405934071777
 20
-104.2554639212347
 30
0.0
 10
221.405934071777
 20
-105.1201672081882
 30
0.0
  0
ENDBLK
  5
6E
330
6B
100
AcDbEntity
  8
0
100
AcDbBlockEnd
  0
BLOCK
  5
73
330
71
100
AcDbEntity
  8
0
100
AcDbBlockBegin
  2
block 12
 70
     0
 10
0.0
 20
0.0
 30
0.0
  3
block 12
  1

  0
INSERT
  5
76
330
71
100
AcDbEntity
  8
Layer 1
100
AcDbBlockReference
  2
block 13
 10
0.0
 20
0.0
 30
0.0
  0
INSERT
  5
7B
330
71
100
AcDbEntity
  8
Layer 1
100
AcDbBlockReference
  2
block 14
 10
0.0
 20
0.0
 30
0.0
  0
SPLINE
  5
7F
330
71
100
AcDbEntity
  8
Layer 1
370
     0
100
AcDbSpline
210
0.0
220
0.0
230
1.0
 70
    11
 71
     3
 72
    32
 73
    28
 74
     0
 42
0.0000000001
 43
0.0000000001
 12
1.0
 22
0.0
 32
0.0
 13
1.0
 23
0.0
 33
0.0
 40
0.0
 40
0.0
 40
0.0
 40
0.0
 40
1.0
 40
1.0
 40
1.0
 40
2.0
 40
2.0
 40
2.0
 40
3.0
 40
3.0
 40
3.0
 40
4.0
 40
4.0
 40
4.0
 40
5.0
 40
5.0
 40
5.0
 40
6.0
 40
6.0
 40
6.0
 40
7.0
 40
7.0
 40
7.0
 40
8.0
 40
8.0
 40
8.0
 40
9.0
 40
9.0
 40
9.0
 40
9.0
 10
179.8649389466571
 20
-105.6490811030861
 30
0.0
 10
179.8649389466571
 20
-108.1173459459435
 30
0.0
 10
177.9601796053653
 20
-110.1272230508687
 30
0.0
 10
175.5968601122788
 20
-110.1272230508687
 30
0.0
 10
175.5968601122788
 20
-110.1272230508687
 30
0.0
 10
144.1330285556107
 20
-110.1272230508687
 30
0.0
 10
144.1330285556107
 20
-110.1272230508687
 30
0.0
 10
141.7697090625236
 20
-110.1272230508687
 30
0.0
 10
139.8649497212324
 20
-108.1173459459435
 30
0.0
 10
139.8649497212324
 20
-105.6490811030861
 30
0.0
 10
139.8649497212324
 20
-105.6490811030861
 30
0.0
 10
139.8649497212324
 20
-64.60535963076131
 30
0.0
 10
139.8649497212324
 20
-64.60535963076131
 30
0.0
 10
139.8649497212324
 20
-62.13709478790323
 30
0.0
 10
141.7697090625236
 20
-60.12722306336849
 30
0.0
 10
144.1330285556107
 20
-60.12722306336849
 30
0.0
 10
144.1330285556107
 20
-60.12722306336849
 30
0.0
 10
175.596870876854
 20
-60.12722306336849
 30
0.0
 10
175.596870876854
 20
-60.12722306336849
 30
0.0
 10
177.9601903699411
 20
-60.12722306336849
 30
0.0
 10
179.8649497112323
 20
-62.13709478790323
 30
0.0
 10
179.8649497112323
 20
-64.60535963076131
 30
0.0
 10
179.8649497112323
 20
-64.60535963076131
 30
0.0
 10
179.8649497112323
 20
-105.6490811030861
 30
0.0
 10
179.8649497112323
 20
-105.6490811030861
 30
0.0
 10
179.8649497112323
 20
-105.6490811030861
 30
0.0
 10
179.8649389466571
 20
-105.6490811030861
 30
0.0
 10
179.8649389466571
 20
-105.6490811030861
 30
0.0
  0
INSERT
  5
81
330
71
100
AcDbEntity
  8
Layer 1
100
AcDbBlockReference
  2
block 15
 10
0.0
 20
0.0
 30
0.0
  0
SPLINE
  5
98
330
71
100
AcDbEntity
  8
Layer 1
370
     0
100
AcDbSpline
210
0.0
220
0.0
230
1.0
 70
    11
 71
     3
 72
    71
 73
    67
 74
     0
 42
0.0000000001
 43
0.0000000001
 12
1.0
 22
0.0
 32
0.0
 13
1.0
 23
0.0
 33
0.0
 40
0.0
 40
0.0
 40
0.0
 40
0.0
 40
1.0
 40
1.0
 40
1.0
 40
2.0
 40
2.0
 40
2.0
 40
3.0
 40
3.0
 40
3.0
 40
4.0
 40
4.0
 40
4.0
 40
5.0
 40
5.0
 40
5.0
 40
6.0
 40
6.0
 40
6.0
 40
7.0
 40
7.0
 40
7.0
 40
8.0
 40
8.0
 40
8.0
 40
9.0
 40
9.0
 40
9.0
 40
10.0
 40
10.0
 40
10.0
 40
11.0
 40
11.0
 40
11.0
 40
12.0
 40
12.0
 40
12.0
 40
13.0
 40
13.0
 40
13.0
 40
14.0
 40
14.0
 40
14.0
 40
15.0
 40
15.0
 40
15.0
 40
16.0
 40
16.0
 40
16.0
 40
17.0
 40
17.0
 40
17.0
 40
18.0
 40
18.0
 40
18.0
 40
19.0
 40
19.0
 40
19.0
 40
20.0
 40
20.0
 40
20.0
 40
21.0
 40
21.0
 40
21.0
 40
22.0
 40
22.0
 40
22.0
 40
22.0
 10
166.7686680701471
 20
-86.00262745720235
 30
0.0
 10
166.3206334022904
 20
-89.3667201348559
 30
0.0
 10
163.3516716449488
 20
-92.17518350627962
 30
0.0
 10
159.8651704183357
 20
-92.17518350627962
 30
0.0
 10
156.3786691917225
 20
-92.17518350627962
 30
0.0
 10
153.4996459583927
 20
-89.36742530283931
 30
0.0
 10
153.0509007395922
 20
-86.00333262518512
 30
0.0
 10
153.0509007395922
 20
-86.00333262518512
 30
0.0
 10
153.0507930803583
 20
-86.00330032741688
 30
0.0
 10
153.0507930803583
 20
-86.00330032741688
 30
0.0
 10
153.0507930803583
 20
-86.00330032741688
 30
0.0
 10
152.5406820982267
 20
-86.00259515943345
 30
0.0
 10
152.5406820982267
 20
-86.00259515943345
 30
0.0
 10
152.5406820982267
 20
-86.00259515943345
 30
0.0
 10
152.5406820982267
 20
-86.70250398799254
 30
0.0
 10
152.5406820982267
 20
-86.70250398799254
 30
0.0
 10
152.5406820982267
 20
-86.70250398799254
 30
0.0
 10
150.1403764144192
 20
-86.70250398799254
 30
0.0
 10
150.1403764144192
 20
-86.70250398799254
 30
0.0
 10
150.1403764144192
 20
-86.70250398799254
 30
0.0
 10
150.1403764144192
 20
-83.50210717550854
 30
0.0
 10
150.1403764144192
 20
-83.50210717550854
 30
0.0
 10
150.1403764144192
 20
-83.50210717550854
 30
0.0
 10
152.5706759607951
 20
-83.50210717550854
 30
0.0
 10
152.5706759607951
 20
-83.50210717550854
 30
0.0
 10
152.5706759607951
 20
-83.50210717550854
 30
0.0
 10
152.5710204703437
 20
-84.20342634003062
 30
0.0
 10
152.5710204703437
 20
-84.20342634003062
 30
0.0
 10
152.5710204703437
 20
-84.20342634003062
 30
0.0
 10
153.2123680586165
 20
-84.20307644751976
 30
0.0
 10
153.2123680586165
 20
-84.20307644751976
 30
0.0
 10
153.2123680586165
 20
-84.20307644751976
 30
0.0
 10
153.2123034630761
 20
-84.20314642602308
 30
0.0
 10
153.2123034630761
 20
-84.20314642602308
 30
0.0
 10
153.9065763307411
 20
-81.14032734855785
 30
0.0
 10
156.5933201723003
 20
-78.4249999803938
 30
0.0
 10
159.8653426731099
 20
-78.4249999803938
 30
0.0
 10
163.1818069056792
 20
-78.4249999803938
 30
0.0
 10
165.9736907550789
 20
-81.07824026835833
 30
0.0
 10
166.622445298645
 20
-84.20208598257031
 30
0.0
 10
166.622445298645
 20
-84.20208598257031
 30
0.0
 10
166.6222945757175
 20
-84.20219364180423
 30
0.0
 10
166.6222945757175
 20
-84.20219364180423
 30
0.0
 10
166.6222945757175
 20
-84.20219364180423
 30
0.0
 10
167.189917120606
 20
-84.20219364180423
 30
0.0
 10
167.189917120606
 20
-84.20219364180423
 30
0.0
 10
167.189917120606
 20
-84.20219364180423
 30
0.0
 10
167.189917120606
 20
-83.5022794302828
 30
0.0
 10
167.189917120606
 20
-83.5022794302828
 30
0.0
 10
167.189917120606
 20
-83.5022794302828
 30
0.0
 10
169.5895122534696
 20
-83.5022794302828
 30
0.0
 10
169.5895122534696
 20
-83.5022794302828
 30
0.0
 10
169.5895122534696
 20
-83.5022794302828
 30
0.0
 10
169.5895122534696
 20
-86.70268162572914
 30
0.0
 10
169.5895122534696
 20
-86.70268162572914
 30
0.0
 10
169.5895122534696
 20
-86.70268162572914
 30
0.0
 10
167.189917120606
 20
-86.70268162572914
 30
0.0
 10
167.189917120606
 20
-86.70268162572914
 30
0.0
 10
167.189917120606
 20
-86.70268162572914
 30
0.0
 10
167.189917120606
 20
-86.00277279717005
 30
0.0
 10
167.189917120606
 20
-86.00277279717005
 30
0.0
 10
167.189917120606
 20
-86.00277279717005
 30
0.0
 10
166.7231928097418
 20
-86.00277279717005
 30
0.0
 10
166.7231928097418
 20
-86.00277279717005
 30
0.0
 10
166.7231928097418
 20
-86.00277279717005
 30
0.0
 10
166.7686680701471
 20
-86.00262745720235
 30
0.0
 10
166.7686680701471
 20
-86.00262745720235
 30
0.0
  0
ENDBLK
  5
74
330
71
100
AcDbEntity
  8
0
100
AcDbBlockEnd
  0
BLOCK
  5
77
330
75
100
AcDbEntity
  8
0
100
AcDbBlockBegin
  2
block 13
 70
     0
 10
0.0
 20
0.0
 30
0.0
  3
block 13
  1

  0
SPLINE
  5
79
330
75
100
AcDbEntity
  8
Layer 1
370
     0
100
AcDbSpline
210
0.0
220
0.0
230
1.0
 70
    11
 71
     3
 72
    17
 73
    13
 74
     0
 42
0.0000000001
 43
0.0000000001
 12
1.0
 22
0.0
 32
0.0
 13
1.0
 23
0.0
 33
0.0
 40
0.0
 40
0.0
 40
0.0
 40
0.0
 40
1.0
 40
1.0
 40
1.0
 40
2.0
 40
2.0
 40
2.0
 40
3.0
 40
3.0
 40
3.0
 40
4.0
 40
4.0
 40
4.0
 40
4.0
 10
161.3442153931379
 20
-72.43328431641392
 30
0.0
 10
161.3442153931379
 20
-73.2619530684716
 30
0.0
 10
160.65941767537
 20
-73.9825384164382
 30
0.0
 10
159.7944094529701
 20
-73.9825384164382
 30
0.0
 10
158.9654455313316
 20
-73.9825384164382
 30
0.0
 10
158.2446035128016
 20
-73.29798453492181
 30
0.0
 10
158.2446035128016
 20
-72.43327881878382
 30
0.0
 10
158.2446035128016
 20
-71.60460456909668
 30
0.0
 10
158.9294012305695
 20
-70.88401922113007
 30
0.0
 10
159.7944094529701
 20
-70.88401922113007
 30
0.0
 10
160.6594066761942
 20
-70.88403021638965
 30
0.0
 10
161.3442153931379
 20
-71.56858409790604
 30
0.0
 10
161.3442153931379
 20
-72.43328431641392
 30
0.0
  0
ENDBLK
  5
78
330
75
100
AcDbEntity
  8
0
100
AcDbBlockEnd
  0
BLOCK
  5
7C
330
7A
100
AcDbEntity
  8
0
100
AcDbBlockBegin
  2
block 14
 70
     0
 10
0.0
 20
0.0
 30
0.0
  3
block 14
  1

  0
SPLINE
  5
7E
330
7A
100
AcDbEntity
  8
Layer 1
370
     0
100
AcDbSpline
210
0.0
220
0.0
230
1.0
 70
    11
 71
     3
 72
    17
 73
    13
 74
     0
 42
0.0000000001
 43
0.0000000001
 12
1.0
 22
0.0
 32
0.0
 13
1.0
 23
0.0
 33
0.0
 40
0.0
 40
0.0
 40
0.0
 40
0.0
 40
1.0
 40
1.0
 40
1.0
 40
2.0
 40
2.0
 40
2.0
 40
3.0
 40
3.0
 40
3.0
 40
4.0
 40
4.0
 40
4.0
 40
4.0
 10
161.3794801424817
 20
-97.82115115428212
 30
0.0
 10
161.3794801424817
 20
-98.64982284692564
 30
0.0
 10
160.6946824247139
 20
-99.3704107519365
 30
0.0
 10
159.8296742023133
 20
-99.3704107519365
 30
0.0
 10
159.0007102806748
 20
-99.3704107519365
 30
0.0
 10
158.2798682621449
 20
-98.68585444123568
 30
0.0
 10
158.2798682621449
 20
-97.82115115428212
 30
0.0
 10
158.2798682621449
 20
-96.9924794616386
 30
0.0
 10
158.9646659799127
 20
-96.27189155662774
 30
0.0
 10
159.8296742023133
 20
-96.27189155662774
 30
0.0
 10
160.6946824247139
 20
-96.27189155662774
 30
0.0
 10
161.3794801424817
 20
-96.95644786732856
 30
0.0
 10
161.3794801424817
 20
-97.82115115428212
 30
0.0
  0
ENDBLK
  5
7D
330
7A
100
AcDbEntity
  8
0
100
AcDbBlockEnd
  0
BLOCK
  5
82
330
80
100
AcDbEntity
  8
0
100
AcDbBlockBegin
  2
block 15
 70
     0
 10
0.0
 20
0.0
 30
0.0
  3
block 15
  1

  0
INSERT
  5
85
330
80
100
AcDbEntity
  8
Layer 1
100
AcDbBlockReference
  2
block 16
 10
0.0
 20
0.0
 30
0.0
  0
INSERT
  5
8A
330
80
100
AcDbEntity
  8
Layer 1
100
AcDbBlockReference
  2
block 17
 10
0.0
 20
0.0
 30
0.0
  0
INSERT
  5
8F
330
80
100
AcDbEntity
  8
Layer 1
100
AcDbBlockReference
  2
block 18
 10
0.0
 20
0.0
 30
0.0
  0
INSERT
  5
94
330
80
100
AcDbEntity
  8
Layer 1
100
AcDbBlockReference
  2
block 19
 10
0.0
 20
0.0
 30
0.0
  0
ENDBLK
  5
83
330
80
100
AcDbEntity
  8
0
100
AcDbBlockEnd
  0
BLOCK
  5
86
330
84
100
AcDbEntity
  8
0
100
AcDbBlockBegin
  2
block 16
 70
     0
 10
0.0
 20
0.0
 30
0.0
  3
block 16
  1

  0
SPLINE
  5
88
330
84
100
AcDbEntity
  8
Layer 1
370
     0
100
AcDbSpline
210
0.0
220
0.0
230
1.0
 70
    11
 71
     3
 72
    17
 73
    13
 74
     0
 42
0.0000000001
 43
0.0000000001
 12
1.0
 22
0.0
 32
0.0
 13
1.0
 23
0.0
 33
0.0
 40
0.0
 40
0.0
 40
0.0
 40
0.0
 40
1.0
 40
1.0
 40
1.0
 40
2.0
 40
2.0
 40
2.0
 40
3.0
 40
3.0
 40
3.0
 40
4.0
 40
4.0
 40
4.0
 40
4.0
 10
146.3883017158548
 20
-65.13427352565915
 30
0.0
 10
146.3883017158548
 20
-65.96294777534693
 30
0.0
 10
145.703503998087
 20
-66.68353312331354
 30
0.0
 10
144.8384957756871
 20
-66.68353312331354
 30
0.0
 10
144.0095318540486
 20
-66.68353312331354
 30
0.0
 10
143.2886898355186
 20
-65.99897924179714
 30
0.0
 10
143.2886898355186
 20
-65.13427352565915
 30
0.0
 10
143.2886898355186
 20
-64.30559927597137
 30
0.0
 10
143.9734875532871
 20
-63.58501392800477
 30
0.0
 10
144.8384957756871
 20
-63.58501392800477
 30
0.0
 10
145.703503998087
 20
-63.58501392800477
 30
0.0
 10
146.3883017158548
 20
-64.26957330715126
 30
0.0
 10
146.3883017158548
 20
-65.13427352565915
 30
0.0
  0
ENDBLK
  5
87
330
84
100
AcDbEntity
  8
0
100
AcDbBlockEnd
  0
BLOCK
  5
8B
330
89
100
AcDbEntity
  8
0
100
AcDbBlockBegin
  2
block 17
 70
     0
 10
0.0
 20
0.0
 30
0.0
  3
block 17
  1

  0
SPLINE
  5
8D
330
89
100
AcDbEntity
  8
Layer 1
370
     0
100
AcDbSpline
210
0.0
220
0.0
230
1.0
 70
    11
 71
     3
 72
    17
 73
    13
 74
     0
 42
0.0000000001
 43
0.0000000001
 12
1.0
 22
0.0
 32
0.0
 13
1.0
 23
0.0
 33
0.0
 40
0.0
 40
0.0
 40
0.0
 40
0.0
 40
1.0
 40
1.0
 40
1.0
 40
2.0
 40
2.0
 40
2.0
 40
3.0
 40
3.0
 40
3.0
 40
4.0
 40
4.0
 40
4.0
 40
4.0
 10
176.405934083027
 20
-65.13427352565915
 30
0.0
 10
176.405934083027
 20
-65.96294777534693
 30
0.0
 10
175.7211363652592
 20
-66.68353312331354
 30
0.0
 10
174.8561281428586
 20
-66.68353312331354
 30
0.0
 10
174.0271642212201
 20
-66.68353312331354
 30
0.0
 10
173.3063222026902
 20
-65.99897924179714
 30
0.0
 10
173.3063222026902
 20
-65.13427352565915
 30
0.0
 10
173.3063222026902
 20
-64.30559927597137
 30
0.0
 10
173.991119920458
 20
-63.58501392800477
 30
0.0
 10
174.8561281428586
 20
-63.58501392800477
 30
0.0
 10
175.7211363652592
 20
-63.58501392800477
 30
0.0
 10
176.405934083027
 20
-64.26957330715126
 30
0.0
 10
176.405934083027
 20
-65.13427352565915
 30
0.0
  0
ENDBLK
  5
8C
330
89
100
AcDbEntity
  8
0
100
AcDbBlockEnd
  0
BLOCK
  5
90
330
8E
100
AcDbEntity
  8
0
100
AcDbBlockBegin
  2
block 18
 70
     0
 10
0.0
 20
0.0
 30
0.0
  3
block 18
  1

  0
SPLINE
  5
92
330
8E
100
AcDbEntity
  8
Layer 1
370
     0
100
AcDbSpline
210
0.0
220
0.0
230
1.0
 70
    11
 71
     3
 72
    17
 73
    13
 74
     0
 42
0.0000000001
 43
0.0000000001
 12
1.0
 22
0.0
 32
0.0
 13
1.0
 23
0.0
 33
0.0
 40
0.0
 40
0.0
 40
0.0
 40
0.0
 40
1.0
 40
1.0
 40
1.0
 40
2.0
 40
2.0
 40
2.0
 40
3.0
 40
3.0
 40
3.0
 40
4.0
 40
4.0
 40
4.0
 40
4.0
 10
146.3883017158548
 20
-105.1201672081882
 30
0.0
 10
146.3883017158548
 20
-105.9488389008318
 30
0.0
 10
145.703503998087
 20
-106.6694268058426
 30
0.0
 10
144.8384957756871
 20
-106.6694268058426
 30
0.0
 10
144.0095318540486
 20
-106.6694268058426
 30
0.0
 10
143.2886898355186
 20
-105.9848704951418
 30
0.0
 10
143.2886898355186
 20
-105.1201672081882
 30
0.0
 10
143.2886898355186
 20
-104.2914955155447
 30
0.0
 10
143.9734875532871
 20
-103.5709076105339
 30
0.0
 10
144.8384957756871
 20
-103.5709076105339
 30
0.0
 10
145.703503998087
 20
-103.5708966152351
 30
0.0
 10
146.3883017158548
 20
-104.2554639212347
 30
0.0
 10
146.3883017158548
 20
-105.1201672081882
 30
0.0
  0
ENDBLK
  5
91
330
8E
100
AcDbEntity
  8
0
100
AcDbBlockEnd
  0
BLOCK
  5
95
330
93
100
AcDbEntity
  8
0
100
AcDbBlockBegin
  2
block 19
 70
     0
 10
0.0
 20
0.0
 30
0.0
  3
block 19
  1

  0
SPLINE
  5
97
330
93
100
AcDbEntity
  8
Layer 1
370
     0
100
AcDbSpline
210
0.0
220
0.0
230
1.0
 70
    11
 71
     3
 72
    17
 73
    13
 74
     0
 42
0.0000000001
 43
0.0000000001
 12
1.0
 22
0.0
 32
0.0
 13
1.0
 23
0.0
 33
0.0
 40
0.0
 40
0.0
 40
0.0
 40
0.0
 40
1.0
 40
1.0
 40
1.0
 40
2.0
 40
2.0
 40
2.0
 40
3.0
 40
3.0
 40
3.0
 40
4.0
 40
4.0
 40
4.0
 40
4.0
 10
176.405934083027
 20
-105.1201672081882
 30
0.0
 10
176.405934083027
 20
-105.9488389008318
 30
0.0
 10
175.7211363652592
 20
-106.6694268058426
 30
0.0
 10
174.8561281428586
 20
-106.6694268058426
 30
0.0
 10
174.0271642212201
 20
-106.6694268058426
 30
0.0
 10
173.3063222026902
 20
-105.9848704951418
 30
0.0
 10
173.3063222026902
 20
-105.1201672081882
 30
0.0
 10
173.3063222026902
 20
-104.2914955155447
 30
0.0
 10
173.991119920458
 20
-103.5709076105339
 30
0.0
 10
174.8561281428586
 20
-103.5709076105339
 30
0.0
 10
175.7211363652592
 20
-103.5708966152351
 30
0.0
 10
176.405934083027
 20
-104.2554639212347
 30
0.0
 10
176.405934083027
 20
-105.1201672081882
 30
0.0
  0
ENDBLK
  5
96
330
93
100
AcDbEntity
  8
0
100
AcDbBlockEnd
  0
BLOCK
  5
9B
330
99
100
AcDbEntity
  8
0
100
AcDbBlockBegin
  2
block 20
 70
     0
 10
0.0
 20
0.0
 30
0.0
  3
block 20
  1

  0
INSERT
  5
9E
330
99
100
AcDbEntity
  8
Layer 1
100
AcDbBlockReference
  2
block 21
 10
0.0
 20
0.0
 30
0.0
  0
INSERT
  5
A3
330
99
100
AcDbEntity
  8
Layer 1
100
AcDbBlockReference
  2
block 22
 10
0.0
 20
0.0
 30
0.0
  0
SPLINE
  5
A7
330
99
100
AcDbEntity
  8
Layer 1
370
     0
100
AcDbSpline
210
0.0
220
0.0
230
1.0
 70
    11
 71
     3
 72
    32
 73
    28
 74
     0
 42
0.0000000001
 43
0.0000000001
 12
1.0
 22
0.0
 32
0.0
 13
1.0
 23
0.0
 33
0.0
 40
0.0
 40
0.0
 40
0.0
 40
0.0
 40
1.0
 40
1.0
 40
1.0
 40
2.0
 40
2.0
 40
2.0
 40
3.0
 40
3.0
 40
3.0
 40
4.0
 40
4.0
 40
4.0
 40
5.0
 40
5.0
 40
5.0
 40
6.0
 40
6.0
 40
6.0
 40
7.0
 40
7.0
 40
7.0
 40
8.0
 40
8.0
 40
8.0
 40
9.0
 40
9.0
 40
9.0
 40
9.0
 10
134.8649389579071
 20
-105.6490811030861
 30
0.0
 10
134.8649389579071
 20
-108.1173459459435
 30
0.0
 10
132.9601796166152
 20
-110.1272230508687
 30
0.0
 10
130.5968601235287
 20
-110.1272230508687
 30
0.0
 10
130.5968601235287
 20
-110.1272230508687
 30
0.0
 10
99.13302856686067
 20
-110.1272230508687
 30
0.0
 10
99.13302856686067
 20
-110.1272230508687
 30
0.0
 10
96.76970907377354
 20
-110.1272230508687
 30
0.0
 10
94.86494973248236
 20
-108.1173459459435
 30
0.0
 10
94.86494973248236
 20
-105.6490811030861
 30
0.0
 10
94.86494973248236
 20
-105.6490811030861
 30
0.0
 10
94.86494973248236
 20
-64.60535963076131
 30
0.0
 10
94.86494973248236
 20
-64.60535963076131
 30
0.0
 10
94.86494973248236
 20
-62.13709478790323
 30
0.0
 10
96.76970907377354
 20
-60.12722306336849
 30
0.0
 10
99.13302856686067
 20
-60.12722306336849
 30
0.0
 10
99.13302856686067
 20
-60.12722306336849
 30
0.0
 10
130.5968708881039
 20
-60.12722306336849
 30
0.0
 10
130.5968708881039
 20
-60.12722306336849
 30
0.0
 10
132.960190381191
 20
-60.12722306336849
 30
0.0
 10
134.8649497224822
 20
-62.13709478790323
 30
0.0
 10
134.8649497224822
 20
-64.60535963076131
 30
0.0
 10
134.8649497224822
 20
-64.60535963076131
 30
0.0
 10
134.8649497224822
 20
-105.6490811030861
 30
0.0
 10
134.8649497224822
 20
-105.6490811030861
 30
0.0
 10
134.8649497224822
 20
-105.6490811030861
 30
0.0
 10
134.8649389579071
 20
-105.6490811030861
 30
0.0
 10
134.8649389579071
 20
-105.6490811030861
 30
0.0
  0
INSERT
  5
A9
330
99
100
AcDbEntity
  8
Layer 1
100
AcDbBlockReference
  2
block 23
 10
0.0
 20
0.0
 30
0.0
  0
SPLINE
  5
C0
330
99
100
AcDbEntity
  8
Layer 1
370
     0
100
AcDbSpline
210
0.0
220
0.0
230
1.0
 70
    11
 71
     3
 72
    71
 73
    67
 74
     0
 42
0.0000000001
 43
0.0000000001
 12
1.0
 22
0.0
 32
0.0
 13
1.0
 23
0.0
 33
0.0
 40
0.0
 40
0.0
 40
0.0
 40
0.0
 40
1.0
 40
1.0
 40
1.0
 40
2.0
 40
2.0
 40
2.0
 40
3.0
 40
3.0
 40
3.0
 40
4.0
 40
4.0
 40
4.0
 40
5.0
 40
5.0
 40
5.0
 40
6.0
 40
6.0
 40
6.0
 40
7.0
 40
7.0
 40
7.0
 40
8.0
 40
8.0
 40
8.0
 40
9.0
 40
9.0
 40
9.0
 40
10.0
 40
10.0
 40
10.0
 40
11.0
 40
11.0
 40
11.0
 40
12.0
 40
12.0
 40
12.0
 40
13.0
 40
13.0
 40
13.0
 40
14.0
 40
14.0
 40
14.0
 40
15.0
 40
15.0
 40
15.0
 40
16.0
 40
16.0
 40
16.0
 40
17.0
 40
17.0
 40
17.0
 40
18.0
 40
18.0
 40
18.0
 40
19.0
 40
19.0
 40
19.0
 40
20.0
 40
20.0
 40
20.0
 40
21.0
 40
21.0
 40
21.0
 40
22.0
 40
22.0
 40
22.0
 40
22.0
 10
121.7686680813971
 20
-86.00262745720235
 30
0.0
 10
121.3206334135403
 20
-89.3667201348559
 30
0.0
 10
118.3516716561988
 20
-92.17518350627962
 30
0.0
 10
114.8651704295856
 20
-92.17518350627962
 30
0.0
 10
111.3786692029724
 20
-92.17518350627962
 30
0.0
 10
108.4996459696427
 20
-89.36742530283931
 30
0.0
 10
108.0509007508421
 20
-86.00333262518512
 30
0.0
 10
108.0509007508421
 20
-86.00333262518512
 30
0.0
 10
108.0507930916082
 20
-86.00330032741688
 30
0.0
 10
108.0507930916082
 20
-86.00330032741688
 30
0.0
 10
108.0507930916082
 20
-86.00330032741688
 30
0.0
 10
107.5406821094766
 20
-86.00259515943345
 30
0.0
 10
107.5406821094766
 20
-86.00259515943345
 30
0.0
 10
107.5406821094766
 20
-86.00259515943345
 30
0.0
 10
107.5406821094766
 20
-86.70250398799254
 30
0.0
 10
107.5406821094766
 20
-86.70250398799254
 30
0.0
 10
107.5406821094766
 20
-86.70250398799254
 30
0.0
 10
105.1403764256691
 20
-86.70250398799254
 30
0.0
 10
105.1403764256691
 20
-86.70250398799254
 30
0.0
 10
105.1403764256691
 20
-86.70250398799254
 30
0.0
 10
105.1403764256691
 20
-83.50210717550854
 30
0.0
 10
105.1403764256691
 20
-83.50210717550854
 30
0.0
 10
105.1403764256691
 20
-83.50210717550854
 30
0.0
 10
107.5706759720451
 20
-83.50210717550854
 30
0.0
 10
107.5706759720451
 20
-83.50210717550854
 30
0.0
 10
107.5706759720451
 20
-83.50210717550854
 30
0.0
 10
107.5710204815936
 20
-84.20342634003062
 30
0.0
 10
107.5710204815936
 20
-84.20342634003062
 30
0.0
 10
107.5710204815936
 20
-84.20342634003062
 30
0.0
 10
108.2123680698664
 20
-84.20307644751976
 30
0.0
 10
108.2123680698664
 20
-84.20307644751976
 30
0.0
 10
108.2123680698664
 20
-84.20307644751976
 30
0.0
 10
108.2123034743261
 20
-84.20314642602308
 30
0.0
 10
108.2123034743261
 20
-84.20314642602308
 30
0.0
 10
108.9065763419911
 20
-81.14032734855785
 30
0.0
 10
111.5933201835503
 20
-78.4249999803938
 30
0.0
 10
114.8653426843599
 20
-78.4249999803938
 30
0.0
 10
118.1818069169292
 20
-78.4249999803938
 30
0.0
 10
120.9736907663289
 20
-81.07824026835833
 30
0.0
 10
121.622445309895
 20
-84.20208598257031
 30
0.0
 10
121.622445309895
 20
-84.20208598257031
 30
0.0
 10
121.6222945869675
 20
-84.20219364180423
 30
0.0
 10
121.6222945869675
 20
-84.20219364180423
 30
0.0
 10
121.6222945869675
 20
-84.20219364180423
 30
0.0
 10
122.189917131856
 20
-84.20219364180423
 30
0.0
 10
122.189917131856
 20
-84.20219364180423
 30
0.0
 10
122.189917131856
 20
-84.20219364180423
 30
0.0
 10
122.189917131856
 20
-83.5022794302828
 30
0.0
 10
122.189917131856
 20
-83.5022794302828
 30
0.0
 10
122.189917131856
 20
-83.5022794302828
 30
0.0
 10
124.5895122647196
 20
-83.5022794302828
 30
0.0
 10
124.5895122647196
 20
-83.5022794302828
 30
0.0
 10
124.5895122647196
 20
-83.5022794302828
 30
0.0
 10
124.5895122647196
 20
-86.70268162572914
 30
0.0
 10
124.5895122647196
 20
-86.70268162572914
 30
0.0
 10
124.5895122647196
 20
-86.70268162572914
 30
0.0
 10
122.189917131856
 20
-86.70268162572914
 30
0.0
 10
122.189917131856
 20
-86.70268162572914
 30
0.0
 10
122.189917131856
 20
-86.70268162572914
 30
0.0
 10
122.189917131856
 20
-86.00277279717005
 30
0.0
 10
122.189917131856
 20
-86.00277279717005
 30
0.0
 10
122.189917131856
 20
-86.00277279717005
 30
0.0
 10
121.7231928209918
 20
-86.00277279717005
 30
0.0
 10
121.7231928209918
 20
-86.00277279717005
 30
0.0
 10
121.7231928209918
 20
-86.00277279717005
 30
0.0
 10
121.7686680813971
 20
-86.00262745720235
 30
0.0
 10
121.7686680813971
 20
-86.00262745720235
 30
0.0
  0
ENDBLK
  5
9C
330
99
100
AcDbEntity
  8
0
100
AcDbBlockEnd
  0
BLOCK
  5
9F
330
9D
100
AcDbEntity
  8
0
100
AcDbBlockBegin
  2
block 21
 70
     0
 10
0.0
 20
0.0
 30
0.0
  3
block 21
  1

  0
SPLINE
  5
A1
330
9D
100
AcDbEntity
  8
Layer 1
370
     0
100
AcDbSpline
210
0.0
220
0.0
230
1.0
 70
    11
 71
     3
 72
    17
 73
    13
 74
     0
 42
0.0000000001
 43
0.0000000001
 12
1.0
 22
0.0
 32
0.0
 13
1.0
 23
0.0
 33
0.0
 40
0.0
 40
0.0
 40
0.0
 40
0.0
 40
1.0
 40
1.0
 40
1.0
 40
2.0
 40
2.0
 40
2.0
 40
3.0
 40
3.0
 40
3.0
 40
4.0
 40
4.0
 40
4.0
 40
4.0
 10
116.3442154043878
 20
-72.43328431641392
 30
0.0
 10
116.3442154043878
 20
-73.2619530684716
 30
0.0
 10
115.65941768662
 20
-73.9825384164382
 30
0.0
 10
114.79440946422
 20
-73.9825384164382
 30
0.0
 10
113.9654455425815
 20
-73.9825384164382
 30
0.0
 10
113.2446035240516
 20
-73.29798453492181
 30
0.0
 10
113.2446035240516
 20
-72.43327881878382
 30
0.0
 10
113.2446035240516
 20
-71.60460456909668
 30
0.0
 10
113.9294012418194
 20
-70.88401922113007
 30
0.0
 10
114.79440946422
 20
-70.88401922113007
 30
0.0
 10
115.6594066874441
 20
-70.88403021638965
 30
0.0
 10
116.3442154043878
 20
-71.56858409790604
 30
0.0
 10
116.3442154043878
 20
-72.43328431641392
 30
0.0
  0
ENDBLK
  5
A0
330
9D
100
AcDbEntity
  8
0
100
AcDbBlockEnd
  0
BLOCK
  5
A4
330
A2
100
AcDbEntity
  8
0
100
AcDbBlockBegin
  2
block 22
 70
     0
 10
0.0
 20
0.0
 30
0.0
  3
block 22
  1

  0
SPLINE
  5
A6
330
A2
100
AcDbEntity
  8
Layer 1
370
     0
100
AcDbSpline
210
0.0
220
0.0
230
1.0
 70
    11
 71
     3
 72
    17
 73
    13
 74
     0
 42
0.0000000001
 43
0.0000000001
 12
1.0
 22
0.0
 32
0.0
 13
1.0
 23
0.0
 33
0.0
 40
0.0
 40
0.0
 40
0.0
 40
0.0
 40
1.0
 40
1.0
 40
1.0
 40
2.0
 40
2.0
 40
2.0
 40
3.0
 40
3.0
 40
3.0
 40
4.0
 40
4.0
 40
4.0
 40
4.0
 10
116.3794801537317
 20
-97.82115115428212
 30
0.0
 10
116.3794801537317
 20
-98.64982284692564
 30
0.0
 10
115.6946824359639
 20
-99.3704107519365
 30
0.0
 10
114.8296742135633
 20
-99.3704107519365
 30
0.0
 10
114.0007102919248
 20
-99.3704107519365
 30
0.0
 10
113.2798682733948
 20
-98.68585444123568
 30
0.0
 10
113.2798682733948
 20
-97.82115115428212
 30
0.0
 10
113.2798682733948
 20
-96.9924794616386
 30
0.0
 10
113.9646659911626
 20
-96.27189155662774
 30
0.0
 10
114.8296742135633
 20
-96.27189155662774
 30
0.0
 10
115.6946824359639
 20
-96.27189155662774
 30
0.0
 10
116.3794801537317
 20
-96.95644786732856
 30
0.0
 10
116.3794801537317
 20
-97.82115115428212
 30
0.0
  0
ENDBLK
  5
A5
330
A2
100
AcDbEntity
  8
0
100
AcDbBlockEnd
  0
BLOCK
  5
AA
330
A8
100
AcDbEntity
  8
0
100
AcDbBlockBegin
  2
block 23
 70
     0
 10
0.0
 20
0.0
 30
0.0
  3
block 23
  1

  0
INSERT
  5
AD
330
A8
100
AcDbEntity
  8
Layer 1
100
AcDbBlockReference
  2
block 24
 10
0.0
 20
0.0
 30
0.0
  0
INSERT
  5
B2
330
A8
100
AcDbEntity
  8
Layer 1
100
AcDbBlockReference
  2
block 25
 10
0.0
 20
0.0
 30
0.0
  0
INSERT
  5
B7
330
A8
100
AcDbEntity
  8
Layer 1
100
AcDbBlockReference
  2
block 26
 10
0.0
 20
0.0
 30
0.0
  0
INSERT
  5
BC
330
A8
100
AcDbEntity
  8
Layer 1
100
AcDbBlockReference
  2
block 27
 10
0.0
 20
0.0
 30
0.0
  0
ENDBLK
  5
AB
330
A8
100
AcDbEntity
  8
0
100
AcDbBlockEnd
  0
BLOCK
  5
AE
330
AC
100
AcDbEntity
  8
0
100
AcDbBlockBegin
  2
block 24
 70
     0
 10
0.0
 20
0.0
 30
0.0
  3
block 24
  1

  0
SPLINE
  5
B0
330
AC
100
AcDbEntity
  8
Layer 1
370
     0
100
AcDbSpline
210
0.0
220
0.0
230
1.0
 70
    11
 71
     3
 72
    17
 73
    13
 74
     0
 42
0.0000000001
 43
0.0000000001
 12
1.0
 22
0.0
 32
0.0
 13
1.0
 23
0.0
 33
0.0
 40
0.0
 40
0.0
 40
0.0
 40
0.0
 40
1.0
 40
1.0
 40
1.0
 40
2.0
 40
2.0
 40
2.0
 40
3.0
 40
3.0
 40
3.0
 40
4.0
 40
4.0
 40
4.0
 40
4.0
 10
101.3883017271048
 20
-65.13427352565915
 30
0.0
 10
101.3883017271048
 20
-65.96294777534693
 30
0.0
 10
100.703504009337
 20
-66.68353312331354
 30
0.0
 10
99.83849578693702
 20
-66.68353312331354
 30
0.0
 10
99.00953186529851
 20
-66.68353312331354
 30
0.0
 10
98.28868984676859
 20
-65.99897924179714
 30
0.0
 10
98.28868984676859
 20
-65.13427352565915
 30
0.0
 10
98.28868984676859
 20
-64.30559927597137
 30
0.0
 10
98.97348756453704
 20
-63.58501392800477
 30
0.0
 10
99.83849578693702
 20
-63.58501392800477
 30
0.0
 10
100.703504009337
 20
-63.58501392800477
 30
0.0
 10
101.3883017271048
 20
-64.26957330715126
 30
0.0
 10
101.3883017271048
 20
-65.13427352565915
 30
0.0
  0
ENDBLK
  5
AF
330
AC
100
AcDbEntity
  8
0
100
AcDbBlockEnd
  0
BLOCK
  5
B3
330
B1
100
AcDbEntity
  8
0
100
AcDbBlockBegin
  2
block 25
 70
     0
 10
0.0
 20
0.0
 30
0.0
  3
block 25
  1

  0
SPLINE
  5
B5
330
B1
100
AcDbEntity
  8
Layer 1
370
     0
100
AcDbSpline
210
0.0
220
0.0
230
1.0
 70
    11
 71
     3
 72
    17
 73
    13
 74
     0
 42
0.0000000001
 43
0.0000000001
 12
1.0
 22
0.0
 32
0.0
 13
1.0
 23
0.0
 33
0.0
 40
0.0
 40
0.0
 40
0.0
 40
0.0
 40
1.0
 40
1.0
 40
1.0
 40
2.0
 40
2.0
 40
2.0
 40
3.0
 40
3.0
 40
3.0
 40
4.0
 40
4.0
 40
4.0
 40
4.0
 10
131.405934094277
 20
-65.13427352565915
 30
0.0
 10
131.405934094277
 20
-65.96294777534693
 30
0.0
 10
130.7211363765092
 20
-66.68353312331354
 30
0.0
 10
129.8561281541085
 20
-66.68353312331354
 30
0.0
 10
129.0271642324701
 20
-66.68353312331354
 30
0.0
 10
128.3063222139401
 20
-65.99897924179714
 30
0.0
 10
128.3063222139401
 20
-65.13427352565915
 30
0.0
 10
128.3063222139401
 20
-64.30559927597137
 30
0.0
 10
128.9911199317079
 20
-63.58501392800477
 30
0.0
 10
129.8561281541085
 20
-63.58501392800477
 30
0.0
 10
130.7211363765092
 20
-63.58501392800477
 30
0.0
 10
131.405934094277
 20
-64.26957330715126
 30
0.0
 10
131.405934094277
 20
-65.13427352565915
 30
0.0
  0
ENDBLK
  5
B4
330
B1
100
AcDbEntity
  8
0
100
AcDbBlockEnd
  0
BLOCK
  5
B8
330
B6
100
AcDbEntity
  8
0
100
AcDbBlockBegin
  2
block 26
 70
     0
 10
0.0
 20
0.0
 30
0.0
  3
block 26
  1

  0
SPLINE
  5
BA
330
B6
100
AcDbEntity
  8
Layer 1
370
     0
100
AcDbSpline
210
0.0
220
0.0
230
1.0
 70
    11
 71
     3
 72
    17
 73
    13
 74
     0
 42
0.0000000001
 43
0.0000000001
 12
1.0
 22
0.0
 32
0.0
 13
1.0
 23
0.0
 33
0.0
 40
0.0
 40
0.0
 40
0.0
 40
0.0
 40
1.0
 40
1.0
 40
1.0
 40
2.0
 40
2.0
 40
2.0
 40
3.0
 40
3.0
 40
3.0
 40
4.0
 40
4.0
 40
4.0
 40
4.0
 10
101.3883017271048
 20
-105.1201672081882
 30
0.0
 10
101.3883017271048
 20
-105.9488389008318
 30
0.0
 10
100.703504009337
 20
-106.6694268058426
 30
0.0
 10
99.83849578693702
 20
-106.6694268058426
 30
0.0
 10
99.00953186529851
 20
-106.6694268058426
 30
0.0
 10
98.28868984676859
 20
-105.9848704951418
 30
0.0
 10
98.28868984676859
 20
-105.1201672081882
 30
0.0
 10
98.28868984676859
 20
-104.2914955155447
 30
0.0
 10
98.97348756453704
 20
-103.5709076105339
 30
0.0
 10
99.83849578693702
 20
-103.5709076105339
 30
0.0
 10
100.703504009337
 20
-103.5708966152351
 30
0.0
 10
101.3883017271048
 20
-104.2554639212347
 30
0.0
 10
101.3883017271048
 20
-105.1201672081882
 30
0.0
  0
ENDBLK
  5
B9
330
B6
100
AcDbEntity
  8
0
100
AcDbBlockEnd
  0
BLOCK
  5
BD
330
BB
100
AcDbEntity
  8
0
100
AcDbBlockBegin
  2
block 27
 70
     0
 10
0.0
 20
0.0
 30
0.0
  3
block 27
  1

  0
SPLINE
  5
BF
330
BB
100
AcDbEntity
  8
Layer 1
370
     0
100
AcDbSpline
210
0.0
220
0.0
230
1.0
 70
    11
 71
     3
 72
    17
 73
    13
 74
     0
 42
0.0000000001
 43
0.0000000001
 12
1.0
 22
0.0
 32
0.0
 13
1.0
 23
0.0
 33
0.0
 40
0.0
 40
0.0
 40
0.0
 40
0.0
 40
1.0
 40
1.0
 40
1.0
 40
2.0
 40
2.0
 40
2.0
 40
3.0
 40
3.0
 40
3.0
 40
4.0
 40
4.0
 40
4.0
 40
4.0
 10
131.405934094277
 20
-105.1201672081882
 30
0.0
 10
131.405934094277
 20
-105.9488389008318
 30
0.0
 10
130.7211363765092
 20
-106.6694268058426
 30
0.0
 10
129.8561281541085
 20
-106.6694268058426
 30
0.0
 10
129.0271642324701
 20
-106.6694268058426
 30
0.0
 10
128.3063222139401
 20
-105.9848704951418
 30
0.0
 10
128.3063222139401
 20
-105.1201672081882
 30
0.0
 10
128.3063222139401
 20
-104.2914955155447
 30
0.0
 10
128.9911199317079
 20
-103.5709076105339
 30
0.0
 10
129.8561281541085
 20
-103.5709076105339
 30
0.0
 10
130.7211363765092
 20
-103.5708966152351
 30
0.0
 10
131.405934094277
 20
-104.2554639212347
 30
0.0
 10
131.405934094277
 20
-105.1201672081882
 30
0.0
  0
ENDBLK
  5
BE
330
BB
100
AcDbEntity
  8
0
100
AcDbBlockEnd
  0
BLOCK
  5
C3
330
C1
100
AcDbEntity
  8
0
100
AcDbBlockBegin
  2
block 28
 70
     0
 10
0.0
 20
0.0
 30
0.0
  3
block 28
  1

  0
INSERT
  5
C6
330
C1
100
AcDbEntity
  8
Layer 1
100
AcDbBlockReference
  2
block 29
 10
0.0
 20
0.0
 30
0.0
  0
INSERT
  5
CB
330
C1
100
AcDbEntity
  8
Layer 1
100
AcDbBlockReference
  2
block 30
 10
0.0
 20
0.0
 30
0.0
  0
SPLINE
  5
CF
330
C1
100
AcDbEntity
  8
Layer 1
370
     0
100
AcDbSpline
210
0.0
220
0.0
230
1.0
 70
    11
 71
     3
 72
    32
 73
    28
 74
     0
 42
0.0000000001
 43
0.0000000001
 12
1.0
 22
0.0
 32
0.0
 13
1.0
 23
0.0
 33
0.0
 40
0.0
 40
0.0
 40
0.0
 40
0.0
 40
1.0
 40
1.0
 40
1.0
 40
2.0
 40
2.0
 40
2.0
 40
3.0
 40
3.0
 40
3.0
 40
4.0
 40
4.0
 40
4.0
 40
5.0
 40
5.0
 40
5.0
 40
6.0
 40
6.0
 40
6.0
 40
7.0
 40
7.0
 40
7.0
 40
8.0
 40
8.0
 40
8.0
 40
9.0
 40
9.0
 40
9.0
 40
9.0
 10
89.86493896915702
 20
-105.6490811030861
 30
0.0
 10
89.86493896915702
 20
-108.1173459459435
 30
0.0
 10
87.96017962786519
 20
-110.1272230508687
 30
0.0
 10
85.5968601347787
 20
-110.1272230508687
 30
0.0
 10
85.5968601347787
 20
-110.1272230508687
 30
0.0
 10
54.13302857811064
 20
-110.1272230508687
 30
0.0
 10
54.13302857811064
 20
-110.1272230508687
 30
0.0
 10
51.76970908502351
 20
-110.1272230508687
 30
0.0
 10
49.86494974373232
 20
-108.1173459459435
 30
0.0
 10
49.86494974373232
 20
-105.6490811030861
 30
0.0
 10
49.86494974373232
 20
-105.6490811030861
 30
0.0
 10
49.86494974373232
 20
-64.60535963076131
 30
0.0
 10
49.86494974373232
 20
-64.60535963076131
 30
0.0
 10
49.86494974373232
 20
-62.13709478790323
 30
0.0
 10
51.76970908502351
 20
-60.12722306336849
 30
0.0
 10
54.13302857811064
 20
-60.12722306336849
 30
0.0
 10
54.13302857811064
 20
-60.12722306336849
 30
0.0
 10
85.59687089935387
 20
-60.12722306336849
 30
0.0
 10
85.59687089935387
 20
-60.12722306336849
 30
0.0
 10
87.96019039244102
 20
-60.12722306336849
 30
0.0
 10
89.8649497337322
 20
-62.13709478790323
 30
0.0
 10
89.8649497337322
 20
-64.60535963076131
 30
0.0
 10
89.8649497337322
 20
-64.60535963076131
 30
0.0
 10
89.8649497337322
 20
-105.6490811030861
 30
0.0
 10
89.8649497337322
 20
-105.6490811030861
 30
0.0
 10
89.8649497337322
 20
-105.6490811030861
 30
0.0
 10
89.86493896915702
 20
-105.6490811030861
 30
0.0
 10
89.86493896915702
 20
-105.6490811030861
 30
0.0
  0
INSERT
  5
D1
330
C1
100
AcDbEntity
  8
Layer 1
100
AcDbBlockReference
  2
block 31
 10
0.0
 20
0.0
 30
0.0
  0
SPLINE
  5
E8
330
C1
100
AcDbEntity
  8
Layer 1
370
     0
100
AcDbSpline
210
0.0
220
0.0
230
1.0
 70
    11
 71
     3
 72
    71
 73
    67
 74
     0
 42
0.0000000001
 43
0.0000000001
 12
1.0
 22
0.0
 32
0.0
 13
1.0
 23
0.0
 33
0.0
 40
0.0
 40
0.0
 40
0.0
 40
0.0
 40
1.0
 40
1.0
 40
1.0
 40
2.0
 40
2.0
 40
2.0
 40
3.0
 40
3.0
 40
3.0
 40
4.0
 40
4.0
 40
4.0
 40
5.0
 40
5.0
 40
5.0
 40
6.0
 40
6.0
 40
6.0
 40
7.0
 40
7.0
 40
7.0
 40
8.0
 40
8.0
 40
8.0
 40
9.0
 40
9.0
 40
9.0
 40
10.0
 40
10.0
 40
10.0
 40
11.0
 40
11.0
 40
11.0
 40
12.0
 40
12.0
 40
12.0
 40
13.0
 40
13.0
 40
13.0
 40
14.0
 40
14.0
 40
14.0
 40
15.0
 40
15.0
 40
15.0
 40
16.0
 40
16.0
 40
16.0
 40
17.0
 40
17.0
 40
17.0
 40
18.0
 40
18.0
 40
18.0
 40
19.0
 40
19.0
 40
19.0
 40
20.0
 40
20.0
 40
20.0
 40
21.0
 40
21.0
 40
21.0
 40
22.0
 40
22.0
 40
22.0
 40
22.0
 10
76.76866809264702
 20
-86.00262745720235
 30
0.0
 10
76.32063342479027
 20
-89.3667201348559
 30
0.0
 10
73.35167166744876
 20
-92.17518350627962
 30
0.0
 10
69.86517044083557
 20
-92.17518350627962
 30
0.0
 10
66.37866921422238
 20
-92.17518350627962
 30
0.0
 10
63.49964598089266
 20
-89.36742530283931
 30
0.0
 10
63.05090076209208
 20
-86.00333262518512
 30
0.0
 10
63.05090076209208
 20
-86.00333262518512
 30
0.0
 10
63.05079310285817
 20
-86.00330032741688
 30
0.0
 10
63.05079310285817
 20
-86.00330032741688
 30
0.0
 10
63.05079310285817
 20
-86.00330032741688
 30
0.0
 10
62.54068212072659
 20
-86.00259515943345
 30
0.0
 10
62.54068212072659
 20
-86.00259515943345
 30
0.0
 10
62.54068212072659
 20
-86.00259515943345
 30
0.0
 10
62.54068212072659
 20
-86.70250398799254
 30
0.0
 10
62.54068212072659
 20
-86.70250398799254
 30
0.0
 10
62.54068212072659
 20
-86.70250398799254
 30
0.0
 10
60.14037643691911
 20
-86.70250398799254
 30
0.0
 10
60.14037643691911
 20
-86.70250398799254
 30
0.0
 10
60.14037643691911
 20
-86.70250398799254
 30
0.0
 10
60.14037643691911
 20
-83.50210717550854
 30
0.0
 10
60.14037643691911
 20
-83.50210717550854
 30
0.0
 10
60.14037643691911
 20
-83.50210717550854
 30
0.0
 10
62.57067598329504
 20
-83.50210717550854
 30
0.0
 10
62.57067598329504
 20
-83.50210717550854
 30
0.0
 10
62.57067598329504
 20
-83.50210717550854
 30
0.0
 10
62.57102049284357
 20
-84.20342634003062
 30
0.0
 10
62.57102049284357
 20
-84.20342634003062
 30
0.0
 10
62.57102049284357
 20
-84.20342634003062
 30
0.0
 10
63.21236808111639
 20
-84.20307644751976
 30
0.0
 10
63.21236808111639
 20
-84.20307644751976
 30
0.0
 10
63.21236808111639
 20
-84.20307644751976
 30
0.0
 10
63.21230348557604
 20
-84.20314642602308
 30
0.0
 10
63.21230348557604
 20
-84.20314642602308
 30
0.0
 10
63.90657635324101
 20
-81.14032734855785
 30
0.0
 10
66.59332019480023
 20
-78.4249999803938
 30
0.0
 10
69.86534269560983
 20
-78.4249999803938
 30
0.0
 10
73.18180692817916
 20
-78.4249999803938
 30
0.0
 10
75.97369077757884
 20
-81.07824026835833
 30
0.0
 10
76.62244532114495
 20
-84.20208598257031
 30
0.0
 10
76.62244532114495
 20
-84.20208598257031
 30
0.0
 10
76.62229459821747
 20
-84.20219364180423
 30
0.0
 10
76.62229459821747
 20
-84.20219364180423
 30
0.0
 10
76.62229459821747
 20
-84.20219364180423
 30
0.0
 10
77.18991714310594
 20
-84.20219364180423
 30
0.0
 10
77.18991714310594
 20
-84.20219364180423
 30
0.0
 10
77.18991714310594
 20
-84.20219364180423
 30
0.0
 10
77.18991714310594
 20
-83.5022794302828
 30
0.0
 10
77.18991714310594
 20
-83.5022794302828
 30
0.0
 10
77.18991714310594
 20
-83.5022794302828
 30
0.0
 10
79.58951227596958
 20
-83.5022794302828
 30
0.0
 10
79.58951227596958
 20
-83.5022794302828
 30
0.0
 10
79.58951227596958
 20
-83.5022794302828
 30
0.0
 10
79.58951227596958
 20
-86.70268162572914
 30
0.0
 10
79.58951227596958
 20
-86.70268162572914
 30
0.0
 10
79.58951227596958
 20
-86.70268162572914
 30
0.0
 10
77.18991714310594
 20
-86.70268162572914
 30
0.0
 10
77.18991714310594
 20
-86.70268162572914
 30
0.0
 10
77.18991714310594
 20
-86.70268162572914
 30
0.0
 10
77.18991714310594
 20
-86.00277279717005
 30
0.0
 10
77.18991714310594
 20
-86.00277279717005
 30
0.0
 10
77.18991714310594
 20
-86.00277279717005
 30
0.0
 10
76.72319283224172
 20
-86.00277279717005
 30
0.0
 10
76.72319283224172
 20
-86.00277279717005
 30
0.0
 10
76.72319283224172
 20
-86.00277279717005
 30
0.0
 10
76.76866809264702
 20
-86.00262745720235
 30
0.0
 10
76.76866809264702
 20
-86.00262745720235
 30
0.0
  0
ENDBLK
  5
C4
330
C1
100
AcDbEntity
  8
0
100
AcDbBlockEnd
  0
BLOCK
  5
C7
330
C5
100
AcDbEntity
  8
0
100
AcDbBlockBegin
  2
block 29
 70
     0
 10
0.0
 20
0.0
 30
0.0
  3
block 29
  1

  0
SPLINE
  5
C9
330
C5
100
AcDbEntity
  8
Layer 1
370
     0
100
AcDbSpline
210
0.0
220
0.0
230
1.0
 70
    11
 71
     3
 72
    17
 73
    13
 74
     0
 42
0.0000000001
 43
0.0000000001
 12
1.0
 22
0.0
 32
0.0
 13
1.0
 23
0.0
 33
0.0
 40
0.0
 40
0.0
 40
0.0
 40
0.0
 40
1.0
 40
1.0
 40
1.0
 40
2.0
 40
2.0
 40
2.0
 40
3.0
 40
3.0
 40
3.0
 40
4.0
 40
4.0
 40
4.0
 40
4.0
 10
71.34421541563778
 20
-72.43328431641392
 30
0.0
 10
71.34421541563778
 20
-73.2619530684716
 30
0.0
 10
70.65941769786997
 20
-73.9825384164382
 30
0.0
 10
69.79440947546999
 20
-73.9825384164382
 30
0.0
 10
68.9654455538315
 20
-73.9825384164382
 30
0.0
 10
68.24460353530156
 20
-73.29798453492181
 30
0.0
 10
68.24460353530156
 20
-72.43327881878382
 30
0.0
 10
68.24460353530156
 20
-71.60460456909668
 30
0.0
 10
68.92940125306939
 20
-70.88401922113007
 30
0.0
 10
69.79440947546999
 20
-70.88401922113007
 30
0.0
 10
70.65940669869411
 20
-70.88403021638965
 30
0.0
 10
71.34421541563778
 20
-71.56858409790604
 30
0.0
 10
71.34421541563778
 20
-72.43328431641392
 30
0.0
  0
ENDBLK
  5
C8
330
C5
100
AcDbEntity
  8
0
100
AcDbBlockEnd
  0
BLOCK
  5
CC
330
CA
100
AcDbEntity
  8
0
100
AcDbBlockBegin
  2
block 30
 70
     0
 10
0.0
 20
0.0
 30
0.0
  3
block 30
  1

  0
SPLINE
  5
CE
330
CA
100
AcDbEntity
  8
Layer 1
370
     0
100
AcDbSpline
210
0.0
220
0.0
230
1.0
 70
    11
 71
     3
 72
    17
 73
    13
 74
     0
 42
0.0000000001
 43
0.0000000001
 12
1.0
 22
0.0
 32
0.0
 13
1.0
 23
0.0
 33
0.0
 40
0.0
 40
0.0
 40
0.0
 40
0.0
 40
1.0
 40
1.0
 40
1.0
 40
2.0
 40
2.0
 40
2.0
 40
3.0
 40
3.0
 40
3.0
 40
4.0
 40
4.0
 40
4.0
 40
4.0
 10
71.37948016498164
 20
-97.82115115428212
 30
0.0
 10
71.37948016498164
 20
-98.64982284692564
 30
0.0
 10
70.69468244721382
 20
-99.3704107519365
 30
0.0
 10
69.82967422481322
 20
-99.3704107519365
 30
0.0
 10
69.00071030317471
 20
-99.3704107519365
 30
0.0
 10
68.27986828464479
 20
-98.68585444123568
 30
0.0
 10
68.27986828464479
 20
-97.82115115428212
 30
0.0
 10
68.27986828464479
 20
-96.9924794616386
 30
0.0
 10
68.9646660024126
 20
-96.27189155662774
 30
0.0
 10
69.82967422481322
 20
-96.27189155662774
 30
0.0
 10
70.69468244721382
 20
-96.27189155662774
 30
0.0
 10
71.37948016498164
 20
-96.95644786732856
 30
0.0
 10
71.37948016498164
 20
-97.82115115428212
 30
0.0
  0
ENDBLK
  5
CD
330
CA
100
AcDbEntity
  8
0
100
AcDbBlockEnd
  0
BLOCK
  5
D2
330
D0
100
AcDbEntity
  8
0
100
AcDbBlockBegin
  2
block 31
 70
     0
 10
0.0
 20
0.0
 30
0.0
  3
block 31
  1

  0
INSERT
  5
D5
330
D0
100
AcDbEntity
  8
Layer 1
100
AcDbBlockReference
  2
block 32
 10
0.0
 20
0.0
 30
0.0
  0
INSERT
  5
DA
330
D0
100
AcDbEntity
  8
Layer 1
100
AcDbBlockReference
  2
block 33
 10
0.0
 20
0.0
 30
0.0
  0
INSERT
  5
DF
330
D0
100
AcDbEntity
  8
Layer 1
100
AcDbBlockReference
  2
block 34
 10
0.0
 20
0.0
 30
0.0
  0
INSERT
  5
E4
330
D0
100
AcDbEntity
  8
Layer 1
100
AcDbBlockReference
  2
block 35
 10
0.0
 20
0.0
 30
0.0
  0
ENDBLK
  5
D3
330
D0
100
AcDbEntity
  8
0
100
AcDbBlockEnd
  0
BLOCK
  5
D6
330
D4
100
AcDbEntity
  8
0
100
AcDbBlockBegin
  2
block 32
 70
     0
 10
0.0
 20
0.0
 30
0.0
  3
block 32
  1

  0
SPLINE
  5
D8
330
D4
100
AcDbEntity
  8
Layer 1
370
     0
100
AcDbSpline
210
0.0
220
0.0
230
1.0
 70
    11
 71
     3
 72
    17
 73
    13
 74
     0
 42
0.0000000001
 43
0.0000000001
 12
1.0
 22
0.0
 32
0.0
 13
1.0
 23
0.0
 33
0.0
 40
0.0
 40
0.0
 40
0.0
 40
0.0
 40
1.0
 40
1.0
 40
1.0
 40
2.0
 40
2.0
 40
2.0
 40
3.0
 40
3.0
 40
3.0
 40
4.0
 40
4.0
 40
4.0
 40
4.0
 10
56.38830173835476
 20
-65.13427352565915
 30
0.0
 10
56.38830173835476
 20
-65.96294777534693
 30
0.0
 10
55.70350402058695
 20
-66.68353312331354
 30
0.0
 10
54.83849579818698
 20
-66.68353312331354
 30
0.0
 10
54.00953187654848
 20
-66.68353312331354
 30
0.0
 10
53.28868985801855
 20
-65.99897924179714
 30
0.0
 10
53.28868985801855
 20
-65.13427352565915
 30
0.0
 10
53.28868985801855
 20
-64.30559927597137
 30
0.0
 10
53.973487575787
 20
-63.58501392800477
 30
0.0
 10
54.83849579818698
 20
-63.58501392800477
 30
0.0
 10
55.70350402058695
 20
-63.58501392800477
 30
0.0
 10
56.38830173835476
 20
-64.26957330715126
 30
0.0
 10
56.38830173835476
 20
-65.13427352565915
 30
0.0
  0
ENDBLK
  5
D7
330
D4
100
AcDbEntity
  8
0
100
AcDbBlockEnd
  0
BLOCK
  5
DB
330
D9
100
AcDbEntity
  8
0
100
AcDbBlockBegin
  2
block 33
 70
     0
 10
0.0
 20
0.0
 30
0.0
  3
block 33
  1

  0
SPLINE
  5
DD
330
D9
100
AcDbEntity
  8
Layer 1
370
     0
100
AcDbSpline
210
0.0
220
0.0
230
1.0
 70
    11
 71
     3
 72
    17
 73
    13
 74
     0
 42
0.0000000001
 43
0.0000000001
 12
1.0
 22
0.0
 32
0.0
 13
1.0
 23
0.0
 33
0.0
 40
0.0
 40
0.0
 40
0.0
 40
0.0
 40
1.0
 40
1.0
 40
1.0
 40
2.0
 40
2.0
 40
2.0
 40
3.0
 40
3.0
 40
3.0
 40
4.0
 40
4.0
 40
4.0
 40
4.0
 10
86.40593410552692
 20
-65.13427352565915
 30
0.0
 10
86.40593410552692
 20
-65.96294777534693
 30
0.0
 10
85.72113638775912
 20
-66.68353312331354
 30
0.0
 10
84.8561281653585
 20
-66.68353312331354
 30
0.0
 10
84.02716424372001
 20
-66.68353312331354
 30
0.0
 10
83.30632222519007
 20
-65.99897924179714
 30
0.0
 10
83.30632222519007
 20
-65.13427352565915
 30
0.0
 10
83.30632222519007
 20
-64.30559927597137
 30
0.0
 10
83.9911199429579
 20
-63.58501392800477
 30
0.0
 10
84.8561281653585
 20
-63.58501392800477
 30
0.0
 10
85.72113638775912
 20
-63.58501392800477
 30
0.0
 10
86.40593410552692
 20
-64.26957330715126
 30
0.0
 10
86.40593410552692
 20
-65.13427352565915
 30
0.0
  0
ENDBLK
  5
DC
330
D9
100
AcDbEntity
  8
0
100
AcDbBlockEnd
  0
BLOCK
  5
E0
330
DE
100
AcDbEntity
  8
0
100
AcDbBlockBegin
  2
block 34
 70
     0
 10
0.0
 20
0.0
 30
0.0
  3
block 34
  1

  0
SPLINE
  5
E2
330
DE
100
AcDbEntity
  8
Layer 1
370
     0
100
AcDbSpline
210
0.0
220
0.0
230
1.0
 70
    11
 71
     3
 72
    17
 73
    13
 74
     0
 42
0.0000000001
 43
0.0000000001
 12
1.0
 22
0.0
 32
0.0
 13
1.0
 23
0.0
 33
0.0
 40
0.0
 40
0.0
 40
0.0
 40
0.0
 40
1.0
 40
1.0
 40
1.0
 40
2.0
 40
2.0
 40
2.0
 40
3.0
 40
3.0
 40
3.0
 40
4.0
 40
4.0
 40
4.0
 40
4.0
 10
56.38830173835476
 20
-105.1201672081882
 30
0.0
 10
56.38830173835476
 20
-105.9488389008318
 30
0.0
 10
55.70350402058695
 20
-106.6694268058426
 30
0.0
 10
54.83849579818698
 20
-106.6694268058426
 30
0.0
 10
54.00953187654848
 20
-106.6694268058426
 30
0.0
 10
53.28868985801855
 20
-105.9848704951418
 30
0.0
 10
53.28868985801855
 20
-105.1201672081882
 30
0.0
 10
53.28868985801855
 20
-104.2914955155447
 30
0.0
 10
53.973487575787
 20
-103.5709076105339
 30
0.0
 10
54.83849579818698
 20
-103.5709076105339
 30
0.0
 10
55.70350402058695
 20
-103.5708966152351
 30
0.0
 10
56.38830173835476
 20
-104.2554639212347
 30
0.0
 10
56.38830173835476
 20
-105.1201672081882
 30
0.0
  0
ENDBLK
  5
E1
330
DE
100
AcDbEntity
  8
0
100
AcDbBlockEnd
  0
BLOCK
  5
E5
330
E3
100
AcDbEntity
  8
0
100
AcDbBlockBegin
  2
block 35
 70
     0
 10
0.0
 20
0.0
 30
0.0
  3
block 35
  1

  0
SPLINE
  5
E7
330
E3
100
AcDbEntity
  8
Layer 1
370
     0
100
AcDbSpline
210
0.0
220
0.0
230
1.0
 70
    11
 71
     3
 72
    17
 73
    13
 74
     0
 42
0.0000000001
 43
0.0000000001
 12
1.0
 22
0.0
 32
0.0
 13
1.0
 23
0.0
 33
0.0
 40
0.0
 40
0.0
 40
0.0
 40
0.0
 40
1.0
 40
1.0
 40
1.0
 40
2.0
 40
2.0
 40
2.0
 40
3.0
 40
3.0
 40
3.0
 40
4.0
 40
4.0
 40
4.0
 40
4.0
 10
86.40593410552692
 20
-105.1201672081882
 30
0.0
 10
86.40593410552692
 20
-105.9488389008318
 30
0.0
 10
85.72113638775912
 20
-106.6694268058426
 30
0.0
 10
84.8561281653585
 20
-106.6694268058426
 30
0.0
 10
84.02716424372001
 20
-106.6694268058426
 30
0.0
 10
83.30632222519007
 20
-105.9848704951418
 30
0.0
 10
83.30632222519007
 20
-105.1201672081882
 30
0.0
 10
83.30632222519007
 20
-104.2914955155447
 30
0.0
 10
83.9911199429579
 20
-103.5709076105339
 30
0.0
 10
84.8561281653585
 20
-103.5709076105339
 30
0.0
 10
85.72113638775912
 20
-103.5708966152351
 30
0.0
 10
86.40593410552692
 20
-104.2554639212347
 30
0.0
 10
86.40593410552692
 20
-105.1201672081882
 30
0.0
  0
ENDBLK
  5
E6
330
E3
100
AcDbEntity
  8
0
100
AcDbBlockEnd
  0
BLOCK
  5
EB
330
E9
100
AcDbEntity
  8
0
100
AcDbBlockBegin
  2
block 36
 70
     0
 10
0.0
 20
0.0
 30
0.0
  3
block 36
  1

  0
INSERT
  5
EE
330
E9
100
AcDbEntity
  8
Layer 1
100
AcDbBlockReference
  2
block 37
 10
0.0
 20
0.0
 30
0.0
  0
INSERT
  5
F3
330
E9
100
AcDbEntity
  8
Layer 1
100
AcDbBlockReference
  2
block 38
 10
0.0
 20
0.0
 30
0.0
  0
SPLINE
  5
F7
330
E9
100
AcDbEntity
  8
Layer 1
370
     0
100
AcDbSpline
210
0.0
220
0.0
230
1.0
 70
    11
 71
     3
 72
    32
 73
    28
 74
     0
 42
0.0000000001
 43
0.0000000001
 12
1.0
 22
0.0
 32
0.0
 13
1.0
 23
0.0
 33
0.0
 40
0.0
 40
0.0
 40
0.0
 40
0.0
 40
1.0
 40
1.0
 40
1.0
 40
2.0
 40
2.0
 40
2.0
 40
3.0
 40
3.0
 40
3.0
 40
4.0
 40
4.0
 40
4.0
 40
5.0
 40
5.0
 40
5.0
 40
6.0
 40
6.0
 40
6.0
 40
7.0
 40
7.0
 40
7.0
 40
8.0
 40
8.0
 40
8.0
 40
9.0
 40
9.0
 40
9.0
 40
9.0
 10
44.86493898040699
 20
-105.6490811030861
 30
0.0
 10
44.86493898040699
 20
-108.1173459459435
 30
0.0
 10
42.96017963911515
 20
-110.1272230508687
 30
0.0
 10
40.59686014602866
 20
-110.1272230508687
 30
0.0
 10
40.59686014602866
 20
-110.1272230508687
 30
0.0
 10
9.133028589360602
 20
-110.1272230508687
 30
0.0
 10
9.133028589360602
 20
-110.1272230508687
 30
0.0
 10
6.769709096273468
 20
-110.1272230508687
 30
0.0
 10
4.864949754982278
 20
-108.1173459459435
 30
0.0
 10
4.864949754982278
 20
-105.6490811030861
 30
0.0
 10
4.864949754982278
 20
-105.6490811030861
 30
0.0
 10
4.864949754982278
 20
-64.60535963076131
 30
0.0
 10
4.864949754982278
 20
-64.60535963076131
 30
0.0
 10
4.864949754982278
 20
-62.13709478790323
 30
0.0
 10
6.769709096273468
 20
-60.12722306336849
 30
0.0
 10
9.133028589360602
 20
-60.12722306336849
 30
0.0
 10
9.133028589360602
 20
-60.12722306336849
 30
0.0
 10
40.59687091060384
 20
-60.12722306336849
 30
0.0
 10
40.59687091060384
 20
-60.12722306336849
 30
0.0
 10
42.96019040369098
 20
-60.12722306336849
 30
0.0
 10
44.86494974498217
 20
-62.13709478790323
 30
0.0
 10
44.86494974498217
 20
-64.60535963076131
 30
0.0
 10
44.86494974498217
 20
-64.60535963076131
 30
0.0
 10
44.86494974498217
 20
-105.6490811030861
 30
0.0
 10
44.86494974498217
 20
-105.6490811030861
 30
0.0
 10
44.86494974498217
 20
-105.6490811030861
 30
0.0
 10
44.86493898040699
 20
-105.6490811030861
 30
0.0
 10
44.86493898040699
 20
-105.6490811030861
 30
0.0
  0
INSERT
  5
F9
330
E9
100
AcDbEntity
  8
Layer 1
100
AcDbBlockReference
  2
block 39
 10
0.0
 20
0.0
 30
0.0
  0
SPLINE
  5
110
330
E9
100
AcDbEntity
  8
Layer 1
370
     0
100
AcDbSpline
210
0.0
220
0.0
230
1.0
 70
    11
 71
     3
 72
    71
 73
    67
 74
     0
 42
0.0000000001
 43
0.0000000001
 12
1.0
 22
0.0
 32
0.0
 13
1.0
 23
0.0
 33
0.0
 40
0.0
 40
0.0
 40
0.0
 40
0.0
 40
1.0
 40
1.0
 40
1.0
 40
2.0
 40
2.0
 40
2.0
 40
3.0
 40
3.0
 40
3.0
 40
4.0
 40
4.0
 40
4.0
 40
5.0
 40
5.0
 40
5.0
 40
6.0
 40
6.0
 40
6.0
 40
7.0
 40
7.0
 40
7.0
 40
8.0
 40
8.0
 40
8.0
 40
9.0
 40
9.0
 40
9.0
 40
10.0
 40
10.0
 40
10.0
 40
11.0
 40
11.0
 40
11.0
 40
12.0
 40
12.0
 40
12.0
 40
13.0
 40
13.0
 40
13.0
 40
14.0
 40
14.0
 40
14.0
 40
15.0
 40
15.0
 40
15.0
 40
16.0
 40
16.0
 40
16.0
 40
17.0
 40
17.0
 40
17.0
 40
18.0
 40
18.0
 40
18.0
 40
19.0
 40
19.0
 40
19.0
 40
20.0
 40
20.0
 40
20.0
 40
21.0
 40
21.0
 40
21.0
 40
22.0
 40
22.0
 40
22.0
 40
22.0
 10
31.76866810389698
 20
-86.00262745720235
 30
0.0
 10
31.32063343604024
 20
-89.3667201348559
 30
0.0
 10
28.35167167869871
 20
-92.17518350627962
 30
0.0
 10
24.86517045208553
 20
-92.17518350627962
 30
0.0
 10
21.37866922547235
 20
-92.17518350627962
 30
0.0
 10
18.49964599214263
 20
-89.36742530283931
 30
0.0
 10
18.05090077334205
 20
-86.00333262518512
 30
0.0
 10
18.05090077334205
 20
-86.00333262518512
 30
0.0
 10
18.05079311410814
 20
-86.00330032741688
 30
0.0
 10
18.05079311410814
 20
-86.00330032741688
 30
0.0
 10
18.05079311410814
 20
-86.00330032741688
 30
0.0
 10
17.54068213197655
 20
-86.00259515943345
 30
0.0
 10
17.54068213197655
 20
-86.00259515943345
 30
0.0
 10
17.54068213197655
 20
-86.00259515943345
 30
0.0
 10
17.54068213197655
 20
-86.70250398799254
 30
0.0
 10
17.54068213197655
 20
-86.70250398799254
 30
0.0
 10
17.54068213197655
 20
-86.70250398799254
 30
0.0
 10
15.14037644816907
 20
-86.70250398799254
 30
0.0
 10
15.14037644816907
 20
-86.70250398799254
 30
0.0
 10
15.14037644816907
 20
-86.70250398799254
 30
0.0
 10
15.14037644816907
 20
-83.50210717550854
 30
0.0
 10
15.14037644816907
 20
-83.50210717550854
 30
0.0
 10
15.14037644816907
 20
-83.50210717550854
 30
0.0
 10
17.57067599454501
 20
-83.50210717550854
 30
0.0
 10
17.57067599454501
 20
-83.50210717550854
 30
0.0
 10
17.57067599454501
 20
-83.50210717550854
 30
0.0
 10
17.57102050409353
 20
-84.20342634003062
 30
0.0
 10
17.57102050409353
 20
-84.20342634003062
 30
0.0
 10
17.57102050409353
 20
-84.20342634003062
 30
0.0
 10
18.21236809236635
 20
-84.20307644751976
 30
0.0
 10
18.21236809236635
 20
-84.20307644751976
 30
0.0
 10
18.21236809236635
 20
-84.20307644751976
 30
0.0
 10
18.212303496826
 20
-84.20314642602308
 30
0.0
 10
18.212303496826
 20
-84.20314642602308
 30
0.0
 10
18.90657636449098
 20
-81.14032734855785
 30
0.0
 10
21.59332020605019
 20
-78.4249999803938
 30
0.0
 10
24.86534270685979
 20
-78.4249999803938
 30
0.0
 10
28.18180693942912
 20
-78.4249999803938
 30
0.0
 10
30.9736907888288
 20
-81.07824026835833
 30
0.0
 10
31.62244533239491
 20
-84.20208598257031
 30
0.0
 10
31.62244533239491
 20
-84.20208598257031
 30
0.0
 10
31.62229460946743
 20
-84.20219364180423
 30
0.0
 10
31.62229460946743
 20
-84.20219364180423
 30
0.0
 10
31.62229460946743
 20
-84.20219364180423
 30
0.0
 10
32.1899171543559
 20
-84.20219364180423
 30
0.0
 10
32.1899171543559
 20
-84.20219364180423
 30
0.0
 10
32.1899171543559
 20
-84.20219364180423
 30
0.0
 10
32.1899171543559
 20
-83.5022794302828
 30
0.0
 10
32.1899171543559
 20
-83.5022794302828
 30
0.0
 10
32.1899171543559
 20
-83.5022794302828
 30
0.0
 10
34.58951228721955
 20
-83.5022794302828
 30
0.0
 10
34.58951228721955
 20
-83.5022794302828
 30
0.0
 10
34.58951228721955
 20
-83.5022794302828
 30
0.0
 10
34.58951228721955
 20
-86.70268162572914
 30
0.0
 10
34.58951228721955
 20
-86.70268162572914
 30
0.0
 10
34.58951228721955
 20
-86.70268162572914
 30
0.0
 10
32.1899171543559
 20
-86.70268162572914
 30
0.0
 10
32.1899171543559
 20
-86.70268162572914
 30
0.0
 10
32.1899171543559
 20
-86.70268162572914
 30
0.0
 10
32.1899171543559
 20
-86.00277279717005
 30
0.0
 10
32.1899171543559
 20
-86.00277279717005
 30
0.0
 10
32.1899171543559
 20
-86.00277279717005
 30
0.0
 10
31.72319284349168
 20
-86.00277279717005
 30
0.0
 10
31.72319284349168
 20
-86.00277279717005
 30
0.0
 10
31.72319284349168
 20
-86.00277279717005
 30
0.0
 10
31.76866810389698
 20
-86.00262745720235
 30
0.0
 10
31.76866810389698
 20
-86.00262745720235
 30
0.0
  0
ENDBLK
  5
EC
330
E9
100
AcDbEntity
  8
0
100
AcDbBlockEnd
  0
BLOCK
  5
EF
330
ED
100
AcDbEntity
  8
0
100
AcDbBlockBegin
  2
block 37
 70
     0
 10
0.0
 20
0.0
 30
0.0
  3
block 37
  1

  0
SPLINE
  5
F1
330
ED
100
AcDbEntity
  8
Layer 1
370
     0
100
AcDbSpline
210
0.0
220
0.0
230
1.0
 70
    11
 71
     3
 72
    17
 73
    13
 74
     0
 42
0.0000000001
 43
0.0000000001
 12
1.0
 22
0.0
 32
0.0
 13
1.0
 23
0.0
 33
0.0
 40
0.0
 40
0.0
 40
0.0
 40
0.0
 40
1.0
 40
1.0
 40
1.0
 40
2.0
 40
2.0
 40
2.0
 40
3.0
 40
3.0
 40
3.0
 40
4.0
 40
4.0
 40
4.0
 40
4.0
 10
26.34421542688774
 20
-72.43328431641392
 30
0.0
 10
26.34421542688774
 20
-73.2619530684716
 30
0.0
 10
25.65941770911993
 20
-73.9825384164382
 30
0.0
 10
24.79440948671996
 20
-73.9825384164382
 30
0.0
 10
23.96544556508146
 20
-73.9825384164382
 30
0.0
 10
23.24460354655153
 20
-73.29798453492181
 30
0.0
 10
23.24460354655153
 20
-72.43327881878382
 30
0.0
 10
23.24460354655153
 20
-71.60460456909668
 30
0.0
 10
23.92940126431934
 20
-70.88401922113007
 30
0.0
 10
24.79440948671996
 20
-70.88401922113007
 30
0.0
 10
25.65940670994407
 20
-70.88403021638965
 30
0.0
 10
26.34421542688774
 20
-71.56858409790604
 30
0.0
 10
26.34421542688774
 20
-72.43328431641392
 30
0.0
  0
ENDBLK
  5
F0
330
ED
100
AcDbEntity
  8
0
100
AcDbBlockEnd
  0
BLOCK
  5
F4
330
F2
100
AcDbEntity
  8
0
100
AcDbBlockBegin
  2
block 38
 70
     0
 10
0.0
 20
0.0
 30
0.0
  3
block 38
  1

  0
SPLINE
  5
F6
330
F2
100
AcDbEntity
  8
Layer 1
370
     0
100
AcDbSpline
210
0.0
220
0.0
230
1.0
 70
    11
 71
     3
 72
    17
 73
    13
 74
     0
 42
0.0000000001
 43
0.0000000001
 12
1.0
 22
0.0
 32
0.0
 13
1.0
 23
0.0
 33
0.0
 40
0.0
 40
0.0
 40
0.0
 40
0.0
 40
1.0
 40
1.0
 40
1.0
 40
2.0
 40
2.0
 40
2.0
 40
3.0
 40
3.0
 40
3.0
 40
4.0
 40
4.0
 40
4.0
 40
4.0
 10
26.3794801762316
 20
-97.82115115428212
 30
0.0
 10
26.3794801762316
 20
-98.64982284692564
 30
0.0
 10
25.69468245846379
 20
-99.3704107519365
 30
0.0
 10
24.82967423606318
 20
-99.3704107519365
 30
0.0
 10
24.00071031442468
 20
-99.3704107519365
 30
0.0
 10
23.27986829589475
 20
-98.68585444123568
 30
0.0
 10
23.27986829589475
 20
-97.82115115428212
 30
0.0
 10
23.27986829589475
 20
-96.9924794616386
 30
0.0
 10
23.96466601366257
 20
-96.27189155662774
 30
0.0
 10
24.82967423606318
 20
-96.27189155662774
 30
0.0
 10
25.69468245846379
 20
-96.27189155662774
 30
0.0
 10
26.3794801762316
 20
-96.95644786732856
 30
0.0
 10
26.3794801762316
 20
-97.82115115428212
 30
0.0
  0
ENDBLK
  5
F5
330
F2
100
AcDbEntity
  8
0
100
AcDbBlockEnd
  0
BLOCK
  5
FA
330
F8
100
AcDbEntity
  8
0
100
AcDbBlockBegin
  2
block 39
 70
     0
 10
0.0
 20
0.0
 30
0.0
  3
block 39
  1

  0
INSERT
  5
FD
330
F8
100
AcDbEntity
  8
Layer 1
100
AcDbBlockReference
  2
block 40
 10
0.0
 20
0.0
 30
0.0
  0
INSERT
  5
102
330
F8
100
AcDbEntity
  8
Layer 1
100
AcDbBlockReference
  2
block 41
 10
0.0
 20
0.0
 30
0.0
  0
INSERT
  5
107
330
F8
100
AcDbEntity
  8
Layer 1
100
AcDbBlockReference
  2
block 42
 10
0.0
 20
0.0
 30
0.0
  0
INSERT
  5
10C
330
F8
100
AcDbEntity
  8
Layer 1
100
AcDbBlockReference
  2
block 43
 10
0.0
 20
0.0
 30
0.0
  0
ENDBLK
  5
FB
330
F8
100
AcDbEntity
  8
0
100
AcDbBlockEnd
  0
BLOCK
  5
FE
330
FC
100
AcDbEntity
  8
0
100
AcDbBlockBegin
  2
block 40
 70
     0
 10
0.0
 20
0.0
 30
0.0
  3
block 40
  1

  0
SPLINE
  5
100
330
FC
100
AcDbEntity
  8
Layer 1
370
     0
100
AcDbSpline
210
0.0
220
0.0
230
1.0
 70
    11
 71
     3
 72
    17
 73
    13
 74
     0
 42
0.0000000001
 43
0.0000000001
 12
1.0
 22
0.0
 32
0.0
 13
1.0
 23
0.0
 33
0.0
 40
0.0
 40
0.0
 40
0.0
 40
0.0
 40
1.0
 40
1.0
 40
1.0
 40
2.0
 40
2.0
 40
2.0
 40
3.0
 40
3.0
 40
3.0
 40
4.0
 40
4.0
 40
4.0
 40
4.0
 10
11.38830174960472
 20
-65.13427352565915
 30
0.0
 10
11.38830174960472
 20
-65.96294777534693
 30
0.0
 10
10.70350403183691
 20
-66.68353312331354
 30
0.0
 10
9.838495809436935
 20
-66.68353312331354
 30
0.0
 10
9.00953188779844
 20
-66.68353312331354
 30
0.0
 10
8.288689869268511
 20
-65.99897924179714
 30
0.0
 10
8.288689869268511
 20
-65.13427352565915
 30
0.0
 10
8.288689869268511
 20
-64.30559927597137
 30
0.0
 10
8.973487587036963
 20
-63.58501392800477
 30
0.0
 10
9.838495809436935
 20
-63.58501392800477
 30
0.0
 10
10.70350403183691
 20
-63.58501392800477
 30
0.0
 10
11.38830174960472
 20
-64.26957330715126
 30
0.0
 10
11.38830174960472
 20
-65.13427352565915
 30
0.0
  0
ENDBLK
  5
FF
330
FC
100
AcDbEntity
  8
0
100
AcDbBlockEnd
  0
BLOCK
  5
103
330
101
100
AcDbEntity
  8
0
100
AcDbBlockBegin
  2
block 41
 70
     0
 10
0.0
 20
0.0
 30
0.0
  3
block 41
  1

  0
SPLINE
  5
105
330
101
100
AcDbEntity
  8
Layer 1
370
     0
100
AcDbSpline
210
0.0
220
0.0
230
1.0
 70
    11
 71
     3
 72
    17
 73
    13
 74
     0
 42
0.0000000001
 43
0.0000000001
 12
1.0
 22
0.0
 32
0.0
 13
1.0
 23
0.0
 33
0.0
 40
0.0
 40
0.0
 40
0.0
 40
0.0
 40
1.0
 40
1.0
 40
1.0
 40
2.0
 40
2.0
 40
2.0
 40
3.0
 40
3.0
 40
3.0
 40
4.0
 40
4.0
 40
4.0
 40
4.0
 10
41.40593411677689
 20
-65.13427352565915
 30
0.0
 10
41.40593411677689
 20
-65.96294777534693
 30
0.0
 10
40.72113639900908
 20
-66.68353312331354
 30
0.0
 10
39.85612817660846
 20
-66.68353312331354
 30
0.0
 10
39.02716425496997
 20
-66.68353312331354
 30
0.0
 10
38.30632223644004
 20
-65.99897924179714
 30
0.0
 10
38.30632223644004
 20
-65.13427352565915
 30
0.0
 10
38.30632223644004
 20
-64.30559927597137
 30
0.0
 10
38.99111995420785
 20
-63.58501392800477
 30
0.0
 10
39.85612817660846
 20
-63.58501392800477
 30
0.0
 10
40.72113639900908
 20
-63.58501392800477
 30
0.0
 10
41.40593411677689
 20
-64.26957330715126
 30
0.0
 10
41.40593411677689
 20
-65.13427352565915
 30
0.0
  0
ENDBLK
  5
104
330
101
100
AcDbEntity
  8
0
100
AcDbBlockEnd
  0
BLOCK
  5
108
330
106
100
AcDbEntity
  8
0
100
AcDbBlockBegin
  2
block 42
 70
     0
 10
0.0
 20
0.0
 30
0.0
  3
block 42
  1

  0
SPLINE
  5
10A
330
106
100
AcDbEntity
  8
Layer 1
370
     0
100
AcDbSpline
210
0.0
220
0.0
230
1.0
 70
    11
 71
     3
 72
    17
 73
    13
 74
     0
 42
0.0000000001
 43
0.0000000001
 12
1.0
 22
0.0
 32
0.0
 13
1.0
 23
0.0
 33
0.0
 40
0.0
 40
0.0
 40
0.0
 40
0.0
 40
1.0
 40
1.0
 40
1.0
 40
2.0
 40
2.0
 40
2.0
 40
3.0
 40
3.0
 40
3.0
 40
4.0
 40
4.0
 40
4.0
 40
4.0
 10
11.38830174960472
 20
-105.1201672081882
 30
0.0
 10
11.38830174960472
 20
-105.9488389008318
 30
0.0
 10
10.70350403183691
 20
-106.6694268058426
 30
0.0
 10
9.838495809436935
 20
-106.6694268058426
 30
0.0
 10
9.00953188779844
 20
-106.6694268058426
 30
0.0
 10
8.288689869268511
 20
-105.9848704951418
 30
0.0
 10
8.288689869268511
 20
-105.1201672081882
 30
0.0
 10
8.288689869268511
 20
-104.2914955155447
 30
0.0
 10
8.973487587036963
 20
-103.5709076105339
 30
0.0
 10
9.838495809436935
 20
-103.5709076105339
 30
0.0
 10
10.70350403183691
 20
-103.5708966152351
 30
0.0
 10
11.38830174960472
 20
-104.2554639212347
 30
0.0
 10
11.38830174960472
 20
-105.1201672081882
 30
0.0
  0
ENDBLK
  5
109
330
106
100
AcDbEntity
  8
0
100
AcDbBlockEnd
  0
BLOCK
  5
10D
330
10B
100
AcDbEntity
  8
0
100
AcDbBlockBegin
  2
block 43
 70
     0
 10
0.0
 20
0.0
 30
0.0
  3
block 43
  1

  0
SPLINE
  5
10F
330
10B
100
AcDbEntity
  8
Layer 1
370
     0
100
AcDbSpline
210
0.0
220
0.0
230
1.0
 70
    11
 71
     3
 72
    17
 73
    13
 74
     0
 42
0.0000000001
 43
0.0000000001
 12
1.0
 22
0.0
 32
0.0
 13
1.0
 23
0.0
 33
0.0
 40
0.0
 40
0.0
 40
0.0
 40
0.0
 40
1.0
 40
1.0
 40
1.0
 40
2.0
 40
2.0
 40
2.0
 40
3.0
 40
3.0
 40
3.0
 40
4.0
 40
4.0
 40
4.0
 40
4.0
 10
41.40593411677689
 20
-105.1201672081882
 30
0.0
 10
41.40593411677689
 20
-105.9488389008318
 30
0.0
 10
40.72113639900908
 20
-106.6694268058426
 30
0.0
 10
39.85612817660846
 20
-106.6694268058426
 30
0.0
 10
39.02716425496997
 20
-106.6694268058426
 30
0.0
 10
38.30632223644004
 20
-105.9848704951418
 30
0.0
 10
38.30632223644004
 20
-105.1201672081882
 30
0.0
 10
38.30632223644004
 20
-104.2914955155447
 30
0.0
 10
38.99111995420785
 20
-103.5709076105339
 30
0.0
 10
39.85612817660846
 20
-103.5709076105339
 30
0.0
 10
40.72113639900908
 20
-103.5708966152351
 30
0.0
 10
41.40593411677689
 20
-104.2554639212347
 30
0.0
 10
41.40593411677689
 20
-105.1201672081882
 30
0.0
  0
ENDBLK
  5
10E
330
10B
100
AcDbEntity
  8
0
100
AcDbBlockEnd
  0
BLOCK
  5
113
330
111
100
AcDbEntity
  8
0
100
AcDbBlockBegin
  2
block 44
 70
     0
 10
0.0
 20
0.0
 30
0.0
  3
block 44
  1

  0
INSERT
  5
116
330
111
100
AcDbEntity
  8
Layer 1
100
AcDbBlockReference
  2
block 45
 10
0.0
 20
0.0
 30
0.0
  0
INSERT
  5
13E
330
111
100
AcDbEntity
  8
Layer 1
100
AcDbBlockReference
  2
block 53
 10
0.0
 20
0.0
 30
0.0
  0
INSERT
  5
166
330
111
100
AcDbEntity
  8
Layer 1
100
AcDbBlockReference
  2
block 61
 10
0.0
 20
0.0
 30
0.0
  0
INSERT
  5
18E
330
111
100
AcDbEntity
  8
Layer 1
100
AcDbBlockReference
  2
block 69
 10
0.0
 20
0.0
 30
0.0
  0
INSERT
  5
1B6
330
111
100
AcDbEntity
  8
Layer 1
100
AcDbBlockReference
  2
block 77
 10
0.0
 20
0.0
 30
0.0
  0
ENDBLK
  5
114
330
111
100
AcDbEntity
  8
0
100
AcDbBlockEnd
  0
BLOCK
  5
117
330
115
100
AcDbEntity
  8
0
100
AcDbBlockBegin
  2
block 45
 70
     0
 10
0.0
 20
0.0
 30
0.0
  3
block 45
  1

  0
INSERT
  5
11A
330
115
100
AcDbEntity
  8
Layer 1
100
AcDbBlockReference
  2
block 46
 10
0.0
 20
0.0
 30
0.0
  0
INSERT
  5
11F
330
115
100
AcDbEntity
  8
Layer 1
100
AcDbBlockReference
  2
block 47
 10
0.0
 20
0.0
 30
0.0
  0
SPLINE
  5
123
330
115
100
AcDbEntity
  8
Layer 1
370
     0
100
AcDbSpline
210
0.0
220
0.0
230
1.0
 70
    11
 71
     3
 72
    32
 73
    28
 74
     0
 42
0.0000000001
 43
0.0000000001
 12
1.0
 22
0.0
 32
0.0
 13
1.0
 23
0.0
 33
0.0
 40
0.0
 40
0.0
 40
0.0
 40
0.0
 40
1.0
 40
1.0
 40
1.0
 40
2.0
 40
2.0
 40
2.0
 40
3.0
 40
3.0
 40
3.0
 40
4.0
 40
4.0
 40
4.0
 40
5.0
 40
5.0
 40
5.0
 40
6.0
 40
6.0
 40
6.0
 40
7.0
 40
7.0
 40
7.0
 40
8.0
 40
8.0
 40
8.0
 40
9.0
 40
9.0
 40
9.0
 40
9.0
 10
224.8649389354071
 20
-50.64908111683639
 30
0.0
 10
224.8649389354071
 20
-53.11734595969384
 30
0.0
 10
222.9601795941153
 20
-55.12722306461898
 30
0.0
 10
220.5968601010288
 20
-55.12722306461898
 30
0.0
 10
220.5968601010288
 20
-55.12722306461898
 30
0.0
 10
189.1330285443607
 20
-55.12722306461898
 30
0.0
 10
189.1330285443607
 20
-55.12722306461898
 30
0.0
 10
186.7697090512736
 20
-55.12722306461898
 30
0.0
 10
184.8649497099824
 20
-53.11734595969384
 30
0.0
 10
184.8649497099824
 20
-50.64908111683639
 30
0.0
 10
184.8649497099824
 20
-50.64908111683639
 30
0.0
 10
184.8649497099824
 20
-9.605359644511303
 30
0.0
 10
184.8649497099824
 20
-9.605359644511303
 30
0.0
 10
184.8649497099824
 20
-7.137094801653538
 30
0.0
 10
186.7697090512736
 20
-5.127223077118799
 30
0.0
 10
189.1330285443607
 20
-5.127223077118799
 30
0.0
 10
189.1330285443607
 20
-5.127223077118799
 30
0.0
 10
220.596870865604
 20
-5.127223077118799
 30
0.0
 10
220.596870865604
 20
-5.127223077118799
 30
0.0
 10
222.9601903586911
 20
-5.127223077118799
 30
0.0
 10
224.8649496999823
 20
-7.137094801653538
 30
0.0
 10
224.8649496999823
 20
-9.605359644511303
 30
0.0
 10
224.8649496999823
 20
-9.605359644511303
 30
0.0
 10
224.8649496999823
 20
-50.64908111683639
 30
0.0
 10
224.8649496999823
 20
-50.64908111683639
 30
0.0
 10
224.8649496999823
 20
-50.64908111683639
 30
0.0
 10
224.8649389354071
 20
-50.64908111683639
 30
0.0
 10
224.8649389354071
 20
-50.64908111683639
 30
0.0
  0
INSERT
  5
125
330
115
100
AcDbEntity
  8
Layer 1
100
AcDbBlockReference
  2
block 48
 10
0.0
 20
0.0
 30
0.0
  0
SPLINE
  5
13C
330
115
100
AcDbEntity
  8
Layer 1
370
     0
100
AcDbSpline
210
0.0
220
0.0
230
1.0
 70
    11
 71
     3
 72
    71
 73
    67
 74
     0
 42
0.0000000001
 43
0.0000000001
 12
1.0
 22
0.0
 32
0.0
 13
1.0
 23
0.0
 33
0.0
 40
0.0
 40
0.0
 40
0.0
 40
0.0
 40
1.0
 40
1.0
 40
1.0
 40
2.0
 40
2.0
 40
2.0
 40
3.0
 40
3.0
 40
3.0
 40
4.0
 40
4.0
 40
4.0
 40
5.0
 40
5.0
 40
5.0
 40
6.0
 40
6.0
 40
6.0
 40
7.0
 40
7.0
 40
7.0
 40
8.0
 40
8.0
 40
8.0
 40
9.0
 40
9.0
 40
9.0
 40
10.0
 40
10.0
 40
10.0
 40
11.0
 40
11.0
 40
11.0
 40
12.0
 40
12.0
 40
12.0
 40
13.0
 40
13.0
 40
13.0
 40
14.0
 40
14.0
 40
14.0
 40
15.0
 40
15.0
 40
15.0
 40
16.0
 40
16.0
 40
16.0
 40
17.0
 40
17.0
 40
17.0
 40
18.0
 40
18.0
 40
18.0
 40
19.0
 40
19.0
 40
19.0
 40
20.0
 40
20.0
 40
20.0
 40
21.0
 40
21.0
 40
21.0
 40
22.0
 40
22.0
 40
22.0
 40
22.0
 10
211.7686680588971
 20
-31.00262747095266
 30
0.0
 10
211.3206333910404
 20
-34.3667201486062
 30
0.0
 10
208.3516716336989
 20
-37.17518352002993
 30
0.0
 10
204.8651704070857
 20
-37.17518352002993
 30
0.0
 10
201.3786691804725
 20
-37.17518352002993
 30
0.0
 10
198.4996459471428
 20
-34.36742531658962
 30
0.0
 10
198.0509007283422
 20
-31.00333263893544
 30
0.0
 10
198.0509007283422
 20
-31.00333263893544
 30
0.0
 10
198.0507930691083
 20
-31.00330034116719
 30
0.0
 10
198.0507930691083
 20
-31.00330034116719
 30
0.0
 10
198.0507930691083
 20
-31.00330034116719
 30
0.0
 10
197.5406820869767
 20
-31.00259517318377
 30
0.0
 10
197.5406820869767
 20
-31.00259517318377
 30
0.0
 10
197.5406820869767
 20
-31.00259517318377
 30
0.0
 10
197.5406820869767
 20
-31.70250400174286
 30
0.0
 10
197.5406820869767
 20
-31.70250400174286
 30
0.0
 10
197.5406820869767
 20
-31.70250400174286
 30
0.0
 10
195.1403764031692
 20
-31.70250400174286
 30
0.0
 10
195.1403764031692
 20
-31.70250400174286
 30
0.0
 10
195.1403764031692
 20
-31.70250400174286
 30
0.0
 10
195.1403764031692
 20
-28.50210718925885
 30
0.0
 10
195.1403764031692
 20
-28.50210718925885
 30
0.0
 10
195.1403764031692
 20
-28.50210718925885
 30
0.0
 10
197.5706759495451
 20
-28.50210718925885
 30
0.0
 10
197.5706759495451
 20
-28.50210718925885
 30
0.0
 10
197.5706759495451
 20
-28.50210718925885
 30
0.0
 10
197.5710204590937
 20
-29.20342635378093
 30
0.0
 10
197.5710204590937
 20
-29.20342635378093
 30
0.0
 10
197.5710204590937
 20
-29.20342635378093
 30
0.0
 10
198.2123680473665
 20
-29.20307646127007
 30
0.0
 10
198.2123680473665
 20
-29.20307646127007
 30
0.0
 10
198.2123680473665
 20
-29.20307646127007
 30
0.0
 10
198.2123034518262
 20
-29.20314643977339
 30
0.0
 10
198.2123034518262
 20
-29.20314643977339
 30
0.0
 10
198.9065763194911
 20
-26.14032736230816
 30
0.0
 10
201.5933201610503
 20
-23.4249999941438
 30
0.0
 10
204.86534266186
 20
-23.4249999941438
 30
0.0
 10
208.1818068944293
 20
-23.4249999941438
 30
0.0
 10
210.9736907438289
 20
-26.07824028210864
 30
0.0
 10
211.6224452873951
 20
-29.20208599632063
 30
0.0
 10
211.6224452873951
 20
-29.20208599632063
 30
0.0
 10
211.6222945644676
 20
-29.20219365555454
 30
0.0
 10
211.6222945644676
 20
-29.20219365555454
 30
0.0
 10
211.6222945644676
 20
-29.20219365555454
 30
0.0
 10
212.1899171093561
 20
-29.20219365555454
 30
0.0
 10
212.1899171093561
 20
-29.20219365555454
 30
0.0
 10
212.1899171093561
 20
-29.20219365555454
 30
0.0
 10
212.1899171093561
 20
-28.50227944403311
 30
0.0
 10
212.1899171093561
 20
-28.50227944403311
 30
0.0
 10
212.1899171093561
 20
-28.50227944403311
 30
0.0
 10
214.5895122422197
 20
-28.50227944403311
 30
0.0
 10
214.5895122422197
 20
-28.50227944403311
 30
0.0
 10
214.5895122422197
 20
-28.50227944403311
 30
0.0
 10
214.5895122422197
 20
-31.70268163947946
 30
0.0
 10
214.5895122422197
 20
-31.70268163947946
 30
0.0
 10
214.5895122422197
 20
-31.70268163947946
 30
0.0
 10
212.1899171093561
 20
-31.70268163947946
 30
0.0
 10
212.1899171093561
 20
-31.70268163947946
 30
0.0
 10
212.1899171093561
 20
-31.70268163947946
 30
0.0
 10
212.1899171093561
 20
-31.00277281092037
 30
0.0
 10
212.1899171093561
 20
-31.00277281092037
 30
0.0
 10
212.1899171093561
 20
-31.00277281092037
 30
0.0
 10
211.7231927984918
 20
-31.00277281092037
 30
0.0
 10
211.7231927984918
 20
-31.00277281092037
 30
0.0
 10
211.7231927984918
 20
-31.00277281092037
 30
0.0
 10
211.7686680588971
 20
-31.00262747095266
 30
0.0
 10
211.7686680588971
 20
-31.00262747095266
 30
0.0
  0
ENDBLK
  5
118
330
115
100
AcDbEntity
  8
0
100
AcDbBlockEnd
  0
BLOCK
  5
11B
330
119
100
AcDbEntity
  8
0
100
AcDbBlockBegin
  2
block 46
 70
     0
 10
0.0
 20
0.0
 30
0.0
  3
block 46
  1

  0
SPLINE
  5
11D
330
119
100
AcDbEntity
  8
Layer 1
370
     0
100
AcDbSpline
210
0.0
220
0.0
230
1.0
 70
    11
 71
     3
 72
    17
 73
    13
 74
     0
 42
0.0000000001
 43
0.0000000001
 12
1.0
 22
0.0
 32
0.0
 13
1.0
 23
0.0
 33
0.0
 40
0.0
 40
0.0
 40
0.0
 40
0.0
 40
1.0
 40
1.0
 40
1.0
 40
2.0
 40
2.0
 40
2.0
 40
3.0
 40
3.0
 40
3.0
 40
4.0
 40
4.0
 40
4.0
 40
4.0
 10
206.3442153818879
 20
-17.43328433016423
 30
0.0
 10
206.3442153818879
 20
-18.26195308222191
 30
0.0
 10
205.6594176641201
 20
-18.98253843018851
 30
0.0
 10
204.7944094417201
 20
-18.98253843018851
 30
0.0
 10
203.9654455200816
 20
-18.98253843018851
 30
0.0
 10
203.2446035015517
 20
-18.29798454867212
 30
0.0
 10
203.2446035015517
 20
-17.43327883253413
 30
0.0
 10
203.2446035015517
 20
-16.60460458284667
 30
0.0
 10
203.9294012193195
 20
-15.88401923488006
 30
0.0
 10
204.7944094417201
 20
-15.88401923488006
 30
0.0
 10
205.6594066649442
 20
-15.88403023013995
 30
0.0
 10
206.3442153818879
 20
-16.56858411165603
 30
0.0
 10
206.3442153818879
 20
-17.43328433016423
 30
0.0
  0
ENDBLK
  5
11C
330
119
100
AcDbEntity
  8
0
100
AcDbBlockEnd
  0
BLOCK
  5
120
330
11E
100
AcDbEntity
  8
0
100
AcDbBlockBegin
  2
block 47
 70
     0
 10
0.0
 20
0.0
 30
0.0
  3
block 47
  1

  0
SPLINE
  5
122
330
11E
100
AcDbEntity
  8
Layer 1
370
     0
100
AcDbSpline
210
0.0
220
0.0
230
1.0
 70
    11
 71
     3
 72
    17
 73
    13
 74
     0
 42
0.0000000001
 43
0.0000000001
 12
1.0
 22
0.0
 32
0.0
 13
1.0
 23
0.0
 33
0.0
 40
0.0
 40
0.0
 40
0.0
 40
0.0
 40
1.0
 40
1.0
 40
1.0
 40
2.0
 40
2.0
 40
2.0
 40
3.0
 40
3.0
 40
3.0
 40
4.0
 40
4.0
 40
4.0
 40
4.0
 10
206.3794801312318
 20
-42.82115116803243
 30
0.0
 10
206.3794801312318
 20
-43.64982286067595
 30
0.0
 10
205.6946824134639
 20
-44.37041076568617
 30
0.0
 10
204.8296741910633
 20
-44.37041076568617
 30
0.0
 10
204.0007102694248
 20
-44.37041076568617
 30
0.0
 10
203.2798682508949
 20
-43.68585445498534
 30
0.0
 10
203.2798682508949
 20
-42.82115116803243
 30
0.0
 10
203.2798682508949
 20
-41.99247947538891
 30
0.0
 10
203.9646659686627
 20
-41.27189157037805
 30
0.0
 10
204.8296741910633
 20
-41.27189157037805
 30
0.0
 10
205.6946824134639
 20
-41.27189157037805
 30
0.0
 10
206.3794801312318
 20
-41.95644788107888
 30
0.0
 10
206.3794801312318
 20
-42.82115116803243
 30
0.0
  0
ENDBLK
  5
121
330
11E
100
AcDbEntity
  8
0
100
AcDbBlockEnd
  0
BLOCK
  5
126
330
124
100
AcDbEntity
  8
0
100
AcDbBlockBegin
  2
block 48
 70
     0
 10
0.0
 20
0.0
 30
0.0
  3
block 48
  1

  0
INSERT
  5
129
330
124
100
AcDbEntity
  8
Layer 1
100
AcDbBlockReference
  2
block 49
 10
0.0
 20
0.0
 30
0.0
  0
INSERT
  5
12E
330
124
100
AcDbEntity
  8
Layer 1
100
AcDbBlockReference
  2
block 50
 10
0.0
 20
0.0
 30
0.0
  0
INSERT
  5
133
330
124
100
AcDbEntity
  8
Layer 1
100
AcDbBlockReference
  2
block 51
 10
0.0
 20
0.0
 30
0.0
  0
INSERT
  5
138
330
124
100
AcDbEntity
  8
Layer 1
100
AcDbBlockReference
  2
block 52
 10
0.0
 20
0.0
 30
0.0
  0
ENDBLK
  5
127
330
124
100
AcDbEntity
  8
0
100
AcDbBlockEnd
  0
BLOCK
  5
12A
330
128
100
AcDbEntity
  8
0
100
AcDbBlockBegin
  2
block 49
 70
     0
 10
0.0
 20
0.0
 30
0.0
  3
block 49
  1

  0
SPLINE
  5
12C
330
128
100
AcDbEntity
  8
Layer 1
370
     0
100
AcDbSpline
210
0.0
220
0.0
230
1.0
 70
    11
 71
     3
 72
    17
 73
    13
 74
     0
 42
0.0000000001
 43
0.0000000001
 12
1.0
 22
0.0
 32
0.0
 13
1.0
 23
0.0
 33
0.0
 40
0.0
 40
0.0
 40
0.0
 40
0.0
 40
1.0
 40
1.0
 40
1.0
 40
2.0
 40
2.0
 40
2.0
 40
3.0
 40
3.0
 40
3.0
 40
4.0
 40
4.0
 40
4.0
 40
4.0
 10
191.3883017046049
 20
-10.13427353940915
 30
0.0
 10
191.3883017046049
 20
-10.96294778909692
 30
0.0
 10
190.7035039868371
 20
-11.68353313706353
 30
0.0
 10
189.8384957644371
 20
-11.68353313706353
 30
0.0
 10
189.0095318427986
 20
-11.68353313706353
 30
0.0
 10
188.2886898242687
 20
-10.99897925554714
 30
0.0
 10
188.2886898242687
 20
-10.13427353940915
 30
0.0
 10
188.2886898242687
 20
-9.305599289721686
 30
0.0
 10
188.9734875420371
 20
-8.58501394175508
 30
0.0
 10
189.8384957644371
 20
-8.58501394175508
 30
0.0
 10
190.7035039868371
 20
-8.58501394175508
 30
0.0
 10
191.3883017046049
 20
-9.269573320901259
 30
0.0
 10
191.3883017046049
 20
-10.13427353940915
 30
0.0
  0
ENDBLK
  5
12B
330
128
100
AcDbEntity
  8
0
100
AcDbBlockEnd
  0
BLOCK
  5
12F
330
12D
100
AcDbEntity
  8
0
100
AcDbBlockBegin
  2
block 50
 70
     0
 10
0.0
 20
0.0
 30
0.0
  3
block 50
  1

  0
SPLINE
  5
131
330
12D
100
AcDbEntity
  8
Layer 1
370
     0
100
AcDbSpline
210
0.0
220
0.0
230
1.0
 70
    11
 71
     3
 72
    17
 73
    13
 74
     0
 42
0.0000000001
 43
0.0000000001
 12
1.0
 22
0.0
 32
0.0
 13
1.0
 23
0.0
 33
0.0
 40
0.0
 40
0.0
 40
0.0
 40
0.0
 40
1.0
 40
1.0
 40
1.0
 40
2.0
 40
2.0
 40
2.0
 40
3.0
 40
3.0
 40
3.0
 40
4.0
 40
4.0
 40
4.0
 40
4.0
 10
221.405934071777
 20
-10.13427353940915
 30
0.0
 10
221.405934071777
 20
-10.96294778909692
 30
0.0
 10
220.7211363540092
 20
-11.68353313706353
 30
0.0
 10
219.8561281316086
 20
-11.68353313706353
 30
0.0
 10
219.0271642099701
 20
-11.68353313706353
 30
0.0
 10
218.3063221914402
 20
-10.99897925554714
 30
0.0
 10
218.3063221914402
 20
-10.13427353940915
 30
0.0
 10
218.3063221914402
 20
-9.305599289721686
 30
0.0
 10
218.991119909208
 20
-8.58501394175508
 30
0.0
 10
219.8561281316086
 20
-8.58501394175508
 30
0.0
 10
220.7211363540092
 20
-8.58501394175508
 30
0.0
 10
221.405934071777
 20
-9.269573320901259
 30
0.0
 10
221.405934071777
 20
-10.13427353940915
 30
0.0
  0
ENDBLK
  5
130
330
12D
100
AcDbEntity
  8
0
100
AcDbBlockEnd
  0
BLOCK
  5
134
330
132
100
AcDbEntity
  8
0
100
AcDbBlockBegin
  2
block 51
 70
     0
 10
0.0
 20
0.0
 30
0.0
  3
block 51
  1

  0
SPLINE
  5
136
330
132
100
AcDbEntity
  8
Layer 1
370
     0
100
AcDbSpline
210
0.0
220
0.0
230
1.0
 70
    11
 71
     3
 72
    17
 73
    13
 74
     0
 42
0.0000000001
 43
0.0000000001
 12
1.0
 22
0.0
 32
0.0
 13
1.0
 23
0.0
 33
0.0
 40
0.0
 40
0.0
 40
0.0
 40
0.0
 40
1.0
 40
1.0
 40
1.0
 40
2.0
 40
2.0
 40
2.0
 40
3.0
 40
3.0
 40
3.0
 40
4.0
 40
4.0
 40
4.0
 40
4.0
 10
191.3883017046049
 20
-50.12016722193791
 30
0.0
 10
191.3883017046049
 20
-50.94883891458143
 30
0.0
 10
190.7035039868371
 20
-51.6694268195923
 30
0.0
 10
189.8384957644371
 20
-51.6694268195923
 30
0.0
 10
189.0095318427986
 20
-51.6694268195923
 30
0.0
 10
188.2886898242687
 20
-50.98487050889146
 30
0.0
 10
188.2886898242687
 20
-50.12016722193791
 30
0.0
 10
188.2886898242687
 20
-49.29149552929503
 30
0.0
 10
188.9734875420371
 20
-48.57090762428417
 30
0.0
 10
189.8384957644371
 20
-48.57090762428417
 30
0.0
 10
190.7035039868371
 20
-48.57089662898545
 30
0.0
 10
191.3883017046049
 20
-49.255463934985
 30
0.0
 10
191.3883017046049
 20
-50.12016722193791
 30
0.0
  0
ENDBLK
  5
135
330
132
100
AcDbEntity
  8
0
100
AcDbBlockEnd
  0
BLOCK
  5
139
330
137
100
AcDbEntity
  8
0
100
AcDbBlockBegin
  2
block 52
 70
     0
 10
0.0
 20
0.0
 30
0.0
  3
block 52
  1

  0
SPLINE
  5
13B
330
137
100
AcDbEntity
  8
Layer 1
370
     0
100
AcDbSpline
210
0.0
220
0.0
230
1.0
 70
    11
 71
     3
 72
    17
 73
    13
 74
     0
 42
0.0000000001
 43
0.0000000001
 12
1.0
 22
0.0
 32
0.0
 13
1.0
 23
0.0
 33
0.0
 40
0.0
 40
0.0
 40
0.0
 40
0.0
 40
1.0
 40
1.0
 40
1.0
 40
2.0
 40
2.0
 40
2.0
 40
3.0
 40
3.0
 40
3.0
 40
4.0
 40
4.0
 40
4.0
 40
4.0
 10
221.405934071777
 20
-50.12016722193791
 30
0.0
 10
221.405934071777
 20
-50.94883891458143
 30
0.0
 10
220.7211363540092
 20
-51.6694268195923
 30
0.0
 10
219.8561281316086
 20
-51.6694268195923
 30
0.0
 10
219.0271642099701
 20
-51.6694268195923
 30
0.0
 10
218.3063221914402
 20
-50.98487050889146
 30
0.0
 10
218.3063221914402
 20
-50.12016722193791
 30
0.0
 10
218.3063221914402
 20
-49.29149552929503
 30
0.0
 10
218.991119909208
 20
-48.57090762428417
 30
0.0
 10
219.8561281316086
 20
-48.57090762428417
 30
0.0
 10
220.7211363540092
 20
-48.57089662898545
 30
0.0
 10
221.405934071777
 20
-49.255463934985
 30
0.0
 10
221.405934071777
 20
-50.12016722193791
 30
0.0
  0
ENDBLK
  5
13A
330
137
100
AcDbEntity
  8
0
100
AcDbBlockEnd
  0
BLOCK
  5
13F
330
13D
100
AcDbEntity
  8
0
100
AcDbBlockBegin
  2
block 53
 70
     0
 10
0.0
 20
0.0
 30
0.0
  3
block 53
  1

  0
INSERT
  5
142
330
13D
100
AcDbEntity
  8
Layer 1
100
AcDbBlockReference
  2
block 54
 10
0.0
 20
0.0
 30
0.0
  0
INSERT
  5
147
330
13D
100
AcDbEntity
  8
Layer 1
100
AcDbBlockReference
  2
block 55
 10
0.0
 20
0.0
 30
0.0
  0
SPLINE
  5
14B
330
13D
100
AcDbEntity
  8
Layer 1
370
     0
100
AcDbSpline
210
0.0
220
0.0
230
1.0
 70
    11
 71
     3
 72
    32
 73
    28
 74
     0
 42
0.0000000001
 43
0.0000000001
 12
1.0
 22
0.0
 32
0.0
 13
1.0
 23
0.0
 33
0.0
 40
0.0
 40
0.0
 40
0.0
 40
0.0
 40
1.0
 40
1.0
 40
1.0
 40
2.0
 40
2.0
 40
2.0
 40
3.0
 40
3.0
 40
3.0
 40
4.0
 40
4.0
 40
4.0
 40
5.0
 40
5.0
 40
5.0
 40
6.0
 40
6.0
 40
6.0
 40
7.0
 40
7.0
 40
7.0
 40
8.0
 40
8.0
 40
8.0
 40
9.0
 40
9.0
 40
9.0
 40
9.0
 10
179.8649389466571
 20
-50.64908111683639
 30
0.0
 10
179.8649389466571
 20
-53.11734595969384
 30
0.0
 10
177.9601796053653
 20
-55.12722306461898
 30
0.0
 10
175.5968601122788
 20
-55.12722306461898
 30
0.0
 10
175.5968601122788
 20
-55.12722306461898
 30
0.0
 10
144.1330285556107
 20
-55.12722306461898
 30
0.0
 10
144.1330285556107
 20
-55.12722306461898
 30
0.0
 10
141.7697090625236
 20
-55.12722306461898
 30
0.0
 10
139.8649497212324
 20
-53.11734595969384
 30
0.0
 10
139.8649497212324
 20
-50.64908111683639
 30
0.0
 10
139.8649497212324
 20
-50.64908111683639
 30
0.0
 10
139.8649497212324
 20
-9.605359644511303
 30
0.0
 10
139.8649497212324
 20
-9.605359644511303
 30
0.0
 10
139.8649497212324
 20
-7.137094801653538
 30
0.0
 10
141.7697090625236
 20
-5.127223077118799
 30
0.0
 10
144.1330285556107
 20
-5.127223077118799
 30
0.0
 10
144.1330285556107
 20
-5.127223077118799
 30
0.0
 10
175.596870876854
 20
-5.127223077118799
 30
0.0
 10
175.596870876854
 20
-5.127223077118799
 30
0.0
 10
177.9601903699411
 20
-5.127223077118799
 30
0.0
 10
179.8649497112323
 20
-7.137094801653538
 30
0.0
 10
179.8649497112323
 20
-9.605359644511303
 30
0.0
 10
179.8649497112323
 20
-9.605359644511303
 30
0.0
 10
179.8649497112323
 20
-50.64908111683639
 30
0.0
 10
179.8649497112323
 20
-50.64908111683639
 30
0.0
 10
179.8649497112323
 20
-50.64908111683639
 30
0.0
 10
179.8649389466571
 20
-50.64908111683639
 30
0.0
 10
179.8649389466571
 20
-50.64908111683639
 30
0.0
  0
INSERT
  5
14D
330
13D
100
AcDbEntity
  8
Layer 1
100
AcDbBlockReference
  2
block 56
 10
0.0
 20
0.0
 30
0.0
  0
SPLINE
  5
164
330
13D
100
AcDbEntity
  8
Layer 1
370
     0
100
AcDbSpline
210
0.0
220
0.0
230
1.0
 70
    11
 71
     3
 72
    71
 73
    67
 74
     0
 42
0.0000000001
 43
0.0000000001
 12
1.0
 22
0.0
 32
0.0
 13
1.0
 23
0.0
 33
0.0
 40
0.0
 40
0.0
 40
0.0
 40
0.0
 40
1.0
 40
1.0
 40
1.0
 40
2.0
 40
2.0
 40
2.0
 40
3.0
 40
3.0
 40
3.0
 40
4.0
 40
4.0
 40
4.0
 40
5.0
 40
5.0
 40
5.0
 40
6.0
 40
6.0
 40
6.0
 40
7.0
 40
7.0
 40
7.0
 40
8.0
 40
8.0
 40
8.0
 40
9.0
 40
9.0
 40
9.0
 40
10.0
 40
10.0
 40
10.0
 40
11.0
 40
11.0
 40
11.0
 40
12.0
 40
12.0
 40
12.0
 40
13.0
 40
13.0
 40
13.0
 40
14.0
 40
14.0
 40
14.0
 40
15.0
 40
15.0
 40
15.0
 40
16.0
 40
16.0
 40
16.0
 40
17.0
 40
17.0
 40
17.0
 40
18.0
 40
18.0
 40
18.0
 40
19.0
 40
19.0
 40
19.0
 40
20.0
 40
20.0
 40
20.0
 40
21.0
 40
21.0
 40
21.0
 40
22.0
 40
22.0
 40
22.0
 40
22.0
 10
166.7686680701471
 20
-31.00262747095266
 30
0.0
 10
166.3206334022904
 20
-34.3667201486062
 30
0.0
 10
163.3516716449488
 20
-37.17518352002993
 30
0.0
 10
159.8651704183357
 20
-37.17518352002993
 30
0.0
 10
156.3786691917225
 20
-37.17518352002993
 30
0.0
 10
153.4996459583927
 20
-34.36742531658962
 30
0.0
 10
153.0509007395922
 20
-31.00333263893544
 30
0.0
 10
153.0509007395922
 20
-31.00333263893544
 30
0.0
 10
153.0507930803583
 20
-31.00330034116719
 30
0.0
 10
153.0507930803583
 20
-31.00330034116719
 30
0.0
 10
153.0507930803583
 20
-31.00330034116719
 30
0.0
 10
152.5406820982267
 20
-31.00259517318377
 30
0.0
 10
152.5406820982267
 20
-31.00259517318377
 30
0.0
 10
152.5406820982267
 20
-31.00259517318377
 30
0.0
 10
152.5406820982267
 20
-31.70250400174286
 30
0.0
 10
152.5406820982267
 20
-31.70250400174286
 30
0.0
 10
152.5406820982267
 20
-31.70250400174286
 30
0.0
 10
150.1403764144192
 20
-31.70250400174286
 30
0.0
 10
150.1403764144192
 20
-31.70250400174286
 30
0.0
 10
150.1403764144192
 20
-31.70250400174286
 30
0.0
 10
150.1403764144192
 20
-28.50210718925885
 30
0.0
 10
150.1403764144192
 20
-28.50210718925885
 30
0.0
 10
150.1403764144192
 20
-28.50210718925885
 30
0.0
 10
152.5706759607951
 20
-28.50210718925885
 30
0.0
 10
152.5706759607951
 20
-28.50210718925885
 30
0.0
 10
152.5706759607951
 20
-28.50210718925885
 30
0.0
 10
152.5710204703437
 20
-29.20342635378093
 30
0.0
 10
152.5710204703437
 20
-29.20342635378093
 30
0.0
 10
152.5710204703437
 20
-29.20342635378093
 30
0.0
 10
153.2123680586165
 20
-29.20307646127007
 30
0.0
 10
153.2123680586165
 20
-29.20307646127007
 30
0.0
 10
153.2123680586165
 20
-29.20307646127007
 30
0.0
 10
153.2123034630761
 20
-29.20314643977339
 30
0.0
 10
153.2123034630761
 20
-29.20314643977339
 30
0.0
 10
153.9065763307411
 20
-26.14032736230816
 30
0.0
 10
156.5933201723003
 20
-23.4249999941438
 30
0.0
 10
159.8653426731099
 20
-23.4249999941438
 30
0.0
 10
163.1818069056792
 20
-23.4249999941438
 30
0.0
 10
165.9736907550789
 20
-26.07824028210864
 30
0.0
 10
166.622445298645
 20
-29.20208599632063
 30
0.0
 10
166.622445298645
 20
-29.20208599632063
 30
0.0
 10
166.6222945757175
 20
-29.20219365555454
 30
0.0
 10
166.6222945757175
 20
-29.20219365555454
 30
0.0
 10
166.6222945757175
 20
-29.20219365555454
 30
0.0
 10
167.189917120606
 20
-29.20219365555454
 30
0.0
 10
167.189917120606
 20
-29.20219365555454
 30
0.0
 10
167.189917120606
 20
-29.20219365555454
 30
0.0
 10
167.189917120606
 20
-28.50227944403311
 30
0.0
 10
167.189917120606
 20
-28.50227944403311
 30
0.0
 10
167.189917120606
 20
-28.50227944403311
 30
0.0
 10
169.5895122534696
 20
-28.50227944403311
 30
0.0
 10
169.5895122534696
 20
-28.50227944403311
 30
0.0
 10
169.5895122534696
 20
-28.50227944403311
 30
0.0
 10
169.5895122534696
 20
-31.70268163947946
 30
0.0
 10
169.5895122534696
 20
-31.70268163947946
 30
0.0
 10
169.5895122534696
 20
-31.70268163947946
 30
0.0
 10
167.189917120606
 20
-31.70268163947946
 30
0.0
 10
167.189917120606
 20
-31.70268163947946
 30
0.0
 10
167.189917120606
 20
-31.70268163947946
 30
0.0
 10
167.189917120606
 20
-31.00277281092037
 30
0.0
 10
167.189917120606
 20
-31.00277281092037
 30
0.0
 10
167.189917120606
 20
-31.00277281092037
 30
0.0
 10
166.7231928097418
 20
-31.00277281092037
 30
0.0
 10
166.7231928097418
 20
-31.00277281092037
 30
0.0
 10
166.7231928097418
 20
-31.00277281092037
 30
0.0
 10
166.7686680701471
 20
-31.00262747095266
 30
0.0
 10
166.7686680701471
 20
-31.00262747095266
 30
0.0
  0
ENDBLK
  5
140
330
13D
100
AcDbEntity
  8
0
100
AcDbBlockEnd
  0
BLOCK
  5
143
330
141
100
AcDbEntity
  8
0
100
AcDbBlockBegin
  2
block 54
 70
     0
 10
0.0
 20
0.0
 30
0.0
  3
block 54
  1

  0
SPLINE
  5
145
330
141
100
AcDbEntity
  8
Layer 1
370
     0
100
AcDbSpline
210
0.0
220
0.0
230
1.0
 70
    11
 71
     3
 72
    17
 73
    13
 74
     0
 42
0.0000000001
 43
0.0000000001
 12
1.0
 22
0.0
 32
0.0
 13
1.0
 23
0.0
 33
0.0
 40
0.0
 40
0.0
 40
0.0
 40
0.0
 40
1.0
 40
1.0
 40
1.0
 40
2.0
 40
2.0
 40
2.0
 40
3.0
 40
3.0
 40
3.0
 40
4.0
 40
4.0
 40
4.0
 40
4.0
 10
161.3442153931379
 20
-17.43328433016423
 30
0.0
 10
161.3442153931379
 20
-18.26195308222191
 30
0.0
 10
160.65941767537
 20
-18.98253843018851
 30
0.0
 10
159.7944094529701
 20
-18.98253843018851
 30
0.0
 10
158.9654455313316
 20
-18.98253843018851
 30
0.0
 10
158.2446035128016
 20
-18.29798454867212
 30
0.0
 10
158.2446035128016
 20
-17.43327883253413
 30
0.0
 10
158.2446035128016
 20
-16.60460458284667
 30
0.0
 10
158.9294012305695
 20
-15.88401923488006
 30
0.0
 10
159.7944094529701
 20
-15.88401923488006
 30
0.0
 10
160.6594066761942
 20
-15.88403023013995
 30
0.0
 10
161.3442153931379
 20
-16.56858411165603
 30
0.0
 10
161.3442153931379
 20
-17.43328433016423
 30
0.0
  0
ENDBLK
  5
144
330
141
100
AcDbEntity
  8
0
100
AcDbBlockEnd
  0
BLOCK
  5
148
330
146
100
AcDbEntity
  8
0
100
AcDbBlockBegin
  2
block 55
 70
     0
 10
0.0
 20
0.0
 30
0.0
  3
block 55
  1

  0
SPLINE
  5
14A
330
146
100
AcDbEntity
  8
Layer 1
370
     0
100
AcDbSpline
210
0.0
220
0.0
230
1.0
 70
    11
 71
     3
 72
    17
 73
    13
 74
     0
 42
0.0000000001
 43
0.0000000001
 12
1.0
 22
0.0
 32
0.0
 13
1.0
 23
0.0
 33
0.0
 40
0.0
 40
0.0
 40
0.0
 40
0.0
 40
1.0
 40
1.0
 40
1.0
 40
2.0
 40
2.0
 40
2.0
 40
3.0
 40
3.0
 40
3.0
 40
4.0
 40
4.0
 40
4.0
 40
4.0
 10
161.3794801424817
 20
-42.82115116803243
 30
0.0
 10
161.3794801424817
 20
-43.64982286067595
 30
0.0
 10
160.6946824247139
 20
-44.37041076568617
 30
0.0
 10
159.8296742023133
 20
-44.37041076568617
 30
0.0
 10
159.0007102806748
 20
-44.37041076568617
 30
0.0
 10
158.2798682621449
 20
-43.68585445498534
 30
0.0
 10
158.2798682621449
 20
-42.82115116803243
 30
0.0
 10
158.2798682621449
 20
-41.99247947538891
 30
0.0
 10
158.9646659799127
 20
-41.27189157037805
 30
0.0
 10
159.8296742023133
 20
-41.27189157037805
 30
0.0
 10
160.6946824247139
 20
-41.27189157037805
 30
0.0
 10
161.3794801424817
 20
-41.95644788107888
 30
0.0
 10
161.3794801424817
 20
-42.82115116803243
 30
0.0
  0
ENDBLK
  5
149
330
146
100
AcDbEntity
  8
0
100
AcDbBlockEnd
  0
BLOCK
  5
14E
330
14C
100
AcDbEntity
  8
0
100
AcDbBlockBegin
  2
block 56
 70
     0
 10
0.0
 20
0.0
 30
0.0
  3
block 56
  1

  0
INSERT
  5
151
330
14C
100
AcDbEntity
  8
Layer 1
100
AcDbBlockReference
  2
block 57
 10
0.0
 20
0.0
 30
0.0
  0
INSERT
  5
156
330
14C
100
AcDbEntity
  8
Layer 1
100
AcDbBlockReference
  2
block 58
 10
0.0
 20
0.0
 30
0.0
  0
INSERT
  5
15B
330
14C
100
AcDbEntity
  8
Layer 1
100
AcDbBlockReference
  2
block 59
 10
0.0
 20
0.0
 30
0.0
  0
INSERT
  5
160
330
14C
100
AcDbEntity
  8
Layer 1
100
AcDbBlockReference
  2
block 60
 10
0.0
 20
0.0
 30
0.0
  0
ENDBLK
  5
14F
330
14C
100
AcDbEntity
  8
0
100
AcDbBlockEnd
  0
BLOCK
  5
152
330
150
100
AcDbEntity
  8
0
100
AcDbBlockBegin
  2
block 57
 70
     0
 10
0.0
 20
0.0
 30
0.0
  3
block 57
  1

  0
SPLINE
  5
154
330
150
100
AcDbEntity
  8
Layer 1
370
     0
100
AcDbSpline
210
0.0
220
0.0
230
1.0
 70
    11
 71
     3
 72
    17
 73
    13
 74
     0
 42
0.0000000001
 43
0.0000000001
 12
1.0
 22
0.0
 32
0.0
 13
1.0
 23
0.0
 33
0.0
 40
0.0
 40
0.0
 40
0.0
 40
0.0
 40
1.0
 40
1.0
 40
1.0
 40
2.0
 40
2.0
 40
2.0
 40
3.0
 40
3.0
 40
3.0
 40
4.0
 40
4.0
 40
4.0
 40
4.0
 10
146.3883017158548
 20
-10.13427353940915
 30
0.0
 10
146.3883017158548
 20
-10.96294778909692
 30
0.0
 10
145.703503998087
 20
-11.68353313706353
 30
0.0
 10
144.8384957756871
 20
-11.68353313706353
 30
0.0
 10
144.0095318540486
 20
-11.68353313706353
 30
0.0
 10
143.2886898355186
 20
-10.99897925554714
 30
0.0
 10
143.2886898355186
 20
-10.13427353940915
 30
0.0
 10
143.2886898355186
 20
-9.305599289721686
 30
0.0
 10
143.9734875532871
 20
-8.58501394175508
 30
0.0
 10
144.8384957756871
 20
-8.58501394175508
 30
0.0
 10
145.703503998087
 20
-8.58501394175508
 30
0.0
 10
146.3883017158548
 20
-9.269573320901259
 30
0.0
 10
146.3883017158548
 20
-10.13427353940915
 30
0.0
  0
ENDBLK
  5
153
330
150
100
AcDbEntity
  8
0
100
AcDbBlockEnd
  0
BLOCK
  5
157
330
155
100
AcDbEntity
  8
0
100
AcDbBlockBegin
  2
block 58
 70
     0
 10
0.0
 20
0.0
 30
0.0
  3
block 58
  1

  0
SPLINE
  5
159
330
155
100
AcDbEntity
  8
Layer 1
370
     0
100
AcDbSpline
210
0.0
220
0.0
230
1.0
 70
    11
 71
     3
 72
    17
 73
    13
 74
     0
 42
0.0000000001
 43
0.0000000001
 12
1.0
 22
0.0
 32
0.0
 13
1.0
 23
0.0
 33
0.0
 40
0.0
 40
0.0
 40
0.0
 40
0.0
 40
1.0
 40
1.0
 40
1.0
 40
2.0
 40
2.0
 40
2.0
 40
3.0
 40
3.0
 40
3.0
 40
4.0
 40
4.0
 40
4.0
 40
4.0
 10
176.405934083027
 20
-10.13427353940915
 30
0.0
 10
176.405934083027
 20
-10.96294778909692
 30
0.0
 10
175.7211363652592
 20
-11.68353313706353
 30
0.0
 10
174.8561281428586
 20
-11.68353313706353
 30
0.0
 10
174.0271642212201
 20
-11.68353313706353
 30
0.0
 10
173.3063222026902
 20
-10.99897925554714
 30
0.0
 10
173.3063222026902
 20
-10.13427353940915
 30
0.0
 10
173.3063222026902
 20
-9.305599289721686
 30
0.0
 10
173.991119920458
 20
-8.58501394175508
 30
0.0
 10
174.8561281428586
 20
-8.58501394175508
 30
0.0
 10
175.7211363652592
 20
-8.58501394175508
 30
0.0
 10
176.405934083027
 20
-9.269573320901259
 30
0.0
 10
176.405934083027
 20
-10.13427353940915
 30
0.0
  0
ENDBLK
  5
158
330
155
100
AcDbEntity
  8
0
100
AcDbBlockEnd
  0
BLOCK
  5
15C
330
15A
100
AcDbEntity
  8
0
100
AcDbBlockBegin
  2
block 59
 70
     0
 10
0.0
 20
0.0
 30
0.0
  3
block 59
  1

  0
SPLINE
  5
15E
330
15A
100
AcDbEntity
  8
Layer 1
370
     0
100
AcDbSpline
210
0.0
220
0.0
230
1.0
 70
    11
 71
     3
 72
    17
 73
    13
 74
     0
 42
0.0000000001
 43
0.0000000001
 12
1.0
 22
0.0
 32
0.0
 13
1.0
 23
0.0
 33
0.0
 40
0.0
 40
0.0
 40
0.0
 40
0.0
 40
1.0
 40
1.0
 40
1.0
 40
2.0
 40
2.0
 40
2.0
 40
3.0
 40
3.0
 40
3.0
 40
4.0
 40
4.0
 40
4.0
 40
4.0
 10
146.3883017158548
 20
-50.12016722193791
 30
0.0
 10
146.3883017158548
 20
-50.94883891458143
 30
0.0
 10
145.703503998087
 20
-51.6694268195923
 30
0.0
 10
144.8384957756871
 20
-51.6694268195923
 30
0.0
 10
144.0095318540486
 20
-51.6694268195923
 30
0.0
 10
143.2886898355186
 20
-50.98487050889146
 30
0.0
 10
143.2886898355186
 20
-50.12016722193791
 30
0.0
 10
143.2886898355186
 20
-49.29149552929503
 30
0.0
 10
143.9734875532871
 20
-48.57090762428417
 30
0.0
 10
144.8384957756871
 20
-48.57090762428417
 30
0.0
 10
145.703503998087
 20
-48.57089662898545
 30
0.0
 10
146.3883017158548
 20
-49.255463934985
 30
0.0
 10
146.3883017158548
 20
-50.12016722193791
 30
0.0
  0
ENDBLK
  5
15D
330
15A
100
AcDbEntity
  8
0
100
AcDbBlockEnd
  0
BLOCK
  5
161
330
15F
100
AcDbEntity
  8
0
100
AcDbBlockBegin
  2
block 60
 70
     0
 10
0.0
 20
0.0
 30
0.0
  3
block 60
  1

  0
SPLINE
  5
163
330
15F
100
AcDbEntity
  8
Layer 1
370
     0
100
AcDbSpline
210
0.0
220
0.0
230
1.0
 70
    11
 71
     3
 72
    17
 73
    13
 74
     0
 42
0.0000000001
 43
0.0000000001
 12
1.0
 22
0.0
 32
0.0
 13
1.0
 23
0.0
 33
0.0
 40
0.0
 40
0.0
 40
0.0
 40
0.0
 40
1.0
 40
1.0
 40
1.0
 40
2.0
 40
2.0
 40
2.0
 40
3.0
 40
3.0
 40
3.0
 40
4.0
 40
4.0
 40
4.0
 40
4.0
 10
176.405934083027
 20
-50.12016722193791
 30
0.0
 10
176.405934083027
 20
-50.94883891458143
 30
0.0
 10
175.7211363652592
 20
-51.6694268195923
 30
0.0
 10
174.8561281428586
 20
-51.6694268195923
 30
0.0
 10
174.0271642212201
 20
-51.6694268195923
 30
0.0
 10
173.3063222026902
 20
-50.98487050889146
 30
0.0
 10
173.3063222026902
 20
-50.12016722193791
 30
0.0
 10
173.3063222026902
 20
-49.29149552929503
 30
0.0
 10
173.991119920458
 20
-48.57090762428417
 30
0.0
 10
174.8561281428586
 20
-48.57090762428417
 30
0.0
 10
175.7211363652592
 20
-48.57089662898545
 30
0.0
 10
176.405934083027
 20
-49.255463934985
 30
0.0
 10
176.405934083027
 20
-50.12016722193791
 30
0.0
  0
ENDBLK
  5
162
330
15F
100
AcDbEntity
  8
0
100
AcDbBlockEnd
  0
BLOCK
  5
167
330
165
100
AcDbEntity
  8
0
100
AcDbBlockBegin
  2
block 61
 70
     0
 10
0.0
 20
0.0
 30
0.0
  3
block 61
  1

  0
INSERT
  5
16A
330
165
100
AcDbEntity
  8
Layer 1
100
AcDbBlockReference
  2
block 62
 10
0.0
 20
0.0
 30
0.0
  0
INSERT
  5
16F
330
165
100
AcDbEntity
  8
Layer 1
100
AcDbBlockReference
  2
block 63
 10
0.0
 20
0.0
 30
0.0
  0
SPLINE
  5
173
330
165
100
AcDbEntity
  8
Layer 1
370
     0
100
AcDbSpline
210
0.0
220
0.0
230
1.0
 70
    11
 71
     3
 72
    32
 73
    28
 74
     0
 42
0.0000000001
 43
0.0000000001
 12
1.0
 22
0.0
 32
0.0
 13
1.0
 23
0.0
 33
0.0
 40
0.0
 40
0.0
 40
0.0
 40
0.0
 40
1.0
 40
1.0
 40
1.0
 40
2.0
 40
2.0
 40
2.0
 40
3.0
 40
3.0
 40
3.0
 40
4.0
 40
4.0
 40
4.0
 40
5.0
 40
5.0
 40
5.0
 40
6.0
 40
6.0
 40
6.0
 40
7.0
 40
7.0
 40
7.0
 40
8.0
 40
8.0
 40
8.0
 40
9.0
 40
9.0
 40
9.0
 40
9.0
 10
134.8649389579071
 20
-50.64908111683639
 30
0.0
 10
134.8649389579071
 20
-53.11734595969384
 30
0.0
 10
132.9601796166152
 20
-55.12722306461898
 30
0.0
 10
130.5968601235287
 20
-55.12722306461898
 30
0.0
 10
130.5968601235287
 20
-55.12722306461898
 30
0.0
 10
99.13302856686067
 20
-55.12722306461898
 30
0.0
 10
99.13302856686067
 20
-55.12722306461898
 30
0.0
 10
96.76970907377354
 20
-55.12722306461898
 30
0.0
 10
94.86494973248236
 20
-53.11734595969384
 30
0.0
 10
94.86494973248236
 20
-50.64908111683639
 30
0.0
 10
94.86494973248236
 20
-50.64908111683639
 30
0.0
 10
94.86494973248236
 20
-9.605359644511303
 30
0.0
 10
94.86494973248236
 20
-9.605359644511303
 30
0.0
 10
94.86494973248236
 20
-7.137094801653538
 30
0.0
 10
96.76970907377354
 20
-5.127223077118799
 30
0.0
 10
99.13302856686067
 20
-5.127223077118799
 30
0.0
 10
99.13302856686067
 20
-5.127223077118799
 30
0.0
 10
130.5968708881039
 20
-5.127223077118799
 30
0.0
 10
130.5968708881039
 20
-5.127223077118799
 30
0.0
 10
132.960190381191
 20
-5.127223077118799
 30
0.0
 10
134.8649497224822
 20
-7.137094801653538
 30
0.0
 10
134.8649497224822
 20
-9.605359644511303
 30
0.0
 10
134.8649497224822
 20
-9.605359644511303
 30
0.0
 10
134.8649497224822
 20
-50.64908111683639
 30
0.0
 10
134.8649497224822
 20
-50.64908111683639
 30
0.0
 10
134.8649497224822
 20
-50.64908111683639
 30
0.0
 10
134.8649389579071
 20
-50.64908111683639
 30
0.0
 10
134.8649389579071
 20
-50.64908111683639
 30
0.0
  0
INSERT
  5
175
330
165
100
AcDbEntity
  8
Layer 1
100
AcDbBlockReference
  2
block 64
 10
0.0
 20
0.0
 30
0.0
  0
SPLINE
  5
18C
330
165
100
AcDbEntity
  8
Layer 1
370
     0
100
AcDbSpline
210
0.0
220
0.0
230
1.0
 70
    11
 71
     3
 72
    71
 73
    67
 74
     0
 42
0.0000000001
 43
0.0000000001
 12
1.0
 22
0.0
 32
0.0
 13
1.0
 23
0.0
 33
0.0
 40
0.0
 40
0.0
 40
0.0
 40
0.0
 40
1.0
 40
1.0
 40
1.0
 40
2.0
 40
2.0
 40
2.0
 40
3.0
 40
3.0
 40
3.0
 40
4.0
 40
4.0
 40
4.0
 40
5.0
 40
5.0
 40
5.0
 40
6.0
 40
6.0
 40
6.0
 40
7.0
 40
7.0
 40
7.0
 40
8.0
 40
8.0
 40
8.0
 40
9.0
 40
9.0
 40
9.0
 40
10.0
 40
10.0
 40
10.0
 40
11.0
 40
11.0
 40
11.0
 40
12.0
 40
12.0
 40
12.0
 40
13.0
 40
13.0
 40
13.0
 40
14.0
 40
14.0
 40
14.0
 40
15.0
 40
15.0
 40
15.0
 40
16.0
 40
16.0
 40
16.0
 40
17.0
 40
17.0
 40
17.0
 40
18.0
 40
18.0
 40
18.0
 40
19.0
 40
19.0
 40
19.0
 40
20.0
 40
20.0
 40
20.0
 40
21.0
 40
21.0
 40
21.0
 40
22.0
 40
22.0
 40
22.0
 40
22.0
 10
121.7686680813971
 20
-31.00262747095266
 30
0.0
 10
121.3206334135403
 20
-34.3667201486062
 30
0.0
 10
118.3516716561988
 20
-37.17518352002993
 30
0.0
 10
114.8651704295856
 20
-37.17518352002993
 30
0.0
 10
111.3786692029724
 20
-37.17518352002993
 30
0.0
 10
108.4996459696427
 20
-34.36742531658962
 30
0.0
 10
108.0509007508421
 20
-31.00333263893544
 30
0.0
 10
108.0509007508421
 20
-31.00333263893544
 30
0.0
 10
108.0507930916082
 20
-31.00330034116719
 30
0.0
 10
108.0507930916082
 20
-31.00330034116719
 30
0.0
 10
108.0507930916082
 20
-31.00330034116719
 30
0.0
 10
107.5406821094766
 20
-31.00259517318377
 30
0.0
 10
107.5406821094766
 20
-31.00259517318377
 30
0.0
 10
107.5406821094766
 20
-31.00259517318377
 30
0.0
 10
107.5406821094766
 20
-31.70250400174286
 30
0.0
 10
107.5406821094766
 20
-31.70250400174286
 30
0.0
 10
107.5406821094766
 20
-31.70250400174286
 30
0.0
 10
105.1403764256691
 20
-31.70250400174286
 30
0.0
 10
105.1403764256691
 20
-31.70250400174286
 30
0.0
 10
105.1403764256691
 20
-31.70250400174286
 30
0.0
 10
105.1403764256691
 20
-28.50210718925885
 30
0.0
 10
105.1403764256691
 20
-28.50210718925885
 30
0.0
 10
105.1403764256691
 20
-28.50210718925885
 30
0.0
 10
107.5706759720451
 20
-28.50210718925885
 30
0.0
 10
107.5706759720451
 20
-28.50210718925885
 30
0.0
 10
107.5706759720451
 20
-28.50210718925885
 30
0.0
 10
107.5710204815936
 20
-29.20342635378093
 30
0.0
 10
107.5710204815936
 20
-29.20342635378093
 30
0.0
 10
107.5710204815936
 20
-29.20342635378093
 30
0.0
 10
108.2123680698664
 20
-29.20307646127007
 30
0.0
 10
108.2123680698664
 20
-29.20307646127007
 30
0.0
 10
108.2123680698664
 20
-29.20307646127007
 30
0.0
 10
108.2123034743261
 20
-29.20314643977339
 30
0.0
 10
108.2123034743261
 20
-29.20314643977339
 30
0.0
 10
108.9065763419911
 20
-26.14032736230816
 30
0.0
 10
111.5933201835503
 20
-23.4249999941438
 30
0.0
 10
114.8653426843599
 20
-23.4249999941438
 30
0.0
 10
118.1818069169292
 20
-23.4249999941438
 30
0.0
 10
120.9736907663289
 20
-26.07824028210864
 30
0.0
 10
121.622445309895
 20
-29.20208599632063
 30
0.0
 10
121.622445309895
 20
-29.20208599632063
 30
0.0
 10
121.6222945869675
 20
-29.20219365555454
 30
0.0
 10
121.6222945869675
 20
-29.20219365555454
 30
0.0
 10
121.6222945869675
 20
-29.20219365555454
 30
0.0
 10
122.189917131856
 20
-29.20219365555454
 30
0.0
 10
122.189917131856
 20
-29.20219365555454
 30
0.0
 10
122.189917131856
 20
-29.20219365555454
 30
0.0
 10
122.189917131856
 20
-28.50227944403311
 30
0.0
 10
122.189917131856
 20
-28.50227944403311
 30
0.0
 10
122.189917131856
 20
-28.50227944403311
 30
0.0
 10
124.5895122647196
 20
-28.50227944403311
 30
0.0
 10
124.5895122647196
 20
-28.50227944403311
 30
0.0
 10
124.5895122647196
 20
-28.50227944403311
 30
0.0
 10
124.5895122647196
 20
-31.70268163947946
 30
0.0
 10
124.5895122647196
 20
-31.70268163947946
 30
0.0
 10
124.5895122647196
 20
-31.70268163947946
 30
0.0
 10
122.189917131856
 20
-31.70268163947946
 30
0.0
 10
122.189917131856
 20
-31.70268163947946
 30
0.0
 10
122.189917131856
 20
-31.70268163947946
 30
0.0
 10
122.189917131856
 20
-31.00277281092037
 30
0.0
 10
122.189917131856
 20
-31.00277281092037
 30
0.0
 10
122.189917131856
 20
-31.00277281092037
 30
0.0
 10
121.7231928209918
 20
-31.00277281092037
 30
0.0
 10
121.7231928209918
 20
-31.00277281092037
 30
0.0
 10
121.7231928209918
 20
-31.00277281092037
 30
0.0
 10
121.7686680813971
 20
-31.00262747095266
 30
0.0
 10
121.7686680813971
 20
-31.00262747095266
 30
0.0
  0
ENDBLK
  5
168
330
165
100
AcDbEntity
  8
0
100
AcDbBlockEnd
  0
BLOCK
  5
16B
330
169
100
AcDbEntity
  8
0
100
AcDbBlockBegin
  2
block 62
 70
     0
 10
0.0
 20
0.0
 30
0.0
  3
block 62
  1

  0
SPLINE
  5
16D
330
169
100
AcDbEntity
  8
Layer 1
370
     0
100
AcDbSpline
210
0.0
220
0.0
230
1.0
 70
    11
 71
     3
 72
    17
 73
    13
 74
     0
 42
0.0000000001
 43
0.0000000001
 12
1.0
 22
0.0
 32
0.0
 13
1.0
 23
0.0
 33
0.0
 40
0.0
 40
0.0
 40
0.0
 40
0.0
 40
1.0
 40
1.0
 40
1.0
 40
2.0
 40
2.0
 40
2.0
 40
3.0
 40
3.0
 40
3.0
 40
4.0
 40
4.0
 40
4.0
 40
4.0
 10
116.3442154043878
 20
-17.43328433016423
 30
0.0
 10
116.3442154043878
 20
-18.26195308222191
 30
0.0
 10
115.65941768662
 20
-18.98253843018851
 30
0.0
 10
114.79440946422
 20
-18.98253843018851
 30
0.0
 10
113.9654455425815
 20
-18.98253843018851
 30
0.0
 10
113.2446035240516
 20
-18.29798454867212
 30
0.0
 10
113.2446035240516
 20
-17.43327883253413
 30
0.0
 10
113.2446035240516
 20
-16.60460458284667
 30
0.0
 10
113.9294012418194
 20
-15.88401923488006
 30
0.0
 10
114.79440946422
 20
-15.88401923488006
 30
0.0
 10
115.6594066874441
 20
-15.88403023013995
 30
0.0
 10
116.3442154043878
 20
-16.56858411165603
 30
0.0
 10
116.3442154043878
 20
-17.43328433016423
 30
0.0
  0
ENDBLK
  5
16C
330
169
100
AcDbEntity
  8
0
100
AcDbBlockEnd
  0
BLOCK
  5
170
330
16E
100
AcDbEntity
  8
0
100
AcDbBlockBegin
  2
block 63
 70
     0
 10
0.0
 20
0.0
 30
0.0
  3
block 63
  1

  0
SPLINE
  5
172
330
16E
100
AcDbEntity
  8
Layer 1
370
     0
100
AcDbSpline
210
0.0
220
0.0
230
1.0
 70
    11
 71
     3
 72
    17
 73
    13
 74
     0
 42
0.0000000001
 43
0.0000000001
 12
1.0
 22
0.0
 32
0.0
 13
1.0
 23
0.0
 33
0.0
 40
0.0
 40
0.0
 40
0.0
 40
0.0
 40
1.0
 40
1.0
 40
1.0
 40
2.0
 40
2.0
 40
2.0
 40
3.0
 40
3.0
 40
3.0
 40
4.0
 40
4.0
 40
4.0
 40
4.0
 10
116.3794801537317
 20
-42.82115116803243
 30
0.0
 10
116.3794801537317
 20
-43.64982286067595
 30
0.0
 10
115.6946824359639
 20
-44.37041076568617
 30
0.0
 10
114.8296742135633
 20
-44.37041076568617
 30
0.0
 10
114.0007102919248
 20
-44.37041076568617
 30
0.0
 10
113.2798682733948
 20
-43.68585445498534
 30
0.0
 10
113.2798682733948
 20
-42.82115116803243
 30
0.0
 10
113.2798682733948
 20
-41.99247947538891
 30
0.0
 10
113.9646659911626
 20
-41.27189157037805
 30
0.0
 10
114.8296742135633
 20
-41.27189157037805
 30
0.0
 10
115.6946824359639
 20
-41.27189157037805
 30
0.0
 10
116.3794801537317
 20
-41.95644788107888
 30
0.0
 10
116.3794801537317
 20
-42.82115116803243
 30
0.0
  0
ENDBLK
  5
171
330
16E
100
AcDbEntity
  8
0
100
AcDbBlockEnd
  0
BLOCK
  5
176
330
174
100
AcDbEntity
  8
0
100
AcDbBlockBegin
  2
block 64
 70
     0
 10
0.0
 20
0.0
 30
0.0
  3
block 64
  1

  0
INSERT
  5
179
330
174
100
AcDbEntity
  8
Layer 1
100
AcDbBlockReference
  2
block 65
 10
0.0
 20
0.0
 30
0.0
  0
INSERT
  5
17E
330
174
100
AcDbEntity
  8
Layer 1
100
AcDbBlockReference
  2
block 66
 10
0.0
 20
0.0
 30
0.0
  0
INSERT
  5
183
330
174
100
AcDbEntity
  8
Layer 1
100
AcDbBlockReference
  2
block 67
 10
0.0
 20
0.0
 30
0.0
  0
INSERT
  5
188
330
174
100
AcDbEntity
  8
Layer 1
100
AcDbBlockReference
  2
block 68
 10
0.0
 20
0.0
 30
0.0
  0
ENDBLK
  5
177
330
174
100
AcDbEntity
  8
0
100
AcDbBlockEnd
  0
BLOCK
  5
17A
330
178
100
AcDbEntity
  8
0
100
AcDbBlockBegin
  2
block 65
 70
     0
 10
0.0
 20
0.0
 30
0.0
  3
block 65
  1

  0
SPLINE
  5
17C
330
178
100
AcDbEntity
  8
Layer 1
370
     0
100
AcDbSpline
210
0.0
220
0.0
230
1.0
 70
    11
 71
     3
 72
    17
 73
    13
 74
     0
 42
0.0000000001
 43
0.0000000001
 12
1.0
 22
0.0
 32
0.0
 13
1.0
 23
0.0
 33
0.0
 40
0.0
 40
0.0
 40
0.0
 40
0.0
 40
1.0
 40
1.0
 40
1.0
 40
2.0
 40
2.0
 40
2.0
 40
3.0
 40
3.0
 40
3.0
 40
4.0
 40
4.0
 40
4.0
 40
4.0
 10
101.3883017271048
 20
-10.13427353940915
 30
0.0
 10
101.3883017271048
 20
-10.96294778909692
 30
0.0
 10
100.703504009337
 20
-11.68353313706353
 30
0.0
 10
99.83849578693702
 20
-11.68353313706353
 30
0.0
 10
99.00953186529851
 20
-11.68353313706353
 30
0.0
 10
98.28868984676859
 20
-10.99897925554714
 30
0.0
 10
98.28868984676859
 20
-10.13427353940915
 30
0.0
 10
98.28868984676859
 20
-9.305599289721686
 30
0.0
 10
98.97348756453704
 20
-8.58501394175508
 30
0.0
 10
99.83849578693702
 20
-8.58501394175508
 30
0.0
 10
100.703504009337
 20
-8.58501394175508
 30
0.0
 10
101.3883017271048
 20
-9.269573320901259
 30
0.0
 10
101.3883017271048
 20
-10.13427353940915
 30
0.0
  0
ENDBLK
  5
17B
330
178
100
AcDbEntity
  8
0
100
AcDbBlockEnd
  0
BLOCK
  5
17F
330
17D
100
AcDbEntity
  8
0
100
AcDbBlockBegin
  2
block 66
 70
     0
 10
0.0
 20
0.0
 30
0.0
  3
block 66
  1

  0
SPLINE
  5
181
330
17D
100
AcDbEntity
  8
Layer 1
370
     0
100
AcDbSpline
210
0.0
220
0.0
230
1.0
 70
    11
 71
     3
 72
    17
 73
    13
 74
     0
 42
0.0000000001
 43
0.0000000001
 12
1.0
 22
0.0
 32
0.0
 13
1.0
 23
0.0
 33
0.0
 40
0.0
 40
0.0
 40
0.0
 40
0.0
 40
1.0
 40
1.0
 40
1.0
 40
2.0
 40
2.0
 40
2.0
 40
3.0
 40
3.0
 40
3.0
 40
4.0
 40
4.0
 40
4.0
 40
4.0
 10
131.405934094277
 20
-10.13427353940915
 30
0.0
 10
131.405934094277
 20
-10.96294778909692
 30
0.0
 10
130.7211363765092
 20
-11.68353313706353
 30
0.0
 10
129.8561281541085
 20
-11.68353313706353
 30
0.0
 10
129.0271642324701
 20
-11.68353313706353
 30
0.0
 10
128.3063222139401
 20
-10.99897925554714
 30
0.0
 10
128.3063222139401
 20
-10.13427353940915
 30
0.0
 10
128.3063222139401
 20
-9.305599289721686
 30
0.0
 10
128.9911199317079
 20
-8.58501394175508
 30
0.0
 10
129.8561281541085
 20
-8.58501394175508
 30
0.0
 10
130.7211363765092
 20
-8.58501394175508
 30
0.0
 10
131.405934094277
 20
-9.269573320901259
 30
0.0
 10
131.405934094277
 20
-10.13427353940915
 30
0.0
  0
ENDBLK
  5
180
330
17D
100
AcDbEntity
  8
0
100
AcDbBlockEnd
  0
BLOCK
  5
184
330
182
100
AcDbEntity
  8
0
100
AcDbBlockBegin
  2
block 67
 70
     0
 10
0.0
 20
0.0
 30
0.0
  3
block 67
  1

  0
SPLINE
  5
186
330
182
100
AcDbEntity
  8
Layer 1
370
     0
100
AcDbSpline
210
0.0
220
0.0
230
1.0
 70
    11
 71
     3
 72
    17
 73
    13
 74
     0
 42
0.0000000001
 43
0.0000000001
 12
1.0
 22
0.0
 32
0.0
 13
1.0
 23
0.0
 33
0.0
 40
0.0
 40
0.0
 40
0.0
 40
0.0
 40
1.0
 40
1.0
 40
1.0
 40
2.0
 40
2.0
 40
2.0
 40
3.0
 40
3.0
 40
3.0
 40
4.0
 40
4.0
 40
4.0
 40
4.0
 10
101.3883017271048
 20
-50.12016722193791
 30
0.0
 10
101.3883017271048
 20
-50.94883891458143
 30
0.0
 10
100.703504009337
 20
-51.6694268195923
 30
0.0
 10
99.83849578693702
 20
-51.6694268195923
 30
0.0
 10
99.00953186529851
 20
-51.6694268195923
 30
0.0
 10
98.28868984676859
 20
-50.98487050889146
 30
0.0
 10
98.28868984676859
 20
-50.12016722193791
 30
0.0
 10
98.28868984676859
 20
-49.29149552929503
 30
0.0
 10
98.97348756453704
 20
-48.57090762428417
 30
0.0
 10
99.83849578693702
 20
-48.57090762428417
 30
0.0
 10
100.703504009337
 20
-48.57089662898545
 30
0.0
 10
101.3883017271048
 20
-49.255463934985
 30
0.0
 10
101.3883017271048
 20
-50.12016722193791
 30
0.0
  0
ENDBLK
  5
185
330
182
100
AcDbEntity
  8
0
100
AcDbBlockEnd
  0
BLOCK
  5
189
330
187
100
AcDbEntity
  8
0
100
AcDbBlockBegin
  2
block 68
 70
     0
 10
0.0
 20
0.0
 30
0.0
  3
block 68
  1

  0
SPLINE
  5
18B
330
187
100
AcDbEntity
  8
Layer 1
370
     0
100
AcDbSpline
210
0.0
220
0.0
230
1.0
 70
    11
 71
     3
 72
    17
 73
    13
 74
     0
 42
0.0000000001
 43
0.0000000001
 12
1.0
 22
0.0
 32
0.0
 13
1.0
 23
0.0
 33
0.0
 40
0.0
 40
0.0
 40
0.0
 40
0.0
 40
1.0
 40
1.0
 40
1.0
 40
2.0
 40
2.0
 40
2.0
 40
3.0
 40
3.0
 40
3.0
 40
4.0
 40
4.0
 40
4.0
 40
4.0
 10
131.405934094277
 20
-50.12016722193791
 30
0.0
 10
131.405934094277
 20
-50.94883891458143
 30
0.0
 10
130.7211363765092
 20
-51.6694268195923
 30
0.0
 10
129.8561281541085
 20
-51.6694268195923
 30
0.0
 10
129.0271642324701
 20
-51.6694268195923
 30
0.0
 10
128.3063222139401
 20
-50.98487050889146
 30
0.0
 10
128.3063222139401
 20
-50.12016722193791
 30
0.0
 10
128.3063222139401
 20
-49.29149552929503
 30
0.0
 10
128.9911199317079
 20
-48.57090762428417
 30
0.0
 10
129.8561281541085
 20
-48.57090762428417
 30
0.0
 10
130.7211363765092
 20
-48.57089662898545
 30
0.0
 10
131.405934094277
 20
-49.255463934985
 30
0.0
 10
131.405934094277
 20
-50.12016722193791
 30
0.0
  0
ENDBLK
  5
18A
330
187
100
AcDbEntity
  8
0
100
AcDbBlockEnd
  0
BLOCK
  5
18F
330
18D
100
AcDbEntity
  8
0
100
AcDbBlockBegin
  2
block 69
 70
     0
 10
0.0
 20
0.0
 30
0.0
  3
block 69
  1

  0
INSERT
  5
192
330
18D
100
AcDbEntity
  8
Layer 1
100
AcDbBlockReference
  2
block 70
 10
0.0
 20
0.0
 30
0.0
  0
INSERT
  5
197
330
18D
100
AcDbEntity
  8
Layer 1
100
AcDbBlockReference
  2
block 71
 10
0.0
 20
0.0
 30
0.0
  0
SPLINE
  5
19B
330
18D
100
AcDbEntity
  8
Layer 1
370
     0
100
AcDbSpline
210
0.0
220
0.0
230
1.0
 70
    11
 71
     3
 72
    32
 73
    28
 74
     0
 42
0.0000000001
 43
0.0000000001
 12
1.0
 22
0.0
 32
0.0
 13
1.0
 23
0.0
 33
0.0
 40
0.0
 40
0.0
 40
0.0
 40
0.0
 40
1.0
 40
1.0
 40
1.0
 40
2.0
 40
2.0
 40
2.0
 40
3.0
 40
3.0
 40
3.0
 40
4.0
 40
4.0
 40
4.0
 40
5.0
 40
5.0
 40
5.0
 40
6.0
 40
6.0
 40
6.0
 40
7.0
 40
7.0
 40
7.0
 40
8.0
 40
8.0
 40
8.0
 40
9.0
 40
9.0
 40
9.0
 40
9.0
 10
89.86493896915702
 20
-50.64908111683639
 30
0.0
 10
89.86493896915702
 20
-53.11734595969384
 30
0.0
 10
87.96017962786519
 20
-55.12722306461898
 30
0.0
 10
85.5968601347787
 20
-55.12722306461898
 30
0.0
 10
85.5968601347787
 20
-55.12722306461898
 30
0.0
 10
54.13302857811064
 20
-55.12722306461898
 30
0.0
 10
54.13302857811064
 20
-55.12722306461898
 30
0.0
 10
51.76970908502351
 20
-55.12722306461898
 30
0.0
 10
49.86494974373232
 20
-53.11734595969384
 30
0.0
 10
49.86494974373232
 20
-50.64908111683639
 30
0.0
 10
49.86494974373232
 20
-50.64908111683639
 30
0.0
 10
49.86494974373232
 20
-9.605359644511303
 30
0.0
 10
49.86494974373232
 20
-9.605359644511303
 30
0.0
 10
49.86494974373232
 20
-7.137094801653538
 30
0.0
 10
51.76970908502351
 20
-5.127223077118799
 30
0.0
 10
54.13302857811064
 20
-5.127223077118799
 30
0.0
 10
54.13302857811064
 20
-5.127223077118799
 30
0.0
 10
85.59687089935387
 20
-5.127223077118799
 30
0.0
 10
85.59687089935387
 20
-5.127223077118799
 30
0.0
 10
87.96019039244102
 20
-5.127223077118799
 30
0.0
 10
89.8649497337322
 20
-7.137094801653538
 30
0.0
 10
89.8649497337322
 20
-9.605359644511303
 30
0.0
 10
89.8649497337322
 20
-9.605359644511303
 30
0.0
 10
89.8649497337322
 20
-50.64908111683639
 30
0.0
 10
89.8649497337322
 20
-50.64908111683639
 30
0.0
 10
89.8649497337322
 20
-50.64908111683639
 30
0.0
 10
89.86493896915702
 20
-50.64908111683639
 30
0.0
 10
89.86493896915702
 20
-50.64908111683639
 30
0.0
  0
INSERT
  5
19D
330
18D
100
AcDbEntity
  8
Layer 1
100
AcDbBlockReference
  2
block 72
 10
0.0
 20
0.0
 30
0.0
  0
SPLINE
  5
1B4
330
18D
100
AcDbEntity
  8
Layer 1
370
     0
100
AcDbSpline
210
0.0
220
0.0
230
1.0
 70
    11
 71
     3
 72
    71
 73
    67
 74
     0
 42
0.0000000001
 43
0.0000000001
 12
1.0
 22
0.0
 32
0.0
 13
1.0
 23
0.0
 33
0.0
 40
0.0
 40
0.0
 40
0.0
 40
0.0
 40
1.0
 40
1.0
 40
1.0
 40
2.0
 40
2.0
 40
2.0
 40
3.0
 40
3.0
 40
3.0
 40
4.0
 40
4.0
 40
4.0
 40
5.0
 40
5.0
 40
5.0
 40
6.0
 40
6.0
 40
6.0
 40
7.0
 40
7.0
 40
7.0
 40
8.0
 40
8.0
 40
8.0
 40
9.0
 40
9.0
 40
9.0
 40
10.0
 40
10.0
 40
10.0
 40
11.0
 40
11.0
 40
11.0
 40
12.0
 40
12.0
 40
12.0
 40
13.0
 40
13.0
 40
13.0
 40
14.0
 40
14.0
 40
14.0
 40
15.0
 40
15.0
 40
15.0
 40
16.0
 40
16.0
 40
16.0
 40
17.0
 40
17.0
 40
17.0
 40
18.0
 40
18.0
 40
18.0
 40
19.0
 40
19.0
 40
19.0
 40
20.0
 40
20.0
 40
20.0
 40
21.0
 40
21.0
 40
21.0
 40
22.0
 40
22.0
 40
22.0
 40
22.0
 10
76.76866809264702
 20
-31.00262747095266
 30
0.0
 10
76.32063342479027
 20
-34.3667201486062
 30
0.0
 10
73.35167166744876
 20
-37.17518352002993
 30
0.0
 10
69.86517044083557
 20
-37.17518352002993
 30
0.0
 10
66.37866921422238
 20
-37.17518352002993
 30
0.0
 10
63.49964598089266
 20
-34.36742531658962
 30
0.0
 10
63.05090076209208
 20
-31.00333263893544
 30
0.0
 10
63.05090076209208
 20
-31.00333263893544
 30
0.0
 10
63.05079310285817
 20
-31.00330034116719
 30
0.0
 10
63.05079310285817
 20
-31.00330034116719
 30
0.0
 10
63.05079310285817
 20
-31.00330034116719
 30
0.0
 10
62.54068212072659
 20
-31.00259517318377
 30
0.0
 10
62.54068212072659
 20
-31.00259517318377
 30
0.0
 10
62.54068212072659
 20
-31.00259517318377
 30
0.0
 10
62.54068212072659
 20
-31.70250400174286
 30
0.0
 10
62.54068212072659
 20
-31.70250400174286
 30
0.0
 10
62.54068212072659
 20
-31.70250400174286
 30
0.0
 10
60.14037643691911
 20
-31.70250400174286
 30
0.0
 10
60.14037643691911
 20
-31.70250400174286
 30
0.0
 10
60.14037643691911
 20
-31.70250400174286
 30
0.0
 10
60.14037643691911
 20
-28.50210718925885
 30
0.0
 10
60.14037643691911
 20
-28.50210718925885
 30
0.0
 10
60.14037643691911
 20
-28.50210718925885
 30
0.0
 10
62.57067598329504
 20
-28.50210718925885
 30
0.0
 10
62.57067598329504
 20
-28.50210718925885
 30
0.0
 10
62.57067598329504
 20
-28.50210718925885
 30
0.0
 10
62.57102049284357
 20
-29.20342635378093
 30
0.0
 10
62.57102049284357
 20
-29.20342635378093
 30
0.0
 10
62.57102049284357
 20
-29.20342635378093
 30
0.0
 10
63.21236808111639
 20
-29.20307646127007
 30
0.0
 10
63.21236808111639
 20
-29.20307646127007
 30
0.0
 10
63.21236808111639
 20
-29.20307646127007
 30
0.0
 10
63.21230348557604
 20
-29.20314643977339
 30
0.0
 10
63.21230348557604
 20
-29.20314643977339
 30
0.0
 10
63.90657635324101
 20
-26.14032736230816
 30
0.0
 10
66.59332019480023
 20
-23.4249999941438
 30
0.0
 10
69.86534269560983
 20
-23.4249999941438
 30
0.0
 10
73.18180692817916
 20
-23.4249999941438
 30
0.0
 10
75.97369077757884
 20
-26.07824028210864
 30
0.0
 10
76.62244532114495
 20
-29.20208599632063
 30
0.0
 10
76.62244532114495
 20
-29.20208599632063
 30
0.0
 10
76.62229459821747
 20
-29.20219365555454
 30
0.0
 10
76.62229459821747
 20
-29.20219365555454
 30
0.0
 10
76.62229459821747
 20
-29.20219365555454
 30
0.0
 10
77.18991714310594
 20
-29.20219365555454
 30
0.0
 10
77.18991714310594
 20
-29.20219365555454
 30
0.0
 10
77.18991714310594
 20
-29.20219365555454
 30
0.0
 10
77.18991714310594
 20
-28.50227944403311
 30
0.0
 10
77.18991714310594
 20
-28.50227944403311
 30
0.0
 10
77.18991714310594
 20
-28.50227944403311
 30
0.0
 10
79.58951227596958
 20
-28.50227944403311
 30
0.0
 10
79.58951227596958
 20
-28.50227944403311
 30
0.0
 10
79.58951227596958
 20
-28.50227944403311
 30
0.0
 10
79.58951227596958
 20
-31.70268163947946
 30
0.0
 10
79.58951227596958
 20
-31.70268163947946
 30
0.0
 10
79.58951227596958
 20
-31.70268163947946
 30
0.0
 10
77.18991714310594
 20
-31.70268163947946
 30
0.0
 10
77.18991714310594
 20
-31.70268163947946
 30
0.0
 10
77.18991714310594
 20
-31.70268163947946
 30
0.0
 10
77.18991714310594
 20
-31.00277281092037
 30
0.0
 10
77.18991714310594
 20
-31.00277281092037
 30
0.0
 10
77.18991714310594
 20
-31.00277281092037
 30
0.0
 10
76.72319283224172
 20
-31.00277281092037
 30
0.0
 10
76.72319283224172
 20
-31.00277281092037
 30
0.0
 10
76.72319283224172
 20
-31.00277281092037
 30
0.0
 10
76.76866809264702
 20
-31.00262747095266
 30
0.0
 10
76.76866809264702
 20
-31.00262747095266
 30
0.0
  0
ENDBLK
  5
190
330
18D
100
AcDbEntity
  8
0
100
AcDbBlockEnd
  0
BLOCK
  5
193
330
191
100
AcDbEntity
  8
0
100
AcDbBlockBegin
  2
block 70
 70
     0
 10
0.0
 20
0.0
 30
0.0
  3
block 70
  1

  0
SPLINE
  5
195
330
191
100
AcDbEntity
  8
Layer 1
370
     0
100
AcDbSpline
210
0.0
220
0.0
230
1.0
 70
    11
 71
     3
 72
    17
 73
    13
 74
     0
 42
0.0000000001
 43
0.0000000001
 12
1.0
 22
0.0
 32
0.0
 13
1.0
 23
0.0
 33
0.0
 40
0.0
 40
0.0
 40
0.0
 40
0.0
 40
1.0
 40
1.0
 40
1.0
 40
2.0
 40
2.0
 40
2.0
 40
3.0
 40
3.0
 40
3.0
 40
4.0
 40
4.0
 40
4.0
 40
4.0
 10
71.34421541563778
 20
-17.43328433016423
 30
0.0
 10
71.34421541563778
 20
-18.26195308222191
 30
0.0
 10
70.65941769786997
 20
-18.98253843018851
 30
0.0
 10
69.79440947546999
 20
-18.98253843018851
 30
0.0
 10
68.9654455538315
 20
-18.98253843018851
 30
0.0
 10
68.24460353530156
 20
-18.29798454867212
 30
0.0
 10
68.24460353530156
 20
-17.43327883253413
 30
0.0
 10
68.24460353530156
 20
-16.60460458284667
 30
0.0
 10
68.92940125306939
 20
-15.88401923488006
 30
0.0
 10
69.79440947546999
 20
-15.88401923488006
 30
0.0
 10
70.65940669869411
 20
-15.88403023013995
 30
0.0
 10
71.34421541563778
 20
-16.56858411165603
 30
0.0
 10
71.34421541563778
 20
-17.43328433016423
 30
0.0
  0
ENDBLK
  5
194
330
191
100
AcDbEntity
  8
0
100
AcDbBlockEnd
  0
BLOCK
  5
198
330
196
100
AcDbEntity
  8
0
100
AcDbBlockBegin
  2
block 71
 70
     0
 10
0.0
 20
0.0
 30
0.0
  3
block 71
  1

  0
SPLINE
  5
19A
330
196
100
AcDbEntity
  8
Layer 1
370
     0
100
AcDbSpline
210
0.0
220
0.0
230
1.0
 70
    11
 71
     3
 72
    17
 73
    13
 74
     0
 42
0.0000000001
 43
0.0000000001
 12
1.0
 22
0.0
 32
0.0
 13
1.0
 23
0.0
 33
0.0
 40
0.0
 40
0.0
 40
0.0
 40
0.0
 40
1.0
 40
1.0
 40
1.0
 40
2.0
 40
2.0
 40
2.0
 40
3.0
 40
3.0
 40
3.0
 40
4.0
 40
4.0
 40
4.0
 40
4.0
 10
71.37948016498164
 20
-42.82115116803243
 30
0.0
 10
71.37948016498164
 20
-43.64982286067595
 30
0.0
 10
70.69468244721382
 20
-44.37041076568617
 30
0.0
 10
69.82967422481322
 20
-44.37041076568617
 30
0.0
 10
69.00071030317471
 20
-44.37041076568617
 30
0.0
 10
68.27986828464479
 20
-43.68585445498534
 30
0.0
 10
68.27986828464479
 20
-42.82115116803243
 30
0.0
 10
68.27986828464479
 20
-41.99247947538891
 30
0.0
 10
68.9646660024126
 20
-41.27189157037805
 30
0.0
 10
69.82967422481322
 20
-41.27189157037805
 30
0.0
 10
70.69468244721382
 20
-41.27189157037805
 30
0.0
 10
71.37948016498164
 20
-41.95644788107888
 30
0.0
 10
71.37948016498164
 20
-42.82115116803243
 30
0.0
  0
ENDBLK
  5
199
330
196
100
AcDbEntity
  8
0
100
AcDbBlockEnd
  0
BLOCK
  5
19E
330
19C
100
AcDbEntity
  8
0
100
AcDbBlockBegin
  2
block 72
 70
     0
 10
0.0
 20
0.0
 30
0.0
  3
block 72
  1

  0
INSERT
  5
1A1
330
19C
100
AcDbEntity
  8
Layer 1
100
AcDbBlockReference
  2
block 73
 10
0.0
 20
0.0
 30
0.0
  0
INSERT
  5
1A6
330
19C
100
AcDbEntity
  8
Layer 1
100
AcDbBlockReference
  2
block 74
 10
0.0
 20
0.0
 30
0.0
  0
INSERT
  5
1AB
330
19C
100
AcDbEntity
  8
Layer 1
100
AcDbBlockReference
  2
block 75
 10
0.0
 20
0.0
 30
0.0
  0
INSERT
  5
1B0
330
19C
100
AcDbEntity
  8
Layer 1
100
AcDbBlockReference
  2
block 76
 10
0.0
 20
0.0
 30
0.0
  0
ENDBLK
  5
19F
330
19C
100
AcDbEntity
  8
0
100
AcDbBlockEnd
  0
BLOCK
  5
1A2
330
1A0
100
AcDbEntity
  8
0
100
AcDbBlockBegin
  2
block 73
 70
     0
 10
0.0
 20
0.0
 30
0.0
  3
block 73
  1

  0
SPLINE
  5
1A4
330
1A0
100
AcDbEntity
  8
Layer 1
370
     0
100
AcDbSpline
210
0.0
220
0.0
230
1.0
 70
    11
 71
     3
 72
    17
 73
    13
 74
     0
 42
0.0000000001
 43
0.0000000001
 12
1.0
 22
0.0
 32
0.0
 13
1.0
 23
0.0
 33
0.0
 40
0.0
 40
0.0
 40
0.0
 40
0.0
 40
1.0
 40
1.0
 40
1.0
 40
2.0
 40
2.0
 40
2.0
 40
3.0
 40
3.0
 40
3.0
 40
4.0
 40
4.0
 40
4.0
 40
4.0
 10
56.38830173835476
 20
-10.13427353940915
 30
0.0
 10
56.38830173835476
 20
-10.96294778909692
 30
0.0
 10
55.70350402058695
 20
-11.68353313706353
 30
0.0
 10
54.83849579818698
 20
-11.68353313706353
 30
0.0
 10
54.00953187654848
 20
-11.68353313706353
 30
0.0
 10
53.28868985801855
 20
-10.99897925554714
 30
0.0
 10
53.28868985801855
 20
-10.13427353940915
 30
0.0
 10
53.28868985801855
 20
-9.305599289721686
 30
0.0
 10
53.973487575787
 20
-8.58501394175508
 30
0.0
 10
54.83849579818698
 20
-8.58501394175508
 30
0.0
 10
55.70350402058695
 20
-8.58501394175508
 30
0.0
 10
56.38830173835476
 20
-9.269573320901259
 30
0.0
 10
56.38830173835476
 20
-10.13427353940915
 30
0.0
  0
ENDBLK
  5
1A3
330
1A0
100
AcDbEntity
  8
0
100
AcDbBlockEnd
  0
BLOCK
  5
1A7
330
1A5
100
AcDbEntity
  8
0
100
AcDbBlockBegin
  2
block 74
 70
     0
 10
0.0
 20
0.0
 30
0.0
  3
block 74
  1

  0
SPLINE
  5
1A9
330
1A5
100
AcDbEntity
  8
Layer 1
370
     0
100
AcDbSpline
210
0.0
220
0.0
230
1.0
 70
    11
 71
     3
 72
    17
 73
    13
 74
     0
 42
0.0000000001
 43
0.0000000001
 12
1.0
 22
0.0
 32
0.0
 13
1.0
 23
0.0
 33
0.0
 40
0.0
 40
0.0
 40
0.0
 40
0.0
 40
1.0
 40
1.0
 40
1.0
 40
2.0
 40
2.0
 40
2.0
 40
3.0
 40
3.0
 40
3.0
 40
4.0
 40
4.0
 40
4.0
 40
4.0
 10
86.40593410552692
 20
-10.13427353940915
 30
0.0
 10
86.40593410552692
 20
-10.96294778909692
 30
0.0
 10
85.72113638775912
 20
-11.68353313706353
 30
0.0
 10
84.8561281653585
 20
-11.68353313706353
 30
0.0
 10
84.02716424372001
 20
-11.68353313706353
 30
0.0
 10
83.30632222519007
 20
-10.99897925554714
 30
0.0
 10
83.30632222519007
 20
-10.13427353940915
 30
0.0
 10
83.30632222519007
 20
-9.305599289721686
 30
0.0
 10
83.9911199429579
 20
-8.58501394175508
 30
0.0
 10
84.8561281653585
 20
-8.58501394175508
 30
0.0
 10
85.72113638775912
 20
-8.58501394175508
 30
0.0
 10
86.40593410552692
 20
-9.269573320901259
 30
0.0
 10
86.40593410552692
 20
-10.13427353940915
 30
0.0
  0
ENDBLK
  5
1A8
330
1A5
100
AcDbEntity
  8
0
100
AcDbBlockEnd
  0
BLOCK
  5
1AC
330
1AA
100
AcDbEntity
  8
0
100
AcDbBlockBegin
  2
block 75
 70
     0
 10
0.0
 20
0.0
 30
0.0
  3
block 75
  1

  0
SPLINE
  5
1AE
330
1AA
100
AcDbEntity
  8
Layer 1
370
     0
100
AcDbSpline
210
0.0
220
0.0
230
1.0
 70
    11
 71
     3
 72
    17
 73
    13
 74
     0
 42
0.0000000001
 43
0.0000000001
 12
1.0
 22
0.0
 32
0.0
 13
1.0
 23
0.0
 33
0.0
 40
0.0
 40
0.0
 40
0.0
 40
0.0
 40
1.0
 40
1.0
 40
1.0
 40
2.0
 40
2.0
 40
2.0
 40
3.0
 40
3.0
 40
3.0
 40
4.0
 40
4.0
 40
4.0
 40
4.0
 10
56.38830173835476
 20
-50.12016722193791
 30
0.0
 10
56.38830173835476
 20
-50.94883891458143
 30
0.0
 10
55.70350402058695
 20
-51.6694268195923
 30
0.0
 10
54.83849579818698
 20
-51.6694268195923
 30
0.0
 10
54.00953187654848
 20
-51.6694268195923
 30
0.0
 10
53.28868985801855
 20
-50.98487050889146
 30
0.0
 10
53.28868985801855
 20
-50.12016722193791
 30
0.0
 10
53.28868985801855
 20
-49.29149552929503
 30
0.0
 10
53.973487575787
 20
-48.57090762428417
 30
0.0
 10
54.83849579818698
 20
-48.57090762428417
 30
0.0
 10
55.70350402058695
 20
-48.57089662898545
 30
0.0
 10
56.38830173835476
 20
-49.255463934985
 30
0.0
 10
56.38830173835476
 20
-50.12016722193791
 30
0.0
  0
ENDBLK
  5
1AD
330
1AA
100
AcDbEntity
  8
0
100
AcDbBlockEnd
  0
BLOCK
  5
1B1
330
1AF
100
AcDbEntity
  8
0
100
AcDbBlockBegin
  2
block 76
 70
     0
 10
0.0
 20
0.0
 30
0.0
  3
block 76
  1

  0
SPLINE
  5
1B3
330
1AF
100
AcDbEntity
  8
Layer 1
370
     0
100
AcDbSpline
210
0.0
220
0.0
230
1.0
 70
    11
 71
     3
 72
    17
 73
    13
 74
     0
 42
0.0000000001
 43
0.0000000001
 12
1.0
 22
0.0
 32
0.0
 13
1.0
 23
0.0
 33
0.0
 40
0.0
 40
0.0
 40
0.0
 40
0.0
 40
1.0
 40
1.0
 40
1.0
 40
2.0
 40
2.0
 40
2.0
 40
3.0
 40
3.0
 40
3.0
 40
4.0
 40
4.0
 40
4.0
 40
4.0
 10
86.40593410552692
 20
-50.12016722193791
 30
0.0
 10
86.40593410552692
 20
-50.94883891458143
 30
0.0
 10
85.72113638775912
 20
-51.6694268195923
 30
0.0
 10
84.8561281653585
 20
-51.6694268195923
 30
0.0
 10
84.02716424372001
 20
-51.6694268195923
 30
0.0
 10
83.30632222519007
 20
-50.98487050889146
 30
0.0
 10
83.30632222519007
 20
-50.12016722193791
 30
0.0
 10
83.30632222519007
 20
-49.29149552929503
 30
0.0
 10
83.9911199429579
 20
-48.57090762428417
 30
0.0
 10
84.8561281653585
 20
-48.57090762428417
 30
0.0
 10
85.72113638775912
 20
-48.57089662898545
 30
0.0
 10
86.40593410552692
 20
-49.255463934985
 30
0.0
 10
86.40593410552692
 20
-50.12016722193791
 30
0.0
  0
ENDBLK
  5
1B2
330
1AF
100
AcDbEntity
  8
0
100
AcDbBlockEnd
  0
BLOCK
  5
1B7
330
1B5
100
AcDbEntity
  8
0
100
AcDbBlockBegin
  2
block 77
 70
     0
 10
0.0
 20
0.0
 30
0.0
  3
block 77
  1

  0
INSERT
  5
1BA
330
1B5
100
AcDbEntity
  8
Layer 1
100
AcDbBlockReference
  2
block 78
 10
0.0
 20
0.0
 30
0.0
  0
INSERT
  5
1BF
330
1B5
100
AcDbEntity
  8
Layer 1
100
AcDbBlockReference
  2
block 79
 10
0.0
 20
0.0
 30
0.0
  0
SPLINE
  5
1C3
330
1B5
100
AcDbEntity
  8
Layer 1
370
     0
100
AcDbSpline
210
0.0
220
0.0
230
1.0
 70
    11
 71
     3
 72
    32
 73
    28
 74
     0
 42
0.0000000001
 43
0.0000000001
 12
1.0
 22
0.0
 32
0.0
 13
1.0
 23
0.0
 33
0.0
 40
0.0
 40
0.0
 40
0.0
 40
0.0
 40
1.0
 40
1.0
 40
1.0
 40
2.0
 40
2.0
 40
2.0
 40
3.0
 40
3.0
 40
3.0
 40
4.0
 40
4.0
 40
4.0
 40
5.0
 40
5.0
 40
5.0
 40
6.0
 40
6.0
 40
6.0
 40
7.0
 40
7.0
 40
7.0
 40
8.0
 40
8.0
 40
8.0
 40
9.0
 40
9.0
 40
9.0
 40
9.0
 10
44.86493898040699
 20
-50.64908111683639
 30
0.0
 10
44.86493898040699
 20
-53.11734595969384
 30
0.0
 10
42.96017963911515
 20
-55.12722306461898
 30
0.0
 10
40.59686014602866
 20
-55.12722306461898
 30
0.0
 10
40.59686014602866
 20
-55.12722306461898
 30
0.0
 10
9.133028589360602
 20
-55.12722306461898
 30
0.0
 10
9.133028589360602
 20
-55.12722306461898
 30
0.0
 10
6.769709096273468
 20
-55.12722306461898
 30
0.0
 10
4.864949754982278
 20
-53.11734595969384
 30
0.0
 10
4.864949754982278
 20
-50.64908111683639
 30
0.0
 10
4.864949754982278
 20
-50.64908111683639
 30
0.0
 10
4.864949754982278
 20
-9.605359644511303
 30
0.0
 10
4.864949754982278
 20
-9.605359644511303
 30
0.0
 10
4.864949754982278
 20
-7.137094801653538
 30
0.0
 10
6.769709096273468
 20
-5.127223077118799
 30
0.0
 10
9.133028589360602
 20
-5.127223077118799
 30
0.0
 10
9.133028589360602
 20
-5.127223077118799
 30
0.0
 10
40.59687091060384
 20
-5.127223077118799
 30
0.0
 10
40.59687091060384
 20
-5.127223077118799
 30
0.0
 10
42.96019040369098
 20
-5.127223077118799
 30
0.0
 10
44.86494974498217
 20
-7.137094801653538
 30
0.0
 10
44.86494974498217
 20
-9.605359644511303
 30
0.0
 10
44.86494974498217
 20
-9.605359644511303
 30
0.0
 10
44.86494974498217
 20
-50.64908111683639
 30
0.0
 10
44.86494974498217
 20
-50.64908111683639
 30
0.0
 10
44.86494974498217
 20
-50.64908111683639
 30
0.0
 10
44.86493898040699
 20
-50.64908111683639
 30
0.0
 10
44.86493898040699
 20
-50.64908111683639
 30
0.0
  0
INSERT
  5
1C5
330
1B5
100
AcDbEntity
  8
Layer 1
100
AcDbBlockReference
  2
block 80
 10
0.0
 20
0.0
 30
0.0
  0
SPLINE
  5
1DC
330
1B5
100
AcDbEntity
  8
Layer 1
370
     0
100
AcDbSpline
210
0.0
220
0.0
230
1.0
 70
    11
 71
     3
 72
    71
 73
    67
 74
     0
 42
0.0000000001
 43
0.0000000001
 12
1.0
 22
0.0
 32
0.0
 13
1.0
 23
0.0
 33
0.0
 40
0.0
 40
0.0
 40
0.0
 40
0.0
 40
1.0
 40
1.0
 40
1.0
 40
2.0
 40
2.0
 40
2.0
 40
3.0
 40
3.0
 40
3.0
 40
4.0
 40
4.0
 40
4.0
 40
5.0
 40
5.0
 40
5.0
 40
6.0
 40
6.0
 40
6.0
 40
7.0
 40
7.0
 40
7.0
 40
8.0
 40
8.0
 40
8.0
 40
9.0
 40
9.0
 40
9.0
 40
10.0
 40
10.0
 40
10.0
 40
11.0
 40
11.0
 40
11.0
 40
12.0
 40
12.0
 40
12.0
 40
13.0
 40
13.0
 40
13.0
 40
14.0
 40
14.0
 40
14.0
 40
15.0
 40
15.0
 40
15.0
 40
16.0
 40
16.0
 40
16.0
 40
17.0
 40
17.0
 40
17.0
 40
18.0
 40
18.0
 40
18.0
 40
19.0
 40
19.0
 40
19.0
 40
20.0
 40
20.0
 40
20.0
 40
21.0
 40
21.0
 40
21.0
 40
22.0
 40
22.0
 40
22.0
 40
22.0
 10
31.76866810389698
 20
-31.00262747095266
 30
0.0
 10
31.32063343604024
 20
-34.3667201486062
 30
0.0
 10
28.35167167869871
 20
-37.17518352002993
 30
0.0
 10
24.86517045208553
 20
-37.17518352002993
 30
0.0
 10
21.37866922547235
 20
-37.17518352002993
 30
0.0
 10
18.49964599214263
 20
-34.36742531658962
 30
0.0
 10
18.05090077334205
 20
-31.00333263893544
 30
0.0
 10
18.05090077334205
 20
-31.00333263893544
 30
0.0
 10
18.05079311410814
 20
-31.00330034116719
 30
0.0
 10
18.05079311410814
 20
-31.00330034116719
 30
0.0
 10
18.05079311410814
 20
-31.00330034116719
 30
0.0
 10
17.54068213197655
 20
-31.00259517318377
 30
0.0
 10
17.54068213197655
 20
-31.00259517318377
 30
0.0
 10
17.54068213197655
 20
-31.00259517318377
 30
0.0
 10
17.54068213197655
 20
-31.70250400174286
 30
0.0
 10
17.54068213197655
 20
-31.70250400174286
 30
0.0
 10
17.54068213197655
 20
-31.70250400174286
 30
0.0
 10
15.14037644816907
 20
-31.70250400174286
 30
0.0
 10
15.14037644816907
 20
-31.70250400174286
 30
0.0
 10
15.14037644816907
 20
-31.70250400174286
 30
0.0
 10
15.14037644816907
 20
-28.50210718925885
 30
0.0
 10
15.14037644816907
 20
-28.50210718925885
 30
0.0
 10
15.14037644816907
 20
-28.50210718925885
 30
0.0
 10
17.57067599454501
 20
-28.50210718925885
 30
0.0
 10
17.57067599454501
 20
-28.50210718925885
 30
0.0
 10
17.57067599454501
 20
-28.50210718925885
 30
0.0
 10
17.57102050409353
 20
-29.20342635378093
 30
0.0
 10
17.57102050409353
 20
-29.20342635378093
 30
0.0
 10
17.57102050409353
 20
-29.20342635378093
 30
0.0
 10
18.21236809236635
 20
-29.20307646127007
 30
0.0
 10
18.21236809236635
 20
-29.20307646127007
 30
0.0
 10
18.21236809236635
 20
-29.20307646127007
 30
0.0
 10
18.212303496826
 20
-29.20314643977339
 30
0.0
 10
18.212303496826
 20
-29.20314643977339
 30
0.0
 10
18.90657636449098
 20
-26.14032736230816
 30
0.0
 10
21.59332020605019
 20
-23.4249999941438
 30
0.0
 10
24.86534270685979
 20
-23.4249999941438
 30
0.0
 10
28.18180693942912
 20
-23.4249999941438
 30
0.0
 10
30.9736907888288
 20
-26.07824028210864
 30
0.0
 10
31.62244533239491
 20
-29.20208599632063
 30
0.0
 10
31.62244533239491
 20
-29.20208599632063
 30
0.0
 10
31.62229460946743
 20
-29.20219365555454
 30
0.0
 10
31.62229460946743
 20
-29.20219365555454
 30
0.0
 10
31.62229460946743
 20
-29.20219365555454
 30
0.0
 10
32.1899171543559
 20
-29.20219365555454
 30
0.0
 10
32.1899171543559
 20
-29.20219365555454
 30
0.0
 10
32.1899171543559
 20
-29.20219365555454
 30
0.0
 10
32.1899171543559
 20
-28.50227944403311
 30
0.0
 10
32.1899171543559
 20
-28.50227944403311
 30
0.0
 10
32.1899171543559
 20
-28.50227944403311
 30
0.0
 10
34.58951228721955
 20
-28.50227944403311
 30
0.0
 10
34.58951228721955
 20
-28.50227944403311
 30
0.0
 10
34.58951228721955
 20
-28.50227944403311
 30
0.0
 10
34.58951228721955
 20
-31.70268163947946
 30
0.0
 10
34.58951228721955
 20
-31.70268163947946
 30
0.0
 10
34.58951228721955
 20
-31.70268163947946
 30
0.0
 10
32.1899171543559
 20
-31.70268163947946
 30
0.0
 10
32.1899171543559
 20
-31.70268163947946
 30
0.0
 10
32.1899171543559
 20
-31.70268163947946
 30
0.0
 10
32.1899171543559
 20
-31.00277281092037
 30
0.0
 10
32.1899171543559
 20
-31.00277281092037
 30
0.0
 10
32.1899171543559
 20
-31.00277281092037
 30
0.0
 10
31.72319284349168
 20
-31.00277281092037
 30
0.0
 10
31.72319284349168
 20
-31.00277281092037
 30
0.0
 10
31.72319284349168
 20
-31.00277281092037
 30
0.0
 10
31.76866810389698
 20
-31.00262747095266
 30
0.0
 10
31.76866810389698
 20
-31.00262747095266
 30
0.0
  0
ENDBLK
  5
1B8
330
1B5
100
AcDbEntity
  8
0
100
AcDbBlockEnd
  0
BLOCK
  5
1BB
330
1B9
100
AcDbEntity
  8
0
100
AcDbBlockBegin
  2
block 78
 70
     0
 10
0.0
 20
0.0
 30
0.0
  3
block 78
  1

  0
SPLINE
  5
1BD
330
1B9
100
AcDbEntity
  8
Layer 1
370
     0
100
AcDbSpline
210
0.0
220
0.0
230
1.0
 70
    11
 71
     3
 72
    17
 73
    13
 74
     0
 42
0.0000000001
 43
0.0000000001
 12
1.0
 22
0.0
 32
0.0
 13
1.0
 23
0.0
 33
0.0
 40
0.0
 40
0.0
 40
0.0
 40
0.0
 40
1.0
 40
1.0
 40
1.0
 40
2.0
 40
2.0
 40
2.0
 40
3.0
 40
3.0
 40
3.0
 40
4.0
 40
4.0
 40
4.0
 40
4.0
 10
26.34421542688774
 20
-17.43328433016423
 30
0.0
 10
26.34421542688774
 20
-18.26195308222191
 30
0.0
 10
25.65941770911993
 20
-18.98253843018851
 30
0.0
 10
24.79440948671996
 20
-18.98253843018851
 30
0.0
 10
23.96544556508146
 20
-18.98253843018851
 30
0.0
 10
23.24460354655153
 20
-18.29798454867212
 30
0.0
 10
23.24460354655153
 20
-17.43327883253413
 30
0.0
 10
23.24460354655153
 20
-16.60460458284667
 30
0.0
 10
23.92940126431934
 20
-15.88401923488006
 30
0.0
 10
24.79440948671996
 20
-15.88401923488006
 30
0.0
 10
25.65940670994407
 20
-15.88403023013995
 30
0.0
 10
26.34421542688774
 20
-16.56858411165603
 30
0.0
 10
26.34421542688774
 20
-17.43328433016423
 30
0.0
  0
ENDBLK
  5
1BC
330
1B9
100
AcDbEntity
  8
0
100
AcDbBlockEnd
  0
BLOCK
  5
1C0
330
1BE
100
AcDbEntity
  8
0
100
AcDbBlockBegin
  2
block 79
 70
     0
 10
0.0
 20
0.0
 30
0.0
  3
block 79
  1

  0
SPLINE
  5
1C2
330
1BE
100
AcDbEntity
  8
Layer 1
370
     0
100
AcDbSpline
210
0.0
220
0.0
230
1.0
 70
    11
 71
     3
 72
    17
 73
    13
 74
     0
 42
0.0000000001
 43
0.0000000001
 12
1.0
 22
0.0
 32
0.0
 13
1.0
 23
0.0
 33
0.0
 40
0.0
 40
0.0
 40
0.0
 40
0.0
 40
1.0
 40
1.0
 40
1.0
 40
2.0
 40
2.0
 40
2.0
 40
3.0
 40
3.0
 40
3.0
 40
4.0
 40
4.0
 40
4.0
 40
4.0
 10
26.3794801762316
 20
-42.82115116803243
 30
0.0
 10
26.3794801762316
 20
-43.64982286067595
 30
0.0
 10
25.69468245846379
 20
-44.37041076568617
 30
0.0
 10
24.82967423606318
 20
-44.37041076568617
 30
0.0
 10
24.00071031442468
 20
-44.37041076568617
 30
0.0
 10
23.27986829589475
 20
-43.68585445498534
 30
0.0
 10
23.27986829589475
 20
-42.82115116803243
 30
0.0
 10
23.27986829589475
 20
-41.99247947538891
 30
0.0
 10
23.96466601366257
 20
-41.27189157037805
 30
0.0
 10
24.82967423606318
 20
-41.27189157037805
 30
0.0
 10
25.69468245846379
 20
-41.27189157037805
 30
0.0
 10
26.3794801762316
 20
-41.95644788107888
 30
0.0
 10
26.3794801762316
 20
-42.82115116803243
 30
0.0
  0
ENDBLK
  5
1C1
330
1BE
100
AcDbEntity
  8
0
100
AcDbBlockEnd
  0
BLOCK
  5
1C6
330
1C4
100
AcDbEntity
  8
0
100
AcDbBlockBegin
  2
block 80
 70
     0
 10
0.0
 20
0.0
 30
0.0
  3
block 80
  1

  0
INSERT
  5
1C9
330
1C4
100
AcDbEntity
  8
Layer 1
100
AcDbBlockReference
  2
block 81
 10
0.0
 20
0.0
 30
0.0
  0
INSERT
  5
1CE
330
1C4
100
AcDbEntity
  8
Layer 1
100
AcDbBlockReference
  2
block 82
 10
0.0
 20
0.0
 30
0.0
  0
INSERT
  5
1D3
330
1C4
100
AcDbEntity
  8
Layer 1
100
AcDbBlockReference
  2
block 83
 10
0.0
 20
0.0
 30
0.0
  0
INSERT
  5
1D8
330
1C4
100
AcDbEntity
  8
Layer 1
100
AcDbBlockReference
  2
block 84
 10
0.0
 20
0.0
 30
0.0
  0
ENDBLK
  5
1C7
330
1C4
100
AcDbEntity
  8
0
100
AcDbBlockEnd
  0
BLOCK
  5
1CA
330
1C8
100
AcDbEntity
  8
0
100
AcDbBlockBegin
  2
block 81
 70
     0
 10
0.0
 20
0.0
 30
0.0
  3
block 81
  1

  0
SPLINE
  5
1CC
330
1C8
100
AcDbEntity
  8
Layer 1
370
     0
100
AcDbSpline
210
0.0
220
0.0
230
1.0
 70
    11
 71
     3
 72
    17
 73
    13
 74
     0
 42
0.0000000001
 43
0.0000000001
 12
1.0
 22
0.0
 32
0.0
 13
1.0
 23
0.0
 33
0.0
 40
0.0
 40
0.0
 40
0.0
 40
0.0
 40
1.0
 40
1.0
 40
1.0
 40
2.0
 40
2.0
 40
2.0
 40
3.0
 40
3.0
 40
3.0
 40
4.0
 40
4.0
 40
4.0
 40
4.0
 10
11.38830174960472
 20
-10.13427353940915
 30
0.0
 10
11.38830174960472
 20
-10.96294778909692
 30
0.0
 10
10.70350403183691
 20
-11.68353313706353
 30
0.0
 10
9.838495809436935
 20
-11.68353313706353
 30
0.0
 10
9.00953188779844
 20
-11.68353313706353
 30
0.0
 10
8.288689869268511
 20
-10.99897925554714
 30
0.0
 10
8.288689869268511
 20
-10.13427353940915
 30
0.0
 10
8.288689869268511
 20
-9.305599289721686
 30
0.0
 10
8.973487587036963
 20
-8.58501394175508
 30
0.0
 10
9.838495809436935
 20
-8.58501394175508
 30
0.0
 10
10.70350403183691
 20
-8.58501394175508
 30
0.0
 10
11.38830174960472
 20
-9.269573320901259
 30
0.0
 10
11.38830174960472
 20
-10.13427353940915
 30
0.0
  0
ENDBLK
  5
1CB
330
1C8
100
AcDbEntity
  8
0
100
AcDbBlockEnd
  0
BLOCK
  5
1CF
330
1CD
100
AcDbEntity
  8
0
100
AcDbBlockBegin
  2
block 82
 70
     0
 10
0.0
 20
0.0
 30
0.0
  3
block 82
  1

  0
SPLINE
  5
1D1
330
1CD
100
AcDbEntity
  8
Layer 1
370
     0
100
AcDbSpline
210
0.0
220
0.0
230
1.0
 70
    11
 71
     3
 72
    17
 73
    13
 74
     0
 42
0.0000000001
 43
0.0000000001
 12
1.0
 22
0.0
 32
0.0
 13
1.0
 23
0.0
 33
0.0
 40
0.0
 40
0.0
 40
0.0
 40
0.0
 40
1.0
 40
1.0
 40
1.0
 40
2.0
 40
2.0
 40
2.0
 40
3.0
 40
3.0
 40
3.0
 40
4.0
 40
4.0
 40
4.0
 40
4.0
 10
41.40593411677689
 20
-10.13427353940915
 30
0.0
 10
41.40593411677689
 20
-10.96294778909692
 30
0.0
 10
40.72113639900908
 20
-11.68353313706353
 30
0.0
 10
39.85612817660846
 20
-11.68353313706353
 30
0.0
 10
39.02716425496997
 20
-11.68353313706353
 30
0.0
 10
38.30632223644004
 20
-10.99897925554714
 30
0.0
 10
38.30632223644004
 20
-10.13427353940915
 30
0.0
 10
38.30632223644004
 20
-9.305599289721686
 30
0.0
 10
38.99111995420785
 20
-8.58501394175508
 30
0.0
 10
39.85612817660846
 20
-8.58501394175508
 30
0.0
 10
40.72113639900908
 20
-8.58501394175508
 30
0.0
 10
41.40593411677689
 20
-9.269573320901259
 30
0.0
 10
41.40593411677689
 20
-10.13427353940915
 30
0.0
  0
ENDBLK
  5
1D0
330
1CD
100
AcDbEntity
  8
0
100
AcDbBlockEnd
  0
BLOCK
  5
1D4
330
1D2
100
AcDbEntity
  8
0
100
AcDbBlockBegin
  2
block 83
 70
     0
 10
0.0
 20
0.0
 30
0.0
  3
block 83
  1

  0
SPLINE
  5
1D6
330
1D2
100
AcDbEntity
  8
Layer 1
370
     0
100
AcDbSpline
210
0.0
220
0.0
230
1.0
 70
    11
 71
     3
 72
    17
 73
    13
 74
     0
 42
0.0000000001
 43
0.0000000001
 12
1.0
 22
0.0
 32
0.0
 13
1.0
 23
0.0
 33
0.0
 40
0.0
 40
0.0
 40
0.0
 40
0.0
 40
1.0
 40
1.0
 40
1.0
 40
2.0
 40
2.0
 40
2.0
 40
3.0
 40
3.0
 40
3.0
 40
4.0
 40
4.0
 40
4.0
 40
4.0
 10
11.38830174960472
 20
-50.12016722193791
 30
0.0
 10
11.38830174960472
 20
-50.94883891458143
 30
0.0
 10
10.70350403183691
 20
-51.6694268195923
 30
0.0
 10
9.838495809436935
 20
-51.6694268195923
 30
0.0
 10
9.00953188779844
 20
-51.6694268195923
 30
0.0
 10
8.288689869268511
 20
-50.98487050889146
 30
0.0
 10
8.288689869268511
 20
-50.12016722193791
 30
0.0
 10
8.288689869268511
 20
-49.29149552929503
 30
0.0
 10
8.973487587036963
 20
-48.57090762428417
 30
0.0
 10
9.838495809436935
 20
-48.57090762428417
 30
0.0
 10
10.70350403183691
 20
-48.57089662898545
 30
0.0
 10
11.38830174960472
 20
-49.255463934985
 30
0.0
 10
11.38830174960472
 20
-50.12016722193791
 30
0.0
  0
ENDBLK
  5
1D5
330
1D2
100
AcDbEntity
  8
0
100
AcDbBlockEnd
  0
BLOCK
  5
1D9
330
1D7
100
AcDbEntity
  8
0
100
AcDbBlockBegin
  2
block 84
 70
     0
 10
0.0
 20
0.0
 30
0.0
  3
block 84
  1

  0
SPLINE
  5
1DB
330
1D7
100
AcDbEntity
  8
Layer 1
370
     0
100
AcDbSpline
210
0.0
220
0.0
230
1.0
 70
    11
 71
     3
 72
    17
 73
    13
 74
     0
 42
0.0000000001
 43
0.0000000001
 12
1.0
 22
0.0
 32
0.0
 13
1.0
 23
0.0
 33
0.0
 40
0.0
 40
0.0
 40
0.0
 40
0.0
 40
1.0
 40
1.0
 40
1.0
 40
2.0
 40
2.0
 40
2.0
 40
3.0
 40
3.0
 40
3.0
 40
4.0
 40
4.0
 40
4.0
 40
4.0
 10
41.40593411677689
 20
-50.12016722193791
 30
0.0
 10
41.40593411677689
 20
-50.94883891458143
 30
0.0
 10
40.72113639900908
 20
-51.6694268195923
 30
0.0
 10
39.85612817660846
 20
-51.6694268195923
 30
0.0
 10
39.02716425496997
 20
-51.6694268195923
 30
0.0
 10
38.30632223644004
 20
-50.98487050889146
 30
0.0
 10
38.30632223644004
 20
-50.12016722193791
 30
0.0
 10
38.30632223644004
 20
-49.29149552929503
 30
0.0
 10
38.99111995420785
 20
-48.57090762428417
 30
0.0
 10
39.85612817660846
 20
-48.57090762428417
 30
0.0
 10
40.72113639900908
 20
-48.57089662898545
 30
0.0
 10
41.40593411677689
 20
-49.255463934985
 30
0.0
 10
41.40593411677689
 20
-50.12016722193791
 30
0.0
  0
ENDBLK
  5
1DA
330
1D7
100
AcDbEntity
  8
0
100
AcDbBlockEnd
  0
ENDSEC
  0
SECTION
  2
ENTITIES
  0
INSERT
  5
42
330
1F
100
AcDbEntity
  8
Layer 1
100
AcDbBlockReference
  2
block 2
 10
0.0
 20
0.0
 30
0.0
  0
ENDSEC
  0
SECTION
  2
OBJECTS
  0
DICTIONARY
  5
C
330
0
100
AcDbDictionary
281
     1
  3
ACAD_GROUP
350
D
  3
ACAD_LAYOUT
350
1A
  3
ACAD_MATERIAL
350
3B
  3
ACAD_MLEADERSTYLE
350
1DE
  3
ACAD_MLINESTYLE
350
17
  3
ACAD_PLOTSETTINGS
350
19
  3
ACAD_PLOTSTYLENAME
350
E
  3
ACAD_TABLESTYLE
350
1DD
  3
ACAD_VISUALSTYLE
350
2A
  0
SUN
  5
3F
330
29
100
AcDbSun
 90
        1
290
     0
 63
     7
421
 16777215
 40
1.0
291
     1
 91
  2455826
 92
 54000000
292
     0
 70
     2
 71
   256
280
     1
  0
DICTIONARY
  5
D
102
{ACAD_REACTORS
330
C
102
}
330
C
100
AcDbDictionary
281
     1
  0
DICTIONARY
  5
1A
102
{ACAD_REACTORS
330
C
102
}
330
C
100
AcDbDictionary
281
     1
  3
Layout1
350
1E
  3
Layout2
350
26
  3
Model
350
22
  0
DICTIONARY
  5
3B
102
{ACAD_REACTORS
330
C
102
}
330
C
100
AcDbDictionary
281
     1
  3
ByBlock
350
3D
  3
ByLayer
350
3C
  3
Global
350
3E
  0
DICTIONARY
  5
1DE
102
{ACAD_REACTORS
330
C
102
}
330
C
100
AcDbDictionary
281
     1
  0
DICTIONARY
  5
17
102
{ACAD_REACTORS
330
C
102
}
330
C
100
AcDbDictionary
281
     1
  3
Standard
350
18
  0
DICTIONARY
  5
19
102
{ACAD_REACTORS
330
C
102
}
330
C
100
AcDbDictionary
281
     1
  0
ACDBDICTIONARYWDFLT
  5
E
102
{ACAD_REACTORS
330
C
102
}
330
C
100
AcDbDictionary
281
     1
  3
Normal
350
F
100
AcDbDictionaryWithDefault
340
F
  0
DICTIONARY
  5
1DD
102
{ACAD_REACTORS
330
C
102
}
330
C
100
AcDbDictionary
281
     1
  0
DICTIONARY
  5
2A
102
{ACAD_REACTORS
330
C
102
}
330
C
100
AcDbDictionary
281
     1
  3
2dWireframe
350
2F
  3
3D Hidden
350
31
  3
3dWireframe
350
30
  3
Basic
350
32
  3
Brighten
350
36
  3
ColorChange
350
3A
  3
Conceptual
350
34
  3
Dim
350
35
  3
Facepattern
350
39
  3
Flat
350
2B
  3
FlatWithEdges
350
2C
  3
Gouraud
350
2D
  3
GouraudWithEdges
350
2E
  3
Linepattern
350
38
  3
Realistic
350
33
  3
Thicken
350
37
  0
LAYOUT
  5
1E
102
{ACAD_REACTORS
330
1A
102
}
330
1A
100
AcDbPlotSettings
  1

  2
none_device
  4

  6

 40
0.0
 41
0.0
 42
0.0
 43
0.0
 44
0.0
 45
0.0
 46
0.0
 47
0.0
 48
0.0
 49
0.0
140
0.0
141
0.0
142
1.0
143
1.0
 70
   688
 72
     0
 73
     0
 74
     5
  7

 75
    16
 76
     0
 77
     2
 78
   300
147
1.0
148
0.0
149
0.0
100
AcDbLayout
  1
Layout1
 70
     1
 71
     1
 10
0.0
 20
0.0
 11
12.0
 21
9.0
 12
0.0
 22
0.0
 32
0.0
 14
1.000000000000000E+20
 24
1.000000000000000E+20
 34
1.000000000000000E+20
 15
-1.000000000000000E+20
 25
-1.000000000000000E+20
 35
-1.000000000000000E+20
146
0.0
 13
0.0
 23
0.0
 33
0.0
 16
1.0
 26
0.0
 36
0.0
 17
0.0
 27
1.0
 37
0.0
 76
     0
330
1B
  0
LAYOUT
  5
26
102
{ACAD_REACTORS
330
1A
102
}
330
1A
100
AcDbPlotSettings
  1

  2
none_device
  4

  6

 40
0.0
 41
0.0
 42
0.0
 43
0.0
 44
0.0
 45
0.0
 46
0.0
 47
0.0
 48
0.0
 49
0.0
140
0.0
141
0.0
142
1.0
143
1.0
 70
   688
 72
     0
 73
     0
 74
     5
  7

 75
    16
 76
     0
 77
     2
 78
   300
147
1.0
148
0.0
149
0.0
100
AcDbLayout
  1
Layout2
 70
     1
 71
     2
 10
0.0
 20
0.0
 11
0.0
 21
0.0
 12
0.0
 22
0.0
 32
0.0
 14
0.0
 24
0.0
 34
0.0
 15
0.0
 25
0.0
 35
0.0
146
0.0
 13
0.0
 23
0.0
 33
0.0
 16
1.0
 26
0.0
 36
0.0
 17
0.0
 27
1.0
 37
0.0
 76
     0
330
23
  0
LAYOUT
  5
22
102
{ACAD_REACTORS
330
1A
102
}
330
1A
100
AcDbPlotSettings
  1

  2
none_device
  4

  6

 40
0.0
 41
0.0
 42
0.0
 43
0.0
 44
0.0
 45
0.0
 46
0.0
 47
0.0
 48
0.0
 49
0.0
140
0.0
141
0.0
142
1.0
143
1.0
 70
  1712
 72
     0
 73
     0
 74
     0
  7

 75
     0
 76
     0
 77
     2
 78
   300
147
1.0
148
0.0
149
0.0
100
AcDbLayout
  1
Model
 70
     1
 71
     0
 10
0.0
 20
0.0
 11
12.0
 21
9.0
 12
0.0
 22
0.0
 32
0.0
 14
1.000000000000000E+20
 24
1.000000000000000E+20
 34
1.000000000000000E+20
 15
-1.000000000000000E+20
 25
-1.000000000000000E+20
 35
-1.000000000000000E+20
146
0.0
 13
0.0
 23
0.0
 33
0.0
 16
1.0
 26
0.0
 36
0.0
 17
0.0
 27
1.0
 37
0.0
 76
     0
330
1F
331
29
  0
MATERIAL
  5
3D
102
{ACAD_REACTORS
330
3B
102
}
330
3B
100
AcDbMaterial
  1
ByBlock
 72
     1
 94
      127
  0
MATERIAL
  5
3C
102
{ACAD_REACTORS
330
3B
102
}
330
3B
100
AcDbMaterial
  1
ByLayer
 72
     1
 94
      127
  0
MATERIAL
  5
3E
102
{ACAD_REACTORS
330
3B
102
}
330
3B
100
AcDbMaterial
  1
Global
 72
     1
 94
      127
  0
MLINESTYLE
  5
18
102
{ACAD_REACTORS
330
17
102
}
330
17
100
AcDbMlineStyle
  2
Standard
 70
     0
  3

 62
   256
 51
90.0
 52
90.0
 71
     2
 49
0.5
 62
   256
  6
BYLAYER
 49
-0.5
 62
   256
  6
BYLAYER
  0
ACDBPLACEHOLDER
  5
F
102
{ACAD_REACTORS
330
E
102
}
330
E
  0
VISUALSTYLE
  5
2F
102
{ACAD_REACTORS
330
2A
102
}
330
2A
100
AcDbVisualStyle
  2
2dWireframe
 70
     4
177
     2
291
     0
 71
     0
176
     1
 72
     2
176
     1
 73
     0
176
     1
 90
        0
176
     1
 40
-0.6
176
     1
 41
-30.0
176
     1
 62
     5
 63
     7
421
 16777215
176
     1
 74
     1
176
     1
 91
        4
176
     1
 64
     7
176
     1
 65
   257
176
     1
 75
     1
176
     1
175
     1
176
     1
 42
1.0
176
     1
 92
        0
176
     1
 66
   257
176
     1
 43
1.0
176
     1
 76
     1
176
     1
 77
     6
176
     1
 78
     2
176
     1
 67
     7
176
     1
 79
     5
176
     1
170
     0
176
     1
171
     0
176
     1
290
     0
176
     1
 93
        1
176
     1
 44
0.0
176
     1
173
     0
176
     1
  0
VISUALSTYLE
  5
31
102
{ACAD_REACTORS
330
2A
102
}
330
2A
100
AcDbVisualStyle
  2
3D Hidden
 70
     6
177
     2
291
     0
 71
     1
176
     1
 72
     2
176
     1
 73
     2
176
     1
 90
        0
176
     1
 40
-0.6
176
     1
 41
-30.0
176
     1
 62
     5
 63
     7
421
 16777215
176
     1
 74
     2
176
     1
 91
        2
176
     1
 64
     7
176
     1
 65
   257
176
     1
 75
     2
176
     1
175
     1
176
     1
 42
40.0
176
     1
 92
        0
176
     1
 66
   257
176
     1
 43
1.0
176
     1
 76
     1
176
     1
 77
     6
176
     1
 78
     2
176
     1
 67
     7
176
     1
 79
     3
176
     1
170
     0
176
     1
171
     0
176
     1
290
     0
176
     1
 93
        1
176
     1
 44
0.0
176
     1
173
     0
176
     1
  0
VISUALSTYLE
  5
30
102
{ACAD_REACTORS
330
2A
102
}
330
2A
100
AcDbVisualStyle
  2
3dWireframe
 70
     5
177
     2
291
     0
 71
     0
176
     1
 72
     2
176
     1
 73
     0
176
     1
 90
        0
176
     1
 40
-0.6
176
     1
 41
-30.0
176
     1
 62
     5
 63
     7
421
 16777215
176
     1
 74
     1
176
     1
 91
        4
176
     1
 64
     7
176
     1
 65
   257
176
     1
 75
     1
176
     1
175
     1
176
     1
 42
1.0
176
     1
 92
        0
176
     1
 66
   257
176
     1
 43
1.0
176
     1
 76
     1
176
     1
 77
     6
176
     1
 78
     2
176
     1
 67
     7
176
     1
 79
     5
176
     1
170
     0
176
     1
171
     0
176
     1
290
     0
176
     1
 93
        1
176
     1
 44
0.0
176
     1
173
     0
176
     1
  0
VISUALSTYLE
  5
32
102
{ACAD_REACTORS
330
2A
102
}
330
2A
100
AcDbVisualStyle
  2
Basic
 70
     7
177
     2
291
     1
 71
     1
176
     1
 72
     0
176
     1
 73
     1
176
     1
 90
        0
176
     1
 40
-0.6
176
     1
 41
-30.0
176
     1
 62
     5
 63
     7
421
 16777215
176
     1
 74
     0
176
     1
 91
        4
176
     1
 64
     7
176
     1
 65
   257
176
     1
 75
     1
176
     1
175
     1
176
     1
 42
1.0
176
     1
 92
        8
176
     1
 66
     7
176
     1
 43
1.0
176
     1
 76
     1
176
     1
 77
     6
176
     1
 78
     2
176
     1
 67
     7
176
     1
 79
     5
176
     1
170
     0
176
     1
171
     0
176
     1
290
     0
176
     1
 93
        1
176
     1
 44
0.0
176
     1
173
     0
176
     1
  0
VISUALSTYLE
  5
36
102
{ACAD_REACTORS
330
2A
102
}
330
2A
100
AcDbVisualStyle
  2
Brighten
 70
    12
177
     2
291
     1
 71
     2
176
     1
 72
     2
176
     1
 73
     0
176
     1
 90
        0
176
     1
 40
-0.6
176
     1
 41
-30.0
176
     1
 62
     5
 63
     7
421
 16777215
176
     1
 74
     1
176
     1
 91
        4
176
     1
 64
     7
176
     1
 65
   257
176
     1
 75
     1
176
     1
175
     1
176
     1
 42
1.0
176
     1
 92
        8
176
     1
 66
     7
176
     1
 43
1.0
176
     1
 76
     1
176
     1
 77
     6
176
     1
 78
     2
176
     1
 67
     7
176
     1
 79
     5
176
     1
170
     0
176
     1
171
     0
176
     1
290
     0
176
     1
 93
        1
176
     1
 44
50.0
176
     1
173
     0
176
     1
  0
VISUALSTYLE
  5
3A
102
{ACAD_REACTORS
330
2A
102
}
330
2A
100
AcDbVisualStyle
  2
ColorChange
 70
    16
177
     2
291
     1
 71
     2
176
     1
 72
     2
176
     1
 73
     3
176
     1
 90
        0
176
     1
 40
-0.6
176
     1
 41
-30.0
176
     1
 62
     5
 63
     8
421
  8421504
176
     1
 74
     1
176
     1
 91
        4
176
     1
 64
     7
176
     1
 65
   257
176
     1
 75
     1
176
     1
175
     1
176
     1
 42
1.0
176
     1
 92
        8
176
     1
 66
     8
424
  8421504
176
     1
 43
1.0
176
     1
 76
     1
176
     1
 77
     6
176
     1
 78
     2
176
     1
 67
     7
176
     1
 79
     5
176
     1
170
     0
176
     1
171
     0
176
     1
290
     0
176
     1
 93
        1
176
     1
 44
0.0
176
     1
173
     0
176
     1
  0
VISUALSTYLE
  5
34
102
{ACAD_REACTORS
330
2A
102
}
330
2A
100
AcDbVisualStyle
  2
Conceptual
 70
     9
177
     2
291
     0
 71
     3
176
     1
 72
     2
176
     1
 73
     0
176
     1
 90
        0
176
     1
 40
-0.6
176
     1
 41
-30.0
176
     1
 62
     5
 63
     7
421
 16777215
176
     1
 74
     2
176
     1
 91
        2
176
     1
 64
     7
176
     1
 65
   257
176
     1
 75
     1
176
     1
175
     1
176
     1
 42
40.0
176
     1
 92
        8
176
     1
 66
     7
176
     1
 43
1.0
176
     1
 76
     1
176
     1
 77
     6
176
     1
 78
     2
176
     1
 67
     7
176
     1
 79
     3
176
     1
170
     0
176
     1
171
     0
176
     1
290
     0
176
     1
 93
        1
176
     1
 44
0.0
176
     1
173
     0
176
     1
  0
VISUALSTYLE
  5
35
102
{ACAD_REACTORS
330
2A
102
}
330
2A
100
AcDbVisualStyle
  2
Dim
 70
    11
177
     2
291
     1
 71
     2
176
     1
 72
     2
176
     1
 73
     0
176
     1
 90
        0
176
     1
 40
-0.6
176
     1
 41
-30.0
176
     1
 62
     5
 63
     7
421
 16777215
176
     1
 74
     1
176
     1
 91
        4
176
     1
 64
     7
176
     1
 65
   257
176
     1
 75
     1
176
     1
175
     1
176
     1
 42
1.0
176
     1
 92
        8
176
     1
 66
     7
176
     1
 43
1.0
176
     1
 76
     1
176
     1
 77
     6
176
     1
 78
     2
176
     1
 67
     7
176
     1
 79
     5
176
     1
170
     0
176
     1
171
     0
176
     1
290
     0
176
     1
 93
        1
176
     1
 44
-50.0
176
     1
173
     0
176
     1
  0
VISUALSTYLE
  5
39
102
{ACAD_REACTORS
330
2A
102
}
330
2A
100
AcDbVisualStyle
  2
Facepattern
 70
    15
177
     2
291
     1
 71
     2
176
     1
 72
     2
176
     1
 73
     0
176
     1
 90
        0
176
     1
 40
-0.6
176
     1
 41
-30.0
176
     1
 62
     5
 63
     7
421
 16777215
176
     1
 74
     1
176
     1
 91
        4
176
     1
 64
     7
176
     1
 65
   257
176
     1
 75
     1
176
     1
175
     1
176
     1
 42
1.0
176
     1
 92
        8
176
     1
 66
     7
176
     1
 43
1.0
176
     1
 76
     1
176
     1
 77
     6
176
     1
 78
     2
176
     1
 67
     7
176
     1
 79
     5
176
     1
170
     0
176
     1
171
     0
176
     1
290
     0
176
     1
 93
        1
176
     1
 44
0.0
176
     1
173
     0
176
     1
  0
VISUALSTYLE
  5
2B
102
{ACAD_REACTORS
330
2A
102
}
330
2A
100
AcDbVisualStyle
  2
Flat
 70
     0
177
     2
291
     1
 71
     2
176
     1
 72
     1
176
     1
 73
     1
176
     1
 90
        2
176
     1
 40
-0.6
176
     1
 41
30.0
176
     1
 62
     5
 63
     7
421
 16777215
176
     1
 74
     0
176
     1
 91
        4
176
     1
 64
     7
176
     1
 65
   257
176
     1
 75
     1
176
     1
175
     1
176
     1
 42
1.0
176
     1
 92
        8
176
     1
 66
     7
176
     1
 43
1.0
176
     1
 76
     1
176
     1
 77
     6
176
     1
 78
     2
176
     1
 67
     7
176
     1
 79
     5
176
     1
170
     0
176
     1
171
     0
176
     1
290
     0
176
     1
 93
       13
176
     1
 44
0.0
176
     1
173
     0
176
     1
  0
VISUALSTYLE
  5
2C
102
{ACAD_REACTORS
330
2A
102
}
330
2A
100
AcDbVisualStyle
  2
FlatWithEdges
 70
     1
177
     2
291
     1
 71
     2
176
     1
 72
     1
176
     1
 73
     1
176
     1
 90
        2
176
     1
 40
-0.6
176
     1
 41
30.0
176
     1
 62
     5
 63
     7
421
 16777215
176
     1
 74
     1
176
     1
 91
        4
176
     1
 64
     7
176
     1
 65
   257
176
     1
 75
     1
176
     1
175
     1
176
     1
 42
1.0
176
     1
 92
        0
176
     1
 66
   257
176
     1
 43
1.0
176
     1
 76
     1
176
     1
 77
     6
176
     1
 78
     2
176
     1
 67
     7
176
     1
 79
     5
176
     1
170
     0
176
     1
171
     0
176
     1
290
     0
176
     1
 93
       13
176
     1
 44
0.0
176
     1
173
     0
176
     1
  0
VISUALSTYLE
  5
2D
102
{ACAD_REACTORS
330
2A
102
}
330
2A
100
AcDbVisualStyle
  2
Gouraud
 70
     2
177
     2
291
     1
 71
     2
176
     1
 72
     2
176
     1
 73
     1
176
     1
 90
        2
176
     1
 40
-0.6
176
     1
 41
30.0
176
     1
 62
     5
 63
     7
421
 16777215
176
     1
 74
     0
176
     1
 91
        4
176
     1
 64
     7
176
     1
 65
   257
176
     1
 75
     1
176
     1
175
     1
176
     1
 42
1.0
176
     1
 92
        0
176
     1
 66
     7
176
     1
 43
1.0
176
     1
 76
     1
176
     1
 77
     6
176
     1
 78
     2
176
     1
 67
     7
176
     1
 79
     5
176
     1
170
     0
176
     1
171
     0
176
     1
290
     0
176
     1
 93
       13
176
     1
 44
0.0
176
     1
173
     0
176
     1
  0
VISUALSTYLE
  5
2E
102
{ACAD_REACTORS
330
2A
102
}
330
2A
100
AcDbVisualStyle
  2
GouraudWithEdges
 70
     3
177
     2
291
     1
 71
     2
176
     1
 72
     2
176
     1
 73
     1
176
     1
 90
        2
176
     1
 40
-0.6
176
     1
 41
30.0
176
     1
 62
     5
 63
     7
421
 16777215
176
     1
 74
     1
176
     1
 91
        4
176
     1
 64
     7
176
     1
 65
   257
176
     1
 75
     1
176
     1
175
     1
176
     1
 42
1.0
176
     1
 92
        0
176
     1
 66
   257
176
     1
 43
1.0
176
     1
 76
     1
176
     1
 77
     6
176
     1
 78
     2
176
     1
 67
     7
176
     1
 79
     5
176
     1
170
     0
176
     1
171
     0
176
     1
290
     0
176
     1
 93
       13
176
     1
 44
0.0
176
     1
173
     0
176
     1
  0
VISUALSTYLE
  5
38
102
{ACAD_REACTORS
330
2A
102
}
330
2A
100
AcDbVisualStyle
  2
Linepattern
 70
    14
177
     2
291
     1
 71
     2
176
     1
 72
     2
176
     1
 73
     0
176
     1
 90
        0
176
     1
 40
-0.6
176
     1
 41
-30.0
176
     1
 62
     5
 63
     7
421
 16777215
176
     1
 74
     1
176
     1
 91
        4
176
     1
 64
     7
176
     1
 65
   257
176
     1
 75
     7
176
     1
175
     7
176
     1
 42
1.0
176
     1
 92
        8
176
     1
 66
     7
176
     1
 43
1.0
176
     1
 76
     1
176
     1
 77
     6
176
     1
 78
     2
176
     1
 67
     7
176
     1
 79
     5
176
     1
170
     0
176
     1
171
     0
176
     1
290
     0
176
     1
 93
        1
176
     1
 44
0.0
176
     1
173
     0
176
     1
  0
VISUALSTYLE
  5
33
102
{ACAD_REACTORS
330
2A
102
}
330
2A
100
AcDbVisualStyle
  2
Realistic
 70
     8
177
     2
291
     0
 71
     2
176
     1
 72
     2
176
     1
 73
     0
176
     1
 90
        0
176
     1
 40
-0.6
176
     1
 41
-30.0
176
     1
 62
     5
 63
     7
421
 16777215
176
     1
 74
     1
176
     1
 91
        0
176
     1
 64
     7
176
     1
 65
   257
176
     1
 75
     1
176
     1
175
     1
176
     1
 42
1.0
176
     1
 92
        8
176
     1
 66
     8
424
  7895160
176
     1
 43
1.0
176
     1
 76
     1
176
     1
 77
     6
176
     1
 78
     2
176
     1
 67
     7
176
     1
 79
     5
176
     1
170
     0
176
     1
171
     0
176
     1
290
     0
176
     1
 93
       13
176
     1
 44
0.0
176
     1
173
     0
176
     1
  0
VISUALSTYLE
  5
37
102
{ACAD_REACTORS
330
2A
102
}
330
2A
100
AcDbVisualStyle
  2
Thicken
 70
    13
177
     2
291
     1
 71
     2
176
     1
 72
     2
176
     1
 73
     0
176
     1
 90
        0
176
     1
 40
-0.6
176
     1
 41
-30.0
176
     1
 62
     5
 63
     7
421
 16777215
176
     1
 74
     1
176
     1
 91
        4
176
     1
 64
     7
176
     1
 65
   257
176
     1
 75
     1
176
     1
175
     1
176
     1
 42
1.0
176
     1
 92
       12
176
     1
 66
     7
176
     1
 43
1.0
176
     1
 76
     1
176
     1
 77
     6
176
     1
 78
     2
176
     1
 67
     7
176
     1
 79
     5
176
     1
170
     0
176
     1
171
     0
176
     1
290
     0
176
     1
 93
        1
176
     1
 44
0.0
176
     1
173
     0
176
     1
  0
ENDSEC
  0
EOF
