  0
SECTION
  2
HEADER
  9
$ACADVER
  1
AC1018
  9
$ACADMAINTVER
 70
     0
  9
$DWGCODEPAGE
  3
ANSI_1252
  9
$INSBASE
 10
0.0
 20
0.0
 30
0.0
  9
$EXTMIN
 10
1.000000000000000E+20
 20
1.000000000000000E+20
 30
1.000000000000000E+20
  9
$EXTMAX
 10
-1.000000000000000E+20
 20
-1.000000000000000E+20
 30
-1.000000000000000E+20
  9
$LIMMIN
 10
0.0
 20
0.0
  9
$LIMMAX
 10
12.0
 20
9.0
  9
$ORTHOMODE
 70
     0
  9
$REGENMODE
 70
     1
  9
$FILLMODE
 70
     1
  9
$QTEXTMODE
 70
     0
  9
$MIRRTEXT
 70
     1
  9
$LTSCALE
 40
1.0
  9
$ATTMODE
 70
     1
  9
$TEXTSIZE
 40
0.2
  9
$TRACEWID
 40
0.05
  9
$TEXTSTYLE
  7
Standard
  9
$CLAYER
  8
0
  9
$CELTYPE
  6
ByLayer
  9
$CECOLOR
 62
   256
  9
$CELTSCALE
 40
1.0
  9
$DISPSILH
 70
     0
  9
$DIMSCALE
 40
1.0
  9
$DIMASZ
 40
0.18
  9
$DIMEXO
 40
0.0625
  9
$DIMDLI
 40
0.38
  9
$DIMRND
 40
0.0
  9
$DIMDLE
 40
0.0
  9
$DIMEXE
 40
0.18
  9
$DIMTP
 40
0.0
  9
$DIMTM
 40
0.0
  9
$DIMTXT
 40
0.18
  9
$DIMCEN
 40
0.09
  9
$DIMTSZ
 40
0.0
  9
$DIMTOL
 70
     0
  9
$DIMLIM
 70
     0
  9
$DIMTIH
 70
     1
  9
$DIMTOH
 70
     1
  9
$DIMSE1
 70
     0
  9
$DIMSE2
 70
     0
  9
$DIMTAD
 70
     0
  9
$DIMZIN
 70
     0
  9
$DIMBLK
  1

  9
$DIMASO
 70
     1
  9
$DIMSHO
 70
     1
  9
$DIMPOST
  1

  9
$DIMAPOST
  1

  9
$DIMALT
 70
     0
  9
$DIMALTD
 70
     2
  9
$DIMALTF
 40
25.4
  9
$DIMLFAC
 40
1.0
  9
$DIMTOFL
 70
     0
  9
$DIMTVP
 40
0.0
  9
$DIMTIX
 70
     0
  9
$DIMSOXD
 70
     0
  9
$DIMSAH
 70
     0
  9
$DIMBLK1
  1

  9
$DIMBLK2
  1

  9
$DIMSTYLE
  2
Standard
  9
$DIMCLRD
 70
     0
  9
$DIMCLRE
 70
     0
  9
$DIMCLRT
 70
     0
  9
$DIMTFAC
 40
1.0
  9
$DIMGAP
 40
0.09
  9
$DIMJUST
 70
     0
  9
$DIMSD1
 70
     0
  9
$DIMSD2
 70
     0
  9
$DIMTOLJ
 70
     1
  9
$DIMTZIN
 70
     0
  9
$DIMALTZ
 70
     0
  9
$DIMALTTZ
 70
     0
  9
$DIMUPT
 70
     0
  9
$DIMDEC
 70
     4
  9
$DIMTDEC
 70
     4
  9
$DIMALTU
 70
     2
  9
$DIMALTTD
 70
     2
  9
$DIMTXSTY
  7
Standard
  9
$DIMAUNIT
 70
     0
  9
$DIMADEC
 70
     0
  9
$DIMALTRND
 40
0.0
  9
$DIMAZIN
 70
     0
  9
$DIMDSEP
 70
    46
  9
$DIMATFIT
 70
     3
  9
$DIMFRAC
 70
     0
  9
$DIMLDRBLK
  1

  9
$DIMLUNIT
 70
     2
  9
$DIMLWD
 70
    -2
  9
$DIMLWE
 70
    -2
  9
$DIMTMOVE
 70
     0
  9
$LUNITS
 70
     2
  9
$LUPREC
 70
     4
  9
$SKETCHINC
 40
0.1
  9
$FILLETRAD
 40
0.5
  9
$AUNITS
 70
     0
  9
$AUPREC
 70
     0
  9
$MENU
  1
.
  9
$ELEVATION
 40
0.0
  9
$PELEVATION
 40
0.0
  9
$THICKNESS
 40
0.0
  9
$LIMCHECK
 70
     0
  9
$CHAMFERA
 40
0.5
  9
$CHAMFERB
 40
0.5
  9
$CHAMFERC
 40
1.0
  9
$CHAMFERD
 40
0.0
  9
$SKPOLY
 70
     0
  9
$TDCREATE
 40
2458226.838506574
  9
$TDUCREATE
 40
2458226.796839907
  9
$TDUPDATE
 40
2458226.838506585
  9
$TDUUPDATE
 40
2458226.796839919
  9
$TDINDWG
 40
0.0000000116
  9
$TDUSRTIMER
 40
0.0000000116
  9
$USRTIMER
 70
     1
  9
$ANGBASE
 50
0.0
  9
$ANGDIR
 70
     0
  9
$PDMODE
 70
     0
  9
$PDSIZE
 40
0.0
  9
$PLINEWID
 40
0.0
  9
$SPLFRAME
 70
     0
  9
$SPLINETYPE
 70
     6
  9
$SPLINESEGS
 70
     8
  9
$HANDSEED
  5
119
  9
$SURFTAB1
 70
     6
  9
$SURFTAB2
 70
     6
  9
$SURFTYPE
 70
     6
  9
$SURFU
 70
     6
  9
$SURFV
 70
     6
  9
$UCSBASE
  2

  9
$UCSNAME
  2

  9
$UCSORG
 10
0.0
 20
0.0
 30
0.0
  9
$UCSXDIR
 10
1.0
 20
0.0
 30
0.0
  9
$UCSYDIR
 10
0.0
 20
1.0
 30
0.0
  9
$UCSORTHOREF
  2

  9
$UCSORTHOVIEW
 70
     0
  9
$UCSORGTOP
 10
0.0
 20
0.0
 30
0.0
  9
$UCSORGBOTTOM
 10
0.0
 20
0.0
 30
0.0
  9
$UCSORGLEFT
 10
0.0
 20
0.0
 30
0.0
  9
$UCSORGRIGHT
 10
0.0
 20
0.0
 30
0.0
  9
$UCSORGFRONT
 10
0.0
 20
0.0
 30
0.0
  9
$UCSORGBACK
 10
0.0
 20
0.0
 30
0.0
  9
$PUCSBASE
  2

  9
$PUCSNAME
  2

  9
$PUCSORG
 10
0.0
 20
0.0
 30
0.0
  9
$PUCSXDIR
 10
1.0
 20
0.0
 30
0.0
  9
$PUCSYDIR
 10
0.0
 20
1.0
 30
0.0
  9
$PUCSORTHOREF
  2

  9
$PUCSORTHOVIEW
 70
     0
  9
$PUCSORGTOP
 10
0.0
 20
0.0
 30
0.0
  9
$PUCSORGBOTTOM
 10
0.0
 20
0.0
 30
0.0
  9
$PUCSORGLEFT
 10
0.0
 20
0.0
 30
0.0
  9
$PUCSORGRIGHT
 10
0.0
 20
0.0
 30
0.0
  9
$PUCSORGFRONT
 10
0.0
 20
0.0
 30
0.0
  9
$PUCSORGBACK
 10
0.0
 20
0.0
 30
0.0
  9
$USERI1
 70
     0
  9
$USERI2
 70
     0
  9
$USERI3
 70
     0
  9
$USERI4
 70
     0
  9
$USERI5
 70
     0
  9
$USERR1
 40
0.0
  9
$USERR2
 40
0.0
  9
$USERR3
 40
0.0
  9
$USERR4
 40
0.0
  9
$USERR5
 40
0.0
  9
$WORLDVIEW
 70
     1
  9
$SHADEDGE
 70
     3
  9
$SHADEDIF
 70
    70
  9
$TILEMODE
 70
     1
  9
$MAXACTVP
 70
    64
  9
$PINSBASE
 10
0.0
 20
0.0
 30
0.0
  9
$PLIMCHECK
 70
     0
  9
$PEXTMIN
 10
1.000000000000000E+20
 20
1.000000000000000E+20
 30
1.000000000000000E+20
  9
$PEXTMAX
 10
-1.000000000000000E+20
 20
-1.000000000000000E+20
 30
-1.000000000000000E+20
  9
$PLIMMIN
 10
0.0
 20
0.0
  9
$PLIMMAX
 10
12.0
 20
9.0
  9
$UNITMODE
 70
     0
  9
$VISRETAIN
 70
     1
  9
$PLINEGEN
 70
     0
  9
$PSLTSCALE
 70
     1
  9
$TREEDEPTH
 70
  3020
  9
$CMLSTYLE
  2
Standard
  9
$CMLJUST
 70
     0
  9
$CMLSCALE
 40
1.0
  9
$PROXYGRAPHICS
 70
     1
  9
$MEASUREMENT
 70
     0
  9
$CELWEIGHT
370
    -1
  9
$ENDCAPS
280
     0
  9
$JOINSTYLE
280
     0
  9
$LWDISPLAY
290
     1
  9
$INSUNITS
 70
     1
  9
$HYPERLINKBASE
  1

  9
$STYLESHEET
  1

  9
$XEDIT
290
     1
  9
$CEPSNTYPE
380
     0
  9
$PSTYLEMODE
290
     1
  9
$FINGERPRINTGUID
  2
{BDA25F0D-D151-4D5A-86D2-B30A950CF64A}
  9
$VERSIONGUID
  2
{FAEB1C32-E019-11D5-929B-00C0DF256EC4}
  9
$EXTNAMES
290
     1
  9
$PSVPSCALE
 40
0.0
  9
$OLESTARTUP
290
     0
  9
$SORTENTS
280
   127
  9
$INDEXCTL
280
     0
  9
$HIDETEXT
280
     1
  9
$XCLIPFRAME
290
     0
  9
$HALOGAP
280
     0
  9
$OBSCOLOR
 70
   257
  9
$OBSLTYPE
280
     0
  9
$INTERSECTIONDISPLAY
280
     0
  9
$INTERSECTIONCOLOR
 70
   257
  9
$DIMASSOC
280
     2
  9
$PROJECTNAME
  1

  0
ENDSEC
  0
SECTION
  2
CLASSES
  0
CLASS
  1
ACDBDICTIONARYWDFLT
  2
AcDbDictionaryWithDefault
  3
ObjectDBX Classes
 90
        0
 91
        3
280
     0
281
     0
  0
CLASS
  1
VISUALSTYLE
  2
AcDbVisualStyle
  3
ObjectDBX Classes
 90
     4095
 91
        3
280
     0
281
     0
  0
ENDSEC
  0
SECTION
  2
TABLES
  0
TABLE
  2
VPORT
  5
8
330
0
100
AcDbSymbolTable
 70
     1
  0
VPORT
  5
29
330
8
100
AcDbSymbolTableRecord
100
AcDbViewportTableRecord
  2
*Active
 70
     0
 10
0.0
 20
0.0
 11
1.0
 21
1.0
 12
0.0
 22
0.0
 13
0.0
 23
0.0
 14
0.5
 24
0.5
 15
0.5
 25
0.5
 16
0.0
 26
0.0
 36
1.0
 17
105.0008952513716
 27
-148.5000775824991
 37
0.0
 40
297.0001551649982
 41
0.7070763662937379
 42
50.0
 43
0.0
 44
0.0
 50
0.0
 51
0.0
 71
     0
 72
   100
 73
     1
 74
     3
 75
     0
 76
     0
 77
     0
 78
     0
281
     0
 65
     1
110
0.0
120
0.0
130
0.0
111
1.0
121
0.0
131
0.0
112
0.0
122
1.0
132
0.0
 79
     0
146
0.0
  0
ENDTAB
  0
TABLE
  2
LTYPE
  5
5
330
0
100
AcDbSymbolTable
 70
     1
  0
LTYPE
  5
14
330
5
100
AcDbSymbolTableRecord
100
AcDbLinetypeTableRecord
  2
ByBlock
 70
     0
  3

 72
    65
 73
     0
 40
0.0
  0
LTYPE
  5
15
330
5
100
AcDbSymbolTableRecord
100
AcDbLinetypeTableRecord
  2
ByLayer
 70
     0
  3

 72
    65
 73
     0
 40
0.0
  0
LTYPE
  5
16
330
5
100
AcDbSymbolTableRecord
100
AcDbLinetypeTableRecord
  2
Continuous
 70
     0
  3
Solid line
 72
    65
 73
     0
 40
0.0
  0
ENDTAB
  0
TABLE
  2
LAYER
  5
2
330
0
100
AcDbSymbolTable
 70
     2
  0
LAYER
  5
10
330
2
100
AcDbSymbolTableRecord
100
AcDbLayerTableRecord
  2
0
 70
     0
 62
     7
  6
Continuous
370
    -3
390
F
  0
LAYER
  5
3B
330
2
100
AcDbSymbolTableRecord
100
AcDbLayerTableRecord
  2
Layer 1
 70
     0
 62
     7
  6
Continuous
370
    -3
390
F
  0
ENDTAB
  0
TABLE
  2
STYLE
  5
3
330
0
100
AcDbSymbolTable
 70
     1
  0
STYLE
  5
11
330
3
100
AcDbSymbolTableRecord
100
AcDbTextStyleTableRecord
  2
Standard
 70
     0
 40
0.0
 41
1.0
 50
0.0
 71
     0
 42
0.2
  3
txt
  4

  0
ENDTAB
  0
TABLE
  2
VIEW
  5
6
330
0
100
AcDbSymbolTable
 70
     0
  0
ENDTAB
  0
TABLE
  2
UCS
  5
7
330
0
100
AcDbSymbolTable
 70
     0
  0
ENDTAB
  0
TABLE
  2
APPID
  5
9
330
0
100
AcDbSymbolTable
 70
     1
  0
APPID
  5
12
330
9
100
AcDbSymbolTableRecord
100
AcDbRegAppTableRecord
  2
ACAD
 70
     0
  0
ENDTAB
  0
TABLE
  2
DIMSTYLE
  5
A
330
0
100
AcDbSymbolTable
 70
     1
100
AcDbDimStyleTable
  0
DIMSTYLE
105
27
330
A
100
AcDbSymbolTableRecord
100
AcDbDimStyleTableRecord
  2
Standard
 70
     0
340
11
  0
ENDTAB
  0
TABLE
  2
BLOCK_RECORD
  5
1
330
0
100
AcDbSymbolTable
 70
    11
  0
BLOCK_RECORD
  5
1F
330
1
100
AcDbSymbolTableRecord
100
AcDbBlockTableRecord
  2
*Model_Space
340
22
  0
BLOCK_RECORD
  5
1B
330
1
100
AcDbSymbolTableRecord
100
AcDbBlockTableRecord
  2
*Paper_Space
340
1E
  0
BLOCK_RECORD
  5
23
330
1
100
AcDbSymbolTableRecord
100
AcDbBlockTableRecord
  2
*Paper_Space0
340
26
  0
BLOCK_RECORD
  5
3C
330
1
100
AcDbSymbolTableRecord
100
AcDbBlockTableRecord
  2
block 2
340
0
102
{BLKREFS
331
3D
102
}
  0
BLOCK_RECORD
  5
52
330
1
100
AcDbSymbolTableRecord
100
AcDbBlockTableRecord
  2
block 3
340
0
102
{BLKREFS
331
53
102
}
  0
BLOCK_RECORD
  5
68
330
1
100
AcDbSymbolTableRecord
100
AcDbBlockTableRecord
  2
block 4
340
0
102
{BLKREFS
331
69
102
}
  0
BLOCK_RECORD
  5
7E
330
1
100
AcDbSymbolTableRecord
100
AcDbBlockTableRecord
  2
block 5
340
0
102
{BLKREFS
331
7F
102
}
  0
BLOCK_RECORD
  5
94
330
1
100
AcDbSymbolTableRecord
100
AcDbBlockTableRecord
  2
block 6
340
0
102
{BLKREFS
331
95
102
}
  0
BLOCK_RECORD
  5
AA
330
1
100
AcDbSymbolTableRecord
100
AcDbBlockTableRecord
  2
block 7
340
0
102
{BLKREFS
331
AB
102
}
  0
BLOCK_RECORD
  5
C0
330
1
100
AcDbSymbolTableRecord
100
AcDbBlockTableRecord
  2
block 8
340
0
102
{BLKREFS
331
C1
102
}
  0
BLOCK_RECORD
  5
D6
330
1
100
AcDbSymbolTableRecord
100
AcDbBlockTableRecord
  2
block 9
340
0
102
{BLKREFS
331
D7
102
}
  0
BLOCK_RECORD
  5
EC
330
1
100
AcDbSymbolTableRecord
100
AcDbBlockTableRecord
  2
block 10
340
0
102
{BLKREFS
331
ED
102
}
  0
BLOCK_RECORD
  5
102
330
1
100
AcDbSymbolTableRecord
100
AcDbBlockTableRecord
  2
block 11
340
0
102
{BLKREFS
331
103
102
}
  0
ENDTAB
  0
ENDSEC
  0
SECTION
  2
BLOCKS
  0
BLOCK
  5
20
330
1F
100
AcDbEntity
  8
0
100
AcDbBlockBegin
  2
*Model_Space
 70
     0
 71
     0
 10
0.0
 20
0.0
 30
0.0
  3
*Model_Space
  1

  0
ENDBLK
  5
21
330
1F
100
AcDbEntity
  8
0
100
AcDbBlockEnd
  0
BLOCK
  5
1C
330
1B
100
AcDbEntity
 67
     1
  8
0
100
AcDbBlockBegin
  2
*Paper_Space
 70
     0
 71
     0
 10
0.0
 20
0.0
 30
0.0
  3
*Paper_Space
  1

  0
ENDBLK
  5
1D
330
1B
100
AcDbEntity
 67
     1
  8
0
100
AcDbBlockEnd
  0
BLOCK
  5
24
330
23
100
AcDbEntity
  8
0
100
AcDbBlockBegin
  2
*Paper_Space0
 70
     0
 71
     0
 10
0.0
 20
0.0
 30
0.0
  3
*Paper_Space0
  1

  0
ENDBLK
  5
25
330
23
100
AcDbEntity
  8
0
100
AcDbBlockEnd
  0
BLOCK
  5
3E
330
3C
100
AcDbEntity
  8
0
100
AcDbBlockBegin
  2
block 2
 70
     0
 71
     0
 10
0.0
 20
0.0
 30
0.0
  3
block 2
  1

  0
SPLINE
  5
40
330
3C
100
AcDbEntity
  8
Layer 1
370
     0
100
AcDbSpline
210
0.0
220
0.0
230
1.0
 70
    11
 71
     3
 72
    17
 73
    13
 74
     0
 42
0.0000000001
 43
0.0000000001
 40
0.0
 40
0.0
 40
0.0
 40
0.0
 40
1.0
 40
1.0
 40
1.0
 40
2.0
 40
2.0
 40
2.0
 40
3.0
 40
3.0
 40
3.0
 40
4.0
 40
4.0
 40
4.0
 40
4.0
 10
19.49684174163258
 20
-9.817667335751322
 30
0.0
 10
19.49684174163258
 20
-10.6469023660927
 30
0.0
 10
18.8123008171256
 20
-11.36796132683408
 30
0.0
 10
17.94689226032562
 20
-11.36796132683408
 30
0.0
 10
17.11782948487214
 20
-11.36796132683408
 30
0.0
 10
16.39677052413076
 20
-10.6830758925513
 30
0.0
 10
16.39677052413076
 20
-9.817667335751322
 30
0.0
 10
16.39677052413076
 20
-8.988776815185739
 30
0.0
 10
17.08182821330144
 20
-8.267373344668561
 30
0.0
 10
17.94689226032562
 20
-8.267373344668561
 30
0.0
 10
18.8123008171256
 20
-8.267373344668561
 30
0.0
 10
19.49684174163258
 20
-8.952603288727142
 30
0.0
 10
19.49684174163258
 20
-9.817667335751322
 30
0.0
  0
SPLINE
  5
41
330
3C
100
AcDbEntity
  8
Layer 1
370
     0
100
AcDbSpline
210
0.0
220
0.0
230
1.0
 70
    11
 71
     3
 72
    17
 73
    13
 74
     0
 42
0.0000000001
 43
0.0000000001
 40
0.0
 40
0.0
 40
0.0
 40
0.0
 40
1.0
 40
1.0
 40
1.0
 40
2.0
 40
2.0
 40
2.0
 40
3.0
 40
3.0
 40
3.0
 40
4.0
 40
4.0
 40
4.0
 40
4.0
 10
19.53232624853959
 20
-35.21802859542706
 30
0.0
 10
19.53232624853959
 20
-36.04691911599264
 30
0.0
 10
18.8477853240326
 20
-36.76797807673402
 30
0.0
 10
17.98220451234473
 20
-36.76797807673402
 30
0.0
 10
17.15314173689125
 20
-36.76797807673402
 30
0.0
 10
16.43208277614987
 20
-36.08309264245123
 30
0.0
 10
16.43208277614987
 20
-35.21802859542706
 30
0.0
 10
16.43208277614987
 20
-34.38844905530988
 30
0.0
 10
17.11714046532055
 20
-33.6673900945685
 30
0.0
 10
17.98220451234473
 20
-33.6673900945685
 30
0.0
 10
18.8477853240326
 20
-33.6673900945685
 30
0.0
 10
19.53232624853959
 20
-34.35262003862708
 30
0.0
 10
19.53232624853959
 20
-35.21802859542706
 30
0.0
  0
POLYLINE
  5
42
330
3C
100
AcDbEntity
  8
Layer 1
370
     0
100
AcDb2dPolyline
 66
     1
 10
0.0
 20
0.0
 30
0.0
  0
VERTEX
  5
43
330
42
100
AcDbEntity
  8
Layer 1
370
     0
100
AcDbVertex
100
AcDb2dVertex
 10
8.280809225924612
 20
-20.82441016266312
 30
0.0
  0
VERTEX
  5
44
330
42
100
AcDbEntity
  8
Layer 1
370
     0
100
AcDbVertex
100
AcDb2dVertex
 10
11.49112357168121
 20
-20.82441016266312
 30
0.0
  0
VERTEX
  5
45
330
42
100
AcDbEntity
  8
Layer 1
370
     0
100
AcDbVertex
100
AcDb2dVertex
 10
11.49112357168121
 20
-24.03524127308341
 30
0.0
  0
VERTEX
  5
46
330
42
100
AcDbEntity
  8
Layer 1
370
     0
100
AcDbVertex
100
AcDb2dVertex
 10
8.280809225924612
 20
-24.03524127308341
 30
0.0
  0
VERTEX
  5
47
330
42
100
AcDbEntity
  8
Layer 1
370
     0
100
AcDbVertex
100
AcDb2dVertex
 10
8.280809225924612
 20
-20.82441016266312
 30
0.0
  0
SEQEND
  5
48
330
42
100
AcDbEntity
  8
Layer 1
370
     0
  0
POLYLINE
  5
49
330
3C
100
AcDbEntity
  8
Layer 1
370
     0
100
AcDb2dPolyline
 66
     1
 10
0.0
 20
0.0
 30
0.0
  0
VERTEX
  5
4A
330
49
100
AcDbEntity
  8
Layer 1
370
     0
100
AcDbVertex
100
AcDb2dVertex
 10
24.54390995704646
 20
-20.85989466957012
 30
0.0
  0
VERTEX
  5
4B
330
49
100
AcDbEntity
  8
Layer 1
370
     0
100
AcDbVertex
100
AcDb2dVertex
 10
27.75405204791516
 20
-20.85989466957012
 30
0.0
  0
VERTEX
  5
4C
330
49
100
AcDbEntity
  8
Layer 1
370
     0
100
AcDbVertex
100
AcDb2dVertex
 10
27.75405204791516
 20
-24.07003676043883
 30
0.0
  0
VERTEX
  5
4D
330
49
100
AcDbEntity
  8
Layer 1
370
     0
100
AcDbVertex
100
AcDb2dVertex
 10
24.54390995704646
 20
-24.07003676043883
 30
0.0
  0
VERTEX
  5
4E
330
49
100
AcDbEntity
  8
Layer 1
370
     0
100
AcDbVertex
100
AcDb2dVertex
 10
24.54390995704646
 20
-20.85989466957012
 30
0.0
  0
SEQEND
  5
4F
330
49
100
AcDbEntity
  8
Layer 1
370
     0
  0
SPLINE
  5
50
330
3C
100
AcDbEntity
  8
Layer 1
370
     0
100
AcDbSpline
210
0.0
220
0.0
230
1.0
 70
    11
 71
     3
 72
    17
 73
    13
 74
     0
 42
0.0000000001
 43
0.0000000001
 40
0.0
 40
0.0
 40
0.0
 40
0.0
 40
1.0
 40
1.0
 40
1.0
 40
2.0
 40
2.0
 40
2.0
 40
3.0
 40
3.0
 40
3.0
 40
4.0
 40
4.0
 40
4.0
 40
4.0
 10
18.54668377998675
 20
-22.30614670836244
 30
0.0
 10
18.54668377998675
 20
-22.62378472164651
 30
0.0
 10
18.26453027360969
 20
-22.90593822802357
 30
0.0
 10
17.94689226032562
 20
-22.90593822802357
 30
0.0
 10
17.62942650192945
 20
-22.90593822802357
 30
0.0
 10
17.34727299555239
 20
-22.62378472164651
 30
0.0
 10
17.34727299555239
 20
-22.30614670836244
 30
0.0
 10
17.34727299555239
 20
-21.98850869507837
 30
0.0
 10
17.62942650192945
 20
-21.70635518870131
 30
0.0
 10
17.94689226032562
 20
-21.70635518870131
 30
0.0
 10
18.2996702707409
 20
-21.70635518870131
 30
0.0
 10
18.54668377998675
 20
-21.95336869794717
 30
0.0
 10
18.54668377998675
 20
-22.30614670836244
 30
0.0
  0
SPLINE
  5
51
330
3C
100
AcDbEntity
  8
Layer 1
370
     0
100
AcDbSpline
210
0.0
220
0.0
230
1.0
 70
    11
 71
     3
 72
    29
 73
    25
 74
     0
 42
0.0000000001
 43
0.0000000001
 40
0.0
 40
0.0
 40
0.0
 40
0.0
 40
1.0
 40
1.0
 40
1.0
 40
2.0
 40
2.0
 40
2.0
 40
3.0
 40
3.0
 40
3.0
 40
4.0
 40
4.0
 40
4.0
 40
5.0
 40
5.0
 40
5.0
 40
6.0
 40
6.0
 40
6.0
 40
7.0
 40
7.0
 40
7.0
 40
8.0
 40
8.0
 40
8.0
 40
8.0
 10
26.76668703048334
 20
-40.00016879325367
 30
0.0
 10
26.76668703048334
 20
-40.00016879325367
 30
0.0
 10
9.23337875600102
 20
-40.00016879325367
 30
0.0
 10
9.23337875600102
 20
-40.00016879325367
 30
0.0
 10
6.90518169117051
 20
-40.00016879325367
 30
0.0
 10
5.000042631017696
 20
-37.97892993865755
 30
0.0
 10
5.000042631017696
 20
-35.50810582664743
 30
0.0
 10
5.000042631017696
 20
-35.50810582664743
 30
0.0
 10
5.000042631017696
 20
-9.492105597623942
 30
0.0
 10
5.000042631017696
 20
-9.492105597623942
 30
0.0
 10
5.000042631017696
 20
-7.021625995389615
 30
0.0
 10
6.90518169117051
 20
-5.000042631017696
 30
0.0
 10
9.23337875600102
 20
-5.000042631017696
 30
0.0
 10
9.23337875600102
 20
-5.000042631017696
 30
0.0
 10
26.76668703048334
 20
-5.000042631017696
 30
0.0
 10
26.76668703048334
 20
-5.000042631017696
 30
0.0
 10
29.09488409531385
 20
-5.000042631017696
 30
0.0
 10
31.00002315546666
 20
-7.021625995389615
 30
0.0
 10
31.00002315546666
 20
-9.492105597623942
 30
0.0
 10
31.00002315546666
 20
-9.492105597623942
 30
0.0
 10
31.00002315546666
 20
-35.50810582664743
 30
0.0
 10
31.00002315546666
 20
-35.50810582664743
 30
0.0
 10
31.00002315546666
 20
-37.97892993865755
 30
0.0
 10
29.09488409531385
 20
-40.00016879325367
 30
0.0
 10
26.76668703048334
 20
-40.00016879325367
 30
0.0
  0
ENDBLK
  5
3F
330
3C
100
AcDbEntity
  8
0
100
AcDbBlockEnd
  0
BLOCK
  5
54
330
52
100
AcDbEntity
  8
0
100
AcDbBlockBegin
  2
block 3
 70
     0
 71
     0
 10
0.0
 20
0.0
 30
0.0
  3
block 3
  1

  0
SPLINE
  5
56
330
52
100
AcDbEntity
  8
Layer 1
370
     0
100
AcDbSpline
210
0.0
220
0.0
230
1.0
 70
    11
 71
     3
 72
    17
 73
    13
 74
     0
 42
0.0000000001
 43
0.0000000001
 40
0.0
 40
0.0
 40
0.0
 40
0.0
 40
1.0
 40
1.0
 40
1.0
 40
2.0
 40
2.0
 40
2.0
 40
3.0
 40
3.0
 40
3.0
 40
4.0
 40
4.0
 40
4.0
 40
4.0
 10
49.49675301796297
 20
-9.817667335751322
 30
0.0
 10
49.49675301796297
 20
-10.6469023660927
 30
0.0
 10
48.81221209345598
 20
-11.36796132683408
 30
0.0
 10
47.94680353665601
 20
-11.36796132683408
 30
0.0
 10
47.11774076120253
 20
-11.36796132683408
 30
0.0
 10
46.39668180046114
 20
-10.6830758925513
 30
0.0
 10
46.39668180046114
 20
-9.817667335751322
 30
0.0
 10
46.39668180046114
 20
-8.988776815185739
 30
0.0
 10
47.08173948963182
 20
-8.267373344668561
 30
0.0
 10
47.94680353665601
 20
-8.267373344668561
 30
0.0
 10
48.81221209345598
 20
-8.267373344668561
 30
0.0
 10
49.49675301796297
 20
-8.952603288727142
 30
0.0
 10
49.49675301796297
 20
-9.817667335751322
 30
0.0
  0
SPLINE
  5
57
330
52
100
AcDbEntity
  8
Layer 1
370
     0
100
AcDbSpline
210
0.0
220
0.0
230
1.0
 70
    11
 71
     3
 72
    17
 73
    13
 74
     0
 42
0.0000000001
 43
0.0000000001
 40
0.0
 40
0.0
 40
0.0
 40
0.0
 40
1.0
 40
1.0
 40
1.0
 40
2.0
 40
2.0
 40
2.0
 40
3.0
 40
3.0
 40
3.0
 40
4.0
 40
4.0
 40
4.0
 40
4.0
 10
49.53223752486997
 20
-35.21802859542706
 30
0.0
 10
49.53223752486997
 20
-36.04691911599264
 30
0.0
 10
48.84769660036299
 20
-36.76797807673402
 30
0.0
 10
47.98211578867511
 20
-36.76797807673402
 30
0.0
 10
47.15305301322163
 20
-36.76797807673402
 30
0.0
 10
46.43199405248025
 20
-36.08309264245123
 30
0.0
 10
46.43199405248025
 20
-35.21802859542706
 30
0.0
 10
46.43199405248025
 20
-34.38844905530988
 30
0.0
 10
47.11705174165093
 20
-33.6673900945685
 30
0.0
 10
47.98211578867511
 20
-33.6673900945685
 30
0.0
 10
48.84769660036299
 20
-33.6673900945685
 30
0.0
 10
49.53223752486997
 20
-34.35262003862708
 30
0.0
 10
49.53223752486997
 20
-35.21802859542706
 30
0.0
  0
POLYLINE
  5
58
330
52
100
AcDbEntity
  8
Layer 1
370
     0
100
AcDb2dPolyline
 66
     1
 10
0.0
 20
0.0
 30
0.0
  0
VERTEX
  5
59
330
58
100
AcDbEntity
  8
Layer 1
370
     0
100
AcDbVertex
100
AcDb2dVertex
 10
38.28072050225499
 20
-20.82441016266312
 30
0.0
  0
VERTEX
  5
5A
330
58
100
AcDbEntity
  8
Layer 1
370
     0
100
AcDbVertex
100
AcDb2dVertex
 10
41.49103484801159
 20
-20.82441016266312
 30
0.0
  0
VERTEX
  5
5B
330
58
100
AcDbEntity
  8
Layer 1
370
     0
100
AcDbVertex
100
AcDb2dVertex
 10
41.49103484801159
 20
-24.03524127308341
 30
0.0
  0
VERTEX
  5
5C
330
58
100
AcDbEntity
  8
Layer 1
370
     0
100
AcDbVertex
100
AcDb2dVertex
 10
38.28072050225499
 20
-24.03524127308341
 30
0.0
  0
VERTEX
  5
5D
330
58
100
AcDbEntity
  8
Layer 1
370
     0
100
AcDbVertex
100
AcDb2dVertex
 10
38.28072050225499
 20
-20.82441016266312
 30
0.0
  0
SEQEND
  5
5E
330
58
100
AcDbEntity
  8
Layer 1
370
     0
  0
POLYLINE
  5
5F
330
52
100
AcDbEntity
  8
Layer 1
370
     0
100
AcDb2dPolyline
 66
     1
 10
0.0
 20
0.0
 30
0.0
  0
VERTEX
  5
60
330
5F
100
AcDbEntity
  8
Layer 1
370
     0
100
AcDbVertex
100
AcDb2dVertex
 10
54.54382123337684
 20
-20.85989466957012
 30
0.0
  0
VERTEX
  5
61
330
5F
100
AcDbEntity
  8
Layer 1
370
     0
100
AcDbVertex
100
AcDb2dVertex
 10
57.75396332424554
 20
-20.85989466957012
 30
0.0
  0
VERTEX
  5
62
330
5F
100
AcDbEntity
  8
Layer 1
370
     0
100
AcDbVertex
100
AcDb2dVertex
 10
57.75396332424554
 20
-24.07003676043883
 30
0.0
  0
VERTEX
  5
63
330
5F
100
AcDbEntity
  8
Layer 1
370
     0
100
AcDbVertex
100
AcDb2dVertex
 10
54.54382123337684
 20
-24.07003676043883
 30
0.0
  0
VERTEX
  5
64
330
5F
100
AcDbEntity
  8
Layer 1
370
     0
100
AcDbVertex
100
AcDb2dVertex
 10
54.54382123337684
 20
-20.85989466957012
 30
0.0
  0
SEQEND
  5
65
330
5F
100
AcDbEntity
  8
Layer 1
370
     0
  0
SPLINE
  5
66
330
52
100
AcDbEntity
  8
Layer 1
370
     0
100
AcDbSpline
210
0.0
220
0.0
230
1.0
 70
    11
 71
     3
 72
    17
 73
    13
 74
     0
 42
0.0000000001
 43
0.0000000001
 40
0.0
 40
0.0
 40
0.0
 40
0.0
 40
1.0
 40
1.0
 40
1.0
 40
2.0
 40
2.0
 40
2.0
 40
3.0
 40
3.0
 40
3.0
 40
4.0
 40
4.0
 40
4.0
 40
4.0
 10
48.54659505631713
 20
-22.30614670836244
 30
0.0
 10
48.54659505631713
 20
-22.62378472164651
 30
0.0
 10
48.26444154994007
 20
-22.90593822802357
 30
0.0
 10
47.94680353665601
 20
-22.90593822802357
 30
0.0
 10
47.62933777825983
 20
-22.90593822802357
 30
0.0
 10
47.34718427188277
 20
-22.62378472164651
 30
0.0
 10
47.34718427188277
 20
-22.30614670836244
 30
0.0
 10
47.34718427188277
 20
-21.98850869507837
 30
0.0
 10
47.62933777825983
 20
-21.70635518870131
 30
0.0
 10
47.94680353665601
 20
-21.70635518870131
 30
0.0
 10
48.29958154707128
 20
-21.70635518870131
 30
0.0
 10
48.54659505631713
 20
-21.95336869794717
 30
0.0
 10
48.54659505631713
 20
-22.30614670836244
 30
0.0
  0
SPLINE
  5
67
330
52
100
AcDbEntity
  8
Layer 1
370
     0
100
AcDbSpline
210
0.0
220
0.0
230
1.0
 70
    11
 71
     3
 72
    29
 73
    25
 74
     0
 42
0.0000000001
 43
0.0000000001
 40
0.0
 40
0.0
 40
0.0
 40
0.0
 40
1.0
 40
1.0
 40
1.0
 40
2.0
 40
2.0
 40
2.0
 40
3.0
 40
3.0
 40
3.0
 40
4.0
 40
4.0
 40
4.0
 40
5.0
 40
5.0
 40
5.0
 40
6.0
 40
6.0
 40
6.0
 40
7.0
 40
7.0
 40
7.0
 40
8.0
 40
8.0
 40
8.0
 40
8.0
 10
56.76659830681372
 20
-40.00016879325367
 30
0.0
 10
56.76659830681372
 20
-40.00016879325367
 30
0.0
 10
39.2332900323314
 20
-40.00016879325367
 30
0.0
 10
39.2332900323314
 20
-40.00016879325367
 30
0.0
 10
36.90509296750089
 20
-40.00016879325367
 30
0.0
 10
34.99995390734808
 20
-37.97892993865755
 30
0.0
 10
34.99995390734808
 20
-35.50810582664743
 30
0.0
 10
34.99995390734808
 20
-35.50810582664743
 30
0.0
 10
34.99995390734808
 20
-9.492105597623942
 30
0.0
 10
34.99995390734808
 20
-9.492105597623942
 30
0.0
 10
34.99995390734808
 20
-7.021625995389615
 30
0.0
 10
36.90509296750089
 20
-5.000042631017696
 30
0.0
 10
39.2332900323314
 20
-5.000042631017696
 30
0.0
 10
39.2332900323314
 20
-5.000042631017696
 30
0.0
 10
56.76659830681372
 20
-5.000042631017696
 30
0.0
 10
56.76659830681372
 20
-5.000042631017696
 30
0.0
 10
59.09479537164423
 20
-5.000042631017696
 30
0.0
 10
60.99993443179704
 20
-7.021625995389615
 30
0.0
 10
60.99993443179704
 20
-9.492105597623942
 30
0.0
 10
60.99993443179704
 20
-9.492105597623942
 30
0.0
 10
60.99993443179704
 20
-35.50810582664743
 30
0.0
 10
60.99993443179704
 20
-35.50810582664743
 30
0.0
 10
60.99993443179704
 20
-37.97892993865755
 30
0.0
 10
59.09479537164423
 20
-40.00016879325367
 30
0.0
 10
56.76659830681372
 20
-40.00016879325367
 30
0.0
  0
ENDBLK
  5
55
330
52
100
AcDbEntity
  8
0
100
AcDbBlockEnd
  0
BLOCK
  5
6A
330
68
100
AcDbEntity
  8
0
100
AcDbBlockBegin
  2
block 4
 70
     0
 71
     0
 10
0.0
 20
0.0
 30
0.0
  3
block 4
  1

  0
SPLINE
  5
6C
330
68
100
AcDbEntity
  8
Layer 1
370
     0
100
AcDbSpline
210
0.0
220
0.0
230
1.0
 70
    11
 71
     3
 72
    17
 73
    13
 74
     0
 42
0.0000000001
 43
0.0000000001
 40
0.0
 40
0.0
 40
0.0
 40
0.0
 40
1.0
 40
1.0
 40
1.0
 40
2.0
 40
2.0
 40
2.0
 40
3.0
 40
3.0
 40
3.0
 40
4.0
 40
4.0
 40
4.0
 40
4.0
 10
79.49683654918125
 20
-9.817667335751322
 30
0.0
 10
79.49683654918125
 20
-10.6469023660927
 30
0.0
 10
78.81229562467426
 20
-11.36796132683408
 30
0.0
 10
77.94688706787429
 20
-11.36796132683408
 30
0.0
 10
77.1178242924208
 20
-11.36796132683408
 30
0.0
 10
76.39676533167942
 20
-10.6830758925513
 30
0.0
 10
76.39676533167942
 20
-9.817667335751322
 30
0.0
 10
76.39676533167942
 20
-8.988776815185739
 30
0.0
 10
77.08182302085011
 20
-8.267373344668561
 30
0.0
 10
77.94688706787429
 20
-8.267373344668561
 30
0.0
 10
78.81229562467426
 20
-8.267373344668561
 30
0.0
 10
79.49683654918125
 20
-8.952603288727142
 30
0.0
 10
79.49683654918125
 20
-9.817667335751322
 30
0.0
  0
SPLINE
  5
6D
330
68
100
AcDbEntity
  8
Layer 1
370
     0
100
AcDbSpline
210
0.0
220
0.0
230
1.0
 70
    11
 71
     3
 72
    17
 73
    13
 74
     0
 42
0.0000000001
 43
0.0000000001
 40
0.0
 40
0.0
 40
0.0
 40
0.0
 40
1.0
 40
1.0
 40
1.0
 40
2.0
 40
2.0
 40
2.0
 40
3.0
 40
3.0
 40
3.0
 40
4.0
 40
4.0
 40
4.0
 40
4.0
 10
79.53232105608825
 20
-35.21802859542706
 30
0.0
 10
79.53232105608825
 20
-36.04691911599264
 30
0.0
 10
78.84778013158126
 20
-36.76797807673402
 30
0.0
 10
77.9821993198934
 20
-36.76797807673402
 30
0.0
 10
77.15313654443992
 20
-36.76797807673402
 30
0.0
 10
76.43207758369853
 20
-36.08309264245123
 30
0.0
 10
76.43207758369853
 20
-35.21802859542706
 30
0.0
 10
76.43207758369853
 20
-34.38844905530988
 30
0.0
 10
77.1171352728692
 20
-33.6673900945685
 30
0.0
 10
77.9821993198934
 20
-33.6673900945685
 30
0.0
 10
78.84778013158126
 20
-33.6673900945685
 30
0.0
 10
79.53232105608825
 20
-34.35262003862708
 30
0.0
 10
79.53232105608825
 20
-35.21802859542706
 30
0.0
  0
POLYLINE
  5
6E
330
68
100
AcDbEntity
  8
Layer 1
370
     0
100
AcDb2dPolyline
 66
     1
 10
0.0
 20
0.0
 30
0.0
  0
VERTEX
  5
6F
330
6E
100
AcDbEntity
  8
Layer 1
370
     0
100
AcDbVertex
100
AcDb2dVertex
 10
68.28080403347327
 20
-20.82441016266312
 30
0.0
  0
VERTEX
  5
70
330
6E
100
AcDbEntity
  8
Layer 1
370
     0
100
AcDbVertex
100
AcDb2dVertex
 10
71.49111837922987
 20
-20.82441016266312
 30
0.0
  0
VERTEX
  5
71
330
6E
100
AcDbEntity
  8
Layer 1
370
     0
100
AcDbVertex
100
AcDb2dVertex
 10
71.49111837922987
 20
-24.03524127308341
 30
0.0
  0
VERTEX
  5
72
330
6E
100
AcDbEntity
  8
Layer 1
370
     0
100
AcDbVertex
100
AcDb2dVertex
 10
68.28080403347327
 20
-24.03524127308341
 30
0.0
  0
VERTEX
  5
73
330
6E
100
AcDbEntity
  8
Layer 1
370
     0
100
AcDbVertex
100
AcDb2dVertex
 10
68.28080403347327
 20
-20.82441016266312
 30
0.0
  0
SEQEND
  5
74
330
6E
100
AcDbEntity
  8
Layer 1
370
     0
  0
POLYLINE
  5
75
330
68
100
AcDbEntity
  8
Layer 1
370
     0
100
AcDb2dPolyline
 66
     1
 10
0.0
 20
0.0
 30
0.0
  0
VERTEX
  5
76
330
75
100
AcDbEntity
  8
Layer 1
370
     0
100
AcDbVertex
100
AcDb2dVertex
 10
84.54390476459513
 20
-20.85989466957012
 30
0.0
  0
VERTEX
  5
77
330
75
100
AcDbEntity
  8
Layer 1
370
     0
100
AcDbVertex
100
AcDb2dVertex
 10
87.75404685546383
 20
-20.85989466957012
 30
0.0
  0
VERTEX
  5
78
330
75
100
AcDbEntity
  8
Layer 1
370
     0
100
AcDbVertex
100
AcDb2dVertex
 10
87.75404685546383
 20
-24.07003676043883
 30
0.0
  0
VERTEX
  5
79
330
75
100
AcDbEntity
  8
Layer 1
370
     0
100
AcDbVertex
100
AcDb2dVertex
 10
84.54390476459513
 20
-24.07003676043883
 30
0.0
  0
VERTEX
  5
7A
330
75
100
AcDbEntity
  8
Layer 1
370
     0
100
AcDbVertex
100
AcDb2dVertex
 10
84.54390476459513
 20
-20.85989466957012
 30
0.0
  0
SEQEND
  5
7B
330
75
100
AcDbEntity
  8
Layer 1
370
     0
  0
SPLINE
  5
7C
330
68
100
AcDbEntity
  8
Layer 1
370
     0
100
AcDbSpline
210
0.0
220
0.0
230
1.0
 70
    11
 71
     3
 72
    17
 73
    13
 74
     0
 42
0.0000000001
 43
0.0000000001
 40
0.0
 40
0.0
 40
0.0
 40
0.0
 40
1.0
 40
1.0
 40
1.0
 40
2.0
 40
2.0
 40
2.0
 40
3.0
 40
3.0
 40
3.0
 40
4.0
 40
4.0
 40
4.0
 40
4.0
 10
78.54667858753541
 20
-22.30614670836244
 30
0.0
 10
78.54667858753541
 20
-22.62378472164651
 30
0.0
 10
78.26452508115835
 20
-22.90593822802357
 30
0.0
 10
77.94688706787429
 20
-22.90593822802357
 30
0.0
 10
77.62942130947812
 20
-22.90593822802357
 30
0.0
 10
77.34726780310105
 20
-22.62378472164651
 30
0.0
 10
77.34726780310105
 20
-22.30614670836244
 30
0.0
 10
77.34726780310105
 20
-21.98850869507837
 30
0.0
 10
77.62942130947812
 20
-21.70635518870131
 30
0.0
 10
77.94688706787429
 20
-21.70635518870131
 30
0.0
 10
78.29966507828956
 20
-21.70635518870131
 30
0.0
 10
78.54667858753541
 20
-21.95336869794717
 30
0.0
 10
78.54667858753541
 20
-22.30614670836244
 30
0.0
  0
SPLINE
  5
7D
330
68
100
AcDbEntity
  8
Layer 1
370
     0
100
AcDbSpline
210
0.0
220
0.0
230
1.0
 70
    11
 71
     3
 72
    29
 73
    25
 74
     0
 42
0.0000000001
 43
0.0000000001
 40
0.0
 40
0.0
 40
0.0
 40
0.0
 40
1.0
 40
1.0
 40
1.0
 40
2.0
 40
2.0
 40
2.0
 40
3.0
 40
3.0
 40
3.0
 40
4.0
 40
4.0
 40
4.0
 40
5.0
 40
5.0
 40
5.0
 40
6.0
 40
6.0
 40
6.0
 40
7.0
 40
7.0
 40
7.0
 40
8.0
 40
8.0
 40
8.0
 40
8.0
 10
86.766681838032
 20
-40.00016879325367
 30
0.0
 10
86.766681838032
 20
-40.00016879325367
 30
0.0
 10
69.23337356354969
 20
-40.00016879325367
 30
0.0
 10
69.23337356354969
 20
-40.00016879325367
 30
0.0
 10
66.90517649871917
 20
-40.00016879325367
 30
0.0
 10
65.00003743856637
 20
-37.97892993865755
 30
0.0
 10
65.00003743856637
 20
-35.50810582664743
 30
0.0
 10
65.00003743856637
 20
-35.50810582664743
 30
0.0
 10
65.00003743856637
 20
-9.492105597623942
 30
0.0
 10
65.00003743856637
 20
-9.492105597623942
 30
0.0
 10
65.00003743856637
 20
-7.021625995389615
 30
0.0
 10
66.90517649871917
 20
-5.000042631017696
 30
0.0
 10
69.23337356354969
 20
-5.000042631017696
 30
0.0
 10
69.23337356354969
 20
-5.000042631017696
 30
0.0
 10
86.766681838032
 20
-5.000042631017696
 30
0.0
 10
86.766681838032
 20
-5.000042631017696
 30
0.0
 10
89.09487890286252
 20
-5.000042631017696
 30
0.0
 10
91.00001796301532
 20
-7.021625995389615
 30
0.0
 10
91.00001796301532
 20
-9.492105597623942
 30
0.0
 10
91.00001796301532
 20
-9.492105597623942
 30
0.0
 10
91.00001796301532
 20
-35.50810582664743
 30
0.0
 10
91.00001796301532
 20
-35.50810582664743
 30
0.0
 10
91.00001796301532
 20
-37.97892993865755
 30
0.0
 10
89.09487890286252
 20
-40.00016879325367
 30
0.0
 10
86.766681838032
 20
-40.00016879325367
 30
0.0
  0
ENDBLK
  5
6B
330
68
100
AcDbEntity
  8
0
100
AcDbBlockEnd
  0
BLOCK
  5
80
330
7E
100
AcDbEntity
  8
0
100
AcDbBlockBegin
  2
block 5
 70
     0
 71
     0
 10
0.0
 20
0.0
 30
0.0
  3
block 5
  1

  0
SPLINE
  5
82
330
7E
100
AcDbEntity
  8
Layer 1
370
     0
100
AcDbSpline
210
0.0
220
0.0
230
1.0
 70
    11
 71
     3
 72
    17
 73
    13
 74
     0
 42
0.0000000001
 43
0.0000000001
 40
0.0
 40
0.0
 40
0.0
 40
0.0
 40
1.0
 40
1.0
 40
1.0
 40
2.0
 40
2.0
 40
2.0
 40
3.0
 40
3.0
 40
3.0
 40
4.0
 40
4.0
 40
4.0
 40
4.0
 10
109.4969200803995
 20
-9.817667335751322
 30
0.0
 10
109.4969200803995
 20
-10.6469023660927
 30
0.0
 10
108.8123791558925
 20
-11.36796132683408
 30
0.0
 10
107.9469705990926
 20
-11.36796132683408
 30
0.0
 10
107.1177355687512
 20
-11.36796132683408
 30
0.0
 10
106.3966766080098
 20
-10.6830758925513
 30
0.0
 10
106.3966766080098
 20
-9.817667335751322
 30
0.0
 10
106.3966766080098
 20
-8.988776815185739
 30
0.0
 10
107.0819065520684
 20
-8.267373344668561
 30
0.0
 10
107.9469705990926
 20
-8.267373344668561
 30
0.0
 10
108.8123791558925
 20
-8.267373344668561
 30
0.0
 10
109.4969200803995
 20
-8.952603288727142
 30
0.0
 10
109.4969200803995
 20
-9.817667335751322
 30
0.0
  0
SPLINE
  5
83
330
7E
100
AcDbEntity
  8
Layer 1
370
     0
100
AcDbSpline
210
0.0
220
0.0
230
1.0
 70
    11
 71
     3
 72
    17
 73
    13
 74
     0
 42
0.0000000001
 43
0.0000000001
 40
0.0
 40
0.0
 40
0.0
 40
0.0
 40
1.0
 40
1.0
 40
1.0
 40
2.0
 40
2.0
 40
2.0
 40
3.0
 40
3.0
 40
3.0
 40
4.0
 40
4.0
 40
4.0
 40
4.0
 10
109.5324045873065
 20
-35.21802859542706
 30
0.0
 10
109.5324045873065
 20
-36.04691911599264
 30
0.0
 10
108.8478636627996
 20
-36.76797807673402
 30
0.0
 10
107.9821105962238
 20
-36.76797807673402
 30
0.0
 10
107.1532200756582
 20
-36.76797807673402
 30
0.0
 10
106.4321611149168
 20
-36.08309264245123
 30
0.0
 10
106.4321611149168
 20
-35.21802859542706
 30
0.0
 10
106.4321611149168
 20
-34.38844905530988
 30
0.0
 10
107.1170465491996
 20
-33.6673900945685
 30
0.0
 10
107.9821105962238
 20
-33.6673900945685
 30
0.0
 10
108.8478636627996
 20
-33.6673900945685
 30
0.0
 10
109.5324045873065
 20
-34.35262003862708
 30
0.0
 10
109.5324045873065
 20
-35.21802859542706
 30
0.0
  0
POLYLINE
  5
84
330
7E
100
AcDbEntity
  8
Layer 1
370
     0
100
AcDb2dPolyline
 66
     1
 10
0.0
 20
0.0
 30
0.0
  0
VERTEX
  5
85
330
84
100
AcDbEntity
  8
Layer 1
370
     0
100
AcDbVertex
100
AcDb2dVertex
 10
98.28071530980365
 20
-20.82441016266312
 30
0.0
  0
VERTEX
  5
86
330
84
100
AcDbEntity
  8
Layer 1
370
     0
100
AcDbVertex
100
AcDb2dVertex
 10
101.4910296555603
 20
-20.82441016266312
 30
0.0
  0
VERTEX
  5
87
330
84
100
AcDbEntity
  8
Layer 1
370
     0
100
AcDbVertex
100
AcDb2dVertex
 10
101.4910296555603
 20
-24.03524127308341
 30
0.0
  0
VERTEX
  5
88
330
84
100
AcDbEntity
  8
Layer 1
370
     0
100
AcDbVertex
100
AcDb2dVertex
 10
98.28071530980365
 20
-24.03524127308341
 30
0.0
  0
VERTEX
  5
89
330
84
100
AcDbEntity
  8
Layer 1
370
     0
100
AcDbVertex
100
AcDb2dVertex
 10
98.28071530980365
 20
-20.82441016266312
 30
0.0
  0
SEQEND
  5
8A
330
84
100
AcDbEntity
  8
Layer 1
370
     0
  0
POLYLINE
  5
8B
330
7E
100
AcDbEntity
  8
Layer 1
370
     0
100
AcDb2dPolyline
 66
     1
 10
0.0
 20
0.0
 30
0.0
  0
VERTEX
  5
8C
330
8B
100
AcDbEntity
  8
Layer 1
370
     0
100
AcDbVertex
100
AcDb2dVertex
 10
114.5439882958134
 20
-20.85989466957012
 30
0.0
  0
VERTEX
  5
8D
330
8B
100
AcDbEntity
  8
Layer 1
370
     0
100
AcDbVertex
100
AcDb2dVertex
 10
117.7541303866821
 20
-20.85989466957012
 30
0.0
  0
VERTEX
  5
8E
330
8B
100
AcDbEntity
  8
Layer 1
370
     0
100
AcDbVertex
100
AcDb2dVertex
 10
117.7541303866821
 20
-24.07003676043883
 30
0.0
  0
VERTEX
  5
8F
330
8B
100
AcDbEntity
  8
Layer 1
370
     0
100
AcDbVertex
100
AcDb2dVertex
 10
114.5439882958134
 20
-24.07003676043883
 30
0.0
  0
VERTEX
  5
90
330
8B
100
AcDbEntity
  8
Layer 1
370
     0
100
AcDbVertex
100
AcDb2dVertex
 10
114.5439882958134
 20
-20.85989466957012
 30
0.0
  0
SEQEND
  5
91
330
8B
100
AcDbEntity
  8
Layer 1
370
     0
  0
SPLINE
  5
92
330
7E
100
AcDbEntity
  8
Layer 1
370
     0
100
AcDbSpline
210
0.0
220
0.0
230
1.0
 70
    11
 71
     3
 72
    17
 73
    13
 74
     0
 42
0.0000000001
 43
0.0000000001
 40
0.0
 40
0.0
 40
0.0
 40
0.0
 40
1.0
 40
1.0
 40
1.0
 40
2.0
 40
2.0
 40
2.0
 40
3.0
 40
3.0
 40
3.0
 40
4.0
 40
4.0
 40
4.0
 40
4.0
 10
108.5467621187537
 20
-22.30614670836244
 30
0.0
 10
108.5467621187537
 20
-22.62378472164651
 30
0.0
 10
108.2646086123766
 20
-22.90593822802357
 30
0.0
 10
107.9469705990926
 20
-22.90593822802357
 30
0.0
 10
107.6293325858085
 20
-22.90593822802357
 30
0.0
 10
107.3471790794314
 20
-22.62378472164651
 30
0.0
 10
107.3471790794314
 20
-22.30614670836244
 30
0.0
 10
107.3471790794314
 20
-21.98850869507837
 30
0.0
 10
107.6293325858085
 20
-21.70635518870131
 30
0.0
 10
107.9469705990926
 20
-21.70635518870131
 30
0.0
 10
108.2997486095078
 20
-21.70635518870131
 30
0.0
 10
108.5467621187537
 20
-21.95336869794717
 30
0.0
 10
108.5467621187537
 20
-22.30614670836244
 30
0.0
  0
SPLINE
  5
93
330
7E
100
AcDbEntity
  8
Layer 1
370
     0
100
AcDbSpline
210
0.0
220
0.0
230
1.0
 70
    11
 71
     3
 72
    29
 73
    25
 74
     0
 42
0.0000000001
 43
0.0000000001
 40
0.0
 40
0.0
 40
0.0
 40
0.0
 40
1.0
 40
1.0
 40
1.0
 40
2.0
 40
2.0
 40
2.0
 40
3.0
 40
3.0
 40
3.0
 40
4.0
 40
4.0
 40
4.0
 40
5.0
 40
5.0
 40
5.0
 40
6.0
 40
6.0
 40
6.0
 40
7.0
 40
7.0
 40
7.0
 40
8.0
 40
8.0
 40
8.0
 40
8.0
 10
116.7667653692503
 20
-40.00016879325367
 30
0.0
 10
116.7667653692503
 20
-40.00016879325367
 30
0.0
 10
99.23328483988007
 20
-40.00016879325367
 30
0.0
 10
99.23328483988007
 20
-40.00016879325367
 30
0.0
 10
96.90508777504955
 20
-40.00016879325367
 30
0.0
 10
94.99994871489675
 20
-37.97892993865755
 30
0.0
 10
94.99994871489675
 20
-35.50810582664743
 30
0.0
 10
94.99994871489675
 20
-35.50810582664743
 30
0.0
 10
94.99994871489675
 20
-9.492105597623942
 30
0.0
 10
94.99994871489675
 20
-9.492105597623942
 30
0.0
 10
94.99994871489675
 20
-7.021625995389615
 30
0.0
 10
96.90508777504955
 20
-5.000042631017696
 30
0.0
 10
99.23328483988007
 20
-5.000042631017696
 30
0.0
 10
99.23328483988007
 20
-5.000042631017696
 30
0.0
 10
116.7667653692503
 20
-5.000042631017696
 30
0.0
 10
116.7667653692503
 20
-5.000042631017696
 30
0.0
 10
119.0949624340808
 20
-5.000042631017696
 30
0.0
 10
121.0001014942336
 20
-7.021625995389615
 30
0.0
 10
121.0001014942336
 20
-9.492105597623942
 30
0.0
 10
121.0001014942336
 20
-9.492105597623942
 30
0.0
 10
121.0001014942336
 20
-35.50810582664743
 30
0.0
 10
121.0001014942336
 20
-35.50810582664743
 30
0.0
 10
121.0001014942336
 20
-37.97892993865755
 30
0.0
 10
119.0949624340808
 20
-40.00016879325367
 30
0.0
 10
116.7667653692503
 20
-40.00016879325367
 30
0.0
  0
ENDBLK
  5
81
330
7E
100
AcDbEntity
  8
0
100
AcDbBlockEnd
  0
BLOCK
  5
96
330
94
100
AcDbEntity
  8
0
100
AcDbBlockBegin
  2
block 6
 70
     0
 71
     0
 10
0.0
 20
0.0
 30
0.0
  3
block 6
  1

  0
SPLINE
  5
98
330
94
100
AcDbEntity
  8
Layer 1
370
     0
100
AcDbSpline
210
0.0
220
0.0
230
1.0
 70
    11
 71
     3
 72
    17
 73
    13
 74
     0
 42
0.0000000001
 43
0.0000000001
 40
0.0
 40
0.0
 40
0.0
 40
0.0
 40
1.0
 40
1.0
 40
1.0
 40
2.0
 40
2.0
 40
2.0
 40
3.0
 40
3.0
 40
3.0
 40
4.0
 40
4.0
 40
4.0
 40
4.0
 10
139.4971758665057
 20
-9.817667335751322
 30
0.0
 10
139.4971758665057
 20
-10.6469023660927
 30
0.0
 10
138.8126349419987
 20
-11.36796132683408
 30
0.0
 10
137.9472263851987
 20
-11.36796132683408
 30
0.0
 10
137.1179913548574
 20
-11.36796132683408
 30
0.0
 10
136.396932394116
 20
-10.6830758925513
 30
0.0
 10
136.396932394116
 20
-9.817667335751322
 30
0.0
 10
136.396932394116
 20
-8.988776815185739
 30
0.0
 10
137.0821623381746
 20
-8.267373344668561
 30
0.0
 10
137.9472263851987
 20
-8.267373344668561
 30
0.0
 10
138.8126349419987
 20
-8.267373344668561
 30
0.0
 10
139.4971758665057
 20
-8.952603288727142
 30
0.0
 10
139.4971758665057
 20
-9.817667335751322
 30
0.0
  0
SPLINE
  5
99
330
94
100
AcDbEntity
  8
Layer 1
370
     0
100
AcDbSpline
210
0.0
220
0.0
230
1.0
 70
    11
 71
     3
 72
    17
 73
    13
 74
     0
 42
0.0000000001
 43
0.0000000001
 40
0.0
 40
0.0
 40
0.0
 40
0.0
 40
1.0
 40
1.0
 40
1.0
 40
2.0
 40
2.0
 40
2.0
 40
3.0
 40
3.0
 40
3.0
 40
4.0
 40
4.0
 40
4.0
 40
4.0
 10
139.5326603734127
 20
-35.21802859542706
 30
0.0
 10
139.5326603734127
 20
-36.04691911599264
 30
0.0
 10
138.8481194489057
 20
-36.76797807673402
 30
0.0
 10
137.98236638233
 20
-36.76797807673402
 30
0.0
 10
137.1534758617644
 20
-36.76797807673402
 30
0.0
 10
136.432416901023
 20
-36.08309264245123
 30
0.0
 10
136.432416901023
 20
-35.21802859542706
 30
0.0
 10
136.432416901023
 20
-34.38844905530988
 30
0.0
 10
137.1173023353058
 20
-33.6673900945685
 30
0.0
 10
137.98236638233
 20
-33.6673900945685
 30
0.0
 10
138.8481194489057
 20
-33.6673900945685
 30
0.0
 10
139.5326603734127
 20
-34.35262003862708
 30
0.0
 10
139.5326603734127
 20
-35.21802859542706
 30
0.0
  0
POLYLINE
  5
9A
330
94
100
AcDbEntity
  8
Layer 1
370
     0
100
AcDb2dPolyline
 66
     1
 10
0.0
 20
0.0
 30
0.0
  0
VERTEX
  5
9B
330
9A
100
AcDbEntity
  8
Layer 1
370
     0
100
AcDbVertex
100
AcDb2dVertex
 10
128.2809710959098
 20
-20.82441016266312
 30
0.0
  0
VERTEX
  5
9C
330
9A
100
AcDbEntity
  8
Layer 1
370
     0
100
AcDbVertex
100
AcDb2dVertex
 10
131.4911131867785
 20
-20.82441016266312
 30
0.0
  0
VERTEX
  5
9D
330
9A
100
AcDbEntity
  8
Layer 1
370
     0
100
AcDbVertex
100
AcDb2dVertex
 10
131.4911131867785
 20
-24.03524127308341
 30
0.0
  0
VERTEX
  5
9E
330
9A
100
AcDbEntity
  8
Layer 1
370
     0
100
AcDbVertex
100
AcDb2dVertex
 10
128.2809710959098
 20
-24.03524127308341
 30
0.0
  0
VERTEX
  5
9F
330
9A
100
AcDbEntity
  8
Layer 1
370
     0
100
AcDbVertex
100
AcDb2dVertex
 10
128.2809710959098
 20
-20.82441016266312
 30
0.0
  0
SEQEND
  5
A0
330
9A
100
AcDbEntity
  8
Layer 1
370
     0
  0
POLYLINE
  5
A1
330
94
100
AcDbEntity
  8
Layer 1
370
     0
100
AcDb2dPolyline
 66
     1
 10
0.0
 20
0.0
 30
0.0
  0
VERTEX
  5
A2
330
A1
100
AcDbEntity
  8
Layer 1
370
     0
100
AcDbVertex
100
AcDb2dVertex
 10
144.5442440819196
 20
-20.85989466957012
 30
0.0
  0
VERTEX
  5
A3
330
A1
100
AcDbEntity
  8
Layer 1
370
     0
100
AcDbVertex
100
AcDb2dVertex
 10
147.7543861727883
 20
-20.85989466957012
 30
0.0
  0
VERTEX
  5
A4
330
A1
100
AcDbEntity
  8
Layer 1
370
     0
100
AcDbVertex
100
AcDb2dVertex
 10
147.7543861727883
 20
-24.07003676043883
 30
0.0
  0
VERTEX
  5
A5
330
A1
100
AcDbEntity
  8
Layer 1
370
     0
100
AcDbVertex
100
AcDb2dVertex
 10
144.5442440819196
 20
-24.07003676043883
 30
0.0
  0
VERTEX
  5
A6
330
A1
100
AcDbEntity
  8
Layer 1
370
     0
100
AcDbVertex
100
AcDb2dVertex
 10
144.5442440819196
 20
-20.85989466957012
 30
0.0
  0
SEQEND
  5
A7
330
A1
100
AcDbEntity
  8
Layer 1
370
     0
  0
SPLINE
  5
A8
330
94
100
AcDbEntity
  8
Layer 1
370
     0
100
AcDbSpline
210
0.0
220
0.0
230
1.0
 70
    11
 71
     3
 72
    17
 73
    13
 74
     0
 42
0.0000000001
 43
0.0000000001
 40
0.0
 40
0.0
 40
0.0
 40
0.0
 40
1.0
 40
1.0
 40
1.0
 40
2.0
 40
2.0
 40
2.0
 40
3.0
 40
3.0
 40
3.0
 40
4.0
 40
4.0
 40
4.0
 40
4.0
 10
138.5470179048599
 20
-22.30614670836244
 30
0.0
 10
138.5470179048599
 20
-22.62378472164651
 30
0.0
 10
138.2648643984828
 20
-22.90593822802357
 30
0.0
 10
137.9472263851987
 20
-22.90593822802357
 30
0.0
 10
137.6295883719147
 20
-22.90593822802357
 30
0.0
 10
137.3474348655376
 20
-22.62378472164651
 30
0.0
 10
137.3474348655376
 20
-22.30614670836244
 30
0.0
 10
137.3474348655376
 20
-21.98850869507837
 30
0.0
 10
137.6295883719147
 20
-21.70635518870131
 30
0.0
 10
137.9472263851987
 20
-21.70635518870131
 30
0.0
 10
138.300004395614
 20
-21.70635518870131
 30
0.0
 10
138.5470179048599
 20
-21.95336869794717
 30
0.0
 10
138.5470179048599
 20
-22.30614670836244
 30
0.0
  0
SPLINE
  5
A9
330
94
100
AcDbEntity
  8
Layer 1
370
     0
100
AcDbSpline
210
0.0
220
0.0
230
1.0
 70
    11
 71
     3
 72
    29
 73
    25
 74
     0
 42
0.0000000001
 43
0.0000000001
 40
0.0
 40
0.0
 40
0.0
 40
0.0
 40
1.0
 40
1.0
 40
1.0
 40
2.0
 40
2.0
 40
2.0
 40
3.0
 40
3.0
 40
3.0
 40
4.0
 40
4.0
 40
4.0
 40
5.0
 40
5.0
 40
5.0
 40
6.0
 40
6.0
 40
6.0
 40
7.0
 40
7.0
 40
7.0
 40
8.0
 40
8.0
 40
8.0
 40
8.0
 10
146.7670211553565
 20
-40.00016879325367
 30
0.0
 10
146.7670211553565
 20
-40.00016879325367
 30
0.0
 10
129.2335406259863
 20
-40.00016879325367
 30
0.0
 10
129.2335406259863
 20
-40.00016879325367
 30
0.0
 10
126.9053435611557
 20
-40.00016879325367
 30
0.0
 10
125.0002045010029
 20
-37.97892993865755
 30
0.0
 10
125.0002045010029
 20
-35.50810582664743
 30
0.0
 10
125.0002045010029
 20
-35.50810582664743
 30
0.0
 10
125.0002045010029
 20
-9.492105597623942
 30
0.0
 10
125.0002045010029
 20
-9.492105597623942
 30
0.0
 10
125.0002045010029
 20
-7.021625995389615
 30
0.0
 10
126.9053435611557
 20
-5.000042631017696
 30
0.0
 10
129.2335406259863
 20
-5.000042631017696
 30
0.0
 10
129.2335406259863
 20
-5.000042631017696
 30
0.0
 10
146.7670211553565
 20
-5.000042631017696
 30
0.0
 10
146.7670211553565
 20
-5.000042631017696
 30
0.0
 10
149.095218220187
 20
-5.000042631017696
 30
0.0
 10
151.0003572803398
 20
-7.021625995389615
 30
0.0
 10
151.0003572803398
 20
-9.492105597623942
 30
0.0
 10
151.0003572803398
 20
-9.492105597623942
 30
0.0
 10
151.0003572803398
 20
-35.50810582664743
 30
0.0
 10
151.0003572803398
 20
-35.50810582664743
 30
0.0
 10
151.0003572803398
 20
-37.97892993865755
 30
0.0
 10
149.095218220187
 20
-40.00016879325367
 30
0.0
 10
146.7670211553565
 20
-40.00016879325367
 30
0.0
  0
ENDBLK
  5
97
330
94
100
AcDbEntity
  8
0
100
AcDbBlockEnd
  0
BLOCK
  5
AC
330
AA
100
AcDbEntity
  8
0
100
AcDbBlockBegin
  2
block 7
 70
     0
 71
     0
 10
0.0
 20
0.0
 30
0.0
  3
block 7
  1

  0
SPLINE
  5
AE
330
AA
100
AcDbEntity
  8
Layer 1
370
     0
100
AcDbSpline
210
0.0
220
0.0
230
1.0
 70
    11
 71
     3
 72
    17
 73
    13
 74
     0
 42
0.0000000001
 43
0.0000000001
 40
0.0
 40
0.0
 40
0.0
 40
0.0
 40
1.0
 40
1.0
 40
1.0
 40
2.0
 40
2.0
 40
2.0
 40
3.0
 40
3.0
 40
3.0
 40
4.0
 40
4.0
 40
4.0
 40
4.0
 10
19.49684174163258
 20
-48.81772424986872
 30
0.0
 10
19.49684174163258
 20
-49.6469592802101
 30
0.0
 10
18.8123008171256
 20
-50.36801824095148
 30
0.0
 10
17.94689226032562
 20
-50.36801824095148
 30
0.0
 10
17.11782948487214
 20
-50.36801824095148
 30
0.0
 10
16.39677052413076
 20
-49.6831328066687
 30
0.0
 10
16.39677052413076
 20
-48.81772424986872
 30
0.0
 10
16.39677052413076
 20
-47.98883372930314
 30
0.0
 10
17.08182821330144
 20
-47.26743025878596
 30
0.0
 10
17.94689226032562
 20
-47.26743025878596
 30
0.0
 10
18.8123008171256
 20
-47.26743025878596
 30
0.0
 10
19.49684174163258
 20
-47.95266020284454
 30
0.0
 10
19.49684174163258
 20
-48.81772424986872
 30
0.0
  0
SPLINE
  5
AF
330
AA
100
AcDbEntity
  8
Layer 1
370
     0
100
AcDbSpline
210
0.0
220
0.0
230
1.0
 70
    11
 71
     3
 72
    17
 73
    13
 74
     0
 42
0.0000000001
 43
0.0000000001
 40
0.0
 40
0.0
 40
0.0
 40
0.0
 40
1.0
 40
1.0
 40
1.0
 40
2.0
 40
2.0
 40
2.0
 40
3.0
 40
3.0
 40
3.0
 40
4.0
 40
4.0
 40
4.0
 40
4.0
 10
19.53232624853959
 20
-74.21808550954445
 30
0.0
 10
19.53232624853959
 20
-75.04697603011003
 30
0.0
 10
18.8477853240326
 20
-75.76803499085142
 30
0.0
 10
17.98220451234473
 20
-75.76803499085142
 30
0.0
 10
17.15314173689125
 20
-75.76803499085142
 30
0.0
 10
16.43208277614987
 20
-75.08314955656863
 30
0.0
 10
16.43208277614987
 20
-74.21808550954445
 30
0.0
 10
16.43208277614987
 20
-73.38850596942727
 30
0.0
 10
17.11714046532055
 20
-72.6674470086859
 30
0.0
 10
17.98220451234473
 20
-72.6674470086859
 30
0.0
 10
18.8477853240326
 20
-72.6674470086859
 30
0.0
 10
19.53232624853959
 20
-73.35267695274447
 30
0.0
 10
19.53232624853959
 20
-74.21808550954445
 30
0.0
  0
POLYLINE
  5
B0
330
AA
100
AcDbEntity
  8
Layer 1
370
     0
100
AcDb2dPolyline
 66
     1
 10
0.0
 20
0.0
 30
0.0
  0
VERTEX
  5
B1
330
B0
100
AcDbEntity
  8
Layer 1
370
     0
100
AcDbVertex
100
AcDb2dVertex
 10
8.280809225924612
 20
-59.82446707678051
 30
0.0
  0
VERTEX
  5
B2
330
B0
100
AcDbEntity
  8
Layer 1
370
     0
100
AcDbVertex
100
AcDb2dVertex
 10
11.49112357168121
 20
-59.82446707678051
 30
0.0
  0
VERTEX
  5
B3
330
B0
100
AcDbEntity
  8
Layer 1
370
     0
100
AcDbVertex
100
AcDb2dVertex
 10
11.49112357168121
 20
-63.03529818720081
 30
0.0
  0
VERTEX
  5
B4
330
B0
100
AcDbEntity
  8
Layer 1
370
     0
100
AcDbVertex
100
AcDb2dVertex
 10
8.280809225924612
 20
-63.03529818720081
 30
0.0
  0
VERTEX
  5
B5
330
B0
100
AcDbEntity
  8
Layer 1
370
     0
100
AcDbVertex
100
AcDb2dVertex
 10
8.280809225924612
 20
-59.82446707678051
 30
0.0
  0
SEQEND
  5
B6
330
B0
100
AcDbEntity
  8
Layer 1
370
     0
  0
POLYLINE
  5
B7
330
AA
100
AcDbEntity
  8
Layer 1
370
     0
100
AcDb2dPolyline
 66
     1
 10
0.0
 20
0.0
 30
0.0
  0
VERTEX
  5
B8
330
B7
100
AcDbEntity
  8
Layer 1
370
     0
100
AcDbVertex
100
AcDb2dVertex
 10
24.54390995704646
 20
-59.85995158368752
 30
0.0
  0
VERTEX
  5
B9
330
B7
100
AcDbEntity
  8
Layer 1
370
     0
100
AcDbVertex
100
AcDb2dVertex
 10
27.75405204791516
 20
-59.85995158368752
 30
0.0
  0
VERTEX
  5
BA
330
B7
100
AcDbEntity
  8
Layer 1
370
     0
100
AcDbVertex
100
AcDb2dVertex
 10
27.75405204791516
 20
-63.07009367455623
 30
0.0
  0
VERTEX
  5
BB
330
B7
100
AcDbEntity
  8
Layer 1
370
     0
100
AcDbVertex
100
AcDb2dVertex
 10
24.54390995704646
 20
-63.07009367455623
 30
0.0
  0
VERTEX
  5
BC
330
B7
100
AcDbEntity
  8
Layer 1
370
     0
100
AcDbVertex
100
AcDb2dVertex
 10
24.54390995704646
 20
-59.85995158368752
 30
0.0
  0
SEQEND
  5
BD
330
B7
100
AcDbEntity
  8
Layer 1
370
     0
  0
SPLINE
  5
BE
330
AA
100
AcDbEntity
  8
Layer 1
370
     0
100
AcDbSpline
210
0.0
220
0.0
230
1.0
 70
    11
 71
     3
 72
    17
 73
    13
 74
     0
 42
0.0000000001
 43
0.0000000001
 40
0.0
 40
0.0
 40
0.0
 40
0.0
 40
1.0
 40
1.0
 40
1.0
 40
2.0
 40
2.0
 40
2.0
 40
3.0
 40
3.0
 40
3.0
 40
4.0
 40
4.0
 40
4.0
 40
4.0
 10
18.54668377998675
 20
-61.30620362247984
 30
0.0
 10
18.54668377998675
 20
-61.62384163576391
 30
0.0
 10
18.26453027360969
 20
-61.90599514214097
 30
0.0
 10
17.94689226032562
 20
-61.90599514214097
 30
0.0
 10
17.62942650192945
 20
-61.90599514214097
 30
0.0
 10
17.34727299555239
 20
-61.62384163576391
 30
0.0
 10
17.34727299555239
 20
-61.30620362247984
 30
0.0
 10
17.34727299555239
 20
-60.98856560919577
 30
0.0
 10
17.62942650192945
 20
-60.70641210281871
 30
0.0
 10
17.94689226032562
 20
-60.70641210281871
 30
0.0
 10
18.2996702707409
 20
-60.70641210281871
 30
0.0
 10
18.54668377998675
 20
-60.95342561206456
 30
0.0
 10
18.54668377998675
 20
-61.30620362247984
 30
0.0
  0
SPLINE
  5
BF
330
AA
100
AcDbEntity
  8
Layer 1
370
     0
100
AcDbSpline
210
0.0
220
0.0
230
1.0
 70
    11
 71
     3
 72
    29
 73
    25
 74
     0
 42
0.0000000001
 43
0.0000000001
 40
0.0
 40
0.0
 40
0.0
 40
0.0
 40
1.0
 40
1.0
 40
1.0
 40
2.0
 40
2.0
 40
2.0
 40
3.0
 40
3.0
 40
3.0
 40
4.0
 40
4.0
 40
4.0
 40
5.0
 40
5.0
 40
5.0
 40
6.0
 40
6.0
 40
6.0
 40
7.0
 40
7.0
 40
7.0
 40
8.0
 40
8.0
 40
8.0
 40
8.0
 10
26.76668703048334
 20
-79.00022570737107
 30
0.0
 10
26.76668703048334
 20
-79.00022570737107
 30
0.0
 10
9.23337875600102
 20
-79.00022570737107
 30
0.0
 10
9.23337875600102
 20
-79.00022570737107
 30
0.0
 10
6.90518169117051
 20
-79.00022570737107
 30
0.0
 10
5.000042631017696
 20
-76.97898685277495
 30
0.0
 10
5.000042631017696
 20
-74.50816274076483
 30
0.0
 10
5.000042631017696
 20
-74.50816274076483
 30
0.0
 10
5.000042631017696
 20
-48.49216251174134
 30
0.0
 10
5.000042631017696
 20
-48.49216251174134
 30
0.0
 10
5.000042631017696
 20
-46.02168290950701
 30
0.0
 10
6.90518169117051
 20
-44.00009954513509
 30
0.0
 10
9.23337875600102
 20
-44.00009954513509
 30
0.0
 10
9.23337875600102
 20
-44.00009954513509
 30
0.0
 10
26.76668703048334
 20
-44.00009954513509
 30
0.0
 10
26.76668703048334
 20
-44.00009954513509
 30
0.0
 10
29.09488409531385
 20
-44.00009954513509
 30
0.0
 10
31.00002315546666
 20
-46.02168290950701
 30
0.0
 10
31.00002315546666
 20
-48.49216251174134
 30
0.0
 10
31.00002315546666
 20
-48.49216251174134
 30
0.0
 10
31.00002315546666
 20
-74.50816274076483
 30
0.0
 10
31.00002315546666
 20
-74.50816274076483
 30
0.0
 10
31.00002315546666
 20
-76.97898685277495
 30
0.0
 10
29.09488409531385
 20
-79.00022570737107
 30
0.0
 10
26.76668703048334
 20
-79.00022570737107
 30
0.0
  0
ENDBLK
  5
AD
330
AA
100
AcDbEntity
  8
0
100
AcDbBlockEnd
  0
BLOCK
  5
C2
330
C0
100
AcDbEntity
  8
0
100
AcDbBlockBegin
  2
block 8
 70
     0
 71
     0
 10
0.0
 20
0.0
 30
0.0
  3
block 8
  1

  0
SPLINE
  5
C4
330
C0
100
AcDbEntity
  8
Layer 1
370
     0
100
AcDbSpline
210
0.0
220
0.0
230
1.0
 70
    11
 71
     3
 72
    17
 73
    13
 74
     0
 42
0.0000000001
 43
0.0000000001
 40
0.0
 40
0.0
 40
0.0
 40
0.0
 40
1.0
 40
1.0
 40
1.0
 40
2.0
 40
2.0
 40
2.0
 40
3.0
 40
3.0
 40
3.0
 40
4.0
 40
4.0
 40
4.0
 40
4.0
 10
49.49675301796297
 20
-48.81772424986872
 30
0.0
 10
49.49675301796297
 20
-49.6469592802101
 30
0.0
 10
48.81221209345598
 20
-50.36801824095148
 30
0.0
 10
47.94680353665601
 20
-50.36801824095148
 30
0.0
 10
47.11774076120253
 20
-50.36801824095148
 30
0.0
 10
46.39668180046114
 20
-49.6831328066687
 30
0.0
 10
46.39668180046114
 20
-48.81772424986872
 30
0.0
 10
46.39668180046114
 20
-47.98883372930314
 30
0.0
 10
47.08173948963182
 20
-47.26743025878596
 30
0.0
 10
47.94680353665601
 20
-47.26743025878596
 30
0.0
 10
48.81221209345598
 20
-47.26743025878596
 30
0.0
 10
49.49675301796297
 20
-47.95266020284454
 30
0.0
 10
49.49675301796297
 20
-48.81772424986872
 30
0.0
  0
SPLINE
  5
C5
330
C0
100
AcDbEntity
  8
Layer 1
370
     0
100
AcDbSpline
210
0.0
220
0.0
230
1.0
 70
    11
 71
     3
 72
    17
 73
    13
 74
     0
 42
0.0000000001
 43
0.0000000001
 40
0.0
 40
0.0
 40
0.0
 40
0.0
 40
1.0
 40
1.0
 40
1.0
 40
2.0
 40
2.0
 40
2.0
 40
3.0
 40
3.0
 40
3.0
 40
4.0
 40
4.0
 40
4.0
 40
4.0
 10
49.53223752486997
 20
-74.21808550954445
 30
0.0
 10
49.53223752486997
 20
-75.04697603011003
 30
0.0
 10
48.84769660036299
 20
-75.76803499085142
 30
0.0
 10
47.98211578867511
 20
-75.76803499085142
 30
0.0
 10
47.15305301322163
 20
-75.76803499085142
 30
0.0
 10
46.43199405248025
 20
-75.08314955656863
 30
0.0
 10
46.43199405248025
 20
-74.21808550954445
 30
0.0
 10
46.43199405248025
 20
-73.38850596942727
 30
0.0
 10
47.11705174165093
 20
-72.6674470086859
 30
0.0
 10
47.98211578867511
 20
-72.6674470086859
 30
0.0
 10
48.84769660036299
 20
-72.6674470086859
 30
0.0
 10
49.53223752486997
 20
-73.35267695274447
 30
0.0
 10
49.53223752486997
 20
-74.21808550954445
 30
0.0
  0
POLYLINE
  5
C6
330
C0
100
AcDbEntity
  8
Layer 1
370
     0
100
AcDb2dPolyline
 66
     1
 10
0.0
 20
0.0
 30
0.0
  0
VERTEX
  5
C7
330
C6
100
AcDbEntity
  8
Layer 1
370
     0
100
AcDbVertex
100
AcDb2dVertex
 10
38.28072050225499
 20
-59.82446707678051
 30
0.0
  0
VERTEX
  5
C8
330
C6
100
AcDbEntity
  8
Layer 1
370
     0
100
AcDbVertex
100
AcDb2dVertex
 10
41.49103484801159
 20
-59.82446707678051
 30
0.0
  0
VERTEX
  5
C9
330
C6
100
AcDbEntity
  8
Layer 1
370
     0
100
AcDbVertex
100
AcDb2dVertex
 10
41.49103484801159
 20
-63.03529818720081
 30
0.0
  0
VERTEX
  5
CA
330
C6
100
AcDbEntity
  8
Layer 1
370
     0
100
AcDbVertex
100
AcDb2dVertex
 10
38.28072050225499
 20
-63.03529818720081
 30
0.0
  0
VERTEX
  5
CB
330
C6
100
AcDbEntity
  8
Layer 1
370
     0
100
AcDbVertex
100
AcDb2dVertex
 10
38.28072050225499
 20
-59.82446707678051
 30
0.0
  0
SEQEND
  5
CC
330
C6
100
AcDbEntity
  8
Layer 1
370
     0
  0
POLYLINE
  5
CD
330
C0
100
AcDbEntity
  8
Layer 1
370
     0
100
AcDb2dPolyline
 66
     1
 10
0.0
 20
0.0
 30
0.0
  0
VERTEX
  5
CE
330
CD
100
AcDbEntity
  8
Layer 1
370
     0
100
AcDbVertex
100
AcDb2dVertex
 10
54.54382123337684
 20
-59.85995158368752
 30
0.0
  0
VERTEX
  5
CF
330
CD
100
AcDbEntity
  8
Layer 1
370
     0
100
AcDbVertex
100
AcDb2dVertex
 10
57.75396332424554
 20
-59.85995158368752
 30
0.0
  0
VERTEX
  5
D0
330
CD
100
AcDbEntity
  8
Layer 1
370
     0
100
AcDbVertex
100
AcDb2dVertex
 10
57.75396332424554
 20
-63.07009367455623
 30
0.0
  0
VERTEX
  5
D1
330
CD
100
AcDbEntity
  8
Layer 1
370
     0
100
AcDbVertex
100
AcDb2dVertex
 10
54.54382123337684
 20
-63.07009367455623
 30
0.0
  0
VERTEX
  5
D2
330
CD
100
AcDbEntity
  8
Layer 1
370
     0
100
AcDbVertex
100
AcDb2dVertex
 10
54.54382123337684
 20
-59.85995158368752
 30
0.0
  0
SEQEND
  5
D3
330
CD
100
AcDbEntity
  8
Layer 1
370
     0
  0
SPLINE
  5
D4
330
C0
100
AcDbEntity
  8
Layer 1
370
     0
100
AcDbSpline
210
0.0
220
0.0
230
1.0
 70
    11
 71
     3
 72
    17
 73
    13
 74
     0
 42
0.0000000001
 43
0.0000000001
 40
0.0
 40
0.0
 40
0.0
 40
0.0
 40
1.0
 40
1.0
 40
1.0
 40
2.0
 40
2.0
 40
2.0
 40
3.0
 40
3.0
 40
3.0
 40
4.0
 40
4.0
 40
4.0
 40
4.0
 10
48.54659505631713
 20
-61.30620362247984
 30
0.0
 10
48.54659505631713
 20
-61.62384163576391
 30
0.0
 10
48.26444154994007
 20
-61.90599514214097
 30
0.0
 10
47.94680353665601
 20
-61.90599514214097
 30
0.0
 10
47.62933777825983
 20
-61.90599514214097
 30
0.0
 10
47.34718427188277
 20
-61.62384163576391
 30
0.0
 10
47.34718427188277
 20
-61.30620362247984
 30
0.0
 10
47.34718427188277
 20
-60.98856560919577
 30
0.0
 10
47.62933777825983
 20
-60.70641210281871
 30
0.0
 10
47.94680353665601
 20
-60.70641210281871
 30
0.0
 10
48.29958154707128
 20
-60.70641210281871
 30
0.0
 10
48.54659505631713
 20
-60.95342561206456
 30
0.0
 10
48.54659505631713
 20
-61.30620362247984
 30
0.0
  0
SPLINE
  5
D5
330
C0
100
AcDbEntity
  8
Layer 1
370
     0
100
AcDbSpline
210
0.0
220
0.0
230
1.0
 70
    11
 71
     3
 72
    29
 73
    25
 74
     0
 42
0.0000000001
 43
0.0000000001
 40
0.0
 40
0.0
 40
0.0
 40
0.0
 40
1.0
 40
1.0
 40
1.0
 40
2.0
 40
2.0
 40
2.0
 40
3.0
 40
3.0
 40
3.0
 40
4.0
 40
4.0
 40
4.0
 40
5.0
 40
5.0
 40
5.0
 40
6.0
 40
6.0
 40
6.0
 40
7.0
 40
7.0
 40
7.0
 40
8.0
 40
8.0
 40
8.0
 40
8.0
 10
56.76659830681372
 20
-79.00022570737107
 30
0.0
 10
56.76659830681372
 20
-79.00022570737107
 30
0.0
 10
39.2332900323314
 20
-79.00022570737107
 30
0.0
 10
39.2332900323314
 20
-79.00022570737107
 30
0.0
 10
36.90509296750089
 20
-79.00022570737107
 30
0.0
 10
34.99995390734808
 20
-76.97898685277495
 30
0.0
 10
34.99995390734808
 20
-74.50816274076483
 30
0.0
 10
34.99995390734808
 20
-74.50816274076483
 30
0.0
 10
34.99995390734808
 20
-48.49216251174134
 30
0.0
 10
34.99995390734808
 20
-48.49216251174134
 30
0.0
 10
34.99995390734808
 20
-46.02168290950701
 30
0.0
 10
36.90509296750089
 20
-44.00009954513509
 30
0.0
 10
39.2332900323314
 20
-44.00009954513509
 30
0.0
 10
39.2332900323314
 20
-44.00009954513509
 30
0.0
 10
56.76659830681372
 20
-44.00009954513509
 30
0.0
 10
56.76659830681372
 20
-44.00009954513509
 30
0.0
 10
59.09479537164423
 20
-44.00009954513509
 30
0.0
 10
60.99993443179704
 20
-46.02168290950701
 30
0.0
 10
60.99993443179704
 20
-48.49216251174134
 30
0.0
 10
60.99993443179704
 20
-48.49216251174134
 30
0.0
 10
60.99993443179704
 20
-74.50816274076483
 30
0.0
 10
60.99993443179704
 20
-74.50816274076483
 30
0.0
 10
60.99993443179704
 20
-76.97898685277495
 30
0.0
 10
59.09479537164423
 20
-79.00022570737107
 30
0.0
 10
56.76659830681372
 20
-79.00022570737107
 30
0.0
  0
ENDBLK
  5
C3
330
C0
100
AcDbEntity
  8
0
100
AcDbBlockEnd
  0
BLOCK
  5
D8
330
D6
100
AcDbEntity
  8
0
100
AcDbBlockBegin
  2
block 9
 70
     0
 71
     0
 10
0.0
 20
0.0
 30
0.0
  3
block 9
  1

  0
SPLINE
  5
DA
330
D6
100
AcDbEntity
  8
Layer 1
370
     0
100
AcDbSpline
210
0.0
220
0.0
230
1.0
 70
    11
 71
     3
 72
    17
 73
    13
 74
     0
 42
0.0000000001
 43
0.0000000001
 40
0.0
 40
0.0
 40
0.0
 40
0.0
 40
1.0
 40
1.0
 40
1.0
 40
2.0
 40
2.0
 40
2.0
 40
3.0
 40
3.0
 40
3.0
 40
4.0
 40
4.0
 40
4.0
 40
4.0
 10
79.49683654918125
 20
-48.81772424986872
 30
0.0
 10
79.49683654918125
 20
-49.6469592802101
 30
0.0
 10
78.81229562467426
 20
-50.36801824095148
 30
0.0
 10
77.94688706787429
 20
-50.36801824095148
 30
0.0
 10
77.1178242924208
 20
-50.36801824095148
 30
0.0
 10
76.39676533167942
 20
-49.6831328066687
 30
0.0
 10
76.39676533167942
 20
-48.81772424986872
 30
0.0
 10
76.39676533167942
 20
-47.98883372930314
 30
0.0
 10
77.08182302085011
 20
-47.26743025878596
 30
0.0
 10
77.94688706787429
 20
-47.26743025878596
 30
0.0
 10
78.81229562467426
 20
-47.26743025878596
 30
0.0
 10
79.49683654918125
 20
-47.95266020284454
 30
0.0
 10
79.49683654918125
 20
-48.81772424986872
 30
0.0
  0
SPLINE
  5
DB
330
D6
100
AcDbEntity
  8
Layer 1
370
     0
100
AcDbSpline
210
0.0
220
0.0
230
1.0
 70
    11
 71
     3
 72
    17
 73
    13
 74
     0
 42
0.0000000001
 43
0.0000000001
 40
0.0
 40
0.0
 40
0.0
 40
0.0
 40
1.0
 40
1.0
 40
1.0
 40
2.0
 40
2.0
 40
2.0
 40
3.0
 40
3.0
 40
3.0
 40
4.0
 40
4.0
 40
4.0
 40
4.0
 10
79.53232105608825
 20
-74.21808550954445
 30
0.0
 10
79.53232105608825
 20
-75.04697603011003
 30
0.0
 10
78.84778013158126
 20
-75.76803499085142
 30
0.0
 10
77.9821993198934
 20
-75.76803499085142
 30
0.0
 10
77.15313654443992
 20
-75.76803499085142
 30
0.0
 10
76.43207758369853
 20
-75.08314955656863
 30
0.0
 10
76.43207758369853
 20
-74.21808550954445
 30
0.0
 10
76.43207758369853
 20
-73.38850596942727
 30
0.0
 10
77.1171352728692
 20
-72.6674470086859
 30
0.0
 10
77.9821993198934
 20
-72.6674470086859
 30
0.0
 10
78.84778013158126
 20
-72.6674470086859
 30
0.0
 10
79.53232105608825
 20
-73.35267695274447
 30
0.0
 10
79.53232105608825
 20
-74.21808550954445
 30
0.0
  0
POLYLINE
  5
DC
330
D6
100
AcDbEntity
  8
Layer 1
370
     0
100
AcDb2dPolyline
 66
     1
 10
0.0
 20
0.0
 30
0.0
  0
VERTEX
  5
DD
330
DC
100
AcDbEntity
  8
Layer 1
370
     0
100
AcDbVertex
100
AcDb2dVertex
 10
68.28080403347327
 20
-59.82446707678051
 30
0.0
  0
VERTEX
  5
DE
330
DC
100
AcDbEntity
  8
Layer 1
370
     0
100
AcDbVertex
100
AcDb2dVertex
 10
71.49111837922987
 20
-59.82446707678051
 30
0.0
  0
VERTEX
  5
DF
330
DC
100
AcDbEntity
  8
Layer 1
370
     0
100
AcDbVertex
100
AcDb2dVertex
 10
71.49111837922987
 20
-63.03529818720081
 30
0.0
  0
VERTEX
  5
E0
330
DC
100
AcDbEntity
  8
Layer 1
370
     0
100
AcDbVertex
100
AcDb2dVertex
 10
68.28080403347327
 20
-63.03529818720081
 30
0.0
  0
VERTEX
  5
E1
330
DC
100
AcDbEntity
  8
Layer 1
370
     0
100
AcDbVertex
100
AcDb2dVertex
 10
68.28080403347327
 20
-59.82446707678051
 30
0.0
  0
SEQEND
  5
E2
330
DC
100
AcDbEntity
  8
Layer 1
370
     0
  0
POLYLINE
  5
E3
330
D6
100
AcDbEntity
  8
Layer 1
370
     0
100
AcDb2dPolyline
 66
     1
 10
0.0
 20
0.0
 30
0.0
  0
VERTEX
  5
E4
330
E3
100
AcDbEntity
  8
Layer 1
370
     0
100
AcDbVertex
100
AcDb2dVertex
 10
84.54390476459513
 20
-59.85995158368752
 30
0.0
  0
VERTEX
  5
E5
330
E3
100
AcDbEntity
  8
Layer 1
370
     0
100
AcDbVertex
100
AcDb2dVertex
 10
87.75404685546383
 20
-59.85995158368752
 30
0.0
  0
VERTEX
  5
E6
330
E3
100
AcDbEntity
  8
Layer 1
370
     0
100
AcDbVertex
100
AcDb2dVertex
 10
87.75404685546383
 20
-63.07009367455623
 30
0.0
  0
VERTEX
  5
E7
330
E3
100
AcDbEntity
  8
Layer 1
370
     0
100
AcDbVertex
100
AcDb2dVertex
 10
84.54390476459513
 20
-63.07009367455623
 30
0.0
  0
VERTEX
  5
E8
330
E3
100
AcDbEntity
  8
Layer 1
370
     0
100
AcDbVertex
100
AcDb2dVertex
 10
84.54390476459513
 20
-59.85995158368752
 30
0.0
  0
SEQEND
  5
E9
330
E3
100
AcDbEntity
  8
Layer 1
370
     0
  0
SPLINE
  5
EA
330
D6
100
AcDbEntity
  8
Layer 1
370
     0
100
AcDbSpline
210
0.0
220
0.0
230
1.0
 70
    11
 71
     3
 72
    17
 73
    13
 74
     0
 42
0.0000000001
 43
0.0000000001
 40
0.0
 40
0.0
 40
0.0
 40
0.0
 40
1.0
 40
1.0
 40
1.0
 40
2.0
 40
2.0
 40
2.0
 40
3.0
 40
3.0
 40
3.0
 40
4.0
 40
4.0
 40
4.0
 40
4.0
 10
78.54667858753541
 20
-61.30620362247984
 30
0.0
 10
78.54667858753541
 20
-61.62384163576391
 30
0.0
 10
78.26452508115835
 20
-61.90599514214097
 30
0.0
 10
77.94688706787429
 20
-61.90599514214097
 30
0.0
 10
77.62942130947812
 20
-61.90599514214097
 30
0.0
 10
77.34726780310105
 20
-61.62384163576391
 30
0.0
 10
77.34726780310105
 20
-61.30620362247984
 30
0.0
 10
77.34726780310105
 20
-60.98856560919577
 30
0.0
 10
77.62942130947812
 20
-60.70641210281871
 30
0.0
 10
77.94688706787429
 20
-60.70641210281871
 30
0.0
 10
78.29966507828956
 20
-60.70641210281871
 30
0.0
 10
78.54667858753541
 20
-60.95342561206456
 30
0.0
 10
78.54667858753541
 20
-61.30620362247984
 30
0.0
  0
SPLINE
  5
EB
330
D6
100
AcDbEntity
  8
Layer 1
370
     0
100
AcDbSpline
210
0.0
220
0.0
230
1.0
 70
    11
 71
     3
 72
    29
 73
    25
 74
     0
 42
0.0000000001
 43
0.0000000001
 40
0.0
 40
0.0
 40
0.0
 40
0.0
 40
1.0
 40
1.0
 40
1.0
 40
2.0
 40
2.0
 40
2.0
 40
3.0
 40
3.0
 40
3.0
 40
4.0
 40
4.0
 40
4.0
 40
5.0
 40
5.0
 40
5.0
 40
6.0
 40
6.0
 40
6.0
 40
7.0
 40
7.0
 40
7.0
 40
8.0
 40
8.0
 40
8.0
 40
8.0
 10
86.766681838032
 20
-79.00022570737107
 30
0.0
 10
86.766681838032
 20
-79.00022570737107
 30
0.0
 10
69.23337356354969
 20
-79.00022570737107
 30
0.0
 10
69.23337356354969
 20
-79.00022570737107
 30
0.0
 10
66.90517649871917
 20
-79.00022570737107
 30
0.0
 10
65.00003743856637
 20
-76.97898685277495
 30
0.0
 10
65.00003743856637
 20
-74.50816274076483
 30
0.0
 10
65.00003743856637
 20
-74.50816274076483
 30
0.0
 10
65.00003743856637
 20
-48.49216251174134
 30
0.0
 10
65.00003743856637
 20
-48.49216251174134
 30
0.0
 10
65.00003743856637
 20
-46.02168290950701
 30
0.0
 10
66.90517649871917
 20
-44.00009954513509
 30
0.0
 10
69.23337356354969
 20
-44.00009954513509
 30
0.0
 10
69.23337356354969
 20
-44.00009954513509
 30
0.0
 10
86.766681838032
 20
-44.00009954513509
 30
0.0
 10
86.766681838032
 20
-44.00009954513509
 30
0.0
 10
89.09487890286252
 20
-44.00009954513509
 30
0.0
 10
91.00001796301532
 20
-46.02168290950701
 30
0.0
 10
91.00001796301532
 20
-48.49216251174134
 30
0.0
 10
91.00001796301532
 20
-48.49216251174134
 30
0.0
 10
91.00001796301532
 20
-74.50816274076483
 30
0.0
 10
91.00001796301532
 20
-74.50816274076483
 30
0.0
 10
91.00001796301532
 20
-76.97898685277495
 30
0.0
 10
89.09487890286252
 20
-79.00022570737107
 30
0.0
 10
86.766681838032
 20
-79.00022570737107
 30
0.0
  0
ENDBLK
  5
D9
330
D6
100
AcDbEntity
  8
0
100
AcDbBlockEnd
  0
BLOCK
  5
EE
330
EC
100
AcDbEntity
  8
0
100
AcDbBlockBegin
  2
block 10
 70
     0
 71
     0
 10
0.0
 20
0.0
 30
0.0
  3
block 10
  1

  0
SPLINE
  5
F0
330
EC
100
AcDbEntity
  8
Layer 1
370
     0
100
AcDbSpline
210
0.0
220
0.0
230
1.0
 70
    11
 71
     3
 72
    17
 73
    13
 74
     0
 42
0.0000000001
 43
0.0000000001
 40
0.0
 40
0.0
 40
0.0
 40
0.0
 40
1.0
 40
1.0
 40
1.0
 40
2.0
 40
2.0
 40
2.0
 40
3.0
 40
3.0
 40
3.0
 40
4.0
 40
4.0
 40
4.0
 40
4.0
 10
109.4969200803995
 20
-48.81772424986872
 30
0.0
 10
109.4969200803995
 20
-49.6469592802101
 30
0.0
 10
108.8123791558925
 20
-50.36801824095148
 30
0.0
 10
107.9469705990926
 20
-50.36801824095148
 30
0.0
 10
107.1177355687512
 20
-50.36801824095148
 30
0.0
 10
106.3966766080098
 20
-49.6831328066687
 30
0.0
 10
106.3966766080098
 20
-48.81772424986872
 30
0.0
 10
106.3966766080098
 20
-47.98883372930314
 30
0.0
 10
107.0819065520684
 20
-47.26743025878596
 30
0.0
 10
107.9469705990926
 20
-47.26743025878596
 30
0.0
 10
108.8123791558925
 20
-47.26743025878596
 30
0.0
 10
109.4969200803995
 20
-47.95266020284454
 30
0.0
 10
109.4969200803995
 20
-48.81772424986872
 30
0.0
  0
SPLINE
  5
F1
330
EC
100
AcDbEntity
  8
Layer 1
370
     0
100
AcDbSpline
210
0.0
220
0.0
230
1.0
 70
    11
 71
     3
 72
    17
 73
    13
 74
     0
 42
0.0000000001
 43
0.0000000001
 40
0.0
 40
0.0
 40
0.0
 40
0.0
 40
1.0
 40
1.0
 40
1.0
 40
2.0
 40
2.0
 40
2.0
 40
3.0
 40
3.0
 40
3.0
 40
4.0
 40
4.0
 40
4.0
 40
4.0
 10
109.5324045873065
 20
-74.21808550954445
 30
0.0
 10
109.5324045873065
 20
-75.04697603011003
 30
0.0
 10
108.8478636627996
 20
-75.76803499085142
 30
0.0
 10
107.9821105962238
 20
-75.76803499085142
 30
0.0
 10
107.1532200756582
 20
-75.76803499085142
 30
0.0
 10
106.4321611149168
 20
-75.08314955656863
 30
0.0
 10
106.4321611149168
 20
-74.21808550954445
 30
0.0
 10
106.4321611149168
 20
-73.38850596942727
 30
0.0
 10
107.1170465491996
 20
-72.6674470086859
 30
0.0
 10
107.9821105962238
 20
-72.6674470086859
 30
0.0
 10
108.8478636627996
 20
-72.6674470086859
 30
0.0
 10
109.5324045873065
 20
-73.35267695274447
 30
0.0
 10
109.5324045873065
 20
-74.21808550954445
 30
0.0
  0
POLYLINE
  5
F2
330
EC
100
AcDbEntity
  8
Layer 1
370
     0
100
AcDb2dPolyline
 66
     1
 10
0.0
 20
0.0
 30
0.0
  0
VERTEX
  5
F3
330
F2
100
AcDbEntity
  8
Layer 1
370
     0
100
AcDbVertex
100
AcDb2dVertex
 10
98.28071530980365
 20
-59.82446707678051
 30
0.0
  0
VERTEX
  5
F4
330
F2
100
AcDbEntity
  8
Layer 1
370
     0
100
AcDbVertex
100
AcDb2dVertex
 10
101.4910296555603
 20
-59.82446707678051
 30
0.0
  0
VERTEX
  5
F5
330
F2
100
AcDbEntity
  8
Layer 1
370
     0
100
AcDbVertex
100
AcDb2dVertex
 10
101.4910296555603
 20
-63.03529818720081
 30
0.0
  0
VERTEX
  5
F6
330
F2
100
AcDbEntity
  8
Layer 1
370
     0
100
AcDbVertex
100
AcDb2dVertex
 10
98.28071530980365
 20
-63.03529818720081
 30
0.0
  0
VERTEX
  5
F7
330
F2
100
AcDbEntity
  8
Layer 1
370
     0
100
AcDbVertex
100
AcDb2dVertex
 10
98.28071530980365
 20
-59.82446707678051
 30
0.0
  0
SEQEND
  5
F8
330
F2
100
AcDbEntity
  8
Layer 1
370
     0
  0
POLYLINE
  5
F9
330
EC
100
AcDbEntity
  8
Layer 1
370
     0
100
AcDb2dPolyline
 66
     1
 10
0.0
 20
0.0
 30
0.0
  0
VERTEX
  5
FA
330
F9
100
AcDbEntity
  8
Layer 1
370
     0
100
AcDbVertex
100
AcDb2dVertex
 10
114.5439882958134
 20
-59.85995158368752
 30
0.0
  0
VERTEX
  5
FB
330
F9
100
AcDbEntity
  8
Layer 1
370
     0
100
AcDbVertex
100
AcDb2dVertex
 10
117.7541303866821
 20
-59.85995158368752
 30
0.0
  0
VERTEX
  5
FC
330
F9
100
AcDbEntity
  8
Layer 1
370
     0
100
AcDbVertex
100
AcDb2dVertex
 10
117.7541303866821
 20
-63.07009367455623
 30
0.0
  0
VERTEX
  5
FD
330
F9
100
AcDbEntity
  8
Layer 1
370
     0
100
AcDbVertex
100
AcDb2dVertex
 10
114.5439882958134
 20
-63.07009367455623
 30
0.0
  0
VERTEX
  5
FE
330
F9
100
AcDbEntity
  8
Layer 1
370
     0
100
AcDbVertex
100
AcDb2dVertex
 10
114.5439882958134
 20
-59.85995158368752
 30
0.0
  0
SEQEND
  5
FF
330
F9
100
AcDbEntity
  8
Layer 1
370
     0
  0
SPLINE
  5
100
330
EC
100
AcDbEntity
  8
Layer 1
370
     0
100
AcDbSpline
210
0.0
220
0.0
230
1.0
 70
    11
 71
     3
 72
    17
 73
    13
 74
     0
 42
0.0000000001
 43
0.0000000001
 40
0.0
 40
0.0
 40
0.0
 40
0.0
 40
1.0
 40
1.0
 40
1.0
 40
2.0
 40
2.0
 40
2.0
 40
3.0
 40
3.0
 40
3.0
 40
4.0
 40
4.0
 40
4.0
 40
4.0
 10
108.5467621187537
 20
-61.30620362247984
 30
0.0
 10
108.5467621187537
 20
-61.62384163576391
 30
0.0
 10
108.2646086123766
 20
-61.90599514214097
 30
0.0
 10
107.9469705990926
 20
-61.90599514214097
 30
0.0
 10
107.6293325858085
 20
-61.90599514214097
 30
0.0
 10
107.3471790794314
 20
-61.62384163576391
 30
0.0
 10
107.3471790794314
 20
-61.30620362247984
 30
0.0
 10
107.3471790794314
 20
-60.98856560919577
 30
0.0
 10
107.6293325858085
 20
-60.70641210281871
 30
0.0
 10
107.9469705990926
 20
-60.70641210281871
 30
0.0
 10
108.2997486095078
 20
-60.70641210281871
 30
0.0
 10
108.5467621187537
 20
-60.95342561206456
 30
0.0
 10
108.5467621187537
 20
-61.30620362247984
 30
0.0
  0
SPLINE
  5
101
330
EC
100
AcDbEntity
  8
Layer 1
370
     0
100
AcDbSpline
210
0.0
220
0.0
230
1.0
 70
    11
 71
     3
 72
    29
 73
    25
 74
     0
 42
0.0000000001
 43
0.0000000001
 40
0.0
 40
0.0
 40
0.0
 40
0.0
 40
1.0
 40
1.0
 40
1.0
 40
2.0
 40
2.0
 40
2.0
 40
3.0
 40
3.0
 40
3.0
 40
4.0
 40
4.0
 40
4.0
 40
5.0
 40
5.0
 40
5.0
 40
6.0
 40
6.0
 40
6.0
 40
7.0
 40
7.0
 40
7.0
 40
8.0
 40
8.0
 40
8.0
 40
8.0
 10
116.7667653692503
 20
-79.00022570737107
 30
0.0
 10
116.7667653692503
 20
-79.00022570737107
 30
0.0
 10
99.23328483988007
 20
-79.00022570737107
 30
0.0
 10
99.23328483988007
 20
-79.00022570737107
 30
0.0
 10
96.90508777504955
 20
-79.00022570737107
 30
0.0
 10
94.99994871489675
 20
-76.97898685277495
 30
0.0
 10
94.99994871489675
 20
-74.50816274076483
 30
0.0
 10
94.99994871489675
 20
-74.50816274076483
 30
0.0
 10
94.99994871489675
 20
-48.49216251174134
 30
0.0
 10
94.99994871489675
 20
-48.49216251174134
 30
0.0
 10
94.99994871489675
 20
-46.02168290950701
 30
0.0
 10
96.90508777504955
 20
-44.00009954513509
 30
0.0
 10
99.23328483988007
 20
-44.00009954513509
 30
0.0
 10
99.23328483988007
 20
-44.00009954513509
 30
0.0
 10
116.7667653692503
 20
-44.00009954513509
 30
0.0
 10
116.7667653692503
 20
-44.00009954513509
 30
0.0
 10
119.0949624340808
 20
-44.00009954513509
 30
0.0
 10
121.0001014942336
 20
-46.02168290950701
 30
0.0
 10
121.0001014942336
 20
-48.49216251174134
 30
0.0
 10
121.0001014942336
 20
-48.49216251174134
 30
0.0
 10
121.0001014942336
 20
-74.50816274076483
 30
0.0
 10
121.0001014942336
 20
-74.50816274076483
 30
0.0
 10
121.0001014942336
 20
-76.97898685277495
 30
0.0
 10
119.0949624340808
 20
-79.00022570737107
 30
0.0
 10
116.7667653692503
 20
-79.00022570737107
 30
0.0
  0
ENDBLK
  5
EF
330
EC
100
AcDbEntity
  8
0
100
AcDbBlockEnd
  0
BLOCK
  5
104
330
102
100
AcDbEntity
  8
0
100
AcDbBlockBegin
  2
block 11
 70
     0
 71
     0
 10
0.0
 20
0.0
 30
0.0
  3
block 11
  1

  0
SPLINE
  5
106
330
102
100
AcDbEntity
  8
Layer 1
370
     0
100
AcDbSpline
210
0.0
220
0.0
230
1.0
 70
    11
 71
     3
 72
    17
 73
    13
 74
     0
 42
0.0000000001
 43
0.0000000001
 40
0.0
 40
0.0
 40
0.0
 40
0.0
 40
1.0
 40
1.0
 40
1.0
 40
2.0
 40
2.0
 40
2.0
 40
3.0
 40
3.0
 40
3.0
 40
4.0
 40
4.0
 40
4.0
 40
4.0
 10
139.4971758665057
 20
-48.81772424986872
 30
0.0
 10
139.4971758665057
 20
-49.6469592802101
 30
0.0
 10
138.8126349419987
 20
-50.36801824095148
 30
0.0
 10
137.9472263851987
 20
-50.36801824095148
 30
0.0
 10
137.1179913548574
 20
-50.36801824095148
 30
0.0
 10
136.396932394116
 20
-49.6831328066687
 30
0.0
 10
136.396932394116
 20
-48.81772424986872
 30
0.0
 10
136.396932394116
 20
-47.98883372930314
 30
0.0
 10
137.0821623381746
 20
-47.26743025878596
 30
0.0
 10
137.9472263851987
 20
-47.26743025878596
 30
0.0
 10
138.8126349419987
 20
-47.26743025878596
 30
0.0
 10
139.4971758665057
 20
-47.95266020284454
 30
0.0
 10
139.4971758665057
 20
-48.81772424986872
 30
0.0
  0
SPLINE
  5
107
330
102
100
AcDbEntity
  8
Layer 1
370
     0
100
AcDbSpline
210
0.0
220
0.0
230
1.0
 70
    11
 71
     3
 72
    17
 73
    13
 74
     0
 42
0.0000000001
 43
0.0000000001
 40
0.0
 40
0.0
 40
0.0
 40
0.0
 40
1.0
 40
1.0
 40
1.0
 40
2.0
 40
2.0
 40
2.0
 40
3.0
 40
3.0
 40
3.0
 40
4.0
 40
4.0
 40
4.0
 40
4.0
 10
139.5326603734127
 20
-74.21808550954445
 30
0.0
 10
139.5326603734127
 20
-75.04697603011003
 30
0.0
 10
138.8481194489057
 20
-75.76803499085142
 30
0.0
 10
137.98236638233
 20
-75.76803499085142
 30
0.0
 10
137.1534758617644
 20
-75.76803499085142
 30
0.0
 10
136.432416901023
 20
-75.08314955656863
 30
0.0
 10
136.432416901023
 20
-74.21808550954445
 30
0.0
 10
136.432416901023
 20
-73.38850596942727
 30
0.0
 10
137.1173023353058
 20
-72.6674470086859
 30
0.0
 10
137.98236638233
 20
-72.6674470086859
 30
0.0
 10
138.8481194489057
 20
-72.6674470086859
 30
0.0
 10
139.5326603734127
 20
-73.35267695274447
 30
0.0
 10
139.5326603734127
 20
-74.21808550954445
 30
0.0
  0
POLYLINE
  5
108
330
102
100
AcDbEntity
  8
Layer 1
370
     0
100
AcDb2dPolyline
 66
     1
 10
0.0
 20
0.0
 30
0.0
  0
VERTEX
  5
109
330
108
100
AcDbEntity
  8
Layer 1
370
     0
100
AcDbVertex
100
AcDb2dVertex
 10
128.2809710959098
 20
-59.82446707678051
 30
0.0
  0
VERTEX
  5
10A
330
108
100
AcDbEntity
  8
Layer 1
370
     0
100
AcDbVertex
100
AcDb2dVertex
 10
131.4911131867785
 20
-59.82446707678051
 30
0.0
  0
VERTEX
  5
10B
330
108
100
AcDbEntity
  8
Layer 1
370
     0
100
AcDbVertex
100
AcDb2dVertex
 10
131.4911131867785
 20
-63.03529818720081
 30
0.0
  0
VERTEX
  5
10C
330
108
100
AcDbEntity
  8
Layer 1
370
     0
100
AcDbVertex
100
AcDb2dVertex
 10
128.2809710959098
 20
-63.03529818720081
 30
0.0
  0
VERTEX
  5
10D
330
108
100
AcDbEntity
  8
Layer 1
370
     0
100
AcDbVertex
100
AcDb2dVertex
 10
128.2809710959098
 20
-59.82446707678051
 30
0.0
  0
SEQEND
  5
10E
330
108
100
AcDbEntity
  8
Layer 1
370
     0
  0
POLYLINE
  5
10F
330
102
100
AcDbEntity
  8
Layer 1
370
     0
100
AcDb2dPolyline
 66
     1
 10
0.0
 20
0.0
 30
0.0
  0
VERTEX
  5
110
330
10F
100
AcDbEntity
  8
Layer 1
370
     0
100
AcDbVertex
100
AcDb2dVertex
 10
144.5442440819196
 20
-59.85995158368752
 30
0.0
  0
VERTEX
  5
111
330
10F
100
AcDbEntity
  8
Layer 1
370
     0
100
AcDbVertex
100
AcDb2dVertex
 10
147.7543861727883
 20
-59.85995158368752
 30
0.0
  0
VERTEX
  5
112
330
10F
100
AcDbEntity
  8
Layer 1
370
     0
100
AcDbVertex
100
AcDb2dVertex
 10
147.7543861727883
 20
-63.07009367455623
 30
0.0
  0
VERTEX
  5
113
330
10F
100
AcDbEntity
  8
Layer 1
370
     0
100
AcDbVertex
100
AcDb2dVertex
 10
144.5442440819196
 20
-63.07009367455623
 30
0.0
  0
VERTEX
  5
114
330
10F
100
AcDbEntity
  8
Layer 1
370
     0
100
AcDbVertex
100
AcDb2dVertex
 10
144.5442440819196
 20
-59.85995158368752
 30
0.0
  0
SEQEND
  5
115
330
10F
100
AcDbEntity
  8
Layer 1
370
     0
  0
SPLINE
  5
116
330
102
100
AcDbEntity
  8
Layer 1
370
     0
100
AcDbSpline
210
0.0
220
0.0
230
1.0
 70
    11
 71
     3
 72
    17
 73
    13
 74
     0
 42
0.0000000001
 43
0.0000000001
 40
0.0
 40
0.0
 40
0.0
 40
0.0
 40
1.0
 40
1.0
 40
1.0
 40
2.0
 40
2.0
 40
2.0
 40
3.0
 40
3.0
 40
3.0
 40
4.0
 40
4.0
 40
4.0
 40
4.0
 10
138.5470179048599
 20
-61.30620362247984
 30
0.0
 10
138.5470179048599
 20
-61.62384163576391
 30
0.0
 10
138.2648643984828
 20
-61.90599514214097
 30
0.0
 10
137.9472263851987
 20
-61.90599514214097
 30
0.0
 10
137.6295883719147
 20
-61.90599514214097
 30
0.0
 10
137.3474348655376
 20
-61.62384163576391
 30
0.0
 10
137.3474348655376
 20
-61.30620362247984
 30
0.0
 10
137.3474348655376
 20
-60.98856560919577
 30
0.0
 10
137.6295883719147
 20
-60.70641210281871
 30
0.0
 10
137.9472263851987
 20
-60.70641210281871
 30
0.0
 10
138.300004395614
 20
-60.70641210281871
 30
0.0
 10
138.5470179048599
 20
-60.95342561206456
 30
0.0
 10
138.5470179048599
 20
-61.30620362247984
 30
0.0
  0
SPLINE
  5
117
330
102
100
AcDbEntity
  8
Layer 1
370
     0
100
AcDbSpline
210
0.0
220
0.0
230
1.0
 70
    11
 71
     3
 72
    29
 73
    25
 74
     0
 42
0.0000000001
 43
0.0000000001
 40
0.0
 40
0.0
 40
0.0
 40
0.0
 40
1.0
 40
1.0
 40
1.0
 40
2.0
 40
2.0
 40
2.0
 40
3.0
 40
3.0
 40
3.0
 40
4.0
 40
4.0
 40
4.0
 40
5.0
 40
5.0
 40
5.0
 40
6.0
 40
6.0
 40
6.0
 40
7.0
 40
7.0
 40
7.0
 40
8.0
 40
8.0
 40
8.0
 40
8.0
 10
146.7670211553565
 20
-79.00022570737107
 30
0.0
 10
146.7670211553565
 20
-79.00022570737107
 30
0.0
 10
129.2335406259863
 20
-79.00022570737107
 30
0.0
 10
129.2335406259863
 20
-79.00022570737107
 30
0.0
 10
126.9053435611557
 20
-79.00022570737107
 30
0.0
 10
125.0002045010029
 20
-76.97898685277495
 30
0.0
 10
125.0002045010029
 20
-74.50816274076483
 30
0.0
 10
125.0002045010029
 20
-74.50816274076483
 30
0.0
 10
125.0002045010029
 20
-48.49216251174134
 30
0.0
 10
125.0002045010029
 20
-48.49216251174134
 30
0.0
 10
125.0002045010029
 20
-46.02168290950701
 30
0.0
 10
126.9053435611557
 20
-44.00009954513509
 30
0.0
 10
129.2335406259863
 20
-44.00009954513509
 30
0.0
 10
129.2335406259863
 20
-44.00009954513509
 30
0.0
 10
146.7670211553565
 20
-44.00009954513509
 30
0.0
 10
146.7670211553565
 20
-44.00009954513509
 30
0.0
 10
149.095218220187
 20
-44.00009954513509
 30
0.0
 10
151.0003572803398
 20
-46.02168290950701
 30
0.0
 10
151.0003572803398
 20
-48.49216251174134
 30
0.0
 10
151.0003572803398
 20
-48.49216251174134
 30
0.0
 10
151.0003572803398
 20
-74.50816274076483
 30
0.0
 10
151.0003572803398
 20
-74.50816274076483
 30
0.0
 10
151.0003572803398
 20
-76.97898685277495
 30
0.0
 10
149.095218220187
 20
-79.00022570737107
 30
0.0
 10
146.7670211553565
 20
-79.00022570737107
 30
0.0
  0
ENDBLK
  5
105
330
102
100
AcDbEntity
  8
0
100
AcDbBlockEnd
  0
ENDSEC
  0
SECTION
  2
ENTITIES
  0
INSERT
  5
3D
330
1F
100
AcDbEntity
  8
Layer 1
100
AcDbBlockReference
  2
block 2
 10
0.0
 20
0.0
 30
0.0
  0
INSERT
  5
53
330
1F
100
AcDbEntity
  8
Layer 1
100
AcDbBlockReference
  2
block 3
 10
0.0
 20
0.0
 30
0.0
  0
INSERT
  5
69
330
1F
100
AcDbEntity
  8
Layer 1
100
AcDbBlockReference
  2
block 4
 10
0.0
 20
0.0
 30
0.0
  0
INSERT
  5
7F
330
1F
100
AcDbEntity
  8
Layer 1
100
AcDbBlockReference
  2
block 5
 10
0.0
 20
0.0
 30
0.0
  0
INSERT
  5
95
330
1F
100
AcDbEntity
  8
Layer 1
100
AcDbBlockReference
  2
block 6
 10
0.0
 20
0.0
 30
0.0
  0
INSERT
  5
AB
330
1F
100
AcDbEntity
  8
Layer 1
100
AcDbBlockReference
  2
block 7
 10
0.0
 20
0.0
 30
0.0
  0
INSERT
  5
C1
330
1F
100
AcDbEntity
  8
Layer 1
100
AcDbBlockReference
  2
block 8
 10
0.0
 20
0.0
 30
0.0
  0
INSERT
  5
D7
330
1F
100
AcDbEntity
  8
Layer 1
100
AcDbBlockReference
  2
block 9
 10
0.0
 20
0.0
 30
0.0
  0
INSERT
  5
ED
330
1F
100
AcDbEntity
  8
Layer 1
100
AcDbBlockReference
  2
block 10
 10
0.0
 20
0.0
 30
0.0
  0
INSERT
  5
103
330
1F
100
AcDbEntity
  8
Layer 1
100
AcDbBlockReference
  2
block 11
 10
0.0
 20
0.0
 30
0.0
  0
ENDSEC
  0
SECTION
  2
OBJECTS
  0
DICTIONARY
  5
C
330
0
100
AcDbDictionary
281
     1
  3
ACAD_GROUP
350
D
  3
ACAD_LAYOUT
350
1A
  3
ACAD_MLINESTYLE
350
17
  3
ACAD_PLOTSETTINGS
350
19
  3
ACAD_PLOTSTYLENAME
350
E
  3
ACAD_TABLESTYLE
350
118
  3
ACAD_VISUALSTYLE
350
2A
  0
DICTIONARY
  5
D
102
{ACAD_REACTORS
330
C
102
}
330
C
100
AcDbDictionary
281
     1
  0
DICTIONARY
  5
1A
102
{ACAD_REACTORS
330
C
102
}
330
C
100
AcDbDictionary
281
     1
  3
Layout1
350
1E
  3
Layout2
350
26
  3
Model
350
22
  0
DICTIONARY
  5
17
102
{ACAD_REACTORS
330
C
102
}
330
C
100
AcDbDictionary
281
     1
  3
Standard
350
18
  0
DICTIONARY
  5
19
102
{ACAD_REACTORS
330
C
102
}
330
C
100
AcDbDictionary
281
     1
  0
ACDBDICTIONARYWDFLT
  5
E
102
{ACAD_REACTORS
330
C
102
}
330
C
100
AcDbDictionary
281
     1
  3
Normal
350
F
100
AcDbDictionaryWithDefault
340
F
  0
DICTIONARY
  5
118
102
{ACAD_REACTORS
330
C
102
}
330
C
100
AcDbDictionary
281
     1
  0
DICTIONARY
  5
2A
102
{ACAD_REACTORS
330
C
102
}
330
C
100
AcDbDictionary
281
     1
  3
2dWireframe
350
2F
  3
3D Hidden
350
31
  3
3dWireframe
350
30
  3
Basic
350
32
  3
Brighten
350
36
  3
ColorChange
350
3A
  3
Conceptual
350
34
  3
Dim
350
35
  3
Facepattern
350
39
  3
Flat
350
2B
  3
FlatWithEdges
350
2C
  3
Gouraud
350
2D
  3
GouraudWithEdges
350
2E
  3
Linepattern
350
38
  3
Realistic
350
33
  3
Thicken
350
37
  0
LAYOUT
  5
1E
102
{ACAD_REACTORS
330
1A
102
}
330
1A
100
AcDbPlotSettings
  1

  2
none_device
  4

  6

 40
0.0
 41
0.0
 42
0.0
 43
0.0
 44
0.0
 45
0.0
 46
0.0
 47
0.0
 48
0.0
 49
0.0
140
0.0
141
0.0
142
1.0
143
1.0
 70
   688
 72
     0
 73
     0
 74
     5
  7

 75
    16
 76
     0
 77
     2
 78
   300
147
1.0
148
0.0
149
0.0
100
AcDbLayout
  1
Layout1
 70
     1
 71
     1
 10
0.0
 20
0.0
 11
12.0
 21
9.0
 12
0.0
 22
0.0
 32
0.0
 14
1.000000000000000E+20
 24
1.000000000000000E+20
 34
1.000000000000000E+20
 15
-1.000000000000000E+20
 25
-1.000000000000000E+20
 35
-1.000000000000000E+20
146
0.0
 13
0.0
 23
0.0
 33
0.0
 16
1.0
 26
0.0
 36
0.0
 17
0.0
 27
1.0
 37
0.0
 76
     0
330
1B
  0
LAYOUT
  5
26
102
{ACAD_REACTORS
330
1A
102
}
330
1A
100
AcDbPlotSettings
  1

  2
none_device
  4

  6

 40
0.0
 41
0.0
 42
0.0
 43
0.0
 44
0.0
 45
0.0
 46
0.0
 47
0.0
 48
0.0
 49
0.0
140
0.0
141
0.0
142
1.0
143
1.0
 70
   688
 72
     0
 73
     0
 74
     5
  7

 75
    16
 76
     0
 77
     2
 78
   300
147
1.0
148
0.0
149
0.0
100
AcDbLayout
  1
Layout2
 70
     1
 71
     2
 10
0.0
 20
0.0
 11
0.0
 21
0.0
 12
0.0
 22
0.0
 32
0.0
 14
0.0
 24
0.0
 34
0.0
 15
0.0
 25
0.0
 35
0.0
146
0.0
 13
0.0
 23
0.0
 33
0.0
 16
1.0
 26
0.0
 36
0.0
 17
0.0
 27
1.0
 37
0.0
 76
     0
330
23
  0
LAYOUT
  5
22
102
{ACAD_REACTORS
330
1A
102
}
330
1A
100
AcDbPlotSettings
  1

  2
none_device
  4

  6

 40
0.0
 41
0.0
 42
0.0
 43
0.0
 44
0.0
 45
0.0
 46
0.0
 47
0.0
 48
0.0
 49
0.0
140
0.0
141
0.0
142
1.0
143
1.0
 70
  1712
 72
     0
 73
     0
 74
     0
  7

 75
     0
 76
     0
 77
     2
 78
   300
147
1.0
148
0.0
149
0.0
100
AcDbLayout
  1
Model
 70
     1
 71
     0
 10
0.0
 20
0.0
 11
12.0
 21
9.0
 12
0.0
 22
0.0
 32
0.0
 14
1.000000000000000E+20
 24
1.000000000000000E+20
 34
1.000000000000000E+20
 15
-1.000000000000000E+20
 25
-1.000000000000000E+20
 35
-1.000000000000000E+20
146
0.0
 13
0.0
 23
0.0
 33
0.0
 16
1.0
 26
0.0
 36
0.0
 17
0.0
 27
1.0
 37
0.0
 76
     0
330
1F
331
29
  0
MLINESTYLE
  5
18
102
{ACAD_REACTORS
330
17
102
}
330
17
100
AcDbMlineStyle
  2
Standard
 70
     0
  3

 62
   256
 51
90.0
 52
90.0
 71
     2
 49
0.5
 62
   256
  6
BYLAYER
 49
-0.5
 62
   256
  6
BYLAYER
  0
ACDBPLACEHOLDER
  5
F
102
{ACAD_REACTORS
330
E
102
}
330
E
  0
VISUALSTYLE
  5
2F
102
{ACAD_REACTORS
330
2A
102
}
330
2A
100
AcDbVisualStyle
  2
2dWireframe
 70
     4
 71
     0
 72
     2
 73
     0
 90
        0
 40
-0.6
 41
-30.0
 62
     5
 63
     7
421
 16777215
 74
     1
 91
        4
 64
     7
 65
   257
 75
     1
175
     1
 42
1.0
 92
        0
 66
   257
 43
1.0
 76
     1
 77
     6
 78
     2
 67
     7
 79
     5
170
     0
171
     0
290
     0
174
     0
 93
        1
 44
0.0
173
     0
291
     0
 45
0.0
1001
ACAD
1000
AcDbSavedByObjectVersion
1070
     0
  0
VISUALSTYLE
  5
31
102
{ACAD_REACTORS
330
2A
102
}
330
2A
100
AcDbVisualStyle
  2
3D Hidden
 70
     6
 71
     1
 72
     2
 73
     2
 90
        0
 40
-0.6
 41
-30.0
 62
     5
 63
     7
421
 16777215
 74
     2
 91
        2
 64
     7
 65
   257
 75
     2
175
     1
 42
40.0
 92
        0
 66
   257
 43
1.0
 76
     1
 77
     6
 78
     2
 67
     7
 79
     3
170
     0
171
     0
290
     0
174
     0
 93
        1
 44
0.0
173
     0
291
     0
 45
0.0
1001
ACAD
1000
AcDbSavedByObjectVersion
1070
     0
  0
VISUALSTYLE
  5
30
102
{ACAD_REACTORS
330
2A
102
}
330
2A
100
AcDbVisualStyle
  2
3dWireframe
 70
     5
 71
     0
 72
     2
 73
     0
 90
        0
 40
-0.6
 41
-30.0
 62
     5
 63
     7
421
 16777215
 74
     1
 91
        4
 64
     7
 65
   257
 75
     1
175
     1
 42
1.0
 92
        0
 66
   257
 43
1.0
 76
     1
 77
     6
 78
     2
 67
     7
 79
     5
170
     0
171
     0
290
     0
174
     0
 93
        1
 44
0.0
173
     0
291
     0
 45
0.0
1001
ACAD
1000
AcDbSavedByObjectVersion
1070
     0
  0
VISUALSTYLE
  5
32
102
{ACAD_REACTORS
330
2A
102
}
330
2A
100
AcDbVisualStyle
  2
Basic
 70
     7
 71
     1
 72
     0
 73
     1
 90
        0
 40
-0.6
 41
-30.0
 62
     5
 63
     7
421
 16777215
 74
     0
 91
        4
 64
     7
 65
   257
 75
     1
175
     1
 42
1.0
 92
        8
 66
     7
 43
1.0
 76
     1
 77
     6
 78
     2
 67
     7
 79
     5
170
     0
171
     0
290
     0
174
     0
 93
        1
 44
0.0
173
     0
291
     1
 45
0.0
1001
ACAD
1000
AcDbSavedByObjectVersion
1070
     0
  0
VISUALSTYLE
  5
36
102
{ACAD_REACTORS
330
2A
102
}
330
2A
100
AcDbVisualStyle
  2
Brighten
 70
    12
 71
     2
 72
     2
 73
     0
 90
        0
 40
-0.6
 41
-30.0
 62
     5
 63
     7
421
 16777215
 74
     1
 91
        4
 64
     7
 65
   257
 75
     1
175
     1
 42
1.0
 92
        8
 66
     7
 43
1.0
 76
     1
 77
     6
 78
     2
 67
     7
 79
     5
170
     0
171
     0
290
     0
174
     0
 93
        1
 44
50.0
173
     0
291
     1
 45
0.0
1001
ACAD
1000
AcDbSavedByObjectVersion
1070
     0
  0
VISUALSTYLE
  5
3A
102
{ACAD_REACTORS
330
2A
102
}
330
2A
100
AcDbVisualStyle
  2
ColorChange
 70
    16
 71
     2
 72
     2
 73
     3
 90
        0
 40
-0.6
 41
-30.0
 62
     5
 63
     8
421
  8421504
 74
     1
 91
        4
 64
     7
 65
   257
 75
     1
175
     1
 42
1.0
 92
        8
 66
     8
424
  8421504
 43
1.0
 76
     1
 77
     6
 78
     2
 67
     7
 79
     5
170
     0
171
     0
290
     0
174
     0
 93
        1
 44
0.0
173
     0
291
     1
 45
0.0
1001
ACAD
1000
AcDbSavedByObjectVersion
1070
     0
  0
VISUALSTYLE
  5
34
102
{ACAD_REACTORS
330
2A
102
}
330
2A
100
AcDbVisualStyle
  2
Conceptual
 70
     9
 71
     3
 72
     2
 73
     0
 90
        0
 40
-0.6
 41
-30.0
 62
     5
 63
     7
421
 16777215
 74
     2
 91
        2
 64
     7
 65
   257
 75
     1
175
     1
 42
40.0
 92
        8
 66
     7
 43
1.0
 76
     1
 77
     6
 78
     2
 67
     7
 79
     3
170
     0
171
     0
290
     0
174
     0
 93
        1
 44
0.0
173
     0
291
     0
 45
0.0
1001
ACAD
1000
AcDbSavedByObjectVersion
1070
     0
  0
VISUALSTYLE
  5
35
102
{ACAD_REACTORS
330
2A
102
}
330
2A
100
AcDbVisualStyle
  2
Dim
 70
    11
 71
     2
 72
     2
 73
     0
 90
        0
 40
-0.6
 41
-30.0
 62
     5
 63
     7
421
 16777215
 74
     1
 91
        4
 64
     7
 65
   257
 75
     1
175
     1
 42
1.0
 92
        8
 66
     7
 43
1.0
 76
     1
 77
     6
 78
     2
 67
     7
 79
     5
170
     0
171
     0
290
     0
174
     0
 93
        1
 44
-50.0
173
     0
291
     1
 45
0.0
1001
ACAD
1000
AcDbSavedByObjectVersion
1070
     0
  0
VISUALSTYLE
  5
39
102
{ACAD_REACTORS
330
2A
102
}
330
2A
100
AcDbVisualStyle
  2
Facepattern
 70
    15
 71
     2
 72
     2
 73
     0
 90
        0
 40
-0.6
 41
-30.0
 62
     5
 63
     7
421
 16777215
 74
     1
 91
        4
 64
     7
 65
   257
 75
     1
175
     1
 42
1.0
 92
        8
 66
     7
 43
1.0
 76
     1
 77
     6
 78
     2
 67
     7
 79
     5
170
     0
171
     0
290
     0
174
     0
 93
        1
 44
0.0
173
     0
291
     1
 45
0.0
1001
ACAD
1000
AcDbSavedByObjectVersion
1070
     0
  0
VISUALSTYLE
  5
2B
102
{ACAD_REACTORS
330
2A
102
}
330
2A
100
AcDbVisualStyle
  2
Flat
 70
     0
 71
     2
 72
     1
 73
     1
 90
        2
 40
-0.6
 41
30.0
 62
     5
 63
     7
421
 16777215
 74
     0
 91
        4
 64
     7
 65
   257
 75
     1
175
     1
 42
1.0
 92
        8
 66
     7
 43
1.0
 76
     1
 77
     6
 78
     2
 67
     7
 79
     5
170
     0
171
     0
290
     0
174
     0
 93
       13
 44
0.0
173
     0
291
     1
 45
0.0
1001
ACAD
1000
AcDbSavedByObjectVersion
1070
     0
  0
VISUALSTYLE
  5
2C
102
{ACAD_REACTORS
330
2A
102
}
330
2A
100
AcDbVisualStyle
  2
FlatWithEdges
 70
     1
 71
     2
 72
     1
 73
     1
 90
        2
 40
-0.6
 41
30.0
 62
     5
 63
     7
421
 16777215
 74
     1
 91
        4
 64
     7
 65
   257
 75
     1
175
     1
 42
1.0
 92
        0
 66
   257
 43
1.0
 76
     1
 77
     6
 78
     2
 67
     7
 79
     5
170
     0
171
     0
290
     0
174
     0
 93
       13
 44
0.0
173
     0
291
     1
 45
0.0
1001
ACAD
1000
AcDbSavedByObjectVersion
1070
     0
  0
VISUALSTYLE
  5
2D
102
{ACAD_REACTORS
330
2A
102
}
330
2A
100
AcDbVisualStyle
  2
Gouraud
 70
     2
 71
     2
 72
     2
 73
     1
 90
        2
 40
-0.6
 41
30.0
 62
     5
 63
     7
421
 16777215
 74
     0
 91
        4
 64
     7
 65
   257
 75
     1
175
     1
 42
1.0
 92
        0
 66
     7
 43
1.0
 76
     1
 77
     6
 78
     2
 67
     7
 79
     5
170
     0
171
     0
290
     0
174
     0
 93
       13
 44
0.0
173
     0
291
     1
 45
0.0
1001
ACAD
1000
AcDbSavedByObjectVersion
1070
     0
  0
VISUALSTYLE
  5
2E
102
{ACAD_REACTORS
330
2A
102
}
330
2A
100
AcDbVisualStyle
  2
GouraudWithEdges
 70
     3
 71
     2
 72
     2
 73
     1
 90
        2
 40
-0.6
 41
30.0
 62
     5
 63
     7
421
 16777215
 74
     1
 91
        4
 64
     7
 65
   257
 75
     1
175
     1
 42
1.0
 92
        0
 66
   257
 43
1.0
 76
     1
 77
     6
 78
     2
 67
     7
 79
     5
170
     0
171
     0
290
     0
174
     0
 93
       13
 44
0.0
173
     0
291
     1
 45
0.0
1001
ACAD
1000
AcDbSavedByObjectVersion
1070
     0
  0
VISUALSTYLE
  5
38
102
{ACAD_REACTORS
330
2A
102
}
330
2A
100
AcDbVisualStyle
  2
Linepattern
 70
    14
 71
     2
 72
     2
 73
     0
 90
        0
 40
-0.6
 41
-30.0
 62
     5
 63
     7
421
 16777215
 74
     1
 91
        4
 64
     7
 65
   257
 75
     7
175
     7
 42
1.0
 92
        8
 66
     7
 43
1.0
 76
     1
 77
     6
 78
     2
 67
     7
 79
     5
170
     0
171
     0
290
     0
174
     0
 93
        1
 44
0.0
173
     0
291
     1
 45
0.0
1001
ACAD
1000
AcDbSavedByObjectVersion
1070
     0
  0
VISUALSTYLE
  5
33
102
{ACAD_REACTORS
330
2A
102
}
330
2A
100
AcDbVisualStyle
  2
Realistic
 70
     8
 71
     2
 72
     2
 73
     0
 90
        0
 40
-0.6
 41
-30.0
 62
     5
 63
     7
421
 16777215
 74
     1
 91
        0
 64
     7
 65
   257
 75
     1
175
     1
 42
1.0
 92
        8
 66
     8
424
  7895160
 43
1.0
 76
     1
 77
     6
 78
     2
 67
     7
 79
     5
170
     0
171
     0
290
     0
174
     0
 93
       13
 44
0.0
173
     0
291
     0
 45
0.0
1001
ACAD
1000
AcDbSavedByObjectVersion
1070
     0
  0
VISUALSTYLE
  5
37
102
{ACAD_REACTORS
330
2A
102
}
330
2A
100
AcDbVisualStyle
  2
Thicken
 70
    13
 71
     2
 72
     2
 73
     0
 90
        0
 40
-0.6
 41
-30.0
 62
     5
 63
     7
421
 16777215
 74
     1
 91
        4
 64
     7
 65
   257
 75
     1
175
     1
 42
1.0
 92
       12
 66
     7
 43
1.0
 76
     1
 77
     6
 78
     2
 67
     7
 79
     5
170
     0
171
     0
290
     0
174
     0
 93
        1
 44
0.0
173
     0
291
     1
 45
0.0
1001
ACAD
1000
AcDbSavedByObjectVersion
1070
     0
  0
ENDSEC
  0
EOF
