  0
SECTION
  2
HEADER
  9
$ACADVER
  1
AC1018
  9
$ACADMAINTVER
 70
     0
  9
$DWGCODEPAGE
  3
ANSI_1252
  9
$INSBASE
 10
0.0
 20
0.0
 30
0.0
  9
$EXTMIN
 10
1.000000000000000E+20
 20
1.000000000000000E+20
 30
1.000000000000000E+20
  9
$EXTMAX
 10
-1.000000000000000E+20
 20
-1.000000000000000E+20
 30
-1.000000000000000E+20
  9
$LIMMIN
 10
0.0
 20
0.0
  9
$LIMMAX
 10
12.0
 20
9.0
  9
$ORTHOMODE
 70
     0
  9
$REGENMODE
 70
     1
  9
$FILLMODE
 70
     1
  9
$QTEXTMODE
 70
     0
  9
$MIRRTEXT
 70
     1
  9
$LTSCALE
 40
1.0
  9
$ATTMODE
 70
     1
  9
$TEXTSIZE
 40
0.2
  9
$TRACEWID
 40
0.05
  9
$TEXTSTYLE
  7
Standard
  9
$CLAYER
  8
0
  9
$CELTYPE
  6
ByLayer
  9
$CECOLOR
 62
   256
  9
$CELTSCALE
 40
1.0
  9
$DISPSILH
 70
     0
  9
$DIMSCALE
 40
1.0
  9
$DIMASZ
 40
0.18
  9
$DIMEXO
 40
0.0625
  9
$DIMDLI
 40
0.38
  9
$DIMRND
 40
0.0
  9
$DIMDLE
 40
0.0
  9
$DIMEXE
 40
0.18
  9
$DIMTP
 40
0.0
  9
$DIMTM
 40
0.0
  9
$DIMTXT
 40
0.18
  9
$DIMCEN
 40
0.09
  9
$DIMTSZ
 40
0.0
  9
$DIMTOL
 70
     0
  9
$DIMLIM
 70
     0
  9
$DIMTIH
 70
     1
  9
$DIMTOH
 70
     1
  9
$DIMSE1
 70
     0
  9
$DIMSE2
 70
     0
  9
$DIMTAD
 70
     0
  9
$DIMZIN
 70
     0
  9
$DIMBLK
  1

  9
$DIMASO
 70
     1
  9
$DIMSHO
 70
     1
  9
$DIMPOST
  1

  9
$DIMAPOST
  1

  9
$DIMALT
 70
     0
  9
$DIMALTD
 70
     2
  9
$DIMALTF
 40
25.4
  9
$DIMLFAC
 40
1.0
  9
$DIMTOFL
 70
     0
  9
$DIMTVP
 40
0.0
  9
$DIMTIX
 70
     0
  9
$DIMSOXD
 70
     0
  9
$DIMSAH
 70
     0
  9
$DIMBLK1
  1

  9
$DIMBLK2
  1

  9
$DIMSTYLE
  2
Standard
  9
$DIMCLRD
 70
     0
  9
$DIMCLRE
 70
     0
  9
$DIMCLRT
 70
     0
  9
$DIMTFAC
 40
1.0
  9
$DIMGAP
 40
0.09
  9
$DIMJUST
 70
     0
  9
$DIMSD1
 70
     0
  9
$DIMSD2
 70
     0
  9
$DIMTOLJ
 70
     1
  9
$DIMTZIN
 70
     0
  9
$DIMALTZ
 70
     0
  9
$DIMALTTZ
 70
     0
  9
$DIMUPT
 70
     0
  9
$DIMDEC
 70
     4
  9
$DIMTDEC
 70
     4
  9
$DIMALTU
 70
     2
  9
$DIMALTTD
 70
     2
  9
$DIMTXSTY
  7
Standard
  9
$DIMAUNIT
 70
     0
  9
$DIMADEC
 70
     0
  9
$DIMALTRND
 40
0.0
  9
$DIMAZIN
 70
     0
  9
$DIMDSEP
 70
    46
  9
$DIMATFIT
 70
     3
  9
$DIMFRAC
 70
     0
  9
$DIMLDRBLK
  1

  9
$DIMLUNIT
 70
     2
  9
$DIMLWD
 70
    -2
  9
$DIMLWE
 70
    -2
  9
$DIMTMOVE
 70
     0
  9
$LUNITS
 70
     2
  9
$LUPREC
 70
     4
  9
$SKETCHINC
 40
0.1
  9
$FILLETRAD
 40
0.5
  9
$AUNITS
 70
     0
  9
$AUPREC
 70
     0
  9
$MENU
  1
.
  9
$ELEVATION
 40
0.0
  9
$PELEVATION
 40
0.0
  9
$THICKNESS
 40
0.0
  9
$LIMCHECK
 70
     0
  9
$CHAMFERA
 40
0.5
  9
$CHAMFERB
 40
0.5
  9
$CHAMFERC
 40
1.0
  9
$CHAMFERD
 40
0.0
  9
$SKPOLY
 70
     0
  9
$TDCREATE
 40
2458226.831917766
  9
$TDUCREATE
 40
2458226.7902511
  9
$TDUPDATE
 40
2458226.831917778
  9
$TDUUPDATE
 40
2458226.790251111
  9
$TDINDWG
 40
0.0000000116
  9
$TDUSRTIMER
 40
0.0000000116
  9
$USRTIMER
 70
     1
  9
$ANGBASE
 50
0.0
  9
$ANGDIR
 70
     0
  9
$PDMODE
 70
     0
  9
$PDSIZE
 40
0.0
  9
$PLINEWID
 40
0.0
  9
$SPLFRAME
 70
     0
  9
$SPLINETYPE
 70
     6
  9
$SPLINESEGS
 70
     8
  9
$HANDSEED
  5
8D
  9
$SURFTAB1
 70
     6
  9
$SURFTAB2
 70
     6
  9
$SURFTYPE
 70
     6
  9
$SURFU
 70
     6
  9
$SURFV
 70
     6
  9
$UCSBASE
  2

  9
$UCSNAME
  2

  9
$UCSORG
 10
0.0
 20
0.0
 30
0.0
  9
$UCSXDIR
 10
1.0
 20
0.0
 30
0.0
  9
$UCSYDIR
 10
0.0
 20
1.0
 30
0.0
  9
$UCSORTHOREF
  2

  9
$UCSORTHOVIEW
 70
     0
  9
$UCSORGTOP
 10
0.0
 20
0.0
 30
0.0
  9
$UCSORGBOTTOM
 10
0.0
 20
0.0
 30
0.0
  9
$UCSORGLEFT
 10
0.0
 20
0.0
 30
0.0
  9
$UCSORGRIGHT
 10
0.0
 20
0.0
 30
0.0
  9
$UCSORGFRONT
 10
0.0
 20
0.0
 30
0.0
  9
$UCSORGBACK
 10
0.0
 20
0.0
 30
0.0
  9
$PUCSBASE
  2

  9
$PUCSNAME
  2

  9
$PUCSORG
 10
0.0
 20
0.0
 30
0.0
  9
$PUCSXDIR
 10
1.0
 20
0.0
 30
0.0
  9
$PUCSYDIR
 10
0.0
 20
1.0
 30
0.0
  9
$PUCSORTHOREF
  2

  9
$PUCSORTHOVIEW
 70
     0
  9
$PUCSORGTOP
 10
0.0
 20
0.0
 30
0.0
  9
$PUCSORGBOTTOM
 10
0.0
 20
0.0
 30
0.0
  9
$PUCSORGLEFT
 10
0.0
 20
0.0
 30
0.0
  9
$PUCSORGRIGHT
 10
0.0
 20
0.0
 30
0.0
  9
$PUCSORGFRONT
 10
0.0
 20
0.0
 30
0.0
  9
$PUCSORGBACK
 10
0.0
 20
0.0
 30
0.0
  9
$USERI1
 70
     0
  9
$USERI2
 70
     0
  9
$USERI3
 70
     0
  9
$USERI4
 70
     0
  9
$USERI5
 70
     0
  9
$USERR1
 40
0.0
  9
$USERR2
 40
0.0
  9
$USERR3
 40
0.0
  9
$USERR4
 40
0.0
  9
$USERR5
 40
0.0
  9
$WORLDVIEW
 70
     1
  9
$SHADEDGE
 70
     3
  9
$SHADEDIF
 70
    70
  9
$TILEMODE
 70
     1
  9
$MAXACTVP
 70
    64
  9
$PINSBASE
 10
0.0
 20
0.0
 30
0.0
  9
$PLIMCHECK
 70
     0
  9
$PEXTMIN
 10
1.000000000000000E+20
 20
1.000000000000000E+20
 30
1.000000000000000E+20
  9
$PEXTMAX
 10
-1.000000000000000E+20
 20
-1.000000000000000E+20
 30
-1.000000000000000E+20
  9
$PLIMMIN
 10
0.0
 20
0.0
  9
$PLIMMAX
 10
12.0
 20
9.0
  9
$UNITMODE
 70
     0
  9
$VISRETAIN
 70
     1
  9
$PLINEGEN
 70
     0
  9
$PSLTSCALE
 70
     1
  9
$TREEDEPTH
 70
  3020
  9
$CMLSTYLE
  2
Standard
  9
$CMLJUST
 70
     0
  9
$CMLSCALE
 40
1.0
  9
$PROXYGRAPHICS
 70
     1
  9
$MEASUREMENT
 70
     0
  9
$CELWEIGHT
370
    -1
  9
$ENDCAPS
280
     0
  9
$JOINSTYLE
280
     0
  9
$LWDISPLAY
290
     1
  9
$INSUNITS
 70
     1
  9
$HYPERLINKBASE
  1

  9
$STYLESHEET
  1

  9
$XEDIT
290
     1
  9
$CEPSNTYPE
380
     0
  9
$PSTYLEMODE
290
     1
  9
$FINGERPRINTGUID
  2
{D259B5FD-CB9D-4823-B385-196FC18F5C37}
  9
$VERSIONGUID
  2
{FAEB1C32-E019-11D5-929B-00C0DF256EC4}
  9
$EXTNAMES
290
     1
  9
$PSVPSCALE
 40
0.0
  9
$OLESTARTUP
290
     0
  9
$SORTENTS
280
   127
  9
$INDEXCTL
280
     0
  9
$HIDETEXT
280
     1
  9
$XCLIPFRAME
290
     0
  9
$HALOGAP
280
     0
  9
$OBSCOLOR
 70
   257
  9
$OBSLTYPE
280
     0
  9
$INTERSECTIONDISPLAY
280
     0
  9
$INTERSECTIONCOLOR
 70
   257
  9
$DIMASSOC
280
     2
  9
$PROJECTNAME
  1

  0
ENDSEC
  0
SECTION
  2
CLASSES
  0
CLASS
  1
ACDBDICTIONARYWDFLT
  2
AcDbDictionaryWithDefault
  3
ObjectDBX Classes
 90
        0
 91
        3
280
     0
281
     0
  0
CLASS
  1
VISUALSTYLE
  2
AcDbVisualStyle
  3
ObjectDBX Classes
 90
     4095
 91
        3
280
     0
281
     0
  0
ENDSEC
  0
SECTION
  2
TABLES
  0
TABLE
  2
VPORT
  5
8
330
0
100
AcDbSymbolTable
 70
     1
  0
VPORT
  5
29
330
8
100
AcDbSymbolTableRecord
100
AcDbViewportTableRecord
  2
*Active
 70
     0
 10
0.0
 20
0.0
 11
1.0
 21
1.0
 12
0.0
 22
0.0
 13
0.0
 23
0.0
 14
0.5
 24
0.5
 15
0.5
 25
0.5
 16
0.0
 26
0.0
 36
1.0
 17
105.0008952513716
 27
-148.5000775824991
 37
0.0
 40
297.0001551649982
 41
0.7070763662937379
 42
50.0
 43
0.0
 44
0.0
 50
0.0
 51
0.0
 71
     0
 72
   100
 73
     1
 74
     3
 75
     0
 76
     0
 77
     0
 78
     0
281
     0
 65
     1
110
0.0
120
0.0
130
0.0
111
1.0
121
0.0
131
0.0
112
0.0
122
1.0
132
0.0
 79
     0
146
0.0
  0
ENDTAB
  0
TABLE
  2
LTYPE
  5
5
330
0
100
AcDbSymbolTable
 70
     1
  0
LTYPE
  5
14
330
5
100
AcDbSymbolTableRecord
100
AcDbLinetypeTableRecord
  2
ByBlock
 70
     0
  3

 72
    65
 73
     0
 40
0.0
  0
LTYPE
  5
15
330
5
100
AcDbSymbolTableRecord
100
AcDbLinetypeTableRecord
  2
ByLayer
 70
     0
  3

 72
    65
 73
     0
 40
0.0
  0
LTYPE
  5
16
330
5
100
AcDbSymbolTableRecord
100
AcDbLinetypeTableRecord
  2
Continuous
 70
     0
  3
Solid line
 72
    65
 73
     0
 40
0.0
  0
ENDTAB
  0
TABLE
  2
LAYER
  5
2
330
0
100
AcDbSymbolTable
 70
     2
  0
LAYER
  5
10
330
2
100
AcDbSymbolTableRecord
100
AcDbLayerTableRecord
  2
0
 70
     0
 62
     7
  6
Continuous
370
    -3
390
F
  0
LAYER
  5
3B
330
2
100
AcDbSymbolTableRecord
100
AcDbLayerTableRecord
  2
Layer 1
 70
     0
 62
     7
  6
Continuous
370
    -3
390
F
  0
ENDTAB
  0
TABLE
  2
STYLE
  5
3
330
0
100
AcDbSymbolTable
 70
     1
  0
STYLE
  5
11
330
3
100
AcDbSymbolTableRecord
100
AcDbTextStyleTableRecord
  2
Standard
 70
     0
 40
0.0
 41
1.0
 50
0.0
 71
     0
 42
0.2
  3
txt
  4

  0
ENDTAB
  0
TABLE
  2
VIEW
  5
6
330
0
100
AcDbSymbolTable
 70
     0
  0
ENDTAB
  0
TABLE
  2
UCS
  5
7
330
0
100
AcDbSymbolTable
 70
     0
  0
ENDTAB
  0
TABLE
  2
APPID
  5
9
330
0
100
AcDbSymbolTable
 70
     1
  0
APPID
  5
12
330
9
100
AcDbSymbolTableRecord
100
AcDbRegAppTableRecord
  2
ACAD
 70
     0
  0
ENDTAB
  0
TABLE
  2
DIMSTYLE
  5
A
330
0
100
AcDbSymbolTable
 70
     1
100
AcDbDimStyleTable
  0
DIMSTYLE
105
27
330
A
100
AcDbSymbolTableRecord
100
AcDbDimStyleTableRecord
  2
Standard
 70
     0
340
11
  0
ENDTAB
  0
TABLE
  2
BLOCK_RECORD
  5
1
330
0
100
AcDbSymbolTable
 70
    11
  0
BLOCK_RECORD
  5
1F
330
1
100
AcDbSymbolTableRecord
100
AcDbBlockTableRecord
  2
*Model_Space
340
22
  0
BLOCK_RECORD
  5
1B
330
1
100
AcDbSymbolTableRecord
100
AcDbBlockTableRecord
  2
*Paper_Space
340
1E
  0
BLOCK_RECORD
  5
23
330
1
100
AcDbSymbolTableRecord
100
AcDbBlockTableRecord
  2
*Paper_Space0
340
26
  0
BLOCK_RECORD
  5
3C
330
1
100
AcDbSymbolTableRecord
100
AcDbBlockTableRecord
  2
block 2
340
0
102
{BLKREFS
331
3D
102
}
  0
BLOCK_RECORD
  5
44
330
1
100
AcDbSymbolTableRecord
100
AcDbBlockTableRecord
  2
block 3
340
0
102
{BLKREFS
331
45
102
}
  0
BLOCK_RECORD
  5
4C
330
1
100
AcDbSymbolTableRecord
100
AcDbBlockTableRecord
  2
block 4
340
0
102
{BLKREFS
331
4D
102
}
  0
BLOCK_RECORD
  5
54
330
1
100
AcDbSymbolTableRecord
100
AcDbBlockTableRecord
  2
block 5
340
0
102
{BLKREFS
331
55
102
}
  0
BLOCK_RECORD
  5
5C
330
1
100
AcDbSymbolTableRecord
100
AcDbBlockTableRecord
  2
block 6
340
0
102
{BLKREFS
331
5D
102
}
  0
BLOCK_RECORD
  5
64
330
1
100
AcDbSymbolTableRecord
100
AcDbBlockTableRecord
  2
block 7
340
0
102
{BLKREFS
331
65
102
}
  0
BLOCK_RECORD
  5
6C
330
1
100
AcDbSymbolTableRecord
100
AcDbBlockTableRecord
  2
block 8
340
0
102
{BLKREFS
331
6D
102
}
  0
BLOCK_RECORD
  5
74
330
1
100
AcDbSymbolTableRecord
100
AcDbBlockTableRecord
  2
block 9
340
0
102
{BLKREFS
331
75
102
}
  0
BLOCK_RECORD
  5
7C
330
1
100
AcDbSymbolTableRecord
100
AcDbBlockTableRecord
  2
block 10
340
0
102
{BLKREFS
331
7D
102
}
  0
BLOCK_RECORD
  5
84
330
1
100
AcDbSymbolTableRecord
100
AcDbBlockTableRecord
  2
block 11
340
0
102
{BLKREFS
331
85
102
}
  0
ENDTAB
  0
ENDSEC
  0
SECTION
  2
BLOCKS
  0
BLOCK
  5
20
330
1F
100
AcDbEntity
  8
0
100
AcDbBlockBegin
  2
*Model_Space
 70
     0
 71
     0
 10
0.0
 20
0.0
 30
0.0
  3
*Model_Space
  1

  0
ENDBLK
  5
21
330
1F
100
AcDbEntity
  8
0
100
AcDbBlockEnd
  0
BLOCK
  5
1C
330
1B
100
AcDbEntity
 67
     1
  8
0
100
AcDbBlockBegin
  2
*Paper_Space
 70
     0
 71
     0
 10
0.0
 20
0.0
 30
0.0
  3
*Paper_Space
  1

  0
ENDBLK
  5
1D
330
1B
100
AcDbEntity
 67
     1
  8
0
100
AcDbBlockEnd
  0
BLOCK
  5
24
330
23
100
AcDbEntity
  8
0
100
AcDbBlockBegin
  2
*Paper_Space0
 70
     0
 71
     0
 10
0.0
 20
0.0
 30
0.0
  3
*Paper_Space0
  1

  0
ENDBLK
  5
25
330
23
100
AcDbEntity
  8
0
100
AcDbBlockEnd
  0
BLOCK
  5
3E
330
3C
100
AcDbEntity
  8
0
100
AcDbBlockBegin
  2
block 2
 70
     0
 71
     0
 10
0.0
 20
0.0
 30
0.0
  3
block 2
  1

  0
SPLINE
  5
40
330
3C
100
AcDbEntity
  8
Layer 1
370
     0
100
AcDbSpline
210
0.0
220
0.0
230
1.0
 70
    11
 71
     3
 72
    17
 73
    13
 74
     0
 42
0.0000000001
 43
0.0000000001
 40
0.0
 40
0.0
 40
0.0
 40
0.0
 40
1.0
 40
1.0
 40
1.0
 40
2.0
 40
2.0
 40
2.0
 40
3.0
 40
3.0
 40
3.0
 40
4.0
 40
4.0
 40
4.0
 40
4.0
 10
19.55024075688099
 20
-9.782355083732215
 30
0.0
 10
19.55024075688099
 20
-10.61141785918569
 30
0.0
 10
18.86535532259821
 20
-11.33247681992708
 30
0.0
 10
18.00011902068613
 20
-11.33247681992708
 30
0.0
 10
17.17105624523265
 20
-11.33247681992708
 30
0.0
 10
16.45034179426706
 20
-10.6474191307564
 30
0.0
 10
16.45034179426706
 20
-9.782355083732215
 30
0.0
 10
16.45034179426706
 20
-8.953292308278733
 30
0.0
 10
17.13522722854984
 20
-8.232233347537353
 30
0.0
 10
18.00011902068613
 20
-8.232233347537353
 30
0.0
 10
18.86535532259821
 20
-8.268234619108052
 30
0.0
 10
19.55024075688099
 20
-8.953292308278733
 30
0.0
 10
19.55024075688099
 20
-9.782355083732215
 30
0.0
  0
SPLINE
  5
41
330
3C
100
AcDbEntity
  8
Layer 1
370
     0
100
AcDbSpline
210
0.0
220
0.0
230
1.0
 70
    11
 71
     3
 72
    17
 73
    13
 74
     0
 42
0.0000000001
 43
0.0000000001
 40
0.0
 40
0.0
 40
0.0
 40
0.0
 40
1.0
 40
1.0
 40
1.0
 40
2.0
 40
2.0
 40
2.0
 40
3.0
 40
3.0
 40
3.0
 40
4.0
 40
4.0
 40
4.0
 40
4.0
 10
19.5853807540122
 20
-35.18219957874425
 30
0.0
 10
19.5853807540122
 20
-36.01143460908563
 30
0.0
 10
18.90083982950521
 20
-36.73249356982701
 30
0.0
 10
18.03543127270524
 20
-36.73249356982701
 30
0.0
 10
17.20636849725176
 20
-36.73249356982701
 30
0.0
 10
16.48530953651037
 20
-36.04760813554423
 30
0.0
 10
16.48530953651037
 20
-35.18219957874425
 30
0.0
 10
16.48530953651037
 20
-34.35330905817867
 30
0.0
 10
17.17036722568105
 20
-33.63225009743729
 30
0.0
 10
18.03543127270524
 20
-33.63225009743729
 30
0.0
 10
18.90083982950521
 20
-33.66842362389589
 30
0.0
 10
19.5853807540122
 20
-34.35330905817867
 30
0.0
 10
19.5853807540122
 20
-35.18219957874425
 30
0.0
  0
SPLINE
  5
42
330
3C
100
AcDbEntity
  8
Layer 1
370
     0
100
AcDbSpline
210
0.0
220
0.0
230
1.0
 70
    11
 71
     3
 72
    29
 73
    25
 74
     0
 42
0.0000000001
 43
0.0000000001
 40
0.0
 40
0.0
 40
0.0
 40
0.0
 40
1.0
 40
1.0
 40
1.0
 40
2.0
 40
2.0
 40
2.0
 40
3.0
 40
3.0
 40
3.0
 40
4.0
 40
4.0
 40
4.0
 40
5.0
 40
5.0
 40
5.0
 40
6.0
 40
6.0
 40
6.0
 40
7.0
 40
7.0
 40
7.0
 40
8.0
 40
8.0
 40
8.0
 40
8.0
 10
31.00036766524246
 20
-35.6996532619901
 30
0.0
 10
31.00036766524246
 20
-38.06126777507284
 30
0.0
 10
28.83960235144889
 20
-39.99982428347788
 30
0.0
 10
26.16620649127062
 20
-39.99982428347788
 30
0.0
 10
26.16620649127062
 20
-39.99982428347788
 30
0.0
 10
9.833859295213742
 20
-39.99982428347788
 30
0.0
 10
9.833859295213742
 20
-39.99982428347788
 30
0.0
 10
7.160807944811268
 20
-39.99982428347788
 30
0.0
 10
5.000042631017696
 20
-38.06126777507284
 30
0.0
 10
5.000042631017696
 20
-35.6996532619901
 30
0.0
 10
5.000042631017696
 20
-35.6996532619901
 30
0.0
 10
5.000042631017696
 20
-9.300041397617578
 30
0.0
 10
5.000042631017696
 20
-9.300041397617578
 30
0.0
 10
5.000042631017696
 20
-6.938599139422739
 30
0.0
 10
7.160807944811268
 20
-5.000042631017696
 30
0.0
 10
9.833859295213742
 20
-5.000042631017696
 30
0.0
 10
9.833859295213742
 20
-5.000042631017696
 30
0.0
 10
26.16620649127062
 20
-5.000042631017696
 30
0.0
 10
26.16620649127062
 20
-5.000042631017696
 30
0.0
 10
28.83960235144889
 20
-5.000042631017696
 30
0.0
 10
31.00036766524246
 20
-6.938599139422739
 30
0.0
 10
31.00036766524246
 20
-9.300041397617578
 30
0.0
 10
31.00036766524246
 20
-9.300041397617578
 30
0.0
 10
31.00036766524246
 20
-35.6996532619901
 30
0.0
 10
31.00036766524246
 20
-35.6996532619901
 30
0.0
  0
SPLINE
  5
43
330
3C
100
AcDbEntity
  8
Layer 1
370
     0
100
AcDbSpline
210
0.0
220
0.0
230
1.0
 70
    11
 71
     3
 72
    17
 73
    13
 74
     0
 42
0.0000000001
 43
0.0000000001
 40
0.0
 40
0.0
 40
0.0
 40
0.0
 40
1.0
 40
1.0
 40
1.0
 40
2.0
 40
2.0
 40
2.0
 40
3.0
 40
3.0
 40
3.0
 40
4.0
 40
4.0
 40
4.0
 40
4.0
 10
25.03552540710759
 20
-22.48236345868218
 30
0.0
 10
25.03552540710759
 20
-26.37101755298144
 30
0.0
 10
21.88911762476118
 20
-29.48194082842084
 30
0.0
 10
18.03577578248103
 20
-29.48194082842084
 30
0.0
 10
14.14660492351808
 20
-29.48194082842084
 30
0.0
 10
11.03550939319078
 20
-26.33587755585023
 30
0.0
 10
11.03550939319078
 20
-22.48236345868218
 30
0.0
 10
11.03550939319078
 20
-18.59370936438293
 30
0.0
 10
14.18191717553719
 20
-15.48209706939193
 30
0.0
 10
18.03577578248103
 20
-15.48209706939193
 30
0.0
 10
21.92460213166818
 20
-15.48209706939193
 30
0.0
 10
25.03552540710759
 20
-18.62902161640204
 30
0.0
 10
25.03552540710759
 20
-22.48236345868218
 30
0.0
  0
ENDBLK
  5
3F
330
3C
100
AcDbEntity
  8
0
100
AcDbBlockEnd
  0
BLOCK
  5
46
330
44
100
AcDbEntity
  8
0
100
AcDbBlockBegin
  2
block 3
 70
     0
 71
     0
 10
0.0
 20
0.0
 30
0.0
  3
block 3
  1

  0
SPLINE
  5
48
330
44
100
AcDbEntity
  8
Layer 1
370
     0
100
AcDbSpline
210
0.0
220
0.0
230
1.0
 70
    11
 71
     3
 72
    17
 73
    13
 74
     0
 42
0.0000000001
 43
0.0000000001
 40
0.0
 40
0.0
 40
0.0
 40
0.0
 40
1.0
 40
1.0
 40
1.0
 40
2.0
 40
2.0
 40
2.0
 40
3.0
 40
3.0
 40
3.0
 40
4.0
 40
4.0
 40
4.0
 40
4.0
 10
49.55015203321138
 20
-9.782355083732215
 30
0.0
 10
49.55015203321138
 20
-10.61141785918569
 30
0.0
 10
48.86526659892859
 20
-11.33247681992708
 30
0.0
 10
48.00003029701651
 20
-11.33247681992708
 30
0.0
 10
47.17096752156303
 20
-11.33247681992708
 30
0.0
 10
46.45025307059745
 20
-10.6474191307564
 30
0.0
 10
46.45025307059745
 20
-9.782355083732215
 30
0.0
 10
46.45025307059745
 20
-8.953292308278733
 30
0.0
 10
47.13513850488023
 20
-8.232233347537353
 30
0.0
 10
48.00003029701651
 20
-8.232233347537353
 30
0.0
 10
48.86526659892859
 20
-8.268234619108052
 30
0.0
 10
49.55015203321138
 20
-8.953292308278733
 30
0.0
 10
49.55015203321138
 20
-9.782355083732215
 30
0.0
  0
SPLINE
  5
49
330
44
100
AcDbEntity
  8
Layer 1
370
     0
100
AcDbSpline
210
0.0
220
0.0
230
1.0
 70
    11
 71
     3
 72
    17
 73
    13
 74
     0
 42
0.0000000001
 43
0.0000000001
 40
0.0
 40
0.0
 40
0.0
 40
0.0
 40
1.0
 40
1.0
 40
1.0
 40
2.0
 40
2.0
 40
2.0
 40
3.0
 40
3.0
 40
3.0
 40
4.0
 40
4.0
 40
4.0
 40
4.0
 10
49.58529203034258
 20
-35.18219957874425
 30
0.0
 10
49.58529203034258
 20
-36.01143460908563
 30
0.0
 10
48.9007511058356
 20
-36.73249356982701
 30
0.0
 10
48.03534254903562
 20
-36.73249356982701
 30
0.0
 10
47.20627977358214
 20
-36.73249356982701
 30
0.0
 10
46.48522081284076
 20
-36.04760813554423
 30
0.0
 10
46.48522081284076
 20
-35.18219957874425
 30
0.0
 10
46.48522081284076
 20
-34.35330905817867
 30
0.0
 10
47.17027850201144
 20
-33.63225009743729
 30
0.0
 10
48.03534254903562
 20
-33.63225009743729
 30
0.0
 10
48.9007511058356
 20
-33.66842362389589
 30
0.0
 10
49.58529203034258
 20
-34.35330905817867
 30
0.0
 10
49.58529203034258
 20
-35.18219957874425
 30
0.0
  0
SPLINE
  5
4A
330
44
100
AcDbEntity
  8
Layer 1
370
     0
100
AcDbSpline
210
0.0
220
0.0
230
1.0
 70
    11
 71
     3
 72
    29
 73
    25
 74
     0
 42
0.0000000001
 43
0.0000000001
 40
0.0
 40
0.0
 40
0.0
 40
0.0
 40
1.0
 40
1.0
 40
1.0
 40
2.0
 40
2.0
 40
2.0
 40
3.0
 40
3.0
 40
3.0
 40
4.0
 40
4.0
 40
4.0
 40
5.0
 40
5.0
 40
5.0
 40
6.0
 40
6.0
 40
6.0
 40
7.0
 40
7.0
 40
7.0
 40
8.0
 40
8.0
 40
8.0
 40
8.0
 10
61.00027894157284
 20
-35.6996532619901
 30
0.0
 10
61.00027894157284
 20
-38.06126777507284
 30
0.0
 10
58.83951362777927
 20
-39.99982428347788
 30
0.0
 10
56.166117767601
 20
-39.99982428347788
 30
0.0
 10
56.166117767601
 20
-39.99982428347788
 30
0.0
 10
39.83377057154412
 20
-39.99982428347788
 30
0.0
 10
39.83377057154412
 20
-39.99982428347788
 30
0.0
 10
37.16071922114165
 20
-39.99982428347788
 30
0.0
 10
34.99995390734808
 20
-38.06126777507284
 30
0.0
 10
34.99995390734808
 20
-35.6996532619901
 30
0.0
 10
34.99995390734808
 20
-35.6996532619901
 30
0.0
 10
34.99995390734808
 20
-9.300041397617578
 30
0.0
 10
34.99995390734808
 20
-9.300041397617578
 30
0.0
 10
34.99995390734808
 20
-6.938599139422739
 30
0.0
 10
37.16071922114165
 20
-5.000042631017696
 30
0.0
 10
39.83377057154412
 20
-5.000042631017696
 30
0.0
 10
39.83377057154412
 20
-5.000042631017696
 30
0.0
 10
56.166117767601
 20
-5.000042631017696
 30
0.0
 10
56.166117767601
 20
-5.000042631017696
 30
0.0
 10
58.83951362777927
 20
-5.000042631017696
 30
0.0
 10
61.00027894157284
 20
-6.938599139422739
 30
0.0
 10
61.00027894157284
 20
-9.300041397617578
 30
0.0
 10
61.00027894157284
 20
-9.300041397617578
 30
0.0
 10
61.00027894157284
 20
-35.6996532619901
 30
0.0
 10
61.00027894157284
 20
-35.6996532619901
 30
0.0
  0
SPLINE
  5
4B
330
44
100
AcDbEntity
  8
Layer 1
370
     0
100
AcDbSpline
210
0.0
220
0.0
230
1.0
 70
    11
 71
     3
 72
    17
 73
    13
 74
     0
 42
0.0000000001
 43
0.0000000001
 40
0.0
 40
0.0
 40
0.0
 40
0.0
 40
1.0
 40
1.0
 40
1.0
 40
2.0
 40
2.0
 40
2.0
 40
3.0
 40
3.0
 40
3.0
 40
4.0
 40
4.0
 40
4.0
 40
4.0
 10
55.03543668343797
 20
-22.48236345868218
 30
0.0
 10
55.03543668343797
 20
-26.37101755298144
 30
0.0
 10
51.88902890109156
 20
-29.48194082842084
 30
0.0
 10
48.03568705881141
 20
-29.48194082842084
 30
0.0
 10
44.14651619984846
 20
-29.48194082842084
 30
0.0
 10
41.03542066952116
 20
-26.33587755585023
 30
0.0
 10
41.03542066952116
 20
-22.48236345868218
 30
0.0
 10
41.03542066952116
 20
-18.59370936438293
 30
0.0
 10
44.18182845186757
 20
-15.48209706939193
 30
0.0
 10
48.03568705881141
 20
-15.48209706939193
 30
0.0
 10
51.92451340799857
 20
-15.48209706939193
 30
0.0
 10
55.03543668343797
 20
-18.62902161640204
 30
0.0
 10
55.03543668343797
 20
-22.48236345868218
 30
0.0
  0
ENDBLK
  5
47
330
44
100
AcDbEntity
  8
0
100
AcDbBlockEnd
  0
BLOCK
  5
4E
330
4C
100
AcDbEntity
  8
0
100
AcDbBlockBegin
  2
block 4
 70
     0
 71
     0
 10
0.0
 20
0.0
 30
0.0
  3
block 4
  1

  0
SPLINE
  5
50
330
4C
100
AcDbEntity
  8
Layer 1
370
     0
100
AcDbSpline
210
0.0
220
0.0
230
1.0
 70
    11
 71
     3
 72
    17
 73
    13
 74
     0
 42
0.0000000001
 43
0.0000000001
 40
0.0
 40
0.0
 40
0.0
 40
0.0
 40
1.0
 40
1.0
 40
1.0
 40
2.0
 40
2.0
 40
2.0
 40
3.0
 40
3.0
 40
3.0
 40
4.0
 40
4.0
 40
4.0
 40
4.0
 10
79.55023556442966
 20
-9.782355083732215
 30
0.0
 10
79.55023556442966
 20
-10.61141785918569
 30
0.0
 10
78.86535013014687
 20
-11.33247681992708
 30
0.0
 10
78.00011382823479
 20
-11.33247681992708
 30
0.0
 10
77.17105105278131
 20
-11.33247681992708
 30
0.0
 10
76.45033660181572
 20
-10.6474191307564
 30
0.0
 10
76.45033660181572
 20
-9.782355083732215
 30
0.0
 10
76.45033660181572
 20
-8.953292308278733
 30
0.0
 10
77.13522203609851
 20
-8.232233347537353
 30
0.0
 10
78.00011382823479
 20
-8.232233347537353
 30
0.0
 10
78.86535013014687
 20
-8.268234619108052
 30
0.0
 10
79.55023556442966
 20
-8.953292308278733
 30
0.0
 10
79.55023556442966
 20
-9.782355083732215
 30
0.0
  0
SPLINE
  5
51
330
4C
100
AcDbEntity
  8
Layer 1
370
     0
100
AcDbSpline
210
0.0
220
0.0
230
1.0
 70
    11
 71
     3
 72
    17
 73
    13
 74
     0
 42
0.0000000001
 43
0.0000000001
 40
0.0
 40
0.0
 40
0.0
 40
0.0
 40
1.0
 40
1.0
 40
1.0
 40
2.0
 40
2.0
 40
2.0
 40
3.0
 40
3.0
 40
3.0
 40
4.0
 40
4.0
 40
4.0
 40
4.0
 10
79.58537556156087
 20
-35.18219957874425
 30
0.0
 10
79.58537556156087
 20
-36.01143460908563
 30
0.0
 10
78.90083463705388
 20
-36.73249356982701
 30
0.0
 10
78.0354260802539
 20
-36.73249356982701
 30
0.0
 10
77.20636330480042
 20
-36.73249356982701
 30
0.0
 10
76.48530434405903
 20
-36.04760813554423
 30
0.0
 10
76.48530434405903
 20
-35.18219957874425
 30
0.0
 10
76.48530434405903
 20
-34.35330905817867
 30
0.0
 10
77.17036203322972
 20
-33.63225009743729
 30
0.0
 10
78.0354260802539
 20
-33.63225009743729
 30
0.0
 10
78.90083463705388
 20
-33.66842362389589
 30
0.0
 10
79.58537556156087
 20
-34.35330905817867
 30
0.0
 10
79.58537556156087
 20
-35.18219957874425
 30
0.0
  0
SPLINE
  5
52
330
4C
100
AcDbEntity
  8
Layer 1
370
     0
100
AcDbSpline
210
0.0
220
0.0
230
1.0
 70
    11
 71
     3
 72
    29
 73
    25
 74
     0
 42
0.0000000001
 43
0.0000000001
 40
0.0
 40
0.0
 40
0.0
 40
0.0
 40
1.0
 40
1.0
 40
1.0
 40
2.0
 40
2.0
 40
2.0
 40
3.0
 40
3.0
 40
3.0
 40
4.0
 40
4.0
 40
4.0
 40
5.0
 40
5.0
 40
5.0
 40
6.0
 40
6.0
 40
6.0
 40
7.0
 40
7.0
 40
7.0
 40
8.0
 40
8.0
 40
8.0
 40
8.0
 10
91.00036247279112
 20
-35.6996532619901
 30
0.0
 10
91.00036247279112
 20
-38.06126777507284
 30
0.0
 10
88.83959715899755
 20
-39.99982428347788
 30
0.0
 10
86.16620129881927
 20
-39.99982428347788
 30
0.0
 10
86.16620129881927
 20
-39.99982428347788
 30
0.0
 10
69.8338541027624
 20
-39.99982428347788
 30
0.0
 10
69.8338541027624
 20
-39.99982428347788
 30
0.0
 10
67.16080275235993
 20
-39.99982428347788
 30
0.0
 10
65.00003743856637
 20
-38.06126777507284
 30
0.0
 10
65.00003743856637
 20
-35.6996532619901
 30
0.0
 10
65.00003743856637
 20
-35.6996532619901
 30
0.0
 10
65.00003743856637
 20
-9.300041397617578
 30
0.0
 10
65.00003743856637
 20
-9.300041397617578
 30
0.0
 10
65.00003743856637
 20
-6.938599139422739
 30
0.0
 10
67.16080275235993
 20
-5.000042631017696
 30
0.0
 10
69.8338541027624
 20
-5.000042631017696
 30
0.0
 10
69.8338541027624
 20
-5.000042631017696
 30
0.0
 10
86.16620129881927
 20
-5.000042631017696
 30
0.0
 10
86.16620129881927
 20
-5.000042631017696
 30
0.0
 10
88.83959715899755
 20
-5.000042631017696
 30
0.0
 10
91.00036247279112
 20
-6.938599139422739
 30
0.0
 10
91.00036247279112
 20
-9.300041397617578
 30
0.0
 10
91.00036247279112
 20
-9.300041397617578
 30
0.0
 10
91.00036247279112
 20
-35.6996532619901
 30
0.0
 10
91.00036247279112
 20
-35.6996532619901
 30
0.0
  0
SPLINE
  5
53
330
4C
100
AcDbEntity
  8
Layer 1
370
     0
100
AcDbSpline
210
0.0
220
0.0
230
1.0
 70
    11
 71
     3
 72
    17
 73
    13
 74
     0
 42
0.0000000001
 43
0.0000000001
 40
0.0
 40
0.0
 40
0.0
 40
0.0
 40
1.0
 40
1.0
 40
1.0
 40
2.0
 40
2.0
 40
2.0
 40
3.0
 40
3.0
 40
3.0
 40
4.0
 40
4.0
 40
4.0
 40
4.0
 10
85.03552021465626
 20
-22.48236345868218
 30
0.0
 10
85.03552021465626
 20
-26.37101755298144
 30
0.0
 10
81.88911243230984
 20
-29.48194082842084
 30
0.0
 10
78.0357705900297
 20
-29.48194082842084
 30
0.0
 10
74.14659973106674
 20
-29.48194082842084
 30
0.0
 10
71.03550420073944
 20
-26.33587755585023
 30
0.0
 10
71.03550420073944
 20
-22.48236345868218
 30
0.0
 10
71.03550420073944
 20
-18.59370936438293
 30
0.0
 10
74.18191198308585
 20
-15.48209706939193
 30
0.0
 10
78.0357705900297
 20
-15.48209706939193
 30
0.0
 10
81.92459693921685
 20
-15.48209706939193
 30
0.0
 10
85.03552021465626
 20
-18.62902161640204
 30
0.0
 10
85.03552021465626
 20
-22.48236345868218
 30
0.0
  0
ENDBLK
  5
4F
330
4C
100
AcDbEntity
  8
0
100
AcDbBlockEnd
  0
BLOCK
  5
56
330
54
100
AcDbEntity
  8
0
100
AcDbBlockBegin
  2
block 5
 70
     0
 71
     0
 10
0.0
 20
0.0
 30
0.0
  3
block 5
  1

  0
SPLINE
  5
58
330
54
100
AcDbEntity
  8
Layer 1
370
     0
100
AcDbSpline
210
0.0
220
0.0
230
1.0
 70
    11
 71
     3
 72
    17
 73
    13
 74
     0
 42
0.0000000001
 43
0.0000000001
 40
0.0
 40
0.0
 40
0.0
 40
0.0
 40
1.0
 40
1.0
 40
1.0
 40
2.0
 40
2.0
 40
2.0
 40
3.0
 40
3.0
 40
3.0
 40
4.0
 40
4.0
 40
4.0
 40
4.0
 10
109.5503190956479
 20
-9.782355083732215
 30
0.0
 10
109.5503190956479
 20
-10.61141785918569
 30
0.0
 10
108.8654336613651
 20
-11.33247681992708
 30
0.0
 10
108.0000251045652
 20
-11.33247681992708
 30
0.0
 10
107.1711345839996
 20
-11.33247681992708
 30
0.0
 10
106.450420133034
 20
-10.6474191307564
 30
0.0
 10
106.450420133034
 20
-9.782355083732215
 30
0.0
 10
106.450420133034
 20
-8.953292308278733
 30
0.0
 10
107.1353055673168
 20
-8.232233347537353
 30
0.0
 10
108.0000251045652
 20
-8.232233347537353
 30
0.0
 10
108.8654336613651
 20
-8.268234619108052
 30
0.0
 10
109.5503190956479
 20
-8.953292308278733
 30
0.0
 10
109.5503190956479
 20
-9.782355083732215
 30
0.0
  0
SPLINE
  5
59
330
54
100
AcDbEntity
  8
Layer 1
370
     0
100
AcDbSpline
210
0.0
220
0.0
230
1.0
 70
    11
 71
     3
 72
    17
 73
    13
 74
     0
 42
0.0000000001
 43
0.0000000001
 40
0.0
 40
0.0
 40
0.0
 40
0.0
 40
1.0
 40
1.0
 40
1.0
 40
2.0
 40
2.0
 40
2.0
 40
3.0
 40
3.0
 40
3.0
 40
4.0
 40
4.0
 40
4.0
 40
4.0
 10
109.5854590927791
 20
-35.18219957874425
 30
0.0
 10
109.5854590927791
 20
-36.01143460908563
 30
0.0
 10
108.9009181682722
 20
-36.73249356982701
 30
0.0
 10
108.0355096114722
 20
-36.73249356982701
 30
0.0
 10
107.2062745811308
 20
-36.73249356982701
 30
0.0
 10
106.4852156203894
 20
-36.04760813554423
 30
0.0
 10
106.4852156203894
 20
-35.18219957874425
 30
0.0
 10
106.4852156203894
 20
-34.35330905817867
 30
0.0
 10
107.170445564448
 20
-33.63225009743729
 30
0.0
 10
108.0355096114722
 20
-33.63225009743729
 30
0.0
 10
108.9009181682722
 20
-33.66842362389589
 30
0.0
 10
109.5854590927791
 20
-34.35330905817867
 30
0.0
 10
109.5854590927791
 20
-35.18219957874425
 30
0.0
  0
SPLINE
  5
5A
330
54
100
AcDbEntity
  8
Layer 1
370
     0
100
AcDbSpline
210
0.0
220
0.0
230
1.0
 70
    11
 71
     3
 72
    29
 73
    25
 74
     0
 42
0.0000000001
 43
0.0000000001
 40
0.0
 40
0.0
 40
0.0
 40
0.0
 40
1.0
 40
1.0
 40
1.0
 40
2.0
 40
2.0
 40
2.0
 40
3.0
 40
3.0
 40
3.0
 40
4.0
 40
4.0
 40
4.0
 40
5.0
 40
5.0
 40
5.0
 40
6.0
 40
6.0
 40
6.0
 40
7.0
 40
7.0
 40
7.0
 40
8.0
 40
8.0
 40
8.0
 40
8.0
 10
121.0004460040094
 20
-35.6996532619901
 30
0.0
 10
121.0004460040094
 20
-38.06126777507284
 30
0.0
 10
118.8396806902158
 20
-39.99982428347788
 30
0.0
 10
116.1662848300376
 20
-39.99982428347788
 30
0.0
 10
116.1662848300376
 20
-39.99982428347788
 30
0.0
 10
99.8337653790928
 20
-39.99982428347788
 30
0.0
 10
99.8337653790928
 20
-39.99982428347788
 30
0.0
 10
97.16071402869032
 20
-39.99982428347788
 30
0.0
 10
94.99994871489675
 20
-38.06126777507284
 30
0.0
 10
94.99994871489675
 20
-35.6996532619901
 30
0.0
 10
94.99994871489675
 20
-35.6996532619901
 30
0.0
 10
94.99994871489675
 20
-9.300041397617578
 30
0.0
 10
94.99994871489675
 20
-9.300041397617578
 30
0.0
 10
94.99994871489675
 20
-6.938599139422739
 30
0.0
 10
97.16071402869032
 20
-5.000042631017696
 30
0.0
 10
99.8337653790928
 20
-5.000042631017696
 30
0.0
 10
99.8337653790928
 20
-5.000042631017696
 30
0.0
 10
116.1662848300376
 20
-5.000042631017696
 30
0.0
 10
116.1662848300376
 20
-5.000042631017696
 30
0.0
 10
118.8396806902158
 20
-5.000042631017696
 30
0.0
 10
121.0004460040094
 20
-6.938599139422739
 30
0.0
 10
121.0004460040094
 20
-9.300041397617578
 30
0.0
 10
121.0004460040094
 20
-9.300041397617578
 30
0.0
 10
121.0004460040094
 20
-35.6996532619901
 30
0.0
 10
121.0004460040094
 20
-35.6996532619901
 30
0.0
  0
SPLINE
  5
5B
330
54
100
AcDbEntity
  8
Layer 1
370
     0
100
AcDbSpline
210
0.0
220
0.0
230
1.0
 70
    11
 71
     3
 72
    17
 73
    13
 74
     0
 42
0.0000000001
 43
0.0000000001
 40
0.0
 40
0.0
 40
0.0
 40
0.0
 40
1.0
 40
1.0
 40
1.0
 40
2.0
 40
2.0
 40
2.0
 40
3.0
 40
3.0
 40
3.0
 40
4.0
 40
4.0
 40
4.0
 40
4.0
 10
115.0356037458745
 20
-22.48236345868218
 30
0.0
 10
115.0356037458745
 20
-26.37101755298144
 30
0.0
 10
111.8891959635281
 20
-29.48194082842084
 30
0.0
 10
108.035854121248
 20
-29.48194082842084
 30
0.0
 10
104.1465110073971
 20
-29.48194082842084
 30
0.0
 10
101.0354154770698
 20
-26.33587755585023
 30
0.0
 10
101.0354154770698
 20
-22.48236345868218
 30
0.0
 10
101.0354154770698
 20
-18.59370936438293
 30
0.0
 10
104.1818232594162
 20
-15.48209706939193
 30
0.0
 10
108.035854121248
 20
-15.48209706939193
 30
0.0
 10
111.9246804704351
 20
-15.48209706939193
 30
0.0
 10
115.0356037458745
 20
-18.62902161640204
 30
0.0
 10
115.0356037458745
 20
-22.48236345868218
 30
0.0
  0
ENDBLK
  5
57
330
54
100
AcDbEntity
  8
0
100
AcDbBlockEnd
  0
BLOCK
  5
5E
330
5C
100
AcDbEntity
  8
0
100
AcDbBlockBegin
  2
block 6
 70
     0
 71
     0
 10
0.0
 20
0.0
 30
0.0
  3
block 6
  1

  0
SPLINE
  5
60
330
5C
100
AcDbEntity
  8
Layer 1
370
     0
100
AcDbSpline
210
0.0
220
0.0
230
1.0
 70
    11
 71
     3
 72
    17
 73
    13
 74
     0
 42
0.0000000001
 43
0.0000000001
 40
0.0
 40
0.0
 40
0.0
 40
0.0
 40
1.0
 40
1.0
 40
1.0
 40
2.0
 40
2.0
 40
2.0
 40
3.0
 40
3.0
 40
3.0
 40
4.0
 40
4.0
 40
4.0
 40
4.0
 10
139.5505748817541
 20
-9.782355083732215
 30
0.0
 10
139.5505748817541
 20
-10.61141785918569
 30
0.0
 10
138.8656894474713
 20
-11.33247681992708
 30
0.0
 10
138.0002808906713
 20
-11.33247681992708
 30
0.0
 10
137.1713903701058
 20
-11.33247681992708
 30
0.0
 10
136.4506759191402
 20
-10.6474191307564
 30
0.0
 10
136.4506759191402
 20
-9.782355083732215
 30
0.0
 10
136.4506759191402
 20
-8.953292308278733
 30
0.0
 10
137.135561353423
 20
-8.232233347537353
 30
0.0
 10
138.0002808906713
 20
-8.232233347537353
 30
0.0
 10
138.8656894474713
 20
-8.268234619108052
 30
0.0
 10
139.5505748817541
 20
-8.953292308278733
 30
0.0
 10
139.5505748817541
 20
-9.782355083732215
 30
0.0
  0
SPLINE
  5
61
330
5C
100
AcDbEntity
  8
Layer 1
370
     0
100
AcDbSpline
210
0.0
220
0.0
230
1.0
 70
    11
 71
     3
 72
    17
 73
    13
 74
     0
 42
0.0000000001
 43
0.0000000001
 40
0.0
 40
0.0
 40
0.0
 40
0.0
 40
1.0
 40
1.0
 40
1.0
 40
2.0
 40
2.0
 40
2.0
 40
3.0
 40
3.0
 40
3.0
 40
4.0
 40
4.0
 40
4.0
 40
4.0
 10
139.5857148788853
 20
-35.18219957874425
 30
0.0
 10
139.5857148788853
 20
-36.01143460908563
 30
0.0
 10
138.9011739543784
 20
-36.73249356982701
 30
0.0
 10
138.0357653975784
 20
-36.73249356982701
 30
0.0
 10
137.206530367237
 20
-36.73249356982701
 30
0.0
 10
136.4854714064956
 20
-36.04760813554423
 30
0.0
 10
136.4854714064956
 20
-35.18219957874425
 30
0.0
 10
136.4854714064956
 20
-34.35330905817867
 30
0.0
 10
137.1707013505542
 20
-33.63225009743729
 30
0.0
 10
138.0357653975784
 20
-33.63225009743729
 30
0.0
 10
138.9011739543784
 20
-33.66842362389589
 30
0.0
 10
139.5857148788853
 20
-34.35330905817867
 30
0.0
 10
139.5857148788853
 20
-35.18219957874425
 30
0.0
  0
SPLINE
  5
62
330
5C
100
AcDbEntity
  8
Layer 1
370
     0
100
AcDbSpline
210
0.0
220
0.0
230
1.0
 70
    11
 71
     3
 72
    29
 73
    25
 74
     0
 42
0.0000000001
 43
0.0000000001
 40
0.0
 40
0.0
 40
0.0
 40
0.0
 40
1.0
 40
1.0
 40
1.0
 40
2.0
 40
2.0
 40
2.0
 40
3.0
 40
3.0
 40
3.0
 40
4.0
 40
4.0
 40
4.0
 40
5.0
 40
5.0
 40
5.0
 40
6.0
 40
6.0
 40
6.0
 40
7.0
 40
7.0
 40
7.0
 40
8.0
 40
8.0
 40
8.0
 40
8.0
 10
151.0007017901156
 20
-35.6996532619901
 30
0.0
 10
151.0007017901156
 20
-38.06126777507284
 30
0.0
 10
148.839936476322
 20
-39.99982428347788
 30
0.0
 10
146.1665406161437
 20
-39.99982428347788
 30
0.0
 10
146.1665406161437
 20
-39.99982428347788
 30
0.0
 10
129.834021165199
 20
-39.99982428347788
 30
0.0
 10
129.834021165199
 20
-39.99982428347788
 30
0.0
 10
127.1609698147965
 20
-39.99982428347788
 30
0.0
 10
125.0002045010029
 20
-38.06126777507284
 30
0.0
 10
125.0002045010029
 20
-35.6996532619901
 30
0.0
 10
125.0002045010029
 20
-35.6996532619901
 30
0.0
 10
125.0002045010029
 20
-9.300041397617578
 30
0.0
 10
125.0002045010029
 20
-9.300041397617578
 30
0.0
 10
125.0002045010029
 20
-6.938599139422739
 30
0.0
 10
127.1609698147965
 20
-5.000042631017696
 30
0.0
 10
129.834021165199
 20
-5.000042631017696
 30
0.0
 10
129.834021165199
 20
-5.000042631017696
 30
0.0
 10
146.1665406161437
 20
-5.000042631017696
 30
0.0
 10
146.1665406161437
 20
-5.000042631017696
 30
0.0
 10
148.839936476322
 20
-5.000042631017696
 30
0.0
 10
151.0007017901156
 20
-6.938599139422739
 30
0.0
 10
151.0007017901156
 20
-9.300041397617578
 30
0.0
 10
151.0007017901156
 20
-9.300041397617578
 30
0.0
 10
151.0007017901156
 20
-35.6996532619901
 30
0.0
 10
151.0007017901156
 20
-35.6996532619901
 30
0.0
  0
SPLINE
  5
63
330
5C
100
AcDbEntity
  8
Layer 1
370
     0
100
AcDbSpline
210
0.0
220
0.0
230
1.0
 70
    11
 71
     3
 72
    17
 73
    13
 74
     0
 42
0.0000000001
 43
0.0000000001
 40
0.0
 40
0.0
 40
0.0
 40
0.0
 40
1.0
 40
1.0
 40
1.0
 40
2.0
 40
2.0
 40
2.0
 40
3.0
 40
3.0
 40
3.0
 40
4.0
 40
4.0
 40
4.0
 40
4.0
 10
145.0358595319807
 20
-22.48236345868218
 30
0.0
 10
145.0358595319807
 20
-26.37101755298144
 30
0.0
 10
141.8894517496343
 20
-29.48194082842084
 30
0.0
 10
138.0361099073542
 20
-29.48194082842084
 30
0.0
 10
134.1465945386154
 20
-29.48194082842084
 30
0.0
 10
131.035671263176
 20
-26.33587755585023
 30
0.0
 10
131.035671263176
 20
-22.48236345868218
 30
0.0
 10
131.035671263176
 20
-18.59370936438293
 30
0.0
 10
134.1820790455224
 20
-15.48209706939193
 30
0.0
 10
138.0361099073542
 20
-15.48209706939193
 30
0.0
 10
141.9249362565413
 20
-15.48209706939193
 30
0.0
 10
145.0358595319807
 20
-18.62902161640204
 30
0.0
 10
145.0358595319807
 20
-22.48236345868218
 30
0.0
  0
ENDBLK
  5
5F
330
5C
100
AcDbEntity
  8
0
100
AcDbBlockEnd
  0
BLOCK
  5
66
330
64
100
AcDbEntity
  8
0
100
AcDbBlockBegin
  2
block 7
 70
     0
 71
     0
 10
0.0
 20
0.0
 30
0.0
  3
block 7
  1

  0
SPLINE
  5
68
330
64
100
AcDbEntity
  8
Layer 1
370
     0
100
AcDbSpline
210
0.0
220
0.0
230
1.0
 70
    11
 71
     3
 72
    17
 73
    13
 74
     0
 42
0.0000000001
 43
0.0000000001
 40
0.0
 40
0.0
 40
0.0
 40
0.0
 40
1.0
 40
1.0
 40
1.0
 40
2.0
 40
2.0
 40
2.0
 40
3.0
 40
3.0
 40
3.0
 40
4.0
 40
4.0
 40
4.0
 40
4.0
 10
19.55024075688099
 20
-48.78241199784961
 30
0.0
 10
19.55024075688099
 20
-49.61147477330309
 30
0.0
 10
18.86535532259821
 20
-50.33253373404447
 30
0.0
 10
18.00011902068613
 20
-50.33253373404447
 30
0.0
 10
17.17105624523265
 20
-50.33253373404447
 30
0.0
 10
16.45034179426706
 20
-49.64747604487379
 30
0.0
 10
16.45034179426706
 20
-48.78241199784961
 30
0.0
 10
16.45034179426706
 20
-47.95334922239613
 30
0.0
 10
17.13522722854984
 20
-47.23229026165475
 30
0.0
 10
18.00011902068613
 20
-47.23229026165475
 30
0.0
 10
18.86535532259821
 20
-47.26829153322545
 30
0.0
 10
19.55024075688099
 20
-47.95334922239613
 30
0.0
 10
19.55024075688099
 20
-48.78241199784961
 30
0.0
  0
SPLINE
  5
69
330
64
100
AcDbEntity
  8
Layer 1
370
     0
100
AcDbSpline
210
0.0
220
0.0
230
1.0
 70
    11
 71
     3
 72
    17
 73
    13
 74
     0
 42
0.0000000001
 43
0.0000000001
 40
0.0
 40
0.0
 40
0.0
 40
0.0
 40
1.0
 40
1.0
 40
1.0
 40
2.0
 40
2.0
 40
2.0
 40
3.0
 40
3.0
 40
3.0
 40
4.0
 40
4.0
 40
4.0
 40
4.0
 10
19.5853807540122
 20
-74.18225649286165
 30
0.0
 10
19.5853807540122
 20
-75.01149152320303
 30
0.0
 10
18.90083982950521
 20
-75.73255048394441
 30
0.0
 10
18.03543127270524
 20
-75.73255048394441
 30
0.0
 10
17.20636849725176
 20
-75.73255048394441
 30
0.0
 10
16.48530953651037
 20
-75.04766504966163
 30
0.0
 10
16.48530953651037
 20
-74.18225649286165
 30
0.0
 10
16.48530953651037
 20
-73.35336597229606
 30
0.0
 10
17.17036722568105
 20
-72.63230701155469
 30
0.0
 10
18.03543127270524
 20
-72.63230701155469
 30
0.0
 10
18.90083982950521
 20
-72.66848053801328
 30
0.0
 10
19.5853807540122
 20
-73.35336597229606
 30
0.0
 10
19.5853807540122
 20
-74.18225649286165
 30
0.0
  0
SPLINE
  5
6A
330
64
100
AcDbEntity
  8
Layer 1
370
     0
100
AcDbSpline
210
0.0
220
0.0
230
1.0
 70
    11
 71
     3
 72
    29
 73
    25
 74
     0
 42
0.0000000001
 43
0.0000000001
 40
0.0
 40
0.0
 40
0.0
 40
0.0
 40
1.0
 40
1.0
 40
1.0
 40
2.0
 40
2.0
 40
2.0
 40
3.0
 40
3.0
 40
3.0
 40
4.0
 40
4.0
 40
4.0
 40
5.0
 40
5.0
 40
5.0
 40
6.0
 40
6.0
 40
6.0
 40
7.0
 40
7.0
 40
7.0
 40
8.0
 40
8.0
 40
8.0
 40
8.0
 10
31.00036766524246
 20
-74.6997101761075
 30
0.0
 10
31.00036766524246
 20
-77.06132468919023
 30
0.0
 10
28.83960235144889
 20
-78.99988119759527
 30
0.0
 10
26.16620649127062
 20
-78.99988119759527
 30
0.0
 10
26.16620649127062
 20
-78.99988119759527
 30
0.0
 10
9.833859295213742
 20
-78.99988119759527
 30
0.0
 10
9.833859295213742
 20
-78.99988119759527
 30
0.0
 10
7.160807944811268
 20
-78.99988119759527
 30
0.0
 10
5.000042631017696
 20
-77.06132468919023
 30
0.0
 10
5.000042631017696
 20
-74.6997101761075
 30
0.0
 10
5.000042631017696
 20
-74.6997101761075
 30
0.0
 10
5.000042631017696
 20
-48.30009831173498
 30
0.0
 10
5.000042631017696
 20
-48.30009831173498
 30
0.0
 10
5.000042631017696
 20
-45.93865605354014
 30
0.0
 10
7.160807944811268
 20
-44.00009954513509
 30
0.0
 10
9.833859295213742
 20
-44.00009954513509
 30
0.0
 10
9.833859295213742
 20
-44.00009954513509
 30
0.0
 10
26.16620649127062
 20
-44.00009954513509
 30
0.0
 10
26.16620649127062
 20
-44.00009954513509
 30
0.0
 10
28.83960235144889
 20
-44.00009954513509
 30
0.0
 10
31.00036766524246
 20
-45.93865605354014
 30
0.0
 10
31.00036766524246
 20
-48.30009831173498
 30
0.0
 10
31.00036766524246
 20
-48.30009831173498
 30
0.0
 10
31.00036766524246
 20
-74.6997101761075
 30
0.0
 10
31.00036766524246
 20
-74.6997101761075
 30
0.0
  0
SPLINE
  5
6B
330
64
100
AcDbEntity
  8
Layer 1
370
     0
100
AcDbSpline
210
0.0
220
0.0
230
1.0
 70
    11
 71
     3
 72
    17
 73
    13
 74
     0
 42
0.0000000001
 43
0.0000000001
 40
0.0
 40
0.0
 40
0.0
 40
0.0
 40
1.0
 40
1.0
 40
1.0
 40
2.0
 40
2.0
 40
2.0
 40
3.0
 40
3.0
 40
3.0
 40
4.0
 40
4.0
 40
4.0
 40
4.0
 10
25.03552540710759
 20
-61.48242037279958
 30
0.0
 10
25.03552540710759
 20
-65.37107446709884
 30
0.0
 10
21.88911762476118
 20
-68.48199774253824
 30
0.0
 10
18.03577578248103
 20
-68.48199774253824
 30
0.0
 10
14.14660492351808
 20
-68.48199774253824
 30
0.0
 10
11.03550939319078
 20
-65.33593446996763
 30
0.0
 10
11.03550939319078
 20
-61.48242037279958
 30
0.0
 10
11.03550939319078
 20
-57.59376627850033
 30
0.0
 10
14.18191717553719
 20
-54.48215398350933
 30
0.0
 10
18.03577578248103
 20
-54.48215398350933
 30
0.0
 10
21.92460213166818
 20
-54.48215398350933
 30
0.0
 10
25.03552540710759
 20
-57.62907853051943
 30
0.0
 10
25.03552540710759
 20
-61.48242037279958
 30
0.0
  0
ENDBLK
  5
67
330
64
100
AcDbEntity
  8
0
100
AcDbBlockEnd
  0
BLOCK
  5
6E
330
6C
100
AcDbEntity
  8
0
100
AcDbBlockBegin
  2
block 8
 70
     0
 71
     0
 10
0.0
 20
0.0
 30
0.0
  3
block 8
  1

  0
SPLINE
  5
70
330
6C
100
AcDbEntity
  8
Layer 1
370
     0
100
AcDbSpline
210
0.0
220
0.0
230
1.0
 70
    11
 71
     3
 72
    17
 73
    13
 74
     0
 42
0.0000000001
 43
0.0000000001
 40
0.0
 40
0.0
 40
0.0
 40
0.0
 40
1.0
 40
1.0
 40
1.0
 40
2.0
 40
2.0
 40
2.0
 40
3.0
 40
3.0
 40
3.0
 40
4.0
 40
4.0
 40
4.0
 40
4.0
 10
49.55015203321138
 20
-48.78241199784961
 30
0.0
 10
49.55015203321138
 20
-49.61147477330309
 30
0.0
 10
48.86526659892859
 20
-50.33253373404447
 30
0.0
 10
48.00003029701651
 20
-50.33253373404447
 30
0.0
 10
47.17096752156303
 20
-50.33253373404447
 30
0.0
 10
46.45025307059745
 20
-49.64747604487379
 30
0.0
 10
46.45025307059745
 20
-48.78241199784961
 30
0.0
 10
46.45025307059745
 20
-47.95334922239613
 30
0.0
 10
47.13513850488023
 20
-47.23229026165475
 30
0.0
 10
48.00003029701651
 20
-47.23229026165475
 30
0.0
 10
48.86526659892859
 20
-47.26829153322545
 30
0.0
 10
49.55015203321138
 20
-47.95334922239613
 30
0.0
 10
49.55015203321138
 20
-48.78241199784961
 30
0.0
  0
SPLINE
  5
71
330
6C
100
AcDbEntity
  8
Layer 1
370
     0
100
AcDbSpline
210
0.0
220
0.0
230
1.0
 70
    11
 71
     3
 72
    17
 73
    13
 74
     0
 42
0.0000000001
 43
0.0000000001
 40
0.0
 40
0.0
 40
0.0
 40
0.0
 40
1.0
 40
1.0
 40
1.0
 40
2.0
 40
2.0
 40
2.0
 40
3.0
 40
3.0
 40
3.0
 40
4.0
 40
4.0
 40
4.0
 40
4.0
 10
49.58529203034258
 20
-74.18225649286165
 30
0.0
 10
49.58529203034258
 20
-75.01149152320303
 30
0.0
 10
48.9007511058356
 20
-75.73255048394441
 30
0.0
 10
48.03534254903562
 20
-75.73255048394441
 30
0.0
 10
47.20627977358214
 20
-75.73255048394441
 30
0.0
 10
46.48522081284076
 20
-75.04766504966163
 30
0.0
 10
46.48522081284076
 20
-74.18225649286165
 30
0.0
 10
46.48522081284076
 20
-73.35336597229606
 30
0.0
 10
47.17027850201144
 20
-72.63230701155469
 30
0.0
 10
48.03534254903562
 20
-72.63230701155469
 30
0.0
 10
48.9007511058356
 20
-72.66848053801328
 30
0.0
 10
49.58529203034258
 20
-73.35336597229606
 30
0.0
 10
49.58529203034258
 20
-74.18225649286165
 30
0.0
  0
SPLINE
  5
72
330
6C
100
AcDbEntity
  8
Layer 1
370
     0
100
AcDbSpline
210
0.0
220
0.0
230
1.0
 70
    11
 71
     3
 72
    29
 73
    25
 74
     0
 42
0.0000000001
 43
0.0000000001
 40
0.0
 40
0.0
 40
0.0
 40
0.0
 40
1.0
 40
1.0
 40
1.0
 40
2.0
 40
2.0
 40
2.0
 40
3.0
 40
3.0
 40
3.0
 40
4.0
 40
4.0
 40
4.0
 40
5.0
 40
5.0
 40
5.0
 40
6.0
 40
6.0
 40
6.0
 40
7.0
 40
7.0
 40
7.0
 40
8.0
 40
8.0
 40
8.0
 40
8.0
 10
61.00027894157284
 20
-74.6997101761075
 30
0.0
 10
61.00027894157284
 20
-77.06132468919023
 30
0.0
 10
58.83951362777927
 20
-78.99988119759527
 30
0.0
 10
56.166117767601
 20
-78.99988119759527
 30
0.0
 10
56.166117767601
 20
-78.99988119759527
 30
0.0
 10
39.83377057154412
 20
-78.99988119759527
 30
0.0
 10
39.83377057154412
 20
-78.99988119759527
 30
0.0
 10
37.16071922114165
 20
-78.99988119759527
 30
0.0
 10
34.99995390734808
 20
-77.06132468919023
 30
0.0
 10
34.99995390734808
 20
-74.6997101761075
 30
0.0
 10
34.99995390734808
 20
-74.6997101761075
 30
0.0
 10
34.99995390734808
 20
-48.30009831173498
 30
0.0
 10
34.99995390734808
 20
-48.30009831173498
 30
0.0
 10
34.99995390734808
 20
-45.93865605354014
 30
0.0
 10
37.16071922114165
 20
-44.00009954513509
 30
0.0
 10
39.83377057154412
 20
-44.00009954513509
 30
0.0
 10
39.83377057154412
 20
-44.00009954513509
 30
0.0
 10
56.166117767601
 20
-44.00009954513509
 30
0.0
 10
56.166117767601
 20
-44.00009954513509
 30
0.0
 10
58.83951362777927
 20
-44.00009954513509
 30
0.0
 10
61.00027894157284
 20
-45.93865605354014
 30
0.0
 10
61.00027894157284
 20
-48.30009831173498
 30
0.0
 10
61.00027894157284
 20
-48.30009831173498
 30
0.0
 10
61.00027894157284
 20
-74.6997101761075
 30
0.0
 10
61.00027894157284
 20
-74.6997101761075
 30
0.0
  0
SPLINE
  5
73
330
6C
100
AcDbEntity
  8
Layer 1
370
     0
100
AcDbSpline
210
0.0
220
0.0
230
1.0
 70
    11
 71
     3
 72
    17
 73
    13
 74
     0
 42
0.0000000001
 43
0.0000000001
 40
0.0
 40
0.0
 40
0.0
 40
0.0
 40
1.0
 40
1.0
 40
1.0
 40
2.0
 40
2.0
 40
2.0
 40
3.0
 40
3.0
 40
3.0
 40
4.0
 40
4.0
 40
4.0
 40
4.0
 10
55.03543668343797
 20
-61.48242037279958
 30
0.0
 10
55.03543668343797
 20
-65.37107446709884
 30
0.0
 10
51.88902890109156
 20
-68.48199774253824
 30
0.0
 10
48.03568705881141
 20
-68.48199774253824
 30
0.0
 10
44.14651619984846
 20
-68.48199774253824
 30
0.0
 10
41.03542066952116
 20
-65.33593446996763
 30
0.0
 10
41.03542066952116
 20
-61.48242037279958
 30
0.0
 10
41.03542066952116
 20
-57.59376627850033
 30
0.0
 10
44.18182845186757
 20
-54.48215398350933
 30
0.0
 10
48.03568705881141
 20
-54.48215398350933
 30
0.0
 10
51.92451340799857
 20
-54.48215398350933
 30
0.0
 10
55.03543668343797
 20
-57.62907853051943
 30
0.0
 10
55.03543668343797
 20
-61.48242037279958
 30
0.0
  0
ENDBLK
  5
6F
330
6C
100
AcDbEntity
  8
0
100
AcDbBlockEnd
  0
BLOCK
  5
76
330
74
100
AcDbEntity
  8
0
100
AcDbBlockBegin
  2
block 9
 70
     0
 71
     0
 10
0.0
 20
0.0
 30
0.0
  3
block 9
  1

  0
SPLINE
  5
78
330
74
100
AcDbEntity
  8
Layer 1
370
     0
100
AcDbSpline
210
0.0
220
0.0
230
1.0
 70
    11
 71
     3
 72
    17
 73
    13
 74
     0
 42
0.0000000001
 43
0.0000000001
 40
0.0
 40
0.0
 40
0.0
 40
0.0
 40
1.0
 40
1.0
 40
1.0
 40
2.0
 40
2.0
 40
2.0
 40
3.0
 40
3.0
 40
3.0
 40
4.0
 40
4.0
 40
4.0
 40
4.0
 10
79.55023556442966
 20
-48.78241199784961
 30
0.0
 10
79.55023556442966
 20
-49.61147477330309
 30
0.0
 10
78.86535013014687
 20
-50.33253373404447
 30
0.0
 10
78.00011382823479
 20
-50.33253373404447
 30
0.0
 10
77.17105105278131
 20
-50.33253373404447
 30
0.0
 10
76.45033660181572
 20
-49.64747604487379
 30
0.0
 10
76.45033660181572
 20
-48.78241199784961
 30
0.0
 10
76.45033660181572
 20
-47.95334922239613
 30
0.0
 10
77.13522203609851
 20
-47.23229026165475
 30
0.0
 10
78.00011382823479
 20
-47.23229026165475
 30
0.0
 10
78.86535013014687
 20
-47.26829153322545
 30
0.0
 10
79.55023556442966
 20
-47.95334922239613
 30
0.0
 10
79.55023556442966
 20
-48.78241199784961
 30
0.0
  0
SPLINE
  5
79
330
74
100
AcDbEntity
  8
Layer 1
370
     0
100
AcDbSpline
210
0.0
220
0.0
230
1.0
 70
    11
 71
     3
 72
    17
 73
    13
 74
     0
 42
0.0000000001
 43
0.0000000001
 40
0.0
 40
0.0
 40
0.0
 40
0.0
 40
1.0
 40
1.0
 40
1.0
 40
2.0
 40
2.0
 40
2.0
 40
3.0
 40
3.0
 40
3.0
 40
4.0
 40
4.0
 40
4.0
 40
4.0
 10
79.58537556156087
 20
-74.18225649286165
 30
0.0
 10
79.58537556156087
 20
-75.01149152320303
 30
0.0
 10
78.90083463705388
 20
-75.73255048394441
 30
0.0
 10
78.0354260802539
 20
-75.73255048394441
 30
0.0
 10
77.20636330480042
 20
-75.73255048394441
 30
0.0
 10
76.48530434405903
 20
-75.04766504966163
 30
0.0
 10
76.48530434405903
 20
-74.18225649286165
 30
0.0
 10
76.48530434405903
 20
-73.35336597229606
 30
0.0
 10
77.17036203322972
 20
-72.63230701155469
 30
0.0
 10
78.0354260802539
 20
-72.63230701155469
 30
0.0
 10
78.90083463705388
 20
-72.66848053801328
 30
0.0
 10
79.58537556156087
 20
-73.35336597229606
 30
0.0
 10
79.58537556156087
 20
-74.18225649286165
 30
0.0
  0
SPLINE
  5
7A
330
74
100
AcDbEntity
  8
Layer 1
370
     0
100
AcDbSpline
210
0.0
220
0.0
230
1.0
 70
    11
 71
     3
 72
    29
 73
    25
 74
     0
 42
0.0000000001
 43
0.0000000001
 40
0.0
 40
0.0
 40
0.0
 40
0.0
 40
1.0
 40
1.0
 40
1.0
 40
2.0
 40
2.0
 40
2.0
 40
3.0
 40
3.0
 40
3.0
 40
4.0
 40
4.0
 40
4.0
 40
5.0
 40
5.0
 40
5.0
 40
6.0
 40
6.0
 40
6.0
 40
7.0
 40
7.0
 40
7.0
 40
8.0
 40
8.0
 40
8.0
 40
8.0
 10
91.00036247279112
 20
-74.6997101761075
 30
0.0
 10
91.00036247279112
 20
-77.06132468919023
 30
0.0
 10
88.83959715899755
 20
-78.99988119759527
 30
0.0
 10
86.16620129881927
 20
-78.99988119759527
 30
0.0
 10
86.16620129881927
 20
-78.99988119759527
 30
0.0
 10
69.8338541027624
 20
-78.99988119759527
 30
0.0
 10
69.8338541027624
 20
-78.99988119759527
 30
0.0
 10
67.16080275235993
 20
-78.99988119759527
 30
0.0
 10
65.00003743856637
 20
-77.06132468919023
 30
0.0
 10
65.00003743856637
 20
-74.6997101761075
 30
0.0
 10
65.00003743856637
 20
-74.6997101761075
 30
0.0
 10
65.00003743856637
 20
-48.30009831173498
 30
0.0
 10
65.00003743856637
 20
-48.30009831173498
 30
0.0
 10
65.00003743856637
 20
-45.93865605354014
 30
0.0
 10
67.16080275235993
 20
-44.00009954513509
 30
0.0
 10
69.8338541027624
 20
-44.00009954513509
 30
0.0
 10
69.8338541027624
 20
-44.00009954513509
 30
0.0
 10
86.16620129881927
 20
-44.00009954513509
 30
0.0
 10
86.16620129881927
 20
-44.00009954513509
 30
0.0
 10
88.83959715899755
 20
-44.00009954513509
 30
0.0
 10
91.00036247279112
 20
-45.93865605354014
 30
0.0
 10
91.00036247279112
 20
-48.30009831173498
 30
0.0
 10
91.00036247279112
 20
-48.30009831173498
 30
0.0
 10
91.00036247279112
 20
-74.6997101761075
 30
0.0
 10
91.00036247279112
 20
-74.6997101761075
 30
0.0
  0
SPLINE
  5
7B
330
74
100
AcDbEntity
  8
Layer 1
370
     0
100
AcDbSpline
210
0.0
220
0.0
230
1.0
 70
    11
 71
     3
 72
    17
 73
    13
 74
     0
 42
0.0000000001
 43
0.0000000001
 40
0.0
 40
0.0
 40
0.0
 40
0.0
 40
1.0
 40
1.0
 40
1.0
 40
2.0
 40
2.0
 40
2.0
 40
3.0
 40
3.0
 40
3.0
 40
4.0
 40
4.0
 40
4.0
 40
4.0
 10
85.03552021465626
 20
-61.48242037279958
 30
0.0
 10
85.03552021465626
 20
-65.37107446709884
 30
0.0
 10
81.88911243230984
 20
-68.48199774253824
 30
0.0
 10
78.0357705900297
 20
-68.48199774253824
 30
0.0
 10
74.14659973106674
 20
-68.48199774253824
 30
0.0
 10
71.03550420073944
 20
-65.33593446996763
 30
0.0
 10
71.03550420073944
 20
-61.48242037279958
 30
0.0
 10
71.03550420073944
 20
-57.59376627850033
 30
0.0
 10
74.18191198308585
 20
-54.48215398350933
 30
0.0
 10
78.0357705900297
 20
-54.48215398350933
 30
0.0
 10
81.92459693921685
 20
-54.48215398350933
 30
0.0
 10
85.03552021465626
 20
-57.62907853051943
 30
0.0
 10
85.03552021465626
 20
-61.48242037279958
 30
0.0
  0
ENDBLK
  5
77
330
74
100
AcDbEntity
  8
0
100
AcDbBlockEnd
  0
BLOCK
  5
7E
330
7C
100
AcDbEntity
  8
0
100
AcDbBlockBegin
  2
block 10
 70
     0
 71
     0
 10
0.0
 20
0.0
 30
0.0
  3
block 10
  1

  0
SPLINE
  5
80
330
7C
100
AcDbEntity
  8
Layer 1
370
     0
100
AcDbSpline
210
0.0
220
0.0
230
1.0
 70
    11
 71
     3
 72
    17
 73
    13
 74
     0
 42
0.0000000001
 43
0.0000000001
 40
0.0
 40
0.0
 40
0.0
 40
0.0
 40
1.0
 40
1.0
 40
1.0
 40
2.0
 40
2.0
 40
2.0
 40
3.0
 40
3.0
 40
3.0
 40
4.0
 40
4.0
 40
4.0
 40
4.0
 10
109.5503190956479
 20
-48.78241199784961
 30
0.0
 10
109.5503190956479
 20
-49.61147477330309
 30
0.0
 10
108.8654336613651
 20
-50.33253373404447
 30
0.0
 10
108.0000251045652
 20
-50.33253373404447
 30
0.0
 10
107.1711345839996
 20
-50.33253373404447
 30
0.0
 10
106.450420133034
 20
-49.64747604487379
 30
0.0
 10
106.450420133034
 20
-48.78241199784961
 30
0.0
 10
106.450420133034
 20
-47.95334922239613
 30
0.0
 10
107.1353055673168
 20
-47.23229026165475
 30
0.0
 10
108.0000251045652
 20
-47.23229026165475
 30
0.0
 10
108.8654336613651
 20
-47.26829153322545
 30
0.0
 10
109.5503190956479
 20
-47.95334922239613
 30
0.0
 10
109.5503190956479
 20
-48.78241199784961
 30
0.0
  0
SPLINE
  5
81
330
7C
100
AcDbEntity
  8
Layer 1
370
     0
100
AcDbSpline
210
0.0
220
0.0
230
1.0
 70
    11
 71
     3
 72
    17
 73
    13
 74
     0
 42
0.0000000001
 43
0.0000000001
 40
0.0
 40
0.0
 40
0.0
 40
0.0
 40
1.0
 40
1.0
 40
1.0
 40
2.0
 40
2.0
 40
2.0
 40
3.0
 40
3.0
 40
3.0
 40
4.0
 40
4.0
 40
4.0
 40
4.0
 10
109.5854590927791
 20
-74.18225649286165
 30
0.0
 10
109.5854590927791
 20
-75.01149152320303
 30
0.0
 10
108.9009181682722
 20
-75.73255048394441
 30
0.0
 10
108.0355096114722
 20
-75.73255048394441
 30
0.0
 10
107.2062745811308
 20
-75.73255048394441
 30
0.0
 10
106.4852156203894
 20
-75.04766504966163
 30
0.0
 10
106.4852156203894
 20
-74.18225649286165
 30
0.0
 10
106.4852156203894
 20
-73.35336597229606
 30
0.0
 10
107.170445564448
 20
-72.63230701155469
 30
0.0
 10
108.0355096114722
 20
-72.63230701155469
 30
0.0
 10
108.9009181682722
 20
-72.66848053801328
 30
0.0
 10
109.5854590927791
 20
-73.35336597229606
 30
0.0
 10
109.5854590927791
 20
-74.18225649286165
 30
0.0
  0
SPLINE
  5
82
330
7C
100
AcDbEntity
  8
Layer 1
370
     0
100
AcDbSpline
210
0.0
220
0.0
230
1.0
 70
    11
 71
     3
 72
    29
 73
    25
 74
     0
 42
0.0000000001
 43
0.0000000001
 40
0.0
 40
0.0
 40
0.0
 40
0.0
 40
1.0
 40
1.0
 40
1.0
 40
2.0
 40
2.0
 40
2.0
 40
3.0
 40
3.0
 40
3.0
 40
4.0
 40
4.0
 40
4.0
 40
5.0
 40
5.0
 40
5.0
 40
6.0
 40
6.0
 40
6.0
 40
7.0
 40
7.0
 40
7.0
 40
8.0
 40
8.0
 40
8.0
 40
8.0
 10
121.0004460040094
 20
-74.6997101761075
 30
0.0
 10
121.0004460040094
 20
-77.06132468919023
 30
0.0
 10
118.8396806902158
 20
-78.99988119759527
 30
0.0
 10
116.1662848300376
 20
-78.99988119759527
 30
0.0
 10
116.1662848300376
 20
-78.99988119759527
 30
0.0
 10
99.8337653790928
 20
-78.99988119759527
 30
0.0
 10
99.8337653790928
 20
-78.99988119759527
 30
0.0
 10
97.16071402869032
 20
-78.99988119759527
 30
0.0
 10
94.99994871489675
 20
-77.06132468919023
 30
0.0
 10
94.99994871489675
 20
-74.6997101761075
 30
0.0
 10
94.99994871489675
 20
-74.6997101761075
 30
0.0
 10
94.99994871489675
 20
-48.30009831173498
 30
0.0
 10
94.99994871489675
 20
-48.30009831173498
 30
0.0
 10
94.99994871489675
 20
-45.93865605354014
 30
0.0
 10
97.16071402869032
 20
-44.00009954513509
 30
0.0
 10
99.8337653790928
 20
-44.00009954513509
 30
0.0
 10
99.8337653790928
 20
-44.00009954513509
 30
0.0
 10
116.1662848300376
 20
-44.00009954513509
 30
0.0
 10
116.1662848300376
 20
-44.00009954513509
 30
0.0
 10
118.8396806902158
 20
-44.00009954513509
 30
0.0
 10
121.0004460040094
 20
-45.93865605354014
 30
0.0
 10
121.0004460040094
 20
-48.30009831173498
 30
0.0
 10
121.0004460040094
 20
-48.30009831173498
 30
0.0
 10
121.0004460040094
 20
-74.6997101761075
 30
0.0
 10
121.0004460040094
 20
-74.6997101761075
 30
0.0
  0
SPLINE
  5
83
330
7C
100
AcDbEntity
  8
Layer 1
370
     0
100
AcDbSpline
210
0.0
220
0.0
230
1.0
 70
    11
 71
     3
 72
    17
 73
    13
 74
     0
 42
0.0000000001
 43
0.0000000001
 40
0.0
 40
0.0
 40
0.0
 40
0.0
 40
1.0
 40
1.0
 40
1.0
 40
2.0
 40
2.0
 40
2.0
 40
3.0
 40
3.0
 40
3.0
 40
4.0
 40
4.0
 40
4.0
 40
4.0
 10
115.0356037458745
 20
-61.48242037279958
 30
0.0
 10
115.0356037458745
 20
-65.37107446709884
 30
0.0
 10
111.8891959635281
 20
-68.48199774253824
 30
0.0
 10
108.035854121248
 20
-68.48199774253824
 30
0.0
 10
104.1465110073971
 20
-68.48199774253824
 30
0.0
 10
101.0354154770698
 20
-65.33593446996763
 30
0.0
 10
101.0354154770698
 20
-61.48242037279958
 30
0.0
 10
101.0354154770698
 20
-57.59376627850033
 30
0.0
 10
104.1818232594162
 20
-54.48215398350933
 30
0.0
 10
108.035854121248
 20
-54.48215398350933
 30
0.0
 10
111.9246804704351
 20
-54.48215398350933
 30
0.0
 10
115.0356037458745
 20
-57.62907853051943
 30
0.0
 10
115.0356037458745
 20
-61.48242037279958
 30
0.0
  0
ENDBLK
  5
7F
330
7C
100
AcDbEntity
  8
0
100
AcDbBlockEnd
  0
BLOCK
  5
86
330
84
100
AcDbEntity
  8
0
100
AcDbBlockBegin
  2
block 11
 70
     0
 71
     0
 10
0.0
 20
0.0
 30
0.0
  3
block 11
  1

  0
SPLINE
  5
88
330
84
100
AcDbEntity
  8
Layer 1
370
     0
100
AcDbSpline
210
0.0
220
0.0
230
1.0
 70
    11
 71
     3
 72
    17
 73
    13
 74
     0
 42
0.0000000001
 43
0.0000000001
 40
0.0
 40
0.0
 40
0.0
 40
0.0
 40
1.0
 40
1.0
 40
1.0
 40
2.0
 40
2.0
 40
2.0
 40
3.0
 40
3.0
 40
3.0
 40
4.0
 40
4.0
 40
4.0
 40
4.0
 10
139.5505748817541
 20
-48.78241199784961
 30
0.0
 10
139.5505748817541
 20
-49.61147477330309
 30
0.0
 10
138.8656894474713
 20
-50.33253373404447
 30
0.0
 10
138.0002808906713
 20
-50.33253373404447
 30
0.0
 10
137.1713903701058
 20
-50.33253373404447
 30
0.0
 10
136.4506759191402
 20
-49.64747604487379
 30
0.0
 10
136.4506759191402
 20
-48.78241199784961
 30
0.0
 10
136.4506759191402
 20
-47.95334922239613
 30
0.0
 10
137.135561353423
 20
-47.23229026165475
 30
0.0
 10
138.0002808906713
 20
-47.23229026165475
 30
0.0
 10
138.8656894474713
 20
-47.26829153322545
 30
0.0
 10
139.5505748817541
 20
-47.95334922239613
 30
0.0
 10
139.5505748817541
 20
-48.78241199784961
 30
0.0
  0
SPLINE
  5
89
330
84
100
AcDbEntity
  8
Layer 1
370
     0
100
AcDbSpline
210
0.0
220
0.0
230
1.0
 70
    11
 71
     3
 72
    17
 73
    13
 74
     0
 42
0.0000000001
 43
0.0000000001
 40
0.0
 40
0.0
 40
0.0
 40
0.0
 40
1.0
 40
1.0
 40
1.0
 40
2.0
 40
2.0
 40
2.0
 40
3.0
 40
3.0
 40
3.0
 40
4.0
 40
4.0
 40
4.0
 40
4.0
 10
139.5857148788853
 20
-74.18225649286165
 30
0.0
 10
139.5857148788853
 20
-75.01149152320303
 30
0.0
 10
138.9011739543784
 20
-75.73255048394441
 30
0.0
 10
138.0357653975784
 20
-75.73255048394441
 30
0.0
 10
137.206530367237
 20
-75.73255048394441
 30
0.0
 10
136.4854714064956
 20
-75.04766504966163
 30
0.0
 10
136.4854714064956
 20
-74.18225649286165
 30
0.0
 10
136.4854714064956
 20
-73.35336597229606
 30
0.0
 10
137.1707013505542
 20
-72.63230701155469
 30
0.0
 10
138.0357653975784
 20
-72.63230701155469
 30
0.0
 10
138.9011739543784
 20
-72.66848053801328
 30
0.0
 10
139.5857148788853
 20
-73.35336597229606
 30
0.0
 10
139.5857148788853
 20
-74.18225649286165
 30
0.0
  0
SPLINE
  5
8A
330
84
100
AcDbEntity
  8
Layer 1
370
     0
100
AcDbSpline
210
0.0
220
0.0
230
1.0
 70
    11
 71
     3
 72
    29
 73
    25
 74
     0
 42
0.0000000001
 43
0.0000000001
 40
0.0
 40
0.0
 40
0.0
 40
0.0
 40
1.0
 40
1.0
 40
1.0
 40
2.0
 40
2.0
 40
2.0
 40
3.0
 40
3.0
 40
3.0
 40
4.0
 40
4.0
 40
4.0
 40
5.0
 40
5.0
 40
5.0
 40
6.0
 40
6.0
 40
6.0
 40
7.0
 40
7.0
 40
7.0
 40
8.0
 40
8.0
 40
8.0
 40
8.0
 10
151.0007017901156
 20
-74.6997101761075
 30
0.0
 10
151.0007017901156
 20
-77.06132468919023
 30
0.0
 10
148.839936476322
 20
-78.99988119759527
 30
0.0
 10
146.1665406161437
 20
-78.99988119759527
 30
0.0
 10
146.1665406161437
 20
-78.99988119759527
 30
0.0
 10
129.834021165199
 20
-78.99988119759527
 30
0.0
 10
129.834021165199
 20
-78.99988119759527
 30
0.0
 10
127.1609698147965
 20
-78.99988119759527
 30
0.0
 10
125.0002045010029
 20
-77.06132468919023
 30
0.0
 10
125.0002045010029
 20
-74.6997101761075
 30
0.0
 10
125.0002045010029
 20
-74.6997101761075
 30
0.0
 10
125.0002045010029
 20
-48.30009831173498
 30
0.0
 10
125.0002045010029
 20
-48.30009831173498
 30
0.0
 10
125.0002045010029
 20
-45.93865605354014
 30
0.0
 10
127.1609698147965
 20
-44.00009954513509
 30
0.0
 10
129.834021165199
 20
-44.00009954513509
 30
0.0
 10
129.834021165199
 20
-44.00009954513509
 30
0.0
 10
146.1665406161437
 20
-44.00009954513509
 30
0.0
 10
146.1665406161437
 20
-44.00009954513509
 30
0.0
 10
148.839936476322
 20
-44.00009954513509
 30
0.0
 10
151.0007017901156
 20
-45.93865605354014
 30
0.0
 10
151.0007017901156
 20
-48.30009831173498
 30
0.0
 10
151.0007017901156
 20
-48.30009831173498
 30
0.0
 10
151.0007017901156
 20
-74.6997101761075
 30
0.0
 10
151.0007017901156
 20
-74.6997101761075
 30
0.0
  0
SPLINE
  5
8B
330
84
100
AcDbEntity
  8
Layer 1
370
     0
100
AcDbSpline
210
0.0
220
0.0
230
1.0
 70
    11
 71
     3
 72
    17
 73
    13
 74
     0
 42
0.0000000001
 43
0.0000000001
 40
0.0
 40
0.0
 40
0.0
 40
0.0
 40
1.0
 40
1.0
 40
1.0
 40
2.0
 40
2.0
 40
2.0
 40
3.0
 40
3.0
 40
3.0
 40
4.0
 40
4.0
 40
4.0
 40
4.0
 10
145.0358595319807
 20
-61.48242037279958
 30
0.0
 10
145.0358595319807
 20
-65.37107446709884
 30
0.0
 10
141.8894517496343
 20
-68.48199774253824
 30
0.0
 10
138.0361099073542
 20
-68.48199774253824
 30
0.0
 10
134.1465945386154
 20
-68.48199774253824
 30
0.0
 10
131.035671263176
 20
-65.33593446996763
 30
0.0
 10
131.035671263176
 20
-61.48242037279958
 30
0.0
 10
131.035671263176
 20
-57.59376627850033
 30
0.0
 10
134.1820790455224
 20
-54.48215398350933
 30
0.0
 10
138.0361099073542
 20
-54.48215398350933
 30
0.0
 10
141.9249362565413
 20
-54.48215398350933
 30
0.0
 10
145.0358595319807
 20
-57.62907853051943
 30
0.0
 10
145.0358595319807
 20
-61.48242037279958
 30
0.0
  0
ENDBLK
  5
87
330
84
100
AcDbEntity
  8
0
100
AcDbBlockEnd
  0
ENDSEC
  0
SECTION
  2
ENTITIES
  0
INSERT
  5
3D
330
1F
100
AcDbEntity
  8
Layer 1
100
AcDbBlockReference
  2
block 2
 10
0.0
 20
0.0
 30
0.0
  0
INSERT
  5
45
330
1F
100
AcDbEntity
  8
Layer 1
100
AcDbBlockReference
  2
block 3
 10
0.0
 20
0.0
 30
0.0
  0
INSERT
  5
4D
330
1F
100
AcDbEntity
  8
Layer 1
100
AcDbBlockReference
  2
block 4
 10
0.0
 20
0.0
 30
0.0
  0
INSERT
  5
55
330
1F
100
AcDbEntity
  8
Layer 1
100
AcDbBlockReference
  2
block 5
 10
0.0
 20
0.0
 30
0.0
  0
INSERT
  5
5D
330
1F
100
AcDbEntity
  8
Layer 1
100
AcDbBlockReference
  2
block 6
 10
0.0
 20
0.0
 30
0.0
  0
INSERT
  5
65
330
1F
100
AcDbEntity
  8
Layer 1
100
AcDbBlockReference
  2
block 7
 10
0.0
 20
0.0
 30
0.0
  0
INSERT
  5
6D
330
1F
100
AcDbEntity
  8
Layer 1
100
AcDbBlockReference
  2
block 8
 10
0.0
 20
0.0
 30
0.0
  0
INSERT
  5
75
330
1F
100
AcDbEntity
  8
Layer 1
100
AcDbBlockReference
  2
block 9
 10
0.0
 20
0.0
 30
0.0
  0
INSERT
  5
7D
330
1F
100
AcDbEntity
  8
Layer 1
100
AcDbBlockReference
  2
block 10
 10
0.0
 20
0.0
 30
0.0
  0
INSERT
  5
85
330
1F
100
AcDbEntity
  8
Layer 1
100
AcDbBlockReference
  2
block 11
 10
0.0
 20
0.0
 30
0.0
  0
ENDSEC
  0
SECTION
  2
OBJECTS
  0
DICTIONARY
  5
C
330
0
100
AcDbDictionary
281
     1
  3
ACAD_GROUP
350
D
  3
ACAD_LAYOUT
350
1A
  3
ACAD_MLINESTYLE
350
17
  3
ACAD_PLOTSETTINGS
350
19
  3
ACAD_PLOTSTYLENAME
350
E
  3
ACAD_TABLESTYLE
350
8C
  3
ACAD_VISUALSTYLE
350
2A
  0
DICTIONARY
  5
D
102
{ACAD_REACTORS
330
C
102
}
330
C
100
AcDbDictionary
281
     1
  0
DICTIONARY
  5
1A
102
{ACAD_REACTORS
330
C
102
}
330
C
100
AcDbDictionary
281
     1
  3
Layout1
350
1E
  3
Layout2
350
26
  3
Model
350
22
  0
DICTIONARY
  5
17
102
{ACAD_REACTORS
330
C
102
}
330
C
100
AcDbDictionary
281
     1
  3
Standard
350
18
  0
DICTIONARY
  5
19
102
{ACAD_REACTORS
330
C
102
}
330
C
100
AcDbDictionary
281
     1
  0
ACDBDICTIONARYWDFLT
  5
E
102
{ACAD_REACTORS
330
C
102
}
330
C
100
AcDbDictionary
281
     1
  3
Normal
350
F
100
AcDbDictionaryWithDefault
340
F
  0
DICTIONARY
  5
8C
102
{ACAD_REACTORS
330
C
102
}
330
C
100
AcDbDictionary
281
     1
  0
DICTIONARY
  5
2A
102
{ACAD_REACTORS
330
C
102
}
330
C
100
AcDbDictionary
281
     1
  3
2dWireframe
350
2F
  3
3D Hidden
350
31
  3
3dWireframe
350
30
  3
Basic
350
32
  3
Brighten
350
36
  3
ColorChange
350
3A
  3
Conceptual
350
34
  3
Dim
350
35
  3
Facepattern
350
39
  3
Flat
350
2B
  3
FlatWithEdges
350
2C
  3
Gouraud
350
2D
  3
GouraudWithEdges
350
2E
  3
Linepattern
350
38
  3
Realistic
350
33
  3
Thicken
350
37
  0
LAYOUT
  5
1E
102
{ACAD_REACTORS
330
1A
102
}
330
1A
100
AcDbPlotSettings
  1

  2
none_device
  4

  6

 40
0.0
 41
0.0
 42
0.0
 43
0.0
 44
0.0
 45
0.0
 46
0.0
 47
0.0
 48
0.0
 49
0.0
140
0.0
141
0.0
142
1.0
143
1.0
 70
   688
 72
     0
 73
     0
 74
     5
  7

 75
    16
 76
     0
 77
     2
 78
   300
147
1.0
148
0.0
149
0.0
100
AcDbLayout
  1
Layout1
 70
     1
 71
     1
 10
0.0
 20
0.0
 11
12.0
 21
9.0
 12
0.0
 22
0.0
 32
0.0
 14
1.000000000000000E+20
 24
1.000000000000000E+20
 34
1.000000000000000E+20
 15
-1.000000000000000E+20
 25
-1.000000000000000E+20
 35
-1.000000000000000E+20
146
0.0
 13
0.0
 23
0.0
 33
0.0
 16
1.0
 26
0.0
 36
0.0
 17
0.0
 27
1.0
 37
0.0
 76
     0
330
1B
  0
LAYOUT
  5
26
102
{ACAD_REACTORS
330
1A
102
}
330
1A
100
AcDbPlotSettings
  1

  2
none_device
  4

  6

 40
0.0
 41
0.0
 42
0.0
 43
0.0
 44
0.0
 45
0.0
 46
0.0
 47
0.0
 48
0.0
 49
0.0
140
0.0
141
0.0
142
1.0
143
1.0
 70
   688
 72
     0
 73
     0
 74
     5
  7

 75
    16
 76
     0
 77
     2
 78
   300
147
1.0
148
0.0
149
0.0
100
AcDbLayout
  1
Layout2
 70
     1
 71
     2
 10
0.0
 20
0.0
 11
0.0
 21
0.0
 12
0.0
 22
0.0
 32
0.0
 14
0.0
 24
0.0
 34
0.0
 15
0.0
 25
0.0
 35
0.0
146
0.0
 13
0.0
 23
0.0
 33
0.0
 16
1.0
 26
0.0
 36
0.0
 17
0.0
 27
1.0
 37
0.0
 76
     0
330
23
  0
LAYOUT
  5
22
102
{ACAD_REACTORS
330
1A
102
}
330
1A
100
AcDbPlotSettings
  1

  2
none_device
  4

  6

 40
0.0
 41
0.0
 42
0.0
 43
0.0
 44
0.0
 45
0.0
 46
0.0
 47
0.0
 48
0.0
 49
0.0
140
0.0
141
0.0
142
1.0
143
1.0
 70
  1712
 72
     0
 73
     0
 74
     0
  7

 75
     0
 76
     0
 77
     2
 78
   300
147
1.0
148
0.0
149
0.0
100
AcDbLayout
  1
Model
 70
     1
 71
     0
 10
0.0
 20
0.0
 11
12.0
 21
9.0
 12
0.0
 22
0.0
 32
0.0
 14
1.000000000000000E+20
 24
1.000000000000000E+20
 34
1.000000000000000E+20
 15
-1.000000000000000E+20
 25
-1.000000000000000E+20
 35
-1.000000000000000E+20
146
0.0
 13
0.0
 23
0.0
 33
0.0
 16
1.0
 26
0.0
 36
0.0
 17
0.0
 27
1.0
 37
0.0
 76
     0
330
1F
331
29
  0
MLINESTYLE
  5
18
102
{ACAD_REACTORS
330
17
102
}
330
17
100
AcDbMlineStyle
  2
Standard
 70
     0
  3

 62
   256
 51
90.0
 52
90.0
 71
     2
 49
0.5
 62
   256
  6
BYLAYER
 49
-0.5
 62
   256
  6
BYLAYER
  0
ACDBPLACEHOLDER
  5
F
102
{ACAD_REACTORS
330
E
102
}
330
E
  0
VISUALSTYLE
  5
2F
102
{ACAD_REACTORS
330
2A
102
}
330
2A
100
AcDbVisualStyle
  2
2dWireframe
 70
     4
 71
     0
 72
     2
 73
     0
 90
        0
 40
-0.6
 41
-30.0
 62
     5
 63
     7
421
 16777215
 74
     1
 91
        4
 64
     7
 65
   257
 75
     1
175
     1
 42
1.0
 92
        0
 66
   257
 43
1.0
 76
     1
 77
     6
 78
     2
 67
     7
 79
     5
170
     0
171
     0
290
     0
174
     0
 93
        1
 44
0.0
173
     0
291
     0
 45
0.0
1001
ACAD
1000
AcDbSavedByObjectVersion
1070
     0
  0
VISUALSTYLE
  5
31
102
{ACAD_REACTORS
330
2A
102
}
330
2A
100
AcDbVisualStyle
  2
3D Hidden
 70
     6
 71
     1
 72
     2
 73
     2
 90
        0
 40
-0.6
 41
-30.0
 62
     5
 63
     7
421
 16777215
 74
     2
 91
        2
 64
     7
 65
   257
 75
     2
175
     1
 42
40.0
 92
        0
 66
   257
 43
1.0
 76
     1
 77
     6
 78
     2
 67
     7
 79
     3
170
     0
171
     0
290
     0
174
     0
 93
        1
 44
0.0
173
     0
291
     0
 45
0.0
1001
ACAD
1000
AcDbSavedByObjectVersion
1070
     0
  0
VISUALSTYLE
  5
30
102
{ACAD_REACTORS
330
2A
102
}
330
2A
100
AcDbVisualStyle
  2
3dWireframe
 70
     5
 71
     0
 72
     2
 73
     0
 90
        0
 40
-0.6
 41
-30.0
 62
     5
 63
     7
421
 16777215
 74
     1
 91
        4
 64
     7
 65
   257
 75
     1
175
     1
 42
1.0
 92
        0
 66
   257
 43
1.0
 76
     1
 77
     6
 78
     2
 67
     7
 79
     5
170
     0
171
     0
290
     0
174
     0
 93
        1
 44
0.0
173
     0
291
     0
 45
0.0
1001
ACAD
1000
AcDbSavedByObjectVersion
1070
     0
  0
VISUALSTYLE
  5
32
102
{ACAD_REACTORS
330
2A
102
}
330
2A
100
AcDbVisualStyle
  2
Basic
 70
     7
 71
     1
 72
     0
 73
     1
 90
        0
 40
-0.6
 41
-30.0
 62
     5
 63
     7
421
 16777215
 74
     0
 91
        4
 64
     7
 65
   257
 75
     1
175
     1
 42
1.0
 92
        8
 66
     7
 43
1.0
 76
     1
 77
     6
 78
     2
 67
     7
 79
     5
170
     0
171
     0
290
     0
174
     0
 93
        1
 44
0.0
173
     0
291
     1
 45
0.0
1001
ACAD
1000
AcDbSavedByObjectVersion
1070
     0
  0
VISUALSTYLE
  5
36
102
{ACAD_REACTORS
330
2A
102
}
330
2A
100
AcDbVisualStyle
  2
Brighten
 70
    12
 71
     2
 72
     2
 73
     0
 90
        0
 40
-0.6
 41
-30.0
 62
     5
 63
     7
421
 16777215
 74
     1
 91
        4
 64
     7
 65
   257
 75
     1
175
     1
 42
1.0
 92
        8
 66
     7
 43
1.0
 76
     1
 77
     6
 78
     2
 67
     7
 79
     5
170
     0
171
     0
290
     0
174
     0
 93
        1
 44
50.0
173
     0
291
     1
 45
0.0
1001
ACAD
1000
AcDbSavedByObjectVersion
1070
     0
  0
VISUALSTYLE
  5
3A
102
{ACAD_REACTORS
330
2A
102
}
330
2A
100
AcDbVisualStyle
  2
ColorChange
 70
    16
 71
     2
 72
     2
 73
     3
 90
        0
 40
-0.6
 41
-30.0
 62
     5
 63
     8
421
  8421504
 74
     1
 91
        4
 64
     7
 65
   257
 75
     1
175
     1
 42
1.0
 92
        8
 66
     8
424
  8421504
 43
1.0
 76
     1
 77
     6
 78
     2
 67
     7
 79
     5
170
     0
171
     0
290
     0
174
     0
 93
        1
 44
0.0
173
     0
291
     1
 45
0.0
1001
ACAD
1000
AcDbSavedByObjectVersion
1070
     0
  0
VISUALSTYLE
  5
34
102
{ACAD_REACTORS
330
2A
102
}
330
2A
100
AcDbVisualStyle
  2
Conceptual
 70
     9
 71
     3
 72
     2
 73
     0
 90
        0
 40
-0.6
 41
-30.0
 62
     5
 63
     7
421
 16777215
 74
     2
 91
        2
 64
     7
 65
   257
 75
     1
175
     1
 42
40.0
 92
        8
 66
     7
 43
1.0
 76
     1
 77
     6
 78
     2
 67
     7
 79
     3
170
     0
171
     0
290
     0
174
     0
 93
        1
 44
0.0
173
     0
291
     0
 45
0.0
1001
ACAD
1000
AcDbSavedByObjectVersion
1070
     0
  0
VISUALSTYLE
  5
35
102
{ACAD_REACTORS
330
2A
102
}
330
2A
100
AcDbVisualStyle
  2
Dim
 70
    11
 71
     2
 72
     2
 73
     0
 90
        0
 40
-0.6
 41
-30.0
 62
     5
 63
     7
421
 16777215
 74
     1
 91
        4
 64
     7
 65
   257
 75
     1
175
     1
 42
1.0
 92
        8
 66
     7
 43
1.0
 76
     1
 77
     6
 78
     2
 67
     7
 79
     5
170
     0
171
     0
290
     0
174
     0
 93
        1
 44
-50.0
173
     0
291
     1
 45
0.0
1001
ACAD
1000
AcDbSavedByObjectVersion
1070
     0
  0
VISUALSTYLE
  5
39
102
{ACAD_REACTORS
330
2A
102
}
330
2A
100
AcDbVisualStyle
  2
Facepattern
 70
    15
 71
     2
 72
     2
 73
     0
 90
        0
 40
-0.6
 41
-30.0
 62
     5
 63
     7
421
 16777215
 74
     1
 91
        4
 64
     7
 65
   257
 75
     1
175
     1
 42
1.0
 92
        8
 66
     7
 43
1.0
 76
     1
 77
     6
 78
     2
 67
     7
 79
     5
170
     0
171
     0
290
     0
174
     0
 93
        1
 44
0.0
173
     0
291
     1
 45
0.0
1001
ACAD
1000
AcDbSavedByObjectVersion
1070
     0
  0
VISUALSTYLE
  5
2B
102
{ACAD_REACTORS
330
2A
102
}
330
2A
100
AcDbVisualStyle
  2
Flat
 70
     0
 71
     2
 72
     1
 73
     1
 90
        2
 40
-0.6
 41
30.0
 62
     5
 63
     7
421
 16777215
 74
     0
 91
        4
 64
     7
 65
   257
 75
     1
175
     1
 42
1.0
 92
        8
 66
     7
 43
1.0
 76
     1
 77
     6
 78
     2
 67
     7
 79
     5
170
     0
171
     0
290
     0
174
     0
 93
       13
 44
0.0
173
     0
291
     1
 45
0.0
1001
ACAD
1000
AcDbSavedByObjectVersion
1070
     0
  0
VISUALSTYLE
  5
2C
102
{ACAD_REACTORS
330
2A
102
}
330
2A
100
AcDbVisualStyle
  2
FlatWithEdges
 70
     1
 71
     2
 72
     1
 73
     1
 90
        2
 40
-0.6
 41
30.0
 62
     5
 63
     7
421
 16777215
 74
     1
 91
        4
 64
     7
 65
   257
 75
     1
175
     1
 42
1.0
 92
        0
 66
   257
 43
1.0
 76
     1
 77
     6
 78
     2
 67
     7
 79
     5
170
     0
171
     0
290
     0
174
     0
 93
       13
 44
0.0
173
     0
291
     1
 45
0.0
1001
ACAD
1000
AcDbSavedByObjectVersion
1070
     0
  0
VISUALSTYLE
  5
2D
102
{ACAD_REACTORS
330
2A
102
}
330
2A
100
AcDbVisualStyle
  2
Gouraud
 70
     2
 71
     2
 72
     2
 73
     1
 90
        2
 40
-0.6
 41
30.0
 62
     5
 63
     7
421
 16777215
 74
     0
 91
        4
 64
     7
 65
   257
 75
     1
175
     1
 42
1.0
 92
        0
 66
     7
 43
1.0
 76
     1
 77
     6
 78
     2
 67
     7
 79
     5
170
     0
171
     0
290
     0
174
     0
 93
       13
 44
0.0
173
     0
291
     1
 45
0.0
1001
ACAD
1000
AcDbSavedByObjectVersion
1070
     0
  0
VISUALSTYLE
  5
2E
102
{ACAD_REACTORS
330
2A
102
}
330
2A
100
AcDbVisualStyle
  2
GouraudWithEdges
 70
     3
 71
     2
 72
     2
 73
     1
 90
        2
 40
-0.6
 41
30.0
 62
     5
 63
     7
421
 16777215
 74
     1
 91
        4
 64
     7
 65
   257
 75
     1
175
     1
 42
1.0
 92
        0
 66
   257
 43
1.0
 76
     1
 77
     6
 78
     2
 67
     7
 79
     5
170
     0
171
     0
290
     0
174
     0
 93
       13
 44
0.0
173
     0
291
     1
 45
0.0
1001
ACAD
1000
AcDbSavedByObjectVersion
1070
     0
  0
VISUALSTYLE
  5
38
102
{ACAD_REACTORS
330
2A
102
}
330
2A
100
AcDbVisualStyle
  2
Linepattern
 70
    14
 71
     2
 72
     2
 73
     0
 90
        0
 40
-0.6
 41
-30.0
 62
     5
 63
     7
421
 16777215
 74
     1
 91
        4
 64
     7
 65
   257
 75
     7
175
     7
 42
1.0
 92
        8
 66
     7
 43
1.0
 76
     1
 77
     6
 78
     2
 67
     7
 79
     5
170
     0
171
     0
290
     0
174
     0
 93
        1
 44
0.0
173
     0
291
     1
 45
0.0
1001
ACAD
1000
AcDbSavedByObjectVersion
1070
     0
  0
VISUALSTYLE
  5
33
102
{ACAD_REACTORS
330
2A
102
}
330
2A
100
AcDbVisualStyle
  2
Realistic
 70
     8
 71
     2
 72
     2
 73
     0
 90
        0
 40
-0.6
 41
-30.0
 62
     5
 63
     7
421
 16777215
 74
     1
 91
        0
 64
     7
 65
   257
 75
     1
175
     1
 42
1.0
 92
        8
 66
     8
424
  7895160
 43
1.0
 76
     1
 77
     6
 78
     2
 67
     7
 79
     5
170
     0
171
     0
290
     0
174
     0
 93
       13
 44
0.0
173
     0
291
     0
 45
0.0
1001
ACAD
1000
AcDbSavedByObjectVersion
1070
     0
  0
VISUALSTYLE
  5
37
102
{ACAD_REACTORS
330
2A
102
}
330
2A
100
AcDbVisualStyle
  2
Thicken
 70
    13
 71
     2
 72
     2
 73
     0
 90
        0
 40
-0.6
 41
-30.0
 62
     5
 63
     7
421
 16777215
 74
     1
 91
        4
 64
     7
 65
   257
 75
     1
175
     1
 42
1.0
 92
       12
 66
     7
 43
1.0
 76
     1
 77
     6
 78
     2
 67
     7
 79
     5
170
     0
171
     0
290
     0
174
     0
 93
        1
 44
0.0
173
     0
291
     1
 45
0.0
1001
ACAD
1000
AcDbSavedByObjectVersion
1070
     0
  0
ENDSEC
  0
EOF
