G75*
%MOIN*%
%OFA0B0*%
%FSLAX24Y24*%
%IPPOS*%
%LPD*%
%AMOC8*
5,1,8,0,0,1.08239X$1,22.5*
%
%ADD10C,0.0554*%
%ADD11C,0.0600*%
%ADD12OC8,0.0594*%
%ADD13C,0.0160*%
%ADD14C,0.0180*%
%ADD15C,0.0400*%
%ADD16C,0.2165*%
D10*
X004704Y001930D03*
X005704Y002430D03*
X004704Y002930D03*
X005704Y003430D03*
X004704Y003930D03*
X005704Y004430D03*
X004704Y004930D03*
X010954Y004930D03*
X011954Y004430D03*
X010954Y003930D03*
X011954Y003430D03*
X010954Y002930D03*
X011954Y002430D03*
X010954Y001930D03*
X011954Y001430D03*
X005704Y001430D03*
D11*
X006204Y012380D02*
X006204Y012980D01*
X005204Y012980D02*
X005204Y012380D01*
X004204Y012380D02*
X004204Y012980D01*
X003204Y012980D02*
X003204Y012380D01*
X002204Y012380D02*
X002204Y012980D01*
X001204Y012980D02*
X001204Y012380D01*
X007204Y012380D02*
X007204Y012980D01*
X008204Y012980D02*
X008204Y012380D01*
D12*
X009954Y010080D03*
X010954Y010080D03*
X011954Y010080D03*
X013704Y010080D03*
X014704Y010080D03*
X015704Y010080D03*
D13*
X000684Y013696D02*
X000684Y000660D01*
X001117Y000660D01*
X001084Y000783D01*
X001084Y001077D01*
X001160Y001362D01*
X001308Y001618D01*
X001516Y001826D01*
X001771Y001974D01*
X002056Y002050D01*
X002351Y002050D01*
X002636Y001974D01*
X002891Y001826D01*
X003100Y001618D01*
X003247Y001362D01*
X003324Y001077D01*
X003324Y000783D01*
X003291Y000660D01*
X013367Y000660D01*
X013334Y000783D01*
X013334Y001077D01*
X013410Y001362D01*
X013558Y001618D01*
X013766Y001826D01*
X014021Y001974D01*
X014306Y002050D01*
X014601Y002050D01*
X014886Y001974D01*
X015141Y001826D01*
X015350Y001618D01*
X015497Y001362D01*
X015574Y001077D01*
X015574Y000783D01*
X015541Y000660D01*
X016094Y000660D01*
X016094Y009824D01*
X015893Y009623D01*
X015600Y009623D01*
X015095Y009118D01*
X015004Y009080D01*
X012654Y009080D01*
X012562Y009118D01*
X012492Y009188D01*
X012057Y009623D01*
X011950Y009623D01*
X011445Y009118D01*
X011354Y009080D01*
X009331Y009080D01*
X009331Y009080D01*
X012854Y009080D01*
X012945Y009042D01*
X013016Y008972D01*
X013054Y008880D01*
X013054Y004230D01*
X013016Y004138D01*
X012945Y004068D01*
X012391Y003514D01*
X012391Y003343D01*
X012324Y003182D01*
X012201Y003059D01*
X012041Y002993D01*
X011867Y002993D01*
X011706Y003059D01*
X011583Y003182D01*
X011517Y003343D01*
X011517Y003517D01*
X011583Y003678D01*
X011706Y003801D01*
X011867Y003867D01*
X012037Y003867D01*
X012554Y004384D01*
X012554Y005784D01*
X012509Y005676D01*
X012408Y005575D01*
X012275Y005520D01*
X012204Y005520D01*
X012204Y004798D01*
X012324Y004678D01*
X012391Y004517D01*
X012391Y004343D01*
X012324Y004182D01*
X012201Y004059D01*
X012041Y003993D01*
X011867Y003993D01*
X011706Y004059D01*
X011583Y004182D01*
X011517Y004343D01*
X011517Y004517D01*
X011583Y004678D01*
X011704Y004798D01*
X011704Y005380D01*
X008913Y005380D01*
X008858Y005325D01*
X008790Y005297D01*
X009097Y004990D01*
X009175Y004990D01*
X009308Y004935D01*
X010455Y004935D01*
X010517Y004996D02*
X010000Y004480D01*
X009431Y004480D01*
X009464Y004558D01*
X009464Y004702D01*
X009409Y004834D01*
X009308Y004935D01*
X009433Y004777D02*
X010297Y004777D01*
X010138Y004618D02*
X009464Y004618D01*
X008994Y005094D02*
X010548Y005094D01*
X010517Y005017D02*
X010583Y005178D01*
X010706Y005301D01*
X010867Y005367D01*
X011041Y005367D01*
X011201Y005301D01*
X011324Y005178D01*
X011391Y005017D01*
X011391Y004843D01*
X011324Y004682D01*
X011201Y004559D01*
X011041Y004493D01*
X010867Y004493D01*
X010763Y004536D01*
X010407Y004180D01*
X010586Y004180D01*
X010706Y004301D01*
X010867Y004367D01*
X011041Y004367D01*
X011201Y004301D01*
X011200Y004301D02*
X011534Y004301D01*
X011517Y004460D02*
X010687Y004460D01*
X010707Y004301D02*
X010528Y004301D01*
X011201Y004301D02*
X011324Y004178D01*
X011391Y004017D01*
X011391Y003843D01*
X011324Y003682D01*
X011201Y003559D01*
X011041Y003493D01*
X010867Y003493D01*
X010706Y003559D01*
X010586Y003680D01*
X008281Y003680D01*
X008259Y003626D01*
X008158Y003525D01*
X008025Y003470D01*
X007882Y003470D01*
X007750Y003525D01*
X007649Y003626D01*
X007594Y003758D01*
X007594Y003902D01*
X007626Y003980D01*
X007404Y003980D01*
X007404Y002847D01*
X007459Y002943D01*
X007691Y003174D01*
X007974Y003338D01*
X008290Y003423D01*
X008617Y003423D01*
X008933Y003338D01*
X009217Y003174D01*
X009448Y002943D01*
X009612Y002660D01*
X009696Y002344D01*
X009696Y002016D01*
X009612Y001700D01*
X009448Y001417D01*
X009217Y001186D01*
X008933Y001022D01*
X008617Y000937D01*
X008290Y000937D01*
X007974Y001022D01*
X007691Y001186D01*
X007459Y001417D01*
X007296Y001700D01*
X007211Y002016D01*
X007211Y002344D01*
X007296Y002660D01*
X007308Y002680D01*
X007295Y002668D01*
X006141Y001514D01*
X006141Y001343D01*
X006074Y001182D01*
X005951Y001059D01*
X005791Y000993D01*
X005617Y000993D01*
X005456Y001059D01*
X005333Y001182D01*
X005267Y001343D01*
X005267Y001517D01*
X005333Y001678D01*
X005456Y001801D01*
X005617Y001867D01*
X005787Y001867D01*
X006904Y002984D01*
X006904Y004276D01*
X006141Y003514D01*
X006141Y003343D01*
X006074Y003182D01*
X005951Y003059D01*
X005791Y002993D01*
X005617Y002993D01*
X005456Y003059D01*
X005333Y003182D01*
X005267Y003343D01*
X005267Y003517D01*
X005333Y003678D01*
X005456Y003801D01*
X005617Y003867D01*
X005787Y003867D01*
X006001Y004081D01*
X005943Y004039D01*
X005879Y004006D01*
X005811Y003984D01*
X005740Y003973D01*
X005712Y003973D01*
X005712Y004421D01*
X005695Y004421D01*
X005695Y003973D01*
X005668Y003973D01*
X005597Y003984D01*
X005141Y003984D01*
X005141Y004017D02*
X005074Y004178D01*
X004951Y004301D01*
X004950Y004301D02*
X005265Y004301D01*
X005258Y004323D02*
X005280Y004255D01*
X005313Y004190D01*
X005355Y004132D01*
X005406Y004081D01*
X005464Y004039D01*
X005528Y004006D01*
X005597Y003984D01*
X005695Y003984D02*
X005712Y003984D01*
X005810Y003984D02*
X005904Y003984D01*
X006053Y004132D02*
X006095Y004190D01*
X006127Y004255D01*
X006150Y004323D01*
X006161Y004394D01*
X006161Y004421D01*
X005712Y004421D01*
X005712Y004439D01*
X005695Y004439D01*
X005695Y004887D01*
X005668Y004887D01*
X005597Y004876D01*
X005528Y004854D01*
X005464Y004821D01*
X005406Y004779D01*
X005355Y004728D01*
X005313Y004670D01*
X005280Y004605D01*
X005258Y004537D01*
X005247Y004466D01*
X005247Y004439D01*
X005695Y004439D01*
X005695Y004421D01*
X005247Y004421D01*
X005247Y004394D01*
X005258Y004323D01*
X005247Y004460D02*
X002763Y004460D01*
X002636Y004386D02*
X002891Y004534D01*
X003100Y004742D01*
X003247Y004998D01*
X003324Y005283D01*
X003324Y005577D01*
X003247Y005862D01*
X003100Y006118D01*
X002891Y006326D01*
X002636Y006474D01*
X002351Y006550D01*
X002056Y006550D01*
X001771Y006474D01*
X001516Y006326D01*
X001308Y006118D01*
X001160Y005862D01*
X001084Y005577D01*
X001084Y005283D01*
X001160Y004998D01*
X001308Y004742D01*
X001516Y004534D01*
X001771Y004386D01*
X002056Y004310D01*
X002351Y004310D01*
X002636Y004386D01*
X002976Y004618D02*
X004398Y004618D01*
X004456Y004559D02*
X004617Y004493D01*
X004791Y004493D01*
X004951Y004559D01*
X005074Y004682D01*
X005078Y004690D01*
X005145Y004718D01*
X005216Y004788D01*
X005357Y004930D01*
X007806Y004930D01*
X007826Y004880D01*
X006854Y004880D01*
X006762Y004842D01*
X006692Y004772D01*
X006053Y004132D01*
X006060Y004143D02*
X006063Y004143D01*
X006143Y004301D02*
X006221Y004301D01*
X006161Y004439D02*
X005712Y004439D01*
X005712Y004887D01*
X005740Y004887D01*
X005811Y004876D01*
X005879Y004854D01*
X005943Y004821D01*
X006002Y004779D01*
X006052Y004728D01*
X006095Y004670D01*
X006127Y004605D01*
X006150Y004537D01*
X006161Y004466D01*
X006161Y004439D01*
X006161Y004460D02*
X006380Y004460D01*
X006538Y004618D02*
X006121Y004618D01*
X006004Y004777D02*
X006697Y004777D01*
X005712Y004777D02*
X005695Y004777D01*
X005695Y004618D02*
X005712Y004618D01*
X005404Y004777D02*
X005204Y004777D01*
X005286Y004618D02*
X005010Y004618D01*
X004456Y004559D02*
X004333Y004682D01*
X004267Y004843D01*
X004267Y005014D01*
X002062Y007218D01*
X001992Y007288D01*
X001954Y007380D01*
X001954Y011986D01*
X001943Y011990D01*
X001814Y012119D01*
X001744Y012288D01*
X001744Y013071D01*
X001814Y013241D01*
X001943Y013370D01*
X002112Y013440D01*
X002295Y013440D01*
X002464Y013370D01*
X002594Y013241D01*
X002664Y013071D01*
X002664Y012288D01*
X002594Y012119D01*
X002464Y011990D01*
X002454Y011986D01*
X002454Y007534D01*
X004620Y005367D01*
X004791Y005367D01*
X004951Y005301D01*
X004986Y005266D01*
X005112Y005392D01*
X005204Y005430D01*
X006704Y005430D01*
X006704Y005430D01*
X006704Y008476D01*
X003260Y011920D01*
X003112Y011920D01*
X002943Y011990D01*
X002814Y012119D01*
X002744Y012288D01*
X002744Y013071D01*
X002814Y013241D01*
X002943Y013370D01*
X003112Y013440D01*
X003295Y013440D01*
X003464Y013370D01*
X003594Y013241D01*
X003664Y013071D01*
X003664Y012288D01*
X003645Y012243D01*
X007095Y008792D01*
X007166Y008722D01*
X007204Y008630D01*
X007204Y005730D01*
X008304Y005730D01*
X008305Y005729D01*
X008349Y005834D01*
X008450Y005935D01*
X008455Y005937D01*
X008290Y005937D01*
X007974Y006022D01*
X007691Y006186D01*
X007459Y006417D01*
X007296Y006700D01*
X007211Y007016D01*
X007211Y007344D01*
X007296Y007660D01*
X007459Y007943D01*
X007691Y008174D01*
X007974Y008338D01*
X008290Y008423D01*
X008617Y008423D01*
X008933Y008338D01*
X009217Y008174D01*
X009448Y007943D01*
X009612Y007660D01*
X009696Y007344D01*
X009696Y007016D01*
X009612Y006700D01*
X009448Y006417D01*
X009217Y006186D01*
X008933Y006022D01*
X008760Y005976D01*
X008858Y005935D01*
X008913Y005880D01*
X011844Y005880D01*
X011844Y005952D01*
X011899Y006084D01*
X012000Y006185D01*
X012132Y006240D01*
X012275Y006240D01*
X012408Y006185D01*
X012509Y006084D01*
X012554Y005976D01*
X012554Y008580D01*
X007654Y008580D01*
X007562Y008618D01*
X004260Y011920D01*
X004112Y011920D01*
X003943Y011990D01*
X003814Y012119D01*
X003744Y012288D01*
X003744Y013071D01*
X003814Y013241D01*
X003943Y013370D01*
X004112Y013440D01*
X004295Y013440D01*
X004464Y013370D01*
X004594Y013241D01*
X004664Y013071D01*
X004664Y012288D01*
X004645Y012243D01*
X007807Y009080D01*
X008676Y009080D01*
X008676Y009080D01*
X008154Y009080D01*
X008062Y009118D01*
X007992Y009188D01*
X005260Y011920D01*
X005112Y011920D01*
X004943Y011990D01*
X004814Y012119D01*
X004744Y012288D01*
X004744Y013071D01*
X004814Y013241D01*
X004943Y013370D01*
X005112Y013440D01*
X005295Y013440D01*
X005464Y013370D01*
X005594Y013241D01*
X005664Y013071D01*
X005664Y012288D01*
X005645Y012243D01*
X008307Y009580D01*
X008908Y009580D01*
X008932Y009590D01*
X009075Y009590D01*
X009100Y009580D01*
X011200Y009580D01*
X011504Y009884D01*
X011497Y009891D01*
X011497Y010269D01*
X011765Y010537D01*
X012143Y010537D01*
X012411Y010269D01*
X012411Y009977D01*
X012807Y009580D01*
X014850Y009580D01*
X015247Y009977D01*
X015247Y010269D01*
X015515Y010537D01*
X015893Y010537D01*
X016094Y010336D01*
X016094Y013696D01*
X000684Y013696D01*
X000684Y013653D02*
X016094Y013653D01*
X016094Y013494D02*
X000684Y013494D01*
X000684Y013336D02*
X000880Y013336D01*
X000891Y013346D02*
X000838Y013293D01*
X000793Y013232D01*
X000759Y013164D01*
X000736Y013092D01*
X000724Y013018D01*
X000724Y012700D01*
X001184Y012700D01*
X001184Y013460D01*
X001166Y013460D01*
X001091Y013448D01*
X001020Y013425D01*
X000952Y013391D01*
X000891Y013346D01*
X000765Y013177D02*
X000684Y013177D01*
X000684Y013019D02*
X000724Y013019D01*
X000724Y012860D02*
X000684Y012860D01*
X000684Y012702D02*
X000724Y012702D01*
X000724Y012660D02*
X000724Y012342D01*
X000736Y012268D01*
X000759Y012196D01*
X000793Y012128D01*
X000838Y012067D01*
X000891Y012014D01*
X000952Y011969D01*
X001020Y011935D01*
X001091Y011912D01*
X001166Y011900D01*
X001184Y011900D01*
X001184Y012660D01*
X001224Y012660D01*
X001224Y012700D01*
X001684Y012700D01*
X001684Y013018D01*
X001672Y013092D01*
X001649Y013164D01*
X001614Y013232D01*
X001570Y013293D01*
X001516Y013346D01*
X001455Y013391D01*
X001388Y013425D01*
X001316Y013448D01*
X001242Y013460D01*
X001224Y013460D01*
X001224Y012700D01*
X001184Y012700D01*
X001184Y012660D01*
X000724Y012660D01*
X000724Y012543D02*
X000684Y012543D01*
X001184Y012543D02*
X001224Y012543D01*
X001224Y012660D02*
X001224Y011900D01*
X001242Y011900D01*
X001316Y011912D01*
X001388Y011935D01*
X001455Y011969D01*
X001516Y012014D01*
X001570Y012067D01*
X001614Y012128D01*
X001649Y012196D01*
X001672Y012268D01*
X001684Y012342D01*
X001684Y012660D01*
X001224Y012660D01*
X001224Y012702D02*
X001184Y012702D01*
X001184Y012860D02*
X001224Y012860D01*
X001224Y013019D02*
X001184Y013019D01*
X001184Y013177D02*
X001224Y013177D01*
X001224Y013336D02*
X001184Y013336D01*
X001527Y013336D02*
X001909Y013336D01*
X001787Y013177D02*
X001642Y013177D01*
X001684Y013019D02*
X001744Y013019D01*
X001744Y012860D02*
X001684Y012860D01*
X001684Y012702D02*
X001744Y012702D01*
X001744Y012543D02*
X001684Y012543D01*
X001684Y012385D02*
X001744Y012385D01*
X001770Y012226D02*
X001658Y012226D01*
X001570Y012068D02*
X001866Y012068D01*
X001954Y011909D02*
X001298Y011909D01*
X001224Y011909D02*
X001184Y011909D01*
X001109Y011909D02*
X000684Y011909D01*
X000684Y011751D02*
X001954Y011751D01*
X001954Y011592D02*
X000684Y011592D01*
X000684Y011434D02*
X001954Y011434D01*
X001954Y011275D02*
X000684Y011275D01*
X000684Y011117D02*
X001954Y011117D01*
X001954Y010958D02*
X000684Y010958D01*
X000684Y010800D02*
X001954Y010800D01*
X001954Y010641D02*
X000684Y010641D01*
X000684Y010483D02*
X001954Y010483D01*
X001954Y010324D02*
X000684Y010324D01*
X000684Y010166D02*
X001954Y010166D01*
X001954Y010007D02*
X000684Y010007D01*
X000684Y009849D02*
X001954Y009849D01*
X001954Y009690D02*
X000684Y009690D01*
X000684Y009532D02*
X001954Y009532D01*
X001954Y009373D02*
X000684Y009373D01*
X000684Y009215D02*
X001954Y009215D01*
X001954Y009056D02*
X000684Y009056D01*
X000684Y008898D02*
X001954Y008898D01*
X001954Y008739D02*
X000684Y008739D01*
X000684Y008581D02*
X001954Y008581D01*
X001954Y008422D02*
X000684Y008422D01*
X000684Y008264D02*
X001954Y008264D01*
X001954Y008105D02*
X000684Y008105D01*
X000684Y007947D02*
X001954Y007947D01*
X001954Y007788D02*
X000684Y007788D01*
X000684Y007630D02*
X001954Y007630D01*
X001954Y007471D02*
X000684Y007471D01*
X000684Y007313D02*
X001982Y007313D01*
X002126Y007154D02*
X000684Y007154D01*
X000684Y006996D02*
X002285Y006996D01*
X002443Y006837D02*
X000684Y006837D01*
X000684Y006679D02*
X002602Y006679D01*
X002463Y006520D02*
X002760Y006520D01*
X002830Y006362D02*
X002919Y006362D01*
X003015Y006203D02*
X003077Y006203D01*
X003142Y006045D02*
X003236Y006045D01*
X003234Y005886D02*
X003394Y005886D01*
X003284Y005728D02*
X003553Y005728D01*
X003711Y005569D02*
X003324Y005569D01*
X003324Y005411D02*
X003870Y005411D01*
X004028Y005252D02*
X003316Y005252D01*
X003273Y005094D02*
X004187Y005094D01*
X004267Y004935D02*
X003211Y004935D01*
X003120Y004777D02*
X004294Y004777D01*
X004456Y004301D02*
X004617Y004367D01*
X004791Y004367D01*
X004951Y004301D01*
X005089Y004143D02*
X005348Y004143D01*
X005141Y004017D02*
X005141Y003843D01*
X005074Y003682D01*
X004951Y003559D01*
X004791Y003493D01*
X004617Y003493D01*
X004456Y003559D01*
X004333Y003682D01*
X004267Y003843D01*
X004267Y004017D01*
X004333Y004178D01*
X004456Y004301D01*
X004457Y004301D02*
X000684Y004301D01*
X000684Y004143D02*
X004319Y004143D01*
X004267Y003984D02*
X000684Y003984D01*
X000684Y003826D02*
X004274Y003826D01*
X004349Y003667D02*
X000684Y003667D01*
X000684Y003509D02*
X004579Y003509D01*
X004617Y003367D02*
X004456Y003301D01*
X004333Y003178D01*
X004267Y003017D01*
X004267Y002843D01*
X004333Y002682D01*
X004456Y002559D01*
X004617Y002493D01*
X004791Y002493D01*
X004951Y002559D01*
X005074Y002682D01*
X005141Y002843D01*
X005141Y003017D01*
X005074Y003178D01*
X004951Y003301D01*
X004791Y003367D01*
X004617Y003367D01*
X004575Y003350D02*
X000684Y003350D01*
X000684Y003192D02*
X004347Y003192D01*
X004273Y003033D02*
X000684Y003033D01*
X000684Y002875D02*
X004267Y002875D01*
X004319Y002716D02*
X000684Y002716D01*
X000684Y002558D02*
X004461Y002558D01*
X004617Y002367D02*
X004456Y002301D01*
X004333Y002178D01*
X004267Y002017D01*
X004267Y001843D01*
X004333Y001682D01*
X004456Y001559D01*
X004617Y001493D01*
X004791Y001493D01*
X004951Y001559D01*
X005074Y001682D01*
X005141Y001843D01*
X005141Y002017D01*
X005074Y002178D01*
X004951Y002301D01*
X004791Y002367D01*
X004617Y002367D01*
X004396Y002241D02*
X000684Y002241D01*
X000684Y002399D02*
X005267Y002399D01*
X005267Y002343D02*
X005333Y002182D01*
X005456Y002059D01*
X005617Y001993D01*
X005791Y001993D01*
X005951Y002059D01*
X006074Y002182D01*
X006141Y002343D01*
X006141Y002517D01*
X006074Y002678D01*
X005951Y002801D01*
X005791Y002867D01*
X005617Y002867D01*
X005456Y002801D01*
X005333Y002678D01*
X005267Y002517D01*
X005267Y002343D01*
X005309Y002241D02*
X005012Y002241D01*
X005114Y002082D02*
X005434Y002082D01*
X005141Y001924D02*
X005844Y001924D01*
X005974Y002082D02*
X006002Y002082D01*
X006098Y002241D02*
X006161Y002241D01*
X006141Y002399D02*
X006319Y002399D01*
X006478Y002558D02*
X006124Y002558D01*
X006036Y002716D02*
X006636Y002716D01*
X006795Y002875D02*
X005141Y002875D01*
X005088Y002716D02*
X005372Y002716D01*
X005283Y002558D02*
X004947Y002558D01*
X004294Y002082D02*
X000684Y002082D01*
X000684Y001924D02*
X001685Y001924D01*
X001455Y001765D02*
X000684Y001765D01*
X000684Y001607D02*
X001301Y001607D01*
X001210Y001448D02*
X000684Y001448D01*
X000684Y001290D02*
X001141Y001290D01*
X001098Y001131D02*
X000684Y001131D01*
X000684Y000973D02*
X001084Y000973D01*
X001084Y000814D02*
X000684Y000814D01*
X003106Y001607D02*
X004409Y001607D01*
X004299Y001765D02*
X002953Y001765D01*
X002723Y001924D02*
X004267Y001924D01*
X004999Y001607D02*
X005304Y001607D01*
X005267Y001448D02*
X003198Y001448D01*
X003267Y001290D02*
X005289Y001290D01*
X005385Y001131D02*
X003309Y001131D01*
X003324Y000973D02*
X008159Y000973D01*
X007785Y001131D02*
X006023Y001131D01*
X006119Y001290D02*
X007587Y001290D01*
X007441Y001448D02*
X006141Y001448D01*
X006234Y001607D02*
X007350Y001607D01*
X007278Y001765D02*
X006392Y001765D01*
X006551Y001924D02*
X007236Y001924D01*
X007211Y002082D02*
X006709Y002082D01*
X006868Y002241D02*
X007211Y002241D01*
X007226Y002399D02*
X007026Y002399D01*
X007185Y002558D02*
X007268Y002558D01*
X007404Y002875D02*
X007420Y002875D01*
X007404Y003033D02*
X007549Y003033D01*
X007404Y003192D02*
X007720Y003192D01*
X008019Y003350D02*
X007404Y003350D01*
X007404Y003509D02*
X007789Y003509D01*
X007632Y003667D02*
X007404Y003667D01*
X007404Y003826D02*
X007594Y003826D01*
X008276Y003667D02*
X010599Y003667D01*
X010829Y003509D02*
X008118Y003509D01*
X008889Y003350D02*
X010825Y003350D01*
X010867Y003367D02*
X010706Y003301D01*
X010583Y003178D01*
X010517Y003017D01*
X010517Y002843D01*
X010583Y002682D01*
X010706Y002559D01*
X010867Y002493D01*
X011041Y002493D01*
X011201Y002559D01*
X011324Y002682D01*
X011391Y002843D01*
X011391Y003017D01*
X011324Y003178D01*
X011201Y003301D01*
X011041Y003367D01*
X010867Y003367D01*
X011082Y003350D02*
X011517Y003350D01*
X011517Y003509D02*
X011079Y003509D01*
X011309Y003667D02*
X011579Y003667D01*
X011766Y003826D02*
X011384Y003826D01*
X011391Y003984D02*
X012154Y003984D01*
X012285Y004143D02*
X012313Y004143D01*
X012374Y004301D02*
X012471Y004301D01*
X012391Y004460D02*
X012554Y004460D01*
X013054Y004460D02*
X013895Y004460D01*
X014021Y004386D02*
X013766Y004534D01*
X013558Y004742D01*
X013410Y004998D01*
X013334Y005283D01*
X013334Y005577D01*
X013410Y005862D01*
X013558Y006118D01*
X013766Y006326D01*
X014021Y006474D01*
X014306Y006550D01*
X014601Y006550D01*
X014886Y006474D01*
X015141Y006326D01*
X015350Y006118D01*
X015497Y005862D01*
X015574Y005577D01*
X015574Y005283D01*
X015497Y004998D01*
X015350Y004742D01*
X015141Y004534D01*
X014886Y004386D01*
X014601Y004310D01*
X014306Y004310D01*
X014021Y004386D01*
X013682Y004618D02*
X013054Y004618D01*
X013054Y004777D02*
X013538Y004777D01*
X013446Y004935D02*
X013054Y004935D01*
X013054Y005094D02*
X013384Y005094D01*
X013342Y005252D02*
X013054Y005252D01*
X013054Y005411D02*
X013334Y005411D01*
X013334Y005569D02*
X013054Y005569D01*
X013054Y005728D02*
X013374Y005728D01*
X013424Y005886D02*
X013054Y005886D01*
X013054Y006045D02*
X013515Y006045D01*
X013643Y006203D02*
X013054Y006203D01*
X013054Y006362D02*
X013827Y006362D01*
X014194Y006520D02*
X013054Y006520D01*
X013054Y006679D02*
X016094Y006679D01*
X016094Y006837D02*
X013054Y006837D01*
X013054Y006996D02*
X016094Y006996D01*
X016094Y007154D02*
X013054Y007154D01*
X013054Y007313D02*
X016094Y007313D01*
X016094Y007471D02*
X013054Y007471D01*
X013054Y007630D02*
X016094Y007630D01*
X016094Y007788D02*
X013054Y007788D01*
X013054Y007947D02*
X016094Y007947D01*
X016094Y008105D02*
X013054Y008105D01*
X013054Y008264D02*
X016094Y008264D01*
X016094Y008422D02*
X013054Y008422D01*
X013054Y008581D02*
X016094Y008581D01*
X016094Y008739D02*
X013054Y008739D01*
X013046Y008898D02*
X016094Y008898D01*
X016094Y009056D02*
X012911Y009056D01*
X012466Y009215D02*
X011542Y009215D01*
X011700Y009373D02*
X012307Y009373D01*
X012149Y009532D02*
X011859Y009532D01*
X011310Y009690D02*
X011210Y009690D01*
X011143Y009623D02*
X011411Y009891D01*
X011411Y010269D01*
X011143Y010537D01*
X010765Y010537D01*
X010497Y010269D01*
X010497Y009891D01*
X010765Y009623D01*
X011143Y009623D01*
X010698Y009690D02*
X010210Y009690D01*
X010143Y009623D02*
X009765Y009623D01*
X009497Y009891D01*
X009497Y010269D01*
X009765Y010537D01*
X010057Y010537D01*
X010562Y011042D01*
X010654Y011080D01*
X013004Y011080D01*
X013095Y011042D01*
X013166Y010972D01*
X013600Y010537D01*
X013893Y010537D01*
X014161Y010269D01*
X014161Y009891D01*
X013893Y009623D01*
X013515Y009623D01*
X013247Y009891D01*
X013247Y010183D01*
X012850Y010580D01*
X010807Y010580D01*
X010411Y010183D01*
X010411Y009891D01*
X010143Y009623D01*
X009698Y009690D02*
X008197Y009690D01*
X008039Y009849D02*
X009539Y009849D01*
X009497Y010007D02*
X007880Y010007D01*
X007722Y010166D02*
X009497Y010166D01*
X009552Y010324D02*
X007563Y010324D01*
X007405Y010483D02*
X009710Y010483D01*
X010161Y010641D02*
X007246Y010641D01*
X007088Y010800D02*
X010320Y010800D01*
X010478Y010958D02*
X006929Y010958D01*
X006771Y011117D02*
X016094Y011117D01*
X016094Y011275D02*
X009488Y011275D01*
X009475Y011270D02*
X009608Y011325D01*
X009709Y011426D01*
X009764Y011558D01*
X009764Y011702D01*
X009709Y011834D01*
X009608Y011935D01*
X009475Y011990D01*
X009332Y011990D01*
X009200Y011935D01*
X009145Y011880D01*
X007007Y011880D01*
X006645Y012243D01*
X006664Y012288D01*
X006664Y013071D01*
X006594Y013241D01*
X006464Y013370D01*
X006295Y013440D01*
X006112Y013440D01*
X005943Y013370D01*
X005814Y013241D01*
X005744Y013071D01*
X005744Y012288D01*
X005814Y012119D01*
X005943Y011990D01*
X006112Y011920D01*
X006260Y011920D01*
X006762Y011418D01*
X006854Y011380D01*
X009145Y011380D01*
X009200Y011325D01*
X009332Y011270D01*
X009475Y011270D01*
X009320Y011275D02*
X006612Y011275D01*
X006747Y011434D02*
X006454Y011434D01*
X006588Y011592D02*
X006295Y011592D01*
X006430Y011751D02*
X006137Y011751D01*
X006271Y011909D02*
X005978Y011909D01*
X005866Y012068D02*
X005820Y012068D01*
X005770Y012226D02*
X005661Y012226D01*
X005664Y012385D02*
X005744Y012385D01*
X005744Y012543D02*
X005664Y012543D01*
X005664Y012702D02*
X005744Y012702D01*
X005744Y012860D02*
X005664Y012860D01*
X005664Y013019D02*
X005744Y013019D01*
X005787Y013177D02*
X005620Y013177D01*
X005499Y013336D02*
X005909Y013336D01*
X006499Y013336D02*
X006909Y013336D01*
X006943Y013370D02*
X006814Y013241D01*
X006744Y013071D01*
X006744Y012288D01*
X006814Y012119D01*
X006943Y011990D01*
X007112Y011920D01*
X007295Y011920D01*
X007464Y011990D01*
X007594Y012119D01*
X007664Y012288D01*
X007664Y013071D01*
X007594Y013241D01*
X007464Y013370D01*
X007295Y013440D01*
X007112Y013440D01*
X006943Y013370D01*
X006787Y013177D02*
X006620Y013177D01*
X006664Y013019D02*
X006744Y013019D01*
X006744Y012860D02*
X006664Y012860D01*
X006664Y012702D02*
X006744Y012702D01*
X006744Y012543D02*
X006664Y012543D01*
X006664Y012385D02*
X006744Y012385D01*
X006770Y012226D02*
X006661Y012226D01*
X006820Y012068D02*
X006866Y012068D01*
X006978Y011909D02*
X009174Y011909D01*
X009634Y011909D02*
X016094Y011909D01*
X016094Y011751D02*
X009744Y011751D01*
X009764Y011592D02*
X016094Y011592D01*
X016094Y011434D02*
X009712Y011434D01*
X008594Y012119D02*
X008464Y011990D01*
X008295Y011920D01*
X008112Y011920D01*
X007943Y011990D01*
X007814Y012119D01*
X007744Y012288D01*
X007744Y013071D01*
X007814Y013241D01*
X007943Y013370D01*
X008112Y013440D01*
X008295Y013440D01*
X008464Y013370D01*
X008594Y013241D01*
X008664Y013071D01*
X008664Y012288D01*
X008594Y012119D01*
X008542Y012068D02*
X016094Y012068D01*
X016094Y012226D02*
X008638Y012226D01*
X008664Y012385D02*
X016094Y012385D01*
X016094Y012543D02*
X008664Y012543D01*
X008664Y012702D02*
X016094Y012702D01*
X016094Y012860D02*
X008664Y012860D01*
X008664Y013019D02*
X016094Y013019D01*
X016094Y013177D02*
X008620Y013177D01*
X008499Y013336D02*
X016094Y013336D01*
X016094Y010958D02*
X013179Y010958D01*
X013338Y010800D02*
X016094Y010800D01*
X016094Y010641D02*
X013496Y010641D01*
X012948Y010483D02*
X012197Y010483D01*
X012356Y010324D02*
X013106Y010324D01*
X013247Y010166D02*
X012411Y010166D01*
X012411Y010007D02*
X013247Y010007D01*
X013289Y009849D02*
X012539Y009849D01*
X012697Y009690D02*
X013448Y009690D01*
X013960Y009690D02*
X014448Y009690D01*
X014515Y009623D02*
X014247Y009891D01*
X014247Y010269D01*
X014515Y010537D01*
X014893Y010537D01*
X015161Y010269D01*
X015161Y009891D01*
X014893Y009623D01*
X014515Y009623D01*
X014960Y009690D02*
X014960Y009690D01*
X015118Y009849D02*
X015119Y009849D01*
X015161Y010007D02*
X015247Y010007D01*
X015247Y010166D02*
X015161Y010166D01*
X015106Y010324D02*
X015302Y010324D01*
X015460Y010483D02*
X014947Y010483D01*
X014460Y010483D02*
X013947Y010483D01*
X014106Y010324D02*
X014302Y010324D01*
X014247Y010166D02*
X014161Y010166D01*
X014161Y010007D02*
X014247Y010007D01*
X014289Y009849D02*
X014118Y009849D01*
X015350Y009373D02*
X016094Y009373D01*
X016094Y009532D02*
X015509Y009532D01*
X015960Y009690D02*
X016094Y009690D01*
X016094Y009215D02*
X015192Y009215D01*
X012554Y008422D02*
X008620Y008422D01*
X008288Y008422D02*
X007204Y008422D01*
X007204Y008264D02*
X007845Y008264D01*
X007621Y008105D02*
X007204Y008105D01*
X007204Y007947D02*
X007463Y007947D01*
X007370Y007788D02*
X007204Y007788D01*
X007204Y007630D02*
X007288Y007630D01*
X007245Y007471D02*
X007204Y007471D01*
X007204Y007313D02*
X007211Y007313D01*
X007204Y007154D02*
X007211Y007154D01*
X007204Y006996D02*
X007217Y006996D01*
X007204Y006837D02*
X007259Y006837D01*
X007308Y006679D02*
X007204Y006679D01*
X007204Y006520D02*
X007400Y006520D01*
X007515Y006362D02*
X007204Y006362D01*
X007204Y006203D02*
X007673Y006203D01*
X007935Y006045D02*
X007204Y006045D01*
X007204Y005886D02*
X008401Y005886D01*
X008907Y005886D02*
X011844Y005886D01*
X011882Y006045D02*
X008972Y006045D01*
X009234Y006203D02*
X012043Y006203D01*
X012365Y006203D02*
X012554Y006203D01*
X012554Y006362D02*
X009393Y006362D01*
X009508Y006520D02*
X012554Y006520D01*
X012554Y006679D02*
X009599Y006679D01*
X009648Y006837D02*
X012554Y006837D01*
X012554Y006996D02*
X009691Y006996D01*
X009696Y007154D02*
X012554Y007154D01*
X012554Y007313D02*
X009696Y007313D01*
X009662Y007471D02*
X012554Y007471D01*
X012554Y007630D02*
X009620Y007630D01*
X009538Y007788D02*
X012554Y007788D01*
X012554Y007947D02*
X009445Y007947D01*
X009286Y008105D02*
X012554Y008105D01*
X012554Y008264D02*
X009062Y008264D01*
X007653Y008581D02*
X007204Y008581D01*
X007148Y008739D02*
X007441Y008739D01*
X007283Y008898D02*
X006990Y008898D01*
X007124Y009056D02*
X006831Y009056D01*
X006966Y009215D02*
X006673Y009215D01*
X006124Y009056D02*
X002454Y009056D01*
X002454Y008898D02*
X006283Y008898D01*
X006441Y008739D02*
X002454Y008739D01*
X002454Y008581D02*
X006600Y008581D01*
X006704Y008422D02*
X002454Y008422D01*
X002454Y008264D02*
X006704Y008264D01*
X006704Y008105D02*
X002454Y008105D01*
X002454Y007947D02*
X006704Y007947D01*
X006704Y007788D02*
X002454Y007788D01*
X002454Y007630D02*
X006704Y007630D01*
X006704Y007471D02*
X002516Y007471D01*
X002675Y007313D02*
X006704Y007313D01*
X006704Y007154D02*
X002833Y007154D01*
X002992Y006996D02*
X006704Y006996D01*
X006704Y006837D02*
X003150Y006837D01*
X003309Y006679D02*
X006704Y006679D01*
X006704Y006520D02*
X003467Y006520D01*
X003626Y006362D02*
X006704Y006362D01*
X006704Y006203D02*
X003784Y006203D01*
X003943Y006045D02*
X006704Y006045D01*
X006704Y005886D02*
X004101Y005886D01*
X004260Y005728D02*
X006704Y005728D01*
X006704Y005569D02*
X004418Y005569D01*
X004577Y005411D02*
X005157Y005411D01*
X005695Y004460D02*
X005712Y004460D01*
X005695Y004301D02*
X005712Y004301D01*
X005695Y004143D02*
X005712Y004143D01*
X005516Y003826D02*
X005134Y003826D01*
X005059Y003667D02*
X005329Y003667D01*
X005267Y003509D02*
X004829Y003509D01*
X004832Y003350D02*
X005267Y003350D01*
X005329Y003192D02*
X005061Y003192D01*
X005134Y003033D02*
X005520Y003033D01*
X005888Y003033D02*
X006904Y003033D01*
X006904Y003192D02*
X006078Y003192D01*
X006141Y003350D02*
X006904Y003350D01*
X006904Y003509D02*
X006141Y003509D01*
X006294Y003667D02*
X006904Y003667D01*
X006904Y003826D02*
X006453Y003826D01*
X006611Y003984D02*
X006904Y003984D01*
X006904Y004143D02*
X006770Y004143D01*
X009187Y003192D02*
X010597Y003192D01*
X010523Y003033D02*
X009358Y003033D01*
X009488Y002875D02*
X010517Y002875D01*
X010569Y002716D02*
X009579Y002716D01*
X009639Y002558D02*
X010711Y002558D01*
X010778Y002354D02*
X010714Y002321D01*
X010656Y002279D01*
X010605Y002228D01*
X010563Y002170D01*
X010530Y002105D01*
X010508Y002037D01*
X010497Y001966D01*
X010497Y001939D01*
X010945Y001939D01*
X010945Y002387D01*
X010918Y002387D01*
X010847Y002376D01*
X010778Y002354D01*
X010962Y002387D02*
X010962Y001939D01*
X010945Y001939D01*
X010945Y001921D01*
X010962Y001921D01*
X010962Y001473D01*
X010990Y001473D01*
X011061Y001484D01*
X011129Y001506D01*
X011193Y001539D01*
X011252Y001581D01*
X011302Y001632D01*
X011345Y001690D01*
X011377Y001755D01*
X011400Y001823D01*
X011411Y001894D01*
X011411Y001921D01*
X010962Y001921D01*
X010962Y001939D01*
X011411Y001939D01*
X011411Y001966D01*
X011400Y002037D01*
X011377Y002105D01*
X011345Y002170D01*
X011302Y002228D01*
X011252Y002279D01*
X011193Y002321D01*
X011129Y002354D01*
X011061Y002376D01*
X010990Y002387D01*
X010962Y002387D01*
X010945Y002241D02*
X010962Y002241D01*
X010945Y002082D02*
X010962Y002082D01*
X010962Y001924D02*
X013935Y001924D01*
X013705Y001765D02*
X012237Y001765D01*
X012201Y001801D02*
X012041Y001867D01*
X011867Y001867D01*
X011706Y001801D01*
X011583Y001678D01*
X011517Y001517D01*
X011517Y001343D01*
X011583Y001182D01*
X011706Y001059D01*
X011867Y000993D01*
X012041Y000993D01*
X012201Y001059D01*
X012324Y001182D01*
X012391Y001343D01*
X012391Y001517D01*
X012324Y001678D01*
X012201Y001801D01*
X012354Y001607D02*
X013551Y001607D01*
X013460Y001448D02*
X012391Y001448D01*
X012369Y001290D02*
X013391Y001290D01*
X013348Y001131D02*
X012273Y001131D01*
X011635Y001131D02*
X009122Y001131D01*
X009321Y001290D02*
X011539Y001290D01*
X011517Y001448D02*
X009466Y001448D01*
X009558Y001607D02*
X010631Y001607D01*
X010605Y001632D02*
X010656Y001581D01*
X010714Y001539D01*
X010778Y001506D01*
X010847Y001484D01*
X010918Y001473D01*
X010945Y001473D01*
X010945Y001921D01*
X010497Y001921D01*
X010497Y001894D01*
X010508Y001823D01*
X010530Y001755D01*
X010563Y001690D01*
X010605Y001632D01*
X010527Y001765D02*
X009629Y001765D01*
X009672Y001924D02*
X010945Y001924D01*
X010945Y001765D02*
X010962Y001765D01*
X010945Y001607D02*
X010962Y001607D01*
X011277Y001607D02*
X011554Y001607D01*
X011671Y001765D02*
X011381Y001765D01*
X011706Y002059D02*
X011867Y001993D01*
X012041Y001993D01*
X012201Y002059D01*
X012324Y002182D01*
X012391Y002343D01*
X012391Y002517D01*
X012324Y002678D01*
X012201Y002801D01*
X012041Y002867D01*
X011867Y002867D01*
X011706Y002801D01*
X011583Y002678D01*
X011517Y002517D01*
X011517Y002343D01*
X011583Y002182D01*
X011706Y002059D01*
X011684Y002082D02*
X011385Y002082D01*
X011290Y002241D02*
X011559Y002241D01*
X011517Y002399D02*
X009682Y002399D01*
X009696Y002241D02*
X010618Y002241D01*
X010522Y002082D02*
X009696Y002082D01*
X011197Y002558D02*
X011533Y002558D01*
X011622Y002716D02*
X011338Y002716D01*
X011391Y002875D02*
X016094Y002875D01*
X016094Y002716D02*
X012286Y002716D01*
X012374Y002558D02*
X016094Y002558D01*
X016094Y002399D02*
X012391Y002399D01*
X012348Y002241D02*
X016094Y002241D01*
X016094Y002082D02*
X012224Y002082D01*
X012138Y003033D02*
X016094Y003033D01*
X016094Y003192D02*
X012328Y003192D01*
X012391Y003350D02*
X016094Y003350D01*
X016094Y003509D02*
X012391Y003509D01*
X012544Y003667D02*
X016094Y003667D01*
X016094Y003826D02*
X012703Y003826D01*
X012861Y003984D02*
X016094Y003984D01*
X016094Y004143D02*
X013017Y004143D01*
X013054Y004301D02*
X016094Y004301D01*
X016094Y004460D02*
X015013Y004460D01*
X015226Y004618D02*
X016094Y004618D01*
X016094Y004777D02*
X015370Y004777D01*
X015461Y004935D02*
X016094Y004935D01*
X016094Y005094D02*
X015523Y005094D01*
X015566Y005252D02*
X016094Y005252D01*
X016094Y005411D02*
X015574Y005411D01*
X015574Y005569D02*
X016094Y005569D01*
X016094Y005728D02*
X015534Y005728D01*
X015484Y005886D02*
X016094Y005886D01*
X016094Y006045D02*
X015392Y006045D01*
X015265Y006203D02*
X016094Y006203D01*
X016094Y006362D02*
X015080Y006362D01*
X014713Y006520D02*
X016094Y006520D01*
X012554Y006045D02*
X012525Y006045D01*
X012530Y005728D02*
X012554Y005728D01*
X012554Y005569D02*
X012394Y005569D01*
X012554Y005411D02*
X012204Y005411D01*
X012204Y005252D02*
X012554Y005252D01*
X012554Y005094D02*
X012204Y005094D01*
X012204Y004935D02*
X012554Y004935D01*
X012554Y004777D02*
X012226Y004777D01*
X012349Y004618D02*
X012554Y004618D01*
X011682Y004777D02*
X011363Y004777D01*
X011391Y004935D02*
X011704Y004935D01*
X011704Y005094D02*
X011359Y005094D01*
X011250Y005252D02*
X011704Y005252D01*
X010658Y005252D02*
X008835Y005252D01*
X010517Y005017D02*
X010517Y004996D01*
X011260Y004618D02*
X011558Y004618D01*
X011623Y004143D02*
X011339Y004143D01*
X011311Y003192D02*
X011579Y003192D01*
X011770Y003033D02*
X011384Y003033D01*
X014973Y001924D02*
X016094Y001924D01*
X016094Y001765D02*
X015203Y001765D01*
X015356Y001607D02*
X016094Y001607D01*
X016094Y001448D02*
X015448Y001448D01*
X015517Y001290D02*
X016094Y001290D01*
X016094Y001131D02*
X015559Y001131D01*
X015574Y000973D02*
X016094Y000973D01*
X016094Y000814D02*
X015574Y000814D01*
X013334Y000814D02*
X003324Y000814D01*
X005109Y001765D02*
X005421Y001765D01*
X008749Y000973D02*
X013334Y000973D01*
X001645Y004460D02*
X000684Y004460D01*
X000684Y004618D02*
X001432Y004618D01*
X001288Y004777D02*
X000684Y004777D01*
X000684Y004935D02*
X001196Y004935D01*
X001134Y005094D02*
X000684Y005094D01*
X000684Y005252D02*
X001092Y005252D01*
X001084Y005411D02*
X000684Y005411D01*
X000684Y005569D02*
X001084Y005569D01*
X001124Y005728D02*
X000684Y005728D01*
X000684Y005886D02*
X001174Y005886D01*
X001265Y006045D02*
X000684Y006045D01*
X000684Y006203D02*
X001393Y006203D01*
X001577Y006362D02*
X000684Y006362D01*
X000684Y006520D02*
X001944Y006520D01*
X002454Y009215D02*
X005966Y009215D01*
X005807Y009373D02*
X002454Y009373D01*
X002454Y009532D02*
X005649Y009532D01*
X005490Y009690D02*
X002454Y009690D01*
X002454Y009849D02*
X005332Y009849D01*
X005173Y010007D02*
X002454Y010007D01*
X002454Y010166D02*
X005015Y010166D01*
X004856Y010324D02*
X002454Y010324D01*
X002454Y010483D02*
X004698Y010483D01*
X004539Y010641D02*
X002454Y010641D01*
X002454Y010800D02*
X004381Y010800D01*
X005088Y010800D02*
X005381Y010800D01*
X005246Y010641D02*
X005539Y010641D01*
X005405Y010483D02*
X005698Y010483D01*
X005563Y010324D02*
X005856Y010324D01*
X005722Y010166D02*
X006015Y010166D01*
X005880Y010007D02*
X006173Y010007D01*
X006039Y009849D02*
X006332Y009849D01*
X006197Y009690D02*
X006490Y009690D01*
X006356Y009532D02*
X006649Y009532D01*
X006514Y009373D02*
X006807Y009373D01*
X007356Y009532D02*
X007649Y009532D01*
X007514Y009373D02*
X007807Y009373D01*
X007673Y009215D02*
X007966Y009215D01*
X007490Y009690D02*
X007197Y009690D01*
X007332Y009849D02*
X007039Y009849D01*
X007173Y010007D02*
X006880Y010007D01*
X007015Y010166D02*
X006722Y010166D01*
X006856Y010324D02*
X006563Y010324D01*
X006698Y010483D02*
X006405Y010483D01*
X006539Y010641D02*
X006246Y010641D01*
X006381Y010800D02*
X006088Y010800D01*
X006222Y010958D02*
X005929Y010958D01*
X006064Y011117D02*
X005771Y011117D01*
X005905Y011275D02*
X005612Y011275D01*
X005747Y011434D02*
X005454Y011434D01*
X005588Y011592D02*
X005295Y011592D01*
X005430Y011751D02*
X005137Y011751D01*
X005271Y011909D02*
X004978Y011909D01*
X004866Y012068D02*
X004820Y012068D01*
X004770Y012226D02*
X004661Y012226D01*
X004664Y012385D02*
X004744Y012385D01*
X004744Y012543D02*
X004664Y012543D01*
X004664Y012702D02*
X004744Y012702D01*
X004744Y012860D02*
X004664Y012860D01*
X004664Y013019D02*
X004744Y013019D01*
X004787Y013177D02*
X004620Y013177D01*
X004499Y013336D02*
X004909Y013336D01*
X003909Y013336D02*
X003499Y013336D01*
X003620Y013177D02*
X003787Y013177D01*
X003744Y013019D02*
X003664Y013019D01*
X003664Y012860D02*
X003744Y012860D01*
X003744Y012702D02*
X003664Y012702D01*
X003664Y012543D02*
X003744Y012543D01*
X003744Y012385D02*
X003664Y012385D01*
X003661Y012226D02*
X003770Y012226D01*
X003820Y012068D02*
X003866Y012068D01*
X003978Y011909D02*
X004271Y011909D01*
X004137Y011751D02*
X004430Y011751D01*
X004295Y011592D02*
X004588Y011592D01*
X004454Y011434D02*
X004747Y011434D01*
X004612Y011275D02*
X004905Y011275D01*
X004771Y011117D02*
X005064Y011117D01*
X004929Y010958D02*
X005222Y010958D01*
X004222Y010958D02*
X002454Y010958D01*
X002454Y011117D02*
X004064Y011117D01*
X003905Y011275D02*
X002454Y011275D01*
X002454Y011434D02*
X003747Y011434D01*
X003588Y011592D02*
X002454Y011592D01*
X002454Y011751D02*
X003430Y011751D01*
X003271Y011909D02*
X002454Y011909D01*
X002542Y012068D02*
X002866Y012068D01*
X002770Y012226D02*
X002638Y012226D01*
X002664Y012385D02*
X002744Y012385D01*
X002744Y012543D02*
X002664Y012543D01*
X002664Y012702D02*
X002744Y012702D01*
X002744Y012860D02*
X002664Y012860D01*
X002664Y013019D02*
X002744Y013019D01*
X002787Y013177D02*
X002620Y013177D01*
X002499Y013336D02*
X002909Y013336D01*
X001224Y012385D02*
X001184Y012385D01*
X001184Y012226D02*
X001224Y012226D01*
X001224Y012068D02*
X001184Y012068D01*
X000837Y012068D02*
X000684Y012068D01*
X000684Y012226D02*
X000749Y012226D01*
X000724Y012385D02*
X000684Y012385D01*
X007542Y012068D02*
X007866Y012068D01*
X007770Y012226D02*
X007638Y012226D01*
X007664Y012385D02*
X007744Y012385D01*
X007744Y012543D02*
X007664Y012543D01*
X007664Y012702D02*
X007744Y012702D01*
X007744Y012860D02*
X007664Y012860D01*
X007664Y013019D02*
X007744Y013019D01*
X007787Y013177D02*
X007620Y013177D01*
X007499Y013336D02*
X007909Y013336D01*
X010710Y010483D02*
X010710Y010483D01*
X010551Y010324D02*
X010552Y010324D01*
X010497Y010166D02*
X010411Y010166D01*
X010411Y010007D02*
X010497Y010007D01*
X010539Y009849D02*
X010368Y009849D01*
X011368Y009849D02*
X011469Y009849D01*
X011497Y010007D02*
X011411Y010007D01*
X011411Y010166D02*
X011497Y010166D01*
X011552Y010324D02*
X011356Y010324D01*
X011197Y010483D02*
X011710Y010483D01*
X015947Y010483D02*
X016094Y010483D01*
D14*
X015704Y010080D02*
X014954Y009330D01*
X012704Y009330D01*
X011954Y010080D01*
X011954Y009980D01*
X011304Y009330D01*
X009004Y009330D01*
X009004Y009230D01*
X009004Y009330D02*
X008204Y009330D01*
X005354Y012180D01*
X005204Y012180D01*
X005204Y012680D01*
X006204Y012680D02*
X006204Y012330D01*
X006904Y011630D01*
X009404Y011630D01*
X010704Y010830D02*
X009954Y010080D01*
X010704Y010830D02*
X012954Y010830D01*
X013704Y010080D01*
X012804Y008830D02*
X007704Y008830D01*
X004204Y012330D01*
X004204Y012680D01*
X003204Y012680D02*
X003204Y012180D01*
X003354Y012180D01*
X006954Y008580D01*
X006954Y005480D01*
X008254Y005480D01*
X009104Y004630D01*
X006904Y004630D01*
X005704Y003430D01*
X007154Y002880D02*
X007154Y004230D01*
X010104Y004230D01*
X010804Y004930D01*
X010954Y004930D01*
X011954Y004430D02*
X011954Y005630D01*
X012204Y005880D01*
X011954Y005630D02*
X008654Y005630D01*
X008154Y005030D02*
X008004Y005180D01*
X005254Y005180D01*
X005004Y004930D01*
X004704Y004930D01*
X002204Y007430D01*
X002204Y012680D01*
X012804Y008830D02*
X012804Y004280D01*
X011954Y003430D01*
X010954Y003930D02*
X008054Y003930D01*
X007954Y003830D01*
X007154Y002880D02*
X005704Y001430D01*
D15*
X007954Y003830D03*
X009104Y004630D03*
X008154Y005030D03*
X008654Y005630D03*
X012204Y005880D03*
X009004Y009230D03*
X009404Y011630D03*
D16*
X008454Y007180D03*
X008454Y002180D03*
M02*
