G75*
%MOIN*%
%OFA0B0*%
%FSLAX24Y24*%
%IPPOS*%
%LPD*%
%AMOC8*
5,1,8,0,0,1.08239X$1,22.5*
%
%ADD10C,0.0554*%
%ADD11C,0.0600*%
%ADD12OC8,0.0594*%
%ADD13C,0.0160*%
%ADD14C,0.0180*%
%ADD15C,0.0400*%
%ADD16C,0.2165*%
D10*
X004704Y001930D03*
X005704Y002430D03*
X004704Y002930D03*
X005704Y003430D03*
X004704Y003930D03*
X005704Y004430D03*
X004704Y004930D03*
X010954Y004930D03*
X011954Y004430D03*
X010954Y003930D03*
X011954Y003430D03*
X010954Y002930D03*
X011954Y002430D03*
X010954Y001930D03*
X011954Y001430D03*
X005704Y001430D03*
D11*
X006204Y012380D02*
X006204Y012980D01*
X005204Y012980D02*
X005204Y012380D01*
X004204Y012380D02*
X004204Y012980D01*
X003204Y012980D02*
X003204Y012380D01*
X002204Y012380D02*
X002204Y012980D01*
X001204Y012980D02*
X001204Y012380D01*
X007204Y012380D02*
X007204Y012980D01*
X008204Y012980D02*
X008204Y012380D01*
D12*
X009954Y010080D03*
X010954Y010080D03*
X011954Y010080D03*
X013704Y010080D03*
X014704Y010080D03*
X015704Y010080D03*
D13*
X000684Y013696D02*
X000684Y000660D01*
X001117Y000660D01*
X001084Y000783D01*
X001084Y001077D01*
X001160Y001362D01*
X001308Y001618D01*
X001516Y001826D01*
X001771Y001974D01*
X002056Y002050D01*
X002351Y002050D01*
X002636Y001974D01*
X002891Y001826D01*
X003100Y001618D01*
X003247Y001362D01*
X003324Y001077D01*
X003324Y000783D01*
X003291Y000660D01*
X013367Y000660D01*
X013334Y000783D01*
X013334Y001077D01*
X013410Y001362D01*
X013558Y001618D01*
X013766Y001826D01*
X014021Y001974D01*
X014306Y002050D01*
X014601Y002050D01*
X014886Y001974D01*
X015141Y001826D01*
X015350Y001618D01*
X015497Y001362D01*
X015574Y001077D01*
X015574Y000783D01*
X015541Y000660D01*
X016094Y000660D01*
X016094Y009824D01*
X015893Y009623D01*
X015515Y009623D01*
X015247Y009891D01*
X015247Y010269D01*
X015515Y010537D01*
X015893Y010537D01*
X016094Y010336D01*
X016094Y013696D01*
X000684Y013696D01*
X000684Y013653D02*
X016094Y013653D01*
X016094Y013494D02*
X000684Y013494D01*
X000684Y013336D02*
X000880Y013336D01*
X000891Y013346D02*
X000838Y013293D01*
X000793Y013232D01*
X000759Y013164D01*
X000736Y013092D01*
X000724Y013018D01*
X000724Y012700D01*
X001184Y012700D01*
X001184Y013460D01*
X001166Y013460D01*
X001091Y013448D01*
X001020Y013425D01*
X000952Y013391D01*
X000891Y013346D01*
X000765Y013177D02*
X000684Y013177D01*
X000684Y013019D02*
X000724Y013019D01*
X000724Y012860D02*
X000684Y012860D01*
X000684Y012702D02*
X000724Y012702D01*
X000724Y012660D02*
X000724Y012342D01*
X000736Y012268D01*
X000759Y012196D01*
X000793Y012128D01*
X000838Y012067D01*
X000891Y012014D01*
X000952Y011969D01*
X001020Y011935D01*
X001091Y011912D01*
X001166Y011900D01*
X001184Y011900D01*
X001184Y012660D01*
X001224Y012660D01*
X001224Y012700D01*
X001684Y012700D01*
X001684Y013018D01*
X001672Y013092D01*
X001649Y013164D01*
X001614Y013232D01*
X001570Y013293D01*
X001516Y013346D01*
X001455Y013391D01*
X001388Y013425D01*
X001316Y013448D01*
X001242Y013460D01*
X001224Y013460D01*
X001224Y012700D01*
X001184Y012700D01*
X001184Y012660D01*
X000724Y012660D01*
X000724Y012543D02*
X000684Y012543D01*
X001184Y012543D02*
X001224Y012543D01*
X001224Y012660D02*
X001224Y011900D01*
X001242Y011900D01*
X001316Y011912D01*
X001388Y011935D01*
X001455Y011969D01*
X001516Y012014D01*
X001570Y012067D01*
X001614Y012128D01*
X001649Y012196D01*
X001672Y012268D01*
X001684Y012342D01*
X001684Y012660D01*
X001224Y012660D01*
X001224Y012702D02*
X001184Y012702D01*
X001184Y012860D02*
X001224Y012860D01*
X001224Y013019D02*
X001184Y013019D01*
X001184Y013177D02*
X001224Y013177D01*
X001224Y013336D02*
X001184Y013336D01*
X001527Y013336D02*
X001909Y013336D01*
X001943Y013370D02*
X001814Y013241D01*
X001744Y013071D01*
X001744Y012288D01*
X001814Y012119D01*
X001943Y011990D01*
X002112Y011920D01*
X002295Y011920D01*
X002464Y011990D01*
X002594Y012119D01*
X002664Y012288D01*
X002664Y013071D01*
X002594Y013241D01*
X002464Y013370D01*
X002295Y013440D01*
X002112Y013440D01*
X001943Y013370D01*
X001787Y013177D02*
X001642Y013177D01*
X001684Y013019D02*
X001744Y013019D01*
X001744Y012860D02*
X001684Y012860D01*
X001684Y012702D02*
X001744Y012702D01*
X001744Y012543D02*
X001684Y012543D01*
X001684Y012385D02*
X001744Y012385D01*
X001770Y012226D02*
X001658Y012226D01*
X001570Y012068D02*
X001866Y012068D01*
X001298Y011909D02*
X003879Y011909D01*
X003943Y011990D02*
X003954Y011986D01*
X003954Y011984D01*
X003792Y011822D01*
X003754Y011730D01*
X003754Y003580D01*
X003792Y003488D01*
X003862Y003418D01*
X004267Y003014D01*
X004267Y002843D01*
X004333Y002682D01*
X004456Y002559D01*
X004617Y002493D01*
X004791Y002493D01*
X004951Y002559D01*
X005004Y002612D01*
X005004Y002584D01*
X004787Y002367D01*
X004617Y002367D01*
X004456Y002301D01*
X004333Y002178D01*
X004267Y002017D01*
X004267Y001843D01*
X004333Y001682D01*
X004456Y001559D01*
X004617Y001493D01*
X004791Y001493D01*
X004951Y001559D01*
X005074Y001682D01*
X005141Y001843D01*
X005141Y002014D01*
X005326Y002199D01*
X005333Y002182D01*
X005456Y002059D01*
X005617Y001993D01*
X005791Y001993D01*
X005951Y002059D01*
X006072Y002180D01*
X007054Y002180D01*
X007145Y002218D01*
X007211Y002284D01*
X007211Y002016D01*
X007296Y001700D01*
X007459Y001417D01*
X007691Y001186D01*
X007974Y001022D01*
X008290Y000937D01*
X008617Y000937D01*
X008933Y001022D01*
X009217Y001186D01*
X009448Y001417D01*
X009612Y001700D01*
X009696Y002016D01*
X009696Y002344D01*
X009612Y002660D01*
X009448Y002943D01*
X009217Y003174D01*
X008933Y003338D01*
X008617Y003423D01*
X008290Y003423D01*
X007974Y003338D01*
X007691Y003174D01*
X007459Y002943D01*
X007296Y002660D01*
X007254Y002503D01*
X007254Y002776D01*
X007947Y003470D01*
X008025Y003470D01*
X008158Y003525D01*
X008259Y003626D01*
X008314Y003758D01*
X008314Y003902D01*
X008259Y004034D01*
X008158Y004135D01*
X008025Y004190D01*
X007882Y004190D01*
X007750Y004135D01*
X007649Y004034D01*
X007594Y003902D01*
X007594Y003824D01*
X006954Y003184D01*
X006954Y005380D01*
X008058Y005380D01*
X007950Y005335D01*
X007849Y005234D01*
X007794Y005102D01*
X007794Y004958D01*
X007849Y004826D01*
X007950Y004725D01*
X008082Y004670D01*
X008160Y004670D01*
X009704Y003126D01*
X009704Y000880D01*
X009742Y000788D01*
X009812Y000718D01*
X009904Y000680D01*
X011504Y000680D01*
X011595Y000718D01*
X011666Y000788D01*
X011870Y000993D01*
X012041Y000993D01*
X012201Y001059D01*
X012324Y001182D01*
X012391Y001343D01*
X012391Y001517D01*
X012324Y001678D01*
X012201Y001801D01*
X012041Y001867D01*
X011867Y001867D01*
X011706Y001801D01*
X011583Y001678D01*
X011517Y001517D01*
X011517Y001346D01*
X011350Y001180D01*
X010204Y001180D01*
X010204Y003176D01*
X010517Y002864D01*
X010517Y002843D01*
X010583Y002682D01*
X010706Y002559D01*
X010867Y002493D01*
X011041Y002493D01*
X011201Y002559D01*
X011324Y002682D01*
X011391Y002843D01*
X011391Y003017D01*
X011324Y003178D01*
X011201Y003301D01*
X011041Y003367D01*
X010867Y003367D01*
X010763Y003324D01*
X009464Y004624D01*
X009464Y004702D01*
X009409Y004834D01*
X009308Y004935D01*
X009704Y004935D01*
X009704Y004880D02*
X009742Y004788D01*
X009812Y004718D01*
X010517Y004014D01*
X010517Y003843D01*
X010583Y003682D01*
X010706Y003559D01*
X010867Y003493D01*
X011041Y003493D01*
X011201Y003559D01*
X011324Y003682D01*
X011391Y003843D01*
X011391Y004017D01*
X011324Y004178D01*
X011201Y004301D01*
X011200Y004301D02*
X011534Y004301D01*
X011517Y004343D02*
X011583Y004182D01*
X011706Y004059D01*
X011867Y003993D01*
X012041Y003993D01*
X012201Y004059D01*
X012324Y004182D01*
X012391Y004343D01*
X012391Y004517D01*
X012324Y004678D01*
X012201Y004801D01*
X012041Y004867D01*
X011867Y004867D01*
X011706Y004801D01*
X011583Y004678D01*
X011517Y004517D01*
X011517Y004343D01*
X011517Y004460D02*
X010778Y004460D01*
X010867Y004493D02*
X010706Y004559D01*
X010583Y004682D01*
X010517Y004843D01*
X010517Y005017D01*
X010583Y005178D01*
X010618Y005212D01*
X010542Y005288D01*
X010504Y005380D01*
X010504Y009176D01*
X010057Y009623D01*
X009765Y009623D01*
X009497Y009891D01*
X009497Y010183D01*
X008062Y011618D01*
X007992Y011688D01*
X007954Y011780D01*
X007954Y011986D01*
X007943Y011990D01*
X007814Y012119D01*
X007744Y012288D01*
X007744Y013071D01*
X007814Y013241D01*
X007943Y013370D01*
X008112Y013440D01*
X008295Y013440D01*
X008464Y013370D01*
X008594Y013241D01*
X008664Y013071D01*
X008664Y012288D01*
X008594Y012119D01*
X008464Y011990D01*
X008454Y011986D01*
X008454Y011934D01*
X009850Y010537D01*
X010143Y010537D01*
X010411Y010269D01*
X010411Y009977D01*
X010804Y009584D01*
X010804Y009623D01*
X010765Y009623D01*
X010497Y009891D01*
X010497Y010183D01*
X009410Y011270D01*
X009332Y011270D01*
X009200Y011325D01*
X009099Y011426D01*
X009044Y011558D01*
X009044Y011702D01*
X009099Y011834D01*
X009200Y011935D01*
X009332Y011990D01*
X009475Y011990D01*
X009608Y011935D01*
X009709Y011834D01*
X009764Y011702D01*
X009764Y011624D01*
X010850Y010537D01*
X011143Y010537D01*
X011411Y010269D01*
X011411Y009891D01*
X011304Y009784D01*
X011304Y006584D01*
X011871Y006017D01*
X011899Y006084D01*
X011954Y006139D01*
X011954Y007630D01*
X011992Y007722D01*
X012062Y007792D01*
X012062Y007792D01*
X014247Y009977D01*
X014247Y010269D01*
X014515Y010537D01*
X014893Y010537D01*
X015161Y010269D01*
X015161Y009891D01*
X014893Y009623D01*
X014600Y009623D01*
X012454Y007476D01*
X012454Y006139D01*
X012509Y006084D01*
X012564Y005952D01*
X012564Y005808D01*
X012509Y005676D01*
X012408Y005575D01*
X012340Y005547D01*
X012866Y005022D01*
X012904Y004930D01*
X012904Y003080D01*
X012866Y002988D01*
X012795Y002918D01*
X012391Y002514D01*
X012391Y002343D01*
X012324Y002182D01*
X012201Y002059D01*
X012041Y001993D01*
X011867Y001993D01*
X011706Y002059D01*
X011583Y002182D01*
X011517Y002343D01*
X011517Y002517D01*
X011583Y002678D01*
X011706Y002801D01*
X011867Y002867D01*
X012037Y002867D01*
X012404Y003234D01*
X012404Y004776D01*
X011004Y006176D01*
X011004Y005534D01*
X011095Y005442D01*
X011166Y005372D01*
X011194Y005304D01*
X011201Y005301D01*
X011324Y005178D01*
X011391Y005017D01*
X011391Y004843D01*
X011324Y004682D01*
X011201Y004559D01*
X011041Y004493D01*
X010867Y004493D01*
X010870Y004367D02*
X010204Y005034D01*
X010204Y008330D01*
X010166Y008422D01*
X009364Y009224D01*
X009364Y009302D01*
X009309Y009434D01*
X009208Y009535D01*
X009075Y009590D01*
X008932Y009590D01*
X008800Y009535D01*
X008699Y009434D01*
X008644Y009302D01*
X008644Y009158D01*
X008699Y009026D01*
X008800Y008925D01*
X008932Y008870D01*
X009010Y008870D01*
X009704Y008176D01*
X009704Y004880D01*
X009754Y004777D02*
X009433Y004777D01*
X009469Y004618D02*
X009912Y004618D01*
X010071Y004460D02*
X009628Y004460D01*
X009786Y004301D02*
X010229Y004301D01*
X010388Y004143D02*
X009945Y004143D01*
X010103Y003984D02*
X010517Y003984D01*
X010524Y003826D02*
X010262Y003826D01*
X010420Y003667D02*
X010599Y003667D01*
X010579Y003509D02*
X010829Y003509D01*
X010825Y003350D02*
X010737Y003350D01*
X011082Y003350D02*
X011517Y003350D01*
X011517Y003343D02*
X011583Y003182D01*
X011706Y003059D01*
X011867Y002993D01*
X012041Y002993D01*
X012201Y003059D01*
X012324Y003182D01*
X012391Y003343D01*
X012391Y003517D01*
X012324Y003678D01*
X012201Y003801D01*
X012041Y003867D01*
X011867Y003867D01*
X011706Y003801D01*
X011583Y003678D01*
X011517Y003517D01*
X011517Y003343D01*
X011579Y003192D02*
X011311Y003192D01*
X011384Y003033D02*
X011770Y003033D01*
X012138Y003033D02*
X012203Y003033D01*
X012328Y003192D02*
X012362Y003192D01*
X012391Y003350D02*
X012404Y003350D01*
X012391Y003509D02*
X012404Y003509D01*
X012404Y003667D02*
X012329Y003667D01*
X012404Y003826D02*
X012141Y003826D01*
X012404Y003984D02*
X011391Y003984D01*
X011384Y003826D02*
X011766Y003826D01*
X011579Y003667D02*
X011309Y003667D01*
X011517Y003509D02*
X011079Y003509D01*
X010347Y003033D02*
X010204Y003033D01*
X009704Y003033D02*
X009358Y003033D01*
X009187Y003192D02*
X009639Y003192D01*
X009480Y003350D02*
X008889Y003350D01*
X009322Y003509D02*
X008118Y003509D01*
X008019Y003350D02*
X007827Y003350D01*
X007720Y003192D02*
X007669Y003192D01*
X007549Y003033D02*
X007510Y003033D01*
X006962Y003192D02*
X006954Y003192D01*
X006954Y003350D02*
X007120Y003350D01*
X007279Y003509D02*
X006954Y003509D01*
X006954Y003667D02*
X007437Y003667D01*
X007594Y003826D02*
X006954Y003826D01*
X006954Y003984D02*
X007628Y003984D01*
X007768Y004143D02*
X006954Y004143D01*
X006954Y004301D02*
X008529Y004301D01*
X008371Y004460D02*
X006954Y004460D01*
X006454Y004460D02*
X006161Y004460D01*
X006161Y004466D02*
X006150Y004537D01*
X006127Y004605D01*
X006095Y004670D01*
X006052Y004728D01*
X006002Y004779D01*
X005943Y004821D01*
X005879Y004854D01*
X005811Y004876D01*
X005740Y004887D01*
X005712Y004887D01*
X005712Y004439D01*
X005695Y004439D01*
X005695Y004887D01*
X005668Y004887D01*
X005597Y004876D01*
X005528Y004854D01*
X005464Y004821D01*
X005406Y004779D01*
X006345Y005718D01*
X006416Y005788D01*
X006454Y005880D01*
X006454Y011986D01*
X006464Y011990D01*
X006594Y012119D01*
X006664Y012288D01*
X006664Y013071D01*
X006594Y013241D01*
X006464Y013370D01*
X006295Y013440D01*
X006112Y013440D01*
X005943Y013370D01*
X005814Y013241D01*
X005744Y013071D01*
X005744Y012288D01*
X005814Y012119D01*
X005943Y011990D01*
X005954Y011986D01*
X005954Y006034D01*
X005081Y005161D01*
X005074Y005178D01*
X004951Y005301D01*
X004791Y005367D01*
X004617Y005367D01*
X004456Y005301D01*
X004333Y005178D01*
X004267Y005017D01*
X004267Y004843D01*
X004333Y004682D01*
X004456Y004559D01*
X004617Y004493D01*
X004704Y004493D01*
X004704Y004367D01*
X004617Y004367D01*
X004456Y004301D01*
X004333Y004178D01*
X004267Y004017D01*
X004267Y003843D01*
X004333Y003682D01*
X004456Y003559D01*
X004617Y003493D01*
X004791Y003493D01*
X004951Y003559D01*
X005074Y003682D01*
X005141Y003843D01*
X005141Y004014D01*
X005166Y004038D01*
X005204Y004130D01*
X005204Y004426D01*
X005247Y004470D01*
X005247Y004466D01*
X005247Y004439D01*
X005695Y004439D01*
X005695Y004421D01*
X005712Y004421D01*
X005712Y003973D01*
X005740Y003973D01*
X005811Y003984D01*
X005879Y004006D01*
X005943Y004039D01*
X006002Y004081D01*
X006052Y004132D01*
X006095Y004190D01*
X006127Y004255D01*
X006150Y004323D01*
X006161Y004394D01*
X006161Y004421D01*
X005712Y004421D01*
X005712Y004439D01*
X006161Y004439D01*
X006161Y004466D01*
X006143Y004301D02*
X006454Y004301D01*
X006454Y004143D02*
X006060Y004143D01*
X005810Y003984D02*
X006454Y003984D01*
X006454Y003826D02*
X005891Y003826D01*
X005951Y003801D02*
X005791Y003867D01*
X005617Y003867D01*
X005456Y003801D01*
X005333Y003678D01*
X005267Y003517D01*
X005267Y003343D01*
X005333Y003182D01*
X005406Y003110D01*
X005362Y003092D01*
X005292Y003022D01*
X005141Y002871D01*
X005141Y003017D01*
X005074Y003178D01*
X004951Y003301D01*
X004791Y003367D01*
X004620Y003367D01*
X004254Y003734D01*
X004254Y011576D01*
X004345Y011668D01*
X004416Y011738D01*
X004454Y011830D01*
X004454Y011986D01*
X004464Y011990D01*
X004594Y012119D01*
X004664Y012288D01*
X004664Y013071D01*
X004594Y013241D01*
X004464Y013370D01*
X004295Y013440D01*
X004112Y013440D01*
X003943Y013370D01*
X003814Y013241D01*
X003744Y013071D01*
X003744Y012288D01*
X003814Y012119D01*
X003943Y011990D01*
X003866Y012068D02*
X003542Y012068D01*
X003594Y012119D02*
X003464Y011990D01*
X003295Y011920D01*
X003112Y011920D01*
X002943Y011990D01*
X002814Y012119D01*
X002744Y012288D01*
X002744Y013071D01*
X002814Y013241D01*
X002943Y013370D01*
X003112Y013440D01*
X003295Y013440D01*
X003464Y013370D01*
X003594Y013241D01*
X003664Y013071D01*
X003664Y012288D01*
X003594Y012119D01*
X003638Y012226D02*
X003770Y012226D01*
X003744Y012385D02*
X003664Y012385D01*
X003664Y012543D02*
X003744Y012543D01*
X003744Y012702D02*
X003664Y012702D01*
X003664Y012860D02*
X003744Y012860D01*
X003744Y013019D02*
X003664Y013019D01*
X003620Y013177D02*
X003787Y013177D01*
X003909Y013336D02*
X003499Y013336D01*
X002909Y013336D02*
X002499Y013336D01*
X002620Y013177D02*
X002787Y013177D01*
X002744Y013019D02*
X002664Y013019D01*
X002664Y012860D02*
X002744Y012860D01*
X002744Y012702D02*
X002664Y012702D01*
X002664Y012543D02*
X002744Y012543D01*
X002744Y012385D02*
X002664Y012385D01*
X002638Y012226D02*
X002770Y012226D01*
X002866Y012068D02*
X002542Y012068D01*
X003762Y011751D02*
X000684Y011751D01*
X000684Y011909D02*
X001109Y011909D01*
X001184Y011909D02*
X001224Y011909D01*
X001224Y012068D02*
X001184Y012068D01*
X001184Y012226D02*
X001224Y012226D01*
X001224Y012385D02*
X001184Y012385D01*
X000724Y012385D02*
X000684Y012385D01*
X000684Y012226D02*
X000749Y012226D01*
X000684Y012068D02*
X000837Y012068D01*
X000684Y011592D02*
X003754Y011592D01*
X003754Y011434D02*
X000684Y011434D01*
X000684Y011275D02*
X003754Y011275D01*
X003754Y011117D02*
X000684Y011117D01*
X000684Y010958D02*
X003754Y010958D01*
X004254Y010958D02*
X005954Y010958D01*
X005954Y011117D02*
X004254Y011117D01*
X004254Y011275D02*
X005954Y011275D01*
X005954Y011434D02*
X004254Y011434D01*
X004269Y011592D02*
X005954Y011592D01*
X005954Y011751D02*
X004421Y011751D01*
X004454Y011909D02*
X005954Y011909D01*
X005866Y012068D02*
X005542Y012068D01*
X005594Y012119D02*
X005464Y011990D01*
X005295Y011920D01*
X005112Y011920D01*
X004943Y011990D01*
X004814Y012119D01*
X004744Y012288D01*
X004744Y013071D01*
X004814Y013241D01*
X004943Y013370D01*
X005112Y013440D01*
X005295Y013440D01*
X005464Y013370D01*
X005594Y013241D01*
X005664Y013071D01*
X005664Y012288D01*
X005594Y012119D01*
X005638Y012226D02*
X005770Y012226D01*
X005744Y012385D02*
X005664Y012385D01*
X005664Y012543D02*
X005744Y012543D01*
X005744Y012702D02*
X005664Y012702D01*
X005664Y012860D02*
X005744Y012860D01*
X005744Y013019D02*
X005664Y013019D01*
X005620Y013177D02*
X005787Y013177D01*
X005909Y013336D02*
X005499Y013336D01*
X004909Y013336D02*
X004499Y013336D01*
X004620Y013177D02*
X004787Y013177D01*
X004744Y013019D02*
X004664Y013019D01*
X004664Y012860D02*
X004744Y012860D01*
X004744Y012702D02*
X004664Y012702D01*
X004664Y012543D02*
X004744Y012543D01*
X004744Y012385D02*
X004664Y012385D01*
X004638Y012226D02*
X004770Y012226D01*
X004866Y012068D02*
X004542Y012068D01*
X006454Y011909D02*
X006579Y011909D01*
X006492Y011822D02*
X006454Y011730D01*
X006454Y003130D01*
X006022Y003130D01*
X006074Y003182D01*
X006141Y003343D01*
X006141Y003517D01*
X006074Y003678D01*
X005951Y003801D01*
X006079Y003667D02*
X006454Y003667D01*
X006454Y003509D02*
X006141Y003509D01*
X006141Y003350D02*
X006454Y003350D01*
X006454Y003192D02*
X006078Y003192D01*
X005329Y003192D02*
X005061Y003192D01*
X005134Y003033D02*
X005303Y003033D01*
X005145Y002875D02*
X005141Y002875D01*
X004978Y002558D02*
X004947Y002558D01*
X004819Y002399D02*
X000684Y002399D01*
X000684Y002241D02*
X004396Y002241D01*
X004294Y002082D02*
X000684Y002082D01*
X000684Y001924D02*
X001685Y001924D01*
X001455Y001765D02*
X000684Y001765D01*
X000684Y001607D02*
X001301Y001607D01*
X001210Y001448D02*
X000684Y001448D01*
X000684Y001290D02*
X001141Y001290D01*
X001098Y001131D02*
X000684Y001131D01*
X000684Y000973D02*
X001084Y000973D01*
X001084Y000814D02*
X000684Y000814D01*
X003106Y001607D02*
X004409Y001607D01*
X004299Y001765D02*
X002953Y001765D01*
X002723Y001924D02*
X004267Y001924D01*
X004999Y001607D02*
X005304Y001607D01*
X005333Y001678D02*
X005267Y001517D01*
X005267Y001343D01*
X005333Y001182D01*
X005456Y001059D01*
X005617Y000993D01*
X005791Y000993D01*
X005951Y001059D01*
X006074Y001182D01*
X006141Y001343D01*
X006141Y001517D01*
X006074Y001678D01*
X005951Y001801D01*
X005791Y001867D01*
X005617Y001867D01*
X005456Y001801D01*
X005333Y001678D01*
X005421Y001765D02*
X005109Y001765D01*
X005141Y001924D02*
X007236Y001924D01*
X007211Y002082D02*
X005974Y002082D01*
X005987Y001765D02*
X007278Y001765D01*
X007350Y001607D02*
X006104Y001607D01*
X006141Y001448D02*
X007441Y001448D01*
X007587Y001290D02*
X006119Y001290D01*
X006023Y001131D02*
X007785Y001131D01*
X008159Y000973D02*
X003324Y000973D01*
X003309Y001131D02*
X005385Y001131D01*
X005289Y001290D02*
X003267Y001290D01*
X003198Y001448D02*
X005267Y001448D01*
X005209Y002082D02*
X005434Y002082D01*
X004461Y002558D02*
X000684Y002558D01*
X000684Y002716D02*
X004319Y002716D01*
X004267Y002875D02*
X000684Y002875D01*
X000684Y003033D02*
X004247Y003033D01*
X004089Y003192D02*
X000684Y003192D01*
X000684Y003350D02*
X003930Y003350D01*
X003784Y003509D02*
X000684Y003509D01*
X000684Y003667D02*
X003754Y003667D01*
X003754Y003826D02*
X000684Y003826D01*
X000684Y003984D02*
X003754Y003984D01*
X003754Y004143D02*
X000684Y004143D01*
X000684Y004301D02*
X003754Y004301D01*
X003754Y004460D02*
X002763Y004460D01*
X002636Y004386D02*
X002891Y004534D01*
X003100Y004742D01*
X003247Y004998D01*
X003324Y005283D01*
X003324Y005577D01*
X003247Y005862D01*
X003100Y006118D01*
X002891Y006326D01*
X002636Y006474D01*
X002351Y006550D01*
X002056Y006550D01*
X001771Y006474D01*
X001516Y006326D01*
X001308Y006118D01*
X001160Y005862D01*
X001084Y005577D01*
X001084Y005283D01*
X001160Y004998D01*
X001308Y004742D01*
X001516Y004534D01*
X001771Y004386D01*
X002056Y004310D01*
X002351Y004310D01*
X002636Y004386D01*
X002976Y004618D02*
X003754Y004618D01*
X003754Y004777D02*
X003120Y004777D01*
X003211Y004935D02*
X003754Y004935D01*
X003754Y005094D02*
X003273Y005094D01*
X003316Y005252D02*
X003754Y005252D01*
X003754Y005411D02*
X003324Y005411D01*
X003324Y005569D02*
X003754Y005569D01*
X003754Y005728D02*
X003284Y005728D01*
X003234Y005886D02*
X003754Y005886D01*
X003754Y006045D02*
X003142Y006045D01*
X003015Y006203D02*
X003754Y006203D01*
X003754Y006362D02*
X002830Y006362D01*
X002463Y006520D02*
X003754Y006520D01*
X003754Y006679D02*
X000684Y006679D01*
X000684Y006837D02*
X003754Y006837D01*
X003754Y006996D02*
X000684Y006996D01*
X000684Y007154D02*
X003754Y007154D01*
X003754Y007313D02*
X000684Y007313D01*
X000684Y007471D02*
X003754Y007471D01*
X003754Y007630D02*
X000684Y007630D01*
X000684Y007788D02*
X003754Y007788D01*
X003754Y007947D02*
X000684Y007947D01*
X000684Y008105D02*
X003754Y008105D01*
X003754Y008264D02*
X000684Y008264D01*
X000684Y008422D02*
X003754Y008422D01*
X003754Y008581D02*
X000684Y008581D01*
X000684Y008739D02*
X003754Y008739D01*
X003754Y008898D02*
X000684Y008898D01*
X000684Y009056D02*
X003754Y009056D01*
X003754Y009215D02*
X000684Y009215D01*
X000684Y009373D02*
X003754Y009373D01*
X003754Y009532D02*
X000684Y009532D01*
X000684Y009690D02*
X003754Y009690D01*
X003754Y009849D02*
X000684Y009849D01*
X000684Y010007D02*
X003754Y010007D01*
X003754Y010166D02*
X000684Y010166D01*
X000684Y010324D02*
X003754Y010324D01*
X003754Y010483D02*
X000684Y010483D01*
X000684Y010641D02*
X003754Y010641D01*
X003754Y010800D02*
X000684Y010800D01*
X004254Y010800D02*
X005954Y010800D01*
X005954Y010641D02*
X004254Y010641D01*
X004254Y010483D02*
X005954Y010483D01*
X005954Y010324D02*
X004254Y010324D01*
X004254Y010166D02*
X005954Y010166D01*
X005954Y010007D02*
X004254Y010007D01*
X004254Y009849D02*
X005954Y009849D01*
X005954Y009690D02*
X004254Y009690D01*
X004254Y009532D02*
X005954Y009532D01*
X005954Y009373D02*
X004254Y009373D01*
X004254Y009215D02*
X005954Y009215D01*
X005954Y009056D02*
X004254Y009056D01*
X004254Y008898D02*
X005954Y008898D01*
X005954Y008739D02*
X004254Y008739D01*
X004254Y008581D02*
X005954Y008581D01*
X005954Y008422D02*
X004254Y008422D01*
X004254Y008264D02*
X005954Y008264D01*
X005954Y008105D02*
X004254Y008105D01*
X004254Y007947D02*
X005954Y007947D01*
X005954Y007788D02*
X004254Y007788D01*
X004254Y007630D02*
X005954Y007630D01*
X005954Y007471D02*
X004254Y007471D01*
X004254Y007313D02*
X005954Y007313D01*
X005954Y007154D02*
X004254Y007154D01*
X004254Y006996D02*
X005954Y006996D01*
X005954Y006837D02*
X004254Y006837D01*
X004254Y006679D02*
X005954Y006679D01*
X005954Y006520D02*
X004254Y006520D01*
X004254Y006362D02*
X005954Y006362D01*
X005954Y006203D02*
X004254Y006203D01*
X004254Y006045D02*
X005954Y006045D01*
X005806Y005886D02*
X004254Y005886D01*
X004254Y005728D02*
X005648Y005728D01*
X005489Y005569D02*
X004254Y005569D01*
X004254Y005411D02*
X005331Y005411D01*
X005172Y005252D02*
X005000Y005252D01*
X004408Y005252D02*
X004254Y005252D01*
X004254Y005094D02*
X004298Y005094D01*
X004267Y004935D02*
X004254Y004935D01*
X004254Y004777D02*
X004294Y004777D01*
X004254Y004618D02*
X004398Y004618D01*
X004254Y004460D02*
X004704Y004460D01*
X004457Y004301D02*
X004254Y004301D01*
X004254Y004143D02*
X004319Y004143D01*
X004267Y003984D02*
X004254Y003984D01*
X004254Y003826D02*
X004274Y003826D01*
X004320Y003667D02*
X004349Y003667D01*
X004479Y003509D02*
X004579Y003509D01*
X004829Y003509D02*
X005267Y003509D01*
X005267Y003350D02*
X004832Y003350D01*
X005059Y003667D02*
X005329Y003667D01*
X005516Y003826D02*
X005134Y003826D01*
X005141Y003984D02*
X005597Y003984D01*
X005668Y003973D01*
X005695Y003973D01*
X005695Y004421D01*
X005247Y004421D01*
X005247Y004394D01*
X005258Y004323D01*
X005280Y004255D01*
X005313Y004190D01*
X005355Y004132D01*
X005406Y004081D01*
X005464Y004039D01*
X005528Y004006D01*
X005597Y003984D01*
X005695Y003984D02*
X005712Y003984D01*
X005695Y004143D02*
X005712Y004143D01*
X005695Y004301D02*
X005712Y004301D01*
X005695Y004460D02*
X005712Y004460D01*
X005247Y004460D02*
X005237Y004460D01*
X005265Y004301D02*
X005204Y004301D01*
X005204Y004143D02*
X005348Y004143D01*
X005695Y004618D02*
X005712Y004618D01*
X005695Y004777D02*
X005712Y004777D01*
X005562Y004935D02*
X006454Y004935D01*
X006454Y004777D02*
X006004Y004777D01*
X006121Y004618D02*
X006454Y004618D01*
X006954Y004618D02*
X008212Y004618D01*
X007898Y004777D02*
X006954Y004777D01*
X006954Y004935D02*
X007803Y004935D01*
X007794Y005094D02*
X006954Y005094D01*
X006954Y005252D02*
X007867Y005252D01*
X008250Y005380D02*
X008395Y005380D01*
X008450Y005325D01*
X008582Y005270D01*
X008725Y005270D01*
X008858Y005325D01*
X008959Y005426D01*
X009014Y005558D01*
X009014Y005702D01*
X008959Y005834D01*
X008858Y005935D01*
X008760Y005976D01*
X008933Y006022D01*
X009217Y006186D01*
X009448Y006417D01*
X009612Y006700D01*
X009696Y007016D01*
X009696Y007344D01*
X009612Y007660D01*
X009448Y007943D01*
X009217Y008174D01*
X008933Y008338D01*
X008617Y008423D01*
X008290Y008423D01*
X007974Y008338D01*
X007691Y008174D01*
X007459Y007943D01*
X007296Y007660D01*
X007211Y007344D01*
X007211Y007016D01*
X007296Y006700D01*
X007459Y006417D01*
X007691Y006186D01*
X007974Y006022D01*
X008290Y005937D01*
X008455Y005937D01*
X008450Y005935D01*
X008395Y005880D01*
X006954Y005880D01*
X006954Y011576D01*
X007245Y011868D01*
X007299Y011921D01*
X007464Y011990D01*
X007594Y012119D01*
X007664Y012288D01*
X007664Y013071D01*
X007594Y013241D01*
X007464Y013370D01*
X007295Y013440D01*
X007112Y013440D01*
X006943Y013370D01*
X006814Y013241D01*
X006744Y013071D01*
X006744Y012288D01*
X006807Y012137D01*
X006492Y011822D01*
X006462Y011751D02*
X006454Y011751D01*
X006454Y011592D02*
X006454Y011592D01*
X006454Y011434D02*
X006454Y011434D01*
X006454Y011275D02*
X006454Y011275D01*
X006454Y011117D02*
X006454Y011117D01*
X006454Y010958D02*
X006454Y010958D01*
X006954Y010958D02*
X008722Y010958D01*
X008564Y011117D02*
X006954Y011117D01*
X006954Y011275D02*
X008405Y011275D01*
X008247Y011434D02*
X006954Y011434D01*
X006969Y011592D02*
X008088Y011592D01*
X007966Y011751D02*
X007128Y011751D01*
X007286Y011909D02*
X007954Y011909D01*
X007866Y012068D02*
X007542Y012068D01*
X007638Y012226D02*
X007770Y012226D01*
X007744Y012385D02*
X007664Y012385D01*
X007664Y012543D02*
X007744Y012543D01*
X007744Y012702D02*
X007664Y012702D01*
X007664Y012860D02*
X007744Y012860D01*
X007744Y013019D02*
X007664Y013019D01*
X007620Y013177D02*
X007787Y013177D01*
X007909Y013336D02*
X007499Y013336D01*
X006909Y013336D02*
X006499Y013336D01*
X006620Y013177D02*
X006787Y013177D01*
X006744Y013019D02*
X006664Y013019D01*
X006664Y012860D02*
X006744Y012860D01*
X006744Y012702D02*
X006664Y012702D01*
X006664Y012543D02*
X006744Y012543D01*
X006744Y012385D02*
X006664Y012385D01*
X006638Y012226D02*
X006770Y012226D01*
X006738Y012068D02*
X006542Y012068D01*
X008478Y011909D02*
X009174Y011909D01*
X009064Y011751D02*
X008637Y011751D01*
X008795Y011592D02*
X009044Y011592D01*
X009096Y011434D02*
X008954Y011434D01*
X009112Y011275D02*
X009320Y011275D01*
X009271Y011117D02*
X009564Y011117D01*
X009429Y010958D02*
X009722Y010958D01*
X010271Y011117D02*
X016094Y011117D01*
X016094Y011275D02*
X010112Y011275D01*
X009954Y011434D02*
X016094Y011434D01*
X016094Y011592D02*
X009795Y011592D01*
X009744Y011751D02*
X016094Y011751D01*
X016094Y011909D02*
X009634Y011909D01*
X008638Y012226D02*
X016094Y012226D01*
X016094Y012068D02*
X008542Y012068D01*
X008664Y012385D02*
X016094Y012385D01*
X016094Y012543D02*
X008664Y012543D01*
X008664Y012702D02*
X016094Y012702D01*
X016094Y012860D02*
X008664Y012860D01*
X008664Y013019D02*
X016094Y013019D01*
X016094Y013177D02*
X008620Y013177D01*
X008499Y013336D02*
X016094Y013336D01*
X016094Y010958D02*
X010429Y010958D01*
X010588Y010800D02*
X016094Y010800D01*
X016094Y010641D02*
X010746Y010641D01*
X010198Y010483D02*
X010197Y010483D01*
X010039Y010641D02*
X009746Y010641D01*
X009881Y010800D02*
X009588Y010800D01*
X009198Y010483D02*
X006954Y010483D01*
X006954Y010641D02*
X009039Y010641D01*
X008881Y010800D02*
X006954Y010800D01*
X006454Y010800D02*
X006454Y010800D01*
X006454Y010641D02*
X006454Y010641D01*
X006454Y010483D02*
X006454Y010483D01*
X006454Y010324D02*
X006454Y010324D01*
X006454Y010166D02*
X006454Y010166D01*
X006454Y010007D02*
X006454Y010007D01*
X006454Y009849D02*
X006454Y009849D01*
X006454Y009690D02*
X006454Y009690D01*
X006454Y009532D02*
X006454Y009532D01*
X006454Y009373D02*
X006454Y009373D01*
X006954Y009373D02*
X008673Y009373D01*
X008796Y009532D02*
X006954Y009532D01*
X006954Y009690D02*
X009698Y009690D01*
X009539Y009849D02*
X006954Y009849D01*
X006954Y010007D02*
X009497Y010007D01*
X009497Y010166D02*
X006954Y010166D01*
X006954Y010324D02*
X009356Y010324D01*
X010356Y010324D02*
X010356Y010324D01*
X010411Y010166D02*
X010497Y010166D01*
X010497Y010007D02*
X010411Y010007D01*
X010539Y009849D02*
X010539Y009849D01*
X010697Y009690D02*
X010698Y009690D01*
X010149Y009532D02*
X009211Y009532D01*
X009334Y009373D02*
X010307Y009373D01*
X010466Y009215D02*
X009373Y009215D01*
X009531Y009056D02*
X010504Y009056D01*
X010504Y008898D02*
X009690Y008898D01*
X009848Y008739D02*
X010504Y008739D01*
X010504Y008581D02*
X010007Y008581D01*
X010165Y008422D02*
X010504Y008422D01*
X010504Y008264D02*
X010204Y008264D01*
X010204Y008105D02*
X010504Y008105D01*
X010504Y007947D02*
X010204Y007947D01*
X010204Y007788D02*
X010504Y007788D01*
X010504Y007630D02*
X010204Y007630D01*
X010204Y007471D02*
X010504Y007471D01*
X010504Y007313D02*
X010204Y007313D01*
X010204Y007154D02*
X010504Y007154D01*
X010504Y006996D02*
X010204Y006996D01*
X010204Y006837D02*
X010504Y006837D01*
X010504Y006679D02*
X010204Y006679D01*
X010204Y006520D02*
X010504Y006520D01*
X010504Y006362D02*
X010204Y006362D01*
X010204Y006203D02*
X010504Y006203D01*
X010504Y006045D02*
X010204Y006045D01*
X010204Y005886D02*
X010504Y005886D01*
X010504Y005728D02*
X010204Y005728D01*
X010204Y005569D02*
X010504Y005569D01*
X010504Y005411D02*
X010204Y005411D01*
X010204Y005252D02*
X010578Y005252D01*
X010548Y005094D02*
X010204Y005094D01*
X010302Y004935D02*
X010517Y004935D01*
X010544Y004777D02*
X010461Y004777D01*
X010619Y004618D02*
X010648Y004618D01*
X010870Y004367D02*
X011041Y004367D01*
X011201Y004301D01*
X011339Y004143D02*
X011623Y004143D01*
X012285Y004143D02*
X012404Y004143D01*
X012404Y004301D02*
X012374Y004301D01*
X012391Y004460D02*
X012404Y004460D01*
X012904Y004460D02*
X013895Y004460D01*
X014021Y004386D02*
X013766Y004534D01*
X013558Y004742D01*
X013410Y004998D01*
X013334Y005283D01*
X013334Y005577D01*
X013410Y005862D01*
X013558Y006118D01*
X013766Y006326D01*
X014021Y006474D01*
X014306Y006550D01*
X014601Y006550D01*
X014886Y006474D01*
X015141Y006326D01*
X015350Y006118D01*
X015497Y005862D01*
X015574Y005577D01*
X015574Y005283D01*
X015497Y004998D01*
X015350Y004742D01*
X015141Y004534D01*
X014886Y004386D01*
X014601Y004310D01*
X014306Y004310D01*
X014021Y004386D01*
X013682Y004618D02*
X012904Y004618D01*
X012904Y004777D02*
X013538Y004777D01*
X013446Y004935D02*
X012902Y004935D01*
X012794Y005094D02*
X013384Y005094D01*
X013342Y005252D02*
X012635Y005252D01*
X012477Y005411D02*
X013334Y005411D01*
X013334Y005569D02*
X012394Y005569D01*
X012530Y005728D02*
X013374Y005728D01*
X013424Y005886D02*
X012564Y005886D01*
X012525Y006045D02*
X013515Y006045D01*
X013643Y006203D02*
X012454Y006203D01*
X012454Y006362D02*
X013827Y006362D01*
X014194Y006520D02*
X012454Y006520D01*
X012454Y006679D02*
X016094Y006679D01*
X016094Y006837D02*
X012454Y006837D01*
X012454Y006996D02*
X016094Y006996D01*
X016094Y007154D02*
X012454Y007154D01*
X012454Y007313D02*
X016094Y007313D01*
X016094Y007471D02*
X012454Y007471D01*
X012607Y007630D02*
X016094Y007630D01*
X016094Y007788D02*
X012765Y007788D01*
X012924Y007947D02*
X016094Y007947D01*
X016094Y008105D02*
X013082Y008105D01*
X013241Y008264D02*
X016094Y008264D01*
X016094Y008422D02*
X013399Y008422D01*
X013558Y008581D02*
X016094Y008581D01*
X016094Y008739D02*
X013716Y008739D01*
X013875Y008898D02*
X016094Y008898D01*
X016094Y009056D02*
X014033Y009056D01*
X014192Y009215D02*
X016094Y009215D01*
X016094Y009373D02*
X014350Y009373D01*
X014509Y009532D02*
X016094Y009532D01*
X016094Y009690D02*
X015960Y009690D01*
X015448Y009690D02*
X014960Y009690D01*
X015118Y009849D02*
X015289Y009849D01*
X015247Y010007D02*
X015161Y010007D01*
X015161Y010166D02*
X015247Y010166D01*
X015302Y010324D02*
X015106Y010324D01*
X014947Y010483D02*
X015460Y010483D01*
X015947Y010483D02*
X016094Y010483D01*
X014460Y010483D02*
X013947Y010483D01*
X013893Y010537D02*
X013515Y010537D01*
X013247Y010269D01*
X013247Y009891D01*
X013515Y009623D01*
X013893Y009623D01*
X014161Y009891D01*
X014161Y010269D01*
X013893Y010537D01*
X013460Y010483D02*
X012197Y010483D01*
X012143Y010537D02*
X011765Y010537D01*
X011497Y010269D01*
X011497Y009891D01*
X011765Y009623D01*
X012143Y009623D01*
X012411Y009891D01*
X012411Y010269D01*
X012143Y010537D01*
X011710Y010483D02*
X011197Y010483D01*
X011356Y010324D02*
X011552Y010324D01*
X011497Y010166D02*
X011411Y010166D01*
X011411Y010007D02*
X011497Y010007D01*
X011539Y009849D02*
X011368Y009849D01*
X011304Y009690D02*
X011698Y009690D01*
X011304Y009532D02*
X013802Y009532D01*
X013960Y009690D02*
X013960Y009690D01*
X014118Y009849D02*
X014119Y009849D01*
X014161Y010007D02*
X014247Y010007D01*
X014247Y010166D02*
X014161Y010166D01*
X014106Y010324D02*
X014302Y010324D01*
X013302Y010324D02*
X012356Y010324D01*
X012411Y010166D02*
X013247Y010166D01*
X013247Y010007D02*
X012411Y010007D01*
X012368Y009849D02*
X013289Y009849D01*
X013448Y009690D02*
X012210Y009690D01*
X011304Y009373D02*
X013643Y009373D01*
X013485Y009215D02*
X011304Y009215D01*
X011304Y009056D02*
X013326Y009056D01*
X013168Y008898D02*
X011304Y008898D01*
X011304Y008739D02*
X013009Y008739D01*
X012851Y008581D02*
X011304Y008581D01*
X011304Y008422D02*
X012692Y008422D01*
X012534Y008264D02*
X011304Y008264D01*
X011304Y008105D02*
X012375Y008105D01*
X012217Y007947D02*
X011304Y007947D01*
X011304Y007788D02*
X012058Y007788D01*
X011954Y007630D02*
X011304Y007630D01*
X011304Y007471D02*
X011954Y007471D01*
X011954Y007313D02*
X011304Y007313D01*
X011304Y007154D02*
X011954Y007154D01*
X011954Y006996D02*
X011304Y006996D01*
X011304Y006837D02*
X011954Y006837D01*
X011954Y006679D02*
X011304Y006679D01*
X011367Y006520D02*
X011954Y006520D01*
X011954Y006362D02*
X011526Y006362D01*
X011684Y006203D02*
X011954Y006203D01*
X011882Y006045D02*
X011843Y006045D01*
X011294Y005886D02*
X011004Y005886D01*
X011004Y005728D02*
X011453Y005728D01*
X011611Y005569D02*
X011004Y005569D01*
X011127Y005411D02*
X011770Y005411D01*
X011928Y005252D02*
X011250Y005252D01*
X011359Y005094D02*
X012087Y005094D01*
X012245Y004935D02*
X011391Y004935D01*
X011363Y004777D02*
X011682Y004777D01*
X011558Y004618D02*
X011260Y004618D01*
X012226Y004777D02*
X012404Y004777D01*
X012404Y004618D02*
X012349Y004618D01*
X012904Y004301D02*
X016094Y004301D01*
X016094Y004143D02*
X012904Y004143D01*
X012904Y003984D02*
X016094Y003984D01*
X016094Y003826D02*
X012904Y003826D01*
X012904Y003667D02*
X016094Y003667D01*
X016094Y003509D02*
X012904Y003509D01*
X012904Y003350D02*
X016094Y003350D01*
X016094Y003192D02*
X012904Y003192D01*
X012884Y003033D02*
X016094Y003033D01*
X016094Y002875D02*
X012752Y002875D01*
X012593Y002716D02*
X016094Y002716D01*
X016094Y002558D02*
X012435Y002558D01*
X012391Y002399D02*
X016094Y002399D01*
X016094Y002241D02*
X012348Y002241D01*
X012224Y002082D02*
X016094Y002082D01*
X016094Y001924D02*
X014973Y001924D01*
X015203Y001765D02*
X016094Y001765D01*
X016094Y001607D02*
X015356Y001607D01*
X015448Y001448D02*
X016094Y001448D01*
X016094Y001290D02*
X015517Y001290D01*
X015559Y001131D02*
X016094Y001131D01*
X016094Y000973D02*
X015574Y000973D01*
X015574Y000814D02*
X016094Y000814D01*
X013551Y001607D02*
X012354Y001607D01*
X012391Y001448D02*
X013460Y001448D01*
X013391Y001290D02*
X012369Y001290D01*
X012273Y001131D02*
X013348Y001131D01*
X013334Y000973D02*
X011850Y000973D01*
X011691Y000814D02*
X013334Y000814D01*
X011517Y001448D02*
X010204Y001448D01*
X010204Y001607D02*
X010631Y001607D01*
X010605Y001632D02*
X010656Y001581D01*
X010714Y001539D01*
X010778Y001506D01*
X010847Y001484D01*
X010918Y001473D01*
X010945Y001473D01*
X010945Y001921D01*
X010962Y001921D01*
X010962Y001473D01*
X010990Y001473D01*
X011061Y001484D01*
X011129Y001506D01*
X011193Y001539D01*
X011252Y001581D01*
X011302Y001632D01*
X011345Y001690D01*
X011377Y001755D01*
X011400Y001823D01*
X011411Y001894D01*
X011411Y001921D01*
X010962Y001921D01*
X010962Y001939D01*
X010945Y001939D01*
X010945Y002387D01*
X010918Y002387D01*
X010847Y002376D01*
X010778Y002354D01*
X010714Y002321D01*
X010656Y002279D01*
X010605Y002228D01*
X010563Y002170D01*
X010530Y002105D01*
X010508Y002037D01*
X010497Y001966D01*
X010497Y001939D01*
X010945Y001939D01*
X010945Y001921D01*
X010497Y001921D01*
X010497Y001894D01*
X010508Y001823D01*
X010530Y001755D01*
X010563Y001690D01*
X010605Y001632D01*
X010527Y001765D02*
X010204Y001765D01*
X010204Y001924D02*
X010945Y001924D01*
X010962Y001924D02*
X013935Y001924D01*
X013705Y001765D02*
X012237Y001765D01*
X011671Y001765D02*
X011381Y001765D01*
X011411Y001939D02*
X010962Y001939D01*
X010962Y002387D01*
X010990Y002387D01*
X011061Y002376D01*
X011129Y002354D01*
X011193Y002321D01*
X011252Y002279D01*
X011302Y002228D01*
X011345Y002170D01*
X011377Y002105D01*
X011400Y002037D01*
X011411Y001966D01*
X011411Y001939D01*
X011385Y002082D02*
X011684Y002082D01*
X011559Y002241D02*
X011290Y002241D01*
X011517Y002399D02*
X010204Y002399D01*
X010204Y002241D02*
X010618Y002241D01*
X010522Y002082D02*
X010204Y002082D01*
X009704Y002082D02*
X009696Y002082D01*
X009696Y002241D02*
X009704Y002241D01*
X009704Y002399D02*
X009682Y002399D01*
X009704Y002558D02*
X009639Y002558D01*
X009579Y002716D02*
X009704Y002716D01*
X009704Y002875D02*
X009488Y002875D01*
X010204Y002875D02*
X010506Y002875D01*
X010569Y002716D02*
X010204Y002716D01*
X010204Y002558D02*
X010711Y002558D01*
X010945Y002241D02*
X010962Y002241D01*
X010945Y002082D02*
X010962Y002082D01*
X010945Y001765D02*
X010962Y001765D01*
X010945Y001607D02*
X010962Y001607D01*
X011277Y001607D02*
X011554Y001607D01*
X011460Y001290D02*
X010204Y001290D01*
X009704Y001290D02*
X009321Y001290D01*
X009122Y001131D02*
X009704Y001131D01*
X009704Y000973D02*
X008749Y000973D01*
X009731Y000814D02*
X003324Y000814D01*
X007168Y002241D02*
X007211Y002241D01*
X007254Y002558D02*
X007268Y002558D01*
X007254Y002716D02*
X007328Y002716D01*
X007352Y002875D02*
X007420Y002875D01*
X008276Y003667D02*
X009163Y003667D01*
X009005Y003826D02*
X008314Y003826D01*
X008280Y003984D02*
X008846Y003984D01*
X008688Y004143D02*
X008140Y004143D01*
X008771Y004767D02*
X008514Y005024D01*
X008514Y005102D01*
X008459Y005234D01*
X008358Y005335D01*
X008250Y005380D01*
X008441Y005252D02*
X009704Y005252D01*
X009704Y005094D02*
X008514Y005094D01*
X008602Y004935D02*
X008900Y004935D01*
X008799Y004834D01*
X008771Y004767D01*
X008775Y004777D02*
X008761Y004777D01*
X008900Y004935D02*
X009032Y004990D01*
X009175Y004990D01*
X009308Y004935D01*
X008943Y005411D02*
X009704Y005411D01*
X009704Y005569D02*
X009014Y005569D01*
X009003Y005728D02*
X009704Y005728D01*
X009704Y005886D02*
X008907Y005886D01*
X008972Y006045D02*
X009704Y006045D01*
X009704Y006203D02*
X009234Y006203D01*
X009393Y006362D02*
X009704Y006362D01*
X009704Y006520D02*
X009508Y006520D01*
X009599Y006679D02*
X009704Y006679D01*
X009704Y006837D02*
X009648Y006837D01*
X009691Y006996D02*
X009704Y006996D01*
X009696Y007154D02*
X009704Y007154D01*
X009696Y007313D02*
X009704Y007313D01*
X009704Y007471D02*
X009662Y007471D01*
X009620Y007630D02*
X009704Y007630D01*
X009704Y007788D02*
X009538Y007788D01*
X009445Y007947D02*
X009704Y007947D01*
X009704Y008105D02*
X009286Y008105D01*
X009062Y008264D02*
X009617Y008264D01*
X009458Y008422D02*
X008620Y008422D01*
X008288Y008422D02*
X006954Y008422D01*
X006954Y008264D02*
X007845Y008264D01*
X007621Y008105D02*
X006954Y008105D01*
X006954Y007947D02*
X007463Y007947D01*
X007370Y007788D02*
X006954Y007788D01*
X006454Y007788D02*
X006454Y007788D01*
X006454Y007947D02*
X006454Y007947D01*
X006454Y008105D02*
X006454Y008105D01*
X006454Y008264D02*
X006454Y008264D01*
X006454Y008422D02*
X006454Y008422D01*
X006454Y008581D02*
X006454Y008581D01*
X006454Y008739D02*
X006454Y008739D01*
X006454Y008898D02*
X006454Y008898D01*
X006454Y009056D02*
X006454Y009056D01*
X006454Y009215D02*
X006454Y009215D01*
X006954Y009215D02*
X008644Y009215D01*
X008686Y009056D02*
X006954Y009056D01*
X006954Y008898D02*
X008866Y008898D01*
X009141Y008739D02*
X006954Y008739D01*
X006954Y008581D02*
X009300Y008581D01*
X007288Y007630D02*
X006954Y007630D01*
X006954Y007471D02*
X007245Y007471D01*
X007211Y007313D02*
X006954Y007313D01*
X006954Y007154D02*
X007211Y007154D01*
X007217Y006996D02*
X006954Y006996D01*
X006954Y006837D02*
X007259Y006837D01*
X007308Y006679D02*
X006954Y006679D01*
X006954Y006520D02*
X007400Y006520D01*
X007515Y006362D02*
X006954Y006362D01*
X006954Y006203D02*
X007673Y006203D01*
X007935Y006045D02*
X006954Y006045D01*
X006954Y005886D02*
X008401Y005886D01*
X006454Y005886D02*
X006454Y005886D01*
X006454Y005728D02*
X006355Y005728D01*
X006454Y005569D02*
X006196Y005569D01*
X006038Y005411D02*
X006454Y005411D01*
X006454Y005252D02*
X005879Y005252D01*
X005721Y005094D02*
X006454Y005094D01*
X006454Y006045D02*
X006454Y006045D01*
X006454Y006203D02*
X006454Y006203D01*
X006454Y006362D02*
X006454Y006362D01*
X006454Y006520D02*
X006454Y006520D01*
X006454Y006679D02*
X006454Y006679D01*
X006454Y006837D02*
X006454Y006837D01*
X006454Y006996D02*
X006454Y006996D01*
X006454Y007154D02*
X006454Y007154D01*
X006454Y007313D02*
X006454Y007313D01*
X006454Y007471D02*
X006454Y007471D01*
X006454Y007630D02*
X006454Y007630D01*
X011004Y006045D02*
X011136Y006045D01*
X014713Y006520D02*
X016094Y006520D01*
X016094Y006362D02*
X015080Y006362D01*
X015265Y006203D02*
X016094Y006203D01*
X016094Y006045D02*
X015392Y006045D01*
X015484Y005886D02*
X016094Y005886D01*
X016094Y005728D02*
X015534Y005728D01*
X015574Y005569D02*
X016094Y005569D01*
X016094Y005411D02*
X015574Y005411D01*
X015566Y005252D02*
X016094Y005252D01*
X016094Y005094D02*
X015523Y005094D01*
X015461Y004935D02*
X016094Y004935D01*
X016094Y004777D02*
X015370Y004777D01*
X015226Y004618D02*
X016094Y004618D01*
X016094Y004460D02*
X015013Y004460D01*
X012045Y002875D02*
X011391Y002875D01*
X011338Y002716D02*
X011622Y002716D01*
X011533Y002558D02*
X011197Y002558D01*
X009704Y001924D02*
X009672Y001924D01*
X009704Y001765D02*
X009629Y001765D01*
X009558Y001607D02*
X009704Y001607D01*
X009704Y001448D02*
X009466Y001448D01*
X001645Y004460D02*
X000684Y004460D01*
X000684Y004618D02*
X001432Y004618D01*
X001288Y004777D02*
X000684Y004777D01*
X000684Y004935D02*
X001196Y004935D01*
X001134Y005094D02*
X000684Y005094D01*
X000684Y005252D02*
X001092Y005252D01*
X001084Y005411D02*
X000684Y005411D01*
X000684Y005569D02*
X001084Y005569D01*
X001124Y005728D02*
X000684Y005728D01*
X000684Y005886D02*
X001174Y005886D01*
X001265Y006045D02*
X000684Y006045D01*
X000684Y006203D02*
X001393Y006203D01*
X001577Y006362D02*
X000684Y006362D01*
X000684Y006520D02*
X001944Y006520D01*
D14*
X005154Y004880D02*
X006204Y005930D01*
X006204Y012680D01*
X007204Y012680D02*
X007204Y012230D01*
X007104Y012130D01*
X007104Y012080D01*
X006704Y011680D01*
X006704Y005630D01*
X008654Y005630D01*
X008154Y005030D02*
X009954Y003230D01*
X009954Y000930D01*
X011454Y000930D01*
X011954Y001430D01*
X011954Y002430D02*
X012654Y003130D01*
X012654Y004880D01*
X011054Y006480D01*
X011054Y009830D01*
X010954Y009930D01*
X010954Y010080D01*
X009404Y011630D01*
X008204Y011830D02*
X008204Y012680D01*
X008204Y011830D02*
X009954Y010080D01*
X010754Y009280D01*
X010754Y005430D01*
X010954Y005230D01*
X010954Y004930D01*
X009954Y004930D02*
X010954Y003930D01*
X010804Y002930D02*
X009104Y004630D01*
X009954Y004930D02*
X009954Y008280D01*
X009004Y009230D01*
X012204Y007580D02*
X012204Y005880D01*
X012204Y007580D02*
X014704Y010080D01*
X004204Y011880D02*
X004004Y011680D01*
X004004Y003630D01*
X004704Y002930D01*
X005254Y002630D02*
X005504Y002880D01*
X006704Y002880D01*
X006704Y005630D01*
X005154Y004880D02*
X005154Y004730D01*
X004954Y004530D01*
X004954Y004180D01*
X004704Y003930D01*
X007004Y002880D02*
X007954Y003830D01*
X007004Y002880D02*
X007004Y002430D01*
X005704Y002430D01*
X005254Y002480D02*
X005254Y002630D01*
X005254Y002480D02*
X004704Y001930D01*
X010804Y002930D02*
X010954Y002930D01*
X004204Y011880D02*
X004204Y012680D01*
D15*
X009404Y011630D03*
X009004Y009230D03*
X012204Y005880D03*
X009104Y004630D03*
X008154Y005030D03*
X008654Y005630D03*
X007954Y003830D03*
D16*
X008454Y002180D03*
X008454Y007180D03*
M02*
