%
M48
M72
T01C0.0240
T02C0.0354
T03C0.0394
T04C0.0400
T05C0.1260
T06C0.1280
%
T01
X7954Y3830
X9104Y4630
X8154Y5030
X8654Y5630
X12204Y5880
X9004Y9230
X9404Y11630
T02
X10954Y4930
X11954Y4430
X10954Y3930
X11954Y3430
X10954Y2930
X11954Y2430
X10954Y1930
X11954Y1430
X5704Y1430
X4704Y1930
X5704Y2430
X4704Y2930
X5704Y3430
X4704Y3930
X5704Y4430
X4704Y4930
T03
X9954Y10080
X10954Y10080
X11954Y10080
X13704Y10080
X14704Y10080
X15704Y10080
T04
X8204Y12680
X7204Y12680
X6204Y12680
X5204Y12680
X4204Y12680
X3204Y12680
X2204Y12680
X1204Y12680
T05
X8454Y7180
X8454Y2180
T06
X2204Y930
X2204Y5430
X14454Y5430
X14454Y930
M30
