G75*
%MOIN*%
%OFA0B0*%
%FSLAX24Y24*%
%IPPOS*%
%LPD*%
%AMOC8*
5,1,8,0,0,1.08239X$1,22.5*
%
%ADD10C,0.0634*%
%ADD11C,0.1360*%
%ADD12C,0.0680*%
%ADD13OC8,0.0674*%
%ADD14C,0.0480*%
%ADD15C,0.2245*%
D10*
X004704Y001930D03*
X005704Y002430D03*
X004704Y002930D03*
X005704Y003430D03*
X004704Y003930D03*
X005704Y004430D03*
X004704Y004930D03*
X010954Y004930D03*
X011954Y004430D03*
X010954Y003930D03*
X011954Y003430D03*
X010954Y002930D03*
X011954Y002430D03*
X010954Y001930D03*
X011954Y001430D03*
X005704Y001430D03*
D11*
X002204Y000930D03*
X002204Y005430D03*
X014454Y005430D03*
X014454Y000930D03*
D12*
X008204Y012380D02*
X008204Y012980D01*
X007204Y012980D02*
X007204Y012380D01*
X006204Y012380D02*
X006204Y012980D01*
X005204Y012980D02*
X005204Y012380D01*
X004204Y012380D02*
X004204Y012980D01*
X003204Y012980D02*
X003204Y012380D01*
X002204Y012380D02*
X002204Y012980D01*
X001204Y012980D02*
X001204Y012380D01*
D13*
X009954Y010080D03*
X010954Y010080D03*
X011954Y010080D03*
X013704Y010080D03*
X014704Y010080D03*
X015704Y010080D03*
D14*
X009404Y011630D03*
X009004Y009230D03*
X012204Y005880D03*
X009104Y004630D03*
X008154Y005030D03*
X008654Y005630D03*
X007954Y003830D03*
D15*
X008454Y002180D03*
X008454Y007180D03*
M02*
