  0
SECTION
  2
HEADER
  9
$ACADVER
  1
AC1024
  9
$ACADMAINTVER
 70
     6
  9
$DWGCODEPAGE
  3
ANSI_1252
  9
$INSBASE
 10
0.0
 20
0.0
 30
0.0
  9
$EXTMIN
 10
1.000000000000000E+20
 20
1.000000000000000E+20
 30
1.000000000000000E+20
  9
$EXTMAX
 10
-1.000000000000000E+20
 20
-1.000000000000000E+20
 30
-1.000000000000000E+20
  9
$LIMMIN
 10
0.0
 20
0.0
  9
$LIMMAX
 10
12.0
 20
9.0
  9
$ORTHOMODE
 70
     0
  9
$REGENMODE
 70
     1
  9
$FILLMODE
 70
     1
  9
$QTEXTMODE
 70
     0
  9
$MIRRTEXT
 70
     1
  9
$LTSCALE
 40
1.0
  9
$ATTMODE
 70
     1
  9
$TEXTSIZE
 40
0.2
  9
$TRACEWID
 40
0.05
  9
$TEXTSTYLE
  7
Standard
  9
$CLAYER
  8
0
  9
$CELTYPE
  6
ByLayer
  9
$CECOLOR
 62
   256
  9
$CELTSCALE
 40
1.0
  9
$DISPSILH
 70
     0
  9
$DIMSCALE
 40
1.0
  9
$DIMASZ
 40
0.18
  9
$DIMEXO
 40
0.0625
  9
$DIMDLI
 40
0.38
  9
$DIMRND
 40
0.0
  9
$DIMDLE
 40
0.0
  9
$DIMEXE
 40
0.18
  9
$DIMTP
 40
0.0
  9
$DIMTM
 40
0.0
  9
$DIMTXT
 40
0.18
  9
$DIMCEN
 40
0.09
  9
$DIMTSZ
 40
0.0
  9
$DIMTOL
 70
     0
  9
$DIMLIM
 70
     0
  9
$DIMTIH
 70
     1
  9
$DIMTOH
 70
     1
  9
$DIMSE1
 70
     0
  9
$DIMSE2
 70
     0
  9
$DIMTAD
 70
     0
  9
$DIMZIN
 70
     0
  9
$DIMBLK
  1

  9
$DIMASO
 70
     1
  9
$DIMSHO
 70
     1
  9
$DIMPOST
  1

  9
$DIMAPOST
  1

  9
$DIMALT
 70
     0
  9
$DIMALTD
 70
     2
  9
$DIMALTF
 40
25.4
  9
$DIMLFAC
 40
1.0
  9
$DIMTOFL
 70
     0
  9
$DIMTVP
 40
0.0
  9
$DIMTIX
 70
     0
  9
$DIMSOXD
 70
     0
  9
$DIMSAH
 70
     0
  9
$DIMBLK1
  1

  9
$DIMBLK2
  1

  9
$DIMSTYLE
  2
Standard
  9
$DIMCLRD
 70
     0
  9
$DIMCLRE
 70
     0
  9
$DIMCLRT
 70
     0
  9
$DIMTFAC
 40
1.0
  9
$DIMGAP
 40
0.09
  9
$DIMJUST
 70
     0
  9
$DIMSD1
 70
     0
  9
$DIMSD2
 70
     0
  9
$DIMTOLJ
 70
     1
  9
$DIMTZIN
 70
     0
  9
$DIMALTZ
 70
     0
  9
$DIMALTTZ
 70
     0
  9
$DIMUPT
 70
     0
  9
$DIMDEC
 70
     4
  9
$DIMTDEC
 70
     4
  9
$DIMALTU
 70
     2
  9
$DIMALTTD
 70
     2
  9
$DIMTXSTY
  7
Standard
  9
$DIMAUNIT
 70
     0
  9
$DIMADEC
 70
     0
  9
$DIMALTRND
 40
0.0
  9
$DIMAZIN
 70
     0
  9
$DIMDSEP
 70
    46
  9
$DIMATFIT
 70
     3
  9
$DIMFRAC
 70
     0
  9
$DIMLDRBLK
  1

  9
$DIMLUNIT
 70
     2
  9
$DIMLWD
 70
    -2
  9
$DIMLWE
 70
    -2
  9
$DIMTMOVE
 70
     0
  9
$DIMFXL
 40
1.0
  9
$DIMFXLON
 70
     0
  9
$DIMJOGANG
 40
0.7853981633974483
  9
$DIMTFILL
 70
     0
  9
$DIMTFILLCLR
 70
     0
  9
$DIMARCSYM
 70
     0
  9
$DIMLTYPE
  6

  9
$DIMLTEX1
  6

  9
$DIMLTEX2
  6

  9
$DIMTXTDIRECTION
 70
     0
  9
$LUNITS
 70
     2
  9
$LUPREC
 70
     4
  9
$SKETCHINC
 40
0.1
  9
$FILLETRAD
 40
0.5
  9
$AUNITS
 70
     0
  9
$AUPREC
 70
     0
  9
$MENU
  1
.
  9
$ELEVATION
 40
0.0
  9
$PELEVATION
 40
0.0
  9
$THICKNESS
 40
0.0
  9
$LIMCHECK
 70
     0
  9
$CHAMFERA
 40
0.5
  9
$CHAMFERB
 40
0.5
  9
$CHAMFERC
 40
1.0
  9
$CHAMFERD
 40
0.0
  9
$SKPOLY
 70
     0
  9
$TDCREATE
 40
2458675.855800729
  9
$TDUCREATE
 40
2458675.814134062
  9
$TDUPDATE
 40
2458675.855800729
  9
$TDUUPDATE
 40
2458675.814134062
  9
$TDINDWG
 40
0.0000000116
  9
$TDUSRTIMER
 40
0.0000000116
  9
$USRTIMER
 70
     1
  9
$ANGBASE
 50
0.0
  9
$ANGDIR
 70
     0
  9
$PDMODE
 70
     0
  9
$PDSIZE
 40
0.0
  9
$PLINEWID
 40
0.0
  9
$SPLFRAME
 70
     0
  9
$SPLINETYPE
 70
     6
  9
$SPLINESEGS
 70
     8
  9
$HANDSEED
  5
2A0
  9
$SURFTAB1
 70
     6
  9
$SURFTAB2
 70
     6
  9
$SURFTYPE
 70
     6
  9
$SURFU
 70
     6
  9
$SURFV
 70
     6
  9
$UCSBASE
  2

  9
$UCSNAME
  2

  9
$UCSORG
 10
0.0
 20
0.0
 30
0.0
  9
$UCSXDIR
 10
1.0
 20
0.0
 30
0.0
  9
$UCSYDIR
 10
0.0
 20
1.0
 30
0.0
  9
$UCSORTHOREF
  2

  9
$UCSORTHOVIEW
 70
     0
  9
$UCSORGTOP
 10
0.0
 20
0.0
 30
0.0
  9
$UCSORGBOTTOM
 10
0.0
 20
0.0
 30
0.0
  9
$UCSORGLEFT
 10
0.0
 20
0.0
 30
0.0
  9
$UCSORGRIGHT
 10
0.0
 20
0.0
 30
0.0
  9
$UCSORGFRONT
 10
0.0
 20
0.0
 30
0.0
  9
$UCSORGBACK
 10
0.0
 20
0.0
 30
0.0
  9
$PUCSBASE
  2

  9
$PUCSNAME
  2

  9
$PUCSORG
 10
0.0
 20
0.0
 30
0.0
  9
$PUCSXDIR
 10
1.0
 20
0.0
 30
0.0
  9
$PUCSYDIR
 10
0.0
 20
1.0
 30
0.0
  9
$PUCSORTHOREF
  2

  9
$PUCSORTHOVIEW
 70
     0
  9
$PUCSORGTOP
 10
0.0
 20
0.0
 30
0.0
  9
$PUCSORGBOTTOM
 10
0.0
 20
0.0
 30
0.0
  9
$PUCSORGLEFT
 10
0.0
 20
0.0
 30
0.0
  9
$PUCSORGRIGHT
 10
0.0
 20
0.0
 30
0.0
  9
$PUCSORGFRONT
 10
0.0
 20
0.0
 30
0.0
  9
$PUCSORGBACK
 10
0.0
 20
0.0
 30
0.0
  9
$USERI1
 70
     0
  9
$USERI2
 70
     0
  9
$USERI3
 70
     0
  9
$USERI4
 70
     0
  9
$USERI5
 70
     0
  9
$USERR1
 40
0.0
  9
$USERR2
 40
0.0
  9
$USERR3
 40
0.0
  9
$USERR4
 40
0.0
  9
$USERR5
 40
0.0
  9
$WORLDVIEW
 70
     1
  9
$SHADEDGE
 70
     3
  9
$SHADEDIF
 70
    70
  9
$TILEMODE
 70
     1
  9
$MAXACTVP
 70
    64
  9
$PINSBASE
 10
0.0
 20
0.0
 30
0.0
  9
$PLIMCHECK
 70
     0
  9
$PEXTMIN
 10
1.000000000000000E+20
 20
1.000000000000000E+20
 30
1.000000000000000E+20
  9
$PEXTMAX
 10
-1.000000000000000E+20
 20
-1.000000000000000E+20
 30
-1.000000000000000E+20
  9
$PLIMMIN
 10
0.0
 20
0.0
  9
$PLIMMAX
 10
12.0
 20
9.0
  9
$UNITMODE
 70
     0
  9
$VISRETAIN
 70
     1
  9
$PLINEGEN
 70
     0
  9
$PSLTSCALE
 70
     1
  9
$TREEDEPTH
 70
  3020
  9
$CMLSTYLE
  2
Standard
  9
$CMLJUST
 70
     0
  9
$CMLSCALE
 40
1.0
  9
$PROXYGRAPHICS
 70
     1
  9
$MEASUREMENT
 70
     0
  9
$CELWEIGHT
370
    -1
  9
$ENDCAPS
280
     0
  9
$JOINSTYLE
280
     0
  9
$LWDISPLAY
290
     1
  9
$INSUNITS
 70
     1
  9
$HYPERLINKBASE
  1

  9
$STYLESHEET
  1

  9
$XEDIT
290
     1
  9
$CEPSNTYPE
380
     0
  9
$PSTYLEMODE
290
     1
  9
$FINGERPRINTGUID
  2
{19F6AE6C-A45A-416D-BDBA-2EF278A1ADB5}
  9
$VERSIONGUID
  2
{FAEB1C32-E019-11D5-929B-00C0DF256EC4}
  9
$EXTNAMES
290
     1
  9
$PSVPSCALE
 40
0.0
  9
$OLESTARTUP
290
     0
  9
$SORTENTS
280
   127
  9
$INDEXCTL
280
     0
  9
$HIDETEXT
280
     1
  9
$XCLIPFRAME
280
     2
  9
$HALOGAP
280
     0
  9
$OBSCOLOR
 70
   257
  9
$OBSLTYPE
280
     0
  9
$INTERSECTIONDISPLAY
280
     0
  9
$INTERSECTIONCOLOR
 70
   257
  9
$DIMASSOC
280
     2
  9
$PROJECTNAME
  1

  9
$CAMERADISPLAY
290
     0
  9
$LENSLENGTH
 40
50.0
  9
$CAMERAHEIGHT
 40
0.0
  9
$STEPSPERSEC
 40
2.0
  9
$STEPSIZE
 40
6.0
  9
$3DDWFPREC
 40
2.0
  9
$PSOLWIDTH
 40
0.25
  9
$PSOLHEIGHT
 40
4.0
  9
$LOFTANG1
 40
1.570796326794897
  9
$LOFTANG2
 40
1.570796326794897
  9
$LOFTMAG1
 40
0.0
  9
$LOFTMAG2
 40
0.0
  9
$LOFTPARAM
 70
     7
  9
$LOFTNORMALS
280
     1
  9
$LATITUDE
 40
37.795
  9
$LONGITUDE
 40
-122.394
  9
$NORTHDIRECTION
 40
0.0
  9
$TIMEZONE
 70
 -8000
  9
$LIGHTGLYPHDISPLAY
280
     1
  9
$TILEMODELIGHTSYNCH
280
     1
  9
$CMATERIAL
347
3C
  9
$SOLIDHIST
280
     1
  9
$SHOWHIST
280
     1
  9
$DWFFRAME
280
     2
  9
$DGNFRAME
280
     2
  9
$REALWORLDSCALE
290
     1
  9
$INTERFERECOLOR
 62
   256
  9
$CSHADOW
280
     0
  9
$SHADOWPLANELOCATION
 40
0.0
  0
ENDSEC
  0
SECTION
  2
CLASSES
  0
CLASS
  1
ACDBDICTIONARYWDFLT
  2
AcDbDictionaryWithDefault
  3
ObjectDBX Classes
 90
        0
 91
        4
280
     0
281
     0
  0
CLASS
  1
VISUALSTYLE
  2
AcDbVisualStyle
  3
ObjectDBX Classes
 90
     4095
 91
        4
280
     0
281
     0
  0
CLASS
  1
MATERIAL
  2
AcDbMaterial
  3
ObjectDBX Classes
 90
     1153
 91
        4
280
     0
281
     0
  0
CLASS
  1
SUN
  2
AcDbSun
  3
SCENEOE
 90
     1024
 91
        4
280
     0
281
     0
  0
ENDSEC
  0
SECTION
  2
TABLES
  0
TABLE
  2
VPORT
  5
8
330
0
100
AcDbSymbolTable
 70
     1
  0
VPORT
  5
29
330
8
100
AcDbSymbolTableRecord
100
AcDbViewportTableRecord
  2
*Active
 70
     0
 10
0.0
 20
0.0
 11
1.0
 21
1.0
 12
0.0
 22
0.0
 13
0.0
 23
0.0
 14
0.5
 24
0.5
 15
0.5
 25
0.5
 16
0.0
 26
0.0
 36
1.0
 17
64.99999998375448
 27
-34.99999999125103
 37
0.0
 40
69.99999998250206
 41
1.85714285714293
 42
50.0
 43
0.0
 44
0.0
 50
0.0
 51
0.0
 71
     0
 72
   100
 73
     1
 74
     3
 75
     0
 76
     0
 77
     0
 78
     0
281
     0
 65
     1
110
0.0
120
0.0
130
0.0
111
1.0
121
0.0
131
0.0
112
0.0
122
1.0
132
0.0
 79
     0
146
0.0
 60
     3
 61
     5
292
     1
282
     1
141
0.0
142
0.0
 63
   250
361
3F
  0
ENDTAB
  0
TABLE
  2
LTYPE
  5
5
330
0
100
AcDbSymbolTable
 70
     1
  0
LTYPE
  5
14
330
5
100
AcDbSymbolTableRecord
100
AcDbLinetypeTableRecord
  2
ByBlock
 70
     0
  3

 72
    65
 73
     0
 40
0.0
  0
LTYPE
  5
15
330
5
100
AcDbSymbolTableRecord
100
AcDbLinetypeTableRecord
  2
ByLayer
 70
     0
  3

 72
    65
 73
     0
 40
0.0
  0
LTYPE
  5
16
330
5
100
AcDbSymbolTableRecord
100
AcDbLinetypeTableRecord
  2
Continuous
 70
     0
  3
Solid line
 72
    65
 73
     0
 40
0.0
  0
ENDTAB
  0
TABLE
  2
LAYER
  5
2
330
0
100
AcDbSymbolTable
 70
     2
  0
LAYER
  5
10
330
2
100
AcDbSymbolTableRecord
100
AcDbLayerTableRecord
  2
0
 70
     0
 62
     7
  6
Continuous
370
    -3
390
F
347
3E
  0
LAYER
  5
40
330
2
100
AcDbSymbolTableRecord
100
AcDbLayerTableRecord
  2
Layer 1
 70
     0
 62
     7
  6
Continuous
370
    -3
390
F
347
3E
  0
ENDTAB
  0
TABLE
  2
STYLE
  5
3
330
0
100
AcDbSymbolTable
 70
     1
  0
STYLE
  5
11
330
3
100
AcDbSymbolTableRecord
100
AcDbTextStyleTableRecord
  2
Standard
 70
     0
 40
0.0
 41
1.0
 50
0.0
 71
     0
 42
0.2
  3
txt
  4

  0
ENDTAB
  0
TABLE
  2
VIEW
  5
6
330
0
100
AcDbSymbolTable
 70
     0
  0
ENDTAB
  0
TABLE
  2
UCS
  5
7
330
0
100
AcDbSymbolTable
 70
     0
  0
ENDTAB
  0
TABLE
  2
APPID
  5
9
330
0
100
AcDbSymbolTable
 70
     1
  0
APPID
  5
12
330
9
100
AcDbSymbolTableRecord
100
AcDbRegAppTableRecord
  2
ACAD
 70
     0
  0
ENDTAB
  0
TABLE
  2
DIMSTYLE
  5
A
330
0
100
AcDbSymbolTable
 70
     1
100
AcDbDimStyleTable
  0
DIMSTYLE
105
27
330
A
100
AcDbSymbolTableRecord
100
AcDbDimStyleTableRecord
  2
Standard
 70
     0
178
     0
340
11
  0
ENDTAB
  0
TABLE
  2
BLOCK_RECORD
  5
1
330
0
100
AcDbSymbolTable
 70
    63
  0
BLOCK_RECORD
  5
1F
330
1
100
AcDbSymbolTableRecord
100
AcDbBlockTableRecord
  2
*Model_Space
340
22
 70
     0
280
     1
281
     0
  0
BLOCK_RECORD
  5
1B
330
1
100
AcDbSymbolTableRecord
100
AcDbBlockTableRecord
  2
*Paper_Space
340
1E
 70
     0
280
     1
281
     0
  0
BLOCK_RECORD
  5
23
330
1
100
AcDbSymbolTableRecord
100
AcDbBlockTableRecord
  2
*Paper_Space0
340
26
 70
     0
280
     1
281
     0
  0
BLOCK_RECORD
  5
41
330
1
100
AcDbSymbolTableRecord
100
AcDbBlockTableRecord
  2
block 2
340
0
102
{BLKREFS
331
42
102
}
 70
     0
280
     1
281
     0
  0
BLOCK_RECORD
  5
45
330
1
100
AcDbSymbolTableRecord
100
AcDbBlockTableRecord
  2
block 3
340
0
102
{BLKREFS
331
46
102
}
 70
     0
280
     1
281
     0
  0
BLOCK_RECORD
  5
49
330
1
100
AcDbSymbolTableRecord
100
AcDbBlockTableRecord
  2
block 4
340
0
102
{BLKREFS
331
4A
102
}
 70
     0
280
     1
281
     0
  0
BLOCK_RECORD
  5
4D
330
1
100
AcDbSymbolTableRecord
100
AcDbBlockTableRecord
  2
block 5
340
0
102
{BLKREFS
331
4E
102
}
 70
     0
280
     1
281
     0
  0
BLOCK_RECORD
  5
57
330
1
100
AcDbSymbolTableRecord
100
AcDbBlockTableRecord
  2
block 6
340
0
102
{BLKREFS
331
58
102
}
 70
     0
280
     1
281
     0
  0
BLOCK_RECORD
  5
61
330
1
100
AcDbSymbolTableRecord
100
AcDbBlockTableRecord
  2
block 7
340
0
102
{BLKREFS
331
62
102
}
 70
     0
280
     1
281
     0
  0
BLOCK_RECORD
  5
65
330
1
100
AcDbSymbolTableRecord
100
AcDbBlockTableRecord
  2
block 8
340
0
102
{BLKREFS
331
66
102
}
 70
     0
280
     1
281
     0
  0
BLOCK_RECORD
  5
6F
330
1
100
AcDbSymbolTableRecord
100
AcDbBlockTableRecord
  2
block 9
340
0
102
{BLKREFS
331
70
102
}
 70
     0
280
     1
281
     0
  0
BLOCK_RECORD
  5
79
330
1
100
AcDbSymbolTableRecord
100
AcDbBlockTableRecord
  2
block 10
340
0
102
{BLKREFS
331
7A
102
}
 70
     0
280
     1
281
     0
  0
BLOCK_RECORD
  5
7D
330
1
100
AcDbSymbolTableRecord
100
AcDbBlockTableRecord
  2
block 11
340
0
102
{BLKREFS
331
7E
102
}
 70
     0
280
     1
281
     0
  0
BLOCK_RECORD
  5
87
330
1
100
AcDbSymbolTableRecord
100
AcDbBlockTableRecord
  2
block 12
340
0
102
{BLKREFS
331
88
102
}
 70
     0
280
     1
281
     0
  0
BLOCK_RECORD
  5
91
330
1
100
AcDbSymbolTableRecord
100
AcDbBlockTableRecord
  2
block 13
340
0
102
{BLKREFS
331
92
102
}
 70
     0
280
     1
281
     0
  0
BLOCK_RECORD
  5
95
330
1
100
AcDbSymbolTableRecord
100
AcDbBlockTableRecord
  2
block 14
340
0
102
{BLKREFS
331
96
102
}
 70
     0
280
     1
281
     0
  0
BLOCK_RECORD
  5
9F
330
1
100
AcDbSymbolTableRecord
100
AcDbBlockTableRecord
  2
block 15
340
0
102
{BLKREFS
331
A0
102
}
 70
     0
280
     1
281
     0
  0
BLOCK_RECORD
  5
A9
330
1
100
AcDbSymbolTableRecord
100
AcDbBlockTableRecord
  2
block 16
340
0
102
{BLKREFS
331
AA
102
}
 70
     0
280
     1
281
     0
  0
BLOCK_RECORD
  5
AD
330
1
100
AcDbSymbolTableRecord
100
AcDbBlockTableRecord
  2
block 17
340
0
102
{BLKREFS
331
AE
102
}
 70
     0
280
     1
281
     0
  0
BLOCK_RECORD
  5
B1
330
1
100
AcDbSymbolTableRecord
100
AcDbBlockTableRecord
  2
block 18
340
0
102
{BLKREFS
331
B2
102
}
 70
     0
280
     1
281
     0
  0
BLOCK_RECORD
  5
BB
330
1
100
AcDbSymbolTableRecord
100
AcDbBlockTableRecord
  2
block 19
340
0
102
{BLKREFS
331
BC
102
}
 70
     0
280
     1
281
     0
  0
BLOCK_RECORD
  5
C5
330
1
100
AcDbSymbolTableRecord
100
AcDbBlockTableRecord
  2
block 20
340
0
102
{BLKREFS
331
C6
102
}
 70
     0
280
     1
281
     0
  0
BLOCK_RECORD
  5
C9
330
1
100
AcDbSymbolTableRecord
100
AcDbBlockTableRecord
  2
block 21
340
0
102
{BLKREFS
331
CA
102
}
 70
     0
280
     1
281
     0
  0
BLOCK_RECORD
  5
CD
330
1
100
AcDbSymbolTableRecord
100
AcDbBlockTableRecord
  2
block 22
340
0
102
{BLKREFS
331
CE
102
}
 70
     0
280
     1
281
     0
  0
BLOCK_RECORD
  5
D7
330
1
100
AcDbSymbolTableRecord
100
AcDbBlockTableRecord
  2
block 23
340
0
102
{BLKREFS
331
D8
102
}
 70
     0
280
     1
281
     0
  0
BLOCK_RECORD
  5
DC
330
1
100
AcDbSymbolTableRecord
100
AcDbBlockTableRecord
  2
block 24
340
0
102
{BLKREFS
331
DD
102
}
 70
     0
280
     1
281
     0
  0
BLOCK_RECORD
  5
E6
330
1
100
AcDbSymbolTableRecord
100
AcDbBlockTableRecord
  2
block 25
340
0
102
{BLKREFS
331
E7
102
}
 70
     0
280
     1
281
     0
  0
BLOCK_RECORD
  5
EA
330
1
100
AcDbSymbolTableRecord
100
AcDbBlockTableRecord
  2
block 26
340
0
102
{BLKREFS
331
EB
102
}
 70
     0
280
     1
281
     0
  0
BLOCK_RECORD
  5
F4
330
1
100
AcDbSymbolTableRecord
100
AcDbBlockTableRecord
  2
block 27
340
0
102
{BLKREFS
331
F5
102
}
 70
     0
280
     1
281
     0
  0
BLOCK_RECORD
  5
F8
330
1
100
AcDbSymbolTableRecord
100
AcDbBlockTableRecord
  2
block 28
340
0
102
{BLKREFS
331
F9
102
}
 70
     0
280
     1
281
     0
  0
BLOCK_RECORD
  5
15A
330
1
100
AcDbSymbolTableRecord
100
AcDbBlockTableRecord
  2
block 29
340
0
102
{BLKREFS
331
15B
102
}
 70
     0
280
     1
281
     0
  0
BLOCK_RECORD
  5
15E
330
1
100
AcDbSymbolTableRecord
100
AcDbBlockTableRecord
  2
block 30
340
0
102
{BLKREFS
331
15F
102
}
 70
     0
280
     1
281
     0
  0
BLOCK_RECORD
  5
162
330
1
100
AcDbSymbolTableRecord
100
AcDbBlockTableRecord
  2
block 31
340
0
102
{BLKREFS
331
163
102
}
 70
     0
280
     1
281
     0
  0
BLOCK_RECORD
  5
16C
330
1
100
AcDbSymbolTableRecord
100
AcDbBlockTableRecord
  2
block 32
340
0
102
{BLKREFS
331
16D
102
}
 70
     0
280
     1
281
     0
  0
BLOCK_RECORD
  5
171
330
1
100
AcDbSymbolTableRecord
100
AcDbBlockTableRecord
  2
block 33
340
0
102
{BLKREFS
331
172
102
}
 70
     0
280
     1
281
     0
  0
BLOCK_RECORD
  5
17B
330
1
100
AcDbSymbolTableRecord
100
AcDbBlockTableRecord
  2
block 34
340
0
102
{BLKREFS
331
17C
102
}
 70
     0
280
     1
281
     0
  0
BLOCK_RECORD
  5
17F
330
1
100
AcDbSymbolTableRecord
100
AcDbBlockTableRecord
  2
block 35
340
0
102
{BLKREFS
331
180
102
}
 70
     0
280
     1
281
     0
  0
BLOCK_RECORD
  5
189
330
1
100
AcDbSymbolTableRecord
100
AcDbBlockTableRecord
  2
block 36
340
0
102
{BLKREFS
331
18A
102
}
 70
     0
280
     1
281
     0
  0
BLOCK_RECORD
  5
18D
330
1
100
AcDbSymbolTableRecord
100
AcDbBlockTableRecord
  2
block 37
340
0
102
{BLKREFS
331
18E
102
}
 70
     0
280
     1
281
     0
  0
BLOCK_RECORD
  5
197
330
1
100
AcDbSymbolTableRecord
100
AcDbBlockTableRecord
  2
block 38
340
0
102
{BLKREFS
331
198
102
}
 70
     0
280
     1
281
     0
  0
BLOCK_RECORD
  5
19B
330
1
100
AcDbSymbolTableRecord
100
AcDbBlockTableRecord
  2
block 39
340
0
102
{BLKREFS
331
19C
102
}
 70
     0
280
     1
281
     0
  0
BLOCK_RECORD
  5
19F
330
1
100
AcDbSymbolTableRecord
100
AcDbBlockTableRecord
  2
block 40
340
0
102
{BLKREFS
331
1A0
102
}
 70
     0
280
     1
281
     0
  0
BLOCK_RECORD
  5
1A9
330
1
100
AcDbSymbolTableRecord
100
AcDbBlockTableRecord
  2
block 41
340
0
102
{BLKREFS
331
1AA
102
}
 70
     0
280
     1
281
     0
  0
BLOCK_RECORD
  5
1AE
330
1
100
AcDbSymbolTableRecord
100
AcDbBlockTableRecord
  2
block 42
340
0
102
{BLKREFS
331
1AF
102
}
 70
     0
280
     1
281
     0
  0
BLOCK_RECORD
  5
1B8
330
1
100
AcDbSymbolTableRecord
100
AcDbBlockTableRecord
  2
block 43
340
0
102
{BLKREFS
331
1B9
102
}
 70
     0
280
     1
281
     0
  0
BLOCK_RECORD
  5
1BC
330
1
100
AcDbSymbolTableRecord
100
AcDbBlockTableRecord
  2
block 44
340
0
102
{BLKREFS
331
1BD
102
}
 70
     0
280
     1
281
     0
  0
BLOCK_RECORD
  5
1C6
330
1
100
AcDbSymbolTableRecord
100
AcDbBlockTableRecord
  2
block 45
340
0
102
{BLKREFS
331
1C7
102
}
 70
     0
280
     1
281
     0
  0
BLOCK_RECORD
  5
1CA
330
1
100
AcDbSymbolTableRecord
100
AcDbBlockTableRecord
  2
block 46
340
0
102
{BLKREFS
331
1CB
102
}
 70
     0
280
     1
281
     0
  0
BLOCK_RECORD
  5
1DC
330
1
100
AcDbSymbolTableRecord
100
AcDbBlockTableRecord
  2
block 47
340
0
102
{BLKREFS
331
1DD
102
}
 70
     0
280
     1
281
     0
  0
BLOCK_RECORD
  5
1E0
330
1
100
AcDbSymbolTableRecord
100
AcDbBlockTableRecord
  2
block 48
340
0
102
{BLKREFS
331
1E1
102
}
 70
     0
280
     1
281
     0
  0
BLOCK_RECORD
  5
1E4
330
1
100
AcDbSymbolTableRecord
100
AcDbBlockTableRecord
  2
block 49
340
0
102
{BLKREFS
331
1E5
102
}
 70
     0
280
     1
281
     0
  0
BLOCK_RECORD
  5
1EE
330
1
100
AcDbSymbolTableRecord
100
AcDbBlockTableRecord
  2
block 50
340
0
102
{BLKREFS
331
1EF
102
}
 70
     0
280
     1
281
     0
  0
BLOCK_RECORD
  5
1F8
330
1
100
AcDbSymbolTableRecord
100
AcDbBlockTableRecord
  2
block 51
340
0
102
{BLKREFS
331
1F9
102
}
 70
     0
280
     1
281
     0
  0
BLOCK_RECORD
  5
1FD
330
1
100
AcDbSymbolTableRecord
100
AcDbBlockTableRecord
  2
block 52
340
0
102
{BLKREFS
331
1FE
102
}
 70
     0
280
     1
281
     0
  0
BLOCK_RECORD
  5
207
330
1
100
AcDbSymbolTableRecord
100
AcDbBlockTableRecord
  2
block 53
340
0
102
{BLKREFS
331
208
102
}
 70
     0
280
     1
281
     0
  0
BLOCK_RECORD
  5
211
330
1
100
AcDbSymbolTableRecord
100
AcDbBlockTableRecord
  2
block 54
340
0
102
{BLKREFS
331
212
102
}
 70
     0
280
     1
281
     0
  0
BLOCK_RECORD
  5
215
330
1
100
AcDbSymbolTableRecord
100
AcDbBlockTableRecord
  2
block 55
340
0
102
{BLKREFS
331
216
102
}
 70
     0
280
     1
281
     0
  0
BLOCK_RECORD
  5
21F
330
1
100
AcDbSymbolTableRecord
100
AcDbBlockTableRecord
  2
block 56
340
0
102
{BLKREFS
331
220
102
}
 70
     0
280
     1
281
     0
  0
BLOCK_RECORD
  5
229
330
1
100
AcDbSymbolTableRecord
100
AcDbBlockTableRecord
  2
block 57
340
0
102
{BLKREFS
331
22A
102
}
 70
     0
280
     1
281
     0
  0
BLOCK_RECORD
  5
22D
330
1
100
AcDbSymbolTableRecord
100
AcDbBlockTableRecord
  2
block 58
340
0
102
{BLKREFS
331
22E
102
}
 70
     0
280
     1
281
     0
  0
BLOCK_RECORD
  5
237
330
1
100
AcDbSymbolTableRecord
100
AcDbBlockTableRecord
  2
block 59
340
0
102
{BLKREFS
331
238
102
}
 70
     0
280
     1
281
     0
  0
BLOCK_RECORD
  5
241
330
1
100
AcDbSymbolTableRecord
100
AcDbBlockTableRecord
  2
block 60
340
0
102
{BLKREFS
331
242
102
}
 70
     0
280
     1
281
     0
  0
BLOCK_RECORD
  5
245
330
1
100
AcDbSymbolTableRecord
100
AcDbBlockTableRecord
  2
block 61
340
0
102
{BLKREFS
331
246
102
}
 70
     0
280
     1
281
     0
  0
BLOCK_RECORD
  5
249
330
1
100
AcDbSymbolTableRecord
100
AcDbBlockTableRecord
  2
block 62
340
0
102
{BLKREFS
331
24A
102
}
 70
     0
280
     1
281
     0
  0
BLOCK_RECORD
  5
253
330
1
100
AcDbSymbolTableRecord
100
AcDbBlockTableRecord
  2
block 63
340
0
102
{BLKREFS
331
254
102
}
 70
     0
280
     1
281
     0
  0
ENDTAB
  0
ENDSEC
  0
SECTION
  2
BLOCKS
  0
BLOCK
  5
20
330
1F
100
AcDbEntity
  8
0
100
AcDbBlockBegin
  2
*Model_Space
 70
     0
 10
0.0
 20
0.0
 30
0.0
  3
*Model_Space
  1

  0
ENDBLK
  5
21
330
1F
100
AcDbEntity
  8
0
100
AcDbBlockEnd
  0
BLOCK
  5
1C
330
1B
100
AcDbEntity
 67
     1
  8
0
100
AcDbBlockBegin
  2
*Paper_Space
 70
     0
 10
0.0
 20
0.0
 30
0.0
  3
*Paper_Space
  1

  0
ENDBLK
  5
1D
330
1B
100
AcDbEntity
 67
     1
  8
0
100
AcDbBlockEnd
  0
BLOCK
  5
24
330
23
100
AcDbEntity
  8
0
100
AcDbBlockBegin
  2
*Paper_Space0
 70
     0
 10
0.0
 20
0.0
 30
0.0
  3
*Paper_Space0
  1

  0
ENDBLK
  5
25
330
23
100
AcDbEntity
  8
0
100
AcDbBlockEnd
  0
BLOCK
  5
43
330
41
100
AcDbEntity
  8
0
100
AcDbBlockBegin
  2
block 2
 70
     0
 10
0.0
 20
0.0
 30
0.0
  3
block 2
  1

  0
INSERT
  5
46
330
41
100
AcDbEntity
  8
Layer 1
100
AcDbBlockReference
  2
block 3
 10
0.0
 20
0.0
 30
0.0
  0
INSERT
  5
C6
330
41
100
AcDbEntity
  8
Layer 1
100
AcDbBlockReference
  2
block 20
 10
0.0
 20
0.0
 30
0.0
  0
SPLINE
  5
102
330
41
100
AcDbEntity
  8
Layer 1
 62
   250
420
  1842203
370
     9
100
AcDbSpline
210
0.0
220
0.0
230
1.0
 70
    11
 71
     3
 72
    29
 73
    25
 74
     0
 42
0.0000000001
 43
0.0000000001
 12
1.0
 22
0.0
 32
0.0
 13
1.0
 23
0.0
 33
0.0
 40
0.0
 40
0.0
 40
0.0
 40
0.0
 40
1.0
 40
1.0
 40
1.0
 40
2.0
 40
2.0
 40
2.0
 40
3.0
 40
3.0
 40
3.0
 40
4.0
 40
4.0
 40
4.0
 40
5.0
 40
5.0
 40
5.0
 40
6.0
 40
6.0
 40
6.0
 40
7.0
 40
7.0
 40
7.0
 40
8.0
 40
8.0
 40
8.0
 40
8.0
 10
119.7666666367302
 20
-64.99999998375127
 30
0.0
 10
119.7666666367302
 20
-64.99999998375127
 30
0.0
 10
10.23333333077941
 20
-64.99999998375127
 30
0.0
 10
10.23333333077941
 20
-64.99999998375127
 30
0.0
 10
7.904999998027392
 20
-64.99999998375127
 30
0.0
 10
5.999999998503769
 20
-63.09499998422829
 30
0.0
 10
5.999999998503769
 20
-60.76666665147626
 30
0.0
 10
5.999999998503769
 20
-60.76666665147626
 30
0.0
 10
5.999999998503769
 20
-9.233333331025788
 30
0.0
 10
5.999999998503769
 20
-9.233333331025788
 30
0.0
 10
5.999999998503769
 20
-6.90499999827441
 30
0.0
 10
7.904999998027392
 20
-4.999999998750789
 30
0.0
 10
10.23333333077941
 20
-4.999999998750789
 30
0.0
 10
10.23333333077941
 20
-4.999999998750789
 30
0.0
 10
119.7666666367302
 20
-4.999999998750789
 30
0.0
 10
119.7666666367302
 20
-4.999999998750789
 30
0.0
 10
122.0949999694816
 20
-4.999999998750789
 30
0.0
 10
123.9999999690052
 20
-6.90499999827441
 30
0.0
 10
123.9999999690052
 20
-9.233333331025788
 30
0.0
 10
123.9999999690052
 20
-9.233333331025788
 30
0.0
 10
123.9999999690052
 20
-60.76666665147626
 30
0.0
 10
123.9999999690052
 20
-60.76666665147626
 30
0.0
 10
123.9999999690052
 20
-63.09499998422829
 30
0.0
 10
122.0949999694816
 20
-64.99999998375127
 30
0.0
 10
119.7666666367302
 20
-64.99999998375127
 30
0.0
  0
SPLINE
  5
103
330
41
100
AcDbEntity
  8
Layer 1
 62
   250
420
  1842203
370
     9
100
AcDbSpline
210
0.0
220
0.0
230
1.0
 70
    11
 71
     3
 72
    41
 73
    37
 74
     0
 42
0.0000000001
 43
0.0000000001
 12
1.0
 22
0.0
 32
0.0
 13
1.0
 23
0.0
 33
0.0
 40
0.0
 40
0.0
 40
0.0
 40
0.0
 40
1.0
 40
1.0
 40
1.0
 40
2.0
 40
2.0
 40
2.0
 40
3.0
 40
3.0
 40
3.0
 40
4.0
 40
4.0
 40
4.0
 40
5.0
 40
5.0
 40
5.0
 40
6.0
 40
6.0
 40
6.0
 40
7.0
 40
7.0
 40
7.0
 40
8.0
 40
8.0
 40
8.0
 40
9.0
 40
9.0
 40
9.0
 40
10.0
 40
10.0
 40
10.0
 40
11.0
 40
11.0
 40
11.0
 40
12.0
 40
12.0
 40
12.0
 40
12.0
 10
9.694429450273967
 20
-16.69973749582606
 30
0.0
 10
9.694429450273967
 20
-16.69973749582606
 30
0.0
 10
10.76966081173013
 20
-14.3548941630791
 30
0.0
 10
10.76966081173013
 20
-14.3548941630791
 30
0.0
 10
10.76966081173013
 20
-14.3548941630791
 30
0.0
 10
10.79594275550471
 20
-14.30278888531387
 30
0.0
 10
10.79594275550471
 20
-14.30278888531387
 30
0.0
 10
11.24248885522284
 20
-13.20635555225459
 30
0.0
 10
12.31902549442477
 20
-12.43313721911502
 30
0.0
 10
13.57558462903394
 20
-12.43313721911502
 30
0.0
 10
14.82762820820212
 20
-12.43313721911502
 30
0.0
 10
15.9008859429336
 20
-13.20078166336737
 30
0.0
 10
16.35032483170993
 20
-14.29090027420575
 30
0.0
 10
16.35032483170993
 20
-14.29090027420575
 30
0.0
 10
16.38097927968523
 20
-14.3548941630791
 30
0.0
 10
16.38097927968523
 20
-14.3548941630791
 30
0.0
 10
16.38097927968523
 20
-14.3548941630791
 30
0.0
 10
17.4500723079653
 20
-16.68485027360729
 30
0.0
 10
17.4500723079653
 20
-16.68485027360729
 30
0.0
 10
17.4500723079653
 20
-16.68485027360729
 30
0.0
 10
17.47363786291837
 20
-16.73797860692796
 30
0.0
 10
17.47363786291837
 20
-16.73797860692796
 30
0.0
 10
17.70001535714364
 20
-17.25747916235301
 30
0.0
 10
17.82556896505161
 20
-17.83095471776563
 30
0.0
 10
17.82556896505161
 20
-18.43364027317035
 30
0.0
 10
17.82556896505161
 20
-20.78017693925011
 30
0.0
 10
15.92222706916675
 20
-22.68358943877445
 30
0.0
 10
13.57558462903394
 20
-22.68358943877445
 30
0.0
 10
11.22901274445361
 20
-22.68358943877445
 30
0.0
 10
9.325600293016274
 20
-20.78017693925011
 30
0.0
 10
9.325600293016274
 20
-18.43364027317035
 30
0.0
 10
9.325600293016274
 20
-17.8325069399874
 30
0.0
 10
9.450483623161643
 20
-17.26047777346335
 30
0.0
 10
9.675732228525542
 20
-16.74207082914877
 30
0.0
 10
9.675732228525542
 20
-16.74207082914877
 30
0.0
 10
9.694429450273967
 20
-16.69973749582606
 30
0.0
 10
9.694429450273967
 20
-16.69973749582606
 30
0.0
  0
SPLINE
  5
104
330
41
100
AcDbEntity
  8
Layer 1
 62
   250
420
  1842203
370
     9
100
AcDbSpline
210
0.0
220
0.0
230
1.0
 70
    11
 71
     3
 72
    41
 73
    37
 74
     0
 42
0.0000000001
 43
0.0000000001
 12
1.0
 22
0.0
 32
0.0
 13
1.0
 23
0.0
 33
0.0
 40
0.0
 40
0.0
 40
0.0
 40
0.0
 40
1.0
 40
1.0
 40
1.0
 40
2.0
 40
2.0
 40
2.0
 40
3.0
 40
3.0
 40
3.0
 40
4.0
 40
4.0
 40
4.0
 40
5.0
 40
5.0
 40
5.0
 40
6.0
 40
6.0
 40
6.0
 40
7.0
 40
7.0
 40
7.0
 40
8.0
 40
8.0
 40
8.0
 40
9.0
 40
9.0
 40
9.0
 40
10.0
 40
10.0
 40
10.0
 40
11.0
 40
11.0
 40
11.0
 40
12.0
 40
12.0
 40
12.0
 40
12.0
 10
9.715455005291831
 20
-54.86484151406214
 30
0.0
 10
9.715455005291831
 20
-54.86484151406214
 30
0.0
 10
10.790686366748
 20
-52.51999818131551
 30
0.0
 10
10.790686366748
 20
-52.51999818131551
 30
0.0
 10
10.790686366748
 20
-52.51999818131551
 30
0.0
 10
10.81696831052258
 20
-52.46789290355028
 30
0.0
 10
10.81696831052258
 20
-52.46789290355028
 30
0.0
 10
11.26351441024006
 20
-51.37145957049099
 30
0.0
 10
12.34005104944199
 20
-50.59824123735206
 30
0.0
 10
13.59661018405181
 20
-50.59824123735206
 30
0.0
 10
14.84865376322319
 20
-50.59824123735206
 30
0.0
 10
15.92191149795468
 20
-51.36588568160441
 30
0.0
 10
16.37135038673101
 20
-52.45600429244215
 30
0.0
 10
16.37135038673101
 20
-52.45600429244215
 30
0.0
 10
16.40200483470309
 20
-52.51999818131551
 30
0.0
 10
16.40200483470309
 20
-52.51999818131551
 30
0.0
 10
16.40200483470309
 20
-52.51999818131551
 30
0.0
 10
17.47109786298253
 20
-54.84995429184369
 30
0.0
 10
17.47109786298253
 20
-54.84995429184369
 30
0.0
 10
17.47109786298253
 20
-54.84995429184369
 30
0.0
 10
17.49466341793944
 20
-54.90308262516404
 30
0.0
 10
17.49466341793944
 20
-54.90308262516404
 30
0.0
 10
17.72104091216471
 20
-55.42258318059006
 30
0.0
 10
17.84659452007268
 20
-55.99605873600203
 30
0.0
 10
17.84659452007268
 20
-56.59874429140675
 30
0.0
 10
17.84659452007268
 20
-58.94528095748716
 30
0.0
 10
15.94325262418461
 20
-60.84869345701213
 30
0.0
 10
13.59661018405181
 20
-60.84869345701213
 30
0.0
 10
11.25003829947468
 20
-60.84869345701213
 30
0.0
 10
9.346625848034138
 20
-58.94528095748716
 30
0.0
 10
9.346625848034138
 20
-56.59874429140675
 30
0.0
 10
9.346625848034138
 20
-55.99761095822444
 30
0.0
 10
9.471509178182718
 20
-55.42558179170039
 30
0.0
 10
9.696757783547257
 20
-54.90717484738582
 30
0.0
 10
9.696757783547257
 20
-54.90717484738582
 30
0.0
 10
9.715455005291831
 20
-54.86484151406214
 30
0.0
 10
9.715455005291831
 20
-54.86484151406214
 30
0.0
  0
SPLINE
  5
105
330
41
100
AcDbEntity
  8
Layer 1
 62
   250
420
  1842203
370
     9
100
AcDbSpline
210
0.0
220
0.0
230
1.0
 70
    11
 71
     3
 72
    41
 73
    37
 74
     0
 42
0.0000000001
 43
0.0000000001
 12
1.0
 22
0.0
 32
0.0
 13
1.0
 23
0.0
 33
0.0
 40
0.0
 40
0.0
 40
0.0
 40
0.0
 40
1.0
 40
1.0
 40
1.0
 40
2.0
 40
2.0
 40
2.0
 40
3.0
 40
3.0
 40
3.0
 40
4.0
 40
4.0
 40
4.0
 40
5.0
 40
5.0
 40
5.0
 40
6.0
 40
6.0
 40
6.0
 40
7.0
 40
7.0
 40
7.0
 40
8.0
 40
8.0
 40
8.0
 40
9.0
 40
9.0
 40
9.0
 40
10.0
 40
10.0
 40
10.0
 40
11.0
 40
11.0
 40
11.0
 40
12.0
 40
12.0
 40
12.0
 40
12.0
 10
112.4374973846342
 20
-16.74210610692629
 30
0.0
 10
112.4374973846342
 20
-16.74210610692629
 30
0.0
 10
113.5127287460904
 20
-14.39726277417965
 30
0.0
 10
113.5127287460904
 20
-14.39726277417965
 30
0.0
 10
113.5127287460904
 20
-14.39726277417965
 30
0.0
 10
113.539010689865
 20
-14.34515749641443
 30
0.0
 10
113.539010689865
 20
-14.34515749641443
 30
0.0
 10
113.9855567895831
 20
-13.24872416335514
 30
0.0
 10
115.062093428785
 20
-12.47550583021557
 30
0.0
 10
116.3186525633942
 20
-12.47550583021557
 30
0.0
 10
117.5706961425624
 20
-12.47550583021557
 30
0.0
 10
118.6439538772971
 20
-13.24315027446792
 30
0.0
 10
119.093392766074
 20
-14.3332688853063
 30
0.0
 10
119.093392766074
 20
-14.3332688853063
 30
0.0
 10
119.1240472140455
 20
-14.39726277417965
 30
0.0
 10
119.1240472140455
 20
-14.39726277417965
 30
0.0
 10
119.1240472140455
 20
-14.39726277417965
 30
0.0
 10
120.1931402423255
 20
-16.72721888470784
 30
0.0
 10
120.1931402423255
 20
-16.72721888470784
 30
0.0
 10
120.1931402423255
 20
-16.72721888470784
 30
0.0
 10
120.2167057972825
 20
-16.78034721802819
 30
0.0
 10
120.2167057972825
 20
-16.78034721802819
 30
0.0
 10
120.4430832915071
 20
-17.29984777345357
 30
0.0
 10
120.5686368994118
 20
-17.87332332886618
 30
0.0
 10
120.5686368994118
 20
-18.4760088842709
 30
0.0
 10
120.5686368994118
 20
-20.82254555035066
 30
0.0
 10
118.665295003527
 20
-22.725958049875
 30
0.0
 10
116.3186525633942
 20
-22.725958049875
 30
0.0
 10
113.9720806788177
 20
-22.725958049875
 30
0.0
 10
112.0686682273765
 20
-20.82254555035066
 30
0.0
 10
112.0686682273765
 20
-18.4760088842709
 30
0.0
 10
112.0686682273765
 20
-17.87487555108795
 30
0.0
 10
112.1935515575251
 20
-17.3028463845639
 30
0.0
 10
112.4188001628896
 20
-16.78443944024932
 30
0.0
 10
112.4188001628896
 20
-16.78443944024932
 30
0.0
 10
112.4374973846342
 20
-16.74210610692629
 30
0.0
 10
112.4374973846342
 20
-16.74210610692629
 30
0.0
  0
SPLINE
  5
106
330
41
100
AcDbEntity
  8
Layer 1
 62
   250
420
  1842203
370
     9
100
AcDbSpline
210
0.0
220
0.0
230
1.0
 70
    11
 71
     3
 72
    41
 73
    37
 74
     0
 42
0.0000000001
 43
0.0000000001
 12
1.0
 22
0.0
 32
0.0
 13
1.0
 23
0.0
 33
0.0
 40
0.0
 40
0.0
 40
0.0
 40
0.0
 40
1.0
 40
1.0
 40
1.0
 40
2.0
 40
2.0
 40
2.0
 40
3.0
 40
3.0
 40
3.0
 40
4.0
 40
4.0
 40
4.0
 40
5.0
 40
5.0
 40
5.0
 40
6.0
 40
6.0
 40
6.0
 40
7.0
 40
7.0
 40
7.0
 40
8.0
 40
8.0
 40
8.0
 40
9.0
 40
9.0
 40
9.0
 40
10.0
 40
10.0
 40
10.0
 40
11.0
 40
11.0
 40
11.0
 40
12.0
 40
12.0
 40
12.0
 40
12.0
 10
112.543260159715
 20
-54.82245526407315
 30
0.0
 10
112.543260159715
 20
-54.82245526407315
 30
0.0
 10
113.6184915211712
 20
-52.47761193132651
 30
0.0
 10
113.6184915211712
 20
-52.47761193132651
 30
0.0
 10
113.6184915211712
 20
-52.47761193132651
 30
0.0
 10
113.6447734649458
 20
-52.42550665356129
 30
0.0
 10
113.6447734649458
 20
-52.42550665356129
 30
0.0
 10
114.0913195646639
 20
-51.329073320502
 30
0.0
 10
115.1678562038658
 20
-50.55585498736179
 30
0.0
 10
116.424415338475
 20
-50.55585498736179
 30
0.0
 10
117.6764589176432
 20
-50.55585498736179
 30
0.0
 10
118.7497166523747
 20
-51.32349943161414
 30
0.0
 10
119.199155541151
 20
-52.41361804245317
 30
0.0
 10
119.199155541151
 20
-52.41361804245317
 30
0.0
 10
119.2298099891263
 20
-52.47761193132651
 30
0.0
 10
119.2298099891263
 20
-52.47761193132651
 30
0.0
 10
119.2298099891263
 20
-52.47761193132651
 30
0.0
 10
120.2989030174064
 20
-54.8075680418547
 30
0.0
 10
120.2989030174064
 20
-54.8075680418547
 30
0.0
 10
120.2989030174064
 20
-54.8075680418547
 30
0.0
 10
120.3224685723594
 20
-54.86069637517505
 30
0.0
 10
120.3224685723594
 20
-54.86069637517505
 30
0.0
 10
120.5488460665847
 20
-55.38019693059979
 30
0.0
 10
120.6743996744927
 20
-55.95367248601304
 30
0.0
 10
120.6743996744927
 20
-56.55635804141776
 30
0.0
 10
120.6743996744927
 20
-58.90289470749688
 30
0.0
 10
118.7710577786078
 20
-60.80630720702186
 30
0.0
 10
116.424415338475
 20
-60.80630720702186
 30
0.0
 10
114.0778434538979
 20
-60.80630720702186
 30
0.0
 10
112.1744310024573
 20
-58.90289470749688
 30
0.0
 10
112.1744310024573
 20
-56.55635804141776
 30
0.0
 10
112.1744310024573
 20
-55.95522470823417
 30
0.0
 10
112.2993143326021
 20
-55.38319554171012
 30
0.0
 10
112.5245629379666
 20
-54.86478859739554
 30
0.0
 10
112.5245629379666
 20
-54.86478859739554
 30
0.0
 10
112.543260159715
 20
-54.82245526407315
 30
0.0
 10
112.543260159715
 20
-54.82245526407315
 30
0.0
  0
POLYLINE
  5
107
330
41
100
AcDbEntity
  8
Layer 1
 62
   250
420
  1842203
370
     9
100
AcDb2dPolyline
 66
     1
 10
0.0
 20
0.0
 30
0.0
  0
VERTEX
  5
108
330
107
100
AcDbEntity
  8
Layer 1
 62
   250
420
  1842203
370
     9
100
AcDbVertex
100
AcDb2dVertex
 10
97.35977554707607
 20
-34.02584096371715
 30
0.0
  0
VERTEX
  5
109
330
107
100
AcDbEntity
  8
Layer 1
 62
   250
420
  1842203
370
     9
100
AcDbVertex
100
AcDb2dVertex
 10
96.52561467600644
 20
-32.36323457524375
 30
0.0
  0
VERTEX
  5
10A
330
107
100
AcDbEntity
  8
Layer 1
 62
   250
420
  1842203
370
     9
100
AcDbVertex
100
AcDb2dVertex
 10
97.51886050909167
 20
-31.56144124211064
 30
0.0
  0
VERTEX
  5
10B
330
107
100
AcDbEntity
  8
Layer 1
 62
   250
420
  1842203
370
     9
100
AcDbVertex
100
AcDb2dVertex
 10
97.27290384248631
 20
-30.30752790909111
 30
0.0
  0
VERTEX
  5
10C
330
107
100
AcDbEntity
  8
Layer 1
 62
   250
420
  1842203
370
     9
100
AcDbVertex
100
AcDb2dVertex
 10
98.44521967552643
 20
-29.80393763143931
 30
0.0
  0
VERTEX
  5
10D
330
107
100
AcDbEntity
  8
Layer 1
 62
   250
420
  1842203
370
     9
100
AcDbVertex
100
AcDb2dVertex
 10
98.54607884216816
 20
-28.53005707620195
 30
0.0
  0
VERTEX
  5
10E
330
107
100
AcDbEntity
  8
Layer 1
 62
   250
420
  1842203
370
     9
100
AcDbVertex
100
AcDb2dVertex
 10
99.8105755085186
 20
-28.36199374291078
 30
0.0
  0
VERTEX
  5
10F
330
107
100
AcDbEntity
  8
Layer 1
 62
   250
420
  1842203
370
     9
100
AcDbVertex
100
AcDb2dVertex
 10
100.2507363417419
 20
-27.16258457654385
 30
0.0
  0
VERTEX
  5
110
330
107
100
AcDbEntity
  8
Layer 1
 62
   250
420
  1842203
370
     9
100
AcDbVertex
100
AcDb2dVertex
 10
101.5136102303149
 20
-27.34253652094313
 30
0.0
  0
VERTEX
  5
111
330
107
100
AcDbEntity
  8
Layer 1
 62
   250
420
  1842203
370
     9
100
AcDbVertex
100
AcDb2dVertex
 10
102.2604407856838
 20
-26.30656929898118
 30
0.0
  0
VERTEX
  5
112
330
107
100
AcDbEntity
  8
Layer 1
 62
   250
420
  1842203
370
     9
100
AcDbVertex
100
AcDb2dVertex
 10
103.4280293965029
 20
-26.82116624329575
 30
0.0
  0
VERTEX
  5
113
330
107
100
AcDbEntity
  8
Layer 1
 62
   250
420
  1842203
370
     9
100
AcDbVertex
100
AcDb2dVertex
 10
104.426178840698
 20
-26.02551124349466
 30
0.0
  0
VERTEX
  5
114
330
107
100
AcDbEntity
  8
Layer 1
 62
   250
420
  1842203
370
     9
100
AcDbVertex
100
AcDb2dVertex
 10
105.4118752293402
 20
-26.83661790995836
 30
0.0
  0
VERTEX
  5
115
330
107
100
AcDbEntity
  8
Layer 1
 62
   250
420
  1842203
370
     9
100
AcDbVertex
100
AcDb2dVertex
 10
106.5872602290463
 20
-26.34022429897187
 30
0.0
  0
VERTEX
  5
116
330
107
100
AcDbEntity
  8
Layer 1
 62
   250
420
  1842203
370
     9
100
AcDbVertex
100
AcDb2dVertex
 10
107.3180041177528
 20
-27.38765679870945
 30
0.0
  0
VERTEX
  5
117
330
107
100
AcDbEntity
  8
Layer 1
 62
   250
420
  1842203
370
     9
100
AcDbVertex
100
AcDb2dVertex
 10
108.5834885618808
 20
-27.22738985430528
 30
0.0
  0
VERTEX
  5
118
330
107
100
AcDbEntity
  8
Layer 1
 62
   250
420
  1842203
370
     9
100
AcDbVertex
100
AcDb2dVertex
 10
109.0050227284422
 20
-28.43346652067024
 30
0.0
  0
VERTEX
  5
119
330
107
100
AcDbEntity
  8
Layer 1
 62
   250
420
  1842203
370
     9
100
AcDbVertex
100
AcDb2dVertex
 10
110.2667677281269
 20
-28.62117957617963
 30
0.0
  0
VERTEX
  5
11A
330
107
100
AcDbEntity
  8
Layer 1
 62
   250
420
  1842203
370
     9
100
AcDbVertex
100
AcDb2dVertex
 10
110.3478360614397
 20
-29.89647124252676
 30
0.0
  0
VERTEX
  5
11B
330
107
100
AcDbEntity
  8
Layer 1
 62
   250
420
  1842203
370
     9
100
AcDbVertex
100
AcDb2dVertex
 10
111.5122496722596
 20
-30.41826485350759
 30
0.0
  0
VERTEX
  5
11C
330
107
100
AcDbEntity
  8
Layer 1
 62
   250
420
  1842203
370
     9
100
AcDbVertex
100
AcDb2dVertex
 10
111.2468902278819
 20
-31.66815651986166
 30
0.0
  0
VERTEX
  5
11D
330
107
100
AcDbEntity
  8
Layer 1
 62
   250
420
  1842203
370
     9
100
AcDbVertex
100
AcDb2dVertex
 10
112.227577172081
 20
-32.48533096410171
 30
0.0
  0
VERTEX
  5
11E
330
107
100
AcDbEntity
  8
Layer 1
 62
   250
420
  1842203
370
     9
100
AcDbVertex
100
AcDb2dVertex
 10
111.359620189909
 20
-34.02584096371715
 30
0.0
  0
SEQEND
  5
11F
330
107
100
AcDbEntity
  8
Layer 1
 62
   250
420
  1842203
370
     9
  0
POLYLINE
  5
120
330
41
100
AcDbEntity
  8
Layer 1
 62
   250
420
  1842203
370
     9
100
AcDb2dPolyline
 66
     1
 10
0.0
 20
0.0
 30
0.0
  0
VERTEX
  5
121
330
120
100
AcDbEntity
  8
Layer 1
 62
   250
420
  1842203
370
     9
100
AcDbVertex
100
AcDb2dVertex
 10
70.78231479712282
 20
-24.01660054955238
 30
0.0
  0
VERTEX
  5
122
330
120
100
AcDbEntity
  8
Layer 1
 62
   250
420
  1842203
370
     9
100
AcDbVertex
100
AcDb2dVertex
 10
58.49555387438252
 20
-24.01660054955238
 30
0.0
  0
VERTEX
  5
123
330
120
100
AcDbEntity
  8
Layer 1
 62
   250
420
  1842203
370
     9
100
AcDbVertex
100
AcDb2dVertex
 10
58.49555387438252
 20
-11.01659833058039
 30
0.0
  0
VERTEX
  5
124
330
120
100
AcDbEntity
  8
Layer 1
 62
   250
420
  1842203
370
     9
100
AcDbVertex
100
AcDb2dVertex
 10
72.01094661044525
 20
-11.01659833058039
 30
0.0
  0
SEQEND
  5
125
330
120
100
AcDbEntity
  8
Layer 1
 62
   250
420
  1842203
370
     9
  0
POLYLINE
  5
126
330
41
100
AcDbEntity
  8
Layer 1
 62
   250
420
  1842203
370
     9
100
AcDb2dPolyline
 66
     1
 10
0.0
 20
0.0
 30
0.0
  0
VERTEX
  5
127
330
126
100
AcDbEntity
  8
Layer 1
 62
   250
420
  1842203
370
     9
100
AcDbVertex
100
AcDb2dVertex
 10
61.16883700673618
 20
-57.06249652773631
 30
0.0
  0
VERTEX
  5
128
330
126
100
AcDbEntity
  8
Layer 1
 62
   250
420
  1842203
370
     9
100
AcDbVertex
100
AcDb2dVertex
 10
68.76572268243653
 20
-57.06249652773631
 30
0.0
  0
VERTEX
  5
129
330
126
100
AcDbEntity
  8
Layer 1
 62
   250
420
  1842203
370
     9
100
AcDbVertex
100
AcDb2dVertex
 10
72.60826274249663
 20
-50.48340054293644
 30
0.0
  0
VERTEX
  5
12A
330
126
100
AcDbEntity
  8
Layer 1
 62
   250
420
  1842203
370
     9
100
AcDbVertex
100
AcDb2dVertex
 10
68.80981990464774
 20
-43.9043045581353
 30
0.0
  0
VERTEX
  5
12B
330
126
100
AcDbEntity
  8
Layer 1
 62
   250
420
  1842203
370
     9
100
AcDbVertex
100
AcDb2dVertex
 10
61.21293422894738
 20
-43.9043045581353
 30
0.0
  0
VERTEX
  5
12C
330
126
100
AcDbEntity
  8
Layer 1
 62
   250
420
  1842203
370
     9
100
AcDbVertex
100
AcDb2dVertex
 10
57.41449139109847
 20
-50.48340054293644
 30
0.0
  0
SEQEND
  5
12D
330
126
100
AcDbEntity
  8
Layer 1
 62
   250
420
  1842203
370
     9
  0
POLYLINE
  5
12E
330
41
100
AcDbEntity
  8
Layer 1
 62
   250
420
  1842203
370
     9
100
AcDb2dPolyline
 66
     1
 10
0.0
 20
0.0
 30
0.0
  0
VERTEX
  5
12F
330
12E
100
AcDbEntity
  8
Layer 1
 62
   250
420
  1842203
370
     9
100
AcDbVertex
100
AcDb2dVertex
 10
25.89058321202081
 20
-41.02977387936524
 30
0.0
  0
VERTEX
  5
130
330
12E
100
AcDbEntity
  8
Layer 1
 62
   250
420
  1842203
370
     9
100
AcDbVertex
100
AcDb2dVertex
 10
24.84494320344428
 20
-42.05783119668065
 30
0.0
  0
VERTEX
  5
131
330
12E
100
AcDbEntity
  8
Layer 1
 62
   250
420
  1842203
370
     9
100
AcDbVertex
100
AcDb2dVertex
 10
24.31728103369992
 20
-41.26241391380294
 30
0.0
  0
VERTEX
  5
132
330
12E
100
AcDbEntity
  8
Layer 1
 62
   250
420
  1842203
370
     9
100
AcDbVertex
100
AcDb2dVertex
 10
23.53576817827494
 20
-41.81045923682614
 30
0.0
  0
VERTEX
  5
133
330
12E
100
AcDbEntity
  8
Layer 1
 62
   250
420
  1842203
370
     9
100
AcDbVertex
100
AcDb2dVertex
 10
23.14622401454836
 20
-40.93904007030253
 30
0.0
  0
VERTEX
  5
134
330
12E
100
AcDbEntity
  8
Layer 1
 62
   250
420
  1842203
370
     9
100
AcDbVertex
100
AcDb2dVertex
 10
22.28516468044862
 20
-41.35097798120608
 30
0.0
  0
VERTEX
  5
135
330
12E
100
AcDbEntity
  8
Layer 1
 62
   250
420
  1842203
370
     9
100
AcDbVertex
100
AcDb2dVertex
 10
22.04436427205769
 20
-40.42732697427944
 30
0.0
  0
VERTEX
  5
136
330
12E
100
AcDbEntity
  8
Layer 1
 62
   250
420
  1842203
370
     9
100
AcDbVertex
100
AcDb2dVertex
 10
21.12724591329966
 20
-40.69192088069465
 30
0.0
  0
VERTEX
  5
137
330
12E
100
AcDbEntity
  8
Layer 1
 62
   250
420
  1842203
370
     9
100
AcDbVertex
100
AcDb2dVertex
 10
21.04175766766626
 20
-39.74123282505428
 30
0.0
  0
VERTEX
  5
138
330
12E
100
AcDbEntity
  8
Layer 1
 62
   250
420
  1842203
370
     9
100
AcDbVertex
100
AcDb2dVertex
 10
20.09359688233277
 20
-39.85126529496186
 30
0.0
  0
VERTEX
  5
139
330
12E
100
AcDbEntity
  8
Layer 1
 62
   250
420
  1842203
370
     9
100
AcDbVertex
100
AcDb2dVertex
 10
20.16575269594829
 20
-38.89947248250608
 30
0.0
  0
VERTEX
  5
13A
330
12E
100
AcDbEntity
  8
Layer 1
 62
   250
420
  1842203
370
     9
100
AcDbVertex
100
AcDb2dVertex
 10
19.2124128385897
 20
-38.85194211695733
 30
0.0
  0
VERTEX
  5
13B
330
12E
100
AcDbEntity
  8
Layer 1
 62
   250
420
  1842203
370
     9
100
AcDbVertex
100
AcDb2dVertex
 10
19.44024448895256
 20
-37.92500697447331
 30
0.0
  0
VERTEX
  5
13C
330
12E
100
AcDbEntity
  8
Layer 1
 62
   250
420
  1842203
370
     9
100
AcDbVertex
100
AcDb2dVertex
 10
18.50773018570286
 20
-37.72121027793938
 30
0.0
  0
VERTEX
  5
13D
330
12E
100
AcDbEntity
  8
Layer 1
 62
   250
420
  1842203
370
     9
100
AcDbVertex
100
AcDb2dVertex
 10
18.88502301930738
 20
-36.84441717977311
 30
0.0
  0
VERTEX
  5
13E
330
12E
100
AcDbEntity
  8
Layer 1
 62
   250
420
  1842203
370
     9
100
AcDbVertex
100
AcDb2dVertex
 10
17.9987708294807
 20
-36.48991319487759
 30
0.0
  0
VERTEX
  5
13F
330
12E
100
AcDbEntity
  8
Layer 1
 62
   250
420
  1842203
370
     9
100
AcDbVertex
100
AcDb2dVertex
 10
18.51523328135049
 20
-35.68717877111802
 30
0.0
  0
VERTEX
  5
140
330
12E
100
AcDbEntity
  8
Layer 1
 62
   250
420
  1842203
370
     9
100
AcDbVertex
100
AcDb2dVertex
 10
17.69941785439787
 20
-35.19163744244435
 30
0.0
  0
VERTEX
  5
141
330
12E
100
AcDbEntity
  8
Layer 1
 62
   250
420
  1842203
370
     9
100
AcDbVertex
100
AcDb2dVertex
 10
18.34096217516326
 20
-34.48485819560009
 30
0.0
  0
VERTEX
  5
142
330
12E
100
AcDbEntity
  8
Layer 1
 62
   250
420
  1842203
370
     9
100
AcDbVertex
100
AcDb2dVertex
 10
17.61783682925714
 20
-33.861796598815
 30
0.0
  0
VERTEX
  5
143
330
12E
100
AcDbEntity
  8
Layer 1
 62
   250
420
  1842203
370
     9
100
AcDbVertex
100
AcDb2dVertex
 10
18.36696336223573
 20
-33.27025162430412
 30
0.0
  0
VERTEX
  5
144
330
12E
100
AcDbEntity
  8
Layer 1
 62
   250
420
  1842203
370
     9
100
AcDbVertex
100
AcDb2dVertex
 10
17.75625307176774
 20
-32.53666525556832
 30
0.0
  0
VERTEX
  5
145
330
12E
100
AcDbEntity
  8
Layer 1
 62
   250
420
  1842203
370
     9
100
AcDbVertex
100
AcDb2dVertex
 10
18.59252759795902
 20
-32.07649035825154
 30
0.0
  0
VERTEX
  5
146
330
12E
100
AcDbEntity
  8
Layer 1
 62
   250
420
  1842203
370
     9
100
AcDbVertex
100
AcDb2dVertex
 10
18.11089094764719
 20
-31.25238954138738
 30
0.0
  0
VERTEX
  5
147
330
12E
100
AcDbEntity
  8
Layer 1
 62
   250
420
  1842203
370
     9
100
AcDbVertex
100
AcDb2dVertex
 10
19.01150207798641
 20
-30.93613709287763
 30
0.0
  0
VERTEX
  5
148
330
12E
100
AcDbEntity
  8
Layer 1
 62
   250
420
  1842203
370
     9
100
AcDbVertex
100
AcDb2dVertex
 10
18.67207686012142
 20
-30.04400114989822
 30
0.0
  0
VERTEX
  5
149
330
12E
100
AcDbEntity
  8
Layer 1
 62
   250
420
  1842203
370
     9
100
AcDbVertex
100
AcDb2dVertex
 10
19.61245827069112
 20
-29.88029769258201
 30
0.0
  0
VERTEX
  5
14A
330
12E
100
AcDbEntity
  8
Layer 1
 62
   250
420
  1842203
370
     9
100
AcDbVertex
100
AcDb2dVertex
 10
19.42450312039883
 20
-28.94446176638634
 30
0.0
  0
VERTEX
  5
14B
330
12E
100
AcDbEntity
  8
Layer 1
 62
   250
420
  1842203
370
     9
100
AcDbVertex
100
AcDb2dVertex
 10
20.37900365770597
 20
-28.9377727038372
 30
0.0
  0
VERTEX
  5
14C
330
12E
100
AcDbEntity
  8
Layer 1
 62
   250
420
  1842203
370
     9
100
AcDbVertex
100
AcDb2dVertex
 10
20.34764550152786
 20
-27.98376395895025
 30
0.0
  0
VERTEX
  5
14D
330
12E
100
AcDbEntity
  8
Layer 1
 62
   250
420
  1842203
370
     9
100
AcDbVertex
100
AcDb2dVertex
 10
21.29022887911414
 20
-28.13427175135648
 30
0.0
  0
VERTEX
  5
14E
330
12E
100
AcDbEntity
  8
Layer 1
 62
   250
420
  1842203
370
     9
100
AcDbVertex
100
AcDb2dVertex
 10
21.41632308579842
 20
-27.1881130594241
 30
0.0
  0
VERTEX
  5
14F
330
12E
100
AcDbEntity
  8
Layer 1
 62
   250
420
  1842203
370
     9
100
AcDbVertex
100
AcDb2dVertex
 10
22.32127808625901
 20
-27.49171224655338
 30
0.0
  0
VERTEX
  5
150
330
12E
100
AcDbEntity
  8
Layer 1
 62
   250
420
  1842203
370
     9
100
AcDbVertex
100
AcDb2dVertex
 10
22.60138513455527
 20
-26.57921235023903
 30
0.0
  0
VERTEX
  5
151
330
12E
100
AcDbEntity
  8
Layer 1
 62
   250
420
  1842203
370
     9
100
AcDbVertex
100
AcDb2dVertex
 10
23.44402694451395
 20
-27.0276215376913
 30
0.0
  0
VERTEX
  5
152
330
12E
100
AcDbEntity
  8
Layer 1
 62
   250
420
  1842203
370
     9
100
AcDbVertex
100
AcDb2dVertex
 10
23.87050624432713
 20
-26.17367105545699
 30
0.0
  0
VERTEX
  5
153
330
12E
100
AcDbEntity
  8
Layer 1
 62
   250
420
  1842203
370
     9
100
AcDbVertex
100
AcDb2dVertex
 10
24.62784979181223
 20
-26.75465880951318
 30
0.0
  0
VERTEX
  5
154
330
12E
100
AcDbEntity
  8
Layer 1
 62
   250
420
  1842203
370
     9
100
AcDbVertex
100
AcDb2dVertex
 10
25.1890680995981
 20
-25.98255128443184
 30
0.0
  0
VERTEX
  5
155
330
12E
100
AcDbEntity
  8
Layer 1
 62
   250
420
  1842203
370
     9
100
AcDbVertex
100
AcDb2dVertex
 10
25.68249696921009
 20
-27.03436749324263
 30
0.0
  0
SEQEND
  5
156
330
12E
100
AcDbEntity
  8
Layer 1
 62
   250
420
  1842203
370
     9
  0
POLYLINE
  5
157
330
41
100
AcDbEntity
  8
Layer 1
 62
   250
420
  1842203
370
     9
100
AcDb2dPolyline
 66
     1
 10
0.0
 20
0.0
 30
0.0
  0
VERTEX
  5
158
330
157
100
AcDbEntity
  8
Layer 1
 62
   250
420
  1842203
370
     9
100
AcDbVertex
100
AcDb2dVertex
 10
27.04876593992766
 20
-26.8064835691831
 30
0.0
  0
VERTEX
  5
25D
330
157
100
AcDbEntity
  8
0
100
AcDbVertex
100
AcDb2dVertex
 10
27.04876593992766
 20
-26.8064835691831
 30
0.0
  0
SEQEND
  5
159
330
157
100
AcDbEntity
  8
Layer 1
 62
   250
420
  1842203
370
     9
  0
INSERT
  5
15B
330
41
100
AcDbEntity
  8
Layer 1
100
AcDbBlockReference
  2
block 29
 10
0.0
 20
0.0
 30
0.0
  0
INSERT
  5
198
330
41
100
AcDbEntity
  8
Layer 1
100
AcDbBlockReference
  2
block 38
 10
0.0
 20
0.0
 30
0.0
  0
POLYLINE
  5
1D4
330
41
100
AcDbEntity
  8
Layer 1
 62
   250
420
  1842203
370
     9
100
AcDb2dPolyline
 66
     1
 10
0.0
 20
0.0
 30
0.0
  0
VERTEX
  5
1D5
330
1D4
100
AcDbEntity
  8
Layer 1
 62
   250
420
  1842203
370
     9
100
AcDbVertex
100
AcDb2dVertex
 10
71.495520815577
 20
-11.01659833058039
 30
0.0
  0
VERTEX
  5
1D6
330
1D4
100
AcDbEntity
  8
Layer 1
 62
   250
420
  1842203
370
     9
100
AcDbVertex
100
AcDb2dVertex
 10
71.495520815577
 20
-24.01660054955238
 30
0.0
  0
SEQEND
  5
1D7
330
1D4
100
AcDbEntity
  8
Layer 1
 62
   250
420
  1842203
370
     9
  0
POLYLINE
  5
1D8
330
41
100
AcDbEntity
  8
Layer 1
 62
   250
420
  1842203
370
     9
100
AcDb2dPolyline
 66
     1
 10
0.0
 20
0.0
 30
0.0
  0
VERTEX
  5
1D9
330
1D8
100
AcDbEntity
  8
Layer 1
 62
   250
420
  1842203
370
     9
100
AcDbVertex
100
AcDb2dVertex
 10
57.19302081903973
 20
-50.48340054293644
 30
0.0
  0
VERTEX
  5
1DA
330
1D8
100
AcDbEntity
  8
Layer 1
 62
   250
420
  1842203
370
     9
100
AcDbVertex
100
AcDb2dVertex
 10
61.55926552619525
 20
-56.9665348484551
 30
0.0
  0
SEQEND
  5
1DB
330
1D8
100
AcDbEntity
  8
Layer 1
 62
   250
420
  1842203
370
     9
  0
INSERT
  5
1DD
330
41
100
AcDbEntity
  8
Layer 1
100
AcDbBlockReference
  2
block 47
 10
0.0
 20
0.0
 30
0.0
  0
ENDBLK
  5
44
330
41
100
AcDbEntity
  8
0
100
AcDbBlockEnd
  0
BLOCK
  5
47
330
45
100
AcDbEntity
  8
0
100
AcDbBlockBegin
  2
block 3
 70
     0
 10
0.0
 20
0.0
 30
0.0
  3
block 3
  1

  0
INSERT
  5
4A
330
45
100
AcDbEntity
  8
Layer 1
100
AcDbBlockReference
  2
block 4
 10
0.0
 20
0.0
 30
0.0
  0
INSERT
  5
62
330
45
100
AcDbEntity
  8
Layer 1
100
AcDbBlockReference
  2
block 7
 10
0.0
 20
0.0
 30
0.0
  0
INSERT
  5
7A
330
45
100
AcDbEntity
  8
Layer 1
100
AcDbBlockReference
  2
block 10
 10
0.0
 20
0.0
 30
0.0
  0
INSERT
  5
92
330
45
100
AcDbEntity
  8
Layer 1
100
AcDbBlockReference
  2
block 13
 10
0.0
 20
0.0
 30
0.0
  0
INSERT
  5
AA
330
45
100
AcDbEntity
  8
Layer 1
100
AcDbBlockReference
  2
block 16
 10
0.0
 20
0.0
 30
0.0
  0
ENDBLK
  5
48
330
45
100
AcDbEntity
  8
0
100
AcDbBlockEnd
  0
BLOCK
  5
4B
330
49
100
AcDbEntity
  8
0
100
AcDbBlockBegin
  2
block 4
 70
     0
 10
0.0
 20
0.0
 30
0.0
  3
block 4
  1

  0
INSERT
  5
4E
330
49
100
AcDbEntity
  8
Layer 1
100
AcDbBlockReference
  2
block 5
 10
0.0
 20
0.0
 30
0.0
  0
INSERT
  5
58
330
49
100
AcDbEntity
  8
Layer 1
100
AcDbBlockReference
  2
block 6
 10
0.0
 20
0.0
 30
0.0
  0
ENDBLK
  5
4C
330
49
100
AcDbEntity
  8
0
100
AcDbBlockEnd
  0
BLOCK
  5
4F
330
4D
100
AcDbEntity
  8
0
100
AcDbBlockBegin
  2
block 5
 70
     0
 10
0.0
 20
0.0
 30
0.0
  3
block 5
  1

  0
POLYLINE
  5
51
330
4D
100
AcDbEntity
  8
Layer 1
 62
   250
420
  1842203
370
     9
100
AcDb2dPolyline
 66
     1
 10
0.0
 20
0.0
 30
0.0
  0
VERTEX
  5
52
330
51
100
AcDbEntity
  8
Layer 1
 62
   250
420
  1842203
370
     9
100
AcDbVertex
100
AcDb2dVertex
 10
58.47101834476583
 20
-17.51626430117706
 30
0.0
  0
VERTEX
  5
25E
330
51
100
AcDbEntity
  8
0
100
AcDbVertex
100
AcDb2dVertex
 10
58.47101834476583
 20
-17.51626430117706
 30
0.0
  0
SEQEND
  5
53
330
51
100
AcDbEntity
  8
Layer 1
 62
   250
420
  1842203
370
     9
  0
POLYLINE
  5
54
330
4D
100
AcDbEntity
  8
Layer 1
 62
   250
420
  1842203
370
     9
100
AcDb2dPolyline
 66
     1
 10
0.0
 20
0.0
 30
0.0
  0
VERTEX
  5
55
330
54
100
AcDbEntity
  8
Layer 1
 62
   250
420
  1842203
370
     9
100
AcDbVertex
100
AcDb2dVertex
 10
58.47101834476583
 20
-17.21516846791959
 30
0.0
  0
VERTEX
  5
25F
330
54
100
AcDbEntity
  8
0
100
AcDbVertex
100
AcDb2dVertex
 10
58.47101834476583
 20
-17.21516846791959
 30
0.0
  0
SEQEND
  5
56
330
54
100
AcDbEntity
  8
Layer 1
 62
   250
420
  1842203
370
     9
  0
ENDBLK
  5
50
330
4D
100
AcDbEntity
  8
0
100
AcDbBlockEnd
  0
BLOCK
  5
59
330
57
100
AcDbEntity
  8
0
100
AcDbBlockBegin
  2
block 6
 70
     0
 10
0.0
 20
0.0
 30
0.0
  3
block 6
  1

  0
POLYLINE
  5
5B
330
57
100
AcDbEntity
  8
Layer 1
 62
   250
420
  1842203
370
     9
100
AcDb2dPolyline
 66
     1
 10
0.0
 20
0.0
 30
0.0
  0
VERTEX
  5
5C
330
5B
100
AcDbEntity
  8
Layer 1
 62
   250
420
  1842203
370
     9
100
AcDbVertex
100
AcDb2dVertex
 10
71.52002106741617
 20
-17.51626430117706
 30
0.0
  0
VERTEX
  5
260
330
5B
100
AcDbEntity
  8
0
100
AcDbVertex
100
AcDb2dVertex
 10
71.52002106741617
 20
-17.51626430117706
 30
0.0
  0
SEQEND
  5
5D
330
5B
100
AcDbEntity
  8
Layer 1
 62
   250
420
  1842203
370
     9
  0
POLYLINE
  5
5E
330
57
100
AcDbEntity
  8
Layer 1
 62
   250
420
  1842203
370
     9
100
AcDb2dPolyline
 66
     1
 10
0.0
 20
0.0
 30
0.0
  0
VERTEX
  5
5F
330
5E
100
AcDbEntity
  8
Layer 1
 62
   250
420
  1842203
370
     9
100
AcDbVertex
100
AcDb2dVertex
 10
71.52002106741617
 20
-17.51626430117706
 30
0.0
  0
VERTEX
  5
261
330
5E
100
AcDbEntity
  8
0
100
AcDbVertex
100
AcDb2dVertex
 10
71.52002106741617
 20
-17.51626430117706
 30
0.0
  0
SEQEND
  5
60
330
5E
100
AcDbEntity
  8
Layer 1
 62
   250
420
  1842203
370
     9
  0
ENDBLK
  5
5A
330
57
100
AcDbEntity
  8
0
100
AcDbBlockEnd
  0
BLOCK
  5
63
330
61
100
AcDbEntity
  8
0
100
AcDbBlockBegin
  2
block 7
 70
     0
 10
0.0
 20
0.0
 30
0.0
  3
block 7
  1

  0
INSERT
  5
66
330
61
100
AcDbEntity
  8
Layer 1
100
AcDbBlockReference
  2
block 8
 10
0.0
 20
0.0
 30
0.0
  0
INSERT
  5
70
330
61
100
AcDbEntity
  8
Layer 1
100
AcDbBlockReference
  2
block 9
 10
0.0
 20
0.0
 30
0.0
  0
ENDBLK
  5
64
330
61
100
AcDbEntity
  8
0
100
AcDbBlockEnd
  0
BLOCK
  5
67
330
65
100
AcDbEntity
  8
0
100
AcDbBlockBegin
  2
block 8
 70
     0
 10
0.0
 20
0.0
 30
0.0
  3
block 8
  1

  0
POLYLINE
  5
69
330
65
100
AcDbEntity
  8
Layer 1
 62
   250
420
  1842203
370
     9
100
AcDb2dPolyline
 66
     1
 10
0.0
 20
0.0
 30
0.0
  0
VERTEX
  5
6A
330
69
100
AcDbEntity
  8
Layer 1
 62
   250
420
  1842203
370
     9
100
AcDbVertex
100
AcDb2dVertex
 10
58.51236389926657
 20
-17.51626430117706
 30
0.0
  0
VERTEX
  5
262
330
69
100
AcDbEntity
  8
0
100
AcDbVertex
100
AcDb2dVertex
 10
58.51236389926657
 20
-17.51626430117706
 30
0.0
  0
SEQEND
  5
6B
330
69
100
AcDbEntity
  8
Layer 1
 62
   250
420
  1842203
370
     9
  0
POLYLINE
  5
6C
330
65
100
AcDbEntity
  8
Layer 1
 62
   250
420
  1842203
370
     9
100
AcDb2dPolyline
 66
     1
 10
0.0
 20
0.0
 30
0.0
  0
VERTEX
  5
6D
330
6C
100
AcDbEntity
  8
Layer 1
 62
   250
420
  1842203
370
     9
100
AcDbVertex
100
AcDb2dVertex
 10
58.51236389926657
 20
-17.21516846791959
 30
0.0
  0
VERTEX
  5
263
330
6C
100
AcDbEntity
  8
0
100
AcDbVertex
100
AcDb2dVertex
 10
58.51236389926657
 20
-17.21516846791959
 30
0.0
  0
SEQEND
  5
6E
330
6C
100
AcDbEntity
  8
Layer 1
 62
   250
420
  1842203
370
     9
  0
ENDBLK
  5
68
330
65
100
AcDbEntity
  8
0
100
AcDbBlockEnd
  0
BLOCK
  5
71
330
6F
100
AcDbEntity
  8
0
100
AcDbBlockBegin
  2
block 9
 70
     0
 10
0.0
 20
0.0
 30
0.0
  3
block 9
  1

  0
POLYLINE
  5
73
330
6F
100
AcDbEntity
  8
Layer 1
 62
   250
420
  1842203
370
     9
100
AcDb2dPolyline
 66
     1
 10
0.0
 20
0.0
 30
0.0
  0
VERTEX
  5
74
330
73
100
AcDbEntity
  8
Layer 1
 62
   250
420
  1842203
370
     9
100
AcDbVertex
100
AcDb2dVertex
 10
71.56136662191369
 20
-17.51626430117706
 30
0.0
  0
VERTEX
  5
264
330
73
100
AcDbEntity
  8
0
100
AcDbVertex
100
AcDb2dVertex
 10
71.56136662191369
 20
-17.51626430117706
 30
0.0
  0
SEQEND
  5
75
330
73
100
AcDbEntity
  8
Layer 1
 62
   250
420
  1842203
370
     9
  0
POLYLINE
  5
76
330
6F
100
AcDbEntity
  8
Layer 1
 62
   250
420
  1842203
370
     9
100
AcDb2dPolyline
 66
     1
 10
0.0
 20
0.0
 30
0.0
  0
VERTEX
  5
77
330
76
100
AcDbEntity
  8
Layer 1
 62
   250
420
  1842203
370
     9
100
AcDbVertex
100
AcDb2dVertex
 10
71.56136662191369
 20
-17.51626430117706
 30
0.0
  0
VERTEX
  5
265
330
76
100
AcDbEntity
  8
0
100
AcDbVertex
100
AcDb2dVertex
 10
71.56136662191369
 20
-17.51626430117706
 30
0.0
  0
SEQEND
  5
78
330
76
100
AcDbEntity
  8
Layer 1
 62
   250
420
  1842203
370
     9
  0
ENDBLK
  5
72
330
6F
100
AcDbEntity
  8
0
100
AcDbBlockEnd
  0
BLOCK
  5
7B
330
79
100
AcDbEntity
  8
0
100
AcDbBlockBegin
  2
block 10
 70
     0
 10
0.0
 20
0.0
 30
0.0
  3
block 10
  1

  0
INSERT
  5
7E
330
79
100
AcDbEntity
  8
Layer 1
100
AcDbBlockReference
  2
block 11
 10
0.0
 20
0.0
 30
0.0
  0
INSERT
  5
88
330
79
100
AcDbEntity
  8
Layer 1
100
AcDbBlockReference
  2
block 12
 10
0.0
 20
0.0
 30
0.0
  0
ENDBLK
  5
7C
330
79
100
AcDbEntity
  8
0
100
AcDbBlockEnd
  0
BLOCK
  5
7F
330
7D
100
AcDbEntity
  8
0
100
AcDbBlockBegin
  2
block 11
 70
     0
 10
0.0
 20
0.0
 30
0.0
  3
block 11
  1

  0
POLYLINE
  5
81
330
7D
100
AcDbEntity
  8
Layer 1
 62
   250
420
  1842203
370
     9
100
AcDb2dPolyline
 66
     1
 10
0.0
 20
0.0
 30
0.0
  0
VERTEX
  5
82
330
81
100
AcDbEntity
  8
Layer 1
 62
   250
420
  1842203
370
     9
100
AcDbVertex
100
AcDb2dVertex
 10
58.47101834476583
 20
-17.78635096777675
 30
0.0
  0
VERTEX
  5
266
330
81
100
AcDbEntity
  8
0
100
AcDbVertex
100
AcDb2dVertex
 10
58.47101834476583
 20
-17.78635096777675
 30
0.0
  0
SEQEND
  5
83
330
81
100
AcDbEntity
  8
Layer 1
 62
   250
420
  1842203
370
     9
  0
POLYLINE
  5
84
330
7D
100
AcDbEntity
  8
Layer 1
 62
   250
420
  1842203
370
     9
100
AcDb2dPolyline
 66
     1
 10
0.0
 20
0.0
 30
0.0
  0
VERTEX
  5
85
330
84
100
AcDbEntity
  8
Layer 1
 62
   250
420
  1842203
370
     9
100
AcDbVertex
100
AcDb2dVertex
 10
58.47101834476583
 20
-17.48525513451895
 30
0.0
  0
VERTEX
  5
267
330
84
100
AcDbEntity
  8
0
100
AcDbVertex
100
AcDb2dVertex
 10
58.47101834476583
 20
-17.48525513451895
 30
0.0
  0
SEQEND
  5
86
330
84
100
AcDbEntity
  8
Layer 1
 62
   250
420
  1842203
370
     9
  0
ENDBLK
  5
80
330
7D
100
AcDbEntity
  8
0
100
AcDbBlockEnd
  0
BLOCK
  5
89
330
87
100
AcDbEntity
  8
0
100
AcDbBlockBegin
  2
block 12
 70
     0
 10
0.0
 20
0.0
 30
0.0
  3
block 12
  1

  0
POLYLINE
  5
8B
330
87
100
AcDbEntity
  8
Layer 1
 62
   250
420
  1842203
370
     9
100
AcDb2dPolyline
 66
     1
 10
0.0
 20
0.0
 30
0.0
  0
VERTEX
  5
8C
330
8B
100
AcDbEntity
  8
Layer 1
 62
   250
420
  1842203
370
     9
100
AcDbVertex
100
AcDb2dVertex
 10
71.52002106741617
 20
-17.78635096777675
 30
0.0
  0
VERTEX
  5
268
330
8B
100
AcDbEntity
  8
0
100
AcDbVertex
100
AcDb2dVertex
 10
71.52002106741617
 20
-17.78635096777675
 30
0.0
  0
SEQEND
  5
8D
330
8B
100
AcDbEntity
  8
Layer 1
 62
   250
420
  1842203
370
     9
  0
POLYLINE
  5
8E
330
87
100
AcDbEntity
  8
Layer 1
 62
   250
420
  1842203
370
     9
100
AcDb2dPolyline
 66
     1
 10
0.0
 20
0.0
 30
0.0
  0
VERTEX
  5
8F
330
8E
100
AcDbEntity
  8
Layer 1
 62
   250
420
  1842203
370
     9
100
AcDbVertex
100
AcDb2dVertex
 10
71.52002106741617
 20
-17.78635096777675
 30
0.0
  0
VERTEX
  5
269
330
8E
100
AcDbEntity
  8
0
100
AcDbVertex
100
AcDb2dVertex
 10
71.52002106741617
 20
-17.78635096777675
 30
0.0
  0
SEQEND
  5
90
330
8E
100
AcDbEntity
  8
Layer 1
 62
   250
420
  1842203
370
     9
  0
ENDBLK
  5
8A
330
87
100
AcDbEntity
  8
0
100
AcDbBlockEnd
  0
BLOCK
  5
93
330
91
100
AcDbEntity
  8
0
100
AcDbBlockBegin
  2
block 13
 70
     0
 10
0.0
 20
0.0
 30
0.0
  3
block 13
  1

  0
INSERT
  5
96
330
91
100
AcDbEntity
  8
Layer 1
100
AcDbBlockReference
  2
block 14
 10
0.0
 20
0.0
 30
0.0
  0
INSERT
  5
A0
330
91
100
AcDbEntity
  8
Layer 1
100
AcDbBlockReference
  2
block 15
 10
0.0
 20
0.0
 30
0.0
  0
ENDBLK
  5
94
330
91
100
AcDbEntity
  8
0
100
AcDbBlockEnd
  0
BLOCK
  5
97
330
95
100
AcDbEntity
  8
0
100
AcDbBlockBegin
  2
block 14
 70
     0
 10
0.0
 20
0.0
 30
0.0
  3
block 14
  1

  0
POLYLINE
  5
99
330
95
100
AcDbEntity
  8
Layer 1
 62
   250
420
  1842203
370
     9
100
AcDb2dPolyline
 66
     1
 10
0.0
 20
0.0
 30
0.0
  0
VERTEX
  5
9A
330
99
100
AcDbEntity
  8
Layer 1
 62
   250
420
  1842203
370
     9
100
AcDbVertex
100
AcDb2dVertex
 10
58.51236389926657
 20
-17.81803041221318
 30
0.0
  0
VERTEX
  5
26A
330
99
100
AcDbEntity
  8
0
100
AcDbVertex
100
AcDb2dVertex
 10
58.51236389926657
 20
-17.81803041221318
 30
0.0
  0
SEQEND
  5
9B
330
99
100
AcDbEntity
  8
Layer 1
 62
   250
420
  1842203
370
     9
  0
POLYLINE
  5
9C
330
95
100
AcDbEntity
  8
Layer 1
 62
   250
420
  1842203
370
     9
100
AcDb2dPolyline
 66
     1
 10
0.0
 20
0.0
 30
0.0
  0
VERTEX
  5
9D
330
9C
100
AcDbEntity
  8
Layer 1
 62
   250
420
  1842203
370
     9
100
AcDbVertex
100
AcDb2dVertex
 10
58.51236389926657
 20
-17.51626430117706
 30
0.0
  0
VERTEX
  5
26B
330
9C
100
AcDbEntity
  8
0
100
AcDbVertex
100
AcDb2dVertex
 10
58.51236389926657
 20
-17.51626430117706
 30
0.0
  0
SEQEND
  5
9E
330
9C
100
AcDbEntity
  8
Layer 1
 62
   250
420
  1842203
370
     9
  0
ENDBLK
  5
98
330
95
100
AcDbEntity
  8
0
100
AcDbBlockEnd
  0
BLOCK
  5
A1
330
9F
100
AcDbEntity
  8
0
100
AcDbBlockBegin
  2
block 15
 70
     0
 10
0.0
 20
0.0
 30
0.0
  3
block 15
  1

  0
POLYLINE
  5
A3
330
9F
100
AcDbEntity
  8
Layer 1
 62
   250
420
  1842203
370
     9
100
AcDb2dPolyline
 66
     1
 10
0.0
 20
0.0
 30
0.0
  0
VERTEX
  5
A4
330
A3
100
AcDbEntity
  8
Layer 1
 62
   250
420
  1842203
370
     9
100
AcDbVertex
100
AcDb2dVertex
 10
71.56136662191369
 20
-17.81803041221318
 30
0.0
  0
VERTEX
  5
26C
330
A3
100
AcDbEntity
  8
0
100
AcDbVertex
100
AcDb2dVertex
 10
71.56136662191369
 20
-17.81803041221318
 30
0.0
  0
SEQEND
  5
A5
330
A3
100
AcDbEntity
  8
Layer 1
 62
   250
420
  1842203
370
     9
  0
POLYLINE
  5
A6
330
9F
100
AcDbEntity
  8
Layer 1
 62
   250
420
  1842203
370
     9
100
AcDb2dPolyline
 66
     1
 10
0.0
 20
0.0
 30
0.0
  0
VERTEX
  5
A7
330
A6
100
AcDbEntity
  8
Layer 1
 62
   250
420
  1842203
370
     9
100
AcDbVertex
100
AcDb2dVertex
 10
71.56136662191369
 20
-17.81803041221318
 30
0.0
  0
VERTEX
  5
26D
330
A6
100
AcDbEntity
  8
0
100
AcDbVertex
100
AcDb2dVertex
 10
71.56136662191369
 20
-17.81803041221318
 30
0.0
  0
SEQEND
  5
A8
330
A6
100
AcDbEntity
  8
Layer 1
 62
   250
420
  1842203
370
     9
  0
ENDBLK
  5
A2
330
9F
100
AcDbEntity
  8
0
100
AcDbBlockEnd
  0
BLOCK
  5
AB
330
A9
100
AcDbEntity
  8
0
100
AcDbBlockBegin
  2
block 16
 70
     0
 10
0.0
 20
0.0
 30
0.0
  3
block 16
  1

  0
INSERT
  5
AE
330
A9
100
AcDbEntity
  8
Layer 1
100
AcDbBlockReference
  2
block 17
 10
0.0
 20
0.0
 30
0.0
  0
ENDBLK
  5
AC
330
A9
100
AcDbEntity
  8
0
100
AcDbBlockEnd
  0
BLOCK
  5
AF
330
AD
100
AcDbEntity
  8
0
100
AcDbBlockBegin
  2
block 17
 70
     0
 10
0.0
 20
0.0
 30
0.0
  3
block 17
  1

  0
INSERT
  5
B2
330
AD
100
AcDbEntity
  8
Layer 1
100
AcDbBlockReference
  2
block 18
 10
0.0
 20
0.0
 30
0.0
  0
INSERT
  5
BC
330
AD
100
AcDbEntity
  8
Layer 1
100
AcDbBlockReference
  2
block 19
 10
0.0
 20
0.0
 30
0.0
  0
ENDBLK
  5
B0
330
AD
100
AcDbEntity
  8
0
100
AcDbBlockEnd
  0
BLOCK
  5
B3
330
B1
100
AcDbEntity
  8
0
100
AcDbBlockBegin
  2
block 18
 70
     0
 10
0.0
 20
0.0
 30
0.0
  3
block 18
  1

  0
POLYLINE
  5
B5
330
B1
100
AcDbEntity
  8
Layer 1
 62
   250
420
  1842203
370
     9
100
AcDb2dPolyline
 66
     1
 10
0.0
 20
0.0
 30
0.0
  0
VERTEX
  5
B6
330
B5
100
AcDbEntity
  8
Layer 1
 62
   250
420
  1842203
370
     9
100
AcDbVertex
100
AcDb2dVertex
 10
58.47101834476583
 20
-17.70849291224071
 30
0.0
  0
VERTEX
  5
26E
330
B5
100
AcDbEntity
  8
0
100
AcDbVertex
100
AcDb2dVertex
 10
58.47101834476583
 20
-17.70849291224071
 30
0.0
  0
SEQEND
  5
B7
330
B5
100
AcDbEntity
  8
Layer 1
 62
   250
420
  1842203
370
     9
  0
POLYLINE
  5
B8
330
B1
100
AcDbEntity
  8
Layer 1
 62
   250
420
  1842203
370
     9
100
AcDb2dPolyline
 66
     1
 10
0.0
 20
0.0
 30
0.0
  0
VERTEX
  5
B9
330
B8
100
AcDbEntity
  8
Layer 1
 62
   250
420
  1842203
370
     9
100
AcDbVertex
100
AcDb2dVertex
 10
58.47101834476583
 20
-17.40739707898227
 30
0.0
  0
VERTEX
  5
26F
330
B8
100
AcDbEntity
  8
0
100
AcDbVertex
100
AcDb2dVertex
 10
58.47101834476583
 20
-17.40739707898227
 30
0.0
  0
SEQEND
  5
BA
330
B8
100
AcDbEntity
  8
Layer 1
 62
   250
420
  1842203
370
     9
  0
ENDBLK
  5
B4
330
B1
100
AcDbEntity
  8
0
100
AcDbBlockEnd
  0
BLOCK
  5
BD
330
BB
100
AcDbEntity
  8
0
100
AcDbBlockBegin
  2
block 19
 70
     0
 10
0.0
 20
0.0
 30
0.0
  3
block 19
  1

  0
POLYLINE
  5
BF
330
BB
100
AcDbEntity
  8
Layer 1
 62
   250
420
  1842203
370
     9
100
AcDb2dPolyline
 66
     1
 10
0.0
 20
0.0
 30
0.0
  0
VERTEX
  5
C0
330
BF
100
AcDbEntity
  8
Layer 1
 62
   250
420
  1842203
370
     9
100
AcDbVertex
100
AcDb2dVertex
 10
71.52002106741617
 20
-17.70849291224071
 30
0.0
  0
VERTEX
  5
270
330
BF
100
AcDbEntity
  8
0
100
AcDbVertex
100
AcDb2dVertex
 10
71.52002106741617
 20
-17.70849291224071
 30
0.0
  0
SEQEND
  5
C1
330
BF
100
AcDbEntity
  8
Layer 1
 62
   250
420
  1842203
370
     9
  0
POLYLINE
  5
C2
330
BB
100
AcDbEntity
  8
Layer 1
 62
   250
420
  1842203
370
     9
100
AcDb2dPolyline
 66
     1
 10
0.0
 20
0.0
 30
0.0
  0
VERTEX
  5
C3
330
C2
100
AcDbEntity
  8
Layer 1
 62
   250
420
  1842203
370
     9
100
AcDbVertex
100
AcDb2dVertex
 10
71.52002106741617
 20
-17.70849291224071
 30
0.0
  0
VERTEX
  5
271
330
C2
100
AcDbEntity
  8
0
100
AcDbVertex
100
AcDb2dVertex
 10
71.52002106741617
 20
-17.70849291224071
 30
0.0
  0
SEQEND
  5
C4
330
C2
100
AcDbEntity
  8
Layer 1
 62
   250
420
  1842203
370
     9
  0
ENDBLK
  5
BE
330
BB
100
AcDbEntity
  8
0
100
AcDbBlockEnd
  0
BLOCK
  5
C7
330
C5
100
AcDbEntity
  8
0
100
AcDbBlockBegin
  2
block 20
 70
     0
 10
0.0
 20
0.0
 30
0.0
  3
block 20
  1

  0
INSERT
  5
CA
330
C5
100
AcDbEntity
  8
Layer 1
100
AcDbBlockReference
  2
block 21
 10
0.0
 20
0.0
 30
0.0
  0
INSERT
  5
D8
330
C5
100
AcDbEntity
  8
Layer 1
100
AcDbBlockReference
  2
block 23
 10
0.0
 20
0.0
 30
0.0
  0
INSERT
  5
E7
330
C5
100
AcDbEntity
  8
Layer 1
100
AcDbBlockReference
  2
block 25
 10
0.0
 20
0.0
 30
0.0
  0
INSERT
  5
F5
330
C5
100
AcDbEntity
  8
Layer 1
100
AcDbBlockReference
  2
block 27
 10
0.0
 20
0.0
 30
0.0
  0
ENDBLK
  5
C8
330
C5
100
AcDbEntity
  8
0
100
AcDbBlockEnd
  0
BLOCK
  5
CB
330
C9
100
AcDbEntity
  8
0
100
AcDbBlockBegin
  2
block 21
 70
     0
 10
0.0
 20
0.0
 30
0.0
  3
block 21
  1

  0
INSERT
  5
CE
330
C9
100
AcDbEntity
  8
Layer 1
100
AcDbBlockReference
  2
block 22
 10
0.0
 20
0.0
 30
0.0
  0
ENDBLK
  5
CC
330
C9
100
AcDbEntity
  8
0
100
AcDbBlockEnd
  0
BLOCK
  5
CF
330
CD
100
AcDbEntity
  8
0
100
AcDbBlockBegin
  2
block 22
 70
     0
 10
0.0
 20
0.0
 30
0.0
  3
block 22
  1

  0
POLYLINE
  5
D1
330
CD
100
AcDbEntity
  8
Layer 1
 62
   250
420
  1842203
370
     9
100
AcDb2dPolyline
 66
     1
 10
0.0
 20
0.0
 30
0.0
  0
VERTEX
  5
D2
330
D1
100
AcDbEntity
  8
Layer 1
 62
   250
420
  1842203
370
     9
100
AcDbVertex
100
AcDb2dVertex
 10
71.5355080114655
 20
-34.04101040815768
 30
0.0
  0
VERTEX
  5
272
330
D1
100
AcDbEntity
  8
0
100
AcDbVertex
100
AcDb2dVertex
 10
71.5355080114655
 20
-34.04101040815768
 30
0.0
  0
SEQEND
  5
D3
330
D1
100
AcDbEntity
  8
Layer 1
 62
   250
420
  1842203
370
     9
  0
POLYLINE
  5
D4
330
CD
100
AcDbEntity
  8
Layer 1
 62
   250
420
  1842203
370
     9
100
AcDb2dPolyline
 66
     1
 10
0.0
 20
0.0
 30
0.0
  0
VERTEX
  5
D5
330
D4
100
AcDbEntity
  8
Layer 1
 62
   250
420
  1842203
370
     9
100
AcDbVertex
100
AcDb2dVertex
 10
71.5355080114655
 20
-34.04101040815768
 30
0.0
  0
VERTEX
  5
273
330
D4
100
AcDbEntity
  8
0
100
AcDbVertex
100
AcDb2dVertex
 10
71.5355080114655
 20
-34.04101040815768
 30
0.0
  0
SEQEND
  5
D6
330
D4
100
AcDbEntity
  8
Layer 1
 62
   250
420
  1842203
370
     9
  0
ENDBLK
  5
D0
330
CD
100
AcDbEntity
  8
0
100
AcDbBlockEnd
  0
BLOCK
  5
D9
330
D7
100
AcDbEntity
  8
0
100
AcDbBlockBegin
  2
block 23
 70
     0
 10
0.0
 20
0.0
 30
0.0
  3
block 23
  1

  0
SPLINE
  5
DB
330
D7
100
AcDbEntity
  8
Layer 1
 62
   250
420
  1842203
370
     9
100
AcDbSpline
210
0.0
220
0.0
230
1.0
 70
    11
 71
     3
 72
    17
 73
    13
 74
     0
 42
0.0000000001
 43
0.0000000001
 12
1.0
 22
0.0
 32
0.0
 13
1.0
 23
0.0
 33
0.0
 40
0.0
 40
0.0
 40
0.0
 40
0.0
 40
1.0
 40
1.0
 40
1.0
 40
2.0
 40
2.0
 40
2.0
 40
3.0
 40
3.0
 40
3.0
 40
4.0
 40
4.0
 40
4.0
 40
4.0
 10
72.01094661044525
 20
-34.04168068593569
 30
0.0
 10
72.01094661044525
 20
-37.90777235163577
 30
0.0
 10
68.87729499268261
 20
-41.04142679529659
 30
0.0
 10
65.01049777142347
 20
-41.04142679529659
 30
0.0
 10
61.14443883211675
 20
-41.04142679529659
 30
0.0
 10
58.01110196761231
 20
-37.90777235163577
 30
0.0
 10
58.01110196761231
 20
-34.04168068593569
 30
0.0
 10
58.01110196761231
 20
-30.1749187424576
 30
0.0
 10
61.14443883211675
 20
-27.04126429879646
 30
0.0
 10
65.01049777142347
 20
-27.04126429879646
 30
0.0
 10
68.87729499268261
 20
-27.04126429879646
 30
0.0
 10
72.01094661044525
 20
-30.1749187424576
 30
0.0
 10
72.01094661044525
 20
-34.04168068593569
 30
0.0
  0
INSERT
  5
DD
330
D7
100
AcDbEntity
  8
Layer 1
100
AcDbBlockReference
  2
block 24
 10
0.0
 20
0.0
 30
0.0
  0
ENDBLK
  5
DA
330
D7
100
AcDbEntity
  8
0
100
AcDbBlockEnd
  0
BLOCK
  5
DE
330
DC
100
AcDbEntity
  8
0
100
AcDbBlockBegin
  2
block 24
 70
     0
 10
0.0
 20
0.0
 30
0.0
  3
block 24
  1

  0
POLYLINE
  5
E0
330
DC
100
AcDbEntity
  8
Layer 1
 62
   250
420
  1842203
370
     9
100
AcDb2dPolyline
 66
     1
 10
0.0
 20
0.0
 30
0.0
  0
VERTEX
  5
E1
330
E0
100
AcDbEntity
  8
Layer 1
 62
   250
420
  1842203
370
     9
100
AcDbVertex
100
AcDb2dVertex
 10
71.57685356596625
 20
-34.04101040815768
 30
0.0
  0
VERTEX
  5
274
330
E0
100
AcDbEntity
  8
0
100
AcDbVertex
100
AcDb2dVertex
 10
71.57685356596625
 20
-34.04101040815768
 30
0.0
  0
SEQEND
  5
E2
330
E0
100
AcDbEntity
  8
Layer 1
 62
   250
420
  1842203
370
     9
  0
POLYLINE
  5
E3
330
DC
100
AcDbEntity
  8
Layer 1
 62
   250
420
  1842203
370
     9
100
AcDb2dPolyline
 66
     1
 10
0.0
 20
0.0
 30
0.0
  0
VERTEX
  5
E4
330
E3
100
AcDbEntity
  8
Layer 1
 62
   250
420
  1842203
370
     9
100
AcDbVertex
100
AcDb2dVertex
 10
71.57685356596625
 20
-34.04101040815768
 30
0.0
  0
VERTEX
  5
275
330
E3
100
AcDbEntity
  8
0
100
AcDbVertex
100
AcDb2dVertex
 10
71.57685356596625
 20
-34.04101040815768
 30
0.0
  0
SEQEND
  5
E5
330
E3
100
AcDbEntity
  8
Layer 1
 62
   250
420
  1842203
370
     9
  0
ENDBLK
  5
DF
330
DC
100
AcDbEntity
  8
0
100
AcDbBlockEnd
  0
BLOCK
  5
E8
330
E6
100
AcDbEntity
  8
0
100
AcDbBlockBegin
  2
block 25
 70
     0
 10
0.0
 20
0.0
 30
0.0
  3
block 25
  1

  0
INSERT
  5
EB
330
E6
100
AcDbEntity
  8
Layer 1
100
AcDbBlockReference
  2
block 26
 10
0.0
 20
0.0
 30
0.0
  0
ENDBLK
  5
E9
330
E6
100
AcDbEntity
  8
0
100
AcDbBlockEnd
  0
BLOCK
  5
EC
330
EA
100
AcDbEntity
  8
0
100
AcDbBlockBegin
  2
block 26
 70
     0
 10
0.0
 20
0.0
 30
0.0
  3
block 26
  1

  0
POLYLINE
  5
EE
330
EA
100
AcDbEntity
  8
Layer 1
 62
   250
420
  1842203
370
     9
100
AcDb2dPolyline
 66
     1
 10
0.0
 20
0.0
 30
0.0
  0
VERTEX
  5
EF
330
EE
100
AcDbEntity
  8
Layer 1
 62
   250
420
  1842203
370
     9
100
AcDbVertex
100
AcDb2dVertex
 10
71.5355080114655
 20
-34.31109707475705
 30
0.0
  0
VERTEX
  5
276
330
EE
100
AcDbEntity
  8
0
100
AcDbVertex
100
AcDb2dVertex
 10
71.5355080114655
 20
-34.31109707475705
 30
0.0
  0
SEQEND
  5
F0
330
EE
100
AcDbEntity
  8
Layer 1
 62
   250
420
  1842203
370
     9
  0
POLYLINE
  5
F1
330
EA
100
AcDbEntity
  8
Layer 1
 62
   250
420
  1842203
370
     9
100
AcDb2dPolyline
 66
     1
 10
0.0
 20
0.0
 30
0.0
  0
VERTEX
  5
F2
330
F1
100
AcDbEntity
  8
Layer 1
 62
   250
420
  1842203
370
     9
100
AcDbVertex
100
AcDb2dVertex
 10
71.5355080114655
 20
-34.31109707475705
 30
0.0
  0
VERTEX
  5
277
330
F1
100
AcDbEntity
  8
0
100
AcDbVertex
100
AcDb2dVertex
 10
71.5355080114655
 20
-34.31109707475705
 30
0.0
  0
SEQEND
  5
F3
330
F1
100
AcDbEntity
  8
Layer 1
 62
   250
420
  1842203
370
     9
  0
ENDBLK
  5
ED
330
EA
100
AcDbEntity
  8
0
100
AcDbBlockEnd
  0
BLOCK
  5
F6
330
F4
100
AcDbEntity
  8
0
100
AcDbBlockBegin
  2
block 27
 70
     0
 10
0.0
 20
0.0
 30
0.0
  3
block 27
  1

  0
INSERT
  5
F9
330
F4
100
AcDbEntity
  8
Layer 1
100
AcDbBlockReference
  2
block 28
 10
0.0
 20
0.0
 30
0.0
  0
ENDBLK
  5
F7
330
F4
100
AcDbEntity
  8
0
100
AcDbBlockEnd
  0
BLOCK
  5
FA
330
F8
100
AcDbEntity
  8
0
100
AcDbBlockBegin
  2
block 28
 70
     0
 10
0.0
 20
0.0
 30
0.0
  3
block 28
  1

  0
POLYLINE
  5
FC
330
F8
100
AcDbEntity
  8
Layer 1
 62
   250
420
  1842203
370
     9
100
AcDb2dPolyline
 66
     1
 10
0.0
 20
0.0
 30
0.0
  0
VERTEX
  5
FD
330
FC
100
AcDbEntity
  8
Layer 1
 62
   250
420
  1842203
370
     9
100
AcDbVertex
100
AcDb2dVertex
 10
71.57685356596625
 20
-34.34277651919284
 30
0.0
  0
VERTEX
  5
278
330
FC
100
AcDbEntity
  8
0
100
AcDbVertex
100
AcDb2dVertex
 10
71.57685356596625
 20
-34.34277651919284
 30
0.0
  0
SEQEND
  5
FE
330
FC
100
AcDbEntity
  8
Layer 1
 62
   250
420
  1842203
370
     9
  0
POLYLINE
  5
FF
330
F8
100
AcDbEntity
  8
Layer 1
 62
   250
420
  1842203
370
     9
100
AcDb2dPolyline
 66
     1
 10
0.0
 20
0.0
 30
0.0
  0
VERTEX
  5
100
330
FF
100
AcDbEntity
  8
Layer 1
 62
   250
420
  1842203
370
     9
100
AcDbVertex
100
AcDb2dVertex
 10
71.57685356596625
 20
-34.34277651919284
 30
0.0
  0
VERTEX
  5
279
330
FF
100
AcDbEntity
  8
0
100
AcDbVertex
100
AcDb2dVertex
 10
71.57685356596625
 20
-34.34277651919284
 30
0.0
  0
SEQEND
  5
101
330
FF
100
AcDbEntity
  8
Layer 1
 62
   250
420
  1842203
370
     9
  0
ENDBLK
  5
FB
330
F8
100
AcDbEntity
  8
0
100
AcDbBlockEnd
  0
BLOCK
  5
15C
330
15A
100
AcDbEntity
  8
0
100
AcDbBlockBegin
  2
block 29
 70
     0
 10
0.0
 20
0.0
 30
0.0
  3
block 29
  1

  0
INSERT
  5
15F
330
15A
100
AcDbEntity
  8
Layer 1
100
AcDbBlockReference
  2
block 30
 10
0.0
 20
0.0
 30
0.0
  0
INSERT
  5
16D
330
15A
100
AcDbEntity
  8
Layer 1
100
AcDbBlockReference
  2
block 32
 10
0.0
 20
0.0
 30
0.0
  0
INSERT
  5
17C
330
15A
100
AcDbEntity
  8
Layer 1
100
AcDbBlockReference
  2
block 34
 10
0.0
 20
0.0
 30
0.0
  0
INSERT
  5
18A
330
15A
100
AcDbEntity
  8
Layer 1
100
AcDbBlockReference
  2
block 36
 10
0.0
 20
0.0
 30
0.0
  0
ENDBLK
  5
15D
330
15A
100
AcDbEntity
  8
0
100
AcDbBlockEnd
  0
BLOCK
  5
160
330
15E
100
AcDbEntity
  8
0
100
AcDbBlockBegin
  2
block 30
 70
     0
 10
0.0
 20
0.0
 30
0.0
  3
block 30
  1

  0
INSERT
  5
163
330
15E
100
AcDbEntity
  8
Layer 1
100
AcDbBlockReference
  2
block 31
 10
0.0
 20
0.0
 30
0.0
  0
ENDBLK
  5
161
330
15E
100
AcDbEntity
  8
0
100
AcDbBlockEnd
  0
BLOCK
  5
164
330
162
100
AcDbEntity
  8
0
100
AcDbBlockBegin
  2
block 31
 70
     0
 10
0.0
 20
0.0
 30
0.0
  3
block 31
  1

  0
POLYLINE
  5
166
330
162
100
AcDbEntity
  8
Layer 1
 62
   250
420
  1842203
370
     9
100
AcDb2dPolyline
 66
     1
 10
0.0
 20
0.0
 30
0.0
  0
VERTEX
  5
167
330
166
100
AcDbEntity
  8
Layer 1
 62
   250
420
  1842203
370
     9
100
AcDbVertex
100
AcDb2dVertex
 10
32.20750720924891
 20
-34.03411360260418
 30
0.0
  0
VERTEX
  5
27A
330
166
100
AcDbEntity
  8
0
100
AcDbVertex
100
AcDb2dVertex
 10
32.20750720924891
 20
-34.03411360260418
 30
0.0
  0
SEQEND
  5
168
330
166
100
AcDbEntity
  8
Layer 1
 62
   250
420
  1842203
370
     9
  0
POLYLINE
  5
169
330
162
100
AcDbEntity
  8
Layer 1
 62
   250
420
  1842203
370
     9
100
AcDb2dPolyline
 66
     1
 10
0.0
 20
0.0
 30
0.0
  0
VERTEX
  5
16A
330
169
100
AcDbEntity
  8
Layer 1
 62
   250
420
  1842203
370
     9
100
AcDbVertex
100
AcDb2dVertex
 10
32.20750720924891
 20
-34.03411360260418
 30
0.0
  0
VERTEX
  5
27B
330
169
100
AcDbEntity
  8
0
100
AcDbVertex
100
AcDb2dVertex
 10
32.20750720924891
 20
-34.03411360260418
 30
0.0
  0
SEQEND
  5
16B
330
169
100
AcDbEntity
  8
Layer 1
 62
   250
420
  1842203
370
     9
  0
ENDBLK
  5
165
330
162
100
AcDbEntity
  8
0
100
AcDbBlockEnd
  0
BLOCK
  5
16E
330
16C
100
AcDbEntity
  8
0
100
AcDbBlockBegin
  2
block 32
 70
     0
 10
0.0
 20
0.0
 30
0.0
  3
block 32
  1

  0
SPLINE
  5
170
330
16C
100
AcDbEntity
  8
Layer 1
 62
   250
420
  1842203
370
     9
100
AcDbSpline
210
0.0
220
0.0
230
1.0
 70
     8
 71
     3
 72
    11
 73
     7
 74
     0
 42
0.0000000001
 43
0.0000000001
 12
1.0
 22
0.0
 32
0.0
 13
1.0
 23
0.0
 33
0.0
 40
0.0
 40
0.0
 40
0.0
 40
0.0
 40
1.0
 40
1.0
 40
1.0
 40
2.0
 40
2.0
 40
2.0
 40
2.0
 10
25.68249696921009
 20
-27.03436749324263
 30
0.0
 10
29.54929419046601
 20
-27.03436749324263
 30
0.0
 10
32.6829458082325
 20
-30.16802193690441
 30
0.0
 10
32.6829458082325
 20
-34.03478388038218
 30
0.0
 10
32.6829458082325
 20
-37.90087554608162
 30
0.0
 10
29.54929419046601
 20
-41.03452998974245
 30
0.0
 10
25.68249696921009
 20
-41.03452998974245
 30
0.0
  0
INSERT
  5
172
330
16C
100
AcDbEntity
  8
Layer 1
100
AcDbBlockReference
  2
block 33
 10
0.0
 20
0.0
 30
0.0
  0
ENDBLK
  5
16F
330
16C
100
AcDbEntity
  8
0
100
AcDbBlockEnd
  0
BLOCK
  5
173
330
171
100
AcDbEntity
  8
0
100
AcDbBlockBegin
  2
block 33
 70
     0
 10
0.0
 20
0.0
 30
0.0
  3
block 33
  1

  0
POLYLINE
  5
175
330
171
100
AcDbEntity
  8
Layer 1
 62
   250
420
  1842203
370
     9
100
AcDb2dPolyline
 66
     1
 10
0.0
 20
0.0
 30
0.0
  0
VERTEX
  5
176
330
175
100
AcDbEntity
  8
Layer 1
 62
   250
420
  1842203
370
     9
100
AcDbVertex
100
AcDb2dVertex
 10
32.24885276374965
 20
-34.03411360260418
 30
0.0
  0
VERTEX
  5
27C
330
175
100
AcDbEntity
  8
0
100
AcDbVertex
100
AcDb2dVertex
 10
32.24885276374965
 20
-34.03411360260418
 30
0.0
  0
SEQEND
  5
177
330
175
100
AcDbEntity
  8
Layer 1
 62
   250
420
  1842203
370
     9
  0
POLYLINE
  5
178
330
171
100
AcDbEntity
  8
Layer 1
 62
   250
420
  1842203
370
     9
100
AcDb2dPolyline
 66
     1
 10
0.0
 20
0.0
 30
0.0
  0
VERTEX
  5
179
330
178
100
AcDbEntity
  8
Layer 1
 62
   250
420
  1842203
370
     9
100
AcDbVertex
100
AcDb2dVertex
 10
32.24885276374965
 20
-34.03411360260418
 30
0.0
  0
VERTEX
  5
27D
330
178
100
AcDbEntity
  8
0
100
AcDbVertex
100
AcDb2dVertex
 10
32.24885276374965
 20
-34.03411360260418
 30
0.0
  0
SEQEND
  5
17A
330
178
100
AcDbEntity
  8
Layer 1
 62
   250
420
  1842203
370
     9
  0
ENDBLK
  5
174
330
171
100
AcDbEntity
  8
0
100
AcDbBlockEnd
  0
BLOCK
  5
17D
330
17B
100
AcDbEntity
  8
0
100
AcDbBlockBegin
  2
block 34
 70
     0
 10
0.0
 20
0.0
 30
0.0
  3
block 34
  1

  0
INSERT
  5
180
330
17B
100
AcDbEntity
  8
Layer 1
100
AcDbBlockReference
  2
block 35
 10
0.0
 20
0.0
 30
0.0
  0
ENDBLK
  5
17E
330
17B
100
AcDbEntity
  8
0
100
AcDbBlockEnd
  0
BLOCK
  5
181
330
17F
100
AcDbEntity
  8
0
100
AcDbBlockBegin
  2
block 35
 70
     0
 10
0.0
 20
0.0
 30
0.0
  3
block 35
  1

  0
POLYLINE
  5
183
330
17F
100
AcDbEntity
  8
Layer 1
 62
   250
420
  1842203
370
     9
100
AcDb2dPolyline
 66
     1
 10
0.0
 20
0.0
 30
0.0
  0
VERTEX
  5
184
330
183
100
AcDbEntity
  8
Layer 1
 62
   250
420
  1842203
370
     9
100
AcDbVertex
100
AcDb2dVertex
 10
32.20750720924891
 20
-34.3042002692029
 30
0.0
  0
VERTEX
  5
27E
330
183
100
AcDbEntity
  8
0
100
AcDbVertex
100
AcDb2dVertex
 10
32.20750720924891
 20
-34.3042002692029
 30
0.0
  0
SEQEND
  5
185
330
183
100
AcDbEntity
  8
Layer 1
 62
   250
420
  1842203
370
     9
  0
POLYLINE
  5
186
330
17F
100
AcDbEntity
  8
Layer 1
 62
   250
420
  1842203
370
     9
100
AcDb2dPolyline
 66
     1
 10
0.0
 20
0.0
 30
0.0
  0
VERTEX
  5
187
330
186
100
AcDbEntity
  8
Layer 1
 62
   250
420
  1842203
370
     9
100
AcDbVertex
100
AcDb2dVertex
 10
32.20750720924891
 20
-34.3042002692029
 30
0.0
  0
VERTEX
  5
27F
330
186
100
AcDbEntity
  8
0
100
AcDbVertex
100
AcDb2dVertex
 10
32.20750720924891
 20
-34.3042002692029
 30
0.0
  0
SEQEND
  5
188
330
186
100
AcDbEntity
  8
Layer 1
 62
   250
420
  1842203
370
     9
  0
ENDBLK
  5
182
330
17F
100
AcDbEntity
  8
0
100
AcDbBlockEnd
  0
BLOCK
  5
18B
330
189
100
AcDbEntity
  8
0
100
AcDbBlockBegin
  2
block 36
 70
     0
 10
0.0
 20
0.0
 30
0.0
  3
block 36
  1

  0
INSERT
  5
18E
330
189
100
AcDbEntity
  8
Layer 1
100
AcDbBlockReference
  2
block 37
 10
0.0
 20
0.0
 30
0.0
  0
ENDBLK
  5
18C
330
189
100
AcDbEntity
  8
0
100
AcDbBlockEnd
  0
BLOCK
  5
18F
330
18D
100
AcDbEntity
  8
0
100
AcDbBlockBegin
  2
block 37
 70
     0
 10
0.0
 20
0.0
 30
0.0
  3
block 37
  1

  0
POLYLINE
  5
191
330
18D
100
AcDbEntity
  8
Layer 1
 62
   250
420
  1842203
370
     9
100
AcDb2dPolyline
 66
     1
 10
0.0
 20
0.0
 30
0.0
  0
VERTEX
  5
192
330
191
100
AcDbEntity
  8
Layer 1
 62
   250
420
  1842203
370
     9
100
AcDbVertex
100
AcDb2dVertex
 10
32.24885276374965
 20
-34.33587971363998
 30
0.0
  0
VERTEX
  5
280
330
191
100
AcDbEntity
  8
0
100
AcDbVertex
100
AcDb2dVertex
 10
32.24885276374965
 20
-34.33587971363998
 30
0.0
  0
SEQEND
  5
193
330
191
100
AcDbEntity
  8
Layer 1
 62
   250
420
  1842203
370
     9
  0
POLYLINE
  5
194
330
18D
100
AcDbEntity
  8
Layer 1
 62
   250
420
  1842203
370
     9
100
AcDb2dPolyline
 66
     1
 10
0.0
 20
0.0
 30
0.0
  0
VERTEX
  5
195
330
194
100
AcDbEntity
  8
Layer 1
 62
   250
420
  1842203
370
     9
100
AcDbVertex
100
AcDb2dVertex
 10
32.24885276374965
 20
-34.33587971363998
 30
0.0
  0
VERTEX
  5
281
330
194
100
AcDbEntity
  8
0
100
AcDbVertex
100
AcDb2dVertex
 10
32.24885276374965
 20
-34.33587971363998
 30
0.0
  0
SEQEND
  5
196
330
194
100
AcDbEntity
  8
Layer 1
 62
   250
420
  1842203
370
     9
  0
ENDBLK
  5
190
330
18D
100
AcDbEntity
  8
0
100
AcDbBlockEnd
  0
BLOCK
  5
199
330
197
100
AcDbEntity
  8
0
100
AcDbBlockBegin
  2
block 38
 70
     0
 10
0.0
 20
0.0
 30
0.0
  3
block 38
  1

  0
INSERT
  5
19C
330
197
100
AcDbEntity
  8
Layer 1
100
AcDbBlockReference
  2
block 39
 10
0.0
 20
0.0
 30
0.0
  0
INSERT
  5
1AA
330
197
100
AcDbEntity
  8
Layer 1
100
AcDbBlockReference
  2
block 41
 10
0.0
 20
0.0
 30
0.0
  0
INSERT
  5
1B9
330
197
100
AcDbEntity
  8
Layer 1
100
AcDbBlockReference
  2
block 43
 10
0.0
 20
0.0
 30
0.0
  0
INSERT
  5
1C7
330
197
100
AcDbEntity
  8
Layer 1
100
AcDbBlockReference
  2
block 45
 10
0.0
 20
0.0
 30
0.0
  0
ENDBLK
  5
19A
330
197
100
AcDbEntity
  8
0
100
AcDbBlockEnd
  0
BLOCK
  5
19D
330
19B
100
AcDbEntity
  8
0
100
AcDbBlockBegin
  2
block 39
 70
     0
 10
0.0
 20
0.0
 30
0.0
  3
block 39
  1

  0
INSERT
  5
1A0
330
19B
100
AcDbEntity
  8
Layer 1
100
AcDbBlockReference
  2
block 40
 10
0.0
 20
0.0
 30
0.0
  0
ENDBLK
  5
19E
330
19B
100
AcDbEntity
  8
0
100
AcDbBlockEnd
  0
BLOCK
  5
1A1
330
19F
100
AcDbEntity
  8
0
100
AcDbBlockBegin
  2
block 40
 70
     0
 10
0.0
 20
0.0
 30
0.0
  3
block 40
  1

  0
POLYLINE
  5
1A3
330
19F
100
AcDbEntity
  8
Layer 1
 62
   250
420
  1842203
370
     9
100
AcDb2dPolyline
 66
     1
 10
0.0
 20
0.0
 30
0.0
  0
VERTEX
  5
1A4
330
1A3
100
AcDbEntity
  8
Layer 1
 62
   250
420
  1842203
370
     9
100
AcDbVertex
100
AcDb2dVertex
 10
110.8841815909286
 20
-34.02517068593978
 30
0.0
  0
VERTEX
  5
282
330
1A3
100
AcDbEntity
  8
0
100
AcDbVertex
100
AcDb2dVertex
 10
110.8841815909286
 20
-34.02517068593978
 30
0.0
  0
SEQEND
  5
1A5
330
1A3
100
AcDbEntity
  8
Layer 1
 62
   250
420
  1842203
370
     9
  0
POLYLINE
  5
1A6
330
19F
100
AcDbEntity
  8
Layer 1
 62
   250
420
  1842203
370
     9
100
AcDb2dPolyline
 66
     1
 10
0.0
 20
0.0
 30
0.0
  0
VERTEX
  5
1A7
330
1A6
100
AcDbEntity
  8
Layer 1
 62
   250
420
  1842203
370
     9
100
AcDbVertex
100
AcDb2dVertex
 10
110.8841815909286
 20
-34.02517068593978
 30
0.0
  0
VERTEX
  5
283
330
1A6
100
AcDbEntity
  8
0
100
AcDbVertex
100
AcDb2dVertex
 10
110.8841815909286
 20
-34.02517068593978
 30
0.0
  0
SEQEND
  5
1A8
330
1A6
100
AcDbEntity
  8
Layer 1
 62
   250
420
  1842203
370
     9
  0
ENDBLK
  5
1A2
330
19F
100
AcDbEntity
  8
0
100
AcDbBlockEnd
  0
BLOCK
  5
1AB
330
1A9
100
AcDbEntity
  8
0
100
AcDbBlockBegin
  2
block 41
 70
     0
 10
0.0
 20
0.0
 30
0.0
  3
block 41
  1

  0
SPLINE
  5
1AD
330
1A9
100
AcDbEntity
  8
Layer 1
 62
   250
420
  1842203
370
     9
100
AcDbSpline
210
0.0
220
0.0
230
1.0
 70
     8
 71
     3
 72
    11
 73
     7
 74
     0
 42
0.0000000001
 43
0.0000000001
 12
1.0
 22
0.0
 32
0.0
 13
1.0
 23
0.0
 33
0.0
 40
0.0
 40
0.0
 40
0.0
 40
0.0
 40
1.0
 40
1.0
 40
1.0
 40
2.0
 40
2.0
 40
2.0
 40
2.0
 10
111.359620189909
 20
-34.02584096371715
 30
0.0
 10
111.359620189909
 20
-37.89193262941723
 30
0.0
 10
108.2259685721464
 20
-41.02558707307806
 30
0.0
 10
104.3591713508904
 20
-41.02558707307806
 30
0.0
 10
100.4931124115843
 20
-41.02558707307806
 30
0.0
 10
97.35977554707607
 20
-37.89193262941723
 30
0.0
 10
97.35977554707607
 20
-34.02584096371715
 30
0.0
  0
INSERT
  5
1AF
330
1A9
100
AcDbEntity
  8
Layer 1
100
AcDbBlockReference
  2
block 42
 10
0.0
 20
0.0
 30
0.0
  0
ENDBLK
  5
1AC
330
1A9
100
AcDbEntity
  8
0
100
AcDbBlockEnd
  0
BLOCK
  5
1B0
330
1AE
100
AcDbEntity
  8
0
100
AcDbBlockBegin
  2
block 42
 70
     0
 10
0.0
 20
0.0
 30
0.0
  3
block 42
  1

  0
POLYLINE
  5
1B2
330
1AE
100
AcDbEntity
  8
Layer 1
 62
   250
420
  1842203
370
     9
100
AcDb2dPolyline
 66
     1
 10
0.0
 20
0.0
 30
0.0
  0
VERTEX
  5
1B3
330
1B2
100
AcDbEntity
  8
Layer 1
 62
   250
420
  1842203
370
     9
100
AcDbVertex
100
AcDb2dVertex
 10
110.92552714543
 20
-34.02517068593978
 30
0.0
  0
VERTEX
  5
284
330
1B2
100
AcDbEntity
  8
0
100
AcDbVertex
100
AcDb2dVertex
 10
110.92552714543
 20
-34.02517068593978
 30
0.0
  0
SEQEND
  5
1B4
330
1B2
100
AcDbEntity
  8
Layer 1
 62
   250
420
  1842203
370
     9
  0
POLYLINE
  5
1B5
330
1AE
100
AcDbEntity
  8
Layer 1
 62
   250
420
  1842203
370
     9
100
AcDb2dPolyline
 66
     1
 10
0.0
 20
0.0
 30
0.0
  0
VERTEX
  5
1B6
330
1B5
100
AcDbEntity
  8
Layer 1
 62
   250
420
  1842203
370
     9
100
AcDbVertex
100
AcDb2dVertex
 10
110.92552714543
 20
-34.02517068593978
 30
0.0
  0
VERTEX
  5
285
330
1B5
100
AcDbEntity
  8
0
100
AcDbVertex
100
AcDb2dVertex
 10
110.92552714543
 20
-34.02517068593978
 30
0.0
  0
SEQEND
  5
1B7
330
1B5
100
AcDbEntity
  8
Layer 1
 62
   250
420
  1842203
370
     9
  0
ENDBLK
  5
1B1
330
1AE
100
AcDbEntity
  8
0
100
AcDbBlockEnd
  0
BLOCK
  5
1BA
330
1B8
100
AcDbEntity
  8
0
100
AcDbBlockBegin
  2
block 43
 70
     0
 10
0.0
 20
0.0
 30
0.0
  3
block 43
  1

  0
INSERT
  5
1BD
330
1B8
100
AcDbEntity
  8
Layer 1
100
AcDbBlockReference
  2
block 44
 10
0.0
 20
0.0
 30
0.0
  0
ENDBLK
  5
1BB
330
1B8
100
AcDbEntity
  8
0
100
AcDbBlockEnd
  0
BLOCK
  5
1BE
330
1BC
100
AcDbEntity
  8
0
100
AcDbBlockBegin
  2
block 44
 70
     0
 10
0.0
 20
0.0
 30
0.0
  3
block 44
  1

  0
POLYLINE
  5
1C0
330
1BC
100
AcDbEntity
  8
Layer 1
 62
   250
420
  1842203
370
     9
100
AcDb2dPolyline
 66
     1
 10
0.0
 20
0.0
 30
0.0
  0
VERTEX
  5
1C1
330
1C0
100
AcDbEntity
  8
Layer 1
 62
   250
420
  1842203
370
     9
100
AcDbVertex
100
AcDb2dVertex
 10
110.8841815909286
 20
-34.29525735253851
 30
0.0
  0
VERTEX
  5
286
330
1C0
100
AcDbEntity
  8
0
100
AcDbVertex
100
AcDb2dVertex
 10
110.8841815909286
 20
-34.29525735253851
 30
0.0
  0
SEQEND
  5
1C2
330
1C0
100
AcDbEntity
  8
Layer 1
 62
   250
420
  1842203
370
     9
  0
POLYLINE
  5
1C3
330
1BC
100
AcDbEntity
  8
Layer 1
 62
   250
420
  1842203
370
     9
100
AcDb2dPolyline
 66
     1
 10
0.0
 20
0.0
 30
0.0
  0
VERTEX
  5
1C4
330
1C3
100
AcDbEntity
  8
Layer 1
 62
   250
420
  1842203
370
     9
100
AcDbVertex
100
AcDb2dVertex
 10
110.8841815909286
 20
-34.29525735253851
 30
0.0
  0
VERTEX
  5
287
330
1C3
100
AcDbEntity
  8
0
100
AcDbVertex
100
AcDb2dVertex
 10
110.8841815909286
 20
-34.29525735253851
 30
0.0
  0
SEQEND
  5
1C5
330
1C3
100
AcDbEntity
  8
Layer 1
 62
   250
420
  1842203
370
     9
  0
ENDBLK
  5
1BF
330
1BC
100
AcDbEntity
  8
0
100
AcDbBlockEnd
  0
BLOCK
  5
1C8
330
1C6
100
AcDbEntity
  8
0
100
AcDbBlockBegin
  2
block 45
 70
     0
 10
0.0
 20
0.0
 30
0.0
  3
block 45
  1

  0
INSERT
  5
1CB
330
1C6
100
AcDbEntity
  8
Layer 1
100
AcDbBlockReference
  2
block 46
 10
0.0
 20
0.0
 30
0.0
  0
ENDBLK
  5
1C9
330
1C6
100
AcDbEntity
  8
0
100
AcDbBlockEnd
  0
BLOCK
  5
1CC
330
1CA
100
AcDbEntity
  8
0
100
AcDbBlockBegin
  2
block 46
 70
     0
 10
0.0
 20
0.0
 30
0.0
  3
block 46
  1

  0
POLYLINE
  5
1CE
330
1CA
100
AcDbEntity
  8
Layer 1
 62
   250
420
  1842203
370
     9
100
AcDb2dPolyline
 66
     1
 10
0.0
 20
0.0
 30
0.0
  0
VERTEX
  5
1CF
330
1CE
100
AcDbEntity
  8
Layer 1
 62
   250
420
  1842203
370
     9
100
AcDbVertex
100
AcDb2dVertex
 10
110.92552714543
 20
-34.32693679697559
 30
0.0
  0
VERTEX
  5
288
330
1CE
100
AcDbEntity
  8
0
100
AcDbVertex
100
AcDb2dVertex
 10
110.92552714543
 20
-34.32693679697559
 30
0.0
  0
SEQEND
  5
1D0
330
1CE
100
AcDbEntity
  8
Layer 1
 62
   250
420
  1842203
370
     9
  0
POLYLINE
  5
1D1
330
1CA
100
AcDbEntity
  8
Layer 1
 62
   250
420
  1842203
370
     9
100
AcDb2dPolyline
 66
     1
 10
0.0
 20
0.0
 30
0.0
  0
VERTEX
  5
1D2
330
1D1
100
AcDbEntity
  8
Layer 1
 62
   250
420
  1842203
370
     9
100
AcDbVertex
100
AcDb2dVertex
 10
110.92552714543
 20
-34.32693679697559
 30
0.0
  0
VERTEX
  5
289
330
1D1
100
AcDbEntity
  8
0
100
AcDbVertex
100
AcDb2dVertex
 10
110.92552714543
 20
-34.32693679697559
 30
0.0
  0
SEQEND
  5
1D3
330
1D1
100
AcDbEntity
  8
Layer 1
 62
   250
420
  1842203
370
     9
  0
ENDBLK
  5
1CD
330
1CA
100
AcDbEntity
  8
0
100
AcDbBlockEnd
  0
BLOCK
  5
1DE
330
1DC
100
AcDbEntity
  8
0
100
AcDbBlockBegin
  2
block 47
 70
     0
 10
0.0
 20
0.0
 30
0.0
  3
block 47
  1

  0
INSERT
  5
1E1
330
1DC
100
AcDbEntity
  8
Layer 1
100
AcDbBlockReference
  2
block 48
 10
0.0
 20
0.0
 30
0.0
  0
INSERT
  5
1F9
330
1DC
100
AcDbEntity
  8
Layer 1
100
AcDbBlockReference
  2
block 51
 10
0.0
 20
0.0
 30
0.0
  0
INSERT
  5
212
330
1DC
100
AcDbEntity
  8
Layer 1
100
AcDbBlockReference
  2
block 54
 10
0.0
 20
0.0
 30
0.0
  0
INSERT
  5
22A
330
1DC
100
AcDbEntity
  8
Layer 1
100
AcDbBlockReference
  2
block 57
 10
0.0
 20
0.0
 30
0.0
  0
INSERT
  5
242
330
1DC
100
AcDbEntity
  8
Layer 1
100
AcDbBlockReference
  2
block 60
 10
0.0
 20
0.0
 30
0.0
  0
ENDBLK
  5
1DF
330
1DC
100
AcDbEntity
  8
0
100
AcDbBlockEnd
  0
BLOCK
  5
1E2
330
1E0
100
AcDbEntity
  8
0
100
AcDbBlockBegin
  2
block 48
 70
     0
 10
0.0
 20
0.0
 30
0.0
  3
block 48
  1

  0
INSERT
  5
1E5
330
1E0
100
AcDbEntity
  8
Layer 1
100
AcDbBlockReference
  2
block 49
 10
0.0
 20
0.0
 30
0.0
  0
INSERT
  5
1EF
330
1E0
100
AcDbEntity
  8
Layer 1
100
AcDbBlockReference
  2
block 50
 10
0.0
 20
0.0
 30
0.0
  0
ENDBLK
  5
1E3
330
1E0
100
AcDbEntity
  8
0
100
AcDbBlockEnd
  0
BLOCK
  5
1E6
330
1E4
100
AcDbEntity
  8
0
100
AcDbBlockBegin
  2
block 49
 70
     0
 10
0.0
 20
0.0
 30
0.0
  3
block 49
  1

  0
POLYLINE
  5
1E8
330
1E4
100
AcDbEntity
  8
Layer 1
 62
   250
420
  1842203
370
     9
100
AcDb2dPolyline
 66
     1
 10
0.0
 20
0.0
 30
0.0
  0
VERTEX
  5
1E9
330
1E8
100
AcDbEntity
  8
Layer 1
 62
   250
420
  1842203
370
     9
100
AcDbVertex
100
AcDb2dVertex
 10
63.52004995287505
 20
-61.10822282688286
 30
0.0
  0
VERTEX
  5
28A
330
1E8
100
AcDbEntity
  8
0
100
AcDbVertex
100
AcDb2dVertex
 10
63.52004995287505
 20
-61.10822282688286
 30
0.0
  0
SEQEND
  5
1EA
330
1E8
100
AcDbEntity
  8
Layer 1
 62
   250
420
  1842203
370
     9
  0
POLYLINE
  5
1EB
330
1E4
100
AcDbEntity
  8
Layer 1
 62
   250
420
  1842203
370
     9
100
AcDb2dPolyline
 66
     1
 10
0.0
 20
0.0
 30
0.0
  0
VERTEX
  5
1EC
330
1EB
100
AcDbEntity
  8
Layer 1
 62
   250
420
  1842203
370
     9
100
AcDbVertex
100
AcDb2dVertex
 10
63.52004995287505
 20
-61.03940172095533
 30
0.0
  0
VERTEX
  5
28B
330
1EB
100
AcDbEntity
  8
0
100
AcDbVertex
100
AcDb2dVertex
 10
63.52004995287505
 20
-61.03940172095533
 30
0.0
  0
SEQEND
  5
1ED
330
1EB
100
AcDbEntity
  8
Layer 1
 62
   250
420
  1842203
370
     9
  0
ENDBLK
  5
1E7
330
1E4
100
AcDbEntity
  8
0
100
AcDbBlockEnd
  0
BLOCK
  5
1F0
330
1EE
100
AcDbEntity
  8
0
100
AcDbBlockBegin
  2
block 50
 70
     0
 10
0.0
 20
0.0
 30
0.0
  3
block 50
  1

  0
POLYLINE
  5
1F2
330
1EE
100
AcDbEntity
  8
Layer 1
 62
   250
420
  1842203
370
     9
100
AcDb2dPolyline
 66
     1
 10
0.0
 20
0.0
 30
0.0
  0
VERTEX
  5
1F3
330
1F2
100
AcDbEntity
  8
Layer 1
 62
   250
420
  1842203
370
     9
100
AcDbVertex
100
AcDb2dVertex
 10
66.5027041807207
 20
-61.10822282688286
 30
0.0
  0
VERTEX
  5
28C
330
1F2
100
AcDbEntity
  8
0
100
AcDbVertex
100
AcDb2dVertex
 10
66.5027041807207
 20
-61.10822282688286
 30
0.0
  0
SEQEND
  5
1F4
330
1F2
100
AcDbEntity
  8
Layer 1
 62
   250
420
  1842203
370
     9
  0
POLYLINE
  5
1F5
330
1EE
100
AcDbEntity
  8
Layer 1
 62
   250
420
  1842203
370
     9
100
AcDb2dPolyline
 66
     1
 10
0.0
 20
0.0
 30
0.0
  0
VERTEX
  5
1F6
330
1F5
100
AcDbEntity
  8
Layer 1
 62
   250
420
  1842203
370
     9
100
AcDbVertex
100
AcDb2dVertex
 10
66.5027041807207
 20
-61.10822282688286
 30
0.0
  0
VERTEX
  5
28D
330
1F5
100
AcDbEntity
  8
0
100
AcDbVertex
100
AcDb2dVertex
 10
66.5027041807207
 20
-61.10822282688286
 30
0.0
  0
SEQEND
  5
1F7
330
1F5
100
AcDbEntity
  8
Layer 1
 62
   250
420
  1842203
370
     9
  0
ENDBLK
  5
1F1
330
1EE
100
AcDbEntity
  8
0
100
AcDbBlockEnd
  0
BLOCK
  5
1FA
330
1F8
100
AcDbEntity
  8
0
100
AcDbBlockBegin
  2
block 51
 70
     0
 10
0.0
 20
0.0
 30
0.0
  3
block 51
  1

  0
SPLINE
  5
1FC
330
1F8
100
AcDbEntity
  8
Layer 1
 62
   250
420
  1842203
370
     9
100
AcDbSpline
210
0.0
220
0.0
230
1.0
 70
    11
 71
     3
 72
    17
 73
    13
 74
     0
 42
0.0000000001
 43
0.0000000001
 12
1.0
 22
0.0
 32
0.0
 13
1.0
 23
0.0
 33
0.0
 40
0.0
 40
0.0
 40
0.0
 40
0.0
 40
1.0
 40
1.0
 40
1.0
 40
2.0
 40
2.0
 40
2.0
 40
3.0
 40
3.0
 40
3.0
 40
4.0
 40
4.0
 40
4.0
 40
4.0
 10
66.6113770663972
 20
-61.10837603145432
 30
0.0
 10
66.6113770663972
 20
-61.99204386961274
 30
0.0
 10
65.89510589124211
 20
-62.70829942876887
 30
0.0
 10
65.0112567185831
 20
-62.70829942876887
 30
0.0
 10
64.12756881755533
 20
-62.70829942876887
 30
0.0
 10
63.41137706719792
 20
-61.99204386961274
 30
0.0
 10
63.41137706719792
 20
-61.10837603145432
 30
0.0
 10
63.41137706719792
 20
-60.22455498872444
 30
0.0
 10
64.12756881755533
 20
-59.50829942956831
 30
0.0
 10
65.0112567185831
 20
-59.50829942956831
 30
0.0
 10
65.89510589124211
 20
-59.50829942956831
 30
0.0
 10
66.6113770663972
 20
-60.22455498872444
 30
0.0
 10
66.6113770663972
 20
-61.10837603145432
 30
0.0
  0
INSERT
  5
1FE
330
1F8
100
AcDbEntity
  8
Layer 1
100
AcDbBlockReference
  2
block 52
 10
0.0
 20
0.0
 30
0.0
  0
INSERT
  5
208
330
1F8
100
AcDbEntity
  8
Layer 1
100
AcDbBlockReference
  2
block 53
 10
0.0
 20
0.0
 30
0.0
  0
ENDBLK
  5
1FB
330
1F8
100
AcDbEntity
  8
0
100
AcDbBlockEnd
  0
BLOCK
  5
1FF
330
1FD
100
AcDbEntity
  8
0
100
AcDbBlockBegin
  2
block 52
 70
     0
 10
0.0
 20
0.0
 30
0.0
  3
block 52
  1

  0
POLYLINE
  5
201
330
1FD
100
AcDbEntity
  8
Layer 1
 62
   250
420
  1842203
370
     9
100
AcDb2dPolyline
 66
     1
 10
0.0
 20
0.0
 30
0.0
  0
VERTEX
  5
202
330
201
100
AcDbEntity
  8
Layer 1
 62
   250
420
  1842203
370
     9
100
AcDbVertex
100
AcDb2dVertex
 10
63.52949297469358
 20
-61.10822282688286
 30
0.0
  0
VERTEX
  5
28E
330
201
100
AcDbEntity
  8
0
100
AcDbVertex
100
AcDb2dVertex
 10
63.52949297469358
 20
-61.10822282688286
 30
0.0
  0
SEQEND
  5
203
330
201
100
AcDbEntity
  8
Layer 1
 62
   250
420
  1842203
370
     9
  0
POLYLINE
  5
204
330
1FD
100
AcDbEntity
  8
Layer 1
 62
   250
420
  1842203
370
     9
100
AcDb2dPolyline
 66
     1
 10
0.0
 20
0.0
 30
0.0
  0
VERTEX
  5
205
330
204
100
AcDbEntity
  8
Layer 1
 62
   250
420
  1842203
370
     9
100
AcDbVertex
100
AcDb2dVertex
 10
63.52949297469358
 20
-61.03940172095533
 30
0.0
  0
VERTEX
  5
28F
330
204
100
AcDbEntity
  8
0
100
AcDbVertex
100
AcDb2dVertex
 10
63.52949297469358
 20
-61.03940172095533
 30
0.0
  0
SEQEND
  5
206
330
204
100
AcDbEntity
  8
Layer 1
 62
   250
420
  1842203
370
     9
  0
ENDBLK
  5
200
330
1FD
100
AcDbEntity
  8
0
100
AcDbBlockEnd
  0
BLOCK
  5
209
330
207
100
AcDbEntity
  8
0
100
AcDbBlockBegin
  2
block 53
 70
     0
 10
0.0
 20
0.0
 30
0.0
  3
block 53
  1

  0
POLYLINE
  5
20B
330
207
100
AcDbEntity
  8
Layer 1
 62
   250
420
  1842203
370
     9
100
AcDb2dPolyline
 66
     1
 10
0.0
 20
0.0
 30
0.0
  0
VERTEX
  5
20C
330
20B
100
AcDbEntity
  8
Layer 1
 62
   250
420
  1842203
370
     9
100
AcDbVertex
100
AcDb2dVertex
 10
66.51215469804731
 20
-61.10822282688286
 30
0.0
  0
VERTEX
  5
290
330
20B
100
AcDbEntity
  8
0
100
AcDbVertex
100
AcDb2dVertex
 10
66.51215469804731
 20
-61.10822282688286
 30
0.0
  0
SEQEND
  5
20D
330
20B
100
AcDbEntity
  8
Layer 1
 62
   250
420
  1842203
370
     9
  0
POLYLINE
  5
20E
330
207
100
AcDbEntity
  8
Layer 1
 62
   250
420
  1842203
370
     9
100
AcDb2dPolyline
 66
     1
 10
0.0
 20
0.0
 30
0.0
  0
VERTEX
  5
20F
330
20E
100
AcDbEntity
  8
Layer 1
 62
   250
420
  1842203
370
     9
100
AcDbVertex
100
AcDb2dVertex
 10
66.51215469804731
 20
-61.10822282688286
 30
0.0
  0
VERTEX
  5
291
330
20E
100
AcDbEntity
  8
0
100
AcDbVertex
100
AcDb2dVertex
 10
66.51215469804731
 20
-61.10822282688286
 30
0.0
  0
SEQEND
  5
210
330
20E
100
AcDbEntity
  8
Layer 1
 62
   250
420
  1842203
370
     9
  0
ENDBLK
  5
20A
330
207
100
AcDbEntity
  8
0
100
AcDbBlockEnd
  0
BLOCK
  5
213
330
211
100
AcDbEntity
  8
0
100
AcDbBlockBegin
  2
block 54
 70
     0
 10
0.0
 20
0.0
 30
0.0
  3
block 54
  1

  0
INSERT
  5
216
330
211
100
AcDbEntity
  8
Layer 1
100
AcDbBlockReference
  2
block 55
 10
0.0
 20
0.0
 30
0.0
  0
INSERT
  5
220
330
211
100
AcDbEntity
  8
Layer 1
100
AcDbBlockReference
  2
block 56
 10
0.0
 20
0.0
 30
0.0
  0
ENDBLK
  5
214
330
211
100
AcDbEntity
  8
0
100
AcDbBlockEnd
  0
BLOCK
  5
217
330
215
100
AcDbEntity
  8
0
100
AcDbBlockBegin
  2
block 55
 70
     0
 10
0.0
 20
0.0
 30
0.0
  3
block 55
  1

  0
POLYLINE
  5
219
330
215
100
AcDbEntity
  8
Layer 1
 62
   250
420
  1842203
370
     9
100
AcDb2dPolyline
 66
     1
 10
0.0
 20
0.0
 30
0.0
  0
VERTEX
  5
21A
330
219
100
AcDbEntity
  8
Layer 1
 62
   250
420
  1842203
370
     9
100
AcDbVertex
100
AcDb2dVertex
 10
63.52004995287505
 20
-61.16995620555704
 30
0.0
  0
VERTEX
  5
292
330
219
100
AcDbEntity
  8
0
100
AcDbVertex
100
AcDb2dVertex
 10
63.52004995287505
 20
-61.16995620555704
 30
0.0
  0
SEQEND
  5
21B
330
219
100
AcDbEntity
  8
Layer 1
 62
   250
420
  1842203
370
     9
  0
POLYLINE
  5
21C
330
215
100
AcDbEntity
  8
Layer 1
 62
   250
420
  1842203
370
     9
100
AcDb2dPolyline
 66
     1
 10
0.0
 20
0.0
 30
0.0
  0
VERTEX
  5
21D
330
21C
100
AcDbEntity
  8
Layer 1
 62
   250
420
  1842203
370
     9
100
AcDbVertex
100
AcDb2dVertex
 10
63.52004995287505
 20
-61.1011350996295
 30
0.0
  0
VERTEX
  5
293
330
21C
100
AcDbEntity
  8
0
100
AcDbVertex
100
AcDb2dVertex
 10
63.52004995287505
 20
-61.1011350996295
 30
0.0
  0
SEQEND
  5
21E
330
21C
100
AcDbEntity
  8
Layer 1
 62
   250
420
  1842203
370
     9
  0
ENDBLK
  5
218
330
215
100
AcDbEntity
  8
0
100
AcDbBlockEnd
  0
BLOCK
  5
221
330
21F
100
AcDbEntity
  8
0
100
AcDbBlockBegin
  2
block 56
 70
     0
 10
0.0
 20
0.0
 30
0.0
  3
block 56
  1

  0
POLYLINE
  5
223
330
21F
100
AcDbEntity
  8
Layer 1
 62
   250
420
  1842203
370
     9
100
AcDb2dPolyline
 66
     1
 10
0.0
 20
0.0
 30
0.0
  0
VERTEX
  5
224
330
223
100
AcDbEntity
  8
Layer 1
 62
   250
420
  1842203
370
     9
100
AcDbVertex
100
AcDb2dVertex
 10
66.5027041807207
 20
-61.16995620555704
 30
0.0
  0
VERTEX
  5
294
330
223
100
AcDbEntity
  8
0
100
AcDbVertex
100
AcDb2dVertex
 10
66.5027041807207
 20
-61.16995620555704
 30
0.0
  0
SEQEND
  5
225
330
223
100
AcDbEntity
  8
Layer 1
 62
   250
420
  1842203
370
     9
  0
POLYLINE
  5
226
330
21F
100
AcDbEntity
  8
Layer 1
 62
   250
420
  1842203
370
     9
100
AcDb2dPolyline
 66
     1
 10
0.0
 20
0.0
 30
0.0
  0
VERTEX
  5
227
330
226
100
AcDbEntity
  8
Layer 1
 62
   250
420
  1842203
370
     9
100
AcDbVertex
100
AcDb2dVertex
 10
66.5027041807207
 20
-61.16995620555704
 30
0.0
  0
VERTEX
  5
295
330
226
100
AcDbEntity
  8
0
100
AcDbVertex
100
AcDb2dVertex
 10
66.5027041807207
 20
-61.16995620555704
 30
0.0
  0
SEQEND
  5
228
330
226
100
AcDbEntity
  8
Layer 1
 62
   250
420
  1842203
370
     9
  0
ENDBLK
  5
222
330
21F
100
AcDbEntity
  8
0
100
AcDbBlockEnd
  0
BLOCK
  5
22B
330
229
100
AcDbEntity
  8
0
100
AcDbBlockBegin
  2
block 57
 70
     0
 10
0.0
 20
0.0
 30
0.0
  3
block 57
  1

  0
INSERT
  5
22E
330
229
100
AcDbEntity
  8
Layer 1
100
AcDbBlockReference
  2
block 58
 10
0.0
 20
0.0
 30
0.0
  0
INSERT
  5
238
330
229
100
AcDbEntity
  8
Layer 1
100
AcDbBlockReference
  2
block 59
 10
0.0
 20
0.0
 30
0.0
  0
ENDBLK
  5
22C
330
229
100
AcDbEntity
  8
0
100
AcDbBlockEnd
  0
BLOCK
  5
22F
330
22D
100
AcDbEntity
  8
0
100
AcDbBlockBegin
  2
block 58
 70
     0
 10
0.0
 20
0.0
 30
0.0
  3
block 58
  1

  0
POLYLINE
  5
231
330
22D
100
AcDbEntity
  8
Layer 1
 62
   250
420
  1842203
370
     9
100
AcDb2dPolyline
 66
     1
 10
0.0
 20
0.0
 30
0.0
  0
VERTEX
  5
232
330
231
100
AcDbEntity
  8
Layer 1
 62
   250
420
  1842203
370
     9
100
AcDbVertex
100
AcDb2dVertex
 10
63.52949297469358
 20
-61.17720520078075
 30
0.0
  0
VERTEX
  5
296
330
231
100
AcDbEntity
  8
0
100
AcDbVertex
100
AcDb2dVertex
 10
63.52949297469358
 20
-61.17720520078075
 30
0.0
  0
SEQEND
  5
233
330
231
100
AcDbEntity
  8
Layer 1
 62
   250
420
  1842203
370
     9
  0
POLYLINE
  5
234
330
22D
100
AcDbEntity
  8
Layer 1
 62
   250
420
  1842203
370
     9
100
AcDb2dPolyline
 66
     1
 10
0.0
 20
0.0
 30
0.0
  0
VERTEX
  5
235
330
234
100
AcDbEntity
  8
Layer 1
 62
   250
420
  1842203
370
     9
100
AcDbVertex
100
AcDb2dVertex
 10
63.52949297469358
 20
-61.10822282688286
 30
0.0
  0
VERTEX
  5
297
330
234
100
AcDbEntity
  8
0
100
AcDbVertex
100
AcDb2dVertex
 10
63.52949297469358
 20
-61.10822282688286
 30
0.0
  0
SEQEND
  5
236
330
234
100
AcDbEntity
  8
Layer 1
 62
   250
420
  1842203
370
     9
  0
ENDBLK
  5
230
330
22D
100
AcDbEntity
  8
0
100
AcDbBlockEnd
  0
BLOCK
  5
239
330
237
100
AcDbEntity
  8
0
100
AcDbBlockBegin
  2
block 59
 70
     0
 10
0.0
 20
0.0
 30
0.0
  3
block 59
  1

  0
POLYLINE
  5
23B
330
237
100
AcDbEntity
  8
Layer 1
 62
   250
420
  1842203
370
     9
100
AcDb2dPolyline
 66
     1
 10
0.0
 20
0.0
 30
0.0
  0
VERTEX
  5
23C
330
23B
100
AcDbEntity
  8
Layer 1
 62
   250
420
  1842203
370
     9
100
AcDbVertex
100
AcDb2dVertex
 10
66.51215469804731
 20
-61.17720520078075
 30
0.0
  0
VERTEX
  5
298
330
23B
100
AcDbEntity
  8
0
100
AcDbVertex
100
AcDb2dVertex
 10
66.51215469804731
 20
-61.17720520078075
 30
0.0
  0
SEQEND
  5
23D
330
23B
100
AcDbEntity
  8
Layer 1
 62
   250
420
  1842203
370
     9
  0
POLYLINE
  5
23E
330
237
100
AcDbEntity
  8
Layer 1
 62
   250
420
  1842203
370
     9
100
AcDb2dPolyline
 66
     1
 10
0.0
 20
0.0
 30
0.0
  0
VERTEX
  5
23F
330
23E
100
AcDbEntity
  8
Layer 1
 62
   250
420
  1842203
370
     9
100
AcDbVertex
100
AcDb2dVertex
 10
66.51215469804731
 20
-61.17720520078075
 30
0.0
  0
VERTEX
  5
299
330
23E
100
AcDbEntity
  8
0
100
AcDbVertex
100
AcDb2dVertex
 10
66.51215469804731
 20
-61.17720520078075
 30
0.0
  0
SEQEND
  5
240
330
23E
100
AcDbEntity
  8
Layer 1
 62
   250
420
  1842203
370
     9
  0
ENDBLK
  5
23A
330
237
100
AcDbEntity
  8
0
100
AcDbBlockEnd
  0
BLOCK
  5
243
330
241
100
AcDbEntity
  8
0
100
AcDbBlockBegin
  2
block 60
 70
     0
 10
0.0
 20
0.0
 30
0.0
  3
block 60
  1

  0
INSERT
  5
246
330
241
100
AcDbEntity
  8
Layer 1
100
AcDbBlockReference
  2
block 61
 10
0.0
 20
0.0
 30
0.0
  0
ENDBLK
  5
244
330
241
100
AcDbEntity
  8
0
100
AcDbBlockEnd
  0
BLOCK
  5
247
330
245
100
AcDbEntity
  8
0
100
AcDbBlockBegin
  2
block 61
 70
     0
 10
0.0
 20
0.0
 30
0.0
  3
block 61
  1

  0
INSERT
  5
24A
330
245
100
AcDbEntity
  8
Layer 1
100
AcDbBlockReference
  2
block 62
 10
0.0
 20
0.0
 30
0.0
  0
INSERT
  5
254
330
245
100
AcDbEntity
  8
Layer 1
100
AcDbBlockReference
  2
block 63
 10
0.0
 20
0.0
 30
0.0
  0
ENDBLK
  5
248
330
245
100
AcDbEntity
  8
0
100
AcDbBlockEnd
  0
BLOCK
  5
24B
330
249
100
AcDbEntity
  8
0
100
AcDbBlockBegin
  2
block 62
 70
     0
 10
0.0
 20
0.0
 30
0.0
  3
block 62
  1

  0
POLYLINE
  5
24D
330
249
100
AcDbEntity
  8
Layer 1
 62
   250
420
  1842203
370
     9
100
AcDb2dPolyline
 66
     1
 10
0.0
 20
0.0
 30
0.0
  0
VERTEX
  5
24E
330
24D
100
AcDbEntity
  8
Layer 1
 62
   250
420
  1842203
370
     9
100
AcDbVertex
100
AcDb2dVertex
 10
63.52004995287505
 20
-61.15216028513662
 30
0.0
  0
VERTEX
  5
29A
330
24D
100
AcDbEntity
  8
0
100
AcDbVertex
100
AcDb2dVertex
 10
63.52004995287505
 20
-61.15216028513662
 30
0.0
  0
SEQEND
  5
24F
330
24D
100
AcDbEntity
  8
Layer 1
 62
   250
420
  1842203
370
     9
  0
POLYLINE
  5
250
330
249
100
AcDbEntity
  8
Layer 1
 62
   250
420
  1842203
370
     9
100
AcDb2dPolyline
 66
     1
 10
0.0
 20
0.0
 30
0.0
  0
VERTEX
  5
251
330
250
100
AcDbEntity
  8
Layer 1
 62
   250
420
  1842203
370
     9
100
AcDbVertex
100
AcDb2dVertex
 10
63.52004995287505
 20
-61.08333917920908
 30
0.0
  0
VERTEX
  5
29B
330
250
100
AcDbEntity
  8
0
100
AcDbVertex
100
AcDb2dVertex
 10
63.52004995287505
 20
-61.08333917920908
 30
0.0
  0
SEQEND
  5
252
330
250
100
AcDbEntity
  8
Layer 1
 62
   250
420
  1842203
370
     9
  0
ENDBLK
  5
24C
330
249
100
AcDbEntity
  8
0
100
AcDbBlockEnd
  0
BLOCK
  5
255
330
253
100
AcDbEntity
  8
0
100
AcDbBlockBegin
  2
block 63
 70
     0
 10
0.0
 20
0.0
 30
0.0
  3
block 63
  1

  0
POLYLINE
  5
257
330
253
100
AcDbEntity
  8
Layer 1
 62
   250
420
  1842203
370
     9
100
AcDb2dPolyline
 66
     1
 10
0.0
 20
0.0
 30
0.0
  0
VERTEX
  5
258
330
257
100
AcDbEntity
  8
Layer 1
 62
   250
420
  1842203
370
     9
100
AcDbVertex
100
AcDb2dVertex
 10
66.5027041807207
 20
-61.15216028513662
 30
0.0
  0
VERTEX
  5
29C
330
257
100
AcDbEntity
  8
0
100
AcDbVertex
100
AcDb2dVertex
 10
66.5027041807207
 20
-61.15216028513662
 30
0.0
  0
SEQEND
  5
259
330
257
100
AcDbEntity
  8
Layer 1
 62
   250
420
  1842203
370
     9
  0
POLYLINE
  5
25A
330
253
100
AcDbEntity
  8
Layer 1
 62
   250
420
  1842203
370
     9
100
AcDb2dPolyline
 66
     1
 10
0.0
 20
0.0
 30
0.0
  0
VERTEX
  5
25B
330
25A
100
AcDbEntity
  8
Layer 1
 62
   250
420
  1842203
370
     9
100
AcDbVertex
100
AcDb2dVertex
 10
66.5027041807207
 20
-61.15216028513662
 30
0.0
  0
VERTEX
  5
29D
330
25A
100
AcDbEntity
  8
0
100
AcDbVertex
100
AcDb2dVertex
 10
66.5027041807207
 20
-61.15216028513662
 30
0.0
  0
SEQEND
  5
25C
330
25A
100
AcDbEntity
  8
Layer 1
 62
   250
420
  1842203
370
     9
  0
ENDBLK
  5
256
330
253
100
AcDbEntity
  8
0
100
AcDbBlockEnd
  0
ENDSEC
  0
SECTION
  2
ENTITIES
  0
INSERT
  5
42
330
1F
100
AcDbEntity
  8
Layer 1
100
AcDbBlockReference
  2
block 2
 10
0.0
 20
0.0
 30
0.0
  0
ENDSEC
  0
SECTION
  2
OBJECTS
  0
DICTIONARY
  5
C
330
0
100
AcDbDictionary
281
     1
  3
ACAD_GROUP
350
D
  3
ACAD_LAYOUT
350
1A
  3
ACAD_MATERIAL
350
3B
  3
ACAD_MLEADERSTYLE
350
29F
  3
ACAD_MLINESTYLE
350
17
  3
ACAD_PLOTSETTINGS
350
19
  3
ACAD_PLOTSTYLENAME
350
E
  3
ACAD_TABLESTYLE
350
29E
  3
ACAD_VISUALSTYLE
350
2A
  0
SUN
  5
3F
330
29
100
AcDbSun
 90
        1
290
     0
 63
     7
421
 16777215
 40
1.0
291
     1
 91
  2455826
 92
 54000000
292
     0
 70
     2
 71
   256
280
     1
  0
DICTIONARY
  5
D
102
{ACAD_REACTORS
330
C
102
}
330
C
100
AcDbDictionary
281
     1
  0
DICTIONARY
  5
1A
102
{ACAD_REACTORS
330
C
102
}
330
C
100
AcDbDictionary
281
     1
  3
Layout1
350
1E
  3
Layout2
350
26
  3
Model
350
22
  0
DICTIONARY
  5
3B
102
{ACAD_REACTORS
330
C
102
}
330
C
100
AcDbDictionary
281
     1
  3
ByBlock
350
3D
  3
ByLayer
350
3C
  3
Global
350
3E
  0
DICTIONARY
  5
29F
102
{ACAD_REACTORS
330
C
102
}
330
C
100
AcDbDictionary
281
     1
  0
DICTIONARY
  5
17
102
{ACAD_REACTORS
330
C
102
}
330
C
100
AcDbDictionary
281
     1
  3
Standard
350
18
  0
DICTIONARY
  5
19
102
{ACAD_REACTORS
330
C
102
}
330
C
100
AcDbDictionary
281
     1
  0
ACDBDICTIONARYWDFLT
  5
E
102
{ACAD_REACTORS
330
C
102
}
330
C
100
AcDbDictionary
281
     1
  3
Normal
350
F
100
AcDbDictionaryWithDefault
340
F
  0
DICTIONARY
  5
29E
102
{ACAD_REACTORS
330
C
102
}
330
C
100
AcDbDictionary
281
     1
  0
DICTIONARY
  5
2A
102
{ACAD_REACTORS
330
C
102
}
330
C
100
AcDbDictionary
281
     1
  3
2dWireframe
350
2F
  3
3D Hidden
350
31
  3
3dWireframe
350
30
  3
Basic
350
32
  3
Brighten
350
36
  3
ColorChange
350
3A
  3
Conceptual
350
34
  3
Dim
350
35
  3
Facepattern
350
39
  3
Flat
350
2B
  3
FlatWithEdges
350
2C
  3
Gouraud
350
2D
  3
GouraudWithEdges
350
2E
  3
Linepattern
350
38
  3
Realistic
350
33
  3
Thicken
350
37
  0
LAYOUT
  5
1E
102
{ACAD_REACTORS
330
1A
102
}
330
1A
100
AcDbPlotSettings
  1

  2
none_device
  4

  6

 40
0.0
 41
0.0
 42
0.0
 43
0.0
 44
0.0
 45
0.0
 46
0.0
 47
0.0
 48
0.0
 49
0.0
140
0.0
141
0.0
142
1.0
143
1.0
 70
   688
 72
     0
 73
     0
 74
     5
  7

 75
    16
 76
     0
 77
     2
 78
   300
147
1.0
148
0.0
149
0.0
100
AcDbLayout
  1
Layout1
 70
     1
 71
     1
 10
0.0
 20
0.0
 11
12.0
 21
9.0
 12
0.0
 22
0.0
 32
0.0
 14
1.000000000000000E+20
 24
1.000000000000000E+20
 34
1.000000000000000E+20
 15
-1.000000000000000E+20
 25
-1.000000000000000E+20
 35
-1.000000000000000E+20
146
0.0
 13
0.0
 23
0.0
 33
0.0
 16
1.0
 26
0.0
 36
0.0
 17
0.0
 27
1.0
 37
0.0
 76
     0
330
1B
  0
LAYOUT
  5
26
102
{ACAD_REACTORS
330
1A
102
}
330
1A
100
AcDbPlotSettings
  1

  2
none_device
  4

  6

 40
0.0
 41
0.0
 42
0.0
 43
0.0
 44
0.0
 45
0.0
 46
0.0
 47
0.0
 48
0.0
 49
0.0
140
0.0
141
0.0
142
1.0
143
1.0
 70
   688
 72
     0
 73
     0
 74
     5
  7

 75
    16
 76
     0
 77
     2
 78
   300
147
1.0
148
0.0
149
0.0
100
AcDbLayout
  1
Layout2
 70
     1
 71
     2
 10
0.0
 20
0.0
 11
0.0
 21
0.0
 12
0.0
 22
0.0
 32
0.0
 14
0.0
 24
0.0
 34
0.0
 15
0.0
 25
0.0
 35
0.0
146
0.0
 13
0.0
 23
0.0
 33
0.0
 16
1.0
 26
0.0
 36
0.0
 17
0.0
 27
1.0
 37
0.0
 76
     0
330
23
  0
LAYOUT
  5
22
102
{ACAD_REACTORS
330
1A
102
}
330
1A
100
AcDbPlotSettings
  1

  2
none_device
  4

  6

 40
0.0
 41
0.0
 42
0.0
 43
0.0
 44
0.0
 45
0.0
 46
0.0
 47
0.0
 48
0.0
 49
0.0
140
0.0
141
0.0
142
1.0
143
1.0
 70
  1712
 72
     0
 73
     0
 74
     0
  7

 75
     0
 76
     0
 77
     2
 78
   300
147
1.0
148
0.0
149
0.0
100
AcDbLayout
  1
Model
 70
     1
 71
     0
 10
0.0
 20
0.0
 11
12.0
 21
9.0
 12
0.0
 22
0.0
 32
0.0
 14
1.000000000000000E+20
 24
1.000000000000000E+20
 34
1.000000000000000E+20
 15
-1.000000000000000E+20
 25
-1.000000000000000E+20
 35
-1.000000000000000E+20
146
0.0
 13
0.0
 23
0.0
 33
0.0
 16
1.0
 26
0.0
 36
0.0
 17
0.0
 27
1.0
 37
0.0
 76
     0
330
1F
331
29
  0
MATERIAL
  5
3D
102
{ACAD_REACTORS
330
3B
102
}
330
3B
100
AcDbMaterial
  1
ByBlock
 72
     1
 94
      127
  0
MATERIAL
  5
3C
102
{ACAD_REACTORS
330
3B
102
}
330
3B
100
AcDbMaterial
  1
ByLayer
 72
     1
 94
      127
  0
MATERIAL
  5
3E
102
{ACAD_REACTORS
330
3B
102
}
330
3B
100
AcDbMaterial
  1
Global
 72
     1
 94
      127
  0
MLINESTYLE
  5
18
102
{ACAD_REACTORS
330
17
102
}
330
17
100
AcDbMlineStyle
  2
Standard
 70
     0
  3

 62
   256
 51
90.0
 52
90.0
 71
     2
 49
0.5
 62
   256
  6
BYLAYER
 49
-0.5
 62
   256
  6
BYLAYER
  0
ACDBPLACEHOLDER
  5
F
102
{ACAD_REACTORS
330
E
102
}
330
E
  0
VISUALSTYLE
  5
2F
102
{ACAD_REACTORS
330
2A
102
}
330
2A
100
AcDbVisualStyle
  2
2dWireframe
 70
     4
177
     2
291
     0
 71
     0
176
     1
 72
     2
176
     1
 73
     0
176
     1
 90
        0
176
     1
 40
-0.6
176
     1
 41
-30.0
176
     1
 62
     5
 63
     7
421
 16777215
176
     1
 74
     1
176
     1
 91
        4
176
     1
 64
     7
176
     1
 65
   257
176
     1
 75
     1
176
     1
175
     1
176
     1
 42
1.0
176
     1
 92
        0
176
     1
 66
   257
176
     1
 43
1.0
176
     1
 76
     1
176
     1
 77
     6
176
     1
 78
     2
176
     1
 67
     7
176
     1
 79
     5
176
     1
170
     0
176
     1
171
     0
176
     1
290
     0
176
     1
 93
        1
176
     1
 44
0.0
176
     1
173
     0
176
     1
  0
VISUALSTYLE
  5
31
102
{ACAD_REACTORS
330
2A
102
}
330
2A
100
AcDbVisualStyle
  2
3D Hidden
 70
     6
177
     2
291
     0
 71
     1
176
     1
 72
     2
176
     1
 73
     2
176
     1
 90
        0
176
     1
 40
-0.6
176
     1
 41
-30.0
176
     1
 62
     5
 63
     7
421
 16777215
176
     1
 74
     2
176
     1
 91
        2
176
     1
 64
     7
176
     1
 65
   257
176
     1
 75
     2
176
     1
175
     1
176
     1
 42
40.0
176
     1
 92
        0
176
     1
 66
   257
176
     1
 43
1.0
176
     1
 76
     1
176
     1
 77
     6
176
     1
 78
     2
176
     1
 67
     7
176
     1
 79
     3
176
     1
170
     0
176
     1
171
     0
176
     1
290
     0
176
     1
 93
        1
176
     1
 44
0.0
176
     1
173
     0
176
     1
  0
VISUALSTYLE
  5
30
102
{ACAD_REACTORS
330
2A
102
}
330
2A
100
AcDbVisualStyle
  2
3dWireframe
 70
     5
177
     2
291
     0
 71
     0
176
     1
 72
     2
176
     1
 73
     0
176
     1
 90
        0
176
     1
 40
-0.6
176
     1
 41
-30.0
176
     1
 62
     5
 63
     7
421
 16777215
176
     1
 74
     1
176
     1
 91
        4
176
     1
 64
     7
176
     1
 65
   257
176
     1
 75
     1
176
     1
175
     1
176
     1
 42
1.0
176
     1
 92
        0
176
     1
 66
   257
176
     1
 43
1.0
176
     1
 76
     1
176
     1
 77
     6
176
     1
 78
     2
176
     1
 67
     7
176
     1
 79
     5
176
     1
170
     0
176
     1
171
     0
176
     1
290
     0
176
     1
 93
        1
176
     1
 44
0.0
176
     1
173
     0
176
     1
  0
VISUALSTYLE
  5
32
102
{ACAD_REACTORS
330
2A
102
}
330
2A
100
AcDbVisualStyle
  2
Basic
 70
     7
177
     2
291
     1
 71
     1
176
     1
 72
     0
176
     1
 73
     1
176
     1
 90
        0
176
     1
 40
-0.6
176
     1
 41
-30.0
176
     1
 62
     5
 63
     7
421
 16777215
176
     1
 74
     0
176
     1
 91
        4
176
     1
 64
     7
176
     1
 65
   257
176
     1
 75
     1
176
     1
175
     1
176
     1
 42
1.0
176
     1
 92
        8
176
     1
 66
     7
176
     1
 43
1.0
176
     1
 76
     1
176
     1
 77
     6
176
     1
 78
     2
176
     1
 67
     7
176
     1
 79
     5
176
     1
170
     0
176
     1
171
     0
176
     1
290
     0
176
     1
 93
        1
176
     1
 44
0.0
176
     1
173
     0
176
     1
  0
VISUALSTYLE
  5
36
102
{ACAD_REACTORS
330
2A
102
}
330
2A
100
AcDbVisualStyle
  2
Brighten
 70
    12
177
     2
291
     1
 71
     2
176
     1
 72
     2
176
     1
 73
     0
176
     1
 90
        0
176
     1
 40
-0.6
176
     1
 41
-30.0
176
     1
 62
     5
 63
     7
421
 16777215
176
     1
 74
     1
176
     1
 91
        4
176
     1
 64
     7
176
     1
 65
   257
176
     1
 75
     1
176
     1
175
     1
176
     1
 42
1.0
176
     1
 92
        8
176
     1
 66
     7
176
     1
 43
1.0
176
     1
 76
     1
176
     1
 77
     6
176
     1
 78
     2
176
     1
 67
     7
176
     1
 79
     5
176
     1
170
     0
176
     1
171
     0
176
     1
290
     0
176
     1
 93
        1
176
     1
 44
50.0
176
     1
173
     0
176
     1
  0
VISUALSTYLE
  5
3A
102
{ACAD_REACTORS
330
2A
102
}
330
2A
100
AcDbVisualStyle
  2
ColorChange
 70
    16
177
     2
291
     1
 71
     2
176
     1
 72
     2
176
     1
 73
     3
176
     1
 90
        0
176
     1
 40
-0.6
176
     1
 41
-30.0
176
     1
 62
     5
 63
     8
421
  8421504
176
     1
 74
     1
176
     1
 91
        4
176
     1
 64
     7
176
     1
 65
   257
176
     1
 75
     1
176
     1
175
     1
176
     1
 42
1.0
176
     1
 92
        8
176
     1
 66
     8
424
  8421504
176
     1
 43
1.0
176
     1
 76
     1
176
     1
 77
     6
176
     1
 78
     2
176
     1
 67
     7
176
     1
 79
     5
176
     1
170
     0
176
     1
171
     0
176
     1
290
     0
176
     1
 93
        1
176
     1
 44
0.0
176
     1
173
     0
176
     1
  0
VISUALSTYLE
  5
34
102
{ACAD_REACTORS
330
2A
102
}
330
2A
100
AcDbVisualStyle
  2
Conceptual
 70
     9
177
     2
291
     0
 71
     3
176
     1
 72
     2
176
     1
 73
     0
176
     1
 90
        0
176
     1
 40
-0.6
176
     1
 41
-30.0
176
     1
 62
     5
 63
     7
421
 16777215
176
     1
 74
     2
176
     1
 91
        2
176
     1
 64
     7
176
     1
 65
   257
176
     1
 75
     1
176
     1
175
     1
176
     1
 42
40.0
176
     1
 92
        8
176
     1
 66
     7
176
     1
 43
1.0
176
     1
 76
     1
176
     1
 77
     6
176
     1
 78
     2
176
     1
 67
     7
176
     1
 79
     3
176
     1
170
     0
176
     1
171
     0
176
     1
290
     0
176
     1
 93
        1
176
     1
 44
0.0
176
     1
173
     0
176
     1
  0
VISUALSTYLE
  5
35
102
{ACAD_REACTORS
330
2A
102
}
330
2A
100
AcDbVisualStyle
  2
Dim
 70
    11
177
     2
291
     1
 71
     2
176
     1
 72
     2
176
     1
 73
     0
176
     1
 90
        0
176
     1
 40
-0.6
176
     1
 41
-30.0
176
     1
 62
     5
 63
     7
421
 16777215
176
     1
 74
     1
176
     1
 91
        4
176
     1
 64
     7
176
     1
 65
   257
176
     1
 75
     1
176
     1
175
     1
176
     1
 42
1.0
176
     1
 92
        8
176
     1
 66
     7
176
     1
 43
1.0
176
     1
 76
     1
176
     1
 77
     6
176
     1
 78
     2
176
     1
 67
     7
176
     1
 79
     5
176
     1
170
     0
176
     1
171
     0
176
     1
290
     0
176
     1
 93
        1
176
     1
 44
-50.0
176
     1
173
     0
176
     1
  0
VISUALSTYLE
  5
39
102
{ACAD_REACTORS
330
2A
102
}
330
2A
100
AcDbVisualStyle
  2
Facepattern
 70
    15
177
     2
291
     1
 71
     2
176
     1
 72
     2
176
     1
 73
     0
176
     1
 90
        0
176
     1
 40
-0.6
176
     1
 41
-30.0
176
     1
 62
     5
 63
     7
421
 16777215
176
     1
 74
     1
176
     1
 91
        4
176
     1
 64
     7
176
     1
 65
   257
176
     1
 75
     1
176
     1
175
     1
176
     1
 42
1.0
176
     1
 92
        8
176
     1
 66
     7
176
     1
 43
1.0
176
     1
 76
     1
176
     1
 77
     6
176
     1
 78
     2
176
     1
 67
     7
176
     1
 79
     5
176
     1
170
     0
176
     1
171
     0
176
     1
290
     0
176
     1
 93
        1
176
     1
 44
0.0
176
     1
173
     0
176
     1
  0
VISUALSTYLE
  5
2B
102
{ACAD_REACTORS
330
2A
102
}
330
2A
100
AcDbVisualStyle
  2
Flat
 70
     0
177
     2
291
     1
 71
     2
176
     1
 72
     1
176
     1
 73
     1
176
     1
 90
        2
176
     1
 40
-0.6
176
     1
 41
30.0
176
     1
 62
     5
 63
     7
421
 16777215
176
     1
 74
     0
176
     1
 91
        4
176
     1
 64
     7
176
     1
 65
   257
176
     1
 75
     1
176
     1
175
     1
176
     1
 42
1.0
176
     1
 92
        8
176
     1
 66
     7
176
     1
 43
1.0
176
     1
 76
     1
176
     1
 77
     6
176
     1
 78
     2
176
     1
 67
     7
176
     1
 79
     5
176
     1
170
     0
176
     1
171
     0
176
     1
290
     0
176
     1
 93
       13
176
     1
 44
0.0
176
     1
173
     0
176
     1
  0
VISUALSTYLE
  5
2C
102
{ACAD_REACTORS
330
2A
102
}
330
2A
100
AcDbVisualStyle
  2
FlatWithEdges
 70
     1
177
     2
291
     1
 71
     2
176
     1
 72
     1
176
     1
 73
     1
176
     1
 90
        2
176
     1
 40
-0.6
176
     1
 41
30.0
176
     1
 62
     5
 63
     7
421
 16777215
176
     1
 74
     1
176
     1
 91
        4
176
     1
 64
     7
176
     1
 65
   257
176
     1
 75
     1
176
     1
175
     1
176
     1
 42
1.0
176
     1
 92
        0
176
     1
 66
   257
176
     1
 43
1.0
176
     1
 76
     1
176
     1
 77
     6
176
     1
 78
     2
176
     1
 67
     7
176
     1
 79
     5
176
     1
170
     0
176
     1
171
     0
176
     1
290
     0
176
     1
 93
       13
176
     1
 44
0.0
176
     1
173
     0
176
     1
  0
VISUALSTYLE
  5
2D
102
{ACAD_REACTORS
330
2A
102
}
330
2A
100
AcDbVisualStyle
  2
Gouraud
 70
     2
177
     2
291
     1
 71
     2
176
     1
 72
     2
176
     1
 73
     1
176
     1
 90
        2
176
     1
 40
-0.6
176
     1
 41
30.0
176
     1
 62
     5
 63
     7
421
 16777215
176
     1
 74
     0
176
     1
 91
        4
176
     1
 64
     7
176
     1
 65
   257
176
     1
 75
     1
176
     1
175
     1
176
     1
 42
1.0
176
     1
 92
        0
176
     1
 66
     7
176
     1
 43
1.0
176
     1
 76
     1
176
     1
 77
     6
176
     1
 78
     2
176
     1
 67
     7
176
     1
 79
     5
176
     1
170
     0
176
     1
171
     0
176
     1
290
     0
176
     1
 93
       13
176
     1
 44
0.0
176
     1
173
     0
176
     1
  0
VISUALSTYLE
  5
2E
102
{ACAD_REACTORS
330
2A
102
}
330
2A
100
AcDbVisualStyle
  2
GouraudWithEdges
 70
     3
177
     2
291
     1
 71
     2
176
     1
 72
     2
176
     1
 73
     1
176
     1
 90
        2
176
     1
 40
-0.6
176
     1
 41
30.0
176
     1
 62
     5
 63
     7
421
 16777215
176
     1
 74
     1
176
     1
 91
        4
176
     1
 64
     7
176
     1
 65
   257
176
     1
 75
     1
176
     1
175
     1
176
     1
 42
1.0
176
     1
 92
        0
176
     1
 66
   257
176
     1
 43
1.0
176
     1
 76
     1
176
     1
 77
     6
176
     1
 78
     2
176
     1
 67
     7
176
     1
 79
     5
176
     1
170
     0
176
     1
171
     0
176
     1
290
     0
176
     1
 93
       13
176
     1
 44
0.0
176
     1
173
     0
176
     1
  0
VISUALSTYLE
  5
38
102
{ACAD_REACTORS
330
2A
102
}
330
2A
100
AcDbVisualStyle
  2
Linepattern
 70
    14
177
     2
291
     1
 71
     2
176
     1
 72
     2
176
     1
 73
     0
176
     1
 90
        0
176
     1
 40
-0.6
176
     1
 41
-30.0
176
     1
 62
     5
 63
     7
421
 16777215
176
     1
 74
     1
176
     1
 91
        4
176
     1
 64
     7
176
     1
 65
   257
176
     1
 75
     7
176
     1
175
     7
176
     1
 42
1.0
176
     1
 92
        8
176
     1
 66
     7
176
     1
 43
1.0
176
     1
 76
     1
176
     1
 77
     6
176
     1
 78
     2
176
     1
 67
     7
176
     1
 79
     5
176
     1
170
     0
176
     1
171
     0
176
     1
290
     0
176
     1
 93
        1
176
     1
 44
0.0
176
     1
173
     0
176
     1
  0
VISUALSTYLE
  5
33
102
{ACAD_REACTORS
330
2A
102
}
330
2A
100
AcDbVisualStyle
  2
Realistic
 70
     8
177
     2
291
     0
 71
     2
176
     1
 72
     2
176
     1
 73
     0
176
     1
 90
        0
176
     1
 40
-0.6
176
     1
 41
-30.0
176
     1
 62
     5
 63
     7
421
 16777215
176
     1
 74
     1
176
     1
 91
        0
176
     1
 64
     7
176
     1
 65
   257
176
     1
 75
     1
176
     1
175
     1
176
     1
 42
1.0
176
     1
 92
        8
176
     1
 66
     8
424
  7895160
176
     1
 43
1.0
176
     1
 76
     1
176
     1
 77
     6
176
     1
 78
     2
176
     1
 67
     7
176
     1
 79
     5
176
     1
170
     0
176
     1
171
     0
176
     1
290
     0
176
     1
 93
       13
176
     1
 44
0.0
176
     1
173
     0
176
     1
  0
VISUALSTYLE
  5
37
102
{ACAD_REACTORS
330
2A
102
}
330
2A
100
AcDbVisualStyle
  2
Thicken
 70
    13
177
     2
291
     1
 71
     2
176
     1
 72
     2
176
     1
 73
     0
176
     1
 90
        0
176
     1
 40
-0.6
176
     1
 41
-30.0
176
     1
 62
     5
 63
     7
421
 16777215
176
     1
 74
     1
176
     1
 91
        4
176
     1
 64
     7
176
     1
 65
   257
176
     1
 75
     1
176
     1
175
     1
176
     1
 42
1.0
176
     1
 92
       12
176
     1
 66
     7
176
     1
 43
1.0
176
     1
 76
     1
176
     1
 77
     6
176
     1
 78
     2
176
     1
 67
     7
176
     1
 79
     5
176
     1
170
     0
176
     1
171
     0
176
     1
290
     0
176
     1
 93
        1
176
     1
 44
0.0
176
     1
173
     0
176
     1
  0
ENDSEC
  0
EOF
