G75*
%MOIN*%
%OFA0B0*%
%FSLAX24Y24*%
%IPPOS*%
%LPD*%
%AMOC8*
5,1,8,0,0,1.08239X$1,22.5*
%
%ADD10C,0.0554*%
%ADD11R,0.0236X0.0866*%
%ADD12R,0.0591X0.0512*%
%ADD13R,0.0472X0.0315*%
%ADD14OC8,0.0594*%
%ADD15OC8,0.0660*%
%ADD16C,0.0160*%
%ADD17C,0.0140*%
%ADD18C,0.0360*%
%ADD19C,0.0400*%
D10*
X004816Y013000D03*
X005816Y013000D03*
X006816Y013000D03*
X007816Y013000D03*
X008316Y014000D03*
X007316Y014000D03*
X006316Y014000D03*
X005316Y014000D03*
D11*
X002691Y013101D03*
X002191Y013101D03*
X001691Y013101D03*
X001191Y013101D03*
X001191Y015149D03*
X001691Y015149D03*
X002191Y015149D03*
X002691Y015149D03*
X010566Y015149D03*
X011066Y015149D03*
X011566Y015149D03*
X012066Y015149D03*
X012066Y013101D03*
X011566Y013101D03*
X011066Y013101D03*
X010566Y013101D03*
D12*
X007191Y010999D03*
X005941Y010999D03*
X005941Y010251D03*
X007191Y010251D03*
X012316Y008749D03*
X012316Y008001D03*
X000691Y008001D03*
X000691Y008749D03*
X010691Y016376D03*
X010691Y017124D03*
X001441Y017249D03*
X001441Y016501D03*
D13*
X002691Y016271D03*
X002691Y016979D03*
X012066Y016979D03*
X012066Y016271D03*
X012066Y011729D03*
X010691Y011729D03*
X010691Y011021D03*
X012066Y011021D03*
X002441Y011021D03*
X002441Y011729D03*
X000941Y011729D03*
X000941Y011021D03*
D14*
X000691Y004975D03*
X001691Y004975D03*
X011191Y004850D03*
X012191Y004850D03*
D15*
X009941Y004625D03*
X009941Y003625D03*
X009941Y002625D03*
X009941Y001625D03*
X002941Y001625D03*
X002941Y002625D03*
X002941Y003625D03*
X002941Y004625D03*
X002941Y005625D03*
X002941Y006625D03*
X002941Y007625D03*
X002941Y008625D03*
X009941Y008625D03*
X009941Y007625D03*
X009941Y006625D03*
X009941Y005625D03*
D16*
X000471Y004549D02*
X000471Y001155D01*
X002718Y001155D01*
X002451Y001422D01*
X002451Y001828D01*
X002663Y002040D01*
X002331Y002372D01*
X002331Y002625D01*
X002941Y002625D01*
X003551Y002625D01*
X003551Y002878D01*
X003219Y003210D01*
X003431Y003422D01*
X003431Y003828D01*
X003144Y004115D01*
X002738Y004115D01*
X002451Y003828D01*
X002451Y003422D01*
X002663Y003210D01*
X002331Y002878D01*
X002331Y002625D01*
X002941Y002625D01*
X002941Y002625D01*
X003551Y002625D01*
X003551Y002372D01*
X003219Y002040D01*
X003431Y001828D01*
X003431Y001422D01*
X003164Y001155D01*
X009718Y001155D01*
X009451Y001422D01*
X009451Y001828D01*
X009663Y002040D01*
X009331Y002372D01*
X009331Y002625D01*
X009941Y002625D01*
X010551Y002625D01*
X010551Y002878D01*
X010219Y003210D01*
X010431Y003422D01*
X010431Y003828D01*
X010144Y004115D01*
X009738Y004115D01*
X009451Y003828D01*
X009451Y003422D01*
X009663Y003210D01*
X009331Y002878D01*
X009331Y002625D01*
X009941Y002625D01*
X009941Y002625D01*
X010551Y002625D01*
X010551Y002372D01*
X010219Y002040D01*
X010431Y001828D01*
X010431Y001422D01*
X010164Y001155D01*
X012597Y001155D01*
X012597Y004610D01*
X012380Y004393D01*
X012002Y004393D01*
X011734Y004661D01*
X011734Y005039D01*
X012002Y005307D01*
X012380Y005307D01*
X012597Y005090D01*
X012597Y007585D01*
X012376Y007585D01*
X010821Y006030D01*
X010686Y005895D01*
X010364Y005895D01*
X010431Y005828D01*
X010431Y005422D01*
X010144Y005135D01*
X009738Y005135D01*
X009451Y005422D01*
X009451Y005828D01*
X009518Y005895D01*
X003536Y005895D01*
X003431Y005790D01*
X003431Y005422D01*
X003144Y005135D01*
X002738Y005135D01*
X002671Y005202D01*
X002671Y005048D01*
X002738Y005115D01*
X003144Y005115D01*
X003431Y004828D01*
X003431Y004422D01*
X003144Y004135D01*
X002738Y004135D01*
X002478Y004395D01*
X002346Y004395D01*
X002211Y004530D01*
X002211Y006130D01*
X000755Y007585D01*
X000471Y007585D01*
X000471Y005401D01*
X000502Y005432D01*
X000880Y005432D01*
X001148Y005164D01*
X001148Y004786D01*
X000880Y004518D01*
X000502Y004518D01*
X000471Y004549D01*
X000471Y004521D02*
X000499Y004521D01*
X000471Y004362D02*
X002511Y004362D01*
X002669Y004204D02*
X000471Y004204D01*
X000471Y004045D02*
X002668Y004045D01*
X002509Y003887D02*
X000471Y003887D01*
X000471Y003728D02*
X002451Y003728D01*
X002451Y003570D02*
X000471Y003570D01*
X000471Y003411D02*
X002462Y003411D01*
X002620Y003253D02*
X000471Y003253D01*
X000471Y003094D02*
X002547Y003094D01*
X002389Y002936D02*
X000471Y002936D01*
X000471Y002777D02*
X002331Y002777D01*
X002331Y002619D02*
X000471Y002619D01*
X000471Y002460D02*
X002331Y002460D01*
X002402Y002302D02*
X000471Y002302D01*
X000471Y002143D02*
X002560Y002143D01*
X002607Y001985D02*
X000471Y001985D01*
X000471Y001826D02*
X002451Y001826D01*
X002451Y001668D02*
X000471Y001668D01*
X000471Y001509D02*
X002451Y001509D01*
X002522Y001351D02*
X000471Y001351D01*
X000471Y001192D02*
X002681Y001192D01*
X003201Y001192D02*
X009681Y001192D01*
X009522Y001351D02*
X003359Y001351D01*
X003431Y001509D02*
X009451Y001509D01*
X009451Y001668D02*
X003431Y001668D01*
X003431Y001826D02*
X009451Y001826D01*
X009607Y001985D02*
X003274Y001985D01*
X003321Y002143D02*
X009560Y002143D01*
X009402Y002302D02*
X003480Y002302D01*
X003551Y002460D02*
X009331Y002460D01*
X009331Y002619D02*
X003551Y002619D01*
X003551Y002777D02*
X009331Y002777D01*
X009389Y002936D02*
X003493Y002936D01*
X003334Y003094D02*
X009547Y003094D01*
X009620Y003253D02*
X003261Y003253D01*
X003420Y003411D02*
X009462Y003411D01*
X009451Y003570D02*
X003431Y003570D01*
X003431Y003728D02*
X009451Y003728D01*
X009509Y003887D02*
X003372Y003887D01*
X003214Y004045D02*
X009668Y004045D01*
X009738Y004135D02*
X010144Y004135D01*
X010431Y004422D01*
X010431Y004828D01*
X010144Y005115D01*
X009738Y005115D01*
X009451Y004828D01*
X009451Y004422D01*
X009738Y004135D01*
X009669Y004204D02*
X003212Y004204D01*
X003371Y004362D02*
X009511Y004362D01*
X009451Y004521D02*
X003431Y004521D01*
X003431Y004679D02*
X009451Y004679D01*
X009460Y004838D02*
X003421Y004838D01*
X003263Y004996D02*
X009619Y004996D01*
X009718Y005155D02*
X003163Y005155D01*
X003322Y005313D02*
X009560Y005313D01*
X009451Y005472D02*
X003431Y005472D01*
X003431Y005630D02*
X009451Y005630D01*
X009451Y005789D02*
X003431Y005789D01*
X003364Y006355D02*
X003431Y006422D01*
X003431Y006828D01*
X003144Y007115D01*
X002738Y007115D01*
X002451Y006828D01*
X002451Y006540D01*
X001146Y007845D01*
X001146Y008323D01*
X001094Y008375D01*
X001146Y008427D01*
X001146Y009071D01*
X001052Y009165D01*
X000956Y009165D01*
X002494Y010703D01*
X002711Y010703D01*
X002711Y009088D01*
X002451Y008828D01*
X002451Y008422D01*
X002738Y008135D01*
X003144Y008135D01*
X003431Y008422D01*
X003431Y008828D01*
X003171Y009088D01*
X003171Y010356D01*
X003277Y010098D01*
X003539Y009837D01*
X003881Y009695D01*
X004251Y009695D01*
X004593Y009837D01*
X004854Y010098D01*
X004996Y010440D01*
X004996Y010810D01*
X004854Y011152D01*
X004661Y011345D01*
X005246Y011345D01*
X005486Y011105D01*
X005486Y010737D01*
X005467Y010724D01*
X005428Y010685D01*
X005397Y010640D01*
X005376Y010589D01*
X005366Y010534D01*
X005366Y010299D01*
X005893Y010299D01*
X005893Y010203D01*
X005989Y010203D01*
X005989Y010299D01*
X006516Y010299D01*
X006516Y010534D01*
X006505Y010589D01*
X006484Y010640D01*
X006454Y010685D01*
X006415Y010724D01*
X006396Y010737D01*
X006396Y010745D01*
X006736Y010745D01*
X006736Y010737D01*
X006717Y010724D01*
X006678Y010685D01*
X006647Y010640D01*
X006626Y010589D01*
X006616Y010534D01*
X006616Y010299D01*
X007143Y010299D01*
X007143Y010203D01*
X007239Y010203D01*
X007239Y010299D01*
X007766Y010299D01*
X007766Y010534D01*
X007755Y010589D01*
X007734Y010640D01*
X007704Y010685D01*
X007665Y010724D01*
X007646Y010737D01*
X007646Y011155D01*
X007836Y011345D01*
X008471Y011345D01*
X008277Y011152D01*
X008136Y010810D01*
X008136Y010440D01*
X008277Y010098D01*
X008539Y009837D01*
X008881Y009695D01*
X009251Y009695D01*
X009593Y009837D01*
X009854Y010098D01*
X009996Y010440D01*
X009996Y010810D01*
X009854Y011152D01*
X009661Y011345D01*
X010046Y011345D01*
X010295Y011096D01*
X010295Y010797D01*
X010388Y010703D01*
X010993Y010703D01*
X011087Y010797D01*
X011087Y011244D01*
X010993Y011338D01*
X010703Y011338D01*
X010629Y011412D01*
X010993Y011412D01*
X011087Y011506D01*
X011087Y011953D01*
X010993Y012047D01*
X010921Y012047D01*
X010921Y012508D01*
X011250Y012508D01*
X011316Y012574D01*
X011381Y012508D01*
X011750Y012508D01*
X011816Y012574D01*
X011861Y012529D01*
X011861Y012047D01*
X011763Y012047D01*
X011670Y011953D01*
X011670Y011506D01*
X011763Y011412D01*
X012368Y011412D01*
X012462Y011506D01*
X012462Y011953D01*
X012368Y012047D01*
X012321Y012047D01*
X012321Y012579D01*
X012344Y012602D01*
X012344Y012895D01*
X012586Y012895D01*
X012597Y012906D01*
X012597Y009165D01*
X012321Y009165D01*
X012321Y010703D01*
X012368Y010703D01*
X012462Y010797D01*
X012462Y011244D01*
X012368Y011338D01*
X011763Y011338D01*
X011670Y011244D01*
X011670Y010797D01*
X011763Y010703D01*
X011861Y010703D01*
X011861Y009071D01*
X011861Y009071D01*
X011861Y008427D01*
X011912Y008375D01*
X011861Y008323D01*
X011861Y007720D01*
X010496Y006355D01*
X010364Y006355D01*
X010431Y006422D01*
X010431Y006828D01*
X010144Y007115D01*
X009738Y007115D01*
X009451Y006828D01*
X009451Y006422D01*
X009518Y006355D01*
X003364Y006355D01*
X003431Y006423D02*
X009451Y006423D01*
X009451Y006581D02*
X003431Y006581D01*
X003431Y006740D02*
X009451Y006740D01*
X009521Y006898D02*
X003361Y006898D01*
X003202Y007057D02*
X009679Y007057D01*
X009738Y007135D02*
X010144Y007135D01*
X010431Y007422D01*
X010431Y007828D01*
X010144Y008115D01*
X009738Y008115D01*
X009451Y007828D01*
X009451Y007422D01*
X009738Y007135D01*
X009658Y007215D02*
X003224Y007215D01*
X003144Y007135D02*
X003431Y007422D01*
X003431Y007828D01*
X003144Y008115D01*
X002738Y008115D01*
X002451Y007828D01*
X002451Y007422D01*
X002738Y007135D01*
X003144Y007135D01*
X003382Y007374D02*
X009499Y007374D01*
X009451Y007532D02*
X003431Y007532D01*
X003431Y007691D02*
X009451Y007691D01*
X009472Y007849D02*
X003410Y007849D01*
X003251Y008008D02*
X009630Y008008D01*
X009738Y008135D02*
X010144Y008135D01*
X010431Y008422D01*
X010431Y008828D01*
X010144Y009115D01*
X009738Y009115D01*
X009478Y008855D01*
X007336Y008855D01*
X006681Y009510D01*
X006681Y009593D01*
X006629Y009718D01*
X006533Y009813D01*
X006469Y009840D01*
X006484Y009862D01*
X006505Y009913D01*
X006516Y009968D01*
X006516Y010203D01*
X005989Y010203D01*
X005989Y009715D01*
X006052Y009715D01*
X006001Y009593D01*
X006001Y009457D01*
X006053Y009332D01*
X006148Y009237D01*
X006273Y009185D01*
X006356Y009185D01*
X007011Y008530D01*
X007146Y008395D01*
X009478Y008395D01*
X009738Y008135D01*
X009707Y008166D02*
X003175Y008166D01*
X003333Y008325D02*
X009548Y008325D01*
X010175Y008166D02*
X011861Y008166D01*
X011861Y008008D02*
X010251Y008008D01*
X010410Y007849D02*
X011861Y007849D01*
X011831Y007691D02*
X010431Y007691D01*
X010431Y007532D02*
X011673Y007532D01*
X011514Y007374D02*
X010382Y007374D01*
X010224Y007215D02*
X011356Y007215D01*
X011197Y007057D02*
X010202Y007057D01*
X010361Y006898D02*
X011039Y006898D01*
X010880Y006740D02*
X010431Y006740D01*
X010431Y006581D02*
X010722Y006581D01*
X010563Y006423D02*
X010431Y006423D01*
X010897Y006106D02*
X012597Y006106D01*
X012597Y006264D02*
X011055Y006264D01*
X011214Y006423D02*
X012597Y006423D01*
X012597Y006581D02*
X011372Y006581D01*
X011531Y006740D02*
X012597Y006740D01*
X012597Y006898D02*
X011689Y006898D01*
X011848Y007057D02*
X012597Y007057D01*
X012597Y007215D02*
X012006Y007215D01*
X012165Y007374D02*
X012597Y007374D01*
X012597Y007532D02*
X012323Y007532D01*
X011862Y008325D02*
X010333Y008325D01*
X010431Y008483D02*
X011861Y008483D01*
X011861Y008642D02*
X010431Y008642D01*
X010431Y008800D02*
X011861Y008800D01*
X011861Y008959D02*
X010300Y008959D01*
X009581Y008959D02*
X007233Y008959D01*
X007074Y009117D02*
X011861Y009117D01*
X011861Y009276D02*
X006916Y009276D01*
X006757Y009434D02*
X011861Y009434D01*
X011861Y009593D02*
X006681Y009593D01*
X006763Y009747D02*
X006814Y009726D01*
X006868Y009715D01*
X007143Y009715D01*
X007143Y010203D01*
X006616Y010203D01*
X006616Y009968D01*
X006626Y009913D01*
X006647Y009862D01*
X006678Y009817D01*
X006717Y009778D01*
X006763Y009747D01*
X006757Y009751D02*
X006596Y009751D01*
X006628Y009910D02*
X006504Y009910D01*
X006516Y010068D02*
X006616Y010068D01*
X007143Y010227D02*
X005989Y010227D01*
X005893Y010227D02*
X004907Y010227D01*
X004973Y010385D02*
X005366Y010385D01*
X005367Y010544D02*
X004996Y010544D01*
X004996Y010702D02*
X005445Y010702D01*
X005486Y010861D02*
X004975Y010861D01*
X004909Y011019D02*
X005486Y011019D01*
X005413Y011178D02*
X004828Y011178D01*
X004670Y011336D02*
X005255Y011336D01*
X006437Y010702D02*
X006695Y010702D01*
X006617Y010544D02*
X006514Y010544D01*
X006516Y010385D02*
X006616Y010385D01*
X005893Y010203D02*
X005893Y009715D01*
X005618Y009715D01*
X005564Y009726D01*
X005513Y009747D01*
X005467Y009778D01*
X005428Y009817D01*
X005397Y009862D01*
X005376Y009913D01*
X005366Y009968D01*
X005366Y010203D01*
X005893Y010203D01*
X005893Y010068D02*
X005989Y010068D01*
X005989Y009910D02*
X005893Y009910D01*
X005893Y009751D02*
X005989Y009751D01*
X006001Y009593D02*
X003171Y009593D01*
X003171Y009751D02*
X003746Y009751D01*
X003466Y009910D02*
X003171Y009910D01*
X003171Y010068D02*
X003308Y010068D01*
X003224Y010227D02*
X003171Y010227D01*
X002711Y010227D02*
X002018Y010227D01*
X002176Y010385D02*
X002711Y010385D01*
X002711Y010544D02*
X002335Y010544D01*
X002493Y010702D02*
X002711Y010702D01*
X002045Y010904D02*
X002045Y011145D01*
X001386Y011145D01*
X001337Y011096D01*
X001337Y010797D01*
X001243Y010703D01*
X000638Y010703D01*
X000545Y010797D01*
X000545Y011244D01*
X000638Y011338D01*
X000929Y011338D01*
X001002Y011412D01*
X000638Y011412D01*
X000545Y011506D01*
X000545Y011953D01*
X000638Y012047D01*
X000711Y012047D01*
X000711Y013170D01*
X000846Y013305D01*
X000913Y013305D01*
X000913Y013601D01*
X001006Y013694D01*
X001375Y013694D01*
X001441Y013629D01*
X001506Y013694D01*
X001875Y013694D01*
X001905Y013665D01*
X002186Y013945D01*
X002096Y013945D01*
X001961Y014080D01*
X001961Y014480D01*
X001942Y014467D01*
X001891Y014446D01*
X001836Y014436D01*
X001691Y014436D01*
X001691Y015149D01*
X001691Y015149D01*
X001691Y015862D01*
X001836Y015862D01*
X001891Y015851D01*
X001942Y015830D01*
X001987Y015799D01*
X002026Y015760D01*
X002039Y015742D01*
X002375Y015742D01*
X002441Y015676D01*
X002461Y015696D01*
X002461Y015953D01*
X002388Y015953D01*
X002295Y016047D01*
X002295Y016494D01*
X002388Y016588D01*
X002993Y016588D01*
X003087Y016494D01*
X003087Y016047D01*
X002993Y015953D01*
X002921Y015953D01*
X002921Y015696D01*
X002969Y015648D01*
X002969Y015222D01*
X003413Y014778D01*
X003448Y014813D01*
X003573Y014865D01*
X003708Y014865D01*
X003833Y014813D01*
X003929Y014718D01*
X003981Y014593D01*
X003981Y014457D01*
X003959Y014405D01*
X004586Y014405D01*
X004886Y014105D01*
X004945Y014248D01*
X005068Y014371D01*
X005229Y014437D01*
X005403Y014437D01*
X005563Y014371D01*
X005686Y014248D01*
X005753Y014087D01*
X005753Y013913D01*
X005746Y013895D01*
X005936Y013705D01*
X005993Y013705D01*
X005945Y013752D01*
X005879Y013913D01*
X005879Y014087D01*
X005945Y014248D01*
X006068Y014371D01*
X006229Y014437D01*
X006403Y014437D01*
X006563Y014371D01*
X006686Y014248D01*
X006753Y014087D01*
X006753Y013913D01*
X006686Y013752D01*
X006563Y013629D01*
X006403Y013563D01*
X006229Y013563D01*
X006228Y013563D01*
X006436Y013355D01*
X006494Y013297D01*
X006568Y013371D01*
X006729Y013437D01*
X006903Y013437D01*
X007063Y013371D01*
X007186Y013248D01*
X007253Y013087D01*
X007253Y012913D01*
X007187Y012755D01*
X007315Y012755D01*
X007299Y012786D01*
X007272Y012870D01*
X007259Y012956D01*
X007259Y012991D01*
X007807Y012991D01*
X007807Y013009D01*
X007807Y013557D01*
X007772Y013557D01*
X007685Y013543D01*
X007602Y013516D01*
X007524Y013477D01*
X007453Y013425D01*
X007391Y013363D01*
X007339Y013292D01*
X007299Y013214D01*
X007272Y013130D01*
X007259Y013044D01*
X007259Y013009D01*
X007807Y013009D01*
X007824Y013009D01*
X007824Y013557D01*
X007860Y013557D01*
X007946Y013543D01*
X008030Y013516D01*
X008108Y013477D01*
X008179Y013425D01*
X008241Y013363D01*
X008292Y013292D01*
X008332Y013214D01*
X008359Y013130D01*
X008373Y013044D01*
X008373Y013009D01*
X007824Y013009D01*
X007824Y012991D01*
X008373Y012991D01*
X008373Y012956D01*
X008359Y012870D01*
X008332Y012786D01*
X008316Y012755D01*
X010288Y012755D01*
X010288Y013495D01*
X010183Y013495D01*
X010158Y013485D01*
X010023Y013485D01*
X009898Y013537D01*
X009803Y013632D01*
X009779Y013688D01*
X009731Y013640D01*
X009731Y013557D01*
X009679Y013432D01*
X009583Y013337D01*
X009458Y013285D01*
X009323Y013285D01*
X009198Y013337D01*
X009103Y013432D01*
X009051Y013557D01*
X009051Y013693D01*
X009103Y013818D01*
X009198Y013913D01*
X009323Y013965D01*
X009406Y013965D01*
X009604Y014164D01*
X009548Y014187D01*
X009453Y014282D01*
X009401Y014407D01*
X009401Y014543D01*
X009453Y014668D01*
X009548Y014763D01*
X009673Y014815D01*
X009808Y014815D01*
X009877Y014787D01*
X010288Y015197D01*
X010288Y015648D01*
X010381Y015742D01*
X010718Y015742D01*
X010730Y015760D01*
X010769Y015799D01*
X010815Y015830D01*
X010840Y015840D01*
X010739Y015840D01*
X010739Y016328D01*
X010739Y016424D01*
X011266Y016424D01*
X011266Y016659D01*
X011255Y016714D01*
X011234Y016765D01*
X011204Y016810D01*
X011165Y016849D01*
X011146Y016862D01*
X011146Y017446D01*
X011052Y017540D01*
X010329Y017540D01*
X010244Y017455D01*
X009842Y017455D01*
X009783Y017513D01*
X009658Y017565D01*
X009523Y017565D01*
X009398Y017513D01*
X009303Y017418D01*
X009259Y017312D01*
X008999Y017420D01*
X008633Y017420D01*
X008295Y017280D01*
X008036Y017021D01*
X007896Y016683D01*
X007896Y016317D01*
X008036Y015979D01*
X008295Y015720D01*
X008633Y015580D01*
X008999Y015580D01*
X009337Y015720D01*
X009596Y015979D01*
X009736Y016317D01*
X009736Y016683D01*
X009652Y016885D01*
X009658Y016885D01*
X009783Y016937D01*
X009842Y016995D01*
X010236Y016995D01*
X010236Y016862D01*
X010217Y016849D01*
X010178Y016810D01*
X010147Y016765D01*
X010126Y016714D01*
X010116Y016659D01*
X010116Y016424D01*
X010643Y016424D01*
X010643Y016328D01*
X010739Y016328D01*
X011266Y016328D01*
X011266Y016093D01*
X011255Y016038D01*
X011234Y015987D01*
X011204Y015942D01*
X011165Y015903D01*
X011119Y015872D01*
X011094Y015862D01*
X011211Y015862D01*
X011266Y015851D01*
X011317Y015830D01*
X011362Y015799D01*
X011401Y015760D01*
X011414Y015742D01*
X011750Y015742D01*
X011816Y015676D01*
X011861Y015721D01*
X011861Y015953D01*
X011763Y015953D01*
X011670Y016047D01*
X011670Y016371D01*
X011546Y016495D01*
X011411Y016630D01*
X011411Y017574D01*
X011353Y017632D01*
X011301Y017757D01*
X011301Y017893D01*
X011353Y018018D01*
X011448Y018113D01*
X011573Y018165D01*
X011708Y018165D01*
X011833Y018113D01*
X011929Y018018D01*
X011981Y017893D01*
X011981Y017757D01*
X011929Y017632D01*
X011871Y017574D01*
X011871Y017297D01*
X012368Y017297D01*
X012462Y017203D01*
X012462Y016929D01*
X012586Y016805D01*
X012597Y016794D01*
X012597Y018456D01*
X000471Y018456D01*
X000471Y014873D01*
X000573Y014915D01*
X000656Y014915D01*
X000913Y015172D01*
X000913Y015648D01*
X001006Y015742D01*
X001343Y015742D01*
X001355Y015760D01*
X001394Y015799D01*
X001440Y015830D01*
X001491Y015851D01*
X001545Y015862D01*
X001691Y015862D01*
X001691Y015149D01*
X001691Y015149D01*
X001691Y014436D01*
X001545Y014436D01*
X001491Y014446D01*
X001440Y014467D01*
X001394Y014498D01*
X001355Y014537D01*
X001343Y014556D01*
X001006Y014556D01*
X000981Y014581D01*
X000981Y014507D01*
X000929Y014382D01*
X000833Y014287D01*
X000708Y014235D01*
X000573Y014235D01*
X000471Y014277D01*
X000471Y009330D01*
X000596Y009455D01*
X002045Y010904D01*
X002001Y010861D02*
X001337Y010861D01*
X001337Y011019D02*
X002045Y011019D01*
X001843Y010702D02*
X000471Y010702D01*
X000471Y010544D02*
X001684Y010544D01*
X001526Y010385D02*
X000471Y010385D01*
X000471Y010227D02*
X001367Y010227D01*
X001209Y010068D02*
X000471Y010068D01*
X000471Y009910D02*
X001050Y009910D01*
X000892Y009751D02*
X000471Y009751D01*
X000471Y009593D02*
X000733Y009593D01*
X000575Y009434D02*
X000471Y009434D01*
X001067Y009276D02*
X002711Y009276D01*
X002711Y009434D02*
X001225Y009434D01*
X001384Y009593D02*
X002711Y009593D01*
X002711Y009751D02*
X001542Y009751D01*
X001701Y009910D02*
X002711Y009910D01*
X002711Y010068D02*
X001859Y010068D01*
X003171Y009434D02*
X006010Y009434D01*
X006109Y009276D02*
X003171Y009276D01*
X003171Y009117D02*
X006424Y009117D01*
X006582Y008959D02*
X003300Y008959D01*
X003431Y008800D02*
X006741Y008800D01*
X006899Y008642D02*
X003431Y008642D01*
X003431Y008483D02*
X007058Y008483D01*
X007239Y009715D02*
X007514Y009715D01*
X007568Y009726D01*
X007619Y009747D01*
X007665Y009778D01*
X007704Y009817D01*
X007734Y009862D01*
X007755Y009913D01*
X007766Y009968D01*
X007766Y010203D01*
X007239Y010203D01*
X007239Y009715D01*
X007239Y009751D02*
X007143Y009751D01*
X007143Y009910D02*
X007239Y009910D01*
X007239Y010068D02*
X007143Y010068D01*
X007239Y010227D02*
X008224Y010227D01*
X008159Y010385D02*
X007766Y010385D01*
X007764Y010544D02*
X008136Y010544D01*
X008136Y010702D02*
X007687Y010702D01*
X007646Y010861D02*
X008157Y010861D01*
X008222Y011019D02*
X007646Y011019D01*
X007669Y011178D02*
X008303Y011178D01*
X008462Y011336D02*
X007827Y011336D01*
X009670Y011336D02*
X010055Y011336D01*
X010213Y011178D02*
X009828Y011178D01*
X009909Y011019D02*
X010295Y011019D01*
X010295Y010861D02*
X009975Y010861D01*
X009996Y010702D02*
X011861Y010702D01*
X011861Y010544D02*
X009996Y010544D01*
X009973Y010385D02*
X011861Y010385D01*
X011861Y010227D02*
X009907Y010227D01*
X009824Y010068D02*
X011861Y010068D01*
X011861Y009910D02*
X009666Y009910D01*
X009386Y009751D02*
X011861Y009751D01*
X012321Y009751D02*
X012597Y009751D01*
X012597Y009593D02*
X012321Y009593D01*
X012321Y009434D02*
X012597Y009434D01*
X012597Y009276D02*
X012321Y009276D01*
X012321Y009910D02*
X012597Y009910D01*
X012597Y010068D02*
X012321Y010068D01*
X012321Y010227D02*
X012597Y010227D01*
X012597Y010385D02*
X012321Y010385D01*
X012321Y010544D02*
X012597Y010544D01*
X012597Y010702D02*
X012321Y010702D01*
X012462Y010861D02*
X012597Y010861D01*
X012597Y011019D02*
X012462Y011019D01*
X012462Y011178D02*
X012597Y011178D01*
X012597Y011336D02*
X012370Y011336D01*
X012451Y011495D02*
X012597Y011495D01*
X012597Y011653D02*
X012462Y011653D01*
X012462Y011812D02*
X012597Y011812D01*
X012597Y011970D02*
X012445Y011970D01*
X012321Y012129D02*
X012597Y012129D01*
X012597Y012287D02*
X012321Y012287D01*
X012321Y012446D02*
X012597Y012446D01*
X012597Y012604D02*
X012344Y012604D01*
X012344Y012763D02*
X012597Y012763D01*
X011861Y012446D02*
X010921Y012446D01*
X010921Y012287D02*
X011861Y012287D01*
X011861Y012129D02*
X010921Y012129D01*
X011070Y011970D02*
X011686Y011970D01*
X011670Y011812D02*
X011087Y011812D01*
X011087Y011653D02*
X011670Y011653D01*
X011681Y011495D02*
X011076Y011495D01*
X010995Y011336D02*
X011761Y011336D01*
X011670Y011178D02*
X011087Y011178D01*
X011087Y011019D02*
X011670Y011019D01*
X011670Y010861D02*
X011087Y010861D01*
X008746Y009751D02*
X007625Y009751D01*
X007754Y009910D02*
X008466Y009910D01*
X008308Y010068D02*
X007766Y010068D01*
X005507Y009751D02*
X004386Y009751D01*
X004666Y009910D02*
X005378Y009910D01*
X005366Y010068D02*
X004824Y010068D01*
X002711Y009117D02*
X001100Y009117D01*
X001146Y008959D02*
X002581Y008959D01*
X002451Y008800D02*
X001146Y008800D01*
X001146Y008642D02*
X002451Y008642D01*
X002451Y008483D02*
X001146Y008483D01*
X001145Y008325D02*
X002548Y008325D01*
X002707Y008166D02*
X001146Y008166D01*
X001146Y008008D02*
X002630Y008008D01*
X002472Y007849D02*
X001146Y007849D01*
X001301Y007691D02*
X002451Y007691D01*
X002451Y007532D02*
X001459Y007532D01*
X001618Y007374D02*
X002499Y007374D01*
X002658Y007215D02*
X001776Y007215D01*
X001935Y007057D02*
X002679Y007057D01*
X002521Y006898D02*
X002093Y006898D01*
X002252Y006740D02*
X002451Y006740D01*
X002451Y006581D02*
X002410Y006581D01*
X001918Y006423D02*
X000471Y006423D01*
X000471Y006581D02*
X001760Y006581D01*
X001601Y006740D02*
X000471Y006740D01*
X000471Y006898D02*
X001443Y006898D01*
X001284Y007057D02*
X000471Y007057D01*
X000471Y007215D02*
X001126Y007215D01*
X000967Y007374D02*
X000471Y007374D01*
X000471Y007532D02*
X000809Y007532D01*
X000471Y006264D02*
X002077Y006264D01*
X002211Y006106D02*
X000471Y006106D01*
X000471Y005947D02*
X002211Y005947D01*
X002211Y005789D02*
X000471Y005789D01*
X000471Y005630D02*
X002211Y005630D01*
X002211Y005472D02*
X000471Y005472D01*
X000999Y005313D02*
X001383Y005313D01*
X001502Y005432D02*
X001234Y005164D01*
X001234Y004786D01*
X001502Y004518D01*
X001880Y004518D01*
X002148Y004786D01*
X002148Y005164D01*
X001880Y005432D01*
X001502Y005432D01*
X001234Y005155D02*
X001148Y005155D01*
X001148Y004996D02*
X001234Y004996D01*
X001234Y004838D02*
X001148Y004838D01*
X001041Y004679D02*
X001341Y004679D01*
X001499Y004521D02*
X000882Y004521D01*
X001882Y004521D02*
X002220Y004521D01*
X002211Y004679D02*
X002041Y004679D01*
X002148Y004838D02*
X002211Y004838D01*
X002211Y004996D02*
X002148Y004996D01*
X002148Y005155D02*
X002211Y005155D01*
X002211Y005313D02*
X001999Y005313D01*
X002671Y005155D02*
X002718Y005155D01*
X002941Y002625D02*
X002941Y002625D01*
X009941Y002625D02*
X009941Y002625D01*
X010551Y002619D02*
X012597Y002619D01*
X012597Y002777D02*
X010551Y002777D01*
X010493Y002936D02*
X012597Y002936D01*
X012597Y003094D02*
X010334Y003094D01*
X010261Y003253D02*
X012597Y003253D01*
X012597Y003411D02*
X010420Y003411D01*
X010431Y003570D02*
X012597Y003570D01*
X012597Y003728D02*
X010431Y003728D01*
X010372Y003887D02*
X012597Y003887D01*
X012597Y004045D02*
X010214Y004045D01*
X010212Y004204D02*
X012597Y004204D01*
X012597Y004362D02*
X010371Y004362D01*
X010431Y004521D02*
X010874Y004521D01*
X011002Y004393D02*
X011380Y004393D01*
X011648Y004661D01*
X011648Y005039D01*
X011380Y005307D01*
X011002Y005307D01*
X010734Y005039D01*
X010734Y004661D01*
X011002Y004393D01*
X010734Y004679D02*
X010431Y004679D01*
X010421Y004838D02*
X010734Y004838D01*
X010734Y004996D02*
X010263Y004996D01*
X010163Y005155D02*
X010849Y005155D01*
X010431Y005472D02*
X012597Y005472D01*
X012597Y005630D02*
X010431Y005630D01*
X010431Y005789D02*
X012597Y005789D01*
X012597Y005947D02*
X010738Y005947D01*
X010322Y005313D02*
X012597Y005313D01*
X012597Y005155D02*
X012532Y005155D01*
X011849Y005155D02*
X011532Y005155D01*
X011648Y004996D02*
X011734Y004996D01*
X011734Y004838D02*
X011648Y004838D01*
X011648Y004679D02*
X011734Y004679D01*
X011874Y004521D02*
X011507Y004521D01*
X012507Y004521D02*
X012597Y004521D01*
X012597Y002460D02*
X010551Y002460D01*
X010480Y002302D02*
X012597Y002302D01*
X012597Y002143D02*
X010321Y002143D01*
X010274Y001985D02*
X012597Y001985D01*
X012597Y001826D02*
X010431Y001826D01*
X010431Y001668D02*
X012597Y001668D01*
X012597Y001509D02*
X010431Y001509D01*
X010359Y001351D02*
X012597Y001351D01*
X012597Y001192D02*
X010201Y001192D01*
X000545Y010861D02*
X000471Y010861D01*
X000471Y011019D02*
X000545Y011019D01*
X000545Y011178D02*
X000471Y011178D01*
X000471Y011336D02*
X000636Y011336D01*
X000556Y011495D02*
X000471Y011495D01*
X000471Y011653D02*
X000545Y011653D01*
X000545Y011812D02*
X000471Y011812D01*
X000471Y011970D02*
X000561Y011970D01*
X000471Y012129D02*
X000711Y012129D01*
X000711Y012287D02*
X000471Y012287D01*
X000471Y012446D02*
X000711Y012446D01*
X000711Y012604D02*
X000471Y012604D01*
X000471Y012763D02*
X000711Y012763D01*
X000711Y012921D02*
X000471Y012921D01*
X000471Y013080D02*
X000711Y013080D01*
X000779Y013238D02*
X000471Y013238D01*
X000471Y013397D02*
X000913Y013397D01*
X000913Y013555D02*
X000471Y013555D01*
X000471Y013714D02*
X001954Y013714D01*
X002113Y013872D02*
X000471Y013872D01*
X000471Y014031D02*
X002010Y014031D01*
X001961Y014189D02*
X000471Y014189D01*
X000894Y014348D02*
X001961Y014348D01*
X001691Y014506D02*
X001691Y014506D01*
X001691Y014665D02*
X001691Y014665D01*
X001691Y014823D02*
X001691Y014823D01*
X001691Y014982D02*
X001691Y014982D01*
X001691Y015140D02*
X001691Y015140D01*
X001691Y015299D02*
X001691Y015299D01*
X001691Y015457D02*
X001691Y015457D01*
X001691Y015616D02*
X001691Y015616D01*
X001691Y015774D02*
X001691Y015774D01*
X001764Y015965D02*
X001818Y015976D01*
X001869Y015997D01*
X001915Y016028D01*
X001954Y016067D01*
X001984Y016112D01*
X002005Y016163D01*
X002016Y016218D01*
X002016Y016453D01*
X001489Y016453D01*
X001489Y016549D01*
X002016Y016549D01*
X002016Y016784D01*
X002005Y016839D01*
X001984Y016890D01*
X001954Y016935D01*
X001915Y016974D01*
X001896Y016987D01*
X001896Y017195D01*
X002295Y017195D01*
X002295Y016756D01*
X002388Y016662D01*
X002993Y016662D01*
X003087Y016756D01*
X003087Y016845D01*
X003463Y016845D01*
X003396Y016683D01*
X003396Y016317D01*
X003536Y015979D01*
X003795Y015720D01*
X004133Y015580D01*
X004499Y015580D01*
X004837Y015720D01*
X005096Y015979D01*
X005236Y016317D01*
X005236Y016683D01*
X005096Y017021D01*
X004837Y017280D01*
X004499Y017420D01*
X004133Y017420D01*
X003871Y017311D01*
X003871Y017970D01*
X003736Y018105D01*
X003492Y018105D01*
X003433Y018163D01*
X003308Y018215D01*
X003173Y018215D01*
X003048Y018163D01*
X002953Y018068D01*
X002901Y017943D01*
X002901Y017807D01*
X002953Y017682D01*
X002980Y017655D01*
X001812Y017655D01*
X001802Y017665D01*
X001079Y017665D01*
X000986Y017571D01*
X000986Y016987D01*
X000967Y016974D01*
X000928Y016935D01*
X000897Y016890D01*
X000876Y016839D01*
X000866Y016784D01*
X000866Y016549D01*
X001393Y016549D01*
X001393Y016453D01*
X001489Y016453D01*
X001489Y015965D01*
X001764Y015965D01*
X001970Y016091D02*
X002295Y016091D01*
X002295Y016250D02*
X002016Y016250D01*
X002016Y016408D02*
X002295Y016408D01*
X002367Y016567D02*
X002016Y016567D01*
X002016Y016725D02*
X002325Y016725D01*
X002295Y016884D02*
X001987Y016884D01*
X001896Y017042D02*
X002295Y017042D01*
X003056Y016725D02*
X003413Y016725D01*
X003396Y016567D02*
X003015Y016567D01*
X003087Y016408D02*
X003396Y016408D01*
X003424Y016250D02*
X003087Y016250D01*
X003087Y016091D02*
X003489Y016091D01*
X003582Y015933D02*
X002921Y015933D01*
X002921Y015774D02*
X003741Y015774D01*
X004047Y015616D02*
X002969Y015616D01*
X002969Y015457D02*
X010288Y015457D01*
X010288Y015299D02*
X002969Y015299D01*
X003051Y015140D02*
X010231Y015140D01*
X010072Y014982D02*
X003210Y014982D01*
X003368Y014823D02*
X003472Y014823D01*
X003810Y014823D02*
X009914Y014823D01*
X010247Y014506D02*
X010761Y014506D01*
X010769Y014498D02*
X010815Y014467D01*
X010866Y014446D01*
X010920Y014436D01*
X011066Y014436D01*
X011211Y014436D01*
X011266Y014446D01*
X011311Y014465D01*
X011311Y014405D01*
X010146Y014405D01*
X010339Y014598D01*
X010381Y014556D01*
X010718Y014556D01*
X010730Y014537D01*
X010769Y014498D01*
X011066Y014506D02*
X011066Y014506D01*
X011066Y014436D02*
X011066Y015149D01*
X011066Y015149D01*
X011066Y014436D01*
X011066Y014665D02*
X011066Y014665D01*
X011066Y014823D02*
X011066Y014823D01*
X011066Y014982D02*
X011066Y014982D01*
X011066Y015140D02*
X011066Y015140D01*
X011388Y015774D02*
X011861Y015774D01*
X011861Y015933D02*
X011194Y015933D01*
X011266Y016091D02*
X011670Y016091D01*
X011670Y016250D02*
X011266Y016250D01*
X011266Y016567D02*
X011474Y016567D01*
X011411Y016725D02*
X011251Y016725D01*
X011146Y016884D02*
X011411Y016884D01*
X011411Y017042D02*
X011146Y017042D01*
X011146Y017201D02*
X011411Y017201D01*
X011411Y017359D02*
X011146Y017359D01*
X011075Y017518D02*
X011411Y017518D01*
X011334Y017676D02*
X003871Y017676D01*
X003871Y017518D02*
X009409Y017518D01*
X009278Y017359D02*
X009146Y017359D01*
X008486Y017359D02*
X004646Y017359D01*
X004916Y017201D02*
X008215Y017201D01*
X008057Y017042D02*
X005075Y017042D01*
X005153Y016884D02*
X007979Y016884D01*
X007913Y016725D02*
X005218Y016725D01*
X005236Y016567D02*
X007896Y016567D01*
X007896Y016408D02*
X005236Y016408D01*
X005208Y016250D02*
X007924Y016250D01*
X007989Y016091D02*
X005142Y016091D01*
X005049Y015933D02*
X008082Y015933D01*
X008241Y015774D02*
X004891Y015774D01*
X004585Y015616D02*
X008547Y015616D01*
X009085Y015616D02*
X010288Y015616D01*
X010314Y015851D02*
X010263Y015872D01*
X010217Y015903D01*
X010178Y015942D01*
X010147Y015987D01*
X010126Y016038D01*
X010116Y016093D01*
X010116Y016328D01*
X010643Y016328D01*
X010643Y015840D01*
X010368Y015840D01*
X010314Y015851D01*
X010187Y015933D02*
X009549Y015933D01*
X009642Y016091D02*
X010116Y016091D01*
X010116Y016250D02*
X009708Y016250D01*
X009736Y016408D02*
X010643Y016408D01*
X010739Y016408D02*
X011632Y016408D01*
X010739Y016250D02*
X010643Y016250D01*
X010643Y016091D02*
X010739Y016091D01*
X010739Y015933D02*
X010643Y015933D01*
X010744Y015774D02*
X009391Y015774D01*
X009736Y016567D02*
X010116Y016567D01*
X010131Y016725D02*
X009718Y016725D01*
X009653Y016884D02*
X010236Y016884D01*
X010307Y017518D02*
X009773Y017518D01*
X011301Y017835D02*
X003871Y017835D01*
X003848Y017993D02*
X011342Y017993D01*
X011541Y018152D02*
X003445Y018152D01*
X003036Y018152D02*
X000471Y018152D01*
X000471Y018310D02*
X012597Y018310D01*
X012597Y018152D02*
X011741Y018152D01*
X011939Y017993D02*
X012597Y017993D01*
X012597Y017835D02*
X011981Y017835D01*
X011947Y017676D02*
X012597Y017676D01*
X012597Y017518D02*
X011871Y017518D01*
X011871Y017359D02*
X012597Y017359D01*
X012597Y017201D02*
X012462Y017201D01*
X012462Y017042D02*
X012597Y017042D01*
X012597Y016884D02*
X012508Y016884D01*
X009451Y014665D02*
X003951Y014665D01*
X003981Y014506D02*
X009401Y014506D01*
X009426Y014348D02*
X008587Y014348D01*
X008563Y014371D02*
X008403Y014437D01*
X008229Y014437D01*
X008068Y014371D01*
X007945Y014248D01*
X007879Y014087D01*
X007879Y013913D01*
X007945Y013752D01*
X008068Y013629D01*
X008229Y013563D01*
X008403Y013563D01*
X008563Y013629D01*
X008686Y013752D01*
X008753Y013913D01*
X008753Y014087D01*
X008686Y014248D01*
X008563Y014371D01*
X008711Y014189D02*
X009546Y014189D01*
X009471Y014031D02*
X008753Y014031D01*
X008736Y013872D02*
X009157Y013872D01*
X009059Y013714D02*
X008648Y013714D01*
X009052Y013555D02*
X007873Y013555D01*
X007824Y013555D02*
X007807Y013555D01*
X007758Y013555D02*
X006236Y013555D01*
X006395Y013397D02*
X006631Y013397D01*
X006648Y013714D02*
X006984Y013714D01*
X006945Y013752D02*
X007068Y013629D01*
X007229Y013563D01*
X007403Y013563D01*
X007563Y013629D01*
X007686Y013752D01*
X007753Y013913D01*
X007753Y014087D01*
X007686Y014248D01*
X007563Y014371D01*
X007403Y014437D01*
X007229Y014437D01*
X007068Y014371D01*
X006945Y014248D01*
X006879Y014087D01*
X006879Y013913D01*
X006945Y013752D01*
X006896Y013872D02*
X006736Y013872D01*
X006753Y014031D02*
X006879Y014031D01*
X006921Y014189D02*
X006711Y014189D01*
X006587Y014348D02*
X007045Y014348D01*
X007587Y014348D02*
X008045Y014348D01*
X007921Y014189D02*
X007711Y014189D01*
X007753Y014031D02*
X007879Y014031D01*
X007896Y013872D02*
X007736Y013872D01*
X007648Y013714D02*
X007984Y013714D01*
X007824Y013397D02*
X007807Y013397D01*
X007807Y013238D02*
X007824Y013238D01*
X007807Y013080D02*
X007824Y013080D01*
X008320Y013238D02*
X010288Y013238D01*
X010288Y013080D02*
X008367Y013080D01*
X008367Y012921D02*
X010288Y012921D01*
X010288Y012763D02*
X008320Y012763D01*
X007311Y012763D02*
X007191Y012763D01*
X007253Y012921D02*
X007264Y012921D01*
X007253Y013080D02*
X007264Y013080D01*
X007312Y013238D02*
X007190Y013238D01*
X007001Y013397D02*
X007424Y013397D01*
X008207Y013397D02*
X009138Y013397D01*
X009643Y013397D02*
X010288Y013397D01*
X009880Y013555D02*
X009730Y013555D01*
X005984Y013714D02*
X005928Y013714D01*
X005896Y013872D02*
X005769Y013872D01*
X005753Y014031D02*
X005879Y014031D01*
X005921Y014189D02*
X005711Y014189D01*
X005587Y014348D02*
X006045Y014348D01*
X005045Y014348D02*
X004644Y014348D01*
X004802Y014189D02*
X004921Y014189D01*
X002461Y015774D02*
X002013Y015774D01*
X002461Y015933D02*
X000471Y015933D01*
X000471Y016091D02*
X000912Y016091D01*
X000897Y016112D02*
X000928Y016067D01*
X000967Y016028D01*
X001013Y015997D01*
X001064Y015976D01*
X001118Y015965D01*
X001393Y015965D01*
X001393Y016453D01*
X000866Y016453D01*
X000866Y016218D01*
X000876Y016163D01*
X000897Y016112D01*
X000866Y016250D02*
X000471Y016250D01*
X000471Y016408D02*
X000866Y016408D01*
X000866Y016567D02*
X000471Y016567D01*
X000471Y016725D02*
X000866Y016725D01*
X000895Y016884D02*
X000471Y016884D01*
X000471Y017042D02*
X000986Y017042D01*
X000986Y017201D02*
X000471Y017201D01*
X000471Y017359D02*
X000986Y017359D01*
X000986Y017518D02*
X000471Y017518D01*
X000471Y017676D02*
X002959Y017676D01*
X002901Y017835D02*
X000471Y017835D01*
X000471Y017993D02*
X002922Y017993D01*
X003871Y017359D02*
X003986Y017359D01*
X001489Y016408D02*
X001393Y016408D01*
X001393Y016250D02*
X001489Y016250D01*
X001489Y016091D02*
X001393Y016091D01*
X001369Y015774D02*
X000471Y015774D01*
X000471Y015616D02*
X000913Y015616D01*
X000913Y015457D02*
X000471Y015457D01*
X000471Y015299D02*
X000913Y015299D01*
X000881Y015140D02*
X000471Y015140D01*
X000471Y014982D02*
X000722Y014982D01*
X000980Y014506D02*
X001386Y014506D01*
D17*
X001191Y015125D02*
X000641Y014575D01*
X001191Y015125D02*
X001191Y015149D01*
X001691Y015149D02*
X001691Y015425D01*
X001441Y015675D01*
X001441Y016501D01*
X001491Y016525D01*
X001591Y016625D01*
X002991Y016625D01*
X003441Y016175D01*
X003441Y014875D01*
X007091Y014875D01*
X007516Y014450D01*
X007541Y014475D01*
X008741Y014475D01*
X010641Y016375D01*
X010691Y016376D01*
X010691Y016375D01*
X011291Y015775D01*
X011291Y015175D01*
X011091Y015175D01*
X011066Y015149D01*
X011541Y015125D02*
X011566Y015149D01*
X011541Y015125D02*
X011541Y014175D01*
X009941Y014175D01*
X009391Y013625D01*
X010091Y013825D02*
X010191Y013725D01*
X010941Y013725D01*
X011316Y013350D01*
X011091Y013125D01*
X011066Y013101D01*
X011316Y013350D02*
X011541Y013125D01*
X011566Y013101D01*
X012066Y013101D02*
X012091Y013125D01*
X012491Y013125D01*
X012491Y016575D01*
X012091Y016975D01*
X012066Y016979D01*
X011641Y016725D02*
X011641Y017825D01*
X010691Y017125D02*
X010591Y017225D01*
X009591Y017225D01*
X010691Y017125D02*
X010691Y017124D01*
X011641Y016725D02*
X012041Y016325D01*
X012066Y016271D01*
X012091Y016225D01*
X012091Y015175D01*
X012066Y015149D01*
X010566Y015149D02*
X010541Y015125D01*
X009891Y014475D01*
X009741Y014475D01*
X007841Y014125D02*
X007841Y013025D01*
X007816Y013000D01*
X006341Y013125D02*
X006341Y012525D01*
X010691Y012525D01*
X010691Y011729D01*
X010141Y011575D02*
X009391Y011575D01*
X009191Y011575D01*
X009191Y012125D01*
X009191Y011575D02*
X007741Y011575D01*
X007191Y011025D01*
X007191Y010999D01*
X007141Y010975D01*
X005941Y010975D01*
X005941Y010999D01*
X005891Y011025D01*
X005341Y011575D01*
X005341Y011625D01*
X005641Y011625D01*
X005641Y012975D01*
X005816Y013000D01*
X005791Y013025D01*
X005641Y013025D01*
X004491Y014175D01*
X002191Y014175D01*
X002191Y015149D01*
X002691Y015149D02*
X002741Y015125D01*
X003341Y014525D01*
X003641Y014525D01*
X002691Y015149D02*
X002691Y016271D01*
X002691Y016979D02*
X002691Y017025D01*
X002741Y017075D01*
X003441Y017075D01*
X003641Y017275D01*
X003641Y017875D01*
X003241Y017875D01*
X003291Y017425D02*
X001591Y017425D01*
X001441Y017275D01*
X001441Y017249D01*
X005316Y014000D02*
X005841Y013475D01*
X005991Y013475D01*
X006341Y013125D01*
X007516Y014450D02*
X007841Y014125D01*
X010566Y013101D02*
X010591Y013075D01*
X010691Y013075D01*
X010691Y012525D01*
X012066Y013101D02*
X012091Y013075D01*
X012091Y011775D01*
X012066Y011729D01*
X012066Y011021D02*
X012091Y010975D01*
X012091Y008775D01*
X012441Y008775D01*
X012316Y008749D01*
X012316Y008001D02*
X012441Y007975D01*
X010591Y006125D01*
X003441Y006125D01*
X002941Y005625D01*
X002441Y006225D02*
X002441Y004625D01*
X002941Y004625D01*
X002441Y006225D02*
X000691Y007975D01*
X000691Y008001D01*
X000691Y008749D02*
X000691Y009225D01*
X002441Y010975D01*
X002441Y011021D01*
X002741Y011375D02*
X002941Y011175D01*
X002991Y011175D01*
X003391Y011575D01*
X005341Y011575D01*
X004341Y012575D02*
X003991Y012225D01*
X002891Y012225D01*
X002441Y011775D01*
X002441Y011729D01*
X002741Y011375D02*
X001291Y011375D01*
X000941Y011025D01*
X000941Y011021D01*
X000941Y011729D02*
X000941Y012475D01*
X003741Y012475D01*
X003991Y012725D01*
X004341Y012575D02*
X004341Y013075D01*
X003241Y013075D01*
X003241Y013125D01*
X003241Y013075D02*
X002691Y013075D01*
X002691Y013101D01*
X002191Y013125D02*
X002191Y013101D01*
X002191Y013125D02*
X001991Y013325D01*
X001941Y013325D01*
X001916Y013350D01*
X002291Y013725D01*
X003191Y013725D01*
X003291Y013825D01*
X001916Y013350D02*
X001691Y013125D01*
X001691Y013101D01*
X001191Y013075D02*
X001191Y013101D01*
X001191Y013075D02*
X000941Y013075D01*
X000941Y012475D01*
X002941Y011175D02*
X002941Y008625D01*
X005941Y010251D02*
X005941Y010275D01*
X007191Y010275D01*
X007191Y010251D01*
X007241Y010225D01*
X007241Y009525D01*
X007441Y009525D01*
X007241Y008625D02*
X006341Y009525D01*
X007241Y008625D02*
X009941Y008625D01*
X010691Y011021D02*
X010691Y011025D01*
X010141Y011575D01*
X009941Y002625D02*
X002941Y002625D01*
D18*
X006341Y009525D03*
X007441Y009525D03*
X003991Y012725D03*
X003241Y013125D03*
X003291Y013825D03*
X003641Y014525D03*
X000641Y014575D03*
X003291Y017425D03*
X003241Y017875D03*
X009591Y017225D03*
X011641Y017825D03*
X009741Y014475D03*
X010091Y013825D03*
X009391Y013625D03*
D19*
X009191Y012125D03*
M02*
