%
M48
M72
T01C0.0200
T02C0.0240
T03C0.0315
T04C0.0354
T05C0.0394
T06C0.1280
T07C0.1300
%
T01
X6341Y9525
X7441Y9525
X3991Y12725
X3241Y13125
X3291Y13825
X3641Y14525
X641Y14575
X3291Y17425
X3241Y17875
X9591Y17225
X11641Y17825
X9741Y14475
X10091Y13825
X9391Y13625
T02
X9191Y12125
T03
X2941Y1625
X2941Y2625
X2941Y3625
X2941Y4625
X2941Y5625
X2941Y6625
X2941Y7625
X2941Y8625
X9941Y8625
X9941Y7625
X9941Y6625
X9941Y5625
X9941Y4625
X9941Y3625
X9941Y2625
X9941Y1625
T04
X7816Y13000
X6816Y13000
X5816Y13000
X4816Y13000
X5316Y14000
X6316Y14000
X7316Y14000
X8316Y14000
T05
X1691Y4975
X691Y4975
X11191Y4850
X12191Y4850
T06
X8816Y16500
X4316Y16500
T07
X4066Y10625
X9066Y10625
M30
