G75*
%MOIN*%
%OFA0B0*%
%FSLAX24Y24*%
%IPPOS*%
%LPD*%
%AMOC8*
5,1,8,0,0,1.08239X$1,22.5*
%
%ADD10C,0.0000*%
%ADD11C,0.0080*%
%ADD12C,0.0060*%
%ADD13C,0.0040*%
%ADD14C,0.0050*%
D10*
X000191Y000875D02*
X000191Y018736D01*
X012877Y018736D01*
X012877Y000875D01*
X000191Y000875D01*
X003416Y010625D02*
X003418Y010675D01*
X003424Y010725D01*
X003434Y010775D01*
X003447Y010823D01*
X003464Y010871D01*
X003485Y010917D01*
X003509Y010961D01*
X003537Y011003D01*
X003568Y011043D01*
X003602Y011080D01*
X003639Y011115D01*
X003678Y011146D01*
X003719Y011175D01*
X003763Y011200D01*
X003809Y011222D01*
X003856Y011240D01*
X003904Y011254D01*
X003953Y011265D01*
X004003Y011272D01*
X004053Y011275D01*
X004104Y011274D01*
X004154Y011269D01*
X004204Y011260D01*
X004252Y011248D01*
X004300Y011231D01*
X004346Y011211D01*
X004391Y011188D01*
X004434Y011161D01*
X004474Y011131D01*
X004512Y011098D01*
X004547Y011062D01*
X004580Y011023D01*
X004609Y010982D01*
X004635Y010939D01*
X004658Y010894D01*
X004677Y010847D01*
X004692Y010799D01*
X004704Y010750D01*
X004712Y010700D01*
X004716Y010650D01*
X004716Y010600D01*
X004712Y010550D01*
X004704Y010500D01*
X004692Y010451D01*
X004677Y010403D01*
X004658Y010356D01*
X004635Y010311D01*
X004609Y010268D01*
X004580Y010227D01*
X004547Y010188D01*
X004512Y010152D01*
X004474Y010119D01*
X004434Y010089D01*
X004391Y010062D01*
X004346Y010039D01*
X004300Y010019D01*
X004252Y010002D01*
X004204Y009990D01*
X004154Y009981D01*
X004104Y009976D01*
X004053Y009975D01*
X004003Y009978D01*
X003953Y009985D01*
X003904Y009996D01*
X003856Y010010D01*
X003809Y010028D01*
X003763Y010050D01*
X003719Y010075D01*
X003678Y010104D01*
X003639Y010135D01*
X003602Y010170D01*
X003568Y010207D01*
X003537Y010247D01*
X003509Y010289D01*
X003485Y010333D01*
X003464Y010379D01*
X003447Y010427D01*
X003434Y010475D01*
X003424Y010525D01*
X003418Y010575D01*
X003416Y010625D01*
X008416Y010625D02*
X008418Y010675D01*
X008424Y010725D01*
X008434Y010775D01*
X008447Y010823D01*
X008464Y010871D01*
X008485Y010917D01*
X008509Y010961D01*
X008537Y011003D01*
X008568Y011043D01*
X008602Y011080D01*
X008639Y011115D01*
X008678Y011146D01*
X008719Y011175D01*
X008763Y011200D01*
X008809Y011222D01*
X008856Y011240D01*
X008904Y011254D01*
X008953Y011265D01*
X009003Y011272D01*
X009053Y011275D01*
X009104Y011274D01*
X009154Y011269D01*
X009204Y011260D01*
X009252Y011248D01*
X009300Y011231D01*
X009346Y011211D01*
X009391Y011188D01*
X009434Y011161D01*
X009474Y011131D01*
X009512Y011098D01*
X009547Y011062D01*
X009580Y011023D01*
X009609Y010982D01*
X009635Y010939D01*
X009658Y010894D01*
X009677Y010847D01*
X009692Y010799D01*
X009704Y010750D01*
X009712Y010700D01*
X009716Y010650D01*
X009716Y010600D01*
X009712Y010550D01*
X009704Y010500D01*
X009692Y010451D01*
X009677Y010403D01*
X009658Y010356D01*
X009635Y010311D01*
X009609Y010268D01*
X009580Y010227D01*
X009547Y010188D01*
X009512Y010152D01*
X009474Y010119D01*
X009434Y010089D01*
X009391Y010062D01*
X009346Y010039D01*
X009300Y010019D01*
X009252Y010002D01*
X009204Y009990D01*
X009154Y009981D01*
X009104Y009976D01*
X009053Y009975D01*
X009003Y009978D01*
X008953Y009985D01*
X008904Y009996D01*
X008856Y010010D01*
X008809Y010028D01*
X008763Y010050D01*
X008719Y010075D01*
X008678Y010104D01*
X008639Y010135D01*
X008602Y010170D01*
X008568Y010207D01*
X008537Y010247D01*
X008509Y010289D01*
X008485Y010333D01*
X008464Y010379D01*
X008447Y010427D01*
X008434Y010475D01*
X008424Y010525D01*
X008418Y010575D01*
X008416Y010625D01*
X008176Y016500D02*
X008178Y016550D01*
X008184Y016600D01*
X008194Y016649D01*
X008207Y016698D01*
X008225Y016745D01*
X008246Y016791D01*
X008270Y016834D01*
X008298Y016876D01*
X008329Y016916D01*
X008363Y016953D01*
X008400Y016987D01*
X008440Y017018D01*
X008482Y017046D01*
X008525Y017070D01*
X008571Y017091D01*
X008618Y017109D01*
X008667Y017122D01*
X008716Y017132D01*
X008766Y017138D01*
X008816Y017140D01*
X008866Y017138D01*
X008916Y017132D01*
X008965Y017122D01*
X009014Y017109D01*
X009061Y017091D01*
X009107Y017070D01*
X009150Y017046D01*
X009192Y017018D01*
X009232Y016987D01*
X009269Y016953D01*
X009303Y016916D01*
X009334Y016876D01*
X009362Y016834D01*
X009386Y016791D01*
X009407Y016745D01*
X009425Y016698D01*
X009438Y016649D01*
X009448Y016600D01*
X009454Y016550D01*
X009456Y016500D01*
X009454Y016450D01*
X009448Y016400D01*
X009438Y016351D01*
X009425Y016302D01*
X009407Y016255D01*
X009386Y016209D01*
X009362Y016166D01*
X009334Y016124D01*
X009303Y016084D01*
X009269Y016047D01*
X009232Y016013D01*
X009192Y015982D01*
X009150Y015954D01*
X009107Y015930D01*
X009061Y015909D01*
X009014Y015891D01*
X008965Y015878D01*
X008916Y015868D01*
X008866Y015862D01*
X008816Y015860D01*
X008766Y015862D01*
X008716Y015868D01*
X008667Y015878D01*
X008618Y015891D01*
X008571Y015909D01*
X008525Y015930D01*
X008482Y015954D01*
X008440Y015982D01*
X008400Y016013D01*
X008363Y016047D01*
X008329Y016084D01*
X008298Y016124D01*
X008270Y016166D01*
X008246Y016209D01*
X008225Y016255D01*
X008207Y016302D01*
X008194Y016351D01*
X008184Y016400D01*
X008178Y016450D01*
X008176Y016500D01*
X003676Y016500D02*
X003678Y016550D01*
X003684Y016600D01*
X003694Y016649D01*
X003707Y016698D01*
X003725Y016745D01*
X003746Y016791D01*
X003770Y016834D01*
X003798Y016876D01*
X003829Y016916D01*
X003863Y016953D01*
X003900Y016987D01*
X003940Y017018D01*
X003982Y017046D01*
X004025Y017070D01*
X004071Y017091D01*
X004118Y017109D01*
X004167Y017122D01*
X004216Y017132D01*
X004266Y017138D01*
X004316Y017140D01*
X004366Y017138D01*
X004416Y017132D01*
X004465Y017122D01*
X004514Y017109D01*
X004561Y017091D01*
X004607Y017070D01*
X004650Y017046D01*
X004692Y017018D01*
X004732Y016987D01*
X004769Y016953D01*
X004803Y016916D01*
X004834Y016876D01*
X004862Y016834D01*
X004886Y016791D01*
X004907Y016745D01*
X004925Y016698D01*
X004938Y016649D01*
X004948Y016600D01*
X004954Y016550D01*
X004956Y016500D01*
X004954Y016450D01*
X004948Y016400D01*
X004938Y016351D01*
X004925Y016302D01*
X004907Y016255D01*
X004886Y016209D01*
X004862Y016166D01*
X004834Y016124D01*
X004803Y016084D01*
X004769Y016047D01*
X004732Y016013D01*
X004692Y015982D01*
X004650Y015954D01*
X004607Y015930D01*
X004561Y015909D01*
X004514Y015891D01*
X004465Y015878D01*
X004416Y015868D01*
X004366Y015862D01*
X004316Y015860D01*
X004266Y015862D01*
X004216Y015868D01*
X004167Y015878D01*
X004118Y015891D01*
X004071Y015909D01*
X004025Y015930D01*
X003982Y015954D01*
X003940Y015982D01*
X003900Y016013D01*
X003863Y016047D01*
X003829Y016084D01*
X003798Y016124D01*
X003770Y016166D01*
X003746Y016209D01*
X003725Y016255D01*
X003707Y016302D01*
X003694Y016351D01*
X003684Y016400D01*
X003678Y016450D01*
X003676Y016500D01*
D11*
X003602Y018564D02*
X003602Y012241D01*
X009529Y012241D01*
X009529Y018564D01*
X003602Y018564D01*
X002242Y004333D02*
X000140Y004333D01*
X000140Y001069D01*
X002242Y001069D01*
X002242Y004333D01*
X010640Y004208D02*
X010640Y000944D01*
X012742Y000944D01*
X012742Y004208D01*
X010640Y004208D01*
D12*
X011044Y005530D02*
X010970Y005603D01*
X010970Y005750D01*
X011044Y005824D01*
X011191Y005750D02*
X011264Y005824D01*
X011337Y005824D01*
X011411Y005750D01*
X011411Y005603D01*
X011337Y005530D01*
X011191Y005603D02*
X011191Y005750D01*
X011191Y005603D02*
X011117Y005530D01*
X011044Y005530D01*
X010970Y005990D02*
X010970Y006211D01*
X011044Y006284D01*
X011191Y006284D01*
X011264Y006211D01*
X011264Y005990D01*
X011411Y005990D02*
X010970Y005990D01*
X010970Y006451D02*
X011411Y006451D01*
X011411Y006744D01*
X011411Y006911D02*
X011117Y006911D01*
X010970Y007058D01*
X011117Y007205D01*
X011411Y007205D01*
X011411Y007372D02*
X010970Y007372D01*
X011191Y007445D02*
X011411Y007665D01*
X011411Y007832D02*
X011411Y008126D01*
X011411Y008292D02*
X010970Y008292D01*
X010970Y008513D01*
X011044Y008586D01*
X011191Y008586D01*
X011264Y008513D01*
X011264Y008292D01*
X011264Y008439D02*
X011411Y008586D01*
X011484Y008753D02*
X011484Y009046D01*
X011411Y009213D02*
X010970Y009213D01*
X010970Y009433D01*
X011044Y009507D01*
X011191Y009507D01*
X011264Y009433D01*
X011264Y009213D01*
X011264Y009360D02*
X011411Y009507D01*
X010970Y008126D02*
X010970Y007832D01*
X011411Y007832D01*
X011191Y007832D02*
X011191Y007979D01*
X010970Y007665D02*
X011264Y007372D01*
X011191Y007205D02*
X011191Y006911D01*
X010970Y006744D02*
X010970Y006451D01*
X011191Y006451D02*
X011191Y006598D01*
X010927Y011257D02*
X010927Y011493D01*
X010455Y011493D02*
X010455Y011257D01*
X011830Y011257D02*
X011830Y011493D01*
X012302Y011493D02*
X012302Y011257D01*
X007628Y014937D02*
X007522Y014830D01*
X007308Y014830D01*
X007201Y014937D01*
X007201Y015150D02*
X007415Y015257D01*
X007522Y015257D01*
X007628Y015150D01*
X007628Y014937D01*
X007201Y015150D02*
X007201Y015471D01*
X007628Y015471D01*
X006984Y015150D02*
X006557Y015150D01*
X006877Y015471D01*
X006877Y014830D01*
X006232Y014937D02*
X006126Y014830D01*
X006019Y014830D01*
X005912Y014937D01*
X005695Y014830D02*
X005481Y015044D01*
X005588Y015044D02*
X005268Y015044D01*
X005268Y014830D02*
X005268Y015471D01*
X005588Y015471D01*
X005695Y015364D01*
X005695Y015150D01*
X005588Y015044D01*
X006232Y014937D02*
X006232Y015471D01*
X006126Y015471D02*
X006339Y015471D01*
X002927Y016507D02*
X002927Y016743D01*
X002455Y016743D02*
X002455Y016507D01*
X002677Y011493D02*
X002677Y011257D01*
X002205Y011257D02*
X002205Y011493D01*
X001177Y011493D02*
X001177Y011257D01*
X000705Y011257D02*
X000705Y011493D01*
X001911Y009632D02*
X001911Y009338D01*
X001470Y009338D01*
X001984Y009171D02*
X001984Y008878D01*
X001911Y008711D02*
X001764Y008564D01*
X001764Y008638D02*
X001764Y008417D01*
X001911Y008417D02*
X001470Y008417D01*
X001470Y008638D01*
X001544Y008711D01*
X001691Y008711D01*
X001764Y008638D01*
X001911Y008251D02*
X001911Y007957D01*
X001470Y007957D01*
X001470Y008251D01*
X001691Y008104D02*
X001691Y007957D01*
X001911Y007790D02*
X001691Y007570D01*
X001764Y007497D02*
X001470Y007790D01*
X001470Y007497D02*
X001911Y007497D01*
X001911Y007330D02*
X001617Y007330D01*
X001470Y007183D01*
X001617Y007036D01*
X001911Y007036D01*
X001911Y006869D02*
X001911Y006576D01*
X001470Y006576D01*
X001470Y006869D01*
X001691Y006723D02*
X001691Y006576D01*
X001691Y006409D02*
X001764Y006336D01*
X001764Y006115D01*
X001911Y006115D02*
X001470Y006115D01*
X001470Y006336D01*
X001544Y006409D01*
X001691Y006409D01*
X001764Y005949D02*
X001837Y005949D01*
X001911Y005875D01*
X001911Y005728D01*
X001837Y005655D01*
X001691Y005728D02*
X001617Y005655D01*
X001544Y005655D01*
X001470Y005728D01*
X001470Y005875D01*
X001544Y005949D01*
X001691Y005875D02*
X001764Y005949D01*
X001691Y005875D02*
X001691Y005728D01*
X001691Y007036D02*
X001691Y007330D01*
X011830Y016507D02*
X011830Y016743D01*
X012302Y016743D02*
X012302Y016507D01*
D13*
X011596Y016565D02*
X011552Y016521D01*
X011596Y016565D02*
X011596Y016651D01*
X011552Y016695D01*
X011466Y016695D01*
X011422Y016651D01*
X011422Y016608D01*
X011466Y016521D01*
X011336Y016521D01*
X011336Y016695D01*
X011336Y016797D02*
X011596Y016797D01*
X011509Y016797D02*
X011336Y016971D01*
X011466Y016841D02*
X011596Y016971D01*
X011596Y016418D02*
X011596Y016245D01*
X011596Y016332D02*
X011336Y016332D01*
X011422Y016245D01*
X010221Y016207D02*
X010221Y016033D01*
X010221Y016120D02*
X009961Y016120D01*
X010047Y016033D01*
X010047Y016310D02*
X010177Y016310D01*
X010221Y016353D01*
X010221Y016483D01*
X010047Y016483D01*
X010091Y016586D02*
X010091Y016673D01*
X010004Y016629D02*
X009961Y016673D01*
X010004Y016629D02*
X010221Y016629D01*
X002346Y016672D02*
X002086Y016672D01*
X002086Y016570D02*
X002086Y016396D01*
X002216Y016396D01*
X002172Y016483D01*
X002172Y016526D01*
X002216Y016570D01*
X002302Y016570D01*
X002346Y016526D01*
X002346Y016440D01*
X002302Y016396D01*
X002346Y016293D02*
X002346Y016120D01*
X002346Y016207D02*
X002086Y016207D01*
X002172Y016120D01*
X002259Y016672D02*
X002086Y016846D01*
X002216Y016716D02*
X002346Y016846D01*
X000971Y016754D02*
X000754Y016754D01*
X000711Y016798D01*
X000841Y016798D02*
X000841Y016711D01*
X000797Y016608D02*
X000971Y016608D01*
X000971Y016478D01*
X000927Y016435D01*
X000797Y016435D01*
X000971Y016332D02*
X000971Y016158D01*
X000971Y016245D02*
X000711Y016245D01*
X000797Y016158D01*
X001286Y011817D02*
X001459Y011644D01*
X001416Y011687D02*
X001546Y011817D01*
X001546Y011644D02*
X001286Y011644D01*
X001329Y011541D02*
X001502Y011368D01*
X001546Y011411D01*
X001546Y011498D01*
X001502Y011541D01*
X001329Y011541D01*
X001286Y011498D01*
X001286Y011411D01*
X001329Y011368D01*
X001502Y011368D01*
X001546Y011265D02*
X001546Y011091D01*
X001546Y011178D02*
X001286Y011178D01*
X001372Y011091D01*
X002786Y011053D02*
X002872Y010966D01*
X002786Y011053D02*
X003046Y011053D01*
X003046Y010966D02*
X003046Y011140D01*
X003002Y011243D02*
X002829Y011416D01*
X003002Y011416D01*
X003046Y011373D01*
X003046Y011286D01*
X003002Y011243D01*
X002829Y011243D01*
X002786Y011286D01*
X002786Y011373D01*
X002829Y011416D01*
X002786Y011519D02*
X003046Y011519D01*
X002959Y011519D02*
X002786Y011692D01*
X002916Y011562D02*
X003046Y011692D01*
X004911Y011272D02*
X004911Y011099D01*
X005171Y011099D01*
X005171Y010996D02*
X004997Y010996D01*
X005041Y011099D02*
X005041Y011185D01*
X005171Y010996D02*
X005171Y010866D01*
X005127Y010822D01*
X004997Y010822D01*
X004954Y010720D02*
X005127Y010546D01*
X005171Y010590D01*
X005171Y010676D01*
X005127Y010720D01*
X004954Y010720D01*
X004911Y010676D01*
X004911Y010590D01*
X004954Y010546D01*
X005127Y010546D01*
X005171Y010443D02*
X005171Y010270D01*
X005171Y010357D02*
X004911Y010357D01*
X004997Y010270D01*
X007786Y010215D02*
X007786Y010301D01*
X007829Y010345D01*
X008002Y010171D01*
X008046Y010215D01*
X008046Y010301D01*
X008002Y010345D01*
X007829Y010345D01*
X007829Y010447D02*
X007786Y010491D01*
X007786Y010578D01*
X007829Y010621D01*
X008002Y010447D01*
X008046Y010491D01*
X008046Y010578D01*
X008002Y010621D01*
X007829Y010621D01*
X007872Y010724D02*
X007872Y010854D01*
X007916Y010897D01*
X008046Y010897D01*
X008046Y011000D02*
X007786Y011000D01*
X007786Y011173D01*
X007916Y011087D02*
X007916Y011000D01*
X007872Y010724D02*
X008046Y010724D01*
X008002Y010447D02*
X007829Y010447D01*
X007786Y010215D02*
X007829Y010171D01*
X008002Y010171D01*
X008046Y010068D02*
X008046Y009895D01*
X008046Y009982D02*
X007786Y009982D01*
X007872Y009895D01*
X011036Y011178D02*
X011296Y011178D01*
X011296Y011091D02*
X011296Y011265D01*
X011252Y011368D02*
X011079Y011541D01*
X011252Y011541D01*
X011296Y011498D01*
X011296Y011411D01*
X011252Y011368D01*
X011079Y011368D01*
X011036Y011411D01*
X011036Y011498D01*
X011079Y011541D01*
X011036Y011644D02*
X011296Y011644D01*
X011209Y011644D02*
X011036Y011817D01*
X011166Y011687D02*
X011296Y011817D01*
X012411Y011817D02*
X012584Y011644D01*
X012541Y011687D02*
X012671Y011817D01*
X012671Y011644D02*
X012411Y011644D01*
X012454Y011541D02*
X012627Y011368D01*
X012671Y011411D01*
X012671Y011498D01*
X012627Y011541D01*
X012454Y011541D01*
X012411Y011498D01*
X012411Y011411D01*
X012454Y011368D01*
X012627Y011368D01*
X012671Y011265D02*
X012671Y011091D01*
X012671Y011178D02*
X012411Y011178D01*
X012497Y011091D01*
X011122Y011091D02*
X011036Y011178D01*
X008929Y007682D02*
X008929Y007605D01*
X008929Y007452D02*
X008929Y007145D01*
X009005Y007145D02*
X008852Y007145D01*
X008698Y007145D02*
X008698Y007375D01*
X008622Y007452D01*
X008391Y007452D01*
X008391Y007145D01*
X008238Y007145D02*
X008085Y007145D01*
X008161Y007145D02*
X008161Y007452D01*
X008085Y007452D01*
X008161Y007605D02*
X008161Y007682D01*
X007931Y007605D02*
X007931Y007145D01*
X007624Y007145D02*
X007624Y007605D01*
X007778Y007452D01*
X007931Y007605D01*
X007010Y007452D02*
X006934Y007452D01*
X006780Y007298D01*
X006780Y007145D02*
X006780Y007452D01*
X006627Y007375D02*
X006627Y007298D01*
X006320Y007298D01*
X006320Y007222D02*
X006320Y007375D01*
X006396Y007452D01*
X006550Y007452D01*
X006627Y007375D01*
X006550Y007145D02*
X006396Y007145D01*
X006320Y007222D01*
X006166Y007145D02*
X005936Y007145D01*
X005859Y007222D01*
X005859Y007452D01*
X005706Y007375D02*
X005629Y007452D01*
X005476Y007452D01*
X005476Y007298D02*
X005706Y007298D01*
X005706Y007375D02*
X005706Y007145D01*
X005476Y007145D01*
X005399Y007222D01*
X005476Y007298D01*
X005245Y007145D02*
X005092Y007145D01*
X005169Y007145D02*
X005169Y007605D01*
X005092Y007605D01*
X004939Y007529D02*
X004939Y007375D01*
X004862Y007298D01*
X004632Y007298D01*
X004632Y007145D02*
X004632Y007605D01*
X004862Y007605D01*
X004939Y007529D01*
X004478Y007605D02*
X004171Y007605D01*
X004171Y007145D01*
X004018Y007222D02*
X004018Y007529D01*
X003941Y007605D01*
X003711Y007605D01*
X003711Y007145D01*
X003941Y007145D01*
X004018Y007222D01*
X004171Y007375D02*
X004325Y007375D01*
X006013Y006992D02*
X006089Y006992D01*
X006166Y007068D01*
X006166Y007452D01*
X008852Y007452D02*
X008929Y007452D01*
X012411Y007496D02*
X012411Y007322D01*
X012671Y007322D01*
X012671Y007220D02*
X012497Y007220D01*
X012541Y007322D02*
X012541Y007409D01*
X012671Y007220D02*
X012671Y007090D01*
X012627Y007046D01*
X012497Y007046D01*
X012671Y006943D02*
X012671Y006770D01*
X012671Y006857D02*
X012411Y006857D01*
X012497Y006770D01*
X004859Y000855D02*
X004552Y000855D01*
X004552Y000395D01*
X004859Y000395D01*
X004706Y000625D02*
X004552Y000625D01*
X004399Y000472D02*
X004399Y000855D01*
X004092Y000855D02*
X004092Y000472D01*
X004169Y000395D01*
X004322Y000395D01*
X004399Y000472D01*
X003939Y000395D02*
X003632Y000395D01*
X003632Y000855D01*
X003478Y000702D02*
X003325Y000855D01*
X003171Y000702D01*
X003171Y000395D01*
X003018Y000548D02*
X003018Y000855D01*
X003171Y000625D02*
X003478Y000625D01*
X003478Y000702D02*
X003478Y000395D01*
X003018Y000548D02*
X002864Y000395D01*
X002711Y000548D01*
X002711Y000855D01*
X000596Y006691D02*
X000596Y006865D01*
X000596Y006778D02*
X000336Y006778D01*
X000422Y006691D01*
X000422Y006968D02*
X000552Y006968D01*
X000596Y007011D01*
X000596Y007141D01*
X000422Y007141D01*
X000466Y007244D02*
X000466Y007331D01*
X000336Y007417D02*
X000336Y007244D01*
X000596Y007244D01*
D14*
X003441Y006625D02*
X003441Y001125D01*
X003691Y001125D01*
X003691Y000125D01*
X008441Y000125D01*
X008441Y000875D01*
X007691Y001125D01*
X003691Y001125D01*
X003441Y001125D02*
X002441Y001125D01*
X002441Y009125D01*
X010441Y009125D01*
X010441Y001125D01*
X009441Y001125D01*
X009441Y000875D01*
X008441Y000875D01*
X009441Y001125D02*
X009441Y006625D01*
X003441Y006625D01*
X000685Y001999D02*
X000685Y001388D01*
X000482Y001388D02*
X000889Y001388D01*
X000482Y001795D02*
X000685Y001999D01*
X010982Y001670D02*
X011185Y001874D01*
X011185Y001263D01*
X010982Y001263D02*
X011389Y001263D01*
M02*
