G75*
%MOIN*%
%OFA0B0*%
%FSLAX24Y24*%
%IPPOS*%
%LPD*%
%AMOC8*
5,1,8,0,0,1.08239X$1,22.5*
%
%ADD10C,0.1380*%
%ADD11C,0.0634*%
%ADD12C,0.1360*%
%ADD13R,0.0316X0.0946*%
%ADD14R,0.0671X0.0592*%
%ADD15R,0.0552X0.0395*%
%ADD16OC8,0.0674*%
%ADD17OC8,0.0740*%
%ADD18C,0.0440*%
%ADD19C,0.0480*%
D10*
X004066Y010625D03*
X009066Y010625D03*
D11*
X007816Y013000D03*
X006816Y013000D03*
X005816Y013000D03*
X004816Y013000D03*
X005316Y014000D03*
X006316Y014000D03*
X007316Y014000D03*
X008316Y014000D03*
D12*
X008816Y016500D03*
X004316Y016500D03*
D13*
X002691Y015149D03*
X002191Y015149D03*
X001691Y015149D03*
X001191Y015149D03*
X001191Y013101D03*
X001691Y013101D03*
X002191Y013101D03*
X002691Y013101D03*
X010566Y013101D03*
X011066Y013101D03*
X011566Y013101D03*
X012066Y013101D03*
X012066Y015149D03*
X011566Y015149D03*
X011066Y015149D03*
X010566Y015149D03*
D14*
X010691Y016376D03*
X010691Y017124D03*
X001441Y017249D03*
X001441Y016501D03*
X005941Y010999D03*
X007191Y010999D03*
X007191Y010251D03*
X005941Y010251D03*
X000691Y008749D03*
X000691Y008001D03*
X012316Y008001D03*
X012316Y008749D03*
D15*
X012066Y011021D03*
X010691Y011021D03*
X010691Y011729D03*
X012066Y011729D03*
X012066Y016271D03*
X012066Y016979D03*
X002691Y016979D03*
X002691Y016271D03*
X002441Y011729D03*
X002441Y011021D03*
X000941Y011021D03*
X000941Y011729D03*
D16*
X000691Y004975D03*
X001691Y004975D03*
X011191Y004850D03*
X012191Y004850D03*
D17*
X002941Y001625D03*
X002941Y002625D03*
X002941Y003625D03*
X002941Y004625D03*
X002941Y005625D03*
X002941Y006625D03*
X002941Y007625D03*
X002941Y008625D03*
X009941Y008625D03*
X009941Y007625D03*
X009941Y006625D03*
X009941Y005625D03*
X009941Y004625D03*
X009941Y003625D03*
X009941Y002625D03*
X009941Y001625D03*
D18*
X007441Y009525D03*
X006341Y009525D03*
X003991Y012725D03*
X003241Y013125D03*
X003291Y013825D03*
X003641Y014525D03*
X000641Y014575D03*
X003291Y017425D03*
X003241Y017875D03*
X009591Y017225D03*
X011641Y017825D03*
X009741Y014475D03*
X010091Y013825D03*
X009391Y013625D03*
D19*
X009191Y012125D03*
M02*
