G75*
%MOIN*%
%OFA0B0*%
%FSLAX24Y24*%
%IPPOS*%
%LPD*%
%AMOC8*
5,1,8,0,0,1.08239X$1,22.5*
%
%ADD10C,0.0554*%
%ADD11OC8,0.0594*%
%ADD12C,0.0160*%
%ADD13C,0.0140*%
D10*
X005833Y004833D03*
X004833Y005333D03*
X005833Y005833D03*
X004833Y006333D03*
X005833Y006833D03*
X004833Y007333D03*
X005833Y007833D03*
X004833Y008333D03*
D11*
X009983Y008583D03*
X009983Y007583D03*
X009983Y006583D03*
X009983Y005583D03*
X009983Y004583D03*
D12*
X000813Y004063D02*
X000813Y009103D01*
X001246Y009103D01*
X001213Y008981D01*
X001213Y008686D01*
X001290Y008401D01*
X001437Y008146D01*
X001646Y007937D01*
X001901Y007790D01*
X002186Y007713D01*
X002481Y007713D01*
X002766Y007790D01*
X003021Y007937D01*
X003230Y008146D01*
X003377Y008401D01*
X003453Y008686D01*
X003453Y008981D01*
X003420Y009103D01*
X009720Y009103D01*
X009806Y009060D01*
X009786Y009060D01*
X009506Y008781D01*
X009506Y008602D01*
X009965Y008602D01*
X009965Y008565D01*
X009506Y008565D01*
X009506Y008386D01*
X009786Y008106D01*
X009965Y008106D01*
X009965Y008565D01*
X010002Y008565D01*
X010002Y008602D01*
X010460Y008602D01*
X010460Y008733D01*
X010549Y008689D01*
X010561Y008676D01*
X010634Y008646D01*
X010704Y008611D01*
X010722Y008610D01*
X010738Y008603D01*
X010816Y008603D01*
X010895Y008598D01*
X010911Y008603D01*
X013353Y008603D01*
X013353Y004563D01*
X010911Y004563D01*
X010895Y004569D01*
X010816Y004563D01*
X010738Y004563D01*
X010722Y004557D01*
X010704Y004555D01*
X010634Y004520D01*
X010561Y004490D01*
X010549Y004478D01*
X010440Y004423D01*
X010440Y004773D01*
X010173Y005040D01*
X009794Y005040D01*
X009630Y004876D01*
X008116Y004876D01*
X006263Y006729D01*
X006270Y006746D01*
X006270Y006920D01*
X006204Y007081D01*
X006081Y007204D01*
X005920Y007270D01*
X005746Y007270D01*
X005586Y007204D01*
X005463Y007081D01*
X005396Y006920D01*
X005396Y006746D01*
X005463Y006586D01*
X005586Y006463D01*
X005746Y006396D01*
X005920Y006396D01*
X005938Y006403D01*
X007791Y004551D01*
X007926Y004416D01*
X009526Y004416D01*
X009526Y004394D01*
X009794Y004126D01*
X009846Y004126D01*
X009720Y004063D01*
X003420Y004063D01*
X003453Y004186D01*
X003453Y004481D01*
X003377Y004766D01*
X003230Y005021D01*
X003021Y005230D01*
X002766Y005377D01*
X002481Y005453D01*
X002186Y005453D01*
X001901Y005377D01*
X001646Y005230D01*
X001437Y005021D01*
X001290Y004766D01*
X001213Y004481D01*
X001213Y004186D01*
X001246Y004063D01*
X000813Y004063D01*
X000813Y004217D02*
X001213Y004217D01*
X001213Y004376D02*
X000813Y004376D01*
X000813Y004534D02*
X001228Y004534D01*
X001270Y004693D02*
X000813Y004693D01*
X000813Y004851D02*
X001339Y004851D01*
X001431Y005010D02*
X000813Y005010D01*
X000813Y005168D02*
X001584Y005168D01*
X001814Y005327D02*
X000813Y005327D01*
X000813Y005485D02*
X004423Y005485D01*
X004396Y005420D02*
X004396Y005246D01*
X004463Y005086D01*
X004586Y004963D01*
X004746Y004896D01*
X004920Y004896D01*
X005081Y004963D01*
X005204Y005086D01*
X005270Y005246D01*
X005270Y005420D01*
X005204Y005581D01*
X005081Y005704D01*
X004920Y005770D01*
X004746Y005770D01*
X004586Y005704D01*
X004463Y005581D01*
X004396Y005420D01*
X004396Y005327D02*
X002853Y005327D01*
X003082Y005168D02*
X004428Y005168D01*
X004539Y005010D02*
X003236Y005010D01*
X003328Y004851D02*
X005396Y004851D01*
X005396Y004920D02*
X005396Y004746D01*
X005463Y004586D01*
X005586Y004463D01*
X005746Y004396D01*
X005920Y004396D01*
X006081Y004463D01*
X006204Y004586D01*
X006270Y004746D01*
X006270Y004920D01*
X006204Y005081D01*
X006081Y005204D01*
X005920Y005270D01*
X005746Y005270D01*
X005586Y005204D01*
X005463Y005081D01*
X005396Y004920D01*
X005433Y005010D02*
X005128Y005010D01*
X005238Y005168D02*
X005550Y005168D01*
X005270Y005327D02*
X007015Y005327D01*
X007173Y005168D02*
X006117Y005168D01*
X006233Y005010D02*
X007332Y005010D01*
X007490Y004851D02*
X006270Y004851D01*
X006248Y004693D02*
X007649Y004693D01*
X007807Y004534D02*
X006153Y004534D01*
X005514Y004534D02*
X003439Y004534D01*
X003453Y004376D02*
X009545Y004376D01*
X009703Y004217D02*
X003453Y004217D01*
X003397Y004693D02*
X005418Y004693D01*
X005746Y005396D02*
X005586Y005463D01*
X005463Y005586D01*
X005396Y005746D01*
X005396Y005920D01*
X005463Y006081D01*
X005586Y006204D01*
X005746Y006270D01*
X005920Y006270D01*
X006081Y006204D01*
X006204Y006081D01*
X006270Y005920D01*
X006270Y005746D01*
X006204Y005586D01*
X006081Y005463D01*
X005920Y005396D01*
X005746Y005396D01*
X005563Y005485D02*
X005244Y005485D01*
X005141Y005644D02*
X005439Y005644D01*
X005396Y005802D02*
X000813Y005802D01*
X000813Y005644D02*
X004526Y005644D01*
X004586Y005963D02*
X004746Y005896D01*
X004920Y005896D01*
X005081Y005963D01*
X005204Y006086D01*
X005270Y006246D01*
X005270Y006420D01*
X005204Y006581D01*
X005081Y006704D01*
X004920Y006770D01*
X004746Y006770D01*
X004586Y006704D01*
X004463Y006581D01*
X004396Y006420D01*
X004396Y006246D01*
X004463Y006086D01*
X004586Y005963D01*
X004590Y005961D02*
X000813Y005961D01*
X000813Y006119D02*
X004449Y006119D01*
X004396Y006278D02*
X000813Y006278D01*
X000813Y006436D02*
X004403Y006436D01*
X004477Y006595D02*
X000813Y006595D01*
X000813Y006753D02*
X004705Y006753D01*
X004746Y006896D02*
X004920Y006896D01*
X005081Y006963D01*
X005204Y007086D01*
X005270Y007246D01*
X005270Y007420D01*
X005204Y007581D01*
X005081Y007704D01*
X004920Y007770D01*
X004746Y007770D01*
X004586Y007704D01*
X004463Y007581D01*
X004396Y007420D01*
X004396Y007246D01*
X004463Y007086D01*
X004586Y006963D01*
X004746Y006896D01*
X004709Y006912D02*
X000813Y006912D01*
X000813Y007070D02*
X004478Y007070D01*
X004403Y007229D02*
X000813Y007229D01*
X000813Y007387D02*
X004396Y007387D01*
X004448Y007546D02*
X000813Y007546D01*
X000813Y007704D02*
X004587Y007704D01*
X004746Y007896D02*
X004920Y007896D01*
X005081Y007963D01*
X005204Y008086D01*
X005270Y008246D01*
X005270Y008291D01*
X008051Y008291D01*
X009548Y006794D01*
X009526Y006773D01*
X009526Y006394D01*
X009794Y006126D01*
X010173Y006126D01*
X010440Y006394D01*
X010440Y006773D01*
X010173Y007040D01*
X009952Y007040D01*
X009865Y007126D01*
X010173Y007126D01*
X010440Y007394D01*
X010440Y007773D01*
X010173Y008040D01*
X009794Y008040D01*
X009526Y007773D01*
X009526Y007465D01*
X008241Y008751D01*
X004968Y008751D01*
X004920Y008770D01*
X004746Y008770D01*
X004586Y008704D01*
X004463Y008581D01*
X004396Y008420D01*
X004396Y008246D01*
X004463Y008086D01*
X004586Y007963D01*
X004746Y007896D01*
X004527Y008021D02*
X003105Y008021D01*
X003249Y008180D02*
X004424Y008180D01*
X004396Y008338D02*
X003341Y008338D01*
X003403Y008497D02*
X004428Y008497D01*
X004537Y008655D02*
X003445Y008655D01*
X003453Y008814D02*
X009539Y008814D01*
X009698Y008972D02*
X003453Y008972D01*
X005243Y008180D02*
X005533Y008180D01*
X005536Y008182D02*
X005485Y008131D01*
X005442Y008073D01*
X005410Y008009D01*
X005387Y007940D01*
X005376Y007869D01*
X005376Y007842D01*
X005825Y007842D01*
X005825Y008290D01*
X005797Y008290D01*
X005726Y008279D01*
X005658Y008257D01*
X005594Y008224D01*
X005536Y008182D01*
X005416Y008021D02*
X005140Y008021D01*
X005376Y007863D02*
X002892Y007863D01*
X001774Y007863D02*
X000813Y007863D01*
X000813Y008021D02*
X001561Y008021D01*
X001417Y008180D02*
X000813Y008180D01*
X000813Y008338D02*
X001326Y008338D01*
X001264Y008497D02*
X000813Y008497D01*
X000813Y008655D02*
X001222Y008655D01*
X001213Y008814D02*
X000813Y008814D01*
X000813Y008972D02*
X001213Y008972D01*
X005080Y007704D02*
X005395Y007704D01*
X005387Y007726D02*
X005410Y007658D01*
X005442Y007594D01*
X005485Y007536D01*
X005536Y007485D01*
X005594Y007442D01*
X005658Y007410D01*
X005726Y007387D01*
X005797Y007376D01*
X005825Y007376D01*
X005825Y007825D01*
X005376Y007825D01*
X005376Y007797D01*
X005387Y007726D01*
X005477Y007546D02*
X005218Y007546D01*
X005270Y007387D02*
X005727Y007387D01*
X005825Y007387D02*
X005842Y007387D01*
X005842Y007376D02*
X005869Y007376D01*
X005940Y007387D01*
X007289Y007387D01*
X007389Y007488D02*
X007179Y007277D01*
X007030Y007019D01*
X006953Y006732D01*
X006953Y006435D01*
X007030Y006147D01*
X007179Y005889D01*
X007389Y005679D01*
X007647Y005530D01*
X007935Y005453D01*
X008232Y005453D01*
X008519Y005530D01*
X008777Y005679D01*
X008988Y005889D01*
X009136Y006147D01*
X009213Y006435D01*
X009213Y006732D01*
X009136Y007019D01*
X008988Y007277D01*
X008777Y007488D01*
X008519Y007636D01*
X008232Y007713D01*
X007935Y007713D01*
X007647Y007636D01*
X007389Y007488D01*
X007490Y007546D02*
X006190Y007546D01*
X006182Y007536D02*
X006224Y007594D01*
X006257Y007658D01*
X006279Y007726D01*
X006290Y007797D01*
X006290Y007825D01*
X005842Y007825D01*
X005842Y007842D01*
X005825Y007842D01*
X005825Y007825D01*
X005842Y007825D01*
X005842Y007376D01*
X005940Y007387D02*
X006009Y007410D01*
X006073Y007442D01*
X006131Y007485D01*
X006182Y007536D01*
X006272Y007704D02*
X007901Y007704D01*
X008266Y007704D02*
X008637Y007704D01*
X008676Y007546D02*
X008796Y007546D01*
X008877Y007387D02*
X008954Y007387D01*
X009015Y007229D02*
X009113Y007229D01*
X009107Y007070D02*
X009271Y007070D01*
X009165Y006912D02*
X009430Y006912D01*
X009526Y006753D02*
X009208Y006753D01*
X009213Y006595D02*
X009526Y006595D01*
X009526Y006436D02*
X009213Y006436D01*
X009171Y006278D02*
X009643Y006278D01*
X009794Y006040D02*
X009526Y005773D01*
X009526Y005394D01*
X009794Y005126D01*
X010173Y005126D01*
X010440Y005394D01*
X010440Y005773D01*
X010173Y006040D01*
X009794Y006040D01*
X009715Y005961D02*
X009029Y005961D01*
X009120Y006119D02*
X013353Y006119D01*
X013353Y005961D02*
X010252Y005961D01*
X010410Y005802D02*
X013353Y005802D01*
X013353Y005644D02*
X010440Y005644D01*
X010440Y005485D02*
X013353Y005485D01*
X013353Y005327D02*
X010373Y005327D01*
X010214Y005168D02*
X013353Y005168D01*
X013353Y005010D02*
X010203Y005010D01*
X010361Y004851D02*
X013353Y004851D01*
X013353Y004693D02*
X010440Y004693D01*
X010440Y004534D02*
X010662Y004534D01*
X009764Y005010D02*
X007982Y005010D01*
X007824Y005168D02*
X009752Y005168D01*
X009594Y005327D02*
X007665Y005327D01*
X007815Y005485D02*
X007507Y005485D01*
X007451Y005644D02*
X007348Y005644D01*
X007266Y005802D02*
X007190Y005802D01*
X007138Y005961D02*
X007031Y005961D01*
X007046Y006119D02*
X006873Y006119D01*
X006995Y006278D02*
X006714Y006278D01*
X006556Y006436D02*
X006953Y006436D01*
X006953Y006595D02*
X006397Y006595D01*
X006270Y006753D02*
X006959Y006753D01*
X007001Y006912D02*
X006270Y006912D01*
X006208Y007070D02*
X007060Y007070D01*
X007151Y007229D02*
X006021Y007229D01*
X005646Y007229D02*
X005263Y007229D01*
X005189Y007070D02*
X005458Y007070D01*
X005396Y006912D02*
X004958Y006912D01*
X004962Y006753D02*
X005396Y006753D01*
X005459Y006595D02*
X005190Y006595D01*
X005264Y006436D02*
X005649Y006436D01*
X005270Y006278D02*
X006064Y006278D01*
X006166Y006119D02*
X006222Y006119D01*
X006254Y005961D02*
X006381Y005961D01*
X006270Y005802D02*
X006539Y005802D01*
X006698Y005644D02*
X006228Y005644D01*
X006104Y005485D02*
X006856Y005485D01*
X008352Y005485D02*
X009526Y005485D01*
X009526Y005644D02*
X008716Y005644D01*
X008900Y005802D02*
X009556Y005802D01*
X010324Y006278D02*
X013353Y006278D01*
X013353Y006436D02*
X010440Y006436D01*
X010440Y006595D02*
X013353Y006595D01*
X013353Y006753D02*
X010440Y006753D01*
X010301Y006912D02*
X013353Y006912D01*
X013353Y007070D02*
X009922Y007070D01*
X010275Y007229D02*
X013353Y007229D01*
X013353Y007387D02*
X010433Y007387D01*
X010440Y007546D02*
X013353Y007546D01*
X013353Y007704D02*
X010440Y007704D01*
X010350Y007863D02*
X013353Y007863D01*
X013353Y008021D02*
X010191Y008021D01*
X010181Y008106D02*
X010002Y008106D01*
X010002Y008565D01*
X010460Y008565D01*
X010460Y008386D01*
X010181Y008106D01*
X010254Y008180D02*
X013353Y008180D01*
X013353Y008338D02*
X010413Y008338D01*
X010460Y008497D02*
X013353Y008497D01*
X010612Y008655D02*
X010460Y008655D01*
X010002Y008497D02*
X009965Y008497D01*
X009965Y008338D02*
X010002Y008338D01*
X010002Y008180D02*
X009965Y008180D01*
X009775Y008021D02*
X008971Y008021D01*
X008812Y008180D02*
X009712Y008180D01*
X009554Y008338D02*
X008654Y008338D01*
X008495Y008497D02*
X009506Y008497D01*
X009506Y008655D02*
X008337Y008655D01*
X008162Y008180D02*
X006133Y008180D01*
X006131Y008182D02*
X006073Y008224D01*
X006009Y008257D01*
X005940Y008279D01*
X005869Y008290D01*
X005842Y008290D01*
X005842Y007842D01*
X006290Y007842D01*
X006290Y007869D01*
X006279Y007940D01*
X006257Y008009D01*
X006224Y008073D01*
X006182Y008131D01*
X006131Y008182D01*
X006251Y008021D02*
X008320Y008021D01*
X008479Y007863D02*
X006290Y007863D01*
X005842Y007863D02*
X005825Y007863D01*
X005825Y008021D02*
X005842Y008021D01*
X005825Y008180D02*
X005842Y008180D01*
X005825Y007704D02*
X005842Y007704D01*
X005825Y007546D02*
X005842Y007546D01*
X009129Y007863D02*
X009617Y007863D01*
X009526Y007704D02*
X009288Y007704D01*
X009446Y007546D02*
X009526Y007546D01*
X005501Y006119D02*
X005218Y006119D01*
X005076Y005961D02*
X005413Y005961D01*
D13*
X005833Y006833D02*
X008021Y004646D01*
X009896Y004646D01*
X009958Y004583D01*
X009983Y004583D01*
X009958Y006583D02*
X009983Y006583D01*
X009958Y006583D02*
X009958Y006708D01*
X008146Y008521D01*
X005021Y008521D01*
X004833Y008333D01*
M02*
