0
SECTION
2
HEADER
9
$INSUNITS
70
4
9
$ACADVER
1
AC1014
9
$HANDSEED
5
FFFF
0
ENDSEC
0
SECTION
2
TABLES
0
TABLE
2
VPORT
5
8
100
AcDbSymbolTable
0
ENDTAB
0
TABLE
2
LTYPE
5
5
100
AcDbSymbolTable
0
LTYPE
5
14
100
AcDbSymbolTableRecord
100
AcDbLinetypeTableRecord
2
BYBLOCK
70
0
0
LTYPE
5
15
100
AcDbSymbolTableRecord
100
AcDbLinetypeTableRecord
2
BYLAYER
70
0
0
ENDTAB
0
TABLE
2
LAYER
5
2
100
AcDbSymbolTable
70
2
0
LAYER
5
50
100
AcDbSymbolTableRecord
100
AcDbLayerTableRecord
2
0
70
0
6
CONTINUOUS
0
ENDTAB
0
TABLE
2
STYLE
5
3
100
AcDbSymbolTable
70
1
0
STYLE
5
11
100
AcDbSymbolTableRecord
100
AcDbTextStyleTableRecord
2
STANDARD
70
0
0
ENDTAB
0
TABLE
2
VIEW
5
6
100
AcDbSymbolTable
70
0
0
ENDTAB
0
TABLE
2
UCS
5
7
100
AcDbSymbolTable
70
0
0
ENDTAB
0
TABLE
2
APPID
5
9
100
AcDbSymbolTable
70
2
0
APPID
5
12
100
AcDbSymbolTableRecord
100
AcDbRegAppTableRecord
2
ACAD
70
0
0
ENDTAB
0
TABLE
2
DIMSTYLE
5
A
100
AcDbSymbolTable
70
1
0
ENDTAB
0
TABLE
2
BLOCK_RECORD
5
1
100
AcDbSymbolTable
70
1
0
BLOCK_RECORD
5
1F
100
AcDbSymbolTableRecord
100
AcDbBlockTableRecord
2
*MODEL_SPACE
0
BLOCK_RECORD
5
1B
100
AcDbSymbolTableRecord
100
AcDbBlockTableRecord
2
*PAPER_SPACE
0
ENDTAB
0
ENDSEC
0
SECTION
2
BLOCKS
0
BLOCK
5
20
100
AcDbEntity
100
AcDbBlockBegin
2
*MODEL_SPACE
0
ENDBLK
5
21
100
AcDbEntity
100
AcDbBlockEnd
0
BLOCK
5
1C
100
AcDbEntity
100
AcDbBlockBegin
2
*PAPER_SPACE
0
ENDBLK
5
1D
100
AcDbEntity
100
AcDbBlockEnd
0
ENDSEC
0
SECTION
2
ENTITIES
0
LWPOLYLINE
5
100
100
AcDbEntity
8
0
100
AcDbPolyline
90
12
70
1
43
0.0
10
-458.00000000000011
20
513.29999999999973
42
0.41421356237308815
10
-470.00000000000011
20
525.29999999999984
10
-504.79999999999995
20
525.29999999999984
42
0.41421356237308815
10
-516.79999999999995
20
513.29999999999973
10
-516.79999999999995
20
481.49999999999989
42
0.41421356237308815
10
-504.79999999999995
20
469.49999999999989
10
-501.79999999999995
20
469.49999999999989
42
0.41421356237308815
10
-489.7999999999999
20
481.49999999999989
10
-489.7999999999999
20
495.29999999999978
42
-0.41421356237309503
10
-486.79999999999995
20
498.29999999999978
10
-470.00000000000011
20
498.29999999999978
42
0.41421356237308815
10
-458.00000000000011
20
510.29999999999978
0
LWPOLYLINE
5
101
100
AcDbEntity
8
0
100
AcDbPolyline
90
6
70
1
43
0.0
10
-501.29999999999995
20
480.99999999999994
10
-505.29999999999995
20
480.99999999999994
10
-505.29999999999995
20
513.79999999999973
10
-469.50000000000017
20
513.79999999999973
10
-469.50000000000017
20
509.79999999999984
10
-501.29999999999995
20
509.79999999999984
0
LWPOLYLINE
5
102
100
AcDbEntity
8
0
100
AcDbPolyline
90
12
70
1
43
0.0
10
-486.79999999999995
20
498.29999999999978
42
0.41421356237312978
10
-489.79999999999984
20
495.29999999999978
10
-489.7999999999999
20
481.49999999999989
42
-0.41421356237309503
10
-501.79999999999995
20
469.49999999999989
10
-504.79999999999995
20
469.49999999999989
42
-0.41421356237309503
10
-516.79999999999995
20
481.49999999999989
10
-516.79999999999995
20
513.29999999999973
42
-0.41421356237309503
10
-504.79999999999995
20
525.29999999999984
10
-470.00000000000011
20
525.29999999999984
42
-0.41421356237309503
10
-458.00000000000011
20
513.29999999999973
10
-458.00000000000011
20
510.29999999999978
42
-0.41421356237309503
10
-470.00000000000011
20
498.29999999999978
0
LWPOLYLINE
5
103
100
AcDbEntity
8
0
100
AcDbPolyline
90
6
70
1
43
0.0
10
-501.29999999999995
20
480.99999999999994
10
-505.29999999999995
20
480.99999999999994
10
-505.29999999999995
20
513.79999999999973
10
-469.50000000000017
20
513.79999999999973
10
-469.50000000000017
20
509.79999999999984
10
-501.29999999999995
20
509.79999999999984
0
ENDSEC
0
SECTION
2
OBJECTS
0
DICTIONARY
5
C
100
AcDbDictionary
3
ACAD_GROUP
350
D
3
ACAD_MLINESTYLE
350
17
0
DICTIONARY
5
D
100
AcDbDictionary
0
DICTIONARY
5
1A
330
C
100
AcDbDictionary
0
DICTIONARY
5
17
100
AcDbDictionary
0
ENDSEC
0
EOF
