%
M48
M72
T01C0.0240
T02C0.0320
T03C0.0354
T04C0.1200
T05C0.1280
%
T01
X12633Y3504
X16683Y3504
X18733Y3004
X17083Y2554
X20833Y1454
X23233Y954
X23333Y1454
X25083Y1454
X25933Y1404
X26633Y1804
X27983Y2504
X28633Y2404
X28233Y1704
X31083Y1154
X31583Y1354
X35683Y2554
X33983Y2804
X33833Y3854
X35683Y4454
X35883Y5204
X34833Y6454
X34233Y7104
X33383Y7504
X32433Y7354
X32083Y7754
X33783Y8554
X29633Y8154
X29083Y8154
X29483Y7354
X28283Y7304
X27533Y7104
X28683Y6304
X28633Y5804
X28783Y5204
X27583Y5204
X26633Y3854
X26683Y2754
X18883Y5054
X18633Y6554
X21133Y6954
X22833Y6954
X24333Y6954
X25983Y7354
X27033Y7754
X24233Y7754
X22333Y8354
X21583Y9254
X22033Y10854
X19833Y11954
X17383Y11504
X12433Y11554
X6833Y10704
X11613Y7704
X14333Y7704
X26733Y11554
X27583Y11554
X28283Y12304
X31033Y11954
X32733Y11554
X28683Y10104
X29233Y8854
X31083Y7104
X31683Y7054
X32933Y7104
X36033Y7104
X37333Y7104
X38933Y6954
X39133Y7704
X38633Y7754
X43583Y7704
X43583Y8254
X43633Y8904
X42233Y10104
X38383Y11504
X39583Y11554
X40033Y12204
X41833Y12304
X37483Y12604
X35983Y14404
X35483Y14404
X24633Y12404
X20383Y14804
X43633Y6654
X44983Y6204
X46333Y7054
X50483Y6604
X51483Y7404
X52783Y7404
X54033Y6904
X54583Y5704
X54583Y5204
X54583Y4704
X54583Y4204
X54583Y3704
X54583Y3204
X54583Y2704
X54583Y2204
X55083Y2079
X55583Y2079
X56083Y2079
X56583Y2079
X57083Y2079
X57583Y2079
X58083Y2204
X58083Y2704
X58083Y3204
X58083Y3704
X58083Y4204
X58083Y4704
X58083Y5204
X58083Y5704
X50483Y5554
X50283Y5054
X50283Y4454
X50483Y1754
X42633Y1454
X41983Y1104
X41583Y1454
X40733Y1454
X50283Y8854
X49883Y11404
X49483Y11804
X52433Y11954
X53733Y11554
T02
X62601Y6633
X61440Y4704
X63802Y4704
T03
X61083Y9704
X60083Y9704
X59083Y9704
X58083Y9704
X58583Y10704
X59583Y10704
X60583Y10704
X61583Y10704
X54583Y10704
X53583Y10704
X52583Y10704
X51583Y10704
X51083Y9704
X52083Y9704
X53083Y9704
X54083Y9704
X47583Y10704
X46583Y10704
X45583Y10704
X44583Y10704
X44083Y9704
X45083Y9704
X46083Y9704
X47083Y9704
X40583Y10704
X39583Y10704
X38583Y10704
X37583Y10704
X37083Y9704
X38083Y9704
X39083Y9704
X40083Y9704
X33583Y10704
X32583Y10704
X31583Y10704
X30583Y10704
X30083Y9704
X31083Y9704
X32083Y9704
X33083Y9704
X26583Y10704
X25583Y10704
X24583Y10704
X23583Y10704
X23083Y9704
X24083Y9704
X25083Y9704
X26083Y9704
X19583Y10704
X18583Y10704
X17583Y10704
X16583Y10704
X16083Y9704
X17083Y9704
X18083Y9704
X19083Y9704
X12583Y10704
X11583Y10704
X10583Y10704
X9583Y10704
X9083Y9704
X10083Y9704
X11083Y9704
X12083Y9704
X11583Y5704
X12583Y5704
X10583Y5704
X9583Y5704
X9083Y4704
X10083Y4704
X11083Y4704
X12083Y4704
T04
X6583Y1454
X6583Y14204
X64083Y14204
X64083Y1454
T05
X62083Y13204
X57583Y13204
X55083Y13204
X50583Y13204
X48083Y13204
X43583Y13204
X41083Y13204
X36583Y13204
X34083Y13204
X29583Y13204
X27083Y13204
X22583Y13204
X20083Y13204
X15583Y13204
X13083Y13204
X8583Y13204
X8583Y2204
X13083Y2204
M30
