G75*
%MOIN*%
%OFA0B0*%
%FSLAX24Y24*%
%IPPOS*%
%LPD*%
%AMOC8*
5,1,8,0,0,1.08239X$1,22.5*
%
%ADD10C,0.0554*%
%ADD11C,0.0700*%
%ADD12C,0.0160*%
%ADD13C,0.0400*%
%ADD14C,0.0140*%
%ADD15C,0.2200*%
D10*
X009083Y004704D03*
X010083Y004704D03*
X011083Y004704D03*
X012083Y004704D03*
X011583Y005704D03*
X012583Y005704D03*
X010583Y005704D03*
X009583Y005704D03*
X009083Y009704D03*
X010083Y009704D03*
X011083Y009704D03*
X012083Y009704D03*
X011583Y010704D03*
X012583Y010704D03*
X010583Y010704D03*
X009583Y010704D03*
X016083Y009704D03*
X017083Y009704D03*
X018083Y009704D03*
X019083Y009704D03*
X018583Y010704D03*
X017583Y010704D03*
X016583Y010704D03*
X019583Y010704D03*
X023083Y009704D03*
X024083Y009704D03*
X025083Y009704D03*
X026083Y009704D03*
X025583Y010704D03*
X026583Y010704D03*
X024583Y010704D03*
X023583Y010704D03*
X030083Y009704D03*
X031083Y009704D03*
X032083Y009704D03*
X033083Y009704D03*
X032583Y010704D03*
X031583Y010704D03*
X030583Y010704D03*
X033583Y010704D03*
X037083Y009704D03*
X038083Y009704D03*
X039083Y009704D03*
X040083Y009704D03*
X039583Y010704D03*
X040583Y010704D03*
X038583Y010704D03*
X037583Y010704D03*
X044083Y009704D03*
X045083Y009704D03*
X046083Y009704D03*
X047083Y009704D03*
X046583Y010704D03*
X045583Y010704D03*
X044583Y010704D03*
X047583Y010704D03*
X051083Y009704D03*
X052083Y009704D03*
X053083Y009704D03*
X054083Y009704D03*
X053583Y010704D03*
X054583Y010704D03*
X052583Y010704D03*
X051583Y010704D03*
X058083Y009704D03*
X059083Y009704D03*
X060083Y009704D03*
X061083Y009704D03*
X060583Y010704D03*
X059583Y010704D03*
X058583Y010704D03*
X061583Y010704D03*
D11*
X062251Y006633D02*
X062951Y006633D01*
X063802Y005054D02*
X063802Y004354D01*
X061440Y004354D02*
X061440Y005054D01*
D12*
X061071Y005434D02*
X050845Y005434D01*
X050863Y005478D02*
X050805Y005339D01*
X050699Y005232D01*
X050632Y005204D01*
X050663Y005129D01*
X050663Y004978D01*
X050605Y004839D01*
X050521Y004754D01*
X050605Y004669D01*
X050663Y004529D01*
X050663Y004378D01*
X050605Y004239D01*
X050499Y004132D01*
X050359Y004074D01*
X050208Y004074D01*
X050068Y004132D01*
X049996Y004204D01*
X048937Y004204D01*
X051962Y001179D01*
X061783Y001179D01*
X061783Y003948D01*
X061740Y003904D01*
X061545Y003824D01*
X061334Y003824D01*
X061139Y003904D01*
X060990Y004054D01*
X060910Y004248D01*
X060910Y005159D01*
X060990Y005354D01*
X061139Y005503D01*
X061183Y005521D01*
X061183Y006249D01*
X061181Y006252D01*
X058183Y009250D01*
X058174Y009247D01*
X057992Y009247D01*
X057824Y009316D01*
X057696Y009445D01*
X057626Y009613D01*
X057626Y009795D01*
X057696Y009963D01*
X057823Y010090D01*
X057823Y011880D01*
X057863Y011976D01*
X057936Y012049D01*
X058950Y013063D01*
X058970Y014604D01*
X053158Y014604D01*
X051383Y012245D01*
X051383Y011116D01*
X051492Y011161D01*
X051674Y011161D01*
X051842Y011091D01*
X051971Y010963D01*
X052040Y010795D01*
X052040Y010613D01*
X051971Y010445D01*
X051842Y010316D01*
X051833Y010313D01*
X051833Y010095D01*
X051992Y010161D01*
X052174Y010161D01*
X052342Y010091D01*
X052471Y009963D01*
X052540Y009795D01*
X052540Y009613D01*
X052471Y009445D01*
X052342Y009316D01*
X052333Y009313D01*
X052333Y007154D01*
X052496Y007154D01*
X052461Y007189D01*
X052403Y007328D01*
X052403Y007479D01*
X052461Y007619D01*
X052568Y007726D01*
X052708Y007784D01*
X052810Y007784D01*
X053333Y008307D01*
X053333Y009313D01*
X053174Y009247D01*
X052992Y009247D01*
X052824Y009316D01*
X052696Y009445D01*
X052626Y009613D01*
X052626Y009795D01*
X052696Y009963D01*
X052824Y010091D01*
X052833Y010095D01*
X052833Y010313D01*
X052674Y010247D01*
X052492Y010247D01*
X052324Y010316D01*
X052196Y010445D01*
X052126Y010613D01*
X052126Y010795D01*
X052196Y010963D01*
X052324Y011091D01*
X052492Y011161D01*
X052674Y011161D01*
X052833Y011095D01*
X052833Y011200D01*
X052460Y011574D01*
X052358Y011574D01*
X052218Y011632D01*
X052111Y011739D01*
X052053Y011878D01*
X052053Y012029D01*
X052111Y012169D01*
X052218Y012276D01*
X052358Y012334D01*
X052509Y012334D01*
X052649Y012276D01*
X052755Y012169D01*
X052813Y012029D01*
X052813Y011927D01*
X053225Y011516D01*
X053295Y011445D01*
X053333Y011354D01*
X053333Y011095D01*
X053492Y011161D01*
X053674Y011161D01*
X053842Y011091D01*
X053760Y011174D01*
X053658Y011174D01*
X053518Y011232D01*
X053411Y011339D01*
X053353Y011478D01*
X053353Y011629D01*
X053411Y011769D01*
X053518Y011876D01*
X053658Y011934D01*
X053809Y011934D01*
X053949Y011876D01*
X054055Y011769D01*
X054113Y011629D01*
X054113Y011527D01*
X054483Y011157D01*
X054492Y011161D01*
X054674Y011161D01*
X054842Y011091D01*
X054971Y010963D01*
X055040Y010795D01*
X055040Y010613D01*
X054971Y010445D01*
X054842Y010316D01*
X054674Y010247D01*
X054492Y010247D01*
X054324Y010316D01*
X054196Y010445D01*
X054126Y010613D01*
X054126Y010795D01*
X054130Y010804D01*
X053971Y010963D01*
X054040Y010795D01*
X054040Y010613D01*
X053971Y010445D01*
X053842Y010316D01*
X053833Y010313D01*
X053833Y010202D01*
X053869Y010220D01*
X053953Y010247D01*
X054039Y010261D01*
X054075Y010261D01*
X054075Y009712D01*
X054092Y009712D01*
X054640Y009712D01*
X054640Y009748D01*
X054627Y009834D01*
X054600Y009918D01*
X054560Y009996D01*
X054508Y010067D01*
X054446Y010129D01*
X054375Y010180D01*
X054297Y010220D01*
X054214Y010247D01*
X054127Y010261D01*
X054092Y010261D01*
X054092Y009712D01*
X054092Y009695D01*
X054092Y009147D01*
X054127Y009147D01*
X054214Y009160D01*
X054297Y009187D01*
X054375Y009227D01*
X054446Y009279D01*
X054508Y009341D01*
X054560Y009412D01*
X054600Y009490D01*
X054627Y009573D01*
X054640Y009660D01*
X054640Y009695D01*
X054092Y009695D01*
X054075Y009695D01*
X054075Y009147D01*
X054039Y009147D01*
X053953Y009160D01*
X053869Y009187D01*
X053833Y009206D01*
X053833Y008154D01*
X053795Y008062D01*
X053725Y007992D01*
X053163Y007430D01*
X053163Y007328D01*
X053105Y007189D01*
X053071Y007154D01*
X053746Y007154D01*
X053818Y007226D01*
X053958Y007284D01*
X054109Y007284D01*
X054249Y007226D01*
X054355Y007119D01*
X054413Y006979D01*
X054413Y006828D01*
X054355Y006689D01*
X054249Y006582D01*
X054109Y006524D01*
X053958Y006524D01*
X053818Y006582D01*
X053746Y006654D01*
X052034Y006654D01*
X051942Y006692D01*
X051871Y006762D01*
X051833Y006854D01*
X051833Y007256D01*
X051805Y007189D01*
X051699Y007082D01*
X051559Y007024D01*
X051408Y007024D01*
X051298Y007069D01*
X051295Y007062D01*
X050863Y006630D01*
X050863Y006528D01*
X050805Y006389D01*
X050699Y006282D01*
X050559Y006224D01*
X050408Y006224D01*
X050268Y006282D01*
X050161Y006389D01*
X050133Y006456D01*
X050133Y006257D01*
X050457Y005934D01*
X050559Y005934D01*
X050699Y005876D01*
X050805Y005769D01*
X050863Y005629D01*
X050863Y005478D01*
X050863Y005593D02*
X061183Y005593D01*
X061183Y005751D02*
X050813Y005751D01*
X050617Y005910D02*
X061183Y005910D01*
X061183Y006068D02*
X050322Y006068D01*
X050400Y006227D02*
X050164Y006227D01*
X050164Y006385D02*
X050133Y006385D01*
X050566Y006227D02*
X061183Y006227D01*
X061048Y006385D02*
X050802Y006385D01*
X050863Y006544D02*
X053909Y006544D01*
X054157Y006544D02*
X060890Y006544D01*
X060731Y006702D02*
X054361Y006702D01*
X054413Y006861D02*
X060573Y006861D01*
X060414Y007019D02*
X054397Y007019D01*
X054297Y007178D02*
X060256Y007178D01*
X060097Y007336D02*
X053163Y007336D01*
X053228Y007495D02*
X059939Y007495D01*
X059780Y007653D02*
X053386Y007653D01*
X053545Y007812D02*
X059622Y007812D01*
X059463Y007970D02*
X053703Y007970D01*
X053823Y008129D02*
X059305Y008129D01*
X059146Y008287D02*
X053833Y008287D01*
X053833Y008446D02*
X058988Y008446D01*
X058829Y008604D02*
X053833Y008604D01*
X053833Y008763D02*
X058671Y008763D01*
X058512Y008921D02*
X053833Y008921D01*
X053833Y009080D02*
X058354Y009080D01*
X058195Y009238D02*
X054391Y009238D01*
X054549Y009397D02*
X057744Y009397D01*
X057650Y009555D02*
X054621Y009555D01*
X054640Y009714D02*
X057626Y009714D01*
X057658Y009872D02*
X054614Y009872D01*
X054534Y010031D02*
X057764Y010031D01*
X057823Y010189D02*
X054358Y010189D01*
X054293Y010348D02*
X053874Y010348D01*
X053996Y010506D02*
X054170Y010506D01*
X054126Y010665D02*
X054040Y010665D01*
X054029Y010823D02*
X054110Y010823D01*
X053793Y011140D02*
X053724Y011140D01*
X053443Y011140D02*
X053333Y011140D01*
X053333Y011299D02*
X053451Y011299D01*
X053362Y011457D02*
X053283Y011457D01*
X053353Y011616D02*
X053125Y011616D01*
X052966Y011774D02*
X053416Y011774D01*
X053655Y011933D02*
X052813Y011933D01*
X052788Y012091D02*
X057978Y012091D01*
X057845Y011933D02*
X053811Y011933D01*
X054050Y011774D02*
X057823Y011774D01*
X057823Y011616D02*
X054113Y011616D01*
X054183Y011457D02*
X057823Y011457D01*
X057823Y011299D02*
X054342Y011299D01*
X054724Y011140D02*
X057823Y011140D01*
X057823Y010982D02*
X054952Y010982D01*
X055029Y010823D02*
X057823Y010823D01*
X057823Y010665D02*
X055040Y010665D01*
X054996Y010506D02*
X057823Y010506D01*
X057823Y010348D02*
X054874Y010348D01*
X054092Y010189D02*
X054075Y010189D01*
X054075Y010031D02*
X054092Y010031D01*
X054075Y009872D02*
X054092Y009872D01*
X054075Y009714D02*
X054092Y009714D01*
X054075Y009555D02*
X054092Y009555D01*
X054075Y009397D02*
X054092Y009397D01*
X054075Y009238D02*
X054092Y009238D01*
X053333Y009238D02*
X052333Y009238D01*
X052333Y009080D02*
X053333Y009080D01*
X053333Y008921D02*
X052333Y008921D01*
X052333Y008763D02*
X053333Y008763D01*
X053333Y008604D02*
X052333Y008604D01*
X052333Y008446D02*
X053333Y008446D01*
X053313Y008287D02*
X052333Y008287D01*
X052333Y008129D02*
X053155Y008129D01*
X052996Y007970D02*
X052333Y007970D01*
X052333Y007812D02*
X052838Y007812D01*
X052495Y007653D02*
X052333Y007653D01*
X052333Y007495D02*
X052410Y007495D01*
X052403Y007336D02*
X052333Y007336D01*
X052333Y007178D02*
X052472Y007178D01*
X053095Y007178D02*
X053770Y007178D01*
X051931Y006702D02*
X050935Y006702D01*
X051094Y006861D02*
X051833Y006861D01*
X051833Y007019D02*
X051252Y007019D01*
X051795Y007178D02*
X051833Y007178D01*
X049233Y007178D02*
X048933Y007178D01*
X048933Y007336D02*
X049233Y007336D01*
X049233Y007495D02*
X048933Y007495D01*
X048933Y007504D02*
X048895Y007595D01*
X047301Y009189D01*
X047375Y009227D01*
X047446Y009279D01*
X047508Y009341D01*
X047560Y009412D01*
X047600Y009490D01*
X047627Y009573D01*
X047640Y009660D01*
X047640Y009695D01*
X047092Y009695D01*
X047092Y009712D01*
X047640Y009712D01*
X047640Y009748D01*
X047627Y009834D01*
X047600Y009918D01*
X047560Y009996D01*
X047508Y010067D01*
X047446Y010129D01*
X047375Y010180D01*
X047297Y010220D01*
X047214Y010247D01*
X047127Y010261D01*
X047092Y010261D01*
X047092Y009712D01*
X047075Y009712D01*
X047075Y010261D01*
X047039Y010261D01*
X046953Y010247D01*
X046869Y010220D01*
X046833Y010202D01*
X046833Y010313D01*
X046842Y010316D01*
X046971Y010445D01*
X047040Y010613D01*
X047040Y010795D01*
X046971Y010963D01*
X046842Y011091D01*
X046674Y011161D01*
X046492Y011161D01*
X046333Y011095D01*
X046333Y014854D01*
X046295Y014945D01*
X046225Y015016D01*
X046133Y015054D01*
X027334Y015054D01*
X027242Y015016D01*
X027171Y014945D01*
X025921Y013695D01*
X025883Y013604D01*
X025883Y012657D01*
X025283Y012057D01*
X025283Y012854D01*
X025245Y012945D01*
X025175Y013016D01*
X025083Y013054D01*
X024434Y013054D01*
X024342Y013016D01*
X024271Y012945D01*
X022171Y010845D01*
X022133Y010754D01*
X022133Y010157D01*
X021610Y009634D01*
X021508Y009634D01*
X021368Y009576D01*
X021261Y009469D01*
X021235Y009406D01*
X020037Y010604D01*
X020040Y010613D01*
X020040Y010795D01*
X019971Y010963D01*
X019842Y011091D01*
X019674Y011161D01*
X019492Y011161D01*
X019325Y011091D01*
X019807Y011574D01*
X019909Y011574D01*
X020049Y011632D01*
X020155Y011739D01*
X020213Y011878D01*
X020213Y012029D01*
X020155Y012169D01*
X020049Y012276D01*
X020030Y012284D01*
X020266Y012284D01*
X020604Y012424D01*
X020863Y012683D01*
X021003Y013021D01*
X021003Y013387D01*
X020863Y013725D01*
X020604Y013984D01*
X020266Y014124D01*
X020057Y014124D01*
X020357Y014424D01*
X020459Y014424D01*
X020599Y014482D01*
X020705Y014589D01*
X020763Y014728D01*
X020763Y014879D01*
X020705Y015019D01*
X020599Y015126D01*
X020483Y015174D01*
X063243Y015174D01*
X063059Y014990D01*
X062891Y014698D01*
X062803Y014372D01*
X062803Y014035D01*
X062891Y013710D01*
X063059Y013418D01*
X063297Y013180D01*
X063589Y013011D01*
X063915Y012924D01*
X064252Y012924D01*
X064577Y013011D01*
X064869Y013180D01*
X065108Y013418D01*
X065114Y013430D01*
X065114Y002228D01*
X065108Y002240D01*
X064869Y002478D01*
X064577Y002647D01*
X064252Y002734D01*
X063915Y002734D01*
X063589Y002647D01*
X063297Y002478D01*
X063059Y002240D01*
X063033Y002195D01*
X063033Y002450D01*
X064475Y003892D01*
X064545Y003962D01*
X064583Y004054D01*
X064583Y008004D01*
X064545Y008095D01*
X062037Y010604D01*
X062040Y010613D01*
X062040Y010795D01*
X061971Y010963D01*
X061842Y011091D01*
X061674Y011161D01*
X061492Y011161D01*
X061324Y011091D01*
X061196Y010963D01*
X061126Y010795D01*
X061126Y010613D01*
X061196Y010445D01*
X061324Y010316D01*
X061492Y010247D01*
X061674Y010247D01*
X061683Y010250D01*
X064083Y007850D01*
X064083Y005617D01*
X064044Y005638D01*
X063949Y005668D01*
X063851Y005684D01*
X063802Y005684D01*
X063802Y004704D01*
X063802Y004704D01*
X063802Y005684D01*
X063752Y005684D01*
X063654Y005668D01*
X063560Y005638D01*
X063472Y005593D01*
X062283Y005593D01*
X062283Y005751D02*
X064083Y005751D01*
X064083Y005910D02*
X062283Y005910D01*
X062283Y006003D02*
X062601Y006003D01*
X062601Y006633D01*
X062601Y007263D01*
X062201Y007263D01*
X062104Y007247D01*
X062009Y007217D01*
X061921Y007172D01*
X061883Y007144D01*
X061883Y008554D01*
X061845Y008645D01*
X061301Y009189D01*
X061375Y009227D01*
X061446Y009279D01*
X061508Y009341D01*
X061560Y009412D01*
X061600Y009490D01*
X061627Y009573D01*
X061640Y009660D01*
X061640Y009695D01*
X061092Y009695D01*
X061092Y009712D01*
X061640Y009712D01*
X061640Y009748D01*
X061627Y009834D01*
X061600Y009918D01*
X061560Y009996D01*
X061508Y010067D01*
X061446Y010129D01*
X061375Y010180D01*
X061297Y010220D01*
X061214Y010247D01*
X061127Y010261D01*
X061092Y010261D01*
X061092Y009712D01*
X061075Y009712D01*
X061075Y010261D01*
X061039Y010261D01*
X060953Y010247D01*
X060869Y010220D01*
X060833Y010202D01*
X060833Y010313D01*
X060842Y010316D01*
X060971Y010445D01*
X061040Y010613D01*
X061040Y010795D01*
X060971Y010963D01*
X060842Y011091D01*
X060674Y011161D01*
X060492Y011161D01*
X060324Y011091D01*
X060196Y010963D01*
X060126Y010795D01*
X060126Y010613D01*
X060196Y010445D01*
X060324Y010316D01*
X060333Y010313D01*
X060333Y010095D01*
X060174Y010161D01*
X059992Y010161D01*
X059824Y010091D01*
X059696Y009963D01*
X059626Y009795D01*
X059626Y009613D01*
X059696Y009445D01*
X059824Y009316D01*
X059992Y009247D01*
X060174Y009247D01*
X060342Y009316D01*
X060405Y009379D01*
X060442Y009342D01*
X061383Y008400D01*
X061383Y006757D01*
X058825Y009316D01*
X058992Y009247D01*
X059174Y009247D01*
X059342Y009316D01*
X059471Y009445D01*
X059540Y009613D01*
X059540Y009795D01*
X059471Y009963D01*
X059342Y010091D01*
X059174Y010161D01*
X058992Y010161D01*
X058824Y010091D01*
X058696Y009963D01*
X058626Y009795D01*
X058626Y009613D01*
X058696Y009445D01*
X058537Y009604D01*
X058540Y009613D01*
X058540Y009795D01*
X058471Y009963D01*
X058343Y010090D01*
X058343Y010308D01*
X058492Y010247D01*
X058674Y010247D01*
X058842Y010316D01*
X058971Y010445D01*
X059040Y010613D01*
X059040Y010795D01*
X058971Y010963D01*
X058842Y011091D01*
X058674Y011161D01*
X058492Y011161D01*
X058343Y011099D01*
X058343Y011721D01*
X059391Y012769D01*
X059427Y012804D01*
X059427Y012805D01*
X059429Y012807D01*
X059448Y012853D01*
X059468Y012899D01*
X059468Y012900D01*
X059468Y012902D01*
X059468Y012952D01*
X059494Y014902D01*
X059456Y014998D01*
X059383Y015072D01*
X059288Y015113D01*
X059185Y015114D01*
X059158Y015104D01*
X053065Y015104D01*
X053048Y015108D01*
X053016Y015104D01*
X052984Y015104D01*
X052967Y015097D01*
X052949Y015094D01*
X052921Y015078D01*
X052892Y015066D01*
X052879Y015053D01*
X052863Y015044D01*
X052844Y015018D01*
X052821Y014995D01*
X052815Y014979D01*
X051503Y013236D01*
X051503Y013387D01*
X051363Y013725D01*
X051104Y013984D01*
X050766Y014124D01*
X050400Y014124D01*
X050062Y013984D01*
X049803Y013725D01*
X049663Y013387D01*
X049663Y013021D01*
X049803Y012683D01*
X050062Y012424D01*
X050400Y012284D01*
X050766Y012284D01*
X050881Y012331D01*
X050883Y012311D01*
X050883Y010116D01*
X050824Y010091D01*
X050696Y009963D01*
X050626Y009795D01*
X050626Y009613D01*
X050696Y009445D01*
X050824Y009316D01*
X050833Y009313D01*
X050833Y009104D01*
X050571Y009104D01*
X050499Y009176D01*
X050359Y009234D01*
X050208Y009234D01*
X050133Y009203D01*
X050133Y011116D01*
X050205Y011189D01*
X050263Y011328D01*
X050263Y011479D01*
X050205Y011619D01*
X050099Y011726D01*
X049959Y011784D01*
X049863Y011784D01*
X049863Y011879D01*
X049805Y012019D01*
X049699Y012126D01*
X049559Y012184D01*
X049408Y012184D01*
X049268Y012126D01*
X049161Y012019D01*
X049103Y011879D01*
X049103Y011728D01*
X049161Y011589D01*
X049233Y011516D01*
X049233Y005804D01*
X049271Y005712D01*
X049342Y005642D01*
X049903Y005080D01*
X049903Y004978D01*
X049961Y004839D01*
X050046Y004754D01*
X049996Y004704D01*
X048933Y004704D01*
X048933Y007504D01*
X048837Y007653D02*
X049233Y007653D01*
X049233Y007812D02*
X048679Y007812D01*
X048520Y007970D02*
X049233Y007970D01*
X049233Y008129D02*
X048362Y008129D01*
X048203Y008287D02*
X049233Y008287D01*
X049233Y008446D02*
X048045Y008446D01*
X047886Y008604D02*
X049233Y008604D01*
X049233Y008763D02*
X047728Y008763D01*
X047569Y008921D02*
X049233Y008921D01*
X049233Y009080D02*
X047411Y009080D01*
X047391Y009238D02*
X049233Y009238D01*
X049233Y009397D02*
X047549Y009397D01*
X047621Y009555D02*
X049233Y009555D01*
X049233Y009714D02*
X047640Y009714D01*
X047614Y009872D02*
X049233Y009872D01*
X049233Y010031D02*
X047534Y010031D01*
X047492Y010247D02*
X047674Y010247D01*
X047842Y010316D01*
X047971Y010445D01*
X048040Y010613D01*
X048040Y010795D01*
X047971Y010963D01*
X047842Y011091D01*
X047674Y011161D01*
X047492Y011161D01*
X047324Y011091D01*
X047196Y010963D01*
X047126Y010795D01*
X047126Y010613D01*
X047196Y010445D01*
X047324Y010316D01*
X047492Y010247D01*
X047358Y010189D02*
X049233Y010189D01*
X049233Y010348D02*
X047874Y010348D01*
X047996Y010506D02*
X049233Y010506D01*
X049233Y010665D02*
X048040Y010665D01*
X048029Y010823D02*
X049233Y010823D01*
X049233Y010982D02*
X047952Y010982D01*
X047724Y011140D02*
X049233Y011140D01*
X049233Y011299D02*
X046333Y011299D01*
X046333Y011457D02*
X049233Y011457D01*
X049150Y011616D02*
X046333Y011616D01*
X046333Y011774D02*
X049103Y011774D01*
X049125Y011933D02*
X046333Y011933D01*
X046333Y012091D02*
X049233Y012091D01*
X049733Y012091D02*
X050883Y012091D01*
X050883Y011933D02*
X049841Y011933D01*
X049982Y011774D02*
X050883Y011774D01*
X050883Y011616D02*
X050207Y011616D01*
X050263Y011457D02*
X050883Y011457D01*
X050883Y011299D02*
X050251Y011299D01*
X050157Y011140D02*
X050883Y011140D01*
X050883Y010982D02*
X050133Y010982D01*
X050133Y010823D02*
X050883Y010823D01*
X050883Y010665D02*
X050133Y010665D01*
X050133Y010506D02*
X050883Y010506D01*
X050883Y010348D02*
X050133Y010348D01*
X050133Y010189D02*
X050883Y010189D01*
X050764Y010031D02*
X050133Y010031D01*
X050133Y009872D02*
X050658Y009872D01*
X050626Y009714D02*
X050133Y009714D01*
X050133Y009555D02*
X050650Y009555D01*
X050744Y009397D02*
X050133Y009397D01*
X050133Y009238D02*
X050833Y009238D01*
X052423Y009397D02*
X052744Y009397D01*
X052650Y009555D02*
X052517Y009555D01*
X052540Y009714D02*
X052626Y009714D01*
X052658Y009872D02*
X052508Y009872D01*
X052403Y010031D02*
X052764Y010031D01*
X052833Y010189D02*
X051833Y010189D01*
X051874Y010348D02*
X052293Y010348D01*
X052170Y010506D02*
X051996Y010506D01*
X052040Y010665D02*
X052126Y010665D01*
X052138Y010823D02*
X052029Y010823D01*
X051952Y010982D02*
X052215Y010982D01*
X052443Y011140D02*
X051724Y011140D01*
X051443Y011140D02*
X051383Y011140D01*
X051383Y011299D02*
X052735Y011299D01*
X052724Y011140D02*
X052833Y011140D01*
X052576Y011457D02*
X051383Y011457D01*
X051383Y011616D02*
X052256Y011616D01*
X052096Y011774D02*
X051383Y011774D01*
X051383Y011933D02*
X052053Y011933D01*
X052079Y012091D02*
X051383Y012091D01*
X051387Y012250D02*
X052192Y012250D01*
X052675Y012250D02*
X058137Y012250D01*
X058067Y012408D02*
X058295Y012408D01*
X058247Y012567D02*
X058454Y012567D01*
X058363Y012683D02*
X058503Y013021D01*
X058503Y013387D01*
X058363Y013725D01*
X058104Y013984D01*
X057766Y014124D01*
X057400Y014124D01*
X057062Y013984D01*
X056803Y013725D01*
X056663Y013387D01*
X056663Y013021D01*
X056803Y012683D01*
X057062Y012424D01*
X057400Y012284D01*
X057766Y012284D01*
X058104Y012424D01*
X058363Y012683D01*
X058381Y012725D02*
X058612Y012725D01*
X058771Y012884D02*
X058447Y012884D01*
X058503Y013042D02*
X058929Y013042D01*
X058952Y013201D02*
X058503Y013201D01*
X058503Y013359D02*
X058954Y013359D01*
X058956Y013518D02*
X058449Y013518D01*
X058383Y013676D02*
X058958Y013676D01*
X058960Y013835D02*
X058253Y013835D01*
X058081Y013993D02*
X058962Y013993D01*
X058964Y014152D02*
X052818Y014152D01*
X052937Y014310D02*
X058966Y014310D01*
X058968Y014469D02*
X053057Y014469D01*
X052669Y014786D02*
X046333Y014786D01*
X046333Y014627D02*
X052550Y014627D01*
X052431Y014469D02*
X046333Y014469D01*
X046333Y014310D02*
X052312Y014310D01*
X052192Y014152D02*
X046333Y014152D01*
X046333Y013993D02*
X047585Y013993D01*
X047562Y013984D02*
X047303Y013725D01*
X047163Y013387D01*
X047163Y013021D01*
X047303Y012683D01*
X047562Y012424D01*
X047900Y012284D01*
X048266Y012284D01*
X048604Y012424D01*
X048863Y012683D01*
X049003Y013021D01*
X049003Y013387D01*
X048863Y013725D01*
X048604Y013984D01*
X048266Y014124D01*
X047900Y014124D01*
X047562Y013984D01*
X047413Y013835D02*
X046333Y013835D01*
X046333Y013676D02*
X047283Y013676D01*
X047218Y013518D02*
X046333Y013518D01*
X046333Y013359D02*
X047163Y013359D01*
X047163Y013201D02*
X046333Y013201D01*
X046333Y013042D02*
X047163Y013042D01*
X047220Y012884D02*
X046333Y012884D01*
X046333Y012725D02*
X047286Y012725D01*
X047419Y012567D02*
X046333Y012567D01*
X046333Y012408D02*
X047600Y012408D01*
X048567Y012408D02*
X050100Y012408D01*
X049919Y012567D02*
X048747Y012567D01*
X048881Y012725D02*
X049786Y012725D01*
X049720Y012884D02*
X048947Y012884D01*
X049003Y013042D02*
X049663Y013042D01*
X049663Y013201D02*
X049003Y013201D01*
X049003Y013359D02*
X049663Y013359D01*
X049718Y013518D02*
X048949Y013518D01*
X048883Y013676D02*
X049783Y013676D01*
X049913Y013835D02*
X048753Y013835D01*
X048581Y013993D02*
X050085Y013993D01*
X051081Y013993D02*
X052073Y013993D01*
X051954Y013835D02*
X051253Y013835D01*
X051383Y013676D02*
X051834Y013676D01*
X051715Y013518D02*
X051449Y013518D01*
X051503Y013359D02*
X051596Y013359D01*
X051983Y013042D02*
X054163Y013042D01*
X054163Y013021D02*
X054303Y012683D01*
X054562Y012424D01*
X054900Y012284D01*
X055266Y012284D01*
X055604Y012424D01*
X055863Y012683D01*
X056003Y013021D01*
X056003Y013387D01*
X055863Y013725D01*
X055604Y013984D01*
X055266Y014124D01*
X054900Y014124D01*
X054562Y013984D01*
X054303Y013725D01*
X054163Y013387D01*
X054163Y013021D01*
X054220Y012884D02*
X051864Y012884D01*
X051745Y012725D02*
X054286Y012725D01*
X054419Y012567D02*
X051625Y012567D01*
X051506Y012408D02*
X054600Y012408D01*
X055567Y012408D02*
X057100Y012408D01*
X056919Y012567D02*
X055747Y012567D01*
X055881Y012725D02*
X056786Y012725D01*
X056720Y012884D02*
X055947Y012884D01*
X056003Y013042D02*
X056663Y013042D01*
X056663Y013201D02*
X056003Y013201D01*
X056003Y013359D02*
X056663Y013359D01*
X056718Y013518D02*
X055949Y013518D01*
X055883Y013676D02*
X056783Y013676D01*
X056913Y013835D02*
X055753Y013835D01*
X055581Y013993D02*
X057085Y013993D01*
X059482Y013993D02*
X061585Y013993D01*
X061562Y013984D02*
X061303Y013725D01*
X061163Y013387D01*
X061163Y013021D01*
X061303Y012683D01*
X061562Y012424D01*
X061900Y012284D01*
X062266Y012284D01*
X062604Y012424D01*
X062863Y012683D01*
X063003Y013021D01*
X063003Y013387D01*
X062863Y013725D01*
X062604Y013984D01*
X062266Y014124D01*
X061900Y014124D01*
X061562Y013984D01*
X061413Y013835D02*
X059480Y013835D01*
X059478Y013676D02*
X061283Y013676D01*
X061218Y013518D02*
X059476Y013518D01*
X059474Y013359D02*
X061163Y013359D01*
X061163Y013201D02*
X059472Y013201D01*
X059470Y013042D02*
X061163Y013042D01*
X061220Y012884D02*
X059461Y012884D01*
X059348Y012725D02*
X061286Y012725D01*
X061419Y012567D02*
X059189Y012567D01*
X059031Y012408D02*
X061600Y012408D01*
X062567Y012408D02*
X065114Y012408D01*
X065114Y012250D02*
X058872Y012250D01*
X058714Y012091D02*
X065114Y012091D01*
X065114Y011933D02*
X058555Y011933D01*
X058397Y011774D02*
X065114Y011774D01*
X065114Y011616D02*
X058343Y011616D01*
X058343Y011457D02*
X065114Y011457D01*
X065114Y011299D02*
X058343Y011299D01*
X058343Y011140D02*
X058443Y011140D01*
X058724Y011140D02*
X059443Y011140D01*
X059492Y011161D02*
X059324Y011091D01*
X059196Y010963D01*
X059126Y010795D01*
X059126Y010613D01*
X059196Y010445D01*
X059324Y010316D01*
X059492Y010247D01*
X059674Y010247D01*
X059842Y010316D01*
X059971Y010445D01*
X060040Y010613D01*
X060040Y010795D01*
X059971Y010963D01*
X059842Y011091D01*
X059674Y011161D01*
X059492Y011161D01*
X059724Y011140D02*
X060443Y011140D01*
X060215Y010982D02*
X059952Y010982D01*
X060029Y010823D02*
X060138Y010823D01*
X060126Y010665D02*
X060040Y010665D01*
X059996Y010506D02*
X060170Y010506D01*
X060293Y010348D02*
X059874Y010348D01*
X060333Y010189D02*
X058343Y010189D01*
X058403Y010031D02*
X058764Y010031D01*
X058658Y009872D02*
X058508Y009872D01*
X058540Y009714D02*
X058626Y009714D01*
X058650Y009555D02*
X058585Y009555D01*
X058902Y009238D02*
X060545Y009238D01*
X060704Y009080D02*
X059061Y009080D01*
X059219Y008921D02*
X060862Y008921D01*
X061021Y008763D02*
X059378Y008763D01*
X059536Y008604D02*
X061179Y008604D01*
X061338Y008446D02*
X059695Y008446D01*
X059853Y008287D02*
X061383Y008287D01*
X061383Y008129D02*
X060012Y008129D01*
X060170Y007970D02*
X061383Y007970D01*
X061383Y007812D02*
X060329Y007812D01*
X060487Y007653D02*
X061383Y007653D01*
X061383Y007495D02*
X060646Y007495D01*
X060804Y007336D02*
X061383Y007336D01*
X061383Y007178D02*
X060963Y007178D01*
X061121Y007019D02*
X061383Y007019D01*
X061383Y006861D02*
X061280Y006861D01*
X061883Y007178D02*
X061933Y007178D01*
X061883Y007336D02*
X064083Y007336D01*
X064083Y007178D02*
X063269Y007178D01*
X063281Y007172D02*
X063193Y007217D01*
X063099Y007247D01*
X063001Y007263D01*
X062601Y007263D01*
X062601Y006633D01*
X062601Y006633D01*
X063581Y006633D01*
X063581Y006682D01*
X063566Y006780D01*
X063535Y006875D01*
X063490Y006963D01*
X063432Y007043D01*
X063361Y007113D01*
X063281Y007172D01*
X063449Y007019D02*
X064083Y007019D01*
X064083Y006861D02*
X063539Y006861D01*
X063578Y006702D02*
X064083Y006702D01*
X064083Y006544D02*
X063575Y006544D01*
X063581Y006583D02*
X063581Y006633D01*
X062601Y006633D01*
X062601Y006633D01*
X062601Y006633D01*
X062601Y006003D01*
X063001Y006003D01*
X063099Y006018D01*
X063193Y006049D01*
X063281Y006094D01*
X063361Y006152D01*
X063432Y006222D01*
X063490Y006303D01*
X063535Y006391D01*
X063566Y006485D01*
X063581Y006583D01*
X063532Y006385D02*
X064083Y006385D01*
X064083Y006227D02*
X063435Y006227D01*
X063231Y006068D02*
X064083Y006068D01*
X064583Y006068D02*
X065114Y006068D01*
X065114Y005910D02*
X064583Y005910D01*
X064583Y005751D02*
X065114Y005751D01*
X065114Y005593D02*
X064583Y005593D01*
X064583Y005434D02*
X065114Y005434D01*
X065114Y005276D02*
X064583Y005276D01*
X064583Y005117D02*
X065114Y005117D01*
X065114Y004959D02*
X064583Y004959D01*
X064583Y004800D02*
X065114Y004800D01*
X065114Y004642D02*
X064583Y004642D01*
X064583Y004483D02*
X065114Y004483D01*
X065114Y004325D02*
X064583Y004325D01*
X064583Y004166D02*
X065114Y004166D01*
X065114Y004008D02*
X064564Y004008D01*
X064432Y003849D02*
X065114Y003849D01*
X065114Y003691D02*
X064274Y003691D01*
X064115Y003532D02*
X065114Y003532D01*
X065114Y003374D02*
X063957Y003374D01*
X063798Y003215D02*
X065114Y003215D01*
X065114Y003057D02*
X063640Y003057D01*
X063481Y002898D02*
X065114Y002898D01*
X065114Y002740D02*
X063323Y002740D01*
X063476Y002581D02*
X063164Y002581D01*
X063242Y002423D02*
X063033Y002423D01*
X063033Y002264D02*
X063084Y002264D01*
X062533Y002264D02*
X062283Y002264D01*
X062283Y002106D02*
X062533Y002106D01*
X062533Y001947D02*
X062283Y001947D01*
X062283Y001789D02*
X062533Y001789D01*
X062533Y001630D02*
X062283Y001630D01*
X062283Y001472D02*
X062533Y001472D01*
X062533Y001313D02*
X062283Y001313D01*
X062283Y001155D02*
X062533Y001155D01*
X062533Y000996D02*
X062283Y000996D01*
X062283Y000879D02*
X062283Y006003D01*
X062601Y006068D02*
X062601Y006068D01*
X062601Y006227D02*
X062601Y006227D01*
X062601Y006385D02*
X062601Y006385D01*
X062601Y006544D02*
X062601Y006544D01*
X062601Y006702D02*
X062601Y006702D01*
X062601Y006861D02*
X062601Y006861D01*
X062601Y007019D02*
X062601Y007019D01*
X062601Y007178D02*
X062601Y007178D01*
X061883Y007495D02*
X064083Y007495D01*
X064083Y007653D02*
X061883Y007653D01*
X061883Y007812D02*
X064083Y007812D01*
X063963Y007970D02*
X061883Y007970D01*
X061883Y008129D02*
X063805Y008129D01*
X063646Y008287D02*
X061883Y008287D01*
X061883Y008446D02*
X063488Y008446D01*
X063329Y008604D02*
X061862Y008604D01*
X061728Y008763D02*
X063171Y008763D01*
X063012Y008921D02*
X061569Y008921D01*
X061411Y009080D02*
X062854Y009080D01*
X062695Y009238D02*
X061391Y009238D01*
X061549Y009397D02*
X062537Y009397D01*
X062378Y009555D02*
X061621Y009555D01*
X061640Y009714D02*
X062220Y009714D01*
X062061Y009872D02*
X061614Y009872D01*
X061534Y010031D02*
X061903Y010031D01*
X061744Y010189D02*
X061358Y010189D01*
X061293Y010348D02*
X060874Y010348D01*
X060996Y010506D02*
X061170Y010506D01*
X061126Y010665D02*
X061040Y010665D01*
X061029Y010823D02*
X061138Y010823D01*
X061215Y010982D02*
X060952Y010982D01*
X060724Y011140D02*
X061443Y011140D01*
X061724Y011140D02*
X065114Y011140D01*
X065114Y010982D02*
X061952Y010982D01*
X062029Y010823D02*
X065114Y010823D01*
X065114Y010665D02*
X062040Y010665D01*
X062134Y010506D02*
X065114Y010506D01*
X065114Y010348D02*
X062293Y010348D01*
X062451Y010189D02*
X065114Y010189D01*
X065114Y010031D02*
X062610Y010031D01*
X062768Y009872D02*
X065114Y009872D01*
X065114Y009714D02*
X062927Y009714D01*
X063085Y009555D02*
X065114Y009555D01*
X065114Y009397D02*
X063244Y009397D01*
X063402Y009238D02*
X065114Y009238D01*
X065114Y009080D02*
X063561Y009080D01*
X063719Y008921D02*
X065114Y008921D01*
X065114Y008763D02*
X063878Y008763D01*
X064036Y008604D02*
X065114Y008604D01*
X065114Y008446D02*
X064195Y008446D01*
X064353Y008287D02*
X065114Y008287D01*
X065114Y008129D02*
X064512Y008129D01*
X064583Y007970D02*
X065114Y007970D01*
X065114Y007812D02*
X064583Y007812D01*
X064583Y007653D02*
X065114Y007653D01*
X065114Y007495D02*
X064583Y007495D01*
X064583Y007336D02*
X065114Y007336D01*
X065114Y007178D02*
X064583Y007178D01*
X064583Y007019D02*
X065114Y007019D01*
X065114Y006861D02*
X064583Y006861D01*
X064583Y006702D02*
X065114Y006702D01*
X065114Y006544D02*
X064583Y006544D01*
X064583Y006385D02*
X065114Y006385D01*
X065114Y006227D02*
X064583Y006227D01*
X063802Y005593D02*
X063802Y005593D01*
X063802Y005434D02*
X063802Y005434D01*
X063802Y005276D02*
X063802Y005276D01*
X063802Y005117D02*
X063802Y005117D01*
X063802Y004959D02*
X063802Y004959D01*
X063802Y004800D02*
X063802Y004800D01*
X063802Y004704D02*
X063802Y004704D01*
X063172Y004704D01*
X063172Y005103D01*
X063187Y005201D01*
X063218Y005296D01*
X063263Y005384D01*
X063321Y005464D01*
X063391Y005534D01*
X063472Y005593D01*
X063300Y005434D02*
X062283Y005434D01*
X062283Y005276D02*
X063212Y005276D01*
X063174Y005117D02*
X062283Y005117D01*
X062283Y004959D02*
X063172Y004959D01*
X063172Y004800D02*
X062283Y004800D01*
X062283Y004642D02*
X063172Y004642D01*
X063172Y004704D02*
X063172Y004304D01*
X063187Y004206D01*
X063218Y004112D01*
X063263Y004024D01*
X063321Y003943D01*
X063391Y003873D01*
X063472Y003815D01*
X063560Y003770D01*
X063625Y003749D01*
X062571Y002695D01*
X062533Y002604D01*
X062533Y000804D01*
X062252Y000804D01*
X062283Y000879D01*
X062266Y000838D02*
X062533Y000838D01*
X061783Y001313D02*
X051827Y001313D01*
X051669Y001472D02*
X061783Y001472D01*
X061783Y001630D02*
X051510Y001630D01*
X051352Y001789D02*
X061783Y001789D01*
X061783Y001947D02*
X051193Y001947D01*
X051035Y002106D02*
X061783Y002106D01*
X061783Y002264D02*
X050876Y002264D01*
X050718Y002423D02*
X061783Y002423D01*
X061783Y002581D02*
X050559Y002581D01*
X050401Y002740D02*
X061783Y002740D01*
X061783Y002898D02*
X050242Y002898D01*
X050084Y003057D02*
X061783Y003057D01*
X061783Y003215D02*
X049925Y003215D01*
X049767Y003374D02*
X061783Y003374D01*
X061783Y003532D02*
X049608Y003532D01*
X049450Y003691D02*
X061783Y003691D01*
X061783Y003849D02*
X061607Y003849D01*
X061273Y003849D02*
X049291Y003849D01*
X049133Y004008D02*
X061036Y004008D01*
X060944Y004166D02*
X050533Y004166D01*
X050641Y004325D02*
X060910Y004325D01*
X060910Y004483D02*
X050663Y004483D01*
X050617Y004642D02*
X060910Y004642D01*
X060910Y004800D02*
X050567Y004800D01*
X050655Y004959D02*
X060910Y004959D01*
X060910Y005117D02*
X050663Y005117D01*
X050743Y005276D02*
X060958Y005276D01*
X063172Y004704D02*
X063802Y004704D01*
X063172Y004483D02*
X062283Y004483D01*
X062283Y004325D02*
X063172Y004325D01*
X063200Y004166D02*
X062283Y004166D01*
X062283Y004008D02*
X063274Y004008D01*
X063424Y003849D02*
X062283Y003849D01*
X062283Y003691D02*
X063567Y003691D01*
X063408Y003532D02*
X062283Y003532D01*
X062283Y003374D02*
X063250Y003374D01*
X063091Y003215D02*
X062283Y003215D01*
X062283Y003057D02*
X062933Y003057D01*
X062774Y002898D02*
X062283Y002898D01*
X062283Y002740D02*
X062616Y002740D01*
X062533Y002581D02*
X062283Y002581D01*
X062283Y002423D02*
X062533Y002423D01*
X064690Y002581D02*
X065114Y002581D01*
X065114Y002423D02*
X064925Y002423D01*
X065083Y002264D02*
X065114Y002264D01*
X050033Y004166D02*
X048974Y004166D01*
X048933Y004800D02*
X049999Y004800D01*
X049911Y004959D02*
X048933Y004959D01*
X048933Y005117D02*
X049866Y005117D01*
X049708Y005276D02*
X048933Y005276D01*
X048933Y005434D02*
X049549Y005434D01*
X049391Y005593D02*
X048933Y005593D01*
X048933Y005751D02*
X049255Y005751D01*
X049233Y005910D02*
X048933Y005910D01*
X048933Y006068D02*
X049233Y006068D01*
X049233Y006227D02*
X048933Y006227D01*
X048933Y006385D02*
X049233Y006385D01*
X049233Y006544D02*
X048933Y006544D01*
X048933Y006702D02*
X049233Y006702D01*
X049233Y006861D02*
X048933Y006861D01*
X048933Y007019D02*
X049233Y007019D01*
X041583Y007019D02*
X038802Y007019D01*
X038644Y006861D02*
X041583Y006861D01*
X041583Y006702D02*
X038485Y006702D01*
X038327Y006544D02*
X041583Y006544D01*
X041583Y006385D02*
X038168Y006385D01*
X038010Y006227D02*
X041583Y006227D01*
X041583Y006068D02*
X037851Y006068D01*
X037693Y005910D02*
X041583Y005910D01*
X041583Y005751D02*
X037534Y005751D01*
X037376Y005593D02*
X041583Y005593D01*
X041583Y005434D02*
X037217Y005434D01*
X037059Y005276D02*
X041583Y005276D01*
X041583Y005117D02*
X036900Y005117D01*
X036742Y004959D02*
X041583Y004959D01*
X041583Y004800D02*
X036583Y004800D01*
X036425Y004642D02*
X041583Y004642D01*
X041583Y004483D02*
X036266Y004483D01*
X036108Y004325D02*
X041583Y004325D01*
X041583Y004166D02*
X035949Y004166D01*
X035939Y004156D02*
X039107Y007324D01*
X039209Y007324D01*
X039349Y007382D01*
X039455Y007489D01*
X039513Y007628D01*
X039513Y007779D01*
X039455Y007919D01*
X039349Y008026D01*
X039285Y008052D01*
X039295Y008062D01*
X039333Y008154D01*
X039333Y009313D01*
X039342Y009316D01*
X039471Y009445D01*
X039536Y009601D01*
X039540Y009573D01*
X039567Y009490D01*
X039607Y009412D01*
X039658Y009341D01*
X039720Y009279D01*
X039791Y009227D01*
X039869Y009187D01*
X039953Y009160D01*
X040039Y009147D01*
X040075Y009147D01*
X040075Y009695D01*
X040092Y009695D01*
X040092Y009147D01*
X040127Y009147D01*
X040214Y009160D01*
X040297Y009187D01*
X040375Y009227D01*
X040446Y009279D01*
X040508Y009341D01*
X040560Y009412D01*
X040600Y009490D01*
X040627Y009573D01*
X040640Y009660D01*
X040640Y009695D01*
X040092Y009695D01*
X040092Y009712D01*
X040640Y009712D01*
X040640Y009748D01*
X040627Y009834D01*
X040600Y009918D01*
X040560Y009996D01*
X040508Y010067D01*
X040446Y010129D01*
X040375Y010180D01*
X040297Y010220D01*
X040214Y010247D01*
X040127Y010261D01*
X040092Y010261D01*
X040092Y009712D01*
X040075Y009712D01*
X040075Y010261D01*
X040039Y010261D01*
X039953Y010247D01*
X039869Y010220D01*
X039791Y010180D01*
X039720Y010129D01*
X039658Y010067D01*
X039607Y009996D01*
X039567Y009918D01*
X039540Y009834D01*
X039536Y009807D01*
X039471Y009963D01*
X039342Y010091D01*
X039224Y010141D01*
X039245Y010162D01*
X039283Y010254D01*
X039283Y010357D01*
X039324Y010316D01*
X039492Y010247D01*
X039674Y010247D01*
X039842Y010316D01*
X039971Y010445D01*
X040040Y010613D01*
X040040Y010795D01*
X039971Y010963D01*
X039842Y011091D01*
X039833Y011095D01*
X039833Y011266D01*
X039905Y011339D01*
X039963Y011478D01*
X039963Y011629D01*
X039905Y011769D01*
X039799Y011876D01*
X039659Y011934D01*
X039508Y011934D01*
X039368Y011876D01*
X039283Y011791D01*
X039283Y013904D01*
X040482Y013904D01*
X040303Y013725D01*
X040163Y013387D01*
X040163Y013021D01*
X040303Y012683D01*
X040562Y012424D01*
X040900Y012284D01*
X041266Y012284D01*
X041453Y012361D01*
X041453Y012228D01*
X041511Y012089D01*
X041583Y012016D01*
X041583Y002404D01*
X036033Y002404D01*
X036063Y002478D01*
X036063Y002629D01*
X036005Y002769D01*
X035933Y002841D01*
X035933Y004146D01*
X035935Y004147D01*
X035939Y004156D01*
X035933Y004008D02*
X041583Y004008D01*
X041583Y003849D02*
X035933Y003849D01*
X035933Y003691D02*
X041583Y003691D01*
X041583Y003532D02*
X035933Y003532D01*
X035933Y003374D02*
X041583Y003374D01*
X041583Y003215D02*
X035933Y003215D01*
X035933Y003057D02*
X041583Y003057D01*
X041583Y002898D02*
X035933Y002898D01*
X036018Y002740D02*
X041583Y002740D01*
X041583Y002581D02*
X036063Y002581D01*
X036040Y002423D02*
X041583Y002423D01*
X034133Y002757D02*
X034030Y002654D01*
X028921Y002654D01*
X028849Y002726D01*
X028709Y002784D01*
X028558Y002784D01*
X028418Y002726D01*
X028336Y002644D01*
X028305Y002719D01*
X028233Y002791D01*
X028233Y004300D01*
X028757Y004824D01*
X028859Y004824D01*
X028999Y004882D01*
X029105Y004989D01*
X029163Y005128D01*
X029163Y005279D01*
X029105Y005419D01*
X028999Y005526D01*
X028924Y005557D01*
X028955Y005589D01*
X029013Y005728D01*
X029013Y005879D01*
X028955Y006019D01*
X028946Y006029D01*
X029005Y006089D01*
X029063Y006228D01*
X029063Y006379D01*
X029053Y006404D01*
X032333Y006404D01*
X032425Y006442D01*
X032495Y006512D01*
X032751Y006768D01*
X032858Y006724D01*
X033009Y006724D01*
X033149Y006782D01*
X033255Y006889D01*
X033313Y007028D01*
X033313Y007179D01*
X033255Y007319D01*
X033149Y007426D01*
X033009Y007484D01*
X032858Y007484D01*
X032833Y007474D01*
X032833Y009206D01*
X032869Y009187D01*
X032953Y009160D01*
X033039Y009147D01*
X033075Y009147D01*
X033075Y009695D01*
X033092Y009695D01*
X033092Y009147D01*
X033127Y009147D01*
X033214Y009160D01*
X033297Y009187D01*
X033375Y009227D01*
X033446Y009279D01*
X033508Y009341D01*
X033560Y009412D01*
X033600Y009490D01*
X033627Y009573D01*
X033640Y009660D01*
X033640Y009695D01*
X033092Y009695D01*
X033092Y009712D01*
X033640Y009712D01*
X033640Y009748D01*
X033627Y009834D01*
X033600Y009918D01*
X033560Y009996D01*
X033508Y010067D01*
X033446Y010129D01*
X033375Y010180D01*
X033297Y010220D01*
X033214Y010247D01*
X033127Y010261D01*
X033092Y010261D01*
X033092Y009712D01*
X033075Y009712D01*
X033075Y010261D01*
X033039Y010261D01*
X032953Y010247D01*
X032869Y010220D01*
X032833Y010202D01*
X032833Y010313D01*
X032842Y010316D01*
X032971Y010445D01*
X033040Y010613D01*
X033040Y010795D01*
X032971Y010963D01*
X033130Y010804D01*
X033126Y010795D01*
X033126Y010613D01*
X033196Y010445D01*
X033324Y010316D01*
X033492Y010247D01*
X033674Y010247D01*
X033842Y010316D01*
X033971Y010445D01*
X034040Y010613D01*
X034040Y010795D01*
X033971Y010963D01*
X033842Y011091D01*
X033674Y011161D01*
X033492Y011161D01*
X033483Y011157D01*
X033113Y011527D01*
X033113Y011629D01*
X033055Y011769D01*
X032949Y011876D01*
X032809Y011934D01*
X032658Y011934D01*
X032518Y011876D01*
X032411Y011769D01*
X032353Y011629D01*
X032353Y011478D01*
X032411Y011339D01*
X032518Y011232D01*
X032658Y011174D01*
X032760Y011174D01*
X032842Y011091D01*
X032674Y011161D01*
X032492Y011161D01*
X032324Y011091D01*
X032196Y010963D01*
X032126Y010795D01*
X032126Y010613D01*
X032196Y010445D01*
X032324Y010316D01*
X032333Y010313D01*
X032333Y010095D01*
X032174Y010161D01*
X031992Y010161D01*
X031824Y010091D01*
X031783Y010050D01*
X031783Y010154D01*
X031745Y010245D01*
X031724Y010267D01*
X031842Y010316D01*
X031971Y010445D01*
X032040Y010613D01*
X032040Y010795D01*
X031971Y010963D01*
X031842Y011091D01*
X031674Y011161D01*
X031492Y011161D01*
X031324Y011091D01*
X031283Y011050D01*
X031283Y011666D01*
X031355Y011739D01*
X031413Y011878D01*
X031413Y012029D01*
X031355Y012169D01*
X031249Y012276D01*
X031109Y012334D01*
X030958Y012334D01*
X030818Y012276D01*
X030711Y012169D01*
X030653Y012029D01*
X030653Y011878D01*
X030711Y011739D01*
X030783Y011666D01*
X030783Y011116D01*
X030674Y011161D01*
X030492Y011161D01*
X030324Y011091D01*
X030196Y010963D01*
X030147Y010844D01*
X028933Y012057D01*
X028933Y012504D01*
X028899Y012587D01*
X029062Y012424D01*
X029400Y012284D01*
X029766Y012284D01*
X030104Y012424D01*
X030363Y012683D01*
X030503Y013021D01*
X030503Y013387D01*
X030363Y013725D01*
X030104Y013984D01*
X029766Y014124D01*
X029400Y014124D01*
X029062Y013984D01*
X028803Y013725D01*
X028663Y013387D01*
X028663Y013021D01*
X028800Y012691D01*
X028645Y012845D01*
X028575Y012916D01*
X028483Y012954D01*
X027976Y012954D01*
X028003Y013021D01*
X028003Y013387D01*
X027863Y013725D01*
X027604Y013984D01*
X027266Y014124D01*
X027057Y014124D01*
X027487Y014554D01*
X035134Y014554D01*
X035103Y014479D01*
X035103Y014328D01*
X035161Y014189D01*
X035233Y014116D01*
X035233Y008457D01*
X034260Y007484D01*
X034158Y007484D01*
X034033Y007432D01*
X034033Y008266D01*
X034105Y008339D01*
X034163Y008478D01*
X034163Y008629D01*
X034105Y008769D01*
X033999Y008876D01*
X033859Y008934D01*
X033708Y008934D01*
X033568Y008876D01*
X033461Y008769D01*
X033403Y008629D01*
X033403Y008478D01*
X033461Y008339D01*
X033533Y008266D01*
X033533Y006404D01*
X033571Y006312D01*
X033642Y006242D01*
X033734Y006204D01*
X034546Y006204D01*
X034618Y006132D01*
X034758Y006074D01*
X034909Y006074D01*
X035049Y006132D01*
X035121Y006204D01*
X036630Y006204D01*
X036280Y005854D01*
X033784Y005854D01*
X033692Y005816D01*
X033621Y005745D01*
X033583Y005654D01*
X033583Y004141D01*
X033511Y004069D01*
X033453Y003929D01*
X033453Y003778D01*
X033511Y003639D01*
X033618Y003532D01*
X033758Y003474D01*
X033909Y003474D01*
X034049Y003532D01*
X034133Y003532D01*
X034049Y003532D02*
X034133Y003616D01*
X034133Y002757D01*
X034116Y002740D02*
X028815Y002740D01*
X028452Y002740D02*
X028285Y002740D01*
X028233Y002898D02*
X034133Y002898D01*
X034133Y003057D02*
X028233Y003057D01*
X028233Y003215D02*
X034133Y003215D01*
X034133Y003374D02*
X028233Y003374D01*
X028233Y003532D02*
X033617Y003532D01*
X033490Y003691D02*
X028233Y003691D01*
X028233Y003849D02*
X033453Y003849D01*
X033486Y004008D02*
X028233Y004008D01*
X028233Y004166D02*
X033583Y004166D01*
X033583Y004325D02*
X028258Y004325D01*
X028416Y004483D02*
X033583Y004483D01*
X033583Y004642D02*
X028575Y004642D01*
X028733Y004800D02*
X033583Y004800D01*
X033583Y004959D02*
X029076Y004959D01*
X029159Y005117D02*
X033583Y005117D01*
X033583Y005276D02*
X029163Y005276D01*
X029090Y005434D02*
X033583Y005434D01*
X033583Y005593D02*
X028957Y005593D01*
X029013Y005751D02*
X033627Y005751D01*
X033678Y006227D02*
X029063Y006227D01*
X029061Y006385D02*
X033541Y006385D01*
X033533Y006544D02*
X032527Y006544D01*
X032685Y006702D02*
X033533Y006702D01*
X033533Y006861D02*
X033228Y006861D01*
X033310Y007019D02*
X033533Y007019D01*
X033533Y007178D02*
X033313Y007178D01*
X033238Y007336D02*
X033533Y007336D01*
X033533Y007495D02*
X032833Y007495D01*
X032833Y007653D02*
X033533Y007653D01*
X033533Y007812D02*
X032833Y007812D01*
X032833Y007970D02*
X033533Y007970D01*
X033533Y008129D02*
X032833Y008129D01*
X032833Y008287D02*
X033512Y008287D01*
X033417Y008446D02*
X032833Y008446D01*
X032833Y008604D02*
X033403Y008604D01*
X033459Y008763D02*
X032833Y008763D01*
X032833Y008921D02*
X033678Y008921D01*
X033889Y008921D02*
X035233Y008921D01*
X035233Y008763D02*
X034108Y008763D01*
X034163Y008604D02*
X035233Y008604D01*
X035222Y008446D02*
X034150Y008446D01*
X034054Y008287D02*
X035063Y008287D01*
X034905Y008129D02*
X034033Y008129D01*
X034033Y007970D02*
X034746Y007970D01*
X034588Y007812D02*
X034033Y007812D01*
X034033Y007653D02*
X034429Y007653D01*
X034271Y007495D02*
X034033Y007495D01*
X036336Y005910D02*
X029001Y005910D01*
X028985Y006068D02*
X036494Y006068D01*
X038961Y007178D02*
X041583Y007178D01*
X041583Y007336D02*
X039239Y007336D01*
X039458Y007495D02*
X041583Y007495D01*
X041583Y007653D02*
X039513Y007653D01*
X039500Y007812D02*
X041583Y007812D01*
X041583Y007970D02*
X039404Y007970D01*
X039323Y008129D02*
X041583Y008129D01*
X041583Y008287D02*
X039333Y008287D01*
X039333Y008446D02*
X041583Y008446D01*
X041583Y008604D02*
X039333Y008604D01*
X039333Y008763D02*
X041583Y008763D01*
X041583Y008921D02*
X039333Y008921D01*
X039333Y009080D02*
X041583Y009080D01*
X041583Y009238D02*
X040391Y009238D01*
X040549Y009397D02*
X041583Y009397D01*
X041583Y009555D02*
X040621Y009555D01*
X040640Y009714D02*
X041583Y009714D01*
X041583Y009872D02*
X040614Y009872D01*
X040534Y010031D02*
X041583Y010031D01*
X041583Y010189D02*
X040358Y010189D01*
X040324Y010316D02*
X040492Y010247D01*
X040674Y010247D01*
X040842Y010316D01*
X040971Y010445D01*
X041040Y010613D01*
X041040Y010795D01*
X040971Y010963D01*
X040842Y011091D01*
X040833Y011095D01*
X040833Y011704D01*
X040795Y011795D01*
X040725Y011866D01*
X040413Y012177D01*
X040413Y012279D01*
X040355Y012419D01*
X040249Y012526D01*
X040109Y012584D01*
X039958Y012584D01*
X039818Y012526D01*
X039711Y012419D01*
X039653Y012279D01*
X039653Y012128D01*
X039711Y011989D01*
X039818Y011882D01*
X039958Y011824D01*
X040060Y011824D01*
X040333Y011550D01*
X040333Y011095D01*
X040324Y011091D01*
X040196Y010963D01*
X040126Y010795D01*
X040126Y010613D01*
X040196Y010445D01*
X040324Y010316D01*
X040293Y010348D02*
X039874Y010348D01*
X039809Y010189D02*
X039257Y010189D01*
X039283Y010348D02*
X039293Y010348D01*
X039996Y010506D02*
X040170Y010506D01*
X040126Y010665D02*
X040040Y010665D01*
X040029Y010823D02*
X040138Y010823D01*
X040215Y010982D02*
X039952Y010982D01*
X039833Y011140D02*
X040333Y011140D01*
X040333Y011299D02*
X039866Y011299D01*
X039955Y011457D02*
X040333Y011457D01*
X040268Y011616D02*
X039963Y011616D01*
X039900Y011774D02*
X040109Y011774D01*
X039767Y011933D02*
X039661Y011933D01*
X039505Y011933D02*
X039283Y011933D01*
X039283Y012091D02*
X039669Y012091D01*
X039653Y012250D02*
X039283Y012250D01*
X039283Y012408D02*
X039707Y012408D01*
X039917Y012567D02*
X039283Y012567D01*
X039283Y012725D02*
X040286Y012725D01*
X040220Y012884D02*
X039283Y012884D01*
X039283Y013042D02*
X040163Y013042D01*
X040163Y013201D02*
X039283Y013201D01*
X039283Y013359D02*
X040163Y013359D01*
X040218Y013518D02*
X039283Y013518D01*
X039283Y013676D02*
X040283Y013676D01*
X040413Y013835D02*
X039283Y013835D01*
X040150Y012567D02*
X040419Y012567D01*
X040360Y012408D02*
X040600Y012408D01*
X040413Y012250D02*
X041453Y012250D01*
X041510Y012091D02*
X040499Y012091D01*
X040658Y011933D02*
X041583Y011933D01*
X041583Y011774D02*
X040804Y011774D01*
X040833Y011616D02*
X041583Y011616D01*
X041583Y011457D02*
X040833Y011457D01*
X040833Y011299D02*
X041583Y011299D01*
X041583Y011140D02*
X040833Y011140D01*
X040952Y010982D02*
X041583Y010982D01*
X041583Y010823D02*
X041029Y010823D01*
X041040Y010665D02*
X041583Y010665D01*
X041583Y010506D02*
X040996Y010506D01*
X040874Y010348D02*
X041583Y010348D01*
X040092Y010189D02*
X040075Y010189D01*
X040075Y010031D02*
X040092Y010031D01*
X040075Y009872D02*
X040092Y009872D01*
X040075Y009714D02*
X040092Y009714D01*
X040075Y009555D02*
X040092Y009555D01*
X040075Y009397D02*
X040092Y009397D01*
X040075Y009238D02*
X040092Y009238D01*
X039776Y009238D02*
X039333Y009238D01*
X039423Y009397D02*
X039618Y009397D01*
X039546Y009555D02*
X039517Y009555D01*
X039508Y009872D02*
X039552Y009872D01*
X039632Y010031D02*
X039403Y010031D01*
X035233Y010031D02*
X033534Y010031D01*
X033614Y009872D02*
X035233Y009872D01*
X035233Y009714D02*
X033640Y009714D01*
X033621Y009555D02*
X035233Y009555D01*
X035233Y009397D02*
X033549Y009397D01*
X033391Y009238D02*
X035233Y009238D01*
X035233Y009080D02*
X032833Y009080D01*
X033075Y009238D02*
X033092Y009238D01*
X033075Y009397D02*
X033092Y009397D01*
X033075Y009555D02*
X033092Y009555D01*
X033075Y009714D02*
X033092Y009714D01*
X033075Y009872D02*
X033092Y009872D01*
X033075Y010031D02*
X033092Y010031D01*
X033075Y010189D02*
X033092Y010189D01*
X033293Y010348D02*
X032874Y010348D01*
X032996Y010506D02*
X033170Y010506D01*
X033126Y010665D02*
X033040Y010665D01*
X033029Y010823D02*
X033110Y010823D01*
X033952Y010982D02*
X035233Y010982D01*
X035233Y011140D02*
X033724Y011140D01*
X033342Y011299D02*
X035233Y011299D01*
X035233Y011457D02*
X033183Y011457D01*
X033113Y011616D02*
X035233Y011616D01*
X035233Y011774D02*
X033050Y011774D01*
X032811Y011933D02*
X035233Y011933D01*
X035233Y012091D02*
X031388Y012091D01*
X031413Y011933D02*
X032655Y011933D01*
X032416Y011774D02*
X031370Y011774D01*
X031283Y011616D02*
X032353Y011616D01*
X032362Y011457D02*
X031283Y011457D01*
X031283Y011299D02*
X032451Y011299D01*
X032443Y011140D02*
X031724Y011140D01*
X031952Y010982D02*
X032215Y010982D01*
X032138Y010823D02*
X032029Y010823D01*
X032040Y010665D02*
X032126Y010665D01*
X032170Y010506D02*
X031996Y010506D01*
X031874Y010348D02*
X032293Y010348D01*
X032333Y010189D02*
X031769Y010189D01*
X033358Y010189D02*
X035233Y010189D01*
X035233Y010348D02*
X033874Y010348D01*
X033996Y010506D02*
X035233Y010506D01*
X035233Y010665D02*
X034040Y010665D01*
X034029Y010823D02*
X035233Y010823D01*
X032793Y011140D02*
X032724Y011140D01*
X031443Y011140D02*
X031283Y011140D01*
X030783Y011140D02*
X030724Y011140D01*
X030783Y011299D02*
X029692Y011299D01*
X029533Y011457D02*
X030783Y011457D01*
X030783Y011616D02*
X029375Y011616D01*
X029216Y011774D02*
X030696Y011774D01*
X030653Y011933D02*
X029058Y011933D01*
X028933Y012091D02*
X030679Y012091D01*
X030792Y012250D02*
X028933Y012250D01*
X028933Y012408D02*
X029100Y012408D01*
X028919Y012567D02*
X028907Y012567D01*
X028786Y012725D02*
X028765Y012725D01*
X028720Y012884D02*
X028607Y012884D01*
X028663Y013042D02*
X028003Y013042D01*
X028003Y013201D02*
X028663Y013201D01*
X028663Y013359D02*
X028003Y013359D01*
X027949Y013518D02*
X028718Y013518D01*
X028783Y013676D02*
X027883Y013676D01*
X027753Y013835D02*
X028913Y013835D01*
X029085Y013993D02*
X027581Y013993D01*
X027085Y014152D02*
X035198Y014152D01*
X035233Y013993D02*
X034581Y013993D01*
X034604Y013984D02*
X034266Y014124D01*
X033900Y014124D01*
X033562Y013984D01*
X033303Y013725D01*
X033163Y013387D01*
X033163Y013021D01*
X033303Y012683D01*
X033562Y012424D01*
X033900Y012284D01*
X034266Y012284D01*
X034604Y012424D01*
X034863Y012683D01*
X035003Y013021D01*
X035003Y013387D01*
X034863Y013725D01*
X034604Y013984D01*
X034753Y013835D02*
X035233Y013835D01*
X035233Y013676D02*
X034883Y013676D01*
X034949Y013518D02*
X035233Y013518D01*
X035233Y013359D02*
X035003Y013359D01*
X035003Y013201D02*
X035233Y013201D01*
X035233Y013042D02*
X035003Y013042D01*
X034947Y012884D02*
X035233Y012884D01*
X035233Y012725D02*
X034881Y012725D01*
X034747Y012567D02*
X035233Y012567D01*
X035233Y012408D02*
X034567Y012408D01*
X035233Y012250D02*
X031275Y012250D01*
X030381Y012725D02*
X033286Y012725D01*
X033220Y012884D02*
X030447Y012884D01*
X030503Y013042D02*
X033163Y013042D01*
X033163Y013201D02*
X030503Y013201D01*
X030503Y013359D02*
X033163Y013359D01*
X033218Y013518D02*
X030449Y013518D01*
X030383Y013676D02*
X033283Y013676D01*
X033413Y013835D02*
X030253Y013835D01*
X030081Y013993D02*
X033585Y013993D01*
X035111Y014310D02*
X027243Y014310D01*
X027402Y014469D02*
X035103Y014469D01*
X033419Y012567D02*
X030247Y012567D01*
X030067Y012408D02*
X033600Y012408D01*
X030443Y011140D02*
X029850Y011140D01*
X030009Y010982D02*
X030215Y010982D01*
X027333Y010982D02*
X026952Y010982D01*
X026971Y010963D02*
X026842Y011091D01*
X026674Y011161D01*
X026492Y011161D01*
X026324Y011091D01*
X026196Y010963D01*
X026126Y010795D01*
X026126Y010613D01*
X026196Y010445D01*
X026324Y010316D01*
X026333Y010313D01*
X026333Y010202D01*
X026297Y010220D01*
X026214Y010247D01*
X026127Y010261D01*
X026092Y010261D01*
X026092Y009712D01*
X026075Y009712D01*
X026075Y010261D01*
X026039Y010261D01*
X025953Y010247D01*
X025869Y010220D01*
X025833Y010202D01*
X025833Y010313D01*
X025842Y010316D01*
X025971Y010445D01*
X026040Y010613D01*
X026040Y010795D01*
X025971Y010963D01*
X025842Y011091D01*
X025674Y011161D01*
X025492Y011161D01*
X025383Y011116D01*
X025383Y011450D01*
X026275Y012342D01*
X026345Y012412D01*
X026383Y012504D01*
X026383Y012603D01*
X026562Y012424D01*
X026900Y012284D01*
X027110Y012284D01*
X026760Y011934D01*
X026658Y011934D01*
X026518Y011876D01*
X026411Y011769D01*
X026353Y011629D01*
X026353Y011478D01*
X026411Y011339D01*
X026518Y011232D01*
X026658Y011174D01*
X026809Y011174D01*
X026949Y011232D01*
X027055Y011339D01*
X027113Y011478D01*
X027113Y011580D01*
X027232Y011699D01*
X027203Y011629D01*
X027203Y011478D01*
X027261Y011339D01*
X027333Y011266D01*
X027333Y007991D01*
X027249Y008076D01*
X027109Y008134D01*
X026958Y008134D01*
X026833Y008082D01*
X026833Y010313D01*
X026842Y010316D01*
X026971Y010445D01*
X027040Y010613D01*
X027040Y010795D01*
X026971Y010963D01*
X027029Y010823D02*
X027333Y010823D01*
X027333Y010665D02*
X027040Y010665D01*
X026996Y010506D02*
X027333Y010506D01*
X027333Y010348D02*
X026874Y010348D01*
X026833Y010189D02*
X027333Y010189D01*
X027333Y010031D02*
X026833Y010031D01*
X026833Y009872D02*
X027333Y009872D01*
X027333Y009714D02*
X026833Y009714D01*
X026833Y009555D02*
X027333Y009555D01*
X027333Y009397D02*
X026833Y009397D01*
X026833Y009238D02*
X027333Y009238D01*
X027333Y009080D02*
X026833Y009080D01*
X026833Y008921D02*
X027333Y008921D01*
X027333Y008763D02*
X026833Y008763D01*
X026833Y008604D02*
X027333Y008604D01*
X027333Y008446D02*
X026833Y008446D01*
X026833Y008287D02*
X027333Y008287D01*
X027333Y008129D02*
X027121Y008129D01*
X026946Y008129D02*
X026833Y008129D01*
X026333Y008129D02*
X025833Y008129D01*
X025833Y008287D02*
X026333Y008287D01*
X026333Y008446D02*
X025833Y008446D01*
X025833Y008604D02*
X026333Y008604D01*
X026333Y008763D02*
X025833Y008763D01*
X025833Y008921D02*
X026333Y008921D01*
X026333Y009080D02*
X025833Y009080D01*
X025869Y009187D02*
X025953Y009160D01*
X026039Y009147D01*
X026075Y009147D01*
X026075Y009695D01*
X026092Y009695D01*
X026092Y009147D01*
X026127Y009147D01*
X026214Y009160D01*
X026297Y009187D01*
X026333Y009206D01*
X026333Y007502D01*
X026305Y007569D01*
X026199Y007676D01*
X026059Y007734D01*
X025908Y007734D01*
X025833Y007703D01*
X025833Y009206D01*
X025869Y009187D01*
X026075Y009238D02*
X026092Y009238D01*
X026075Y009397D02*
X026092Y009397D01*
X026075Y009555D02*
X026092Y009555D01*
X026075Y009714D02*
X026092Y009714D01*
X026075Y009872D02*
X026092Y009872D01*
X026075Y010031D02*
X026092Y010031D01*
X026075Y010189D02*
X026092Y010189D01*
X026293Y010348D02*
X025874Y010348D01*
X025996Y010506D02*
X026170Y010506D01*
X026126Y010665D02*
X026040Y010665D01*
X026029Y010823D02*
X026138Y010823D01*
X026215Y010982D02*
X025952Y010982D01*
X025724Y011140D02*
X026443Y011140D01*
X026451Y011299D02*
X025383Y011299D01*
X025390Y011457D02*
X026362Y011457D01*
X026353Y011616D02*
X025549Y011616D01*
X025707Y011774D02*
X026416Y011774D01*
X026655Y011933D02*
X025866Y011933D01*
X026024Y012091D02*
X026917Y012091D01*
X027076Y012250D02*
X026183Y012250D01*
X026341Y012408D02*
X026600Y012408D01*
X026419Y012567D02*
X026383Y012567D01*
X025883Y012725D02*
X025283Y012725D01*
X025283Y012567D02*
X025793Y012567D01*
X025634Y012408D02*
X025283Y012408D01*
X025283Y012250D02*
X025476Y012250D01*
X025317Y012091D02*
X025283Y012091D01*
X023734Y012408D02*
X023067Y012408D01*
X023104Y012424D02*
X023363Y012683D01*
X023503Y013021D01*
X023503Y013387D01*
X023363Y013725D01*
X023104Y013984D01*
X022766Y014124D01*
X022400Y014124D01*
X022062Y013984D01*
X021803Y013725D01*
X021663Y013387D01*
X021663Y013021D01*
X021803Y012683D01*
X022062Y012424D01*
X022400Y012284D01*
X022766Y012284D01*
X023104Y012424D01*
X023247Y012567D02*
X023893Y012567D01*
X024051Y012725D02*
X023381Y012725D01*
X023447Y012884D02*
X024210Y012884D01*
X024406Y013042D02*
X023503Y013042D01*
X023503Y013201D02*
X025883Y013201D01*
X025883Y013359D02*
X023503Y013359D01*
X023449Y013518D02*
X025883Y013518D01*
X025913Y013676D02*
X023383Y013676D01*
X023253Y013835D02*
X026061Y013835D01*
X026219Y013993D02*
X023081Y013993D01*
X022085Y013993D02*
X020581Y013993D01*
X020753Y013835D02*
X021913Y013835D01*
X021783Y013676D02*
X020883Y013676D01*
X020949Y013518D02*
X021718Y013518D01*
X021663Y013359D02*
X021003Y013359D01*
X021003Y013201D02*
X021663Y013201D01*
X021663Y013042D02*
X021003Y013042D01*
X020947Y012884D02*
X021720Y012884D01*
X021786Y012725D02*
X020881Y012725D01*
X020747Y012567D02*
X021919Y012567D01*
X022100Y012408D02*
X020567Y012408D01*
X020075Y012250D02*
X023576Y012250D01*
X023417Y012091D02*
X020188Y012091D01*
X020213Y011933D02*
X023259Y011933D01*
X023100Y011774D02*
X020170Y011774D01*
X020010Y011616D02*
X022942Y011616D01*
X022783Y011457D02*
X019690Y011457D01*
X019532Y011299D02*
X022625Y011299D01*
X022466Y011140D02*
X019724Y011140D01*
X019952Y010982D02*
X022308Y010982D01*
X022162Y010823D02*
X020029Y010823D01*
X020040Y010665D02*
X022133Y010665D01*
X022133Y010506D02*
X020134Y010506D01*
X020293Y010348D02*
X022133Y010348D01*
X022133Y010189D02*
X020451Y010189D01*
X020610Y010031D02*
X022007Y010031D01*
X021848Y009872D02*
X020768Y009872D01*
X020927Y009714D02*
X021690Y009714D01*
X021347Y009555D02*
X021085Y009555D01*
X020695Y009238D02*
X019391Y009238D01*
X019375Y009227D02*
X019446Y009279D01*
X019508Y009341D01*
X019560Y009412D01*
X019600Y009490D01*
X019627Y009573D01*
X019640Y009660D01*
X019640Y009695D01*
X019092Y009695D01*
X019092Y009147D01*
X019127Y009147D01*
X019214Y009160D01*
X019297Y009187D01*
X019375Y009227D01*
X019549Y009397D02*
X020537Y009397D01*
X020378Y009555D02*
X019621Y009555D01*
X019640Y009712D02*
X019092Y009712D01*
X019092Y009695D01*
X019075Y009695D01*
X019075Y009147D01*
X019039Y009147D01*
X018953Y009160D01*
X018883Y009183D01*
X018883Y006841D01*
X018955Y006769D01*
X019013Y006629D01*
X019013Y006478D01*
X018955Y006339D01*
X018849Y006232D01*
X018709Y006174D01*
X018558Y006174D01*
X018418Y006232D01*
X018333Y006316D01*
X018333Y001204D01*
X020546Y001204D01*
X020511Y001239D01*
X020453Y001378D01*
X020453Y001529D01*
X020511Y001669D01*
X020618Y001776D01*
X020758Y001834D01*
X020860Y001834D01*
X020883Y001857D01*
X020883Y006666D01*
X020811Y006739D01*
X020753Y006878D01*
X020753Y007029D01*
X020811Y007169D01*
X020918Y007276D01*
X021058Y007334D01*
X021209Y007334D01*
X021283Y007303D01*
X021283Y008650D01*
X019683Y010250D01*
X019674Y010247D01*
X019492Y010247D01*
X019324Y010316D01*
X019196Y010445D01*
X019126Y010613D01*
X019126Y010795D01*
X019196Y010963D01*
X019037Y010804D01*
X019040Y010795D01*
X019040Y010613D01*
X018971Y010445D01*
X018842Y010316D01*
X018674Y010247D01*
X018544Y010247D01*
X018691Y010100D01*
X018720Y010129D01*
X018791Y010180D01*
X018869Y010220D01*
X018953Y010247D01*
X019039Y010261D01*
X019075Y010261D01*
X019075Y009712D01*
X019092Y009712D01*
X019092Y010261D01*
X019127Y010261D01*
X019214Y010247D01*
X019297Y010220D01*
X019375Y010180D01*
X019446Y010129D01*
X019508Y010067D01*
X019560Y009996D01*
X019600Y009918D01*
X019627Y009834D01*
X019640Y009748D01*
X019640Y009712D01*
X019640Y009714D02*
X020220Y009714D01*
X020061Y009872D02*
X019614Y009872D01*
X019534Y010031D02*
X019903Y010031D01*
X019744Y010189D02*
X019358Y010189D01*
X019293Y010348D02*
X018874Y010348D01*
X018809Y010189D02*
X018601Y010189D01*
X019075Y010189D02*
X019092Y010189D01*
X019075Y010031D02*
X019092Y010031D01*
X019075Y009872D02*
X019092Y009872D01*
X019075Y009714D02*
X019092Y009714D01*
X019075Y009555D02*
X019092Y009555D01*
X019075Y009397D02*
X019092Y009397D01*
X019075Y009238D02*
X019092Y009238D01*
X018883Y009080D02*
X020854Y009080D01*
X021012Y008921D02*
X018883Y008921D01*
X018883Y008763D02*
X021171Y008763D01*
X021283Y008604D02*
X018883Y008604D01*
X018883Y008446D02*
X021283Y008446D01*
X021283Y008287D02*
X018883Y008287D01*
X018883Y008129D02*
X021283Y008129D01*
X021283Y007970D02*
X018883Y007970D01*
X018883Y007812D02*
X021283Y007812D01*
X021283Y007653D02*
X018883Y007653D01*
X018883Y007495D02*
X021283Y007495D01*
X021283Y007336D02*
X018883Y007336D01*
X018883Y007178D02*
X020820Y007178D01*
X020753Y007019D02*
X018883Y007019D01*
X018883Y006861D02*
X020761Y006861D01*
X020847Y006702D02*
X018983Y006702D01*
X019013Y006544D02*
X020883Y006544D01*
X020883Y006385D02*
X018975Y006385D01*
X018837Y006227D02*
X020883Y006227D01*
X020883Y006068D02*
X018333Y006068D01*
X018333Y005910D02*
X020883Y005910D01*
X020883Y005751D02*
X018333Y005751D01*
X018333Y005593D02*
X020883Y005593D01*
X020883Y005434D02*
X018333Y005434D01*
X018333Y005276D02*
X020883Y005276D01*
X020883Y005117D02*
X018333Y005117D01*
X018333Y004959D02*
X020883Y004959D01*
X020883Y004800D02*
X018333Y004800D01*
X018333Y004642D02*
X020883Y004642D01*
X020883Y004483D02*
X018333Y004483D01*
X018333Y004325D02*
X020883Y004325D01*
X020883Y004166D02*
X018333Y004166D01*
X018333Y004008D02*
X020883Y004008D01*
X020883Y003849D02*
X018333Y003849D01*
X018333Y003691D02*
X020883Y003691D01*
X020883Y003532D02*
X018333Y003532D01*
X018333Y003374D02*
X020883Y003374D01*
X020883Y003215D02*
X018333Y003215D01*
X018333Y003057D02*
X020883Y003057D01*
X020883Y002898D02*
X018333Y002898D01*
X018333Y002740D02*
X020883Y002740D01*
X020883Y002581D02*
X018333Y002581D01*
X018333Y002423D02*
X020883Y002423D01*
X020883Y002264D02*
X018333Y002264D01*
X018333Y002106D02*
X020883Y002106D01*
X020883Y001947D02*
X018333Y001947D01*
X018333Y001789D02*
X020649Y001789D01*
X020495Y001630D02*
X018333Y001630D01*
X018333Y001472D02*
X020453Y001472D01*
X020480Y001313D02*
X018333Y001313D01*
X017833Y001313D02*
X013338Y001313D01*
X013266Y001284D02*
X013604Y001424D01*
X013863Y001683D01*
X014003Y002021D01*
X014003Y002387D01*
X013863Y002725D01*
X013604Y002984D01*
X013266Y003124D01*
X012900Y003124D01*
X012562Y002984D01*
X012303Y002725D01*
X012163Y002387D01*
X012163Y002021D01*
X012303Y001683D01*
X012562Y001424D01*
X012900Y001284D01*
X013266Y001284D01*
X013652Y001472D02*
X017833Y001472D01*
X017833Y001630D02*
X013811Y001630D01*
X013907Y001789D02*
X017833Y001789D01*
X017833Y001947D02*
X013973Y001947D01*
X014003Y002106D02*
X017833Y002106D01*
X017833Y002264D02*
X017331Y002264D01*
X017299Y002232D02*
X017405Y002339D01*
X017463Y002478D01*
X017463Y002629D01*
X017405Y002769D01*
X017333Y002841D01*
X017333Y009313D01*
X017342Y009316D01*
X017471Y009445D01*
X017540Y009613D01*
X017540Y009795D01*
X017471Y009963D01*
X017342Y010091D01*
X017174Y010161D01*
X016992Y010161D01*
X016824Y010091D01*
X016696Y009963D01*
X016626Y009795D01*
X016626Y009613D01*
X016696Y009445D01*
X016824Y009316D01*
X016833Y009313D01*
X016833Y003853D01*
X016759Y003884D01*
X016657Y003884D01*
X013033Y007507D01*
X013033Y010554D01*
X013025Y010575D01*
X013040Y010613D01*
X013040Y010795D01*
X012995Y010904D01*
X015833Y010904D01*
X015833Y010095D01*
X015824Y010091D01*
X015696Y009963D01*
X015626Y009795D01*
X015626Y009613D01*
X015696Y009445D01*
X015824Y009316D01*
X015992Y009247D01*
X016174Y009247D01*
X016342Y009316D01*
X016471Y009445D01*
X016540Y009613D01*
X016540Y009795D01*
X016471Y009963D01*
X016342Y010091D01*
X016333Y010095D01*
X016333Y010313D01*
X016492Y010247D01*
X016674Y010247D01*
X016842Y010316D01*
X016971Y010445D01*
X017040Y010613D01*
X017040Y010795D01*
X017037Y010804D01*
X017196Y010963D01*
X017126Y010795D01*
X017126Y010613D01*
X017196Y010445D01*
X017324Y010316D01*
X017492Y010247D01*
X017674Y010247D01*
X017842Y010316D01*
X017883Y010357D01*
X017883Y010254D01*
X017921Y010162D01*
X017943Y010141D01*
X017824Y010091D01*
X017696Y009963D01*
X017626Y009795D01*
X017626Y009613D01*
X017696Y009445D01*
X017824Y009316D01*
X017833Y009313D01*
X017833Y000904D01*
X017871Y000812D01*
X017942Y000742D01*
X018034Y000704D01*
X022946Y000704D01*
X023018Y000632D01*
X023158Y000574D01*
X023309Y000574D01*
X023449Y000632D01*
X023555Y000739D01*
X023613Y000878D01*
X023613Y001029D01*
X023564Y001147D01*
X023655Y001239D01*
X023713Y001378D01*
X023713Y001529D01*
X023655Y001669D01*
X023549Y001776D01*
X023409Y001834D01*
X023307Y001834D01*
X021783Y003357D01*
X021783Y008804D01*
X021745Y008895D01*
X021735Y008905D01*
X021799Y008932D01*
X021905Y009039D01*
X021963Y009178D01*
X021963Y009280D01*
X022383Y009700D01*
X022383Y008757D01*
X022360Y008734D01*
X022258Y008734D01*
X022118Y008676D01*
X022011Y008569D01*
X021953Y008429D01*
X021953Y008278D01*
X022011Y008139D01*
X022118Y008032D01*
X022258Y007974D01*
X022409Y007974D01*
X022549Y008032D01*
X022655Y008139D01*
X022713Y008278D01*
X022713Y008380D01*
X022775Y008442D01*
X022845Y008512D01*
X022883Y008604D01*
X022883Y009292D01*
X022992Y009247D01*
X023174Y009247D01*
X023333Y009313D01*
X023333Y008354D01*
X023371Y008262D01*
X023442Y008192D01*
X023853Y007780D01*
X023853Y007678D01*
X023911Y007539D01*
X024018Y007432D01*
X024158Y007374D01*
X024309Y007374D01*
X024383Y007405D01*
X024383Y007357D01*
X024360Y007334D01*
X024258Y007334D01*
X024118Y007276D01*
X024011Y007169D01*
X023953Y007029D01*
X023953Y006878D01*
X024011Y006739D01*
X024118Y006632D01*
X024258Y006574D01*
X024409Y006574D01*
X024549Y006632D01*
X024655Y006739D01*
X024713Y006878D01*
X024713Y006980D01*
X024775Y007042D01*
X024833Y007100D01*
X024833Y005307D01*
X024825Y005316D01*
X023213Y006927D01*
X023213Y007029D01*
X023155Y007169D01*
X023049Y007276D01*
X022909Y007334D01*
X022758Y007334D01*
X022618Y007276D01*
X022511Y007169D01*
X022453Y007029D01*
X022453Y006878D01*
X022511Y006739D01*
X022618Y006632D01*
X022758Y006574D01*
X022860Y006574D01*
X024433Y005000D01*
X024433Y001254D01*
X024471Y001162D01*
X025150Y000484D01*
X007424Y000484D01*
X007608Y000668D01*
X007776Y000960D01*
X007863Y001285D01*
X007863Y001622D01*
X007863Y001623D01*
X008062Y001424D01*
X008400Y001284D01*
X008766Y001284D01*
X009104Y001424D01*
X009363Y001683D01*
X009503Y002021D01*
X009503Y002387D01*
X009363Y002725D01*
X009104Y002984D01*
X008766Y003124D01*
X008400Y003124D01*
X008062Y002984D01*
X007803Y002725D01*
X007663Y002387D01*
X007663Y002143D01*
X007608Y002240D01*
X007369Y002478D01*
X007077Y002647D01*
X006752Y002734D01*
X006415Y002734D01*
X006089Y002647D01*
X005797Y002478D01*
X005613Y002294D01*
X005613Y013364D01*
X005797Y013180D01*
X006089Y013011D01*
X006415Y012924D01*
X006752Y012924D01*
X007077Y013011D01*
X007369Y013180D01*
X007608Y013418D01*
X007776Y013710D01*
X007863Y014035D01*
X007863Y014372D01*
X007776Y014698D01*
X007608Y014990D01*
X007424Y015174D01*
X020284Y015174D01*
X020168Y015126D01*
X020061Y015019D01*
X020003Y014879D01*
X020003Y014777D01*
X017992Y012766D01*
X017921Y012695D01*
X017883Y012604D01*
X017883Y012204D01*
X011134Y012204D01*
X011042Y012166D01*
X009921Y011045D01*
X009912Y011022D01*
X009842Y011091D01*
X009674Y011161D01*
X009492Y011161D01*
X009324Y011091D01*
X009196Y010963D01*
X009126Y010795D01*
X009126Y010613D01*
X009196Y010445D01*
X009324Y010316D01*
X009443Y010267D01*
X009421Y010245D01*
X009383Y010154D01*
X009383Y010050D01*
X009342Y010091D01*
X009174Y010161D01*
X008992Y010161D01*
X008824Y010091D01*
X008696Y009963D01*
X008626Y009795D01*
X008626Y009613D01*
X008696Y009445D01*
X008824Y009316D01*
X008943Y009267D01*
X008921Y009245D01*
X008883Y009154D01*
X008883Y005116D01*
X008824Y005091D01*
X008696Y004963D01*
X008626Y004795D01*
X008626Y004613D01*
X008696Y004445D01*
X008824Y004316D01*
X008992Y004247D01*
X009174Y004247D01*
X009342Y004316D01*
X009471Y004445D01*
X009540Y004613D01*
X009540Y004795D01*
X009471Y004963D01*
X009383Y005050D01*
X009383Y005183D01*
X009453Y005160D01*
X009539Y005147D01*
X009575Y005147D01*
X009575Y005695D01*
X009592Y005695D01*
X009592Y005147D01*
X009627Y005147D01*
X009714Y005160D01*
X009797Y005187D01*
X009875Y005227D01*
X009883Y005233D01*
X009883Y005116D01*
X009824Y005091D01*
X009696Y004963D01*
X009626Y004795D01*
X009626Y004613D01*
X009696Y004445D01*
X009824Y004316D01*
X009992Y004247D01*
X010174Y004247D01*
X010342Y004316D01*
X010471Y004445D01*
X010540Y004613D01*
X010540Y004795D01*
X010471Y004963D01*
X010383Y005050D01*
X010383Y005292D01*
X010492Y005247D01*
X010674Y005247D01*
X010842Y005316D01*
X010971Y005445D01*
X011040Y005613D01*
X011040Y005795D01*
X010971Y005963D01*
X010842Y006091D01*
X010674Y006161D01*
X010492Y006161D01*
X010383Y006116D01*
X010383Y009000D01*
X010725Y009342D01*
X010762Y009379D01*
X010824Y009316D01*
X010992Y009247D01*
X011174Y009247D01*
X011342Y009316D01*
X011471Y009445D01*
X011536Y009601D01*
X011540Y009573D01*
X011567Y009490D01*
X011607Y009412D01*
X011658Y009341D01*
X011720Y009279D01*
X011791Y009227D01*
X011869Y009187D01*
X011953Y009160D01*
X012039Y009147D01*
X012075Y009147D01*
X012075Y009695D01*
X012092Y009695D01*
X012092Y009147D01*
X012127Y009147D01*
X012214Y009160D01*
X012283Y009183D01*
X012283Y006050D01*
X012196Y005963D01*
X012126Y005795D01*
X012126Y005613D01*
X012196Y005445D01*
X012324Y005316D01*
X012492Y005247D01*
X012674Y005247D01*
X012842Y005316D01*
X012971Y005445D01*
X013040Y005613D01*
X013040Y005795D01*
X012971Y005963D01*
X012842Y006091D01*
X012783Y006116D01*
X012783Y007050D01*
X016303Y003530D01*
X016303Y003428D01*
X016361Y003289D01*
X016468Y003182D01*
X016608Y003124D01*
X016759Y003124D01*
X016833Y003155D01*
X016833Y002841D01*
X016761Y002769D01*
X016703Y002629D01*
X016703Y002478D01*
X016761Y002339D01*
X016868Y002232D01*
X017008Y002174D01*
X017159Y002174D01*
X017299Y002232D01*
X017440Y002423D02*
X017833Y002423D01*
X017833Y002581D02*
X017463Y002581D01*
X017418Y002740D02*
X017833Y002740D01*
X017833Y002898D02*
X017333Y002898D01*
X017333Y003057D02*
X017833Y003057D01*
X017833Y003215D02*
X017333Y003215D01*
X017333Y003374D02*
X017833Y003374D01*
X017833Y003532D02*
X017333Y003532D01*
X017333Y003691D02*
X017833Y003691D01*
X017833Y003849D02*
X017333Y003849D01*
X017333Y004008D02*
X017833Y004008D01*
X017833Y004166D02*
X017333Y004166D01*
X017333Y004325D02*
X017833Y004325D01*
X017833Y004483D02*
X017333Y004483D01*
X017333Y004642D02*
X017833Y004642D01*
X017833Y004800D02*
X017333Y004800D01*
X017333Y004959D02*
X017833Y004959D01*
X017833Y005117D02*
X017333Y005117D01*
X017333Y005276D02*
X017833Y005276D01*
X017833Y005434D02*
X017333Y005434D01*
X017333Y005593D02*
X017833Y005593D01*
X017833Y005751D02*
X017333Y005751D01*
X017333Y005910D02*
X017833Y005910D01*
X017833Y006068D02*
X017333Y006068D01*
X017333Y006227D02*
X017833Y006227D01*
X017833Y006385D02*
X017333Y006385D01*
X017333Y006544D02*
X017833Y006544D01*
X017833Y006702D02*
X017333Y006702D01*
X017333Y006861D02*
X017833Y006861D01*
X017833Y007019D02*
X017333Y007019D01*
X017333Y007178D02*
X017833Y007178D01*
X017833Y007336D02*
X017333Y007336D01*
X017333Y007495D02*
X017833Y007495D01*
X017833Y007653D02*
X017333Y007653D01*
X017333Y007812D02*
X017833Y007812D01*
X017833Y007970D02*
X017333Y007970D01*
X017333Y008129D02*
X017833Y008129D01*
X017833Y008287D02*
X017333Y008287D01*
X017333Y008446D02*
X017833Y008446D01*
X017833Y008604D02*
X017333Y008604D01*
X017333Y008763D02*
X017833Y008763D01*
X017833Y008921D02*
X017333Y008921D01*
X017333Y009080D02*
X017833Y009080D01*
X017833Y009238D02*
X017333Y009238D01*
X017423Y009397D02*
X017744Y009397D01*
X017650Y009555D02*
X017517Y009555D01*
X017540Y009714D02*
X017626Y009714D01*
X017658Y009872D02*
X017508Y009872D01*
X017403Y010031D02*
X017764Y010031D01*
X017910Y010189D02*
X016333Y010189D01*
X016403Y010031D02*
X016764Y010031D01*
X016658Y009872D02*
X016508Y009872D01*
X016540Y009714D02*
X016626Y009714D01*
X016650Y009555D02*
X016517Y009555D01*
X016423Y009397D02*
X016744Y009397D01*
X016833Y009238D02*
X013033Y009238D01*
X013033Y009080D02*
X016833Y009080D01*
X016833Y008921D02*
X013033Y008921D01*
X013033Y008763D02*
X016833Y008763D01*
X016833Y008604D02*
X013033Y008604D01*
X013033Y008446D02*
X016833Y008446D01*
X016833Y008287D02*
X013033Y008287D01*
X013033Y008129D02*
X016833Y008129D01*
X016833Y007970D02*
X013033Y007970D01*
X013033Y007812D02*
X016833Y007812D01*
X016833Y007653D02*
X013033Y007653D01*
X013046Y007495D02*
X016833Y007495D01*
X016833Y007336D02*
X013204Y007336D01*
X013363Y007178D02*
X016833Y007178D01*
X016833Y007019D02*
X013521Y007019D01*
X013680Y006861D02*
X016833Y006861D01*
X016833Y006702D02*
X013838Y006702D01*
X013997Y006544D02*
X016833Y006544D01*
X016833Y006385D02*
X014155Y006385D01*
X014314Y006227D02*
X016833Y006227D01*
X016833Y006068D02*
X014472Y006068D01*
X014631Y005910D02*
X016833Y005910D01*
X016833Y005751D02*
X014789Y005751D01*
X014948Y005593D02*
X016833Y005593D01*
X016833Y005434D02*
X015106Y005434D01*
X015265Y005276D02*
X016833Y005276D01*
X016833Y005117D02*
X015423Y005117D01*
X015582Y004959D02*
X016833Y004959D01*
X016833Y004800D02*
X015740Y004800D01*
X015899Y004642D02*
X016833Y004642D01*
X016833Y004483D02*
X016057Y004483D01*
X016216Y004325D02*
X016833Y004325D01*
X016833Y004166D02*
X016374Y004166D01*
X016533Y004008D02*
X016833Y004008D01*
X016143Y003691D02*
X012967Y003691D01*
X012955Y003719D02*
X012849Y003826D01*
X012709Y003884D01*
X012607Y003884D01*
X012224Y004267D01*
X012342Y004316D01*
X012471Y004445D01*
X012540Y004613D01*
X012540Y004795D01*
X012471Y004963D01*
X012342Y005091D01*
X012174Y005161D01*
X011992Y005161D01*
X011833Y005095D01*
X011833Y005313D01*
X011842Y005316D01*
X011971Y005445D01*
X012040Y005613D01*
X012040Y005795D01*
X011971Y005963D01*
X011842Y006091D01*
X011674Y006161D01*
X011492Y006161D01*
X011324Y006091D01*
X011196Y005963D01*
X011126Y005795D01*
X011126Y005613D01*
X011196Y005445D01*
X011324Y005316D01*
X011333Y005313D01*
X011333Y005095D01*
X011174Y005161D01*
X010992Y005161D01*
X010824Y005091D01*
X010696Y004963D01*
X010626Y004795D01*
X010626Y004613D01*
X010696Y004445D01*
X010824Y004316D01*
X010992Y004247D01*
X011174Y004247D01*
X011342Y004316D01*
X011405Y004379D01*
X011442Y004342D01*
X012253Y003530D01*
X012253Y003428D01*
X012311Y003289D01*
X012418Y003182D01*
X012558Y003124D01*
X012709Y003124D01*
X012849Y003182D01*
X012955Y003289D01*
X013013Y003428D01*
X013013Y003579D01*
X012955Y003719D01*
X013013Y003532D02*
X016301Y003532D01*
X016326Y003374D02*
X012991Y003374D01*
X012882Y003215D02*
X016434Y003215D01*
X016833Y003057D02*
X013428Y003057D01*
X013690Y002898D02*
X016833Y002898D01*
X016749Y002740D02*
X013848Y002740D01*
X013923Y002581D02*
X016703Y002581D01*
X016726Y002423D02*
X013988Y002423D01*
X014003Y002264D02*
X016835Y002264D01*
X017833Y001155D02*
X007828Y001155D01*
X007863Y001313D02*
X008329Y001313D01*
X008014Y001472D02*
X007863Y001472D01*
X008838Y001313D02*
X012829Y001313D01*
X012514Y001472D02*
X009152Y001472D01*
X009311Y001630D02*
X012356Y001630D01*
X012259Y001789D02*
X009407Y001789D01*
X009473Y001947D02*
X012194Y001947D01*
X012163Y002106D02*
X009503Y002106D01*
X009503Y002264D02*
X012163Y002264D01*
X012178Y002423D02*
X009488Y002423D01*
X009423Y002581D02*
X012244Y002581D01*
X012318Y002740D02*
X009348Y002740D01*
X009190Y002898D02*
X012477Y002898D01*
X012739Y003057D02*
X008928Y003057D01*
X008239Y003057D02*
X005613Y003057D01*
X005613Y003215D02*
X012384Y003215D01*
X012276Y003374D02*
X005613Y003374D01*
X005613Y003532D02*
X012251Y003532D01*
X012093Y003691D02*
X005613Y003691D01*
X005613Y003849D02*
X011934Y003849D01*
X011776Y004008D02*
X005613Y004008D01*
X005613Y004166D02*
X011617Y004166D01*
X011459Y004325D02*
X011351Y004325D01*
X010816Y004325D02*
X010351Y004325D01*
X010487Y004483D02*
X010680Y004483D01*
X010626Y004642D02*
X010540Y004642D01*
X010538Y004800D02*
X010628Y004800D01*
X010694Y004959D02*
X010473Y004959D01*
X010383Y005117D02*
X010887Y005117D01*
X010745Y005276D02*
X011333Y005276D01*
X011333Y005117D02*
X011280Y005117D01*
X011206Y005434D02*
X010960Y005434D01*
X011032Y005593D02*
X011134Y005593D01*
X011126Y005751D02*
X011040Y005751D01*
X010993Y005910D02*
X011174Y005910D01*
X011301Y006068D02*
X010865Y006068D01*
X010383Y006227D02*
X012283Y006227D01*
X012283Y006385D02*
X010383Y006385D01*
X010383Y006544D02*
X012283Y006544D01*
X012283Y006702D02*
X010383Y006702D01*
X010383Y006861D02*
X012283Y006861D01*
X012283Y007019D02*
X010383Y007019D01*
X010383Y007178D02*
X012283Y007178D01*
X012283Y007336D02*
X010383Y007336D01*
X010383Y007495D02*
X012283Y007495D01*
X012283Y007653D02*
X010383Y007653D01*
X010383Y007812D02*
X012283Y007812D01*
X012283Y007970D02*
X010383Y007970D01*
X010383Y008129D02*
X012283Y008129D01*
X012283Y008287D02*
X010383Y008287D01*
X010383Y008446D02*
X012283Y008446D01*
X012283Y008604D02*
X010383Y008604D01*
X010383Y008763D02*
X012283Y008763D01*
X012283Y008921D02*
X010383Y008921D01*
X010463Y009080D02*
X012283Y009080D01*
X012092Y009238D02*
X012075Y009238D01*
X012075Y009397D02*
X012092Y009397D01*
X012075Y009555D02*
X012092Y009555D01*
X011776Y009238D02*
X010621Y009238D01*
X009943Y009267D02*
X009921Y009245D01*
X009883Y009154D01*
X009883Y006175D01*
X009875Y006180D01*
X009797Y006220D01*
X009714Y006247D01*
X009627Y006261D01*
X009592Y006261D01*
X009592Y005712D01*
X009575Y005712D01*
X009575Y006261D01*
X009539Y006261D01*
X009453Y006247D01*
X009383Y006225D01*
X009383Y009000D01*
X009762Y009379D01*
X009824Y009316D01*
X009943Y009267D01*
X009918Y009238D02*
X009621Y009238D01*
X009463Y009080D02*
X009883Y009080D01*
X009883Y008921D02*
X009383Y008921D01*
X009383Y008763D02*
X009883Y008763D01*
X009883Y008604D02*
X009383Y008604D01*
X009383Y008446D02*
X009883Y008446D01*
X009883Y008287D02*
X009383Y008287D01*
X009383Y008129D02*
X009883Y008129D01*
X009883Y007970D02*
X009383Y007970D01*
X009383Y007812D02*
X009883Y007812D01*
X009883Y007653D02*
X009383Y007653D01*
X009383Y007495D02*
X009883Y007495D01*
X009883Y007336D02*
X009383Y007336D01*
X009383Y007178D02*
X009883Y007178D01*
X009883Y007019D02*
X009383Y007019D01*
X009383Y006861D02*
X009883Y006861D01*
X009883Y006702D02*
X009383Y006702D01*
X009383Y006544D02*
X009883Y006544D01*
X009883Y006385D02*
X009383Y006385D01*
X009383Y006227D02*
X009390Y006227D01*
X009575Y006227D02*
X009592Y006227D01*
X009575Y006068D02*
X009592Y006068D01*
X009575Y005910D02*
X009592Y005910D01*
X009575Y005751D02*
X009592Y005751D01*
X009575Y005593D02*
X009592Y005593D01*
X009575Y005434D02*
X009592Y005434D01*
X009575Y005276D02*
X009592Y005276D01*
X009383Y005117D02*
X009883Y005117D01*
X009694Y004959D02*
X009473Y004959D01*
X009538Y004800D02*
X009628Y004800D01*
X009626Y004642D02*
X009540Y004642D01*
X009487Y004483D02*
X009680Y004483D01*
X009816Y004325D02*
X009351Y004325D01*
X008816Y004325D02*
X005613Y004325D01*
X005613Y004483D02*
X008680Y004483D01*
X008626Y004642D02*
X005613Y004642D01*
X005613Y004800D02*
X008628Y004800D01*
X008694Y004959D02*
X005613Y004959D01*
X005613Y005117D02*
X008883Y005117D01*
X008883Y005276D02*
X005613Y005276D01*
X005613Y005434D02*
X008883Y005434D01*
X008883Y005593D02*
X005613Y005593D01*
X005613Y005751D02*
X008883Y005751D01*
X008883Y005910D02*
X005613Y005910D01*
X005613Y006068D02*
X008883Y006068D01*
X008883Y006227D02*
X005613Y006227D01*
X005613Y006385D02*
X008883Y006385D01*
X008883Y006544D02*
X005613Y006544D01*
X005613Y006702D02*
X008883Y006702D01*
X008883Y006861D02*
X005613Y006861D01*
X005613Y007019D02*
X008883Y007019D01*
X008883Y007178D02*
X005613Y007178D01*
X005613Y007336D02*
X008883Y007336D01*
X008883Y007495D02*
X005613Y007495D01*
X005613Y007653D02*
X008883Y007653D01*
X008883Y007812D02*
X005613Y007812D01*
X005613Y007970D02*
X008883Y007970D01*
X008883Y008129D02*
X005613Y008129D01*
X005613Y008287D02*
X008883Y008287D01*
X008883Y008446D02*
X005613Y008446D01*
X005613Y008604D02*
X008883Y008604D01*
X008883Y008763D02*
X005613Y008763D01*
X005613Y008921D02*
X008883Y008921D01*
X008883Y009080D02*
X005613Y009080D01*
X005613Y009238D02*
X008918Y009238D01*
X008744Y009397D02*
X005613Y009397D01*
X005613Y009555D02*
X008650Y009555D01*
X008626Y009714D02*
X005613Y009714D01*
X005613Y009872D02*
X008658Y009872D01*
X008764Y010031D02*
X005613Y010031D01*
X005613Y010189D02*
X009398Y010189D01*
X009293Y010348D02*
X005613Y010348D01*
X005613Y010506D02*
X009170Y010506D01*
X009126Y010665D02*
X005613Y010665D01*
X005613Y010823D02*
X009138Y010823D01*
X009215Y010982D02*
X005613Y010982D01*
X005613Y011140D02*
X009443Y011140D01*
X009724Y011140D02*
X010016Y011140D01*
X010175Y011299D02*
X005613Y011299D01*
X005613Y011457D02*
X010333Y011457D01*
X010492Y011616D02*
X005613Y011616D01*
X005613Y011774D02*
X010650Y011774D01*
X010809Y011933D02*
X005613Y011933D01*
X005613Y012091D02*
X010967Y012091D01*
X012303Y012683D02*
X012562Y012424D01*
X012900Y012284D01*
X013266Y012284D01*
X013604Y012424D01*
X013863Y012683D01*
X014003Y013021D01*
X014003Y013387D01*
X013863Y013725D01*
X013604Y013984D01*
X013266Y014124D01*
X012900Y014124D01*
X012562Y013984D01*
X012303Y013725D01*
X012163Y013387D01*
X012163Y013021D01*
X012303Y012683D01*
X012286Y012725D02*
X009381Y012725D01*
X009363Y012683D02*
X009104Y012424D01*
X008766Y012284D01*
X008400Y012284D01*
X008062Y012424D01*
X007803Y012683D01*
X007663Y013021D01*
X007663Y013387D01*
X007803Y013725D01*
X008062Y013984D01*
X008400Y014124D01*
X008766Y014124D01*
X009104Y013984D01*
X009363Y013725D01*
X009503Y013387D01*
X009503Y013021D01*
X009363Y012683D01*
X009247Y012567D02*
X012419Y012567D01*
X012600Y012408D02*
X009067Y012408D01*
X008100Y012408D02*
X005613Y012408D01*
X005613Y012250D02*
X017883Y012250D01*
X017883Y012408D02*
X016067Y012408D01*
X016104Y012424D02*
X016363Y012683D01*
X016503Y013021D01*
X016503Y013387D01*
X016363Y013725D01*
X016104Y013984D01*
X015766Y014124D01*
X015400Y014124D01*
X015062Y013984D01*
X014803Y013725D01*
X014663Y013387D01*
X014663Y013021D01*
X014803Y012683D01*
X015062Y012424D01*
X015400Y012284D01*
X015766Y012284D01*
X016104Y012424D01*
X016247Y012567D02*
X017883Y012567D01*
X017951Y012725D02*
X016381Y012725D01*
X016447Y012884D02*
X018110Y012884D01*
X018268Y013042D02*
X016503Y013042D01*
X016503Y013201D02*
X018427Y013201D01*
X018585Y013359D02*
X016503Y013359D01*
X016449Y013518D02*
X018744Y013518D01*
X018902Y013676D02*
X016383Y013676D01*
X016253Y013835D02*
X019061Y013835D01*
X019219Y013993D02*
X016081Y013993D01*
X015085Y013993D02*
X013581Y013993D01*
X013753Y013835D02*
X014913Y013835D01*
X014783Y013676D02*
X013883Y013676D01*
X013949Y013518D02*
X014718Y013518D01*
X014663Y013359D02*
X014003Y013359D01*
X014003Y013201D02*
X014663Y013201D01*
X014663Y013042D02*
X014003Y013042D01*
X013947Y012884D02*
X014720Y012884D01*
X014786Y012725D02*
X013881Y012725D01*
X013747Y012567D02*
X014919Y012567D01*
X015100Y012408D02*
X013567Y012408D01*
X012220Y012884D02*
X009447Y012884D01*
X009503Y013042D02*
X012163Y013042D01*
X012163Y013201D02*
X009503Y013201D01*
X009503Y013359D02*
X012163Y013359D01*
X012218Y013518D02*
X009449Y013518D01*
X009383Y013676D02*
X012283Y013676D01*
X012413Y013835D02*
X009253Y013835D01*
X009081Y013993D02*
X012585Y013993D01*
X008085Y013993D02*
X007852Y013993D01*
X007863Y014152D02*
X019378Y014152D01*
X019536Y014310D02*
X007863Y014310D01*
X007837Y014469D02*
X019695Y014469D01*
X019853Y014627D02*
X007795Y014627D01*
X007725Y014786D02*
X020003Y014786D01*
X020030Y014944D02*
X007634Y014944D01*
X007495Y015103D02*
X020145Y015103D01*
X020622Y015103D02*
X052981Y015103D01*
X052789Y014944D02*
X046296Y014944D01*
X052102Y013201D02*
X054163Y013201D01*
X054163Y013359D02*
X052222Y013359D01*
X052341Y013518D02*
X054218Y013518D01*
X054283Y013676D02*
X052460Y013676D01*
X052579Y013835D02*
X054413Y013835D01*
X054585Y013993D02*
X052699Y013993D01*
X050883Y012250D02*
X046333Y012250D01*
X046333Y011140D02*
X046443Y011140D01*
X046724Y011140D02*
X047443Y011140D01*
X047215Y010982D02*
X046952Y010982D01*
X047029Y010823D02*
X047138Y010823D01*
X047126Y010665D02*
X047040Y010665D01*
X046996Y010506D02*
X047170Y010506D01*
X047293Y010348D02*
X046874Y010348D01*
X047075Y010189D02*
X047092Y010189D01*
X047075Y010031D02*
X047092Y010031D01*
X047075Y009872D02*
X047092Y009872D01*
X047075Y009714D02*
X047092Y009714D01*
X058083Y009704D02*
X058083Y011829D01*
X059208Y012954D01*
X059233Y014854D01*
X059477Y014944D02*
X063033Y014944D01*
X062941Y014786D02*
X059492Y014786D01*
X059490Y014627D02*
X062872Y014627D01*
X062829Y014469D02*
X059488Y014469D01*
X059486Y014310D02*
X062803Y014310D01*
X062803Y014152D02*
X059484Y014152D01*
X059312Y015103D02*
X063172Y015103D01*
X062815Y013993D02*
X062581Y013993D01*
X062753Y013835D02*
X062857Y013835D01*
X062883Y013676D02*
X062910Y013676D01*
X062949Y013518D02*
X063001Y013518D01*
X063003Y013359D02*
X063118Y013359D01*
X063003Y013201D02*
X063276Y013201D01*
X063535Y013042D02*
X063003Y013042D01*
X062947Y012884D02*
X065114Y012884D01*
X065114Y013042D02*
X064632Y013042D01*
X064891Y013201D02*
X065114Y013201D01*
X065114Y013359D02*
X065049Y013359D01*
X065114Y012725D02*
X062881Y012725D01*
X062747Y012567D02*
X065114Y012567D01*
X059215Y010982D02*
X058952Y010982D01*
X059029Y010823D02*
X059138Y010823D01*
X059126Y010665D02*
X059040Y010665D01*
X058996Y010506D02*
X059170Y010506D01*
X059293Y010348D02*
X058874Y010348D01*
X059403Y010031D02*
X059764Y010031D01*
X059658Y009872D02*
X059508Y009872D01*
X059540Y009714D02*
X059626Y009714D01*
X059650Y009555D02*
X059517Y009555D01*
X059423Y009397D02*
X059744Y009397D01*
X061075Y009714D02*
X061092Y009714D01*
X061075Y009872D02*
X061092Y009872D01*
X061075Y010031D02*
X061092Y010031D01*
X061075Y010189D02*
X061092Y010189D01*
X027333Y011140D02*
X026724Y011140D01*
X027016Y011299D02*
X027301Y011299D01*
X027212Y011457D02*
X027105Y011457D01*
X027149Y011616D02*
X027203Y011616D01*
X025443Y011140D02*
X025383Y011140D01*
X025271Y012884D02*
X025883Y012884D01*
X025883Y013042D02*
X025111Y013042D01*
X026378Y014152D02*
X020085Y014152D01*
X020243Y014310D02*
X026536Y014310D01*
X026695Y014469D02*
X020568Y014469D01*
X020722Y014627D02*
X026853Y014627D01*
X027012Y014786D02*
X020763Y014786D01*
X020736Y014944D02*
X027170Y014944D01*
X019443Y011140D02*
X019373Y011140D01*
X019138Y010823D02*
X019056Y010823D01*
X019040Y010665D02*
X019126Y010665D01*
X019170Y010506D02*
X018996Y010506D01*
X017883Y010348D02*
X017874Y010348D01*
X017293Y010348D02*
X016874Y010348D01*
X016996Y010506D02*
X017170Y010506D01*
X017126Y010665D02*
X017040Y010665D01*
X017056Y010823D02*
X017138Y010823D01*
X015833Y010823D02*
X013029Y010823D01*
X013040Y010665D02*
X015833Y010665D01*
X015833Y010506D02*
X013033Y010506D01*
X013033Y010348D02*
X015833Y010348D01*
X015833Y010189D02*
X013033Y010189D01*
X013033Y010031D02*
X015764Y010031D01*
X015658Y009872D02*
X013033Y009872D01*
X013033Y009714D02*
X015626Y009714D01*
X015650Y009555D02*
X013033Y009555D01*
X013033Y009397D02*
X015744Y009397D01*
X011618Y009397D02*
X011423Y009397D01*
X011517Y009555D02*
X011546Y009555D01*
X012783Y007019D02*
X012814Y007019D01*
X012783Y006861D02*
X012973Y006861D01*
X013131Y006702D02*
X012783Y006702D01*
X012783Y006544D02*
X013290Y006544D01*
X013448Y006385D02*
X012783Y006385D01*
X012783Y006227D02*
X013607Y006227D01*
X013765Y006068D02*
X012865Y006068D01*
X012993Y005910D02*
X013924Y005910D01*
X014082Y005751D02*
X013040Y005751D01*
X013032Y005593D02*
X014241Y005593D01*
X014399Y005434D02*
X012960Y005434D01*
X012745Y005276D02*
X014558Y005276D01*
X014716Y005117D02*
X012280Y005117D01*
X012422Y005276D02*
X011833Y005276D01*
X011833Y005117D02*
X011887Y005117D01*
X011960Y005434D02*
X012206Y005434D01*
X012134Y005593D02*
X012032Y005593D01*
X012040Y005751D02*
X012126Y005751D01*
X012174Y005910D02*
X011993Y005910D01*
X011865Y006068D02*
X012283Y006068D01*
X010422Y005276D02*
X010383Y005276D01*
X012473Y004959D02*
X014875Y004959D01*
X015033Y004800D02*
X012538Y004800D01*
X012540Y004642D02*
X015192Y004642D01*
X015350Y004483D02*
X012487Y004483D01*
X012351Y004325D02*
X015509Y004325D01*
X015667Y004166D02*
X012324Y004166D01*
X012483Y004008D02*
X015826Y004008D01*
X015984Y003849D02*
X012792Y003849D01*
X007977Y002898D02*
X005613Y002898D01*
X005613Y002740D02*
X007818Y002740D01*
X007744Y002581D02*
X007190Y002581D01*
X007425Y002423D02*
X007678Y002423D01*
X007663Y002264D02*
X007583Y002264D01*
X005976Y002581D02*
X005613Y002581D01*
X005613Y002423D02*
X005742Y002423D01*
X007786Y000996D02*
X017833Y000996D01*
X017861Y000838D02*
X007706Y000838D01*
X007614Y000679D02*
X022970Y000679D01*
X023496Y000679D02*
X024954Y000679D01*
X025113Y000521D02*
X007461Y000521D01*
X021783Y003374D02*
X024433Y003374D01*
X024433Y003532D02*
X021783Y003532D01*
X021783Y003691D02*
X024433Y003691D01*
X024433Y003849D02*
X021783Y003849D01*
X021783Y004008D02*
X024433Y004008D01*
X024433Y004166D02*
X021783Y004166D01*
X021783Y004325D02*
X024433Y004325D01*
X024433Y004483D02*
X021783Y004483D01*
X021783Y004642D02*
X024433Y004642D01*
X024433Y004800D02*
X021783Y004800D01*
X021783Y004959D02*
X024433Y004959D01*
X024316Y005117D02*
X021783Y005117D01*
X021783Y005276D02*
X024158Y005276D01*
X023999Y005434D02*
X021783Y005434D01*
X021783Y005593D02*
X023841Y005593D01*
X023682Y005751D02*
X021783Y005751D01*
X021783Y005910D02*
X023524Y005910D01*
X023365Y006068D02*
X021783Y006068D01*
X021783Y006227D02*
X023207Y006227D01*
X023048Y006385D02*
X021783Y006385D01*
X021783Y006544D02*
X022890Y006544D01*
X022547Y006702D02*
X021783Y006702D01*
X021783Y006861D02*
X022461Y006861D01*
X022453Y007019D02*
X021783Y007019D01*
X021783Y007178D02*
X022520Y007178D01*
X023147Y007178D02*
X024020Y007178D01*
X023953Y007019D02*
X023213Y007019D01*
X023280Y006861D02*
X023961Y006861D01*
X024047Y006702D02*
X023438Y006702D01*
X023597Y006544D02*
X024833Y006544D01*
X024833Y006702D02*
X024619Y006702D01*
X024706Y006861D02*
X024833Y006861D01*
X024833Y007019D02*
X024752Y007019D01*
X024362Y007336D02*
X021783Y007336D01*
X021783Y007495D02*
X023955Y007495D01*
X023864Y007653D02*
X021783Y007653D01*
X021783Y007812D02*
X023822Y007812D01*
X023663Y007970D02*
X021783Y007970D01*
X021783Y008129D02*
X022021Y008129D01*
X021953Y008287D02*
X021783Y008287D01*
X021783Y008446D02*
X021960Y008446D01*
X022046Y008604D02*
X021783Y008604D01*
X021783Y008763D02*
X022383Y008763D01*
X022383Y008921D02*
X021774Y008921D01*
X021923Y009080D02*
X022383Y009080D01*
X022383Y009238D02*
X021963Y009238D01*
X022080Y009397D02*
X022383Y009397D01*
X022383Y009555D02*
X022238Y009555D01*
X022883Y009238D02*
X023333Y009238D01*
X023333Y009080D02*
X022883Y009080D01*
X022883Y008921D02*
X023333Y008921D01*
X023333Y008763D02*
X022883Y008763D01*
X022883Y008604D02*
X023333Y008604D01*
X023333Y008446D02*
X022779Y008446D01*
X022713Y008287D02*
X023361Y008287D01*
X023505Y008129D02*
X022646Y008129D01*
X025833Y007970D02*
X026333Y007970D01*
X026333Y007812D02*
X025833Y007812D01*
X026221Y007653D02*
X026333Y007653D01*
X024833Y006385D02*
X023755Y006385D01*
X023914Y006227D02*
X024833Y006227D01*
X024833Y006068D02*
X024072Y006068D01*
X024231Y005910D02*
X024833Y005910D01*
X024833Y005751D02*
X024389Y005751D01*
X024548Y005593D02*
X024833Y005593D01*
X024833Y005434D02*
X024706Y005434D01*
X018430Y006227D02*
X018333Y006227D01*
X009883Y006227D02*
X009777Y006227D01*
X021925Y003215D02*
X024433Y003215D01*
X024433Y003057D02*
X022084Y003057D01*
X022242Y002898D02*
X024433Y002898D01*
X024433Y002740D02*
X022401Y002740D01*
X022559Y002581D02*
X024433Y002581D01*
X024433Y002423D02*
X022718Y002423D01*
X022876Y002264D02*
X024433Y002264D01*
X024433Y002106D02*
X023035Y002106D01*
X023193Y001947D02*
X024433Y001947D01*
X024433Y001789D02*
X023518Y001789D01*
X023672Y001630D02*
X024433Y001630D01*
X024433Y001472D02*
X023713Y001472D01*
X023686Y001313D02*
X024433Y001313D01*
X024479Y001155D02*
X023572Y001155D01*
X023613Y000996D02*
X024637Y000996D01*
X024796Y000838D02*
X023597Y000838D01*
X007919Y012567D02*
X005613Y012567D01*
X005613Y012725D02*
X007786Y012725D01*
X007720Y012884D02*
X005613Y012884D01*
X005613Y013042D02*
X006035Y013042D01*
X005776Y013201D02*
X005613Y013201D01*
X005613Y013359D02*
X005618Y013359D01*
X007132Y013042D02*
X007663Y013042D01*
X007663Y013201D02*
X007391Y013201D01*
X007549Y013359D02*
X007663Y013359D01*
X007665Y013518D02*
X007718Y013518D01*
X007757Y013676D02*
X007783Y013676D01*
X007810Y013835D02*
X007913Y013835D01*
D13*
X012433Y011554D03*
X017383Y011504D03*
X019833Y011954D03*
X022033Y010854D03*
X021583Y009254D03*
X022333Y008354D03*
X024233Y007754D03*
X025983Y007354D03*
X027033Y007754D03*
X028283Y007304D03*
X027533Y007104D03*
X028683Y006304D03*
X028633Y005804D03*
X028783Y005204D03*
X027583Y005204D03*
X026633Y003854D03*
X026683Y002754D03*
X027983Y002504D03*
X028633Y002404D03*
X028233Y001704D03*
X026633Y001804D03*
X025933Y001404D03*
X025083Y001454D03*
X023333Y001454D03*
X023233Y000954D03*
X020833Y001454D03*
X017083Y002554D03*
X018733Y003004D03*
X016683Y003504D03*
X012633Y003504D03*
X018883Y005054D03*
X018633Y006554D03*
X021133Y006954D03*
X022833Y006954D03*
X024333Y006954D03*
X029083Y008154D03*
X029633Y008154D03*
X029483Y007354D03*
X031083Y007104D03*
X031683Y007054D03*
X032433Y007354D03*
X033383Y007504D03*
X032933Y007104D03*
X034233Y007104D03*
X036033Y007104D03*
X037333Y007104D03*
X038933Y006954D03*
X039133Y007704D03*
X038633Y007754D03*
X034833Y006454D03*
X035883Y005204D03*
X035683Y004454D03*
X033833Y003854D03*
X033983Y002804D03*
X035683Y002554D03*
X031583Y001354D03*
X031083Y001154D03*
X040733Y001454D03*
X041583Y001454D03*
X041983Y001104D03*
X042633Y001454D03*
X050483Y001754D03*
X054583Y002204D03*
X055083Y002079D03*
X055583Y002079D03*
X056083Y002079D03*
X056583Y002079D03*
X057083Y002079D03*
X057583Y002079D03*
X058083Y002204D03*
X058083Y002704D03*
X058083Y003204D03*
X058083Y003704D03*
X058083Y004204D03*
X058083Y004704D03*
X058083Y005204D03*
X058083Y005704D03*
X054583Y005704D03*
X054583Y005204D03*
X054583Y004704D03*
X054583Y004204D03*
X054583Y003704D03*
X054583Y003204D03*
X054583Y002704D03*
X050283Y004454D03*
X050283Y005054D03*
X050483Y005554D03*
X050483Y006604D03*
X051483Y007404D03*
X052783Y007404D03*
X054033Y006904D03*
X050283Y008854D03*
X046333Y007054D03*
X044983Y006204D03*
X043633Y006654D03*
X043583Y007704D03*
X043583Y008254D03*
X043633Y008904D03*
X042233Y010104D03*
X038383Y011504D03*
X039583Y011554D03*
X040033Y012204D03*
X041833Y012304D03*
X037483Y012604D03*
X032733Y011554D03*
X031033Y011954D03*
X028283Y012304D03*
X027583Y011554D03*
X026733Y011554D03*
X024633Y012404D03*
X028683Y010104D03*
X029233Y008854D03*
X032083Y007754D03*
X033783Y008554D03*
X049483Y011804D03*
X049883Y011404D03*
X052433Y011954D03*
X053733Y011554D03*
X035983Y014404D03*
X035483Y014404D03*
X020383Y014804D03*
X006833Y010704D03*
X011613Y007704D03*
X014333Y007704D03*
D14*
X012783Y007404D02*
X012783Y010504D01*
X012583Y010704D01*
X012133Y010904D02*
X012133Y010504D01*
X012533Y010104D01*
X012533Y005754D01*
X012583Y005704D01*
X011583Y005704D02*
X011583Y004554D01*
X012633Y003504D01*
X010633Y004254D02*
X009883Y004254D01*
X009633Y004504D01*
X009573Y004484D01*
X009573Y004244D01*
X008893Y004244D01*
X008633Y004504D01*
X008633Y008904D01*
X006833Y010704D01*
X009633Y010104D02*
X010133Y010604D01*
X010133Y010904D01*
X011183Y011954D01*
X018133Y011954D01*
X018133Y012554D01*
X020383Y014804D01*
X024483Y012804D02*
X022383Y010704D01*
X022383Y010054D01*
X021583Y009254D01*
X021533Y008754D02*
X019583Y010704D01*
X019383Y011154D02*
X019133Y010904D01*
X019133Y009804D01*
X019083Y009754D01*
X019083Y009704D01*
X019083Y005254D01*
X018883Y005054D01*
X018883Y003154D01*
X018733Y003004D01*
X017083Y002554D02*
X017083Y009704D01*
X016083Y009704D02*
X016083Y011154D01*
X012383Y011154D01*
X012133Y010904D01*
X011583Y010704D02*
X012433Y011554D01*
X010583Y010704D02*
X010583Y009554D01*
X010133Y009104D01*
X010133Y004754D01*
X010083Y004704D01*
X009633Y004504D02*
X009633Y005654D01*
X009583Y005704D01*
X010633Y005104D02*
X011133Y005604D01*
X011133Y007704D01*
X011193Y007704D01*
X011613Y007704D01*
X011133Y007704D02*
X011133Y008754D01*
X012083Y009704D01*
X009633Y009604D02*
X009633Y010104D01*
X009633Y009604D02*
X009133Y009104D01*
X009133Y004754D01*
X009083Y004704D01*
X010633Y005104D02*
X010633Y004254D01*
X012783Y007404D02*
X016683Y003504D01*
X020833Y001454D02*
X021133Y001754D01*
X021133Y006954D01*
X022833Y006954D02*
X024683Y005104D01*
X024683Y001304D01*
X025433Y000554D01*
X062783Y000554D01*
X062783Y002554D01*
X064333Y004104D01*
X064333Y007954D01*
X061583Y010704D01*
X060583Y010704D02*
X060583Y009554D01*
X061633Y008504D01*
X061633Y006504D01*
X062033Y006104D01*
X062033Y000929D01*
X051858Y000929D01*
X048433Y004354D01*
X048433Y004954D01*
X046333Y007054D01*
X044983Y006204D02*
X044583Y006604D01*
X044583Y010704D01*
X044633Y012154D02*
X042933Y010454D01*
X042933Y001754D01*
X042633Y001454D01*
X042233Y001354D02*
X042233Y010104D01*
X044083Y009704D02*
X044083Y009354D01*
X043633Y008904D01*
X043583Y008254D02*
X043983Y007854D01*
X043983Y006854D01*
X044583Y006254D01*
X044583Y005854D01*
X048683Y001754D01*
X050483Y001754D01*
X042233Y001354D02*
X041983Y001104D01*
X041583Y001454D02*
X041133Y001904D01*
X031083Y001904D01*
X031083Y001154D01*
X030683Y001304D02*
X030683Y001854D01*
X030983Y002154D01*
X041833Y002154D01*
X041833Y012304D01*
X040583Y011654D02*
X040583Y010704D01*
X039583Y010704D02*
X039583Y011554D01*
X040033Y012204D02*
X040583Y011654D01*
X038383Y011504D02*
X037583Y010704D01*
X037133Y010504D02*
X037133Y011704D01*
X037883Y012454D01*
X037883Y013204D01*
X036683Y014404D01*
X035983Y014404D01*
X035483Y014404D02*
X035483Y008354D01*
X034233Y007104D01*
X033383Y007504D02*
X033333Y007504D01*
X033333Y003454D01*
X033983Y002804D01*
X034133Y002404D02*
X034383Y002654D01*
X034383Y003704D01*
X035883Y005204D01*
X036383Y005604D02*
X033833Y005604D01*
X033833Y003854D01*
X035683Y004454D02*
X035733Y004304D01*
X039133Y007704D01*
X039083Y008204D02*
X038633Y007754D01*
X038533Y008204D02*
X037733Y007404D01*
X037733Y006954D01*
X036383Y005604D01*
X036883Y006454D02*
X034833Y006454D01*
X033783Y006454D01*
X033783Y008554D01*
X032083Y007754D02*
X032083Y009704D01*
X031533Y010104D02*
X031033Y010604D01*
X031033Y011954D01*
X032733Y011554D02*
X033583Y010704D01*
X032583Y010704D02*
X032583Y007504D01*
X032433Y007354D01*
X031683Y007054D02*
X031533Y007204D01*
X031533Y010104D01*
X030533Y010104D02*
X028683Y011954D01*
X028683Y012454D01*
X028433Y012704D01*
X027883Y012704D01*
X026733Y011554D01*
X027583Y011554D02*
X027583Y007754D01*
X027133Y007304D01*
X027133Y005104D01*
X027283Y004954D01*
X027283Y002454D01*
X026633Y001804D01*
X026233Y001654D02*
X026583Y001304D01*
X030683Y001304D01*
X031583Y001354D02*
X031583Y001454D01*
X040733Y001454D01*
X035683Y002554D02*
X035683Y004454D01*
X036883Y006454D02*
X036883Y009504D01*
X037083Y009704D01*
X037483Y009454D02*
X037533Y009504D01*
X037533Y010104D01*
X037133Y010504D01*
X038533Y009804D02*
X039033Y010304D01*
X039033Y014154D01*
X043933Y014154D01*
X044633Y013454D01*
X044633Y012154D01*
X046583Y010704D02*
X046583Y009554D01*
X048683Y007454D01*
X048683Y004454D01*
X050283Y004454D01*
X050283Y005054D02*
X049483Y005854D01*
X049483Y011804D01*
X049883Y011404D02*
X049883Y006154D01*
X050483Y005554D01*
X050483Y006604D02*
X051083Y007204D01*
X051083Y008854D01*
X050283Y008854D01*
X051083Y008854D02*
X051083Y009704D01*
X051083Y009754D01*
X051133Y009804D01*
X051133Y012329D01*
X053033Y014854D01*
X059233Y014854D01*
X053083Y011304D02*
X052433Y011954D01*
X053733Y011554D02*
X054583Y010704D01*
X053583Y010704D02*
X053583Y008204D01*
X052783Y007404D01*
X051583Y007504D02*
X051583Y010704D01*
X053083Y011304D02*
X053083Y009704D01*
X054083Y009704D02*
X054533Y009254D01*
X054533Y005754D01*
X054583Y005704D01*
X054573Y005704D01*
X054033Y006904D02*
X052083Y006904D01*
X052083Y009704D01*
X046083Y009704D02*
X046083Y014804D01*
X027383Y014804D01*
X026133Y013554D01*
X026133Y012554D01*
X025133Y011554D01*
X025133Y010604D01*
X024633Y010104D01*
X024633Y007254D01*
X024333Y006954D01*
X025983Y007354D02*
X026233Y007104D01*
X026233Y001654D01*
X025933Y001404D02*
X025583Y001754D01*
X025583Y010704D01*
X026583Y010704D02*
X026583Y003904D01*
X026633Y003854D01*
X027983Y004404D02*
X027983Y002504D01*
X027583Y002354D02*
X028233Y001704D01*
X028633Y002404D02*
X034133Y002404D01*
X027583Y002354D02*
X027583Y005204D01*
X027033Y004854D02*
X026883Y005004D01*
X026883Y007604D01*
X027033Y007754D01*
X028283Y007304D02*
X028283Y012304D01*
X025033Y011804D02*
X025033Y012804D01*
X024483Y012804D01*
X024633Y012404D02*
X022633Y010404D01*
X022633Y008654D01*
X022333Y008354D01*
X021533Y008754D02*
X021533Y003254D01*
X023333Y001454D01*
X023233Y000954D02*
X018083Y000954D01*
X018083Y009704D01*
X018633Y009804D02*
X018633Y006554D01*
X023583Y008404D02*
X023583Y010704D01*
X024083Y010854D02*
X024083Y009704D01*
X025083Y009704D02*
X025083Y001454D01*
X026683Y002754D02*
X027033Y003104D01*
X027033Y004854D01*
X027983Y004404D02*
X028783Y005204D01*
X028633Y005804D02*
X027533Y006904D01*
X027533Y007104D01*
X029083Y006654D02*
X029083Y008154D01*
X029633Y008154D02*
X029633Y007504D01*
X029483Y007354D01*
X030533Y007654D02*
X030533Y010104D01*
X030083Y009704D02*
X029233Y008854D01*
X028683Y010104D02*
X028683Y006304D01*
X029083Y006654D02*
X032283Y006654D01*
X032733Y007104D01*
X032933Y007104D01*
X033333Y007504D02*
X033333Y009454D01*
X033083Y009704D01*
X037483Y009454D02*
X037483Y007254D01*
X037333Y007104D01*
X036633Y007704D02*
X036033Y007104D01*
X036633Y007704D02*
X036633Y011754D01*
X037483Y012604D01*
X038533Y009804D02*
X038533Y008204D01*
X039083Y008204D02*
X039083Y009704D01*
X040083Y009704D02*
X040083Y008104D01*
X038933Y006954D01*
X043583Y006704D02*
X043633Y006654D01*
X043583Y006704D02*
X043583Y007704D01*
X051483Y007404D02*
X051583Y007504D01*
X058083Y009704D02*
X061383Y006404D01*
X061433Y006364D01*
X061433Y004704D01*
X061440Y004704D01*
X062613Y005884D02*
X063793Y004704D01*
X063802Y004704D01*
X062613Y005884D02*
X062613Y006624D01*
X062601Y006633D01*
X031083Y007104D02*
X030533Y007654D01*
X024233Y007754D02*
X023583Y008404D01*
X018633Y009804D02*
X018133Y010304D01*
X018133Y011954D01*
X018583Y010704D02*
X019833Y011954D01*
X019383Y011154D02*
X022033Y011154D01*
X022033Y010854D01*
X024083Y010854D02*
X025033Y011804D01*
X017383Y011504D02*
X016583Y010704D01*
D15*
X006583Y001454D03*
X006583Y014204D03*
X064083Y014204D03*
X064083Y001454D03*
M02*
