G75*
%MOIN*%
%OFA0B0*%
%FSLAX24Y24*%
%IPPOS*%
%LPD*%
%AMOC8*
5,1,8,0,0,1.08239X$1,22.5*
%
%ADD10C,0.0554*%
%ADD11R,0.0256X0.0669*%
%ADD12R,0.0260X0.0800*%
%ADD13R,0.0512X0.0591*%
%ADD14R,0.0394X0.0551*%
%ADD15R,0.0472X0.0315*%
%ADD16R,0.0591X0.0512*%
%ADD17R,0.2126X0.2441*%
%ADD18R,0.0394X0.0630*%
%ADD19R,0.0472X0.0276*%
%ADD20C,0.0700*%
%ADD21C,0.0160*%
%ADD22C,0.0400*%
%ADD23C,0.0140*%
%ADD24C,0.2200*%
D10*
X009083Y004704D03*
X010083Y004704D03*
X011083Y004704D03*
X012083Y004704D03*
X011583Y005704D03*
X012583Y005704D03*
X010583Y005704D03*
X009583Y005704D03*
X009083Y009704D03*
X010083Y009704D03*
X011083Y009704D03*
X012083Y009704D03*
X011583Y010704D03*
X012583Y010704D03*
X010583Y010704D03*
X009583Y010704D03*
X016083Y009704D03*
X017083Y009704D03*
X018083Y009704D03*
X019083Y009704D03*
X018583Y010704D03*
X017583Y010704D03*
X016583Y010704D03*
X019583Y010704D03*
X023083Y009704D03*
X024083Y009704D03*
X025083Y009704D03*
X026083Y009704D03*
X025583Y010704D03*
X026583Y010704D03*
X024583Y010704D03*
X023583Y010704D03*
X030083Y009704D03*
X031083Y009704D03*
X032083Y009704D03*
X033083Y009704D03*
X032583Y010704D03*
X031583Y010704D03*
X030583Y010704D03*
X033583Y010704D03*
X037083Y009704D03*
X038083Y009704D03*
X039083Y009704D03*
X040083Y009704D03*
X039583Y010704D03*
X040583Y010704D03*
X038583Y010704D03*
X037583Y010704D03*
X044083Y009704D03*
X045083Y009704D03*
X046083Y009704D03*
X047083Y009704D03*
X046583Y010704D03*
X045583Y010704D03*
X044583Y010704D03*
X047583Y010704D03*
X051083Y009704D03*
X052083Y009704D03*
X053083Y009704D03*
X054083Y009704D03*
X053583Y010704D03*
X054583Y010704D03*
X052583Y010704D03*
X051583Y010704D03*
X058083Y009704D03*
X059083Y009704D03*
X060083Y009704D03*
X061083Y009704D03*
X060583Y010704D03*
X059583Y010704D03*
X058583Y010704D03*
X061583Y010704D03*
D11*
X042833Y006086D03*
X042333Y006086D03*
X041833Y006086D03*
X041333Y006086D03*
X040833Y006086D03*
X040333Y006086D03*
X039833Y006086D03*
X039333Y006086D03*
X038833Y006086D03*
X038333Y006086D03*
X037833Y006086D03*
X037333Y006086D03*
X036833Y006086D03*
X036333Y006086D03*
X025833Y006086D03*
X025333Y006086D03*
X024833Y006086D03*
X024333Y006086D03*
X023833Y006086D03*
X023333Y006086D03*
X022833Y006086D03*
X022333Y006086D03*
X021833Y006086D03*
X021333Y006086D03*
X020833Y006086D03*
X020333Y006086D03*
X019833Y006086D03*
X019333Y006086D03*
X019333Y002322D03*
X019833Y002322D03*
X020333Y002322D03*
X020833Y002322D03*
X021333Y002322D03*
X021833Y002322D03*
X022333Y002322D03*
X022833Y002322D03*
X023333Y002322D03*
X023833Y002322D03*
X024333Y002322D03*
X024833Y002322D03*
X025333Y002322D03*
X025833Y002322D03*
X036333Y002322D03*
X036833Y002322D03*
X037333Y002322D03*
X037833Y002322D03*
X038333Y002322D03*
X038833Y002322D03*
X039333Y002322D03*
X039833Y002322D03*
X040333Y002322D03*
X040833Y002322D03*
X041333Y002322D03*
X041833Y002322D03*
X042333Y002322D03*
X042833Y002322D03*
D12*
X045833Y002274D03*
X046333Y002274D03*
X046833Y002274D03*
X047333Y002274D03*
X047833Y002274D03*
X048333Y002274D03*
X048833Y002274D03*
X049333Y002274D03*
X049833Y002274D03*
X049833Y006134D03*
X049333Y006134D03*
X048833Y006134D03*
X048333Y006134D03*
X047833Y006134D03*
X047333Y006134D03*
X046833Y006134D03*
X046333Y006134D03*
X045833Y006134D03*
X033333Y006134D03*
X032833Y006134D03*
X032333Y006134D03*
X031833Y006134D03*
X031333Y006134D03*
X030833Y006134D03*
X030333Y006134D03*
X029833Y006134D03*
X029333Y006134D03*
X029333Y002274D03*
X029833Y002274D03*
X030333Y002274D03*
X030833Y002274D03*
X031333Y002274D03*
X031833Y002274D03*
X032333Y002274D03*
X032833Y002274D03*
X033333Y002274D03*
D13*
X052709Y003204D03*
X053457Y003204D03*
X053418Y006204D03*
X052749Y006204D03*
D14*
X053083Y005287D03*
X052709Y004421D03*
X053457Y004421D03*
D15*
X015833Y005349D03*
X014833Y005349D03*
X014833Y006058D03*
X015833Y006058D03*
D16*
X059333Y006119D03*
X059333Y006788D03*
D17*
X056333Y003720D03*
D18*
X055436Y006594D03*
X057231Y006594D03*
D19*
X016312Y002454D03*
X014855Y002454D03*
D20*
X061440Y004354D02*
X061440Y005054D01*
X063802Y005054D02*
X063802Y004354D01*
X062951Y006633D02*
X062251Y006633D01*
D21*
X062601Y006633D02*
X061621Y006633D01*
X062601Y006633D01*
X062601Y007263D01*
X062201Y007263D01*
X062104Y007247D01*
X062009Y007217D01*
X061921Y007172D01*
X061841Y007113D01*
X061771Y007043D01*
X061712Y006963D01*
X061667Y006875D01*
X061637Y006780D01*
X061621Y006682D01*
X061621Y006633D01*
X061621Y006583D01*
X061637Y006485D01*
X061667Y006391D01*
X061712Y006303D01*
X061771Y006222D01*
X061841Y006152D01*
X061921Y006094D01*
X062009Y006049D01*
X062104Y006018D01*
X062201Y006003D01*
X062601Y006003D01*
X062601Y006633D01*
X062601Y006633D01*
X062601Y006633D01*
X062601Y007263D01*
X063001Y007263D01*
X063099Y007247D01*
X063193Y007217D01*
X063281Y007172D01*
X063361Y007113D01*
X063432Y007043D01*
X063490Y006963D01*
X063535Y006875D01*
X063566Y006780D01*
X063581Y006682D01*
X063581Y006633D01*
X062601Y006633D01*
X062601Y006633D01*
X062601Y006633D01*
X063581Y006633D01*
X063581Y006583D01*
X063566Y006485D01*
X063535Y006391D01*
X063490Y006303D01*
X063432Y006222D01*
X063361Y006152D01*
X063281Y006094D01*
X063193Y006049D01*
X063099Y006018D01*
X063001Y006003D01*
X062601Y006003D01*
X062601Y006633D01*
X062601Y006702D02*
X062601Y006702D01*
X062601Y006544D02*
X062601Y006544D01*
X062601Y006385D02*
X062601Y006385D01*
X062601Y006227D02*
X062601Y006227D01*
X062601Y006068D02*
X062601Y006068D01*
X061971Y006068D02*
X060443Y006068D01*
X060601Y005910D02*
X065114Y005910D01*
X065114Y006068D02*
X063231Y006068D01*
X063435Y006227D02*
X065114Y006227D01*
X065114Y006385D02*
X063532Y006385D01*
X063575Y006544D02*
X065114Y006544D01*
X065114Y006702D02*
X063578Y006702D01*
X063539Y006861D02*
X065114Y006861D01*
X065114Y007019D02*
X063449Y007019D01*
X063269Y007178D02*
X065114Y007178D01*
X065114Y007336D02*
X053163Y007336D01*
X053163Y007328D02*
X053163Y007479D01*
X053105Y007619D01*
X052999Y007726D01*
X052859Y007784D01*
X052708Y007784D01*
X052568Y007726D01*
X052461Y007619D01*
X052403Y007479D01*
X052403Y007377D01*
X052280Y007254D01*
X051833Y007254D01*
X051863Y007328D01*
X051863Y007479D01*
X051805Y007619D01*
X051699Y007726D01*
X051559Y007784D01*
X051408Y007784D01*
X051268Y007726D01*
X051196Y007654D01*
X046784Y007654D01*
X046692Y007616D01*
X046621Y007545D01*
X046583Y007454D01*
X046583Y007341D01*
X046549Y007376D01*
X046409Y007434D01*
X046258Y007434D01*
X046118Y007376D01*
X046011Y007269D01*
X045953Y007129D01*
X045953Y006978D01*
X046011Y006839D01*
X046083Y006766D01*
X046083Y006668D01*
X046038Y006714D01*
X045629Y006714D01*
X045628Y006713D01*
X045545Y006795D01*
X045475Y006866D01*
X045383Y006904D01*
X043921Y006904D01*
X043849Y006976D01*
X043709Y007034D01*
X043558Y007034D01*
X043418Y006976D01*
X043311Y006869D01*
X043253Y006729D01*
X043253Y006578D01*
X043311Y006439D01*
X043418Y006332D01*
X043558Y006274D01*
X043709Y006274D01*
X043849Y006332D01*
X043921Y006404D01*
X044655Y006404D01*
X044603Y006279D01*
X044603Y006128D01*
X044661Y005989D01*
X044768Y005882D01*
X044908Y005824D01*
X045010Y005824D01*
X045400Y005434D01*
X043837Y005434D01*
X043141Y006129D01*
X043141Y006495D01*
X043036Y006600D01*
X042631Y006600D01*
X042583Y006553D01*
X042536Y006600D01*
X042131Y006600D01*
X042083Y006553D01*
X042036Y006600D01*
X041631Y006600D01*
X041583Y006553D01*
X041536Y006600D01*
X041131Y006600D01*
X041083Y006553D01*
X041036Y006600D01*
X040631Y006600D01*
X040583Y006553D01*
X040536Y006600D01*
X040131Y006600D01*
X040083Y006553D01*
X040036Y006600D01*
X039631Y006600D01*
X039583Y006553D01*
X039536Y006600D01*
X039131Y006600D01*
X039083Y006553D01*
X039036Y006600D01*
X038677Y006600D01*
X038640Y006638D01*
X038594Y006668D01*
X038543Y006690D01*
X038489Y006700D01*
X038333Y006700D01*
X038178Y006700D01*
X038124Y006690D01*
X038073Y006668D01*
X038027Y006638D01*
X037989Y006600D01*
X037631Y006600D01*
X037583Y006553D01*
X037583Y006816D01*
X037655Y006889D01*
X037713Y007028D01*
X037713Y007179D01*
X037655Y007319D01*
X037549Y007426D01*
X037409Y007484D01*
X037258Y007484D01*
X037118Y007426D01*
X037011Y007319D01*
X036953Y007179D01*
X036953Y007028D01*
X037011Y006889D01*
X037083Y006816D01*
X037083Y006553D01*
X037036Y006600D01*
X036631Y006600D01*
X036583Y006553D01*
X036536Y006600D01*
X036131Y006600D01*
X036025Y006495D01*
X036025Y005676D01*
X036131Y005571D01*
X036536Y005571D01*
X036583Y005619D01*
X036583Y005454D01*
X036171Y005454D01*
X036099Y005526D01*
X035959Y005584D01*
X035808Y005584D01*
X035668Y005526D01*
X035561Y005419D01*
X035503Y005279D01*
X035503Y005128D01*
X035561Y004989D01*
X035668Y004882D01*
X035808Y004824D01*
X035959Y004824D01*
X036099Y004882D01*
X036171Y004954D01*
X036883Y004954D01*
X036975Y004992D01*
X037045Y005062D01*
X037083Y005154D01*
X037083Y005619D01*
X037131Y005571D01*
X037536Y005571D01*
X037583Y005619D01*
X037631Y005571D01*
X037989Y005571D01*
X038027Y005534D01*
X038073Y005503D01*
X038124Y005482D01*
X038178Y005471D01*
X038333Y005471D01*
X038333Y006086D01*
X038333Y006700D01*
X038333Y006086D01*
X038333Y006086D01*
X038333Y006086D01*
X038333Y005471D01*
X038489Y005471D01*
X038543Y005482D01*
X038583Y005499D01*
X038583Y004804D01*
X035831Y004804D01*
X035759Y004834D01*
X035608Y004834D01*
X035535Y004804D01*
X034087Y004804D01*
X036007Y006724D01*
X036109Y006724D01*
X036249Y006782D01*
X036355Y006889D01*
X036413Y007028D01*
X036413Y007179D01*
X036355Y007319D01*
X036249Y007426D01*
X036109Y007484D01*
X035958Y007484D01*
X035818Y007426D01*
X035711Y007319D01*
X035653Y007179D01*
X035653Y007077D01*
X035182Y006606D01*
X035155Y006669D01*
X035049Y006776D01*
X034909Y006834D01*
X034758Y006834D01*
X034618Y006776D01*
X034546Y006704D01*
X034187Y006704D01*
X034207Y006724D01*
X034309Y006724D01*
X034449Y006782D01*
X034555Y006889D01*
X034613Y007028D01*
X034613Y007179D01*
X034555Y007319D01*
X034449Y007426D01*
X034309Y007484D01*
X034158Y007484D01*
X034018Y007426D01*
X033911Y007319D01*
X033853Y007179D01*
X033853Y007077D01*
X033730Y006954D01*
X033283Y006954D01*
X033313Y007028D01*
X033313Y007179D01*
X033255Y007319D01*
X033149Y007426D01*
X033009Y007484D01*
X032858Y007484D01*
X032801Y007460D01*
X032755Y007569D01*
X032649Y007676D01*
X032509Y007734D01*
X032463Y007734D01*
X032463Y007829D01*
X032433Y007904D01*
X038130Y007904D01*
X038253Y007780D01*
X038253Y007678D01*
X038311Y007539D01*
X038418Y007432D01*
X038558Y007374D01*
X038709Y007374D01*
X038849Y007432D01*
X038858Y007441D01*
X038918Y007382D01*
X039058Y007324D01*
X039209Y007324D01*
X039349Y007382D01*
X039421Y007454D01*
X043083Y007454D01*
X043175Y007492D01*
X043235Y007552D01*
X043261Y007489D01*
X043368Y007382D01*
X043508Y007324D01*
X043659Y007324D01*
X043799Y007382D01*
X043905Y007489D01*
X043963Y007628D01*
X043963Y007730D01*
X044437Y008204D01*
X058533Y008204D01*
X058625Y008242D01*
X059675Y009292D01*
X059745Y009362D01*
X059755Y009386D01*
X059824Y009316D01*
X059992Y009247D01*
X060174Y009247D01*
X060342Y009316D01*
X060471Y009445D01*
X060536Y009601D01*
X060540Y009573D01*
X060567Y009490D01*
X060607Y009412D01*
X060658Y009341D01*
X060720Y009279D01*
X060791Y009227D01*
X060869Y009187D01*
X060953Y009160D01*
X061039Y009147D01*
X061075Y009147D01*
X061075Y009695D01*
X061092Y009695D01*
X061092Y009147D01*
X061127Y009147D01*
X061214Y009160D01*
X061297Y009187D01*
X061375Y009227D01*
X061446Y009279D01*
X061508Y009341D01*
X061560Y009412D01*
X061600Y009490D01*
X061627Y009573D01*
X061640Y009660D01*
X061640Y009695D01*
X061092Y009695D01*
X061092Y009712D01*
X061640Y009712D01*
X061640Y009748D01*
X061627Y009834D01*
X061600Y009918D01*
X061560Y009996D01*
X061508Y010067D01*
X061446Y010129D01*
X061375Y010180D01*
X061297Y010220D01*
X061214Y010247D01*
X061127Y010261D01*
X061092Y010261D01*
X061092Y009712D01*
X061075Y009712D01*
X061075Y010261D01*
X061039Y010261D01*
X060953Y010247D01*
X060869Y010220D01*
X060791Y010180D01*
X060720Y010129D01*
X060658Y010067D01*
X060607Y009996D01*
X060567Y009918D01*
X060540Y009834D01*
X060536Y009807D01*
X060471Y009963D01*
X060342Y010091D01*
X060333Y010095D01*
X060333Y010313D01*
X060492Y010247D01*
X060674Y010247D01*
X060842Y010316D01*
X060971Y010445D01*
X061040Y010613D01*
X061040Y010795D01*
X060971Y010963D01*
X060842Y011091D01*
X060674Y011161D01*
X060492Y011161D01*
X060324Y011091D01*
X060262Y011029D01*
X060225Y011066D01*
X059675Y011616D01*
X059583Y011654D01*
X055687Y011654D01*
X055057Y012284D01*
X055266Y012284D01*
X055604Y012424D01*
X055863Y012683D01*
X056003Y013021D01*
X056003Y013387D01*
X055863Y013725D01*
X055604Y013984D01*
X055266Y014124D01*
X054900Y014124D01*
X054562Y013984D01*
X054303Y013725D01*
X054163Y013387D01*
X054163Y013177D01*
X052975Y014366D01*
X052883Y014404D01*
X036363Y014404D01*
X036363Y014479D01*
X036305Y014619D01*
X036233Y014691D01*
X036233Y014854D01*
X036195Y014945D01*
X036125Y015016D01*
X036033Y015054D01*
X020671Y015054D01*
X020599Y015126D01*
X020483Y015174D01*
X063243Y015174D01*
X063059Y014990D01*
X062891Y014698D01*
X062803Y014372D01*
X062803Y014035D01*
X062891Y013710D01*
X063059Y013418D01*
X063297Y013180D01*
X063589Y013011D01*
X063915Y012924D01*
X064252Y012924D01*
X064577Y013011D01*
X064869Y013180D01*
X065108Y013418D01*
X065114Y013430D01*
X065114Y002228D01*
X065108Y002240D01*
X064869Y002478D01*
X064577Y002647D01*
X064252Y002734D01*
X063915Y002734D01*
X063589Y002647D01*
X063297Y002478D01*
X063059Y002240D01*
X062891Y001948D01*
X062803Y001622D01*
X062803Y001285D01*
X062891Y000960D01*
X063059Y000668D01*
X063243Y000484D01*
X041705Y000484D01*
X041725Y000492D01*
X041957Y000724D01*
X042059Y000724D01*
X042199Y000782D01*
X042305Y000889D01*
X042363Y001028D01*
X042363Y001179D01*
X042358Y001191D01*
X042418Y001132D01*
X042558Y001074D01*
X042709Y001074D01*
X042849Y001132D01*
X042955Y001239D01*
X043013Y001378D01*
X043013Y001529D01*
X042955Y001669D01*
X042849Y001776D01*
X042773Y001807D01*
X043036Y001807D01*
X043141Y001913D01*
X043141Y002731D01*
X043083Y002789D01*
X043083Y003004D01*
X043045Y003095D01*
X042975Y003166D01*
X042883Y003204D01*
X041337Y003204D01*
X041287Y003254D01*
X043530Y003254D01*
X044581Y002202D01*
X044652Y002132D01*
X044744Y002094D01*
X045523Y002094D01*
X045523Y001799D01*
X045629Y001694D01*
X046038Y001694D01*
X046083Y001739D01*
X046129Y001694D01*
X046538Y001694D01*
X046583Y001739D01*
X046629Y001694D01*
X047038Y001694D01*
X047083Y001739D01*
X047129Y001694D01*
X047538Y001694D01*
X047583Y001739D01*
X047629Y001694D01*
X048038Y001694D01*
X048083Y001739D01*
X048129Y001694D01*
X048538Y001694D01*
X048583Y001739D01*
X048629Y001694D01*
X049038Y001694D01*
X049083Y001739D01*
X049129Y001694D01*
X049487Y001694D01*
X049525Y001656D01*
X049571Y001626D01*
X049622Y001605D01*
X049676Y001594D01*
X049833Y001594D01*
X049833Y002274D01*
X049833Y002954D01*
X049676Y002954D01*
X049622Y002943D01*
X049571Y002922D01*
X049525Y002891D01*
X049487Y002854D01*
X049397Y002854D01*
X046947Y005304D01*
X047883Y005304D01*
X047975Y005342D01*
X048045Y005412D01*
X048083Y005504D01*
X048083Y005599D01*
X048083Y005599D01*
X048083Y004404D01*
X048121Y004312D01*
X048192Y004242D01*
X048284Y004204D01*
X049996Y004204D01*
X050068Y004132D01*
X050208Y004074D01*
X050359Y004074D01*
X050499Y004132D01*
X050605Y004239D01*
X050663Y004378D01*
X050663Y004529D01*
X050605Y004669D01*
X050521Y004754D01*
X050605Y004839D01*
X050663Y004978D01*
X050663Y005129D01*
X050632Y005204D01*
X050699Y005232D01*
X050805Y005339D01*
X050863Y005478D01*
X050863Y005629D01*
X050805Y005769D01*
X050699Y005876D01*
X050559Y005934D01*
X050408Y005934D01*
X050268Y005876D01*
X050196Y005804D01*
X050143Y005804D01*
X050143Y006110D01*
X050301Y006268D01*
X050408Y006224D01*
X050559Y006224D01*
X050699Y006282D01*
X050805Y006389D01*
X050863Y006528D01*
X050863Y006679D01*
X050833Y006754D01*
X052376Y006754D01*
X052360Y006747D01*
X052314Y006717D01*
X052275Y006678D01*
X052245Y006632D01*
X052224Y006581D01*
X052213Y006527D01*
X052213Y006252D01*
X052701Y006252D01*
X052701Y006779D01*
X052494Y006779D01*
X052525Y006792D01*
X052595Y006862D01*
X052757Y007024D01*
X052859Y007024D01*
X052999Y007082D01*
X053105Y007189D01*
X053163Y007328D01*
X053095Y007178D02*
X053770Y007178D01*
X053818Y007226D02*
X053711Y007119D01*
X053653Y006979D01*
X053653Y006828D01*
X053711Y006689D01*
X053721Y006679D01*
X053221Y006679D01*
X053183Y006717D01*
X053137Y006747D01*
X053086Y006768D01*
X053032Y006779D01*
X052797Y006779D01*
X052797Y006252D01*
X052701Y006252D01*
X052701Y006156D01*
X052797Y006156D01*
X052797Y005727D01*
X052706Y005637D01*
X052706Y004937D01*
X052728Y004915D01*
X052728Y004439D01*
X053080Y004439D01*
X053080Y004402D01*
X052728Y004402D01*
X052728Y003865D01*
X052934Y003865D01*
X052988Y003876D01*
X053039Y003897D01*
X053085Y003928D01*
X053124Y003967D01*
X053148Y004003D01*
X053186Y003965D01*
X053197Y003965D01*
X053197Y003679D01*
X053181Y003679D01*
X053144Y003717D01*
X053098Y003747D01*
X053047Y003768D01*
X052993Y003779D01*
X052757Y003779D01*
X052757Y003252D01*
X052661Y003252D01*
X052661Y003156D01*
X052173Y003156D01*
X052173Y002881D01*
X052184Y002827D01*
X052205Y002776D01*
X052236Y002730D01*
X052275Y002691D01*
X052321Y002660D01*
X052372Y002639D01*
X052426Y002629D01*
X052657Y002629D01*
X052151Y002004D01*
X050771Y002004D01*
X050699Y002076D01*
X050559Y002134D01*
X050408Y002134D01*
X050268Y002076D01*
X050243Y002051D01*
X050243Y002274D01*
X050243Y002701D01*
X050233Y002755D01*
X050211Y002806D01*
X050181Y002852D01*
X050142Y002891D01*
X050096Y002922D01*
X050045Y002943D01*
X049991Y002954D01*
X049833Y002954D01*
X049833Y002274D01*
X049833Y002274D01*
X049833Y002274D01*
X050243Y002274D01*
X049833Y002274D01*
X049833Y002274D01*
X049833Y001594D01*
X049991Y001594D01*
X050045Y001605D01*
X050096Y001626D01*
X050119Y001641D01*
X050161Y001539D01*
X050268Y001432D01*
X050408Y001374D01*
X050559Y001374D01*
X050699Y001432D01*
X050771Y001504D01*
X052212Y001504D01*
X052259Y001490D01*
X052362Y001501D01*
X052453Y001550D01*
X053407Y002729D01*
X053788Y002729D01*
X053893Y002834D01*
X053893Y003574D01*
X053788Y003679D01*
X053717Y003679D01*
X053717Y003965D01*
X053729Y003965D01*
X053834Y004071D01*
X053834Y004771D01*
X053729Y004876D01*
X053400Y004876D01*
X053460Y004937D01*
X053460Y005637D01*
X053415Y005682D01*
X053462Y005729D01*
X053748Y005729D01*
X053854Y005834D01*
X053854Y005954D01*
X055133Y005954D01*
X055225Y005992D01*
X055295Y006062D01*
X055332Y006099D01*
X055707Y006099D01*
X055813Y006204D01*
X055813Y006983D01*
X055707Y007089D01*
X055164Y007089D01*
X055059Y006983D01*
X055059Y006533D01*
X054980Y006454D01*
X054283Y006454D01*
X054283Y006616D01*
X054355Y006689D01*
X054413Y006828D01*
X054413Y006979D01*
X054355Y007119D01*
X054249Y007226D01*
X054109Y007284D01*
X053958Y007284D01*
X053818Y007226D01*
X053670Y007019D02*
X052752Y007019D01*
X052595Y006862D02*
X052595Y006862D01*
X052594Y006861D02*
X053653Y006861D01*
X053705Y006702D02*
X053197Y006702D01*
X052797Y006702D02*
X052701Y006702D01*
X052701Y006544D02*
X052797Y006544D01*
X052797Y006385D02*
X052701Y006385D01*
X052701Y006227D02*
X050566Y006227D01*
X050400Y006227D02*
X050260Y006227D01*
X050143Y006068D02*
X052213Y006068D01*
X052213Y006156D02*
X052213Y005881D01*
X052224Y005827D01*
X052245Y005776D01*
X052275Y005730D01*
X052314Y005691D01*
X052360Y005660D01*
X052411Y005639D01*
X052465Y005629D01*
X052701Y005629D01*
X052701Y006156D01*
X052213Y006156D01*
X052213Y006385D02*
X050802Y006385D01*
X050863Y006544D02*
X052216Y006544D01*
X052300Y006702D02*
X050854Y006702D01*
X051863Y007336D02*
X052362Y007336D01*
X052410Y007495D02*
X051857Y007495D01*
X051771Y007653D02*
X052495Y007653D01*
X053071Y007653D02*
X065114Y007653D01*
X065114Y007495D02*
X053157Y007495D01*
X054297Y007178D02*
X058790Y007178D01*
X058790Y007177D02*
X058769Y007126D01*
X058758Y007072D01*
X058758Y006836D01*
X059285Y006836D01*
X059285Y006740D01*
X058758Y006740D01*
X058758Y006505D01*
X058766Y006464D01*
X058441Y006464D01*
X058091Y006814D01*
X057995Y006854D01*
X057608Y006854D01*
X057608Y006983D01*
X057502Y007089D01*
X056960Y007089D01*
X056854Y006983D01*
X056854Y006204D01*
X056960Y006099D01*
X057502Y006099D01*
X057608Y006204D01*
X057608Y006334D01*
X057836Y006334D01*
X058113Y006057D01*
X058186Y005983D01*
X058282Y005944D01*
X058858Y005944D01*
X058858Y005789D01*
X058963Y005683D01*
X059703Y005683D01*
X059809Y005789D01*
X059809Y005859D01*
X059917Y005859D01*
X060910Y004866D01*
X060910Y004248D01*
X060990Y004054D01*
X061139Y003904D01*
X061334Y003824D01*
X061545Y003824D01*
X061740Y003904D01*
X061889Y004054D01*
X061970Y004248D01*
X061970Y005159D01*
X061889Y005354D01*
X061740Y005503D01*
X061545Y005584D01*
X061334Y005584D01*
X061139Y005503D01*
X061074Y005437D01*
X060172Y006340D01*
X060076Y006379D01*
X059863Y006379D01*
X059877Y006400D01*
X059898Y006451D01*
X059909Y006505D01*
X059909Y006740D01*
X059381Y006740D01*
X059381Y006836D01*
X059909Y006836D01*
X059909Y007072D01*
X059898Y007126D01*
X059877Y007177D01*
X059846Y007223D01*
X059807Y007262D01*
X059761Y007292D01*
X059710Y007314D01*
X059656Y007324D01*
X059381Y007324D01*
X059381Y006836D01*
X059285Y006836D01*
X059285Y007324D01*
X059010Y007324D01*
X058956Y007314D01*
X058905Y007292D01*
X058860Y007262D01*
X058821Y007223D01*
X058790Y007177D01*
X058758Y007019D02*
X057572Y007019D01*
X057608Y006861D02*
X058758Y006861D01*
X058758Y006702D02*
X058203Y006702D01*
X058361Y006544D02*
X058758Y006544D01*
X058333Y006204D02*
X057944Y006594D01*
X057231Y006594D01*
X056854Y006544D02*
X055813Y006544D01*
X055813Y006702D02*
X056854Y006702D01*
X056854Y006861D02*
X055813Y006861D01*
X055776Y007019D02*
X056890Y007019D01*
X055095Y007019D02*
X054397Y007019D01*
X054413Y006861D02*
X055059Y006861D01*
X055059Y006702D02*
X054361Y006702D01*
X054283Y006544D02*
X055059Y006544D01*
X055813Y006385D02*
X056854Y006385D01*
X056854Y006227D02*
X055813Y006227D01*
X055301Y006068D02*
X058101Y006068D01*
X057943Y006227D02*
X057608Y006227D01*
X058333Y006204D02*
X059249Y006204D01*
X059333Y006119D01*
X060024Y006119D01*
X061440Y004704D01*
X061970Y004642D02*
X063172Y004642D01*
X063172Y004704D02*
X063172Y004304D01*
X063187Y004206D01*
X063218Y004112D01*
X063263Y004024D01*
X063321Y003943D01*
X063391Y003873D01*
X063472Y003815D01*
X063560Y003770D01*
X063654Y003739D01*
X063752Y003724D01*
X063802Y003724D01*
X063851Y003724D01*
X063949Y003739D01*
X064044Y003770D01*
X064132Y003815D01*
X064212Y003873D01*
X064282Y003943D01*
X064341Y004024D01*
X064386Y004112D01*
X064416Y004206D01*
X064432Y004304D01*
X064432Y004704D01*
X064432Y005103D01*
X064416Y005201D01*
X064386Y005296D01*
X064341Y005384D01*
X064282Y005464D01*
X064212Y005534D01*
X064132Y005593D01*
X065114Y005593D01*
X065114Y005751D02*
X060760Y005751D01*
X060918Y005593D02*
X063472Y005593D01*
X063391Y005534D01*
X063321Y005464D01*
X063263Y005384D01*
X063218Y005296D01*
X063187Y005201D01*
X063172Y005103D01*
X063172Y004704D01*
X063802Y004704D01*
X063802Y004704D01*
X063802Y005684D01*
X063851Y005684D01*
X063949Y005668D01*
X064044Y005638D01*
X064132Y005593D01*
X064304Y005434D02*
X065114Y005434D01*
X065114Y005276D02*
X064392Y005276D01*
X064430Y005117D02*
X065114Y005117D01*
X065114Y004959D02*
X064432Y004959D01*
X064432Y004800D02*
X065114Y004800D01*
X065114Y004642D02*
X064432Y004642D01*
X064432Y004704D02*
X063802Y004704D01*
X064432Y004704D01*
X064432Y004483D02*
X065114Y004483D01*
X065114Y004325D02*
X064432Y004325D01*
X064403Y004166D02*
X065114Y004166D01*
X065114Y004008D02*
X064329Y004008D01*
X064179Y003849D02*
X065114Y003849D01*
X065114Y003691D02*
X056413Y003691D01*
X056413Y003640D02*
X056413Y003800D01*
X056253Y003800D01*
X056253Y005220D01*
X055243Y005220D01*
X055189Y005209D01*
X055138Y005188D01*
X055092Y005157D01*
X055053Y005118D01*
X055022Y005073D01*
X055001Y005022D01*
X054990Y004968D01*
X054990Y003800D01*
X056253Y003800D01*
X056253Y003640D01*
X054990Y003640D01*
X054990Y002471D01*
X055001Y002417D01*
X055022Y002366D01*
X055053Y002321D01*
X055092Y002282D01*
X055138Y002251D01*
X055189Y002230D01*
X055243Y002219D01*
X056253Y002219D01*
X056253Y003640D01*
X056413Y003640D01*
X057676Y003640D01*
X057676Y002471D01*
X057666Y002417D01*
X057644Y002366D01*
X057614Y002321D01*
X057575Y002282D01*
X057529Y002251D01*
X057478Y002230D01*
X057424Y002219D01*
X056413Y002219D01*
X056413Y003640D01*
X056413Y003532D02*
X056253Y003532D01*
X056253Y003374D02*
X056413Y003374D01*
X056413Y003215D02*
X056253Y003215D01*
X056253Y003057D02*
X056413Y003057D01*
X056413Y002898D02*
X056253Y002898D01*
X056253Y002740D02*
X056413Y002740D01*
X056413Y002581D02*
X056253Y002581D01*
X056253Y002423D02*
X056413Y002423D01*
X056413Y002264D02*
X056253Y002264D01*
X057549Y002264D02*
X063084Y002264D01*
X062982Y002106D02*
X052903Y002106D01*
X053031Y002264D02*
X055118Y002264D01*
X055000Y002423D02*
X053160Y002423D01*
X053288Y002581D02*
X054990Y002581D01*
X054833Y002581D02*
X057833Y002581D01*
X057676Y002581D02*
X063476Y002581D01*
X063242Y002423D02*
X057667Y002423D01*
X057833Y002423D02*
X054833Y002423D01*
X054833Y002264D02*
X057833Y002264D01*
X057833Y002204D02*
X054833Y002204D01*
X054833Y005454D01*
X057833Y005454D01*
X057833Y002204D01*
X057833Y002740D02*
X054833Y002740D01*
X054990Y002740D02*
X053799Y002740D01*
X053893Y002898D02*
X054990Y002898D01*
X054833Y002898D02*
X057833Y002898D01*
X057676Y002898D02*
X065114Y002898D01*
X065114Y002740D02*
X057676Y002740D01*
X057676Y003057D02*
X065114Y003057D01*
X065114Y003215D02*
X057676Y003215D01*
X057833Y003215D02*
X054833Y003215D01*
X054990Y003215D02*
X053893Y003215D01*
X053893Y003057D02*
X054990Y003057D01*
X054833Y003057D02*
X057833Y003057D01*
X058083Y003204D02*
X058083Y003244D01*
X062833Y003244D01*
X063802Y003724D02*
X063802Y004704D01*
X063802Y004704D01*
X063802Y005684D01*
X063752Y005684D01*
X063654Y005668D01*
X063560Y005638D01*
X063472Y005593D01*
X063300Y005434D02*
X061809Y005434D01*
X061921Y005276D02*
X063212Y005276D01*
X063174Y005117D02*
X061970Y005117D01*
X061970Y004959D02*
X063172Y004959D01*
X063172Y004800D02*
X061970Y004800D01*
X061970Y004483D02*
X063172Y004483D01*
X063172Y004325D02*
X061970Y004325D01*
X061936Y004166D02*
X063200Y004166D01*
X063274Y004008D02*
X061843Y004008D01*
X061607Y003849D02*
X063424Y003849D01*
X063802Y003849D02*
X063802Y003849D01*
X063802Y003724D02*
X063802Y004704D01*
X063802Y004704D01*
X063802Y004704D01*
X063172Y004704D01*
X063802Y004642D02*
X063802Y004642D01*
X063802Y004800D02*
X063802Y004800D01*
X063802Y004959D02*
X063802Y004959D01*
X063802Y005117D02*
X063802Y005117D01*
X063802Y005276D02*
X063802Y005276D01*
X063802Y005434D02*
X063802Y005434D01*
X063802Y005593D02*
X063802Y005593D01*
X061767Y006227D02*
X060284Y006227D01*
X059867Y006385D02*
X061670Y006385D01*
X061627Y006544D02*
X059909Y006544D01*
X059909Y006702D02*
X061624Y006702D01*
X061663Y006861D02*
X059909Y006861D01*
X059909Y007019D02*
X061753Y007019D01*
X061933Y007178D02*
X059876Y007178D01*
X059381Y007178D02*
X059285Y007178D01*
X059285Y007019D02*
X059381Y007019D01*
X059381Y006861D02*
X059285Y006861D01*
X058858Y005910D02*
X053854Y005910D01*
X053771Y005751D02*
X058895Y005751D01*
X059771Y005751D02*
X060024Y005751D01*
X060183Y005593D02*
X053460Y005593D01*
X053460Y005434D02*
X060341Y005434D01*
X060500Y005276D02*
X053460Y005276D01*
X053460Y005117D02*
X055052Y005117D01*
X054990Y004959D02*
X053460Y004959D01*
X053805Y004800D02*
X054990Y004800D01*
X054833Y004800D02*
X057833Y004800D01*
X057676Y004800D02*
X060910Y004800D01*
X060910Y004642D02*
X057676Y004642D01*
X057833Y004642D02*
X054833Y004642D01*
X054990Y004642D02*
X053834Y004642D01*
X053834Y004483D02*
X054990Y004483D01*
X054833Y004483D02*
X057833Y004483D01*
X057676Y004483D02*
X060910Y004483D01*
X060910Y004325D02*
X057676Y004325D01*
X057833Y004325D02*
X054833Y004325D01*
X054990Y004325D02*
X053834Y004325D01*
X053834Y004166D02*
X054990Y004166D01*
X054833Y004166D02*
X057833Y004166D01*
X057676Y004166D02*
X060944Y004166D01*
X061036Y004008D02*
X057676Y004008D01*
X057833Y004008D02*
X054833Y004008D01*
X054990Y004008D02*
X053771Y004008D01*
X053717Y003849D02*
X054990Y003849D01*
X054833Y003849D02*
X057833Y003849D01*
X057676Y003849D02*
X061273Y003849D01*
X063802Y004008D02*
X063802Y004008D01*
X063802Y004166D02*
X063802Y004166D01*
X063802Y004325D02*
X063802Y004325D01*
X063802Y004483D02*
X063802Y004483D01*
X065114Y003532D02*
X057676Y003532D01*
X057833Y003532D02*
X054833Y003532D01*
X054990Y003532D02*
X053893Y003532D01*
X053893Y003374D02*
X054990Y003374D01*
X054833Y003374D02*
X057833Y003374D01*
X057676Y003374D02*
X065114Y003374D01*
X065114Y002581D02*
X064690Y002581D01*
X064925Y002423D02*
X065114Y002423D01*
X065114Y002264D02*
X065083Y002264D01*
X062890Y001947D02*
X052775Y001947D01*
X052646Y001789D02*
X062848Y001789D01*
X062805Y001630D02*
X052518Y001630D01*
X052283Y001754D02*
X053457Y003204D01*
X053457Y004421D01*
X052728Y004402D02*
X052728Y004439D01*
X052691Y004439D01*
X052691Y004402D01*
X052728Y004402D01*
X052691Y004402D02*
X052691Y003865D01*
X052485Y003865D01*
X052431Y003876D01*
X052380Y003897D01*
X052334Y003928D01*
X052295Y003967D01*
X052264Y004012D01*
X052243Y004063D01*
X052232Y004118D01*
X052232Y004402D01*
X052691Y004402D01*
X052691Y004439D02*
X052232Y004439D01*
X052232Y004724D01*
X052243Y004778D01*
X052264Y004829D01*
X052295Y004875D01*
X052334Y004914D01*
X052380Y004944D01*
X052431Y004966D01*
X052485Y004976D01*
X052691Y004976D01*
X052691Y004439D01*
X052691Y004483D02*
X052728Y004483D01*
X052728Y004325D02*
X052691Y004325D01*
X052691Y004166D02*
X052728Y004166D01*
X052728Y004008D02*
X052691Y004008D01*
X052661Y003779D02*
X052426Y003779D01*
X052372Y003768D01*
X052321Y003747D01*
X052275Y003717D01*
X052236Y003678D01*
X052205Y003632D01*
X052184Y003581D01*
X052173Y003527D01*
X052173Y003252D01*
X052661Y003252D01*
X052661Y003779D01*
X052661Y003691D02*
X052757Y003691D01*
X052757Y003532D02*
X052661Y003532D01*
X052661Y003374D02*
X052757Y003374D01*
X052661Y003215D02*
X049035Y003215D01*
X048877Y003374D02*
X052173Y003374D01*
X052175Y003532D02*
X048718Y003532D01*
X048560Y003691D02*
X052249Y003691D01*
X053169Y003691D02*
X053197Y003691D01*
X053197Y003849D02*
X048401Y003849D01*
X048243Y004008D02*
X052267Y004008D01*
X052232Y004166D02*
X050533Y004166D01*
X050641Y004325D02*
X052232Y004325D01*
X052232Y004483D02*
X050663Y004483D01*
X050617Y004642D02*
X052232Y004642D01*
X052252Y004800D02*
X050567Y004800D01*
X050655Y004959D02*
X052414Y004959D01*
X052691Y004959D02*
X052706Y004959D01*
X052706Y005117D02*
X050663Y005117D01*
X050743Y005276D02*
X052706Y005276D01*
X052706Y005434D02*
X050845Y005434D01*
X050863Y005593D02*
X052706Y005593D01*
X052701Y005751D02*
X052797Y005751D01*
X052797Y005910D02*
X052701Y005910D01*
X052701Y006068D02*
X052797Y006068D01*
X052213Y005910D02*
X050617Y005910D01*
X050813Y005751D02*
X052261Y005751D01*
X050350Y005910D02*
X050143Y005910D01*
X048083Y005593D02*
X048083Y005593D01*
X048083Y005434D02*
X048054Y005434D01*
X048083Y005276D02*
X046975Y005276D01*
X047133Y005117D02*
X048083Y005117D01*
X048083Y004959D02*
X047292Y004959D01*
X047450Y004800D02*
X048083Y004800D01*
X048083Y004642D02*
X047609Y004642D01*
X047767Y004483D02*
X048083Y004483D01*
X048116Y004325D02*
X047926Y004325D01*
X048084Y004166D02*
X050033Y004166D01*
X052691Y004642D02*
X052728Y004642D01*
X052728Y004800D02*
X052691Y004800D01*
X054833Y004959D02*
X057833Y004959D01*
X057676Y004959D02*
X060817Y004959D01*
X060658Y005117D02*
X057615Y005117D01*
X057614Y005118D02*
X057575Y005157D01*
X057529Y005188D01*
X057478Y005209D01*
X057424Y005220D01*
X056413Y005220D01*
X056413Y003800D01*
X057676Y003800D01*
X057676Y004968D01*
X057666Y005022D01*
X057644Y005073D01*
X057614Y005118D01*
X057833Y005117D02*
X054833Y005117D01*
X054833Y005276D02*
X057833Y005276D01*
X057833Y005434D02*
X054833Y005434D01*
X056253Y005117D02*
X056413Y005117D01*
X056413Y004959D02*
X056253Y004959D01*
X056253Y004800D02*
X056413Y004800D01*
X056413Y004642D02*
X056253Y004642D01*
X056253Y004483D02*
X056413Y004483D01*
X056413Y004325D02*
X056253Y004325D01*
X056253Y004166D02*
X056413Y004166D01*
X056413Y004008D02*
X056253Y004008D01*
X056253Y003849D02*
X056413Y003849D01*
X056253Y003691D02*
X053717Y003691D01*
X054833Y003691D02*
X057833Y003691D01*
X052757Y003156D02*
X052757Y002752D01*
X052661Y002634D01*
X052661Y003156D01*
X052757Y003156D01*
X052757Y003057D02*
X052661Y003057D01*
X052661Y002898D02*
X052757Y002898D01*
X052747Y002740D02*
X052661Y002740D01*
X052619Y002581D02*
X050243Y002581D01*
X050243Y002423D02*
X052490Y002423D01*
X052362Y002264D02*
X050243Y002264D01*
X050243Y002106D02*
X050340Y002106D01*
X050627Y002106D02*
X052234Y002106D01*
X052229Y002740D02*
X050236Y002740D01*
X050131Y002898D02*
X052173Y002898D01*
X052173Y003057D02*
X049194Y003057D01*
X049352Y002898D02*
X049535Y002898D01*
X049833Y002898D02*
X049833Y002898D01*
X049833Y002740D02*
X049833Y002740D01*
X049833Y002581D02*
X049833Y002581D01*
X049833Y002423D02*
X049833Y002423D01*
X049833Y002264D02*
X049833Y002264D01*
X049833Y002106D02*
X049833Y002106D01*
X049833Y001947D02*
X049833Y001947D01*
X049833Y001789D02*
X049833Y001789D01*
X049833Y001630D02*
X049833Y001630D01*
X049564Y001630D02*
X042972Y001630D01*
X043013Y001472D02*
X050228Y001472D01*
X050123Y001630D02*
X050103Y001630D01*
X050739Y001472D02*
X062803Y001472D01*
X062803Y001313D02*
X042986Y001313D01*
X042872Y001155D02*
X062838Y001155D01*
X062881Y000996D02*
X042350Y000996D01*
X042363Y001155D02*
X042395Y001155D01*
X042255Y000838D02*
X062961Y000838D01*
X063052Y000679D02*
X041912Y000679D01*
X041754Y000521D02*
X063206Y000521D01*
X045534Y001789D02*
X042818Y001789D01*
X043141Y001947D02*
X045523Y001947D01*
X044715Y002106D02*
X043141Y002106D01*
X043141Y002264D02*
X044519Y002264D01*
X044361Y002423D02*
X043141Y002423D01*
X043141Y002581D02*
X044202Y002581D01*
X044044Y002740D02*
X043133Y002740D01*
X043083Y002898D02*
X043885Y002898D01*
X043727Y003057D02*
X043061Y003057D01*
X043568Y003215D02*
X041325Y003215D01*
X037333Y002754D02*
X037333Y002322D01*
X037333Y002322D01*
X037241Y002322D01*
X036833Y002322D01*
X036833Y002754D01*
X036833Y002754D01*
X036833Y002322D01*
X036833Y002322D01*
X036833Y002322D01*
X037333Y002322D01*
X037333Y002754D01*
X037333Y002754D01*
X037333Y002740D02*
X037333Y002740D01*
X037333Y002581D02*
X037333Y002581D01*
X037333Y002423D02*
X037333Y002423D01*
X037333Y002322D02*
X037333Y002322D01*
X036833Y002423D02*
X036833Y002423D01*
X036833Y002581D02*
X036833Y002581D01*
X036833Y002740D02*
X036833Y002740D01*
X036518Y002865D02*
X036430Y002954D01*
X032087Y002954D01*
X031987Y002854D01*
X032038Y002854D01*
X032083Y002808D01*
X032129Y002854D01*
X032538Y002854D01*
X032583Y002808D01*
X032629Y002854D01*
X032987Y002854D01*
X033025Y002891D01*
X033071Y002922D01*
X033122Y002943D01*
X033176Y002954D01*
X033333Y002954D01*
X033333Y002274D01*
X033333Y002274D01*
X033333Y002954D01*
X033491Y002954D01*
X033545Y002943D01*
X033596Y002922D01*
X033642Y002891D01*
X033681Y002852D01*
X033711Y002806D01*
X033733Y002755D01*
X033743Y002701D01*
X033743Y002274D01*
X033333Y002274D01*
X033333Y002274D01*
X033743Y002274D01*
X033743Y001846D01*
X033735Y001804D01*
X036083Y001804D01*
X036083Y001855D01*
X036025Y001913D01*
X036025Y002258D01*
X035980Y002304D01*
X035971Y002304D01*
X035899Y002232D01*
X035759Y002174D01*
X035608Y002174D01*
X035468Y002232D01*
X035361Y002339D01*
X035303Y002478D01*
X035303Y002629D01*
X035361Y002769D01*
X035468Y002876D01*
X035608Y002934D01*
X035759Y002934D01*
X035899Y002876D01*
X035971Y002804D01*
X036098Y002804D01*
X036131Y002837D01*
X036489Y002837D01*
X036518Y002865D01*
X036485Y002898D02*
X035845Y002898D01*
X035522Y002898D02*
X033631Y002898D01*
X033736Y002740D02*
X035349Y002740D01*
X035303Y002581D02*
X033743Y002581D01*
X033743Y002423D02*
X035326Y002423D01*
X035435Y002264D02*
X033743Y002264D01*
X033743Y002106D02*
X036025Y002106D01*
X036019Y002264D02*
X035931Y002264D01*
X036025Y001947D02*
X033743Y001947D01*
X033333Y002423D02*
X033333Y002423D01*
X033333Y002581D02*
X033333Y002581D01*
X033333Y002740D02*
X033333Y002740D01*
X033333Y002898D02*
X033333Y002898D01*
X033035Y002898D02*
X032031Y002898D01*
X029958Y003532D02*
X027858Y003532D01*
X027700Y003691D02*
X030117Y003691D01*
X030275Y003849D02*
X027541Y003849D01*
X027383Y004008D02*
X030434Y004008D01*
X030592Y004166D02*
X027224Y004166D01*
X027087Y004304D02*
X030730Y004304D01*
X029280Y002854D01*
X029129Y002854D01*
X029023Y002748D01*
X029023Y001799D01*
X029129Y001694D01*
X029538Y001694D01*
X029583Y001739D01*
X029629Y001694D01*
X030038Y001694D01*
X030083Y001739D01*
X030129Y001694D01*
X030190Y001694D01*
X030192Y001692D01*
X030703Y001180D01*
X030703Y001078D01*
X030755Y000954D01*
X029337Y000954D01*
X028613Y001677D01*
X028613Y001779D01*
X028555Y001919D01*
X028449Y002026D01*
X028309Y002084D01*
X028158Y002084D01*
X028018Y002026D01*
X027911Y001919D01*
X027853Y001779D01*
X027853Y001628D01*
X027911Y001489D01*
X028018Y001382D01*
X028158Y001324D01*
X028260Y001324D01*
X029021Y000562D01*
X029092Y000492D01*
X029111Y000484D01*
X007424Y000484D01*
X007608Y000668D01*
X007776Y000960D01*
X007863Y001285D01*
X007863Y001622D01*
X007863Y001623D01*
X008062Y001424D01*
X008400Y001284D01*
X008766Y001284D01*
X009104Y001424D01*
X009363Y001683D01*
X009503Y002021D01*
X009503Y002387D01*
X009363Y002725D01*
X009104Y002984D01*
X008766Y003124D01*
X008400Y003124D01*
X008062Y002984D01*
X007803Y002725D01*
X007663Y002387D01*
X007663Y002143D01*
X007608Y002240D01*
X007369Y002478D01*
X007077Y002647D01*
X006752Y002734D01*
X006415Y002734D01*
X006089Y002647D01*
X005797Y002478D01*
X005613Y002294D01*
X005613Y013364D01*
X005797Y013180D01*
X006089Y013011D01*
X006415Y012924D01*
X006752Y012924D01*
X007077Y013011D01*
X007369Y013180D01*
X007608Y013418D01*
X007776Y013710D01*
X007863Y014035D01*
X007863Y014372D01*
X007776Y014698D01*
X007608Y014990D01*
X007424Y015174D01*
X020284Y015174D01*
X020168Y015126D01*
X020061Y015019D01*
X020003Y014879D01*
X020003Y014728D01*
X020034Y014654D01*
X018034Y014654D01*
X017942Y014616D01*
X016503Y013177D01*
X016503Y013387D01*
X016363Y013725D01*
X016104Y013984D01*
X015766Y014124D01*
X015400Y014124D01*
X015062Y013984D01*
X014803Y013725D01*
X014663Y013387D01*
X014663Y013021D01*
X014803Y012683D01*
X015062Y012424D01*
X015400Y012284D01*
X015610Y012284D01*
X015130Y011804D01*
X012721Y011804D01*
X012649Y011876D01*
X012509Y011934D01*
X012358Y011934D01*
X012218Y011876D01*
X012111Y011769D01*
X012053Y011629D01*
X012053Y011478D01*
X012084Y011404D01*
X010984Y011404D01*
X010892Y011366D01*
X010683Y011157D01*
X010674Y011161D01*
X010492Y011161D01*
X010324Y011091D01*
X010262Y011029D01*
X009925Y011366D01*
X009833Y011404D01*
X008584Y011404D01*
X008492Y011366D01*
X008421Y011295D01*
X008383Y011204D01*
X008383Y004454D01*
X008421Y004362D01*
X008492Y004292D01*
X012192Y000592D01*
X012284Y000554D01*
X022883Y000554D01*
X022975Y000592D01*
X023016Y000633D01*
X023018Y000632D01*
X023158Y000574D01*
X023309Y000574D01*
X023449Y000632D01*
X023521Y000704D01*
X023883Y000704D01*
X023975Y000742D01*
X024045Y000812D01*
X024083Y000904D01*
X024083Y001855D01*
X024131Y001807D01*
X024536Y001807D01*
X024583Y001855D01*
X024583Y001855D01*
X024583Y001404D01*
X024621Y001312D01*
X024692Y001242D01*
X024784Y001204D01*
X024796Y001204D01*
X024868Y001132D01*
X025008Y001074D01*
X025159Y001074D01*
X025299Y001132D01*
X025405Y001239D01*
X025463Y001378D01*
X025463Y001529D01*
X025453Y001554D01*
X025584Y001554D01*
X025553Y001479D01*
X025553Y001328D01*
X025611Y001189D01*
X025718Y001082D01*
X025858Y001024D01*
X026009Y001024D01*
X026149Y001082D01*
X026221Y001154D01*
X026933Y001154D01*
X027025Y001192D01*
X027095Y001262D01*
X027957Y002124D01*
X028059Y002124D01*
X028199Y002182D01*
X028280Y002263D01*
X028311Y002189D01*
X028418Y002082D01*
X028558Y002024D01*
X028709Y002024D01*
X028849Y002082D01*
X028955Y002189D01*
X029013Y002328D01*
X029013Y002479D01*
X028955Y002619D01*
X028849Y002726D01*
X028709Y002784D01*
X028607Y002784D01*
X027087Y004304D01*
X028017Y003374D02*
X029800Y003374D01*
X029641Y003215D02*
X028175Y003215D01*
X028334Y003057D02*
X029483Y003057D01*
X029324Y002898D02*
X028492Y002898D01*
X028815Y002740D02*
X029023Y002740D01*
X029023Y002581D02*
X028971Y002581D01*
X029013Y002423D02*
X029023Y002423D01*
X029023Y002264D02*
X028987Y002264D01*
X029023Y002106D02*
X028873Y002106D01*
X029023Y001947D02*
X028527Y001947D01*
X028609Y001789D02*
X029034Y001789D01*
X028819Y001472D02*
X030412Y001472D01*
X030570Y001313D02*
X028977Y001313D01*
X029136Y001155D02*
X030703Y001155D01*
X030737Y000996D02*
X029294Y000996D01*
X028904Y000679D02*
X023496Y000679D01*
X024056Y000838D02*
X028746Y000838D01*
X028587Y000996D02*
X024083Y000996D01*
X024083Y001155D02*
X024845Y001155D01*
X024621Y001313D02*
X024083Y001313D01*
X024083Y001472D02*
X024583Y001472D01*
X024583Y001630D02*
X024083Y001630D01*
X024083Y001789D02*
X024583Y001789D01*
X025463Y001472D02*
X025553Y001472D01*
X025560Y001313D02*
X025436Y001313D01*
X025322Y001155D02*
X025645Y001155D01*
X026935Y001155D02*
X028429Y001155D01*
X028270Y001313D02*
X027146Y001313D01*
X027305Y001472D02*
X027928Y001472D01*
X027853Y001630D02*
X027463Y001630D01*
X027622Y001789D02*
X027857Y001789D01*
X027780Y001947D02*
X027939Y001947D01*
X027939Y002106D02*
X028394Y002106D01*
X028660Y001630D02*
X030253Y001630D01*
X029063Y000521D02*
X007461Y000521D01*
X007614Y000679D02*
X012104Y000679D01*
X011946Y000838D02*
X007706Y000838D01*
X007786Y000996D02*
X011787Y000996D01*
X011629Y001155D02*
X007828Y001155D01*
X007863Y001313D02*
X008329Y001313D01*
X008014Y001472D02*
X007863Y001472D01*
X008838Y001313D02*
X011470Y001313D01*
X011312Y001472D02*
X009152Y001472D01*
X009311Y001630D02*
X011153Y001630D01*
X010995Y001789D02*
X009407Y001789D01*
X009473Y001947D02*
X010836Y001947D01*
X010678Y002106D02*
X009503Y002106D01*
X009503Y002264D02*
X010519Y002264D01*
X010361Y002423D02*
X009488Y002423D01*
X009423Y002581D02*
X010202Y002581D01*
X010044Y002740D02*
X009348Y002740D01*
X009190Y002898D02*
X009885Y002898D01*
X009727Y003057D02*
X008928Y003057D01*
X009568Y003215D02*
X005613Y003215D01*
X005613Y003057D02*
X008239Y003057D01*
X007977Y002898D02*
X005613Y002898D01*
X005613Y002740D02*
X007818Y002740D01*
X007744Y002581D02*
X007190Y002581D01*
X007425Y002423D02*
X007678Y002423D01*
X007663Y002264D02*
X007583Y002264D01*
X005976Y002581D02*
X005613Y002581D01*
X005613Y002423D02*
X005742Y002423D01*
X005613Y003374D02*
X009410Y003374D01*
X009251Y003532D02*
X005613Y003532D01*
X005613Y003691D02*
X009093Y003691D01*
X008934Y003849D02*
X005613Y003849D01*
X005613Y004008D02*
X008776Y004008D01*
X008617Y004166D02*
X005613Y004166D01*
X005613Y004325D02*
X008459Y004325D01*
X008383Y004483D02*
X005613Y004483D01*
X005613Y004642D02*
X008383Y004642D01*
X008383Y004800D02*
X005613Y004800D01*
X005613Y004959D02*
X008383Y004959D01*
X008383Y005117D02*
X005613Y005117D01*
X005613Y005276D02*
X008383Y005276D01*
X008383Y005434D02*
X005613Y005434D01*
X005613Y005593D02*
X008383Y005593D01*
X008383Y005751D02*
X005613Y005751D01*
X005613Y005910D02*
X008383Y005910D01*
X008383Y006068D02*
X005613Y006068D01*
X005613Y006227D02*
X008383Y006227D01*
X008383Y006385D02*
X005613Y006385D01*
X005613Y006544D02*
X008383Y006544D01*
X008383Y006702D02*
X005613Y006702D01*
X005613Y006861D02*
X008383Y006861D01*
X008383Y007019D02*
X005613Y007019D01*
X005613Y007178D02*
X008383Y007178D01*
X008383Y007336D02*
X005613Y007336D01*
X005613Y007495D02*
X008383Y007495D01*
X008383Y007653D02*
X005613Y007653D01*
X005613Y007812D02*
X008383Y007812D01*
X008383Y007970D02*
X005613Y007970D01*
X005613Y008129D02*
X008383Y008129D01*
X008383Y008287D02*
X005613Y008287D01*
X005613Y008446D02*
X008383Y008446D01*
X008383Y008604D02*
X005613Y008604D01*
X005613Y008763D02*
X008383Y008763D01*
X008383Y008921D02*
X005613Y008921D01*
X005613Y009080D02*
X008383Y009080D01*
X008383Y009238D02*
X005613Y009238D01*
X005613Y009397D02*
X008383Y009397D01*
X008383Y009555D02*
X005613Y009555D01*
X005613Y009714D02*
X008383Y009714D01*
X008383Y009872D02*
X005613Y009872D01*
X005613Y010031D02*
X008383Y010031D01*
X008383Y010189D02*
X005613Y010189D01*
X005613Y010348D02*
X008383Y010348D01*
X008383Y010506D02*
X005613Y010506D01*
X005613Y010665D02*
X008383Y010665D01*
X008383Y010823D02*
X005613Y010823D01*
X005613Y010982D02*
X008383Y010982D01*
X008383Y011140D02*
X005613Y011140D01*
X005613Y011299D02*
X008425Y011299D01*
X009992Y011299D02*
X010825Y011299D01*
X010443Y011140D02*
X010150Y011140D01*
X011037Y010804D02*
X011137Y010904D01*
X011171Y010904D01*
X011126Y010795D01*
X011126Y010613D01*
X011196Y010445D01*
X011324Y010316D01*
X011492Y010247D01*
X011674Y010247D01*
X011842Y010316D01*
X011971Y010445D01*
X012040Y010613D01*
X012040Y010795D01*
X011995Y010904D01*
X012171Y010904D01*
X012126Y010795D01*
X012126Y010613D01*
X012196Y010445D01*
X012324Y010316D01*
X012492Y010247D01*
X012674Y010247D01*
X012842Y010316D01*
X012971Y010445D01*
X013040Y010613D01*
X013040Y010795D01*
X012995Y010904D01*
X016171Y010904D01*
X016126Y010795D01*
X016126Y010613D01*
X016196Y010445D01*
X016324Y010316D01*
X016337Y010311D01*
X016321Y010295D01*
X016183Y010157D01*
X016174Y010161D01*
X015992Y010161D01*
X015824Y010091D01*
X015696Y009963D01*
X015626Y009795D01*
X015626Y009613D01*
X015671Y009504D01*
X012604Y009504D01*
X012627Y009573D01*
X012640Y009660D01*
X012640Y009695D01*
X012092Y009695D01*
X012092Y009712D01*
X012640Y009712D01*
X012640Y009748D01*
X012627Y009834D01*
X012600Y009918D01*
X012560Y009996D01*
X012508Y010067D01*
X012446Y010129D01*
X012375Y010180D01*
X012297Y010220D01*
X012214Y010247D01*
X012127Y010261D01*
X012092Y010261D01*
X012092Y009712D01*
X012075Y009712D01*
X012075Y010261D01*
X012039Y010261D01*
X011953Y010247D01*
X011869Y010220D01*
X011791Y010180D01*
X011720Y010129D01*
X011658Y010067D01*
X011607Y009996D01*
X011567Y009918D01*
X011540Y009834D01*
X011536Y009807D01*
X011471Y009963D01*
X011342Y010091D01*
X011174Y010161D01*
X010992Y010161D01*
X010983Y010157D01*
X010830Y010311D01*
X010842Y010316D01*
X010971Y010445D01*
X011040Y010613D01*
X011040Y010795D01*
X011037Y010804D01*
X011056Y010823D02*
X011138Y010823D01*
X011126Y010665D02*
X011040Y010665D01*
X010996Y010506D02*
X011170Y010506D01*
X011293Y010348D02*
X010874Y010348D01*
X010951Y010189D02*
X011809Y010189D01*
X011874Y010348D02*
X012293Y010348D01*
X012358Y010189D02*
X016215Y010189D01*
X016321Y010295D02*
X016321Y010295D01*
X016293Y010348D02*
X012874Y010348D01*
X012996Y010506D02*
X016170Y010506D01*
X016126Y010665D02*
X013040Y010665D01*
X013029Y010823D02*
X016138Y010823D01*
X015764Y010031D02*
X012534Y010031D01*
X012614Y009872D02*
X015658Y009872D01*
X015626Y009714D02*
X012640Y009714D01*
X012621Y009555D02*
X015650Y009555D01*
X019092Y009695D02*
X019092Y009712D01*
X019640Y009712D01*
X019640Y009748D01*
X019627Y009834D01*
X019604Y009904D01*
X022180Y009904D01*
X022521Y009562D01*
X022592Y009492D01*
X022684Y009454D01*
X022692Y009454D01*
X022696Y009445D01*
X022824Y009316D01*
X022992Y009247D01*
X023174Y009247D01*
X023219Y009265D01*
X023480Y009004D01*
X021871Y009004D01*
X021905Y009039D01*
X021963Y009178D01*
X021963Y009329D01*
X021905Y009469D01*
X021799Y009576D01*
X021659Y009634D01*
X021508Y009634D01*
X021368Y009576D01*
X021296Y009504D01*
X019604Y009504D01*
X019627Y009573D01*
X019640Y009660D01*
X019640Y009695D01*
X019092Y009695D01*
X019621Y009555D02*
X021347Y009555D01*
X021819Y009555D02*
X022528Y009555D01*
X022370Y009714D02*
X019640Y009714D01*
X019614Y009872D02*
X022211Y009872D01*
X022601Y010189D02*
X025809Y010189D01*
X025791Y010180D02*
X025720Y010129D01*
X025658Y010067D01*
X025607Y009996D01*
X025567Y009918D01*
X025540Y009834D01*
X025536Y009807D01*
X025471Y009963D01*
X025342Y010091D01*
X025174Y010161D01*
X024992Y010161D01*
X024824Y010091D01*
X024696Y009963D01*
X024626Y009795D01*
X024626Y009613D01*
X024671Y009504D01*
X024637Y009504D01*
X024537Y009604D01*
X024540Y009613D01*
X024540Y009795D01*
X024471Y009963D01*
X024342Y010091D01*
X024174Y010161D01*
X023992Y010161D01*
X023824Y010091D01*
X023696Y009963D01*
X023626Y009795D01*
X023626Y009613D01*
X023660Y009530D01*
X023540Y009650D01*
X023540Y009795D01*
X023471Y009963D01*
X023342Y010091D01*
X023174Y010161D01*
X022992Y010161D01*
X022824Y010091D01*
X022762Y010029D01*
X022425Y010366D01*
X022333Y010404D01*
X019930Y010404D01*
X019971Y010445D01*
X020040Y010613D01*
X020040Y010795D01*
X019971Y010963D01*
X019930Y011004D01*
X023237Y011004D01*
X023196Y010963D01*
X023126Y010795D01*
X023126Y010613D01*
X023196Y010445D01*
X023324Y010316D01*
X023492Y010247D01*
X023674Y010247D01*
X023842Y010316D01*
X023971Y010445D01*
X024040Y010613D01*
X024040Y010795D01*
X024006Y010877D01*
X024126Y010757D01*
X024126Y010613D01*
X024196Y010445D01*
X024324Y010316D01*
X024492Y010247D01*
X024674Y010247D01*
X024842Y010316D01*
X024971Y010445D01*
X025040Y010613D01*
X025040Y010795D01*
X025037Y010804D01*
X025137Y010904D01*
X025171Y010904D01*
X025126Y010795D01*
X025126Y010613D01*
X025196Y010445D01*
X025324Y010316D01*
X025492Y010247D01*
X025674Y010247D01*
X025842Y010316D01*
X025971Y010445D01*
X026040Y010613D01*
X026040Y010795D01*
X025995Y010904D01*
X026171Y010904D01*
X026126Y010795D01*
X026126Y010613D01*
X026196Y010445D01*
X026324Y010316D01*
X026492Y010247D01*
X026674Y010247D01*
X026842Y010316D01*
X026971Y010445D01*
X027040Y010613D01*
X027040Y010795D01*
X026995Y010904D01*
X029130Y010904D01*
X029071Y010845D01*
X028710Y010484D01*
X028608Y010484D01*
X028468Y010426D01*
X028361Y010319D01*
X028303Y010179D01*
X028303Y010028D01*
X028361Y009889D01*
X028468Y009782D01*
X028608Y009724D01*
X028759Y009724D01*
X028899Y009782D01*
X029005Y009889D01*
X029063Y010028D01*
X029063Y010130D01*
X029387Y010454D01*
X030192Y010454D01*
X030196Y010445D01*
X030324Y010316D01*
X030492Y010247D01*
X030674Y010247D01*
X030842Y010316D01*
X030971Y010445D01*
X031040Y010613D01*
X031040Y010795D01*
X030995Y010904D01*
X031030Y010904D01*
X031130Y010804D01*
X031126Y010795D01*
X031126Y010613D01*
X031196Y010445D01*
X031324Y010316D01*
X031492Y010247D01*
X031674Y010247D01*
X031842Y010316D01*
X031971Y010445D01*
X032040Y010613D01*
X032040Y010795D01*
X031995Y010904D01*
X032171Y010904D01*
X032126Y010795D01*
X032126Y010613D01*
X032196Y010445D01*
X032324Y010316D01*
X032492Y010247D01*
X032674Y010247D01*
X032842Y010316D01*
X032971Y010445D01*
X033040Y010613D01*
X033040Y010795D01*
X032995Y010904D01*
X033171Y010904D01*
X033126Y010795D01*
X033126Y010613D01*
X033196Y010445D01*
X033324Y010316D01*
X033492Y010247D01*
X033674Y010247D01*
X033842Y010316D01*
X033971Y010445D01*
X034040Y010613D01*
X034040Y010795D01*
X033995Y010904D01*
X037171Y010904D01*
X037126Y010795D01*
X037126Y010613D01*
X037196Y010445D01*
X037324Y010316D01*
X037337Y010311D01*
X037183Y010157D01*
X037174Y010161D01*
X036992Y010161D01*
X036824Y010091D01*
X036696Y009963D01*
X036626Y009795D01*
X036626Y009613D01*
X036671Y009504D01*
X033604Y009504D01*
X033627Y009573D01*
X033640Y009660D01*
X033640Y009695D01*
X033092Y009695D01*
X033092Y009712D01*
X033640Y009712D01*
X033640Y009748D01*
X033627Y009834D01*
X033600Y009918D01*
X033560Y009996D01*
X033508Y010067D01*
X033446Y010129D01*
X033375Y010180D01*
X033297Y010220D01*
X033214Y010247D01*
X033127Y010261D01*
X033092Y010261D01*
X033092Y009712D01*
X033075Y009712D01*
X033075Y010261D01*
X033039Y010261D01*
X032953Y010247D01*
X032869Y010220D01*
X032791Y010180D01*
X032720Y010129D01*
X032658Y010067D01*
X032607Y009996D01*
X032567Y009918D01*
X032540Y009834D01*
X032536Y009807D01*
X032471Y009963D01*
X032342Y010091D01*
X032174Y010161D01*
X031992Y010161D01*
X031824Y010091D01*
X031696Y009963D01*
X031626Y009795D01*
X031626Y009613D01*
X031671Y009504D01*
X031495Y009504D01*
X031540Y009613D01*
X031540Y009795D01*
X031471Y009963D01*
X031342Y010091D01*
X031174Y010161D01*
X030992Y010161D01*
X030824Y010091D01*
X030696Y009963D01*
X030626Y009795D01*
X030626Y009613D01*
X030630Y009604D01*
X030530Y009504D01*
X030495Y009504D01*
X030540Y009613D01*
X030540Y009795D01*
X030471Y009963D01*
X030342Y010091D01*
X030174Y010161D01*
X029992Y010161D01*
X029824Y010091D01*
X029696Y009963D01*
X029626Y009795D01*
X029626Y009613D01*
X029671Y009504D01*
X026604Y009504D01*
X026627Y009573D01*
X026640Y009660D01*
X026640Y009695D01*
X026092Y009695D01*
X026092Y009712D01*
X026640Y009712D01*
X026640Y009748D01*
X026627Y009834D01*
X026600Y009918D01*
X026560Y009996D01*
X026508Y010067D01*
X026446Y010129D01*
X026375Y010180D01*
X026297Y010220D01*
X026214Y010247D01*
X026127Y010261D01*
X026092Y010261D01*
X026092Y009712D01*
X026075Y009712D01*
X026075Y009695D01*
X025540Y009695D01*
X025540Y009712D01*
X026075Y009712D01*
X026075Y010261D01*
X026039Y010261D01*
X025953Y010247D01*
X025869Y010220D01*
X025791Y010180D01*
X025874Y010348D02*
X026293Y010348D01*
X026358Y010189D02*
X028307Y010189D01*
X028303Y010031D02*
X026534Y010031D01*
X026614Y009872D02*
X028377Y009872D01*
X028989Y009872D02*
X029658Y009872D01*
X029626Y009714D02*
X026640Y009714D01*
X026621Y009555D02*
X029650Y009555D01*
X030517Y009555D02*
X030581Y009555D01*
X030540Y009714D02*
X030626Y009714D01*
X030658Y009872D02*
X030508Y009872D01*
X030403Y010031D02*
X030764Y010031D01*
X031403Y010031D02*
X031764Y010031D01*
X031658Y009872D02*
X031508Y009872D01*
X031540Y009714D02*
X031626Y009714D01*
X031650Y009555D02*
X031517Y009555D01*
X032403Y010031D02*
X032632Y010031D01*
X032552Y009872D02*
X032508Y009872D01*
X032809Y010189D02*
X029122Y010189D01*
X029063Y010031D02*
X029764Y010031D01*
X029281Y010348D02*
X030293Y010348D01*
X030874Y010348D02*
X031293Y010348D01*
X031170Y010506D02*
X030996Y010506D01*
X031040Y010665D02*
X031126Y010665D01*
X031110Y010823D02*
X031029Y010823D01*
X032029Y010823D02*
X032138Y010823D01*
X032126Y010665D02*
X032040Y010665D01*
X031996Y010506D02*
X032170Y010506D01*
X032293Y010348D02*
X031874Y010348D01*
X032874Y010348D02*
X033293Y010348D01*
X033358Y010189D02*
X037215Y010189D01*
X037293Y010348D02*
X033874Y010348D01*
X033996Y010506D02*
X037170Y010506D01*
X037126Y010665D02*
X034040Y010665D01*
X034029Y010823D02*
X037138Y010823D01*
X036764Y010031D02*
X033534Y010031D01*
X033614Y009872D02*
X036658Y009872D01*
X036626Y009714D02*
X033640Y009714D01*
X033621Y009555D02*
X036650Y009555D01*
X033092Y009714D02*
X033075Y009714D01*
X033075Y009872D02*
X033092Y009872D01*
X033075Y010031D02*
X033092Y010031D01*
X033075Y010189D02*
X033092Y010189D01*
X033170Y010506D02*
X032996Y010506D01*
X033040Y010665D02*
X033126Y010665D01*
X033138Y010823D02*
X033029Y010823D01*
X029049Y010823D02*
X027029Y010823D01*
X027040Y010665D02*
X028891Y010665D01*
X028732Y010506D02*
X026996Y010506D01*
X026874Y010348D02*
X028390Y010348D01*
X026170Y010506D02*
X025996Y010506D01*
X026040Y010665D02*
X026126Y010665D01*
X026138Y010823D02*
X026029Y010823D01*
X025138Y010823D02*
X025056Y010823D01*
X025040Y010665D02*
X025126Y010665D01*
X025170Y010506D02*
X024996Y010506D01*
X024874Y010348D02*
X025293Y010348D01*
X026075Y010189D02*
X026092Y010189D01*
X026075Y010031D02*
X026092Y010031D01*
X026075Y009872D02*
X026092Y009872D01*
X026075Y009714D02*
X026092Y009714D01*
X025632Y010031D02*
X025403Y010031D01*
X025508Y009872D02*
X025552Y009872D01*
X024764Y010031D02*
X024403Y010031D01*
X024508Y009872D02*
X024658Y009872D01*
X024626Y009714D02*
X024540Y009714D01*
X024585Y009555D02*
X024650Y009555D01*
X023650Y009555D02*
X023635Y009555D01*
X023626Y009714D02*
X023540Y009714D01*
X023508Y009872D02*
X023658Y009872D01*
X023764Y010031D02*
X023403Y010031D01*
X022764Y010031D02*
X022760Y010031D01*
X022443Y010348D02*
X023293Y010348D01*
X023170Y010506D02*
X019996Y010506D01*
X020040Y010665D02*
X023126Y010665D01*
X023138Y010823D02*
X020029Y010823D01*
X019952Y010982D02*
X023215Y010982D01*
X024029Y010823D02*
X024060Y010823D01*
X024040Y010665D02*
X024126Y010665D01*
X024170Y010506D02*
X023996Y010506D01*
X023874Y010348D02*
X024293Y010348D01*
X023245Y009238D02*
X021963Y009238D01*
X021935Y009397D02*
X022744Y009397D01*
X023404Y009080D02*
X021923Y009080D01*
X021984Y008504D02*
X021953Y008429D01*
X021953Y008278D01*
X022011Y008139D01*
X022083Y008066D01*
X022083Y006553D01*
X022083Y006553D01*
X022036Y006600D01*
X021890Y006600D01*
X021675Y006816D01*
X021590Y006851D01*
X021513Y006927D01*
X021513Y007029D01*
X021455Y007169D01*
X021349Y007276D01*
X021209Y007334D01*
X021058Y007334D01*
X020918Y007276D01*
X020846Y007204D01*
X016684Y007204D01*
X016592Y007166D01*
X016521Y007095D01*
X015822Y006396D01*
X015523Y006396D01*
X015431Y006304D01*
X015236Y006304D01*
X015144Y006396D01*
X014523Y006396D01*
X014417Y006290D01*
X014417Y005826D01*
X014523Y005721D01*
X014847Y005721D01*
X014813Y005687D01*
X014523Y005687D01*
X014417Y005581D01*
X014417Y005404D01*
X012930Y005404D01*
X012971Y005445D01*
X013040Y005613D01*
X013040Y005795D01*
X012971Y005963D01*
X012842Y006091D01*
X012833Y006095D01*
X012833Y006254D01*
X012795Y006345D01*
X010637Y008504D01*
X021984Y008504D01*
X021960Y008446D02*
X010695Y008446D01*
X010853Y008287D02*
X021953Y008287D01*
X022021Y008129D02*
X011012Y008129D01*
X011170Y007970D02*
X022083Y007970D01*
X022083Y007812D02*
X011329Y007812D01*
X011487Y007653D02*
X022083Y007653D01*
X022083Y007495D02*
X011646Y007495D01*
X011804Y007336D02*
X022083Y007336D01*
X022083Y007178D02*
X021447Y007178D01*
X021513Y007019D02*
X022083Y007019D01*
X022083Y006861D02*
X021580Y006861D01*
X021788Y006702D02*
X022083Y006702D01*
X021333Y006086D02*
X021333Y005471D01*
X021333Y006086D01*
X021333Y006086D01*
X021333Y006068D02*
X021333Y006068D01*
X021333Y005910D02*
X021333Y005910D01*
X021333Y005751D02*
X021333Y005751D01*
X021333Y005593D02*
X021333Y005593D01*
X021333Y005471D02*
X021489Y005471D01*
X021543Y005482D01*
X021594Y005503D01*
X021640Y005534D01*
X021677Y005571D01*
X021763Y005571D01*
X022780Y004554D01*
X022237Y004554D01*
X021995Y004795D01*
X021925Y004866D01*
X021833Y004904D01*
X018837Y004904D01*
X018537Y005204D01*
X019483Y005204D01*
X019575Y005242D01*
X019904Y005571D01*
X020036Y005571D01*
X020083Y005619D01*
X020131Y005571D01*
X020536Y005571D01*
X020583Y005619D01*
X020631Y005571D01*
X020989Y005571D01*
X021027Y005534D01*
X021073Y005503D01*
X021124Y005482D01*
X021178Y005471D01*
X021333Y005471D01*
X021899Y005434D02*
X019767Y005434D01*
X019609Y005276D02*
X022058Y005276D01*
X022216Y005117D02*
X018623Y005117D01*
X018782Y004959D02*
X022375Y004959D01*
X022533Y004800D02*
X021990Y004800D01*
X022149Y004642D02*
X022692Y004642D01*
X021583Y004004D02*
X021583Y002789D01*
X021536Y002837D01*
X021131Y002837D01*
X021083Y002789D01*
X021036Y002837D01*
X020677Y002837D01*
X020640Y002874D01*
X020594Y002905D01*
X020543Y002926D01*
X020489Y002937D01*
X020333Y002937D01*
X020178Y002937D01*
X020124Y002926D01*
X020083Y002909D01*
X020043Y002926D01*
X019989Y002937D01*
X019833Y002937D01*
X019678Y002937D01*
X019624Y002926D01*
X019583Y002909D01*
X019543Y002926D01*
X019489Y002937D01*
X019333Y002937D01*
X019178Y002937D01*
X019124Y002926D01*
X019073Y002905D01*
X019027Y002874D01*
X018988Y002835D01*
X018957Y002789D01*
X018936Y002738D01*
X018925Y002684D01*
X018925Y002322D01*
X019333Y002322D01*
X019333Y002322D01*
X019333Y002937D01*
X019333Y002322D01*
X019333Y002322D01*
X018925Y002322D01*
X018925Y001960D01*
X018936Y001906D01*
X018957Y001855D01*
X018988Y001809D01*
X019027Y001770D01*
X019073Y001739D01*
X019124Y001718D01*
X019178Y001707D01*
X019333Y001707D01*
X019333Y002322D01*
X019333Y002322D01*
X019333Y001707D01*
X019489Y001707D01*
X019543Y001718D01*
X019583Y001735D01*
X019624Y001718D01*
X019678Y001707D01*
X019833Y001707D01*
X019833Y002322D01*
X019833Y002322D01*
X019741Y002322D01*
X019333Y002322D01*
X019333Y002322D01*
X019833Y002322D01*
X019833Y002937D01*
X019833Y002322D01*
X019833Y002322D01*
X019833Y002322D01*
X019833Y001707D01*
X019989Y001707D01*
X020043Y001718D01*
X020083Y001735D01*
X020124Y001718D01*
X020178Y001707D01*
X020333Y001707D01*
X020333Y002322D01*
X020333Y002322D01*
X020241Y002322D01*
X019833Y002322D01*
X019833Y002322D01*
X020333Y002322D01*
X020333Y002937D01*
X020333Y002322D01*
X020333Y002322D01*
X020333Y002322D01*
X020333Y001707D01*
X020489Y001707D01*
X020543Y001718D01*
X020572Y001730D01*
X020511Y001669D01*
X020453Y001529D01*
X020453Y001378D01*
X020484Y001304D01*
X019237Y001304D01*
X017063Y003477D01*
X017063Y003579D01*
X017005Y003719D01*
X016899Y003826D01*
X016759Y003884D01*
X016608Y003884D01*
X016468Y003826D01*
X016361Y003719D01*
X016303Y003579D01*
X016303Y003428D01*
X016361Y003289D01*
X016468Y003182D01*
X016608Y003124D01*
X016710Y003124D01*
X016931Y002902D01*
X016868Y002876D01*
X016796Y002804D01*
X016384Y002804D01*
X016306Y002772D01*
X016001Y002772D01*
X015895Y002666D01*
X015895Y002241D01*
X016001Y002136D01*
X016622Y002136D01*
X016728Y002241D01*
X016728Y002304D01*
X016796Y002304D01*
X016868Y002232D01*
X017008Y002174D01*
X017159Y002174D01*
X017299Y002232D01*
X017405Y002339D01*
X017432Y002402D01*
X018780Y001054D01*
X012437Y001054D01*
X009224Y004267D01*
X009342Y004316D01*
X009471Y004445D01*
X009540Y004613D01*
X009540Y004795D01*
X009471Y004963D01*
X009342Y005091D01*
X009174Y005161D01*
X008992Y005161D01*
X008883Y005116D01*
X008883Y009292D01*
X008992Y009247D01*
X009174Y009247D01*
X009183Y009250D01*
X012333Y006100D01*
X012333Y006095D01*
X012324Y006091D01*
X012196Y005963D01*
X012126Y005795D01*
X012126Y005613D01*
X012196Y005445D01*
X012237Y005404D01*
X011930Y005404D01*
X011971Y005445D01*
X012040Y005613D01*
X012040Y005795D01*
X011971Y005963D01*
X011842Y006091D01*
X011674Y006161D01*
X011492Y006161D01*
X011324Y006091D01*
X011196Y005963D01*
X011126Y005795D01*
X011126Y005613D01*
X011196Y005445D01*
X011037Y005604D01*
X011040Y005613D01*
X011040Y005795D01*
X010971Y005963D01*
X010842Y006091D01*
X010674Y006161D01*
X010492Y006161D01*
X010324Y006091D01*
X010196Y005963D01*
X010131Y005807D01*
X010127Y005834D01*
X010100Y005918D01*
X010060Y005996D01*
X010008Y006067D01*
X009946Y006129D01*
X009875Y006180D01*
X009797Y006220D01*
X009714Y006247D01*
X009627Y006261D01*
X009592Y006261D01*
X009592Y005712D01*
X009575Y005712D01*
X009575Y005695D01*
X009592Y005695D01*
X009592Y005147D01*
X009627Y005147D01*
X009714Y005160D01*
X009797Y005187D01*
X009875Y005227D01*
X009946Y005279D01*
X010008Y005341D01*
X010060Y005412D01*
X010100Y005490D01*
X010127Y005573D01*
X010131Y005601D01*
X010196Y005445D01*
X010324Y005316D01*
X010492Y005247D01*
X010674Y005247D01*
X010683Y005250D01*
X010837Y005097D01*
X010824Y005091D01*
X010696Y004963D01*
X010626Y004795D01*
X010626Y004613D01*
X010696Y004445D01*
X010824Y004316D01*
X010992Y004247D01*
X011174Y004247D01*
X011183Y004250D01*
X011392Y004042D01*
X011484Y004004D01*
X021583Y004004D01*
X021583Y003849D02*
X016842Y003849D01*
X017017Y003691D02*
X021583Y003691D01*
X021583Y003532D02*
X017063Y003532D01*
X017167Y003374D02*
X021583Y003374D01*
X021583Y003215D02*
X017325Y003215D01*
X017484Y003057D02*
X021583Y003057D01*
X021583Y002898D02*
X020603Y002898D01*
X020333Y002898D02*
X020333Y002898D01*
X020333Y002740D02*
X020333Y002740D01*
X020333Y002581D02*
X020333Y002581D01*
X020333Y002423D02*
X020333Y002423D01*
X020333Y002264D02*
X020333Y002264D01*
X020333Y002106D02*
X020333Y002106D01*
X020333Y001947D02*
X020333Y001947D01*
X020333Y001789D02*
X020333Y001789D01*
X020495Y001630D02*
X018910Y001630D01*
X019008Y001789D02*
X018752Y001789D01*
X018593Y001947D02*
X018928Y001947D01*
X018925Y002106D02*
X018435Y002106D01*
X018276Y002264D02*
X018925Y002264D01*
X018925Y002423D02*
X018118Y002423D01*
X017959Y002581D02*
X018925Y002581D01*
X018937Y002740D02*
X017801Y002740D01*
X017642Y002898D02*
X019063Y002898D01*
X019333Y002898D02*
X019333Y002898D01*
X019333Y002740D02*
X019333Y002740D01*
X019333Y002581D02*
X019333Y002581D01*
X019333Y002423D02*
X019333Y002423D01*
X019333Y002264D02*
X019333Y002264D01*
X019333Y002106D02*
X019333Y002106D01*
X019333Y001947D02*
X019333Y001947D01*
X019333Y001789D02*
X019333Y001789D01*
X019069Y001472D02*
X020453Y001472D01*
X020480Y001313D02*
X019227Y001313D01*
X018679Y001155D02*
X012336Y001155D01*
X012177Y001313D02*
X012829Y001313D01*
X012900Y001284D02*
X013266Y001284D01*
X013604Y001424D01*
X013863Y001683D01*
X014003Y002021D01*
X014003Y002387D01*
X013863Y002725D01*
X013604Y002984D01*
X013266Y003124D01*
X012900Y003124D01*
X012562Y002984D01*
X012303Y002725D01*
X012163Y002387D01*
X012163Y002021D01*
X012303Y001683D01*
X012562Y001424D01*
X012900Y001284D01*
X012514Y001472D02*
X012019Y001472D01*
X011860Y001630D02*
X012356Y001630D01*
X012259Y001789D02*
X011702Y001789D01*
X011543Y001947D02*
X012194Y001947D01*
X012163Y002106D02*
X011385Y002106D01*
X011226Y002264D02*
X012163Y002264D01*
X012178Y002423D02*
X011068Y002423D01*
X010909Y002581D02*
X012244Y002581D01*
X012318Y002740D02*
X010751Y002740D01*
X010592Y002898D02*
X012477Y002898D01*
X012558Y003124D02*
X012709Y003124D01*
X012849Y003182D01*
X012921Y003254D01*
X013680Y003254D01*
X014439Y002495D01*
X014439Y002241D01*
X014544Y002136D01*
X015166Y002136D01*
X015271Y002241D01*
X015271Y002666D01*
X015166Y002772D01*
X014869Y002772D01*
X013995Y003645D01*
X013925Y003716D01*
X013833Y003754D01*
X012921Y003754D01*
X012849Y003826D01*
X012709Y003884D01*
X012558Y003884D01*
X012418Y003826D01*
X012311Y003719D01*
X012253Y003579D01*
X012253Y003428D01*
X012311Y003289D01*
X012418Y003182D01*
X012558Y003124D01*
X012739Y003057D02*
X010434Y003057D01*
X010275Y003215D02*
X012384Y003215D01*
X012276Y003374D02*
X010117Y003374D01*
X009958Y003532D02*
X012253Y003532D01*
X012299Y003691D02*
X009800Y003691D01*
X009641Y003849D02*
X012474Y003849D01*
X012792Y003849D02*
X016524Y003849D01*
X016349Y003691D02*
X013950Y003691D01*
X014108Y003532D02*
X016303Y003532D01*
X016326Y003374D02*
X014267Y003374D01*
X014425Y003215D02*
X016434Y003215D01*
X016777Y003057D02*
X014584Y003057D01*
X014742Y002898D02*
X016922Y002898D01*
X015969Y002740D02*
X015198Y002740D01*
X015271Y002581D02*
X015895Y002581D01*
X015895Y002423D02*
X015271Y002423D01*
X015271Y002264D02*
X015895Y002264D01*
X016728Y002264D02*
X016835Y002264D01*
X017331Y002264D02*
X017569Y002264D01*
X017728Y002106D02*
X014003Y002106D01*
X014003Y002264D02*
X014439Y002264D01*
X014439Y002423D02*
X013988Y002423D01*
X013923Y002581D02*
X014352Y002581D01*
X014194Y002740D02*
X013848Y002740D01*
X013690Y002898D02*
X014035Y002898D01*
X013877Y003057D02*
X013428Y003057D01*
X013718Y003215D02*
X012882Y003215D01*
X011474Y004008D02*
X009483Y004008D01*
X009324Y004166D02*
X011267Y004166D01*
X010816Y004325D02*
X010351Y004325D01*
X010342Y004316D02*
X010471Y004445D01*
X010540Y004613D01*
X010540Y004795D01*
X010471Y004963D01*
X010342Y005091D01*
X010174Y005161D01*
X009992Y005161D01*
X009824Y005091D01*
X009696Y004963D01*
X009626Y004795D01*
X009626Y004613D01*
X009696Y004445D01*
X009824Y004316D01*
X009992Y004247D01*
X010174Y004247D01*
X010342Y004316D01*
X010487Y004483D02*
X010680Y004483D01*
X010626Y004642D02*
X010540Y004642D01*
X010538Y004800D02*
X010628Y004800D01*
X010694Y004959D02*
X010473Y004959D01*
X010280Y005117D02*
X010816Y005117D01*
X010422Y005276D02*
X009942Y005276D01*
X009887Y005117D02*
X009280Y005117D01*
X009291Y005227D02*
X009369Y005187D01*
X009453Y005160D01*
X009539Y005147D01*
X009575Y005147D01*
X009575Y005695D01*
X009026Y005695D01*
X009026Y005660D01*
X009040Y005573D01*
X009067Y005490D01*
X009107Y005412D01*
X009158Y005341D01*
X009220Y005279D01*
X009291Y005227D01*
X009225Y005276D02*
X008883Y005276D01*
X008883Y005434D02*
X009095Y005434D01*
X009037Y005593D02*
X008883Y005593D01*
X008883Y005751D02*
X009027Y005751D01*
X009026Y005748D02*
X009026Y005712D01*
X009575Y005712D01*
X009575Y006261D01*
X009539Y006261D01*
X009453Y006247D01*
X009369Y006220D01*
X009291Y006180D01*
X009220Y006129D01*
X009158Y006067D01*
X009107Y005996D01*
X009067Y005918D01*
X009040Y005834D01*
X009026Y005748D01*
X009064Y005910D02*
X008883Y005910D01*
X008883Y006068D02*
X009160Y006068D01*
X009390Y006227D02*
X008883Y006227D01*
X008883Y006385D02*
X012048Y006385D01*
X012207Y006227D02*
X009777Y006227D01*
X009592Y006227D02*
X009575Y006227D01*
X009575Y006068D02*
X009592Y006068D01*
X009575Y005910D02*
X009592Y005910D01*
X009575Y005751D02*
X009592Y005751D01*
X009575Y005593D02*
X009592Y005593D01*
X009575Y005434D02*
X009592Y005434D01*
X009575Y005276D02*
X009592Y005276D01*
X010071Y005434D02*
X010206Y005434D01*
X010134Y005593D02*
X010130Y005593D01*
X011048Y005593D02*
X011134Y005593D01*
X011126Y005751D02*
X011040Y005751D01*
X010993Y005910D02*
X011174Y005910D01*
X011301Y006068D02*
X010865Y006068D01*
X010301Y006068D02*
X010007Y006068D01*
X010102Y005910D02*
X010174Y005910D01*
X011865Y006068D02*
X012301Y006068D01*
X012174Y005910D02*
X011993Y005910D01*
X012040Y005751D02*
X012126Y005751D01*
X012134Y005593D02*
X012032Y005593D01*
X011960Y005434D02*
X012206Y005434D01*
X012960Y005434D02*
X014417Y005434D01*
X014428Y005593D02*
X013032Y005593D01*
X013040Y005751D02*
X014492Y005751D01*
X014417Y005910D02*
X012993Y005910D01*
X012865Y006068D02*
X014417Y006068D01*
X014417Y006227D02*
X012833Y006227D01*
X012755Y006385D02*
X014512Y006385D01*
X015154Y006385D02*
X015512Y006385D01*
X015970Y006544D02*
X012597Y006544D01*
X012438Y006702D02*
X016128Y006702D01*
X016287Y006861D02*
X012280Y006861D01*
X012121Y007019D02*
X016445Y007019D01*
X016621Y007178D02*
X011963Y007178D01*
X011414Y007019D02*
X008883Y007019D01*
X008883Y006861D02*
X011573Y006861D01*
X011731Y006702D02*
X008883Y006702D01*
X008883Y006544D02*
X011890Y006544D01*
X011256Y007178D02*
X008883Y007178D01*
X008883Y007336D02*
X011097Y007336D01*
X010939Y007495D02*
X008883Y007495D01*
X008883Y007653D02*
X010780Y007653D01*
X010622Y007812D02*
X008883Y007812D01*
X008883Y007970D02*
X010463Y007970D01*
X010305Y008129D02*
X008883Y008129D01*
X008883Y008287D02*
X010146Y008287D01*
X009988Y008446D02*
X008883Y008446D01*
X008883Y008604D02*
X009829Y008604D01*
X009671Y008763D02*
X008883Y008763D01*
X008883Y008921D02*
X009512Y008921D01*
X009354Y009080D02*
X008883Y009080D01*
X008883Y009238D02*
X009195Y009238D01*
X011403Y010031D02*
X011632Y010031D01*
X011552Y009872D02*
X011508Y009872D01*
X012075Y009872D02*
X012092Y009872D01*
X012075Y009714D02*
X012092Y009714D01*
X012075Y010031D02*
X012092Y010031D01*
X012075Y010189D02*
X012092Y010189D01*
X012170Y010506D02*
X011996Y010506D01*
X012040Y010665D02*
X012126Y010665D01*
X012138Y010823D02*
X012029Y010823D01*
X012062Y011457D02*
X005613Y011457D01*
X005613Y011616D02*
X012053Y011616D01*
X012116Y011774D02*
X005613Y011774D01*
X005613Y011933D02*
X012355Y011933D01*
X012511Y011933D02*
X015259Y011933D01*
X015417Y012091D02*
X005613Y012091D01*
X005613Y012250D02*
X015576Y012250D01*
X015100Y012408D02*
X013567Y012408D01*
X013604Y012424D02*
X013863Y012683D01*
X014003Y013021D01*
X014003Y013387D01*
X013863Y013725D01*
X013604Y013984D01*
X013266Y014124D01*
X012900Y014124D01*
X012562Y013984D01*
X012303Y013725D01*
X012163Y013387D01*
X012163Y013021D01*
X012303Y012683D01*
X012562Y012424D01*
X012900Y012284D01*
X013266Y012284D01*
X013604Y012424D01*
X013747Y012567D02*
X014919Y012567D01*
X014786Y012725D02*
X013881Y012725D01*
X013947Y012884D02*
X014720Y012884D01*
X014663Y013042D02*
X014003Y013042D01*
X014003Y013201D02*
X014663Y013201D01*
X014663Y013359D02*
X014003Y013359D01*
X013949Y013518D02*
X014718Y013518D01*
X014783Y013676D02*
X013883Y013676D01*
X013753Y013835D02*
X014913Y013835D01*
X015085Y013993D02*
X013581Y013993D01*
X012585Y013993D02*
X009081Y013993D01*
X009104Y013984D02*
X008766Y014124D01*
X008400Y014124D01*
X008062Y013984D01*
X007803Y013725D01*
X007663Y013387D01*
X007663Y013021D01*
X007803Y012683D01*
X008062Y012424D01*
X008400Y012284D01*
X008766Y012284D01*
X009104Y012424D01*
X009363Y012683D01*
X009503Y013021D01*
X009503Y013387D01*
X009363Y013725D01*
X009104Y013984D01*
X009253Y013835D02*
X012413Y013835D01*
X012283Y013676D02*
X009383Y013676D01*
X009449Y013518D02*
X012218Y013518D01*
X012163Y013359D02*
X009503Y013359D01*
X009503Y013201D02*
X012163Y013201D01*
X012163Y013042D02*
X009503Y013042D01*
X009447Y012884D02*
X012220Y012884D01*
X012286Y012725D02*
X009381Y012725D01*
X009247Y012567D02*
X012419Y012567D01*
X012600Y012408D02*
X009067Y012408D01*
X008100Y012408D02*
X005613Y012408D01*
X005613Y012567D02*
X007919Y012567D01*
X007786Y012725D02*
X005613Y012725D01*
X005613Y012884D02*
X007720Y012884D01*
X007663Y013042D02*
X007132Y013042D01*
X007391Y013201D02*
X007663Y013201D01*
X007663Y013359D02*
X007549Y013359D01*
X007665Y013518D02*
X007718Y013518D01*
X007757Y013676D02*
X007783Y013676D01*
X007810Y013835D02*
X007913Y013835D01*
X007852Y013993D02*
X008085Y013993D01*
X007863Y014152D02*
X017478Y014152D01*
X017636Y014310D02*
X007863Y014310D01*
X007837Y014469D02*
X017795Y014469D01*
X017970Y014627D02*
X007795Y014627D01*
X007725Y014786D02*
X020003Y014786D01*
X020030Y014944D02*
X007634Y014944D01*
X007495Y015103D02*
X020145Y015103D01*
X020622Y015103D02*
X063172Y015103D01*
X063033Y014944D02*
X036196Y014944D01*
X036233Y014786D02*
X062941Y014786D01*
X062872Y014627D02*
X036297Y014627D01*
X036363Y014469D02*
X062829Y014469D01*
X062803Y014310D02*
X053030Y014310D01*
X053189Y014152D02*
X062803Y014152D01*
X062815Y013993D02*
X062581Y013993D01*
X062604Y013984D02*
X062266Y014124D01*
X061900Y014124D01*
X061562Y013984D01*
X061303Y013725D01*
X061163Y013387D01*
X061163Y013021D01*
X061303Y012683D01*
X061562Y012424D01*
X061900Y012284D01*
X062266Y012284D01*
X062604Y012424D01*
X062863Y012683D01*
X063003Y013021D01*
X063003Y013387D01*
X062863Y013725D01*
X062604Y013984D01*
X062753Y013835D02*
X062857Y013835D01*
X062883Y013676D02*
X062910Y013676D01*
X062949Y013518D02*
X063001Y013518D01*
X063003Y013359D02*
X063118Y013359D01*
X063003Y013201D02*
X063276Y013201D01*
X063535Y013042D02*
X063003Y013042D01*
X062947Y012884D02*
X065114Y012884D01*
X065114Y013042D02*
X064632Y013042D01*
X064891Y013201D02*
X065114Y013201D01*
X065114Y013359D02*
X065049Y013359D01*
X065114Y012725D02*
X062881Y012725D01*
X062747Y012567D02*
X065114Y012567D01*
X065114Y012408D02*
X062567Y012408D01*
X061600Y012408D02*
X058067Y012408D01*
X058104Y012424D02*
X058363Y012683D01*
X058503Y013021D01*
X058503Y013387D01*
X058363Y013725D01*
X058104Y013984D01*
X057766Y014124D01*
X057400Y014124D01*
X057062Y013984D01*
X056803Y013725D01*
X056663Y013387D01*
X056663Y013021D01*
X056803Y012683D01*
X057062Y012424D01*
X057400Y012284D01*
X057766Y012284D01*
X058104Y012424D01*
X058247Y012567D02*
X061419Y012567D01*
X061286Y012725D02*
X058381Y012725D01*
X058447Y012884D02*
X061220Y012884D01*
X061163Y013042D02*
X058503Y013042D01*
X058503Y013201D02*
X061163Y013201D01*
X061163Y013359D02*
X058503Y013359D01*
X058449Y013518D02*
X061218Y013518D01*
X061283Y013676D02*
X058383Y013676D01*
X058253Y013835D02*
X061413Y013835D01*
X061585Y013993D02*
X058081Y013993D01*
X057085Y013993D02*
X055581Y013993D01*
X055753Y013835D02*
X056913Y013835D01*
X056783Y013676D02*
X055883Y013676D01*
X055949Y013518D02*
X056718Y013518D01*
X056663Y013359D02*
X056003Y013359D01*
X056003Y013201D02*
X056663Y013201D01*
X056663Y013042D02*
X056003Y013042D01*
X055947Y012884D02*
X056720Y012884D01*
X056786Y012725D02*
X055881Y012725D01*
X055747Y012567D02*
X056919Y012567D01*
X057100Y012408D02*
X055567Y012408D01*
X055091Y012250D02*
X065114Y012250D01*
X065114Y012091D02*
X055249Y012091D01*
X055408Y011933D02*
X065114Y011933D01*
X065114Y011774D02*
X055566Y011774D01*
X054995Y010904D02*
X058171Y010904D01*
X058126Y010795D01*
X058126Y010613D01*
X058196Y010445D01*
X058324Y010316D01*
X058492Y010247D01*
X058674Y010247D01*
X058683Y010250D01*
X058837Y010097D01*
X058824Y010091D01*
X058696Y009963D01*
X058626Y009795D01*
X058626Y009613D01*
X058630Y009604D01*
X058530Y009504D01*
X058495Y009504D01*
X058540Y009613D01*
X058540Y009795D01*
X058471Y009963D01*
X058342Y010091D01*
X058174Y010161D01*
X057992Y010161D01*
X057824Y010091D01*
X057696Y009963D01*
X057626Y009795D01*
X057626Y009613D01*
X057671Y009504D01*
X054604Y009504D01*
X054627Y009573D01*
X054640Y009660D01*
X054640Y009695D01*
X054092Y009695D01*
X054092Y009712D01*
X054640Y009712D01*
X054640Y009748D01*
X054627Y009834D01*
X054600Y009918D01*
X054560Y009996D01*
X054508Y010067D01*
X054446Y010129D01*
X054375Y010180D01*
X054297Y010220D01*
X054214Y010247D01*
X054127Y010261D01*
X054092Y010261D01*
X054092Y009712D01*
X054075Y009712D01*
X054075Y010261D01*
X054039Y010261D01*
X053953Y010247D01*
X053869Y010220D01*
X053791Y010180D01*
X053720Y010129D01*
X053658Y010067D01*
X053607Y009996D01*
X053567Y009918D01*
X053540Y009834D01*
X053536Y009807D01*
X053471Y009963D01*
X053342Y010091D01*
X053174Y010161D01*
X052992Y010161D01*
X052824Y010091D01*
X052696Y009963D01*
X052626Y009795D01*
X052626Y009613D01*
X052671Y009504D01*
X052495Y009504D01*
X052540Y009613D01*
X052540Y009795D01*
X052471Y009963D01*
X052342Y010091D01*
X052174Y010161D01*
X051992Y010161D01*
X051824Y010091D01*
X051696Y009963D01*
X051626Y009795D01*
X051626Y009613D01*
X051630Y009604D01*
X051530Y009504D01*
X051495Y009504D01*
X051540Y009613D01*
X051540Y009795D01*
X051471Y009963D01*
X051342Y010091D01*
X051174Y010161D01*
X050992Y010161D01*
X050824Y010091D01*
X050696Y009963D01*
X050626Y009795D01*
X050626Y009613D01*
X050671Y009504D01*
X047604Y009504D01*
X047627Y009573D01*
X047640Y009660D01*
X047640Y009695D01*
X047092Y009695D01*
X047092Y009712D01*
X047640Y009712D01*
X047640Y009748D01*
X047627Y009834D01*
X047600Y009918D01*
X047560Y009996D01*
X047508Y010067D01*
X047446Y010129D01*
X047397Y010164D01*
X047483Y010250D01*
X047492Y010247D01*
X047674Y010247D01*
X047842Y010316D01*
X047971Y010445D01*
X048040Y010613D01*
X048040Y010754D01*
X050083Y010754D01*
X050175Y010792D01*
X050245Y010862D01*
X050287Y010904D01*
X051171Y010904D01*
X051126Y010795D01*
X051126Y010613D01*
X051196Y010445D01*
X051324Y010316D01*
X051492Y010247D01*
X051674Y010247D01*
X051842Y010316D01*
X051971Y010445D01*
X052040Y010613D01*
X052040Y010795D01*
X052006Y010877D01*
X052126Y010757D01*
X052126Y010613D01*
X052196Y010445D01*
X052324Y010316D01*
X052492Y010247D01*
X052674Y010247D01*
X052842Y010316D01*
X052971Y010445D01*
X053040Y010613D01*
X053040Y010795D01*
X053037Y010804D01*
X053137Y010904D01*
X053171Y010904D01*
X053126Y010795D01*
X053126Y010613D01*
X053196Y010445D01*
X053324Y010316D01*
X053492Y010247D01*
X053674Y010247D01*
X053842Y010316D01*
X053971Y010445D01*
X054040Y010613D01*
X054040Y010795D01*
X053995Y010904D01*
X054171Y010904D01*
X054126Y010795D01*
X054126Y010613D01*
X054196Y010445D01*
X054324Y010316D01*
X054492Y010247D01*
X054674Y010247D01*
X054842Y010316D01*
X054971Y010445D01*
X055040Y010613D01*
X055040Y010795D01*
X054995Y010904D01*
X055029Y010823D02*
X058138Y010823D01*
X058126Y010665D02*
X055040Y010665D01*
X054996Y010506D02*
X058170Y010506D01*
X058293Y010348D02*
X054874Y010348D01*
X054358Y010189D02*
X058744Y010189D01*
X058764Y010031D02*
X058403Y010031D01*
X058508Y009872D02*
X058658Y009872D01*
X058626Y009714D02*
X058540Y009714D01*
X058517Y009555D02*
X058581Y009555D01*
X057650Y009555D02*
X054621Y009555D01*
X054640Y009714D02*
X057626Y009714D01*
X057658Y009872D02*
X054614Y009872D01*
X054534Y010031D02*
X057764Y010031D01*
X059621Y009238D02*
X060776Y009238D01*
X060618Y009397D02*
X060423Y009397D01*
X060517Y009555D02*
X060546Y009555D01*
X061075Y009555D02*
X061092Y009555D01*
X061075Y009397D02*
X061092Y009397D01*
X061075Y009238D02*
X061092Y009238D01*
X061391Y009238D02*
X065114Y009238D01*
X065114Y009080D02*
X059463Y009080D01*
X059304Y008921D02*
X065114Y008921D01*
X065114Y008763D02*
X059146Y008763D01*
X058987Y008604D02*
X065114Y008604D01*
X065114Y008446D02*
X058829Y008446D01*
X058670Y008287D02*
X065114Y008287D01*
X065114Y008129D02*
X044362Y008129D01*
X044203Y007970D02*
X065114Y007970D01*
X065114Y007812D02*
X044045Y007812D01*
X043963Y007653D02*
X046782Y007653D01*
X046600Y007495D02*
X043908Y007495D01*
X043689Y007336D02*
X046078Y007336D01*
X045973Y007178D02*
X037713Y007178D01*
X037710Y007019D02*
X043523Y007019D01*
X043744Y007019D02*
X045953Y007019D01*
X046002Y006861D02*
X045480Y006861D01*
X046049Y006702D02*
X046083Y006702D01*
X044647Y006385D02*
X043902Y006385D01*
X043364Y006385D02*
X043141Y006385D01*
X043141Y006227D02*
X044603Y006227D01*
X044628Y006068D02*
X043202Y006068D01*
X043361Y005910D02*
X044740Y005910D01*
X045082Y005751D02*
X043519Y005751D01*
X043678Y005593D02*
X045241Y005593D01*
X045399Y005434D02*
X043836Y005434D01*
X043268Y006544D02*
X043092Y006544D01*
X043253Y006702D02*
X037583Y006702D01*
X037628Y006861D02*
X043308Y006861D01*
X043478Y007336D02*
X039239Y007336D01*
X039028Y007336D02*
X037638Y007336D01*
X037028Y007336D02*
X036338Y007336D01*
X036413Y007178D02*
X036953Y007178D01*
X036957Y007019D02*
X036410Y007019D01*
X036328Y006861D02*
X037039Y006861D01*
X037083Y006702D02*
X035985Y006702D01*
X036074Y006544D02*
X035827Y006544D01*
X035668Y006385D02*
X036025Y006385D01*
X036025Y006227D02*
X035510Y006227D01*
X035351Y006068D02*
X036025Y006068D01*
X036025Y005910D02*
X035193Y005910D01*
X035034Y005751D02*
X036025Y005751D01*
X036109Y005593D02*
X034876Y005593D01*
X034717Y005434D02*
X035576Y005434D01*
X035503Y005276D02*
X034559Y005276D01*
X034400Y005117D02*
X035508Y005117D01*
X035591Y004959D02*
X034242Y004959D01*
X036558Y005593D02*
X036583Y005593D01*
X036583Y005619D02*
X036583Y005619D01*
X037083Y005593D02*
X037109Y005593D01*
X037083Y005434D02*
X038583Y005434D01*
X038583Y005276D02*
X037083Y005276D01*
X037068Y005117D02*
X038583Y005117D01*
X038583Y004959D02*
X036895Y004959D01*
X037558Y005593D02*
X037609Y005593D01*
X038333Y005593D02*
X038333Y005593D01*
X038333Y005751D02*
X038333Y005751D01*
X038333Y005910D02*
X038333Y005910D01*
X038333Y006068D02*
X038333Y006068D01*
X038333Y006227D02*
X038333Y006227D01*
X038333Y006385D02*
X038333Y006385D01*
X038333Y006544D02*
X038333Y006544D01*
X037083Y006553D02*
X037083Y006553D01*
X035595Y007019D02*
X034610Y007019D01*
X034613Y007178D02*
X035653Y007178D01*
X035728Y007336D02*
X034538Y007336D01*
X033928Y007336D02*
X033238Y007336D01*
X033313Y007178D02*
X033853Y007178D01*
X033795Y007019D02*
X033310Y007019D01*
X032786Y007495D02*
X038355Y007495D01*
X038264Y007653D02*
X032671Y007653D01*
X032463Y007812D02*
X038222Y007812D01*
X035437Y006861D02*
X034528Y006861D01*
X035122Y006702D02*
X035278Y006702D01*
X043178Y007495D02*
X043259Y007495D01*
X047621Y009555D02*
X050650Y009555D01*
X050626Y009714D02*
X047640Y009714D01*
X047614Y009872D02*
X050658Y009872D01*
X050764Y010031D02*
X047534Y010031D01*
X047422Y010189D02*
X053809Y010189D01*
X053874Y010348D02*
X054293Y010348D01*
X054170Y010506D02*
X053996Y010506D01*
X054040Y010665D02*
X054126Y010665D01*
X054138Y010823D02*
X054029Y010823D01*
X053138Y010823D02*
X053056Y010823D01*
X053040Y010665D02*
X053126Y010665D01*
X053170Y010506D02*
X052996Y010506D01*
X052874Y010348D02*
X053293Y010348D01*
X054075Y010189D02*
X054092Y010189D01*
X054075Y010031D02*
X054092Y010031D01*
X054075Y009872D02*
X054092Y009872D01*
X054075Y009714D02*
X054092Y009714D01*
X053632Y010031D02*
X053403Y010031D01*
X053508Y009872D02*
X053552Y009872D01*
X052764Y010031D02*
X052403Y010031D01*
X052508Y009872D02*
X052658Y009872D01*
X052626Y009714D02*
X052540Y009714D01*
X052517Y009555D02*
X052650Y009555D01*
X051626Y009714D02*
X051540Y009714D01*
X051517Y009555D02*
X051581Y009555D01*
X051508Y009872D02*
X051658Y009872D01*
X051764Y010031D02*
X051403Y010031D01*
X051293Y010348D02*
X047874Y010348D01*
X047996Y010506D02*
X051170Y010506D01*
X051126Y010665D02*
X048040Y010665D01*
X050206Y010823D02*
X051138Y010823D01*
X052029Y010823D02*
X052060Y010823D01*
X052040Y010665D02*
X052126Y010665D01*
X052170Y010506D02*
X051996Y010506D01*
X051874Y010348D02*
X052293Y010348D01*
X050245Y010862D02*
X050245Y010862D01*
X053981Y013359D02*
X054163Y013359D01*
X054163Y013201D02*
X054140Y013201D01*
X054218Y013518D02*
X053823Y013518D01*
X053664Y013676D02*
X054283Y013676D01*
X054413Y013835D02*
X053506Y013835D01*
X053347Y013993D02*
X054585Y013993D01*
X059675Y011616D02*
X065114Y011616D01*
X065114Y011457D02*
X059833Y011457D01*
X059992Y011299D02*
X065114Y011299D01*
X065114Y011140D02*
X061724Y011140D01*
X061674Y011161D02*
X061492Y011161D01*
X061324Y011091D01*
X061196Y010963D01*
X061126Y010795D01*
X061126Y010613D01*
X061196Y010445D01*
X061324Y010316D01*
X061492Y010247D01*
X061674Y010247D01*
X061842Y010316D01*
X061971Y010445D01*
X062040Y010613D01*
X062040Y010795D01*
X061971Y010963D01*
X061842Y011091D01*
X061674Y011161D01*
X061443Y011140D02*
X060724Y011140D01*
X060952Y010982D02*
X061215Y010982D01*
X061138Y010823D02*
X061029Y010823D01*
X061040Y010665D02*
X061126Y010665D01*
X061170Y010506D02*
X060996Y010506D01*
X060874Y010348D02*
X061293Y010348D01*
X061358Y010189D02*
X065114Y010189D01*
X065114Y010031D02*
X061534Y010031D01*
X061614Y009872D02*
X065114Y009872D01*
X065114Y009714D02*
X061640Y009714D01*
X061621Y009555D02*
X065114Y009555D01*
X065114Y009397D02*
X061549Y009397D01*
X061092Y009714D02*
X061075Y009714D01*
X061075Y009872D02*
X061092Y009872D01*
X061075Y010031D02*
X061092Y010031D01*
X061075Y010189D02*
X061092Y010189D01*
X060809Y010189D02*
X060333Y010189D01*
X060403Y010031D02*
X060632Y010031D01*
X060552Y009872D02*
X060508Y009872D01*
X061874Y010348D02*
X065114Y010348D01*
X065114Y010506D02*
X061996Y010506D01*
X062040Y010665D02*
X065114Y010665D01*
X065114Y010823D02*
X062029Y010823D01*
X061952Y010982D02*
X065114Y010982D01*
X060443Y011140D02*
X060150Y011140D01*
X062601Y007178D02*
X062601Y007178D01*
X062601Y007019D02*
X062601Y007019D01*
X062601Y006861D02*
X062601Y006861D01*
X020609Y005593D02*
X020558Y005593D01*
X020109Y005593D02*
X020058Y005593D01*
X019833Y002898D02*
X019833Y002898D01*
X019833Y002740D02*
X019833Y002740D01*
X019833Y002581D02*
X019833Y002581D01*
X019833Y002423D02*
X019833Y002423D01*
X019833Y002264D02*
X019833Y002264D01*
X019833Y002106D02*
X019833Y002106D01*
X019833Y001947D02*
X019833Y001947D01*
X019833Y001789D02*
X019833Y001789D01*
X018520Y001313D02*
X013338Y001313D01*
X013652Y001472D02*
X018362Y001472D01*
X018203Y001630D02*
X013811Y001630D01*
X013907Y001789D02*
X018045Y001789D01*
X017886Y001947D02*
X013973Y001947D01*
X009816Y004325D02*
X009351Y004325D01*
X009487Y004483D02*
X009680Y004483D01*
X009626Y004642D02*
X009540Y004642D01*
X009538Y004800D02*
X009628Y004800D01*
X009694Y004959D02*
X009473Y004959D01*
X008887Y005117D02*
X008883Y005117D01*
X006035Y013042D02*
X005613Y013042D01*
X005613Y013201D02*
X005776Y013201D01*
X005618Y013359D02*
X005613Y013359D01*
X016081Y013993D02*
X017319Y013993D01*
X017161Y013835D02*
X016253Y013835D01*
X016383Y013676D02*
X017002Y013676D01*
X016844Y013518D02*
X016449Y013518D01*
X016503Y013359D02*
X016685Y013359D01*
X016527Y013201D02*
X016503Y013201D01*
D22*
X019833Y011954D03*
X017383Y011504D03*
X022033Y010854D03*
X021583Y009254D03*
X022333Y008354D03*
X024233Y007754D03*
X025983Y007354D03*
X027033Y007754D03*
X028283Y007304D03*
X027533Y007104D03*
X028683Y006304D03*
X028633Y005804D03*
X028783Y005204D03*
X027583Y005204D03*
X026633Y003854D03*
X026683Y002754D03*
X027983Y002504D03*
X028633Y002404D03*
X028233Y001704D03*
X026633Y001804D03*
X025933Y001404D03*
X025083Y001454D03*
X023333Y001454D03*
X023233Y000954D03*
X020833Y001454D03*
X017083Y002554D03*
X018733Y003004D03*
X016683Y003504D03*
X012633Y003504D03*
X018883Y005054D03*
X018633Y006554D03*
X021133Y006954D03*
X022833Y006954D03*
X024333Y006954D03*
X029083Y008154D03*
X029633Y008154D03*
X029483Y007354D03*
X031083Y007104D03*
X031683Y007054D03*
X032433Y007354D03*
X033383Y007504D03*
X032933Y007104D03*
X034233Y007104D03*
X036033Y007104D03*
X037333Y007104D03*
X038933Y006954D03*
X039133Y007704D03*
X038633Y007754D03*
X034833Y006454D03*
X035883Y005204D03*
X035683Y004454D03*
X033833Y003854D03*
X033983Y002804D03*
X035683Y002554D03*
X031583Y001354D03*
X031083Y001154D03*
X040733Y001454D03*
X041583Y001454D03*
X041983Y001104D03*
X042633Y001454D03*
X050483Y001754D03*
X054583Y002204D03*
X055083Y002079D03*
X055583Y002079D03*
X056083Y002079D03*
X056583Y002079D03*
X057083Y002079D03*
X057583Y002079D03*
X058083Y002204D03*
X058083Y002704D03*
X058083Y003204D03*
X058083Y003704D03*
X058083Y004204D03*
X058083Y004704D03*
X058083Y005204D03*
X058083Y005704D03*
X054583Y005704D03*
X054583Y005204D03*
X054583Y004704D03*
X054583Y004204D03*
X054583Y003704D03*
X054583Y003204D03*
X054583Y002704D03*
X050283Y004454D03*
X050283Y005054D03*
X050483Y005554D03*
X050483Y006604D03*
X051483Y007404D03*
X052783Y007404D03*
X054033Y006904D03*
X050283Y008854D03*
X046333Y007054D03*
X044983Y006204D03*
X043633Y006654D03*
X043583Y007704D03*
X043583Y008254D03*
X043633Y008904D03*
X042233Y010104D03*
X038383Y011504D03*
X039583Y011554D03*
X040033Y012204D03*
X041833Y012304D03*
X037483Y012604D03*
X032733Y011554D03*
X031033Y011954D03*
X028283Y012304D03*
X027583Y011554D03*
X026733Y011554D03*
X024633Y012404D03*
X028683Y010104D03*
X029233Y008854D03*
X032083Y007754D03*
X033783Y008554D03*
X049483Y011804D03*
X049883Y011404D03*
X052433Y011954D03*
X053733Y011554D03*
X035983Y014404D03*
X035483Y014404D03*
X020383Y014804D03*
X012433Y011554D03*
X006833Y010704D03*
X011613Y007704D03*
X014333Y007704D03*
D23*
X011613Y007704D01*
X010383Y008754D02*
X009583Y009554D01*
X009583Y010704D01*
X009783Y011154D02*
X010133Y010804D01*
X010133Y010154D01*
X010633Y010154D01*
X011083Y009704D01*
X010533Y009254D02*
X010083Y009704D01*
X010533Y009254D02*
X016633Y009254D01*
X017083Y009704D01*
X017133Y009704D01*
X017583Y009254D01*
X021583Y009254D01*
X022283Y010154D02*
X022733Y009704D01*
X023083Y009704D01*
X023133Y009704D01*
X023833Y009004D01*
X029083Y009004D01*
X029233Y008854D01*
X033483Y008854D01*
X033783Y008554D01*
X032083Y007754D02*
X027033Y007754D01*
X026533Y007354D02*
X026133Y007754D01*
X024233Y007754D01*
X023333Y007354D02*
X025983Y007354D01*
X026533Y007354D02*
X027283Y007354D01*
X027533Y007104D01*
X027683Y006704D02*
X028283Y007304D01*
X029183Y007354D02*
X029483Y007354D01*
X029183Y007354D02*
X027383Y005554D01*
X025333Y005554D01*
X025333Y006086D01*
X024833Y006086D02*
X024833Y005204D01*
X027583Y005204D01*
X028783Y005204D02*
X030833Y005204D01*
X030833Y006134D01*
X030333Y006134D02*
X030333Y005554D01*
X028933Y005554D01*
X028683Y005804D01*
X028633Y005804D01*
X029183Y006304D02*
X029333Y006154D01*
X029333Y006134D01*
X029183Y006304D02*
X028683Y006304D01*
X027683Y006704D02*
X026433Y006704D01*
X025833Y006104D01*
X025833Y006086D01*
X024333Y006086D02*
X024333Y006954D01*
X023333Y007354D02*
X023333Y006086D01*
X022833Y006086D02*
X022833Y006954D01*
X021833Y006304D02*
X021533Y006604D01*
X021483Y006604D01*
X021133Y006954D01*
X016733Y006954D01*
X015883Y006104D01*
X015833Y006058D01*
X015833Y006054D01*
X014833Y006054D01*
X014833Y006058D01*
X015183Y005704D02*
X018233Y005704D01*
X018858Y006329D01*
X018633Y006554D01*
X018858Y006329D02*
X019133Y006604D01*
X020033Y006604D01*
X020333Y006304D01*
X020333Y006086D01*
X019833Y006086D02*
X019833Y005854D01*
X019433Y005454D01*
X017983Y005454D01*
X017983Y005404D01*
X018733Y004654D01*
X021783Y004654D01*
X022133Y004304D01*
X026733Y004304D01*
X028633Y002404D01*
X027983Y002504D02*
X026883Y001404D01*
X025933Y001404D01*
X025083Y001454D02*
X024833Y001454D01*
X024833Y002322D01*
X024333Y002322D02*
X024333Y003854D01*
X026633Y003854D01*
X023833Y004804D02*
X033733Y004804D01*
X036033Y007104D01*
X037333Y007104D02*
X037333Y006086D01*
X036833Y006086D02*
X036833Y005204D01*
X035883Y005204D01*
X035683Y004554D02*
X035683Y004454D01*
X035683Y004554D02*
X038833Y004554D01*
X038833Y006086D01*
X038333Y006086D02*
X038333Y006954D01*
X038283Y006954D01*
X037733Y007504D01*
X033383Y007504D01*
X032433Y007354D02*
X031933Y007354D01*
X031783Y007504D01*
X030933Y007504D01*
X030583Y007154D01*
X029833Y007154D01*
X029833Y006134D01*
X031333Y006134D02*
X031333Y006854D01*
X031083Y007104D01*
X031683Y007054D02*
X031833Y007054D01*
X031833Y006134D01*
X032333Y006134D02*
X032333Y006954D01*
X032783Y006954D01*
X032933Y007104D01*
X032833Y006704D02*
X033833Y006704D01*
X034233Y007104D01*
X032833Y006704D02*
X032833Y006134D01*
X033333Y006154D02*
X033333Y006134D01*
X033333Y006154D02*
X033633Y006454D01*
X034833Y006454D01*
X038333Y006954D02*
X038933Y006954D01*
X043383Y006954D01*
X044233Y007804D01*
X053183Y007804D01*
X053183Y007284D01*
X053233Y007284D01*
X055513Y007284D01*
X055813Y006984D01*
X055813Y005524D01*
X055813Y005454D01*
X054833Y005454D02*
X054793Y005524D01*
X054773Y005524D01*
X054593Y005704D01*
X054583Y005704D01*
X055083Y006204D02*
X054033Y006204D01*
X054033Y006904D01*
X053183Y007254D02*
X052933Y007004D01*
X052783Y007004D01*
X052783Y006254D01*
X052749Y006204D01*
X052733Y006204D01*
X052733Y005654D01*
X052683Y005604D01*
X052683Y004454D01*
X052709Y004421D01*
X052733Y004404D01*
X052733Y003704D01*
X052733Y003204D01*
X052709Y003204D01*
X052683Y003154D01*
X050683Y003154D01*
X049833Y002304D01*
X049833Y002274D01*
X049333Y002274D02*
X049333Y002564D01*
X046713Y005184D01*
X043733Y005184D01*
X042833Y006084D01*
X042833Y006086D01*
X042333Y006086D02*
X042333Y004944D01*
X046453Y004944D01*
X048833Y002564D01*
X048833Y002274D01*
X048333Y002274D02*
X048333Y002564D01*
X046193Y004704D01*
X041833Y004704D01*
X041833Y006086D01*
X041333Y006086D02*
X041333Y004464D01*
X045933Y004464D01*
X047833Y002564D01*
X047833Y002274D01*
X047333Y002274D02*
X047333Y002564D01*
X045673Y004224D01*
X040833Y004224D01*
X040833Y006086D01*
X040333Y006086D02*
X040333Y003984D01*
X045413Y003984D01*
X046833Y002564D01*
X046833Y002274D01*
X046333Y002274D02*
X046333Y002564D01*
X045153Y003744D01*
X039833Y003744D01*
X039833Y006086D01*
X039333Y006086D02*
X039333Y003504D01*
X043633Y003504D01*
X044793Y002344D01*
X045773Y002344D01*
X045833Y002284D01*
X045833Y002274D01*
X042833Y002322D02*
X042833Y002954D01*
X041233Y002954D01*
X040933Y003254D01*
X036833Y003254D01*
X036033Y004054D01*
X034183Y004054D01*
X033983Y004254D01*
X031033Y004254D01*
X029333Y002554D01*
X029333Y002274D01*
X029833Y002274D02*
X029833Y002554D01*
X030733Y003454D01*
X033433Y003454D01*
X033833Y003854D01*
X031983Y003204D02*
X031333Y002554D01*
X031333Y002274D01*
X030833Y002274D02*
X030833Y001954D01*
X031083Y001704D01*
X031233Y001704D01*
X031583Y001354D01*
X031083Y001154D02*
X030333Y001904D01*
X030333Y002274D01*
X031833Y002274D02*
X031833Y001954D01*
X032833Y000954D01*
X040333Y000954D01*
X040333Y002322D01*
X039833Y002322D02*
X039833Y001204D01*
X033083Y001204D01*
X032333Y001954D01*
X032333Y002274D01*
X032833Y002274D02*
X032833Y001954D01*
X033233Y001554D01*
X039333Y001554D01*
X039333Y002322D01*
X037833Y002322D02*
X037833Y002104D01*
X037533Y001804D01*
X036333Y001804D01*
X036333Y002322D01*
X036283Y002354D01*
X036083Y002554D01*
X035683Y002554D01*
X036433Y002954D02*
X036983Y002404D01*
X036983Y002354D01*
X036833Y002354D01*
X036833Y002322D01*
X036983Y002354D02*
X037333Y002354D01*
X037333Y002322D01*
X036733Y003004D02*
X036533Y003204D01*
X031983Y003204D01*
X033333Y002304D02*
X033908Y002879D01*
X033983Y002804D01*
X033908Y002879D02*
X033983Y002954D01*
X036433Y002954D01*
X036733Y003004D02*
X040833Y003004D01*
X040833Y002322D01*
X041333Y002322D02*
X041333Y001754D01*
X041033Y001754D01*
X040733Y001454D01*
X041583Y001454D02*
X041833Y001454D01*
X041833Y002322D01*
X042333Y002322D02*
X042333Y001454D01*
X042633Y001454D01*
X041983Y001104D02*
X041583Y000704D01*
X029233Y000704D01*
X028233Y001704D01*
X026633Y001804D02*
X025333Y001804D01*
X025333Y002322D01*
X025833Y002322D02*
X025833Y002354D01*
X026233Y002754D01*
X026683Y002754D01*
X023833Y002322D02*
X023833Y000954D01*
X023233Y000954D01*
X022833Y000804D02*
X012333Y000804D01*
X008633Y004504D01*
X008633Y011154D01*
X009783Y011154D01*
X010583Y010704D02*
X011033Y011154D01*
X017133Y011154D01*
X017583Y010704D01*
X017633Y010704D01*
X018183Y011254D01*
X023983Y011254D01*
X024533Y010704D01*
X024583Y010704D01*
X025033Y011154D01*
X031133Y011154D01*
X038133Y011154D01*
X038583Y010704D01*
X038633Y010704D01*
X039083Y011154D01*
X045133Y011154D01*
X045158Y011129D01*
X045183Y011154D01*
X047783Y011154D01*
X047933Y011004D01*
X050033Y011004D01*
X050183Y011154D01*
X052083Y011154D01*
X052533Y010704D01*
X052583Y010704D01*
X053033Y011154D01*
X059133Y011154D01*
X059583Y010704D01*
X060083Y010854D02*
X060083Y009704D01*
X059533Y009504D02*
X059533Y010254D01*
X059033Y010254D01*
X058583Y010704D01*
X059533Y011404D02*
X060083Y010854D01*
X059533Y011404D02*
X055583Y011404D01*
X052833Y014154D01*
X036283Y014154D01*
X036133Y014004D01*
X035333Y014004D01*
X035183Y014154D01*
X026383Y014154D01*
X024633Y012404D01*
X026683Y011504D02*
X026733Y011554D01*
X026683Y011504D02*
X017383Y011504D01*
X015233Y011554D02*
X012433Y011554D01*
X015233Y011554D02*
X018083Y014404D01*
X035483Y014404D01*
X035983Y014404D02*
X035983Y014804D01*
X020383Y014804D01*
X028283Y012304D02*
X028333Y012254D01*
X030783Y012254D01*
X030883Y012354D01*
X033733Y012354D01*
X033883Y012204D01*
X040033Y012204D01*
X039733Y011954D02*
X038833Y011954D01*
X038383Y011504D01*
X039583Y011554D02*
X039733Y011404D01*
X049883Y011404D01*
X049483Y011804D02*
X049333Y011654D01*
X040033Y011654D01*
X039733Y011954D01*
X040383Y012604D02*
X041083Y011904D01*
X049033Y011904D01*
X049333Y012204D01*
X049933Y012204D01*
X050583Y011554D01*
X053733Y011554D01*
X052433Y011954D02*
X050533Y011954D01*
X050033Y012454D01*
X049233Y012454D01*
X049033Y012254D01*
X041883Y012254D01*
X041833Y012304D01*
X040383Y012604D02*
X037483Y012604D01*
X032733Y011554D02*
X027583Y011554D01*
X027783Y011904D02*
X027733Y011954D01*
X019833Y011954D01*
X022033Y010854D02*
X022733Y010154D01*
X025583Y010154D01*
X026033Y009704D01*
X026083Y009704D01*
X029433Y009704D01*
X029883Y010154D01*
X032633Y010154D01*
X033083Y009704D01*
X031083Y009704D02*
X030633Y009254D01*
X037633Y009254D01*
X037658Y009279D01*
X037683Y009254D01*
X040283Y009254D01*
X040333Y009304D01*
X043783Y009304D01*
X043833Y009254D01*
X044583Y009254D01*
X045033Y009704D01*
X045083Y009704D01*
X045533Y009254D01*
X051633Y009254D01*
X058633Y009254D01*
X059083Y009704D01*
X059533Y009504D02*
X058483Y008454D01*
X044333Y008454D01*
X043583Y007704D01*
X043033Y007704D02*
X039133Y007704D01*
X038633Y007754D02*
X038233Y008154D01*
X029633Y008154D01*
X029083Y008154D02*
X028483Y008754D01*
X010383Y008754D01*
X009083Y009704D02*
X012583Y006204D01*
X012583Y005704D01*
X011133Y005154D02*
X014383Y005154D01*
X014533Y005004D01*
X015483Y005004D01*
X015783Y005304D01*
X015833Y005349D01*
X015833Y005354D01*
X015933Y005454D01*
X017983Y005454D01*
X018883Y005054D02*
X021333Y005054D01*
X021333Y006086D01*
X021833Y006086D02*
X021883Y006054D01*
X021883Y005804D01*
X023133Y004554D01*
X035683Y004554D01*
X033333Y002304D02*
X033333Y002274D01*
X023833Y004804D02*
X023833Y006086D01*
X022333Y006086D02*
X022333Y008354D01*
X024083Y009704D02*
X024533Y009254D01*
X030633Y009254D01*
X029283Y010704D02*
X028683Y010104D01*
X029283Y010704D02*
X030583Y010704D01*
X031133Y011154D02*
X031583Y010704D01*
X030983Y011904D02*
X027783Y011904D01*
X030983Y011904D02*
X031033Y011954D01*
X037083Y009704D02*
X037533Y010154D01*
X040283Y010154D01*
X040733Y009704D01*
X044083Y009704D01*
X042383Y010254D02*
X047133Y010254D01*
X047583Y010704D01*
X047533Y010154D02*
X053633Y010154D01*
X054083Y009704D01*
X052083Y009704D02*
X051633Y009254D01*
X050283Y008854D02*
X050233Y008904D01*
X043633Y008904D01*
X043583Y008254D02*
X043033Y007704D01*
X043633Y006654D02*
X045333Y006654D01*
X045833Y006154D01*
X045833Y006134D01*
X046333Y006134D02*
X046333Y007054D01*
X047333Y007004D02*
X052383Y007004D01*
X052783Y007404D01*
X053183Y007284D02*
X053183Y007254D01*
X051483Y007404D02*
X046833Y007404D01*
X046833Y006134D01*
X047333Y006134D02*
X047333Y007004D01*
X047833Y006134D02*
X047833Y005554D01*
X045633Y005554D01*
X044983Y006204D01*
X048333Y006134D02*
X048333Y004454D01*
X050283Y004454D01*
X050283Y005054D02*
X048833Y005054D01*
X048833Y006134D01*
X049333Y006134D02*
X049333Y005554D01*
X050483Y005554D01*
X049833Y006134D02*
X049833Y006154D01*
X050283Y006604D01*
X050483Y006604D01*
X053083Y005704D02*
X053383Y006004D01*
X053383Y006204D01*
X053418Y006204D01*
X054033Y006204D01*
X055083Y006204D02*
X055433Y006554D01*
X055436Y006594D01*
X057153Y006624D02*
X057231Y006594D01*
X059333Y006784D02*
X059473Y006644D01*
X061083Y006644D01*
X061083Y009704D01*
X059333Y006788D02*
X059333Y006784D01*
X061083Y006644D02*
X062593Y006644D01*
X062601Y006633D01*
X058083Y005704D02*
X058073Y005704D01*
X057893Y005524D01*
X057873Y005524D01*
X057833Y005454D01*
X057833Y005204D02*
X058083Y005204D01*
X058083Y004704D02*
X057833Y004704D01*
X057833Y004204D02*
X058083Y004204D01*
X058083Y003704D02*
X057833Y003704D01*
X057833Y003204D02*
X058083Y003204D01*
X058083Y002704D02*
X057833Y002704D01*
X057833Y002454D02*
X057873Y002384D01*
X057893Y002384D01*
X058073Y002079D01*
X058083Y002204D01*
X057593Y002079D02*
X057583Y002079D01*
X057593Y002079D02*
X057593Y002454D01*
X057093Y002454D02*
X057093Y002079D01*
X057083Y002079D01*
X056593Y002079D02*
X056583Y002079D01*
X056593Y002079D02*
X056593Y002454D01*
X056093Y002454D02*
X056093Y002079D01*
X056083Y002079D01*
X055593Y002079D02*
X055583Y002079D01*
X055593Y002079D02*
X055593Y002454D01*
X055093Y002454D02*
X055093Y002079D01*
X055083Y002079D01*
X054773Y002384D02*
X054593Y002079D01*
X054583Y002204D01*
X054773Y002384D02*
X054793Y002384D01*
X054833Y002454D01*
X054833Y002704D02*
X054583Y002704D01*
X054533Y002744D01*
X054583Y003204D02*
X054833Y003204D01*
X054833Y003704D02*
X054583Y003704D01*
X054583Y004204D02*
X054833Y004204D01*
X054833Y004704D02*
X054583Y004704D01*
X054583Y005204D02*
X054833Y005204D01*
X053083Y005287D02*
X053083Y005704D01*
X053483Y004454D02*
X053457Y004421D01*
X052283Y001754D02*
X050483Y001754D01*
X062833Y003244D02*
X063793Y004704D01*
X063802Y004704D01*
X047533Y010154D02*
X047083Y009704D01*
X045583Y010704D02*
X045158Y011129D01*
X042383Y010254D02*
X042233Y010104D01*
X038083Y009704D02*
X037658Y009279D01*
X022283Y010154D02*
X016533Y010154D01*
X016083Y009704D01*
X021833Y006304D02*
X021833Y006086D01*
X021833Y004254D02*
X011533Y004254D01*
X011083Y004704D01*
X011133Y005154D02*
X010583Y005704D01*
X009583Y005704D02*
X009583Y003904D01*
X017783Y003904D01*
X018683Y003004D01*
X018733Y003004D01*
X019333Y002404D01*
X019333Y002322D01*
X019333Y002354D01*
X019833Y002354D01*
X019833Y002322D01*
X019883Y002354D01*
X020333Y002354D01*
X020333Y002322D01*
X020833Y002322D02*
X020833Y001454D01*
X022333Y001054D02*
X019133Y001054D01*
X016683Y003504D01*
X016433Y002554D02*
X017083Y002554D01*
X016433Y002554D02*
X016333Y002454D01*
X016312Y002454D01*
X014855Y002454D02*
X014833Y002454D01*
X013783Y003504D01*
X012633Y003504D01*
X014833Y005349D02*
X014833Y005354D01*
X015183Y005704D01*
X021833Y004254D02*
X021833Y002322D01*
X022333Y002322D02*
X022333Y001054D01*
X023333Y001454D02*
X023333Y002322D01*
X022833Y002322D02*
X022833Y000804D01*
D24*
X006583Y001454D03*
X006583Y014204D03*
X064083Y014204D03*
X064083Y001454D03*
M02*
