G75*
%MOIN*%
%OFA0B0*%
%FSLAX24Y24*%
%IPPOS*%
%LPD*%
%AMOC8*
5,1,8,0,0,1.08239X$1,22.5*
%
%ADD10C,0.0634*%
%ADD11C,0.1360*%
%ADD12R,0.0336X0.0749*%
%ADD13R,0.0340X0.0880*%
%ADD14R,0.0592X0.0671*%
%ADD15R,0.0474X0.0631*%
%ADD16R,0.0552X0.0395*%
%ADD17R,0.0671X0.0592*%
%ADD18R,0.2206X0.2521*%
%ADD19R,0.0474X0.0710*%
%ADD20R,0.0552X0.0356*%
%ADD21C,0.0780*%
%ADD22C,0.0480*%
%ADD23C,0.2280*%
D10*
X009083Y004704D03*
X010083Y004704D03*
X011083Y004704D03*
X012083Y004704D03*
X011583Y005704D03*
X012583Y005704D03*
X010583Y005704D03*
X009583Y005704D03*
X009083Y009704D03*
X010083Y009704D03*
X011083Y009704D03*
X012083Y009704D03*
X011583Y010704D03*
X012583Y010704D03*
X010583Y010704D03*
X009583Y010704D03*
X016083Y009704D03*
X017083Y009704D03*
X018083Y009704D03*
X019083Y009704D03*
X018583Y010704D03*
X017583Y010704D03*
X016583Y010704D03*
X019583Y010704D03*
X023083Y009704D03*
X024083Y009704D03*
X025083Y009704D03*
X026083Y009704D03*
X025583Y010704D03*
X026583Y010704D03*
X024583Y010704D03*
X023583Y010704D03*
X030083Y009704D03*
X031083Y009704D03*
X032083Y009704D03*
X033083Y009704D03*
X032583Y010704D03*
X031583Y010704D03*
X030583Y010704D03*
X033583Y010704D03*
X037083Y009704D03*
X038083Y009704D03*
X039083Y009704D03*
X040083Y009704D03*
X039583Y010704D03*
X040583Y010704D03*
X038583Y010704D03*
X037583Y010704D03*
X044083Y009704D03*
X045083Y009704D03*
X046083Y009704D03*
X047083Y009704D03*
X046583Y010704D03*
X045583Y010704D03*
X044583Y010704D03*
X047583Y010704D03*
X051083Y009704D03*
X052083Y009704D03*
X053083Y009704D03*
X054083Y009704D03*
X053583Y010704D03*
X054583Y010704D03*
X052583Y010704D03*
X051583Y010704D03*
X058083Y009704D03*
X059083Y009704D03*
X060083Y009704D03*
X061083Y009704D03*
X060583Y010704D03*
X059583Y010704D03*
X058583Y010704D03*
X061583Y010704D03*
D11*
X062083Y013204D03*
X057583Y013204D03*
X055083Y013204D03*
X050583Y013204D03*
X048083Y013204D03*
X043583Y013204D03*
X041083Y013204D03*
X036583Y013204D03*
X034083Y013204D03*
X029583Y013204D03*
X027083Y013204D03*
X022583Y013204D03*
X020083Y013204D03*
X015583Y013204D03*
X013083Y013204D03*
X008583Y013204D03*
X008583Y002204D03*
X013083Y002204D03*
D12*
X019333Y002322D03*
X019833Y002322D03*
X020333Y002322D03*
X020833Y002322D03*
X021333Y002322D03*
X021833Y002322D03*
X022333Y002322D03*
X022833Y002322D03*
X023333Y002322D03*
X023833Y002322D03*
X024333Y002322D03*
X024833Y002322D03*
X025333Y002322D03*
X025833Y002322D03*
X036333Y002322D03*
X036833Y002322D03*
X037333Y002322D03*
X037833Y002322D03*
X038333Y002322D03*
X038833Y002322D03*
X039333Y002322D03*
X039833Y002322D03*
X040333Y002322D03*
X040833Y002322D03*
X041333Y002322D03*
X041833Y002322D03*
X042333Y002322D03*
X042833Y002322D03*
X042833Y006086D03*
X042333Y006086D03*
X041833Y006086D03*
X041333Y006086D03*
X040833Y006086D03*
X040333Y006086D03*
X039833Y006086D03*
X039333Y006086D03*
X038833Y006086D03*
X038333Y006086D03*
X037833Y006086D03*
X037333Y006086D03*
X036833Y006086D03*
X036333Y006086D03*
X025833Y006086D03*
X025333Y006086D03*
X024833Y006086D03*
X024333Y006086D03*
X023833Y006086D03*
X023333Y006086D03*
X022833Y006086D03*
X022333Y006086D03*
X021833Y006086D03*
X021333Y006086D03*
X020833Y006086D03*
X020333Y006086D03*
X019833Y006086D03*
X019333Y006086D03*
D13*
X029333Y006134D03*
X029833Y006134D03*
X030333Y006134D03*
X030833Y006134D03*
X031333Y006134D03*
X031833Y006134D03*
X032333Y006134D03*
X032833Y006134D03*
X033333Y006134D03*
X033333Y002274D03*
X032833Y002274D03*
X032333Y002274D03*
X031833Y002274D03*
X031333Y002274D03*
X030833Y002274D03*
X030333Y002274D03*
X029833Y002274D03*
X029333Y002274D03*
X045833Y002274D03*
X046333Y002274D03*
X046833Y002274D03*
X047333Y002274D03*
X047833Y002274D03*
X048333Y002274D03*
X048833Y002274D03*
X049333Y002274D03*
X049833Y002274D03*
X049833Y006134D03*
X049333Y006134D03*
X048833Y006134D03*
X048333Y006134D03*
X047833Y006134D03*
X047333Y006134D03*
X046833Y006134D03*
X046333Y006134D03*
X045833Y006134D03*
D14*
X052749Y006204D03*
X053418Y006204D03*
X053457Y003204D03*
X052709Y003204D03*
D15*
X052709Y004421D03*
X053457Y004421D03*
X053083Y005287D03*
D16*
X015833Y005349D03*
X014833Y005349D03*
X014833Y006058D03*
X015833Y006058D03*
D17*
X059333Y006119D03*
X059333Y006788D03*
D18*
X056333Y003720D03*
D19*
X055436Y006594D03*
X057231Y006594D03*
D20*
X016312Y002454D03*
X014855Y002454D03*
D21*
X061440Y004354D02*
X061440Y005054D01*
X063802Y005054D02*
X063802Y004354D01*
X062951Y006633D02*
X062251Y006633D01*
D22*
X058083Y005704D03*
X058083Y005204D03*
X058083Y004704D03*
X058083Y004204D03*
X058083Y003704D03*
X058083Y003204D03*
X058083Y002704D03*
X058083Y002204D03*
X057583Y002079D03*
X057083Y002079D03*
X056583Y002079D03*
X056083Y002079D03*
X055583Y002079D03*
X055083Y002079D03*
X054583Y002204D03*
X054583Y002704D03*
X054583Y003204D03*
X054583Y003704D03*
X054583Y004204D03*
X054583Y004704D03*
X054583Y005204D03*
X054583Y005704D03*
X054033Y006904D03*
X052783Y007404D03*
X051483Y007404D03*
X050483Y006604D03*
X050483Y005554D03*
X050283Y005054D03*
X050283Y004454D03*
X044983Y006204D03*
X043633Y006654D03*
X046333Y007054D03*
X043583Y007704D03*
X043583Y008254D03*
X043633Y008904D03*
X042233Y010104D03*
X038383Y011504D03*
X039583Y011554D03*
X040033Y012204D03*
X041833Y012304D03*
X037483Y012604D03*
X032733Y011554D03*
X031033Y011954D03*
X028283Y012304D03*
X027583Y011554D03*
X026733Y011554D03*
X024633Y012404D03*
X019833Y011954D03*
X017383Y011504D03*
X022033Y010854D03*
X021583Y009254D03*
X022333Y008354D03*
X024233Y007754D03*
X025983Y007354D03*
X027033Y007754D03*
X028283Y007304D03*
X027533Y007104D03*
X028683Y006304D03*
X028633Y005804D03*
X028783Y005204D03*
X027583Y005204D03*
X026633Y003854D03*
X026683Y002754D03*
X027983Y002504D03*
X028633Y002404D03*
X028233Y001704D03*
X026633Y001804D03*
X025933Y001404D03*
X025083Y001454D03*
X023333Y001454D03*
X023233Y000954D03*
X020833Y001454D03*
X017083Y002554D03*
X018733Y003004D03*
X016683Y003504D03*
X012633Y003504D03*
X018883Y005054D03*
X018633Y006554D03*
X021133Y006954D03*
X022833Y006954D03*
X024333Y006954D03*
X029083Y008154D03*
X029633Y008154D03*
X029483Y007354D03*
X031083Y007104D03*
X031683Y007054D03*
X032433Y007354D03*
X033383Y007504D03*
X032933Y007104D03*
X034233Y007104D03*
X036033Y007104D03*
X037333Y007104D03*
X038933Y006954D03*
X039133Y007704D03*
X038633Y007754D03*
X034833Y006454D03*
X035883Y005204D03*
X035683Y004454D03*
X033833Y003854D03*
X033983Y002804D03*
X035683Y002554D03*
X031583Y001354D03*
X031083Y001154D03*
X040733Y001454D03*
X041583Y001454D03*
X041983Y001104D03*
X042633Y001454D03*
X050483Y001754D03*
X032083Y007754D03*
X033783Y008554D03*
X029233Y008854D03*
X028683Y010104D03*
X035483Y014404D03*
X035983Y014404D03*
X049483Y011804D03*
X049883Y011404D03*
X052433Y011954D03*
X053733Y011554D03*
X050283Y008854D03*
X020383Y014804D03*
X012433Y011554D03*
X006833Y010704D03*
X011613Y007704D03*
X014333Y007704D03*
D23*
X006583Y001454D03*
X006583Y014204D03*
X064083Y014204D03*
X064083Y001454D03*
M02*
