G75*
%MOIN*%
%OFA0B0*%
%FSLAX24Y24*%
%IPPOS*%
%LPD*%
%AMOC8*
5,1,8,0,0,1.08239X$1,22.5*
%
%ADD10C,0.0000*%
%ADD11C,0.0070*%
%ADD12C,0.0080*%
%ADD13C,0.0060*%
%ADD14C,0.0020*%
%ADD15R,0.0200X0.0050*%
%ADD16C,0.0050*%
%ADD17C,0.0040*%
%ADD18R,0.0340X0.0300*%
D10*
X005333Y000204D02*
X005333Y015440D01*
X005333Y015454D02*
X065333Y015454D01*
X065394Y015440D02*
X065394Y000204D01*
X005333Y000204D01*
X007943Y002204D02*
X007945Y002254D01*
X007951Y002304D01*
X007961Y002353D01*
X007974Y002402D01*
X007992Y002449D01*
X008013Y002495D01*
X008037Y002538D01*
X008065Y002580D01*
X008096Y002620D01*
X008130Y002657D01*
X008167Y002691D01*
X008207Y002722D01*
X008249Y002750D01*
X008292Y002774D01*
X008338Y002795D01*
X008385Y002813D01*
X008434Y002826D01*
X008483Y002836D01*
X008533Y002842D01*
X008583Y002844D01*
X008633Y002842D01*
X008683Y002836D01*
X008732Y002826D01*
X008781Y002813D01*
X008828Y002795D01*
X008874Y002774D01*
X008917Y002750D01*
X008959Y002722D01*
X008999Y002691D01*
X009036Y002657D01*
X009070Y002620D01*
X009101Y002580D01*
X009129Y002538D01*
X009153Y002495D01*
X009174Y002449D01*
X009192Y002402D01*
X009205Y002353D01*
X009215Y002304D01*
X009221Y002254D01*
X009223Y002204D01*
X009221Y002154D01*
X009215Y002104D01*
X009205Y002055D01*
X009192Y002006D01*
X009174Y001959D01*
X009153Y001913D01*
X009129Y001870D01*
X009101Y001828D01*
X009070Y001788D01*
X009036Y001751D01*
X008999Y001717D01*
X008959Y001686D01*
X008917Y001658D01*
X008874Y001634D01*
X008828Y001613D01*
X008781Y001595D01*
X008732Y001582D01*
X008683Y001572D01*
X008633Y001566D01*
X008583Y001564D01*
X008533Y001566D01*
X008483Y001572D01*
X008434Y001582D01*
X008385Y001595D01*
X008338Y001613D01*
X008292Y001634D01*
X008249Y001658D01*
X008207Y001686D01*
X008167Y001717D01*
X008130Y001751D01*
X008096Y001788D01*
X008065Y001828D01*
X008037Y001870D01*
X008013Y001913D01*
X007992Y001959D01*
X007974Y002006D01*
X007961Y002055D01*
X007951Y002104D01*
X007945Y002154D01*
X007943Y002204D01*
X012443Y002204D02*
X012445Y002254D01*
X012451Y002304D01*
X012461Y002353D01*
X012474Y002402D01*
X012492Y002449D01*
X012513Y002495D01*
X012537Y002538D01*
X012565Y002580D01*
X012596Y002620D01*
X012630Y002657D01*
X012667Y002691D01*
X012707Y002722D01*
X012749Y002750D01*
X012792Y002774D01*
X012838Y002795D01*
X012885Y002813D01*
X012934Y002826D01*
X012983Y002836D01*
X013033Y002842D01*
X013083Y002844D01*
X013133Y002842D01*
X013183Y002836D01*
X013232Y002826D01*
X013281Y002813D01*
X013328Y002795D01*
X013374Y002774D01*
X013417Y002750D01*
X013459Y002722D01*
X013499Y002691D01*
X013536Y002657D01*
X013570Y002620D01*
X013601Y002580D01*
X013629Y002538D01*
X013653Y002495D01*
X013674Y002449D01*
X013692Y002402D01*
X013705Y002353D01*
X013715Y002304D01*
X013721Y002254D01*
X013723Y002204D01*
X013721Y002154D01*
X013715Y002104D01*
X013705Y002055D01*
X013692Y002006D01*
X013674Y001959D01*
X013653Y001913D01*
X013629Y001870D01*
X013601Y001828D01*
X013570Y001788D01*
X013536Y001751D01*
X013499Y001717D01*
X013459Y001686D01*
X013417Y001658D01*
X013374Y001634D01*
X013328Y001613D01*
X013281Y001595D01*
X013232Y001582D01*
X013183Y001572D01*
X013133Y001566D01*
X013083Y001564D01*
X013033Y001566D01*
X012983Y001572D01*
X012934Y001582D01*
X012885Y001595D01*
X012838Y001613D01*
X012792Y001634D01*
X012749Y001658D01*
X012707Y001686D01*
X012667Y001717D01*
X012630Y001751D01*
X012596Y001788D01*
X012565Y001828D01*
X012537Y001870D01*
X012513Y001913D01*
X012492Y001959D01*
X012474Y002006D01*
X012461Y002055D01*
X012451Y002104D01*
X012445Y002154D01*
X012443Y002204D01*
X012443Y013204D02*
X012445Y013254D01*
X012451Y013304D01*
X012461Y013353D01*
X012474Y013402D01*
X012492Y013449D01*
X012513Y013495D01*
X012537Y013538D01*
X012565Y013580D01*
X012596Y013620D01*
X012630Y013657D01*
X012667Y013691D01*
X012707Y013722D01*
X012749Y013750D01*
X012792Y013774D01*
X012838Y013795D01*
X012885Y013813D01*
X012934Y013826D01*
X012983Y013836D01*
X013033Y013842D01*
X013083Y013844D01*
X013133Y013842D01*
X013183Y013836D01*
X013232Y013826D01*
X013281Y013813D01*
X013328Y013795D01*
X013374Y013774D01*
X013417Y013750D01*
X013459Y013722D01*
X013499Y013691D01*
X013536Y013657D01*
X013570Y013620D01*
X013601Y013580D01*
X013629Y013538D01*
X013653Y013495D01*
X013674Y013449D01*
X013692Y013402D01*
X013705Y013353D01*
X013715Y013304D01*
X013721Y013254D01*
X013723Y013204D01*
X013721Y013154D01*
X013715Y013104D01*
X013705Y013055D01*
X013692Y013006D01*
X013674Y012959D01*
X013653Y012913D01*
X013629Y012870D01*
X013601Y012828D01*
X013570Y012788D01*
X013536Y012751D01*
X013499Y012717D01*
X013459Y012686D01*
X013417Y012658D01*
X013374Y012634D01*
X013328Y012613D01*
X013281Y012595D01*
X013232Y012582D01*
X013183Y012572D01*
X013133Y012566D01*
X013083Y012564D01*
X013033Y012566D01*
X012983Y012572D01*
X012934Y012582D01*
X012885Y012595D01*
X012838Y012613D01*
X012792Y012634D01*
X012749Y012658D01*
X012707Y012686D01*
X012667Y012717D01*
X012630Y012751D01*
X012596Y012788D01*
X012565Y012828D01*
X012537Y012870D01*
X012513Y012913D01*
X012492Y012959D01*
X012474Y013006D01*
X012461Y013055D01*
X012451Y013104D01*
X012445Y013154D01*
X012443Y013204D01*
X014943Y013204D02*
X014945Y013254D01*
X014951Y013304D01*
X014961Y013353D01*
X014974Y013402D01*
X014992Y013449D01*
X015013Y013495D01*
X015037Y013538D01*
X015065Y013580D01*
X015096Y013620D01*
X015130Y013657D01*
X015167Y013691D01*
X015207Y013722D01*
X015249Y013750D01*
X015292Y013774D01*
X015338Y013795D01*
X015385Y013813D01*
X015434Y013826D01*
X015483Y013836D01*
X015533Y013842D01*
X015583Y013844D01*
X015633Y013842D01*
X015683Y013836D01*
X015732Y013826D01*
X015781Y013813D01*
X015828Y013795D01*
X015874Y013774D01*
X015917Y013750D01*
X015959Y013722D01*
X015999Y013691D01*
X016036Y013657D01*
X016070Y013620D01*
X016101Y013580D01*
X016129Y013538D01*
X016153Y013495D01*
X016174Y013449D01*
X016192Y013402D01*
X016205Y013353D01*
X016215Y013304D01*
X016221Y013254D01*
X016223Y013204D01*
X016221Y013154D01*
X016215Y013104D01*
X016205Y013055D01*
X016192Y013006D01*
X016174Y012959D01*
X016153Y012913D01*
X016129Y012870D01*
X016101Y012828D01*
X016070Y012788D01*
X016036Y012751D01*
X015999Y012717D01*
X015959Y012686D01*
X015917Y012658D01*
X015874Y012634D01*
X015828Y012613D01*
X015781Y012595D01*
X015732Y012582D01*
X015683Y012572D01*
X015633Y012566D01*
X015583Y012564D01*
X015533Y012566D01*
X015483Y012572D01*
X015434Y012582D01*
X015385Y012595D01*
X015338Y012613D01*
X015292Y012634D01*
X015249Y012658D01*
X015207Y012686D01*
X015167Y012717D01*
X015130Y012751D01*
X015096Y012788D01*
X015065Y012828D01*
X015037Y012870D01*
X015013Y012913D01*
X014992Y012959D01*
X014974Y013006D01*
X014961Y013055D01*
X014951Y013104D01*
X014945Y013154D01*
X014943Y013204D01*
X019443Y013204D02*
X019445Y013254D01*
X019451Y013304D01*
X019461Y013353D01*
X019474Y013402D01*
X019492Y013449D01*
X019513Y013495D01*
X019537Y013538D01*
X019565Y013580D01*
X019596Y013620D01*
X019630Y013657D01*
X019667Y013691D01*
X019707Y013722D01*
X019749Y013750D01*
X019792Y013774D01*
X019838Y013795D01*
X019885Y013813D01*
X019934Y013826D01*
X019983Y013836D01*
X020033Y013842D01*
X020083Y013844D01*
X020133Y013842D01*
X020183Y013836D01*
X020232Y013826D01*
X020281Y013813D01*
X020328Y013795D01*
X020374Y013774D01*
X020417Y013750D01*
X020459Y013722D01*
X020499Y013691D01*
X020536Y013657D01*
X020570Y013620D01*
X020601Y013580D01*
X020629Y013538D01*
X020653Y013495D01*
X020674Y013449D01*
X020692Y013402D01*
X020705Y013353D01*
X020715Y013304D01*
X020721Y013254D01*
X020723Y013204D01*
X020721Y013154D01*
X020715Y013104D01*
X020705Y013055D01*
X020692Y013006D01*
X020674Y012959D01*
X020653Y012913D01*
X020629Y012870D01*
X020601Y012828D01*
X020570Y012788D01*
X020536Y012751D01*
X020499Y012717D01*
X020459Y012686D01*
X020417Y012658D01*
X020374Y012634D01*
X020328Y012613D01*
X020281Y012595D01*
X020232Y012582D01*
X020183Y012572D01*
X020133Y012566D01*
X020083Y012564D01*
X020033Y012566D01*
X019983Y012572D01*
X019934Y012582D01*
X019885Y012595D01*
X019838Y012613D01*
X019792Y012634D01*
X019749Y012658D01*
X019707Y012686D01*
X019667Y012717D01*
X019630Y012751D01*
X019596Y012788D01*
X019565Y012828D01*
X019537Y012870D01*
X019513Y012913D01*
X019492Y012959D01*
X019474Y013006D01*
X019461Y013055D01*
X019451Y013104D01*
X019445Y013154D01*
X019443Y013204D01*
X021943Y013204D02*
X021945Y013254D01*
X021951Y013304D01*
X021961Y013353D01*
X021974Y013402D01*
X021992Y013449D01*
X022013Y013495D01*
X022037Y013538D01*
X022065Y013580D01*
X022096Y013620D01*
X022130Y013657D01*
X022167Y013691D01*
X022207Y013722D01*
X022249Y013750D01*
X022292Y013774D01*
X022338Y013795D01*
X022385Y013813D01*
X022434Y013826D01*
X022483Y013836D01*
X022533Y013842D01*
X022583Y013844D01*
X022633Y013842D01*
X022683Y013836D01*
X022732Y013826D01*
X022781Y013813D01*
X022828Y013795D01*
X022874Y013774D01*
X022917Y013750D01*
X022959Y013722D01*
X022999Y013691D01*
X023036Y013657D01*
X023070Y013620D01*
X023101Y013580D01*
X023129Y013538D01*
X023153Y013495D01*
X023174Y013449D01*
X023192Y013402D01*
X023205Y013353D01*
X023215Y013304D01*
X023221Y013254D01*
X023223Y013204D01*
X023221Y013154D01*
X023215Y013104D01*
X023205Y013055D01*
X023192Y013006D01*
X023174Y012959D01*
X023153Y012913D01*
X023129Y012870D01*
X023101Y012828D01*
X023070Y012788D01*
X023036Y012751D01*
X022999Y012717D01*
X022959Y012686D01*
X022917Y012658D01*
X022874Y012634D01*
X022828Y012613D01*
X022781Y012595D01*
X022732Y012582D01*
X022683Y012572D01*
X022633Y012566D01*
X022583Y012564D01*
X022533Y012566D01*
X022483Y012572D01*
X022434Y012582D01*
X022385Y012595D01*
X022338Y012613D01*
X022292Y012634D01*
X022249Y012658D01*
X022207Y012686D01*
X022167Y012717D01*
X022130Y012751D01*
X022096Y012788D01*
X022065Y012828D01*
X022037Y012870D01*
X022013Y012913D01*
X021992Y012959D01*
X021974Y013006D01*
X021961Y013055D01*
X021951Y013104D01*
X021945Y013154D01*
X021943Y013204D01*
X026443Y013204D02*
X026445Y013254D01*
X026451Y013304D01*
X026461Y013353D01*
X026474Y013402D01*
X026492Y013449D01*
X026513Y013495D01*
X026537Y013538D01*
X026565Y013580D01*
X026596Y013620D01*
X026630Y013657D01*
X026667Y013691D01*
X026707Y013722D01*
X026749Y013750D01*
X026792Y013774D01*
X026838Y013795D01*
X026885Y013813D01*
X026934Y013826D01*
X026983Y013836D01*
X027033Y013842D01*
X027083Y013844D01*
X027133Y013842D01*
X027183Y013836D01*
X027232Y013826D01*
X027281Y013813D01*
X027328Y013795D01*
X027374Y013774D01*
X027417Y013750D01*
X027459Y013722D01*
X027499Y013691D01*
X027536Y013657D01*
X027570Y013620D01*
X027601Y013580D01*
X027629Y013538D01*
X027653Y013495D01*
X027674Y013449D01*
X027692Y013402D01*
X027705Y013353D01*
X027715Y013304D01*
X027721Y013254D01*
X027723Y013204D01*
X027721Y013154D01*
X027715Y013104D01*
X027705Y013055D01*
X027692Y013006D01*
X027674Y012959D01*
X027653Y012913D01*
X027629Y012870D01*
X027601Y012828D01*
X027570Y012788D01*
X027536Y012751D01*
X027499Y012717D01*
X027459Y012686D01*
X027417Y012658D01*
X027374Y012634D01*
X027328Y012613D01*
X027281Y012595D01*
X027232Y012582D01*
X027183Y012572D01*
X027133Y012566D01*
X027083Y012564D01*
X027033Y012566D01*
X026983Y012572D01*
X026934Y012582D01*
X026885Y012595D01*
X026838Y012613D01*
X026792Y012634D01*
X026749Y012658D01*
X026707Y012686D01*
X026667Y012717D01*
X026630Y012751D01*
X026596Y012788D01*
X026565Y012828D01*
X026537Y012870D01*
X026513Y012913D01*
X026492Y012959D01*
X026474Y013006D01*
X026461Y013055D01*
X026451Y013104D01*
X026445Y013154D01*
X026443Y013204D01*
X028943Y013204D02*
X028945Y013254D01*
X028951Y013304D01*
X028961Y013353D01*
X028974Y013402D01*
X028992Y013449D01*
X029013Y013495D01*
X029037Y013538D01*
X029065Y013580D01*
X029096Y013620D01*
X029130Y013657D01*
X029167Y013691D01*
X029207Y013722D01*
X029249Y013750D01*
X029292Y013774D01*
X029338Y013795D01*
X029385Y013813D01*
X029434Y013826D01*
X029483Y013836D01*
X029533Y013842D01*
X029583Y013844D01*
X029633Y013842D01*
X029683Y013836D01*
X029732Y013826D01*
X029781Y013813D01*
X029828Y013795D01*
X029874Y013774D01*
X029917Y013750D01*
X029959Y013722D01*
X029999Y013691D01*
X030036Y013657D01*
X030070Y013620D01*
X030101Y013580D01*
X030129Y013538D01*
X030153Y013495D01*
X030174Y013449D01*
X030192Y013402D01*
X030205Y013353D01*
X030215Y013304D01*
X030221Y013254D01*
X030223Y013204D01*
X030221Y013154D01*
X030215Y013104D01*
X030205Y013055D01*
X030192Y013006D01*
X030174Y012959D01*
X030153Y012913D01*
X030129Y012870D01*
X030101Y012828D01*
X030070Y012788D01*
X030036Y012751D01*
X029999Y012717D01*
X029959Y012686D01*
X029917Y012658D01*
X029874Y012634D01*
X029828Y012613D01*
X029781Y012595D01*
X029732Y012582D01*
X029683Y012572D01*
X029633Y012566D01*
X029583Y012564D01*
X029533Y012566D01*
X029483Y012572D01*
X029434Y012582D01*
X029385Y012595D01*
X029338Y012613D01*
X029292Y012634D01*
X029249Y012658D01*
X029207Y012686D01*
X029167Y012717D01*
X029130Y012751D01*
X029096Y012788D01*
X029065Y012828D01*
X029037Y012870D01*
X029013Y012913D01*
X028992Y012959D01*
X028974Y013006D01*
X028961Y013055D01*
X028951Y013104D01*
X028945Y013154D01*
X028943Y013204D01*
X033443Y013204D02*
X033445Y013254D01*
X033451Y013304D01*
X033461Y013353D01*
X033474Y013402D01*
X033492Y013449D01*
X033513Y013495D01*
X033537Y013538D01*
X033565Y013580D01*
X033596Y013620D01*
X033630Y013657D01*
X033667Y013691D01*
X033707Y013722D01*
X033749Y013750D01*
X033792Y013774D01*
X033838Y013795D01*
X033885Y013813D01*
X033934Y013826D01*
X033983Y013836D01*
X034033Y013842D01*
X034083Y013844D01*
X034133Y013842D01*
X034183Y013836D01*
X034232Y013826D01*
X034281Y013813D01*
X034328Y013795D01*
X034374Y013774D01*
X034417Y013750D01*
X034459Y013722D01*
X034499Y013691D01*
X034536Y013657D01*
X034570Y013620D01*
X034601Y013580D01*
X034629Y013538D01*
X034653Y013495D01*
X034674Y013449D01*
X034692Y013402D01*
X034705Y013353D01*
X034715Y013304D01*
X034721Y013254D01*
X034723Y013204D01*
X034721Y013154D01*
X034715Y013104D01*
X034705Y013055D01*
X034692Y013006D01*
X034674Y012959D01*
X034653Y012913D01*
X034629Y012870D01*
X034601Y012828D01*
X034570Y012788D01*
X034536Y012751D01*
X034499Y012717D01*
X034459Y012686D01*
X034417Y012658D01*
X034374Y012634D01*
X034328Y012613D01*
X034281Y012595D01*
X034232Y012582D01*
X034183Y012572D01*
X034133Y012566D01*
X034083Y012564D01*
X034033Y012566D01*
X033983Y012572D01*
X033934Y012582D01*
X033885Y012595D01*
X033838Y012613D01*
X033792Y012634D01*
X033749Y012658D01*
X033707Y012686D01*
X033667Y012717D01*
X033630Y012751D01*
X033596Y012788D01*
X033565Y012828D01*
X033537Y012870D01*
X033513Y012913D01*
X033492Y012959D01*
X033474Y013006D01*
X033461Y013055D01*
X033451Y013104D01*
X033445Y013154D01*
X033443Y013204D01*
X035943Y013204D02*
X035945Y013254D01*
X035951Y013304D01*
X035961Y013353D01*
X035974Y013402D01*
X035992Y013449D01*
X036013Y013495D01*
X036037Y013538D01*
X036065Y013580D01*
X036096Y013620D01*
X036130Y013657D01*
X036167Y013691D01*
X036207Y013722D01*
X036249Y013750D01*
X036292Y013774D01*
X036338Y013795D01*
X036385Y013813D01*
X036434Y013826D01*
X036483Y013836D01*
X036533Y013842D01*
X036583Y013844D01*
X036633Y013842D01*
X036683Y013836D01*
X036732Y013826D01*
X036781Y013813D01*
X036828Y013795D01*
X036874Y013774D01*
X036917Y013750D01*
X036959Y013722D01*
X036999Y013691D01*
X037036Y013657D01*
X037070Y013620D01*
X037101Y013580D01*
X037129Y013538D01*
X037153Y013495D01*
X037174Y013449D01*
X037192Y013402D01*
X037205Y013353D01*
X037215Y013304D01*
X037221Y013254D01*
X037223Y013204D01*
X037221Y013154D01*
X037215Y013104D01*
X037205Y013055D01*
X037192Y013006D01*
X037174Y012959D01*
X037153Y012913D01*
X037129Y012870D01*
X037101Y012828D01*
X037070Y012788D01*
X037036Y012751D01*
X036999Y012717D01*
X036959Y012686D01*
X036917Y012658D01*
X036874Y012634D01*
X036828Y012613D01*
X036781Y012595D01*
X036732Y012582D01*
X036683Y012572D01*
X036633Y012566D01*
X036583Y012564D01*
X036533Y012566D01*
X036483Y012572D01*
X036434Y012582D01*
X036385Y012595D01*
X036338Y012613D01*
X036292Y012634D01*
X036249Y012658D01*
X036207Y012686D01*
X036167Y012717D01*
X036130Y012751D01*
X036096Y012788D01*
X036065Y012828D01*
X036037Y012870D01*
X036013Y012913D01*
X035992Y012959D01*
X035974Y013006D01*
X035961Y013055D01*
X035951Y013104D01*
X035945Y013154D01*
X035943Y013204D01*
X040443Y013204D02*
X040445Y013254D01*
X040451Y013304D01*
X040461Y013353D01*
X040474Y013402D01*
X040492Y013449D01*
X040513Y013495D01*
X040537Y013538D01*
X040565Y013580D01*
X040596Y013620D01*
X040630Y013657D01*
X040667Y013691D01*
X040707Y013722D01*
X040749Y013750D01*
X040792Y013774D01*
X040838Y013795D01*
X040885Y013813D01*
X040934Y013826D01*
X040983Y013836D01*
X041033Y013842D01*
X041083Y013844D01*
X041133Y013842D01*
X041183Y013836D01*
X041232Y013826D01*
X041281Y013813D01*
X041328Y013795D01*
X041374Y013774D01*
X041417Y013750D01*
X041459Y013722D01*
X041499Y013691D01*
X041536Y013657D01*
X041570Y013620D01*
X041601Y013580D01*
X041629Y013538D01*
X041653Y013495D01*
X041674Y013449D01*
X041692Y013402D01*
X041705Y013353D01*
X041715Y013304D01*
X041721Y013254D01*
X041723Y013204D01*
X041721Y013154D01*
X041715Y013104D01*
X041705Y013055D01*
X041692Y013006D01*
X041674Y012959D01*
X041653Y012913D01*
X041629Y012870D01*
X041601Y012828D01*
X041570Y012788D01*
X041536Y012751D01*
X041499Y012717D01*
X041459Y012686D01*
X041417Y012658D01*
X041374Y012634D01*
X041328Y012613D01*
X041281Y012595D01*
X041232Y012582D01*
X041183Y012572D01*
X041133Y012566D01*
X041083Y012564D01*
X041033Y012566D01*
X040983Y012572D01*
X040934Y012582D01*
X040885Y012595D01*
X040838Y012613D01*
X040792Y012634D01*
X040749Y012658D01*
X040707Y012686D01*
X040667Y012717D01*
X040630Y012751D01*
X040596Y012788D01*
X040565Y012828D01*
X040537Y012870D01*
X040513Y012913D01*
X040492Y012959D01*
X040474Y013006D01*
X040461Y013055D01*
X040451Y013104D01*
X040445Y013154D01*
X040443Y013204D01*
X042943Y013204D02*
X042945Y013254D01*
X042951Y013304D01*
X042961Y013353D01*
X042974Y013402D01*
X042992Y013449D01*
X043013Y013495D01*
X043037Y013538D01*
X043065Y013580D01*
X043096Y013620D01*
X043130Y013657D01*
X043167Y013691D01*
X043207Y013722D01*
X043249Y013750D01*
X043292Y013774D01*
X043338Y013795D01*
X043385Y013813D01*
X043434Y013826D01*
X043483Y013836D01*
X043533Y013842D01*
X043583Y013844D01*
X043633Y013842D01*
X043683Y013836D01*
X043732Y013826D01*
X043781Y013813D01*
X043828Y013795D01*
X043874Y013774D01*
X043917Y013750D01*
X043959Y013722D01*
X043999Y013691D01*
X044036Y013657D01*
X044070Y013620D01*
X044101Y013580D01*
X044129Y013538D01*
X044153Y013495D01*
X044174Y013449D01*
X044192Y013402D01*
X044205Y013353D01*
X044215Y013304D01*
X044221Y013254D01*
X044223Y013204D01*
X044221Y013154D01*
X044215Y013104D01*
X044205Y013055D01*
X044192Y013006D01*
X044174Y012959D01*
X044153Y012913D01*
X044129Y012870D01*
X044101Y012828D01*
X044070Y012788D01*
X044036Y012751D01*
X043999Y012717D01*
X043959Y012686D01*
X043917Y012658D01*
X043874Y012634D01*
X043828Y012613D01*
X043781Y012595D01*
X043732Y012582D01*
X043683Y012572D01*
X043633Y012566D01*
X043583Y012564D01*
X043533Y012566D01*
X043483Y012572D01*
X043434Y012582D01*
X043385Y012595D01*
X043338Y012613D01*
X043292Y012634D01*
X043249Y012658D01*
X043207Y012686D01*
X043167Y012717D01*
X043130Y012751D01*
X043096Y012788D01*
X043065Y012828D01*
X043037Y012870D01*
X043013Y012913D01*
X042992Y012959D01*
X042974Y013006D01*
X042961Y013055D01*
X042951Y013104D01*
X042945Y013154D01*
X042943Y013204D01*
X047443Y013204D02*
X047445Y013254D01*
X047451Y013304D01*
X047461Y013353D01*
X047474Y013402D01*
X047492Y013449D01*
X047513Y013495D01*
X047537Y013538D01*
X047565Y013580D01*
X047596Y013620D01*
X047630Y013657D01*
X047667Y013691D01*
X047707Y013722D01*
X047749Y013750D01*
X047792Y013774D01*
X047838Y013795D01*
X047885Y013813D01*
X047934Y013826D01*
X047983Y013836D01*
X048033Y013842D01*
X048083Y013844D01*
X048133Y013842D01*
X048183Y013836D01*
X048232Y013826D01*
X048281Y013813D01*
X048328Y013795D01*
X048374Y013774D01*
X048417Y013750D01*
X048459Y013722D01*
X048499Y013691D01*
X048536Y013657D01*
X048570Y013620D01*
X048601Y013580D01*
X048629Y013538D01*
X048653Y013495D01*
X048674Y013449D01*
X048692Y013402D01*
X048705Y013353D01*
X048715Y013304D01*
X048721Y013254D01*
X048723Y013204D01*
X048721Y013154D01*
X048715Y013104D01*
X048705Y013055D01*
X048692Y013006D01*
X048674Y012959D01*
X048653Y012913D01*
X048629Y012870D01*
X048601Y012828D01*
X048570Y012788D01*
X048536Y012751D01*
X048499Y012717D01*
X048459Y012686D01*
X048417Y012658D01*
X048374Y012634D01*
X048328Y012613D01*
X048281Y012595D01*
X048232Y012582D01*
X048183Y012572D01*
X048133Y012566D01*
X048083Y012564D01*
X048033Y012566D01*
X047983Y012572D01*
X047934Y012582D01*
X047885Y012595D01*
X047838Y012613D01*
X047792Y012634D01*
X047749Y012658D01*
X047707Y012686D01*
X047667Y012717D01*
X047630Y012751D01*
X047596Y012788D01*
X047565Y012828D01*
X047537Y012870D01*
X047513Y012913D01*
X047492Y012959D01*
X047474Y013006D01*
X047461Y013055D01*
X047451Y013104D01*
X047445Y013154D01*
X047443Y013204D01*
X049943Y013204D02*
X049945Y013254D01*
X049951Y013304D01*
X049961Y013353D01*
X049974Y013402D01*
X049992Y013449D01*
X050013Y013495D01*
X050037Y013538D01*
X050065Y013580D01*
X050096Y013620D01*
X050130Y013657D01*
X050167Y013691D01*
X050207Y013722D01*
X050249Y013750D01*
X050292Y013774D01*
X050338Y013795D01*
X050385Y013813D01*
X050434Y013826D01*
X050483Y013836D01*
X050533Y013842D01*
X050583Y013844D01*
X050633Y013842D01*
X050683Y013836D01*
X050732Y013826D01*
X050781Y013813D01*
X050828Y013795D01*
X050874Y013774D01*
X050917Y013750D01*
X050959Y013722D01*
X050999Y013691D01*
X051036Y013657D01*
X051070Y013620D01*
X051101Y013580D01*
X051129Y013538D01*
X051153Y013495D01*
X051174Y013449D01*
X051192Y013402D01*
X051205Y013353D01*
X051215Y013304D01*
X051221Y013254D01*
X051223Y013204D01*
X051221Y013154D01*
X051215Y013104D01*
X051205Y013055D01*
X051192Y013006D01*
X051174Y012959D01*
X051153Y012913D01*
X051129Y012870D01*
X051101Y012828D01*
X051070Y012788D01*
X051036Y012751D01*
X050999Y012717D01*
X050959Y012686D01*
X050917Y012658D01*
X050874Y012634D01*
X050828Y012613D01*
X050781Y012595D01*
X050732Y012582D01*
X050683Y012572D01*
X050633Y012566D01*
X050583Y012564D01*
X050533Y012566D01*
X050483Y012572D01*
X050434Y012582D01*
X050385Y012595D01*
X050338Y012613D01*
X050292Y012634D01*
X050249Y012658D01*
X050207Y012686D01*
X050167Y012717D01*
X050130Y012751D01*
X050096Y012788D01*
X050065Y012828D01*
X050037Y012870D01*
X050013Y012913D01*
X049992Y012959D01*
X049974Y013006D01*
X049961Y013055D01*
X049951Y013104D01*
X049945Y013154D01*
X049943Y013204D01*
X054443Y013204D02*
X054445Y013254D01*
X054451Y013304D01*
X054461Y013353D01*
X054474Y013402D01*
X054492Y013449D01*
X054513Y013495D01*
X054537Y013538D01*
X054565Y013580D01*
X054596Y013620D01*
X054630Y013657D01*
X054667Y013691D01*
X054707Y013722D01*
X054749Y013750D01*
X054792Y013774D01*
X054838Y013795D01*
X054885Y013813D01*
X054934Y013826D01*
X054983Y013836D01*
X055033Y013842D01*
X055083Y013844D01*
X055133Y013842D01*
X055183Y013836D01*
X055232Y013826D01*
X055281Y013813D01*
X055328Y013795D01*
X055374Y013774D01*
X055417Y013750D01*
X055459Y013722D01*
X055499Y013691D01*
X055536Y013657D01*
X055570Y013620D01*
X055601Y013580D01*
X055629Y013538D01*
X055653Y013495D01*
X055674Y013449D01*
X055692Y013402D01*
X055705Y013353D01*
X055715Y013304D01*
X055721Y013254D01*
X055723Y013204D01*
X055721Y013154D01*
X055715Y013104D01*
X055705Y013055D01*
X055692Y013006D01*
X055674Y012959D01*
X055653Y012913D01*
X055629Y012870D01*
X055601Y012828D01*
X055570Y012788D01*
X055536Y012751D01*
X055499Y012717D01*
X055459Y012686D01*
X055417Y012658D01*
X055374Y012634D01*
X055328Y012613D01*
X055281Y012595D01*
X055232Y012582D01*
X055183Y012572D01*
X055133Y012566D01*
X055083Y012564D01*
X055033Y012566D01*
X054983Y012572D01*
X054934Y012582D01*
X054885Y012595D01*
X054838Y012613D01*
X054792Y012634D01*
X054749Y012658D01*
X054707Y012686D01*
X054667Y012717D01*
X054630Y012751D01*
X054596Y012788D01*
X054565Y012828D01*
X054537Y012870D01*
X054513Y012913D01*
X054492Y012959D01*
X054474Y013006D01*
X054461Y013055D01*
X054451Y013104D01*
X054445Y013154D01*
X054443Y013204D01*
X056943Y013204D02*
X056945Y013254D01*
X056951Y013304D01*
X056961Y013353D01*
X056974Y013402D01*
X056992Y013449D01*
X057013Y013495D01*
X057037Y013538D01*
X057065Y013580D01*
X057096Y013620D01*
X057130Y013657D01*
X057167Y013691D01*
X057207Y013722D01*
X057249Y013750D01*
X057292Y013774D01*
X057338Y013795D01*
X057385Y013813D01*
X057434Y013826D01*
X057483Y013836D01*
X057533Y013842D01*
X057583Y013844D01*
X057633Y013842D01*
X057683Y013836D01*
X057732Y013826D01*
X057781Y013813D01*
X057828Y013795D01*
X057874Y013774D01*
X057917Y013750D01*
X057959Y013722D01*
X057999Y013691D01*
X058036Y013657D01*
X058070Y013620D01*
X058101Y013580D01*
X058129Y013538D01*
X058153Y013495D01*
X058174Y013449D01*
X058192Y013402D01*
X058205Y013353D01*
X058215Y013304D01*
X058221Y013254D01*
X058223Y013204D01*
X058221Y013154D01*
X058215Y013104D01*
X058205Y013055D01*
X058192Y013006D01*
X058174Y012959D01*
X058153Y012913D01*
X058129Y012870D01*
X058101Y012828D01*
X058070Y012788D01*
X058036Y012751D01*
X057999Y012717D01*
X057959Y012686D01*
X057917Y012658D01*
X057874Y012634D01*
X057828Y012613D01*
X057781Y012595D01*
X057732Y012582D01*
X057683Y012572D01*
X057633Y012566D01*
X057583Y012564D01*
X057533Y012566D01*
X057483Y012572D01*
X057434Y012582D01*
X057385Y012595D01*
X057338Y012613D01*
X057292Y012634D01*
X057249Y012658D01*
X057207Y012686D01*
X057167Y012717D01*
X057130Y012751D01*
X057096Y012788D01*
X057065Y012828D01*
X057037Y012870D01*
X057013Y012913D01*
X056992Y012959D01*
X056974Y013006D01*
X056961Y013055D01*
X056951Y013104D01*
X056945Y013154D01*
X056943Y013204D01*
X061443Y013204D02*
X061445Y013254D01*
X061451Y013304D01*
X061461Y013353D01*
X061474Y013402D01*
X061492Y013449D01*
X061513Y013495D01*
X061537Y013538D01*
X061565Y013580D01*
X061596Y013620D01*
X061630Y013657D01*
X061667Y013691D01*
X061707Y013722D01*
X061749Y013750D01*
X061792Y013774D01*
X061838Y013795D01*
X061885Y013813D01*
X061934Y013826D01*
X061983Y013836D01*
X062033Y013842D01*
X062083Y013844D01*
X062133Y013842D01*
X062183Y013836D01*
X062232Y013826D01*
X062281Y013813D01*
X062328Y013795D01*
X062374Y013774D01*
X062417Y013750D01*
X062459Y013722D01*
X062499Y013691D01*
X062536Y013657D01*
X062570Y013620D01*
X062601Y013580D01*
X062629Y013538D01*
X062653Y013495D01*
X062674Y013449D01*
X062692Y013402D01*
X062705Y013353D01*
X062715Y013304D01*
X062721Y013254D01*
X062723Y013204D01*
X062721Y013154D01*
X062715Y013104D01*
X062705Y013055D01*
X062692Y013006D01*
X062674Y012959D01*
X062653Y012913D01*
X062629Y012870D01*
X062601Y012828D01*
X062570Y012788D01*
X062536Y012751D01*
X062499Y012717D01*
X062459Y012686D01*
X062417Y012658D01*
X062374Y012634D01*
X062328Y012613D01*
X062281Y012595D01*
X062232Y012582D01*
X062183Y012572D01*
X062133Y012566D01*
X062083Y012564D01*
X062033Y012566D01*
X061983Y012572D01*
X061934Y012582D01*
X061885Y012595D01*
X061838Y012613D01*
X061792Y012634D01*
X061749Y012658D01*
X061707Y012686D01*
X061667Y012717D01*
X061630Y012751D01*
X061596Y012788D01*
X061565Y012828D01*
X061537Y012870D01*
X061513Y012913D01*
X061492Y012959D01*
X061474Y013006D01*
X061461Y013055D01*
X061451Y013104D01*
X061445Y013154D01*
X061443Y013204D01*
X007943Y013204D02*
X007945Y013254D01*
X007951Y013304D01*
X007961Y013353D01*
X007974Y013402D01*
X007992Y013449D01*
X008013Y013495D01*
X008037Y013538D01*
X008065Y013580D01*
X008096Y013620D01*
X008130Y013657D01*
X008167Y013691D01*
X008207Y013722D01*
X008249Y013750D01*
X008292Y013774D01*
X008338Y013795D01*
X008385Y013813D01*
X008434Y013826D01*
X008483Y013836D01*
X008533Y013842D01*
X008583Y013844D01*
X008633Y013842D01*
X008683Y013836D01*
X008732Y013826D01*
X008781Y013813D01*
X008828Y013795D01*
X008874Y013774D01*
X008917Y013750D01*
X008959Y013722D01*
X008999Y013691D01*
X009036Y013657D01*
X009070Y013620D01*
X009101Y013580D01*
X009129Y013538D01*
X009153Y013495D01*
X009174Y013449D01*
X009192Y013402D01*
X009205Y013353D01*
X009215Y013304D01*
X009221Y013254D01*
X009223Y013204D01*
X009221Y013154D01*
X009215Y013104D01*
X009205Y013055D01*
X009192Y013006D01*
X009174Y012959D01*
X009153Y012913D01*
X009129Y012870D01*
X009101Y012828D01*
X009070Y012788D01*
X009036Y012751D01*
X008999Y012717D01*
X008959Y012686D01*
X008917Y012658D01*
X008874Y012634D01*
X008828Y012613D01*
X008781Y012595D01*
X008732Y012582D01*
X008683Y012572D01*
X008633Y012566D01*
X008583Y012564D01*
X008533Y012566D01*
X008483Y012572D01*
X008434Y012582D01*
X008385Y012595D01*
X008338Y012613D01*
X008292Y012634D01*
X008249Y012658D01*
X008207Y012686D01*
X008167Y012717D01*
X008130Y012751D01*
X008096Y012788D01*
X008065Y012828D01*
X008037Y012870D01*
X008013Y012913D01*
X007992Y012959D01*
X007974Y013006D01*
X007961Y013055D01*
X007951Y013104D01*
X007945Y013154D01*
X007943Y013204D01*
D11*
X016696Y002776D02*
X016962Y002776D01*
X017050Y002687D01*
X017050Y002333D01*
X016962Y002245D01*
X016696Y002245D01*
X016696Y002776D01*
X017249Y002599D02*
X017426Y002776D01*
X017426Y002245D01*
X017249Y002245D02*
X017603Y002245D01*
X052368Y001369D02*
X052368Y000739D01*
X052368Y000949D02*
X052684Y000949D01*
X052789Y001054D01*
X052789Y001264D01*
X052684Y001369D01*
X052368Y001369D01*
X053013Y001054D02*
X053013Y000844D01*
X053118Y000739D01*
X053328Y000739D01*
X053433Y000844D01*
X053433Y001054D01*
X053328Y001159D01*
X053118Y001159D01*
X053013Y001054D01*
X053657Y000949D02*
X053868Y001159D01*
X053973Y001159D01*
X054195Y001159D02*
X054405Y001159D01*
X054300Y001264D02*
X054300Y000844D01*
X054405Y000739D01*
X053657Y000739D02*
X053657Y001159D01*
X055269Y001054D02*
X055479Y001054D01*
X055269Y001369D02*
X055269Y000739D01*
X055689Y000739D01*
X055913Y000739D02*
X056334Y001159D01*
X056558Y001159D02*
X056873Y001159D01*
X056978Y001054D01*
X056978Y000844D01*
X056873Y000739D01*
X056558Y000739D01*
X056558Y000529D02*
X056558Y001159D01*
X056334Y000739D02*
X055913Y001159D01*
X055689Y001369D02*
X055269Y001369D01*
X057202Y000844D02*
X057308Y000739D01*
X057623Y000739D01*
X057623Y001054D01*
X057518Y001159D01*
X057308Y001159D01*
X057308Y000949D02*
X057623Y000949D01*
X057847Y000739D02*
X057847Y001159D01*
X058162Y001159D01*
X058267Y001054D01*
X058267Y000739D01*
X058492Y000844D02*
X058597Y000739D01*
X058912Y000739D01*
X058912Y001369D01*
X058912Y001159D02*
X058597Y001159D01*
X058492Y001054D01*
X058492Y000844D01*
X059136Y000844D02*
X059241Y000739D01*
X059451Y000739D01*
X059556Y000949D02*
X059136Y000949D01*
X059136Y000844D02*
X059136Y001054D01*
X059241Y001159D01*
X059451Y001159D01*
X059556Y001054D01*
X059556Y000949D01*
X059781Y000949D02*
X059991Y001159D01*
X060096Y001159D01*
X059781Y001159D02*
X059781Y000739D01*
X060962Y000739D02*
X061383Y000739D01*
X061173Y000739D02*
X061173Y001369D01*
X060962Y001159D01*
X061607Y000844D02*
X061712Y000844D01*
X061712Y000739D01*
X061607Y000739D01*
X061607Y000844D01*
X061929Y000844D02*
X062350Y001264D01*
X062350Y000844D01*
X062244Y000739D01*
X062034Y000739D01*
X061929Y000844D01*
X061929Y001264D01*
X062034Y001369D01*
X062244Y001369D01*
X062350Y001264D01*
X057308Y000949D02*
X057202Y000844D01*
D12*
X061558Y002971D02*
X061558Y003680D01*
X061558Y002971D02*
X065416Y002971D01*
X065416Y006436D01*
X066794Y006436D02*
X063723Y006436D01*
X061558Y006436D02*
X061558Y005727D01*
X057623Y005554D02*
X057623Y003194D01*
X055043Y003194D02*
X055043Y005554D01*
X057623Y005554D01*
X065416Y002971D02*
X066794Y002971D01*
X066794Y006436D01*
X062797Y008944D02*
X062797Y015268D01*
X056870Y015268D01*
X056870Y008944D01*
X062797Y008944D01*
X055797Y008944D02*
X055797Y015268D01*
X049870Y015268D01*
X049870Y008944D01*
X055797Y008944D01*
X048797Y008944D02*
X048797Y015268D01*
X042870Y015268D01*
X042870Y008944D01*
X048797Y008944D01*
X041797Y008944D02*
X041797Y015268D01*
X035870Y015268D01*
X035870Y008944D01*
X041797Y008944D01*
X034797Y008944D02*
X034797Y015268D01*
X028870Y015268D01*
X028870Y008944D01*
X034797Y008944D01*
X027797Y008944D02*
X027797Y015268D01*
X021870Y015268D01*
X021870Y008944D01*
X027797Y008944D01*
X020797Y008944D02*
X020797Y015268D01*
X014870Y015268D01*
X014870Y008944D01*
X020797Y008944D01*
X013797Y008944D02*
X013797Y015268D01*
X007870Y015268D01*
X007870Y008944D01*
X013797Y008944D01*
X013797Y006463D02*
X007870Y006463D01*
X007870Y000140D01*
X013797Y000140D01*
X013797Y006463D01*
D13*
X014597Y005822D02*
X014597Y005586D01*
X015070Y005586D02*
X015070Y005822D01*
X015597Y005822D02*
X015597Y005586D01*
X016070Y005586D02*
X016070Y005822D01*
X019103Y005666D02*
X019103Y002742D01*
X026053Y002742D01*
X026053Y005666D01*
X019103Y005666D01*
X019763Y003724D02*
X019943Y003544D01*
X020124Y003724D01*
X020124Y003184D01*
X020316Y003274D02*
X020406Y003184D01*
X020586Y003184D01*
X020676Y003274D01*
X020868Y003364D02*
X021139Y003364D01*
X021229Y003454D01*
X021229Y003634D01*
X021139Y003724D01*
X020868Y003724D01*
X020868Y003184D01*
X021421Y003184D02*
X021781Y003544D01*
X021781Y003634D01*
X021691Y003724D01*
X021511Y003724D01*
X021421Y003634D01*
X021973Y003634D02*
X022063Y003724D01*
X022243Y003724D01*
X022334Y003634D01*
X022334Y003544D01*
X022243Y003454D01*
X022334Y003364D01*
X022334Y003274D01*
X022243Y003184D01*
X022063Y003184D01*
X021973Y003274D01*
X021781Y003184D02*
X021421Y003184D01*
X022153Y003454D02*
X022243Y003454D01*
X022526Y003274D02*
X022886Y003634D01*
X022886Y003274D01*
X022796Y003184D01*
X022616Y003184D01*
X022526Y003274D01*
X022526Y003634D01*
X022616Y003724D01*
X022796Y003724D01*
X022886Y003634D01*
X023078Y003544D02*
X023258Y003724D01*
X023258Y003184D01*
X023078Y003184D02*
X023438Y003184D01*
X023631Y003184D02*
X023631Y003274D01*
X023991Y003634D01*
X023991Y003724D01*
X023631Y003724D01*
X024183Y003634D02*
X024183Y003544D01*
X024273Y003454D01*
X024453Y003454D01*
X024543Y003364D01*
X024543Y003274D01*
X024453Y003184D01*
X024273Y003184D01*
X024183Y003274D01*
X024736Y003274D02*
X024826Y003184D01*
X025006Y003184D01*
X025096Y003274D01*
X025096Y003634D01*
X025006Y003724D01*
X024826Y003724D01*
X024736Y003634D01*
X024736Y003274D01*
X024543Y003634D02*
X024453Y003724D01*
X024273Y003724D01*
X024183Y003634D01*
X020676Y003634D02*
X020586Y003724D01*
X020406Y003724D01*
X020316Y003634D01*
X020316Y003274D01*
X019763Y003184D02*
X019763Y003724D01*
X025473Y005444D02*
X025475Y005473D01*
X025481Y005501D01*
X025490Y005528D01*
X025504Y005553D01*
X025520Y005577D01*
X025540Y005597D01*
X025562Y005616D01*
X025586Y005630D01*
X025613Y005642D01*
X025640Y005650D01*
X025669Y005654D01*
X025697Y005654D01*
X025726Y005650D01*
X025753Y005642D01*
X025780Y005630D01*
X025804Y005616D01*
X025826Y005597D01*
X025846Y005577D01*
X025862Y005553D01*
X025876Y005528D01*
X025885Y005501D01*
X025891Y005473D01*
X025893Y005444D01*
X025891Y005415D01*
X025885Y005387D01*
X025876Y005360D01*
X025862Y005335D01*
X025846Y005311D01*
X025826Y005291D01*
X025804Y005272D01*
X025780Y005258D01*
X025753Y005246D01*
X025726Y005238D01*
X025697Y005234D01*
X025669Y005234D01*
X025640Y005238D01*
X025613Y005246D01*
X025586Y005258D01*
X025562Y005272D01*
X025540Y005291D01*
X025520Y005311D01*
X025504Y005335D01*
X025490Y005360D01*
X025481Y005387D01*
X025475Y005415D01*
X025473Y005444D01*
X029033Y005524D02*
X029033Y004704D01*
X029033Y003704D01*
X029033Y002884D01*
X029035Y002861D01*
X029040Y002838D01*
X029049Y002816D01*
X029062Y002796D01*
X029077Y002778D01*
X029095Y002763D01*
X029115Y002750D01*
X029137Y002741D01*
X029160Y002736D01*
X029183Y002734D01*
X033483Y002734D01*
X033506Y002736D01*
X033529Y002741D01*
X033551Y002750D01*
X033571Y002763D01*
X033589Y002778D01*
X033604Y002796D01*
X033617Y002816D01*
X033626Y002838D01*
X033631Y002861D01*
X033633Y002884D01*
X033633Y005524D01*
X033631Y005547D01*
X033626Y005570D01*
X033617Y005592D01*
X033604Y005612D01*
X033589Y005630D01*
X033571Y005645D01*
X033551Y005658D01*
X033529Y005667D01*
X033506Y005672D01*
X033483Y005674D01*
X029183Y005674D01*
X029160Y005672D01*
X029137Y005667D01*
X029115Y005658D01*
X029095Y005645D01*
X029077Y005630D01*
X029062Y005612D01*
X029049Y005592D01*
X029040Y005570D01*
X029035Y005547D01*
X029033Y005524D01*
X029033Y004704D02*
X029077Y004702D01*
X029120Y004696D01*
X029162Y004687D01*
X029204Y004674D01*
X029244Y004657D01*
X029283Y004637D01*
X029320Y004614D01*
X029354Y004587D01*
X029387Y004558D01*
X029416Y004525D01*
X029443Y004491D01*
X029466Y004454D01*
X029486Y004415D01*
X029503Y004375D01*
X029516Y004333D01*
X029525Y004291D01*
X029531Y004248D01*
X029533Y004204D01*
X029531Y004160D01*
X029525Y004117D01*
X029516Y004075D01*
X029503Y004033D01*
X029486Y003993D01*
X029466Y003954D01*
X029443Y003917D01*
X029416Y003883D01*
X029387Y003850D01*
X029354Y003821D01*
X029320Y003794D01*
X029283Y003771D01*
X029244Y003751D01*
X029204Y003734D01*
X029162Y003721D01*
X029120Y003712D01*
X029077Y003706D01*
X029033Y003704D01*
X036103Y002742D02*
X036103Y005666D01*
X043053Y005666D01*
X043053Y002742D01*
X036103Y002742D01*
X036763Y003184D02*
X036763Y003724D01*
X036943Y003544D01*
X037124Y003724D01*
X037124Y003184D01*
X037316Y003274D02*
X037406Y003184D01*
X037586Y003184D01*
X037676Y003274D01*
X037868Y003364D02*
X038139Y003364D01*
X038229Y003454D01*
X038229Y003634D01*
X038139Y003724D01*
X037868Y003724D01*
X037868Y003184D01*
X038421Y003184D02*
X038781Y003544D01*
X038781Y003634D01*
X038691Y003724D01*
X038511Y003724D01*
X038421Y003634D01*
X038973Y003634D02*
X039063Y003724D01*
X039243Y003724D01*
X039334Y003634D01*
X039334Y003544D01*
X039243Y003454D01*
X039334Y003364D01*
X039334Y003274D01*
X039243Y003184D01*
X039063Y003184D01*
X038973Y003274D01*
X038781Y003184D02*
X038421Y003184D01*
X039153Y003454D02*
X039243Y003454D01*
X039526Y003274D02*
X039886Y003634D01*
X039886Y003274D01*
X039796Y003184D01*
X039616Y003184D01*
X039526Y003274D01*
X039526Y003634D01*
X039616Y003724D01*
X039796Y003724D01*
X039886Y003634D01*
X040078Y003544D02*
X040258Y003724D01*
X040258Y003184D01*
X040078Y003184D02*
X040438Y003184D01*
X040631Y003184D02*
X040631Y003274D01*
X040991Y003634D01*
X040991Y003724D01*
X040631Y003724D01*
X041183Y003634D02*
X041183Y003544D01*
X041273Y003454D01*
X041453Y003454D01*
X041543Y003364D01*
X041543Y003274D01*
X041453Y003184D01*
X041273Y003184D01*
X041183Y003274D01*
X041736Y003274D02*
X041826Y003184D01*
X042006Y003184D01*
X042096Y003274D01*
X042096Y003634D01*
X042006Y003724D01*
X041826Y003724D01*
X041736Y003634D01*
X041736Y003274D01*
X041543Y003634D02*
X041453Y003724D01*
X041273Y003724D01*
X041183Y003634D01*
X037676Y003634D02*
X037586Y003724D01*
X037406Y003724D01*
X037316Y003634D01*
X037316Y003274D01*
X042473Y005444D02*
X042475Y005473D01*
X042481Y005501D01*
X042490Y005528D01*
X042504Y005553D01*
X042520Y005577D01*
X042540Y005597D01*
X042562Y005616D01*
X042586Y005630D01*
X042613Y005642D01*
X042640Y005650D01*
X042669Y005654D01*
X042697Y005654D01*
X042726Y005650D01*
X042753Y005642D01*
X042780Y005630D01*
X042804Y005616D01*
X042826Y005597D01*
X042846Y005577D01*
X042862Y005553D01*
X042876Y005528D01*
X042885Y005501D01*
X042891Y005473D01*
X042893Y005444D01*
X042891Y005415D01*
X042885Y005387D01*
X042876Y005360D01*
X042862Y005335D01*
X042846Y005311D01*
X042826Y005291D01*
X042804Y005272D01*
X042780Y005258D01*
X042753Y005246D01*
X042726Y005238D01*
X042697Y005234D01*
X042669Y005234D01*
X042640Y005238D01*
X042613Y005246D01*
X042586Y005258D01*
X042562Y005272D01*
X042540Y005291D01*
X042520Y005311D01*
X042504Y005335D01*
X042490Y005360D01*
X042481Y005387D01*
X042475Y005415D01*
X042473Y005444D01*
X045533Y005524D02*
X045533Y004704D01*
X045533Y003704D01*
X045533Y002884D01*
X045535Y002861D01*
X045540Y002838D01*
X045549Y002816D01*
X045562Y002796D01*
X045577Y002778D01*
X045595Y002763D01*
X045615Y002750D01*
X045637Y002741D01*
X045660Y002736D01*
X045683Y002734D01*
X049983Y002734D01*
X050006Y002736D01*
X050029Y002741D01*
X050051Y002750D01*
X050071Y002763D01*
X050089Y002778D01*
X050104Y002796D01*
X050117Y002816D01*
X050126Y002838D01*
X050131Y002861D01*
X050133Y002884D01*
X050133Y005524D01*
X050131Y005547D01*
X050126Y005570D01*
X050117Y005592D01*
X050104Y005612D01*
X050089Y005630D01*
X050071Y005645D01*
X050051Y005658D01*
X050029Y005667D01*
X050006Y005672D01*
X049983Y005674D01*
X045683Y005674D01*
X045660Y005672D01*
X045637Y005667D01*
X045615Y005658D01*
X045595Y005645D01*
X045577Y005630D01*
X045562Y005612D01*
X045549Y005592D01*
X045540Y005570D01*
X045535Y005547D01*
X045533Y005524D01*
X045533Y004704D02*
X045577Y004702D01*
X045620Y004696D01*
X045662Y004687D01*
X045704Y004674D01*
X045744Y004657D01*
X045783Y004637D01*
X045820Y004614D01*
X045854Y004587D01*
X045887Y004558D01*
X045916Y004525D01*
X045943Y004491D01*
X045966Y004454D01*
X045986Y004415D01*
X046003Y004375D01*
X046016Y004333D01*
X046025Y004291D01*
X046031Y004248D01*
X046033Y004204D01*
X046031Y004160D01*
X046025Y004117D01*
X046016Y004075D01*
X046003Y004033D01*
X045986Y003993D01*
X045966Y003954D01*
X045943Y003917D01*
X045916Y003883D01*
X045887Y003850D01*
X045854Y003821D01*
X045820Y003794D01*
X045783Y003771D01*
X045744Y003751D01*
X045704Y003734D01*
X045662Y003721D01*
X045620Y003712D01*
X045577Y003706D01*
X045533Y003704D01*
X052523Y004794D02*
X052523Y005114D01*
X052743Y005114D01*
X053423Y005114D02*
X053643Y005114D01*
X053643Y004794D01*
X053969Y008034D02*
X053969Y008141D01*
X054396Y008568D01*
X054396Y008674D01*
X053969Y008674D01*
X053107Y008674D02*
X052680Y008674D01*
X052893Y008674D02*
X052893Y008034D01*
X052462Y008034D02*
X052249Y008247D01*
X052355Y008247D02*
X052035Y008247D01*
X052035Y008034D02*
X052035Y008674D01*
X052355Y008674D01*
X052462Y008568D01*
X052462Y008354D01*
X052355Y008247D01*
X051818Y008141D02*
X051818Y008568D01*
X051711Y008674D01*
X051497Y008674D01*
X051391Y008568D01*
X051391Y008141D01*
X051497Y008034D01*
X051711Y008034D01*
X051818Y008141D01*
X051173Y008354D02*
X051066Y008247D01*
X050746Y008247D01*
X050746Y008034D02*
X050746Y008674D01*
X051066Y008674D01*
X051173Y008568D01*
X051173Y008354D01*
X053324Y008354D02*
X053751Y008354D01*
X057746Y008247D02*
X058066Y008247D01*
X058173Y008354D01*
X058173Y008568D01*
X058066Y008674D01*
X057746Y008674D01*
X057746Y008034D01*
X058391Y008141D02*
X058497Y008034D01*
X058711Y008034D01*
X058818Y008141D01*
X058818Y008568D01*
X058711Y008674D01*
X058497Y008674D01*
X058391Y008568D01*
X058391Y008141D01*
X059035Y008247D02*
X059355Y008247D01*
X059462Y008354D01*
X059462Y008568D01*
X059355Y008674D01*
X059035Y008674D01*
X059035Y008034D01*
X059249Y008247D02*
X059462Y008034D01*
X059893Y008034D02*
X059893Y008674D01*
X059680Y008674D02*
X060107Y008674D01*
X060324Y008354D02*
X060751Y008354D01*
X060969Y008247D02*
X060969Y008141D01*
X061076Y008034D01*
X061289Y008034D01*
X061396Y008141D01*
X061396Y008247D01*
X061289Y008354D01*
X061076Y008354D01*
X060969Y008461D01*
X060969Y008568D01*
X061076Y008674D01*
X061289Y008674D01*
X061396Y008568D01*
X061396Y008461D01*
X061289Y008354D01*
X061076Y008354D02*
X060969Y008247D01*
X047396Y008141D02*
X047396Y008247D01*
X047289Y008354D01*
X046969Y008354D01*
X046969Y008141D01*
X047076Y008034D01*
X047289Y008034D01*
X047396Y008141D01*
X047182Y008568D02*
X046969Y008354D01*
X046751Y008354D02*
X046324Y008354D01*
X045893Y008034D02*
X045893Y008674D01*
X045680Y008674D02*
X046107Y008674D01*
X045462Y008568D02*
X045462Y008354D01*
X045355Y008247D01*
X045035Y008247D01*
X045035Y008034D02*
X045035Y008674D01*
X045355Y008674D01*
X045462Y008568D01*
X045249Y008247D02*
X045462Y008034D01*
X044818Y008141D02*
X044818Y008568D01*
X044711Y008674D01*
X044497Y008674D01*
X044391Y008568D01*
X044391Y008141D01*
X044497Y008034D01*
X044711Y008034D01*
X044818Y008141D01*
X044173Y008354D02*
X044066Y008247D01*
X043746Y008247D01*
X043746Y008034D02*
X043746Y008674D01*
X044066Y008674D01*
X044173Y008568D01*
X044173Y008354D01*
X047182Y008568D02*
X047396Y008674D01*
X040396Y008674D02*
X039969Y008674D01*
X039969Y008354D01*
X040182Y008461D01*
X040289Y008461D01*
X040396Y008354D01*
X040396Y008141D01*
X040289Y008034D01*
X040076Y008034D01*
X039969Y008141D01*
X039751Y008354D02*
X039324Y008354D01*
X038893Y008034D02*
X038893Y008674D01*
X038680Y008674D02*
X039107Y008674D01*
X038462Y008568D02*
X038462Y008354D01*
X038355Y008247D01*
X038035Y008247D01*
X038035Y008034D02*
X038035Y008674D01*
X038355Y008674D01*
X038462Y008568D01*
X038249Y008247D02*
X038462Y008034D01*
X037818Y008141D02*
X037818Y008568D01*
X037711Y008674D01*
X037497Y008674D01*
X037391Y008568D01*
X037391Y008141D01*
X037497Y008034D01*
X037711Y008034D01*
X037818Y008141D01*
X037173Y008354D02*
X037066Y008247D01*
X036746Y008247D01*
X036746Y008034D02*
X036746Y008674D01*
X037066Y008674D01*
X037173Y008568D01*
X037173Y008354D01*
X033396Y008354D02*
X032969Y008354D01*
X033289Y008674D01*
X033289Y008034D01*
X032751Y008354D02*
X032324Y008354D01*
X031893Y008034D02*
X031893Y008674D01*
X031680Y008674D02*
X032107Y008674D01*
X031462Y008568D02*
X031462Y008354D01*
X031355Y008247D01*
X031035Y008247D01*
X031035Y008034D02*
X031035Y008674D01*
X031355Y008674D01*
X031462Y008568D01*
X031249Y008247D02*
X031462Y008034D01*
X030818Y008141D02*
X030818Y008568D01*
X030711Y008674D01*
X030497Y008674D01*
X030391Y008568D01*
X030391Y008141D01*
X030497Y008034D01*
X030711Y008034D01*
X030818Y008141D01*
X030173Y008354D02*
X030066Y008247D01*
X029746Y008247D01*
X029746Y008034D02*
X029746Y008674D01*
X030066Y008674D01*
X030173Y008568D01*
X030173Y008354D01*
X026396Y008247D02*
X026396Y008141D01*
X026289Y008034D01*
X026076Y008034D01*
X025969Y008141D01*
X026182Y008354D02*
X026289Y008354D01*
X026396Y008247D01*
X026289Y008354D02*
X026396Y008461D01*
X026396Y008568D01*
X026289Y008674D01*
X026076Y008674D01*
X025969Y008568D01*
X025751Y008354D02*
X025324Y008354D01*
X024893Y008034D02*
X024893Y008674D01*
X024680Y008674D02*
X025107Y008674D01*
X024462Y008568D02*
X024462Y008354D01*
X024355Y008247D01*
X024035Y008247D01*
X024035Y008034D02*
X024035Y008674D01*
X024355Y008674D01*
X024462Y008568D01*
X024249Y008247D02*
X024462Y008034D01*
X023818Y008141D02*
X023818Y008568D01*
X023711Y008674D01*
X023497Y008674D01*
X023391Y008568D01*
X023391Y008141D01*
X023497Y008034D01*
X023711Y008034D01*
X023818Y008141D01*
X023173Y008354D02*
X023066Y008247D01*
X022746Y008247D01*
X022746Y008034D02*
X022746Y008674D01*
X023066Y008674D01*
X023173Y008568D01*
X023173Y008354D01*
X019396Y008461D02*
X018969Y008034D01*
X019396Y008034D01*
X018751Y008354D02*
X018324Y008354D01*
X017893Y008034D02*
X017893Y008674D01*
X017680Y008674D02*
X018107Y008674D01*
X017462Y008568D02*
X017462Y008354D01*
X017355Y008247D01*
X017035Y008247D01*
X017035Y008034D02*
X017035Y008674D01*
X017355Y008674D01*
X017462Y008568D01*
X017249Y008247D02*
X017462Y008034D01*
X016818Y008141D02*
X016818Y008568D01*
X016711Y008674D01*
X016497Y008674D01*
X016391Y008568D01*
X016391Y008141D01*
X016497Y008034D01*
X016711Y008034D01*
X016818Y008141D01*
X016173Y008354D02*
X016066Y008247D01*
X015746Y008247D01*
X015746Y008034D02*
X015746Y008674D01*
X016066Y008674D01*
X016173Y008568D01*
X016173Y008354D01*
X018969Y008568D02*
X019076Y008674D01*
X019289Y008674D01*
X019396Y008568D01*
X019396Y008461D01*
X012396Y008034D02*
X011969Y008034D01*
X012182Y008034D02*
X012182Y008674D01*
X011969Y008461D01*
X011751Y008354D02*
X011324Y008354D01*
X010893Y008034D02*
X010893Y008674D01*
X010680Y008674D02*
X011107Y008674D01*
X010462Y008568D02*
X010462Y008354D01*
X010355Y008247D01*
X010035Y008247D01*
X010035Y008034D02*
X010035Y008674D01*
X010355Y008674D01*
X010462Y008568D01*
X010249Y008247D02*
X010462Y008034D01*
X009818Y008141D02*
X009818Y008568D01*
X009711Y008674D01*
X009497Y008674D01*
X009391Y008568D01*
X009391Y008141D01*
X009497Y008034D01*
X009711Y008034D01*
X009818Y008141D01*
X009173Y008354D02*
X009066Y008247D01*
X008746Y008247D01*
X008746Y008034D02*
X008746Y008674D01*
X009066Y008674D01*
X009173Y008568D01*
X009173Y008354D01*
X009970Y007374D02*
X009863Y007268D01*
X009863Y006841D01*
X009970Y006734D01*
X010184Y006734D01*
X010290Y006841D01*
X010508Y006841D02*
X010615Y006734D01*
X010828Y006734D01*
X010935Y006841D01*
X010935Y007268D01*
X010828Y007374D01*
X010615Y007374D01*
X010508Y007268D01*
X010508Y006841D01*
X011152Y006734D02*
X011152Y007374D01*
X011366Y007161D01*
X011579Y007374D01*
X011579Y006734D01*
X010290Y007268D02*
X010184Y007374D01*
X009970Y007374D01*
D14*
X029033Y002874D02*
X033633Y002874D01*
X045533Y002874D02*
X050133Y002874D01*
D15*
X049833Y002709D03*
X049333Y002709D03*
X048833Y002709D03*
X048333Y002709D03*
X047833Y002709D03*
X047333Y002709D03*
X046833Y002709D03*
X046333Y002709D03*
X045833Y002709D03*
X045833Y005699D03*
X046333Y005699D03*
X046833Y005699D03*
X047333Y005699D03*
X047833Y005699D03*
X048333Y005699D03*
X048833Y005699D03*
X049333Y005699D03*
X049833Y005699D03*
X033333Y005699D03*
X032833Y005699D03*
X032333Y005699D03*
X031833Y005699D03*
X031333Y005699D03*
X030833Y005699D03*
X030333Y005699D03*
X029833Y005699D03*
X029333Y005699D03*
X029333Y002709D03*
X029833Y002709D03*
X030333Y002709D03*
X030833Y002709D03*
X031333Y002709D03*
X031833Y002709D03*
X032333Y002709D03*
X032833Y002709D03*
X033333Y002709D03*
D16*
X033023Y003179D02*
X032873Y003179D01*
X032798Y003254D01*
X032638Y003254D02*
X032563Y003179D01*
X032413Y003179D01*
X032338Y003254D01*
X032338Y003329D01*
X032413Y003404D01*
X032563Y003404D01*
X032638Y003329D01*
X032638Y003254D01*
X032563Y003404D02*
X032638Y003479D01*
X032638Y003554D01*
X032563Y003629D01*
X032413Y003629D01*
X032338Y003554D01*
X032338Y003479D01*
X032413Y003404D01*
X032177Y003554D02*
X031877Y003254D01*
X031952Y003179D01*
X032102Y003179D01*
X032177Y003254D01*
X032177Y003554D01*
X032102Y003629D01*
X031952Y003629D01*
X031877Y003554D01*
X031877Y003254D01*
X031717Y003179D02*
X031417Y003179D01*
X031717Y003479D01*
X031717Y003554D01*
X031642Y003629D01*
X031492Y003629D01*
X031417Y003554D01*
X031257Y003629D02*
X031106Y003554D01*
X030956Y003404D01*
X031182Y003404D01*
X031257Y003329D01*
X031257Y003254D01*
X031182Y003179D01*
X031031Y003179D01*
X030956Y003254D01*
X030956Y003404D01*
X030796Y003554D02*
X030721Y003629D01*
X030496Y003629D01*
X030496Y003179D01*
X030721Y003179D01*
X030796Y003254D01*
X030796Y003554D01*
X030336Y003554D02*
X030261Y003629D01*
X030036Y003629D01*
X030036Y003179D01*
X030261Y003179D01*
X030336Y003254D01*
X030336Y003329D01*
X030261Y003404D01*
X030036Y003404D01*
X030261Y003404D02*
X030336Y003479D01*
X030336Y003554D01*
X029875Y003629D02*
X029575Y003629D01*
X029725Y003629D02*
X029725Y003179D01*
X032798Y003554D02*
X032873Y003629D01*
X033023Y003629D01*
X033098Y003554D01*
X033098Y003479D01*
X033023Y003404D01*
X033098Y003329D01*
X033098Y003254D01*
X033023Y003179D01*
X033023Y003404D02*
X032948Y003404D01*
X046208Y004479D02*
X046509Y004479D01*
X046358Y004479D02*
X046358Y004029D01*
X046669Y004029D02*
X046894Y004029D01*
X046969Y004104D01*
X046969Y004179D01*
X046894Y004254D01*
X046669Y004254D01*
X046894Y004254D02*
X046969Y004329D01*
X046969Y004404D01*
X046894Y004479D01*
X046669Y004479D01*
X046669Y004029D01*
X047129Y004029D02*
X047354Y004029D01*
X047429Y004104D01*
X047429Y004404D01*
X047354Y004479D01*
X047129Y004479D01*
X047129Y004029D01*
X047590Y004104D02*
X047590Y004254D01*
X047815Y004254D01*
X047890Y004179D01*
X047890Y004104D01*
X047815Y004029D01*
X047665Y004029D01*
X047590Y004104D01*
X047590Y004254D02*
X047740Y004404D01*
X047890Y004479D01*
X048050Y004404D02*
X048125Y004479D01*
X048275Y004479D01*
X048350Y004404D01*
X048350Y004329D01*
X048050Y004029D01*
X048350Y004029D01*
X048510Y004104D02*
X048811Y004404D01*
X048811Y004104D01*
X048735Y004029D01*
X048585Y004029D01*
X048510Y004104D01*
X048510Y004404D01*
X048585Y004479D01*
X048735Y004479D01*
X048811Y004404D01*
X048971Y004404D02*
X048971Y004329D01*
X049046Y004254D01*
X049196Y004254D01*
X049271Y004179D01*
X049271Y004104D01*
X049196Y004029D01*
X049046Y004029D01*
X048971Y004104D01*
X048971Y004179D01*
X049046Y004254D01*
X049196Y004254D02*
X049271Y004329D01*
X049271Y004404D01*
X049196Y004479D01*
X049046Y004479D01*
X048971Y004404D01*
X049431Y004404D02*
X049506Y004479D01*
X049656Y004479D01*
X049731Y004404D01*
X049731Y004329D01*
X049656Y004254D01*
X049731Y004179D01*
X049731Y004104D01*
X049656Y004029D01*
X049506Y004029D01*
X049431Y004104D01*
X049581Y004254D02*
X049656Y004254D01*
X016283Y002754D02*
X016283Y002154D01*
X014883Y002154D01*
X014883Y002754D01*
X016283Y002754D01*
D17*
X016113Y003674D02*
X015806Y003981D01*
X015730Y003981D01*
X015653Y003904D01*
X015653Y003751D01*
X015730Y003674D01*
X016113Y003674D02*
X016113Y003981D01*
X016113Y004134D02*
X015653Y004134D01*
X015883Y004211D02*
X016113Y004441D01*
X016113Y004595D02*
X015806Y004901D01*
X015730Y004901D01*
X015653Y004825D01*
X015653Y004671D01*
X015730Y004595D01*
X015653Y004441D02*
X015960Y004134D01*
X015063Y004134D02*
X014603Y004134D01*
X014680Y003981D02*
X014603Y003904D01*
X014603Y003751D01*
X014680Y003674D01*
X014756Y003981D02*
X015063Y003674D01*
X015063Y003981D01*
X014910Y004134D02*
X014603Y004441D01*
X014680Y004595D02*
X014603Y004671D01*
X014603Y004825D01*
X014680Y004901D01*
X014756Y004901D01*
X015063Y004595D01*
X015063Y004901D01*
X015063Y004441D02*
X014833Y004211D01*
X014756Y003981D02*
X014680Y003981D01*
X016113Y004595D02*
X016113Y004901D01*
X051703Y004758D02*
X051856Y004605D01*
X051780Y004451D02*
X051933Y004451D01*
X052010Y004375D01*
X052010Y004145D01*
X052163Y004145D02*
X051703Y004145D01*
X051703Y004375D01*
X051780Y004451D01*
X051703Y004758D02*
X052163Y004758D01*
X052163Y004605D02*
X052163Y004912D01*
X052163Y005065D02*
X052087Y005065D01*
X051780Y005372D01*
X051703Y005372D01*
X051703Y005065D01*
X051780Y005526D02*
X051703Y005602D01*
X051703Y005756D01*
X051780Y005833D01*
X052087Y005526D01*
X052163Y005602D01*
X052163Y005756D01*
X052087Y005833D01*
X051780Y005833D01*
X051780Y005986D02*
X051703Y006063D01*
X051703Y006216D01*
X051780Y006293D01*
X051856Y006293D01*
X051933Y006216D01*
X052010Y006293D01*
X052087Y006293D01*
X052163Y006216D01*
X052163Y006063D01*
X052087Y005986D01*
X051933Y006140D02*
X051933Y006216D01*
X052322Y006624D02*
X052629Y006624D01*
X052476Y006624D02*
X052476Y007084D01*
X052322Y006931D01*
X052783Y006931D02*
X052783Y006701D01*
X052859Y006624D01*
X053089Y006624D01*
X053089Y006931D01*
X053243Y006854D02*
X053396Y006854D01*
X053243Y006624D02*
X053243Y007084D01*
X053550Y007084D01*
X054841Y007474D02*
X054841Y007551D01*
X055148Y007857D01*
X055148Y007934D01*
X054841Y007934D01*
X055301Y007857D02*
X055301Y007781D01*
X055378Y007704D01*
X055532Y007704D01*
X055608Y007627D01*
X055608Y007551D01*
X055532Y007474D01*
X055378Y007474D01*
X055301Y007551D01*
X055301Y007627D01*
X055378Y007704D01*
X055532Y007704D02*
X055608Y007781D01*
X055608Y007857D01*
X055532Y007934D01*
X055378Y007934D01*
X055301Y007857D01*
X055762Y007857D02*
X055762Y007551D01*
X056069Y007857D01*
X056069Y007551D01*
X055992Y007474D01*
X055838Y007474D01*
X055762Y007551D01*
X055762Y007857D02*
X055838Y007934D01*
X055992Y007934D01*
X056069Y007857D01*
X056222Y007934D02*
X056222Y007704D01*
X056376Y007781D01*
X056452Y007781D01*
X056529Y007704D01*
X056529Y007551D01*
X056452Y007474D01*
X056299Y007474D01*
X056222Y007551D01*
X056222Y007934D02*
X056529Y007934D01*
X056683Y007934D02*
X056913Y007934D01*
X056989Y007857D01*
X056989Y007551D01*
X056913Y007474D01*
X056683Y007474D01*
X056683Y007934D01*
X057143Y007934D02*
X057450Y007934D01*
X057296Y007934D02*
X057296Y007474D01*
X059753Y007101D02*
X059753Y006795D01*
X060213Y006795D01*
X060213Y006641D02*
X059906Y006641D01*
X059983Y006795D02*
X059983Y006948D01*
X060213Y006641D02*
X060213Y006411D01*
X060137Y006334D01*
X059906Y006334D01*
X060213Y006181D02*
X060213Y005874D01*
X060213Y006027D02*
X059753Y006027D01*
X059906Y005874D01*
X063684Y005885D02*
X064077Y005885D01*
X064274Y005885D02*
X064668Y005885D01*
X064865Y005885D02*
X065259Y005885D01*
X065652Y005885D02*
X066046Y005885D01*
X066243Y005885D02*
X066636Y005885D01*
X066503Y006586D02*
X066196Y006586D01*
X066043Y006586D02*
X065736Y007046D01*
X066043Y007046D02*
X065736Y006586D01*
X066196Y006893D02*
X066350Y007046D01*
X066350Y006586D01*
X066440Y005097D02*
X065652Y005097D01*
X065259Y005097D02*
X064274Y005097D01*
X066440Y005097D02*
X066636Y004901D01*
X066636Y004507D01*
X066440Y004310D01*
X065652Y004310D01*
X065259Y004310D02*
X064274Y004310D01*
X064274Y003523D02*
X064668Y003523D01*
X064865Y003523D02*
X065259Y003523D01*
X065652Y003523D02*
X066046Y003523D01*
X066243Y003523D02*
X066636Y003523D01*
X066426Y002716D02*
X066196Y002716D01*
X066196Y002255D01*
X066043Y002255D02*
X065736Y002255D01*
X065889Y002255D02*
X065889Y002716D01*
X065736Y002562D01*
X065582Y002562D02*
X065582Y002639D01*
X065505Y002716D01*
X065352Y002716D01*
X065275Y002639D01*
X065122Y002639D02*
X065122Y002562D01*
X065045Y002485D01*
X064815Y002485D01*
X064815Y002255D02*
X065045Y002255D01*
X065122Y002332D01*
X065122Y002409D01*
X065045Y002485D01*
X065122Y002639D02*
X065045Y002716D01*
X064815Y002716D01*
X064815Y002255D01*
X064661Y002255D02*
X064355Y002255D01*
X064355Y002716D01*
X064661Y002716D01*
X064508Y002485D02*
X064355Y002485D01*
X064201Y002255D02*
X064201Y002716D01*
X063894Y002716D02*
X064201Y002255D01*
X063894Y002255D02*
X063894Y002716D01*
X065275Y002255D02*
X065582Y002562D01*
X066196Y002409D02*
X066426Y002409D01*
X066503Y002485D01*
X066503Y002639D01*
X066426Y002716D01*
X066350Y002409D02*
X066503Y002255D01*
X065582Y002255D02*
X065275Y002255D01*
X064077Y003523D02*
X063684Y003523D01*
X053831Y002684D02*
X053524Y002684D01*
X053524Y002224D01*
X053371Y002224D02*
X053371Y002531D01*
X053524Y002454D02*
X053678Y002454D01*
X053371Y002224D02*
X053140Y002224D01*
X053064Y002301D01*
X053064Y002531D01*
X052757Y002684D02*
X052757Y002224D01*
X052910Y002224D02*
X052603Y002224D01*
X052603Y002531D02*
X052757Y002684D01*
X052163Y003224D02*
X051703Y003224D01*
X051856Y003377D01*
X051703Y003531D01*
X052163Y003531D01*
X052087Y003684D02*
X052163Y003761D01*
X052163Y003914D01*
X052087Y003991D01*
X051780Y003991D02*
X051703Y003914D01*
X051703Y003761D01*
X051780Y003684D01*
X052087Y003684D01*
X052087Y005526D02*
X051780Y005526D01*
D18*
X056333Y005744D03*
M02*
