G75*
%MOIN*%
%OFA0B0*%
%FSLAX24Y24*%
%IPPOS*%
%LPD*%
%AMOC8*
5,1,8,0,0,1.08239X$1,22.5*
%
%ADD10R,0.0256X0.0669*%
%ADD11R,0.0260X0.0800*%
%ADD12R,0.0512X0.0591*%
%ADD13R,0.0394X0.0551*%
%ADD14R,0.0472X0.0315*%
%ADD15R,0.0591X0.0512*%
%ADD16R,0.2126X0.2441*%
%ADD17R,0.0394X0.0630*%
%ADD18R,0.0472X0.0276*%
D10*
X019333Y002322D03*
X019833Y002322D03*
X020333Y002322D03*
X020833Y002322D03*
X021333Y002322D03*
X021833Y002322D03*
X022333Y002322D03*
X022833Y002322D03*
X023333Y002322D03*
X023833Y002322D03*
X024333Y002322D03*
X024833Y002322D03*
X025333Y002322D03*
X025833Y002322D03*
X036333Y002322D03*
X036833Y002322D03*
X037333Y002322D03*
X037833Y002322D03*
X038333Y002322D03*
X038833Y002322D03*
X039333Y002322D03*
X039833Y002322D03*
X040333Y002322D03*
X040833Y002322D03*
X041333Y002322D03*
X041833Y002322D03*
X042333Y002322D03*
X042833Y002322D03*
X042833Y006086D03*
X042333Y006086D03*
X041833Y006086D03*
X041333Y006086D03*
X040833Y006086D03*
X040333Y006086D03*
X039833Y006086D03*
X039333Y006086D03*
X038833Y006086D03*
X038333Y006086D03*
X037833Y006086D03*
X037333Y006086D03*
X036833Y006086D03*
X036333Y006086D03*
X025833Y006086D03*
X025333Y006086D03*
X024833Y006086D03*
X024333Y006086D03*
X023833Y006086D03*
X023333Y006086D03*
X022833Y006086D03*
X022333Y006086D03*
X021833Y006086D03*
X021333Y006086D03*
X020833Y006086D03*
X020333Y006086D03*
X019833Y006086D03*
X019333Y006086D03*
D11*
X029333Y006134D03*
X029833Y006134D03*
X030333Y006134D03*
X030833Y006134D03*
X031333Y006134D03*
X031833Y006134D03*
X032333Y006134D03*
X032833Y006134D03*
X033333Y006134D03*
X033333Y002274D03*
X032833Y002274D03*
X032333Y002274D03*
X031833Y002274D03*
X031333Y002274D03*
X030833Y002274D03*
X030333Y002274D03*
X029833Y002274D03*
X029333Y002274D03*
X045833Y002274D03*
X046333Y002274D03*
X046833Y002274D03*
X047333Y002274D03*
X047833Y002274D03*
X048333Y002274D03*
X048833Y002274D03*
X049333Y002274D03*
X049833Y002274D03*
X049833Y006134D03*
X049333Y006134D03*
X048833Y006134D03*
X048333Y006134D03*
X047833Y006134D03*
X047333Y006134D03*
X046833Y006134D03*
X046333Y006134D03*
X045833Y006134D03*
D12*
X052749Y006204D03*
X053418Y006204D03*
X053457Y003204D03*
X052709Y003204D03*
D13*
X052709Y004421D03*
X053457Y004421D03*
X053083Y005287D03*
D14*
X015833Y005349D03*
X014833Y005349D03*
X014833Y006058D03*
X015833Y006058D03*
D15*
X059333Y006119D03*
X059333Y006788D03*
D16*
X056333Y003720D03*
D17*
X055436Y006594D03*
X057231Y006594D03*
D18*
X014855Y002454D03*
X016312Y002454D03*
M02*
