G75*
%MOIN*%
%OFA0B0*%
%FSLAX24Y24*%
%IPPOS*%
%LPD*%
%AMOC8*
5,1,8,0,0,1.08239X$1,22.5*
%
%ADD10C,0.0634*%
%ADD11C,0.1360*%
%ADD12C,0.0780*%
%ADD13C,0.0480*%
%ADD14C,0.2280*%
D10*
X009083Y004704D03*
X010083Y004704D03*
X011083Y004704D03*
X012083Y004704D03*
X011583Y005704D03*
X012583Y005704D03*
X010583Y005704D03*
X009583Y005704D03*
X009083Y009704D03*
X010083Y009704D03*
X011083Y009704D03*
X012083Y009704D03*
X011583Y010704D03*
X012583Y010704D03*
X010583Y010704D03*
X009583Y010704D03*
X016083Y009704D03*
X017083Y009704D03*
X018083Y009704D03*
X019083Y009704D03*
X018583Y010704D03*
X017583Y010704D03*
X016583Y010704D03*
X019583Y010704D03*
X023083Y009704D03*
X024083Y009704D03*
X025083Y009704D03*
X026083Y009704D03*
X025583Y010704D03*
X026583Y010704D03*
X024583Y010704D03*
X023583Y010704D03*
X030083Y009704D03*
X031083Y009704D03*
X032083Y009704D03*
X033083Y009704D03*
X032583Y010704D03*
X031583Y010704D03*
X030583Y010704D03*
X033583Y010704D03*
X037083Y009704D03*
X038083Y009704D03*
X039083Y009704D03*
X040083Y009704D03*
X039583Y010704D03*
X040583Y010704D03*
X038583Y010704D03*
X037583Y010704D03*
X044083Y009704D03*
X045083Y009704D03*
X046083Y009704D03*
X047083Y009704D03*
X046583Y010704D03*
X045583Y010704D03*
X044583Y010704D03*
X047583Y010704D03*
X051083Y009704D03*
X052083Y009704D03*
X053083Y009704D03*
X054083Y009704D03*
X053583Y010704D03*
X054583Y010704D03*
X052583Y010704D03*
X051583Y010704D03*
X058083Y009704D03*
X059083Y009704D03*
X060083Y009704D03*
X061083Y009704D03*
X060583Y010704D03*
X059583Y010704D03*
X058583Y010704D03*
X061583Y010704D03*
D11*
X062083Y013204D03*
X057583Y013204D03*
X055083Y013204D03*
X050583Y013204D03*
X048083Y013204D03*
X043583Y013204D03*
X041083Y013204D03*
X036583Y013204D03*
X034083Y013204D03*
X029583Y013204D03*
X027083Y013204D03*
X022583Y013204D03*
X020083Y013204D03*
X015583Y013204D03*
X013083Y013204D03*
X008583Y013204D03*
X008583Y002204D03*
X013083Y002204D03*
D12*
X061440Y004354D02*
X061440Y005054D01*
X063802Y005054D02*
X063802Y004354D01*
X062951Y006633D02*
X062251Y006633D01*
D13*
X058083Y005704D03*
X058083Y005204D03*
X058083Y004704D03*
X058083Y004204D03*
X058083Y003704D03*
X058083Y003204D03*
X058083Y002704D03*
X058083Y002204D03*
X057583Y002079D03*
X057083Y002079D03*
X056583Y002079D03*
X056083Y002079D03*
X055583Y002079D03*
X055083Y002079D03*
X054583Y002204D03*
X054583Y002704D03*
X054583Y003204D03*
X054583Y003704D03*
X054583Y004204D03*
X054583Y004704D03*
X054583Y005204D03*
X054583Y005704D03*
X054033Y006904D03*
X052783Y007404D03*
X051483Y007404D03*
X050483Y006604D03*
X050483Y005554D03*
X050283Y005054D03*
X050283Y004454D03*
X044983Y006204D03*
X043633Y006654D03*
X046333Y007054D03*
X043583Y007704D03*
X043583Y008254D03*
X043633Y008904D03*
X042233Y010104D03*
X038383Y011504D03*
X039583Y011554D03*
X040033Y012204D03*
X041833Y012304D03*
X037483Y012604D03*
X032733Y011554D03*
X031033Y011954D03*
X028283Y012304D03*
X027583Y011554D03*
X026733Y011554D03*
X024633Y012404D03*
X019833Y011954D03*
X017383Y011504D03*
X022033Y010854D03*
X021583Y009254D03*
X022333Y008354D03*
X024233Y007754D03*
X025983Y007354D03*
X027033Y007754D03*
X028283Y007304D03*
X027533Y007104D03*
X028683Y006304D03*
X028633Y005804D03*
X028783Y005204D03*
X027583Y005204D03*
X026633Y003854D03*
X026683Y002754D03*
X027983Y002504D03*
X028633Y002404D03*
X028233Y001704D03*
X026633Y001804D03*
X025933Y001404D03*
X025083Y001454D03*
X023333Y001454D03*
X023233Y000954D03*
X020833Y001454D03*
X017083Y002554D03*
X018733Y003004D03*
X016683Y003504D03*
X012633Y003504D03*
X018883Y005054D03*
X018633Y006554D03*
X021133Y006954D03*
X022833Y006954D03*
X024333Y006954D03*
X029083Y008154D03*
X029633Y008154D03*
X029483Y007354D03*
X031083Y007104D03*
X031683Y007054D03*
X032433Y007354D03*
X033383Y007504D03*
X032933Y007104D03*
X034233Y007104D03*
X036033Y007104D03*
X037333Y007104D03*
X038933Y006954D03*
X039133Y007704D03*
X038633Y007754D03*
X034833Y006454D03*
X035883Y005204D03*
X035683Y004454D03*
X033833Y003854D03*
X033983Y002804D03*
X035683Y002554D03*
X031583Y001354D03*
X031083Y001154D03*
X040733Y001454D03*
X041583Y001454D03*
X041983Y001104D03*
X042633Y001454D03*
X050483Y001754D03*
X032083Y007754D03*
X033783Y008554D03*
X029233Y008854D03*
X028683Y010104D03*
X035483Y014404D03*
X035983Y014404D03*
X049483Y011804D03*
X049883Y011404D03*
X052433Y011954D03*
X053733Y011554D03*
X050283Y008854D03*
X020383Y014804D03*
X012433Y011554D03*
X006833Y010704D03*
X011613Y007704D03*
X014333Y007704D03*
D14*
X006583Y001454D03*
X006583Y014204D03*
X064083Y014204D03*
X064083Y001454D03*
M02*
