G75*
%MOIN*%
%OFA0B0*%
%FSLAX24Y24*%
%IPPOS*%
%LPD*%
%AMOC8*
5,1,8,0,0,1.08239X$1,22.5*
%
%ADD10C,0.0000*%
%ADD11C,0.0080*%
%ADD12C,0.0120*%
%ADD13C,0.0100*%
%ADD14C,0.0040*%
%ADD15C,0.0060*%
%ADD16C,0.0025*%
%ADD17C,0.0098*%
D10*
X000180Y000180D02*
X000180Y014550D01*
X016172Y014550D01*
X016172Y000180D01*
X000180Y000180D01*
X000290Y012180D02*
X000292Y012230D01*
X000298Y012280D01*
X000308Y012329D01*
X000321Y012378D01*
X000339Y012425D01*
X000360Y012471D01*
X000384Y012514D01*
X000412Y012556D01*
X000443Y012596D01*
X000477Y012633D01*
X000514Y012667D01*
X000554Y012698D01*
X000596Y012726D01*
X000639Y012750D01*
X000685Y012771D01*
X000732Y012789D01*
X000781Y012802D01*
X000830Y012812D01*
X000880Y012818D01*
X000930Y012820D01*
X000980Y012818D01*
X001030Y012812D01*
X001079Y012802D01*
X001128Y012789D01*
X001175Y012771D01*
X001221Y012750D01*
X001264Y012726D01*
X001306Y012698D01*
X001346Y012667D01*
X001383Y012633D01*
X001417Y012596D01*
X001448Y012556D01*
X001476Y012514D01*
X001500Y012471D01*
X001521Y012425D01*
X001539Y012378D01*
X001552Y012329D01*
X001562Y012280D01*
X001568Y012230D01*
X001570Y012180D01*
X001568Y012130D01*
X001562Y012080D01*
X001552Y012031D01*
X001539Y011982D01*
X001521Y011935D01*
X001500Y011889D01*
X001476Y011846D01*
X001448Y011804D01*
X001417Y011764D01*
X001383Y011727D01*
X001346Y011693D01*
X001306Y011662D01*
X001264Y011634D01*
X001221Y011610D01*
X001175Y011589D01*
X001128Y011571D01*
X001079Y011558D01*
X001030Y011548D01*
X000980Y011542D01*
X000930Y011540D01*
X000880Y011542D01*
X000830Y011548D01*
X000781Y011558D01*
X000732Y011571D01*
X000685Y011589D01*
X000639Y011610D01*
X000596Y011634D01*
X000554Y011662D01*
X000514Y011693D01*
X000477Y011727D01*
X000443Y011764D01*
X000412Y011804D01*
X000384Y011846D01*
X000360Y011889D01*
X000339Y011935D01*
X000321Y011982D01*
X000308Y012031D01*
X000298Y012080D01*
X000292Y012130D01*
X000290Y012180D01*
X004790Y012180D02*
X004792Y012230D01*
X004798Y012280D01*
X004808Y012329D01*
X004821Y012378D01*
X004839Y012425D01*
X004860Y012471D01*
X004884Y012514D01*
X004912Y012556D01*
X004943Y012596D01*
X004977Y012633D01*
X005014Y012667D01*
X005054Y012698D01*
X005096Y012726D01*
X005139Y012750D01*
X005185Y012771D01*
X005232Y012789D01*
X005281Y012802D01*
X005330Y012812D01*
X005380Y012818D01*
X005430Y012820D01*
X005480Y012818D01*
X005530Y012812D01*
X005579Y012802D01*
X005628Y012789D01*
X005675Y012771D01*
X005721Y012750D01*
X005764Y012726D01*
X005806Y012698D01*
X005846Y012667D01*
X005883Y012633D01*
X005917Y012596D01*
X005948Y012556D01*
X005976Y012514D01*
X006000Y012471D01*
X006021Y012425D01*
X006039Y012378D01*
X006052Y012329D01*
X006062Y012280D01*
X006068Y012230D01*
X006070Y012180D01*
X006068Y012130D01*
X006062Y012080D01*
X006052Y012031D01*
X006039Y011982D01*
X006021Y011935D01*
X006000Y011889D01*
X005976Y011846D01*
X005948Y011804D01*
X005917Y011764D01*
X005883Y011727D01*
X005846Y011693D01*
X005806Y011662D01*
X005764Y011634D01*
X005721Y011610D01*
X005675Y011589D01*
X005628Y011571D01*
X005579Y011558D01*
X005530Y011548D01*
X005480Y011542D01*
X005430Y011540D01*
X005380Y011542D01*
X005330Y011548D01*
X005281Y011558D01*
X005232Y011571D01*
X005185Y011589D01*
X005139Y011610D01*
X005096Y011634D01*
X005054Y011662D01*
X005014Y011693D01*
X004977Y011727D01*
X004943Y011764D01*
X004912Y011804D01*
X004884Y011846D01*
X004860Y011889D01*
X004839Y011935D01*
X004821Y011982D01*
X004808Y012031D01*
X004798Y012080D01*
X004792Y012130D01*
X004790Y012180D01*
D11*
X006143Y014244D02*
X006143Y007921D01*
X000217Y007921D01*
X000217Y014244D01*
X006143Y014244D01*
D12*
X012590Y010983D02*
X012607Y010938D01*
X012628Y010894D01*
X012652Y010852D01*
X012679Y010812D01*
X012709Y010774D01*
X012742Y010738D01*
X012778Y010705D01*
X012816Y010675D01*
X012857Y010649D01*
X012899Y010625D01*
X012943Y010605D01*
X012989Y010588D01*
X013036Y010575D01*
X013083Y010566D01*
X013131Y010560D01*
X013180Y010558D01*
X013229Y010560D01*
X013277Y010566D01*
X013324Y010575D01*
X013371Y010588D01*
X013417Y010605D01*
X013461Y010625D01*
X013503Y010649D01*
X013544Y010675D01*
X013582Y010705D01*
X013618Y010738D01*
X013651Y010774D01*
X013681Y010812D01*
X013708Y010852D01*
X013732Y010894D01*
X013753Y010938D01*
X013770Y010983D01*
X013770Y011377D02*
X013753Y011422D01*
X013732Y011466D01*
X013708Y011508D01*
X013681Y011548D01*
X013651Y011586D01*
X013618Y011622D01*
X013582Y011655D01*
X013544Y011685D01*
X013503Y011711D01*
X013461Y011735D01*
X013417Y011755D01*
X013371Y011772D01*
X013324Y011785D01*
X013277Y011794D01*
X013229Y011800D01*
X013180Y011802D01*
X013131Y011800D01*
X013083Y011794D01*
X013036Y011785D01*
X012989Y011772D01*
X012943Y011755D01*
X012899Y011735D01*
X012857Y011711D01*
X012816Y011685D01*
X012778Y011655D01*
X012742Y011622D01*
X012709Y011586D01*
X012679Y011548D01*
X012652Y011508D01*
X012628Y011466D01*
X012607Y011422D01*
X012590Y011377D01*
D13*
X011371Y011180D02*
X011373Y011265D01*
X011379Y011349D01*
X011389Y011434D01*
X011403Y011517D01*
X011420Y011600D01*
X011442Y011682D01*
X011468Y011763D01*
X011497Y011843D01*
X011530Y011921D01*
X011566Y011997D01*
X011606Y012072D01*
X011650Y012145D01*
X011697Y012216D01*
X011747Y012284D01*
X011800Y012350D01*
X011857Y012413D01*
X011916Y012474D01*
X011978Y012532D01*
X012043Y012587D01*
X012110Y012639D01*
X012179Y012687D01*
X012251Y012732D01*
X012325Y012774D01*
X012401Y012812D01*
X012478Y012847D01*
X012557Y012878D01*
X012637Y012906D01*
X012719Y012929D01*
X012801Y012949D01*
X012884Y012965D01*
X012968Y012977D01*
X013053Y012985D01*
X013138Y012989D01*
X013222Y012989D01*
X013307Y012985D01*
X013392Y012977D01*
X013476Y012965D01*
X013559Y012949D01*
X013641Y012929D01*
X013723Y012906D01*
X013803Y012878D01*
X013882Y012847D01*
X013959Y012812D01*
X014035Y012774D01*
X014109Y012732D01*
X014181Y012687D01*
X014250Y012639D01*
X014317Y012587D01*
X014382Y012532D01*
X014444Y012474D01*
X014503Y012413D01*
X014560Y012350D01*
X014613Y012284D01*
X014663Y012216D01*
X014710Y012145D01*
X014754Y012072D01*
X014794Y011997D01*
X014830Y011921D01*
X014863Y011843D01*
X014892Y011763D01*
X014918Y011682D01*
X014940Y011600D01*
X014957Y011517D01*
X014971Y011434D01*
X014981Y011349D01*
X014987Y011265D01*
X014989Y011180D01*
X014987Y011095D01*
X014981Y011011D01*
X014971Y010926D01*
X014957Y010843D01*
X014940Y010760D01*
X014918Y010678D01*
X014892Y010597D01*
X014863Y010517D01*
X014830Y010439D01*
X014794Y010363D01*
X014754Y010288D01*
X014710Y010215D01*
X014663Y010144D01*
X014613Y010076D01*
X014560Y010010D01*
X014503Y009947D01*
X014444Y009886D01*
X014382Y009828D01*
X014317Y009773D01*
X014250Y009721D01*
X014181Y009673D01*
X014109Y009628D01*
X014035Y009586D01*
X013959Y009548D01*
X013882Y009513D01*
X013803Y009482D01*
X013723Y009454D01*
X013641Y009431D01*
X013559Y009411D01*
X013476Y009395D01*
X013392Y009383D01*
X013307Y009375D01*
X013222Y009371D01*
X013138Y009371D01*
X013053Y009375D01*
X012968Y009383D01*
X012884Y009395D01*
X012801Y009411D01*
X012719Y009431D01*
X012637Y009454D01*
X012557Y009482D01*
X012478Y009513D01*
X012401Y009548D01*
X012325Y009586D01*
X012251Y009628D01*
X012179Y009673D01*
X012110Y009721D01*
X012043Y009773D01*
X011978Y009828D01*
X011916Y009886D01*
X011857Y009947D01*
X011800Y010010D01*
X011747Y010076D01*
X011697Y010144D01*
X011650Y010215D01*
X011606Y010288D01*
X011566Y010363D01*
X011530Y010439D01*
X011497Y010517D01*
X011468Y010597D01*
X011442Y010678D01*
X011420Y010760D01*
X011403Y010843D01*
X011389Y010926D01*
X011379Y011011D01*
X011373Y011095D01*
X011371Y011180D01*
X011380Y011580D02*
X011030Y011580D01*
X011030Y010780D01*
X011380Y010780D01*
X010818Y009837D02*
X010818Y012523D01*
X011837Y013542D02*
X014523Y013542D01*
X015542Y012523D02*
X015542Y009837D01*
X015330Y010780D02*
X014980Y010780D01*
X015330Y010780D02*
X015330Y011580D01*
X014980Y011580D01*
X014523Y008818D02*
X011837Y008818D01*
D14*
X010269Y010277D02*
X010193Y010200D01*
X010039Y010200D01*
X009962Y010277D01*
X009809Y010277D02*
X009732Y010200D01*
X009579Y010200D01*
X009502Y010277D01*
X009809Y010584D01*
X009809Y010277D01*
X009502Y010277D02*
X009502Y010584D01*
X009579Y010660D01*
X009732Y010660D01*
X009809Y010584D01*
X009962Y010584D02*
X010039Y010660D01*
X010193Y010660D01*
X010269Y010584D01*
X010269Y010507D01*
X010193Y010430D01*
X010269Y010353D01*
X010269Y010277D01*
X010193Y010430D02*
X010116Y010430D01*
X009348Y010584D02*
X009042Y010277D01*
X009042Y010200D01*
X008888Y010200D02*
X008581Y010200D01*
X008735Y010200D02*
X008735Y010660D01*
X008581Y010507D01*
X008428Y010584D02*
X008428Y010430D01*
X008351Y010353D01*
X008121Y010353D01*
X008121Y010200D02*
X008121Y010660D01*
X008351Y010660D01*
X008428Y010584D01*
X007967Y010584D02*
X007891Y010660D01*
X007737Y010660D01*
X007660Y010584D01*
X007660Y010277D01*
X007737Y010200D01*
X007891Y010200D01*
X007967Y010277D01*
X007507Y010200D02*
X007507Y010660D01*
X007353Y010507D01*
X007200Y010660D01*
X007200Y010200D01*
X008353Y008660D02*
X008353Y008200D01*
X008200Y008200D02*
X008507Y008200D01*
X008660Y008277D02*
X008737Y008200D01*
X008967Y008200D01*
X008967Y008507D01*
X009121Y008430D02*
X009274Y008430D01*
X009121Y008200D02*
X009121Y008660D01*
X009428Y008660D01*
X008660Y008507D02*
X008660Y008277D01*
X008353Y008660D02*
X008200Y008507D01*
X008426Y006528D02*
X008580Y006528D01*
X008657Y006451D01*
X008657Y006221D01*
X008810Y006221D02*
X008350Y006221D01*
X008350Y006451D01*
X008426Y006528D01*
X008657Y006374D02*
X008810Y006528D01*
X008426Y006067D02*
X008733Y005760D01*
X008810Y005760D01*
X008810Y005530D02*
X008350Y005530D01*
X008580Y005300D01*
X008580Y005607D01*
X008350Y005760D02*
X008350Y006067D01*
X008426Y006067D01*
X006810Y006221D02*
X006350Y006221D01*
X006350Y006451D01*
X006426Y006528D01*
X006580Y006528D01*
X006657Y006451D01*
X006657Y006221D01*
X006657Y006374D02*
X006810Y006528D01*
X006426Y006067D02*
X006350Y006067D01*
X006350Y005760D01*
X006350Y005530D02*
X006580Y005300D01*
X006580Y005607D01*
X006733Y005760D02*
X006810Y005760D01*
X006733Y005760D02*
X006426Y006067D01*
X006350Y005530D02*
X006810Y005530D01*
X004810Y005530D02*
X004350Y005530D01*
X004580Y005300D01*
X004580Y005607D01*
X004733Y005760D02*
X004810Y005760D01*
X004733Y005760D02*
X004426Y006067D01*
X004350Y006067D01*
X004350Y005760D01*
X004350Y006221D02*
X004350Y006451D01*
X004426Y006528D01*
X004580Y006528D01*
X004657Y006451D01*
X004657Y006221D01*
X004810Y006221D02*
X004350Y006221D01*
X004657Y006374D02*
X004810Y006528D01*
X002810Y006451D02*
X002810Y006298D01*
X002733Y006221D01*
X002426Y006528D01*
X002733Y006528D01*
X002810Y006451D01*
X002810Y006681D02*
X002350Y006681D01*
X002350Y006911D01*
X002426Y006988D01*
X002580Y006988D01*
X002657Y006911D01*
X002657Y006681D01*
X002657Y006835D02*
X002810Y006988D01*
X002426Y006528D02*
X002350Y006451D01*
X002350Y006298D01*
X002426Y006221D01*
X002733Y006221D01*
X002426Y006067D02*
X002733Y005760D01*
X002810Y005760D01*
X002810Y005530D02*
X002350Y005530D01*
X002580Y005300D01*
X002580Y005607D01*
X002350Y005760D02*
X002350Y006067D01*
X002426Y006067D01*
X000810Y006067D02*
X000580Y005837D01*
X000657Y005760D02*
X000350Y006067D01*
X000426Y006221D02*
X000350Y006298D01*
X000350Y006451D01*
X000426Y006528D01*
X000503Y006528D01*
X000810Y006221D01*
X000810Y006528D01*
X000810Y005760D02*
X000350Y005760D01*
X000426Y005607D02*
X000350Y005530D01*
X000350Y005377D01*
X000426Y005300D01*
X000426Y005607D02*
X000503Y005607D01*
X000810Y005300D01*
X000810Y005607D01*
X001056Y002048D02*
X001363Y002048D01*
X001516Y001894D01*
X001363Y001741D01*
X001056Y001741D01*
X001133Y001587D02*
X001056Y001510D01*
X001056Y001357D01*
X001133Y001280D01*
X001133Y001587D02*
X001209Y001587D01*
X001516Y001280D01*
X001516Y001587D01*
X001516Y001127D02*
X001516Y000820D01*
X001516Y000973D02*
X001056Y000973D01*
X001209Y000820D01*
X001286Y000666D02*
X001286Y000359D01*
X001133Y000513D02*
X001440Y000513D01*
X003056Y000820D02*
X003286Y000820D01*
X003209Y000973D01*
X003209Y001050D01*
X003286Y001127D01*
X003440Y001127D01*
X003516Y001050D01*
X003516Y000897D01*
X003440Y000820D01*
X003286Y000666D02*
X003286Y000359D01*
X003133Y000513D02*
X003440Y000513D01*
X003056Y000820D02*
X003056Y001127D01*
X003056Y001280D02*
X003363Y001280D01*
X003516Y001434D01*
X003363Y001587D01*
X003056Y001587D01*
X005056Y001357D02*
X005056Y001204D01*
X005133Y001127D01*
X005440Y001127D01*
X005516Y001204D01*
X005516Y001357D01*
X005440Y001434D01*
X005133Y001434D01*
X005056Y001357D01*
X005286Y001587D02*
X005286Y001894D01*
X005286Y002048D02*
X005286Y002354D01*
X005209Y002354D02*
X005516Y002354D01*
X005516Y002048D02*
X005209Y002048D01*
X005056Y002201D01*
X005209Y002354D01*
X005056Y000973D02*
X005056Y000820D01*
X005056Y000897D02*
X005516Y000897D01*
X005516Y000973D02*
X005516Y000820D01*
X005440Y000666D02*
X005133Y000666D01*
X005056Y000590D01*
X005056Y000359D01*
X005516Y000359D01*
X005516Y000590D01*
X005440Y000666D01*
X007056Y000590D02*
X007056Y000359D01*
X007516Y000359D01*
X007516Y000590D01*
X007440Y000666D01*
X007133Y000666D01*
X007056Y000590D01*
X007056Y000820D02*
X007056Y000973D01*
X007056Y000897D02*
X007516Y000897D01*
X007516Y000973D02*
X007516Y000820D01*
X007440Y001127D02*
X007133Y001127D01*
X007056Y001204D01*
X007056Y001357D01*
X007133Y001434D01*
X007440Y001434D01*
X007516Y001357D01*
X007516Y001204D01*
X007440Y001127D01*
X007286Y001587D02*
X007286Y001894D01*
X007286Y002048D02*
X007286Y002278D01*
X007363Y002354D01*
X007440Y002354D01*
X007516Y002278D01*
X007516Y002048D01*
X007056Y002048D01*
X007056Y002278D01*
X007133Y002354D01*
X007209Y002354D01*
X007286Y002278D01*
X009056Y002354D02*
X009209Y002508D01*
X009516Y002508D01*
X009286Y002508D02*
X009286Y002201D01*
X009209Y002201D02*
X009056Y002354D01*
X009209Y002201D02*
X009516Y002201D01*
X009286Y002048D02*
X009286Y001741D01*
X009516Y001587D02*
X009056Y001587D01*
X009056Y001280D02*
X009516Y001280D01*
X009363Y001434D01*
X009516Y001587D01*
X009440Y001127D02*
X009133Y001127D01*
X009056Y001050D01*
X009056Y000897D01*
X009133Y000820D01*
X009440Y000820D01*
X009516Y000897D01*
X009516Y001050D01*
X009440Y001127D01*
X009286Y000666D02*
X009133Y000666D01*
X009056Y000590D01*
X009056Y000359D01*
X009516Y000359D01*
X009363Y000359D02*
X009363Y000590D01*
X009286Y000666D01*
X011056Y000590D02*
X011056Y000359D01*
X011516Y000359D01*
X011363Y000359D02*
X011363Y000590D01*
X011286Y000666D01*
X011133Y000666D01*
X011056Y000590D01*
X011133Y000820D02*
X011440Y000820D01*
X011516Y000897D01*
X011516Y001050D01*
X011440Y001127D01*
X011133Y001127D01*
X011056Y001050D01*
X011056Y000897D01*
X011133Y000820D01*
X011056Y001280D02*
X011516Y001280D01*
X011363Y001434D01*
X011516Y001587D01*
X011056Y001587D01*
X011286Y001741D02*
X011286Y002048D01*
X011286Y002201D02*
X011286Y002431D01*
X011363Y002508D01*
X011440Y002508D01*
X011516Y002431D01*
X011516Y002201D01*
X011056Y002201D01*
X011056Y002431D01*
X011133Y002508D01*
X011209Y002508D01*
X011286Y002431D01*
X013056Y002431D02*
X013056Y002278D01*
X013133Y002201D01*
X013440Y002201D01*
X013516Y002278D01*
X013516Y002431D01*
X013440Y002508D01*
X013133Y002508D02*
X013056Y002431D01*
X013286Y002048D02*
X013286Y001741D01*
X013286Y001587D02*
X013133Y001587D01*
X013056Y001510D01*
X013056Y001280D01*
X013516Y001280D01*
X013363Y001280D02*
X013363Y001510D01*
X013286Y001587D01*
X013056Y001127D02*
X013516Y000820D01*
X013440Y000666D02*
X013133Y000666D01*
X013056Y000590D01*
X013056Y000359D01*
X013516Y000359D01*
X013516Y000590D01*
X013440Y000666D01*
X015056Y000590D02*
X015056Y000359D01*
X015516Y000359D01*
X015516Y000590D01*
X015440Y000666D01*
X015363Y000666D01*
X015286Y000590D01*
X015286Y000359D01*
X015286Y000590D02*
X015209Y000666D01*
X015133Y000666D01*
X015056Y000590D01*
X015056Y000820D02*
X015516Y001127D01*
X015056Y001127D01*
X015133Y001280D02*
X015440Y001280D01*
X015516Y001357D01*
X015516Y001510D01*
X015440Y001587D01*
X015133Y001587D02*
X015056Y001510D01*
X015056Y001357D01*
X015133Y001280D01*
X015056Y000820D02*
X015516Y000820D01*
X014580Y005300D02*
X014580Y005607D01*
X014733Y005760D02*
X014810Y005760D01*
X014733Y005760D02*
X014426Y006067D01*
X014350Y006067D01*
X014350Y005760D01*
X014350Y005530D02*
X014580Y005300D01*
X014810Y005530D02*
X014350Y005530D01*
X014350Y006221D02*
X014350Y006451D01*
X014426Y006528D01*
X014580Y006528D01*
X014657Y006451D01*
X014657Y006221D01*
X014810Y006221D02*
X014350Y006221D01*
X014657Y006374D02*
X014810Y006528D01*
X012810Y006528D02*
X012657Y006374D01*
X012657Y006451D02*
X012580Y006528D01*
X012426Y006528D01*
X012350Y006451D01*
X012350Y006221D01*
X012810Y006221D01*
X012657Y006221D02*
X012657Y006451D01*
X012426Y006067D02*
X012733Y005760D01*
X012810Y005760D01*
X012810Y005530D02*
X012350Y005530D01*
X012580Y005300D01*
X012580Y005607D01*
X012350Y005760D02*
X012350Y006067D01*
X012426Y006067D01*
X010810Y006221D02*
X010350Y006221D01*
X010350Y006451D01*
X010426Y006528D01*
X010580Y006528D01*
X010657Y006451D01*
X010657Y006221D01*
X010657Y006374D02*
X010810Y006528D01*
X010426Y006067D02*
X010733Y005760D01*
X010810Y005760D01*
X010810Y005530D02*
X010350Y005530D01*
X010580Y005300D01*
X010580Y005607D01*
X010350Y005760D02*
X010350Y006067D01*
X010426Y006067D01*
X009348Y010584D02*
X009348Y010660D01*
X009042Y010660D01*
X008840Y012600D02*
X008840Y013060D01*
X009147Y013060D01*
X008993Y012830D02*
X008840Y012830D01*
X008686Y012907D02*
X008686Y012600D01*
X008456Y012600D01*
X008379Y012677D01*
X008379Y012907D01*
X008072Y013060D02*
X008072Y012600D01*
X007919Y012600D02*
X008226Y012600D01*
X007919Y012907D02*
X008072Y013060D01*
D15*
X008120Y011940D02*
X008340Y011940D01*
X008120Y011940D02*
X008120Y011620D01*
X009020Y011940D02*
X009240Y011940D01*
X009240Y011620D01*
D16*
X009430Y003739D02*
X009499Y003670D01*
X009440Y003611D01*
X009371Y003680D01*
X009430Y003739D01*
X007499Y003670D02*
X007440Y003611D01*
X007371Y003680D01*
X007430Y003739D01*
X007499Y003670D01*
X005499Y003670D02*
X005440Y003611D01*
X005371Y003680D01*
X005430Y003739D01*
X005499Y003670D01*
X003499Y003670D02*
X003440Y003611D01*
X003371Y003680D01*
X003430Y003739D01*
X003499Y003670D01*
X001499Y003670D02*
X001440Y003611D01*
X001371Y003680D01*
X001430Y003739D01*
X001499Y003670D01*
X011371Y003680D02*
X011430Y003739D01*
X011499Y003670D01*
X011440Y003611D01*
X011371Y003680D01*
X013371Y003680D02*
X013430Y003739D01*
X013499Y003670D01*
X013440Y003611D01*
X013371Y003680D01*
X015371Y003680D02*
X015430Y003739D01*
X015499Y003670D01*
X015440Y003611D01*
X015371Y003680D01*
D17*
X015273Y003572D03*
X013273Y003572D03*
X011273Y003572D03*
X009273Y003572D03*
X007273Y003572D03*
X005273Y003572D03*
X003273Y003572D03*
X001273Y003572D03*
M02*
