G75*
%MOIN*%
%OFA0B0*%
%FSLAX24Y24*%
%IPPOS*%
%LPD*%
%AMOC8*
5,1,8,0,0,1.08239X$1,22.5*
%
%ADD10C,0.0634*%
%ADD11C,0.1360*%
%ADD12C,0.0845*%
%ADD13R,0.0592X0.0671*%
%ADD14R,0.0474X0.0631*%
%ADD15R,0.0710X0.0592*%
%ADD16R,0.0552X0.0552*%
%ADD17C,0.0480*%
D10*
X001430Y008680D03*
X002430Y008680D03*
X003430Y008680D03*
X004430Y008680D03*
X003930Y009680D03*
X004930Y009680D03*
X002930Y009680D03*
X001930Y009680D03*
D11*
X000930Y012180D03*
X005430Y012180D03*
D12*
X011180Y013180D03*
X013180Y011180D03*
X015180Y013180D03*
X015180Y009180D03*
X011180Y009180D03*
D13*
X009054Y009180D03*
X008306Y009180D03*
X008345Y013680D03*
X009015Y013680D03*
D14*
X008680Y012113D03*
X008306Y011247D03*
X009054Y011247D03*
D15*
X009430Y006554D03*
X009430Y005806D03*
X007430Y005806D03*
X007430Y006554D03*
X005430Y006554D03*
X005430Y005806D03*
X003430Y005806D03*
X003430Y006554D03*
X001430Y006554D03*
X001430Y005806D03*
X011430Y005806D03*
X011430Y006554D03*
X013430Y006554D03*
X013430Y005806D03*
X015430Y005806D03*
X015430Y006554D03*
D16*
X001430Y003267D03*
X001430Y004093D03*
X003430Y004093D03*
X003430Y003267D03*
X005430Y003267D03*
X005430Y004093D03*
X007430Y004093D03*
X007430Y003267D03*
X009430Y003267D03*
X009430Y004093D03*
X011430Y004093D03*
X011430Y003267D03*
X013430Y003267D03*
X013430Y004093D03*
X015430Y004093D03*
X015430Y003267D03*
D17*
X012380Y003280D03*
X012280Y003880D03*
X008580Y004480D03*
M02*
