G75*
%MOIN*%
%OFA0B0*%
%FSLAX24Y24*%
%IPPOS*%
%LPD*%
%AMOC8*
5,1,8,0,0,1.08239X$1,22.5*
%
%ADD10C,0.0160*%
%ADD11C,0.0025*%
%ADD12C,0.0098*%
%ADD13C,0.0040*%
%ADD14C,0.0060*%
%ADD15C,0.0020*%
%ADD16C,0.0050*%
%ADD17C,0.0030*%
D10*
X003600Y000800D02*
X003602Y000820D01*
X003608Y000838D01*
X003617Y000856D01*
X003629Y000871D01*
X003644Y000883D01*
X003662Y000892D01*
X003680Y000898D01*
X003700Y000900D01*
X003720Y000898D01*
X003738Y000892D01*
X003756Y000883D01*
X003771Y000871D01*
X003783Y000856D01*
X003792Y000838D01*
X003798Y000820D01*
X003800Y000800D01*
X003798Y000780D01*
X003792Y000762D01*
X003783Y000744D01*
X003771Y000729D01*
X003756Y000717D01*
X003738Y000708D01*
X003720Y000702D01*
X003700Y000700D01*
X003680Y000702D01*
X003662Y000708D01*
X003644Y000717D01*
X003629Y000729D01*
X003617Y000744D01*
X003608Y000762D01*
X003602Y000780D01*
X003600Y000800D01*
D11*
X001210Y010731D02*
X001269Y010790D01*
X001200Y010859D01*
X001141Y010800D01*
X001210Y010731D01*
D12*
X001308Y010957D03*
D13*
X001312Y010180D02*
X001071Y010180D01*
X000943Y010180D02*
X000943Y009820D01*
X000763Y009820D01*
X000703Y009880D01*
X000703Y010120D01*
X000763Y010180D01*
X000943Y010180D01*
X001071Y009820D02*
X001312Y009820D01*
X001312Y010180D01*
X001312Y010000D02*
X001192Y010000D01*
X001440Y009820D02*
X001680Y009820D01*
X001680Y010180D01*
D14*
X001050Y013400D02*
X001050Y015200D01*
X000350Y015200D01*
X000350Y013400D01*
X001050Y013400D01*
X001050Y013950D02*
X001087Y013952D01*
X001123Y013958D01*
X001158Y013967D01*
X001192Y013980D01*
X001225Y013997D01*
X001256Y014017D01*
X001284Y014040D01*
X001310Y014066D01*
X001333Y014094D01*
X001353Y014125D01*
X001370Y014158D01*
X001383Y014192D01*
X001392Y014227D01*
X001398Y014263D01*
X001400Y014300D01*
X001398Y014337D01*
X001392Y014373D01*
X001383Y014408D01*
X001370Y014442D01*
X001353Y014475D01*
X001333Y014506D01*
X001310Y014534D01*
X001284Y014560D01*
X001256Y014583D01*
X001225Y014603D01*
X001192Y014620D01*
X001158Y014633D01*
X001123Y014642D01*
X001087Y014648D01*
X001050Y014650D01*
X007350Y014600D02*
X007350Y014000D01*
X007316Y014002D01*
X007283Y014008D01*
X007251Y014017D01*
X007220Y014030D01*
X007190Y014046D01*
X007163Y014065D01*
X007138Y014088D01*
X007115Y014113D01*
X007096Y014140D01*
X007080Y014170D01*
X007067Y014201D01*
X007058Y014233D01*
X007052Y014266D01*
X007050Y014300D01*
X007052Y014334D01*
X007058Y014367D01*
X007067Y014399D01*
X007080Y014430D01*
X007096Y014460D01*
X007115Y014487D01*
X007138Y014512D01*
X007163Y014535D01*
X007190Y014554D01*
X007220Y014570D01*
X007251Y014583D01*
X007283Y014592D01*
X007316Y014598D01*
X007350Y014600D01*
X007350Y015000D02*
X007350Y015200D01*
X008050Y015200D01*
X008050Y015000D01*
X008050Y014550D02*
X008050Y014000D01*
X008050Y013600D02*
X008050Y013400D01*
X007350Y013400D01*
X007350Y013600D01*
D15*
X007250Y014100D02*
X007250Y014500D01*
X007150Y014400D02*
X007150Y014200D01*
D16*
X006775Y013857D02*
X006775Y013632D01*
X006325Y013632D01*
X006325Y013475D02*
X006325Y013325D01*
X006325Y013400D02*
X006775Y013400D01*
X006775Y013325D02*
X006775Y013475D01*
X006775Y013857D02*
X006700Y013932D01*
X006550Y013932D01*
X006475Y013857D01*
X006475Y013632D01*
X006475Y013782D02*
X006325Y013932D01*
X006250Y014092D02*
X006250Y014393D01*
X006325Y014553D02*
X006325Y014853D01*
X006325Y015013D02*
X006325Y015313D01*
X006325Y015473D02*
X006325Y015699D01*
X006400Y015774D01*
X006700Y015774D01*
X006775Y015699D01*
X006775Y015473D01*
X006325Y015473D01*
X006325Y015013D02*
X006775Y015013D01*
X006775Y015313D01*
X006550Y015163D02*
X006550Y015013D01*
X006775Y014553D02*
X006325Y014553D01*
X001925Y014565D02*
X001925Y014265D01*
X001925Y014415D02*
X001475Y014415D01*
X001700Y014104D02*
X001625Y014029D01*
X001625Y013804D01*
X001475Y013804D02*
X001925Y013804D01*
X001925Y014029D01*
X001850Y014104D01*
X001700Y014104D01*
D17*
X000315Y001162D02*
X000315Y000915D01*
X000315Y001038D02*
X000685Y001038D01*
X000562Y000915D01*
X000624Y001283D02*
X000685Y001345D01*
X000685Y001468D01*
X000624Y001530D01*
X000377Y001283D01*
X000315Y001345D01*
X000315Y001468D01*
X000377Y001530D01*
X000624Y001530D01*
X000685Y001652D02*
X000315Y001652D01*
X000500Y001713D02*
X000315Y001899D01*
X000438Y001652D02*
X000685Y001899D01*
X000624Y001283D02*
X000377Y001283D01*
X000315Y003165D02*
X000562Y003412D01*
X000624Y003412D01*
X000685Y003350D01*
X000685Y003227D01*
X000624Y003165D01*
X000624Y003533D02*
X000685Y003595D01*
X000685Y003718D01*
X000624Y003780D01*
X000377Y003533D01*
X000315Y003595D01*
X000315Y003718D01*
X000377Y003780D01*
X000624Y003780D01*
X000685Y003902D02*
X000315Y003902D01*
X000500Y003963D02*
X000315Y004149D01*
X000438Y003902D02*
X000685Y004149D01*
X000624Y003533D02*
X000377Y003533D01*
X000315Y003412D02*
X000315Y003165D01*
X001715Y005815D02*
X001715Y006062D01*
X001715Y005938D02*
X002085Y005938D01*
X001962Y005815D01*
X002024Y006183D02*
X002085Y006245D01*
X002085Y006368D01*
X002024Y006430D01*
X001777Y006183D01*
X001715Y006245D01*
X001715Y006368D01*
X001777Y006430D01*
X002024Y006430D01*
X002024Y006552D02*
X002085Y006613D01*
X002085Y006737D01*
X002024Y006799D01*
X001777Y006552D01*
X001715Y006613D01*
X001715Y006737D01*
X001777Y006799D01*
X002024Y006799D01*
X001962Y006920D02*
X001962Y007105D01*
X001900Y007167D01*
X001715Y007167D01*
X001715Y007288D02*
X002085Y007288D01*
X002085Y007535D01*
X001900Y007412D02*
X001900Y007288D01*
X001962Y006920D02*
X001715Y006920D01*
X001777Y006552D02*
X002024Y006552D01*
X002024Y006183D02*
X001777Y006183D01*
X004601Y006165D02*
X004787Y006350D01*
X004848Y006288D02*
X004601Y006535D01*
X004848Y006535D02*
X004848Y006165D01*
X004970Y006227D02*
X004970Y006474D01*
X005217Y006227D01*
X005155Y006165D01*
X005032Y006165D01*
X004970Y006227D01*
X004970Y006474D02*
X005032Y006535D01*
X005155Y006535D01*
X005217Y006474D01*
X005217Y006227D01*
X005338Y006165D02*
X005585Y006165D01*
X005462Y006165D02*
X005462Y006535D01*
X005585Y006412D01*
X007715Y001788D02*
X008085Y001788D01*
X008085Y002035D01*
X007900Y001667D02*
X007962Y001605D01*
X007962Y001420D01*
X007715Y001420D01*
X007777Y001299D02*
X007715Y001237D01*
X007715Y001113D01*
X007777Y001052D01*
X008024Y001299D01*
X007777Y001299D01*
X007777Y001052D02*
X008024Y001052D01*
X008085Y001113D01*
X008085Y001237D01*
X008024Y001299D01*
X008024Y000930D02*
X007777Y000683D01*
X007715Y000745D01*
X007715Y000868D01*
X007777Y000930D01*
X008024Y000930D01*
X008085Y000868D01*
X008085Y000745D01*
X008024Y000683D01*
X007777Y000683D01*
X007715Y000562D02*
X007715Y000315D01*
X007715Y000438D02*
X008085Y000438D01*
X007962Y000315D01*
X007900Y001667D02*
X007715Y001667D01*
X007900Y001788D02*
X007900Y001912D01*
X007815Y002973D02*
X007815Y003220D01*
X007815Y003097D02*
X008185Y003097D01*
X008062Y002973D01*
X008124Y003342D02*
X007877Y003342D01*
X008124Y003589D01*
X007877Y003589D01*
X007815Y003527D01*
X007815Y003403D01*
X007877Y003342D01*
X007877Y003710D02*
X007815Y003772D01*
X007815Y003895D01*
X007877Y003957D01*
X008124Y003957D01*
X007877Y003710D01*
X008124Y003710D01*
X008185Y003772D01*
X008185Y003895D01*
X008124Y003957D01*
X008062Y004078D02*
X008062Y004264D01*
X008000Y004325D01*
X007815Y004325D01*
X007815Y004447D02*
X008185Y004447D01*
X008185Y004694D01*
X008000Y004570D02*
X008000Y004447D01*
X008062Y004078D02*
X007815Y004078D01*
X008124Y003589D02*
X008185Y003527D01*
X008185Y003403D01*
X008124Y003342D01*
M02*
