G75*
%MOIN*%
%OFA0B0*%
%FSLAX24Y24*%
%IPPOS*%
%LPD*%
%AMOC8*
5,1,8,0,0,1.08239X$1,22.5*
%
%ADD10C,0.1182*%
%ADD11R,0.0552X0.0552*%
%ADD12C,0.0634*%
%ADD13C,0.1360*%
%ADD14OC8,0.0600*%
%ADD15R,0.0946X0.0316*%
%ADD16R,0.0671X0.0592*%
%ADD17R,0.0592X0.0710*%
%ADD18R,0.0710X0.0592*%
%ADD19OC8,0.0674*%
%ADD20OC8,0.1080*%
%ADD21C,0.0480*%
%ADD22C,0.2639*%
D10*
X004200Y014300D03*
D11*
X001613Y010800D03*
X000787Y010800D03*
D12*
X002450Y021800D03*
X002950Y022800D03*
X003450Y021800D03*
X003950Y022800D03*
X004450Y021800D03*
X004950Y022800D03*
X005450Y021800D03*
X005950Y022800D03*
D13*
X006450Y025300D03*
X001950Y025300D03*
D14*
X000700Y014800D03*
X000700Y013800D03*
X007700Y013800D03*
X007700Y014800D03*
D15*
X005224Y002300D03*
X005224Y001800D03*
X005224Y001300D03*
X005224Y000800D03*
X003176Y000800D03*
X003176Y001300D03*
X003176Y001800D03*
X003176Y002300D03*
D16*
X001200Y006426D03*
X001200Y007174D03*
X007200Y004174D03*
X007200Y003426D03*
X007200Y001924D03*
X007200Y001176D03*
D17*
X005324Y005550D03*
X004576Y005550D03*
D18*
X001200Y001176D03*
X001200Y001924D03*
X001200Y003426D03*
X001200Y004174D03*
D19*
X004350Y011300D03*
X004350Y012300D03*
D20*
X005696Y003800D03*
X002704Y003800D03*
D21*
X003100Y002900D03*
X002300Y000900D03*
X001200Y002650D03*
X002700Y005800D03*
X004200Y004350D03*
X004600Y002850D03*
X006050Y002650D03*
X006450Y001000D03*
X007850Y002450D03*
X007400Y015950D03*
X005900Y018800D03*
X003050Y023900D03*
X002050Y018800D03*
X002650Y018400D03*
X000800Y009350D03*
X000700Y008800D03*
D22*
X004200Y009300D03*
X004200Y019300D03*
M02*
