%
M48
M72
T01C0.0240
T02C0.0320
T03C0.0354
T04C0.0394
T05C0.0400
T06C0.1102
T07C0.1200
T08C0.1280
%
T01
X1200Y2650
X2300Y900
X3100Y2900
X2700Y5800
X4200Y4350
X4600Y2850
X6050Y2650
X6450Y1000
X7850Y2450
X7400Y15950
X5900Y18800
X3050Y23900
X2050Y18800
X2650Y18400
X800Y9350
X700Y8800
T02
X700Y13800
X700Y14800
X7700Y14800
X7700Y13800
T03
X5450Y21800
X4950Y22800
X4450Y21800
X3950Y22800
X3450Y21800
X2950Y22800
X2450Y21800
X5950Y22800
T04
X4350Y12300
X4350Y11300
T05
X5696Y3800
X2704Y3800
T06
X4200Y14300
T07
X4200Y9300
X4200Y19300
T08
X6450Y25300
X1950Y25300
M30
