G75*
%MOIN*%
%OFA0B0*%
%FSLAX24Y24*%
%IPPOS*%
%LPD*%
%AMOC8*
5,1,8,0,0,1.08239X$1,22.5*
%
%ADD10C,0.0000*%
%ADD11C,0.0040*%
%ADD12C,0.0060*%
%ADD13C,0.0030*%
%ADD14C,0.0080*%
%ADD15C,0.0050*%
D10*
X000200Y000300D02*
X000200Y027550D01*
X000200Y027536D02*
X008261Y027536D01*
X008261Y000300D01*
X000200Y000300D01*
X003649Y014300D02*
X003651Y014347D01*
X003657Y014393D01*
X003667Y014439D01*
X003680Y014484D01*
X003698Y014527D01*
X003719Y014569D01*
X003743Y014609D01*
X003771Y014646D01*
X003802Y014681D01*
X003836Y014714D01*
X003872Y014743D01*
X003911Y014769D01*
X003952Y014792D01*
X003995Y014811D01*
X004039Y014827D01*
X004084Y014839D01*
X004130Y014847D01*
X004177Y014851D01*
X004223Y014851D01*
X004270Y014847D01*
X004316Y014839D01*
X004361Y014827D01*
X004405Y014811D01*
X004448Y014792D01*
X004489Y014769D01*
X004528Y014743D01*
X004564Y014714D01*
X004598Y014681D01*
X004629Y014646D01*
X004657Y014609D01*
X004681Y014569D01*
X004702Y014527D01*
X004720Y014484D01*
X004733Y014439D01*
X004743Y014393D01*
X004749Y014347D01*
X004751Y014300D01*
X004749Y014253D01*
X004743Y014207D01*
X004733Y014161D01*
X004720Y014116D01*
X004702Y014073D01*
X004681Y014031D01*
X004657Y013991D01*
X004629Y013954D01*
X004598Y013919D01*
X004564Y013886D01*
X004528Y013857D01*
X004489Y013831D01*
X004448Y013808D01*
X004405Y013789D01*
X004361Y013773D01*
X004316Y013761D01*
X004270Y013753D01*
X004223Y013749D01*
X004177Y013749D01*
X004130Y013753D01*
X004084Y013761D01*
X004039Y013773D01*
X003995Y013789D01*
X003952Y013808D01*
X003911Y013831D01*
X003872Y013857D01*
X003836Y013886D01*
X003802Y013919D01*
X003771Y013954D01*
X003743Y013991D01*
X003719Y014031D01*
X003698Y014073D01*
X003680Y014116D01*
X003667Y014161D01*
X003657Y014207D01*
X003651Y014253D01*
X003649Y014300D01*
X001310Y025300D02*
X001312Y025350D01*
X001318Y025400D01*
X001328Y025449D01*
X001341Y025498D01*
X001359Y025545D01*
X001380Y025591D01*
X001404Y025634D01*
X001432Y025676D01*
X001463Y025716D01*
X001497Y025753D01*
X001534Y025787D01*
X001574Y025818D01*
X001616Y025846D01*
X001659Y025870D01*
X001705Y025891D01*
X001752Y025909D01*
X001801Y025922D01*
X001850Y025932D01*
X001900Y025938D01*
X001950Y025940D01*
X002000Y025938D01*
X002050Y025932D01*
X002099Y025922D01*
X002148Y025909D01*
X002195Y025891D01*
X002241Y025870D01*
X002284Y025846D01*
X002326Y025818D01*
X002366Y025787D01*
X002403Y025753D01*
X002437Y025716D01*
X002468Y025676D01*
X002496Y025634D01*
X002520Y025591D01*
X002541Y025545D01*
X002559Y025498D01*
X002572Y025449D01*
X002582Y025400D01*
X002588Y025350D01*
X002590Y025300D01*
X002588Y025250D01*
X002582Y025200D01*
X002572Y025151D01*
X002559Y025102D01*
X002541Y025055D01*
X002520Y025009D01*
X002496Y024966D01*
X002468Y024924D01*
X002437Y024884D01*
X002403Y024847D01*
X002366Y024813D01*
X002326Y024782D01*
X002284Y024754D01*
X002241Y024730D01*
X002195Y024709D01*
X002148Y024691D01*
X002099Y024678D01*
X002050Y024668D01*
X002000Y024662D01*
X001950Y024660D01*
X001900Y024662D01*
X001850Y024668D01*
X001801Y024678D01*
X001752Y024691D01*
X001705Y024709D01*
X001659Y024730D01*
X001616Y024754D01*
X001574Y024782D01*
X001534Y024813D01*
X001497Y024847D01*
X001463Y024884D01*
X001432Y024924D01*
X001404Y024966D01*
X001380Y025009D01*
X001359Y025055D01*
X001341Y025102D01*
X001328Y025151D01*
X001318Y025200D01*
X001312Y025250D01*
X001310Y025300D01*
X005810Y025300D02*
X005812Y025350D01*
X005818Y025400D01*
X005828Y025449D01*
X005841Y025498D01*
X005859Y025545D01*
X005880Y025591D01*
X005904Y025634D01*
X005932Y025676D01*
X005963Y025716D01*
X005997Y025753D01*
X006034Y025787D01*
X006074Y025818D01*
X006116Y025846D01*
X006159Y025870D01*
X006205Y025891D01*
X006252Y025909D01*
X006301Y025922D01*
X006350Y025932D01*
X006400Y025938D01*
X006450Y025940D01*
X006500Y025938D01*
X006550Y025932D01*
X006599Y025922D01*
X006648Y025909D01*
X006695Y025891D01*
X006741Y025870D01*
X006784Y025846D01*
X006826Y025818D01*
X006866Y025787D01*
X006903Y025753D01*
X006937Y025716D01*
X006968Y025676D01*
X006996Y025634D01*
X007020Y025591D01*
X007041Y025545D01*
X007059Y025498D01*
X007072Y025449D01*
X007082Y025400D01*
X007088Y025350D01*
X007090Y025300D01*
X007088Y025250D01*
X007082Y025200D01*
X007072Y025151D01*
X007059Y025102D01*
X007041Y025055D01*
X007020Y025009D01*
X006996Y024966D01*
X006968Y024924D01*
X006937Y024884D01*
X006903Y024847D01*
X006866Y024813D01*
X006826Y024782D01*
X006784Y024754D01*
X006741Y024730D01*
X006695Y024709D01*
X006648Y024691D01*
X006599Y024678D01*
X006550Y024668D01*
X006500Y024662D01*
X006450Y024660D01*
X006400Y024662D01*
X006350Y024668D01*
X006301Y024678D01*
X006252Y024691D01*
X006205Y024709D01*
X006159Y024730D01*
X006116Y024754D01*
X006074Y024782D01*
X006034Y024813D01*
X005997Y024847D01*
X005963Y024884D01*
X005932Y024924D01*
X005904Y024966D01*
X005880Y025009D01*
X005859Y025055D01*
X005841Y025102D01*
X005828Y025151D01*
X005818Y025200D01*
X005812Y025250D01*
X005810Y025300D01*
D11*
X007078Y020132D02*
X007020Y020073D01*
X007020Y019898D01*
X007370Y019898D01*
X007253Y019898D02*
X007253Y020073D01*
X007195Y020132D01*
X007078Y020132D01*
X007078Y019773D02*
X007020Y019714D01*
X007020Y019597D01*
X007078Y019539D01*
X007312Y019539D01*
X007078Y019773D01*
X007312Y019773D01*
X007370Y019714D01*
X007370Y019597D01*
X007312Y019539D01*
X007312Y019414D02*
X007078Y019414D01*
X007020Y019355D01*
X007020Y019238D01*
X007078Y019180D01*
X007136Y019180D01*
X007195Y019238D01*
X007195Y019414D01*
X007312Y019414D02*
X007370Y019355D01*
X007370Y019238D01*
X007312Y019180D01*
X007253Y020015D02*
X007370Y020132D01*
X006413Y016780D02*
X006413Y016320D01*
X006260Y016627D02*
X006413Y016780D01*
X006260Y016320D02*
X006567Y016320D01*
X006106Y016320D02*
X006029Y016320D01*
X006029Y016397D01*
X006106Y016397D01*
X006106Y016320D01*
X005876Y016397D02*
X005799Y016320D01*
X005646Y016320D01*
X005569Y016397D01*
X005876Y016704D01*
X005876Y016397D01*
X005876Y016704D02*
X005799Y016780D01*
X005646Y016780D01*
X005569Y016704D01*
X005569Y016397D01*
X005416Y016397D02*
X005416Y016320D01*
X005339Y016320D01*
X005339Y016397D01*
X005416Y016397D01*
X005185Y016320D02*
X004878Y016320D01*
X004878Y016627D02*
X005032Y016780D01*
X005032Y016320D01*
X004725Y016243D02*
X004418Y016243D01*
X004265Y016473D02*
X003958Y016473D01*
X003958Y016397D02*
X003958Y016550D01*
X004034Y016627D01*
X004188Y016627D01*
X004265Y016550D01*
X004265Y016473D01*
X004188Y016320D02*
X004034Y016320D01*
X003958Y016397D01*
X003804Y016320D02*
X003574Y016473D01*
X003804Y016627D01*
X003574Y016780D02*
X003574Y016320D01*
X003421Y016397D02*
X003421Y016550D01*
X003344Y016627D01*
X003190Y016627D01*
X003114Y016550D01*
X003114Y016397D01*
X003190Y016320D01*
X003344Y016320D01*
X003421Y016397D01*
X002960Y016397D02*
X002883Y016320D01*
X002653Y016320D01*
X002653Y016167D02*
X002653Y016627D01*
X002883Y016627D01*
X002960Y016550D01*
X002960Y016397D01*
X002500Y016243D02*
X002193Y016243D01*
X001963Y016320D02*
X001809Y016320D01*
X001732Y016397D01*
X001732Y016550D01*
X001809Y016627D01*
X001963Y016627D01*
X002039Y016550D01*
X002039Y016473D01*
X001732Y016473D01*
X001579Y016320D02*
X001272Y016320D01*
X001579Y016627D01*
X001272Y016627D01*
X001119Y016550D02*
X001119Y016320D01*
X000888Y016320D01*
X000812Y016397D01*
X000888Y016473D01*
X001119Y016473D01*
X001119Y016550D02*
X001042Y016627D01*
X000888Y016627D01*
X000658Y016780D02*
X000658Y016320D01*
X000505Y016627D02*
X000658Y016780D01*
X000505Y016627D02*
X000351Y016780D01*
X000351Y016320D01*
X000646Y019133D02*
X000530Y019249D01*
X000880Y019249D01*
X000880Y019133D02*
X000880Y019366D01*
X000822Y019492D02*
X000880Y019550D01*
X000880Y019667D01*
X000822Y019725D01*
X000588Y019725D01*
X000822Y019492D01*
X000588Y019492D01*
X000530Y019550D01*
X000530Y019667D01*
X000588Y019725D01*
X000530Y019851D02*
X000880Y019851D01*
X000705Y019909D02*
X000880Y020084D01*
X000763Y019851D02*
X000530Y020084D01*
X006666Y010530D02*
X006589Y010454D01*
X006589Y010377D01*
X006666Y010300D01*
X006819Y010300D01*
X006896Y010223D01*
X006896Y010147D01*
X006819Y010070D01*
X006666Y010070D01*
X006589Y010147D01*
X006666Y010530D02*
X006819Y010530D01*
X006896Y010454D01*
X007049Y010454D02*
X007049Y010147D01*
X007126Y010070D01*
X007279Y010070D01*
X007356Y010147D01*
X007356Y010454D01*
X007279Y010530D01*
X007126Y010530D01*
X007049Y010454D01*
X007510Y010530D02*
X007510Y010070D01*
X007817Y010070D01*
D12*
X006194Y004614D02*
X006194Y004187D01*
X005980Y004400D02*
X006407Y004400D01*
X003700Y003800D02*
X003702Y003844D01*
X003708Y003888D01*
X003718Y003931D01*
X003731Y003973D01*
X003748Y004014D01*
X003769Y004053D01*
X003793Y004090D01*
X003820Y004125D01*
X003850Y004157D01*
X003883Y004187D01*
X003919Y004213D01*
X003956Y004237D01*
X003996Y004256D01*
X004037Y004273D01*
X004080Y004285D01*
X004123Y004294D01*
X004167Y004299D01*
X004211Y004300D01*
X004255Y004297D01*
X004299Y004290D01*
X004342Y004279D01*
X004384Y004265D01*
X004424Y004247D01*
X004463Y004225D01*
X004499Y004201D01*
X004533Y004173D01*
X004565Y004142D01*
X004594Y004108D01*
X004620Y004072D01*
X004642Y004034D01*
X004661Y003994D01*
X004676Y003952D01*
X004688Y003910D01*
X004696Y003866D01*
X004700Y003822D01*
X004700Y003778D01*
X004696Y003734D01*
X004688Y003690D01*
X004676Y003648D01*
X004661Y003606D01*
X004642Y003566D01*
X004620Y003528D01*
X004594Y003492D01*
X004565Y003458D01*
X004533Y003427D01*
X004499Y003399D01*
X004463Y003375D01*
X004424Y003353D01*
X004384Y003335D01*
X004342Y003321D01*
X004299Y003310D01*
X004255Y003303D01*
X004211Y003300D01*
X004167Y003301D01*
X004123Y003306D01*
X004080Y003315D01*
X004037Y003327D01*
X003996Y003344D01*
X003956Y003363D01*
X003919Y003387D01*
X003883Y003413D01*
X003850Y003443D01*
X003820Y003475D01*
X003793Y003510D01*
X003769Y003547D01*
X003748Y003586D01*
X003731Y003627D01*
X003718Y003669D01*
X003708Y003712D01*
X003702Y003756D01*
X003700Y003800D01*
X000854Y003800D02*
X000856Y003915D01*
X000862Y004031D01*
X000872Y004146D01*
X000886Y004261D01*
X000904Y004375D01*
X000926Y004488D01*
X000951Y004601D01*
X000981Y004712D01*
X001014Y004823D01*
X001051Y004932D01*
X001092Y005040D01*
X001137Y005147D01*
X001185Y005252D01*
X001237Y005355D01*
X001293Y005456D01*
X001352Y005556D01*
X001414Y005653D01*
X001480Y005748D01*
X001548Y005841D01*
X001620Y005931D01*
X001695Y006019D01*
X001774Y006104D01*
X001855Y006186D01*
X001938Y006266D01*
X002025Y006342D01*
X002114Y006416D01*
X002205Y006486D01*
X002299Y006554D01*
X002395Y006618D01*
X002494Y006678D01*
X002594Y006735D01*
X002696Y006789D01*
X002800Y006839D01*
X002906Y006886D01*
X003013Y006929D01*
X003122Y006968D01*
X003232Y007003D01*
X003343Y007034D01*
X003455Y007062D01*
X003568Y007086D01*
X003682Y007106D01*
X003797Y007122D01*
X003912Y007134D01*
X004027Y007142D01*
X004142Y007146D01*
X004258Y007146D01*
X004373Y007142D01*
X004488Y007134D01*
X004603Y007122D01*
X004718Y007106D01*
X004832Y007086D01*
X004945Y007062D01*
X005057Y007034D01*
X005168Y007003D01*
X005278Y006968D01*
X005387Y006929D01*
X005494Y006886D01*
X005600Y006839D01*
X005704Y006789D01*
X005806Y006735D01*
X005906Y006678D01*
X006005Y006618D01*
X006101Y006554D01*
X006195Y006486D01*
X006286Y006416D01*
X006375Y006342D01*
X006462Y006266D01*
X006545Y006186D01*
X006626Y006104D01*
X006705Y006019D01*
X006780Y005931D01*
X006852Y005841D01*
X006920Y005748D01*
X006986Y005653D01*
X007048Y005556D01*
X007107Y005456D01*
X007163Y005355D01*
X007215Y005252D01*
X007263Y005147D01*
X007308Y005040D01*
X007349Y004932D01*
X007386Y004823D01*
X007419Y004712D01*
X007449Y004601D01*
X007474Y004488D01*
X007496Y004375D01*
X007514Y004261D01*
X007528Y004146D01*
X007538Y004031D01*
X007544Y003915D01*
X007546Y003800D01*
X007544Y003685D01*
X007538Y003569D01*
X007528Y003454D01*
X007514Y003339D01*
X007496Y003225D01*
X007474Y003112D01*
X007449Y002999D01*
X007419Y002888D01*
X007386Y002777D01*
X007349Y002668D01*
X007308Y002560D01*
X007263Y002453D01*
X007215Y002348D01*
X007163Y002245D01*
X007107Y002144D01*
X007048Y002044D01*
X006986Y001947D01*
X006920Y001852D01*
X006852Y001759D01*
X006780Y001669D01*
X006705Y001581D01*
X006626Y001496D01*
X006545Y001414D01*
X006462Y001334D01*
X006375Y001258D01*
X006286Y001184D01*
X006195Y001114D01*
X006101Y001046D01*
X006005Y000982D01*
X005906Y000922D01*
X005806Y000865D01*
X005704Y000811D01*
X005600Y000761D01*
X005494Y000714D01*
X005387Y000671D01*
X005278Y000632D01*
X005168Y000597D01*
X005057Y000566D01*
X004945Y000538D01*
X004832Y000514D01*
X004718Y000494D01*
X004603Y000478D01*
X004488Y000466D01*
X004373Y000458D01*
X004258Y000454D01*
X004142Y000454D01*
X004027Y000458D01*
X003912Y000466D01*
X003797Y000478D01*
X003682Y000494D01*
X003568Y000514D01*
X003455Y000538D01*
X003343Y000566D01*
X003232Y000597D01*
X003122Y000632D01*
X003013Y000671D01*
X002906Y000714D01*
X002800Y000761D01*
X002696Y000811D01*
X002594Y000865D01*
X002494Y000922D01*
X002395Y000982D01*
X002299Y001046D01*
X002205Y001114D01*
X002114Y001184D01*
X002025Y001258D01*
X001938Y001334D01*
X001855Y001414D01*
X001774Y001496D01*
X001695Y001581D01*
X001620Y001669D01*
X001548Y001759D01*
X001480Y001852D01*
X001414Y001947D01*
X001352Y002044D01*
X001293Y002144D01*
X001237Y002245D01*
X001185Y002348D01*
X001137Y002453D01*
X001092Y002560D01*
X001051Y002668D01*
X001014Y002777D01*
X000981Y002888D01*
X000951Y002999D01*
X000926Y003112D01*
X000904Y003225D01*
X000886Y003339D01*
X000872Y003454D01*
X000862Y003569D01*
X000856Y003685D01*
X000854Y003800D01*
X002902Y023630D02*
X002902Y024271D01*
X003222Y024271D01*
X003329Y024164D01*
X003329Y023950D01*
X003222Y023844D01*
X002902Y023844D01*
X003115Y023844D02*
X003329Y023630D01*
X003546Y023737D02*
X003653Y023630D01*
X003760Y023630D01*
X003867Y023737D01*
X003867Y024271D01*
X003973Y024271D02*
X003760Y024271D01*
X004191Y023950D02*
X004618Y023950D01*
X004511Y023630D02*
X004511Y024271D01*
X004191Y023950D01*
X004835Y023950D02*
X005049Y024057D01*
X005156Y024057D01*
X005262Y023950D01*
X005262Y023737D01*
X005156Y023630D01*
X004942Y023630D01*
X004835Y023737D01*
X004835Y023950D02*
X004835Y024271D01*
X005262Y024271D01*
D13*
X001855Y013035D02*
X001917Y012974D01*
X001917Y012850D01*
X001855Y012788D01*
X001670Y012788D01*
X001670Y012665D02*
X001670Y013035D01*
X001855Y013035D01*
X001793Y012788D02*
X001917Y012665D01*
X001549Y012727D02*
X001487Y012665D01*
X001363Y012665D01*
X001302Y012727D01*
X001549Y012974D01*
X001549Y012727D01*
X001549Y012974D02*
X001487Y013035D01*
X001363Y013035D01*
X001302Y012974D01*
X001302Y012727D01*
X001180Y012727D02*
X001118Y012665D01*
X000995Y012665D01*
X000933Y012727D01*
X000933Y012850D02*
X001057Y012912D01*
X001118Y012912D01*
X001180Y012850D01*
X001180Y012727D01*
X001180Y013035D02*
X000933Y013035D01*
X000933Y012850D01*
X000812Y012665D02*
X000565Y012665D01*
X000565Y012912D02*
X000688Y013035D01*
X000688Y012665D01*
D14*
X001237Y021041D02*
X001237Y027364D01*
X007163Y027364D01*
X007163Y021041D01*
X001237Y021041D01*
X004992Y012851D02*
X004992Y010749D01*
X008256Y010749D01*
X008256Y012851D01*
X004992Y012851D01*
D15*
X007326Y011294D02*
X007937Y011294D01*
X007937Y011091D02*
X007937Y011498D01*
X007530Y011091D02*
X007326Y011294D01*
M02*
