G75*
%MOIN*%
%OFA0B0*%
%FSLAX24Y24*%
%IPPOS*%
%LPD*%
%AMOC8*
5,1,8,0,0,1.08239X$1,22.5*
%
%ADD10C,0.1182*%
%ADD11R,0.0671X0.0592*%
%ADD12R,0.0592X0.0710*%
%ADD13C,0.0634*%
%ADD14C,0.1360*%
%ADD15R,0.0710X0.0592*%
%ADD16OC8,0.0600*%
%ADD17OC8,0.0674*%
%ADD18OC8,0.1080*%
%ADD19C,0.0480*%
%ADD20C,0.2639*%
D10*
X004200Y014300D03*
D11*
X006450Y019465D03*
X006450Y020135D03*
D12*
X001574Y012050D03*
X000826Y012050D03*
D13*
X002450Y021800D03*
X002950Y022800D03*
X003450Y021800D03*
X003950Y022800D03*
X004450Y021800D03*
X004950Y022800D03*
X005450Y021800D03*
X005950Y022800D03*
D14*
X006450Y025300D03*
X001950Y025300D03*
D15*
X001450Y020174D03*
X001450Y019426D03*
D16*
X000700Y014800D03*
X000700Y013800D03*
X007700Y013800D03*
X007700Y014800D03*
D17*
X004350Y012300D03*
X004350Y011300D03*
D18*
X005696Y003800D03*
X002704Y003800D03*
D19*
X001200Y002650D03*
X002300Y000900D03*
X003100Y002900D03*
X002700Y005800D03*
X004200Y004350D03*
X004600Y002850D03*
X006050Y002650D03*
X006450Y001000D03*
X007850Y002450D03*
X007400Y015950D03*
X005900Y018800D03*
X003050Y023900D03*
X002050Y018800D03*
X002650Y018400D03*
X000800Y009350D03*
X000700Y008800D03*
D20*
X004200Y009300D03*
X004200Y019300D03*
M02*
