G75*
%MOIN*%
%OFA0B0*%
%FSLAX24Y24*%
%IPPOS*%
%LPD*%
%AMOC8*
5,1,8,0,0,1.08239X$1,22.5*
%
%ADD10C,0.0845*%
%ADD11C,0.0785*%
%ADD12C,0.0790*%
%ADD13C,0.0634*%
%ADD14C,0.1360*%
%ADD15C,0.0780*%
%ADD16C,0.0880*%
%ADD17C,0.0600*%
%ADD18C,0.0820*%
%ADD19C,0.0480*%
%ADD20C,0.0470*%
%ADD21C,0.0476*%
%ADD22C,0.2442*%
D10*
X030620Y002180D03*
X034620Y002180D03*
X037370Y002280D03*
X041370Y002280D03*
X039370Y004280D03*
X034620Y006180D03*
X037370Y006280D03*
X041370Y006280D03*
X032620Y004180D03*
X030620Y006180D03*
D11*
X043308Y005060D02*
X044013Y005060D01*
X048228Y005060D02*
X048933Y005060D01*
X049908Y005060D02*
X050613Y005060D01*
X054828Y005060D02*
X055533Y005060D01*
X055533Y003100D02*
X054828Y003100D01*
X050613Y003100D02*
X049908Y003100D01*
X048933Y003100D02*
X048228Y003100D01*
X044013Y003100D02*
X043308Y003100D01*
D12*
X046120Y002310D03*
X052720Y002310D03*
X052720Y005850D03*
X046120Y005850D03*
D13*
X045770Y010280D03*
X044770Y010280D03*
X043770Y010280D03*
X042770Y010280D03*
X043270Y011280D03*
X044270Y011280D03*
X045270Y011280D03*
X046270Y011280D03*
X050770Y010280D03*
X051770Y010280D03*
X052770Y010280D03*
X053770Y010280D03*
X053270Y011280D03*
X054270Y011280D03*
X052270Y011280D03*
X051270Y011280D03*
X038770Y011280D03*
X037770Y011280D03*
X036770Y011280D03*
X035770Y011280D03*
X035270Y010280D03*
X036270Y010280D03*
X037270Y010280D03*
X038270Y010280D03*
X031270Y011280D03*
X030270Y011280D03*
X029270Y011280D03*
X028270Y011280D03*
X027770Y010280D03*
X028770Y010280D03*
X029770Y010280D03*
X030770Y010280D03*
D14*
X031770Y013780D03*
X034770Y013780D03*
X039270Y013780D03*
X042270Y013780D03*
X046770Y013780D03*
X050270Y013780D03*
X054770Y013780D03*
X027270Y013780D03*
D15*
X007071Y000976D02*
X006371Y000976D01*
X005520Y002555D02*
X005520Y003255D01*
D16*
X007883Y003305D02*
X007883Y002505D01*
D17*
X060760Y005280D02*
X061280Y005280D01*
X061280Y006280D02*
X060760Y006280D01*
X060760Y007280D02*
X061280Y007280D01*
X061280Y008280D02*
X060760Y008280D01*
X060760Y009280D02*
X061280Y009280D01*
X061280Y010280D02*
X060760Y010280D01*
X060760Y011280D02*
X061280Y011280D01*
X061280Y012280D02*
X060760Y012280D01*
D18*
X024520Y013780D03*
X023520Y013780D03*
X022520Y013780D03*
X021520Y013780D03*
X020520Y013780D03*
X019520Y013780D03*
X018520Y013780D03*
X017520Y013780D03*
X016520Y013780D03*
X015520Y013780D03*
X014520Y013780D03*
X013520Y013780D03*
X012520Y013780D03*
X011520Y013780D03*
X010520Y013780D03*
X009520Y013780D03*
X023520Y003780D03*
X024520Y003780D03*
X024520Y002780D03*
X023520Y002780D03*
X022520Y002780D03*
X021520Y002780D03*
X020520Y002780D03*
X019520Y002780D03*
X018520Y002780D03*
X017520Y002780D03*
X016520Y002780D03*
X015520Y002780D03*
X014520Y002780D03*
X013520Y002780D03*
X012520Y002780D03*
X011520Y002780D03*
X010520Y002780D03*
X009520Y002780D03*
D19*
X007095Y011005D03*
X006595Y011005D03*
X006095Y011005D03*
X005595Y011005D03*
X005095Y011005D03*
X004595Y011005D03*
X004095Y011005D03*
X003595Y011005D03*
X003595Y011505D03*
X003595Y012005D03*
X003595Y012505D03*
X003595Y013005D03*
X003595Y013505D03*
X003595Y014005D03*
X004095Y014005D03*
X004595Y014005D03*
X005095Y014005D03*
X005595Y014005D03*
X006095Y014005D03*
X006595Y014005D03*
X007095Y014005D03*
X007095Y013505D03*
X007095Y013005D03*
X007095Y012505D03*
X007095Y012005D03*
X007095Y011505D03*
D20*
X013120Y010230D03*
X013220Y009430D03*
X012720Y009030D03*
X011720Y009030D03*
X010620Y008680D03*
X016520Y007230D03*
X016370Y006280D03*
X016020Y005430D03*
X020620Y005480D03*
X024320Y006230D03*
X024770Y007280D03*
X024770Y007880D03*
X025570Y008030D03*
X025870Y008430D03*
X027120Y008030D03*
X029020Y007630D03*
X023870Y008080D03*
X023070Y008630D03*
X021920Y009030D03*
X022220Y009430D03*
X021920Y009830D03*
X020120Y009830D03*
X019820Y009430D03*
X020120Y009030D03*
X021320Y008080D03*
X024770Y009730D03*
X025570Y010280D03*
X026670Y010680D03*
X027670Y011680D03*
X024270Y012030D03*
X022720Y012580D03*
X020920Y012980D03*
X019070Y012230D03*
X020920Y011630D03*
X020120Y011230D03*
X020920Y010980D03*
X020120Y010330D03*
X021870Y010330D03*
X023320Y010280D03*
X031720Y011780D03*
X029870Y012980D03*
X028270Y013380D03*
X028270Y014080D03*
X025570Y014380D03*
X024020Y014380D03*
X025570Y012980D03*
X014520Y012580D03*
X011020Y006630D03*
X010470Y004280D03*
X022020Y002180D03*
X026470Y005080D03*
X033670Y009330D03*
X037720Y009480D03*
X041620Y008430D03*
X042870Y007630D03*
X049120Y007230D03*
X049670Y007230D03*
X051670Y006430D03*
X059270Y008030D03*
X052020Y009480D03*
X055770Y011030D03*
X044370Y009680D03*
X037220Y012430D03*
D21*
X019895Y008530D03*
X019520Y007280D03*
X026020Y004530D03*
X029270Y003530D03*
X028895Y003155D03*
X008770Y010530D03*
X008270Y014030D03*
X055645Y009030D03*
X055645Y008405D03*
D22*
X057639Y004119D03*
X027611Y004119D03*
M02*
