G75*
%MOIN*%
%OFA0B0*%
%FSLAX24Y24*%
%IPPOS*%
%LPD*%
%AMOC8*
5,1,8,0,0,1.08239X$1,22.5*
%
%ADD10R,0.0630X0.0709*%
%ADD11R,0.2441X0.2126*%
%ADD12R,0.0630X0.0394*%
%ADD13R,0.0472X0.0236*%
%ADD14R,0.0315X0.0472*%
%ADD15R,0.0512X0.0591*%
%ADD16R,0.0472X0.0315*%
%ADD17R,0.0860X0.0220*%
%ADD18R,0.0260X0.0800*%
%ADD19R,0.0120X0.0590*%
%ADD20R,0.0160X0.0590*%
%ADD21R,0.0140X0.0590*%
D10*
X001504Y007655D03*
X002606Y007655D03*
X002606Y012655D03*
X001504Y012655D03*
D11*
X004039Y010155D03*
D12*
X001165Y009257D03*
X001165Y011053D03*
D13*
X018666Y007154D03*
X018666Y006780D03*
X018666Y006406D03*
X019694Y006406D03*
X019694Y007154D03*
D14*
X017034Y008030D03*
X016326Y008030D03*
X018826Y004780D03*
X019534Y004780D03*
X020326Y004780D03*
X021034Y004780D03*
D15*
X015429Y006530D03*
X014681Y006530D03*
X020806Y007280D03*
X021554Y007280D03*
D16*
X054680Y014426D03*
X055680Y014426D03*
X056680Y014426D03*
X057680Y014426D03*
X058680Y014426D03*
X058680Y015134D03*
X057680Y015134D03*
X056680Y015134D03*
X055680Y015134D03*
X054680Y015134D03*
D17*
X054250Y012530D03*
X054250Y012030D03*
X054250Y011530D03*
X054250Y011030D03*
X056110Y011030D03*
X056110Y011530D03*
X056110Y012030D03*
X056110Y012530D03*
X056110Y009530D03*
X056110Y009030D03*
X056110Y008530D03*
X056110Y008030D03*
X054250Y008030D03*
X054250Y008530D03*
X054250Y009030D03*
X054250Y009530D03*
D18*
X009180Y004350D03*
X009680Y004350D03*
X010180Y004350D03*
X010680Y004350D03*
X011180Y004350D03*
X011680Y004350D03*
X012180Y004350D03*
X012680Y004350D03*
X013180Y004350D03*
X013180Y008210D03*
X012680Y008210D03*
X012180Y008210D03*
X011680Y008210D03*
X011180Y008210D03*
X010680Y008210D03*
X010180Y008210D03*
X009680Y008210D03*
X009180Y008210D03*
D19*
X016300Y006590D03*
X016550Y006590D03*
X016810Y006590D03*
X017060Y006590D03*
X017060Y004970D03*
X016300Y004970D03*
D20*
X016560Y004970D03*
D21*
X016800Y004970D03*
M02*
