G75*
%MOIN*%
%OFA0B0*%
%FSLAX24Y24*%
%IPPOS*%
%LPD*%
%AMOC8*
5,1,8,0,0,1.08239X$1,22.5*
%
%ADD10C,0.0765*%
%ADD11C,0.0705*%
%ADD12C,0.0554*%
%ADD13C,0.0700*%
%ADD14C,0.0800*%
%ADD15C,0.0520*%
%ADD16C,0.0740*%
%ADD17C,0.0160*%
%ADD18C,0.0400*%
%ADD19C,0.0500*%
%ADD20C,0.0120*%
%ADD21C,0.0390*%
%ADD22C,0.0396*%
%ADD23C,0.2362*%
D10*
X030620Y002180D03*
X034620Y002180D03*
X037370Y002280D03*
X041370Y002280D03*
X039370Y004280D03*
X034620Y006180D03*
X037370Y006280D03*
X041370Y006280D03*
X032620Y004180D03*
X030620Y006180D03*
D11*
X043308Y005060D02*
X044013Y005060D01*
X048228Y005060D02*
X048933Y005060D01*
X049908Y005060D02*
X050613Y005060D01*
X054828Y005060D02*
X055533Y005060D01*
X055533Y003100D02*
X054828Y003100D01*
X050613Y003100D02*
X049908Y003100D01*
X048933Y003100D02*
X048228Y003100D01*
X044013Y003100D02*
X043308Y003100D01*
D12*
X043770Y010280D03*
X042770Y010280D03*
X044770Y010280D03*
X045770Y010280D03*
X045270Y011280D03*
X046270Y011280D03*
X044270Y011280D03*
X043270Y011280D03*
X038770Y011280D03*
X037770Y011280D03*
X036770Y011280D03*
X035770Y011280D03*
X035270Y010280D03*
X036270Y010280D03*
X037270Y010280D03*
X038270Y010280D03*
X031270Y011280D03*
X030270Y011280D03*
X029270Y011280D03*
X028270Y011280D03*
X027770Y010280D03*
X028770Y010280D03*
X029770Y010280D03*
X030770Y010280D03*
X050770Y010280D03*
X051770Y010280D03*
X052770Y010280D03*
X053770Y010280D03*
X053270Y011280D03*
X054270Y011280D03*
X052270Y011280D03*
X051270Y011280D03*
D13*
X007071Y000976D02*
X006371Y000976D01*
X005520Y002555D02*
X005520Y003255D01*
D14*
X007883Y003305D02*
X007883Y002505D01*
D15*
X060760Y005280D02*
X061280Y005280D01*
X061280Y006280D02*
X060760Y006280D01*
X060760Y007280D02*
X061280Y007280D01*
X061280Y008280D02*
X060760Y008280D01*
X060760Y009280D02*
X061280Y009280D01*
X061280Y010280D02*
X060760Y010280D01*
X060760Y011280D02*
X061280Y011280D01*
X061280Y012280D02*
X060760Y012280D01*
D16*
X024520Y013780D03*
X023520Y013780D03*
X022520Y013780D03*
X021520Y013780D03*
X020520Y013780D03*
X019520Y013780D03*
X018520Y013780D03*
X017520Y013780D03*
X016520Y013780D03*
X015520Y013780D03*
X014520Y013780D03*
X013520Y013780D03*
X012520Y013780D03*
X011520Y013780D03*
X010520Y013780D03*
X009520Y013780D03*
X023520Y003780D03*
X024520Y003780D03*
X024520Y002780D03*
X023520Y002780D03*
X022520Y002780D03*
X021520Y002780D03*
X020520Y002780D03*
X019520Y002780D03*
X018520Y002780D03*
X017520Y002780D03*
X016520Y002780D03*
X015520Y002780D03*
X014520Y002780D03*
X013520Y002780D03*
X012520Y002780D03*
X011520Y002780D03*
X010520Y002780D03*
X009520Y002780D03*
D17*
X002800Y000560D02*
X002800Y015551D01*
X017732Y015551D01*
X015803Y014258D01*
X015630Y014330D01*
X015411Y014330D01*
X015209Y014246D01*
X015054Y014092D01*
X015020Y014010D01*
X014987Y014092D01*
X014832Y014246D01*
X014630Y014330D01*
X014411Y014330D01*
X014209Y014246D01*
X014054Y014092D01*
X014020Y014010D01*
X013987Y014092D01*
X013832Y014246D01*
X013630Y014330D01*
X013411Y014330D01*
X013209Y014246D01*
X013054Y014092D01*
X013020Y014010D01*
X012987Y014092D01*
X012832Y014246D01*
X012630Y014330D01*
X012411Y014330D01*
X012209Y014246D01*
X012054Y014092D01*
X012046Y014071D01*
X012034Y014094D01*
X011978Y014171D01*
X011911Y014238D01*
X011835Y014293D01*
X011751Y014336D01*
X011661Y014365D01*
X011568Y014380D01*
X011540Y014380D01*
X011540Y013800D01*
X011500Y013800D01*
X011500Y014380D01*
X011473Y014380D01*
X011380Y014365D01*
X011290Y014336D01*
X011206Y014293D01*
X011130Y014238D01*
X011063Y014171D01*
X011007Y014094D01*
X010995Y014071D01*
X010987Y014092D01*
X010832Y014246D01*
X010630Y014330D01*
X010411Y014330D01*
X010209Y014246D01*
X010054Y014092D01*
X010020Y014010D01*
X009987Y014092D01*
X009832Y014246D01*
X009630Y014330D01*
X009411Y014330D01*
X009209Y014246D01*
X009054Y014092D01*
X008970Y013889D01*
X008970Y013671D01*
X009054Y013468D01*
X009209Y013314D01*
X009411Y013230D01*
X009630Y013230D01*
X009832Y013314D01*
X009987Y013468D01*
X010020Y013550D01*
X010054Y013468D01*
X010209Y013314D01*
X010411Y013230D01*
X010630Y013230D01*
X010832Y013314D01*
X010987Y013468D01*
X010995Y013489D01*
X011007Y013466D01*
X011063Y013389D01*
X011130Y013322D01*
X011206Y013267D01*
X011290Y013224D01*
X011380Y013195D01*
X011473Y013180D01*
X011500Y013180D01*
X011500Y013760D01*
X011540Y013760D01*
X011540Y013180D01*
X011568Y013180D01*
X011661Y013195D01*
X011751Y013224D01*
X011835Y013267D01*
X011911Y013322D01*
X011978Y013389D01*
X012034Y013466D01*
X012046Y013489D01*
X012054Y013468D01*
X012209Y013314D01*
X012411Y013230D01*
X012630Y013230D01*
X012832Y013314D01*
X012987Y013468D01*
X013020Y013550D01*
X013054Y013468D01*
X013209Y013314D01*
X013411Y013230D01*
X013630Y013230D01*
X013832Y013314D01*
X013987Y013468D01*
X014020Y013550D01*
X014054Y013468D01*
X014209Y013314D01*
X014411Y013230D01*
X014630Y013230D01*
X014832Y013314D01*
X014987Y013468D01*
X015020Y013550D01*
X015054Y013468D01*
X015209Y013314D01*
X015411Y013230D01*
X015630Y013230D01*
X015832Y013314D01*
X015987Y013468D01*
X016020Y013550D01*
X016054Y013468D01*
X016209Y013314D01*
X016411Y013230D01*
X016630Y013230D01*
X016832Y013314D01*
X016987Y013468D01*
X017020Y013550D01*
X017054Y013468D01*
X017209Y013314D01*
X017411Y013230D01*
X017630Y013230D01*
X017701Y013260D01*
X018695Y012266D01*
X018695Y012155D01*
X018753Y012018D01*
X018858Y011912D01*
X018996Y011855D01*
X019145Y011855D01*
X019283Y011912D01*
X019388Y012018D01*
X019445Y012155D01*
X019445Y012305D01*
X019388Y012442D01*
X019283Y012548D01*
X019145Y012605D01*
X019035Y012605D01*
X018409Y013231D01*
X018411Y013230D01*
X018630Y013230D01*
X018832Y013314D01*
X018987Y013468D01*
X019020Y013550D01*
X019054Y013468D01*
X019209Y013314D01*
X019411Y013230D01*
X019630Y013230D01*
X019701Y013260D01*
X019735Y013227D01*
X019823Y013190D01*
X019880Y013190D01*
X019880Y011520D01*
X019803Y011442D01*
X019745Y011305D01*
X019745Y011155D01*
X019803Y011018D01*
X019908Y010912D01*
X020046Y010855D01*
X020195Y010855D01*
X020280Y010890D01*
X020280Y010670D01*
X020195Y010705D01*
X020046Y010705D01*
X019908Y010648D01*
X019830Y010570D01*
X013280Y010570D01*
X013195Y010605D01*
X013046Y010605D01*
X012908Y010548D01*
X012803Y010442D01*
X012745Y010305D01*
X012745Y010155D01*
X012781Y010070D01*
X012473Y010070D01*
X012385Y010033D01*
X012317Y009966D01*
X011756Y009405D01*
X011685Y009405D01*
X014485Y012205D01*
X014595Y012205D01*
X014733Y012262D01*
X014838Y012368D01*
X014895Y012505D01*
X014895Y012655D01*
X014838Y012792D01*
X014733Y012898D01*
X014595Y012955D01*
X014446Y012955D01*
X014308Y012898D01*
X014203Y012792D01*
X014145Y012655D01*
X014145Y012544D01*
X010656Y009055D01*
X010546Y009055D01*
X010408Y008998D01*
X010303Y008892D01*
X010245Y008755D01*
X010245Y008605D01*
X010303Y008468D01*
X010408Y008362D01*
X010546Y008305D01*
X010695Y008305D01*
X010833Y008362D01*
X010938Y008468D01*
X010995Y008605D01*
X010995Y008716D01*
X011345Y009066D01*
X011345Y008955D01*
X011403Y008818D01*
X011508Y008712D01*
X011646Y008655D01*
X011681Y008655D01*
X011296Y008270D01*
X010370Y008270D01*
X009760Y008879D01*
X009760Y011328D01*
X009724Y011416D01*
X008510Y012629D01*
X008510Y013735D01*
X008591Y013816D01*
X008649Y013955D01*
X008649Y014105D01*
X008591Y014244D01*
X008485Y014351D01*
X008346Y014408D01*
X008195Y014408D01*
X008056Y014351D01*
X007950Y014244D01*
X007892Y014105D01*
X007892Y013955D01*
X007950Y013816D01*
X008030Y013735D01*
X008030Y012482D01*
X008067Y012394D01*
X008135Y012327D01*
X009280Y011181D01*
X009280Y008732D01*
X009317Y008644D01*
X010067Y007894D01*
X010135Y007827D01*
X010223Y007790D01*
X011443Y007790D01*
X011531Y007827D01*
X011995Y008290D01*
X019601Y008290D01*
X019681Y008209D01*
X019820Y008152D01*
X019971Y008152D01*
X020110Y008209D01*
X020216Y008316D01*
X020274Y008455D01*
X020274Y008605D01*
X020244Y008675D01*
X020280Y008690D01*
X020280Y008379D01*
X019559Y007658D01*
X019445Y007658D01*
X019306Y007601D01*
X019200Y007494D01*
X019142Y007355D01*
X019142Y007205D01*
X019177Y007120D01*
X016970Y007120D01*
X016895Y007194D01*
X016895Y007305D01*
X016838Y007442D01*
X016733Y007548D01*
X016595Y007605D01*
X016446Y007605D01*
X016308Y007548D01*
X016203Y007442D01*
X016145Y007305D01*
X016145Y007155D01*
X016203Y007018D01*
X016308Y006912D01*
X016446Y006855D01*
X016556Y006855D01*
X016667Y006744D01*
X016735Y006677D01*
X016823Y006640D01*
X029941Y006640D01*
X029371Y006070D01*
X024660Y006070D01*
X024695Y006155D01*
X024695Y006305D01*
X024638Y006442D01*
X024533Y006548D01*
X024395Y006605D01*
X024246Y006605D01*
X024108Y006548D01*
X024030Y006470D01*
X016698Y006470D01*
X016688Y006492D01*
X016583Y006598D01*
X016445Y006655D01*
X016296Y006655D01*
X016158Y006598D01*
X016053Y006492D01*
X015995Y006355D01*
X015995Y006205D01*
X016031Y006120D01*
X011870Y006120D01*
X011395Y006594D01*
X011395Y006705D01*
X011338Y006842D01*
X011233Y006948D01*
X011095Y007005D01*
X010946Y007005D01*
X010808Y006948D01*
X010703Y006842D01*
X010645Y006705D01*
X010645Y006555D01*
X010703Y006418D01*
X010808Y006312D01*
X010946Y006255D01*
X011056Y006255D01*
X011635Y005677D01*
X011723Y005640D01*
X015702Y005640D01*
X015645Y005505D01*
X015645Y005355D01*
X015703Y005218D01*
X015808Y005112D01*
X015946Y005055D01*
X016056Y005055D01*
X016167Y004944D01*
X016235Y004877D01*
X011763Y004877D01*
X011870Y004770D02*
X009260Y007379D01*
X009260Y010328D01*
X009224Y010416D01*
X009149Y010491D01*
X009149Y010605D01*
X009091Y010744D01*
X008985Y010851D01*
X008846Y010908D01*
X008695Y010908D01*
X008556Y010851D01*
X008450Y010744D01*
X008392Y010605D01*
X008392Y010455D01*
X008450Y010316D01*
X008556Y010209D01*
X008695Y010152D01*
X008780Y010152D01*
X008780Y007232D01*
X008817Y007144D01*
X008885Y007077D01*
X011635Y004327D01*
X011723Y004290D01*
X023315Y004290D01*
X023209Y004246D01*
X023054Y004092D01*
X022970Y003889D01*
X022970Y003671D01*
X023054Y003468D01*
X023209Y003314D01*
X023290Y003280D01*
X023209Y003246D01*
X023054Y003092D01*
X023046Y003071D01*
X023034Y003094D01*
X022978Y003171D01*
X022911Y003238D01*
X022835Y003293D01*
X022751Y003336D01*
X022661Y003365D01*
X022568Y003380D01*
X022540Y003380D01*
X022540Y002800D01*
X022500Y002800D01*
X022500Y003380D01*
X022473Y003380D01*
X022380Y003365D01*
X022290Y003336D01*
X022206Y003293D01*
X022130Y003238D01*
X022063Y003171D01*
X022007Y003094D01*
X021995Y003071D01*
X021987Y003092D01*
X021832Y003246D01*
X021630Y003330D01*
X021411Y003330D01*
X021209Y003246D01*
X021054Y003092D01*
X021020Y003010D01*
X020987Y003092D01*
X020832Y003246D01*
X020630Y003330D01*
X020411Y003330D01*
X020340Y003300D01*
X020106Y003533D01*
X020018Y003570D01*
X011520Y003570D01*
X010845Y004244D01*
X010845Y004355D01*
X010788Y004492D01*
X010683Y004598D01*
X010545Y004655D01*
X010396Y004655D01*
X010258Y004598D01*
X010153Y004492D01*
X010095Y004355D01*
X010095Y004205D01*
X010153Y004068D01*
X010258Y003962D01*
X010396Y003905D01*
X010506Y003905D01*
X011187Y003224D01*
X011054Y003092D01*
X011020Y003010D01*
X010987Y003092D01*
X010832Y003246D01*
X010630Y003330D01*
X010411Y003330D01*
X010209Y003246D01*
X010054Y003092D01*
X010020Y003010D01*
X009987Y003092D01*
X009832Y003246D01*
X009630Y003330D01*
X009411Y003330D01*
X009209Y003246D01*
X009054Y003092D01*
X008970Y002889D01*
X008970Y002671D01*
X009054Y002468D01*
X009209Y002314D01*
X009411Y002230D01*
X009630Y002230D01*
X009832Y002314D01*
X009987Y002468D01*
X010020Y002550D01*
X010054Y002468D01*
X010209Y002314D01*
X010411Y002230D01*
X010630Y002230D01*
X010832Y002314D01*
X010987Y002468D01*
X011020Y002550D01*
X011054Y002468D01*
X011209Y002314D01*
X011411Y002230D01*
X011630Y002230D01*
X011832Y002314D01*
X011987Y002468D01*
X012020Y002550D01*
X012054Y002468D01*
X012209Y002314D01*
X012411Y002230D01*
X012630Y002230D01*
X012832Y002314D01*
X012987Y002468D01*
X013020Y002550D01*
X013054Y002468D01*
X013209Y002314D01*
X013411Y002230D01*
X013630Y002230D01*
X013832Y002314D01*
X013987Y002468D01*
X014020Y002550D01*
X014054Y002468D01*
X014209Y002314D01*
X014411Y002230D01*
X014630Y002230D01*
X014832Y002314D01*
X014987Y002468D01*
X015020Y002550D01*
X015054Y002468D01*
X015209Y002314D01*
X015411Y002230D01*
X015630Y002230D01*
X015832Y002314D01*
X015987Y002468D01*
X016020Y002550D01*
X016054Y002468D01*
X016209Y002314D01*
X016411Y002230D01*
X016630Y002230D01*
X016832Y002314D01*
X016987Y002468D01*
X017020Y002550D01*
X017054Y002468D01*
X017209Y002314D01*
X017411Y002230D01*
X017630Y002230D01*
X017832Y002314D01*
X017987Y002468D01*
X018020Y002550D01*
X018054Y002468D01*
X018209Y002314D01*
X018411Y002230D01*
X018630Y002230D01*
X018832Y002314D01*
X018987Y002468D01*
X019020Y002550D01*
X019054Y002468D01*
X019209Y002314D01*
X019411Y002230D01*
X019630Y002230D01*
X019701Y002260D01*
X019917Y002044D01*
X019985Y001977D01*
X020073Y001940D01*
X021730Y001940D01*
X021808Y001862D01*
X021946Y001805D01*
X022095Y001805D01*
X022233Y001862D01*
X022338Y001968D01*
X022395Y002105D01*
X022395Y002192D01*
X022473Y002180D01*
X022500Y002180D01*
X022500Y002760D01*
X022540Y002760D01*
X022540Y002180D01*
X022568Y002180D01*
X022661Y002195D01*
X022751Y002224D01*
X022835Y002267D01*
X022911Y002322D01*
X022978Y002389D01*
X023034Y002466D01*
X023046Y002489D01*
X023054Y002468D01*
X023209Y002314D01*
X023411Y002230D01*
X023630Y002230D01*
X023832Y002314D01*
X023987Y002468D01*
X024020Y002550D01*
X024054Y002468D01*
X024209Y002314D01*
X024411Y002230D01*
X024630Y002230D01*
X024832Y002314D01*
X024987Y002468D01*
X025070Y002671D01*
X025070Y002889D01*
X025070Y002891D01*
X025435Y002527D01*
X025523Y002490D01*
X030043Y002490D01*
X030108Y002517D01*
X030097Y002501D01*
X030053Y002415D01*
X030023Y002323D01*
X030008Y002228D01*
X030008Y002228D01*
X030573Y002228D01*
X030573Y002132D01*
X030668Y002132D01*
X030668Y001568D01*
X030669Y001568D01*
X030764Y001583D01*
X030856Y001612D01*
X030941Y001656D01*
X031019Y001713D01*
X031088Y001781D01*
X031144Y001859D01*
X031188Y001945D01*
X031218Y002037D01*
X031233Y002132D01*
X031233Y002132D01*
X030668Y002132D01*
X030668Y002228D01*
X031233Y002228D01*
X031218Y002323D01*
X031188Y002415D01*
X031144Y002501D01*
X031088Y002579D01*
X031077Y002590D01*
X034164Y002590D01*
X034153Y002579D01*
X034097Y002501D01*
X034053Y002415D01*
X034023Y002323D01*
X034008Y002228D01*
X034008Y002228D01*
X034573Y002228D01*
X034573Y002132D01*
X034668Y002132D01*
X034668Y001568D01*
X034669Y001568D01*
X034764Y001583D01*
X034856Y001612D01*
X034941Y001656D01*
X035019Y001713D01*
X035088Y001781D01*
X035144Y001859D01*
X035188Y001945D01*
X035218Y002037D01*
X035233Y002132D01*
X035233Y002132D01*
X034668Y002132D01*
X034668Y002228D01*
X035233Y002228D01*
X035218Y002323D01*
X035188Y002415D01*
X035144Y002501D01*
X035088Y002579D01*
X035077Y002590D01*
X036841Y002590D01*
X036803Y002515D01*
X036773Y002423D01*
X036758Y002328D01*
X036758Y002328D01*
X037323Y002328D01*
X037323Y002232D01*
X037418Y002232D01*
X037418Y001668D01*
X037419Y001668D01*
X037514Y001683D01*
X037606Y001712D01*
X037691Y001756D01*
X037769Y001813D01*
X037838Y001881D01*
X037894Y001959D01*
X037938Y002045D01*
X037968Y002137D01*
X037983Y002232D01*
X037983Y002232D01*
X037418Y002232D01*
X037418Y002328D01*
X037983Y002328D01*
X037968Y002423D01*
X037938Y002515D01*
X037900Y002590D01*
X040841Y002590D01*
X040803Y002515D01*
X040773Y002423D01*
X040758Y002328D01*
X040758Y002328D01*
X041323Y002328D01*
X041323Y002232D01*
X041418Y002232D01*
X041418Y001668D01*
X041419Y001668D01*
X041514Y001683D01*
X041606Y001712D01*
X041691Y001756D01*
X041769Y001813D01*
X041838Y001881D01*
X041894Y001959D01*
X041938Y002045D01*
X041968Y002137D01*
X041983Y002232D01*
X041983Y002232D01*
X041418Y002232D01*
X041418Y002328D01*
X041983Y002328D01*
X041981Y002340D01*
X044268Y002340D01*
X044356Y002377D01*
X044424Y002444D01*
X044670Y002690D01*
X045602Y002690D01*
X045582Y002670D01*
X045485Y002436D01*
X045485Y002184D01*
X045582Y001950D01*
X045761Y001772D01*
X045994Y001675D01*
X046247Y001675D01*
X046480Y001772D01*
X046659Y001950D01*
X046755Y002184D01*
X046755Y002436D01*
X046659Y002670D01*
X046638Y002690D01*
X047885Y002690D01*
X047926Y002649D01*
X048122Y002568D01*
X049039Y002568D01*
X049235Y002649D01*
X049384Y002798D01*
X049420Y002885D01*
X049457Y002798D01*
X049606Y002649D01*
X049802Y002568D01*
X050719Y002568D01*
X050915Y002649D01*
X051064Y002798D01*
X051145Y002994D01*
X051145Y003206D01*
X051069Y003390D01*
X054372Y003390D01*
X054295Y003206D01*
X054295Y002994D01*
X054377Y002798D01*
X054526Y002649D01*
X054722Y002568D01*
X055639Y002568D01*
X055835Y002649D01*
X055984Y002798D01*
X056065Y002994D01*
X056065Y003206D01*
X055984Y003402D01*
X055835Y003551D01*
X055639Y003632D01*
X055007Y003632D01*
X054874Y003766D01*
X054806Y003833D01*
X054718Y003870D01*
X040920Y003870D01*
X039756Y005033D01*
X039668Y005070D01*
X039023Y005070D01*
X038935Y005033D01*
X038867Y004966D01*
X038867Y004966D01*
X037671Y003770D01*
X033006Y003770D01*
X033097Y003861D01*
X033183Y004068D01*
X033183Y004292D01*
X033097Y004499D01*
X032939Y004657D01*
X032732Y004742D01*
X032509Y004742D01*
X032430Y004710D01*
X031456Y005683D01*
X031368Y005720D01*
X031027Y005720D01*
X031088Y005781D01*
X031144Y005859D01*
X031188Y005945D01*
X031218Y006037D01*
X031233Y006132D01*
X031233Y006132D01*
X030668Y006132D01*
X030668Y006228D01*
X031233Y006228D01*
X031218Y006323D01*
X031188Y006415D01*
X031144Y006501D01*
X031088Y006579D01*
X031077Y006590D01*
X034164Y006590D01*
X034153Y006579D01*
X034097Y006501D01*
X034053Y006415D01*
X034023Y006323D01*
X034008Y006228D01*
X034008Y006228D01*
X034573Y006228D01*
X034573Y006132D01*
X034668Y006132D01*
X034668Y005568D01*
X034669Y005568D01*
X034764Y005583D01*
X034856Y005612D01*
X034941Y005656D01*
X035019Y005713D01*
X035088Y005781D01*
X035144Y005859D01*
X035188Y005945D01*
X035218Y006037D01*
X035233Y006132D01*
X035233Y006132D01*
X034668Y006132D01*
X034668Y006228D01*
X035233Y006228D01*
X035218Y006323D01*
X035188Y006415D01*
X035144Y006501D01*
X035088Y006579D01*
X035077Y006590D01*
X036841Y006590D01*
X036803Y006515D01*
X036773Y006423D01*
X036758Y006328D01*
X036758Y006328D01*
X037323Y006328D01*
X037323Y006232D01*
X037418Y006232D01*
X037418Y005668D01*
X037419Y005668D01*
X037514Y005683D01*
X037606Y005712D01*
X037691Y005756D01*
X037769Y005813D01*
X037838Y005881D01*
X037894Y005959D01*
X037938Y006045D01*
X037968Y006137D01*
X037983Y006232D01*
X037983Y006232D01*
X037418Y006232D01*
X037418Y006328D01*
X037983Y006328D01*
X037968Y006423D01*
X037938Y006515D01*
X037900Y006590D01*
X040841Y006590D01*
X040803Y006515D01*
X040773Y006423D01*
X040758Y006328D01*
X040758Y006328D01*
X041323Y006328D01*
X041323Y006232D01*
X041418Y006232D01*
X041418Y005668D01*
X041419Y005668D01*
X041514Y005683D01*
X041606Y005712D01*
X041691Y005756D01*
X041769Y005813D01*
X041838Y005881D01*
X041894Y005959D01*
X041938Y006045D01*
X041968Y006137D01*
X041983Y006232D01*
X041983Y006232D01*
X041418Y006232D01*
X041418Y006328D01*
X041983Y006328D01*
X041968Y006423D01*
X041938Y006515D01*
X041900Y006590D01*
X050571Y006590D01*
X050867Y006294D01*
X050935Y006227D01*
X051023Y006190D01*
X051380Y006190D01*
X051458Y006112D01*
X051596Y006055D01*
X051745Y006055D01*
X051883Y006112D01*
X051988Y006218D01*
X052045Y006355D01*
X052045Y006505D01*
X052010Y006590D01*
X060380Y006590D01*
X060341Y006537D01*
X060306Y006468D01*
X060283Y006395D01*
X060270Y006319D01*
X060270Y006280D01*
X060270Y006241D01*
X060283Y006165D01*
X060306Y006092D01*
X060341Y006023D01*
X060387Y005961D01*
X060441Y005906D01*
X060504Y005861D01*
X060572Y005826D01*
X060646Y005802D01*
X060722Y005790D01*
X061020Y005790D01*
X061020Y006280D01*
X060270Y006280D01*
X061020Y006280D01*
X061020Y006280D01*
X061020Y006280D01*
X061020Y005790D01*
X061319Y005790D01*
X061395Y005802D01*
X061469Y005826D01*
X061537Y005861D01*
X061600Y005906D01*
X061654Y005961D01*
X061700Y006023D01*
X061735Y006092D01*
X061758Y006165D01*
X061770Y006241D01*
X061770Y006280D01*
X061770Y006319D01*
X061758Y006395D01*
X061735Y006468D01*
X061700Y006537D01*
X061661Y006590D01*
X061768Y006590D01*
X061856Y006627D01*
X061924Y006694D01*
X061960Y006782D01*
X061960Y007628D01*
X061924Y007716D01*
X061856Y007783D01*
X061631Y008009D01*
X061653Y008031D01*
X061720Y008192D01*
X061720Y008368D01*
X061653Y008529D01*
X061530Y008653D01*
X061368Y008720D01*
X060673Y008720D01*
X060511Y008653D01*
X060387Y008529D01*
X060320Y008368D01*
X060320Y008192D01*
X060387Y008031D01*
X060511Y007907D01*
X060601Y007870D01*
X059610Y007870D01*
X059645Y007955D01*
X059645Y008105D01*
X059588Y008242D01*
X059483Y008348D01*
X059345Y008405D01*
X059196Y008405D01*
X059058Y008348D01*
X058980Y008270D01*
X055999Y008270D01*
X056007Y008290D01*
X057443Y008290D01*
X057531Y008327D01*
X057656Y008452D01*
X057724Y008519D01*
X057760Y008607D01*
X057760Y013203D01*
X057724Y013291D01*
X055464Y015551D01*
X062945Y015551D01*
X062945Y000560D01*
X007476Y000560D01*
X007514Y000598D01*
X007567Y000672D01*
X007609Y000753D01*
X007637Y000840D01*
X007651Y000930D01*
X007651Y000976D01*
X007651Y001022D01*
X007637Y001112D01*
X007609Y001199D01*
X007567Y001280D01*
X007514Y001354D01*
X007449Y001418D01*
X007375Y001472D01*
X007294Y001513D01*
X007207Y001542D01*
X007117Y001556D01*
X006721Y001556D01*
X006326Y001556D01*
X006235Y001542D01*
X006149Y001513D01*
X006067Y001472D01*
X005993Y001418D01*
X005929Y001354D01*
X005875Y001280D01*
X005834Y001199D01*
X005806Y001112D01*
X005791Y001022D01*
X005791Y000976D01*
X006721Y000976D01*
X006721Y000976D01*
X006721Y001556D01*
X006721Y000976D01*
X006721Y000976D01*
X005791Y000976D01*
X005791Y000930D01*
X005806Y000840D01*
X005834Y000753D01*
X005875Y000672D01*
X005929Y000598D01*
X005967Y000560D01*
X002800Y000560D01*
X002800Y000597D02*
X005930Y000597D01*
X005833Y000756D02*
X002800Y000756D01*
X002800Y000914D02*
X005794Y000914D01*
X005799Y001073D02*
X002800Y001073D01*
X002800Y001231D02*
X005850Y001231D01*
X005965Y001390D02*
X002800Y001390D01*
X002800Y001548D02*
X006276Y001548D01*
X006721Y001548D02*
X006721Y001548D01*
X006721Y001390D02*
X006721Y001390D01*
X006721Y001231D02*
X006721Y001231D01*
X006721Y001073D02*
X006721Y001073D01*
X006721Y000976D02*
X007651Y000976D01*
X006721Y000976D01*
X006721Y000976D01*
X007592Y001231D02*
X062945Y001231D01*
X062945Y001073D02*
X007643Y001073D01*
X007649Y000914D02*
X062945Y000914D01*
X062945Y000756D02*
X007610Y000756D01*
X007513Y000597D02*
X062945Y000597D01*
X062945Y001390D02*
X007478Y001390D01*
X007167Y001548D02*
X062945Y001548D01*
X062945Y001707D02*
X052923Y001707D01*
X052847Y001675D02*
X053080Y001772D01*
X053259Y001950D01*
X053355Y002184D01*
X053355Y002436D01*
X053259Y002670D01*
X053080Y002848D01*
X052847Y002945D01*
X052594Y002945D01*
X052361Y002848D01*
X052182Y002670D01*
X052085Y002436D01*
X052085Y002184D01*
X052182Y001950D01*
X052361Y001772D01*
X052594Y001675D01*
X052847Y001675D01*
X052518Y001707D02*
X046323Y001707D01*
X046573Y001865D02*
X052267Y001865D01*
X052152Y002024D02*
X046689Y002024D01*
X046755Y002182D02*
X052086Y002182D01*
X052085Y002341D02*
X046755Y002341D01*
X046730Y002499D02*
X052111Y002499D01*
X052177Y002658D02*
X050924Y002658D01*
X051072Y002816D02*
X052328Y002816D01*
X051137Y002975D02*
X054304Y002975D01*
X054295Y003133D02*
X051145Y003133D01*
X051110Y003292D02*
X054331Y003292D01*
X054369Y002816D02*
X053112Y002816D01*
X053264Y002658D02*
X054517Y002658D01*
X053330Y002499D02*
X062945Y002499D01*
X062945Y002341D02*
X053355Y002341D01*
X053355Y002182D02*
X062945Y002182D01*
X062945Y002024D02*
X053289Y002024D01*
X053173Y001865D02*
X062945Y001865D01*
X062945Y002658D02*
X055844Y002658D01*
X055992Y002816D02*
X057241Y002816D01*
X057113Y002850D02*
X057459Y002757D01*
X057818Y002757D01*
X058164Y002850D01*
X058474Y003029D01*
X058728Y003283D01*
X058907Y003593D01*
X059000Y003939D01*
X059000Y004298D01*
X058907Y004644D01*
X058728Y004954D01*
X058474Y005208D01*
X058164Y005387D01*
X057818Y005480D01*
X057459Y005480D01*
X057113Y005387D01*
X056803Y005208D01*
X056549Y004954D01*
X056370Y004644D01*
X056277Y004298D01*
X056277Y003939D01*
X056370Y003593D01*
X056549Y003283D01*
X056803Y003029D01*
X057113Y002850D01*
X056898Y002975D02*
X056057Y002975D01*
X056065Y003133D02*
X056699Y003133D01*
X056544Y003292D02*
X056030Y003292D01*
X055936Y003450D02*
X056453Y003450D01*
X056366Y003609D02*
X055697Y003609D01*
X056324Y003767D02*
X054873Y003767D01*
X056281Y003926D02*
X040864Y003926D01*
X040706Y004084D02*
X056277Y004084D01*
X056277Y004243D02*
X040547Y004243D01*
X040389Y004401D02*
X056305Y004401D01*
X056348Y004560D02*
X055834Y004560D01*
X055838Y004562D02*
X055912Y004616D01*
X055977Y004681D01*
X056031Y004755D01*
X056073Y004836D01*
X056101Y004924D01*
X056115Y005014D01*
X056115Y005022D01*
X055218Y005022D01*
X055218Y004478D01*
X055579Y004478D01*
X055669Y004492D01*
X055757Y004520D01*
X055838Y004562D01*
X056005Y004718D02*
X056413Y004718D01*
X056505Y004877D02*
X056086Y004877D01*
X056115Y005098D02*
X055218Y005098D01*
X055143Y005098D01*
X055143Y005642D01*
X054782Y005642D01*
X054692Y005628D01*
X054604Y005600D01*
X054523Y005558D01*
X054448Y005504D01*
X054384Y005439D01*
X054330Y005365D01*
X054288Y005284D01*
X054260Y005196D01*
X054245Y005106D01*
X054245Y005098D01*
X055143Y005098D01*
X055143Y005022D01*
X055218Y005022D01*
X055218Y005098D01*
X055218Y005642D01*
X055579Y005642D01*
X055669Y005628D01*
X055757Y005600D01*
X055838Y005558D01*
X055912Y005504D01*
X055977Y005439D01*
X056031Y005365D01*
X056073Y005284D01*
X056101Y005196D01*
X056115Y005106D01*
X056115Y005098D01*
X056102Y005194D02*
X056789Y005194D01*
X056630Y005035D02*
X055218Y005035D01*
X055143Y005035D02*
X050298Y005035D01*
X050298Y005022D02*
X050298Y005098D01*
X050223Y005098D01*
X050223Y005642D01*
X049862Y005642D01*
X049772Y005628D01*
X049684Y005600D01*
X049603Y005558D01*
X049528Y005504D01*
X049464Y005439D01*
X049420Y005380D01*
X049377Y005439D01*
X049312Y005504D01*
X049238Y005558D01*
X049157Y005600D01*
X049069Y005628D01*
X048979Y005642D01*
X048618Y005642D01*
X048618Y005098D01*
X048543Y005098D01*
X048543Y005642D01*
X048182Y005642D01*
X048092Y005628D01*
X048004Y005600D01*
X047923Y005558D01*
X047848Y005504D01*
X047784Y005439D01*
X047730Y005365D01*
X047688Y005284D01*
X047660Y005196D01*
X047645Y005106D01*
X047645Y005098D01*
X048543Y005098D01*
X048543Y005022D01*
X048618Y005022D01*
X048618Y004478D01*
X048979Y004478D01*
X049069Y004492D01*
X049157Y004520D01*
X049238Y004562D01*
X049312Y004616D01*
X049377Y004681D01*
X049420Y004740D01*
X049464Y004681D01*
X049528Y004616D01*
X049603Y004562D01*
X049684Y004520D01*
X049772Y004492D01*
X049862Y004478D01*
X050223Y004478D01*
X050223Y005022D01*
X050298Y005022D01*
X050298Y004478D01*
X050659Y004478D01*
X050749Y004492D01*
X050837Y004520D01*
X050918Y004562D01*
X050992Y004616D01*
X051057Y004681D01*
X051111Y004755D01*
X051153Y004836D01*
X051181Y004924D01*
X051195Y005014D01*
X051195Y005022D01*
X050298Y005022D01*
X050223Y005022D02*
X048618Y005022D01*
X048618Y005098D01*
X049515Y005098D01*
X050223Y005098D01*
X050223Y005022D01*
X050223Y005035D02*
X048618Y005035D01*
X048543Y005035D02*
X043698Y005035D01*
X043698Y005022D02*
X043698Y005098D01*
X043623Y005098D01*
X043623Y005642D01*
X043262Y005642D01*
X043172Y005628D01*
X043084Y005600D01*
X043003Y005558D01*
X042928Y005504D01*
X042864Y005439D01*
X042810Y005365D01*
X042768Y005284D01*
X042740Y005196D01*
X042725Y005106D01*
X042725Y005098D01*
X043623Y005098D01*
X043623Y005022D01*
X043698Y005022D01*
X043698Y004478D01*
X044059Y004478D01*
X044149Y004492D01*
X044237Y004520D01*
X044318Y004562D01*
X044392Y004616D01*
X044457Y004681D01*
X044511Y004755D01*
X044553Y004836D01*
X044581Y004924D01*
X044595Y005014D01*
X044595Y005022D01*
X043698Y005022D01*
X043623Y005022D02*
X043623Y004478D01*
X043262Y004478D01*
X043172Y004492D01*
X043084Y004520D01*
X043003Y004562D01*
X042928Y004616D01*
X042864Y004681D01*
X042810Y004755D01*
X042768Y004836D01*
X042740Y004924D01*
X042725Y005014D01*
X042725Y005022D01*
X043623Y005022D01*
X043623Y005035D02*
X039753Y005035D01*
X039913Y004877D02*
X042755Y004877D01*
X042836Y004718D02*
X040072Y004718D01*
X040230Y004560D02*
X043007Y004560D01*
X043623Y004560D02*
X043698Y004560D01*
X043698Y004718D02*
X043623Y004718D01*
X043623Y004877D02*
X043698Y004877D01*
X043698Y005098D02*
X044595Y005098D01*
X044595Y005106D01*
X044581Y005196D01*
X044553Y005284D01*
X044511Y005365D01*
X044457Y005439D01*
X044392Y005504D01*
X044318Y005558D01*
X044237Y005600D01*
X044149Y005628D01*
X044059Y005642D01*
X043698Y005642D01*
X043698Y005098D01*
X043698Y005194D02*
X043623Y005194D01*
X043623Y005352D02*
X043698Y005352D01*
X043698Y005511D02*
X043623Y005511D01*
X042937Y005511D02*
X031629Y005511D01*
X031471Y005669D02*
X034282Y005669D01*
X034299Y005656D02*
X034385Y005612D01*
X034477Y005583D01*
X034572Y005568D01*
X034573Y005567D01*
X034573Y006132D01*
X034008Y006132D01*
X034023Y006037D01*
X034053Y005945D01*
X034097Y005859D01*
X034153Y005781D01*
X034221Y005713D01*
X034299Y005656D01*
X034119Y005828D02*
X031121Y005828D01*
X031201Y005986D02*
X034039Y005986D01*
X034008Y006132D02*
X034008Y006132D01*
X034020Y006303D02*
X031221Y006303D01*
X031233Y006228D02*
X031233Y006228D01*
X031164Y006462D02*
X034076Y006462D01*
X034573Y006145D02*
X030668Y006145D01*
X029763Y006462D02*
X024619Y006462D01*
X024695Y006303D02*
X029604Y006303D01*
X029446Y006145D02*
X024691Y006145D01*
X025796Y004840D02*
X025726Y004770D01*
X011870Y004770D01*
X011605Y005035D02*
X016076Y005035D01*
X016235Y004877D02*
X016323Y004840D01*
X025796Y004840D01*
X023205Y004243D02*
X010847Y004243D01*
X010826Y004401D02*
X011560Y004401D01*
X011402Y004560D02*
X010721Y004560D01*
X010220Y004560D02*
X002800Y004560D01*
X002800Y004718D02*
X011243Y004718D01*
X011085Y004877D02*
X002800Y004877D01*
X002800Y005035D02*
X010926Y005035D01*
X010768Y005194D02*
X002800Y005194D01*
X002800Y005352D02*
X010609Y005352D01*
X010451Y005511D02*
X002800Y005511D01*
X002800Y005669D02*
X010292Y005669D01*
X010134Y005828D02*
X002800Y005828D01*
X002800Y005986D02*
X009975Y005986D01*
X009817Y006145D02*
X002800Y006145D01*
X002800Y006303D02*
X009658Y006303D01*
X009500Y006462D02*
X002800Y006462D01*
X002800Y006620D02*
X009341Y006620D01*
X009183Y006779D02*
X002800Y006779D01*
X002800Y006937D02*
X009024Y006937D01*
X008866Y007096D02*
X002800Y007096D01*
X002800Y007254D02*
X008780Y007254D01*
X008780Y007413D02*
X002800Y007413D01*
X002800Y007571D02*
X008780Y007571D01*
X008780Y007730D02*
X002800Y007730D01*
X002800Y007888D02*
X008780Y007888D01*
X008780Y008047D02*
X002800Y008047D01*
X002800Y008205D02*
X008780Y008205D01*
X008780Y008364D02*
X002800Y008364D01*
X002800Y008522D02*
X008780Y008522D01*
X008780Y008681D02*
X002800Y008681D01*
X002800Y008839D02*
X008780Y008839D01*
X008780Y008998D02*
X002800Y008998D01*
X002800Y009156D02*
X008780Y009156D01*
X008780Y009315D02*
X002800Y009315D01*
X002800Y009473D02*
X008780Y009473D01*
X008780Y009632D02*
X002800Y009632D01*
X002800Y009790D02*
X008780Y009790D01*
X008780Y009949D02*
X002800Y009949D01*
X002800Y010107D02*
X008780Y010107D01*
X008500Y010266D02*
X002800Y010266D01*
X002800Y010424D02*
X008405Y010424D01*
X008392Y010583D02*
X002800Y010583D01*
X002800Y010741D02*
X003322Y010741D01*
X003273Y010790D02*
X003380Y010683D01*
X003520Y010625D01*
X003671Y010625D01*
X003811Y010683D01*
X003918Y010790D01*
X003975Y010929D01*
X003975Y011081D01*
X003918Y011220D01*
X003883Y011255D01*
X003918Y011290D01*
X003975Y011429D01*
X003975Y011581D01*
X003918Y011720D01*
X003883Y011755D01*
X003918Y011790D01*
X003975Y011929D01*
X003975Y012081D01*
X003918Y012220D01*
X003883Y012255D01*
X003918Y012290D01*
X003975Y012429D01*
X003975Y012581D01*
X003918Y012720D01*
X003883Y012755D01*
X003918Y012790D01*
X003975Y012929D01*
X003975Y013081D01*
X003918Y013220D01*
X003883Y013255D01*
X003918Y013290D01*
X003975Y013429D01*
X003975Y013581D01*
X003918Y013720D01*
X003883Y013755D01*
X003918Y013790D01*
X003975Y013929D01*
X003975Y014081D01*
X003918Y014220D01*
X003811Y014327D01*
X003671Y014385D01*
X003520Y014385D01*
X003380Y014327D01*
X003273Y014220D01*
X003215Y014081D01*
X003215Y013929D01*
X003273Y013790D01*
X003308Y013755D01*
X003273Y013720D01*
X003215Y013581D01*
X003215Y013429D01*
X003273Y013290D01*
X003308Y013255D01*
X003273Y013220D01*
X003215Y013081D01*
X003215Y012929D01*
X003273Y012790D01*
X003308Y012755D01*
X003273Y012720D01*
X003215Y012581D01*
X003215Y012429D01*
X003273Y012290D01*
X003308Y012255D01*
X003273Y012220D01*
X003215Y012081D01*
X003215Y011929D01*
X003273Y011790D01*
X003308Y011755D01*
X003273Y011720D01*
X003215Y011581D01*
X003215Y011429D01*
X003273Y011290D01*
X003308Y011255D01*
X003273Y011220D01*
X003215Y011081D01*
X003215Y010929D01*
X003273Y010790D01*
X003228Y010900D02*
X002800Y010900D01*
X002800Y011058D02*
X003215Y011058D01*
X003272Y011217D02*
X002800Y011217D01*
X002800Y011375D02*
X003238Y011375D01*
X003215Y011534D02*
X002800Y011534D01*
X002800Y011692D02*
X003262Y011692D01*
X003248Y011851D02*
X002800Y011851D01*
X002800Y012009D02*
X003215Y012009D01*
X003251Y012168D02*
X002800Y012168D01*
X002800Y012326D02*
X003258Y012326D01*
X003215Y012485D02*
X002800Y012485D01*
X002800Y012643D02*
X003241Y012643D01*
X003268Y012802D02*
X002800Y012802D01*
X002800Y012960D02*
X003215Y012960D01*
X003231Y013119D02*
X002800Y013119D01*
X002800Y013277D02*
X003286Y013277D01*
X003215Y013436D02*
X002800Y013436D01*
X002800Y013594D02*
X003221Y013594D01*
X003306Y013753D02*
X002800Y013753D01*
X002800Y013911D02*
X003223Y013911D01*
X003215Y014070D02*
X002800Y014070D01*
X002800Y014228D02*
X003281Y014228D01*
X002800Y014387D02*
X008143Y014387D01*
X008398Y014387D02*
X015994Y014387D01*
X016231Y014545D02*
X002800Y014545D01*
X002800Y014704D02*
X016468Y014704D01*
X016704Y014862D02*
X002800Y014862D01*
X002800Y015021D02*
X016941Y015021D01*
X017177Y015179D02*
X002800Y015179D01*
X002800Y015338D02*
X017414Y015338D01*
X017650Y015496D02*
X002800Y015496D01*
X003910Y014228D02*
X007943Y014228D01*
X007892Y014070D02*
X003975Y014070D01*
X003968Y013911D02*
X007910Y013911D01*
X008013Y013753D02*
X003885Y013753D01*
X003970Y013594D02*
X008030Y013594D01*
X008030Y013436D02*
X003975Y013436D01*
X003905Y013277D02*
X008030Y013277D01*
X008030Y013119D02*
X003960Y013119D01*
X003975Y012960D02*
X008030Y012960D01*
X008030Y012802D02*
X003922Y012802D01*
X003950Y012643D02*
X008030Y012643D01*
X008030Y012485D02*
X003975Y012485D01*
X003933Y012326D02*
X008135Y012326D01*
X008294Y012168D02*
X003939Y012168D01*
X003975Y012009D02*
X008452Y012009D01*
X008611Y011851D02*
X003943Y011851D01*
X003929Y011692D02*
X008769Y011692D01*
X008928Y011534D02*
X003975Y011534D01*
X003953Y011375D02*
X009086Y011375D01*
X009245Y011217D02*
X003919Y011217D01*
X003975Y011058D02*
X009280Y011058D01*
X009280Y010900D02*
X008866Y010900D01*
X008675Y010900D02*
X003963Y010900D01*
X003869Y010741D02*
X008449Y010741D01*
X009092Y010741D02*
X009280Y010741D01*
X009280Y010583D02*
X009149Y010583D01*
X009216Y010424D02*
X009280Y010424D01*
X009280Y010266D02*
X009260Y010266D01*
X009260Y010107D02*
X009280Y010107D01*
X009280Y009949D02*
X009260Y009949D01*
X009260Y009790D02*
X009280Y009790D01*
X009280Y009632D02*
X009260Y009632D01*
X009260Y009473D02*
X009280Y009473D01*
X009280Y009315D02*
X009260Y009315D01*
X009260Y009156D02*
X009280Y009156D01*
X009280Y008998D02*
X009260Y008998D01*
X009260Y008839D02*
X009280Y008839D01*
X009260Y008681D02*
X009302Y008681D01*
X009260Y008522D02*
X009439Y008522D01*
X009598Y008364D02*
X009260Y008364D01*
X009260Y008205D02*
X009756Y008205D01*
X009915Y008047D02*
X009260Y008047D01*
X009260Y007888D02*
X010073Y007888D01*
X009260Y007730D02*
X019631Y007730D01*
X019789Y007888D02*
X011593Y007888D01*
X011751Y008047D02*
X019948Y008047D01*
X020099Y008205D02*
X020106Y008205D01*
X020236Y008364D02*
X020265Y008364D01*
X020274Y008522D02*
X020280Y008522D01*
X020280Y008681D02*
X020257Y008681D01*
X021010Y008681D02*
X021784Y008681D01*
X021846Y008655D02*
X021995Y008655D01*
X022133Y008712D01*
X022211Y008790D01*
X022731Y008790D01*
X022695Y008705D01*
X022695Y008555D01*
X022753Y008418D01*
X022858Y008312D01*
X022996Y008255D01*
X023145Y008255D01*
X023283Y008312D01*
X023361Y008390D01*
X023518Y008390D01*
X023606Y008427D01*
X023674Y008494D01*
X023674Y008494D01*
X023770Y008590D01*
X024591Y008590D01*
X023921Y007920D01*
X021120Y007920D01*
X021010Y008029D01*
X021010Y010611D01*
X021133Y010662D01*
X021238Y010768D01*
X021295Y010905D01*
X021295Y011055D01*
X021238Y011192D01*
X021133Y011298D01*
X021116Y011305D01*
X021133Y011312D01*
X021211Y011390D01*
X022591Y011390D01*
X021906Y010705D01*
X021796Y010705D01*
X021658Y010648D01*
X021553Y010542D01*
X021495Y010405D01*
X021495Y010255D01*
X021553Y010118D01*
X021615Y010055D01*
X021603Y010042D01*
X021545Y009905D01*
X021545Y009755D01*
X021603Y009618D01*
X021708Y009512D01*
X021845Y009455D01*
X021845Y009405D01*
X021708Y009348D01*
X021603Y009242D01*
X021545Y009105D01*
X021545Y008955D01*
X021603Y008818D01*
X021708Y008712D01*
X021846Y008655D01*
X022057Y008681D02*
X022695Y008681D01*
X022709Y008522D02*
X021010Y008522D01*
X021010Y008364D02*
X022807Y008364D01*
X023334Y008364D02*
X024365Y008364D01*
X024523Y008522D02*
X023702Y008522D01*
X024206Y008205D02*
X021010Y008205D01*
X021010Y008047D02*
X024048Y008047D01*
X021594Y008839D02*
X021010Y008839D01*
X021010Y008998D02*
X021545Y008998D01*
X021567Y009156D02*
X021010Y009156D01*
X021010Y009315D02*
X021675Y009315D01*
X021802Y009473D02*
X021010Y009473D01*
X021010Y009632D02*
X021597Y009632D01*
X021545Y009790D02*
X021010Y009790D01*
X021010Y009949D02*
X021564Y009949D01*
X021563Y010107D02*
X021010Y010107D01*
X021010Y010266D02*
X021495Y010266D01*
X021504Y010424D02*
X021010Y010424D01*
X021010Y010583D02*
X021593Y010583D01*
X021942Y010741D02*
X021212Y010741D01*
X021293Y010900D02*
X022101Y010900D01*
X022259Y011058D02*
X021294Y011058D01*
X021214Y011217D02*
X022418Y011217D01*
X022576Y011375D02*
X021196Y011375D01*
X019880Y011534D02*
X013813Y011534D01*
X013972Y011692D02*
X019880Y011692D01*
X019880Y011851D02*
X014130Y011851D01*
X014289Y012009D02*
X018761Y012009D01*
X018695Y012168D02*
X014447Y012168D01*
X014797Y012326D02*
X018635Y012326D01*
X018477Y012485D02*
X014887Y012485D01*
X014895Y012643D02*
X018318Y012643D01*
X018160Y012802D02*
X014829Y012802D01*
X014212Y012802D02*
X008510Y012802D01*
X008510Y012960D02*
X018001Y012960D01*
X017843Y013119D02*
X008510Y013119D01*
X008510Y013277D02*
X009298Y013277D01*
X009087Y013436D02*
X008510Y013436D01*
X008510Y013594D02*
X009002Y013594D01*
X008970Y013753D02*
X008528Y013753D01*
X008630Y013911D02*
X008979Y013911D01*
X009045Y014070D02*
X008649Y014070D01*
X008598Y014228D02*
X009191Y014228D01*
X009850Y014228D02*
X010191Y014228D01*
X010045Y014070D02*
X009996Y014070D01*
X010850Y014228D02*
X011120Y014228D01*
X011500Y014228D02*
X011540Y014228D01*
X011540Y014070D02*
X011500Y014070D01*
X011500Y013911D02*
X011540Y013911D01*
X011540Y013753D02*
X011500Y013753D01*
X011500Y013594D02*
X011540Y013594D01*
X011540Y013436D02*
X011500Y013436D01*
X011500Y013277D02*
X011540Y013277D01*
X011849Y013277D02*
X012298Y013277D01*
X012087Y013436D02*
X012012Y013436D01*
X012743Y013277D02*
X013298Y013277D01*
X013087Y013436D02*
X012954Y013436D01*
X013743Y013277D02*
X014298Y013277D01*
X014087Y013436D02*
X013954Y013436D01*
X014743Y013277D02*
X015298Y013277D01*
X015087Y013436D02*
X014954Y013436D01*
X015743Y013277D02*
X016298Y013277D01*
X016087Y013436D02*
X015954Y013436D01*
X016743Y013277D02*
X017298Y013277D01*
X017087Y013436D02*
X016954Y013436D01*
X018521Y013119D02*
X019880Y013119D01*
X019880Y012960D02*
X018680Y012960D01*
X018838Y012802D02*
X019880Y012802D01*
X019880Y012643D02*
X018997Y012643D01*
X019346Y012485D02*
X019880Y012485D01*
X019880Y012326D02*
X019437Y012326D01*
X019445Y012168D02*
X019880Y012168D01*
X019880Y012009D02*
X019380Y012009D01*
X019775Y011375D02*
X013655Y011375D01*
X013496Y011217D02*
X019745Y011217D01*
X019786Y011058D02*
X013338Y011058D01*
X013179Y010900D02*
X019938Y010900D01*
X020280Y010741D02*
X013021Y010741D01*
X012992Y010583D02*
X012862Y010583D01*
X012795Y010424D02*
X012704Y010424D01*
X012745Y010266D02*
X012545Y010266D01*
X012387Y010107D02*
X012766Y010107D01*
X012300Y009949D02*
X012228Y009949D01*
X012141Y009790D02*
X012070Y009790D01*
X011983Y009632D02*
X011911Y009632D01*
X011824Y009473D02*
X011753Y009473D01*
X011233Y009632D02*
X009760Y009632D01*
X009760Y009790D02*
X011391Y009790D01*
X011550Y009949D02*
X009760Y009949D01*
X009760Y010107D02*
X011708Y010107D01*
X011867Y010266D02*
X009760Y010266D01*
X009760Y010424D02*
X012025Y010424D01*
X012184Y010583D02*
X009760Y010583D01*
X009760Y010741D02*
X012342Y010741D01*
X012501Y010900D02*
X009760Y010900D01*
X009760Y011058D02*
X012659Y011058D01*
X012818Y011217D02*
X009760Y011217D01*
X009741Y011375D02*
X012976Y011375D01*
X013135Y011534D02*
X009606Y011534D01*
X009448Y011692D02*
X013293Y011692D01*
X013452Y011851D02*
X009289Y011851D01*
X009131Y012009D02*
X013610Y012009D01*
X013769Y012168D02*
X008972Y012168D01*
X008814Y012326D02*
X013927Y012326D01*
X014086Y012485D02*
X008655Y012485D01*
X008510Y012643D02*
X014145Y012643D01*
X011192Y013277D02*
X010743Y013277D01*
X010954Y013436D02*
X011029Y013436D01*
X010298Y013277D02*
X009743Y013277D01*
X009954Y013436D02*
X010087Y013436D01*
X011921Y014228D02*
X012191Y014228D01*
X012850Y014228D02*
X013191Y014228D01*
X013045Y014070D02*
X012996Y014070D01*
X013850Y014228D02*
X014191Y014228D01*
X014045Y014070D02*
X013996Y014070D01*
X014850Y014228D02*
X015191Y014228D01*
X015045Y014070D02*
X014996Y014070D01*
X018743Y013277D02*
X019298Y013277D01*
X019087Y013436D02*
X018954Y013436D01*
X027900Y014790D02*
X028235Y014455D01*
X028345Y014455D01*
X028483Y014398D01*
X028588Y014292D01*
X028645Y014155D01*
X028645Y014005D01*
X028588Y013868D01*
X028483Y013762D01*
X028405Y013730D01*
X028483Y013698D01*
X028561Y013620D01*
X030068Y013620D01*
X030156Y013583D01*
X030224Y013516D01*
X030620Y013120D01*
X031129Y013120D01*
X030991Y013259D01*
X030850Y013597D01*
X030850Y013963D01*
X030991Y014301D01*
X031249Y014560D01*
X031587Y014700D01*
X031953Y014700D01*
X032292Y014560D01*
X032550Y014301D01*
X032690Y013963D01*
X032690Y013597D01*
X032550Y013259D01*
X032412Y013120D01*
X034129Y013120D01*
X033991Y013259D01*
X033850Y013597D01*
X033850Y013963D01*
X033991Y014301D01*
X034249Y014560D01*
X034587Y014700D01*
X034953Y014700D01*
X035292Y014560D01*
X035550Y014301D01*
X035690Y013963D01*
X035690Y013597D01*
X035550Y013259D01*
X035412Y013120D01*
X038629Y013120D01*
X038491Y013259D01*
X038350Y013597D01*
X038350Y013963D01*
X038491Y014301D01*
X038749Y014560D01*
X039087Y014700D01*
X039453Y014700D01*
X039792Y014560D01*
X040050Y014301D01*
X040190Y013963D01*
X040190Y013597D01*
X040050Y013259D01*
X039912Y013120D01*
X041629Y013120D01*
X041491Y013259D01*
X041350Y013597D01*
X041350Y013963D01*
X041491Y014301D01*
X041749Y014560D01*
X042087Y014700D01*
X042453Y014700D01*
X042792Y014560D01*
X043050Y014301D01*
X043190Y013963D01*
X043190Y013597D01*
X043050Y013259D01*
X042912Y013120D01*
X046129Y013120D01*
X045991Y013259D01*
X045850Y013597D01*
X045850Y013963D01*
X045991Y014301D01*
X046249Y014560D01*
X046587Y014700D01*
X046953Y014700D01*
X047292Y014560D01*
X047550Y014301D01*
X047690Y013963D01*
X047690Y013597D01*
X047550Y013259D01*
X047412Y013120D01*
X049629Y013120D01*
X049491Y013259D01*
X049350Y013597D01*
X049350Y013963D01*
X049491Y014301D01*
X049749Y014560D01*
X050087Y014700D01*
X050453Y014700D01*
X050792Y014560D01*
X051050Y014301D01*
X051190Y013963D01*
X051190Y013597D01*
X051050Y013259D01*
X050912Y013120D01*
X052718Y013120D01*
X052806Y013083D01*
X052874Y013016D01*
X054161Y011729D01*
X054180Y011737D01*
X054361Y011737D01*
X054529Y011668D01*
X054658Y011539D01*
X054728Y011371D01*
X054728Y011189D01*
X054658Y011021D01*
X054529Y010892D01*
X054361Y010823D01*
X054180Y010823D01*
X054012Y010892D01*
X053883Y011021D01*
X053813Y011189D01*
X053813Y011371D01*
X053821Y011390D01*
X052571Y012640D01*
X037539Y012640D01*
X037595Y012505D01*
X037595Y012355D01*
X037560Y012270D01*
X038068Y012270D01*
X038156Y012233D01*
X038224Y012166D01*
X038661Y011729D01*
X038680Y011737D01*
X038861Y011737D01*
X039029Y011668D01*
X039158Y011539D01*
X039228Y011371D01*
X039228Y011189D01*
X039158Y011021D01*
X039107Y010970D01*
X042934Y010970D01*
X042883Y011021D01*
X042813Y011189D01*
X042813Y011371D01*
X042883Y011539D01*
X043012Y011668D01*
X043180Y011737D01*
X043361Y011737D01*
X043529Y011668D01*
X043658Y011539D01*
X043728Y011371D01*
X043728Y011189D01*
X043658Y011021D01*
X043607Y010970D01*
X043934Y010970D01*
X043883Y011021D01*
X043813Y011189D01*
X043813Y011371D01*
X043883Y011539D01*
X044012Y011668D01*
X044180Y011737D01*
X044361Y011737D01*
X044380Y011729D01*
X044517Y011866D01*
X044585Y011933D01*
X044673Y011970D01*
X051868Y011970D01*
X051956Y011933D01*
X052161Y011729D01*
X052180Y011737D01*
X052361Y011737D01*
X052529Y011668D01*
X052658Y011539D01*
X052728Y011371D01*
X052728Y011189D01*
X052658Y011021D01*
X052529Y010892D01*
X052361Y010823D01*
X052180Y010823D01*
X052012Y010892D01*
X051883Y011021D01*
X051813Y011189D01*
X051813Y011371D01*
X051821Y011390D01*
X051721Y011490D01*
X051678Y011490D01*
X051728Y011371D01*
X051728Y011189D01*
X051658Y011021D01*
X051529Y010892D01*
X051361Y010823D01*
X051180Y010823D01*
X051012Y010892D01*
X050883Y011021D01*
X050813Y011189D01*
X050813Y011371D01*
X050863Y011490D01*
X046678Y011490D01*
X046728Y011371D01*
X046728Y011189D01*
X046658Y011021D01*
X046607Y010970D01*
X050368Y010970D01*
X050456Y010933D01*
X050524Y010866D01*
X050661Y010729D01*
X050680Y010737D01*
X050861Y010737D01*
X051029Y010668D01*
X051158Y010539D01*
X051228Y010371D01*
X051228Y010189D01*
X051158Y010021D01*
X051057Y009920D01*
X051071Y009920D01*
X051321Y010170D01*
X051313Y010189D01*
X051313Y010371D01*
X051383Y010539D01*
X051512Y010668D01*
X051680Y010737D01*
X051861Y010737D01*
X052029Y010668D01*
X052158Y010539D01*
X052228Y010371D01*
X052228Y010212D01*
X052357Y010082D01*
X052313Y010189D01*
X052313Y010371D01*
X052383Y010539D01*
X052512Y010668D01*
X052680Y010737D01*
X052861Y010737D01*
X053029Y010668D01*
X053158Y010539D01*
X053228Y010371D01*
X053228Y010189D01*
X053158Y010021D01*
X053029Y009892D01*
X052861Y009823D01*
X052680Y009823D01*
X052573Y009867D01*
X054170Y008270D01*
X055292Y008270D01*
X055267Y008330D01*
X055267Y008480D01*
X055325Y008619D01*
X055423Y008718D01*
X055325Y008816D01*
X055267Y008955D01*
X055267Y009105D01*
X055325Y009244D01*
X055431Y009351D01*
X055570Y009408D01*
X055721Y009408D01*
X055860Y009351D01*
X055940Y009270D01*
X057030Y009270D01*
X057030Y012806D01*
X055561Y014275D01*
X055690Y013963D01*
X055690Y013597D01*
X055550Y013259D01*
X055292Y013000D01*
X054953Y012860D01*
X054587Y012860D01*
X054249Y013000D01*
X053991Y013259D01*
X053850Y013597D01*
X053850Y013963D01*
X053991Y014301D01*
X054249Y014560D01*
X054587Y014700D01*
X054953Y014700D01*
X055265Y014571D01*
X055046Y014790D01*
X027900Y014790D01*
X027986Y014704D02*
X055133Y014704D01*
X056153Y014862D02*
X062945Y014862D01*
X062945Y014704D02*
X056311Y014704D01*
X056470Y014545D02*
X062945Y014545D01*
X062945Y014387D02*
X056628Y014387D01*
X056787Y014228D02*
X062945Y014228D01*
X062945Y014070D02*
X056945Y014070D01*
X057104Y013911D02*
X062945Y013911D01*
X062945Y013753D02*
X057262Y013753D01*
X057421Y013594D02*
X062945Y013594D01*
X062945Y013436D02*
X057579Y013436D01*
X057730Y013277D02*
X062945Y013277D01*
X062945Y013119D02*
X057760Y013119D01*
X057760Y012960D02*
X062945Y012960D01*
X062945Y012802D02*
X057760Y012802D01*
X057760Y012643D02*
X060501Y012643D01*
X060511Y012653D02*
X060387Y012529D01*
X060320Y012368D01*
X060320Y012192D01*
X060387Y012031D01*
X060511Y011907D01*
X060673Y011840D01*
X061368Y011840D01*
X061530Y011907D01*
X061653Y012031D01*
X061720Y012192D01*
X061720Y012368D01*
X061653Y012529D01*
X061530Y012653D01*
X061368Y012720D01*
X060673Y012720D01*
X060511Y012653D01*
X060369Y012485D02*
X057760Y012485D01*
X057760Y012326D02*
X060320Y012326D01*
X060331Y012168D02*
X057760Y012168D01*
X057760Y012009D02*
X060409Y012009D01*
X060648Y011851D02*
X057760Y011851D01*
X057760Y011692D02*
X060605Y011692D01*
X060673Y011720D02*
X060511Y011653D01*
X060387Y011529D01*
X060320Y011368D01*
X060320Y011192D01*
X060387Y011031D01*
X060511Y010907D01*
X060673Y010840D01*
X061368Y010840D01*
X061530Y010907D01*
X061653Y011031D01*
X061720Y011192D01*
X061720Y011368D01*
X061653Y011529D01*
X061530Y011653D01*
X061368Y011720D01*
X060673Y011720D01*
X060392Y011534D02*
X057760Y011534D01*
X057760Y011375D02*
X060324Y011375D01*
X060320Y011217D02*
X057760Y011217D01*
X057760Y011058D02*
X060376Y011058D01*
X060529Y010900D02*
X057760Y010900D01*
X057760Y010741D02*
X062945Y010741D01*
X062945Y010583D02*
X061600Y010583D01*
X061653Y010529D02*
X061530Y010653D01*
X061368Y010720D01*
X060673Y010720D01*
X060511Y010653D01*
X060387Y010529D01*
X060320Y010368D01*
X060320Y010192D01*
X060387Y010031D01*
X060511Y009907D01*
X060673Y009840D01*
X061368Y009840D01*
X061530Y009907D01*
X061653Y010031D01*
X061720Y010192D01*
X061720Y010368D01*
X061653Y010529D01*
X061697Y010424D02*
X062945Y010424D01*
X062945Y010266D02*
X061720Y010266D01*
X061685Y010107D02*
X062945Y010107D01*
X062945Y009949D02*
X061571Y009949D01*
X061530Y009653D02*
X061368Y009720D01*
X060673Y009720D01*
X060511Y009653D01*
X060387Y009529D01*
X060320Y009368D01*
X060320Y009192D01*
X060387Y009031D01*
X060511Y008907D01*
X060673Y008840D01*
X061368Y008840D01*
X061530Y008907D01*
X061653Y009031D01*
X061720Y009192D01*
X061720Y009368D01*
X061653Y009529D01*
X061530Y009653D01*
X061551Y009632D02*
X062945Y009632D01*
X062945Y009790D02*
X057760Y009790D01*
X057760Y009632D02*
X060490Y009632D01*
X060364Y009473D02*
X057760Y009473D01*
X057760Y009315D02*
X060320Y009315D01*
X060336Y009156D02*
X057760Y009156D01*
X057760Y008998D02*
X060421Y008998D01*
X060578Y008681D02*
X057760Y008681D01*
X057760Y008839D02*
X062945Y008839D01*
X062945Y008681D02*
X061463Y008681D01*
X061656Y008522D02*
X062945Y008522D01*
X062945Y008364D02*
X061720Y008364D01*
X061720Y008205D02*
X062945Y008205D01*
X062945Y008047D02*
X061660Y008047D01*
X061752Y007888D02*
X062945Y007888D01*
X062945Y007730D02*
X061910Y007730D01*
X061960Y007571D02*
X062945Y007571D01*
X062945Y007413D02*
X061960Y007413D01*
X061960Y007254D02*
X062945Y007254D01*
X062945Y007096D02*
X061960Y007096D01*
X061960Y006937D02*
X062945Y006937D01*
X062945Y006779D02*
X061959Y006779D01*
X061841Y006620D02*
X062945Y006620D01*
X062945Y006462D02*
X061737Y006462D01*
X061770Y006303D02*
X062945Y006303D01*
X062945Y006145D02*
X061752Y006145D01*
X061770Y006280D02*
X061020Y006280D01*
X061770Y006280D01*
X061020Y006280D02*
X061020Y006280D01*
X061020Y006145D02*
X061020Y006145D01*
X061020Y005986D02*
X061020Y005986D01*
X061020Y005828D02*
X061020Y005828D01*
X060673Y005720D02*
X060511Y005653D01*
X060387Y005529D01*
X060320Y005368D01*
X060320Y005192D01*
X060387Y005031D01*
X060511Y004907D01*
X060673Y004840D01*
X061368Y004840D01*
X061530Y004907D01*
X061653Y005031D01*
X061720Y005192D01*
X061720Y005368D01*
X061653Y005529D01*
X061530Y005653D01*
X061368Y005720D01*
X060673Y005720D01*
X060550Y005669D02*
X053333Y005669D01*
X053355Y005724D02*
X053259Y005490D01*
X053080Y005312D01*
X052847Y005215D01*
X052594Y005215D01*
X052361Y005312D01*
X052182Y005490D01*
X052085Y005724D01*
X052085Y005976D01*
X052182Y006210D01*
X052361Y006388D01*
X052594Y006485D01*
X052847Y006485D01*
X053080Y006388D01*
X053259Y006210D01*
X053355Y005976D01*
X053355Y005724D01*
X053355Y005828D02*
X060569Y005828D01*
X060368Y005986D02*
X053351Y005986D01*
X053286Y006145D02*
X060289Y006145D01*
X060270Y006303D02*
X053165Y006303D01*
X052903Y006462D02*
X060304Y006462D01*
X061472Y005828D02*
X062945Y005828D01*
X062945Y005986D02*
X061673Y005986D01*
X061491Y005669D02*
X062945Y005669D01*
X062945Y005511D02*
X061661Y005511D01*
X061720Y005352D02*
X062945Y005352D01*
X062945Y005194D02*
X061720Y005194D01*
X061655Y005035D02*
X062945Y005035D01*
X062945Y004877D02*
X061456Y004877D01*
X060585Y004877D02*
X058773Y004877D01*
X058864Y004718D02*
X062945Y004718D01*
X062945Y004560D02*
X058930Y004560D01*
X058972Y004401D02*
X062945Y004401D01*
X062945Y004243D02*
X059000Y004243D01*
X059000Y004084D02*
X062945Y004084D01*
X062945Y003926D02*
X058996Y003926D01*
X058953Y003767D02*
X062945Y003767D01*
X062945Y003609D02*
X058911Y003609D01*
X058824Y003450D02*
X062945Y003450D01*
X062945Y003292D02*
X058733Y003292D01*
X058578Y003133D02*
X062945Y003133D01*
X062945Y002975D02*
X058379Y002975D01*
X058036Y002816D02*
X062945Y002816D01*
X060386Y005035D02*
X058647Y005035D01*
X058489Y005194D02*
X060320Y005194D01*
X060320Y005352D02*
X058224Y005352D01*
X057053Y005352D02*
X056038Y005352D01*
X055904Y005511D02*
X060380Y005511D01*
X055218Y005511D02*
X055143Y005511D01*
X055143Y005352D02*
X055218Y005352D01*
X055218Y005194D02*
X055143Y005194D01*
X055143Y005022D02*
X054245Y005022D01*
X054245Y005014D01*
X054260Y004924D01*
X054288Y004836D01*
X054330Y004755D01*
X054384Y004681D01*
X054448Y004616D01*
X054523Y004562D01*
X054604Y004520D01*
X054692Y004492D01*
X054782Y004478D01*
X055143Y004478D01*
X055143Y005022D01*
X055143Y004877D02*
X055218Y004877D01*
X055218Y004718D02*
X055143Y004718D01*
X055143Y004560D02*
X055218Y004560D01*
X054527Y004560D02*
X050914Y004560D01*
X051085Y004718D02*
X054356Y004718D01*
X054275Y004877D02*
X051166Y004877D01*
X051195Y005098D02*
X051195Y005106D01*
X051181Y005196D01*
X051153Y005284D01*
X051111Y005365D01*
X051057Y005439D01*
X050992Y005504D01*
X050918Y005558D01*
X050837Y005600D01*
X050749Y005628D01*
X050659Y005642D01*
X050298Y005642D01*
X050298Y005098D01*
X051195Y005098D01*
X051182Y005194D02*
X054259Y005194D01*
X054323Y005352D02*
X053121Y005352D01*
X053267Y005511D02*
X054457Y005511D01*
X052320Y005352D02*
X051118Y005352D01*
X050984Y005511D02*
X052174Y005511D01*
X052108Y005669D02*
X046733Y005669D01*
X046755Y005724D02*
X046659Y005490D01*
X046480Y005312D01*
X046247Y005215D01*
X045994Y005215D01*
X045761Y005312D01*
X045582Y005490D01*
X045485Y005724D01*
X045485Y005976D01*
X045582Y006210D01*
X045761Y006388D01*
X045994Y006485D01*
X046247Y006485D01*
X046480Y006388D01*
X046659Y006210D01*
X046755Y005976D01*
X046755Y005724D01*
X046755Y005828D02*
X052085Y005828D01*
X052089Y005986D02*
X046751Y005986D01*
X046686Y006145D02*
X051426Y006145D01*
X051915Y006145D02*
X052155Y006145D01*
X052275Y006303D02*
X052024Y006303D01*
X052045Y006462D02*
X052537Y006462D01*
X050858Y006303D02*
X046565Y006303D01*
X046303Y006462D02*
X050700Y006462D01*
X050298Y005511D02*
X050223Y005511D01*
X050223Y005352D02*
X050298Y005352D01*
X050298Y005194D02*
X050223Y005194D01*
X050223Y004877D02*
X050298Y004877D01*
X050298Y004718D02*
X050223Y004718D01*
X050223Y004560D02*
X050298Y004560D01*
X049607Y004560D02*
X049234Y004560D01*
X049405Y004718D02*
X049436Y004718D01*
X048618Y004718D02*
X048543Y004718D01*
X048543Y004560D02*
X048618Y004560D01*
X048543Y004478D02*
X048543Y005022D01*
X047645Y005022D01*
X047645Y005014D01*
X047660Y004924D01*
X047688Y004836D01*
X047730Y004755D01*
X047784Y004681D01*
X047848Y004616D01*
X047923Y004562D01*
X048004Y004520D01*
X048092Y004492D01*
X048182Y004478D01*
X048543Y004478D01*
X047927Y004560D02*
X044314Y004560D01*
X044485Y004718D02*
X047756Y004718D01*
X047675Y004877D02*
X044566Y004877D01*
X044582Y005194D02*
X047659Y005194D01*
X047723Y005352D02*
X046521Y005352D01*
X046667Y005511D02*
X047857Y005511D01*
X048543Y005511D02*
X048618Y005511D01*
X048618Y005352D02*
X048543Y005352D01*
X048543Y005194D02*
X048618Y005194D01*
X048618Y004877D02*
X048543Y004877D01*
X049304Y005511D02*
X049537Y005511D01*
X045937Y006462D02*
X041956Y006462D01*
X041983Y006328D02*
X041983Y006328D01*
X041969Y006145D02*
X045555Y006145D01*
X045489Y005986D02*
X041908Y005986D01*
X041784Y005828D02*
X045485Y005828D01*
X045508Y005669D02*
X041428Y005669D01*
X041418Y005669D02*
X041323Y005669D01*
X041323Y005667D02*
X041323Y006232D01*
X040758Y006232D01*
X040773Y006137D01*
X040803Y006045D01*
X040847Y005959D01*
X040903Y005881D01*
X040971Y005813D01*
X041049Y005756D01*
X041135Y005712D01*
X041227Y005683D01*
X041322Y005668D01*
X041323Y005667D01*
X041313Y005669D02*
X037428Y005669D01*
X037418Y005669D02*
X037323Y005669D01*
X037323Y005667D02*
X037323Y006232D01*
X036758Y006232D01*
X036773Y006137D01*
X036803Y006045D01*
X036847Y005959D01*
X036903Y005881D01*
X036971Y005813D01*
X037049Y005756D01*
X037135Y005712D01*
X037227Y005683D01*
X037322Y005668D01*
X037323Y005667D01*
X037313Y005669D02*
X034959Y005669D01*
X035121Y005828D02*
X036957Y005828D01*
X036833Y005986D02*
X035201Y005986D01*
X034668Y005986D02*
X034573Y005986D01*
X034573Y005828D02*
X034668Y005828D01*
X034668Y005669D02*
X034573Y005669D01*
X034668Y006145D02*
X036772Y006145D01*
X036758Y006232D02*
X036758Y006232D01*
X036785Y006462D02*
X035164Y006462D01*
X035221Y006303D02*
X037323Y006303D01*
X037418Y006303D02*
X041323Y006303D01*
X041418Y006303D02*
X045675Y006303D01*
X045574Y005511D02*
X044384Y005511D01*
X044518Y005352D02*
X045720Y005352D01*
X042803Y005352D02*
X031788Y005352D01*
X031946Y005194D02*
X042739Y005194D01*
X041418Y005828D02*
X041323Y005828D01*
X041323Y005986D02*
X041418Y005986D01*
X041418Y006145D02*
X041323Y006145D01*
X040957Y005828D02*
X037784Y005828D01*
X037908Y005986D02*
X040833Y005986D01*
X040772Y006145D02*
X037969Y006145D01*
X037983Y006328D02*
X037983Y006328D01*
X037956Y006462D02*
X040785Y006462D01*
X040758Y006232D02*
X040758Y006232D01*
X037418Y006145D02*
X037323Y006145D01*
X037323Y005986D02*
X037418Y005986D01*
X037418Y005828D02*
X037323Y005828D01*
X035233Y006228D02*
X035233Y006228D01*
X032263Y004877D02*
X038778Y004877D01*
X038619Y004718D02*
X032791Y004718D01*
X033036Y004560D02*
X038461Y004560D01*
X038302Y004401D02*
X033138Y004401D01*
X033183Y004243D02*
X038144Y004243D01*
X037985Y004084D02*
X033183Y004084D01*
X033124Y003926D02*
X037827Y003926D01*
X038938Y005035D02*
X032105Y005035D01*
X032422Y004718D02*
X032449Y004718D01*
X029921Y006620D02*
X016530Y006620D01*
X016633Y006779D02*
X011365Y006779D01*
X011395Y006620D02*
X016211Y006620D01*
X016040Y006462D02*
X011528Y006462D01*
X011687Y006303D02*
X015995Y006303D01*
X016021Y006145D02*
X011845Y006145D01*
X011484Y005828D02*
X010812Y005828D01*
X010654Y005986D02*
X011325Y005986D01*
X011167Y006145D02*
X010495Y006145D01*
X010337Y006303D02*
X010830Y006303D01*
X010684Y006462D02*
X010178Y006462D01*
X010020Y006620D02*
X010645Y006620D01*
X010676Y006779D02*
X009861Y006779D01*
X009703Y006937D02*
X010797Y006937D01*
X011244Y006937D02*
X016283Y006937D01*
X016170Y007096D02*
X009544Y007096D01*
X009386Y007254D02*
X016145Y007254D01*
X016190Y007413D02*
X009260Y007413D01*
X009260Y007571D02*
X016364Y007571D01*
X016677Y007571D02*
X019277Y007571D01*
X019166Y007413D02*
X016851Y007413D01*
X016895Y007254D02*
X019142Y007254D01*
X019692Y008205D02*
X011910Y008205D01*
X011548Y008522D02*
X010961Y008522D01*
X010995Y008681D02*
X011584Y008681D01*
X011394Y008839D02*
X011119Y008839D01*
X011277Y008998D02*
X011345Y008998D01*
X010916Y009315D02*
X009760Y009315D01*
X009760Y009473D02*
X011074Y009473D01*
X010757Y009156D02*
X009760Y009156D01*
X009760Y008998D02*
X010408Y008998D01*
X010280Y008839D02*
X009801Y008839D01*
X009959Y008681D02*
X010245Y008681D01*
X010280Y008522D02*
X010118Y008522D01*
X010276Y008364D02*
X010407Y008364D01*
X010834Y008364D02*
X011390Y008364D01*
X013249Y010583D02*
X019843Y010583D01*
X028460Y013753D02*
X030850Y013753D01*
X030850Y013911D02*
X028606Y013911D01*
X028645Y014070D02*
X030895Y014070D01*
X030960Y014228D02*
X028615Y014228D01*
X028494Y014387D02*
X031076Y014387D01*
X031234Y014545D02*
X028145Y014545D01*
X030131Y013594D02*
X030852Y013594D01*
X030917Y013436D02*
X030304Y013436D01*
X030463Y013277D02*
X030983Y013277D01*
X032558Y013277D02*
X033983Y013277D01*
X033917Y013436D02*
X032624Y013436D01*
X032689Y013594D02*
X033852Y013594D01*
X033850Y013753D02*
X032690Y013753D01*
X032690Y013911D02*
X033850Y013911D01*
X033895Y014070D02*
X032646Y014070D01*
X032581Y014228D02*
X033960Y014228D01*
X034076Y014387D02*
X032465Y014387D01*
X032307Y014545D02*
X034234Y014545D01*
X035307Y014545D02*
X038734Y014545D01*
X038576Y014387D02*
X035465Y014387D01*
X035581Y014228D02*
X038460Y014228D01*
X038395Y014070D02*
X035646Y014070D01*
X035690Y013911D02*
X038350Y013911D01*
X038350Y013753D02*
X035690Y013753D01*
X035689Y013594D02*
X038352Y013594D01*
X038417Y013436D02*
X035624Y013436D01*
X035558Y013277D02*
X038483Y013277D01*
X040058Y013277D02*
X041483Y013277D01*
X041417Y013436D02*
X040124Y013436D01*
X040189Y013594D02*
X041352Y013594D01*
X041350Y013753D02*
X040190Y013753D01*
X040190Y013911D02*
X041350Y013911D01*
X041395Y014070D02*
X040146Y014070D01*
X040081Y014228D02*
X041460Y014228D01*
X041576Y014387D02*
X039965Y014387D01*
X039807Y014545D02*
X041734Y014545D01*
X042807Y014545D02*
X046234Y014545D01*
X046076Y014387D02*
X042965Y014387D01*
X043081Y014228D02*
X045960Y014228D01*
X045895Y014070D02*
X043146Y014070D01*
X043190Y013911D02*
X045850Y013911D01*
X045850Y013753D02*
X043190Y013753D01*
X043189Y013594D02*
X045852Y013594D01*
X045917Y013436D02*
X043124Y013436D01*
X043058Y013277D02*
X045983Y013277D01*
X047558Y013277D02*
X049483Y013277D01*
X049417Y013436D02*
X047624Y013436D01*
X047689Y013594D02*
X049352Y013594D01*
X049350Y013753D02*
X047690Y013753D01*
X047690Y013911D02*
X049350Y013911D01*
X049395Y014070D02*
X047646Y014070D01*
X047581Y014228D02*
X049460Y014228D01*
X049576Y014387D02*
X047465Y014387D01*
X047307Y014545D02*
X049734Y014545D01*
X050807Y014545D02*
X054234Y014545D01*
X054076Y014387D02*
X050965Y014387D01*
X051081Y014228D02*
X053960Y014228D01*
X053895Y014070D02*
X051146Y014070D01*
X051190Y013911D02*
X053850Y013911D01*
X053850Y013753D02*
X051190Y013753D01*
X051189Y013594D02*
X053852Y013594D01*
X053917Y013436D02*
X051124Y013436D01*
X051058Y013277D02*
X053983Y013277D01*
X054131Y013119D02*
X052722Y013119D01*
X052930Y012960D02*
X054346Y012960D01*
X055195Y012960D02*
X056876Y012960D01*
X057030Y012802D02*
X053088Y012802D01*
X053247Y012643D02*
X057030Y012643D01*
X057030Y012485D02*
X053405Y012485D01*
X053564Y012326D02*
X057030Y012326D01*
X057030Y012168D02*
X053722Y012168D01*
X053881Y012009D02*
X057030Y012009D01*
X057030Y011851D02*
X054039Y011851D01*
X054470Y011692D02*
X057030Y011692D01*
X057030Y011534D02*
X054660Y011534D01*
X054726Y011375D02*
X057030Y011375D01*
X057030Y011217D02*
X054728Y011217D01*
X054673Y011058D02*
X057030Y011058D01*
X057030Y010900D02*
X054537Y010900D01*
X054101Y010667D02*
X054036Y010714D01*
X053965Y010750D01*
X053889Y010775D01*
X053810Y010787D01*
X053779Y010787D01*
X053779Y010289D01*
X053762Y010289D01*
X053762Y010787D01*
X053731Y010787D01*
X053652Y010775D01*
X053576Y010750D01*
X053505Y010714D01*
X053440Y010667D01*
X053384Y010610D01*
X053337Y010546D01*
X053300Y010475D01*
X053276Y010399D01*
X053263Y010320D01*
X053263Y010289D01*
X053762Y010289D01*
X053762Y010271D01*
X053779Y010271D01*
X053779Y009773D01*
X053810Y009773D01*
X053889Y009785D01*
X053965Y009810D01*
X054036Y009846D01*
X054101Y009893D01*
X054157Y009950D01*
X054204Y010014D01*
X054240Y010085D01*
X054265Y010161D01*
X054278Y010240D01*
X054278Y010271D01*
X053779Y010271D01*
X053779Y010289D01*
X054278Y010289D01*
X054278Y010320D01*
X054265Y010399D01*
X054240Y010475D01*
X054204Y010546D01*
X054157Y010610D01*
X054101Y010667D01*
X054178Y010583D02*
X057030Y010583D01*
X057030Y010741D02*
X053983Y010741D01*
X054004Y010900D02*
X053537Y010900D01*
X053529Y010892D02*
X053658Y011021D01*
X053728Y011189D01*
X053728Y011371D01*
X053658Y011539D01*
X053529Y011668D01*
X053361Y011737D01*
X053180Y011737D01*
X053012Y011668D01*
X052883Y011539D01*
X052813Y011371D01*
X052813Y011189D01*
X052883Y011021D01*
X053012Y010892D01*
X053180Y010823D01*
X053361Y010823D01*
X053529Y010892D01*
X053558Y010741D02*
X050649Y010741D01*
X050490Y010900D02*
X051004Y010900D01*
X050868Y011058D02*
X046673Y011058D01*
X046728Y011217D02*
X050813Y011217D01*
X050815Y011375D02*
X046726Y011375D01*
X046233Y010490D02*
X050221Y010490D01*
X050321Y010390D01*
X050313Y010371D01*
X050313Y010189D01*
X050383Y010021D01*
X050484Y009920D01*
X046128Y009920D01*
X046157Y009950D01*
X046204Y010014D01*
X046240Y010085D01*
X046265Y010161D01*
X046278Y010240D01*
X046278Y010271D01*
X045779Y010271D01*
X045779Y010289D01*
X046278Y010289D01*
X046278Y010320D01*
X046265Y010399D01*
X046240Y010475D01*
X046233Y010490D01*
X046257Y010424D02*
X050287Y010424D01*
X050313Y010266D02*
X046278Y010266D01*
X046248Y010107D02*
X050347Y010107D01*
X050455Y009949D02*
X046156Y009949D01*
X045762Y010271D02*
X045263Y010271D01*
X045263Y010240D01*
X045276Y010161D01*
X045300Y010085D01*
X045337Y010014D01*
X045384Y009950D01*
X045413Y009920D01*
X045057Y009920D01*
X045158Y010021D01*
X045228Y010189D01*
X045228Y010371D01*
X045178Y010490D01*
X045308Y010490D01*
X045300Y010475D01*
X045276Y010399D01*
X045263Y010320D01*
X045263Y010289D01*
X045762Y010289D01*
X045762Y010271D01*
X045385Y009949D02*
X045086Y009949D01*
X045194Y010107D02*
X045293Y010107D01*
X045263Y010266D02*
X045228Y010266D01*
X045206Y010424D02*
X045284Y010424D01*
X043868Y011058D02*
X043673Y011058D01*
X043728Y011217D02*
X043813Y011217D01*
X043815Y011375D02*
X043726Y011375D01*
X043660Y011534D02*
X043881Y011534D01*
X044071Y011692D02*
X043470Y011692D01*
X043071Y011692D02*
X038970Y011692D01*
X039160Y011534D02*
X042881Y011534D01*
X042815Y011375D02*
X039226Y011375D01*
X039228Y011217D02*
X042813Y011217D01*
X042868Y011058D02*
X039173Y011058D01*
X038733Y010490D02*
X042363Y010490D01*
X042313Y010371D01*
X042313Y010189D01*
X042363Y010070D01*
X038733Y010070D01*
X038740Y010085D01*
X038765Y010161D01*
X038778Y010240D01*
X038778Y010271D01*
X038279Y010271D01*
X038279Y010289D01*
X038778Y010289D01*
X038778Y010320D01*
X038765Y010399D01*
X038740Y010475D01*
X038733Y010490D01*
X038757Y010424D02*
X042335Y010424D01*
X042313Y010266D02*
X038778Y010266D01*
X038748Y010107D02*
X042347Y010107D01*
X038262Y010271D02*
X037763Y010271D01*
X037763Y010240D01*
X037776Y010161D01*
X037789Y010120D01*
X037699Y010120D01*
X037728Y010189D01*
X037728Y010371D01*
X037678Y010490D01*
X037808Y010490D01*
X037800Y010475D01*
X037776Y010399D01*
X037763Y010320D01*
X037763Y010289D01*
X038262Y010289D01*
X038262Y010271D01*
X037763Y010266D02*
X037728Y010266D01*
X037706Y010424D02*
X037784Y010424D01*
X034863Y010070D02*
X031233Y010070D01*
X031240Y010085D01*
X031265Y010161D01*
X031278Y010240D01*
X031278Y010271D01*
X030779Y010271D01*
X030779Y010289D01*
X031278Y010289D01*
X031278Y010320D01*
X031265Y010399D01*
X031240Y010475D01*
X031233Y010490D01*
X034671Y010490D01*
X034685Y010477D01*
X034770Y010441D01*
X034821Y010390D01*
X034813Y010371D01*
X034813Y010189D01*
X034863Y010070D01*
X034847Y010107D02*
X031248Y010107D01*
X031278Y010266D02*
X034813Y010266D01*
X034787Y010424D02*
X031257Y010424D01*
X030762Y010289D02*
X030762Y010271D01*
X030263Y010271D01*
X030263Y010240D01*
X030276Y010161D01*
X030300Y010085D01*
X030308Y010070D01*
X030178Y010070D01*
X030228Y010189D01*
X030228Y010371D01*
X030178Y010490D01*
X030308Y010490D01*
X030300Y010475D01*
X030276Y010399D01*
X030263Y010320D01*
X030263Y010289D01*
X030762Y010289D01*
X030284Y010424D02*
X030206Y010424D01*
X030228Y010266D02*
X030263Y010266D01*
X030293Y010107D02*
X030194Y010107D01*
X037583Y012326D02*
X052885Y012326D01*
X052727Y012485D02*
X037595Y012485D01*
X038222Y012168D02*
X053044Y012168D01*
X053202Y012009D02*
X038381Y012009D01*
X038539Y011851D02*
X044502Y011851D01*
X051114Y010583D02*
X051426Y010583D01*
X051335Y010424D02*
X051206Y010424D01*
X051228Y010266D02*
X051313Y010266D01*
X051258Y010107D02*
X051194Y010107D01*
X051100Y009949D02*
X051086Y009949D01*
X052228Y010266D02*
X052313Y010266D01*
X052335Y010424D02*
X052206Y010424D01*
X052114Y010583D02*
X052426Y010583D01*
X053114Y010583D02*
X053363Y010583D01*
X053284Y010424D02*
X053206Y010424D01*
X053228Y010266D02*
X053263Y010266D01*
X053263Y010271D02*
X053263Y010240D01*
X053276Y010161D01*
X053300Y010085D01*
X053337Y010014D01*
X053384Y009950D01*
X053440Y009893D01*
X053505Y009846D01*
X053576Y009810D01*
X053652Y009785D01*
X053731Y009773D01*
X053762Y009773D01*
X053762Y010271D01*
X053263Y010271D01*
X053293Y010107D02*
X053194Y010107D01*
X053086Y009949D02*
X053385Y009949D01*
X053637Y009790D02*
X052650Y009790D01*
X052808Y009632D02*
X057030Y009632D01*
X057030Y009790D02*
X053904Y009790D01*
X053779Y009790D02*
X053762Y009790D01*
X053762Y009949D02*
X053779Y009949D01*
X053762Y010107D02*
X053779Y010107D01*
X053762Y010266D02*
X053779Y010266D01*
X053762Y010424D02*
X053779Y010424D01*
X053762Y010583D02*
X053779Y010583D01*
X053762Y010741D02*
X053779Y010741D01*
X053868Y011058D02*
X053673Y011058D01*
X053728Y011217D02*
X053813Y011217D01*
X053815Y011375D02*
X053726Y011375D01*
X053678Y011534D02*
X053660Y011534D01*
X053519Y011692D02*
X053470Y011692D01*
X053361Y011851D02*
X052039Y011851D01*
X052470Y011692D02*
X053071Y011692D01*
X052881Y011534D02*
X052660Y011534D01*
X052726Y011375D02*
X052815Y011375D01*
X052813Y011217D02*
X052728Y011217D01*
X052673Y011058D02*
X052868Y011058D01*
X053004Y010900D02*
X052537Y010900D01*
X052004Y010900D02*
X051537Y010900D01*
X051673Y011058D02*
X051868Y011058D01*
X051813Y011217D02*
X051728Y011217D01*
X051726Y011375D02*
X051815Y011375D01*
X054257Y010424D02*
X057030Y010424D01*
X057030Y010266D02*
X054278Y010266D01*
X054248Y010107D02*
X057030Y010107D01*
X057030Y009949D02*
X054156Y009949D01*
X052967Y009473D02*
X057030Y009473D01*
X057030Y009315D02*
X055896Y009315D01*
X055395Y009315D02*
X053125Y009315D01*
X053284Y009156D02*
X055288Y009156D01*
X055267Y008998D02*
X053442Y008998D01*
X053601Y008839D02*
X055315Y008839D01*
X055386Y008681D02*
X053759Y008681D01*
X053918Y008522D02*
X055285Y008522D01*
X055267Y008364D02*
X054076Y008364D01*
X057568Y008364D02*
X059096Y008364D01*
X059445Y008364D02*
X060320Y008364D01*
X060320Y008205D02*
X059604Y008205D01*
X059645Y008047D02*
X060381Y008047D01*
X060557Y007888D02*
X059618Y007888D01*
X060384Y008522D02*
X057725Y008522D01*
X061620Y008998D02*
X062945Y008998D01*
X062945Y009156D02*
X061705Y009156D01*
X061720Y009315D02*
X062945Y009315D01*
X062945Y009473D02*
X061677Y009473D01*
X060470Y009949D02*
X057760Y009949D01*
X057760Y010107D02*
X060356Y010107D01*
X060320Y010266D02*
X057760Y010266D01*
X057760Y010424D02*
X060344Y010424D01*
X060441Y010583D02*
X057760Y010583D01*
X061512Y010900D02*
X062945Y010900D01*
X062945Y011058D02*
X061665Y011058D01*
X061720Y011217D02*
X062945Y011217D01*
X062945Y011375D02*
X061717Y011375D01*
X061649Y011534D02*
X062945Y011534D01*
X062945Y011692D02*
X061436Y011692D01*
X061393Y011851D02*
X062945Y011851D01*
X062945Y012009D02*
X061632Y012009D01*
X061710Y012168D02*
X062945Y012168D01*
X062945Y012326D02*
X061720Y012326D01*
X061672Y012485D02*
X062945Y012485D01*
X062945Y012643D02*
X061540Y012643D01*
X056718Y013119D02*
X055410Y013119D01*
X055558Y013277D02*
X056559Y013277D01*
X056401Y013436D02*
X055624Y013436D01*
X055689Y013594D02*
X056242Y013594D01*
X056084Y013753D02*
X055690Y013753D01*
X055690Y013911D02*
X055925Y013911D01*
X055767Y014070D02*
X055646Y014070D01*
X055608Y014228D02*
X055581Y014228D01*
X055994Y015021D02*
X062945Y015021D01*
X062945Y015179D02*
X055836Y015179D01*
X055677Y015338D02*
X062945Y015338D01*
X062945Y015496D02*
X055519Y015496D01*
X052347Y010107D02*
X052333Y010107D01*
X049449Y002816D02*
X049392Y002816D01*
X049244Y002658D02*
X049597Y002658D01*
X047917Y002658D02*
X046664Y002658D01*
X045577Y002658D02*
X044637Y002658D01*
X044479Y002499D02*
X045511Y002499D01*
X045485Y002341D02*
X044269Y002341D01*
X045486Y002182D02*
X041975Y002182D01*
X041983Y002328D02*
X041983Y002328D01*
X041927Y002024D02*
X045552Y002024D01*
X045667Y001865D02*
X041822Y001865D01*
X041588Y001707D02*
X045918Y001707D01*
X041418Y001707D02*
X041323Y001707D01*
X041323Y001667D02*
X041323Y002232D01*
X040758Y002232D01*
X040773Y002137D01*
X040803Y002045D01*
X040847Y001959D01*
X040903Y001881D01*
X040971Y001813D01*
X041049Y001756D01*
X041135Y001712D01*
X041227Y001683D01*
X041322Y001668D01*
X041323Y001667D01*
X041153Y001707D02*
X037588Y001707D01*
X037418Y001707D02*
X037323Y001707D01*
X037323Y001667D02*
X037323Y002232D01*
X036758Y002232D01*
X036773Y002137D01*
X036803Y002045D01*
X036847Y001959D01*
X036903Y001881D01*
X036971Y001813D01*
X037049Y001756D01*
X037135Y001712D01*
X037227Y001683D01*
X037322Y001668D01*
X037323Y001667D01*
X037153Y001707D02*
X035011Y001707D01*
X035147Y001865D02*
X036919Y001865D01*
X036814Y002024D02*
X035214Y002024D01*
X035233Y002228D02*
X035233Y002228D01*
X035212Y002341D02*
X036760Y002341D01*
X036758Y002232D02*
X036758Y002232D01*
X036766Y002182D02*
X034668Y002182D01*
X034573Y002182D02*
X030668Y002182D01*
X030573Y002182D02*
X022580Y002182D01*
X022540Y002182D02*
X022500Y002182D01*
X022461Y002182D02*
X022395Y002182D01*
X022362Y002024D02*
X030027Y002024D01*
X030023Y002037D02*
X030053Y001945D01*
X030097Y001859D01*
X030153Y001781D01*
X030221Y001713D01*
X030299Y001656D01*
X030385Y001612D01*
X030477Y001583D01*
X030572Y001568D01*
X030573Y001567D01*
X030573Y002132D01*
X030008Y002132D01*
X030023Y002037D01*
X030008Y002132D02*
X030008Y002132D01*
X030094Y001865D02*
X022236Y001865D01*
X021805Y001865D02*
X002800Y001865D01*
X002800Y001707D02*
X030230Y001707D01*
X030573Y001707D02*
X030668Y001707D01*
X030668Y001865D02*
X030573Y001865D01*
X030573Y002024D02*
X030668Y002024D01*
X031147Y001865D02*
X034094Y001865D01*
X034097Y001859D02*
X034153Y001781D01*
X034221Y001713D01*
X034299Y001656D01*
X034385Y001612D01*
X034477Y001583D01*
X034572Y001568D01*
X034573Y001567D01*
X034573Y002132D01*
X034008Y002132D01*
X034023Y002037D01*
X034053Y001945D01*
X034097Y001859D01*
X034027Y002024D02*
X031214Y002024D01*
X031233Y002228D02*
X031233Y002228D01*
X031212Y002341D02*
X034029Y002341D01*
X034096Y002499D02*
X031145Y002499D01*
X030096Y002499D02*
X030065Y002499D01*
X030029Y002341D02*
X024859Y002341D01*
X024999Y002499D02*
X025501Y002499D01*
X025304Y002658D02*
X025065Y002658D01*
X025070Y002816D02*
X025145Y002816D01*
X024182Y002341D02*
X023859Y002341D01*
X023999Y002499D02*
X024042Y002499D01*
X023182Y002341D02*
X022930Y002341D01*
X022540Y002341D02*
X022500Y002341D01*
X022500Y002499D02*
X022540Y002499D01*
X022540Y002658D02*
X022500Y002658D01*
X022500Y002816D02*
X022540Y002816D01*
X022540Y002975D02*
X022500Y002975D01*
X022500Y003133D02*
X022540Y003133D01*
X022540Y003292D02*
X022500Y003292D01*
X022204Y003292D02*
X021723Y003292D01*
X021945Y003133D02*
X022035Y003133D01*
X022837Y003292D02*
X023263Y003292D01*
X023096Y003133D02*
X023006Y003133D01*
X023073Y003450D02*
X020190Y003450D01*
X020723Y003292D02*
X021318Y003292D01*
X021096Y003133D02*
X020945Y003133D01*
X022996Y003609D02*
X011481Y003609D01*
X011323Y003767D02*
X022970Y003767D01*
X022985Y003926D02*
X011164Y003926D01*
X011006Y004084D02*
X023051Y004084D01*
X019182Y002341D02*
X018859Y002341D01*
X018999Y002499D02*
X019042Y002499D01*
X019779Y002182D02*
X008377Y002182D01*
X008374Y002176D02*
X008463Y002390D01*
X008463Y003420D01*
X008374Y003634D01*
X008211Y003797D01*
X007998Y003885D01*
X007767Y003885D01*
X007554Y003797D01*
X007391Y003634D01*
X007303Y003420D01*
X007303Y002390D01*
X007391Y002176D01*
X007554Y002013D01*
X007767Y001925D01*
X007998Y001925D01*
X008211Y002013D01*
X008374Y002176D01*
X008442Y002341D02*
X009182Y002341D01*
X009042Y002499D02*
X008463Y002499D01*
X008463Y002658D02*
X008976Y002658D01*
X008970Y002816D02*
X008463Y002816D01*
X008463Y002975D02*
X009006Y002975D01*
X009096Y003133D02*
X008463Y003133D01*
X008463Y003292D02*
X009318Y003292D01*
X009723Y003292D02*
X010318Y003292D01*
X010096Y003133D02*
X009945Y003133D01*
X010723Y003292D02*
X011120Y003292D01*
X011096Y003133D02*
X010945Y003133D01*
X010961Y003450D02*
X008450Y003450D01*
X008385Y003609D02*
X010803Y003609D01*
X010644Y003767D02*
X008241Y003767D01*
X007524Y003767D02*
X005793Y003767D01*
X005824Y003751D02*
X005743Y003793D01*
X005656Y003821D01*
X005566Y003835D01*
X005520Y003835D01*
X005475Y003835D01*
X005385Y003821D01*
X005298Y003793D01*
X005216Y003751D01*
X005143Y003697D01*
X005078Y003633D01*
X005024Y003559D01*
X004983Y003478D01*
X004955Y003391D01*
X004940Y003301D01*
X004940Y002905D01*
X004940Y002509D01*
X004955Y002419D01*
X004983Y002332D01*
X005024Y002251D01*
X005078Y002177D01*
X005143Y002113D01*
X005216Y002059D01*
X005298Y002017D01*
X005385Y001989D01*
X005475Y001975D01*
X005520Y001975D01*
X005520Y002905D01*
X004940Y002905D01*
X005520Y002905D01*
X005520Y002905D01*
X005520Y003835D01*
X005520Y002905D01*
X005520Y002905D01*
X005520Y002905D01*
X005520Y001975D01*
X005566Y001975D01*
X005656Y001989D01*
X005743Y002017D01*
X005824Y002059D01*
X005898Y002113D01*
X005963Y002177D01*
X006017Y002251D01*
X006058Y002332D01*
X006086Y002419D01*
X006100Y002509D01*
X006100Y002905D01*
X006100Y003301D01*
X006086Y003391D01*
X006058Y003478D01*
X006017Y003559D01*
X005963Y003633D01*
X005898Y003697D01*
X005824Y003751D01*
X005981Y003609D02*
X007381Y003609D01*
X007315Y003450D02*
X006067Y003450D01*
X006100Y003292D02*
X007303Y003292D01*
X007303Y003133D02*
X006100Y003133D01*
X006100Y002975D02*
X007303Y002975D01*
X007303Y002816D02*
X006100Y002816D01*
X006100Y002905D02*
X005520Y002905D01*
X006100Y002905D01*
X006100Y002658D02*
X007303Y002658D01*
X007303Y002499D02*
X006099Y002499D01*
X006061Y002341D02*
X007323Y002341D01*
X007389Y002182D02*
X005966Y002182D01*
X005755Y002024D02*
X007544Y002024D01*
X008221Y002024D02*
X019938Y002024D01*
X019917Y002044D02*
X019917Y002044D01*
X018182Y002341D02*
X017859Y002341D01*
X017999Y002499D02*
X018042Y002499D01*
X017182Y002341D02*
X016859Y002341D01*
X016999Y002499D02*
X017042Y002499D01*
X016182Y002341D02*
X015859Y002341D01*
X015999Y002499D02*
X016042Y002499D01*
X015182Y002341D02*
X014859Y002341D01*
X014999Y002499D02*
X015042Y002499D01*
X014182Y002341D02*
X013859Y002341D01*
X013999Y002499D02*
X014042Y002499D01*
X013182Y002341D02*
X012859Y002341D01*
X012999Y002499D02*
X013042Y002499D01*
X012182Y002341D02*
X011859Y002341D01*
X011999Y002499D02*
X012042Y002499D01*
X011182Y002341D02*
X010859Y002341D01*
X010999Y002499D02*
X011042Y002499D01*
X010182Y002341D02*
X009859Y002341D01*
X009999Y002499D02*
X010042Y002499D01*
X005520Y002499D02*
X005520Y002499D01*
X005520Y002341D02*
X005520Y002341D01*
X005520Y002182D02*
X005520Y002182D01*
X005520Y002024D02*
X005520Y002024D01*
X005286Y002024D02*
X002800Y002024D01*
X002800Y002182D02*
X005075Y002182D01*
X004980Y002341D02*
X002800Y002341D01*
X002800Y002499D02*
X004942Y002499D01*
X004940Y002658D02*
X002800Y002658D01*
X002800Y002816D02*
X004940Y002816D01*
X004940Y002975D02*
X002800Y002975D01*
X002800Y003133D02*
X004940Y003133D01*
X004940Y003292D02*
X002800Y003292D01*
X002800Y003450D02*
X004974Y003450D01*
X005060Y003609D02*
X002800Y003609D01*
X002800Y003767D02*
X005248Y003767D01*
X005520Y003767D02*
X005520Y003767D01*
X005520Y003609D02*
X005520Y003609D01*
X005520Y003450D02*
X005520Y003450D01*
X005520Y003292D02*
X005520Y003292D01*
X005520Y003133D02*
X005520Y003133D01*
X005520Y002975D02*
X005520Y002975D01*
X005520Y002905D02*
X005520Y002905D01*
X005520Y002816D02*
X005520Y002816D01*
X005520Y002658D02*
X005520Y002658D01*
X002800Y003926D02*
X010346Y003926D01*
X010146Y004084D02*
X002800Y004084D01*
X002800Y004243D02*
X010095Y004243D01*
X010115Y004401D02*
X002800Y004401D01*
X010971Y005669D02*
X011653Y005669D01*
X011129Y005511D02*
X015648Y005511D01*
X015647Y005352D02*
X011288Y005352D01*
X011446Y005194D02*
X015727Y005194D01*
X031011Y001707D02*
X034230Y001707D01*
X034573Y001707D02*
X034668Y001707D01*
X034668Y001865D02*
X034573Y001865D01*
X034573Y002024D02*
X034668Y002024D01*
X034008Y002132D02*
X034008Y002132D01*
X035145Y002499D02*
X036798Y002499D01*
X037323Y002182D02*
X037418Y002182D01*
X037418Y002024D02*
X037323Y002024D01*
X037323Y001865D02*
X037418Y001865D01*
X037822Y001865D02*
X040919Y001865D01*
X040814Y002024D02*
X037927Y002024D01*
X037975Y002182D02*
X040766Y002182D01*
X040758Y002232D02*
X040758Y002232D01*
X040760Y002341D02*
X037981Y002341D01*
X037983Y002328D02*
X037983Y002328D01*
X037943Y002499D02*
X040798Y002499D01*
X041323Y002182D02*
X041418Y002182D01*
X041418Y002024D02*
X041323Y002024D01*
X041323Y001865D02*
X041418Y001865D01*
D18*
X007095Y011005D03*
X006595Y011005D03*
X006095Y011005D03*
X005595Y011005D03*
X005095Y011005D03*
X004595Y011005D03*
X004095Y011005D03*
X003595Y011005D03*
X003595Y011505D03*
X003595Y012005D03*
X003595Y012505D03*
X003595Y013005D03*
X003595Y013505D03*
X003595Y014005D03*
X004095Y014005D03*
X004595Y014005D03*
X005095Y014005D03*
X005595Y014005D03*
X006095Y014005D03*
X006595Y014005D03*
X007095Y014005D03*
X007095Y013505D03*
X007095Y013005D03*
X007095Y012505D03*
X007095Y012005D03*
X007095Y011505D03*
D19*
X005520Y002905D02*
X005520Y002177D01*
X006721Y000976D01*
X006917Y000780D01*
X034620Y000780D01*
X037370Y000780D01*
X041370Y000780D01*
X058145Y000780D01*
X062220Y004855D01*
X062220Y005980D01*
X062020Y006280D01*
X061020Y006280D01*
D20*
X061720Y006830D02*
X051020Y006830D01*
X050620Y007230D01*
X049670Y007230D01*
X049120Y007230D02*
X030520Y007230D01*
X030170Y006880D01*
X016870Y006880D01*
X016520Y007230D01*
X016370Y006280D02*
X016420Y006230D01*
X024320Y006230D01*
X024120Y005880D02*
X024170Y005830D01*
X029470Y005830D01*
X030470Y006830D01*
X050670Y006830D01*
X051070Y006430D01*
X051670Y006430D01*
X052020Y007630D02*
X052020Y009480D01*
X051770Y010280D02*
X051170Y009680D01*
X044370Y009680D01*
X043770Y010280D02*
X043320Y009830D01*
X038070Y009830D01*
X038020Y009880D01*
X037570Y009880D01*
X037520Y009830D01*
X036770Y009830D01*
X036320Y010280D01*
X036270Y010280D01*
X035820Y009830D01*
X028320Y009830D01*
X028770Y010280D01*
X028320Y009830D02*
X024870Y009830D01*
X024770Y009730D01*
X025570Y010280D02*
X023320Y010280D01*
X022770Y010680D02*
X026670Y010680D01*
X027770Y010280D02*
X028220Y010730D01*
X034820Y010730D01*
X034820Y010680D01*
X034870Y010680D01*
X035270Y010280D01*
X035320Y010280D01*
X035770Y010730D01*
X042770Y010730D01*
X042770Y010280D01*
X043420Y009280D02*
X044220Y010080D01*
X044570Y010080D01*
X044770Y010280D01*
X042770Y010730D02*
X050320Y010730D01*
X050770Y010280D01*
X051770Y010280D02*
X051820Y010280D01*
X054070Y008030D01*
X059270Y008030D01*
X060670Y007630D02*
X052020Y007630D01*
X043420Y007630D01*
X043020Y008030D01*
X027120Y008030D01*
X026970Y008430D02*
X026170Y007630D01*
X025120Y007630D01*
X024770Y007280D01*
X024020Y007680D02*
X021020Y007680D01*
X020770Y007930D01*
X020770Y010980D01*
X020920Y010980D01*
X020120Y011230D02*
X020120Y013430D01*
X019870Y013430D01*
X019520Y013780D01*
X020520Y013780D02*
X020520Y008280D01*
X019520Y007280D01*
X021320Y008080D02*
X023870Y008080D01*
X024020Y007680D02*
X024770Y008430D01*
X025870Y008430D01*
X026170Y008680D02*
X033920Y008680D01*
X034070Y008830D01*
X042920Y008830D01*
X043370Y009280D01*
X043420Y009280D01*
X041620Y008430D02*
X026970Y008430D01*
X026170Y008680D02*
X026020Y008830D01*
X023670Y008830D01*
X023470Y008630D01*
X023070Y008630D01*
X023520Y009030D02*
X021920Y009030D01*
X022320Y009330D02*
X022220Y009430D01*
X022320Y009330D02*
X033670Y009330D01*
X033370Y009080D02*
X033520Y008930D01*
X033820Y008930D01*
X033970Y009080D01*
X037320Y009080D01*
X037720Y009480D01*
X033370Y009080D02*
X023570Y009080D01*
X023520Y009030D01*
X021920Y009830D02*
X022770Y010680D01*
X022820Y011280D02*
X021870Y010330D01*
X020120Y010330D02*
X013220Y010330D01*
X013120Y010230D01*
X012520Y009830D02*
X020120Y009830D01*
X019820Y009430D02*
X013220Y009430D01*
X012720Y009030D02*
X020120Y009030D01*
X019895Y008530D02*
X011895Y008530D01*
X011395Y008030D01*
X010270Y008030D01*
X009520Y008780D01*
X009520Y011280D01*
X008270Y012530D01*
X008270Y014030D01*
X010620Y008680D02*
X014520Y012580D01*
X015520Y013780D02*
X017945Y015405D01*
X055270Y015405D01*
X057520Y013155D01*
X057520Y008655D01*
X057395Y008530D01*
X055770Y008530D01*
X055645Y008405D01*
X055645Y009030D02*
X057270Y009030D01*
X057270Y012905D01*
X055145Y015030D01*
X018270Y015030D01*
X016520Y013780D01*
X017520Y013780D02*
X019070Y012230D01*
X020920Y011630D02*
X024570Y011630D01*
X025020Y012080D01*
X029470Y012080D01*
X029620Y011930D01*
X031570Y011930D01*
X031720Y011780D01*
X032020Y012030D02*
X038020Y012030D01*
X038770Y011280D01*
X037220Y012430D02*
X037070Y012580D01*
X022720Y012580D01*
X024270Y012030D02*
X024620Y012030D01*
X024920Y012330D01*
X031720Y012330D01*
X032020Y012030D01*
X030270Y011280D02*
X029920Y011280D01*
X029470Y011730D01*
X027720Y011730D01*
X027670Y011680D01*
X028270Y011280D02*
X022820Y011280D01*
X020920Y012980D02*
X025570Y012980D01*
X026220Y012880D02*
X025320Y013780D01*
X024520Y013780D01*
X023520Y013780D02*
X023520Y014430D01*
X023870Y014780D01*
X027570Y014780D01*
X028270Y014080D01*
X028270Y013380D02*
X030020Y013380D01*
X030520Y012880D01*
X052670Y012880D01*
X054270Y011280D01*
X055020Y010280D02*
X055770Y011030D01*
X055020Y010280D02*
X053770Y010280D01*
X052270Y011280D02*
X051820Y011730D01*
X044720Y011730D01*
X044270Y011280D01*
X042870Y007630D02*
X029020Y007630D01*
X025570Y008030D02*
X025420Y007880D01*
X024770Y007880D01*
X030620Y006180D02*
X034620Y006180D01*
X034720Y006280D01*
X032620Y004180D02*
X031320Y005480D01*
X020620Y005480D01*
X024120Y005880D02*
X011770Y005880D01*
X011020Y006630D01*
X009020Y007280D02*
X009020Y010280D01*
X008770Y010530D01*
X011720Y009030D02*
X012520Y009830D01*
X009020Y007280D02*
X011770Y004530D01*
X026020Y004530D01*
X026470Y005080D02*
X016370Y005080D01*
X016020Y005430D01*
X011420Y003330D02*
X010470Y004280D01*
X011420Y003330D02*
X019970Y003330D01*
X020520Y002780D01*
X020120Y002180D02*
X019520Y002780D01*
X020120Y002180D02*
X022020Y002180D01*
X022520Y002780D02*
X023120Y002180D01*
X030620Y002180D01*
X029995Y002730D02*
X025570Y002730D01*
X024520Y003780D01*
X028895Y003155D02*
X038245Y003155D01*
X039370Y004280D01*
X039620Y004830D02*
X039070Y004830D01*
X037770Y003530D01*
X029270Y003530D01*
X029995Y002730D02*
X030095Y002830D01*
X041620Y002830D01*
X041870Y002580D01*
X044220Y002580D01*
X044570Y002930D01*
X048420Y002930D01*
X048570Y003080D01*
X048580Y003100D01*
X054670Y003630D02*
X040770Y003630D01*
X040770Y003680D01*
X039620Y004830D01*
X043620Y005080D02*
X043660Y005060D01*
X043670Y005080D01*
X048570Y005080D01*
X048580Y005060D01*
X054670Y003630D02*
X055170Y003130D01*
X055180Y003100D01*
X061720Y006830D02*
X061720Y007580D01*
X061020Y008280D01*
X060670Y007630D02*
X061020Y007280D01*
X041370Y002280D02*
X041370Y000780D01*
X037370Y000780D02*
X037370Y002280D01*
X034620Y002180D02*
X034620Y000780D01*
X004120Y010980D02*
X004095Y011005D01*
X024020Y014380D02*
X025570Y014380D01*
X026220Y012880D02*
X029770Y012880D01*
X029870Y012980D01*
D21*
X029870Y012980D03*
X028270Y013380D03*
X028270Y014080D03*
X025570Y014380D03*
X024020Y014380D03*
X025570Y012980D03*
X022720Y012580D03*
X024270Y012030D03*
X020920Y011630D03*
X020120Y011230D03*
X020920Y010980D03*
X020120Y010330D03*
X021870Y010330D03*
X021920Y009830D03*
X022220Y009430D03*
X021920Y009030D03*
X023070Y008630D03*
X023870Y008080D03*
X024770Y007880D03*
X025570Y008030D03*
X025870Y008430D03*
X027120Y008030D03*
X029020Y007630D03*
X024770Y007280D03*
X024320Y006230D03*
X026470Y005080D03*
X020620Y005480D03*
X016370Y006280D03*
X016020Y005430D03*
X011020Y006630D03*
X016520Y007230D03*
X021320Y008080D03*
X020120Y009030D03*
X019820Y009430D03*
X020120Y009830D03*
X023320Y010280D03*
X024770Y009730D03*
X025570Y010280D03*
X026670Y010680D03*
X027670Y011680D03*
X031720Y011780D03*
X037220Y012430D03*
X044370Y009680D03*
X041620Y008430D03*
X042870Y007630D03*
X037720Y009480D03*
X033670Y009330D03*
X020920Y012980D03*
X019070Y012230D03*
X014520Y012580D03*
X013120Y010230D03*
X013220Y009430D03*
X012720Y009030D03*
X011720Y009030D03*
X010620Y008680D03*
X010470Y004280D03*
X022020Y002180D03*
X049120Y007230D03*
X049670Y007230D03*
X051670Y006430D03*
X059270Y008030D03*
X052020Y009480D03*
X055770Y011030D03*
D22*
X055645Y009030D03*
X055645Y008405D03*
X029270Y003530D03*
X028895Y003155D03*
X026020Y004530D03*
X019520Y007280D03*
X019895Y008530D03*
X008770Y010530D03*
X008270Y014030D03*
D23*
X027611Y004119D03*
X057639Y004119D03*
M02*
