G75*
%MOIN*%
%OFA0B0*%
%FSLAX24Y24*%
%IPPOS*%
%LPD*%
%AMOC8*
5,1,8,0,0,1.08239X$1,22.5*
%
%ADD10C,0.0765*%
%ADD11C,0.0705*%
%ADD12R,0.0630X0.0709*%
%ADD13C,0.0554*%
%ADD14C,0.0700*%
%ADD15C,0.0800*%
%ADD16R,0.2441X0.2126*%
%ADD17R,0.0630X0.0394*%
%ADD18C,0.0520*%
%ADD19C,0.0740*%
%ADD20R,0.0472X0.0236*%
%ADD21R,0.0315X0.0472*%
%ADD22R,0.0512X0.0591*%
%ADD23R,0.0472X0.0315*%
%ADD24R,0.0860X0.0220*%
%ADD25R,0.0260X0.0800*%
%ADD26R,0.0120X0.0590*%
%ADD27R,0.0160X0.0590*%
%ADD28R,0.0140X0.0590*%
%ADD29C,0.0160*%
%ADD30C,0.0100*%
%ADD31C,0.0400*%
%ADD32C,0.0120*%
%ADD33C,0.0390*%
%ADD34C,0.0500*%
%ADD35C,0.0396*%
%ADD36C,0.2362*%
D10*
X028280Y002180D03*
X032280Y002180D03*
X035030Y002280D03*
X039030Y002280D03*
X037030Y004280D03*
X032280Y006180D03*
X035030Y006280D03*
X039030Y006280D03*
X030280Y004180D03*
X028280Y006180D03*
D11*
X040968Y005060D02*
X041673Y005060D01*
X045888Y005060D02*
X046593Y005060D01*
X047568Y005060D02*
X048273Y005060D01*
X052488Y005060D02*
X053193Y005060D01*
X053193Y003100D02*
X052488Y003100D01*
X048273Y003100D02*
X047568Y003100D01*
X046593Y003100D02*
X045888Y003100D01*
X041673Y003100D02*
X040968Y003100D01*
D12*
X002606Y007655D03*
X001504Y007655D03*
X001504Y012655D03*
X002606Y012655D03*
D13*
X025430Y010280D03*
X026430Y010280D03*
X027430Y010280D03*
X028430Y010280D03*
X027930Y011280D03*
X026930Y011280D03*
X025930Y011280D03*
X028930Y011280D03*
X032930Y010280D03*
X033930Y010280D03*
X034930Y010280D03*
X035930Y010280D03*
X035430Y011280D03*
X034430Y011280D03*
X033430Y011280D03*
X036430Y011280D03*
X040430Y010280D03*
X041430Y010280D03*
X042430Y010280D03*
X043430Y010280D03*
X042930Y011280D03*
X041930Y011280D03*
X040930Y011280D03*
X043930Y011280D03*
X048430Y010280D03*
X049430Y010280D03*
X050430Y010280D03*
X051430Y010280D03*
X050930Y011280D03*
X049930Y011280D03*
X048930Y011280D03*
X051930Y011280D03*
D14*
X004731Y003226D02*
X004031Y003226D01*
X003180Y004805D02*
X003180Y005505D01*
D15*
X005542Y005555D02*
X005542Y004755D01*
D16*
X004039Y010155D03*
D17*
X001165Y009257D03*
X001165Y011053D03*
D18*
X058420Y011280D02*
X058940Y011280D01*
X058940Y012280D02*
X058420Y012280D01*
X058420Y010280D02*
X058940Y010280D01*
X058940Y009280D02*
X058420Y009280D01*
X058420Y008280D02*
X058940Y008280D01*
X058940Y007280D02*
X058420Y007280D01*
X058420Y006280D02*
X058940Y006280D01*
X058940Y005280D02*
X058420Y005280D01*
D19*
X022180Y003780D03*
X021180Y003780D03*
X021180Y002780D03*
X020180Y002780D03*
X019180Y002780D03*
X018180Y002780D03*
X017180Y002780D03*
X016180Y002780D03*
X015180Y002780D03*
X014180Y002780D03*
X013180Y002780D03*
X012180Y002780D03*
X011180Y002780D03*
X010180Y002780D03*
X009180Y002780D03*
X008180Y002780D03*
X007180Y002780D03*
X022180Y002780D03*
X022180Y013780D03*
X021180Y013780D03*
X020180Y013780D03*
X019180Y013780D03*
X018180Y013780D03*
X017180Y013780D03*
X016180Y013780D03*
X015180Y013780D03*
X014180Y013780D03*
X013180Y013780D03*
X012180Y013780D03*
X011180Y013780D03*
X010180Y013780D03*
X009180Y013780D03*
X008180Y013780D03*
X007180Y013780D03*
D20*
X018666Y007154D03*
X018666Y006780D03*
X018666Y006406D03*
X019694Y006406D03*
X019694Y007154D03*
D21*
X017034Y008030D03*
X016326Y008030D03*
X018826Y004780D03*
X019534Y004780D03*
X020326Y004780D03*
X021034Y004780D03*
D22*
X015429Y006530D03*
X014681Y006530D03*
X020806Y007280D03*
X021554Y007280D03*
D23*
X054680Y014426D03*
X055680Y014426D03*
X056680Y014426D03*
X057680Y014426D03*
X058680Y014426D03*
X058680Y015134D03*
X057680Y015134D03*
X056680Y015134D03*
X055680Y015134D03*
X054680Y015134D03*
D24*
X054250Y012530D03*
X054250Y012030D03*
X054250Y011530D03*
X054250Y011030D03*
X056110Y011030D03*
X056110Y011530D03*
X056110Y012030D03*
X056110Y012530D03*
X056110Y009530D03*
X056110Y009030D03*
X056110Y008530D03*
X056110Y008030D03*
X054250Y008030D03*
X054250Y008530D03*
X054250Y009030D03*
X054250Y009530D03*
D25*
X013180Y008210D03*
X012680Y008210D03*
X012180Y008210D03*
X011680Y008210D03*
X011180Y008210D03*
X010680Y008210D03*
X010180Y008210D03*
X009680Y008210D03*
X009180Y008210D03*
X009180Y004350D03*
X009680Y004350D03*
X010180Y004350D03*
X010680Y004350D03*
X011180Y004350D03*
X011680Y004350D03*
X012180Y004350D03*
X012680Y004350D03*
X013180Y004350D03*
D26*
X016300Y004970D03*
X017060Y004970D03*
X017060Y006590D03*
X016810Y006590D03*
X016550Y006590D03*
X016300Y006590D03*
D27*
X016560Y004970D03*
D28*
X016800Y004970D03*
D29*
X000460Y000560D02*
X000460Y015551D01*
X008612Y015551D01*
X008044Y014983D01*
X007977Y014916D01*
X007940Y014828D01*
X007940Y014276D01*
X007868Y014246D01*
X007714Y014092D01*
X007680Y014010D01*
X007646Y014092D01*
X007492Y014246D01*
X007289Y014330D01*
X007071Y014330D01*
X006868Y014246D01*
X006714Y014092D01*
X006630Y013889D01*
X006630Y013671D01*
X006714Y013468D01*
X006868Y013314D01*
X007071Y013230D01*
X007289Y013230D01*
X007492Y013314D01*
X007646Y013468D01*
X007680Y013550D01*
X007714Y013468D01*
X007868Y013314D01*
X007940Y013284D01*
X007940Y013182D01*
X007977Y013094D01*
X008044Y013027D01*
X008132Y012990D01*
X009531Y012990D01*
X013690Y008831D01*
X013690Y008032D01*
X013727Y007944D01*
X013794Y007877D01*
X014077Y007593D01*
X013968Y007548D01*
X013862Y007442D01*
X013805Y007305D01*
X013805Y007155D01*
X013862Y007018D01*
X013910Y006970D01*
X013629Y006970D01*
X013120Y007479D01*
X013120Y007630D01*
X013385Y007630D01*
X013490Y007735D01*
X013490Y008685D01*
X013385Y008790D01*
X013220Y008790D01*
X013220Y008978D01*
X013183Y009066D01*
X011233Y011016D01*
X011166Y011083D01*
X011078Y011120D01*
X006185Y011120D01*
X006185Y011231D01*
X006127Y011370D01*
X006092Y011405D01*
X006127Y011440D01*
X006185Y011579D01*
X006185Y011731D01*
X006127Y011870D01*
X006020Y011977D01*
X005881Y012035D01*
X005729Y012035D01*
X005590Y011977D01*
X005483Y011870D01*
X005425Y011731D01*
X005425Y011579D01*
X005483Y011440D01*
X005518Y011405D01*
X005483Y011370D01*
X005464Y011325D01*
X005464Y011327D01*
X005438Y011365D01*
X005406Y011397D01*
X005369Y011422D01*
X005327Y011439D01*
X005282Y011448D01*
X004119Y011448D01*
X004119Y010235D01*
X003959Y010235D01*
X003959Y010075D01*
X002589Y010075D01*
X002589Y009069D01*
X002598Y009025D01*
X002615Y008983D01*
X002640Y008945D01*
X002672Y008913D01*
X002710Y008888D01*
X002752Y008871D01*
X002796Y008862D01*
X003959Y008862D01*
X003959Y010075D01*
X004119Y010075D01*
X004119Y008862D01*
X005282Y008862D01*
X005327Y008871D01*
X005369Y008888D01*
X005406Y008913D01*
X005438Y008945D01*
X005464Y008983D01*
X005464Y008985D01*
X005483Y008940D01*
X005518Y008905D01*
X005483Y008870D01*
X005425Y008731D01*
X005425Y008579D01*
X005483Y008440D01*
X005590Y008333D01*
X005729Y008275D01*
X005881Y008275D01*
X005940Y008300D01*
X005940Y006029D01*
X005914Y006003D01*
X005871Y006047D01*
X005658Y006135D01*
X005427Y006135D01*
X005214Y006047D01*
X005051Y005884D01*
X004962Y005670D01*
X004962Y004640D01*
X005051Y004426D01*
X005112Y004365D01*
X005112Y003665D01*
X005109Y003668D01*
X005035Y003722D01*
X004953Y003763D01*
X004867Y003792D01*
X004776Y003806D01*
X004381Y003806D01*
X004381Y003226D01*
X004381Y003226D01*
X004381Y003954D01*
X003180Y005155D01*
X003180Y007081D01*
X002606Y007655D01*
X002529Y007730D02*
X001999Y007730D01*
X002061Y007732D02*
X002529Y007732D01*
X002529Y007578D01*
X002061Y007578D01*
X002061Y007278D01*
X002070Y007234D01*
X002087Y007192D01*
X002113Y007154D01*
X002145Y007122D01*
X002182Y007097D01*
X002224Y007080D01*
X002269Y007071D01*
X002529Y007071D01*
X002529Y007578D01*
X002684Y007578D01*
X002684Y007732D01*
X003151Y007732D01*
X003151Y008032D01*
X003142Y008076D01*
X003125Y008118D01*
X003100Y008156D01*
X003068Y008188D01*
X003030Y008213D01*
X002988Y008230D01*
X002944Y008239D01*
X002684Y008239D01*
X002684Y007732D01*
X002529Y007732D01*
X002529Y008239D01*
X002269Y008239D01*
X002224Y008230D01*
X002182Y008213D01*
X002145Y008188D01*
X002113Y008156D01*
X002087Y008118D01*
X002070Y008076D01*
X002061Y008032D01*
X002061Y007732D01*
X002061Y007888D02*
X001999Y007888D01*
X001999Y008047D02*
X002064Y008047D01*
X002042Y008112D02*
X002148Y008218D01*
X002205Y008355D01*
X002205Y008505D01*
X002148Y008642D01*
X002042Y008748D01*
X001905Y008805D01*
X001755Y008805D01*
X001744Y008800D01*
X001744Y008967D01*
X001707Y009055D01*
X001660Y009102D01*
X001660Y009529D01*
X001555Y009634D01*
X000776Y009634D01*
X000670Y009529D01*
X000670Y008986D01*
X000776Y008881D01*
X001203Y008881D01*
X001264Y008819D01*
X001264Y008189D01*
X001114Y008189D01*
X001009Y008084D01*
X001009Y007226D01*
X001114Y007121D01*
X001893Y007121D01*
X001999Y007226D01*
X001999Y008084D01*
X001992Y008091D01*
X002042Y008112D01*
X002135Y008205D02*
X002170Y008205D01*
X002205Y008364D02*
X005559Y008364D01*
X005449Y008522D02*
X002198Y008522D01*
X002110Y008681D02*
X005425Y008681D01*
X005470Y008839D02*
X001744Y008839D01*
X001731Y008998D02*
X002609Y008998D01*
X002589Y009156D02*
X001660Y009156D01*
X001660Y009315D02*
X002589Y009315D01*
X002589Y009473D02*
X001660Y009473D01*
X001557Y009632D02*
X002589Y009632D01*
X002589Y009790D02*
X000460Y009790D01*
X000460Y009632D02*
X000773Y009632D01*
X000670Y009473D02*
X000460Y009473D01*
X000460Y009315D02*
X000670Y009315D01*
X000670Y009156D02*
X000460Y009156D01*
X000460Y008998D02*
X000670Y008998D01*
X000460Y008839D02*
X001244Y008839D01*
X001264Y008681D02*
X000460Y008681D01*
X000460Y008522D02*
X001264Y008522D01*
X001264Y008364D02*
X000460Y008364D01*
X000460Y008205D02*
X001264Y008205D01*
X001009Y008047D02*
X000460Y008047D01*
X000460Y007888D02*
X001009Y007888D01*
X001009Y007730D02*
X000460Y007730D01*
X000460Y007571D02*
X001009Y007571D01*
X001009Y007413D02*
X000460Y007413D01*
X000460Y007254D02*
X001009Y007254D01*
X000460Y007096D02*
X002185Y007096D01*
X002066Y007254D02*
X001999Y007254D01*
X001999Y007413D02*
X002061Y007413D01*
X002061Y007571D02*
X001999Y007571D01*
X002529Y007571D02*
X002684Y007571D01*
X002684Y007578D02*
X002684Y007071D01*
X002944Y007071D01*
X002988Y007080D01*
X003030Y007097D01*
X003068Y007122D01*
X003100Y007154D01*
X003125Y007192D01*
X003142Y007234D01*
X003151Y007278D01*
X003151Y007578D01*
X002684Y007578D01*
X002684Y007730D02*
X005940Y007730D01*
X005940Y007888D02*
X003151Y007888D01*
X003148Y008047D02*
X005940Y008047D01*
X005940Y008205D02*
X003042Y008205D01*
X002684Y008205D02*
X002529Y008205D01*
X002529Y008047D02*
X002684Y008047D01*
X002684Y007888D02*
X002529Y007888D01*
X002529Y007413D02*
X002684Y007413D01*
X002684Y007254D02*
X002529Y007254D01*
X002529Y007096D02*
X002684Y007096D01*
X003027Y007096D02*
X005940Y007096D01*
X005940Y007254D02*
X003146Y007254D01*
X003151Y007413D02*
X005940Y007413D01*
X005940Y007571D02*
X003151Y007571D01*
X000460Y006937D02*
X005940Y006937D01*
X005940Y006779D02*
X000460Y006779D01*
X000460Y006620D02*
X005940Y006620D01*
X005940Y006462D02*
X000460Y006462D01*
X000460Y006303D02*
X005940Y006303D01*
X005940Y006145D02*
X000460Y006145D01*
X000460Y005986D02*
X002855Y005986D01*
X002876Y006001D02*
X002802Y005947D01*
X002738Y005883D01*
X002684Y005809D01*
X002642Y005728D01*
X002614Y005641D01*
X002600Y005551D01*
X002600Y005155D01*
X003180Y005155D01*
X003180Y005155D01*
X003180Y006085D01*
X003226Y006085D01*
X003316Y006071D01*
X003403Y006043D01*
X003484Y006001D01*
X003558Y005947D01*
X003622Y005883D01*
X003676Y005809D01*
X003718Y005728D01*
X003746Y005641D01*
X003760Y005551D01*
X003760Y005155D01*
X003180Y005155D01*
X003180Y005155D01*
X003180Y005155D01*
X003180Y006085D01*
X003134Y006085D01*
X003044Y006071D01*
X002957Y006043D01*
X002876Y006001D01*
X002697Y005828D02*
X000460Y005828D01*
X000460Y005669D02*
X002623Y005669D01*
X002600Y005511D02*
X000460Y005511D01*
X000460Y005352D02*
X002600Y005352D01*
X002600Y005194D02*
X000460Y005194D01*
X000460Y005035D02*
X002600Y005035D01*
X002600Y005155D02*
X002600Y004759D01*
X002614Y004669D01*
X002642Y004582D01*
X002684Y004501D01*
X002738Y004427D01*
X002802Y004363D01*
X002876Y004309D01*
X002957Y004267D01*
X003044Y004239D01*
X003134Y004225D01*
X003180Y004225D01*
X003226Y004225D01*
X003316Y004239D01*
X003403Y004267D01*
X003484Y004309D01*
X003558Y004363D01*
X003622Y004427D01*
X003676Y004501D01*
X003718Y004582D01*
X003746Y004669D01*
X003760Y004759D01*
X003760Y005155D01*
X003180Y005155D01*
X003180Y004225D01*
X003180Y005155D01*
X003180Y005155D01*
X002600Y005155D01*
X002600Y004877D02*
X000460Y004877D01*
X000460Y004718D02*
X002607Y004718D01*
X002654Y004560D02*
X000460Y004560D01*
X000460Y004401D02*
X002764Y004401D01*
X003034Y004243D02*
X000460Y004243D01*
X000460Y004084D02*
X005112Y004084D01*
X005112Y003926D02*
X000460Y003926D01*
X000460Y003767D02*
X003819Y003767D01*
X003808Y003763D02*
X003727Y003722D01*
X003653Y003668D01*
X003588Y003604D01*
X003535Y003530D01*
X003493Y003449D01*
X003465Y003362D01*
X003451Y003272D01*
X003451Y003226D01*
X004381Y003226D01*
X004381Y003806D01*
X003985Y003806D01*
X003895Y003792D01*
X003808Y003763D01*
X003593Y003609D02*
X000460Y003609D01*
X000460Y003450D02*
X003494Y003450D01*
X003454Y003292D02*
X000460Y003292D01*
X000460Y003133D02*
X003458Y003133D01*
X003465Y003090D02*
X003451Y003180D01*
X003451Y003226D01*
X004381Y003226D01*
X004381Y002646D01*
X004776Y002646D01*
X004867Y002660D01*
X004953Y002688D01*
X005035Y002730D01*
X005109Y002783D01*
X005112Y002787D01*
X005112Y001707D01*
X005178Y001549D01*
X006167Y000560D01*
X000460Y000560D01*
X000460Y000597D02*
X006130Y000597D01*
X005971Y000756D02*
X000460Y000756D01*
X000460Y000914D02*
X005813Y000914D01*
X005654Y001073D02*
X000460Y001073D01*
X000460Y001231D02*
X005496Y001231D01*
X005337Y001390D02*
X000460Y001390D01*
X000460Y001548D02*
X005179Y001548D01*
X005113Y001707D02*
X000460Y001707D01*
X000460Y001865D02*
X005112Y001865D01*
X005112Y002024D02*
X000460Y002024D01*
X000460Y002182D02*
X005112Y002182D01*
X005112Y002341D02*
X000460Y002341D01*
X000460Y002499D02*
X005112Y002499D01*
X005112Y002658D02*
X004850Y002658D01*
X004381Y002658D02*
X004381Y002658D01*
X004381Y002646D02*
X004381Y003226D01*
X004381Y003226D01*
X004381Y003226D01*
X004381Y003292D02*
X004381Y003292D01*
X004381Y003450D02*
X004381Y003450D01*
X004381Y003609D02*
X004381Y003609D01*
X004381Y003767D02*
X004381Y003767D01*
X004942Y003767D02*
X005112Y003767D01*
X005112Y004243D02*
X003326Y004243D01*
X003180Y004243D02*
X003180Y004243D01*
X003180Y004401D02*
X003180Y004401D01*
X003180Y004560D02*
X003180Y004560D01*
X003180Y004718D02*
X003180Y004718D01*
X003180Y004877D02*
X003180Y004877D01*
X003180Y005035D02*
X003180Y005035D01*
X003180Y005194D02*
X003180Y005194D01*
X003180Y005352D02*
X003180Y005352D01*
X003180Y005511D02*
X003180Y005511D01*
X003180Y005669D02*
X003180Y005669D01*
X003180Y005828D02*
X003180Y005828D01*
X003180Y005986D02*
X003180Y005986D01*
X003505Y005986D02*
X005153Y005986D01*
X005027Y005828D02*
X003663Y005828D01*
X003737Y005669D02*
X004962Y005669D01*
X004962Y005511D02*
X003760Y005511D01*
X003760Y005352D02*
X004962Y005352D01*
X004962Y005194D02*
X003760Y005194D01*
X003760Y005035D02*
X004962Y005035D01*
X004962Y004877D02*
X003760Y004877D01*
X003753Y004718D02*
X004962Y004718D01*
X004995Y004560D02*
X003706Y004560D01*
X003596Y004401D02*
X005076Y004401D01*
X008370Y004570D02*
X008370Y007410D01*
X008468Y007312D01*
X008605Y007255D01*
X008755Y007255D01*
X008892Y007312D01*
X008998Y007418D01*
X009055Y007555D01*
X009055Y007630D01*
X009385Y007630D01*
X009430Y007675D01*
X009475Y007630D01*
X009885Y007630D01*
X009930Y007675D01*
X009975Y007630D01*
X010385Y007630D01*
X010430Y007675D01*
X010475Y007630D01*
X010885Y007630D01*
X010930Y007675D01*
X010975Y007630D01*
X011162Y007630D01*
X011177Y007594D01*
X013305Y005466D01*
X013305Y005355D01*
X013362Y005218D01*
X013468Y005112D01*
X013605Y005055D01*
X013755Y005055D01*
X013892Y005112D01*
X013998Y005218D01*
X014055Y005355D01*
X014055Y005505D01*
X013998Y005642D01*
X013892Y005748D01*
X013755Y005805D01*
X013644Y005805D01*
X013409Y006040D01*
X013740Y006040D01*
X013818Y005962D01*
X013955Y005905D01*
X014105Y005905D01*
X014242Y005962D01*
X014313Y006033D01*
X014316Y006031D01*
X014358Y006014D01*
X014402Y006005D01*
X014633Y006005D01*
X014633Y006482D01*
X014729Y006482D01*
X014729Y006005D01*
X014960Y006005D01*
X015004Y006014D01*
X015046Y006031D01*
X015084Y006056D01*
X015090Y006063D01*
X015099Y006055D01*
X015759Y006055D01*
X015865Y006160D01*
X015865Y006290D01*
X016060Y006290D01*
X016060Y006220D01*
X016165Y006115D01*
X016345Y006115D01*
X016381Y006091D01*
X016423Y006074D01*
X016467Y006065D01*
X016550Y006065D01*
X016633Y006065D01*
X016677Y006074D01*
X016719Y006091D01*
X016755Y006115D01*
X017195Y006115D01*
X017300Y006220D01*
X017300Y006811D01*
X017383Y006894D01*
X017420Y006982D01*
X017420Y006985D01*
X017440Y007005D01*
X017440Y006732D01*
X017477Y006644D01*
X017852Y006269D01*
X017919Y006202D01*
X018007Y006165D01*
X018298Y006165D01*
X018355Y006108D01*
X018977Y006108D01*
X019082Y006213D01*
X019082Y006517D01*
X019106Y006553D01*
X019123Y006595D01*
X019132Y006639D01*
X019132Y006739D01*
X019227Y006644D01*
X019278Y006593D01*
X019278Y006213D01*
X019383Y006108D01*
X019454Y006108D01*
X019454Y005196D01*
X019302Y005196D01*
X019200Y005094D01*
X019187Y005125D01*
X019162Y005163D01*
X019130Y005195D01*
X019092Y005220D01*
X019050Y005237D01*
X019006Y005246D01*
X018826Y005246D01*
X018826Y004780D01*
X019197Y004780D01*
X018826Y004780D01*
X018826Y004780D01*
X018826Y004780D01*
X018826Y004314D01*
X019006Y004314D01*
X019050Y004323D01*
X019092Y004340D01*
X019130Y004365D01*
X019162Y004397D01*
X019187Y004435D01*
X019200Y004466D01*
X019302Y004364D01*
X019766Y004364D01*
X019872Y004469D01*
X019872Y004540D01*
X019988Y004540D01*
X019988Y004469D01*
X020094Y004364D01*
X020558Y004364D01*
X020663Y004469D01*
X020663Y005091D01*
X020558Y005196D01*
X020094Y005196D01*
X019988Y005091D01*
X019988Y005020D01*
X019934Y005020D01*
X019934Y006108D01*
X020005Y006108D01*
X020110Y006213D01*
X020110Y006510D01*
X020815Y005806D01*
X020815Y005196D01*
X020802Y005196D01*
X020697Y005091D01*
X020697Y004469D01*
X020738Y004428D01*
X020427Y004116D01*
X020390Y004028D01*
X020390Y003932D01*
X020390Y003343D01*
X020320Y003365D01*
X020227Y003380D01*
X020200Y003380D01*
X020200Y002800D01*
X020160Y002800D01*
X020160Y003380D01*
X020133Y003380D01*
X020039Y003365D01*
X019950Y003336D01*
X019866Y003293D01*
X019789Y003238D01*
X019722Y003171D01*
X019667Y003094D01*
X019655Y003071D01*
X019646Y003092D01*
X019492Y003246D01*
X019289Y003330D01*
X019071Y003330D01*
X018868Y003246D01*
X018714Y003092D01*
X018680Y003010D01*
X018646Y003092D01*
X018520Y003218D01*
X018520Y004367D01*
X018522Y004365D01*
X018559Y004340D01*
X018601Y004323D01*
X018646Y004314D01*
X018826Y004314D01*
X018826Y004780D01*
X018826Y004780D01*
X018826Y005246D01*
X018646Y005246D01*
X018601Y005237D01*
X018559Y005220D01*
X018533Y005202D01*
X018598Y005268D01*
X018655Y005405D01*
X018655Y005555D01*
X018598Y005692D01*
X018492Y005798D01*
X018355Y005855D01*
X018205Y005855D01*
X018068Y005798D01*
X017962Y005692D01*
X017905Y005555D01*
X017905Y005405D01*
X017962Y005268D01*
X018040Y005190D01*
X018040Y003317D01*
X017868Y003246D01*
X017714Y003092D01*
X017680Y003010D01*
X017646Y003092D01*
X017492Y003246D01*
X017289Y003330D01*
X017071Y003330D01*
X016868Y003246D01*
X016714Y003092D01*
X016680Y003010D01*
X016646Y003092D01*
X016492Y003246D01*
X016420Y003276D01*
X016420Y003431D01*
X016941Y003952D01*
X017008Y004019D01*
X017045Y004107D01*
X017045Y004445D01*
X017060Y004445D01*
X017143Y004445D01*
X017187Y004454D01*
X017229Y004471D01*
X017267Y004496D01*
X017299Y004528D01*
X017324Y004566D01*
X017341Y004608D01*
X017350Y004652D01*
X017350Y004970D01*
X017350Y005288D01*
X017341Y005332D01*
X017324Y005374D01*
X017299Y005412D01*
X017267Y005444D01*
X017229Y005469D01*
X017187Y005486D01*
X017143Y005495D01*
X017060Y005495D01*
X017060Y004970D01*
X017060Y004970D01*
X017350Y004970D01*
X017060Y004970D01*
X017060Y004970D01*
X017060Y005495D01*
X016977Y005495D01*
X016933Y005486D01*
X016891Y005469D01*
X016855Y005445D01*
X016505Y005445D01*
X016469Y005469D01*
X016427Y005486D01*
X016383Y005495D01*
X016300Y005495D01*
X016300Y005340D01*
X016300Y005340D01*
X016300Y004970D01*
X016300Y004970D01*
X016300Y004970D01*
X016010Y004970D01*
X016010Y005288D01*
X016019Y005332D01*
X016036Y005374D01*
X016061Y005412D01*
X016093Y005444D01*
X016131Y005469D01*
X016173Y005486D01*
X016217Y005495D01*
X016300Y005495D01*
X016300Y004970D01*
X016010Y004970D01*
X016010Y004652D01*
X016019Y004608D01*
X016036Y004566D01*
X016061Y004528D01*
X016093Y004496D01*
X016131Y004471D01*
X016173Y004454D01*
X016217Y004445D01*
X016256Y004445D01*
X015141Y003330D01*
X015071Y003330D01*
X014868Y003246D01*
X014714Y003092D01*
X014680Y003010D01*
X014646Y003092D01*
X014492Y003246D01*
X014289Y003330D01*
X014071Y003330D01*
X013999Y003300D01*
X013566Y003733D01*
X013478Y003770D01*
X013455Y003770D01*
X013457Y003771D01*
X013489Y003803D01*
X013514Y003841D01*
X013531Y003883D01*
X013540Y003927D01*
X013540Y004350D01*
X013540Y004773D01*
X013531Y004817D01*
X013514Y004859D01*
X013489Y004897D01*
X013457Y004929D01*
X013419Y004954D01*
X013377Y004971D01*
X013333Y004980D01*
X013180Y004980D01*
X013180Y004350D01*
X013180Y004350D01*
X013540Y004350D01*
X013180Y004350D01*
X013180Y004350D01*
X013180Y004980D01*
X013027Y004980D01*
X012983Y004971D01*
X012941Y004954D01*
X012903Y004929D01*
X012895Y004920D01*
X012885Y004930D01*
X012475Y004930D01*
X012430Y004885D01*
X012385Y004930D01*
X011975Y004930D01*
X011930Y004885D01*
X011885Y004930D01*
X011475Y004930D01*
X011430Y004885D01*
X011385Y004930D01*
X010975Y004930D01*
X010930Y004885D01*
X010885Y004930D01*
X010475Y004930D01*
X010430Y004885D01*
X010385Y004930D01*
X009975Y004930D01*
X009930Y004885D01*
X009885Y004930D01*
X009475Y004930D01*
X009430Y004885D01*
X009385Y004930D01*
X008975Y004930D01*
X008870Y004825D01*
X008870Y004590D01*
X008702Y004590D01*
X008614Y004553D01*
X008479Y004418D01*
X008448Y004492D01*
X008370Y004570D01*
X008381Y004560D02*
X008629Y004560D01*
X008870Y004718D02*
X008370Y004718D01*
X008370Y004877D02*
X008922Y004877D01*
X008370Y005035D02*
X016010Y005035D01*
X016010Y004877D02*
X013502Y004877D01*
X013540Y004718D02*
X016010Y004718D01*
X016041Y004560D02*
X013540Y004560D01*
X013540Y004401D02*
X016212Y004401D01*
X016053Y004243D02*
X013540Y004243D01*
X013540Y004084D02*
X015895Y004084D01*
X015736Y003926D02*
X013540Y003926D01*
X013485Y003767D02*
X015578Y003767D01*
X015419Y003609D02*
X013691Y003609D01*
X013849Y003450D02*
X015261Y003450D01*
X014978Y003292D02*
X014382Y003292D01*
X014605Y003133D02*
X014755Y003133D01*
X016420Y003292D02*
X016978Y003292D01*
X016755Y003133D02*
X016605Y003133D01*
X016439Y003450D02*
X018040Y003450D01*
X018040Y003609D02*
X016598Y003609D01*
X016756Y003767D02*
X018040Y003767D01*
X018040Y003926D02*
X016915Y003926D01*
X017035Y004084D02*
X018040Y004084D01*
X018040Y004243D02*
X017045Y004243D01*
X017045Y004401D02*
X018040Y004401D01*
X018040Y004560D02*
X017319Y004560D01*
X017350Y004718D02*
X018040Y004718D01*
X018040Y004877D02*
X017350Y004877D01*
X017350Y005035D02*
X018040Y005035D01*
X018036Y005194D02*
X017350Y005194D01*
X017333Y005352D02*
X017927Y005352D01*
X017905Y005511D02*
X014053Y005511D01*
X014054Y005352D02*
X016027Y005352D01*
X016010Y005194D02*
X013974Y005194D01*
X013386Y005194D02*
X008370Y005194D01*
X008370Y005352D02*
X013306Y005352D01*
X013260Y005511D02*
X008370Y005511D01*
X008370Y005669D02*
X013102Y005669D01*
X012943Y005828D02*
X008370Y005828D01*
X008370Y005986D02*
X012785Y005986D01*
X012626Y006145D02*
X008370Y006145D01*
X008370Y006303D02*
X012468Y006303D01*
X012309Y006462D02*
X008370Y006462D01*
X008370Y006620D02*
X012151Y006620D01*
X011992Y006779D02*
X008370Y006779D01*
X008370Y006937D02*
X011834Y006937D01*
X011675Y007096D02*
X008370Y007096D01*
X008370Y007254D02*
X011517Y007254D01*
X011358Y007413D02*
X008993Y007413D01*
X009055Y007571D02*
X011200Y007571D01*
X013120Y007571D02*
X014023Y007571D01*
X013941Y007730D02*
X013484Y007730D01*
X013490Y007888D02*
X013783Y007888D01*
X013690Y008047D02*
X013490Y008047D01*
X013490Y008205D02*
X013690Y008205D01*
X013690Y008364D02*
X013490Y008364D01*
X013490Y008522D02*
X013690Y008522D01*
X013690Y008681D02*
X013490Y008681D01*
X013682Y008839D02*
X013220Y008839D01*
X013212Y008998D02*
X013523Y008998D01*
X013365Y009156D02*
X013093Y009156D01*
X013206Y009315D02*
X012935Y009315D01*
X013048Y009473D02*
X012776Y009473D01*
X012889Y009632D02*
X012618Y009632D01*
X012731Y009790D02*
X012459Y009790D01*
X012572Y009949D02*
X012301Y009949D01*
X012414Y010107D02*
X012142Y010107D01*
X012255Y010266D02*
X011984Y010266D01*
X012097Y010424D02*
X011825Y010424D01*
X011938Y010583D02*
X011667Y010583D01*
X011780Y010741D02*
X011508Y010741D01*
X011621Y010900D02*
X011350Y010900D01*
X011463Y011058D02*
X011191Y011058D01*
X011304Y011217D02*
X006185Y011217D01*
X006122Y011375D02*
X011146Y011375D01*
X010987Y011534D02*
X006166Y011534D01*
X006185Y011692D02*
X010829Y011692D01*
X010670Y011851D02*
X006135Y011851D01*
X005943Y012009D02*
X010512Y012009D01*
X010353Y012168D02*
X003109Y012168D01*
X003100Y012154D02*
X003125Y012192D01*
X003142Y012234D01*
X003151Y012278D01*
X003151Y012578D01*
X002684Y012578D01*
X002684Y012732D01*
X003151Y012732D01*
X003151Y013032D01*
X003142Y013076D01*
X003125Y013118D01*
X003100Y013156D01*
X003068Y013188D01*
X003030Y013213D01*
X002988Y013230D01*
X002944Y013239D01*
X002684Y013239D01*
X002684Y012732D01*
X002529Y012732D01*
X002529Y012578D01*
X002061Y012578D01*
X002061Y012278D01*
X002070Y012234D01*
X002087Y012192D01*
X002113Y012154D01*
X002145Y012122D01*
X002182Y012097D01*
X002224Y012080D01*
X002269Y012071D01*
X002529Y012071D01*
X002529Y012578D01*
X002684Y012578D01*
X002684Y012071D01*
X002944Y012071D01*
X002988Y012080D01*
X003030Y012097D01*
X003068Y012122D01*
X003100Y012154D01*
X003151Y012326D02*
X010195Y012326D01*
X010036Y012485D02*
X003151Y012485D01*
X003151Y012802D02*
X009719Y012802D01*
X009561Y012960D02*
X003151Y012960D01*
X003125Y013119D02*
X007966Y013119D01*
X007940Y013277D02*
X007403Y013277D01*
X007613Y013436D02*
X007747Y013436D01*
X006957Y013277D02*
X001249Y013277D01*
X001337Y013189D02*
X001140Y013387D01*
X001140Y013405D01*
X001201Y013466D01*
X001258Y013605D01*
X001258Y013755D01*
X001201Y013894D01*
X001094Y014001D01*
X000955Y014058D01*
X000805Y014058D01*
X000666Y014001D01*
X000559Y013894D01*
X000502Y013755D01*
X000502Y013605D01*
X000559Y013466D01*
X000620Y013405D01*
X000620Y013227D01*
X000660Y013132D01*
X001009Y012782D01*
X001009Y012226D01*
X001114Y012121D01*
X001264Y012121D01*
X001264Y011491D01*
X001203Y011429D01*
X000776Y011429D01*
X000670Y011324D01*
X000670Y010781D01*
X000776Y010676D01*
X001555Y010676D01*
X001660Y010781D01*
X001660Y011208D01*
X001707Y011255D01*
X001744Y011343D01*
X001744Y012121D01*
X001893Y012121D01*
X001999Y012226D01*
X001999Y013084D01*
X001893Y013189D01*
X001337Y013189D01*
X000880Y013279D02*
X001504Y012655D01*
X001999Y012643D02*
X002529Y012643D01*
X002529Y012732D02*
X002061Y012732D01*
X002061Y013032D01*
X002070Y013076D01*
X002087Y013118D01*
X002113Y013156D01*
X002145Y013188D01*
X002182Y013213D01*
X002224Y013230D01*
X002269Y013239D01*
X002529Y013239D01*
X002529Y012732D01*
X002529Y012802D02*
X002684Y012802D01*
X002684Y012960D02*
X002529Y012960D01*
X002529Y013119D02*
X002684Y013119D01*
X002088Y013119D02*
X001964Y013119D01*
X001999Y012960D02*
X002061Y012960D01*
X002061Y012802D02*
X001999Y012802D01*
X001999Y012485D02*
X002061Y012485D01*
X002061Y012326D02*
X001999Y012326D01*
X001940Y012168D02*
X002104Y012168D01*
X001744Y012009D02*
X005667Y012009D01*
X005475Y011851D02*
X001744Y011851D01*
X001744Y011692D02*
X005425Y011692D01*
X005444Y011534D02*
X001744Y011534D01*
X001744Y011375D02*
X002651Y011375D01*
X002640Y011365D02*
X002615Y011327D01*
X002598Y011285D01*
X002589Y011241D01*
X002589Y010235D01*
X003959Y010235D01*
X003959Y011448D01*
X002796Y011448D01*
X002752Y011439D01*
X002710Y011422D01*
X002672Y011397D01*
X002640Y011365D01*
X002589Y011217D02*
X001669Y011217D01*
X001660Y011058D02*
X002589Y011058D01*
X002589Y010900D02*
X001660Y010900D01*
X001620Y010741D02*
X002589Y010741D01*
X002589Y010583D02*
X000460Y010583D01*
X000460Y010741D02*
X000710Y010741D01*
X000670Y010900D02*
X000460Y010900D01*
X000460Y011058D02*
X000670Y011058D01*
X000670Y011217D02*
X000460Y011217D01*
X000460Y011375D02*
X000721Y011375D01*
X000460Y011534D02*
X001264Y011534D01*
X001264Y011692D02*
X000460Y011692D01*
X000460Y011851D02*
X001264Y011851D01*
X001264Y012009D02*
X000460Y012009D01*
X000460Y012168D02*
X001067Y012168D01*
X001009Y012326D02*
X000460Y012326D01*
X000460Y012485D02*
X001009Y012485D01*
X001009Y012643D02*
X000460Y012643D01*
X000460Y012802D02*
X000990Y012802D01*
X000831Y012960D02*
X000460Y012960D01*
X000460Y013119D02*
X000673Y013119D01*
X000620Y013277D02*
X000460Y013277D01*
X000460Y013436D02*
X000590Y013436D01*
X000506Y013594D02*
X000460Y013594D01*
X000460Y013753D02*
X000502Y013753D01*
X000460Y013911D02*
X000576Y013911D01*
X000460Y014070D02*
X006705Y014070D01*
X006639Y013911D02*
X001184Y013911D01*
X001258Y013753D02*
X006630Y013753D01*
X006662Y013594D02*
X001254Y013594D01*
X001170Y013436D02*
X006747Y013436D01*
X007655Y014070D02*
X007705Y014070D01*
X007850Y014228D02*
X007510Y014228D01*
X007940Y014387D02*
X000460Y014387D01*
X000460Y014545D02*
X007940Y014545D01*
X007940Y014704D02*
X000460Y014704D01*
X000460Y014862D02*
X007954Y014862D01*
X008081Y015021D02*
X000460Y015021D01*
X000460Y015179D02*
X008240Y015179D01*
X008398Y015338D02*
X000460Y015338D01*
X000460Y015496D02*
X008557Y015496D01*
X008904Y015165D02*
X022590Y015165D01*
X022590Y014148D01*
X022492Y014246D01*
X022289Y014330D01*
X022071Y014330D01*
X022055Y014324D01*
X022055Y014455D01*
X021998Y014592D01*
X021892Y014698D01*
X021755Y014755D01*
X021605Y014755D01*
X021468Y014698D01*
X021390Y014620D01*
X016132Y014620D01*
X016044Y014583D01*
X015977Y014516D01*
X015940Y014428D01*
X015940Y014276D01*
X015868Y014246D01*
X015714Y014092D01*
X015680Y014010D01*
X015646Y014092D01*
X015492Y014246D01*
X015289Y014330D01*
X015071Y014330D01*
X014868Y014246D01*
X014714Y014092D01*
X014680Y014010D01*
X014646Y014092D01*
X014492Y014246D01*
X014289Y014330D01*
X014071Y014330D01*
X013868Y014246D01*
X013714Y014092D01*
X013680Y014010D01*
X013646Y014092D01*
X013492Y014246D01*
X013289Y014330D01*
X013071Y014330D01*
X012868Y014246D01*
X012714Y014092D01*
X012680Y014010D01*
X012646Y014092D01*
X012492Y014246D01*
X012289Y014330D01*
X012071Y014330D01*
X011868Y014246D01*
X011714Y014092D01*
X011680Y014010D01*
X011646Y014092D01*
X011492Y014246D01*
X011289Y014330D01*
X011071Y014330D01*
X010868Y014246D01*
X010714Y014092D01*
X010680Y014010D01*
X010646Y014092D01*
X010492Y014246D01*
X010289Y014330D01*
X010071Y014330D01*
X009868Y014246D01*
X009714Y014092D01*
X009705Y014071D01*
X009693Y014094D01*
X009638Y014171D01*
X009571Y014238D01*
X009494Y014293D01*
X009410Y014336D01*
X009320Y014365D01*
X009227Y014380D01*
X009200Y014380D01*
X009200Y013800D01*
X009160Y013800D01*
X009160Y014380D01*
X009133Y014380D01*
X009039Y014365D01*
X008950Y014336D01*
X008866Y014293D01*
X008789Y014238D01*
X008722Y014171D01*
X008667Y014094D01*
X008655Y014071D01*
X008646Y014092D01*
X008492Y014246D01*
X008420Y014276D01*
X008420Y014681D01*
X008904Y015165D01*
X008760Y015021D02*
X022590Y015021D01*
X022590Y014862D02*
X008601Y014862D01*
X008443Y014704D02*
X021481Y014704D01*
X021879Y014704D02*
X022590Y014704D01*
X022590Y014545D02*
X022018Y014545D01*
X022055Y014387D02*
X022590Y014387D01*
X022590Y014228D02*
X022510Y014228D01*
X023070Y014859D02*
X023070Y015165D01*
X052281Y015165D01*
X052839Y014606D01*
X052613Y014700D01*
X052247Y014700D01*
X051909Y014560D01*
X051650Y014301D01*
X051510Y013963D01*
X051510Y013597D01*
X051650Y013259D01*
X051909Y013000D01*
X052247Y012860D01*
X052613Y012860D01*
X052951Y013000D01*
X053210Y013259D01*
X053350Y013597D01*
X053350Y013963D01*
X053256Y014189D01*
X054010Y013436D01*
X054010Y012820D01*
X053745Y012820D01*
X053640Y012715D01*
X053640Y012704D01*
X052919Y011983D01*
X052852Y011916D01*
X052815Y011828D01*
X052815Y010232D01*
X052852Y010144D01*
X053602Y009394D01*
X053640Y009356D01*
X053640Y009345D01*
X053705Y009280D01*
X053695Y009270D01*
X053600Y009270D01*
X053519Y009351D01*
X053380Y009408D01*
X053230Y009408D01*
X053091Y009351D01*
X052984Y009244D01*
X052927Y009105D01*
X052927Y008955D01*
X052984Y008816D01*
X053083Y008718D01*
X052984Y008619D01*
X052927Y008480D01*
X052927Y008330D01*
X052984Y008191D01*
X053091Y008084D01*
X053230Y008027D01*
X053380Y008027D01*
X053519Y008084D01*
X053590Y008155D01*
X053590Y008030D01*
X054250Y008030D01*
X054250Y007690D01*
X054690Y007690D01*
X054690Y005932D01*
X054727Y005844D01*
X054994Y005577D01*
X055082Y005540D01*
X056181Y005540D01*
X056940Y004781D01*
X056940Y003579D01*
X055131Y001770D01*
X050736Y001770D01*
X050740Y001772D01*
X050918Y001950D01*
X051015Y002184D01*
X051015Y002436D01*
X050918Y002670D01*
X050740Y002848D01*
X050506Y002945D01*
X050254Y002945D01*
X050020Y002848D01*
X049842Y002670D01*
X049745Y002436D01*
X049745Y002184D01*
X049842Y001950D01*
X050020Y001772D01*
X050024Y001770D01*
X044136Y001770D01*
X044140Y001772D01*
X044318Y001950D01*
X044415Y002184D01*
X044415Y002436D01*
X044318Y002670D01*
X044140Y002848D01*
X043906Y002945D01*
X043654Y002945D01*
X043420Y002848D01*
X043242Y002670D01*
X043145Y002436D01*
X043145Y002184D01*
X043242Y001950D01*
X043420Y001772D01*
X043424Y001770D01*
X039370Y001770D01*
X039429Y001813D01*
X039497Y001881D01*
X039554Y001959D01*
X039598Y002045D01*
X039627Y002137D01*
X039642Y002232D01*
X039642Y002232D01*
X039078Y002232D01*
X039078Y002328D01*
X038982Y002328D01*
X038982Y002892D01*
X038887Y002877D01*
X038795Y002848D01*
X038709Y002804D01*
X038631Y002747D01*
X038563Y002679D01*
X038506Y002601D01*
X038462Y002515D01*
X038433Y002423D01*
X038418Y002328D01*
X038418Y002328D01*
X038982Y002328D01*
X038982Y002232D01*
X038418Y002232D01*
X038433Y002137D01*
X038462Y002045D01*
X038506Y001959D01*
X038563Y001881D01*
X038631Y001813D01*
X038690Y001770D01*
X035370Y001770D01*
X035429Y001813D01*
X035497Y001881D01*
X035554Y001959D01*
X035598Y002045D01*
X035627Y002137D01*
X035642Y002232D01*
X035642Y002232D01*
X035078Y002232D01*
X035078Y002328D01*
X034982Y002328D01*
X034982Y002892D01*
X034887Y002877D01*
X034795Y002848D01*
X034709Y002804D01*
X034631Y002747D01*
X034563Y002679D01*
X034506Y002601D01*
X034462Y002515D01*
X034433Y002423D01*
X034418Y002328D01*
X034418Y002328D01*
X034982Y002328D01*
X034982Y002232D01*
X034418Y002232D01*
X034433Y002137D01*
X034462Y002045D01*
X034506Y001959D01*
X034563Y001881D01*
X034631Y001813D01*
X034690Y001770D01*
X032736Y001770D01*
X032747Y001781D01*
X032804Y001859D01*
X032848Y001945D01*
X032877Y002037D01*
X032892Y002132D01*
X032892Y002132D01*
X032328Y002132D01*
X032328Y002228D01*
X032232Y002228D01*
X032232Y002792D01*
X032137Y002777D01*
X032045Y002748D01*
X031959Y002704D01*
X031881Y002647D01*
X031813Y002579D01*
X031756Y002501D01*
X031712Y002415D01*
X031683Y002323D01*
X031668Y002228D01*
X031668Y002228D01*
X032232Y002228D01*
X032232Y002132D01*
X031668Y002132D01*
X031683Y002037D01*
X031712Y001945D01*
X031756Y001859D01*
X031813Y001781D01*
X031824Y001770D01*
X028736Y001770D01*
X028747Y001781D01*
X028804Y001859D01*
X028848Y001945D01*
X028877Y002037D01*
X028892Y002132D01*
X028892Y002132D01*
X028328Y002132D01*
X028328Y002228D01*
X028232Y002228D01*
X028232Y002792D01*
X028137Y002777D01*
X028045Y002748D01*
X027959Y002704D01*
X027881Y002647D01*
X027813Y002579D01*
X027756Y002501D01*
X027712Y002415D01*
X027683Y002323D01*
X027668Y002228D01*
X027668Y002228D01*
X028232Y002228D01*
X028232Y002132D01*
X027668Y002132D01*
X027683Y002037D01*
X027712Y001945D01*
X027756Y001859D01*
X027813Y001781D01*
X027824Y001770D01*
X027620Y001770D01*
X027620Y003240D01*
X027698Y003318D01*
X027755Y003455D01*
X027755Y003605D01*
X027698Y003742D01*
X027592Y003848D01*
X027455Y003905D01*
X027305Y003905D01*
X027168Y003848D01*
X027085Y003765D01*
X027132Y003939D01*
X027132Y004298D01*
X027039Y004644D01*
X026860Y004954D01*
X026606Y005208D01*
X026296Y005387D01*
X025950Y005480D01*
X025591Y005480D01*
X025288Y005398D01*
X027144Y007255D01*
X027255Y007255D01*
X027392Y007312D01*
X027498Y007418D01*
X027555Y007555D01*
X027555Y007705D01*
X027498Y007842D01*
X027392Y007948D01*
X027255Y008005D01*
X027105Y008005D01*
X026968Y007948D01*
X026862Y007842D01*
X026805Y007705D01*
X026805Y007594D01*
X024666Y005455D01*
X024555Y005455D01*
X024418Y005398D01*
X024312Y005292D01*
X024255Y005155D01*
X024255Y005005D01*
X024312Y004868D01*
X024418Y004762D01*
X024541Y004711D01*
X024502Y004644D01*
X024409Y004298D01*
X024409Y003939D01*
X024502Y003593D01*
X024681Y003283D01*
X024935Y003029D01*
X025245Y002850D01*
X025591Y002757D01*
X025950Y002757D01*
X026296Y002850D01*
X026606Y003029D01*
X026642Y003065D01*
X026662Y003018D01*
X026740Y002940D01*
X026740Y002420D01*
X022598Y002420D01*
X022646Y002468D01*
X022730Y002671D01*
X022730Y002889D01*
X022646Y003092D01*
X022492Y003246D01*
X022410Y003280D01*
X022492Y003314D01*
X022646Y003468D01*
X022730Y003671D01*
X022730Y003889D01*
X022646Y004092D01*
X022598Y004140D01*
X022878Y004140D01*
X022966Y004177D01*
X023033Y004244D01*
X023070Y004332D01*
X023070Y004340D01*
X023155Y004305D01*
X023305Y004305D01*
X023442Y004362D01*
X023548Y004468D01*
X023605Y004605D01*
X023605Y004716D01*
X025566Y006677D01*
X025633Y006744D01*
X025670Y006832D01*
X025670Y009710D01*
X025677Y009694D01*
X025744Y009627D01*
X025832Y009590D01*
X027678Y009590D01*
X027766Y009627D01*
X027833Y009694D01*
X028066Y009927D01*
X028100Y009893D01*
X028164Y009846D01*
X028235Y009810D01*
X028311Y009785D01*
X028390Y009773D01*
X028421Y009773D01*
X028421Y010271D01*
X028439Y010271D01*
X028439Y009773D01*
X028470Y009773D01*
X028549Y009785D01*
X028625Y009810D01*
X028696Y009846D01*
X028760Y009893D01*
X028817Y009950D01*
X028864Y010014D01*
X028900Y010085D01*
X028921Y010150D01*
X032328Y006743D01*
X032328Y006228D01*
X032232Y006228D01*
X032232Y006792D01*
X032137Y006777D01*
X032045Y006748D01*
X031959Y006704D01*
X031881Y006647D01*
X031813Y006579D01*
X031756Y006501D01*
X031712Y006415D01*
X031683Y006323D01*
X031668Y006228D01*
X031668Y006228D01*
X032232Y006228D01*
X032232Y006132D01*
X032328Y006132D01*
X032328Y005568D01*
X032423Y005583D01*
X032515Y005612D01*
X032590Y005651D01*
X032590Y003682D01*
X032627Y003594D01*
X032694Y003527D01*
X032782Y003490D01*
X037328Y003490D01*
X037416Y003527D01*
X037483Y003594D01*
X037783Y003894D01*
X037820Y003982D01*
X037820Y004290D01*
X043378Y004290D01*
X043466Y004327D01*
X044479Y005340D01*
X045376Y005340D01*
X045348Y005284D01*
X045319Y005196D01*
X045305Y005106D01*
X045305Y005098D01*
X046202Y005098D01*
X046202Y005022D01*
X046278Y005022D01*
X046278Y005098D01*
X046985Y005098D01*
X047882Y005098D01*
X047882Y005022D01*
X046278Y005022D01*
X046278Y004478D01*
X046638Y004478D01*
X046729Y004492D01*
X046816Y004520D01*
X046898Y004562D01*
X046972Y004616D01*
X047037Y004681D01*
X047080Y004740D01*
X047123Y004681D01*
X047188Y004616D01*
X047262Y004562D01*
X047344Y004520D01*
X047431Y004492D01*
X047522Y004478D01*
X047882Y004478D01*
X047882Y005022D01*
X047958Y005022D01*
X047958Y005098D01*
X048855Y005098D01*
X048855Y005106D01*
X048841Y005196D01*
X048812Y005284D01*
X048771Y005365D01*
X048717Y005439D01*
X048652Y005504D01*
X048578Y005558D01*
X048496Y005600D01*
X048409Y005628D01*
X048330Y005641D01*
X048981Y006292D01*
X049012Y006218D01*
X049118Y006112D01*
X049255Y006055D01*
X049405Y006055D01*
X049542Y006112D01*
X049648Y006218D01*
X049705Y006355D01*
X049705Y006466D01*
X051066Y007827D01*
X051133Y007894D01*
X051170Y007982D01*
X051170Y009843D01*
X051235Y009810D01*
X051311Y009785D01*
X051390Y009773D01*
X051421Y009773D01*
X051421Y010271D01*
X051439Y010271D01*
X051439Y010289D01*
X051421Y010289D01*
X051421Y010787D01*
X051390Y010787D01*
X051311Y010775D01*
X051235Y010750D01*
X051170Y010717D01*
X051170Y010885D01*
X051189Y010892D01*
X051318Y011021D01*
X051387Y011189D01*
X051387Y011371D01*
X051318Y011539D01*
X051189Y011668D01*
X051021Y011737D01*
X050839Y011737D01*
X050671Y011668D01*
X050542Y011539D01*
X050473Y011371D01*
X050473Y011189D01*
X050542Y011021D01*
X050671Y010892D01*
X050690Y010885D01*
X050690Y010667D01*
X050689Y010668D01*
X050521Y010737D01*
X050339Y010737D01*
X050171Y010668D01*
X050120Y010617D01*
X050120Y010864D01*
X050189Y010892D01*
X050318Y011021D01*
X050387Y011189D01*
X050387Y011371D01*
X050318Y011539D01*
X050189Y011668D01*
X050021Y011737D01*
X049839Y011737D01*
X049671Y011668D01*
X049542Y011539D01*
X049473Y011371D01*
X049473Y011189D01*
X049542Y011021D01*
X049640Y010923D01*
X049640Y010688D01*
X049521Y010737D01*
X049339Y010737D01*
X049171Y010668D01*
X049170Y010667D01*
X049170Y010885D01*
X049189Y010892D01*
X049318Y011021D01*
X049387Y011189D01*
X049387Y011371D01*
X049318Y011539D01*
X049189Y011668D01*
X049021Y011737D01*
X048839Y011737D01*
X048671Y011668D01*
X048542Y011539D01*
X048473Y011371D01*
X048473Y011189D01*
X048542Y011021D01*
X048671Y010892D01*
X048690Y010885D01*
X048690Y010667D01*
X048689Y010668D01*
X048521Y010737D01*
X048339Y010737D01*
X048171Y010668D01*
X048042Y010539D01*
X047973Y010371D01*
X047973Y010189D01*
X048042Y010021D01*
X048171Y009892D01*
X048300Y009839D01*
X047877Y009416D01*
X047840Y009328D01*
X047840Y007070D01*
X047670Y007070D01*
X047705Y007155D01*
X047705Y007305D01*
X047648Y007442D01*
X047542Y007548D01*
X047405Y007605D01*
X047294Y007605D01*
X044060Y010839D01*
X044189Y010892D01*
X044318Y011021D01*
X044387Y011189D01*
X044387Y011371D01*
X044318Y011539D01*
X044189Y011668D01*
X044021Y011737D01*
X043839Y011737D01*
X043820Y011729D01*
X040733Y014816D01*
X040666Y014883D01*
X040578Y014920D01*
X023182Y014920D01*
X023094Y014883D01*
X023070Y014859D01*
X023070Y014862D02*
X023073Y014862D01*
X023070Y015021D02*
X052425Y015021D01*
X052584Y014862D02*
X040687Y014862D01*
X040846Y014704D02*
X052742Y014704D01*
X053262Y014862D02*
X053690Y014862D01*
X053690Y014953D02*
X053690Y014434D01*
X052573Y015551D01*
X060605Y015551D01*
X060605Y000560D01*
X056193Y000560D01*
X058924Y003290D01*
X059045Y003411D01*
X059110Y003569D01*
X059110Y004874D01*
X059189Y004907D01*
X059313Y005031D01*
X059380Y005192D01*
X059380Y005368D01*
X059313Y005529D01*
X059189Y005653D01*
X059028Y005720D01*
X058332Y005720D01*
X058171Y005653D01*
X058047Y005529D01*
X057980Y005368D01*
X057980Y005192D01*
X058047Y005031D01*
X058171Y004907D01*
X058250Y004874D01*
X058250Y003833D01*
X057720Y003303D01*
X057720Y005128D01*
X057683Y005216D01*
X056683Y006216D01*
X056616Y006283D01*
X056528Y006320D01*
X055420Y006320D01*
X055420Y007826D01*
X055507Y007790D01*
X055555Y007790D01*
X055605Y007740D01*
X056615Y007740D01*
X056652Y007778D01*
X056718Y007712D01*
X056855Y007655D01*
X057005Y007655D01*
X057142Y007712D01*
X057248Y007818D01*
X057305Y007955D01*
X057305Y008105D01*
X057248Y008242D01*
X057200Y008290D01*
X057478Y008290D01*
X057566Y008327D01*
X058159Y008919D01*
X058171Y008907D01*
X058332Y008840D01*
X059028Y008840D01*
X059189Y008907D01*
X059313Y009031D01*
X059380Y009192D01*
X059380Y009368D01*
X059313Y009529D01*
X059291Y009551D01*
X060040Y010301D01*
X060040Y009479D01*
X059201Y008641D01*
X059189Y008653D01*
X059028Y008720D01*
X058332Y008720D01*
X058171Y008653D01*
X058047Y008529D01*
X057980Y008368D01*
X057980Y008192D01*
X058047Y008031D01*
X058171Y007907D01*
X058332Y007840D01*
X059028Y007840D01*
X059189Y007907D01*
X059313Y008031D01*
X059343Y008104D01*
X059383Y008144D01*
X060483Y009244D01*
X060520Y009332D01*
X060520Y013328D01*
X060483Y013416D01*
X060416Y013483D01*
X059616Y014283D01*
X059528Y014320D01*
X059096Y014320D01*
X059096Y014658D01*
X058991Y014763D01*
X058369Y014763D01*
X058264Y014658D01*
X058264Y014194D01*
X058369Y014088D01*
X058458Y014088D01*
X058477Y014044D01*
X058501Y014020D01*
X058079Y014020D01*
X058001Y014098D01*
X058096Y014194D01*
X058096Y014658D01*
X057991Y014763D01*
X057369Y014763D01*
X057264Y014658D01*
X057264Y014194D01*
X057369Y014088D01*
X057440Y014088D01*
X057440Y014032D01*
X057477Y013944D01*
X057544Y013877D01*
X057801Y013620D01*
X057479Y013620D01*
X057001Y014098D01*
X057096Y014194D01*
X057096Y014658D01*
X056991Y014763D01*
X056369Y014763D01*
X056264Y014658D01*
X056264Y014194D01*
X056369Y014088D01*
X056440Y014088D01*
X056440Y014032D01*
X056459Y013986D01*
X056096Y014349D01*
X056096Y014658D01*
X055991Y014763D01*
X055369Y014763D01*
X055264Y014658D01*
X055264Y014194D01*
X055369Y014088D01*
X055678Y014088D01*
X055871Y013895D01*
X055550Y013895D01*
X055096Y014349D01*
X055096Y014658D01*
X054991Y014763D01*
X054369Y014763D01*
X054264Y014658D01*
X054264Y014286D01*
X054170Y014379D01*
X054170Y014806D01*
X054259Y014894D01*
X054272Y014894D01*
X054369Y014797D01*
X054991Y014797D01*
X055088Y014894D01*
X055272Y014894D01*
X055369Y014797D01*
X055991Y014797D01*
X056088Y014894D01*
X056272Y014894D01*
X056369Y014797D01*
X056991Y014797D01*
X057088Y014894D01*
X057272Y014894D01*
X057369Y014797D01*
X057991Y014797D01*
X058088Y014894D01*
X058272Y014894D01*
X058369Y014797D01*
X058991Y014797D01*
X059096Y014902D01*
X059096Y015366D01*
X058991Y015472D01*
X058369Y015472D01*
X058272Y015374D01*
X058088Y015374D01*
X057991Y015472D01*
X057369Y015472D01*
X057272Y015374D01*
X057088Y015374D01*
X056991Y015472D01*
X056369Y015472D01*
X056272Y015374D01*
X056088Y015374D01*
X055991Y015472D01*
X055369Y015472D01*
X055272Y015374D01*
X055088Y015374D01*
X054991Y015472D01*
X054369Y015472D01*
X054272Y015374D01*
X054112Y015374D01*
X054023Y015338D01*
X053794Y015108D01*
X053727Y015041D01*
X053690Y014953D01*
X053718Y015021D02*
X053104Y015021D01*
X052945Y015179D02*
X053865Y015179D01*
X054023Y015338D02*
X052787Y015338D01*
X052628Y015496D02*
X060605Y015496D01*
X060605Y015338D02*
X059096Y015338D01*
X059096Y015179D02*
X060605Y015179D01*
X060605Y015021D02*
X059096Y015021D01*
X059056Y014862D02*
X060605Y014862D01*
X060605Y014704D02*
X059050Y014704D01*
X059096Y014545D02*
X060605Y014545D01*
X060605Y014387D02*
X059096Y014387D01*
X059671Y014228D02*
X060605Y014228D01*
X060605Y014070D02*
X059830Y014070D01*
X059988Y013911D02*
X060605Y013911D01*
X060605Y013753D02*
X060147Y013753D01*
X060305Y013594D02*
X060605Y013594D01*
X060605Y013436D02*
X060464Y013436D01*
X060520Y013277D02*
X060605Y013277D01*
X060605Y013119D02*
X060520Y013119D01*
X060520Y012960D02*
X060605Y012960D01*
X060605Y012802D02*
X060520Y012802D01*
X060520Y012643D02*
X060605Y012643D01*
X060605Y012485D02*
X060520Y012485D01*
X060520Y012326D02*
X060605Y012326D01*
X060605Y012168D02*
X060520Y012168D01*
X060520Y012009D02*
X060605Y012009D01*
X060605Y011851D02*
X060520Y011851D01*
X060520Y011692D02*
X060605Y011692D01*
X060605Y011534D02*
X060520Y011534D01*
X060520Y011375D02*
X060605Y011375D01*
X060605Y011217D02*
X060520Y011217D01*
X060520Y011058D02*
X060605Y011058D01*
X060605Y010900D02*
X060520Y010900D01*
X060520Y010741D02*
X060605Y010741D01*
X060605Y010583D02*
X060520Y010583D01*
X060520Y010424D02*
X060605Y010424D01*
X060605Y010266D02*
X060520Y010266D01*
X060520Y010107D02*
X060605Y010107D01*
X060605Y009949D02*
X060520Y009949D01*
X060520Y009790D02*
X060605Y009790D01*
X060605Y009632D02*
X060520Y009632D01*
X060520Y009473D02*
X060605Y009473D01*
X060605Y009315D02*
X060513Y009315D01*
X060605Y009156D02*
X060395Y009156D01*
X060237Y008998D02*
X060605Y008998D01*
X060605Y008839D02*
X060078Y008839D01*
X059920Y008681D02*
X060605Y008681D01*
X060605Y008522D02*
X059761Y008522D01*
X059603Y008364D02*
X060605Y008364D01*
X060605Y008205D02*
X059444Y008205D01*
X059320Y008047D02*
X060605Y008047D01*
X060605Y007888D02*
X059143Y007888D01*
X059028Y007720D02*
X058332Y007720D01*
X058171Y007653D01*
X058047Y007529D01*
X057980Y007368D01*
X057980Y007192D01*
X058047Y007031D01*
X058171Y006907D01*
X058332Y006840D01*
X059028Y006840D01*
X059189Y006907D01*
X059313Y007031D01*
X059380Y007192D01*
X059380Y007368D01*
X059313Y007529D01*
X059189Y007653D01*
X059028Y007720D01*
X059271Y007571D02*
X060605Y007571D01*
X060605Y007413D02*
X059361Y007413D01*
X059380Y007254D02*
X060605Y007254D01*
X060605Y007096D02*
X059340Y007096D01*
X059219Y006937D02*
X060605Y006937D01*
X060605Y006779D02*
X055420Y006779D01*
X055420Y006937D02*
X058141Y006937D01*
X058020Y007096D02*
X055420Y007096D01*
X055420Y007254D02*
X057980Y007254D01*
X057999Y007413D02*
X055420Y007413D01*
X055420Y007571D02*
X058089Y007571D01*
X058217Y007888D02*
X057277Y007888D01*
X057305Y008047D02*
X058040Y008047D01*
X057980Y008205D02*
X057263Y008205D01*
X057603Y008364D02*
X057980Y008364D01*
X058044Y008522D02*
X057761Y008522D01*
X057920Y008681D02*
X058237Y008681D01*
X058078Y008839D02*
X059400Y008839D01*
X059280Y008998D02*
X059558Y008998D01*
X059717Y009156D02*
X059365Y009156D01*
X059380Y009315D02*
X059875Y009315D01*
X060034Y009473D02*
X059336Y009473D01*
X059371Y009632D02*
X060040Y009632D01*
X060040Y009790D02*
X059529Y009790D01*
X059688Y009949D02*
X060040Y009949D01*
X060040Y010107D02*
X059846Y010107D01*
X060005Y010266D02*
X060040Y010266D01*
X059241Y008681D02*
X059123Y008681D01*
X060605Y007730D02*
X057160Y007730D01*
X056700Y007730D02*
X055420Y007730D01*
X054690Y007571D02*
X050810Y007571D01*
X050652Y007413D02*
X054690Y007413D01*
X054690Y007254D02*
X050493Y007254D01*
X050335Y007096D02*
X054690Y007096D01*
X054690Y006937D02*
X050176Y006937D01*
X050018Y006779D02*
X054690Y006779D01*
X054690Y006620D02*
X049859Y006620D01*
X049705Y006462D02*
X050197Y006462D01*
X050254Y006485D02*
X050020Y006388D01*
X049842Y006210D01*
X049745Y005976D01*
X049745Y005724D01*
X049842Y005490D01*
X050020Y005312D01*
X050254Y005215D01*
X050506Y005215D01*
X050740Y005312D01*
X050918Y005490D01*
X051015Y005724D01*
X051015Y005976D01*
X050918Y006210D01*
X050740Y006388D01*
X050506Y006485D01*
X050254Y006485D01*
X050563Y006462D02*
X054690Y006462D01*
X054690Y006303D02*
X050825Y006303D01*
X050945Y006145D02*
X054690Y006145D01*
X054690Y005986D02*
X051011Y005986D01*
X051015Y005828D02*
X054743Y005828D01*
X054902Y005669D02*
X050992Y005669D01*
X050927Y005511D02*
X052117Y005511D01*
X052108Y005504D02*
X052043Y005439D01*
X051989Y005365D01*
X051948Y005284D01*
X051919Y005196D01*
X051905Y005106D01*
X051905Y005098D01*
X052802Y005098D01*
X052802Y005642D01*
X052442Y005642D01*
X052351Y005628D01*
X052264Y005600D01*
X052182Y005558D01*
X052108Y005504D01*
X051983Y005352D02*
X050780Y005352D01*
X049980Y005352D02*
X048777Y005352D01*
X048841Y005194D02*
X051919Y005194D01*
X051905Y005022D02*
X051905Y005014D01*
X051919Y004924D01*
X051948Y004836D01*
X051989Y004755D01*
X052043Y004681D01*
X052108Y004616D01*
X052182Y004562D01*
X052264Y004520D01*
X052351Y004492D01*
X052442Y004478D01*
X052802Y004478D01*
X052802Y005022D01*
X052878Y005022D01*
X052878Y005098D01*
X052802Y005098D01*
X052802Y005022D01*
X051905Y005022D01*
X051935Y004877D02*
X048825Y004877D01*
X048812Y004836D02*
X048841Y004924D01*
X048855Y005014D01*
X048855Y005022D01*
X047958Y005022D01*
X047958Y004478D01*
X048318Y004478D01*
X048409Y004492D01*
X048496Y004520D01*
X048578Y004562D01*
X048652Y004616D01*
X048717Y004681D01*
X048771Y004755D01*
X048812Y004836D01*
X048744Y004718D02*
X052016Y004718D01*
X052187Y004560D02*
X048573Y004560D01*
X047958Y004560D02*
X047882Y004560D01*
X047882Y004718D02*
X047958Y004718D01*
X047958Y004877D02*
X047882Y004877D01*
X047882Y005035D02*
X046278Y005035D01*
X046202Y005035D02*
X044174Y005035D01*
X044016Y004877D02*
X045335Y004877D01*
X045348Y004836D02*
X045319Y004924D01*
X045305Y005014D01*
X045305Y005022D01*
X046202Y005022D01*
X046202Y004478D01*
X045842Y004478D01*
X045751Y004492D01*
X045664Y004520D01*
X045582Y004562D01*
X045508Y004616D01*
X045443Y004681D01*
X045389Y004755D01*
X045348Y004836D01*
X045416Y004718D02*
X043857Y004718D01*
X043699Y004560D02*
X045587Y004560D01*
X046202Y004560D02*
X046278Y004560D01*
X046278Y004718D02*
X046202Y004718D01*
X046202Y004877D02*
X046278Y004877D01*
X047064Y004718D02*
X047096Y004718D01*
X047267Y004560D02*
X046893Y004560D01*
X047958Y005035D02*
X052802Y005035D01*
X052878Y005035D02*
X054290Y005035D01*
X054209Y004954D02*
X054462Y005208D01*
X054773Y005387D01*
X055119Y005480D01*
X055477Y005480D01*
X055823Y005387D01*
X056134Y005208D01*
X056387Y004954D01*
X056566Y004644D01*
X056659Y004298D01*
X056659Y003939D01*
X056566Y003593D01*
X056387Y003283D01*
X056134Y003029D01*
X055823Y002850D01*
X055477Y002757D01*
X055119Y002757D01*
X054773Y002850D01*
X054462Y003029D01*
X054209Y003283D01*
X054030Y003593D01*
X053937Y003939D01*
X053937Y004298D01*
X054030Y004644D01*
X054209Y004954D01*
X054164Y004877D02*
X053745Y004877D01*
X053732Y004836D02*
X053761Y004924D01*
X053775Y005014D01*
X053775Y005022D01*
X052878Y005022D01*
X052878Y004478D01*
X053238Y004478D01*
X053329Y004492D01*
X053416Y004520D01*
X053498Y004562D01*
X053572Y004616D01*
X053637Y004681D01*
X053691Y004755D01*
X053732Y004836D01*
X053664Y004718D02*
X054073Y004718D01*
X054007Y004560D02*
X053493Y004560D01*
X053965Y004401D02*
X043540Y004401D01*
X043231Y004770D02*
X042178Y004770D01*
X042212Y004836D01*
X042241Y004924D01*
X042255Y005014D01*
X042255Y005022D01*
X041358Y005022D01*
X041358Y005098D01*
X041282Y005098D01*
X041282Y005642D01*
X040922Y005642D01*
X040831Y005628D01*
X040744Y005600D01*
X040662Y005558D01*
X040588Y005504D01*
X040523Y005439D01*
X040469Y005365D01*
X040428Y005284D01*
X040399Y005196D01*
X040385Y005106D01*
X040385Y005098D01*
X041282Y005098D01*
X041282Y005022D01*
X040385Y005022D01*
X040385Y005014D01*
X040399Y004924D01*
X040428Y004836D01*
X040462Y004770D01*
X037532Y004770D01*
X037444Y004733D01*
X037408Y004697D01*
X037349Y004757D01*
X037270Y004789D01*
X037270Y005128D01*
X037233Y005216D01*
X037166Y005283D01*
X034720Y007729D01*
X034720Y009872D01*
X034839Y009823D01*
X035021Y009823D01*
X035140Y009872D01*
X035140Y009770D01*
X035062Y009692D01*
X035005Y009555D01*
X035005Y009405D01*
X035062Y009268D01*
X035168Y009162D01*
X035305Y009105D01*
X035455Y009105D01*
X035592Y009162D01*
X035698Y009268D01*
X035755Y009405D01*
X035755Y009555D01*
X035698Y009692D01*
X035620Y009770D01*
X035620Y009878D01*
X035664Y009846D01*
X035735Y009810D01*
X035811Y009785D01*
X035890Y009773D01*
X035921Y009773D01*
X035921Y010271D01*
X035939Y010271D01*
X035939Y010289D01*
X035921Y010289D01*
X035921Y010787D01*
X035890Y010787D01*
X035811Y010775D01*
X035735Y010750D01*
X035664Y010714D01*
X035620Y010682D01*
X035620Y010864D01*
X035689Y010892D01*
X035818Y011021D01*
X035887Y011189D01*
X035887Y011371D01*
X035818Y011539D01*
X035689Y011668D01*
X035521Y011737D01*
X035339Y011737D01*
X035171Y011668D01*
X035120Y011617D01*
X035120Y012140D01*
X035198Y012218D01*
X035255Y012355D01*
X035255Y012505D01*
X035220Y012590D01*
X041931Y012590D01*
X042800Y011721D01*
X042671Y011668D01*
X042542Y011539D01*
X042473Y011371D01*
X042473Y011189D01*
X042542Y011021D01*
X042671Y010892D01*
X042690Y010885D01*
X042690Y010667D01*
X042689Y010668D01*
X042521Y010737D01*
X042339Y010737D01*
X042171Y010668D01*
X042042Y010539D01*
X041973Y010371D01*
X041973Y010189D01*
X042028Y010055D01*
X041994Y010055D01*
X041879Y010170D01*
X041887Y010189D01*
X041887Y010371D01*
X041818Y010539D01*
X041689Y010668D01*
X041521Y010737D01*
X041339Y010737D01*
X041171Y010668D01*
X041170Y010667D01*
X041170Y010885D01*
X041189Y010892D01*
X041318Y011021D01*
X041387Y011189D01*
X041387Y011371D01*
X041318Y011539D01*
X041189Y011668D01*
X041021Y011737D01*
X040839Y011737D01*
X040671Y011668D01*
X040542Y011539D01*
X040473Y011371D01*
X040473Y011189D01*
X040542Y011021D01*
X040671Y010892D01*
X040690Y010885D01*
X040690Y010667D01*
X040689Y010668D01*
X040521Y010737D01*
X040339Y010737D01*
X040171Y010668D01*
X040042Y010539D01*
X039973Y010371D01*
X039973Y010189D01*
X040042Y010021D01*
X040171Y009892D01*
X040335Y009824D01*
X039316Y008805D01*
X039205Y008805D01*
X039068Y008748D01*
X038962Y008642D01*
X038905Y008505D01*
X038905Y008355D01*
X038962Y008218D01*
X039068Y008112D01*
X039205Y008055D01*
X039355Y008055D01*
X039492Y008112D01*
X039598Y008218D01*
X039655Y008355D01*
X039655Y008466D01*
X041126Y009937D01*
X041171Y009892D01*
X041339Y009823D01*
X041521Y009823D01*
X041540Y009831D01*
X041655Y009716D01*
X041655Y009605D01*
X041712Y009468D01*
X041818Y009362D01*
X041892Y009331D01*
X040566Y008005D01*
X040455Y008005D01*
X040318Y007948D01*
X040212Y007842D01*
X040155Y007705D01*
X040155Y007555D01*
X040212Y007418D01*
X040318Y007312D01*
X040455Y007255D01*
X040605Y007255D01*
X040742Y007312D01*
X040848Y007418D01*
X040905Y007555D01*
X040905Y007666D01*
X043066Y009827D01*
X043119Y009879D01*
X043164Y009846D01*
X043235Y009810D01*
X043311Y009785D01*
X043390Y009773D01*
X043421Y009773D01*
X043421Y010271D01*
X043439Y010271D01*
X043439Y010289D01*
X043932Y010289D01*
X046642Y007579D01*
X046568Y007548D01*
X046462Y007442D01*
X046405Y007305D01*
X046405Y007155D01*
X046462Y007018D01*
X046568Y006912D01*
X046705Y006855D01*
X046816Y006855D01*
X046977Y006694D01*
X047044Y006627D01*
X047132Y006590D01*
X048128Y006590D01*
X048216Y006627D01*
X048283Y006694D01*
X048320Y006782D01*
X048320Y009181D01*
X049066Y009927D01*
X049101Y009962D01*
X049171Y009892D01*
X049339Y009823D01*
X049440Y009823D01*
X049440Y009770D01*
X049362Y009692D01*
X049305Y009555D01*
X049305Y009405D01*
X049362Y009268D01*
X049468Y009162D01*
X049605Y009105D01*
X049755Y009105D01*
X049840Y009140D01*
X049840Y007829D01*
X047831Y005820D01*
X044415Y005820D01*
X044415Y005976D01*
X044318Y006210D01*
X044140Y006388D01*
X043906Y006485D01*
X043654Y006485D01*
X043420Y006388D01*
X043242Y006210D01*
X043145Y005976D01*
X043145Y005724D01*
X043242Y005490D01*
X043420Y005312D01*
X043654Y005215D01*
X043676Y005215D01*
X043231Y004770D01*
X043337Y004877D02*
X042225Y004877D01*
X042255Y005098D02*
X041358Y005098D01*
X041358Y005642D01*
X041718Y005642D01*
X041809Y005628D01*
X041896Y005600D01*
X041978Y005558D01*
X042052Y005504D01*
X042117Y005439D01*
X042171Y005365D01*
X042212Y005284D01*
X042241Y005196D01*
X042255Y005106D01*
X042255Y005098D01*
X042241Y005194D02*
X043654Y005194D01*
X043496Y005035D02*
X041358Y005035D01*
X041282Y005035D02*
X037270Y005035D01*
X037270Y004877D02*
X040415Y004877D01*
X040399Y005194D02*
X037243Y005194D01*
X037097Y005352D02*
X040463Y005352D01*
X040597Y005511D02*
X036939Y005511D01*
X036780Y005669D02*
X038972Y005669D01*
X038982Y005668D02*
X038982Y005667D01*
X038982Y005668D02*
X038887Y005683D01*
X038795Y005712D01*
X038709Y005756D01*
X038631Y005813D01*
X038563Y005881D01*
X038506Y005959D01*
X038462Y006045D01*
X038433Y006137D01*
X038418Y006232D01*
X038418Y006232D01*
X038982Y006232D01*
X039078Y006232D01*
X039078Y006328D01*
X039642Y006328D01*
X039627Y006423D01*
X039598Y006515D01*
X039554Y006601D01*
X039497Y006679D01*
X039429Y006747D01*
X039351Y006804D01*
X039265Y006848D01*
X039173Y006877D01*
X039078Y006892D01*
X039078Y006892D01*
X039078Y006328D01*
X038982Y006328D01*
X038982Y006892D01*
X038887Y006877D01*
X038795Y006848D01*
X038709Y006804D01*
X038631Y006747D01*
X038563Y006679D01*
X038506Y006601D01*
X038462Y006515D01*
X038433Y006423D01*
X038418Y006328D01*
X038418Y006328D01*
X038982Y006328D01*
X038982Y006232D01*
X038982Y005667D01*
X038982Y005669D02*
X039078Y005669D01*
X039078Y005668D02*
X039173Y005683D01*
X039265Y005712D01*
X039351Y005756D01*
X039429Y005813D01*
X039497Y005881D01*
X039554Y005959D01*
X039598Y006045D01*
X039627Y006137D01*
X039642Y006232D01*
X039642Y006232D01*
X039078Y006232D01*
X039078Y005668D01*
X039078Y005668D01*
X039088Y005669D02*
X043168Y005669D01*
X043145Y005828D02*
X039444Y005828D01*
X039568Y005986D02*
X043149Y005986D01*
X043215Y006145D02*
X039629Y006145D01*
X039642Y006328D02*
X039642Y006328D01*
X039615Y006462D02*
X043597Y006462D01*
X043335Y006303D02*
X039078Y006303D01*
X038982Y006303D02*
X036146Y006303D01*
X035988Y006462D02*
X038445Y006462D01*
X038520Y006620D02*
X035829Y006620D01*
X035671Y006779D02*
X038674Y006779D01*
X038982Y006779D02*
X039078Y006779D01*
X038982Y006892D02*
X038982Y006892D01*
X038982Y006620D02*
X039078Y006620D01*
X039078Y006462D02*
X038982Y006462D01*
X039386Y006779D02*
X046892Y006779D01*
X047060Y006620D02*
X039540Y006620D01*
X039078Y006145D02*
X038982Y006145D01*
X038982Y005986D02*
X039078Y005986D01*
X039078Y005828D02*
X038982Y005828D01*
X038616Y005828D02*
X036622Y005828D01*
X036463Y005986D02*
X038492Y005986D01*
X038431Y006145D02*
X036305Y006145D01*
X035943Y005828D02*
X035444Y005828D01*
X035429Y005813D02*
X035497Y005881D01*
X035554Y005959D01*
X035598Y006045D01*
X035627Y006137D01*
X035628Y006142D01*
X036790Y004981D01*
X036790Y004789D01*
X036711Y004757D01*
X036553Y004599D01*
X036468Y004392D01*
X036468Y004168D01*
X036550Y003970D01*
X033070Y003970D01*
X033070Y006628D01*
X033033Y006716D01*
X028927Y010823D01*
X029021Y010823D01*
X029189Y010892D01*
X029318Y011021D01*
X029387Y011189D01*
X029387Y011371D01*
X029373Y011405D01*
X029455Y011405D01*
X029592Y011462D01*
X029698Y011568D01*
X029755Y011705D01*
X029755Y011855D01*
X029698Y011992D01*
X029620Y012070D01*
X029620Y012590D01*
X034540Y012590D01*
X034505Y012505D01*
X034505Y012355D01*
X034562Y012218D01*
X034640Y012140D01*
X034640Y011688D01*
X034521Y011737D01*
X034339Y011737D01*
X034171Y011668D01*
X034042Y011539D01*
X033973Y011371D01*
X033973Y011189D01*
X034042Y011021D01*
X034171Y010892D01*
X034240Y010864D01*
X034240Y010617D01*
X034189Y010668D01*
X034021Y010737D01*
X033839Y010737D01*
X033671Y010668D01*
X033542Y010539D01*
X033473Y010371D01*
X033473Y010189D01*
X033542Y010021D01*
X033671Y009892D01*
X033839Y009823D01*
X034021Y009823D01*
X034189Y009892D01*
X034240Y009943D01*
X034240Y007582D01*
X034277Y007494D01*
X034892Y006878D01*
X034887Y006877D01*
X034795Y006848D01*
X034709Y006804D01*
X034631Y006747D01*
X034563Y006679D01*
X034506Y006601D01*
X034462Y006515D01*
X034433Y006423D01*
X034418Y006328D01*
X034418Y006328D01*
X034982Y006328D01*
X034982Y006232D01*
X035078Y006232D01*
X035078Y005668D01*
X035173Y005683D01*
X035265Y005712D01*
X035351Y005756D01*
X035429Y005813D01*
X035568Y005986D02*
X035785Y005986D01*
X036102Y005669D02*
X035088Y005669D01*
X035078Y005668D02*
X035078Y005668D01*
X035078Y005669D02*
X034982Y005669D01*
X034982Y005668D02*
X034982Y005667D01*
X034982Y005668D02*
X034887Y005683D01*
X034795Y005712D01*
X034709Y005756D01*
X034631Y005813D01*
X034563Y005881D01*
X034506Y005959D01*
X034462Y006045D01*
X034433Y006137D01*
X034418Y006232D01*
X034418Y006232D01*
X034982Y006232D01*
X034982Y005667D01*
X034972Y005669D02*
X033070Y005669D01*
X033070Y005511D02*
X036260Y005511D01*
X036419Y005352D02*
X033070Y005352D01*
X033070Y005194D02*
X036577Y005194D01*
X036736Y005035D02*
X033070Y005035D01*
X033070Y004877D02*
X036790Y004877D01*
X036673Y004718D02*
X033070Y004718D01*
X033070Y004560D02*
X036537Y004560D01*
X036471Y004401D02*
X033070Y004401D01*
X033070Y004243D02*
X036468Y004243D01*
X036502Y004084D02*
X033070Y004084D01*
X032590Y004084D02*
X030842Y004084D01*
X030842Y004068D02*
X030757Y003861D01*
X030599Y003703D01*
X030392Y003618D01*
X030168Y003618D01*
X029961Y003703D01*
X029803Y003861D01*
X029718Y004068D01*
X029718Y004292D01*
X029803Y004499D01*
X029961Y004657D01*
X030168Y004742D01*
X030392Y004742D01*
X030599Y004657D01*
X030757Y004499D01*
X030842Y004292D01*
X030842Y004068D01*
X030783Y003926D02*
X032590Y003926D01*
X032590Y003767D02*
X030663Y003767D01*
X030842Y004243D02*
X032590Y004243D01*
X032590Y004401D02*
X030797Y004401D01*
X030696Y004560D02*
X032590Y004560D01*
X032590Y004718D02*
X030451Y004718D01*
X030109Y004718D02*
X026996Y004718D01*
X027062Y004560D02*
X029864Y004560D01*
X029763Y004401D02*
X027104Y004401D01*
X027132Y004243D02*
X029718Y004243D01*
X029718Y004084D02*
X027132Y004084D01*
X027128Y003926D02*
X029777Y003926D01*
X029897Y003767D02*
X027673Y003767D01*
X027753Y003609D02*
X032621Y003609D01*
X032423Y002777D02*
X032328Y002792D01*
X032328Y002792D01*
X032328Y002228D01*
X032892Y002228D01*
X032877Y002323D01*
X032848Y002415D01*
X032804Y002501D01*
X032747Y002579D01*
X032679Y002647D01*
X032601Y002704D01*
X032515Y002748D01*
X032423Y002777D01*
X032328Y002658D02*
X032232Y002658D01*
X032232Y002792D02*
X032232Y002792D01*
X031895Y002658D02*
X028665Y002658D01*
X028679Y002647D02*
X028601Y002704D01*
X028515Y002748D01*
X028423Y002777D01*
X028328Y002792D01*
X028328Y002792D01*
X028328Y002228D01*
X028892Y002228D01*
X028877Y002323D01*
X028848Y002415D01*
X028804Y002501D01*
X028747Y002579D01*
X028679Y002647D01*
X028805Y002499D02*
X031755Y002499D01*
X031688Y002341D02*
X028872Y002341D01*
X028892Y002228D02*
X028892Y002228D01*
X028873Y002024D02*
X031687Y002024D01*
X031668Y002132D02*
X031668Y002132D01*
X031753Y001865D02*
X028807Y001865D01*
X028328Y002182D02*
X032232Y002182D01*
X032328Y002182D02*
X034425Y002182D01*
X034418Y002232D02*
X034418Y002232D01*
X034419Y002341D02*
X032872Y002341D01*
X032892Y002228D02*
X032892Y002228D01*
X032873Y002024D02*
X034473Y002024D01*
X034579Y001865D02*
X032807Y001865D01*
X032805Y002499D02*
X034457Y002499D01*
X034547Y002658D02*
X032665Y002658D01*
X032328Y002499D02*
X032232Y002499D01*
X032232Y002341D02*
X032328Y002341D01*
X034733Y002816D02*
X027620Y002816D01*
X027620Y002658D02*
X027895Y002658D01*
X027755Y002499D02*
X027620Y002499D01*
X027620Y002341D02*
X027688Y002341D01*
X027620Y002182D02*
X028232Y002182D01*
X028232Y002341D02*
X028328Y002341D01*
X028328Y002499D02*
X028232Y002499D01*
X028232Y002658D02*
X028328Y002658D01*
X028232Y002792D02*
X028232Y002792D01*
X027620Y002975D02*
X040443Y002975D01*
X040435Y002994D02*
X040516Y002798D01*
X040666Y002649D01*
X040862Y002568D01*
X041778Y002568D01*
X041974Y002649D01*
X042124Y002798D01*
X042205Y002994D01*
X042205Y003206D01*
X042124Y003402D01*
X041974Y003551D01*
X041778Y003632D01*
X040862Y003632D01*
X040666Y003551D01*
X040516Y003402D01*
X040435Y003206D01*
X040435Y002994D01*
X040435Y003133D02*
X027620Y003133D01*
X027672Y003292D02*
X040470Y003292D01*
X040564Y003450D02*
X027753Y003450D01*
X027087Y003767D02*
X027085Y003767D01*
X026705Y002975D02*
X026511Y002975D01*
X026740Y002816D02*
X026168Y002816D01*
X026740Y002658D02*
X022725Y002658D01*
X022730Y002816D02*
X025373Y002816D01*
X025030Y002975D02*
X022695Y002975D01*
X022605Y003133D02*
X024831Y003133D01*
X024676Y003292D02*
X022438Y003292D01*
X022628Y003450D02*
X024585Y003450D01*
X024498Y003609D02*
X022704Y003609D01*
X022730Y003767D02*
X024456Y003767D01*
X024413Y003926D02*
X022715Y003926D01*
X022649Y004084D02*
X024409Y004084D01*
X024409Y004243D02*
X023032Y004243D01*
X023481Y004401D02*
X024437Y004401D01*
X024480Y004560D02*
X023586Y004560D01*
X023607Y004718D02*
X024524Y004718D01*
X024308Y004877D02*
X023766Y004877D01*
X023924Y005035D02*
X024255Y005035D01*
X024271Y005194D02*
X024083Y005194D01*
X024241Y005352D02*
X024372Y005352D01*
X024400Y005511D02*
X024721Y005511D01*
X024880Y005669D02*
X024558Y005669D01*
X024717Y005828D02*
X025038Y005828D01*
X025197Y005986D02*
X024875Y005986D01*
X025034Y006145D02*
X025355Y006145D01*
X025514Y006303D02*
X025192Y006303D01*
X025351Y006462D02*
X025672Y006462D01*
X025831Y006620D02*
X025509Y006620D01*
X025648Y006779D02*
X025989Y006779D01*
X026148Y006937D02*
X025670Y006937D01*
X025670Y007096D02*
X026306Y007096D01*
X026465Y007254D02*
X025670Y007254D01*
X025670Y007413D02*
X026623Y007413D01*
X026782Y007571D02*
X025670Y007571D01*
X025670Y007730D02*
X026815Y007730D01*
X026908Y007888D02*
X025670Y007888D01*
X025670Y008047D02*
X031024Y008047D01*
X030866Y008205D02*
X025670Y008205D01*
X025670Y008364D02*
X030707Y008364D01*
X030549Y008522D02*
X025670Y008522D01*
X025670Y008681D02*
X030390Y008681D01*
X030232Y008839D02*
X025670Y008839D01*
X025670Y008998D02*
X030073Y008998D01*
X029915Y009156D02*
X025670Y009156D01*
X025670Y009315D02*
X029756Y009315D01*
X029598Y009473D02*
X025670Y009473D01*
X025670Y009632D02*
X025739Y009632D01*
X027771Y009632D02*
X029439Y009632D01*
X029281Y009790D02*
X028563Y009790D01*
X028439Y009790D02*
X028421Y009790D01*
X028297Y009790D02*
X027929Y009790D01*
X028421Y009949D02*
X028439Y009949D01*
X028439Y010107D02*
X028421Y010107D01*
X028421Y010266D02*
X028439Y010266D01*
X028816Y009949D02*
X029122Y009949D01*
X028964Y010107D02*
X028907Y010107D01*
X029325Y010424D02*
X031090Y010424D01*
X031090Y010266D02*
X029484Y010266D01*
X029642Y010107D02*
X031090Y010107D01*
X031090Y009949D02*
X029801Y009949D01*
X029959Y009790D02*
X031090Y009790D01*
X031090Y009632D02*
X030118Y009632D01*
X030276Y009473D02*
X030983Y009473D01*
X030955Y009405D02*
X030955Y009255D01*
X031012Y009118D01*
X031118Y009012D01*
X031255Y008955D01*
X031405Y008955D01*
X031542Y009012D01*
X031648Y009118D01*
X031705Y009255D01*
X031705Y009405D01*
X031648Y009542D01*
X031570Y009620D01*
X031570Y011040D01*
X033035Y011040D01*
X033042Y011021D01*
X033171Y010892D01*
X033339Y010823D01*
X033521Y010823D01*
X033689Y010892D01*
X033818Y011021D01*
X033887Y011189D01*
X033887Y011371D01*
X033818Y011539D01*
X033689Y011668D01*
X033521Y011737D01*
X033339Y011737D01*
X033171Y011668D01*
X033042Y011539D01*
X033035Y011520D01*
X031282Y011520D01*
X031194Y011483D01*
X031127Y011416D01*
X031090Y011328D01*
X031090Y009620D01*
X031012Y009542D01*
X030955Y009405D01*
X030955Y009315D02*
X030435Y009315D01*
X030593Y009156D02*
X030996Y009156D01*
X031153Y008998D02*
X030752Y008998D01*
X030910Y008839D02*
X034240Y008839D01*
X034240Y008681D02*
X031069Y008681D01*
X031227Y008522D02*
X034240Y008522D01*
X034240Y008364D02*
X031386Y008364D01*
X031544Y008205D02*
X034240Y008205D01*
X034240Y008047D02*
X031703Y008047D01*
X031861Y007888D02*
X034240Y007888D01*
X034240Y007730D02*
X032020Y007730D01*
X032178Y007571D02*
X034245Y007571D01*
X034358Y007413D02*
X032337Y007413D01*
X032495Y007254D02*
X034517Y007254D01*
X034675Y007096D02*
X032654Y007096D01*
X032812Y006937D02*
X034834Y006937D01*
X034674Y006779D02*
X032971Y006779D01*
X033070Y006620D02*
X034520Y006620D01*
X034445Y006462D02*
X033070Y006462D01*
X033070Y006303D02*
X034982Y006303D01*
X034982Y006145D02*
X035078Y006145D01*
X035078Y005986D02*
X034982Y005986D01*
X034982Y005828D02*
X035078Y005828D01*
X034616Y005828D02*
X033070Y005828D01*
X033070Y005986D02*
X034492Y005986D01*
X034431Y006145D02*
X033070Y006145D01*
X032328Y006303D02*
X032232Y006303D01*
X032232Y006145D02*
X028328Y006145D01*
X028328Y006132D02*
X028328Y006228D01*
X028892Y006228D01*
X028877Y006323D01*
X028848Y006415D01*
X028804Y006501D01*
X028747Y006579D01*
X028679Y006647D01*
X028601Y006704D01*
X028515Y006748D01*
X028423Y006777D01*
X028328Y006792D01*
X028328Y006792D01*
X028328Y006228D01*
X028232Y006228D01*
X028232Y006792D01*
X028137Y006777D01*
X028045Y006748D01*
X027959Y006704D01*
X027881Y006647D01*
X027813Y006579D01*
X027756Y006501D01*
X027712Y006415D01*
X027683Y006323D01*
X027668Y006228D01*
X027668Y006228D01*
X028232Y006228D01*
X028232Y006132D01*
X028328Y006132D01*
X028892Y006132D01*
X028892Y006132D01*
X028877Y006037D01*
X028848Y005945D01*
X028804Y005859D01*
X028747Y005781D01*
X028679Y005713D01*
X028601Y005656D01*
X028515Y005612D01*
X028423Y005583D01*
X028328Y005568D01*
X028328Y005568D01*
X028328Y006132D01*
X028232Y006132D02*
X028232Y005567D01*
X028232Y005568D01*
X028137Y005583D01*
X028045Y005612D01*
X027959Y005656D01*
X027881Y005713D01*
X027813Y005781D01*
X027756Y005859D01*
X027712Y005945D01*
X027683Y006037D01*
X027668Y006132D01*
X027668Y006132D01*
X028232Y006132D01*
X028232Y006145D02*
X026034Y006145D01*
X026192Y006303D02*
X027679Y006303D01*
X027736Y006462D02*
X026351Y006462D01*
X026509Y006620D02*
X027854Y006620D01*
X028143Y006779D02*
X026668Y006779D01*
X026826Y006937D02*
X032134Y006937D01*
X032143Y006779D02*
X028417Y006779D01*
X028328Y006779D02*
X028232Y006779D01*
X028232Y006792D02*
X028232Y006792D01*
X028232Y006620D02*
X028328Y006620D01*
X028328Y006462D02*
X028232Y006462D01*
X028232Y006303D02*
X028328Y006303D01*
X028824Y006462D02*
X031736Y006462D01*
X031679Y006303D02*
X028881Y006303D01*
X028892Y006228D02*
X028892Y006228D01*
X028861Y005986D02*
X031699Y005986D01*
X031712Y005945D02*
X031756Y005859D01*
X031813Y005781D01*
X031881Y005713D01*
X031959Y005656D01*
X032045Y005612D01*
X032137Y005583D01*
X032232Y005568D01*
X032232Y005567D01*
X032232Y006132D01*
X031668Y006132D01*
X031683Y006037D01*
X031712Y005945D01*
X031779Y005828D02*
X028781Y005828D01*
X028619Y005669D02*
X031941Y005669D01*
X032232Y005669D02*
X032328Y005669D01*
X032328Y005568D02*
X032328Y005568D01*
X032590Y005511D02*
X025400Y005511D01*
X025558Y005669D02*
X027941Y005669D01*
X027779Y005828D02*
X025717Y005828D01*
X025875Y005986D02*
X027699Y005986D01*
X028232Y005986D02*
X028328Y005986D01*
X028328Y005828D02*
X028232Y005828D01*
X028232Y005669D02*
X028328Y005669D01*
X026621Y005194D02*
X032590Y005194D01*
X032590Y005352D02*
X026356Y005352D01*
X026779Y005035D02*
X032590Y005035D01*
X032590Y004877D02*
X026905Y004877D01*
X031668Y006132D02*
X031668Y006132D01*
X032232Y005986D02*
X032328Y005986D01*
X032328Y005828D02*
X032232Y005828D01*
X032232Y006462D02*
X032328Y006462D01*
X032328Y006620D02*
X032232Y006620D01*
X032232Y006779D02*
X032292Y006779D01*
X032232Y006792D02*
X032232Y006792D01*
X031854Y006620D02*
X028706Y006620D01*
X027143Y007254D02*
X031817Y007254D01*
X031975Y007096D02*
X026985Y007096D01*
X027493Y007413D02*
X031658Y007413D01*
X031500Y007571D02*
X027555Y007571D01*
X027545Y007730D02*
X031341Y007730D01*
X031183Y007888D02*
X027452Y007888D01*
X031507Y008998D02*
X034240Y008998D01*
X034240Y009156D02*
X031664Y009156D01*
X031705Y009315D02*
X034240Y009315D01*
X034240Y009473D02*
X031677Y009473D01*
X031570Y009632D02*
X034240Y009632D01*
X034240Y009790D02*
X031570Y009790D01*
X031570Y009949D02*
X032615Y009949D01*
X032671Y009892D02*
X032542Y010021D01*
X032473Y010189D01*
X032473Y010371D01*
X032542Y010539D01*
X032671Y010668D01*
X032839Y010737D01*
X033021Y010737D01*
X033189Y010668D01*
X033318Y010539D01*
X033387Y010371D01*
X033387Y010189D01*
X033318Y010021D01*
X033189Y009892D01*
X033021Y009823D01*
X032839Y009823D01*
X032671Y009892D01*
X033245Y009949D02*
X033615Y009949D01*
X033507Y010107D02*
X033353Y010107D01*
X033387Y010266D02*
X033473Y010266D01*
X033495Y010424D02*
X033365Y010424D01*
X033274Y010583D02*
X033586Y010583D01*
X034240Y010741D02*
X031570Y010741D01*
X031570Y010583D02*
X032586Y010583D01*
X032495Y010424D02*
X031570Y010424D01*
X031570Y010266D02*
X032473Y010266D01*
X032507Y010107D02*
X031570Y010107D01*
X031090Y010583D02*
X029167Y010583D01*
X029008Y010741D02*
X031090Y010741D01*
X031090Y010900D02*
X029196Y010900D01*
X029333Y011058D02*
X031090Y011058D01*
X031090Y011217D02*
X029387Y011217D01*
X029385Y011375D02*
X031110Y011375D01*
X031570Y010900D02*
X033164Y010900D01*
X033696Y010900D02*
X034164Y010900D01*
X034027Y011058D02*
X033833Y011058D01*
X033887Y011217D02*
X033973Y011217D01*
X033975Y011375D02*
X033885Y011375D01*
X033820Y011534D02*
X034040Y011534D01*
X034230Y011692D02*
X033630Y011692D01*
X033230Y011692D02*
X029749Y011692D01*
X029755Y011851D02*
X034640Y011851D01*
X034640Y012009D02*
X029681Y012009D01*
X029620Y012168D02*
X034612Y012168D01*
X034517Y012326D02*
X029620Y012326D01*
X029620Y012485D02*
X034505Y012485D01*
X035255Y012485D02*
X042036Y012485D01*
X042195Y012326D02*
X035243Y012326D01*
X035148Y012168D02*
X042353Y012168D01*
X042512Y012009D02*
X035120Y012009D01*
X035120Y011851D02*
X042670Y011851D01*
X042730Y011692D02*
X042130Y011692D01*
X042189Y011668D02*
X042021Y011737D01*
X041839Y011737D01*
X041671Y011668D01*
X041542Y011539D01*
X041473Y011371D01*
X041473Y011189D01*
X041542Y011021D01*
X041671Y010892D01*
X041839Y010823D01*
X042021Y010823D01*
X042189Y010892D01*
X042318Y011021D01*
X042387Y011189D01*
X042387Y011371D01*
X042318Y011539D01*
X042189Y011668D01*
X042320Y011534D02*
X042540Y011534D01*
X042475Y011375D02*
X042385Y011375D01*
X042387Y011217D02*
X042473Y011217D01*
X042527Y011058D02*
X042333Y011058D01*
X042196Y010900D02*
X042664Y010900D01*
X042690Y010741D02*
X041170Y010741D01*
X041196Y010900D02*
X041664Y010900D01*
X041527Y011058D02*
X041333Y011058D01*
X041387Y011217D02*
X041473Y011217D01*
X041475Y011375D02*
X041385Y011375D01*
X041320Y011534D02*
X041540Y011534D01*
X041730Y011692D02*
X041130Y011692D01*
X040730Y011692D02*
X036630Y011692D01*
X036689Y011668D02*
X036521Y011737D01*
X036339Y011737D01*
X036171Y011668D01*
X036042Y011539D01*
X035973Y011371D01*
X035973Y011189D01*
X036042Y011021D01*
X036171Y010892D01*
X036339Y010823D01*
X036521Y010823D01*
X036689Y010892D01*
X036818Y011021D01*
X036887Y011189D01*
X036887Y011371D01*
X036818Y011539D01*
X036689Y011668D01*
X036820Y011534D02*
X040540Y011534D01*
X040475Y011375D02*
X036885Y011375D01*
X036887Y011217D02*
X040473Y011217D01*
X040527Y011058D02*
X036833Y011058D01*
X036696Y010900D02*
X040664Y010900D01*
X040690Y010741D02*
X036142Y010741D01*
X036125Y010750D02*
X036196Y010714D01*
X036260Y010667D01*
X036317Y010610D01*
X036364Y010546D01*
X036400Y010475D01*
X036425Y010399D01*
X036437Y010320D01*
X036437Y010289D01*
X035939Y010289D01*
X035939Y010787D01*
X035970Y010787D01*
X036049Y010775D01*
X036125Y010750D01*
X036164Y010900D02*
X035696Y010900D01*
X035718Y010741D02*
X035620Y010741D01*
X035921Y010741D02*
X035939Y010741D01*
X035939Y010583D02*
X035921Y010583D01*
X035921Y010424D02*
X035939Y010424D01*
X035939Y010271D02*
X036437Y010271D01*
X036437Y010240D01*
X036425Y010161D01*
X036400Y010085D01*
X036364Y010014D01*
X036317Y009950D01*
X036260Y009893D01*
X036196Y009846D01*
X036125Y009810D01*
X036049Y009785D01*
X035970Y009773D01*
X035939Y009773D01*
X035939Y010271D01*
X035939Y010266D02*
X035921Y010266D01*
X035921Y010107D02*
X035939Y010107D01*
X035939Y009949D02*
X035921Y009949D01*
X035921Y009790D02*
X035939Y009790D01*
X036063Y009790D02*
X040301Y009790D01*
X040142Y009632D02*
X035723Y009632D01*
X035755Y009473D02*
X039984Y009473D01*
X039825Y009315D02*
X035717Y009315D01*
X035578Y009156D02*
X039667Y009156D01*
X039508Y008998D02*
X034720Y008998D01*
X034720Y009156D02*
X035182Y009156D01*
X035043Y009315D02*
X034720Y009315D01*
X034720Y009473D02*
X035005Y009473D01*
X035037Y009632D02*
X034720Y009632D01*
X034720Y009790D02*
X035140Y009790D01*
X035620Y009790D02*
X035797Y009790D01*
X036316Y009949D02*
X040115Y009949D01*
X040007Y010107D02*
X036407Y010107D01*
X036437Y010266D02*
X039973Y010266D01*
X039995Y010424D02*
X036416Y010424D01*
X036337Y010583D02*
X040086Y010583D01*
X041774Y010583D02*
X042086Y010583D01*
X041995Y010424D02*
X041865Y010424D01*
X041887Y010266D02*
X041973Y010266D01*
X041942Y010107D02*
X042007Y010107D01*
X041581Y009790D02*
X040979Y009790D01*
X040821Y009632D02*
X041655Y009632D01*
X041710Y009473D02*
X040662Y009473D01*
X040504Y009315D02*
X041875Y009315D01*
X041717Y009156D02*
X040345Y009156D01*
X040187Y008998D02*
X041558Y008998D01*
X041400Y008839D02*
X040028Y008839D01*
X039870Y008681D02*
X041241Y008681D01*
X041083Y008522D02*
X039711Y008522D01*
X039655Y008364D02*
X040924Y008364D01*
X040766Y008205D02*
X039585Y008205D01*
X038975Y008205D02*
X034720Y008205D01*
X034720Y008047D02*
X040607Y008047D01*
X040258Y007888D02*
X034720Y007888D01*
X034720Y007730D02*
X040165Y007730D01*
X040155Y007571D02*
X034878Y007571D01*
X035037Y007413D02*
X040217Y007413D01*
X040843Y007413D02*
X046450Y007413D01*
X046405Y007254D02*
X035195Y007254D01*
X035354Y007096D02*
X046430Y007096D01*
X046543Y006937D02*
X035512Y006937D01*
X034720Y008364D02*
X038905Y008364D01*
X038912Y008522D02*
X034720Y008522D01*
X034720Y008681D02*
X039000Y008681D01*
X039350Y008839D02*
X034720Y008839D01*
X040905Y007571D02*
X046623Y007571D01*
X046491Y007730D02*
X040969Y007730D01*
X041127Y007888D02*
X046333Y007888D01*
X046174Y008047D02*
X041286Y008047D01*
X041444Y008205D02*
X046016Y008205D01*
X045857Y008364D02*
X041603Y008364D01*
X041761Y008522D02*
X045699Y008522D01*
X045540Y008681D02*
X041920Y008681D01*
X042078Y008839D02*
X045382Y008839D01*
X045223Y008998D02*
X042237Y008998D01*
X042395Y009156D02*
X045065Y009156D01*
X044906Y009315D02*
X042554Y009315D01*
X042712Y009473D02*
X044748Y009473D01*
X044589Y009632D02*
X042871Y009632D01*
X043029Y009790D02*
X043297Y009790D01*
X043421Y009790D02*
X043439Y009790D01*
X043439Y009773D02*
X043470Y009773D01*
X043549Y009785D01*
X043625Y009810D01*
X043696Y009846D01*
X043760Y009893D01*
X043817Y009950D01*
X043864Y010014D01*
X043900Y010085D01*
X043925Y010161D01*
X043937Y010240D01*
X043937Y010271D01*
X043439Y010271D01*
X043439Y009773D01*
X043563Y009790D02*
X044431Y009790D01*
X044272Y009949D02*
X043816Y009949D01*
X043907Y010107D02*
X044114Y010107D01*
X043955Y010266D02*
X043937Y010266D01*
X043439Y010266D02*
X043421Y010266D01*
X043421Y010289D02*
X043421Y010787D01*
X043390Y010787D01*
X043311Y010775D01*
X043235Y010750D01*
X043170Y010717D01*
X043170Y010885D01*
X043189Y010892D01*
X043259Y010962D01*
X043439Y010782D01*
X043439Y010289D01*
X043421Y010289D01*
X043421Y010424D02*
X043439Y010424D01*
X043439Y010583D02*
X043421Y010583D01*
X043421Y010741D02*
X043439Y010741D01*
X043321Y010900D02*
X043196Y010900D01*
X043218Y010741D02*
X043170Y010741D01*
X044158Y010741D02*
X048690Y010741D01*
X048664Y010900D02*
X044196Y010900D01*
X044333Y011058D02*
X048527Y011058D01*
X048473Y011217D02*
X044387Y011217D01*
X044385Y011375D02*
X048475Y011375D01*
X048540Y011534D02*
X044320Y011534D01*
X044130Y011692D02*
X048730Y011692D01*
X049130Y011692D02*
X049730Y011692D01*
X049540Y011534D02*
X049320Y011534D01*
X049385Y011375D02*
X049475Y011375D01*
X049473Y011217D02*
X049387Y011217D01*
X049333Y011058D02*
X049527Y011058D01*
X049640Y010900D02*
X049196Y010900D01*
X049170Y010741D02*
X049640Y010741D01*
X050120Y010741D02*
X050690Y010741D01*
X050664Y010900D02*
X050196Y010900D01*
X050333Y011058D02*
X050527Y011058D01*
X050473Y011217D02*
X050387Y011217D01*
X050385Y011375D02*
X050475Y011375D01*
X050540Y011534D02*
X050320Y011534D01*
X050130Y011692D02*
X050730Y011692D01*
X051130Y011692D02*
X051730Y011692D01*
X051671Y011668D02*
X051839Y011737D01*
X052021Y011737D01*
X052189Y011668D01*
X052318Y011539D01*
X052387Y011371D01*
X052387Y011189D01*
X052318Y011021D01*
X052189Y010892D01*
X052021Y010823D01*
X051839Y010823D01*
X051671Y010892D01*
X051542Y011021D01*
X051473Y011189D01*
X051473Y011371D01*
X051542Y011539D01*
X051671Y011668D01*
X051540Y011534D02*
X051320Y011534D01*
X051385Y011375D02*
X051475Y011375D01*
X051473Y011217D02*
X051387Y011217D01*
X051333Y011058D02*
X051527Y011058D01*
X051664Y010900D02*
X051196Y010900D01*
X051218Y010741D02*
X051170Y010741D01*
X051421Y010741D02*
X051439Y010741D01*
X051439Y010787D02*
X051439Y010289D01*
X051937Y010289D01*
X051937Y010320D01*
X051925Y010399D01*
X051900Y010475D01*
X051864Y010546D01*
X051817Y010610D01*
X051760Y010667D01*
X051696Y010714D01*
X051625Y010750D01*
X051549Y010775D01*
X051470Y010787D01*
X051439Y010787D01*
X051421Y010583D02*
X051439Y010583D01*
X051439Y010424D02*
X051421Y010424D01*
X051439Y010271D02*
X051937Y010271D01*
X051937Y010240D01*
X051925Y010161D01*
X051900Y010085D01*
X051864Y010014D01*
X051817Y009950D01*
X051760Y009893D01*
X051696Y009846D01*
X051625Y009810D01*
X051549Y009785D01*
X051470Y009773D01*
X051439Y009773D01*
X051439Y010271D01*
X051439Y010266D02*
X051421Y010266D01*
X051421Y010107D02*
X051439Y010107D01*
X051439Y009949D02*
X051421Y009949D01*
X051421Y009790D02*
X051439Y009790D01*
X051563Y009790D02*
X053206Y009790D01*
X053364Y009632D02*
X051170Y009632D01*
X051170Y009790D02*
X051297Y009790D01*
X051816Y009949D02*
X053047Y009949D01*
X052889Y010107D02*
X051907Y010107D01*
X051937Y010266D02*
X052815Y010266D01*
X052815Y010424D02*
X051916Y010424D01*
X051837Y010583D02*
X052815Y010583D01*
X052815Y010741D02*
X051642Y010741D01*
X052196Y010900D02*
X052815Y010900D01*
X052815Y011058D02*
X052333Y011058D01*
X052387Y011217D02*
X052815Y011217D01*
X052815Y011375D02*
X052385Y011375D01*
X052320Y011534D02*
X052815Y011534D01*
X052815Y011692D02*
X052130Y011692D01*
X052824Y011851D02*
X043699Y011851D01*
X043540Y012009D02*
X052945Y012009D01*
X053103Y012168D02*
X043382Y012168D01*
X043223Y012326D02*
X053262Y012326D01*
X053420Y012485D02*
X043065Y012485D01*
X042906Y012643D02*
X053579Y012643D01*
X053727Y012802D02*
X042748Y012802D01*
X042589Y012960D02*
X044006Y012960D01*
X043909Y013000D02*
X044247Y012860D01*
X044613Y012860D01*
X044951Y013000D01*
X045210Y013259D01*
X045350Y013597D01*
X045350Y013963D01*
X045210Y014301D01*
X044951Y014560D01*
X044613Y014700D01*
X044247Y014700D01*
X043909Y014560D01*
X043650Y014301D01*
X043510Y013963D01*
X043510Y013597D01*
X043650Y013259D01*
X043909Y013000D01*
X043790Y013119D02*
X042431Y013119D01*
X042272Y013277D02*
X043643Y013277D01*
X043577Y013436D02*
X042114Y013436D01*
X041955Y013594D02*
X043511Y013594D01*
X043510Y013753D02*
X041797Y013753D01*
X041638Y013911D02*
X043510Y013911D01*
X043554Y014070D02*
X041480Y014070D01*
X041321Y014228D02*
X043620Y014228D01*
X043735Y014387D02*
X041163Y014387D01*
X041004Y014545D02*
X043894Y014545D01*
X044966Y014545D02*
X047394Y014545D01*
X047409Y014560D02*
X047150Y014301D01*
X047010Y013963D01*
X047010Y013597D01*
X047150Y013259D01*
X047409Y013000D01*
X047747Y012860D01*
X048113Y012860D01*
X048451Y013000D01*
X048710Y013259D01*
X048850Y013597D01*
X048850Y013963D01*
X048710Y014301D01*
X048451Y014560D01*
X048113Y014700D01*
X047747Y014700D01*
X047409Y014560D01*
X047235Y014387D02*
X045125Y014387D01*
X045240Y014228D02*
X047120Y014228D01*
X047054Y014070D02*
X045306Y014070D01*
X045350Y013911D02*
X047010Y013911D01*
X047010Y013753D02*
X045350Y013753D01*
X045349Y013594D02*
X047011Y013594D01*
X047077Y013436D02*
X045283Y013436D01*
X045217Y013277D02*
X047143Y013277D01*
X047290Y013119D02*
X045070Y013119D01*
X044854Y012960D02*
X047506Y012960D01*
X048354Y012960D02*
X052006Y012960D01*
X051790Y013119D02*
X048570Y013119D01*
X048717Y013277D02*
X051643Y013277D01*
X051577Y013436D02*
X048783Y013436D01*
X048849Y013594D02*
X051511Y013594D01*
X051510Y013753D02*
X048850Y013753D01*
X048850Y013911D02*
X051510Y013911D01*
X051554Y014070D02*
X048806Y014070D01*
X048740Y014228D02*
X051620Y014228D01*
X051735Y014387D02*
X048625Y014387D01*
X048466Y014545D02*
X051894Y014545D01*
X053306Y014070D02*
X053376Y014070D01*
X053350Y013911D02*
X053535Y013911D01*
X053693Y013753D02*
X053350Y013753D01*
X053349Y013594D02*
X053852Y013594D01*
X054010Y013436D02*
X053283Y013436D01*
X053217Y013277D02*
X054010Y013277D01*
X054010Y013119D02*
X053070Y013119D01*
X052854Y012960D02*
X054010Y012960D01*
X053640Y012026D02*
X053640Y011845D01*
X053705Y011780D01*
X053640Y011715D01*
X053640Y011345D01*
X053670Y011315D01*
X053641Y011287D01*
X053616Y011249D01*
X053599Y011207D01*
X053590Y011163D01*
X053590Y011030D01*
X054250Y011030D01*
X054250Y010690D01*
X054690Y010690D01*
X054690Y009820D01*
X053854Y009820D01*
X053295Y010379D01*
X053295Y011681D01*
X053640Y012026D01*
X053640Y012009D02*
X053623Y012009D01*
X053640Y011851D02*
X053465Y011851D01*
X053306Y011692D02*
X053640Y011692D01*
X053640Y011534D02*
X053295Y011534D01*
X053295Y011375D02*
X053640Y011375D01*
X053603Y011217D02*
X053295Y011217D01*
X053295Y011058D02*
X053590Y011058D01*
X053590Y011030D02*
X053590Y010897D01*
X053599Y010853D01*
X053616Y010811D01*
X053641Y010773D01*
X053673Y010741D01*
X053711Y010716D01*
X053753Y010699D01*
X053797Y010690D01*
X054250Y010690D01*
X054250Y011030D01*
X054250Y011030D01*
X054250Y011030D01*
X053590Y011030D01*
X053590Y010900D02*
X053295Y010900D01*
X053295Y010741D02*
X053674Y010741D01*
X053295Y010583D02*
X054690Y010583D01*
X054690Y010424D02*
X053295Y010424D01*
X053409Y010266D02*
X054690Y010266D01*
X054690Y010107D02*
X053567Y010107D01*
X053726Y009949D02*
X054690Y009949D01*
X053523Y009473D02*
X051170Y009473D01*
X051170Y009315D02*
X053055Y009315D01*
X052948Y009156D02*
X051170Y009156D01*
X051170Y008998D02*
X052927Y008998D01*
X052975Y008839D02*
X051170Y008839D01*
X051170Y008681D02*
X053046Y008681D01*
X052944Y008522D02*
X051170Y008522D01*
X051170Y008364D02*
X052927Y008364D01*
X052979Y008205D02*
X051170Y008205D01*
X051170Y008047D02*
X053182Y008047D01*
X053428Y008047D02*
X053590Y008047D01*
X053590Y008030D02*
X053590Y007897D01*
X053599Y007853D01*
X053616Y007811D01*
X053641Y007773D01*
X053673Y007741D01*
X053711Y007716D01*
X053753Y007699D01*
X053797Y007690D01*
X054250Y007690D01*
X054250Y008030D01*
X054250Y008030D01*
X054250Y008030D01*
X053590Y008030D01*
X053592Y007888D02*
X051127Y007888D01*
X050969Y007730D02*
X053691Y007730D01*
X054250Y007730D02*
X054250Y007730D01*
X054250Y007888D02*
X054250Y007888D01*
X055420Y006620D02*
X058067Y006620D01*
X058046Y006599D02*
X058101Y006654D01*
X058163Y006699D01*
X058232Y006734D01*
X058305Y006758D01*
X058381Y006770D01*
X058680Y006770D01*
X058680Y006280D01*
X058680Y006280D01*
X059430Y006280D01*
X059430Y006319D01*
X059418Y006395D01*
X059394Y006468D01*
X059359Y006537D01*
X059314Y006599D01*
X059259Y006654D01*
X059197Y006699D01*
X059128Y006734D01*
X059055Y006758D01*
X058979Y006770D01*
X058680Y006770D01*
X058680Y006280D01*
X058680Y006280D01*
X058680Y005790D01*
X058979Y005790D01*
X059055Y005802D01*
X059128Y005826D01*
X059197Y005861D01*
X059259Y005906D01*
X059314Y005961D01*
X059359Y006023D01*
X059394Y006092D01*
X059418Y006165D01*
X059430Y006241D01*
X059430Y006280D01*
X058680Y006280D01*
X058680Y006280D01*
X058680Y006280D01*
X057930Y006280D01*
X057930Y006319D01*
X057942Y006395D01*
X057966Y006468D01*
X058001Y006537D01*
X058046Y006599D01*
X057964Y006462D02*
X055420Y006462D01*
X056569Y006303D02*
X057930Y006303D01*
X057930Y006280D02*
X057930Y006241D01*
X057942Y006165D01*
X057966Y006092D01*
X058001Y006023D01*
X058046Y005961D01*
X058101Y005906D01*
X058163Y005861D01*
X058232Y005826D01*
X058305Y005802D01*
X058381Y005790D01*
X058680Y005790D01*
X058680Y006280D01*
X057930Y006280D01*
X057949Y006145D02*
X056755Y006145D01*
X056913Y005986D02*
X058028Y005986D01*
X058229Y005828D02*
X057072Y005828D01*
X057230Y005669D02*
X058209Y005669D01*
X058039Y005511D02*
X057389Y005511D01*
X057547Y005352D02*
X057980Y005352D01*
X057980Y005194D02*
X057693Y005194D01*
X057720Y005035D02*
X058045Y005035D01*
X058244Y004877D02*
X057720Y004877D01*
X057720Y004718D02*
X058250Y004718D01*
X058250Y004560D02*
X057720Y004560D01*
X057720Y004401D02*
X058250Y004401D01*
X058250Y004243D02*
X057720Y004243D01*
X057720Y004084D02*
X058250Y004084D01*
X058250Y003926D02*
X057720Y003926D01*
X057720Y003767D02*
X058184Y003767D01*
X058025Y003609D02*
X057720Y003609D01*
X057720Y003450D02*
X057867Y003450D01*
X056940Y003609D02*
X056571Y003609D01*
X056613Y003767D02*
X056940Y003767D01*
X056940Y003926D02*
X056655Y003926D01*
X056659Y004084D02*
X056940Y004084D01*
X056940Y004243D02*
X056659Y004243D01*
X056632Y004401D02*
X056940Y004401D01*
X056940Y004560D02*
X056589Y004560D01*
X056524Y004718D02*
X056940Y004718D01*
X056844Y004877D02*
X056432Y004877D01*
X056307Y005035D02*
X056686Y005035D01*
X056527Y005194D02*
X056148Y005194D01*
X056369Y005352D02*
X055884Y005352D01*
X056210Y005511D02*
X053563Y005511D01*
X053572Y005504D02*
X053498Y005558D01*
X053416Y005600D01*
X053329Y005628D01*
X053238Y005642D01*
X052878Y005642D01*
X052878Y005098D01*
X053775Y005098D01*
X053775Y005106D01*
X053761Y005196D01*
X053732Y005284D01*
X053691Y005365D01*
X053637Y005439D01*
X053572Y005504D01*
X053697Y005352D02*
X054712Y005352D01*
X054448Y005194D02*
X053761Y005194D01*
X052878Y005194D02*
X052802Y005194D01*
X052802Y005352D02*
X052878Y005352D01*
X052878Y005511D02*
X052802Y005511D01*
X052802Y004877D02*
X052878Y004877D01*
X052878Y004718D02*
X052802Y004718D01*
X052802Y004560D02*
X052878Y004560D01*
X053937Y004243D02*
X037820Y004243D01*
X037820Y004084D02*
X053937Y004084D01*
X053941Y003926D02*
X037796Y003926D01*
X037656Y003767D02*
X053983Y003767D01*
X054026Y003609D02*
X053356Y003609D01*
X053298Y003632D02*
X053494Y003551D01*
X053644Y003402D01*
X053725Y003206D01*
X053725Y002994D01*
X053644Y002798D01*
X053494Y002649D01*
X053298Y002568D01*
X052382Y002568D01*
X052186Y002649D01*
X052036Y002798D01*
X051955Y002994D01*
X051955Y003206D01*
X052036Y003402D01*
X052186Y003551D01*
X052382Y003632D01*
X053298Y003632D01*
X053596Y003450D02*
X054112Y003450D01*
X054204Y003292D02*
X053690Y003292D01*
X053725Y003133D02*
X054359Y003133D01*
X054558Y002975D02*
X053717Y002975D01*
X053651Y002816D02*
X054901Y002816D01*
X055696Y002816D02*
X056177Y002816D01*
X056039Y002975D02*
X056335Y002975D01*
X056237Y003133D02*
X056494Y003133D01*
X056392Y003292D02*
X056652Y003292D01*
X056811Y003450D02*
X056484Y003450D01*
X058449Y002816D02*
X060605Y002816D01*
X060605Y002658D02*
X058291Y002658D01*
X058132Y002499D02*
X060605Y002499D01*
X060605Y002341D02*
X057974Y002341D01*
X057815Y002182D02*
X060605Y002182D01*
X060605Y002024D02*
X057657Y002024D01*
X057498Y001865D02*
X060605Y001865D01*
X060605Y001707D02*
X057340Y001707D01*
X057181Y001548D02*
X060605Y001548D01*
X060605Y001390D02*
X057023Y001390D01*
X056864Y001231D02*
X060605Y001231D01*
X060605Y001073D02*
X056706Y001073D01*
X056547Y000914D02*
X060605Y000914D01*
X060605Y000756D02*
X056389Y000756D01*
X056230Y000597D02*
X060605Y000597D01*
X055543Y002182D02*
X051014Y002182D01*
X051015Y002341D02*
X055701Y002341D01*
X055860Y002499D02*
X050989Y002499D01*
X050923Y002658D02*
X052177Y002658D01*
X052029Y002816D02*
X050772Y002816D01*
X049988Y002816D02*
X048731Y002816D01*
X048724Y002798D02*
X048805Y002994D01*
X048805Y003206D01*
X048724Y003402D01*
X048574Y003551D01*
X048378Y003632D01*
X047462Y003632D01*
X047266Y003551D01*
X047116Y003402D01*
X047080Y003315D01*
X047044Y003402D01*
X046894Y003551D01*
X046698Y003632D01*
X045782Y003632D01*
X045586Y003551D01*
X045436Y003402D01*
X045355Y003206D01*
X045355Y002994D01*
X045436Y002798D01*
X045586Y002649D01*
X045782Y002568D01*
X046698Y002568D01*
X046894Y002649D01*
X047044Y002798D01*
X047080Y002885D01*
X047116Y002798D01*
X047266Y002649D01*
X047462Y002568D01*
X048378Y002568D01*
X048574Y002649D01*
X048724Y002798D01*
X048797Y002975D02*
X051963Y002975D01*
X051955Y003133D02*
X048805Y003133D01*
X048770Y003292D02*
X051990Y003292D01*
X052084Y003450D02*
X048676Y003450D01*
X048436Y003609D02*
X052324Y003609D01*
X053503Y002658D02*
X056018Y002658D01*
X055384Y002024D02*
X050949Y002024D01*
X050833Y001865D02*
X055226Y001865D01*
X058608Y002975D02*
X060605Y002975D01*
X060605Y003133D02*
X058766Y003133D01*
X058925Y003292D02*
X060605Y003292D01*
X060605Y003450D02*
X059061Y003450D01*
X059110Y003609D02*
X060605Y003609D01*
X060605Y003767D02*
X059110Y003767D01*
X059110Y003926D02*
X060605Y003926D01*
X060605Y004084D02*
X059110Y004084D01*
X059110Y004243D02*
X060605Y004243D01*
X060605Y004401D02*
X059110Y004401D01*
X059110Y004560D02*
X060605Y004560D01*
X060605Y004718D02*
X059110Y004718D01*
X059116Y004877D02*
X060605Y004877D01*
X060605Y005035D02*
X059315Y005035D01*
X059380Y005194D02*
X060605Y005194D01*
X060605Y005352D02*
X059380Y005352D01*
X059321Y005511D02*
X060605Y005511D01*
X060605Y005669D02*
X059151Y005669D01*
X059131Y005828D02*
X060605Y005828D01*
X060605Y005986D02*
X059332Y005986D01*
X059411Y006145D02*
X060605Y006145D01*
X060605Y006303D02*
X059430Y006303D01*
X059396Y006462D02*
X060605Y006462D01*
X060605Y006620D02*
X059293Y006620D01*
X058680Y006620D02*
X058680Y006620D01*
X058680Y006462D02*
X058680Y006462D01*
X058680Y006303D02*
X058680Y006303D01*
X058680Y006145D02*
X058680Y006145D01*
X058680Y005986D02*
X058680Y005986D01*
X058680Y005828D02*
X058680Y005828D01*
X049935Y006303D02*
X049683Y006303D01*
X049575Y006145D02*
X049815Y006145D01*
X049749Y005986D02*
X048675Y005986D01*
X048517Y005828D02*
X049745Y005828D01*
X049768Y005669D02*
X048358Y005669D01*
X048643Y005511D02*
X049833Y005511D01*
X047997Y005986D02*
X044411Y005986D01*
X044415Y005828D02*
X047838Y005828D01*
X048155Y006145D02*
X044345Y006145D01*
X044225Y006303D02*
X048314Y006303D01*
X048472Y006462D02*
X043963Y006462D01*
X043233Y005511D02*
X042043Y005511D01*
X042177Y005352D02*
X043380Y005352D01*
X044333Y005194D02*
X045319Y005194D01*
X048834Y006145D02*
X049085Y006145D01*
X048631Y006620D02*
X048200Y006620D01*
X048318Y006779D02*
X048789Y006779D01*
X048948Y006937D02*
X048320Y006937D01*
X048320Y007096D02*
X049106Y007096D01*
X049265Y007254D02*
X048320Y007254D01*
X048320Y007413D02*
X049423Y007413D01*
X049582Y007571D02*
X048320Y007571D01*
X048320Y007730D02*
X049740Y007730D01*
X049840Y007888D02*
X048320Y007888D01*
X048320Y008047D02*
X049840Y008047D01*
X049840Y008205D02*
X048320Y008205D01*
X048320Y008364D02*
X049840Y008364D01*
X049840Y008522D02*
X048320Y008522D01*
X048320Y008681D02*
X049840Y008681D01*
X049840Y008839D02*
X048320Y008839D01*
X048320Y008998D02*
X049840Y008998D01*
X049482Y009156D02*
X048320Y009156D01*
X048454Y009315D02*
X049343Y009315D01*
X049305Y009473D02*
X048612Y009473D01*
X048771Y009632D02*
X049337Y009632D01*
X049440Y009790D02*
X048929Y009790D01*
X049088Y009949D02*
X049115Y009949D01*
X048251Y009790D02*
X045109Y009790D01*
X044951Y009949D02*
X048115Y009949D01*
X048007Y010107D02*
X044792Y010107D01*
X044634Y010266D02*
X047973Y010266D01*
X047995Y010424D02*
X044475Y010424D01*
X044317Y010583D02*
X048086Y010583D01*
X048092Y009632D02*
X045268Y009632D01*
X045426Y009473D02*
X047934Y009473D01*
X047840Y009315D02*
X045585Y009315D01*
X045743Y009156D02*
X047840Y009156D01*
X047840Y008998D02*
X045902Y008998D01*
X046060Y008839D02*
X047840Y008839D01*
X047840Y008681D02*
X046219Y008681D01*
X046377Y008522D02*
X047840Y008522D01*
X047840Y008364D02*
X046536Y008364D01*
X046694Y008205D02*
X047840Y008205D01*
X047840Y008047D02*
X046853Y008047D01*
X047011Y007888D02*
X047840Y007888D01*
X047840Y007730D02*
X047170Y007730D01*
X047487Y007571D02*
X047840Y007571D01*
X047840Y007413D02*
X047660Y007413D01*
X047705Y007254D02*
X047840Y007254D01*
X047840Y007096D02*
X047680Y007096D01*
X041358Y005511D02*
X041282Y005511D01*
X041282Y005352D02*
X041358Y005352D01*
X041358Y005194D02*
X041282Y005194D01*
X037429Y004718D02*
X037387Y004718D01*
X037498Y003609D02*
X040804Y003609D01*
X041836Y003609D02*
X045724Y003609D01*
X045484Y003450D02*
X042076Y003450D01*
X042170Y003292D02*
X045390Y003292D01*
X045355Y003133D02*
X042205Y003133D01*
X042197Y002975D02*
X045363Y002975D01*
X045429Y002816D02*
X044172Y002816D01*
X044323Y002658D02*
X045577Y002658D01*
X044389Y002499D02*
X049771Y002499D01*
X049745Y002341D02*
X044415Y002341D01*
X044414Y002182D02*
X049746Y002182D01*
X049811Y002024D02*
X044349Y002024D01*
X044233Y001865D02*
X049927Y001865D01*
X049837Y002658D02*
X048583Y002658D01*
X047257Y002658D02*
X046903Y002658D01*
X047051Y002816D02*
X047109Y002816D01*
X047164Y003450D02*
X046996Y003450D01*
X046756Y003609D02*
X047404Y003609D01*
X043388Y002816D02*
X042131Y002816D01*
X041983Y002658D02*
X043237Y002658D01*
X043171Y002499D02*
X039603Y002499D01*
X039598Y002515D02*
X039554Y002601D01*
X039497Y002679D01*
X039429Y002747D01*
X039351Y002804D01*
X039265Y002848D01*
X039173Y002877D01*
X039078Y002892D01*
X039078Y002892D01*
X039078Y002328D01*
X039642Y002328D01*
X039627Y002423D01*
X039598Y002515D01*
X039513Y002658D02*
X040657Y002658D01*
X040509Y002816D02*
X039327Y002816D01*
X039078Y002816D02*
X038982Y002816D01*
X038982Y002892D02*
X038982Y002892D01*
X038982Y002658D02*
X039078Y002658D01*
X039078Y002499D02*
X038982Y002499D01*
X038982Y002341D02*
X039078Y002341D01*
X039641Y002341D02*
X043145Y002341D01*
X043146Y002182D02*
X039635Y002182D01*
X039642Y002328D02*
X039642Y002328D01*
X039587Y002024D02*
X043211Y002024D01*
X043327Y001865D02*
X039481Y001865D01*
X038579Y001865D02*
X035481Y001865D01*
X035587Y002024D02*
X038473Y002024D01*
X038425Y002182D02*
X035635Y002182D01*
X035642Y002328D02*
X035642Y002328D01*
X035627Y002423D01*
X035598Y002515D01*
X035554Y002601D01*
X035497Y002679D01*
X035429Y002747D01*
X035351Y002804D01*
X035265Y002848D01*
X035173Y002877D01*
X035078Y002892D01*
X035078Y002892D01*
X035078Y002328D01*
X035642Y002328D01*
X035641Y002341D02*
X038419Y002341D01*
X038418Y002232D02*
X038418Y002232D01*
X038457Y002499D02*
X035603Y002499D01*
X035513Y002658D02*
X038547Y002658D01*
X038733Y002816D02*
X035327Y002816D01*
X035078Y002816D02*
X034982Y002816D01*
X034982Y002892D02*
X034982Y002892D01*
X034982Y002658D02*
X035078Y002658D01*
X035078Y002499D02*
X034982Y002499D01*
X034982Y002341D02*
X035078Y002341D01*
X037483Y003594D02*
X037483Y003594D01*
X027753Y001865D02*
X027620Y001865D01*
X027620Y002024D02*
X027687Y002024D01*
X027668Y002132D02*
X027668Y002132D01*
X026740Y002499D02*
X022659Y002499D01*
X020200Y002816D02*
X020160Y002816D01*
X020160Y002975D02*
X020200Y002975D01*
X020200Y003133D02*
X020160Y003133D01*
X020160Y003292D02*
X020200Y003292D01*
X020390Y003450D02*
X018520Y003450D01*
X018520Y003292D02*
X018978Y003292D01*
X018755Y003133D02*
X018605Y003133D01*
X017978Y003292D02*
X017382Y003292D01*
X017605Y003133D02*
X017755Y003133D01*
X018520Y003609D02*
X020390Y003609D01*
X020390Y003767D02*
X018520Y003767D01*
X018520Y003926D02*
X020390Y003926D01*
X020413Y004084D02*
X018520Y004084D01*
X018520Y004243D02*
X020553Y004243D01*
X020595Y004401D02*
X020712Y004401D01*
X020697Y004560D02*
X020663Y004560D01*
X020663Y004718D02*
X020697Y004718D01*
X020697Y004877D02*
X020663Y004877D01*
X020663Y005035D02*
X020697Y005035D01*
X020800Y005194D02*
X020560Y005194D01*
X020815Y005352D02*
X019934Y005352D01*
X019934Y005194D02*
X020091Y005194D01*
X019988Y005035D02*
X019934Y005035D01*
X019300Y005194D02*
X019131Y005194D01*
X018826Y005194D02*
X018826Y005194D01*
X018826Y005035D02*
X018826Y005035D01*
X018826Y004877D02*
X018826Y004877D01*
X018826Y004718D02*
X018826Y004718D01*
X018826Y004560D02*
X018826Y004560D01*
X018826Y004401D02*
X018826Y004401D01*
X019164Y004401D02*
X019265Y004401D01*
X019804Y004401D02*
X020056Y004401D01*
X019197Y004780D02*
X019197Y004780D01*
X019454Y005352D02*
X018633Y005352D01*
X018655Y005511D02*
X019454Y005511D01*
X019454Y005669D02*
X018608Y005669D01*
X018421Y005828D02*
X019454Y005828D01*
X019454Y005986D02*
X014266Y005986D01*
X014633Y006145D02*
X014729Y006145D01*
X014729Y006303D02*
X014633Y006303D01*
X014633Y006462D02*
X014729Y006462D01*
X015849Y006145D02*
X016136Y006145D01*
X016550Y006145D02*
X016550Y006145D01*
X016550Y006065D02*
X016550Y006590D01*
X016550Y006590D01*
X016550Y007115D01*
X016570Y007115D01*
X016570Y007514D01*
X016568Y007520D01*
X016570Y007562D01*
X016570Y007581D01*
X016550Y007573D01*
X016506Y007564D01*
X016326Y007564D01*
X016326Y008030D01*
X016326Y008030D01*
X016326Y008030D01*
X016326Y008496D01*
X016506Y008496D01*
X016550Y008487D01*
X016592Y008470D01*
X016630Y008445D01*
X016662Y008413D01*
X016687Y008375D01*
X016700Y008344D01*
X016802Y008446D01*
X017266Y008446D01*
X017372Y008341D01*
X017372Y008157D01*
X017725Y008020D01*
X017728Y008020D01*
X017769Y008003D01*
X017811Y007987D01*
X017813Y007985D01*
X017816Y007983D01*
X017848Y007952D01*
X017880Y007921D01*
X017881Y007918D01*
X017883Y007916D01*
X017901Y007874D01*
X017919Y007833D01*
X017919Y007830D01*
X017920Y007828D01*
X017920Y007783D01*
X017921Y007738D01*
X017920Y007735D01*
X017920Y006879D01*
X018154Y006645D01*
X018200Y006645D01*
X018200Y006780D01*
X018666Y006780D01*
X019091Y006780D01*
X019091Y006780D01*
X018666Y006780D01*
X018666Y006780D01*
X018666Y006780D01*
X018200Y006780D01*
X018200Y006921D01*
X018208Y006965D01*
X018226Y007007D01*
X018250Y007043D01*
X018250Y007347D01*
X018355Y007452D01*
X018977Y007452D01*
X019034Y007395D01*
X019103Y007395D01*
X019191Y007358D01*
X019278Y007271D01*
X019278Y007347D01*
X019383Y007452D01*
X019440Y007452D01*
X019440Y008240D01*
X018779Y008240D01*
X018766Y008227D01*
X018678Y008190D01*
X018070Y008190D01*
X017992Y008112D01*
X017855Y008055D01*
X017705Y008055D01*
X017568Y008112D01*
X017462Y008218D01*
X017405Y008355D01*
X017405Y008505D01*
X017462Y008642D01*
X017550Y008730D01*
X017462Y008818D01*
X017405Y008955D01*
X017405Y009055D01*
X017268Y009112D01*
X017162Y009218D01*
X017105Y009355D01*
X017105Y009505D01*
X017162Y009642D01*
X017268Y009748D01*
X017405Y009805D01*
X017405Y009905D01*
X017462Y010042D01*
X017500Y010080D01*
X017462Y010118D01*
X017405Y010255D01*
X017405Y010405D01*
X017462Y010542D01*
X017568Y010648D01*
X017705Y010705D01*
X017855Y010705D01*
X017992Y010648D01*
X018070Y010570D01*
X019240Y010570D01*
X019318Y010648D01*
X019455Y010705D01*
X019605Y010705D01*
X019742Y010648D01*
X019848Y010542D01*
X019905Y010405D01*
X019905Y010255D01*
X019848Y010118D01*
X019835Y010105D01*
X019898Y010042D01*
X019955Y009905D01*
X019955Y009805D01*
X020040Y009770D01*
X020040Y010531D01*
X018955Y011616D01*
X018955Y011555D01*
X018898Y011418D01*
X018792Y011312D01*
X018775Y011305D01*
X018792Y011298D01*
X018898Y011192D01*
X018955Y011055D01*
X018955Y010905D01*
X018898Y010768D01*
X018792Y010662D01*
X018655Y010605D01*
X018505Y010605D01*
X018368Y010662D01*
X018290Y010740D01*
X017732Y010740D01*
X017644Y010777D01*
X017577Y010844D01*
X017540Y010932D01*
X017540Y010940D01*
X017462Y011018D01*
X017405Y011155D01*
X017405Y011305D01*
X017440Y011390D01*
X011809Y011390D01*
X014133Y009066D01*
X014170Y008978D01*
X014170Y008179D01*
X015344Y007005D01*
X015759Y007005D01*
X015865Y006900D01*
X015865Y006770D01*
X016060Y006770D01*
X016060Y006960D01*
X016165Y007065D01*
X016345Y007065D01*
X016381Y007089D01*
X016423Y007106D01*
X016467Y007115D01*
X016550Y007115D01*
X016550Y006590D01*
X016550Y006590D01*
X016550Y006065D01*
X016550Y006303D02*
X016550Y006303D01*
X016550Y006462D02*
X016550Y006462D01*
X016550Y006620D02*
X016550Y006620D01*
X016550Y006779D02*
X016550Y006779D01*
X016550Y006937D02*
X016550Y006937D01*
X016550Y007096D02*
X016550Y007096D01*
X016397Y007096D02*
X015254Y007096D01*
X015095Y007254D02*
X016570Y007254D01*
X016570Y007413D02*
X014937Y007413D01*
X014778Y007571D02*
X016109Y007571D01*
X016101Y007573D02*
X016146Y007564D01*
X016326Y007564D01*
X016326Y008030D01*
X016326Y008496D01*
X016146Y008496D01*
X016101Y008487D01*
X016059Y008470D01*
X016022Y008445D01*
X015990Y008413D01*
X015964Y008375D01*
X015947Y008333D01*
X015938Y008289D01*
X015938Y008030D01*
X016326Y008030D01*
X015938Y008030D01*
X015938Y007771D01*
X015947Y007727D01*
X015964Y007685D01*
X015990Y007647D01*
X016022Y007615D01*
X016059Y007590D01*
X016101Y007573D01*
X015946Y007730D02*
X014620Y007730D01*
X014461Y007888D02*
X015938Y007888D01*
X015938Y008047D02*
X014303Y008047D01*
X014170Y008205D02*
X015938Y008205D01*
X015960Y008364D02*
X014170Y008364D01*
X014170Y008522D02*
X017412Y008522D01*
X017405Y008364D02*
X017349Y008364D01*
X017372Y008205D02*
X017475Y008205D01*
X017656Y008047D02*
X019440Y008047D01*
X019440Y008205D02*
X018714Y008205D01*
X019440Y007888D02*
X017895Y007888D01*
X017920Y007730D02*
X019440Y007730D01*
X019440Y007571D02*
X017920Y007571D01*
X017920Y007413D02*
X018315Y007413D01*
X018250Y007254D02*
X017920Y007254D01*
X017920Y007096D02*
X018250Y007096D01*
X018203Y006937D02*
X017920Y006937D01*
X018021Y006779D02*
X018200Y006779D01*
X017659Y006462D02*
X017300Y006462D01*
X017300Y006620D02*
X017501Y006620D01*
X017440Y006779D02*
X017300Y006779D01*
X017401Y006937D02*
X017440Y006937D01*
X016060Y006937D02*
X015828Y006937D01*
X015865Y006779D02*
X016060Y006779D01*
X017300Y006303D02*
X017818Y006303D01*
X018318Y006145D02*
X017224Y006145D01*
X017952Y005669D02*
X013971Y005669D01*
X013794Y005986D02*
X013463Y005986D01*
X013622Y005828D02*
X018139Y005828D01*
X019013Y006145D02*
X019347Y006145D01*
X019278Y006303D02*
X019082Y006303D01*
X019082Y006462D02*
X019278Y006462D01*
X019251Y006620D02*
X019128Y006620D01*
X020110Y006462D02*
X020159Y006462D01*
X020110Y006303D02*
X020318Y006303D01*
X020476Y006145D02*
X020042Y006145D01*
X019934Y005986D02*
X020635Y005986D01*
X020793Y005828D02*
X019934Y005828D01*
X019934Y005669D02*
X020815Y005669D01*
X020815Y005511D02*
X019934Y005511D01*
X020996Y006303D02*
X021114Y006303D01*
X021055Y006244D02*
X020495Y006805D01*
X021136Y006805D01*
X021145Y006813D01*
X021151Y006806D01*
X021189Y006781D01*
X021231Y006764D01*
X021275Y006755D01*
X021506Y006755D01*
X021506Y007232D01*
X021602Y007232D01*
X021602Y006791D01*
X021055Y006244D01*
X020838Y006462D02*
X021272Y006462D01*
X021431Y006620D02*
X020679Y006620D01*
X020521Y006779D02*
X021195Y006779D01*
X021506Y006779D02*
X021589Y006779D01*
X021602Y006937D02*
X021506Y006937D01*
X021506Y007096D02*
X021602Y007096D01*
X021602Y007328D02*
X021506Y007328D01*
X021506Y007805D01*
X021370Y007805D01*
X021370Y008331D01*
X022394Y009355D01*
X022505Y009355D01*
X022590Y009390D01*
X022590Y008220D01*
X022505Y008255D01*
X022355Y008255D01*
X022218Y008198D01*
X022112Y008092D01*
X022055Y007955D01*
X022055Y007844D01*
X021961Y007750D01*
X021957Y007754D01*
X021919Y007779D01*
X021877Y007796D01*
X021833Y007805D01*
X021602Y007805D01*
X021602Y007328D01*
X021602Y007413D02*
X021506Y007413D01*
X021506Y007571D02*
X021602Y007571D01*
X021602Y007730D02*
X021506Y007730D01*
X021370Y007888D02*
X022055Y007888D01*
X022093Y008047D02*
X021370Y008047D01*
X021370Y008205D02*
X022235Y008205D01*
X022590Y008364D02*
X021403Y008364D01*
X021561Y008522D02*
X022590Y008522D01*
X022590Y008681D02*
X021720Y008681D01*
X021878Y008839D02*
X022590Y008839D01*
X022590Y008998D02*
X022037Y008998D01*
X022195Y009156D02*
X022590Y009156D01*
X022590Y009315D02*
X022354Y009315D01*
X020040Y009790D02*
X019991Y009790D01*
X020040Y009949D02*
X019937Y009949D01*
X019837Y010107D02*
X020040Y010107D01*
X020040Y010266D02*
X019905Y010266D01*
X019897Y010424D02*
X020040Y010424D01*
X019988Y010583D02*
X019808Y010583D01*
X019830Y010741D02*
X018871Y010741D01*
X018953Y010900D02*
X019671Y010900D01*
X019513Y011058D02*
X018954Y011058D01*
X018874Y011217D02*
X019354Y011217D01*
X019196Y011375D02*
X018855Y011375D01*
X018946Y011534D02*
X019037Y011534D01*
X017434Y011375D02*
X011824Y011375D01*
X011983Y011217D02*
X017405Y011217D01*
X017445Y011058D02*
X012141Y011058D01*
X012300Y010900D02*
X017554Y010900D01*
X017730Y010741D02*
X012458Y010741D01*
X012617Y010583D02*
X017502Y010583D01*
X017413Y010424D02*
X012775Y010424D01*
X012934Y010266D02*
X017405Y010266D01*
X017473Y010107D02*
X013092Y010107D01*
X013251Y009949D02*
X017423Y009949D01*
X017369Y009790D02*
X013409Y009790D01*
X013568Y009632D02*
X017158Y009632D01*
X017105Y009473D02*
X013726Y009473D01*
X013885Y009315D02*
X017122Y009315D01*
X017224Y009156D02*
X014043Y009156D01*
X014162Y008998D02*
X017405Y008998D01*
X017453Y008839D02*
X014170Y008839D01*
X014170Y008681D02*
X017500Y008681D01*
X016720Y008364D02*
X016692Y008364D01*
X016326Y008364D02*
X016326Y008364D01*
X016326Y008205D02*
X016326Y008205D01*
X016326Y008047D02*
X016326Y008047D01*
X016326Y008030D02*
X016326Y008030D01*
X016326Y007888D02*
X016326Y007888D01*
X016326Y007730D02*
X016326Y007730D01*
X016326Y007571D02*
X016326Y007571D01*
X016542Y007571D02*
X016570Y007571D01*
X019016Y007413D02*
X019344Y007413D01*
X013850Y007413D02*
X013187Y007413D01*
X013345Y007254D02*
X013805Y007254D01*
X013830Y007096D02*
X013504Y007096D01*
X016300Y005352D02*
X016300Y005352D01*
X016300Y005194D02*
X016300Y005194D01*
X016300Y005035D02*
X016300Y005035D01*
X017060Y005035D02*
X017060Y005035D01*
X017060Y004970D02*
X017060Y004445D01*
X017060Y004970D01*
X017060Y004970D01*
X017060Y004877D02*
X017060Y004877D01*
X017060Y004718D02*
X017060Y004718D01*
X017060Y004560D02*
X017060Y004560D01*
X017060Y005194D02*
X017060Y005194D01*
X017060Y005352D02*
X017060Y005352D01*
X013180Y004877D02*
X013180Y004877D01*
X013180Y004718D02*
X013180Y004718D01*
X013180Y004560D02*
X013180Y004560D01*
X013180Y004401D02*
X013180Y004401D01*
X019382Y003292D02*
X019863Y003292D01*
X019695Y003133D02*
X019605Y003133D01*
X004381Y003133D02*
X004381Y003133D01*
X004381Y002975D02*
X004381Y002975D01*
X004381Y002816D02*
X004381Y002816D01*
X004381Y002646D02*
X003985Y002646D01*
X003895Y002660D01*
X003808Y002688D01*
X003727Y002730D01*
X003653Y002783D01*
X003588Y002848D01*
X003535Y002922D01*
X003493Y003003D01*
X003465Y003090D01*
X003508Y002975D02*
X000460Y002975D01*
X000460Y002816D02*
X003620Y002816D01*
X003912Y002658D02*
X000460Y002658D01*
X003959Y008998D02*
X004119Y008998D01*
X004119Y009156D02*
X003959Y009156D01*
X003959Y009315D02*
X004119Y009315D01*
X004119Y009473D02*
X003959Y009473D01*
X003959Y009632D02*
X004119Y009632D01*
X004119Y009790D02*
X003959Y009790D01*
X003959Y009949D02*
X004119Y009949D01*
X003959Y010107D02*
X000460Y010107D01*
X000460Y009949D02*
X002589Y009949D01*
X002589Y010266D02*
X000460Y010266D01*
X000460Y010424D02*
X002589Y010424D01*
X003959Y010424D02*
X004119Y010424D01*
X004119Y010266D02*
X003959Y010266D01*
X003959Y010583D02*
X004119Y010583D01*
X004119Y010741D02*
X003959Y010741D01*
X003959Y010900D02*
X004119Y010900D01*
X004119Y011058D02*
X003959Y011058D01*
X003959Y011217D02*
X004119Y011217D01*
X004119Y011375D02*
X003959Y011375D01*
X005428Y011375D02*
X005488Y011375D01*
X002684Y012168D02*
X002529Y012168D01*
X002529Y012326D02*
X002684Y012326D01*
X002684Y012485D02*
X002529Y012485D01*
X002684Y012643D02*
X009878Y012643D01*
X009200Y013911D02*
X009160Y013911D01*
X009160Y014070D02*
X009200Y014070D01*
X009200Y014228D02*
X009160Y014228D01*
X008779Y014228D02*
X008510Y014228D01*
X008420Y014387D02*
X015940Y014387D01*
X016006Y014545D02*
X008420Y014545D01*
X009581Y014228D02*
X009850Y014228D01*
X010510Y014228D02*
X010850Y014228D01*
X010705Y014070D02*
X010655Y014070D01*
X011510Y014228D02*
X011850Y014228D01*
X011705Y014070D02*
X011655Y014070D01*
X012510Y014228D02*
X012850Y014228D01*
X012705Y014070D02*
X012655Y014070D01*
X013510Y014228D02*
X013850Y014228D01*
X013705Y014070D02*
X013655Y014070D01*
X014510Y014228D02*
X014850Y014228D01*
X014705Y014070D02*
X014655Y014070D01*
X015510Y014228D02*
X015850Y014228D01*
X015705Y014070D02*
X015655Y014070D01*
X006850Y014228D02*
X000460Y014228D01*
X000880Y013680D02*
X000880Y013279D01*
X018058Y010583D02*
X019252Y010583D01*
X029664Y011534D02*
X033040Y011534D01*
X034630Y011692D02*
X034640Y011692D01*
X035120Y011692D02*
X035230Y011692D01*
X035630Y011692D02*
X036230Y011692D01*
X036040Y011534D02*
X035820Y011534D01*
X035885Y011375D02*
X035975Y011375D01*
X035973Y011217D02*
X035887Y011217D01*
X035833Y011058D02*
X036027Y011058D01*
X043421Y010107D02*
X043439Y010107D01*
X043439Y009949D02*
X043421Y009949D01*
X053555Y009315D02*
X053671Y009315D01*
X054250Y010741D02*
X054250Y010741D01*
X054250Y010900D02*
X054250Y010900D01*
X057347Y013753D02*
X057668Y013753D01*
X057510Y013911D02*
X057188Y013911D01*
X057030Y014070D02*
X057440Y014070D01*
X057264Y014228D02*
X057096Y014228D01*
X057096Y014387D02*
X057264Y014387D01*
X057264Y014545D02*
X057096Y014545D01*
X057050Y014704D02*
X057310Y014704D01*
X057304Y014862D02*
X057056Y014862D01*
X056304Y014862D02*
X056056Y014862D01*
X056050Y014704D02*
X056310Y014704D01*
X056264Y014545D02*
X056096Y014545D01*
X056096Y014387D02*
X056264Y014387D01*
X056264Y014228D02*
X056217Y014228D01*
X056376Y014070D02*
X056440Y014070D01*
X055855Y013911D02*
X055534Y013911D01*
X055376Y014070D02*
X055697Y014070D01*
X055264Y014228D02*
X055217Y014228D01*
X055264Y014387D02*
X055096Y014387D01*
X055096Y014545D02*
X055264Y014545D01*
X055310Y014704D02*
X055050Y014704D01*
X055056Y014862D02*
X055304Y014862D01*
X054304Y014862D02*
X054226Y014862D01*
X054170Y014704D02*
X054310Y014704D01*
X054264Y014545D02*
X054170Y014545D01*
X054170Y014387D02*
X054264Y014387D01*
X053690Y014545D02*
X053579Y014545D01*
X053690Y014704D02*
X053421Y014704D01*
X058050Y014704D02*
X058310Y014704D01*
X058304Y014862D02*
X058056Y014862D01*
X058096Y014545D02*
X058264Y014545D01*
X058264Y014387D02*
X058096Y014387D01*
X058096Y014228D02*
X058264Y014228D01*
X058466Y014070D02*
X058030Y014070D01*
D30*
X005560Y011405D02*
X005508Y011353D01*
X005455Y011225D01*
X005455Y011085D01*
X005508Y010957D01*
X005560Y010905D01*
X005508Y010853D01*
X005455Y010725D01*
X005455Y010585D01*
X005508Y010457D01*
X005560Y010405D01*
X005508Y010353D01*
X005455Y010225D01*
X005455Y010085D01*
X005508Y009957D01*
X005560Y009905D01*
X005508Y009853D01*
X005455Y009725D01*
X005455Y009585D01*
X005508Y009457D01*
X005560Y009405D01*
X005508Y009353D01*
X005455Y009225D01*
X005455Y009085D01*
X005508Y008957D01*
X005560Y008905D01*
X005508Y008853D01*
X005455Y008725D01*
X005455Y008655D01*
X002305Y008655D01*
X002305Y011655D01*
X005455Y011655D01*
X005455Y011585D01*
X005508Y011457D01*
X005560Y011405D01*
X005554Y011411D02*
X002305Y011411D01*
X002305Y011509D02*
X005487Y011509D01*
X005455Y011608D02*
X002305Y011608D01*
X002305Y011312D02*
X005491Y011312D01*
X005455Y011214D02*
X002305Y011214D01*
X002305Y011115D02*
X005455Y011115D01*
X005484Y011017D02*
X002305Y011017D01*
X002305Y010918D02*
X005547Y010918D01*
X005494Y010820D02*
X002305Y010820D01*
X002305Y010721D02*
X005455Y010721D01*
X005455Y010623D02*
X002305Y010623D01*
X002305Y010524D02*
X005480Y010524D01*
X005539Y010426D02*
X002305Y010426D01*
X002305Y010327D02*
X005497Y010327D01*
X005457Y010229D02*
X002305Y010229D01*
X002305Y010130D02*
X005455Y010130D01*
X005477Y010032D02*
X002305Y010032D01*
X002305Y009933D02*
X005532Y009933D01*
X005501Y009835D02*
X002305Y009835D01*
X002305Y009736D02*
X005460Y009736D01*
X005455Y009638D02*
X002305Y009638D01*
X002305Y009539D02*
X005474Y009539D01*
X005525Y009441D02*
X002305Y009441D01*
X002305Y009342D02*
X005504Y009342D01*
X005463Y009244D02*
X002305Y009244D01*
X002305Y009145D02*
X005455Y009145D01*
X005471Y009047D02*
X002305Y009047D01*
X002305Y008948D02*
X005517Y008948D01*
X005507Y008850D02*
X002305Y008850D01*
X002305Y008751D02*
X005466Y008751D01*
D31*
X005305Y008655D03*
X004805Y008655D03*
X004305Y008655D03*
X003805Y008655D03*
X003305Y008655D03*
X002805Y008655D03*
X002305Y008655D03*
X002305Y009155D03*
X002305Y009655D03*
X002305Y010155D03*
X002305Y010655D03*
X002305Y011155D03*
X002305Y011655D03*
X002805Y011655D03*
X003305Y011655D03*
X003805Y011655D03*
X004305Y011655D03*
X004805Y011655D03*
X005305Y011655D03*
X005805Y011655D03*
X005805Y011155D03*
X005805Y010655D03*
X005805Y010155D03*
X005805Y009655D03*
X005805Y009155D03*
X005805Y008655D03*
D32*
X005830Y008680D01*
X005830Y009130D01*
X005805Y009155D01*
X005830Y009180D01*
X005830Y009630D01*
X005805Y009655D01*
X005830Y009680D01*
X005830Y010130D01*
X005805Y010155D01*
X005830Y010180D01*
X005830Y010630D01*
X005805Y010655D01*
X005830Y010680D01*
X005830Y011130D01*
X005805Y011155D01*
X005830Y011180D01*
X005830Y011630D01*
X005805Y011655D01*
X006180Y010880D02*
X006180Y005930D01*
X005630Y005380D01*
X005542Y005155D01*
X008130Y004280D02*
X008130Y008530D01*
X008280Y008680D01*
X009180Y008230D02*
X009180Y008210D01*
X009180Y008230D02*
X009380Y008430D01*
X009380Y009030D01*
X010380Y009030D02*
X010380Y008430D01*
X010180Y008230D01*
X010180Y008210D01*
X009880Y008430D02*
X009880Y009330D01*
X010780Y010230D01*
X010930Y010630D02*
X008680Y010630D01*
X008680Y007630D01*
X009680Y008210D02*
X009680Y008230D01*
X009880Y008430D01*
X010680Y008230D02*
X010680Y008210D01*
X010680Y008230D02*
X010880Y008430D01*
X010880Y009430D01*
X011980Y009580D02*
X010930Y010630D01*
X011030Y010880D02*
X006180Y010880D01*
X002805Y011655D02*
X002630Y011680D01*
X002630Y012630D01*
X002606Y012655D01*
X001504Y012655D02*
X001504Y011391D01*
X001165Y011053D01*
X001165Y009257D02*
X001504Y008919D01*
X001504Y008430D01*
X001830Y008430D01*
X001504Y008430D02*
X001504Y007655D01*
X002606Y007655D02*
X002630Y007730D01*
X002630Y008630D01*
X002805Y008655D01*
X011180Y008210D02*
X011180Y008180D01*
X011380Y007980D01*
X011380Y007730D01*
X013680Y005430D01*
X014680Y005905D02*
X013180Y004405D01*
X013180Y004350D01*
X012680Y004350D02*
X012680Y003905D01*
X013055Y003530D01*
X013430Y003530D01*
X014180Y002780D01*
X013180Y002780D02*
X012180Y003780D01*
X012180Y004350D01*
X011680Y004350D02*
X011680Y003280D01*
X012180Y002780D01*
X011180Y002780D02*
X011180Y004350D01*
X010680Y004350D02*
X010680Y003280D01*
X010180Y002780D01*
X010180Y003780D02*
X009180Y002780D01*
X009055Y003655D02*
X008180Y002780D01*
X007180Y002780D02*
X008750Y004350D01*
X009180Y004350D01*
X009680Y004350D02*
X009680Y003905D01*
X009430Y003655D01*
X009055Y003655D01*
X010180Y003780D02*
X010180Y004350D01*
X014680Y005905D02*
X014680Y006529D01*
X014681Y006530D01*
X014180Y006730D02*
X014180Y007230D01*
X013530Y006730D02*
X012880Y007380D01*
X012880Y007980D01*
X012680Y008180D01*
X012680Y008210D01*
X012980Y008430D02*
X012980Y008930D01*
X011030Y010880D01*
X011580Y011630D02*
X011580Y013380D01*
X011180Y013780D01*
X012180Y013780D02*
X012180Y012980D01*
X018580Y012980D01*
X018680Y012580D02*
X016930Y012580D01*
X016880Y012630D01*
X012180Y012630D01*
X012180Y012580D01*
X009630Y013230D02*
X008180Y013230D01*
X008180Y013780D01*
X008180Y014780D01*
X008805Y015405D01*
X022830Y015405D01*
X022830Y004380D01*
X021030Y004380D01*
X020630Y003980D01*
X020630Y003330D01*
X021180Y002780D01*
X020180Y002780D02*
X020180Y003430D01*
X019055Y004555D01*
X019080Y004580D01*
X019080Y005880D01*
X018130Y005880D01*
X017880Y005630D01*
X017880Y005380D01*
X017030Y005380D01*
X016580Y005830D01*
X016550Y005830D01*
X016550Y005650D01*
X016305Y005405D01*
X016305Y004975D01*
X016555Y004965D02*
X016560Y004970D01*
X016555Y004965D02*
X016555Y004405D01*
X015180Y003030D01*
X015180Y002780D01*
X015180Y001780D01*
X015805Y001280D01*
X055480Y001280D01*
X057480Y003280D01*
X057480Y005080D01*
X056480Y006080D01*
X055230Y006080D01*
X055180Y006130D01*
X055180Y011905D01*
X055055Y012030D01*
X054250Y012030D01*
X054250Y011530D02*
X054930Y011530D01*
X054930Y005980D01*
X055130Y005780D01*
X056280Y005780D01*
X057180Y004880D01*
X057180Y003480D01*
X055230Y001530D01*
X016430Y001530D01*
X016180Y001780D01*
X016180Y002780D01*
X016180Y003530D01*
X016805Y004155D01*
X016805Y004965D01*
X016800Y004970D01*
X017030Y004980D02*
X017030Y005380D01*
X018280Y005480D02*
X018280Y002880D01*
X018180Y002780D01*
X019180Y002780D02*
X019280Y002680D01*
X019280Y002030D01*
X019530Y001780D01*
X027380Y001780D01*
X027380Y003530D01*
X026980Y003230D02*
X026980Y002180D01*
X019680Y002180D01*
X017730Y002230D02*
X017180Y002780D01*
X019055Y004555D02*
X018830Y004780D01*
X018826Y004780D01*
X019534Y004780D02*
X019694Y004940D01*
X019694Y006406D01*
X019430Y006780D02*
X020180Y006780D01*
X021055Y005905D01*
X021980Y006830D01*
X021980Y007430D01*
X022430Y007880D01*
X021530Y008080D02*
X021530Y007280D01*
X021554Y007280D01*
X021130Y007630D02*
X020830Y007330D01*
X020806Y007280D01*
X020680Y007154D01*
X019694Y007154D01*
X019680Y007180D01*
X019680Y008480D01*
X018680Y008480D01*
X018630Y008430D01*
X017780Y008430D01*
X017680Y007780D02*
X017034Y008030D01*
X016810Y007556D01*
X016810Y006590D01*
X017055Y006595D02*
X017060Y006590D01*
X017055Y006595D02*
X017055Y006905D01*
X017180Y007030D01*
X017180Y007280D01*
X018230Y007330D02*
X018230Y006980D01*
X018430Y006780D01*
X018666Y006780D01*
X019080Y006780D01*
X019080Y005880D01*
X018665Y006405D02*
X018055Y006405D01*
X017680Y006780D01*
X017680Y007780D01*
X018230Y007330D02*
X018980Y008080D01*
X020280Y009080D02*
X020730Y008630D01*
X021130Y008430D02*
X022430Y009730D01*
X023230Y010280D02*
X023230Y012080D01*
X026130Y012080D01*
X026930Y011280D01*
X027880Y010730D02*
X027880Y010080D01*
X027630Y009830D01*
X025880Y009830D01*
X025880Y010480D01*
X025630Y010730D01*
X024730Y010730D01*
X024730Y009630D01*
X023530Y008430D01*
X023230Y008030D02*
X024780Y008030D01*
X027180Y007630D02*
X024630Y005080D01*
X023230Y004680D02*
X025430Y006880D01*
X025430Y010280D01*
X024330Y010680D02*
X025330Y011680D01*
X027380Y012580D02*
X025930Y014030D01*
X025930Y014080D01*
X025930Y013380D02*
X025430Y012880D01*
X023230Y012880D01*
X023230Y012980D01*
X021930Y012030D02*
X020180Y013780D01*
X019180Y013780D02*
X020380Y012580D01*
X018680Y012580D02*
X020980Y010280D01*
X020280Y010630D02*
X018680Y012230D01*
X016730Y012230D01*
X018580Y011630D02*
X011580Y011630D01*
X009630Y013230D02*
X013930Y008930D01*
X013930Y008080D01*
X015430Y006580D01*
X015429Y006530D01*
X016240Y006530D01*
X016300Y006590D01*
X015615Y004970D02*
X014680Y005905D01*
X014030Y006280D02*
X013330Y006280D01*
X011880Y007730D01*
X011880Y007980D01*
X011680Y008180D01*
X011680Y008210D01*
X011980Y008430D02*
X011980Y009580D01*
X011980Y008430D02*
X012180Y008230D01*
X012180Y008210D01*
X012980Y008430D02*
X013180Y008230D01*
X013180Y008210D01*
X017480Y009430D02*
X019880Y009430D01*
X019580Y009030D02*
X017780Y009030D01*
X017780Y009830D02*
X019580Y009830D01*
X019530Y010330D02*
X017780Y010330D01*
X017780Y010980D02*
X017780Y011230D01*
X017780Y010980D02*
X018580Y010980D01*
X020280Y010630D02*
X020280Y009080D01*
X021130Y008430D02*
X021130Y007630D01*
X022430Y007280D02*
X022430Y006680D01*
X021980Y006230D01*
X021055Y005905D02*
X021055Y004801D01*
X021034Y004780D01*
X020326Y004780D02*
X019534Y004780D01*
X018665Y006405D02*
X018666Y006406D01*
X019055Y007155D02*
X019430Y006780D01*
X019054Y007154D02*
X019055Y007155D01*
X019054Y007154D02*
X018666Y007154D01*
X014180Y006730D02*
X013530Y006730D01*
X027380Y010330D02*
X027380Y012580D01*
X027630Y012580D02*
X027630Y012880D01*
X027530Y012980D01*
X027630Y012580D02*
X028930Y011280D01*
X029380Y011780D02*
X029380Y012830D01*
X042030Y012830D01*
X043380Y011480D01*
X043380Y011180D01*
X047330Y007230D01*
X047180Y006830D02*
X046780Y007230D01*
X047180Y006830D02*
X048080Y006830D01*
X048080Y009280D01*
X048930Y010130D01*
X048930Y011280D01*
X049880Y011230D02*
X049880Y010080D01*
X049680Y009880D01*
X049680Y009480D01*
X050080Y009930D02*
X050080Y007730D01*
X047930Y005580D01*
X044380Y005580D01*
X043330Y004530D01*
X037580Y004530D01*
X037580Y004030D01*
X037280Y003730D01*
X032830Y003730D01*
X032830Y006580D01*
X028680Y010730D01*
X027880Y010730D01*
X027430Y010280D02*
X027380Y010330D01*
X028280Y010130D02*
X028280Y006180D01*
X028280Y002180D01*
X032280Y002180D02*
X032280Y006180D01*
X034480Y007630D02*
X037030Y005080D01*
X037030Y004280D01*
X041320Y005060D02*
X041330Y005080D01*
X043180Y006930D01*
X043180Y010030D01*
X043430Y010280D01*
X042930Y010030D02*
X042930Y011280D01*
X043930Y011280D02*
X040530Y014680D01*
X023230Y014680D01*
X023230Y014380D01*
X021680Y014380D02*
X016180Y014380D01*
X016180Y013780D01*
X022830Y015405D02*
X052380Y015405D01*
X054250Y013535D01*
X054250Y012530D01*
X053805Y012530D01*
X053055Y011780D01*
X053055Y010280D01*
X053805Y009530D01*
X054250Y009530D01*
X055430Y009655D02*
X055430Y010905D01*
X055555Y011030D01*
X056110Y011030D01*
X055555Y011030D02*
X055430Y011155D01*
X055430Y012280D01*
X055680Y012530D01*
X055930Y012530D01*
X056110Y012530D01*
X055930Y012530D02*
X055930Y012780D01*
X054680Y014030D01*
X054180Y014030D01*
X053930Y014280D01*
X053930Y014905D01*
X054159Y015134D01*
X055680Y015134D01*
X056680Y015134D01*
X057680Y015134D01*
X058680Y015134D01*
X058680Y014426D02*
X058680Y014180D01*
X058780Y014080D01*
X059480Y014080D01*
X060280Y013280D01*
X060280Y009380D01*
X059180Y008280D01*
X058680Y008280D01*
X058180Y009280D02*
X057430Y008530D01*
X056110Y008530D01*
X056110Y008030D02*
X055555Y008030D01*
X055430Y008155D01*
X055430Y009280D01*
X055680Y009530D01*
X056110Y009530D01*
X055555Y009530D01*
X055430Y009655D01*
X056110Y009030D02*
X056830Y009030D01*
X058080Y010280D01*
X058680Y010280D01*
X058930Y010280D01*
X059705Y011055D01*
X059705Y013055D01*
X059380Y013380D01*
X057380Y013380D01*
X056680Y014080D01*
X056680Y014426D01*
X055680Y014426D02*
X057126Y012980D01*
X059280Y012980D01*
X059455Y012805D01*
X059455Y011555D01*
X059180Y011280D01*
X058680Y011280D01*
X058305Y011280D01*
X058055Y011530D01*
X056110Y011530D01*
X056110Y012030D02*
X057180Y012030D01*
X057180Y012655D01*
X056930Y012655D01*
X055930Y013655D01*
X055451Y013655D01*
X054680Y014426D01*
X054680Y015134D02*
X055680Y015134D01*
X057680Y014426D02*
X057680Y014080D01*
X057980Y013780D01*
X059380Y013780D01*
X059980Y013180D01*
X059980Y010580D01*
X058680Y009280D01*
X058180Y009280D01*
X056930Y008030D02*
X056110Y008030D01*
X054250Y008030D02*
X054230Y008030D01*
X052905Y008005D01*
X053305Y008405D02*
X053430Y008530D01*
X054250Y008530D01*
X054250Y009030D02*
X053305Y009030D01*
X050930Y008030D02*
X050930Y011280D01*
X049930Y011280D02*
X049880Y011230D01*
X050430Y010280D02*
X050080Y009930D01*
X053430Y011030D02*
X054250Y011030D01*
X057180Y012030D02*
X058430Y012030D01*
X058680Y012280D01*
X050930Y008030D02*
X049330Y006430D01*
X047930Y005080D02*
X047920Y005060D01*
X047880Y005080D01*
X046280Y005080D01*
X046240Y005060D01*
X047930Y005080D02*
X052830Y005080D01*
X052840Y005060D02*
X052880Y005080D01*
X042930Y010030D02*
X040530Y007630D01*
X039280Y008430D02*
X040930Y010080D01*
X040930Y011280D01*
X041430Y010280D02*
X042030Y009680D01*
X035380Y009480D02*
X035380Y011230D01*
X035430Y011280D01*
X034480Y011230D02*
X034480Y007630D01*
X031330Y009330D02*
X031330Y011280D01*
X033430Y011280D01*
X034430Y011280D02*
X034480Y011230D01*
X034880Y010330D02*
X034880Y012430D01*
X034880Y010330D02*
X034930Y010280D01*
X028430Y010280D02*
X028280Y010130D01*
D33*
X031330Y009330D03*
X035380Y009480D03*
X039280Y008430D03*
X040530Y007630D03*
X042030Y009680D03*
X046780Y007230D03*
X047330Y007230D03*
X049330Y006430D03*
X056930Y008030D03*
X049680Y009480D03*
X053430Y011030D03*
X034880Y012430D03*
X029380Y011780D03*
X027530Y012980D03*
X025930Y013380D03*
X025930Y014080D03*
X023230Y014380D03*
X021680Y014380D03*
X023230Y012980D03*
X021930Y012030D03*
X020380Y012580D03*
X018580Y012980D03*
X016730Y012230D03*
X018580Y011630D03*
X017780Y011230D03*
X018580Y010980D03*
X017780Y010330D03*
X017780Y009830D03*
X017480Y009430D03*
X017780Y009030D03*
X017780Y008430D03*
X018980Y008080D03*
X020730Y008630D03*
X019580Y009030D03*
X019880Y009430D03*
X019580Y009830D03*
X020980Y010280D03*
X019530Y010330D03*
X022430Y009730D03*
X023230Y010280D03*
X024330Y010680D03*
X025330Y011680D03*
X023530Y008430D03*
X023230Y008030D03*
X022430Y007880D03*
X021530Y008080D03*
X022430Y007280D03*
X024780Y008030D03*
X027180Y007630D03*
X021980Y006230D03*
X024630Y005080D03*
X023230Y004680D03*
X027380Y003530D03*
X026980Y003230D03*
X019680Y002180D03*
X013680Y005430D03*
X014030Y006280D03*
X014180Y007230D03*
X010380Y009030D03*
X009380Y009030D03*
X008280Y008680D03*
X010880Y009430D03*
X010780Y010230D03*
X012180Y012580D03*
X001830Y008430D03*
X008680Y007630D03*
X018280Y005480D03*
X008130Y004280D03*
D34*
X005542Y005155D02*
X005542Y001793D01*
X006555Y000780D01*
X055805Y000780D01*
X058680Y003655D01*
X058680Y005280D01*
D35*
X053305Y008405D03*
X053305Y009030D03*
X017180Y007280D03*
X000880Y013680D03*
D36*
X025771Y004119D03*
X055298Y004119D03*
M02*
