G75*
%MOIN*%
%OFA0B0*%
%FSLAX24Y24*%
%IPPOS*%
%LPD*%
%AMOC8*
5,1,8,0,0,1.08239X$1,22.5*
%
%ADD10C,0.0000*%
%ADD11C,0.0070*%
%ADD12C,0.0120*%
%ADD13C,0.0100*%
%ADD14C,0.0060*%
%ADD15C,0.0020*%
%ADD16C,0.0050*%
%ADD17R,0.0850X0.0200*%
%ADD18C,0.0080*%
%ADD19C,0.0040*%
%ADD20R,0.0300X0.0340*%
%ADD21C,0.0030*%
%ADD22C,0.0010*%
%ADD23R,0.0200X0.0050*%
D10*
X000180Y000280D02*
X060885Y000280D01*
X060885Y015831D01*
X000180Y015831D01*
X000180Y000280D01*
X016090Y005660D02*
X016111Y005662D01*
X016131Y005667D01*
X016150Y005676D01*
X016167Y005688D01*
X016182Y005703D01*
X016194Y005720D01*
X016203Y005739D01*
X016208Y005759D01*
X016210Y005780D01*
X016208Y005801D01*
X016203Y005821D01*
X016194Y005840D01*
X016182Y005857D01*
X016167Y005872D01*
X016150Y005884D01*
X016131Y005893D01*
X016111Y005898D01*
X016090Y005900D01*
X024290Y013780D02*
X024292Y013830D01*
X024298Y013880D01*
X024308Y013929D01*
X024321Y013978D01*
X024339Y014025D01*
X024360Y014071D01*
X024384Y014114D01*
X024412Y014156D01*
X024443Y014196D01*
X024477Y014233D01*
X024514Y014267D01*
X024554Y014298D01*
X024596Y014326D01*
X024639Y014350D01*
X024685Y014371D01*
X024732Y014389D01*
X024781Y014402D01*
X024830Y014412D01*
X024880Y014418D01*
X024930Y014420D01*
X024980Y014418D01*
X025030Y014412D01*
X025079Y014402D01*
X025128Y014389D01*
X025175Y014371D01*
X025221Y014350D01*
X025264Y014326D01*
X025306Y014298D01*
X025346Y014267D01*
X025383Y014233D01*
X025417Y014196D01*
X025448Y014156D01*
X025476Y014114D01*
X025500Y014071D01*
X025521Y014025D01*
X025539Y013978D01*
X025552Y013929D01*
X025562Y013880D01*
X025568Y013830D01*
X025570Y013780D01*
X025568Y013730D01*
X025562Y013680D01*
X025552Y013631D01*
X025539Y013582D01*
X025521Y013535D01*
X025500Y013489D01*
X025476Y013446D01*
X025448Y013404D01*
X025417Y013364D01*
X025383Y013327D01*
X025346Y013293D01*
X025306Y013262D01*
X025264Y013234D01*
X025221Y013210D01*
X025175Y013189D01*
X025128Y013171D01*
X025079Y013158D01*
X025030Y013148D01*
X024980Y013142D01*
X024930Y013140D01*
X024880Y013142D01*
X024830Y013148D01*
X024781Y013158D01*
X024732Y013171D01*
X024685Y013189D01*
X024639Y013210D01*
X024596Y013234D01*
X024554Y013262D01*
X024514Y013293D01*
X024477Y013327D01*
X024443Y013364D01*
X024412Y013404D01*
X024384Y013446D01*
X024360Y013489D01*
X024339Y013535D01*
X024321Y013582D01*
X024308Y013631D01*
X024298Y013680D01*
X024292Y013730D01*
X024290Y013780D01*
X028790Y013780D02*
X028792Y013830D01*
X028798Y013880D01*
X028808Y013929D01*
X028821Y013978D01*
X028839Y014025D01*
X028860Y014071D01*
X028884Y014114D01*
X028912Y014156D01*
X028943Y014196D01*
X028977Y014233D01*
X029014Y014267D01*
X029054Y014298D01*
X029096Y014326D01*
X029139Y014350D01*
X029185Y014371D01*
X029232Y014389D01*
X029281Y014402D01*
X029330Y014412D01*
X029380Y014418D01*
X029430Y014420D01*
X029480Y014418D01*
X029530Y014412D01*
X029579Y014402D01*
X029628Y014389D01*
X029675Y014371D01*
X029721Y014350D01*
X029764Y014326D01*
X029806Y014298D01*
X029846Y014267D01*
X029883Y014233D01*
X029917Y014196D01*
X029948Y014156D01*
X029976Y014114D01*
X030000Y014071D01*
X030021Y014025D01*
X030039Y013978D01*
X030052Y013929D01*
X030062Y013880D01*
X030068Y013830D01*
X030070Y013780D01*
X030068Y013730D01*
X030062Y013680D01*
X030052Y013631D01*
X030039Y013582D01*
X030021Y013535D01*
X030000Y013489D01*
X029976Y013446D01*
X029948Y013404D01*
X029917Y013364D01*
X029883Y013327D01*
X029846Y013293D01*
X029806Y013262D01*
X029764Y013234D01*
X029721Y013210D01*
X029675Y013189D01*
X029628Y013171D01*
X029579Y013158D01*
X029530Y013148D01*
X029480Y013142D01*
X029430Y013140D01*
X029380Y013142D01*
X029330Y013148D01*
X029281Y013158D01*
X029232Y013171D01*
X029185Y013189D01*
X029139Y013210D01*
X029096Y013234D01*
X029054Y013262D01*
X029014Y013293D01*
X028977Y013327D01*
X028943Y013364D01*
X028912Y013404D01*
X028884Y013446D01*
X028860Y013489D01*
X028839Y013535D01*
X028821Y013582D01*
X028808Y013631D01*
X028798Y013680D01*
X028792Y013730D01*
X028790Y013780D01*
X031790Y013780D02*
X031792Y013830D01*
X031798Y013880D01*
X031808Y013929D01*
X031821Y013978D01*
X031839Y014025D01*
X031860Y014071D01*
X031884Y014114D01*
X031912Y014156D01*
X031943Y014196D01*
X031977Y014233D01*
X032014Y014267D01*
X032054Y014298D01*
X032096Y014326D01*
X032139Y014350D01*
X032185Y014371D01*
X032232Y014389D01*
X032281Y014402D01*
X032330Y014412D01*
X032380Y014418D01*
X032430Y014420D01*
X032480Y014418D01*
X032530Y014412D01*
X032579Y014402D01*
X032628Y014389D01*
X032675Y014371D01*
X032721Y014350D01*
X032764Y014326D01*
X032806Y014298D01*
X032846Y014267D01*
X032883Y014233D01*
X032917Y014196D01*
X032948Y014156D01*
X032976Y014114D01*
X033000Y014071D01*
X033021Y014025D01*
X033039Y013978D01*
X033052Y013929D01*
X033062Y013880D01*
X033068Y013830D01*
X033070Y013780D01*
X033068Y013730D01*
X033062Y013680D01*
X033052Y013631D01*
X033039Y013582D01*
X033021Y013535D01*
X033000Y013489D01*
X032976Y013446D01*
X032948Y013404D01*
X032917Y013364D01*
X032883Y013327D01*
X032846Y013293D01*
X032806Y013262D01*
X032764Y013234D01*
X032721Y013210D01*
X032675Y013189D01*
X032628Y013171D01*
X032579Y013158D01*
X032530Y013148D01*
X032480Y013142D01*
X032430Y013140D01*
X032380Y013142D01*
X032330Y013148D01*
X032281Y013158D01*
X032232Y013171D01*
X032185Y013189D01*
X032139Y013210D01*
X032096Y013234D01*
X032054Y013262D01*
X032014Y013293D01*
X031977Y013327D01*
X031943Y013364D01*
X031912Y013404D01*
X031884Y013446D01*
X031860Y013489D01*
X031839Y013535D01*
X031821Y013582D01*
X031808Y013631D01*
X031798Y013680D01*
X031792Y013730D01*
X031790Y013780D01*
X036290Y013780D02*
X036292Y013830D01*
X036298Y013880D01*
X036308Y013929D01*
X036321Y013978D01*
X036339Y014025D01*
X036360Y014071D01*
X036384Y014114D01*
X036412Y014156D01*
X036443Y014196D01*
X036477Y014233D01*
X036514Y014267D01*
X036554Y014298D01*
X036596Y014326D01*
X036639Y014350D01*
X036685Y014371D01*
X036732Y014389D01*
X036781Y014402D01*
X036830Y014412D01*
X036880Y014418D01*
X036930Y014420D01*
X036980Y014418D01*
X037030Y014412D01*
X037079Y014402D01*
X037128Y014389D01*
X037175Y014371D01*
X037221Y014350D01*
X037264Y014326D01*
X037306Y014298D01*
X037346Y014267D01*
X037383Y014233D01*
X037417Y014196D01*
X037448Y014156D01*
X037476Y014114D01*
X037500Y014071D01*
X037521Y014025D01*
X037539Y013978D01*
X037552Y013929D01*
X037562Y013880D01*
X037568Y013830D01*
X037570Y013780D01*
X037568Y013730D01*
X037562Y013680D01*
X037552Y013631D01*
X037539Y013582D01*
X037521Y013535D01*
X037500Y013489D01*
X037476Y013446D01*
X037448Y013404D01*
X037417Y013364D01*
X037383Y013327D01*
X037346Y013293D01*
X037306Y013262D01*
X037264Y013234D01*
X037221Y013210D01*
X037175Y013189D01*
X037128Y013171D01*
X037079Y013158D01*
X037030Y013148D01*
X036980Y013142D01*
X036930Y013140D01*
X036880Y013142D01*
X036830Y013148D01*
X036781Y013158D01*
X036732Y013171D01*
X036685Y013189D01*
X036639Y013210D01*
X036596Y013234D01*
X036554Y013262D01*
X036514Y013293D01*
X036477Y013327D01*
X036443Y013364D01*
X036412Y013404D01*
X036384Y013446D01*
X036360Y013489D01*
X036339Y013535D01*
X036321Y013582D01*
X036308Y013631D01*
X036298Y013680D01*
X036292Y013730D01*
X036290Y013780D01*
X039290Y013780D02*
X039292Y013830D01*
X039298Y013880D01*
X039308Y013929D01*
X039321Y013978D01*
X039339Y014025D01*
X039360Y014071D01*
X039384Y014114D01*
X039412Y014156D01*
X039443Y014196D01*
X039477Y014233D01*
X039514Y014267D01*
X039554Y014298D01*
X039596Y014326D01*
X039639Y014350D01*
X039685Y014371D01*
X039732Y014389D01*
X039781Y014402D01*
X039830Y014412D01*
X039880Y014418D01*
X039930Y014420D01*
X039980Y014418D01*
X040030Y014412D01*
X040079Y014402D01*
X040128Y014389D01*
X040175Y014371D01*
X040221Y014350D01*
X040264Y014326D01*
X040306Y014298D01*
X040346Y014267D01*
X040383Y014233D01*
X040417Y014196D01*
X040448Y014156D01*
X040476Y014114D01*
X040500Y014071D01*
X040521Y014025D01*
X040539Y013978D01*
X040552Y013929D01*
X040562Y013880D01*
X040568Y013830D01*
X040570Y013780D01*
X040568Y013730D01*
X040562Y013680D01*
X040552Y013631D01*
X040539Y013582D01*
X040521Y013535D01*
X040500Y013489D01*
X040476Y013446D01*
X040448Y013404D01*
X040417Y013364D01*
X040383Y013327D01*
X040346Y013293D01*
X040306Y013262D01*
X040264Y013234D01*
X040221Y013210D01*
X040175Y013189D01*
X040128Y013171D01*
X040079Y013158D01*
X040030Y013148D01*
X039980Y013142D01*
X039930Y013140D01*
X039880Y013142D01*
X039830Y013148D01*
X039781Y013158D01*
X039732Y013171D01*
X039685Y013189D01*
X039639Y013210D01*
X039596Y013234D01*
X039554Y013262D01*
X039514Y013293D01*
X039477Y013327D01*
X039443Y013364D01*
X039412Y013404D01*
X039384Y013446D01*
X039360Y013489D01*
X039339Y013535D01*
X039321Y013582D01*
X039308Y013631D01*
X039298Y013680D01*
X039292Y013730D01*
X039290Y013780D01*
X043790Y013780D02*
X043792Y013830D01*
X043798Y013880D01*
X043808Y013929D01*
X043821Y013978D01*
X043839Y014025D01*
X043860Y014071D01*
X043884Y014114D01*
X043912Y014156D01*
X043943Y014196D01*
X043977Y014233D01*
X044014Y014267D01*
X044054Y014298D01*
X044096Y014326D01*
X044139Y014350D01*
X044185Y014371D01*
X044232Y014389D01*
X044281Y014402D01*
X044330Y014412D01*
X044380Y014418D01*
X044430Y014420D01*
X044480Y014418D01*
X044530Y014412D01*
X044579Y014402D01*
X044628Y014389D01*
X044675Y014371D01*
X044721Y014350D01*
X044764Y014326D01*
X044806Y014298D01*
X044846Y014267D01*
X044883Y014233D01*
X044917Y014196D01*
X044948Y014156D01*
X044976Y014114D01*
X045000Y014071D01*
X045021Y014025D01*
X045039Y013978D01*
X045052Y013929D01*
X045062Y013880D01*
X045068Y013830D01*
X045070Y013780D01*
X045068Y013730D01*
X045062Y013680D01*
X045052Y013631D01*
X045039Y013582D01*
X045021Y013535D01*
X045000Y013489D01*
X044976Y013446D01*
X044948Y013404D01*
X044917Y013364D01*
X044883Y013327D01*
X044846Y013293D01*
X044806Y013262D01*
X044764Y013234D01*
X044721Y013210D01*
X044675Y013189D01*
X044628Y013171D01*
X044579Y013158D01*
X044530Y013148D01*
X044480Y013142D01*
X044430Y013140D01*
X044380Y013142D01*
X044330Y013148D01*
X044281Y013158D01*
X044232Y013171D01*
X044185Y013189D01*
X044139Y013210D01*
X044096Y013234D01*
X044054Y013262D01*
X044014Y013293D01*
X043977Y013327D01*
X043943Y013364D01*
X043912Y013404D01*
X043884Y013446D01*
X043860Y013489D01*
X043839Y013535D01*
X043821Y013582D01*
X043808Y013631D01*
X043798Y013680D01*
X043792Y013730D01*
X043790Y013780D01*
X047290Y013780D02*
X047292Y013830D01*
X047298Y013880D01*
X047308Y013929D01*
X047321Y013978D01*
X047339Y014025D01*
X047360Y014071D01*
X047384Y014114D01*
X047412Y014156D01*
X047443Y014196D01*
X047477Y014233D01*
X047514Y014267D01*
X047554Y014298D01*
X047596Y014326D01*
X047639Y014350D01*
X047685Y014371D01*
X047732Y014389D01*
X047781Y014402D01*
X047830Y014412D01*
X047880Y014418D01*
X047930Y014420D01*
X047980Y014418D01*
X048030Y014412D01*
X048079Y014402D01*
X048128Y014389D01*
X048175Y014371D01*
X048221Y014350D01*
X048264Y014326D01*
X048306Y014298D01*
X048346Y014267D01*
X048383Y014233D01*
X048417Y014196D01*
X048448Y014156D01*
X048476Y014114D01*
X048500Y014071D01*
X048521Y014025D01*
X048539Y013978D01*
X048552Y013929D01*
X048562Y013880D01*
X048568Y013830D01*
X048570Y013780D01*
X048568Y013730D01*
X048562Y013680D01*
X048552Y013631D01*
X048539Y013582D01*
X048521Y013535D01*
X048500Y013489D01*
X048476Y013446D01*
X048448Y013404D01*
X048417Y013364D01*
X048383Y013327D01*
X048346Y013293D01*
X048306Y013262D01*
X048264Y013234D01*
X048221Y013210D01*
X048175Y013189D01*
X048128Y013171D01*
X048079Y013158D01*
X048030Y013148D01*
X047980Y013142D01*
X047930Y013140D01*
X047880Y013142D01*
X047830Y013148D01*
X047781Y013158D01*
X047732Y013171D01*
X047685Y013189D01*
X047639Y013210D01*
X047596Y013234D01*
X047554Y013262D01*
X047514Y013293D01*
X047477Y013327D01*
X047443Y013364D01*
X047412Y013404D01*
X047384Y013446D01*
X047360Y013489D01*
X047339Y013535D01*
X047321Y013582D01*
X047308Y013631D01*
X047298Y013680D01*
X047292Y013730D01*
X047290Y013780D01*
X051790Y013780D02*
X051792Y013830D01*
X051798Y013880D01*
X051808Y013929D01*
X051821Y013978D01*
X051839Y014025D01*
X051860Y014071D01*
X051884Y014114D01*
X051912Y014156D01*
X051943Y014196D01*
X051977Y014233D01*
X052014Y014267D01*
X052054Y014298D01*
X052096Y014326D01*
X052139Y014350D01*
X052185Y014371D01*
X052232Y014389D01*
X052281Y014402D01*
X052330Y014412D01*
X052380Y014418D01*
X052430Y014420D01*
X052480Y014418D01*
X052530Y014412D01*
X052579Y014402D01*
X052628Y014389D01*
X052675Y014371D01*
X052721Y014350D01*
X052764Y014326D01*
X052806Y014298D01*
X052846Y014267D01*
X052883Y014233D01*
X052917Y014196D01*
X052948Y014156D01*
X052976Y014114D01*
X053000Y014071D01*
X053021Y014025D01*
X053039Y013978D01*
X053052Y013929D01*
X053062Y013880D01*
X053068Y013830D01*
X053070Y013780D01*
X053068Y013730D01*
X053062Y013680D01*
X053052Y013631D01*
X053039Y013582D01*
X053021Y013535D01*
X053000Y013489D01*
X052976Y013446D01*
X052948Y013404D01*
X052917Y013364D01*
X052883Y013327D01*
X052846Y013293D01*
X052806Y013262D01*
X052764Y013234D01*
X052721Y013210D01*
X052675Y013189D01*
X052628Y013171D01*
X052579Y013158D01*
X052530Y013148D01*
X052480Y013142D01*
X052430Y013140D01*
X052380Y013142D01*
X052330Y013148D01*
X052281Y013158D01*
X052232Y013171D01*
X052185Y013189D01*
X052139Y013210D01*
X052096Y013234D01*
X052054Y013262D01*
X052014Y013293D01*
X051977Y013327D01*
X051943Y013364D01*
X051912Y013404D01*
X051884Y013446D01*
X051860Y013489D01*
X051839Y013535D01*
X051821Y013582D01*
X051808Y013631D01*
X051798Y013680D01*
X051792Y013730D01*
X051790Y013780D01*
X050025Y005850D02*
X050027Y005887D01*
X050033Y005924D01*
X050042Y005960D01*
X050056Y005994D01*
X050073Y006027D01*
X050093Y006059D01*
X050116Y006088D01*
X050142Y006114D01*
X050171Y006137D01*
X050202Y006157D01*
X050236Y006174D01*
X050270Y006188D01*
X050306Y006197D01*
X050343Y006203D01*
X050380Y006205D01*
X050417Y006203D01*
X050454Y006197D01*
X050490Y006188D01*
X050524Y006174D01*
X050557Y006157D01*
X050589Y006137D01*
X050618Y006114D01*
X050644Y006088D01*
X050667Y006059D01*
X050687Y006028D01*
X050704Y005994D01*
X050718Y005960D01*
X050727Y005924D01*
X050733Y005887D01*
X050735Y005850D01*
X050733Y005813D01*
X050727Y005776D01*
X050718Y005740D01*
X050704Y005706D01*
X050687Y005673D01*
X050667Y005641D01*
X050644Y005612D01*
X050618Y005586D01*
X050589Y005563D01*
X050558Y005543D01*
X050524Y005526D01*
X050490Y005512D01*
X050454Y005503D01*
X050417Y005497D01*
X050380Y005495D01*
X050343Y005497D01*
X050306Y005503D01*
X050270Y005512D01*
X050236Y005526D01*
X050203Y005543D01*
X050171Y005563D01*
X050142Y005586D01*
X050116Y005612D01*
X050093Y005641D01*
X050073Y005672D01*
X050056Y005706D01*
X050042Y005740D01*
X050033Y005776D01*
X050027Y005813D01*
X050025Y005850D01*
X043425Y005850D02*
X043427Y005887D01*
X043433Y005924D01*
X043442Y005960D01*
X043456Y005994D01*
X043473Y006027D01*
X043493Y006059D01*
X043516Y006088D01*
X043542Y006114D01*
X043571Y006137D01*
X043602Y006157D01*
X043636Y006174D01*
X043670Y006188D01*
X043706Y006197D01*
X043743Y006203D01*
X043780Y006205D01*
X043817Y006203D01*
X043854Y006197D01*
X043890Y006188D01*
X043924Y006174D01*
X043957Y006157D01*
X043989Y006137D01*
X044018Y006114D01*
X044044Y006088D01*
X044067Y006059D01*
X044087Y006028D01*
X044104Y005994D01*
X044118Y005960D01*
X044127Y005924D01*
X044133Y005887D01*
X044135Y005850D01*
X044133Y005813D01*
X044127Y005776D01*
X044118Y005740D01*
X044104Y005706D01*
X044087Y005673D01*
X044067Y005641D01*
X044044Y005612D01*
X044018Y005586D01*
X043989Y005563D01*
X043958Y005543D01*
X043924Y005526D01*
X043890Y005512D01*
X043854Y005503D01*
X043817Y005497D01*
X043780Y005495D01*
X043743Y005497D01*
X043706Y005503D01*
X043670Y005512D01*
X043636Y005526D01*
X043603Y005543D01*
X043571Y005563D01*
X043542Y005586D01*
X043516Y005612D01*
X043493Y005641D01*
X043473Y005672D01*
X043456Y005706D01*
X043442Y005740D01*
X043433Y005776D01*
X043427Y005813D01*
X043425Y005850D01*
X043425Y002310D02*
X043427Y002347D01*
X043433Y002384D01*
X043442Y002420D01*
X043456Y002454D01*
X043473Y002487D01*
X043493Y002519D01*
X043516Y002548D01*
X043542Y002574D01*
X043571Y002597D01*
X043602Y002617D01*
X043636Y002634D01*
X043670Y002648D01*
X043706Y002657D01*
X043743Y002663D01*
X043780Y002665D01*
X043817Y002663D01*
X043854Y002657D01*
X043890Y002648D01*
X043924Y002634D01*
X043957Y002617D01*
X043989Y002597D01*
X044018Y002574D01*
X044044Y002548D01*
X044067Y002519D01*
X044087Y002488D01*
X044104Y002454D01*
X044118Y002420D01*
X044127Y002384D01*
X044133Y002347D01*
X044135Y002310D01*
X044133Y002273D01*
X044127Y002236D01*
X044118Y002200D01*
X044104Y002166D01*
X044087Y002133D01*
X044067Y002101D01*
X044044Y002072D01*
X044018Y002046D01*
X043989Y002023D01*
X043958Y002003D01*
X043924Y001986D01*
X043890Y001972D01*
X043854Y001963D01*
X043817Y001957D01*
X043780Y001955D01*
X043743Y001957D01*
X043706Y001963D01*
X043670Y001972D01*
X043636Y001986D01*
X043603Y002003D01*
X043571Y002023D01*
X043542Y002046D01*
X043516Y002072D01*
X043493Y002101D01*
X043473Y002132D01*
X043456Y002166D01*
X043442Y002200D01*
X043433Y002236D01*
X043427Y002273D01*
X043425Y002310D01*
X050025Y002310D02*
X050027Y002347D01*
X050033Y002384D01*
X050042Y002420D01*
X050056Y002454D01*
X050073Y002487D01*
X050093Y002519D01*
X050116Y002548D01*
X050142Y002574D01*
X050171Y002597D01*
X050202Y002617D01*
X050236Y002634D01*
X050270Y002648D01*
X050306Y002657D01*
X050343Y002663D01*
X050380Y002665D01*
X050417Y002663D01*
X050454Y002657D01*
X050490Y002648D01*
X050524Y002634D01*
X050557Y002617D01*
X050589Y002597D01*
X050618Y002574D01*
X050644Y002548D01*
X050667Y002519D01*
X050687Y002488D01*
X050704Y002454D01*
X050718Y002420D01*
X050727Y002384D01*
X050733Y002347D01*
X050735Y002310D01*
X050733Y002273D01*
X050727Y002236D01*
X050718Y002200D01*
X050704Y002166D01*
X050687Y002133D01*
X050667Y002101D01*
X050644Y002072D01*
X050618Y002046D01*
X050589Y002023D01*
X050558Y002003D01*
X050524Y001986D01*
X050490Y001972D01*
X050454Y001963D01*
X050417Y001957D01*
X050380Y001955D01*
X050343Y001957D01*
X050306Y001963D01*
X050270Y001972D01*
X050236Y001986D01*
X050203Y002003D01*
X050171Y002023D01*
X050142Y002046D01*
X050116Y002072D01*
X050093Y002101D01*
X050073Y002132D01*
X050056Y002166D01*
X050042Y002200D01*
X050033Y002236D01*
X050027Y002273D01*
X050025Y002310D01*
D11*
X052915Y001246D02*
X053125Y001035D01*
X053335Y001246D01*
X053335Y000615D01*
X053560Y000720D02*
X053665Y000825D01*
X053980Y000825D01*
X053980Y000930D02*
X053980Y000615D01*
X053665Y000615D01*
X053560Y000720D01*
X053875Y001035D02*
X053980Y000930D01*
X053875Y001035D02*
X053665Y001035D01*
X054204Y001035D02*
X054624Y001035D01*
X054204Y000615D01*
X054624Y000615D01*
X054849Y000720D02*
X054849Y000930D01*
X054954Y001035D01*
X055164Y001035D01*
X055269Y000930D01*
X055269Y000825D01*
X054849Y000825D01*
X054849Y000720D02*
X054954Y000615D01*
X055164Y000615D01*
X055493Y000510D02*
X055914Y000510D01*
X056138Y000615D02*
X056138Y001246D01*
X056243Y001035D02*
X056453Y001035D01*
X056558Y000930D01*
X056558Y000615D01*
X056782Y000720D02*
X056887Y000615D01*
X057203Y000615D01*
X057203Y001035D01*
X057427Y001035D02*
X057742Y001035D01*
X057847Y000930D01*
X057847Y000720D01*
X057742Y000615D01*
X057427Y000615D01*
X057427Y001246D01*
X056782Y001035D02*
X056782Y000720D01*
X056243Y001035D02*
X056138Y000930D01*
X058071Y000510D02*
X058492Y000510D01*
X058716Y000615D02*
X059136Y000615D01*
X058926Y000615D02*
X058926Y001246D01*
X058716Y001035D01*
X060005Y001035D02*
X060215Y001246D01*
X060215Y000615D01*
X060005Y000615D02*
X060425Y000615D01*
X059781Y000510D02*
X059360Y000510D01*
X052915Y000615D02*
X052915Y001246D01*
D12*
X037620Y004477D02*
X037603Y004522D01*
X037582Y004566D01*
X037558Y004608D01*
X037531Y004648D01*
X037501Y004686D01*
X037468Y004722D01*
X037432Y004755D01*
X037394Y004785D01*
X037353Y004811D01*
X037311Y004835D01*
X037267Y004855D01*
X037221Y004872D01*
X037174Y004885D01*
X037127Y004894D01*
X037079Y004900D01*
X037030Y004902D01*
X036981Y004900D01*
X036933Y004894D01*
X036886Y004885D01*
X036839Y004872D01*
X036793Y004855D01*
X036749Y004835D01*
X036707Y004811D01*
X036666Y004785D01*
X036628Y004755D01*
X036592Y004722D01*
X036559Y004686D01*
X036529Y004648D01*
X036502Y004608D01*
X036478Y004566D01*
X036457Y004522D01*
X036440Y004477D01*
X036440Y004083D02*
X036457Y004038D01*
X036478Y003994D01*
X036502Y003952D01*
X036529Y003912D01*
X036559Y003874D01*
X036592Y003838D01*
X036628Y003805D01*
X036666Y003775D01*
X036707Y003749D01*
X036749Y003725D01*
X036793Y003705D01*
X036839Y003688D01*
X036886Y003675D01*
X036933Y003666D01*
X036981Y003660D01*
X037030Y003658D01*
X037079Y003660D01*
X037127Y003666D01*
X037174Y003675D01*
X037221Y003688D01*
X037267Y003705D01*
X037311Y003725D01*
X037353Y003749D01*
X037394Y003775D01*
X037432Y003805D01*
X037468Y003838D01*
X037501Y003874D01*
X037531Y003912D01*
X037558Y003952D01*
X037582Y003994D01*
X037603Y004038D01*
X037620Y004083D01*
X030870Y003983D02*
X030853Y003938D01*
X030832Y003894D01*
X030808Y003852D01*
X030781Y003812D01*
X030751Y003774D01*
X030718Y003738D01*
X030682Y003705D01*
X030644Y003675D01*
X030603Y003649D01*
X030561Y003625D01*
X030517Y003605D01*
X030471Y003588D01*
X030424Y003575D01*
X030377Y003566D01*
X030329Y003560D01*
X030280Y003558D01*
X030231Y003560D01*
X030183Y003566D01*
X030136Y003575D01*
X030089Y003588D01*
X030043Y003605D01*
X029999Y003625D01*
X029957Y003649D01*
X029916Y003675D01*
X029878Y003705D01*
X029842Y003738D01*
X029809Y003774D01*
X029779Y003812D01*
X029752Y003852D01*
X029728Y003894D01*
X029707Y003938D01*
X029690Y003983D01*
X029690Y004377D02*
X029707Y004422D01*
X029728Y004466D01*
X029752Y004508D01*
X029779Y004548D01*
X029809Y004586D01*
X029842Y004622D01*
X029878Y004655D01*
X029916Y004685D01*
X029957Y004711D01*
X029999Y004735D01*
X030043Y004755D01*
X030089Y004772D01*
X030136Y004785D01*
X030183Y004794D01*
X030231Y004800D01*
X030280Y004802D01*
X030329Y004800D01*
X030377Y004794D01*
X030424Y004785D01*
X030471Y004772D01*
X030517Y004755D01*
X030561Y004735D01*
X030603Y004711D01*
X030644Y004685D01*
X030682Y004655D01*
X030718Y004622D01*
X030751Y004586D01*
X030781Y004548D01*
X030808Y004508D01*
X030832Y004466D01*
X030853Y004422D01*
X030870Y004377D01*
D13*
X028471Y004180D02*
X028473Y004265D01*
X028479Y004349D01*
X028489Y004434D01*
X028503Y004517D01*
X028520Y004600D01*
X028542Y004682D01*
X028568Y004763D01*
X028597Y004843D01*
X028630Y004921D01*
X028666Y004997D01*
X028706Y005072D01*
X028750Y005145D01*
X028797Y005216D01*
X028847Y005284D01*
X028900Y005350D01*
X028957Y005413D01*
X029016Y005474D01*
X029078Y005532D01*
X029143Y005587D01*
X029210Y005639D01*
X029279Y005687D01*
X029351Y005732D01*
X029425Y005774D01*
X029501Y005812D01*
X029578Y005847D01*
X029657Y005878D01*
X029737Y005906D01*
X029819Y005929D01*
X029901Y005949D01*
X029984Y005965D01*
X030068Y005977D01*
X030153Y005985D01*
X030238Y005989D01*
X030322Y005989D01*
X030407Y005985D01*
X030492Y005977D01*
X030576Y005965D01*
X030659Y005949D01*
X030741Y005929D01*
X030823Y005906D01*
X030903Y005878D01*
X030982Y005847D01*
X031059Y005812D01*
X031135Y005774D01*
X031209Y005732D01*
X031281Y005687D01*
X031350Y005639D01*
X031417Y005587D01*
X031482Y005532D01*
X031544Y005474D01*
X031603Y005413D01*
X031660Y005350D01*
X031713Y005284D01*
X031763Y005216D01*
X031810Y005145D01*
X031854Y005072D01*
X031894Y004997D01*
X031930Y004921D01*
X031963Y004843D01*
X031992Y004763D01*
X032018Y004682D01*
X032040Y004600D01*
X032057Y004517D01*
X032071Y004434D01*
X032081Y004349D01*
X032087Y004265D01*
X032089Y004180D01*
X032087Y004095D01*
X032081Y004011D01*
X032071Y003926D01*
X032057Y003843D01*
X032040Y003760D01*
X032018Y003678D01*
X031992Y003597D01*
X031963Y003517D01*
X031930Y003439D01*
X031894Y003363D01*
X031854Y003288D01*
X031810Y003215D01*
X031763Y003144D01*
X031713Y003076D01*
X031660Y003010D01*
X031603Y002947D01*
X031544Y002886D01*
X031482Y002828D01*
X031417Y002773D01*
X031350Y002721D01*
X031281Y002673D01*
X031209Y002628D01*
X031135Y002586D01*
X031059Y002548D01*
X030982Y002513D01*
X030903Y002482D01*
X030823Y002454D01*
X030741Y002431D01*
X030659Y002411D01*
X030576Y002395D01*
X030492Y002383D01*
X030407Y002375D01*
X030322Y002371D01*
X030238Y002371D01*
X030153Y002375D01*
X030068Y002383D01*
X029984Y002395D01*
X029901Y002411D01*
X029819Y002431D01*
X029737Y002454D01*
X029657Y002482D01*
X029578Y002513D01*
X029501Y002548D01*
X029425Y002586D01*
X029351Y002628D01*
X029279Y002673D01*
X029210Y002721D01*
X029143Y002773D01*
X029078Y002828D01*
X029016Y002886D01*
X028957Y002947D01*
X028900Y003010D01*
X028847Y003076D01*
X028797Y003144D01*
X028750Y003215D01*
X028706Y003288D01*
X028666Y003363D01*
X028630Y003439D01*
X028597Y003517D01*
X028568Y003597D01*
X028542Y003678D01*
X028520Y003760D01*
X028503Y003843D01*
X028489Y003926D01*
X028479Y004011D01*
X028473Y004095D01*
X028471Y004180D01*
X028480Y003780D02*
X028130Y003780D01*
X028130Y004580D01*
X028480Y004580D01*
X027918Y005523D02*
X027918Y002837D01*
X028937Y001818D02*
X031623Y001818D01*
X032642Y002837D02*
X032642Y005523D01*
X034668Y005623D02*
X034668Y002937D01*
X034880Y003880D02*
X035230Y003880D01*
X034880Y003880D02*
X034880Y004680D01*
X035230Y004680D01*
X035221Y004280D02*
X035223Y004365D01*
X035229Y004449D01*
X035239Y004534D01*
X035253Y004617D01*
X035270Y004700D01*
X035292Y004782D01*
X035318Y004863D01*
X035347Y004943D01*
X035380Y005021D01*
X035416Y005097D01*
X035456Y005172D01*
X035500Y005245D01*
X035547Y005316D01*
X035597Y005384D01*
X035650Y005450D01*
X035707Y005513D01*
X035766Y005574D01*
X035828Y005632D01*
X035893Y005687D01*
X035960Y005739D01*
X036029Y005787D01*
X036101Y005832D01*
X036175Y005874D01*
X036251Y005912D01*
X036328Y005947D01*
X036407Y005978D01*
X036487Y006006D01*
X036569Y006029D01*
X036651Y006049D01*
X036734Y006065D01*
X036818Y006077D01*
X036903Y006085D01*
X036988Y006089D01*
X037072Y006089D01*
X037157Y006085D01*
X037242Y006077D01*
X037326Y006065D01*
X037409Y006049D01*
X037491Y006029D01*
X037573Y006006D01*
X037653Y005978D01*
X037732Y005947D01*
X037809Y005912D01*
X037885Y005874D01*
X037959Y005832D01*
X038031Y005787D01*
X038100Y005739D01*
X038167Y005687D01*
X038232Y005632D01*
X038294Y005574D01*
X038353Y005513D01*
X038410Y005450D01*
X038463Y005384D01*
X038513Y005316D01*
X038560Y005245D01*
X038604Y005172D01*
X038644Y005097D01*
X038680Y005021D01*
X038713Y004943D01*
X038742Y004863D01*
X038768Y004782D01*
X038790Y004700D01*
X038807Y004617D01*
X038821Y004534D01*
X038831Y004449D01*
X038837Y004365D01*
X038839Y004280D01*
X038837Y004195D01*
X038831Y004111D01*
X038821Y004026D01*
X038807Y003943D01*
X038790Y003860D01*
X038768Y003778D01*
X038742Y003697D01*
X038713Y003617D01*
X038680Y003539D01*
X038644Y003463D01*
X038604Y003388D01*
X038560Y003315D01*
X038513Y003244D01*
X038463Y003176D01*
X038410Y003110D01*
X038353Y003047D01*
X038294Y002986D01*
X038232Y002928D01*
X038167Y002873D01*
X038100Y002821D01*
X038031Y002773D01*
X037959Y002728D01*
X037885Y002686D01*
X037809Y002648D01*
X037732Y002613D01*
X037653Y002582D01*
X037573Y002554D01*
X037491Y002531D01*
X037409Y002511D01*
X037326Y002495D01*
X037242Y002483D01*
X037157Y002475D01*
X037072Y002471D01*
X036988Y002471D01*
X036903Y002475D01*
X036818Y002483D01*
X036734Y002495D01*
X036651Y002511D01*
X036569Y002531D01*
X036487Y002554D01*
X036407Y002582D01*
X036328Y002613D01*
X036251Y002648D01*
X036175Y002686D01*
X036101Y002728D01*
X036029Y002773D01*
X035960Y002821D01*
X035893Y002873D01*
X035828Y002928D01*
X035766Y002986D01*
X035707Y003047D01*
X035650Y003110D01*
X035597Y003176D01*
X035547Y003244D01*
X035500Y003315D01*
X035456Y003388D01*
X035416Y003463D01*
X035380Y003539D01*
X035347Y003617D01*
X035318Y003697D01*
X035292Y003778D01*
X035270Y003860D01*
X035253Y003943D01*
X035239Y004026D01*
X035229Y004111D01*
X035223Y004195D01*
X035221Y004280D01*
X032430Y004580D02*
X032430Y003780D01*
X032080Y003780D01*
X032080Y004580D02*
X032430Y004580D01*
X031623Y006542D02*
X028937Y006542D01*
X035687Y006642D02*
X038373Y006642D01*
X039392Y005623D02*
X039392Y002937D01*
X039180Y003880D02*
X039180Y004680D01*
X038830Y004680D01*
X038830Y003880D02*
X039180Y003880D01*
X038373Y001918D02*
X035687Y001918D01*
D14*
X041380Y002080D02*
X041780Y001680D01*
X041880Y001580D01*
X043080Y001580D01*
X043080Y001680D01*
X043380Y001680D01*
X044180Y001680D01*
X044480Y001680D01*
X045780Y001680D01*
X045680Y001580D01*
X044480Y001580D01*
X044480Y001680D01*
X044180Y001680D02*
X044180Y001530D01*
X043380Y001530D01*
X043380Y001680D01*
X043080Y001680D02*
X041780Y001680D01*
X041380Y002080D02*
X041380Y002580D01*
X043030Y003330D02*
X043030Y004830D01*
X044530Y004830D01*
X044530Y003330D01*
X043030Y003330D01*
X041380Y003630D02*
X041380Y004530D01*
X042380Y004080D02*
X042382Y004155D01*
X042388Y004229D01*
X042398Y004303D01*
X042412Y004376D01*
X042429Y004448D01*
X042451Y004520D01*
X042476Y004590D01*
X042505Y004658D01*
X042538Y004726D01*
X042574Y004791D01*
X042613Y004854D01*
X042656Y004915D01*
X042702Y004974D01*
X042751Y005030D01*
X042803Y005083D01*
X042858Y005134D01*
X042915Y005181D01*
X042975Y005226D01*
X043037Y005267D01*
X043102Y005305D01*
X043168Y005339D01*
X043236Y005370D01*
X043305Y005397D01*
X043376Y005420D01*
X043448Y005440D01*
X043521Y005456D01*
X043594Y005468D01*
X043668Y005476D01*
X043743Y005480D01*
X043817Y005480D01*
X043892Y005476D01*
X043966Y005468D01*
X044039Y005456D01*
X044112Y005440D01*
X044184Y005420D01*
X044255Y005397D01*
X044324Y005370D01*
X044392Y005339D01*
X044458Y005305D01*
X044523Y005267D01*
X044585Y005226D01*
X044645Y005181D01*
X044702Y005134D01*
X044757Y005083D01*
X044809Y005030D01*
X044858Y004974D01*
X044904Y004915D01*
X044947Y004854D01*
X044986Y004791D01*
X045022Y004726D01*
X045055Y004658D01*
X045084Y004590D01*
X045109Y004520D01*
X045131Y004448D01*
X045148Y004376D01*
X045162Y004303D01*
X045172Y004229D01*
X045178Y004155D01*
X045180Y004080D01*
X045178Y004005D01*
X045172Y003931D01*
X045162Y003857D01*
X045148Y003784D01*
X045131Y003712D01*
X045109Y003640D01*
X045084Y003570D01*
X045055Y003502D01*
X045022Y003434D01*
X044986Y003369D01*
X044947Y003306D01*
X044904Y003245D01*
X044858Y003186D01*
X044809Y003130D01*
X044757Y003077D01*
X044702Y003026D01*
X044645Y002979D01*
X044585Y002934D01*
X044523Y002893D01*
X044458Y002855D01*
X044392Y002821D01*
X044324Y002790D01*
X044255Y002763D01*
X044184Y002740D01*
X044112Y002720D01*
X044039Y002704D01*
X043966Y002692D01*
X043892Y002684D01*
X043817Y002680D01*
X043743Y002680D01*
X043668Y002684D01*
X043594Y002692D01*
X043521Y002704D01*
X043448Y002720D01*
X043376Y002740D01*
X043305Y002763D01*
X043236Y002790D01*
X043168Y002821D01*
X043102Y002855D01*
X043037Y002893D01*
X042975Y002934D01*
X042915Y002979D01*
X042858Y003026D01*
X042803Y003077D01*
X042751Y003130D01*
X042702Y003186D01*
X042656Y003245D01*
X042613Y003306D01*
X042574Y003369D01*
X042538Y003434D01*
X042505Y003502D01*
X042476Y003570D01*
X042451Y003640D01*
X042429Y003712D01*
X042412Y003784D01*
X042398Y003857D01*
X042388Y003931D01*
X042382Y004005D01*
X042380Y004080D01*
X046180Y004530D02*
X046180Y003630D01*
X047980Y003630D02*
X047980Y004530D01*
X049630Y004830D02*
X049630Y003330D01*
X051130Y003330D01*
X051130Y004830D01*
X049630Y004830D01*
X048980Y004080D02*
X048982Y004155D01*
X048988Y004229D01*
X048998Y004303D01*
X049012Y004376D01*
X049029Y004448D01*
X049051Y004520D01*
X049076Y004590D01*
X049105Y004658D01*
X049138Y004726D01*
X049174Y004791D01*
X049213Y004854D01*
X049256Y004915D01*
X049302Y004974D01*
X049351Y005030D01*
X049403Y005083D01*
X049458Y005134D01*
X049515Y005181D01*
X049575Y005226D01*
X049637Y005267D01*
X049702Y005305D01*
X049768Y005339D01*
X049836Y005370D01*
X049905Y005397D01*
X049976Y005420D01*
X050048Y005440D01*
X050121Y005456D01*
X050194Y005468D01*
X050268Y005476D01*
X050343Y005480D01*
X050417Y005480D01*
X050492Y005476D01*
X050566Y005468D01*
X050639Y005456D01*
X050712Y005440D01*
X050784Y005420D01*
X050855Y005397D01*
X050924Y005370D01*
X050992Y005339D01*
X051058Y005305D01*
X051123Y005267D01*
X051185Y005226D01*
X051245Y005181D01*
X051302Y005134D01*
X051357Y005083D01*
X051409Y005030D01*
X051458Y004974D01*
X051504Y004915D01*
X051547Y004854D01*
X051586Y004791D01*
X051622Y004726D01*
X051655Y004658D01*
X051684Y004590D01*
X051709Y004520D01*
X051731Y004448D01*
X051748Y004376D01*
X051762Y004303D01*
X051772Y004229D01*
X051778Y004155D01*
X051780Y004080D01*
X051778Y004005D01*
X051772Y003931D01*
X051762Y003857D01*
X051748Y003784D01*
X051731Y003712D01*
X051709Y003640D01*
X051684Y003570D01*
X051655Y003502D01*
X051622Y003434D01*
X051586Y003369D01*
X051547Y003306D01*
X051504Y003245D01*
X051458Y003186D01*
X051409Y003130D01*
X051357Y003077D01*
X051302Y003026D01*
X051245Y002979D01*
X051185Y002934D01*
X051123Y002893D01*
X051058Y002855D01*
X050992Y002821D01*
X050924Y002790D01*
X050855Y002763D01*
X050784Y002740D01*
X050712Y002720D01*
X050639Y002704D01*
X050566Y002692D01*
X050492Y002684D01*
X050417Y002680D01*
X050343Y002680D01*
X050268Y002684D01*
X050194Y002692D01*
X050121Y002704D01*
X050048Y002720D01*
X049976Y002740D01*
X049905Y002763D01*
X049836Y002790D01*
X049768Y002821D01*
X049702Y002855D01*
X049637Y002893D01*
X049575Y002934D01*
X049515Y002979D01*
X049458Y003026D01*
X049403Y003077D01*
X049351Y003130D01*
X049302Y003186D01*
X049256Y003245D01*
X049213Y003306D01*
X049174Y003369D01*
X049138Y003434D01*
X049105Y003502D01*
X049076Y003570D01*
X049051Y003640D01*
X049029Y003712D01*
X049012Y003784D01*
X048998Y003857D01*
X048988Y003931D01*
X048982Y004005D01*
X048980Y004080D01*
X052780Y004530D02*
X052780Y003630D01*
X052780Y002580D02*
X052780Y002080D01*
X052380Y001680D01*
X052280Y001580D01*
X051080Y001580D01*
X051080Y001680D01*
X052380Y001680D01*
X051080Y001680D02*
X050780Y001680D01*
X049980Y001680D01*
X049680Y001680D01*
X049680Y001580D01*
X048480Y001580D01*
X048380Y001680D01*
X049680Y001680D01*
X049980Y001680D02*
X049980Y001530D01*
X050780Y001530D01*
X050780Y001680D01*
X048380Y001680D02*
X047980Y002080D01*
X047980Y002580D01*
X046180Y002580D02*
X046180Y002080D01*
X045780Y001680D01*
X046180Y005580D02*
X046180Y006080D01*
X045780Y006480D01*
X045680Y006580D01*
X044480Y006580D01*
X044480Y006480D01*
X044180Y006480D01*
X044180Y006630D01*
X043380Y006630D01*
X043380Y006480D01*
X043080Y006480D01*
X043080Y006580D01*
X041880Y006580D01*
X041780Y006480D01*
X041380Y006080D01*
X041380Y005580D01*
X041780Y006480D02*
X043080Y006480D01*
X043380Y006480D02*
X044180Y006480D01*
X044480Y006480D02*
X045780Y006480D01*
X047980Y006080D02*
X047980Y005580D01*
X047980Y006080D02*
X048380Y006480D01*
X048480Y006580D01*
X049680Y006580D01*
X049680Y006480D01*
X049980Y006480D01*
X050780Y006480D01*
X051080Y006480D01*
X051080Y006580D01*
X052280Y006580D01*
X052380Y006480D01*
X051080Y006480D01*
X050780Y006480D02*
X050780Y006630D01*
X049980Y006630D01*
X049980Y006480D01*
X049680Y006480D02*
X048380Y006480D01*
X052380Y006480D02*
X052780Y006080D01*
X052780Y005580D01*
X059080Y004780D02*
X059280Y004780D01*
X059280Y005630D01*
X059280Y005780D01*
X059280Y005930D01*
X059280Y006630D01*
X059280Y006780D01*
X059280Y006930D01*
X059280Y007630D01*
X059280Y007780D01*
X059280Y007930D01*
X062180Y007930D01*
X062180Y007780D01*
X062180Y007630D01*
X062180Y006930D01*
X062180Y006780D01*
X062180Y006630D01*
X062180Y005930D01*
X062180Y005780D01*
X062180Y005630D01*
X062180Y004780D01*
X059280Y004780D01*
X059080Y004780D02*
X059080Y012780D01*
X059280Y012780D01*
X059280Y011930D01*
X059280Y011780D01*
X062180Y011780D01*
X062180Y011630D01*
X062180Y010930D01*
X062180Y010780D01*
X059280Y010780D01*
X059280Y010630D01*
X059280Y009930D01*
X059280Y009780D01*
X062180Y009780D01*
X062180Y009630D01*
X062180Y008930D01*
X062180Y008780D01*
X059280Y008780D01*
X059280Y008630D01*
X059280Y007930D01*
X059280Y007780D02*
X062180Y007780D01*
X062180Y007930D02*
X062180Y008630D01*
X062180Y008780D01*
X059280Y008780D02*
X059280Y008930D01*
X059280Y009630D01*
X059280Y009780D01*
X062180Y009780D02*
X062180Y009930D01*
X062180Y010630D01*
X062180Y010780D01*
X059280Y010780D02*
X059280Y010930D01*
X059280Y011630D01*
X059280Y011780D01*
X062180Y011780D02*
X062180Y011930D01*
X062180Y012780D01*
X059280Y012780D01*
X056020Y012820D02*
X054340Y012820D01*
X054444Y014662D02*
X054444Y014898D01*
X054916Y014898D02*
X054916Y014662D01*
X055444Y014662D02*
X055444Y014898D01*
X055916Y014898D02*
X055916Y014662D01*
X056444Y014662D02*
X056444Y014898D01*
X056916Y014898D02*
X056916Y014662D01*
X057444Y014662D02*
X057444Y014898D01*
X057916Y014898D02*
X057916Y014662D01*
X058444Y014662D02*
X058444Y014898D01*
X058916Y014898D02*
X058916Y014662D01*
X056020Y010740D02*
X054340Y010740D01*
X054340Y009820D02*
X056020Y009820D01*
X052217Y008780D02*
X051723Y008780D01*
X052094Y009151D01*
X052094Y008410D01*
X051480Y008780D02*
X050987Y008780D01*
X050007Y008780D02*
X049884Y008657D01*
X049513Y008657D01*
X049513Y008410D02*
X049513Y009151D01*
X049884Y009151D01*
X050007Y009027D01*
X050007Y008780D01*
X049760Y008657D02*
X050007Y008410D01*
X050497Y008410D02*
X050497Y009151D01*
X050250Y009151D02*
X050744Y009151D01*
X049271Y009027D02*
X049147Y009151D01*
X048900Y009151D01*
X048777Y009027D01*
X048777Y008533D01*
X048900Y008410D01*
X049147Y008410D01*
X049271Y008533D01*
X049271Y009027D01*
X048534Y009027D02*
X048534Y008780D01*
X048411Y008657D01*
X048040Y008657D01*
X048040Y008410D02*
X048040Y009151D01*
X048411Y009151D01*
X048534Y009027D01*
X044317Y009027D02*
X044317Y008904D01*
X044194Y008780D01*
X044317Y008657D01*
X044317Y008533D01*
X044194Y008410D01*
X043947Y008410D01*
X043823Y008533D01*
X043580Y008780D02*
X043087Y008780D01*
X043823Y009027D02*
X043947Y009151D01*
X044194Y009151D01*
X044317Y009027D01*
X044194Y008780D02*
X044070Y008780D01*
X042844Y009151D02*
X042350Y009151D01*
X042597Y009151D02*
X042597Y008410D01*
X042107Y008410D02*
X041860Y008657D01*
X041984Y008657D02*
X041613Y008657D01*
X041613Y008410D02*
X041613Y009151D01*
X041984Y009151D01*
X042107Y009027D01*
X042107Y008780D01*
X041984Y008657D01*
X041371Y008533D02*
X041371Y009027D01*
X041247Y009151D01*
X041000Y009151D01*
X040877Y009027D01*
X040877Y008533D01*
X041000Y008410D01*
X041247Y008410D01*
X041371Y008533D01*
X040634Y008780D02*
X040511Y008657D01*
X040140Y008657D01*
X040140Y008410D02*
X040140Y009151D01*
X040511Y009151D01*
X040634Y009027D01*
X040634Y008780D01*
X039100Y007627D02*
X038977Y007751D01*
X038730Y007751D01*
X038607Y007627D01*
X038364Y007380D02*
X037870Y007380D01*
X037627Y007627D02*
X037504Y007751D01*
X037257Y007751D01*
X037133Y007627D01*
X037133Y007133D01*
X037257Y007010D01*
X037504Y007010D01*
X037627Y007133D01*
X036890Y007010D02*
X036890Y007751D01*
X036397Y007751D02*
X036890Y007010D01*
X036397Y007010D02*
X036397Y007751D01*
X036154Y007627D02*
X036154Y007504D01*
X036030Y007380D01*
X035660Y007380D01*
X035660Y007010D02*
X035660Y007751D01*
X036030Y007751D01*
X036154Y007627D01*
X036030Y007380D02*
X036154Y007257D01*
X036154Y007133D01*
X036030Y007010D01*
X035660Y007010D01*
X038607Y007010D02*
X039100Y007504D01*
X039100Y007627D01*
X039100Y007010D02*
X038607Y007010D01*
X036617Y008410D02*
X036123Y008410D01*
X036617Y008904D01*
X036617Y009027D01*
X036494Y009151D01*
X036247Y009151D01*
X036123Y009027D01*
X035880Y008780D02*
X035387Y008780D01*
X034407Y008780D02*
X034284Y008657D01*
X033913Y008657D01*
X033913Y008410D02*
X033913Y009151D01*
X034284Y009151D01*
X034407Y009027D01*
X034407Y008780D01*
X034160Y008657D02*
X034407Y008410D01*
X034897Y008410D02*
X034897Y009151D01*
X034650Y009151D02*
X035144Y009151D01*
X033671Y009027D02*
X033547Y009151D01*
X033300Y009151D01*
X033177Y009027D01*
X033177Y008533D01*
X033300Y008410D01*
X033547Y008410D01*
X033671Y008533D01*
X033671Y009027D01*
X032934Y009027D02*
X032934Y008780D01*
X032811Y008657D01*
X032440Y008657D01*
X032440Y008410D02*
X032440Y009151D01*
X032811Y009151D01*
X032934Y009027D01*
X029417Y008410D02*
X028923Y008410D01*
X029170Y008410D02*
X029170Y009151D01*
X028923Y008904D01*
X028680Y008780D02*
X028187Y008780D01*
X027944Y009151D02*
X027450Y009151D01*
X027697Y009151D02*
X027697Y008410D01*
X027207Y008410D02*
X026960Y008657D01*
X027084Y008657D02*
X026713Y008657D01*
X026713Y008410D02*
X026713Y009151D01*
X027084Y009151D01*
X027207Y009027D01*
X027207Y008780D01*
X027084Y008657D01*
X026471Y008533D02*
X026471Y009027D01*
X026347Y009151D01*
X026100Y009151D01*
X025977Y009027D01*
X025977Y008533D01*
X026100Y008410D01*
X026347Y008410D01*
X026471Y008533D01*
X025734Y008780D02*
X025611Y008657D01*
X025240Y008657D01*
X025240Y008410D02*
X025240Y009151D01*
X025611Y009151D01*
X025734Y009027D01*
X025734Y008780D01*
X028910Y007651D02*
X029280Y007651D01*
X029404Y007527D01*
X029404Y007404D01*
X029280Y007280D01*
X028910Y007280D01*
X029280Y007280D02*
X029404Y007157D01*
X029404Y007033D01*
X029280Y006910D01*
X028910Y006910D01*
X028910Y007651D01*
X029647Y007651D02*
X030140Y006910D01*
X030140Y007651D01*
X030383Y007527D02*
X030507Y007651D01*
X030754Y007651D01*
X030877Y007527D01*
X031120Y007280D02*
X031614Y007280D01*
X031857Y007404D02*
X032103Y007651D01*
X032103Y006910D01*
X031857Y006910D02*
X032350Y006910D01*
X030877Y007033D02*
X030754Y006910D01*
X030507Y006910D01*
X030383Y007033D01*
X030383Y007527D01*
X029647Y007651D02*
X029647Y006910D01*
X020798Y005016D02*
X020562Y005016D01*
X020562Y004544D02*
X020798Y004544D01*
X019298Y004544D02*
X019062Y004544D01*
X019062Y005016D02*
X019298Y005016D01*
X017270Y005330D02*
X017270Y006230D01*
X016090Y006230D02*
X016090Y005330D01*
X013480Y004960D02*
X013480Y007600D01*
X013478Y007623D01*
X013473Y007646D01*
X013464Y007668D01*
X013451Y007688D01*
X013436Y007706D01*
X013418Y007721D01*
X013398Y007734D01*
X013376Y007743D01*
X013353Y007748D01*
X013330Y007750D01*
X009030Y007750D01*
X009007Y007748D01*
X008984Y007743D01*
X008962Y007734D01*
X008942Y007721D01*
X008924Y007706D01*
X008909Y007688D01*
X008896Y007668D01*
X008887Y007646D01*
X008882Y007623D01*
X008880Y007600D01*
X008880Y006780D01*
X008880Y005780D01*
X008880Y004960D01*
X008882Y004937D01*
X008887Y004914D01*
X008896Y004892D01*
X008909Y004872D01*
X008924Y004854D01*
X008942Y004839D01*
X008962Y004826D01*
X008984Y004817D01*
X009007Y004812D01*
X009030Y004810D01*
X013330Y004810D01*
X013353Y004812D01*
X013376Y004817D01*
X013398Y004826D01*
X013418Y004839D01*
X013436Y004854D01*
X013451Y004872D01*
X013464Y004892D01*
X013473Y004914D01*
X013478Y004937D01*
X013480Y004960D01*
X008880Y005780D02*
X008924Y005782D01*
X008967Y005788D01*
X009009Y005797D01*
X009051Y005810D01*
X009091Y005827D01*
X009130Y005847D01*
X009167Y005870D01*
X009201Y005897D01*
X009234Y005926D01*
X009263Y005959D01*
X009290Y005993D01*
X009313Y006030D01*
X009333Y006069D01*
X009350Y006109D01*
X009363Y006151D01*
X009372Y006193D01*
X009378Y006236D01*
X009380Y006280D01*
X009378Y006324D01*
X009372Y006367D01*
X009363Y006409D01*
X009350Y006451D01*
X009333Y006491D01*
X009313Y006530D01*
X009290Y006567D01*
X009263Y006601D01*
X009234Y006634D01*
X009201Y006663D01*
X009167Y006690D01*
X009130Y006713D01*
X009091Y006733D01*
X009051Y006750D01*
X009009Y006763D01*
X008967Y006772D01*
X008924Y006778D01*
X008880Y006780D01*
X016562Y007794D02*
X016798Y007794D01*
X016798Y008266D02*
X016562Y008266D01*
X018900Y007388D02*
X019461Y007388D01*
X019461Y006172D01*
X018900Y006172D01*
X018900Y007388D01*
X054340Y007740D02*
X056020Y007740D01*
X059280Y006780D02*
X062180Y006780D01*
X062180Y005780D02*
X059280Y005780D01*
D15*
X059280Y005630D02*
X062180Y005630D01*
X062180Y005930D02*
X059280Y005930D01*
X059280Y006630D02*
X062180Y006630D01*
X062180Y006930D02*
X059280Y006930D01*
X059280Y007630D02*
X062180Y007630D01*
X062180Y008630D02*
X059280Y008630D01*
X059280Y008930D02*
X062180Y008930D01*
X062180Y009630D02*
X059280Y009630D01*
X059280Y009930D02*
X062180Y009930D01*
X062180Y010630D02*
X059280Y010630D01*
X059280Y010930D02*
X062180Y010930D01*
X062180Y011630D02*
X059280Y011630D01*
X059280Y011930D02*
X062180Y011930D01*
X058820Y013290D02*
X058633Y013477D01*
X058586Y013477D01*
X058540Y013430D01*
X058540Y013337D01*
X058586Y013290D01*
X058820Y013290D02*
X058820Y013477D01*
X058820Y013566D02*
X058540Y013566D01*
X058680Y013613D02*
X058820Y013753D01*
X058820Y013842D02*
X058633Y014029D01*
X058586Y014029D01*
X058540Y013983D01*
X058540Y013889D01*
X058586Y013842D01*
X058540Y013753D02*
X058727Y013566D01*
X058820Y013842D02*
X058820Y014029D01*
X057845Y014004D02*
X057845Y013817D01*
X057658Y014004D01*
X057611Y014004D01*
X057565Y013958D01*
X057565Y013864D01*
X057611Y013817D01*
X057565Y013728D02*
X057752Y013541D01*
X057705Y013588D02*
X057845Y013728D01*
X057845Y013541D02*
X057565Y013541D01*
X057611Y013452D02*
X057565Y013405D01*
X057565Y013312D01*
X057611Y013265D01*
X057611Y013452D02*
X057658Y013452D01*
X057845Y013265D01*
X057845Y013452D01*
X056845Y013452D02*
X056845Y013265D01*
X056658Y013452D01*
X056611Y013452D01*
X056565Y013405D01*
X056565Y013312D01*
X056611Y013265D01*
X056565Y013541D02*
X056845Y013541D01*
X056752Y013541D02*
X056565Y013728D01*
X056611Y013817D02*
X056565Y013864D01*
X056565Y013958D01*
X056611Y014004D01*
X056658Y014004D01*
X056845Y013817D01*
X056845Y014004D01*
X056845Y013728D02*
X056705Y013588D01*
X055845Y013541D02*
X055565Y013541D01*
X055611Y013452D02*
X055565Y013405D01*
X055565Y013312D01*
X055611Y013265D01*
X055611Y013452D02*
X055658Y013452D01*
X055845Y013265D01*
X055845Y013452D01*
X055752Y013541D02*
X055565Y013728D01*
X055611Y013817D02*
X055565Y013864D01*
X055565Y013958D01*
X055611Y014004D01*
X055658Y014004D01*
X055845Y013817D01*
X055845Y014004D01*
X054845Y013942D02*
X054658Y014129D01*
X054611Y014129D01*
X054565Y014083D01*
X054565Y013989D01*
X054611Y013942D01*
X054565Y013853D02*
X054752Y013666D01*
X054705Y013713D02*
X054845Y013853D01*
X054845Y013942D02*
X054845Y014129D01*
X054845Y013666D02*
X054565Y013666D01*
X054611Y013577D02*
X054565Y013530D01*
X054565Y013437D01*
X054611Y013390D01*
X054611Y013577D02*
X054658Y013577D01*
X054845Y013390D01*
X054845Y013577D01*
X055705Y013588D02*
X055845Y013728D01*
X055554Y010595D02*
X055427Y010595D01*
X055364Y010532D01*
X055249Y010532D02*
X055186Y010595D01*
X055059Y010595D01*
X054996Y010532D01*
X054996Y010278D01*
X055059Y010215D01*
X055186Y010215D01*
X055249Y010278D01*
X055364Y010278D02*
X055427Y010215D01*
X055554Y010215D01*
X055617Y010278D01*
X055617Y010342D01*
X055554Y010405D01*
X055491Y010405D01*
X055554Y010405D02*
X055617Y010469D01*
X055617Y010532D01*
X055554Y010595D01*
X054877Y010595D02*
X054750Y010595D01*
X054813Y010595D02*
X054813Y010215D01*
X054750Y010215D02*
X054877Y010215D01*
X054877Y007420D02*
X054750Y007420D01*
X054813Y007420D02*
X054813Y007040D01*
X054750Y007040D02*
X054877Y007040D01*
X054996Y007103D02*
X055059Y007040D01*
X055186Y007040D01*
X055249Y007103D01*
X055364Y007230D02*
X055617Y007230D01*
X055554Y007040D02*
X055554Y007420D01*
X055364Y007230D01*
X055249Y007357D02*
X055186Y007420D01*
X055059Y007420D01*
X054996Y007357D01*
X054996Y007103D01*
X051030Y004730D02*
X049730Y004730D01*
X049730Y003430D01*
X051030Y003430D01*
X051030Y004730D01*
X050080Y004080D02*
X050082Y004114D01*
X050088Y004148D01*
X050097Y004181D01*
X050111Y004212D01*
X050128Y004242D01*
X050148Y004270D01*
X050171Y004295D01*
X050197Y004318D01*
X050225Y004337D01*
X050255Y004353D01*
X050287Y004365D01*
X050320Y004374D01*
X050354Y004379D01*
X050389Y004380D01*
X050423Y004377D01*
X050456Y004370D01*
X050489Y004360D01*
X050520Y004345D01*
X050549Y004328D01*
X050576Y004307D01*
X050601Y004283D01*
X050623Y004256D01*
X050641Y004228D01*
X050656Y004197D01*
X050668Y004165D01*
X050676Y004131D01*
X050680Y004097D01*
X050680Y004063D01*
X050676Y004029D01*
X050668Y003995D01*
X050656Y003963D01*
X050641Y003932D01*
X050623Y003904D01*
X050601Y003877D01*
X050576Y003853D01*
X050549Y003832D01*
X050520Y003815D01*
X050489Y003800D01*
X050456Y003790D01*
X050423Y003783D01*
X050389Y003780D01*
X050354Y003781D01*
X050320Y003786D01*
X050287Y003795D01*
X050255Y003807D01*
X050225Y003823D01*
X050197Y003842D01*
X050171Y003865D01*
X050148Y003890D01*
X050128Y003918D01*
X050111Y003948D01*
X050097Y003979D01*
X050088Y004012D01*
X050082Y004046D01*
X050080Y004080D01*
X049980Y004080D02*
X049982Y004120D01*
X049988Y004159D01*
X049998Y004198D01*
X050011Y004235D01*
X050029Y004271D01*
X050050Y004305D01*
X050074Y004337D01*
X050101Y004366D01*
X050131Y004393D01*
X050163Y004416D01*
X050198Y004436D01*
X050234Y004452D01*
X050272Y004465D01*
X050311Y004474D01*
X050350Y004479D01*
X050390Y004480D01*
X050430Y004477D01*
X050469Y004470D01*
X050507Y004459D01*
X050545Y004445D01*
X050580Y004426D01*
X050613Y004405D01*
X050645Y004380D01*
X050673Y004352D01*
X050699Y004322D01*
X050721Y004289D01*
X050740Y004254D01*
X050756Y004217D01*
X050768Y004179D01*
X050776Y004140D01*
X050780Y004100D01*
X050780Y004060D01*
X050776Y004020D01*
X050768Y003981D01*
X050756Y003943D01*
X050740Y003906D01*
X050721Y003871D01*
X050699Y003838D01*
X050673Y003808D01*
X050645Y003780D01*
X050613Y003755D01*
X050580Y003734D01*
X050545Y003715D01*
X050507Y003701D01*
X050469Y003690D01*
X050430Y003683D01*
X050390Y003680D01*
X050350Y003681D01*
X050311Y003686D01*
X050272Y003695D01*
X050234Y003708D01*
X050198Y003724D01*
X050163Y003744D01*
X050131Y003767D01*
X050101Y003794D01*
X050074Y003823D01*
X050050Y003855D01*
X050029Y003889D01*
X050011Y003925D01*
X049998Y003962D01*
X049988Y004001D01*
X049982Y004040D01*
X049980Y004080D01*
X044430Y003430D02*
X043130Y003430D01*
X043130Y004730D01*
X044430Y004730D01*
X044430Y003430D01*
X043480Y004080D02*
X043482Y004114D01*
X043488Y004148D01*
X043497Y004181D01*
X043511Y004212D01*
X043528Y004242D01*
X043548Y004270D01*
X043571Y004295D01*
X043597Y004318D01*
X043625Y004337D01*
X043655Y004353D01*
X043687Y004365D01*
X043720Y004374D01*
X043754Y004379D01*
X043789Y004380D01*
X043823Y004377D01*
X043856Y004370D01*
X043889Y004360D01*
X043920Y004345D01*
X043949Y004328D01*
X043976Y004307D01*
X044001Y004283D01*
X044023Y004256D01*
X044041Y004228D01*
X044056Y004197D01*
X044068Y004165D01*
X044076Y004131D01*
X044080Y004097D01*
X044080Y004063D01*
X044076Y004029D01*
X044068Y003995D01*
X044056Y003963D01*
X044041Y003932D01*
X044023Y003904D01*
X044001Y003877D01*
X043976Y003853D01*
X043949Y003832D01*
X043920Y003815D01*
X043889Y003800D01*
X043856Y003790D01*
X043823Y003783D01*
X043789Y003780D01*
X043754Y003781D01*
X043720Y003786D01*
X043687Y003795D01*
X043655Y003807D01*
X043625Y003823D01*
X043597Y003842D01*
X043571Y003865D01*
X043548Y003890D01*
X043528Y003918D01*
X043511Y003948D01*
X043497Y003979D01*
X043488Y004012D01*
X043482Y004046D01*
X043480Y004080D01*
X043380Y004080D02*
X043382Y004120D01*
X043388Y004159D01*
X043398Y004198D01*
X043411Y004235D01*
X043429Y004271D01*
X043450Y004305D01*
X043474Y004337D01*
X043501Y004366D01*
X043531Y004393D01*
X043563Y004416D01*
X043598Y004436D01*
X043634Y004452D01*
X043672Y004465D01*
X043711Y004474D01*
X043750Y004479D01*
X043790Y004480D01*
X043830Y004477D01*
X043869Y004470D01*
X043907Y004459D01*
X043945Y004445D01*
X043980Y004426D01*
X044013Y004405D01*
X044045Y004380D01*
X044073Y004352D01*
X044099Y004322D01*
X044121Y004289D01*
X044140Y004254D01*
X044156Y004217D01*
X044168Y004179D01*
X044176Y004140D01*
X044180Y004100D01*
X044180Y004060D01*
X044176Y004020D01*
X044168Y003981D01*
X044156Y003943D01*
X044140Y003906D01*
X044121Y003871D01*
X044099Y003838D01*
X044073Y003808D01*
X044045Y003780D01*
X044013Y003755D01*
X043980Y003734D01*
X043945Y003715D01*
X043907Y003701D01*
X043869Y003690D01*
X043830Y003683D01*
X043790Y003680D01*
X043750Y003681D01*
X043711Y003686D01*
X043672Y003695D01*
X043634Y003708D01*
X043598Y003724D01*
X043563Y003744D01*
X043531Y003767D01*
X043501Y003794D01*
X043474Y003823D01*
X043450Y003855D01*
X043429Y003889D01*
X043411Y003925D01*
X043398Y003962D01*
X043388Y004001D01*
X043382Y004040D01*
X043380Y004080D01*
X021882Y006870D02*
X021695Y006870D01*
X021695Y006590D01*
X021606Y006590D02*
X021606Y006730D01*
X021559Y006777D01*
X021419Y006777D01*
X021419Y006590D01*
X021329Y006637D02*
X021283Y006590D01*
X021189Y006590D01*
X021142Y006637D01*
X021329Y006824D01*
X021329Y006637D01*
X021142Y006637D02*
X021142Y006824D01*
X021189Y006870D01*
X021283Y006870D01*
X021329Y006824D01*
X021053Y006824D02*
X020866Y006637D01*
X020913Y006590D01*
X021006Y006590D01*
X021053Y006637D01*
X021053Y006824D01*
X021006Y006870D01*
X020913Y006870D01*
X020866Y006824D01*
X020866Y006637D01*
X020777Y006590D02*
X020590Y006590D01*
X020683Y006590D02*
X020683Y006870D01*
X020590Y006777D01*
X021695Y006730D02*
X021788Y006730D01*
X020801Y005420D02*
X020614Y005233D01*
X020660Y005280D02*
X020801Y005140D01*
X020614Y005140D02*
X020614Y005420D01*
X020524Y005374D02*
X020338Y005187D01*
X020384Y005140D01*
X020478Y005140D01*
X020524Y005187D01*
X020524Y005374D01*
X020478Y005420D01*
X020384Y005420D01*
X020338Y005374D01*
X020338Y005187D01*
X020248Y005140D02*
X020061Y005140D01*
X020155Y005140D02*
X020155Y005420D01*
X020061Y005327D01*
X019401Y005420D02*
X019214Y005233D01*
X019260Y005280D02*
X019401Y005140D01*
X019214Y005140D02*
X019214Y005420D01*
X019124Y005374D02*
X018938Y005187D01*
X018984Y005140D01*
X019078Y005140D01*
X019124Y005187D01*
X019124Y005374D01*
X019078Y005420D01*
X018984Y005420D01*
X018938Y005374D01*
X018938Y005187D01*
X018848Y005140D02*
X018661Y005140D01*
X018848Y005327D01*
X018848Y005374D01*
X018801Y005420D01*
X018708Y005420D01*
X018661Y005374D01*
X015795Y006890D02*
X015795Y007170D01*
X015982Y007170D01*
X015888Y007030D02*
X015795Y007030D01*
X015706Y007030D02*
X015706Y006890D01*
X015706Y007030D02*
X015659Y007077D01*
X015519Y007077D01*
X015519Y006890D01*
X015429Y006937D02*
X015383Y006890D01*
X015289Y006890D01*
X015242Y006937D01*
X015429Y007124D01*
X015429Y006937D01*
X015242Y006937D02*
X015242Y007124D01*
X015289Y007170D01*
X015383Y007170D01*
X015429Y007124D01*
X015153Y007124D02*
X014966Y006937D01*
X015013Y006890D01*
X015106Y006890D01*
X015153Y006937D01*
X015153Y007124D01*
X015106Y007170D01*
X015013Y007170D01*
X014966Y007124D01*
X014966Y006937D01*
X014877Y006890D02*
X014690Y006890D01*
X014783Y006890D02*
X014783Y007170D01*
X014690Y007077D01*
X016008Y008390D02*
X015961Y008437D01*
X016008Y008390D02*
X016101Y008390D01*
X016148Y008437D01*
X016148Y008483D01*
X016101Y008530D01*
X016055Y008530D01*
X016101Y008530D02*
X016148Y008577D01*
X016148Y008624D01*
X016101Y008670D01*
X016008Y008670D01*
X015961Y008624D01*
X016238Y008624D02*
X016238Y008437D01*
X016424Y008624D01*
X016424Y008437D01*
X016378Y008390D01*
X016284Y008390D01*
X016238Y008437D01*
X016238Y008624D02*
X016284Y008670D01*
X016378Y008670D01*
X016424Y008624D01*
X016514Y008670D02*
X016514Y008390D01*
X016514Y008483D02*
X016701Y008670D01*
X016560Y008530D02*
X016701Y008390D01*
X013480Y004950D02*
X008880Y004950D01*
D16*
X008755Y004930D02*
X008305Y004930D01*
X008305Y004855D02*
X008305Y005005D01*
X008380Y005162D02*
X008680Y005162D01*
X008755Y005237D01*
X008755Y005387D01*
X008680Y005462D01*
X008755Y005622D02*
X008455Y005923D01*
X008380Y005923D01*
X008305Y005848D01*
X008305Y005697D01*
X008380Y005622D01*
X008380Y005462D02*
X008305Y005387D01*
X008305Y005237D01*
X008380Y005162D01*
X008755Y005005D02*
X008755Y004855D01*
X008755Y005622D02*
X008755Y005923D01*
X009705Y006105D02*
X009705Y006555D01*
X009555Y006555D02*
X009855Y006555D01*
X010015Y006555D02*
X010241Y006555D01*
X010316Y006480D01*
X010316Y006405D01*
X010241Y006330D01*
X010015Y006330D01*
X010015Y006105D02*
X010241Y006105D01*
X010316Y006180D01*
X010316Y006255D01*
X010241Y006330D01*
X010015Y006105D02*
X010015Y006555D01*
X010476Y006555D02*
X010701Y006555D01*
X010776Y006480D01*
X010776Y006180D01*
X010701Y006105D01*
X010476Y006105D01*
X010476Y006555D01*
X010936Y006330D02*
X011161Y006330D01*
X011236Y006255D01*
X011236Y006180D01*
X011161Y006105D01*
X011011Y006105D01*
X010936Y006180D01*
X010936Y006330D01*
X011086Y006480D01*
X011236Y006555D01*
X011397Y006480D02*
X011472Y006555D01*
X011622Y006555D01*
X011697Y006480D01*
X011697Y006405D01*
X011397Y006105D01*
X011697Y006105D01*
X011857Y006180D02*
X012157Y006480D01*
X012157Y006180D01*
X012082Y006105D01*
X011932Y006105D01*
X011857Y006180D01*
X011857Y006480D01*
X011932Y006555D01*
X012082Y006555D01*
X012157Y006480D01*
X012317Y006480D02*
X012317Y006405D01*
X012392Y006330D01*
X012543Y006330D01*
X012618Y006255D01*
X012618Y006180D01*
X012543Y006105D01*
X012392Y006105D01*
X012317Y006180D01*
X012317Y006255D01*
X012392Y006330D01*
X012543Y006330D02*
X012618Y006405D01*
X012618Y006480D01*
X012543Y006555D01*
X012392Y006555D01*
X012317Y006480D01*
X012778Y006480D02*
X012853Y006555D01*
X013003Y006555D01*
X013078Y006480D01*
X013078Y006405D01*
X013003Y006330D01*
X013078Y006255D01*
X013078Y006180D01*
X013003Y006105D01*
X012853Y006105D01*
X012778Y006180D01*
X012928Y006330D02*
X013003Y006330D01*
X015395Y005703D02*
X015395Y005402D01*
X015620Y005402D01*
X015545Y005552D01*
X015545Y005628D01*
X015620Y005703D01*
X015770Y005703D01*
X015845Y005628D01*
X015845Y005477D01*
X015770Y005402D01*
X015770Y005242D02*
X015845Y005167D01*
X015845Y005017D01*
X015770Y004942D01*
X015470Y004942D01*
X015395Y005017D01*
X015395Y005167D01*
X015470Y005242D01*
X015395Y004785D02*
X015395Y004635D01*
X015395Y004710D02*
X015845Y004710D01*
X015845Y004635D02*
X015845Y004785D01*
X041755Y005405D02*
X042055Y005405D01*
X041905Y005405D02*
X041905Y005855D01*
X041755Y005705D01*
X045355Y005780D02*
X045430Y005855D01*
X045580Y005855D01*
X045655Y005780D01*
X045655Y005705D01*
X045355Y005405D01*
X045655Y005405D01*
X048355Y005405D02*
X048655Y005405D01*
X048505Y005405D02*
X048505Y005855D01*
X048355Y005705D01*
X051955Y005780D02*
X052030Y005855D01*
X052180Y005855D01*
X052255Y005780D01*
X052255Y005705D01*
X051955Y005405D01*
X052255Y005405D01*
X059705Y005355D02*
X059705Y005430D01*
X059780Y005505D01*
X059930Y005505D01*
X060005Y005430D01*
X060005Y005355D01*
X059930Y005280D01*
X059780Y005280D01*
X059705Y005355D01*
X059780Y005280D02*
X059705Y005205D01*
X059705Y005130D01*
X059780Y005055D01*
X059930Y005055D01*
X060005Y005130D01*
X060005Y005205D01*
X059930Y005280D01*
X059705Y006055D02*
X059705Y006130D01*
X060005Y006430D01*
X060005Y006505D01*
X059705Y006505D01*
X059780Y007055D02*
X059930Y007055D01*
X060005Y007130D01*
X060005Y007205D01*
X059930Y007280D01*
X059705Y007280D01*
X059705Y007130D01*
X059780Y007055D01*
X059705Y007280D02*
X059855Y007430D01*
X060005Y007505D01*
X059930Y008055D02*
X059780Y008055D01*
X059705Y008130D01*
X059705Y008280D02*
X059855Y008355D01*
X059930Y008355D01*
X060005Y008280D01*
X060005Y008130D01*
X059930Y008055D01*
X059705Y008280D02*
X059705Y008505D01*
X060005Y008505D01*
X059930Y009055D02*
X059930Y009505D01*
X059705Y009280D01*
X060005Y009280D01*
X059930Y010055D02*
X059780Y010055D01*
X059705Y010130D01*
X059855Y010280D02*
X059930Y010280D01*
X060005Y010205D01*
X060005Y010130D01*
X059930Y010055D01*
X059930Y010280D02*
X060005Y010355D01*
X060005Y010430D01*
X059930Y010505D01*
X059780Y010505D01*
X059705Y010430D01*
X059705Y011055D02*
X060005Y011355D01*
X060005Y011430D01*
X059930Y011505D01*
X059780Y011505D01*
X059705Y011430D01*
X059705Y011055D02*
X060005Y011055D01*
X052230Y002705D02*
X052005Y002480D01*
X052305Y002480D01*
X052230Y002255D02*
X052230Y002705D01*
X048655Y002630D02*
X048655Y002555D01*
X048580Y002480D01*
X048655Y002405D01*
X048655Y002330D01*
X048580Y002255D01*
X048430Y002255D01*
X048355Y002330D01*
X048505Y002480D02*
X048580Y002480D01*
X048655Y002630D02*
X048580Y002705D01*
X048430Y002705D01*
X048355Y002630D01*
X045705Y002480D02*
X045405Y002480D01*
X045630Y002705D01*
X045630Y002255D01*
X042055Y002330D02*
X041980Y002255D01*
X041830Y002255D01*
X041755Y002330D01*
X041905Y002480D02*
X041980Y002480D01*
X042055Y002405D01*
X042055Y002330D01*
X041980Y002480D02*
X042055Y002555D01*
X042055Y002630D01*
X041980Y002705D01*
X041830Y002705D01*
X041755Y002630D01*
D17*
X042455Y001680D03*
X045105Y001680D03*
X049055Y001680D03*
X051705Y001680D03*
X051705Y006480D03*
X049055Y006480D03*
X045105Y006480D03*
X042455Y006480D03*
D18*
X042940Y007120D02*
X043180Y007120D01*
X043300Y007240D01*
X043300Y007841D01*
X043557Y007721D02*
X043557Y007600D01*
X043677Y007480D01*
X043917Y007480D01*
X044037Y007360D01*
X044037Y007240D01*
X043917Y007120D01*
X043677Y007120D01*
X043557Y007240D01*
X042940Y007120D02*
X042820Y007240D01*
X042820Y007841D01*
X043557Y007721D02*
X043677Y007841D01*
X043917Y007841D01*
X044037Y007721D01*
X044293Y007841D02*
X044654Y007841D01*
X044774Y007721D01*
X044774Y007480D01*
X044654Y007360D01*
X044293Y007360D01*
X044293Y007120D02*
X044293Y007841D01*
X044533Y007360D02*
X044774Y007120D01*
X048420Y007120D02*
X048420Y007841D01*
X048780Y007841D01*
X048900Y007721D01*
X048900Y007480D01*
X048780Y007360D01*
X048420Y007360D01*
X048660Y007360D02*
X048900Y007120D01*
X049157Y007120D02*
X049637Y007120D01*
X049893Y007240D02*
X050013Y007120D01*
X050254Y007120D01*
X050374Y007240D01*
X050374Y007360D01*
X050254Y007480D01*
X050013Y007480D01*
X049893Y007600D01*
X049893Y007721D01*
X050013Y007841D01*
X050254Y007841D01*
X050374Y007721D01*
X050630Y007841D02*
X050630Y007120D01*
X051110Y007120D01*
X051607Y007120D02*
X051607Y007841D01*
X051367Y007841D02*
X051847Y007841D01*
X051110Y007841D02*
X050630Y007841D01*
X050630Y007480D02*
X050870Y007480D01*
X049637Y007841D02*
X049157Y007841D01*
X049157Y007120D01*
X049157Y007480D02*
X049397Y007480D01*
X047217Y009521D02*
X047217Y015844D01*
X053143Y015844D01*
X053143Y009521D01*
X047217Y009521D01*
X045143Y009521D02*
X045143Y015844D01*
X039217Y015844D01*
X039217Y009521D01*
X045143Y009521D01*
X037643Y009521D02*
X037643Y015844D01*
X031717Y015844D01*
X031717Y009521D01*
X037643Y009521D01*
X030143Y009521D02*
X030143Y015844D01*
X024217Y015844D01*
X024217Y009521D01*
X030143Y009521D01*
X005424Y006887D02*
X005424Y006179D01*
X005424Y006887D02*
X001566Y006887D01*
X001566Y003423D01*
X000188Y003423D02*
X003259Y003423D01*
X005424Y003423D02*
X005424Y004131D01*
X000188Y003423D02*
X000188Y006887D01*
X001566Y006887D01*
X002205Y008865D02*
X002205Y011445D01*
X004565Y011445D01*
X004565Y008865D02*
X002205Y008865D01*
D19*
X003275Y007732D02*
X003428Y007885D01*
X003428Y007425D01*
X003275Y007425D02*
X003582Y007425D01*
X003735Y007502D02*
X003812Y007425D01*
X004042Y007425D01*
X004042Y007732D01*
X004196Y007655D02*
X004349Y007655D01*
X004196Y007425D02*
X004196Y007885D01*
X004503Y007885D01*
X003735Y007732D02*
X003735Y007502D01*
X003298Y006336D02*
X002904Y006336D01*
X002708Y006336D02*
X002314Y006336D01*
X002117Y006336D02*
X001723Y006336D01*
X001330Y006336D02*
X000936Y006336D01*
X000739Y006336D02*
X000345Y006336D01*
X000542Y005549D02*
X000345Y005352D01*
X000345Y004958D01*
X000542Y004761D01*
X001330Y004761D01*
X001723Y004761D02*
X002708Y004761D01*
X002708Y003974D02*
X002314Y003974D01*
X002117Y003974D02*
X001723Y003974D01*
X001330Y003974D02*
X000936Y003974D01*
X000739Y003974D02*
X000345Y003974D01*
X002904Y003974D02*
X003298Y003974D01*
X002708Y005549D02*
X001723Y005549D01*
X001330Y005549D02*
X000542Y005549D01*
X018900Y007500D02*
X019020Y007500D01*
X018960Y007500D02*
X018960Y007860D01*
X018900Y007860D02*
X019020Y007860D01*
X019146Y007800D02*
X019146Y007560D01*
X019206Y007500D01*
X019326Y007500D01*
X019386Y007560D01*
X019514Y007560D02*
X019574Y007500D01*
X019694Y007500D01*
X019754Y007560D01*
X019754Y007620D01*
X019694Y007680D01*
X019514Y007680D01*
X019514Y007560D01*
X019514Y007680D02*
X019634Y007800D01*
X019754Y007860D01*
X019386Y007800D02*
X019326Y007860D01*
X019206Y007860D01*
X019146Y007800D01*
X003996Y012425D02*
X003996Y012885D01*
X004303Y012885D01*
X004149Y012655D02*
X003996Y012655D01*
X003842Y012732D02*
X003842Y012425D01*
X003612Y012425D01*
X003535Y012502D01*
X003535Y012732D01*
X003228Y012885D02*
X003228Y012425D01*
X003075Y012425D02*
X003382Y012425D01*
X003075Y012732D02*
X003228Y012885D01*
D20*
X002015Y010155D03*
D21*
X006735Y014440D02*
X006831Y014345D01*
X006926Y014440D01*
X006926Y014630D01*
X007025Y014630D02*
X007121Y014630D01*
X007073Y014630D02*
X007073Y014345D01*
X007025Y014345D02*
X007121Y014345D01*
X007219Y014345D02*
X007219Y014630D01*
X007409Y014345D01*
X007409Y014630D01*
X007687Y014582D02*
X007735Y014630D01*
X007830Y014630D01*
X007877Y014582D01*
X007877Y014535D01*
X007830Y014487D01*
X007877Y014440D01*
X007877Y014392D01*
X007830Y014345D01*
X007735Y014345D01*
X007687Y014392D01*
X007782Y014487D02*
X007830Y014487D01*
X007977Y014440D02*
X008072Y014345D01*
X008167Y014440D01*
X008167Y014630D01*
X008267Y014582D02*
X008315Y014630D01*
X008410Y014630D01*
X008457Y014582D01*
X008457Y014535D01*
X008410Y014487D01*
X008457Y014440D01*
X008457Y014392D01*
X008410Y014345D01*
X008315Y014345D01*
X008267Y014392D01*
X008362Y014487D02*
X008410Y014487D01*
X008687Y014392D02*
X008735Y014345D01*
X008830Y014345D01*
X008877Y014392D01*
X008877Y014487D01*
X008782Y014487D01*
X008687Y014582D02*
X008687Y014392D01*
X008687Y014582D02*
X008735Y014630D01*
X008830Y014630D01*
X008877Y014582D01*
X008977Y014630D02*
X009167Y014345D01*
X009167Y014630D01*
X009267Y014630D02*
X009410Y014630D01*
X009457Y014582D01*
X009457Y014392D01*
X009410Y014345D01*
X009267Y014345D01*
X009267Y014630D01*
X008977Y014630D02*
X008977Y014345D01*
X009687Y014345D02*
X009687Y014630D01*
X009830Y014630D01*
X009877Y014582D01*
X009877Y014487D01*
X009830Y014440D01*
X009687Y014440D01*
X009782Y014440D02*
X009877Y014345D01*
X009977Y014392D02*
X010025Y014345D01*
X010120Y014345D01*
X010167Y014392D01*
X010167Y014440D01*
X010120Y014487D01*
X010025Y014487D01*
X009977Y014535D01*
X009977Y014582D01*
X010025Y014630D01*
X010120Y014630D01*
X010167Y014582D01*
X010267Y014630D02*
X010457Y014630D01*
X010362Y014630D02*
X010362Y014345D01*
X010687Y014582D02*
X010782Y014487D01*
X010782Y014345D01*
X010782Y014487D02*
X010877Y014582D01*
X010877Y014630D01*
X010977Y014535D02*
X011072Y014630D01*
X011072Y014345D01*
X010977Y014345D02*
X011167Y014345D01*
X011267Y014345D02*
X011457Y014535D01*
X011457Y014582D01*
X011410Y014630D01*
X011315Y014630D01*
X011267Y014582D01*
X011687Y014582D02*
X011782Y014487D01*
X011782Y014345D01*
X011782Y014487D02*
X011877Y014582D01*
X011877Y014630D01*
X011977Y014535D02*
X012072Y014630D01*
X012072Y014345D01*
X011977Y014345D02*
X012167Y014345D01*
X012267Y014345D02*
X012457Y014345D01*
X012362Y014345D02*
X012362Y014630D01*
X012267Y014535D01*
X012687Y014582D02*
X012782Y014487D01*
X012782Y014345D01*
X012782Y014487D02*
X012877Y014582D01*
X012877Y014630D01*
X012977Y014535D02*
X013072Y014630D01*
X013072Y014345D01*
X012977Y014345D02*
X013167Y014345D01*
X013267Y014392D02*
X013315Y014345D01*
X013410Y014345D01*
X013457Y014392D01*
X013457Y014582D01*
X013267Y014392D01*
X013267Y014582D01*
X013315Y014630D01*
X013410Y014630D01*
X013457Y014582D01*
X013832Y014582D02*
X013927Y014487D01*
X013927Y014345D01*
X013927Y014487D02*
X014022Y014582D01*
X014022Y014630D01*
X014122Y014582D02*
X014122Y014535D01*
X014170Y014487D01*
X014312Y014487D01*
X014312Y014392D02*
X014312Y014582D01*
X014265Y014630D01*
X014170Y014630D01*
X014122Y014582D01*
X014122Y014392D02*
X014170Y014345D01*
X014265Y014345D01*
X014312Y014392D01*
X013832Y014582D02*
X013832Y014630D01*
X014832Y014630D02*
X015022Y014345D01*
X015122Y014392D02*
X015170Y014345D01*
X015265Y014345D01*
X015312Y014392D01*
X015312Y014440D01*
X015265Y014487D01*
X015170Y014487D01*
X015122Y014535D01*
X015122Y014582D01*
X015170Y014630D01*
X015265Y014630D01*
X015312Y014582D01*
X015312Y014535D01*
X015265Y014487D01*
X015170Y014487D02*
X015122Y014440D01*
X015122Y014392D01*
X015022Y014630D02*
X014832Y014345D01*
X015832Y014345D02*
X016022Y014630D01*
X016122Y014630D02*
X016312Y014630D01*
X016312Y014582D01*
X016122Y014392D01*
X016122Y014345D01*
X016022Y014345D02*
X015832Y014630D01*
X016832Y014630D02*
X017022Y014345D01*
X017122Y014392D02*
X017170Y014345D01*
X017265Y014345D01*
X017312Y014392D01*
X017312Y014440D01*
X017265Y014487D01*
X017122Y014487D01*
X017122Y014392D01*
X017122Y014487D02*
X017217Y014582D01*
X017312Y014630D01*
X017022Y014630D02*
X016832Y014345D01*
X017832Y014345D02*
X018022Y014630D01*
X018122Y014630D02*
X018122Y014487D01*
X018217Y014535D01*
X018265Y014535D01*
X018312Y014487D01*
X018312Y014392D01*
X018265Y014345D01*
X018170Y014345D01*
X018122Y014392D01*
X018022Y014345D02*
X017832Y014630D01*
X018122Y014630D02*
X018312Y014630D01*
X018832Y014630D02*
X019022Y014345D01*
X019122Y014487D02*
X019312Y014487D01*
X019265Y014345D02*
X019265Y014630D01*
X019122Y014487D01*
X019022Y014630D02*
X018832Y014345D01*
X019832Y014345D02*
X020022Y014630D01*
X020122Y014582D02*
X020170Y014630D01*
X020265Y014630D01*
X020312Y014582D01*
X020312Y014535D01*
X020265Y014487D01*
X020312Y014440D01*
X020312Y014392D01*
X020265Y014345D01*
X020170Y014345D01*
X020122Y014392D01*
X020022Y014345D02*
X019832Y014630D01*
X020217Y014487D02*
X020265Y014487D01*
X020832Y014345D02*
X021022Y014630D01*
X021122Y014582D02*
X021170Y014630D01*
X021265Y014630D01*
X021312Y014582D01*
X021312Y014535D01*
X021122Y014345D01*
X021312Y014345D01*
X021022Y014345D02*
X020832Y014630D01*
X021832Y014630D02*
X022022Y014345D01*
X022122Y014345D02*
X022312Y014345D01*
X022217Y014345D02*
X022217Y014630D01*
X022122Y014535D01*
X022022Y014630D02*
X021832Y014345D01*
X012687Y014582D02*
X012687Y014630D01*
X011687Y014630D02*
X011687Y014582D01*
X010687Y014582D02*
X010687Y014630D01*
X011267Y014345D02*
X011457Y014345D01*
X007977Y014440D02*
X007977Y014630D01*
X006735Y014630D02*
X006735Y014440D01*
X016013Y004729D02*
X016327Y004415D01*
X016327Y004572D02*
X016013Y004572D01*
X016013Y004415D02*
X016327Y004729D01*
X016170Y004729D02*
X016170Y004415D01*
X020287Y003890D02*
X020382Y003795D01*
X020335Y003695D02*
X020430Y003695D01*
X020477Y003648D01*
X020477Y003505D01*
X020572Y003505D02*
X020287Y003505D01*
X020287Y003648D01*
X020335Y003695D01*
X020287Y003890D02*
X020572Y003890D01*
X020572Y003795D02*
X020572Y003985D01*
X022787Y003940D02*
X022787Y004130D01*
X022835Y004130D01*
X023025Y003940D01*
X023072Y003940D01*
X023072Y003840D02*
X023072Y003650D01*
X023072Y003745D02*
X022787Y003745D01*
X022882Y003650D01*
X022787Y003550D02*
X023072Y003360D01*
X023072Y003550D02*
X022787Y003360D01*
X022409Y002130D02*
X022409Y001845D01*
X022219Y002130D01*
X022219Y001845D01*
X022121Y001845D02*
X022025Y001845D01*
X022073Y001845D02*
X022073Y002130D01*
X022025Y002130D02*
X022121Y002130D01*
X021926Y002130D02*
X021926Y001940D01*
X021831Y001845D01*
X021735Y001940D01*
X021735Y002130D01*
X021457Y002082D02*
X021457Y002035D01*
X021410Y001987D01*
X021457Y001940D01*
X021457Y001892D01*
X021410Y001845D01*
X021315Y001845D01*
X021267Y001892D01*
X021167Y001940D02*
X021167Y002130D01*
X021267Y002082D02*
X021315Y002130D01*
X021410Y002130D01*
X021457Y002082D01*
X021410Y001987D02*
X021362Y001987D01*
X021167Y001940D02*
X021072Y001845D01*
X020977Y001940D01*
X020977Y002130D01*
X020877Y002082D02*
X020877Y002035D01*
X020830Y001987D01*
X020877Y001940D01*
X020877Y001892D01*
X020830Y001845D01*
X020735Y001845D01*
X020687Y001892D01*
X020782Y001987D02*
X020830Y001987D01*
X020877Y002082D02*
X020830Y002130D01*
X020735Y002130D01*
X020687Y002082D01*
X020457Y002082D02*
X020457Y001892D01*
X020410Y001845D01*
X020267Y001845D01*
X020267Y002130D01*
X020410Y002130D01*
X020457Y002082D01*
X020167Y002130D02*
X020167Y001845D01*
X019977Y002130D01*
X019977Y001845D01*
X019877Y001892D02*
X019877Y001987D01*
X019782Y001987D01*
X019687Y002082D02*
X019687Y001892D01*
X019735Y001845D01*
X019830Y001845D01*
X019877Y001892D01*
X019877Y002082D02*
X019830Y002130D01*
X019735Y002130D01*
X019687Y002082D01*
X019457Y002130D02*
X019267Y002130D01*
X019362Y002130D02*
X019362Y001845D01*
X019167Y001892D02*
X019120Y001845D01*
X019025Y001845D01*
X018977Y001892D01*
X019025Y001987D02*
X019120Y001987D01*
X019167Y001940D01*
X019167Y001892D01*
X019025Y001987D02*
X018977Y002035D01*
X018977Y002082D01*
X019025Y002130D01*
X019120Y002130D01*
X019167Y002082D01*
X018877Y002082D02*
X018877Y001987D01*
X018830Y001940D01*
X018687Y001940D01*
X018782Y001940D02*
X018877Y001845D01*
X018687Y001845D02*
X018687Y002130D01*
X018830Y002130D01*
X018877Y002082D01*
X018457Y002082D02*
X018410Y002130D01*
X018315Y002130D01*
X018267Y002082D01*
X018457Y002082D02*
X018457Y002035D01*
X018267Y001845D01*
X018457Y001845D01*
X018167Y001845D02*
X017977Y001845D01*
X018072Y001845D02*
X018072Y002130D01*
X017977Y002035D01*
X017877Y002130D02*
X017687Y001845D01*
X017877Y001845D02*
X017687Y002130D01*
X017362Y002130D02*
X017362Y001845D01*
X017267Y001845D02*
X017457Y001845D01*
X017267Y002035D02*
X017362Y002130D01*
X017072Y002130D02*
X017072Y001845D01*
X016977Y001845D02*
X017167Y001845D01*
X016977Y002035D02*
X017072Y002130D01*
X016877Y002130D02*
X016687Y001845D01*
X016877Y001845D02*
X016687Y002130D01*
X016457Y002082D02*
X016267Y001892D01*
X016315Y001845D01*
X016410Y001845D01*
X016457Y001892D01*
X016457Y002082D01*
X016410Y002130D01*
X016315Y002130D01*
X016267Y002082D01*
X016267Y001892D01*
X016167Y001845D02*
X015977Y001845D01*
X016072Y001845D02*
X016072Y002130D01*
X015977Y002035D01*
X015877Y002130D02*
X015687Y001845D01*
X015877Y001845D02*
X015687Y002130D01*
X015312Y002082D02*
X015312Y001892D01*
X015265Y001845D01*
X015170Y001845D01*
X015122Y001892D01*
X015170Y001987D02*
X015312Y001987D01*
X015312Y002082D02*
X015265Y002130D01*
X015170Y002130D01*
X015122Y002082D01*
X015122Y002035D01*
X015170Y001987D01*
X015022Y001845D02*
X014832Y002130D01*
X015022Y002130D02*
X014832Y001845D01*
X014312Y001892D02*
X014265Y001845D01*
X014170Y001845D01*
X014122Y001892D01*
X014122Y001940D01*
X014170Y001987D01*
X014265Y001987D01*
X014312Y001940D01*
X014312Y001892D01*
X014265Y001987D02*
X014312Y002035D01*
X014312Y002082D01*
X014265Y002130D01*
X014170Y002130D01*
X014122Y002082D01*
X014122Y002035D01*
X014170Y001987D01*
X014022Y002082D02*
X014022Y002130D01*
X014022Y002082D02*
X013927Y001987D01*
X013927Y001845D01*
X013927Y001987D02*
X013832Y002082D01*
X013832Y002130D01*
X013312Y002130D02*
X013312Y002082D01*
X013122Y001892D01*
X013122Y001845D01*
X012927Y001845D02*
X012927Y001987D01*
X013022Y002082D01*
X013022Y002130D01*
X013122Y002130D02*
X013312Y002130D01*
X012927Y001987D02*
X012832Y002082D01*
X012832Y002130D01*
X012312Y002130D02*
X012217Y002082D01*
X012122Y001987D01*
X012265Y001987D01*
X012312Y001940D01*
X012312Y001892D01*
X012265Y001845D01*
X012170Y001845D01*
X012122Y001892D01*
X012122Y001987D01*
X012022Y002082D02*
X012022Y002130D01*
X012022Y002082D02*
X011927Y001987D01*
X011927Y001845D01*
X011927Y001987D02*
X011832Y002082D01*
X011832Y002130D01*
X011312Y002130D02*
X011122Y002130D01*
X011122Y001987D01*
X011217Y002035D01*
X011265Y002035D01*
X011312Y001987D01*
X011312Y001892D01*
X011265Y001845D01*
X011170Y001845D01*
X011122Y001892D01*
X010927Y001845D02*
X010927Y001987D01*
X011022Y002082D01*
X011022Y002130D01*
X010927Y001987D02*
X010832Y002082D01*
X010832Y002130D01*
X010312Y001987D02*
X010122Y001987D01*
X010265Y002130D01*
X010265Y001845D01*
X009927Y001845D02*
X009927Y001987D01*
X010022Y002082D01*
X010022Y002130D01*
X009927Y001987D02*
X009832Y002082D01*
X009832Y002130D01*
X009312Y002082D02*
X009312Y002035D01*
X009265Y001987D01*
X009312Y001940D01*
X009312Y001892D01*
X009265Y001845D01*
X009170Y001845D01*
X009122Y001892D01*
X009217Y001987D02*
X009265Y001987D01*
X009312Y002082D02*
X009265Y002130D01*
X009170Y002130D01*
X009122Y002082D01*
X009022Y002082D02*
X009022Y002130D01*
X009022Y002082D02*
X008927Y001987D01*
X008927Y001845D01*
X008927Y001987D02*
X008832Y002082D01*
X008832Y002130D01*
X008312Y002082D02*
X008265Y002130D01*
X008170Y002130D01*
X008122Y002082D01*
X008022Y002082D02*
X008022Y002130D01*
X008022Y002082D02*
X007927Y001987D01*
X007927Y001845D01*
X007927Y001987D02*
X007832Y002082D01*
X007832Y002130D01*
X008122Y001845D02*
X008312Y002035D01*
X008312Y002082D01*
X008312Y001845D02*
X008122Y001845D01*
X007312Y001845D02*
X007122Y001845D01*
X007217Y001845D02*
X007217Y002130D01*
X007122Y002035D01*
X007022Y002082D02*
X007022Y002130D01*
X007022Y002082D02*
X006927Y001987D01*
X006927Y001845D01*
X006927Y001987D02*
X006832Y002082D01*
X006832Y002130D01*
X053935Y009793D02*
X054249Y010107D01*
X054249Y009950D02*
X053935Y009950D01*
X053935Y010107D02*
X054249Y009793D01*
X054092Y009793D02*
X054092Y010107D01*
X054092Y012793D02*
X054092Y013107D01*
X054249Y013107D02*
X053935Y012793D01*
X053935Y012950D02*
X054249Y012950D01*
X054249Y012793D02*
X053935Y013107D01*
D22*
X023180Y014780D02*
X023180Y001780D01*
X006680Y001780D01*
X006680Y014780D01*
X023180Y014780D01*
D23*
X013180Y007775D03*
X012680Y007775D03*
X012180Y007775D03*
X011680Y007775D03*
X011180Y007775D03*
X010680Y007775D03*
X010180Y007775D03*
X009680Y007775D03*
X009180Y007775D03*
X009180Y004785D03*
X009680Y004785D03*
X010180Y004785D03*
X010680Y004785D03*
X011180Y004785D03*
X011680Y004785D03*
X012180Y004785D03*
X012680Y004785D03*
X013180Y004785D03*
M02*
