G75*
%MOIN*%
%OFA0B0*%
%FSLAX24Y24*%
%IPPOS*%
%LPD*%
%AMOC8*
5,1,8,0,0,1.08239X$1,22.5*
%
%ADD10C,0.0765*%
%ADD11C,0.0705*%
%ADD12C,0.0554*%
%ADD13C,0.0700*%
%ADD14C,0.0800*%
%ADD15C,0.0520*%
%ADD16C,0.0740*%
%ADD17C,0.0160*%
%ADD18C,0.0400*%
%ADD19C,0.0500*%
%ADD20C,0.0120*%
%ADD21C,0.0390*%
%ADD22C,0.0396*%
%ADD23C,0.2362*%
D10*
X028280Y002180D03*
X032280Y002180D03*
X035030Y002280D03*
X039030Y002280D03*
X037030Y004280D03*
X032280Y006180D03*
X035030Y006280D03*
X039030Y006280D03*
X030280Y004180D03*
X028280Y006180D03*
D11*
X040968Y005060D02*
X041673Y005060D01*
X045888Y005060D02*
X046593Y005060D01*
X047568Y005060D02*
X048273Y005060D01*
X052488Y005060D02*
X053193Y005060D01*
X053193Y003100D02*
X052488Y003100D01*
X048273Y003100D02*
X047568Y003100D01*
X046593Y003100D02*
X045888Y003100D01*
X041673Y003100D02*
X040968Y003100D01*
D12*
X041430Y010280D03*
X040430Y010280D03*
X042430Y010280D03*
X043430Y010280D03*
X042930Y011280D03*
X041930Y011280D03*
X040930Y011280D03*
X043930Y011280D03*
X048430Y010280D03*
X049430Y010280D03*
X050430Y010280D03*
X051430Y010280D03*
X050930Y011280D03*
X049930Y011280D03*
X048930Y011280D03*
X051930Y011280D03*
X036430Y011280D03*
X035430Y011280D03*
X034430Y011280D03*
X033430Y011280D03*
X032930Y010280D03*
X033930Y010280D03*
X034930Y010280D03*
X035930Y010280D03*
X028930Y011280D03*
X027930Y011280D03*
X026930Y011280D03*
X025930Y011280D03*
X025430Y010280D03*
X026430Y010280D03*
X027430Y010280D03*
X028430Y010280D03*
D13*
X004731Y003226D02*
X004031Y003226D01*
X003180Y004805D02*
X003180Y005505D01*
D14*
X005542Y005555D02*
X005542Y004755D01*
D15*
X058420Y005280D02*
X058940Y005280D01*
X058940Y006280D02*
X058420Y006280D01*
X058420Y007280D02*
X058940Y007280D01*
X058940Y008280D02*
X058420Y008280D01*
X058420Y009280D02*
X058940Y009280D01*
X058940Y010280D02*
X058420Y010280D01*
X058420Y011280D02*
X058940Y011280D01*
X058940Y012280D02*
X058420Y012280D01*
D16*
X022180Y013780D03*
X021180Y013780D03*
X020180Y013780D03*
X019180Y013780D03*
X018180Y013780D03*
X017180Y013780D03*
X016180Y013780D03*
X015180Y013780D03*
X014180Y013780D03*
X013180Y013780D03*
X012180Y013780D03*
X011180Y013780D03*
X010180Y013780D03*
X009180Y013780D03*
X008180Y013780D03*
X007180Y013780D03*
X021180Y003780D03*
X022180Y003780D03*
X022180Y002780D03*
X021180Y002780D03*
X020180Y002780D03*
X019180Y002780D03*
X018180Y002780D03*
X017180Y002780D03*
X016180Y002780D03*
X015180Y002780D03*
X014180Y002780D03*
X013180Y002780D03*
X012180Y002780D03*
X011180Y002780D03*
X010180Y002780D03*
X009180Y002780D03*
X008180Y002780D03*
X007180Y002780D03*
D17*
X000460Y000560D02*
X000460Y015551D01*
X015392Y015551D01*
X013463Y014258D01*
X013289Y014330D01*
X013071Y014330D01*
X012868Y014246D01*
X012714Y014092D01*
X012680Y014010D01*
X012646Y014092D01*
X012492Y014246D01*
X012289Y014330D01*
X012071Y014330D01*
X011868Y014246D01*
X011714Y014092D01*
X011680Y014010D01*
X011646Y014092D01*
X011492Y014246D01*
X011289Y014330D01*
X011071Y014330D01*
X010868Y014246D01*
X010714Y014092D01*
X010680Y014010D01*
X010646Y014092D01*
X010492Y014246D01*
X010289Y014330D01*
X010071Y014330D01*
X009868Y014246D01*
X009714Y014092D01*
X009705Y014071D01*
X009693Y014094D01*
X009638Y014171D01*
X009571Y014238D01*
X009494Y014293D01*
X009410Y014336D01*
X009320Y014365D01*
X009227Y014380D01*
X009200Y014380D01*
X009200Y013800D01*
X009160Y013800D01*
X009160Y014380D01*
X009133Y014380D01*
X009039Y014365D01*
X008950Y014336D01*
X008866Y014293D01*
X008789Y014238D01*
X008722Y014171D01*
X008667Y014094D01*
X008655Y014071D01*
X008646Y014092D01*
X008492Y014246D01*
X008289Y014330D01*
X008071Y014330D01*
X007868Y014246D01*
X007714Y014092D01*
X007680Y014010D01*
X007646Y014092D01*
X007492Y014246D01*
X007289Y014330D01*
X007071Y014330D01*
X006868Y014246D01*
X006714Y014092D01*
X006630Y013889D01*
X006630Y013671D01*
X006714Y013468D01*
X006868Y013314D01*
X007071Y013230D01*
X007289Y013230D01*
X007492Y013314D01*
X007646Y013468D01*
X007680Y013550D01*
X007714Y013468D01*
X007868Y013314D01*
X008071Y013230D01*
X008289Y013230D01*
X008492Y013314D01*
X008646Y013468D01*
X008655Y013489D01*
X008667Y013466D01*
X008722Y013389D01*
X008789Y013322D01*
X008866Y013267D01*
X008950Y013224D01*
X009039Y013195D01*
X009133Y013180D01*
X009160Y013180D01*
X009160Y013760D01*
X009200Y013760D01*
X009200Y013180D01*
X009227Y013180D01*
X009320Y013195D01*
X009410Y013224D01*
X009494Y013267D01*
X009571Y013322D01*
X009638Y013389D01*
X009693Y013466D01*
X009705Y013489D01*
X009714Y013468D01*
X009868Y013314D01*
X010071Y013230D01*
X010289Y013230D01*
X010492Y013314D01*
X010646Y013468D01*
X010680Y013550D01*
X010714Y013468D01*
X010868Y013314D01*
X011071Y013230D01*
X011289Y013230D01*
X011492Y013314D01*
X011646Y013468D01*
X011680Y013550D01*
X011714Y013468D01*
X011868Y013314D01*
X012071Y013230D01*
X012289Y013230D01*
X012492Y013314D01*
X012646Y013468D01*
X012680Y013550D01*
X012714Y013468D01*
X012868Y013314D01*
X013071Y013230D01*
X013289Y013230D01*
X013492Y013314D01*
X013646Y013468D01*
X013680Y013550D01*
X013714Y013468D01*
X013868Y013314D01*
X014071Y013230D01*
X014289Y013230D01*
X014492Y013314D01*
X014646Y013468D01*
X014680Y013550D01*
X014714Y013468D01*
X014868Y013314D01*
X015071Y013230D01*
X015289Y013230D01*
X015361Y013260D01*
X016355Y012266D01*
X016355Y012155D01*
X016412Y012018D01*
X016518Y011912D01*
X016655Y011855D01*
X016805Y011855D01*
X016942Y011912D01*
X017048Y012018D01*
X017105Y012155D01*
X017105Y012305D01*
X017048Y012442D01*
X016942Y012548D01*
X016805Y012605D01*
X016694Y012605D01*
X016069Y013231D01*
X016071Y013230D01*
X016289Y013230D01*
X016492Y013314D01*
X016646Y013468D01*
X016680Y013550D01*
X016714Y013468D01*
X016868Y013314D01*
X017071Y013230D01*
X017289Y013230D01*
X017361Y013260D01*
X017394Y013227D01*
X017482Y013190D01*
X017540Y013190D01*
X017540Y011520D01*
X017462Y011442D01*
X017405Y011305D01*
X017405Y011155D01*
X017462Y011018D01*
X017568Y010912D01*
X017705Y010855D01*
X017855Y010855D01*
X017940Y010890D01*
X017940Y010670D01*
X017855Y010705D01*
X017705Y010705D01*
X017568Y010648D01*
X017490Y010570D01*
X010939Y010570D01*
X010855Y010605D01*
X010705Y010605D01*
X010568Y010548D01*
X010462Y010442D01*
X010405Y010305D01*
X010405Y010155D01*
X010440Y010070D01*
X010132Y010070D01*
X010044Y010033D01*
X009977Y009966D01*
X009416Y009405D01*
X009344Y009405D01*
X012144Y012205D01*
X012255Y012205D01*
X012392Y012262D01*
X012498Y012368D01*
X012555Y012505D01*
X012555Y012655D01*
X012498Y012792D01*
X012392Y012898D01*
X012255Y012955D01*
X012105Y012955D01*
X011968Y012898D01*
X011862Y012792D01*
X011805Y012655D01*
X011805Y012544D01*
X008316Y009055D01*
X008205Y009055D01*
X008068Y008998D01*
X007962Y008892D01*
X007905Y008755D01*
X007905Y008605D01*
X007940Y008520D01*
X006160Y008520D01*
X006185Y008579D01*
X006185Y008731D01*
X006127Y008870D01*
X006092Y008905D01*
X006127Y008940D01*
X006185Y009079D01*
X006185Y009231D01*
X006127Y009370D01*
X006092Y009405D01*
X006127Y009440D01*
X006185Y009579D01*
X006185Y009731D01*
X006127Y009870D01*
X006092Y009905D01*
X006127Y009940D01*
X006185Y010079D01*
X006185Y010231D01*
X006127Y010370D01*
X006092Y010405D01*
X006127Y010440D01*
X006185Y010579D01*
X006185Y010731D01*
X006127Y010870D01*
X006092Y010905D01*
X006127Y010940D01*
X006185Y011079D01*
X006185Y011231D01*
X006127Y011370D01*
X006092Y011405D01*
X006127Y011440D01*
X006185Y011579D01*
X006185Y011731D01*
X006127Y011870D01*
X006020Y011977D01*
X005881Y012035D01*
X005729Y012035D01*
X005590Y011977D01*
X005483Y011870D01*
X005425Y011731D01*
X005425Y011579D01*
X005483Y011440D01*
X005518Y011405D01*
X005483Y011370D01*
X005425Y011231D01*
X005425Y011079D01*
X005483Y010940D01*
X005518Y010905D01*
X005483Y010870D01*
X005425Y010731D01*
X005425Y010579D01*
X005483Y010440D01*
X005518Y010405D01*
X005483Y010370D01*
X005425Y010231D01*
X005425Y010079D01*
X005483Y009940D01*
X005518Y009905D01*
X005483Y009870D01*
X005425Y009731D01*
X005425Y009579D01*
X005483Y009440D01*
X005518Y009405D01*
X005483Y009370D01*
X005425Y009231D01*
X005425Y009079D01*
X005483Y008940D01*
X005518Y008905D01*
X005483Y008870D01*
X005425Y008731D01*
X005425Y008579D01*
X005450Y008520D01*
X002199Y008520D01*
X002148Y008642D01*
X002042Y008748D01*
X001905Y008805D01*
X001755Y008805D01*
X001618Y008748D01*
X001512Y008642D01*
X001455Y008505D01*
X001455Y008355D01*
X001512Y008218D01*
X001618Y008112D01*
X001755Y008055D01*
X001896Y008055D01*
X001932Y008040D01*
X017601Y008040D01*
X017219Y007658D01*
X017105Y007658D01*
X016966Y007601D01*
X016859Y007494D01*
X016802Y007355D01*
X016802Y007205D01*
X016837Y007120D01*
X014629Y007120D01*
X014555Y007194D01*
X014555Y007305D01*
X014498Y007442D01*
X014392Y007548D01*
X014255Y007605D01*
X014105Y007605D01*
X013968Y007548D01*
X013862Y007442D01*
X013805Y007305D01*
X013805Y007155D01*
X013862Y007018D01*
X013968Y006912D01*
X014105Y006855D01*
X014216Y006855D01*
X014327Y006744D01*
X014394Y006677D01*
X014482Y006640D01*
X027601Y006640D01*
X027031Y006070D01*
X022320Y006070D01*
X022355Y006155D01*
X022355Y006305D01*
X022298Y006442D01*
X022192Y006548D01*
X022055Y006605D01*
X021905Y006605D01*
X021768Y006548D01*
X021690Y006470D01*
X014357Y006470D01*
X014348Y006492D01*
X014242Y006598D01*
X014105Y006655D01*
X013955Y006655D01*
X013818Y006598D01*
X013712Y006492D01*
X013655Y006355D01*
X013655Y006205D01*
X013690Y006120D01*
X010529Y006120D01*
X009055Y007594D01*
X009055Y007705D01*
X008998Y007842D01*
X008892Y007948D01*
X008755Y008005D01*
X008605Y008005D01*
X008468Y007948D01*
X008362Y007842D01*
X008305Y007705D01*
X008305Y007555D01*
X008362Y007418D01*
X008468Y007312D01*
X008605Y007255D01*
X008716Y007255D01*
X010227Y005744D01*
X010294Y005677D01*
X010382Y005640D01*
X013361Y005640D01*
X013305Y005505D01*
X013305Y005355D01*
X013362Y005218D01*
X013468Y005112D01*
X013605Y005055D01*
X013716Y005055D01*
X013827Y004944D01*
X013851Y004920D01*
X006122Y004920D01*
X006122Y005670D01*
X006034Y005884D01*
X005871Y006047D01*
X005658Y006135D01*
X005427Y006135D01*
X005214Y006047D01*
X005051Y005884D01*
X004962Y005670D01*
X004962Y005415D01*
X004703Y005415D01*
X004608Y005375D01*
X002672Y003440D01*
X001388Y003440D01*
X001140Y003688D01*
X001140Y013405D01*
X001201Y013466D01*
X001258Y013605D01*
X001258Y013755D01*
X001201Y013894D01*
X001094Y014001D01*
X000955Y014058D01*
X000805Y014058D01*
X000666Y014001D01*
X000559Y013894D01*
X000502Y013755D01*
X000502Y013605D01*
X000559Y013466D01*
X000620Y013405D01*
X000620Y003528D01*
X000660Y003433D01*
X000733Y003360D01*
X001133Y002960D01*
X001228Y002920D01*
X002832Y002920D01*
X002927Y002960D01*
X003000Y003033D01*
X004863Y004895D01*
X004962Y004895D01*
X004962Y004640D01*
X005051Y004426D01*
X005214Y004263D01*
X005427Y004175D01*
X005658Y004175D01*
X005871Y004263D01*
X006034Y004426D01*
X006040Y004440D01*
X007790Y004440D01*
X007755Y004355D01*
X007755Y004205D01*
X007812Y004068D01*
X007918Y003962D01*
X008055Y003905D01*
X008166Y003905D01*
X008846Y003224D01*
X008714Y003092D01*
X008680Y003010D01*
X008646Y003092D01*
X008492Y003246D01*
X008289Y003330D01*
X008071Y003330D01*
X007868Y003246D01*
X007714Y003092D01*
X007680Y003010D01*
X007646Y003092D01*
X007492Y003246D01*
X007289Y003330D01*
X007071Y003330D01*
X006868Y003246D01*
X006714Y003092D01*
X006630Y002889D01*
X006630Y002671D01*
X006714Y002468D01*
X006868Y002314D01*
X007071Y002230D01*
X007289Y002230D01*
X007492Y002314D01*
X007646Y002468D01*
X007680Y002550D01*
X007714Y002468D01*
X007868Y002314D01*
X008071Y002230D01*
X008289Y002230D01*
X008492Y002314D01*
X008646Y002468D01*
X008680Y002550D01*
X008714Y002468D01*
X008868Y002314D01*
X009071Y002230D01*
X009289Y002230D01*
X009492Y002314D01*
X009646Y002468D01*
X009680Y002550D01*
X009714Y002468D01*
X009868Y002314D01*
X010071Y002230D01*
X010289Y002230D01*
X010492Y002314D01*
X010646Y002468D01*
X010680Y002550D01*
X010714Y002468D01*
X010868Y002314D01*
X011071Y002230D01*
X011289Y002230D01*
X011492Y002314D01*
X011646Y002468D01*
X011680Y002550D01*
X011714Y002468D01*
X011868Y002314D01*
X012071Y002230D01*
X012289Y002230D01*
X012492Y002314D01*
X012646Y002468D01*
X012680Y002550D01*
X012714Y002468D01*
X012868Y002314D01*
X013071Y002230D01*
X013289Y002230D01*
X013492Y002314D01*
X013646Y002468D01*
X013680Y002550D01*
X013714Y002468D01*
X013868Y002314D01*
X014071Y002230D01*
X014289Y002230D01*
X014492Y002314D01*
X014646Y002468D01*
X014680Y002550D01*
X014714Y002468D01*
X014868Y002314D01*
X015071Y002230D01*
X015289Y002230D01*
X015492Y002314D01*
X015646Y002468D01*
X015680Y002550D01*
X015714Y002468D01*
X015868Y002314D01*
X016071Y002230D01*
X016289Y002230D01*
X016492Y002314D01*
X016646Y002468D01*
X016680Y002550D01*
X016714Y002468D01*
X016868Y002314D01*
X017071Y002230D01*
X017289Y002230D01*
X017361Y002260D01*
X017577Y002044D01*
X017644Y001977D01*
X017732Y001940D01*
X019390Y001940D01*
X019468Y001862D01*
X019605Y001805D01*
X019755Y001805D01*
X019892Y001862D01*
X019998Y001968D01*
X020055Y002105D01*
X020055Y002192D01*
X020133Y002180D01*
X020160Y002180D01*
X020160Y002760D01*
X020200Y002760D01*
X020200Y002180D01*
X020227Y002180D01*
X020320Y002195D01*
X020410Y002224D01*
X020494Y002267D01*
X020571Y002322D01*
X020638Y002389D01*
X020693Y002466D01*
X020705Y002489D01*
X020714Y002468D01*
X020868Y002314D01*
X021071Y002230D01*
X021289Y002230D01*
X021492Y002314D01*
X021646Y002468D01*
X021680Y002550D01*
X021714Y002468D01*
X021868Y002314D01*
X022071Y002230D01*
X022289Y002230D01*
X022492Y002314D01*
X022646Y002468D01*
X022730Y002671D01*
X022730Y002889D01*
X022729Y002891D01*
X023094Y002527D01*
X023182Y002490D01*
X026328Y002490D01*
X026416Y002527D01*
X026479Y002590D01*
X027824Y002590D01*
X027813Y002579D01*
X027756Y002501D01*
X027712Y002415D01*
X027683Y002323D01*
X027668Y002228D01*
X027668Y002228D01*
X028232Y002228D01*
X028232Y002132D01*
X028328Y002132D01*
X028328Y002228D01*
X028892Y002228D01*
X028877Y002323D01*
X028848Y002415D01*
X028804Y002501D01*
X028747Y002579D01*
X028736Y002590D01*
X031824Y002590D01*
X031813Y002579D01*
X031756Y002501D01*
X031712Y002415D01*
X031683Y002323D01*
X031668Y002228D01*
X031668Y002228D01*
X032232Y002228D01*
X032232Y002132D01*
X032328Y002132D01*
X032328Y002228D01*
X032892Y002228D01*
X032877Y002323D01*
X032848Y002415D01*
X032804Y002501D01*
X032747Y002579D01*
X032736Y002590D01*
X034501Y002590D01*
X034462Y002515D01*
X034433Y002423D01*
X034418Y002328D01*
X034418Y002328D01*
X034982Y002328D01*
X034982Y002232D01*
X035078Y002232D01*
X035078Y002328D01*
X035642Y002328D01*
X035627Y002423D01*
X035598Y002515D01*
X035559Y002590D01*
X038501Y002590D01*
X038462Y002515D01*
X038433Y002423D01*
X038418Y002328D01*
X038418Y002328D01*
X038982Y002328D01*
X038982Y002232D01*
X039078Y002232D01*
X039078Y002328D01*
X039642Y002328D01*
X039641Y002340D01*
X041928Y002340D01*
X042016Y002377D01*
X042083Y002444D01*
X042329Y002690D01*
X043262Y002690D01*
X043242Y002670D01*
X043145Y002436D01*
X043145Y002184D01*
X043242Y001950D01*
X043420Y001772D01*
X043654Y001675D01*
X043906Y001675D01*
X044140Y001772D01*
X044318Y001950D01*
X044415Y002184D01*
X044415Y002436D01*
X044318Y002670D01*
X044298Y002690D01*
X045544Y002690D01*
X045586Y002649D01*
X045782Y002568D01*
X046698Y002568D01*
X046894Y002649D01*
X047044Y002798D01*
X047080Y002885D01*
X047116Y002798D01*
X047266Y002649D01*
X047462Y002568D01*
X048378Y002568D01*
X048574Y002649D01*
X048724Y002798D01*
X048805Y002994D01*
X048805Y003206D01*
X048729Y003390D01*
X052031Y003390D01*
X051955Y003206D01*
X051955Y002994D01*
X052036Y002798D01*
X052186Y002649D01*
X052382Y002568D01*
X053298Y002568D01*
X053494Y002649D01*
X053644Y002798D01*
X053725Y002994D01*
X053725Y003206D01*
X053644Y003402D01*
X053494Y003551D01*
X053298Y003632D01*
X052667Y003632D01*
X052466Y003833D01*
X052378Y003870D01*
X038579Y003870D01*
X038566Y003883D01*
X037416Y005033D01*
X037328Y005070D01*
X036732Y005070D01*
X036644Y005033D01*
X036577Y004966D01*
X035481Y003870D01*
X030760Y003870D01*
X030842Y004068D01*
X030842Y004292D01*
X030757Y004499D01*
X030599Y004657D01*
X030392Y004742D01*
X030168Y004742D01*
X030089Y004710D01*
X029116Y005683D01*
X029028Y005720D01*
X028686Y005720D01*
X028747Y005781D01*
X028804Y005859D01*
X028848Y005945D01*
X028877Y006037D01*
X028892Y006132D01*
X028892Y006132D01*
X028328Y006132D01*
X028328Y006228D01*
X028892Y006228D01*
X028877Y006323D01*
X028848Y006415D01*
X028804Y006501D01*
X028747Y006579D01*
X028736Y006590D01*
X031824Y006590D01*
X031813Y006579D01*
X031756Y006501D01*
X031712Y006415D01*
X031683Y006323D01*
X031668Y006228D01*
X031668Y006228D01*
X032232Y006228D01*
X032232Y006132D01*
X032328Y006132D01*
X032328Y006228D01*
X032892Y006228D01*
X032877Y006323D01*
X032848Y006415D01*
X032804Y006501D01*
X032747Y006579D01*
X032736Y006590D01*
X034501Y006590D01*
X034462Y006515D01*
X034433Y006423D01*
X034418Y006328D01*
X034418Y006328D01*
X034982Y006328D01*
X034982Y006232D01*
X035078Y006232D01*
X035078Y006328D01*
X035642Y006328D01*
X035627Y006423D01*
X035598Y006515D01*
X035559Y006590D01*
X038501Y006590D01*
X038462Y006515D01*
X038433Y006423D01*
X038418Y006328D01*
X038418Y006328D01*
X038982Y006328D01*
X038982Y006232D01*
X039078Y006232D01*
X039078Y006328D01*
X039642Y006328D01*
X039627Y006423D01*
X039598Y006515D01*
X039559Y006590D01*
X048231Y006590D01*
X048527Y006294D01*
X048594Y006227D01*
X048682Y006190D01*
X049040Y006190D01*
X049118Y006112D01*
X049255Y006055D01*
X049405Y006055D01*
X049542Y006112D01*
X049648Y006218D01*
X049705Y006355D01*
X049705Y006505D01*
X049670Y006590D01*
X058040Y006590D01*
X058001Y006537D01*
X057966Y006468D01*
X057942Y006395D01*
X057930Y006319D01*
X057930Y006280D01*
X058680Y006280D01*
X059430Y006280D01*
X059430Y006319D01*
X059418Y006395D01*
X059394Y006468D01*
X059359Y006537D01*
X059320Y006590D01*
X059428Y006590D01*
X059516Y006627D01*
X059583Y006694D01*
X059620Y006782D01*
X059620Y007628D01*
X059583Y007716D01*
X059516Y007783D01*
X059291Y008009D01*
X059313Y008031D01*
X059380Y008192D01*
X059380Y008368D01*
X059313Y008529D01*
X059189Y008653D01*
X059028Y008720D01*
X058332Y008720D01*
X058171Y008653D01*
X058047Y008529D01*
X057980Y008368D01*
X057980Y008192D01*
X058047Y008031D01*
X058171Y007907D01*
X058260Y007870D01*
X057270Y007870D01*
X057305Y007955D01*
X057305Y008105D01*
X057248Y008242D01*
X057142Y008348D01*
X057005Y008405D01*
X056855Y008405D01*
X056718Y008348D01*
X056640Y008270D01*
X053658Y008270D01*
X053667Y008290D01*
X055103Y008290D01*
X055191Y008327D01*
X055316Y008452D01*
X055383Y008519D01*
X055420Y008607D01*
X055420Y013203D01*
X055383Y013291D01*
X053123Y015551D01*
X060605Y015551D01*
X060605Y000560D01*
X000460Y000560D01*
X000460Y000597D02*
X060605Y000597D01*
X060605Y000756D02*
X000460Y000756D01*
X000460Y000914D02*
X060605Y000914D01*
X060605Y001073D02*
X000460Y001073D01*
X000460Y001231D02*
X060605Y001231D01*
X060605Y001390D02*
X000460Y001390D01*
X000460Y001548D02*
X060605Y001548D01*
X060605Y001707D02*
X050582Y001707D01*
X050506Y001675D02*
X050740Y001772D01*
X050918Y001950D01*
X051015Y002184D01*
X051015Y002436D01*
X050918Y002670D01*
X050740Y002848D01*
X050506Y002945D01*
X050254Y002945D01*
X050020Y002848D01*
X049842Y002670D01*
X049745Y002436D01*
X049745Y002184D01*
X049842Y001950D01*
X050020Y001772D01*
X050254Y001675D01*
X050506Y001675D01*
X050178Y001707D02*
X043982Y001707D01*
X044233Y001865D02*
X049927Y001865D01*
X049811Y002024D02*
X044349Y002024D01*
X044414Y002182D02*
X049746Y002182D01*
X049745Y002341D02*
X044415Y002341D01*
X044389Y002499D02*
X049771Y002499D01*
X049837Y002658D02*
X048583Y002658D01*
X048731Y002816D02*
X049988Y002816D01*
X050772Y002816D02*
X052029Y002816D01*
X051963Y002975D02*
X048797Y002975D01*
X048805Y003133D02*
X051955Y003133D01*
X051990Y003292D02*
X048770Y003292D01*
X047257Y002658D02*
X046903Y002658D01*
X047051Y002816D02*
X047109Y002816D01*
X045577Y002658D02*
X044323Y002658D01*
X043237Y002658D02*
X042297Y002658D01*
X042138Y002499D02*
X043171Y002499D01*
X043145Y002341D02*
X041929Y002341D01*
X043146Y002182D02*
X039635Y002182D01*
X039627Y002137D02*
X039642Y002232D01*
X039642Y002232D01*
X039078Y002232D01*
X039078Y001668D01*
X039173Y001683D01*
X039265Y001712D01*
X039351Y001756D01*
X039429Y001813D01*
X039497Y001881D01*
X039554Y001959D01*
X039598Y002045D01*
X039627Y002137D01*
X039587Y002024D02*
X043211Y002024D01*
X043327Y001865D02*
X039481Y001865D01*
X039247Y001707D02*
X043578Y001707D01*
X039642Y002328D02*
X039642Y002328D01*
X039078Y002182D02*
X038982Y002182D01*
X038982Y002232D02*
X038982Y001667D01*
X038982Y001668D01*
X038887Y001683D01*
X038795Y001712D01*
X038709Y001756D01*
X038631Y001813D01*
X038563Y001881D01*
X038506Y001959D01*
X038462Y002045D01*
X038433Y002137D01*
X038418Y002232D01*
X038418Y002232D01*
X038982Y002232D01*
X038982Y002024D02*
X039078Y002024D01*
X039078Y001865D02*
X038982Y001865D01*
X038982Y001707D02*
X039078Y001707D01*
X039078Y001668D02*
X039078Y001668D01*
X038813Y001707D02*
X035247Y001707D01*
X035265Y001712D02*
X035351Y001756D01*
X035429Y001813D01*
X035497Y001881D01*
X035554Y001959D01*
X035598Y002045D01*
X035627Y002137D01*
X035642Y002232D01*
X035642Y002232D01*
X035078Y002232D01*
X035078Y001668D01*
X035173Y001683D01*
X035265Y001712D01*
X035078Y001707D02*
X034982Y001707D01*
X034982Y001668D02*
X034982Y001667D01*
X034982Y001668D02*
X034887Y001683D01*
X034795Y001712D01*
X034709Y001756D01*
X034631Y001813D01*
X034563Y001881D01*
X034506Y001959D01*
X034462Y002045D01*
X034433Y002137D01*
X034418Y002232D01*
X034418Y002232D01*
X034982Y002232D01*
X034982Y001667D01*
X035078Y001668D02*
X035078Y001668D01*
X035078Y001865D02*
X034982Y001865D01*
X034982Y002024D02*
X035078Y002024D01*
X035078Y002182D02*
X034982Y002182D01*
X034473Y002024D02*
X032873Y002024D01*
X032877Y002037D02*
X032892Y002132D01*
X032892Y002132D01*
X032328Y002132D01*
X032328Y001568D01*
X032423Y001583D01*
X032515Y001612D01*
X032601Y001656D01*
X032679Y001713D01*
X032747Y001781D01*
X032804Y001859D01*
X032848Y001945D01*
X032877Y002037D01*
X032807Y001865D02*
X034579Y001865D01*
X034813Y001707D02*
X032670Y001707D01*
X032328Y001707D02*
X032232Y001707D01*
X032232Y001568D02*
X032232Y001567D01*
X032232Y001568D02*
X032137Y001583D01*
X032045Y001612D01*
X031959Y001656D01*
X031881Y001713D01*
X031813Y001781D01*
X031756Y001859D01*
X031712Y001945D01*
X031683Y002037D01*
X031668Y002132D01*
X031668Y002132D01*
X032232Y002132D01*
X032232Y001567D01*
X032328Y001568D02*
X032328Y001568D01*
X032328Y001865D02*
X032232Y001865D01*
X032232Y002024D02*
X032328Y002024D01*
X032328Y002182D02*
X034425Y002182D01*
X034419Y002341D02*
X032872Y002341D01*
X032892Y002228D02*
X032892Y002228D01*
X032805Y002499D02*
X034457Y002499D01*
X035603Y002499D02*
X038457Y002499D01*
X038419Y002341D02*
X035641Y002341D01*
X035642Y002328D02*
X035642Y002328D01*
X035635Y002182D02*
X038425Y002182D01*
X038473Y002024D02*
X035587Y002024D01*
X035481Y001865D02*
X038579Y001865D01*
X032232Y002182D02*
X028328Y002182D01*
X028328Y002132D02*
X028892Y002132D01*
X028892Y002132D01*
X028877Y002037D01*
X028848Y001945D01*
X028804Y001859D01*
X028747Y001781D01*
X028679Y001713D01*
X028601Y001656D01*
X028515Y001612D01*
X028423Y001583D01*
X028328Y001568D01*
X028328Y001568D01*
X028328Y002132D01*
X028232Y002132D02*
X028232Y001567D01*
X028232Y001568D01*
X028137Y001583D01*
X028045Y001612D01*
X027959Y001656D01*
X027881Y001713D01*
X027813Y001781D01*
X027756Y001859D01*
X027712Y001945D01*
X027683Y002037D01*
X027668Y002132D01*
X027668Y002132D01*
X028232Y002132D01*
X028232Y002182D02*
X020240Y002182D01*
X020200Y002182D02*
X020160Y002182D01*
X020120Y002182D02*
X020055Y002182D01*
X020021Y002024D02*
X027687Y002024D01*
X027753Y001865D02*
X019895Y001865D01*
X019465Y001865D02*
X000460Y001865D01*
X000460Y001707D02*
X027890Y001707D01*
X028232Y001707D02*
X028328Y001707D01*
X028328Y001865D02*
X028232Y001865D01*
X028232Y002024D02*
X028328Y002024D01*
X028807Y001865D02*
X031753Y001865D01*
X031687Y002024D02*
X028873Y002024D01*
X028892Y002228D02*
X028892Y002228D01*
X028872Y002341D02*
X031688Y002341D01*
X031755Y002499D02*
X028805Y002499D01*
X027755Y002499D02*
X026349Y002499D01*
X027688Y002341D02*
X022518Y002341D01*
X022659Y002499D02*
X023161Y002499D01*
X022963Y002658D02*
X022725Y002658D01*
X022730Y002816D02*
X022805Y002816D01*
X023325Y002975D02*
X025030Y002975D01*
X025038Y002970D02*
X023329Y002970D01*
X022700Y003599D01*
X022730Y003671D01*
X022730Y003889D01*
X022646Y004092D01*
X022492Y004246D01*
X022289Y004330D01*
X022071Y004330D01*
X021868Y004246D01*
X021714Y004092D01*
X021680Y004010D01*
X021646Y004092D01*
X021492Y004246D01*
X021289Y004330D01*
X021071Y004330D01*
X020868Y004246D01*
X020714Y004092D01*
X020630Y003889D01*
X020630Y003671D01*
X020714Y003468D01*
X020868Y003314D01*
X020950Y003280D01*
X020868Y003246D01*
X020714Y003092D01*
X020705Y003071D01*
X020693Y003094D01*
X020638Y003171D01*
X020571Y003238D01*
X020494Y003293D01*
X020410Y003336D01*
X020320Y003365D01*
X020227Y003380D01*
X020200Y003380D01*
X020200Y002800D01*
X020160Y002800D01*
X020160Y003380D01*
X020133Y003380D01*
X020039Y003365D01*
X019950Y003336D01*
X019866Y003293D01*
X019789Y003238D01*
X019722Y003171D01*
X019667Y003094D01*
X019655Y003071D01*
X019646Y003092D01*
X019492Y003246D01*
X019289Y003330D01*
X019071Y003330D01*
X018868Y003246D01*
X018714Y003092D01*
X018680Y003010D01*
X018646Y003092D01*
X018492Y003246D01*
X018289Y003330D01*
X018071Y003330D01*
X017999Y003300D01*
X017766Y003533D01*
X017678Y003570D01*
X009179Y003570D01*
X008505Y004244D01*
X008505Y004355D01*
X008470Y004440D01*
X022940Y004440D01*
X023018Y004362D01*
X023155Y004305D01*
X023305Y004305D01*
X023442Y004362D01*
X023548Y004468D01*
X023605Y004605D01*
X023605Y004755D01*
X023570Y004840D01*
X024340Y004840D01*
X024418Y004762D01*
X024541Y004711D01*
X024502Y004644D01*
X024409Y004298D01*
X024409Y003939D01*
X024502Y003593D01*
X024681Y003283D01*
X024935Y003029D01*
X025038Y002970D01*
X024831Y003133D02*
X023166Y003133D01*
X023008Y003292D02*
X024676Y003292D01*
X024585Y003450D02*
X022849Y003450D01*
X022704Y003609D02*
X024498Y003609D01*
X024456Y003767D02*
X022730Y003767D01*
X022715Y003926D02*
X024413Y003926D01*
X024409Y004084D02*
X022649Y004084D01*
X022495Y004243D02*
X024409Y004243D01*
X024437Y004401D02*
X023481Y004401D01*
X023586Y004560D02*
X024480Y004560D01*
X024524Y004718D02*
X023605Y004718D01*
X022979Y004401D02*
X008486Y004401D01*
X008507Y004243D02*
X020865Y004243D01*
X020711Y004084D02*
X008665Y004084D01*
X008824Y003926D02*
X020645Y003926D01*
X020630Y003767D02*
X008982Y003767D01*
X009141Y003609D02*
X020656Y003609D01*
X020732Y003450D02*
X017849Y003450D01*
X018382Y003292D02*
X018978Y003292D01*
X018755Y003133D02*
X018605Y003133D01*
X019382Y003292D02*
X019863Y003292D01*
X019695Y003133D02*
X019605Y003133D01*
X020160Y003133D02*
X020200Y003133D01*
X020200Y002975D02*
X020160Y002975D01*
X020160Y002816D02*
X020200Y002816D01*
X020200Y002658D02*
X020160Y002658D01*
X020160Y002499D02*
X020200Y002499D01*
X020200Y002341D02*
X020160Y002341D01*
X020589Y002341D02*
X020842Y002341D01*
X021518Y002341D02*
X021842Y002341D01*
X021701Y002499D02*
X021659Y002499D01*
X020922Y003292D02*
X020497Y003292D01*
X020665Y003133D02*
X020755Y003133D01*
X020200Y003292D02*
X020160Y003292D01*
X021495Y004243D02*
X021865Y004243D01*
X021711Y004084D02*
X021649Y004084D01*
X016842Y002341D02*
X016518Y002341D01*
X016659Y002499D02*
X016701Y002499D01*
X017439Y002182D02*
X000460Y002182D01*
X000460Y002024D02*
X017597Y002024D01*
X015842Y002341D02*
X015518Y002341D01*
X015659Y002499D02*
X015701Y002499D01*
X014842Y002341D02*
X014518Y002341D01*
X014659Y002499D02*
X014701Y002499D01*
X013842Y002341D02*
X013518Y002341D01*
X013659Y002499D02*
X013701Y002499D01*
X012842Y002341D02*
X012518Y002341D01*
X012659Y002499D02*
X012701Y002499D01*
X011842Y002341D02*
X011518Y002341D01*
X011659Y002499D02*
X011701Y002499D01*
X010842Y002341D02*
X010518Y002341D01*
X010659Y002499D02*
X010701Y002499D01*
X009842Y002341D02*
X009518Y002341D01*
X009659Y002499D02*
X009701Y002499D01*
X008842Y002341D02*
X008518Y002341D01*
X008659Y002499D02*
X008701Y002499D01*
X007842Y002341D02*
X007518Y002341D01*
X007659Y002499D02*
X007701Y002499D01*
X006842Y002341D02*
X000460Y002341D01*
X000460Y002499D02*
X006701Y002499D01*
X006635Y002658D02*
X004850Y002658D01*
X004867Y002660D02*
X004953Y002688D01*
X005035Y002730D01*
X005109Y002783D01*
X005173Y002848D01*
X005227Y002922D01*
X005268Y003003D01*
X005297Y003090D01*
X005311Y003180D01*
X005311Y003226D01*
X005311Y003272D01*
X005297Y003362D01*
X005268Y003449D01*
X005227Y003530D01*
X005173Y003604D01*
X005109Y003668D01*
X005035Y003722D01*
X004953Y003763D01*
X004867Y003792D01*
X004776Y003806D01*
X004381Y003806D01*
X004381Y003226D01*
X005311Y003226D01*
X004381Y003226D01*
X004381Y003226D01*
X004381Y003226D01*
X004381Y003806D01*
X003985Y003806D01*
X003895Y003792D01*
X003808Y003763D01*
X003727Y003722D01*
X003653Y003668D01*
X003588Y003604D01*
X003535Y003530D01*
X003493Y003449D01*
X003465Y003362D01*
X003451Y003272D01*
X003451Y003226D01*
X004381Y003226D01*
X004381Y002646D01*
X004776Y002646D01*
X004867Y002660D01*
X005141Y002816D02*
X006630Y002816D01*
X006665Y002975D02*
X005254Y002975D01*
X005303Y003133D02*
X006755Y003133D01*
X006978Y003292D02*
X005308Y003292D01*
X005268Y003450D02*
X008621Y003450D01*
X008779Y003292D02*
X008382Y003292D01*
X008605Y003133D02*
X008755Y003133D01*
X008462Y003609D02*
X005168Y003609D01*
X004942Y003767D02*
X008304Y003767D01*
X008006Y003926D02*
X003893Y003926D01*
X003819Y003767D02*
X003735Y003767D01*
X003593Y003609D02*
X003576Y003609D01*
X003494Y003450D02*
X003418Y003450D01*
X003454Y003292D02*
X003259Y003292D01*
X003451Y003226D02*
X003451Y003180D01*
X003465Y003090D01*
X003493Y003003D01*
X003535Y002922D01*
X003588Y002848D01*
X003653Y002783D01*
X003727Y002730D01*
X003808Y002688D01*
X003895Y002660D01*
X003985Y002646D01*
X004381Y002646D01*
X004381Y003226D01*
X004381Y003226D01*
X004381Y003226D01*
X003451Y003226D01*
X003458Y003133D02*
X003101Y003133D01*
X002942Y002975D02*
X003508Y002975D01*
X003620Y002816D02*
X000460Y002816D01*
X000460Y002658D02*
X003912Y002658D01*
X004381Y002658D02*
X004381Y002658D01*
X004381Y002816D02*
X004381Y002816D01*
X004381Y002975D02*
X004381Y002975D01*
X004381Y003133D02*
X004381Y003133D01*
X004381Y003292D02*
X004381Y003292D01*
X004381Y003450D02*
X004381Y003450D01*
X004381Y003609D02*
X004381Y003609D01*
X004381Y003767D02*
X004381Y003767D01*
X004052Y004084D02*
X007805Y004084D01*
X007755Y004243D02*
X005821Y004243D01*
X006008Y004401D02*
X007774Y004401D01*
X006122Y005035D02*
X013736Y005035D01*
X013827Y004944D02*
X013827Y004944D01*
X013386Y005194D02*
X006122Y005194D01*
X006122Y005352D02*
X013306Y005352D01*
X013307Y005511D02*
X006122Y005511D01*
X006122Y005669D02*
X010312Y005669D01*
X010143Y005828D02*
X006057Y005828D01*
X005931Y005986D02*
X009985Y005986D01*
X009826Y006145D02*
X001140Y006145D01*
X001140Y006303D02*
X009668Y006303D01*
X009509Y006462D02*
X001140Y006462D01*
X001140Y006620D02*
X009351Y006620D01*
X009192Y006779D02*
X001140Y006779D01*
X001140Y006937D02*
X009034Y006937D01*
X008875Y007096D02*
X001140Y007096D01*
X001140Y007254D02*
X008717Y007254D01*
X008367Y007413D02*
X001140Y007413D01*
X001140Y007571D02*
X008305Y007571D01*
X008315Y007730D02*
X001140Y007730D01*
X001140Y007888D02*
X008408Y007888D01*
X008952Y007888D02*
X017449Y007888D01*
X017290Y007730D02*
X009045Y007730D01*
X009078Y007571D02*
X014023Y007571D01*
X013850Y007413D02*
X009237Y007413D01*
X009395Y007254D02*
X013805Y007254D01*
X013830Y007096D02*
X009554Y007096D01*
X009712Y006937D02*
X013943Y006937D01*
X013871Y006620D02*
X010029Y006620D01*
X009871Y006779D02*
X014292Y006779D01*
X014189Y006620D02*
X027581Y006620D01*
X027422Y006462D02*
X022279Y006462D01*
X022355Y006303D02*
X027264Y006303D01*
X027105Y006145D02*
X022350Y006145D01*
X016936Y007571D02*
X014337Y007571D01*
X014510Y007413D02*
X016826Y007413D01*
X016802Y007254D02*
X014555Y007254D01*
X013699Y006462D02*
X010188Y006462D01*
X010346Y006303D02*
X013655Y006303D01*
X013680Y006145D02*
X010505Y006145D01*
X005542Y005155D02*
X004755Y005155D01*
X002780Y003180D01*
X001280Y003180D01*
X000880Y003580D01*
X000880Y013680D01*
X001170Y013436D02*
X006747Y013436D01*
X006662Y013594D02*
X001254Y013594D01*
X001258Y013753D02*
X006630Y013753D01*
X006639Y013911D02*
X001184Y013911D01*
X000576Y013911D02*
X000460Y013911D01*
X000460Y013753D02*
X000502Y013753D01*
X000506Y013594D02*
X000460Y013594D01*
X000460Y013436D02*
X000590Y013436D01*
X000620Y013277D02*
X000460Y013277D01*
X000460Y013119D02*
X000620Y013119D01*
X000620Y012960D02*
X000460Y012960D01*
X000460Y012802D02*
X000620Y012802D01*
X000620Y012643D02*
X000460Y012643D01*
X000460Y012485D02*
X000620Y012485D01*
X000620Y012326D02*
X000460Y012326D01*
X000460Y012168D02*
X000620Y012168D01*
X000620Y012009D02*
X000460Y012009D01*
X000460Y011851D02*
X000620Y011851D01*
X000620Y011692D02*
X000460Y011692D01*
X000460Y011534D02*
X000620Y011534D01*
X000620Y011375D02*
X000460Y011375D01*
X000460Y011217D02*
X000620Y011217D01*
X000620Y011058D02*
X000460Y011058D01*
X000460Y010900D02*
X000620Y010900D01*
X000620Y010741D02*
X000460Y010741D01*
X000460Y010583D02*
X000620Y010583D01*
X000620Y010424D02*
X000460Y010424D01*
X000460Y010266D02*
X000620Y010266D01*
X000620Y010107D02*
X000460Y010107D01*
X000460Y009949D02*
X000620Y009949D01*
X000620Y009790D02*
X000460Y009790D01*
X000460Y009632D02*
X000620Y009632D01*
X000620Y009473D02*
X000460Y009473D01*
X000460Y009315D02*
X000620Y009315D01*
X000620Y009156D02*
X000460Y009156D01*
X000460Y008998D02*
X000620Y008998D01*
X000620Y008839D02*
X000460Y008839D01*
X000460Y008681D02*
X000620Y008681D01*
X000620Y008522D02*
X000460Y008522D01*
X000460Y008364D02*
X000620Y008364D01*
X000620Y008205D02*
X000460Y008205D01*
X000460Y008047D02*
X000620Y008047D01*
X000620Y007888D02*
X000460Y007888D01*
X000460Y007730D02*
X000620Y007730D01*
X000620Y007571D02*
X000460Y007571D01*
X000460Y007413D02*
X000620Y007413D01*
X000620Y007254D02*
X000460Y007254D01*
X000460Y007096D02*
X000620Y007096D01*
X000620Y006937D02*
X000460Y006937D01*
X000460Y006779D02*
X000620Y006779D01*
X000620Y006620D02*
X000460Y006620D01*
X000460Y006462D02*
X000620Y006462D01*
X000620Y006303D02*
X000460Y006303D01*
X000460Y006145D02*
X000620Y006145D01*
X000620Y005986D02*
X000460Y005986D01*
X000460Y005828D02*
X000620Y005828D01*
X000620Y005669D02*
X000460Y005669D01*
X000460Y005511D02*
X000620Y005511D01*
X000620Y005352D02*
X000460Y005352D01*
X000460Y005194D02*
X000620Y005194D01*
X000620Y005035D02*
X000460Y005035D01*
X000460Y004877D02*
X000620Y004877D01*
X000620Y004718D02*
X000460Y004718D01*
X000460Y004560D02*
X000620Y004560D01*
X000620Y004401D02*
X000460Y004401D01*
X000460Y004243D02*
X000620Y004243D01*
X000620Y004084D02*
X000460Y004084D01*
X000460Y003926D02*
X000620Y003926D01*
X000620Y003767D02*
X000460Y003767D01*
X000460Y003609D02*
X000620Y003609D01*
X000652Y003450D02*
X000460Y003450D01*
X000460Y003292D02*
X000801Y003292D01*
X000959Y003133D02*
X000460Y003133D01*
X000460Y002975D02*
X001118Y002975D01*
X001378Y003450D02*
X002682Y003450D01*
X002841Y003609D02*
X001219Y003609D01*
X001140Y003767D02*
X002999Y003767D01*
X003158Y003926D02*
X001140Y003926D01*
X001140Y004084D02*
X003316Y004084D01*
X003316Y004239D02*
X003403Y004267D01*
X003484Y004309D01*
X003558Y004363D01*
X003622Y004427D01*
X003676Y004501D01*
X003718Y004582D01*
X003746Y004669D01*
X003760Y004759D01*
X003760Y005155D01*
X003760Y005551D01*
X003746Y005641D01*
X003718Y005728D01*
X003676Y005809D01*
X003622Y005883D01*
X003558Y005947D01*
X003484Y006001D01*
X003403Y006043D01*
X003316Y006071D01*
X003226Y006085D01*
X003180Y006085D01*
X003180Y005155D01*
X003180Y005155D01*
X003760Y005155D01*
X003180Y005155D01*
X003180Y005155D01*
X003180Y005155D01*
X002600Y005155D01*
X002600Y005551D01*
X002614Y005641D01*
X002642Y005728D01*
X002684Y005809D01*
X002738Y005883D01*
X002802Y005947D01*
X002876Y006001D01*
X002957Y006043D01*
X003044Y006071D01*
X003134Y006085D01*
X003180Y006085D01*
X003180Y005155D01*
X003180Y004225D01*
X003226Y004225D01*
X003316Y004239D01*
X003326Y004243D02*
X003475Y004243D01*
X003596Y004401D02*
X003633Y004401D01*
X003706Y004560D02*
X003792Y004560D01*
X003753Y004718D02*
X003950Y004718D01*
X004109Y004877D02*
X003760Y004877D01*
X003760Y005035D02*
X004267Y005035D01*
X004426Y005194D02*
X003760Y005194D01*
X003760Y005352D02*
X004584Y005352D01*
X004962Y005511D02*
X003760Y005511D01*
X003737Y005669D02*
X004962Y005669D01*
X005027Y005828D02*
X003663Y005828D01*
X003505Y005986D02*
X005153Y005986D01*
X003180Y005986D02*
X003180Y005986D01*
X003180Y005828D02*
X003180Y005828D01*
X003180Y005669D02*
X003180Y005669D01*
X003180Y005511D02*
X003180Y005511D01*
X003180Y005352D02*
X003180Y005352D01*
X003180Y005194D02*
X003180Y005194D01*
X003180Y005155D02*
X002600Y005155D01*
X002600Y004759D01*
X002614Y004669D01*
X002642Y004582D01*
X002684Y004501D01*
X002738Y004427D01*
X002802Y004363D01*
X002876Y004309D01*
X002957Y004267D01*
X003044Y004239D01*
X003134Y004225D01*
X003180Y004225D01*
X003180Y005155D01*
X003180Y005155D01*
X003180Y005035D02*
X003180Y005035D01*
X003180Y004877D02*
X003180Y004877D01*
X003180Y004718D02*
X003180Y004718D01*
X003180Y004560D02*
X003180Y004560D01*
X003180Y004401D02*
X003180Y004401D01*
X003180Y004243D02*
X003180Y004243D01*
X003034Y004243D02*
X001140Y004243D01*
X001140Y004401D02*
X002764Y004401D01*
X002654Y004560D02*
X001140Y004560D01*
X001140Y004718D02*
X002607Y004718D01*
X002600Y004877D02*
X001140Y004877D01*
X001140Y005035D02*
X002600Y005035D01*
X002600Y005194D02*
X001140Y005194D01*
X001140Y005352D02*
X002600Y005352D01*
X002600Y005511D02*
X001140Y005511D01*
X001140Y005669D02*
X002623Y005669D01*
X002697Y005828D02*
X001140Y005828D01*
X001140Y005986D02*
X002855Y005986D01*
X004844Y004877D02*
X004962Y004877D01*
X004962Y004718D02*
X004686Y004718D01*
X004527Y004560D02*
X004995Y004560D01*
X005076Y004401D02*
X004369Y004401D01*
X004210Y004243D02*
X005264Y004243D01*
X007382Y003292D02*
X007978Y003292D01*
X007755Y003133D02*
X007605Y003133D01*
X018670Y008029D02*
X018779Y007920D01*
X021581Y007920D01*
X022251Y008590D01*
X021429Y008590D01*
X021333Y008494D01*
X021333Y008494D01*
X021266Y008427D01*
X021178Y008390D01*
X021020Y008390D01*
X020942Y008312D01*
X020805Y008255D01*
X020655Y008255D01*
X020518Y008312D01*
X020412Y008418D01*
X020355Y008555D01*
X020355Y008705D01*
X020390Y008790D01*
X019870Y008790D01*
X019792Y008712D01*
X019655Y008655D01*
X019505Y008655D01*
X019368Y008712D01*
X019262Y008818D01*
X019205Y008955D01*
X019205Y009105D01*
X019262Y009242D01*
X019368Y009348D01*
X019505Y009405D01*
X019505Y009455D01*
X019368Y009512D01*
X019262Y009618D01*
X019205Y009755D01*
X019205Y009905D01*
X019262Y010042D01*
X019275Y010055D01*
X019212Y010118D01*
X019155Y010255D01*
X019155Y010405D01*
X019212Y010542D01*
X019318Y010648D01*
X019455Y010705D01*
X019566Y010705D01*
X020251Y011390D01*
X018870Y011390D01*
X018792Y011312D01*
X018775Y011305D01*
X018792Y011298D01*
X018898Y011192D01*
X018955Y011055D01*
X018955Y010905D01*
X018898Y010768D01*
X018792Y010662D01*
X018670Y010611D01*
X018670Y008029D01*
X018670Y008047D02*
X021707Y008047D01*
X021866Y008205D02*
X018670Y008205D01*
X018670Y008364D02*
X020466Y008364D01*
X020369Y008522D02*
X018670Y008522D01*
X018670Y008681D02*
X019444Y008681D01*
X019253Y008839D02*
X018670Y008839D01*
X018670Y008998D02*
X019205Y008998D01*
X019226Y009156D02*
X018670Y009156D01*
X018670Y009315D02*
X019334Y009315D01*
X019462Y009473D02*
X018670Y009473D01*
X018670Y009632D02*
X019256Y009632D01*
X019205Y009790D02*
X018670Y009790D01*
X018670Y009949D02*
X019223Y009949D01*
X019223Y010107D02*
X018670Y010107D01*
X018670Y010266D02*
X019155Y010266D01*
X019163Y010424D02*
X018670Y010424D01*
X018670Y010583D02*
X019252Y010583D01*
X019602Y010741D02*
X018871Y010741D01*
X018953Y010900D02*
X019760Y010900D01*
X019919Y011058D02*
X018954Y011058D01*
X018874Y011217D02*
X020077Y011217D01*
X020236Y011375D02*
X018855Y011375D01*
X017540Y011534D02*
X011473Y011534D01*
X011631Y011692D02*
X017540Y011692D01*
X017540Y011851D02*
X011790Y011851D01*
X011948Y012009D02*
X016421Y012009D01*
X016355Y012168D02*
X012107Y012168D01*
X012456Y012326D02*
X016295Y012326D01*
X016136Y012485D02*
X012546Y012485D01*
X012555Y012643D02*
X015978Y012643D01*
X015819Y012802D02*
X012489Y012802D01*
X011871Y012802D02*
X001140Y012802D01*
X001140Y012960D02*
X015661Y012960D01*
X015502Y013119D02*
X001140Y013119D01*
X001140Y013277D02*
X006957Y013277D01*
X007403Y013277D02*
X007957Y013277D01*
X007747Y013436D02*
X007613Y013436D01*
X008403Y013277D02*
X008852Y013277D01*
X008689Y013436D02*
X008613Y013436D01*
X009160Y013436D02*
X009200Y013436D01*
X009200Y013594D02*
X009160Y013594D01*
X009160Y013753D02*
X009200Y013753D01*
X009200Y013911D02*
X009160Y013911D01*
X009160Y014070D02*
X009200Y014070D01*
X009200Y014228D02*
X009160Y014228D01*
X008779Y014228D02*
X008510Y014228D01*
X007850Y014228D02*
X007510Y014228D01*
X007655Y014070D02*
X007705Y014070D01*
X006850Y014228D02*
X000460Y014228D01*
X000460Y014070D02*
X006705Y014070D01*
X009160Y013277D02*
X009200Y013277D01*
X009508Y013277D02*
X009957Y013277D01*
X009747Y013436D02*
X009671Y013436D01*
X010403Y013277D02*
X010957Y013277D01*
X010747Y013436D02*
X010613Y013436D01*
X011403Y013277D02*
X011957Y013277D01*
X011747Y013436D02*
X011613Y013436D01*
X012403Y013277D02*
X012957Y013277D01*
X012747Y013436D02*
X012613Y013436D01*
X013403Y013277D02*
X013957Y013277D01*
X013747Y013436D02*
X013613Y013436D01*
X014403Y013277D02*
X014957Y013277D01*
X014747Y013436D02*
X014613Y013436D01*
X016181Y013119D02*
X017540Y013119D01*
X017540Y012960D02*
X016339Y012960D01*
X016498Y012802D02*
X017540Y012802D01*
X017540Y012643D02*
X016656Y012643D01*
X017006Y012485D02*
X017540Y012485D01*
X017540Y012326D02*
X017096Y012326D01*
X017105Y012168D02*
X017540Y012168D01*
X017540Y012009D02*
X017039Y012009D01*
X017434Y011375D02*
X011314Y011375D01*
X011156Y011217D02*
X017405Y011217D01*
X017445Y011058D02*
X010997Y011058D01*
X010839Y010900D02*
X017598Y010900D01*
X017940Y010741D02*
X010680Y010741D01*
X010651Y010583D02*
X010522Y010583D01*
X010454Y010424D02*
X010363Y010424D01*
X010405Y010266D02*
X010205Y010266D01*
X010046Y010107D02*
X010425Y010107D01*
X009959Y009949D02*
X009888Y009949D01*
X009801Y009790D02*
X009729Y009790D01*
X009642Y009632D02*
X009571Y009632D01*
X009484Y009473D02*
X009412Y009473D01*
X008892Y009632D02*
X006185Y009632D01*
X006160Y009790D02*
X009051Y009790D01*
X009209Y009949D02*
X006131Y009949D01*
X006185Y010107D02*
X009368Y010107D01*
X009526Y010266D02*
X006171Y010266D01*
X006111Y010424D02*
X009685Y010424D01*
X009843Y010583D02*
X006185Y010583D01*
X006181Y010741D02*
X010002Y010741D01*
X010160Y010900D02*
X006098Y010900D01*
X006176Y011058D02*
X010319Y011058D01*
X010477Y011217D02*
X006185Y011217D01*
X006122Y011375D02*
X010636Y011375D01*
X010794Y011534D02*
X006166Y011534D01*
X006185Y011692D02*
X010953Y011692D01*
X011111Y011851D02*
X006135Y011851D01*
X005943Y012009D02*
X011270Y012009D01*
X011428Y012168D02*
X001140Y012168D01*
X001140Y012326D02*
X011587Y012326D01*
X011745Y012485D02*
X001140Y012485D01*
X001140Y012643D02*
X011805Y012643D01*
X011705Y014070D02*
X011655Y014070D01*
X011510Y014228D02*
X011850Y014228D01*
X012510Y014228D02*
X012850Y014228D01*
X012705Y014070D02*
X012655Y014070D01*
X013654Y014387D02*
X000460Y014387D01*
X000460Y014545D02*
X013891Y014545D01*
X014127Y014704D02*
X000460Y014704D01*
X000460Y014862D02*
X014364Y014862D01*
X014600Y015021D02*
X000460Y015021D01*
X000460Y015179D02*
X014837Y015179D01*
X015073Y015338D02*
X000460Y015338D01*
X000460Y015496D02*
X015310Y015496D01*
X010850Y014228D02*
X010510Y014228D01*
X010655Y014070D02*
X010705Y014070D01*
X009850Y014228D02*
X009581Y014228D01*
X016403Y013277D02*
X016957Y013277D01*
X016747Y013436D02*
X016613Y013436D01*
X017502Y010583D02*
X010909Y010583D01*
X008734Y009473D02*
X006141Y009473D01*
X006150Y009315D02*
X008575Y009315D01*
X008417Y009156D02*
X006185Y009156D01*
X006151Y008998D02*
X008067Y008998D01*
X007940Y008839D02*
X006140Y008839D01*
X006185Y008681D02*
X007905Y008681D01*
X007940Y008522D02*
X006161Y008522D01*
X005449Y008522D02*
X002198Y008522D01*
X002110Y008681D02*
X005425Y008681D01*
X005470Y008839D02*
X001140Y008839D01*
X001140Y008681D02*
X001550Y008681D01*
X001462Y008522D02*
X001140Y008522D01*
X001140Y008364D02*
X001455Y008364D01*
X001525Y008205D02*
X001140Y008205D01*
X001140Y008047D02*
X001917Y008047D01*
X001140Y008998D02*
X005459Y008998D01*
X005425Y009156D02*
X001140Y009156D01*
X001140Y009315D02*
X005460Y009315D01*
X005469Y009473D02*
X001140Y009473D01*
X001140Y009632D02*
X005425Y009632D01*
X005450Y009790D02*
X001140Y009790D01*
X001140Y009949D02*
X005479Y009949D01*
X005425Y010107D02*
X001140Y010107D01*
X001140Y010266D02*
X005439Y010266D01*
X005499Y010424D02*
X001140Y010424D01*
X001140Y010583D02*
X005425Y010583D01*
X005429Y010741D02*
X001140Y010741D01*
X001140Y010900D02*
X005512Y010900D01*
X005434Y011058D02*
X001140Y011058D01*
X001140Y011217D02*
X005425Y011217D01*
X005488Y011375D02*
X001140Y011375D01*
X001140Y011534D02*
X005444Y011534D01*
X005425Y011692D02*
X001140Y011692D01*
X001140Y011851D02*
X005475Y011851D01*
X005667Y012009D02*
X001140Y012009D01*
X019716Y008681D02*
X020355Y008681D01*
X020994Y008364D02*
X022024Y008364D01*
X022183Y008522D02*
X021361Y008522D01*
X027838Y010070D02*
X027887Y010189D01*
X027887Y010371D01*
X027838Y010490D01*
X027968Y010490D01*
X027960Y010475D01*
X027935Y010399D01*
X027923Y010320D01*
X027923Y010289D01*
X028421Y010289D01*
X028421Y010271D01*
X027923Y010271D01*
X027923Y010240D01*
X027935Y010161D01*
X027960Y010085D01*
X027968Y010070D01*
X027838Y010070D01*
X027853Y010107D02*
X027953Y010107D01*
X027923Y010266D02*
X027887Y010266D01*
X027865Y010424D02*
X027944Y010424D01*
X028439Y010289D02*
X028937Y010289D01*
X028937Y010320D01*
X028925Y010399D01*
X028900Y010475D01*
X028892Y010490D01*
X032331Y010490D01*
X032344Y010477D01*
X032429Y010441D01*
X032481Y010390D01*
X032473Y010371D01*
X032473Y010189D01*
X032522Y010070D01*
X028892Y010070D01*
X028900Y010085D01*
X028925Y010161D01*
X028937Y010240D01*
X028937Y010271D01*
X028439Y010271D01*
X028439Y010289D01*
X028916Y010424D02*
X032447Y010424D01*
X032473Y010266D02*
X028937Y010266D01*
X028907Y010107D02*
X032507Y010107D01*
X035359Y010120D02*
X035387Y010189D01*
X035387Y010371D01*
X035338Y010490D01*
X035468Y010490D01*
X035460Y010475D01*
X035435Y010399D01*
X035423Y010320D01*
X035423Y010289D01*
X035921Y010289D01*
X035921Y010271D01*
X035423Y010271D01*
X035423Y010240D01*
X035435Y010161D01*
X035449Y010120D01*
X035359Y010120D01*
X035387Y010266D02*
X035423Y010266D01*
X035444Y010424D02*
X035365Y010424D01*
X035939Y010289D02*
X036437Y010289D01*
X036437Y010320D01*
X036425Y010399D01*
X036400Y010475D01*
X036392Y010490D01*
X040022Y010490D01*
X039973Y010371D01*
X039973Y010189D01*
X040022Y010070D01*
X036392Y010070D01*
X036400Y010085D01*
X036425Y010161D01*
X036437Y010240D01*
X036437Y010271D01*
X035939Y010271D01*
X035939Y010289D01*
X036416Y010424D02*
X039995Y010424D01*
X039973Y010266D02*
X036437Y010266D01*
X036407Y010107D02*
X040007Y010107D01*
X040593Y010970D02*
X036767Y010970D01*
X036818Y011021D01*
X036887Y011189D01*
X036887Y011371D01*
X036818Y011539D01*
X036689Y011668D01*
X036521Y011737D01*
X036339Y011737D01*
X036320Y011729D01*
X035883Y012166D01*
X035816Y012233D01*
X035728Y012270D01*
X035220Y012270D01*
X035255Y012355D01*
X035255Y012505D01*
X035199Y012640D01*
X050231Y012640D01*
X051481Y011390D01*
X051473Y011371D01*
X051473Y011189D01*
X051542Y011021D01*
X051671Y010892D01*
X051839Y010823D01*
X052021Y010823D01*
X052189Y010892D01*
X052318Y011021D01*
X052387Y011189D01*
X052387Y011371D01*
X052318Y011539D01*
X052189Y011668D01*
X052021Y011737D01*
X051839Y011737D01*
X051820Y011729D01*
X050533Y013016D01*
X050466Y013083D01*
X050378Y013120D01*
X048571Y013120D01*
X048710Y013259D01*
X048850Y013597D01*
X048850Y013963D01*
X048710Y014301D01*
X048451Y014560D01*
X048113Y014700D01*
X047747Y014700D01*
X047409Y014560D01*
X047150Y014301D01*
X047010Y013963D01*
X047010Y013597D01*
X047150Y013259D01*
X047289Y013120D01*
X045071Y013120D01*
X045210Y013259D01*
X045350Y013597D01*
X045350Y013963D01*
X045210Y014301D01*
X044951Y014560D01*
X044613Y014700D01*
X044247Y014700D01*
X043909Y014560D01*
X043650Y014301D01*
X043510Y013963D01*
X043510Y013597D01*
X043650Y013259D01*
X043789Y013120D01*
X040571Y013120D01*
X040710Y013259D01*
X040850Y013597D01*
X040850Y013963D01*
X040710Y014301D01*
X040451Y014560D01*
X040113Y014700D01*
X039747Y014700D01*
X039409Y014560D01*
X039150Y014301D01*
X039010Y013963D01*
X039010Y013597D01*
X039150Y013259D01*
X039289Y013120D01*
X037571Y013120D01*
X037710Y013259D01*
X037850Y013597D01*
X037850Y013963D01*
X037710Y014301D01*
X037451Y014560D01*
X037113Y014700D01*
X036747Y014700D01*
X036409Y014560D01*
X036150Y014301D01*
X036010Y013963D01*
X036010Y013597D01*
X036150Y013259D01*
X036289Y013120D01*
X033071Y013120D01*
X033210Y013259D01*
X033350Y013597D01*
X033350Y013963D01*
X033210Y014301D01*
X032951Y014560D01*
X032613Y014700D01*
X032247Y014700D01*
X031909Y014560D01*
X031650Y014301D01*
X031510Y013963D01*
X031510Y013597D01*
X031650Y013259D01*
X031789Y013120D01*
X030071Y013120D01*
X030210Y013259D01*
X030350Y013597D01*
X030350Y013963D01*
X030210Y014301D01*
X029951Y014560D01*
X029613Y014700D01*
X029247Y014700D01*
X028909Y014560D01*
X028650Y014301D01*
X028510Y013963D01*
X028510Y013597D01*
X028650Y013259D01*
X028789Y013120D01*
X028279Y013120D01*
X027883Y013516D01*
X027816Y013583D01*
X027728Y013620D01*
X026220Y013620D01*
X026142Y013698D01*
X026065Y013730D01*
X026142Y013762D01*
X026248Y013868D01*
X026305Y014005D01*
X026305Y014155D01*
X026248Y014292D01*
X026142Y014398D01*
X026005Y014455D01*
X025894Y014455D01*
X025559Y014790D01*
X052706Y014790D01*
X052925Y014571D01*
X052613Y014700D01*
X052247Y014700D01*
X051909Y014560D01*
X051650Y014301D01*
X051510Y013963D01*
X051510Y013597D01*
X051650Y013259D01*
X051909Y013000D01*
X052247Y012860D01*
X052613Y012860D01*
X052951Y013000D01*
X053210Y013259D01*
X053350Y013597D01*
X053350Y013963D01*
X053221Y014275D01*
X054690Y012806D01*
X054690Y009270D01*
X053600Y009270D01*
X053519Y009351D01*
X053380Y009408D01*
X053230Y009408D01*
X053091Y009351D01*
X052984Y009244D01*
X052927Y009105D01*
X052927Y008955D01*
X052984Y008816D01*
X053083Y008718D01*
X052984Y008619D01*
X052927Y008480D01*
X052927Y008330D01*
X052952Y008270D01*
X051829Y008270D01*
X050232Y009867D01*
X050339Y009823D01*
X050521Y009823D01*
X050689Y009892D01*
X050818Y010021D01*
X050887Y010189D01*
X050887Y010371D01*
X050818Y010539D01*
X050689Y010668D01*
X050521Y010737D01*
X050339Y010737D01*
X050171Y010668D01*
X050042Y010539D01*
X049973Y010371D01*
X049973Y010189D01*
X050017Y010082D01*
X049887Y010212D01*
X049887Y010371D01*
X049818Y010539D01*
X049689Y010668D01*
X049521Y010737D01*
X049339Y010737D01*
X049171Y010668D01*
X049042Y010539D01*
X048973Y010371D01*
X048973Y010189D01*
X048981Y010170D01*
X048731Y009920D01*
X048717Y009920D01*
X048818Y010021D01*
X048887Y010189D01*
X048887Y010371D01*
X048818Y010539D01*
X048689Y010668D01*
X048521Y010737D01*
X048339Y010737D01*
X048320Y010729D01*
X048183Y010866D01*
X048116Y010933D01*
X048028Y010970D01*
X044267Y010970D01*
X044318Y011021D01*
X044387Y011189D01*
X044387Y011371D01*
X044338Y011490D01*
X048522Y011490D01*
X048473Y011371D01*
X048473Y011189D01*
X048542Y011021D01*
X048671Y010892D01*
X048839Y010823D01*
X049021Y010823D01*
X049189Y010892D01*
X049318Y011021D01*
X049387Y011189D01*
X049387Y011371D01*
X049338Y011490D01*
X049381Y011490D01*
X049481Y011390D01*
X049473Y011371D01*
X049473Y011189D01*
X049542Y011021D01*
X049671Y010892D01*
X049839Y010823D01*
X050021Y010823D01*
X050189Y010892D01*
X050318Y011021D01*
X050387Y011189D01*
X050387Y011371D01*
X050318Y011539D01*
X050189Y011668D01*
X050021Y011737D01*
X049839Y011737D01*
X049820Y011729D01*
X049616Y011933D01*
X049528Y011970D01*
X042332Y011970D01*
X042244Y011933D01*
X042177Y011866D01*
X042040Y011729D01*
X042021Y011737D01*
X041839Y011737D01*
X041671Y011668D01*
X041542Y011539D01*
X041473Y011371D01*
X041473Y011189D01*
X041542Y011021D01*
X041593Y010970D01*
X041267Y010970D01*
X041318Y011021D01*
X041387Y011189D01*
X041387Y011371D01*
X041318Y011539D01*
X041189Y011668D01*
X041021Y011737D01*
X040839Y011737D01*
X040671Y011668D01*
X040542Y011539D01*
X040473Y011371D01*
X040473Y011189D01*
X040542Y011021D01*
X040593Y010970D01*
X040527Y011058D02*
X036833Y011058D01*
X036887Y011217D02*
X040473Y011217D01*
X040475Y011375D02*
X036885Y011375D01*
X036820Y011534D02*
X040540Y011534D01*
X040730Y011692D02*
X036630Y011692D01*
X036199Y011851D02*
X042161Y011851D01*
X041730Y011692D02*
X041130Y011692D01*
X041320Y011534D02*
X041540Y011534D01*
X041475Y011375D02*
X041385Y011375D01*
X041387Y011217D02*
X041473Y011217D01*
X041527Y011058D02*
X041333Y011058D01*
X042838Y010490D02*
X042968Y010490D01*
X042960Y010475D01*
X042935Y010399D01*
X042923Y010320D01*
X042923Y010289D01*
X043421Y010289D01*
X043421Y010271D01*
X042923Y010271D01*
X042923Y010240D01*
X042935Y010161D01*
X042960Y010085D01*
X042996Y010014D01*
X043043Y009950D01*
X043073Y009920D01*
X042717Y009920D01*
X042818Y010021D01*
X042887Y010189D01*
X042887Y010371D01*
X042838Y010490D01*
X042865Y010424D02*
X042944Y010424D01*
X042923Y010266D02*
X042887Y010266D01*
X042853Y010107D02*
X042953Y010107D01*
X043044Y009949D02*
X042745Y009949D01*
X043439Y010271D02*
X043439Y010289D01*
X043937Y010289D01*
X043937Y010320D01*
X043925Y010399D01*
X043900Y010475D01*
X043892Y010490D01*
X047881Y010490D01*
X047981Y010390D01*
X047973Y010371D01*
X047973Y010189D01*
X048042Y010021D01*
X048143Y009920D01*
X043787Y009920D01*
X043817Y009950D01*
X043864Y010014D01*
X043900Y010085D01*
X043925Y010161D01*
X043937Y010240D01*
X043937Y010271D01*
X043439Y010271D01*
X043816Y009949D02*
X048115Y009949D01*
X048007Y010107D02*
X043907Y010107D01*
X043937Y010266D02*
X047973Y010266D01*
X047947Y010424D02*
X043916Y010424D01*
X044333Y011058D02*
X048527Y011058D01*
X048473Y011217D02*
X044387Y011217D01*
X044385Y011375D02*
X048475Y011375D01*
X048664Y010900D02*
X048150Y010900D01*
X048308Y010741D02*
X051218Y010741D01*
X051235Y010750D02*
X051164Y010714D01*
X051100Y010667D01*
X051043Y010610D01*
X050996Y010546D01*
X050960Y010475D01*
X050935Y010399D01*
X050923Y010320D01*
X050923Y010289D01*
X051421Y010289D01*
X051421Y010787D01*
X051390Y010787D01*
X051311Y010775D01*
X051235Y010750D01*
X051189Y010892D02*
X051318Y011021D01*
X051387Y011189D01*
X051387Y011371D01*
X051318Y011539D01*
X051189Y011668D01*
X051021Y011737D01*
X050839Y011737D01*
X050671Y011668D01*
X050542Y011539D01*
X050473Y011371D01*
X050473Y011189D01*
X050542Y011021D01*
X050671Y010892D01*
X050839Y010823D01*
X051021Y010823D01*
X051189Y010892D01*
X051196Y010900D02*
X051664Y010900D01*
X051625Y010750D02*
X051549Y010775D01*
X051470Y010787D01*
X051439Y010787D01*
X051439Y010289D01*
X051937Y010289D01*
X051937Y010320D01*
X051925Y010399D01*
X051900Y010475D01*
X051864Y010546D01*
X051817Y010610D01*
X051760Y010667D01*
X051696Y010714D01*
X051625Y010750D01*
X051642Y010741D02*
X054690Y010741D01*
X054690Y010583D02*
X051837Y010583D01*
X051916Y010424D02*
X054690Y010424D01*
X054690Y010266D02*
X051937Y010266D01*
X051937Y010271D02*
X051439Y010271D01*
X051439Y010289D01*
X051421Y010289D01*
X051421Y010271D01*
X051439Y010271D01*
X051439Y009773D01*
X051470Y009773D01*
X051549Y009785D01*
X051625Y009810D01*
X051696Y009846D01*
X051760Y009893D01*
X051817Y009950D01*
X051864Y010014D01*
X051900Y010085D01*
X051925Y010161D01*
X051937Y010240D01*
X051937Y010271D01*
X051907Y010107D02*
X054690Y010107D01*
X054690Y009949D02*
X051816Y009949D01*
X051563Y009790D02*
X054690Y009790D01*
X054690Y009632D02*
X050468Y009632D01*
X050309Y009790D02*
X051297Y009790D01*
X051311Y009785D02*
X051390Y009773D01*
X051421Y009773D01*
X051421Y010271D01*
X050923Y010271D01*
X050923Y010240D01*
X050935Y010161D01*
X050960Y010085D01*
X050996Y010014D01*
X051043Y009950D01*
X051100Y009893D01*
X051164Y009846D01*
X051235Y009810D01*
X051311Y009785D01*
X051421Y009790D02*
X051439Y009790D01*
X051439Y009949D02*
X051421Y009949D01*
X051421Y010107D02*
X051439Y010107D01*
X051439Y010266D02*
X051421Y010266D01*
X051421Y010424D02*
X051439Y010424D01*
X051439Y010583D02*
X051421Y010583D01*
X051421Y010741D02*
X051439Y010741D01*
X051527Y011058D02*
X051333Y011058D01*
X051387Y011217D02*
X051473Y011217D01*
X051475Y011375D02*
X051385Y011375D01*
X051337Y011534D02*
X051320Y011534D01*
X051179Y011692D02*
X051130Y011692D01*
X051020Y011851D02*
X049699Y011851D01*
X050130Y011692D02*
X050730Y011692D01*
X050540Y011534D02*
X050320Y011534D01*
X050385Y011375D02*
X050475Y011375D01*
X050473Y011217D02*
X050387Y011217D01*
X050333Y011058D02*
X050527Y011058D01*
X050664Y010900D02*
X050196Y010900D01*
X049664Y010900D02*
X049196Y010900D01*
X049333Y011058D02*
X049527Y011058D01*
X049473Y011217D02*
X049387Y011217D01*
X049385Y011375D02*
X049475Y011375D01*
X050862Y012009D02*
X036040Y012009D01*
X035882Y012168D02*
X050703Y012168D01*
X050545Y012326D02*
X035243Y012326D01*
X035255Y012485D02*
X050386Y012485D01*
X050748Y012802D02*
X054690Y012802D01*
X054690Y012643D02*
X050906Y012643D01*
X051065Y012485D02*
X054690Y012485D01*
X054690Y012326D02*
X051223Y012326D01*
X051382Y012168D02*
X054690Y012168D01*
X054690Y012009D02*
X051540Y012009D01*
X051699Y011851D02*
X054690Y011851D01*
X054690Y011692D02*
X052130Y011692D01*
X052320Y011534D02*
X054690Y011534D01*
X054690Y011375D02*
X052385Y011375D01*
X052387Y011217D02*
X054690Y011217D01*
X054690Y011058D02*
X052333Y011058D01*
X052196Y010900D02*
X054690Y010900D01*
X055420Y010900D02*
X058189Y010900D01*
X058171Y010907D02*
X058332Y010840D01*
X059028Y010840D01*
X059189Y010907D01*
X059313Y011031D01*
X059380Y011192D01*
X059380Y011368D01*
X059313Y011529D01*
X059189Y011653D01*
X059028Y011720D01*
X058332Y011720D01*
X058171Y011653D01*
X058047Y011529D01*
X057980Y011368D01*
X057980Y011192D01*
X058047Y011031D01*
X058171Y010907D01*
X058036Y011058D02*
X055420Y011058D01*
X055420Y011217D02*
X057980Y011217D01*
X057983Y011375D02*
X055420Y011375D01*
X055420Y011534D02*
X058051Y011534D01*
X058265Y011692D02*
X055420Y011692D01*
X055420Y011851D02*
X058307Y011851D01*
X058332Y011840D02*
X058171Y011907D01*
X058047Y012031D01*
X057980Y012192D01*
X057980Y012368D01*
X058047Y012529D01*
X058171Y012653D01*
X058332Y012720D01*
X059028Y012720D01*
X059189Y012653D01*
X059313Y012529D01*
X059380Y012368D01*
X059380Y012192D01*
X059313Y012031D01*
X059189Y011907D01*
X059028Y011840D01*
X058332Y011840D01*
X058069Y012009D02*
X055420Y012009D01*
X055420Y012168D02*
X057990Y012168D01*
X057980Y012326D02*
X055420Y012326D01*
X055420Y012485D02*
X058028Y012485D01*
X058161Y012643D02*
X055420Y012643D01*
X055420Y012802D02*
X060605Y012802D01*
X060605Y012960D02*
X055420Y012960D01*
X055420Y013119D02*
X060605Y013119D01*
X060605Y013277D02*
X055389Y013277D01*
X055239Y013436D02*
X060605Y013436D01*
X060605Y013594D02*
X055080Y013594D01*
X054922Y013753D02*
X060605Y013753D01*
X060605Y013911D02*
X054763Y013911D01*
X054605Y014070D02*
X060605Y014070D01*
X060605Y014228D02*
X054446Y014228D01*
X054288Y014387D02*
X060605Y014387D01*
X060605Y014545D02*
X054129Y014545D01*
X053971Y014704D02*
X060605Y014704D01*
X060605Y014862D02*
X053812Y014862D01*
X053654Y015021D02*
X060605Y015021D01*
X060605Y015179D02*
X053495Y015179D01*
X053337Y015338D02*
X060605Y015338D01*
X060605Y015496D02*
X053178Y015496D01*
X052792Y014704D02*
X025646Y014704D01*
X025804Y014545D02*
X028894Y014545D01*
X028735Y014387D02*
X026154Y014387D01*
X026275Y014228D02*
X028620Y014228D01*
X028554Y014070D02*
X026305Y014070D01*
X026266Y013911D02*
X028510Y013911D01*
X028510Y013753D02*
X026119Y013753D01*
X027790Y013594D02*
X028511Y013594D01*
X028577Y013436D02*
X027964Y013436D01*
X028122Y013277D02*
X028643Y013277D01*
X030217Y013277D02*
X031643Y013277D01*
X031577Y013436D02*
X030283Y013436D01*
X030349Y013594D02*
X031511Y013594D01*
X031510Y013753D02*
X030350Y013753D01*
X030350Y013911D02*
X031510Y013911D01*
X031554Y014070D02*
X030306Y014070D01*
X030240Y014228D02*
X031620Y014228D01*
X031735Y014387D02*
X030125Y014387D01*
X029966Y014545D02*
X031894Y014545D01*
X032966Y014545D02*
X036394Y014545D01*
X036235Y014387D02*
X033125Y014387D01*
X033240Y014228D02*
X036120Y014228D01*
X036054Y014070D02*
X033306Y014070D01*
X033350Y013911D02*
X036010Y013911D01*
X036010Y013753D02*
X033350Y013753D01*
X033349Y013594D02*
X036011Y013594D01*
X036077Y013436D02*
X033283Y013436D01*
X033217Y013277D02*
X036143Y013277D01*
X037717Y013277D02*
X039143Y013277D01*
X039077Y013436D02*
X037783Y013436D01*
X037849Y013594D02*
X039011Y013594D01*
X039010Y013753D02*
X037850Y013753D01*
X037850Y013911D02*
X039010Y013911D01*
X039054Y014070D02*
X037806Y014070D01*
X037740Y014228D02*
X039120Y014228D01*
X039235Y014387D02*
X037625Y014387D01*
X037466Y014545D02*
X039394Y014545D01*
X040466Y014545D02*
X043894Y014545D01*
X043735Y014387D02*
X040625Y014387D01*
X040740Y014228D02*
X043620Y014228D01*
X043554Y014070D02*
X040806Y014070D01*
X040850Y013911D02*
X043510Y013911D01*
X043510Y013753D02*
X040850Y013753D01*
X040849Y013594D02*
X043511Y013594D01*
X043577Y013436D02*
X040783Y013436D01*
X040717Y013277D02*
X043643Y013277D01*
X045217Y013277D02*
X047143Y013277D01*
X047077Y013436D02*
X045283Y013436D01*
X045349Y013594D02*
X047011Y013594D01*
X047010Y013753D02*
X045350Y013753D01*
X045350Y013911D02*
X047010Y013911D01*
X047054Y014070D02*
X045306Y014070D01*
X045240Y014228D02*
X047120Y014228D01*
X047235Y014387D02*
X045125Y014387D01*
X044966Y014545D02*
X047394Y014545D01*
X048466Y014545D02*
X051894Y014545D01*
X051735Y014387D02*
X048625Y014387D01*
X048740Y014228D02*
X051620Y014228D01*
X051554Y014070D02*
X048806Y014070D01*
X048850Y013911D02*
X051510Y013911D01*
X051510Y013753D02*
X048850Y013753D01*
X048849Y013594D02*
X051511Y013594D01*
X051577Y013436D02*
X048783Y013436D01*
X048717Y013277D02*
X051643Y013277D01*
X051790Y013119D02*
X050381Y013119D01*
X050589Y012960D02*
X052006Y012960D01*
X052854Y012960D02*
X054536Y012960D01*
X054377Y013119D02*
X053070Y013119D01*
X053217Y013277D02*
X054219Y013277D01*
X054060Y013436D02*
X053283Y013436D01*
X053349Y013594D02*
X053902Y013594D01*
X053743Y013753D02*
X053350Y013753D01*
X053350Y013911D02*
X053585Y013911D01*
X053426Y014070D02*
X053306Y014070D01*
X053268Y014228D02*
X053240Y014228D01*
X059199Y012643D02*
X060605Y012643D01*
X060605Y012485D02*
X059332Y012485D01*
X059380Y012326D02*
X060605Y012326D01*
X060605Y012168D02*
X059370Y012168D01*
X059291Y012009D02*
X060605Y012009D01*
X060605Y011851D02*
X059053Y011851D01*
X059095Y011692D02*
X060605Y011692D01*
X060605Y011534D02*
X059309Y011534D01*
X059377Y011375D02*
X060605Y011375D01*
X060605Y011217D02*
X059380Y011217D01*
X059324Y011058D02*
X060605Y011058D01*
X060605Y010900D02*
X059171Y010900D01*
X059028Y010720D02*
X058332Y010720D01*
X058171Y010653D01*
X058047Y010529D01*
X057980Y010368D01*
X057980Y010192D01*
X058047Y010031D01*
X058171Y009907D01*
X058332Y009840D01*
X059028Y009840D01*
X059189Y009907D01*
X059313Y010031D01*
X059380Y010192D01*
X059380Y010368D01*
X059313Y010529D01*
X059189Y010653D01*
X059028Y010720D01*
X059260Y010583D02*
X060605Y010583D01*
X060605Y010741D02*
X055420Y010741D01*
X055420Y010583D02*
X058100Y010583D01*
X058003Y010424D02*
X055420Y010424D01*
X055420Y010266D02*
X057980Y010266D01*
X058015Y010107D02*
X055420Y010107D01*
X055420Y009949D02*
X058129Y009949D01*
X058171Y009653D02*
X058332Y009720D01*
X059028Y009720D01*
X059189Y009653D01*
X059313Y009529D01*
X059380Y009368D01*
X059380Y009192D01*
X059313Y009031D01*
X059189Y008907D01*
X059028Y008840D01*
X058332Y008840D01*
X058171Y008907D01*
X058047Y009031D01*
X057980Y009192D01*
X057980Y009368D01*
X058047Y009529D01*
X058171Y009653D01*
X058149Y009632D02*
X055420Y009632D01*
X055420Y009790D02*
X060605Y009790D01*
X060605Y009632D02*
X059211Y009632D01*
X059336Y009473D02*
X060605Y009473D01*
X060605Y009315D02*
X059380Y009315D01*
X059365Y009156D02*
X060605Y009156D01*
X060605Y008998D02*
X059280Y008998D01*
X059123Y008681D02*
X060605Y008681D01*
X060605Y008839D02*
X055420Y008839D01*
X055420Y008681D02*
X058237Y008681D01*
X058044Y008522D02*
X055385Y008522D01*
X055228Y008364D02*
X056755Y008364D01*
X057105Y008364D02*
X057980Y008364D01*
X057980Y008205D02*
X057263Y008205D01*
X057305Y008047D02*
X058040Y008047D01*
X058217Y007888D02*
X057277Y007888D01*
X059320Y008047D02*
X060605Y008047D01*
X060605Y008205D02*
X059380Y008205D01*
X059380Y008364D02*
X060605Y008364D01*
X060605Y008522D02*
X059316Y008522D01*
X059411Y007888D02*
X060605Y007888D01*
X060605Y007730D02*
X059570Y007730D01*
X059620Y007571D02*
X060605Y007571D01*
X060605Y007413D02*
X059620Y007413D01*
X059620Y007254D02*
X060605Y007254D01*
X060605Y007096D02*
X059620Y007096D01*
X059620Y006937D02*
X060605Y006937D01*
X060605Y006779D02*
X059618Y006779D01*
X059500Y006620D02*
X060605Y006620D01*
X060605Y006462D02*
X059396Y006462D01*
X059430Y006303D02*
X060605Y006303D01*
X060605Y006145D02*
X059411Y006145D01*
X059418Y006165D02*
X059430Y006241D01*
X059430Y006280D01*
X058680Y006280D01*
X058680Y006280D01*
X058680Y005790D01*
X058979Y005790D01*
X059055Y005802D01*
X059128Y005826D01*
X059197Y005861D01*
X059259Y005906D01*
X059314Y005961D01*
X059359Y006023D01*
X059394Y006092D01*
X059418Y006165D01*
X059332Y005986D02*
X060605Y005986D01*
X060605Y005828D02*
X059131Y005828D01*
X059028Y005720D02*
X058332Y005720D01*
X058171Y005653D01*
X058047Y005529D01*
X057980Y005368D01*
X057980Y005192D01*
X058047Y005031D01*
X058171Y004907D01*
X058332Y004840D01*
X059028Y004840D01*
X059189Y004907D01*
X059313Y005031D01*
X059380Y005192D01*
X059380Y005368D01*
X059313Y005529D01*
X059189Y005653D01*
X059028Y005720D01*
X059151Y005669D02*
X060605Y005669D01*
X060605Y005511D02*
X059321Y005511D01*
X059380Y005352D02*
X060605Y005352D01*
X060605Y005194D02*
X059380Y005194D01*
X059315Y005035D02*
X060605Y005035D01*
X060605Y004877D02*
X059116Y004877D01*
X058244Y004877D02*
X056432Y004877D01*
X056387Y004954D02*
X056134Y005208D01*
X055823Y005387D01*
X055477Y005480D01*
X055119Y005480D01*
X054773Y005387D01*
X054462Y005208D01*
X054209Y004954D01*
X054030Y004644D01*
X053937Y004298D01*
X053937Y003939D01*
X054030Y003593D01*
X054209Y003283D01*
X054462Y003029D01*
X054773Y002850D01*
X055119Y002757D01*
X055477Y002757D01*
X055823Y002850D01*
X056134Y003029D01*
X056387Y003283D01*
X056566Y003593D01*
X056659Y003939D01*
X056659Y004298D01*
X056566Y004644D01*
X056387Y004954D01*
X056307Y005035D02*
X058045Y005035D01*
X057980Y005194D02*
X056148Y005194D01*
X055884Y005352D02*
X057980Y005352D01*
X058039Y005511D02*
X053563Y005511D01*
X053572Y005504D02*
X053498Y005558D01*
X053416Y005600D01*
X053329Y005628D01*
X053238Y005642D01*
X052878Y005642D01*
X052878Y005098D01*
X052802Y005098D01*
X052802Y005642D01*
X052442Y005642D01*
X052351Y005628D01*
X052264Y005600D01*
X052182Y005558D01*
X052108Y005504D01*
X052043Y005439D01*
X051989Y005365D01*
X051948Y005284D01*
X051919Y005196D01*
X051905Y005106D01*
X051905Y005098D01*
X052802Y005098D01*
X052802Y005022D01*
X052878Y005022D01*
X052878Y005098D01*
X053775Y005098D01*
X053775Y005106D01*
X053761Y005196D01*
X053732Y005284D01*
X053691Y005365D01*
X053637Y005439D01*
X053572Y005504D01*
X053697Y005352D02*
X054712Y005352D01*
X054448Y005194D02*
X053761Y005194D01*
X053775Y005022D02*
X052878Y005022D01*
X052878Y004478D01*
X053238Y004478D01*
X053329Y004492D01*
X053416Y004520D01*
X053498Y004562D01*
X053572Y004616D01*
X053637Y004681D01*
X053691Y004755D01*
X053732Y004836D01*
X053761Y004924D01*
X053775Y005014D01*
X053775Y005022D01*
X053745Y004877D02*
X054164Y004877D01*
X054073Y004718D02*
X053664Y004718D01*
X053493Y004560D02*
X054007Y004560D01*
X053965Y004401D02*
X038048Y004401D01*
X037890Y004560D02*
X040667Y004560D01*
X040662Y004562D02*
X040744Y004520D01*
X040831Y004492D01*
X040922Y004478D01*
X041282Y004478D01*
X041282Y005022D01*
X041358Y005022D01*
X041358Y005098D01*
X041282Y005098D01*
X041282Y005642D01*
X040922Y005642D01*
X040831Y005628D01*
X040744Y005600D01*
X040662Y005558D01*
X040588Y005504D01*
X040523Y005439D01*
X040469Y005365D01*
X040428Y005284D01*
X040399Y005196D01*
X040385Y005106D01*
X040385Y005098D01*
X041282Y005098D01*
X041282Y005022D01*
X040385Y005022D01*
X040385Y005014D01*
X040399Y004924D01*
X040428Y004836D01*
X040469Y004755D01*
X040523Y004681D01*
X040588Y004616D01*
X040662Y004562D01*
X040496Y004718D02*
X037731Y004718D01*
X037573Y004877D02*
X040415Y004877D01*
X040399Y005194D02*
X029606Y005194D01*
X029447Y005352D02*
X040463Y005352D01*
X040597Y005511D02*
X029289Y005511D01*
X029130Y005669D02*
X031941Y005669D01*
X031959Y005656D02*
X032045Y005612D01*
X032137Y005583D01*
X032232Y005568D01*
X032232Y005567D01*
X032232Y006132D01*
X031668Y006132D01*
X031683Y006037D01*
X031712Y005945D01*
X031756Y005859D01*
X031813Y005781D01*
X031881Y005713D01*
X031959Y005656D01*
X031779Y005828D02*
X028781Y005828D01*
X028861Y005986D02*
X031699Y005986D01*
X031668Y006132D02*
X031668Y006132D01*
X031679Y006303D02*
X028881Y006303D01*
X028892Y006228D02*
X028892Y006228D01*
X028824Y006462D02*
X031736Y006462D01*
X032232Y006145D02*
X028328Y006145D01*
X029764Y005035D02*
X036648Y005035D01*
X036487Y004877D02*
X029923Y004877D01*
X030081Y004718D02*
X030109Y004718D01*
X030451Y004718D02*
X036329Y004718D01*
X036170Y004560D02*
X030696Y004560D01*
X030797Y004401D02*
X036012Y004401D01*
X035853Y004243D02*
X030842Y004243D01*
X030842Y004084D02*
X035695Y004084D01*
X035536Y003926D02*
X030783Y003926D01*
X032328Y005568D02*
X032328Y005568D01*
X032423Y005583D01*
X032515Y005612D01*
X032601Y005656D01*
X032679Y005713D01*
X032747Y005781D01*
X032804Y005859D01*
X032848Y005945D01*
X032877Y006037D01*
X032892Y006132D01*
X032892Y006132D01*
X032328Y006132D01*
X032328Y005568D01*
X032328Y005669D02*
X032232Y005669D01*
X032232Y005828D02*
X032328Y005828D01*
X032328Y005986D02*
X032232Y005986D01*
X032328Y006145D02*
X034431Y006145D01*
X034433Y006137D02*
X034462Y006045D01*
X034506Y005959D01*
X034563Y005881D01*
X034631Y005813D01*
X034709Y005756D01*
X034795Y005712D01*
X034887Y005683D01*
X034982Y005668D01*
X034982Y005667D01*
X034982Y006232D01*
X034418Y006232D01*
X034433Y006137D01*
X034418Y006232D02*
X034418Y006232D01*
X034445Y006462D02*
X032824Y006462D01*
X032881Y006303D02*
X034982Y006303D01*
X035078Y006303D02*
X038982Y006303D01*
X038982Y006232D02*
X038418Y006232D01*
X038433Y006137D01*
X038462Y006045D01*
X038506Y005959D01*
X038563Y005881D01*
X038631Y005813D01*
X038709Y005756D01*
X038795Y005712D01*
X038887Y005683D01*
X038982Y005668D01*
X038982Y005667D01*
X038982Y006232D01*
X038982Y006145D02*
X039078Y006145D01*
X039078Y006232D02*
X039078Y005668D01*
X039173Y005683D01*
X039265Y005712D01*
X039351Y005756D01*
X039429Y005813D01*
X039497Y005881D01*
X039554Y005959D01*
X039598Y006045D01*
X039627Y006137D01*
X039642Y006232D01*
X039642Y006232D01*
X039078Y006232D01*
X039078Y006303D02*
X043335Y006303D01*
X043420Y006388D02*
X043242Y006210D01*
X043145Y005976D01*
X043145Y005724D01*
X043242Y005490D01*
X043420Y005312D01*
X043654Y005215D01*
X043906Y005215D01*
X044140Y005312D01*
X044318Y005490D01*
X044415Y005724D01*
X044415Y005976D01*
X044318Y006210D01*
X044140Y006388D01*
X043906Y006485D01*
X043654Y006485D01*
X043420Y006388D01*
X043597Y006462D02*
X039615Y006462D01*
X039642Y006328D02*
X039642Y006328D01*
X039629Y006145D02*
X043215Y006145D01*
X043149Y005986D02*
X039568Y005986D01*
X039444Y005828D02*
X043145Y005828D01*
X043168Y005669D02*
X039088Y005669D01*
X039078Y005668D02*
X039078Y005668D01*
X039078Y005669D02*
X038982Y005669D01*
X038972Y005669D02*
X035088Y005669D01*
X035078Y005668D02*
X035173Y005683D01*
X035265Y005712D01*
X035351Y005756D01*
X035429Y005813D01*
X035497Y005881D01*
X035554Y005959D01*
X035598Y006045D01*
X035627Y006137D01*
X035642Y006232D01*
X035642Y006232D01*
X035078Y006232D01*
X035078Y005668D01*
X035078Y005668D01*
X035078Y005669D02*
X034982Y005669D01*
X034972Y005669D02*
X032619Y005669D01*
X032781Y005828D02*
X034616Y005828D01*
X034492Y005986D02*
X032861Y005986D01*
X032892Y006228D02*
X032892Y006228D01*
X034982Y006145D02*
X035078Y006145D01*
X035078Y005986D02*
X034982Y005986D01*
X034982Y005828D02*
X035078Y005828D01*
X035444Y005828D02*
X038616Y005828D01*
X038492Y005986D02*
X035568Y005986D01*
X035629Y006145D02*
X038431Y006145D01*
X038418Y006232D02*
X038418Y006232D01*
X038445Y006462D02*
X035615Y006462D01*
X035642Y006328D02*
X035642Y006328D01*
X038982Y005986D02*
X039078Y005986D01*
X039078Y005828D02*
X038982Y005828D01*
X041282Y005511D02*
X041358Y005511D01*
X041358Y005642D02*
X041358Y005098D01*
X042255Y005098D01*
X042255Y005106D01*
X042241Y005196D01*
X042212Y005284D01*
X042171Y005365D01*
X042117Y005439D01*
X042052Y005504D01*
X041978Y005558D01*
X041896Y005600D01*
X041809Y005628D01*
X041718Y005642D01*
X041358Y005642D01*
X042043Y005511D02*
X043233Y005511D01*
X043380Y005352D02*
X042177Y005352D01*
X042241Y005194D02*
X045319Y005194D01*
X045319Y005196D02*
X045305Y005106D01*
X045305Y005098D01*
X046202Y005098D01*
X046202Y005642D01*
X045842Y005642D01*
X045751Y005628D01*
X045664Y005600D01*
X045582Y005558D01*
X045508Y005504D01*
X045443Y005439D01*
X045389Y005365D01*
X045348Y005284D01*
X045319Y005196D01*
X045383Y005352D02*
X044180Y005352D01*
X044327Y005511D02*
X045517Y005511D01*
X046202Y005511D02*
X046278Y005511D01*
X046278Y005642D02*
X046278Y005098D01*
X046202Y005098D01*
X046202Y005022D01*
X046278Y005022D01*
X046278Y005098D01*
X047175Y005098D01*
X047882Y005098D01*
X047882Y005642D01*
X047522Y005642D01*
X047431Y005628D01*
X047344Y005600D01*
X047262Y005558D01*
X047188Y005504D01*
X047123Y005439D01*
X047080Y005380D01*
X047037Y005439D01*
X046972Y005504D01*
X046898Y005558D01*
X046816Y005600D01*
X046729Y005628D01*
X046638Y005642D01*
X046278Y005642D01*
X046963Y005511D02*
X047197Y005511D01*
X047882Y005511D02*
X047958Y005511D01*
X047958Y005642D02*
X047958Y005098D01*
X047882Y005098D01*
X047882Y005022D01*
X047958Y005022D01*
X047958Y005098D01*
X048855Y005098D01*
X048855Y005106D01*
X048841Y005196D01*
X048812Y005284D01*
X048771Y005365D01*
X048717Y005439D01*
X048652Y005504D01*
X048578Y005558D01*
X048496Y005600D01*
X048409Y005628D01*
X048318Y005642D01*
X047958Y005642D01*
X047958Y005352D02*
X047882Y005352D01*
X047882Y005194D02*
X047958Y005194D01*
X047958Y005035D02*
X052802Y005035D01*
X052802Y005022D02*
X051905Y005022D01*
X051905Y005014D01*
X051919Y004924D01*
X051948Y004836D01*
X051989Y004755D01*
X052043Y004681D01*
X052108Y004616D01*
X052182Y004562D01*
X052264Y004520D01*
X052351Y004492D01*
X052442Y004478D01*
X052802Y004478D01*
X052802Y005022D01*
X052878Y005035D02*
X054290Y005035D01*
X052878Y004877D02*
X052802Y004877D01*
X052802Y004718D02*
X052878Y004718D01*
X052878Y004560D02*
X052802Y004560D01*
X052187Y004560D02*
X048573Y004560D01*
X048578Y004562D02*
X048652Y004616D01*
X048717Y004681D01*
X048771Y004755D01*
X048812Y004836D01*
X048841Y004924D01*
X048855Y005014D01*
X048855Y005022D01*
X047958Y005022D01*
X047958Y004478D01*
X048318Y004478D01*
X048409Y004492D01*
X048496Y004520D01*
X048578Y004562D01*
X048744Y004718D02*
X052016Y004718D01*
X051935Y004877D02*
X048825Y004877D01*
X048841Y005194D02*
X051919Y005194D01*
X051983Y005352D02*
X050780Y005352D01*
X050740Y005312D02*
X050918Y005490D01*
X051015Y005724D01*
X051015Y005976D01*
X050918Y006210D01*
X050740Y006388D01*
X050506Y006485D01*
X050254Y006485D01*
X050020Y006388D01*
X049842Y006210D01*
X049745Y005976D01*
X049745Y005724D01*
X049842Y005490D01*
X050020Y005312D01*
X050254Y005215D01*
X050506Y005215D01*
X050740Y005312D01*
X050927Y005511D02*
X052117Y005511D01*
X052802Y005511D02*
X052878Y005511D01*
X052878Y005352D02*
X052802Y005352D01*
X052802Y005194D02*
X052878Y005194D01*
X050992Y005669D02*
X058209Y005669D01*
X058232Y005826D02*
X058305Y005802D01*
X058381Y005790D01*
X058680Y005790D01*
X058680Y006280D01*
X058680Y006280D01*
X058680Y006280D01*
X057930Y006280D01*
X057930Y006241D01*
X057942Y006165D01*
X057966Y006092D01*
X058001Y006023D01*
X058046Y005961D01*
X058101Y005906D01*
X058163Y005861D01*
X058232Y005826D01*
X058229Y005828D02*
X051015Y005828D01*
X051011Y005986D02*
X058028Y005986D01*
X057949Y006145D02*
X050945Y006145D01*
X050825Y006303D02*
X057930Y006303D01*
X057964Y006462D02*
X050563Y006462D01*
X050197Y006462D02*
X049705Y006462D01*
X049683Y006303D02*
X049935Y006303D01*
X049815Y006145D02*
X049575Y006145D01*
X049749Y005986D02*
X044411Y005986D01*
X044415Y005828D02*
X049745Y005828D01*
X049768Y005669D02*
X044392Y005669D01*
X044345Y006145D02*
X049085Y006145D01*
X048518Y006303D02*
X044225Y006303D01*
X043963Y006462D02*
X048359Y006462D01*
X048643Y005511D02*
X049833Y005511D01*
X049980Y005352D02*
X048777Y005352D01*
X047958Y004877D02*
X047882Y004877D01*
X047882Y005022D02*
X047882Y004478D01*
X047522Y004478D01*
X047431Y004492D01*
X047344Y004520D01*
X047262Y004562D01*
X047188Y004616D01*
X047123Y004681D01*
X047080Y004740D01*
X047037Y004681D01*
X046972Y004616D01*
X046898Y004562D01*
X046816Y004520D01*
X046729Y004492D01*
X046638Y004478D01*
X046278Y004478D01*
X046278Y005022D01*
X047882Y005022D01*
X047882Y005035D02*
X046278Y005035D01*
X046202Y005035D02*
X041358Y005035D01*
X041358Y005022D02*
X042255Y005022D01*
X042255Y005014D01*
X042241Y004924D01*
X042212Y004836D01*
X042171Y004755D01*
X042117Y004681D01*
X042052Y004616D01*
X041978Y004562D01*
X041896Y004520D01*
X041809Y004492D01*
X041718Y004478D01*
X041358Y004478D01*
X041358Y005022D01*
X041282Y005035D02*
X037412Y005035D01*
X038207Y004243D02*
X053937Y004243D01*
X053937Y004084D02*
X038365Y004084D01*
X038524Y003926D02*
X053941Y003926D01*
X053983Y003767D02*
X052532Y003767D01*
X053356Y003609D02*
X054026Y003609D01*
X054112Y003450D02*
X053596Y003450D01*
X053690Y003292D02*
X054204Y003292D01*
X054359Y003133D02*
X053725Y003133D01*
X053717Y002975D02*
X054558Y002975D01*
X054901Y002816D02*
X053651Y002816D01*
X053503Y002658D02*
X060605Y002658D01*
X060605Y002816D02*
X055696Y002816D01*
X056039Y002975D02*
X060605Y002975D01*
X060605Y003133D02*
X056237Y003133D01*
X056392Y003292D02*
X060605Y003292D01*
X060605Y003450D02*
X056484Y003450D01*
X056571Y003609D02*
X060605Y003609D01*
X060605Y003767D02*
X056613Y003767D01*
X056655Y003926D02*
X060605Y003926D01*
X060605Y004084D02*
X056659Y004084D01*
X056659Y004243D02*
X060605Y004243D01*
X060605Y004401D02*
X056632Y004401D01*
X056589Y004560D02*
X060605Y004560D01*
X060605Y004718D02*
X056524Y004718D01*
X058680Y005828D02*
X058680Y005828D01*
X058680Y005986D02*
X058680Y005986D01*
X058680Y006145D02*
X058680Y006145D01*
X052927Y008364D02*
X051736Y008364D01*
X051577Y008522D02*
X052944Y008522D01*
X053046Y008681D02*
X051419Y008681D01*
X051260Y008839D02*
X052975Y008839D01*
X052927Y008998D02*
X051102Y008998D01*
X050943Y009156D02*
X052948Y009156D01*
X053055Y009315D02*
X050785Y009315D01*
X050626Y009473D02*
X054690Y009473D01*
X054690Y009315D02*
X053555Y009315D01*
X055420Y009315D02*
X057980Y009315D01*
X057995Y009156D02*
X055420Y009156D01*
X055420Y008998D02*
X058080Y008998D01*
X058024Y009473D02*
X055420Y009473D01*
X059231Y009949D02*
X060605Y009949D01*
X060605Y010107D02*
X059345Y010107D01*
X059380Y010266D02*
X060605Y010266D01*
X060605Y010424D02*
X059357Y010424D01*
X051044Y009949D02*
X050745Y009949D01*
X050853Y010107D02*
X050953Y010107D01*
X050923Y010266D02*
X050887Y010266D01*
X050865Y010424D02*
X050944Y010424D01*
X051023Y010583D02*
X050774Y010583D01*
X050086Y010583D02*
X049774Y010583D01*
X049865Y010424D02*
X049995Y010424D01*
X049973Y010266D02*
X049887Y010266D01*
X049992Y010107D02*
X050007Y010107D01*
X049086Y010583D02*
X048774Y010583D01*
X048865Y010424D02*
X048995Y010424D01*
X048973Y010266D02*
X048887Y010266D01*
X048918Y010107D02*
X048853Y010107D01*
X048759Y009949D02*
X048745Y009949D01*
X046278Y005352D02*
X046202Y005352D01*
X046202Y005194D02*
X046278Y005194D01*
X046202Y005022D02*
X045305Y005022D01*
X045305Y005014D01*
X045319Y004924D01*
X045348Y004836D01*
X045389Y004755D01*
X045443Y004681D01*
X045508Y004616D01*
X045582Y004562D01*
X045664Y004520D01*
X045751Y004492D01*
X045842Y004478D01*
X046202Y004478D01*
X046202Y005022D01*
X046202Y004877D02*
X046278Y004877D01*
X046278Y004718D02*
X046202Y004718D01*
X046202Y004560D02*
X046278Y004560D01*
X046893Y004560D02*
X047267Y004560D01*
X047096Y004718D02*
X047064Y004718D01*
X047882Y004718D02*
X047958Y004718D01*
X047958Y004560D02*
X047882Y004560D01*
X045587Y004560D02*
X041973Y004560D01*
X042144Y004718D02*
X045416Y004718D01*
X045335Y004877D02*
X042225Y004877D01*
X041358Y004877D02*
X041282Y004877D01*
X041282Y004718D02*
X041358Y004718D01*
X041358Y004560D02*
X041282Y004560D01*
X041282Y005194D02*
X041358Y005194D01*
X041358Y005352D02*
X041282Y005352D01*
X050923Y002658D02*
X052177Y002658D01*
X050989Y002499D02*
X060605Y002499D01*
X060605Y002341D02*
X051015Y002341D01*
X051014Y002182D02*
X060605Y002182D01*
X060605Y002024D02*
X050949Y002024D01*
X050833Y001865D02*
X060605Y001865D01*
X031890Y001707D02*
X028670Y001707D01*
D18*
X005805Y008655D03*
X005305Y008655D03*
X004805Y008655D03*
X004305Y008655D03*
X003805Y008655D03*
X003305Y008655D03*
X002805Y008655D03*
X002305Y008655D03*
X002305Y009155D03*
X002305Y009655D03*
X002305Y010155D03*
X002305Y010655D03*
X002305Y011155D03*
X002305Y011655D03*
X002805Y011655D03*
X003305Y011655D03*
X003805Y011655D03*
X004305Y011655D03*
X004805Y011655D03*
X005305Y011655D03*
X005805Y011655D03*
X005805Y011155D03*
X005805Y010655D03*
X005805Y010155D03*
X005805Y009655D03*
X005805Y009155D03*
D19*
X004381Y003226D02*
X004381Y002954D01*
X006555Y000780D01*
X032280Y000780D01*
X035030Y000780D01*
X039030Y000780D01*
X055805Y000780D01*
X059880Y004855D01*
X059880Y005980D01*
X059680Y006280D01*
X058680Y006280D01*
D20*
X059380Y006830D02*
X048680Y006830D01*
X048280Y007230D01*
X047330Y007230D01*
X046780Y007230D02*
X028180Y007230D01*
X027830Y006880D01*
X014530Y006880D01*
X014180Y007230D01*
X014030Y006280D02*
X014080Y006230D01*
X021980Y006230D01*
X021780Y005880D02*
X021830Y005830D01*
X027130Y005830D01*
X028130Y006830D01*
X048330Y006830D01*
X048730Y006430D01*
X049330Y006430D01*
X049680Y007630D02*
X049680Y009480D01*
X049430Y010280D02*
X048830Y009680D01*
X042030Y009680D01*
X041880Y010080D02*
X041080Y009280D01*
X041030Y009280D01*
X040580Y008830D01*
X031730Y008830D01*
X031580Y008680D01*
X023830Y008680D01*
X023680Y008830D01*
X021330Y008830D01*
X021130Y008630D01*
X020730Y008630D01*
X021180Y009030D02*
X019580Y009030D01*
X019980Y009330D02*
X019880Y009430D01*
X019980Y009330D02*
X031330Y009330D01*
X031030Y009080D02*
X031180Y008930D01*
X031480Y008930D01*
X031630Y009080D01*
X034980Y009080D01*
X035380Y009480D01*
X035180Y009830D02*
X034430Y009830D01*
X033980Y010280D01*
X033930Y010280D01*
X033480Y009830D01*
X025980Y009830D01*
X026430Y010280D01*
X025980Y009830D02*
X022530Y009830D01*
X022430Y009730D01*
X023230Y010280D02*
X020980Y010280D01*
X020430Y010680D02*
X019580Y009830D01*
X019530Y010330D02*
X020480Y011280D01*
X025930Y011280D01*
X025380Y011730D02*
X027130Y011730D01*
X027580Y011280D01*
X027930Y011280D01*
X027280Y011930D02*
X027130Y012080D01*
X022680Y012080D01*
X022230Y011630D01*
X018580Y011630D01*
X017780Y011230D02*
X017780Y013430D01*
X017530Y013430D01*
X017180Y013780D01*
X018180Y013780D02*
X018180Y008280D01*
X017180Y007280D01*
X018430Y007930D02*
X018680Y007680D01*
X021680Y007680D01*
X022430Y008430D01*
X023530Y008430D01*
X023230Y008030D02*
X023080Y007880D01*
X022430Y007880D01*
X022780Y007630D02*
X023830Y007630D01*
X024630Y008430D01*
X039280Y008430D01*
X040680Y008030D02*
X024780Y008030D01*
X022780Y007630D02*
X022430Y007280D01*
X021530Y008080D02*
X018980Y008080D01*
X018430Y007930D02*
X018430Y010980D01*
X018580Y010980D01*
X017780Y010330D02*
X010880Y010330D01*
X010780Y010230D01*
X010180Y009830D02*
X017780Y009830D01*
X017480Y009430D02*
X010880Y009430D01*
X010380Y009030D02*
X017780Y009030D01*
X017780Y008430D02*
X017630Y008280D01*
X001980Y008280D01*
X001830Y008430D01*
X008280Y008680D02*
X012180Y012580D01*
X013180Y013780D02*
X015605Y015405D01*
X052930Y015405D01*
X055180Y013155D01*
X055180Y008655D01*
X055055Y008530D01*
X053430Y008530D01*
X053305Y008405D01*
X051730Y008030D02*
X049480Y010280D01*
X049430Y010280D01*
X048430Y010280D02*
X047980Y010730D01*
X040430Y010730D01*
X040430Y010280D01*
X040980Y009830D02*
X035730Y009830D01*
X035680Y009880D01*
X035230Y009880D01*
X035180Y009830D01*
X033430Y010730D02*
X032980Y010280D01*
X032930Y010280D01*
X032530Y010680D01*
X032480Y010680D01*
X032480Y010730D01*
X025880Y010730D01*
X025430Y010280D01*
X024330Y010680D02*
X020430Y010680D01*
X021930Y012030D02*
X022280Y012030D01*
X022580Y012330D01*
X029380Y012330D01*
X029680Y012030D01*
X035680Y012030D01*
X036430Y011280D01*
X033430Y010730D02*
X040430Y010730D01*
X040980Y009830D02*
X041430Y010280D01*
X041880Y010080D02*
X042230Y010080D01*
X042430Y010280D01*
X041930Y011280D02*
X042380Y011730D01*
X049480Y011730D01*
X049930Y011280D01*
X050330Y012880D02*
X051930Y011280D01*
X052680Y010280D02*
X053430Y011030D01*
X052680Y010280D02*
X051430Y010280D01*
X053305Y009030D02*
X054930Y009030D01*
X054930Y012905D01*
X052805Y015030D01*
X015930Y015030D01*
X014180Y013780D01*
X015180Y013780D02*
X016730Y012230D01*
X018580Y012980D02*
X023230Y012980D01*
X023880Y012880D02*
X022980Y013780D01*
X022180Y013780D01*
X021180Y013780D02*
X021180Y014430D01*
X021530Y014780D01*
X025230Y014780D01*
X025930Y014080D01*
X025930Y013380D02*
X027680Y013380D01*
X028180Y012880D01*
X050330Y012880D01*
X058680Y008280D02*
X059380Y007580D01*
X059380Y006830D01*
X058680Y007280D02*
X058330Y007630D01*
X049680Y007630D01*
X041080Y007630D01*
X040680Y008030D01*
X040530Y007630D02*
X027180Y007630D01*
X031030Y009080D02*
X021230Y009080D01*
X021180Y009030D01*
X025330Y011680D02*
X025380Y011730D01*
X027280Y011930D02*
X029230Y011930D01*
X029380Y011780D01*
X027530Y012980D02*
X027430Y012880D01*
X023880Y012880D01*
X020380Y012580D02*
X034730Y012580D01*
X034880Y012430D01*
X023230Y014380D02*
X021680Y014380D01*
X009180Y013780D02*
X007430Y012030D01*
X005630Y012030D01*
X005280Y011680D01*
X005305Y011655D01*
X009380Y009030D02*
X010180Y009830D01*
X008680Y007630D02*
X010430Y005880D01*
X021780Y005880D01*
X024630Y005080D02*
X014030Y005080D01*
X013680Y005430D01*
X018280Y005480D02*
X028980Y005480D01*
X030280Y004180D01*
X027480Y003630D02*
X035580Y003630D01*
X036780Y004830D01*
X037280Y004830D01*
X038430Y003680D01*
X038430Y003630D01*
X052330Y003630D01*
X052830Y003130D01*
X052840Y003100D01*
X046240Y003100D02*
X046230Y003080D01*
X046080Y002930D01*
X042230Y002930D01*
X041880Y002580D01*
X039530Y002580D01*
X039280Y002830D01*
X026380Y002830D01*
X026280Y002730D01*
X023230Y002730D01*
X022180Y003780D01*
X023230Y004680D02*
X005980Y004680D01*
X005580Y005080D01*
X005542Y005155D01*
X008130Y004280D02*
X009080Y003330D01*
X017630Y003330D01*
X018180Y002780D01*
X017780Y002180D02*
X017180Y002780D01*
X017780Y002180D02*
X019680Y002180D01*
X020180Y002780D02*
X020780Y002180D01*
X028280Y002180D01*
X027080Y003130D02*
X035880Y003130D01*
X037030Y004280D01*
X036780Y003630D02*
X038430Y003630D01*
X039030Y002280D02*
X039030Y000780D01*
X035030Y000780D02*
X035030Y002280D01*
X032280Y002180D02*
X032280Y000780D01*
X027080Y003130D02*
X026980Y003230D01*
X027380Y003530D02*
X027480Y003630D01*
X028280Y006180D02*
X032280Y006180D01*
X032380Y006280D01*
X041280Y005080D02*
X041320Y005060D01*
X041330Y005080D01*
X046230Y005080D01*
X046240Y005060D01*
X051730Y008030D02*
X056930Y008030D01*
D21*
X056930Y008030D03*
X049680Y009480D03*
X053430Y011030D03*
X042030Y009680D03*
X039280Y008430D03*
X040530Y007630D03*
X035380Y009480D03*
X031330Y009330D03*
X027180Y007630D03*
X024780Y008030D03*
X023530Y008430D03*
X023230Y008030D03*
X022430Y007880D03*
X021530Y008080D03*
X020730Y008630D03*
X019580Y009030D03*
X019880Y009430D03*
X019580Y009830D03*
X020980Y010280D03*
X019530Y010330D03*
X018580Y010980D03*
X017780Y011230D03*
X018580Y011630D03*
X016730Y012230D03*
X018580Y012980D03*
X020380Y012580D03*
X021930Y012030D03*
X023230Y012980D03*
X025930Y013380D03*
X027530Y012980D03*
X025930Y014080D03*
X023230Y014380D03*
X021680Y014380D03*
X025330Y011680D03*
X024330Y010680D03*
X023230Y010280D03*
X022430Y009730D03*
X017780Y009830D03*
X017480Y009430D03*
X017780Y009030D03*
X017780Y008430D03*
X018980Y008080D03*
X022430Y007280D03*
X021980Y006230D03*
X024630Y005080D03*
X023230Y004680D03*
X027380Y003530D03*
X026980Y003230D03*
X019680Y002180D03*
X013680Y005430D03*
X014030Y006280D03*
X014180Y007230D03*
X010380Y009030D03*
X009380Y009030D03*
X008280Y008680D03*
X010880Y009430D03*
X010780Y010230D03*
X017780Y010330D03*
X012180Y012580D03*
X001830Y008430D03*
X008680Y007630D03*
X018280Y005480D03*
X008130Y004280D03*
X029380Y011780D03*
X034880Y012430D03*
X046780Y007230D03*
X047330Y007230D03*
X049330Y006430D03*
D22*
X053305Y008405D03*
X053305Y009030D03*
X017180Y007280D03*
X000880Y013680D03*
D23*
X025771Y004119D03*
X055298Y004119D03*
M02*
