%
M48
M72
T01C0.0230
T02C0.0236
T03C0.0240
T04C0.0320
T05C0.0354
T06C0.0400
T07C0.0470
T08C0.0510
T09C0.0710
T10C0.1260
T11C0.1280
%
T01
X10470Y4280
X16020Y5430
X16370Y6280
X16520Y7230
X21320Y8080
X23070Y8630
X21920Y9030
X22220Y9430
X21920Y9830
X20120Y9830
X19820Y9430
X20120Y9030
X23870Y8080
X24770Y7880
X25570Y8030
X25870Y8430
X27120Y8030
X29020Y7630
X24770Y7280
X24320Y6230
X26470Y5080
X20620Y5480
X11020Y6630
X10620Y8680
X11720Y9030
X12720Y9030
X13220Y9430
X13120Y10230
X19070Y12230
X20920Y11630
X20120Y11230
X20920Y10980
X20120Y10330
X21870Y10330
X23320Y10280
X24770Y9730
X25570Y10280
X26670Y10680
X27670Y11680
X24270Y12030
X22720Y12580
X20920Y12980
X25570Y12980
X28270Y13380
X29870Y12980
X28270Y14080
X25570Y14380
X24020Y14380
X31720Y11780
X37220Y12430
X44370Y9680
X41620Y8430
X42870Y7630
X37720Y9480
X33670Y9330
X49120Y7230
X49670Y7230
X51670Y6430
X59270Y8030
X52020Y9480
X55770Y11030
X22020Y2180
X14520Y12580
T02
X8770Y10530
X19520Y7280
X19895Y8530
X26020Y4530
X29270Y3530
X28895Y3155
X55645Y8405
X55645Y9030
X8270Y14030
T03
X7095Y14005
X6595Y14005
X6095Y14005
X5595Y14005
X5095Y14005
X4595Y14005
X4095Y14005
X3595Y14005
X3595Y13505
X3595Y13005
X3595Y12505
X3595Y12005
X3595Y11505
X3595Y11005
X4095Y11005
X4595Y11005
X5095Y11005
X5595Y11005
X6095Y11005
X6595Y11005
X7095Y11005
X7095Y11505
X7095Y12005
X7095Y12505
X7095Y13005
X7095Y13505
T04
X6721Y976
X7883Y2905
X5520Y2905
X61020Y5280
X61020Y6280
X61020Y7280
X61020Y8280
X61020Y9280
X61020Y10280
X61020Y11280
X61020Y12280
T05
X54270Y11280
X53270Y11280
X52270Y11280
X51270Y11280
X50770Y10280
X51770Y10280
X52770Y10280
X53770Y10280
X46270Y11280
X45270Y11280
X44270Y11280
X43270Y11280
X42770Y10280
X43770Y10280
X44770Y10280
X45770Y10280
X38770Y11280
X37770Y11280
X36770Y11280
X35770Y11280
X35270Y10280
X36270Y10280
X37270Y10280
X38270Y10280
X31270Y11280
X30270Y11280
X29270Y11280
X28270Y11280
X27770Y10280
X28770Y10280
X29770Y10280
X30770Y10280
T06
X24520Y13780
X23520Y13780
X22520Y13780
X21520Y13780
X20520Y13780
X19520Y13780
X18520Y13780
X17520Y13780
X16520Y13780
X15520Y13780
X14520Y13780
X13520Y13780
X12520Y13780
X11520Y13780
X10520Y13780
X9520Y13780
X23520Y3780
X24520Y3780
X24520Y2780
X23520Y2780
X22520Y2780
X21520Y2780
X20520Y2780
X19520Y2780
X18520Y2780
X17520Y2780
X16520Y2780
X15520Y2780
X14520Y2780
X13520Y2780
X12520Y2780
X11520Y2780
X10520Y2780
X9520Y2780
T07
X43660Y3100
X48580Y3100
X50260Y3100
X55180Y3100
X55180Y5060
X50260Y5060
X48580Y5060
X43660Y5060
T08
X41370Y6280
X37370Y6280
X34620Y6180
X30620Y6180
X32620Y4180
X30620Y2180
X34620Y2180
X37370Y2280
X41370Y2280
X39370Y4280
T09
X46120Y5850
X52720Y5850
X52720Y2310
X46120Y2310
T10
X57639Y4119
X27611Y4119
T11
X27270Y13780
X31770Y13780
X34770Y13780
X39270Y13780
X42270Y13780
X46770Y13780
X50270Y13780
X54770Y13780
M30
