G75*
%MOIN*%
%OFA0B0*%
%FSLAX24Y24*%
%IPPOS*%
%LPD*%
%AMOC8*
5,1,8,0,0,1.08239X$1,22.5*
%
%ADD10C,0.0845*%
%ADD11C,0.0785*%
%ADD12C,0.0790*%
%ADD13R,0.0710X0.0789*%
%ADD14C,0.0634*%
%ADD15C,0.1360*%
%ADD16C,0.0780*%
%ADD17C,0.0880*%
%ADD18R,0.2521X0.2206*%
%ADD19R,0.0710X0.0474*%
%ADD20C,0.0600*%
%ADD21C,0.0820*%
%ADD22R,0.0552X0.0316*%
%ADD23R,0.0395X0.0552*%
%ADD24R,0.0592X0.0671*%
%ADD25R,0.0552X0.0395*%
%ADD26R,0.0940X0.0300*%
%ADD27R,0.0340X0.0880*%
%ADD28R,0.0200X0.0670*%
%ADD29R,0.0240X0.0670*%
%ADD30R,0.0220X0.0670*%
%ADD31C,0.0480*%
%ADD32C,0.0470*%
%ADD33C,0.0476*%
%ADD34C,0.2442*%
D10*
X028280Y002180D03*
X032280Y002180D03*
X035030Y002280D03*
X039030Y002280D03*
X037030Y004280D03*
X032280Y006180D03*
X035030Y006280D03*
X039030Y006280D03*
X030280Y004180D03*
X028280Y006180D03*
D11*
X040968Y005060D02*
X041673Y005060D01*
X045888Y005060D02*
X046593Y005060D01*
X047568Y005060D02*
X048273Y005060D01*
X052488Y005060D02*
X053193Y005060D01*
X053193Y003100D02*
X052488Y003100D01*
X048273Y003100D02*
X047568Y003100D01*
X046593Y003100D02*
X045888Y003100D01*
X041673Y003100D02*
X040968Y003100D01*
D12*
X043780Y002310D03*
X050380Y002310D03*
X050380Y005850D03*
X043780Y005850D03*
D13*
X002606Y007655D03*
X001504Y007655D03*
X001504Y012655D03*
X002606Y012655D03*
D14*
X025430Y010280D03*
X026430Y010280D03*
X027430Y010280D03*
X028430Y010280D03*
X027930Y011280D03*
X026930Y011280D03*
X025930Y011280D03*
X028930Y011280D03*
X032930Y010280D03*
X033930Y010280D03*
X034930Y010280D03*
X035930Y010280D03*
X035430Y011280D03*
X034430Y011280D03*
X033430Y011280D03*
X036430Y011280D03*
X040430Y010280D03*
X041430Y010280D03*
X042430Y010280D03*
X043430Y010280D03*
X042930Y011280D03*
X041930Y011280D03*
X040930Y011280D03*
X043930Y011280D03*
X048430Y010280D03*
X049430Y010280D03*
X050430Y010280D03*
X051430Y010280D03*
X050930Y011280D03*
X049930Y011280D03*
X048930Y011280D03*
X051930Y011280D03*
D15*
X052430Y013780D03*
X047930Y013780D03*
X044430Y013780D03*
X039930Y013780D03*
X036930Y013780D03*
X032430Y013780D03*
X029430Y013780D03*
X024930Y013780D03*
D16*
X003180Y005505D02*
X003180Y004805D01*
X004031Y003226D02*
X004731Y003226D01*
D17*
X005542Y004755D02*
X005542Y005555D01*
D18*
X004039Y010155D03*
D19*
X001165Y009257D03*
X001165Y011053D03*
D20*
X058420Y011280D02*
X058940Y011280D01*
X058940Y012280D02*
X058420Y012280D01*
X058420Y010280D02*
X058940Y010280D01*
X058940Y009280D02*
X058420Y009280D01*
X058420Y008280D02*
X058940Y008280D01*
X058940Y007280D02*
X058420Y007280D01*
X058420Y006280D02*
X058940Y006280D01*
X058940Y005280D02*
X058420Y005280D01*
D21*
X007180Y002780D03*
X008180Y002780D03*
X009180Y002780D03*
X010180Y002780D03*
X011180Y002780D03*
X012180Y002780D03*
X013180Y002780D03*
X014180Y002780D03*
X015180Y002780D03*
X016180Y002780D03*
X017180Y002780D03*
X018180Y002780D03*
X019180Y002780D03*
X020180Y002780D03*
X021180Y002780D03*
X022180Y002780D03*
X022180Y003780D03*
X021180Y003780D03*
X021180Y013780D03*
X020180Y013780D03*
X019180Y013780D03*
X018180Y013780D03*
X017180Y013780D03*
X016180Y013780D03*
X015180Y013780D03*
X014180Y013780D03*
X013180Y013780D03*
X012180Y013780D03*
X011180Y013780D03*
X010180Y013780D03*
X009180Y013780D03*
X008180Y013780D03*
X007180Y013780D03*
X022180Y013780D03*
D22*
X019694Y007154D03*
X018666Y007154D03*
X018666Y006780D03*
X018666Y006406D03*
X019694Y006406D03*
D23*
X019534Y004780D03*
X018826Y004780D03*
X020326Y004780D03*
X021034Y004780D03*
X017034Y008030D03*
X016326Y008030D03*
D24*
X020806Y007280D03*
X021554Y007280D03*
X015429Y006530D03*
X014681Y006530D03*
D25*
X054680Y014426D03*
X055680Y014426D03*
X056680Y014426D03*
X057680Y014426D03*
X058680Y014426D03*
X058680Y015134D03*
X057680Y015134D03*
X056680Y015134D03*
X055680Y015134D03*
X054680Y015134D03*
D26*
X054250Y012530D03*
X054250Y012030D03*
X054250Y011530D03*
X054250Y011030D03*
X056110Y011030D03*
X056110Y011530D03*
X056110Y012030D03*
X056110Y012530D03*
X056110Y009530D03*
X056110Y009030D03*
X056110Y008530D03*
X056110Y008030D03*
X054250Y008030D03*
X054250Y008530D03*
X054250Y009030D03*
X054250Y009530D03*
D27*
X013180Y008210D03*
X012680Y008210D03*
X012180Y008210D03*
X011680Y008210D03*
X011180Y008210D03*
X010680Y008210D03*
X010180Y008210D03*
X009680Y008210D03*
X009180Y008210D03*
X009180Y004350D03*
X009680Y004350D03*
X010180Y004350D03*
X010680Y004350D03*
X011180Y004350D03*
X011680Y004350D03*
X012180Y004350D03*
X012680Y004350D03*
X013180Y004350D03*
D28*
X016300Y004970D03*
X017060Y004970D03*
X017060Y006590D03*
X016810Y006590D03*
X016550Y006590D03*
X016300Y006590D03*
D29*
X016560Y004970D03*
D30*
X016800Y004970D03*
D31*
X005805Y008655D03*
X005305Y008655D03*
X004805Y008655D03*
X004305Y008655D03*
X003805Y008655D03*
X003305Y008655D03*
X002805Y008655D03*
X002305Y008655D03*
X002305Y009155D03*
X002305Y009655D03*
X002305Y010155D03*
X002305Y010655D03*
X002305Y011155D03*
X002305Y011655D03*
X002805Y011655D03*
X003305Y011655D03*
X003805Y011655D03*
X004305Y011655D03*
X004805Y011655D03*
X005305Y011655D03*
X005805Y011655D03*
X005805Y011155D03*
X005805Y010655D03*
X005805Y010155D03*
X005805Y009655D03*
X005805Y009155D03*
D32*
X008280Y008680D03*
X009380Y009030D03*
X010380Y009030D03*
X010880Y009430D03*
X010780Y010230D03*
X016730Y012230D03*
X018580Y011630D03*
X017780Y011230D03*
X018580Y010980D03*
X017780Y010330D03*
X017780Y009830D03*
X017480Y009430D03*
X017780Y009030D03*
X017780Y008430D03*
X018980Y008080D03*
X020730Y008630D03*
X019580Y009030D03*
X019880Y009430D03*
X019580Y009830D03*
X020980Y010280D03*
X019530Y010330D03*
X022430Y009730D03*
X023230Y010280D03*
X024330Y010680D03*
X025330Y011680D03*
X021930Y012030D03*
X020380Y012580D03*
X018580Y012980D03*
X021680Y014380D03*
X023230Y014380D03*
X025930Y014080D03*
X025930Y013380D03*
X027530Y012980D03*
X029380Y011780D03*
X034880Y012430D03*
X042030Y009680D03*
X039280Y008430D03*
X040530Y007630D03*
X035380Y009480D03*
X031330Y009330D03*
X027180Y007630D03*
X024780Y008030D03*
X023530Y008430D03*
X023230Y008030D03*
X022430Y007880D03*
X021530Y008080D03*
X022430Y007280D03*
X021980Y006230D03*
X024630Y005080D03*
X023230Y004680D03*
X027380Y003530D03*
X026980Y003230D03*
X019680Y002180D03*
X013680Y005430D03*
X014030Y006280D03*
X014180Y007230D03*
X018280Y005480D03*
X008680Y007630D03*
X001830Y008430D03*
X008130Y004280D03*
X012180Y012580D03*
X023230Y012980D03*
X046780Y007230D03*
X047330Y007230D03*
X049330Y006430D03*
X056930Y008030D03*
X049680Y009480D03*
X053430Y011030D03*
D33*
X053305Y009030D03*
X053305Y008405D03*
X017180Y007280D03*
X000880Y013680D03*
D34*
X025771Y004119D03*
X055298Y004119D03*
M02*
