G75*
%MOIN*%
%OFA0B0*%
%FSLAX24Y24*%
%IPPOS*%
%LPD*%
%AMOC8*
5,1,8,0,0,1.08239X$1,22.5*
%
%ADD10C,0.0765*%
%ADD11C,0.0705*%
%ADD12R,0.0630X0.0709*%
%ADD13C,0.0554*%
%ADD14C,0.0700*%
%ADD15C,0.0800*%
%ADD16R,0.2441X0.2126*%
%ADD17R,0.0630X0.0394*%
%ADD18C,0.0520*%
%ADD19C,0.0740*%
%ADD20R,0.0472X0.0236*%
%ADD21R,0.0315X0.0472*%
%ADD22R,0.0512X0.0591*%
%ADD23R,0.0472X0.0315*%
%ADD24R,0.0860X0.0220*%
%ADD25R,0.0260X0.0800*%
%ADD26R,0.0120X0.0590*%
%ADD27R,0.0160X0.0590*%
%ADD28R,0.0140X0.0590*%
%ADD29R,0.0650X0.1350*%
%ADD30R,0.1150X0.0500*%
%ADD31C,0.0160*%
%ADD32C,0.0120*%
%ADD33C,0.0400*%
%ADD34C,0.0390*%
%ADD35C,0.0500*%
%ADD36C,0.0396*%
%ADD37C,0.2362*%
D10*
X030620Y002180D03*
X034620Y002180D03*
X037370Y002280D03*
X041370Y002280D03*
X039370Y004280D03*
X034620Y006180D03*
X037370Y006280D03*
X041370Y006280D03*
X032620Y004180D03*
X030620Y006180D03*
D11*
X043308Y005060D02*
X044013Y005060D01*
X048228Y005060D02*
X048933Y005060D01*
X049908Y005060D02*
X050613Y005060D01*
X054828Y005060D02*
X055533Y005060D01*
X055533Y003100D02*
X054828Y003100D01*
X050613Y003100D02*
X049908Y003100D01*
X048933Y003100D02*
X048228Y003100D01*
X044013Y003100D02*
X043308Y003100D01*
D12*
X007897Y010005D03*
X006794Y010005D03*
X006794Y015005D03*
X007897Y015005D03*
D13*
X027770Y010280D03*
X028770Y010280D03*
X029770Y010280D03*
X030770Y010280D03*
X030270Y011280D03*
X029270Y011280D03*
X028270Y011280D03*
X031270Y011280D03*
X035270Y010280D03*
X036270Y010280D03*
X037270Y010280D03*
X038270Y010280D03*
X037770Y011280D03*
X038770Y011280D03*
X036770Y011280D03*
X035770Y011280D03*
X042770Y010280D03*
X043770Y010280D03*
X044770Y010280D03*
X045770Y010280D03*
X045270Y011280D03*
X046270Y011280D03*
X044270Y011280D03*
X043270Y011280D03*
X050770Y010280D03*
X051770Y010280D03*
X052770Y010280D03*
X053770Y010280D03*
X053270Y011280D03*
X054270Y011280D03*
X052270Y011280D03*
X051270Y011280D03*
D14*
X007071Y000976D02*
X006371Y000976D01*
X005520Y002555D02*
X005520Y003255D01*
D15*
X007883Y003305D02*
X007883Y002505D01*
D16*
X005361Y012505D03*
D17*
X008235Y011607D03*
X008235Y013403D03*
D18*
X060760Y012280D02*
X061280Y012280D01*
X061280Y011280D02*
X060760Y011280D01*
X060760Y010280D02*
X061280Y010280D01*
X061280Y009280D02*
X060760Y009280D01*
X060760Y008280D02*
X061280Y008280D01*
X061280Y007280D02*
X060760Y007280D01*
X060760Y006280D02*
X061280Y006280D01*
X061280Y005280D02*
X060760Y005280D01*
D19*
X024520Y003780D03*
X023520Y003780D03*
X023520Y002780D03*
X024520Y002780D03*
X022520Y002780D03*
X021520Y002780D03*
X020520Y002780D03*
X019520Y002780D03*
X018520Y002780D03*
X017520Y002780D03*
X016520Y002780D03*
X015520Y002780D03*
X014520Y002780D03*
X013520Y002780D03*
X012520Y002780D03*
X011520Y002780D03*
X010520Y002780D03*
X009520Y002780D03*
X009520Y013780D03*
X010520Y013780D03*
X011520Y013780D03*
X012520Y013780D03*
X013520Y013780D03*
X014520Y013780D03*
X015520Y013780D03*
X016520Y013780D03*
X017520Y013780D03*
X018520Y013780D03*
X019520Y013780D03*
X020520Y013780D03*
X021520Y013780D03*
X022520Y013780D03*
X023520Y013780D03*
X024520Y013780D03*
D20*
X022035Y007154D03*
X021006Y007154D03*
X021006Y006780D03*
X021006Y006406D03*
X022035Y006406D03*
D21*
X021875Y004780D03*
X021166Y004780D03*
X022666Y004780D03*
X023375Y004780D03*
X019375Y008030D03*
X018666Y008030D03*
D22*
X023146Y007280D03*
X023894Y007280D03*
X017769Y006530D03*
X017021Y006530D03*
D23*
X057020Y014426D03*
X058020Y014426D03*
X059020Y014426D03*
X060020Y014426D03*
X061020Y014426D03*
X061020Y015134D03*
X060020Y015134D03*
X059020Y015134D03*
X058020Y015134D03*
X057020Y015134D03*
D24*
X056590Y012530D03*
X056590Y012030D03*
X056590Y011530D03*
X056590Y011030D03*
X058450Y011030D03*
X058450Y011530D03*
X058450Y012030D03*
X058450Y012530D03*
X058450Y009530D03*
X058450Y009030D03*
X058450Y008530D03*
X058450Y008030D03*
X056590Y008030D03*
X056590Y008530D03*
X056590Y009030D03*
X056590Y009530D03*
D25*
X015520Y008210D03*
X015020Y008210D03*
X014520Y008210D03*
X014020Y008210D03*
X013520Y008210D03*
X013020Y008210D03*
X012520Y008210D03*
X012020Y008210D03*
X011520Y008210D03*
X011520Y004350D03*
X012020Y004350D03*
X012520Y004350D03*
X013020Y004350D03*
X013520Y004350D03*
X014020Y004350D03*
X014520Y004350D03*
X015020Y004350D03*
X015520Y004350D03*
D26*
X018640Y004970D03*
X019400Y004970D03*
X019400Y006590D03*
X019150Y006590D03*
X018890Y006590D03*
X018640Y006590D03*
D27*
X018900Y004970D03*
D28*
X019140Y004970D03*
D29*
X004300Y005750D03*
X004300Y008810D03*
D30*
X006454Y007280D03*
X008276Y007280D03*
D31*
X002800Y000560D02*
X002800Y015551D01*
X006352Y015551D01*
X006333Y015538D01*
X006301Y015506D01*
X006276Y015468D01*
X006258Y015426D01*
X006249Y015382D01*
X006249Y015082D01*
X006717Y015082D01*
X006717Y014928D01*
X006249Y014928D01*
X006249Y014628D01*
X006258Y014584D01*
X006276Y014542D01*
X006301Y014504D01*
X006333Y014472D01*
X006370Y014447D01*
X006412Y014430D01*
X006457Y014421D01*
X006717Y014421D01*
X006717Y014928D01*
X006872Y014928D01*
X006872Y015082D01*
X007339Y015082D01*
X007339Y015382D01*
X007330Y015426D01*
X007313Y015468D01*
X007288Y015506D01*
X007256Y015538D01*
X007236Y015551D01*
X010952Y015551D01*
X010385Y014983D01*
X010317Y014916D01*
X010280Y014828D01*
X010280Y014276D01*
X010209Y014246D01*
X010054Y014092D01*
X010020Y014010D01*
X009987Y014092D01*
X009832Y014246D01*
X009630Y014330D01*
X009411Y014330D01*
X009209Y014246D01*
X009054Y014092D01*
X008970Y013889D01*
X008970Y013671D01*
X009054Y013468D01*
X009209Y013314D01*
X009411Y013230D01*
X009630Y013230D01*
X009832Y013314D01*
X009987Y013468D01*
X010020Y013550D01*
X010054Y013468D01*
X010209Y013314D01*
X010280Y013284D01*
X010280Y013182D01*
X010317Y013094D01*
X010385Y013027D01*
X010473Y012990D01*
X011871Y012990D01*
X016030Y008831D01*
X016030Y008032D01*
X016067Y007944D01*
X016135Y007877D01*
X016418Y007593D01*
X016308Y007548D01*
X016203Y007442D01*
X016145Y007305D01*
X016145Y007155D01*
X016203Y007018D01*
X016250Y006970D01*
X015970Y006970D01*
X015460Y007479D01*
X015460Y007630D01*
X015725Y007630D01*
X015830Y007735D01*
X015830Y008685D01*
X015725Y008790D01*
X015560Y008790D01*
X015560Y008978D01*
X015524Y009066D01*
X013574Y011016D01*
X013506Y011083D01*
X013418Y011120D01*
X009062Y011120D01*
X008730Y011452D01*
X008730Y011879D01*
X008625Y011984D01*
X007846Y011984D01*
X007740Y011879D01*
X007740Y011452D01*
X007693Y011405D01*
X007657Y011317D01*
X007657Y010539D01*
X007507Y010539D01*
X007402Y010434D01*
X007402Y009576D01*
X007507Y009471D01*
X007657Y009471D01*
X007657Y008823D01*
X006544Y007710D01*
X003185Y007710D01*
X003027Y007645D01*
X002906Y007524D01*
X002840Y007366D01*
X002840Y002694D01*
X002906Y002536D01*
X004406Y001036D01*
X004527Y000915D01*
X004685Y000850D01*
X005606Y000850D01*
X005764Y000915D01*
X005791Y000943D01*
X005791Y000930D01*
X005806Y000840D01*
X005834Y000753D01*
X005875Y000672D01*
X005929Y000598D01*
X005967Y000560D01*
X002800Y000560D01*
X002800Y000597D02*
X005930Y000597D01*
X005833Y000756D02*
X002800Y000756D01*
X002800Y000914D02*
X004530Y000914D01*
X004370Y001073D02*
X002800Y001073D01*
X002800Y001231D02*
X004211Y001231D01*
X004053Y001390D02*
X002800Y001390D01*
X002800Y001548D02*
X003894Y001548D01*
X003736Y001707D02*
X002800Y001707D01*
X002800Y001865D02*
X003577Y001865D01*
X003419Y002024D02*
X002800Y002024D01*
X002800Y002182D02*
X003260Y002182D01*
X003102Y002341D02*
X002800Y002341D01*
X002800Y002499D02*
X002943Y002499D01*
X002856Y002658D02*
X002800Y002658D01*
X002800Y002816D02*
X002840Y002816D01*
X002840Y002975D02*
X002800Y002975D01*
X002800Y003133D02*
X002840Y003133D01*
X002840Y003292D02*
X002800Y003292D01*
X002800Y003450D02*
X002840Y003450D01*
X002840Y003609D02*
X002800Y003609D01*
X002800Y003767D02*
X002840Y003767D01*
X002840Y003926D02*
X002800Y003926D01*
X002800Y004084D02*
X002840Y004084D01*
X002840Y004243D02*
X002800Y004243D01*
X002800Y004401D02*
X002840Y004401D01*
X002840Y004560D02*
X002800Y004560D01*
X002800Y004718D02*
X002840Y004718D01*
X002840Y004877D02*
X002800Y004877D01*
X002800Y005035D02*
X002840Y005035D01*
X002840Y005194D02*
X002800Y005194D01*
X002800Y005352D02*
X002840Y005352D01*
X002840Y005511D02*
X002800Y005511D01*
X002800Y005669D02*
X002840Y005669D01*
X002840Y005828D02*
X002800Y005828D01*
X002800Y005986D02*
X002840Y005986D01*
X002840Y006145D02*
X002800Y006145D01*
X002800Y006303D02*
X002840Y006303D01*
X002840Y006462D02*
X002800Y006462D01*
X002800Y006620D02*
X002840Y006620D01*
X002840Y006779D02*
X002800Y006779D01*
X002800Y006937D02*
X002840Y006937D01*
X002840Y007096D02*
X002800Y007096D01*
X002800Y007254D02*
X002840Y007254D01*
X002860Y007413D02*
X002800Y007413D01*
X002800Y007571D02*
X002953Y007571D01*
X002800Y007730D02*
X006564Y007730D01*
X006722Y007888D02*
X005821Y007888D01*
X005821Y007887D02*
X005821Y008917D01*
X005774Y008964D01*
X005078Y008964D01*
X005031Y008917D01*
X005031Y007887D01*
X005078Y007840D01*
X005774Y007840D01*
X005821Y007887D01*
X005821Y008047D02*
X006881Y008047D01*
X007039Y008205D02*
X005821Y008205D01*
X005821Y008364D02*
X007198Y008364D01*
X007356Y008522D02*
X005821Y008522D01*
X005821Y008681D02*
X007515Y008681D01*
X007657Y008839D02*
X005821Y008839D01*
X005031Y008839D02*
X004805Y008839D01*
X004805Y008681D02*
X005031Y008681D01*
X005031Y008522D02*
X004805Y008522D01*
X004805Y008364D02*
X005031Y008364D01*
X005031Y008205D02*
X004805Y008205D01*
X004805Y008060D02*
X004805Y009559D01*
X004699Y009665D01*
X003901Y009665D01*
X003795Y009559D01*
X003795Y008060D01*
X003901Y007954D01*
X004699Y007954D01*
X004805Y008060D01*
X004792Y008047D02*
X005031Y008047D01*
X005031Y007888D02*
X002800Y007888D01*
X002800Y008047D02*
X003808Y008047D01*
X003795Y008205D02*
X002800Y008205D01*
X002800Y008364D02*
X003795Y008364D01*
X003795Y008522D02*
X002800Y008522D01*
X002800Y008681D02*
X003795Y008681D01*
X003795Y008839D02*
X002800Y008839D01*
X002800Y008998D02*
X003795Y008998D01*
X003795Y009156D02*
X002800Y009156D01*
X002800Y009315D02*
X003795Y009315D01*
X003795Y009473D02*
X002800Y009473D01*
X002800Y009632D02*
X003867Y009632D01*
X002800Y009790D02*
X006249Y009790D01*
X006249Y009928D02*
X006249Y009628D01*
X006258Y009584D01*
X006276Y009542D01*
X006301Y009504D01*
X006333Y009472D01*
X006370Y009447D01*
X006412Y009430D01*
X006457Y009421D01*
X006717Y009421D01*
X006717Y009928D01*
X006249Y009928D01*
X006249Y010082D02*
X006717Y010082D01*
X006717Y009928D01*
X006872Y009928D01*
X006872Y010082D01*
X007339Y010082D01*
X007339Y010382D01*
X007330Y010426D01*
X007313Y010468D01*
X007288Y010506D01*
X007256Y010538D01*
X007218Y010563D01*
X007176Y010580D01*
X007132Y010589D01*
X006872Y010589D01*
X006872Y010082D01*
X006717Y010082D01*
X006717Y010589D01*
X006457Y010589D01*
X006412Y010580D01*
X006370Y010563D01*
X006333Y010538D01*
X006301Y010506D01*
X006276Y010468D01*
X006258Y010426D01*
X006249Y010382D01*
X006249Y010082D01*
X006249Y010107D02*
X002800Y010107D01*
X002800Y009949D02*
X006717Y009949D01*
X006872Y009949D02*
X007402Y009949D01*
X007339Y009928D02*
X006872Y009928D01*
X006872Y009421D01*
X007132Y009421D01*
X007176Y009430D01*
X007218Y009447D01*
X007256Y009472D01*
X007288Y009504D01*
X007313Y009542D01*
X007330Y009584D01*
X007339Y009628D01*
X007339Y009928D01*
X007339Y009790D02*
X007402Y009790D01*
X007402Y009632D02*
X007339Y009632D01*
X007257Y009473D02*
X007505Y009473D01*
X007657Y009315D02*
X004805Y009315D01*
X004805Y009473D02*
X006332Y009473D01*
X006249Y009632D02*
X004733Y009632D01*
X004805Y009156D02*
X007657Y009156D01*
X007657Y008998D02*
X004805Y008998D01*
X006717Y009473D02*
X006872Y009473D01*
X006872Y009632D02*
X006717Y009632D01*
X006717Y009790D02*
X006872Y009790D01*
X006872Y010107D02*
X006717Y010107D01*
X006717Y010266D02*
X006872Y010266D01*
X006872Y010424D02*
X006717Y010424D01*
X006717Y010583D02*
X006872Y010583D01*
X007166Y010583D02*
X007657Y010583D01*
X007657Y010741D02*
X003869Y010741D01*
X003918Y010790D02*
X003811Y010683D01*
X003671Y010625D01*
X003520Y010625D01*
X003380Y010683D01*
X003273Y010790D01*
X003215Y010929D01*
X003215Y011081D01*
X003273Y011220D01*
X003308Y011255D01*
X003273Y011290D01*
X003215Y011429D01*
X003215Y011581D01*
X003273Y011720D01*
X003308Y011755D01*
X003273Y011790D01*
X003215Y011929D01*
X003215Y012081D01*
X003273Y012220D01*
X003308Y012255D01*
X003273Y012290D01*
X003215Y012429D01*
X003215Y012581D01*
X003273Y012720D01*
X003308Y012755D01*
X003273Y012790D01*
X003215Y012929D01*
X003215Y013081D01*
X003273Y013220D01*
X003308Y013255D01*
X003273Y013290D01*
X003215Y013429D01*
X003215Y013581D01*
X003273Y013720D01*
X003308Y013755D01*
X003273Y013790D01*
X003215Y013929D01*
X003215Y014081D01*
X003273Y014220D01*
X003380Y014327D01*
X003520Y014385D01*
X003671Y014385D01*
X003811Y014327D01*
X003918Y014220D01*
X003975Y014081D01*
X003975Y013929D01*
X003918Y013790D01*
X003883Y013755D01*
X003918Y013720D01*
X003936Y013675D01*
X003937Y013677D01*
X003962Y013715D01*
X003994Y013747D01*
X004032Y013772D01*
X004074Y013789D01*
X004118Y013798D01*
X005281Y013798D01*
X005281Y012585D01*
X005441Y012585D01*
X005441Y013798D01*
X006604Y013798D01*
X006649Y013789D01*
X006691Y013772D01*
X006728Y013747D01*
X006760Y013715D01*
X006786Y013677D01*
X006803Y013635D01*
X006812Y013591D01*
X006812Y012585D01*
X005441Y012585D01*
X005441Y012425D01*
X005441Y011212D01*
X006604Y011212D01*
X006649Y011221D01*
X006691Y011238D01*
X006728Y011263D01*
X006760Y011295D01*
X006786Y011333D01*
X006803Y011375D01*
X007681Y011375D01*
X007657Y011217D02*
X006627Y011217D01*
X006803Y011375D02*
X006812Y011419D01*
X006812Y012425D01*
X005441Y012425D01*
X005281Y012425D01*
X005281Y011212D01*
X004118Y011212D01*
X004074Y011221D01*
X004032Y011238D01*
X003994Y011263D01*
X003962Y011295D01*
X003937Y011333D01*
X003936Y011335D01*
X003918Y011290D01*
X003883Y011255D01*
X003918Y011220D01*
X003975Y011081D01*
X003975Y010929D01*
X003918Y010790D01*
X003963Y010900D02*
X007657Y010900D01*
X007657Y011058D02*
X003975Y011058D01*
X003919Y011217D02*
X004095Y011217D01*
X003272Y011217D02*
X002800Y011217D01*
X002800Y011375D02*
X003238Y011375D01*
X003215Y011534D02*
X002800Y011534D01*
X002800Y011692D02*
X003262Y011692D01*
X003248Y011851D02*
X002800Y011851D01*
X002800Y012009D02*
X003215Y012009D01*
X003251Y012168D02*
X002800Y012168D01*
X002800Y012326D02*
X003258Y012326D01*
X003215Y012485D02*
X002800Y012485D01*
X002800Y012643D02*
X003241Y012643D01*
X003268Y012802D02*
X002800Y012802D01*
X002800Y012960D02*
X003215Y012960D01*
X003231Y013119D02*
X002800Y013119D01*
X002800Y013277D02*
X003286Y013277D01*
X003215Y013436D02*
X002800Y013436D01*
X002800Y013594D02*
X003221Y013594D01*
X003306Y013753D02*
X002800Y013753D01*
X002800Y013911D02*
X003223Y013911D01*
X003215Y014070D02*
X002800Y014070D01*
X002800Y014228D02*
X003281Y014228D01*
X002800Y014387D02*
X007657Y014387D01*
X007657Y014471D02*
X007657Y013693D01*
X007693Y013605D01*
X007740Y013558D01*
X007740Y013131D01*
X007846Y013026D01*
X008625Y013026D01*
X008730Y013131D01*
X008730Y013674D01*
X008625Y013779D01*
X008555Y013779D01*
X008591Y013816D01*
X008649Y013955D01*
X008649Y014105D01*
X008591Y014244D01*
X008485Y014351D01*
X008346Y014408D01*
X008195Y014408D01*
X008137Y014384D01*
X008137Y014471D01*
X008286Y014471D01*
X008392Y014576D01*
X008392Y015434D01*
X008286Y015539D01*
X007507Y015539D01*
X007402Y015434D01*
X007402Y014576D01*
X007507Y014471D01*
X007657Y014471D01*
X007433Y014545D02*
X007314Y014545D01*
X007313Y014542D02*
X007330Y014584D01*
X007339Y014628D01*
X007339Y014928D01*
X006872Y014928D01*
X006872Y014421D01*
X007132Y014421D01*
X007176Y014430D01*
X007218Y014447D01*
X007256Y014472D01*
X007288Y014504D01*
X007313Y014542D01*
X007339Y014704D02*
X007402Y014704D01*
X007402Y014862D02*
X007339Y014862D01*
X007402Y015021D02*
X006872Y015021D01*
X006717Y015021D02*
X002800Y015021D01*
X002800Y015179D02*
X006249Y015179D01*
X006249Y015338D02*
X002800Y015338D01*
X002800Y015496D02*
X006294Y015496D01*
X007295Y015496D02*
X007464Y015496D01*
X007402Y015338D02*
X007339Y015338D01*
X007339Y015179D02*
X007402Y015179D01*
X008329Y015496D02*
X010897Y015496D01*
X010739Y015338D02*
X008392Y015338D01*
X008392Y015179D02*
X010580Y015179D01*
X010422Y015021D02*
X008392Y015021D01*
X008392Y014862D02*
X010295Y014862D01*
X010280Y014704D02*
X008392Y014704D01*
X008361Y014545D02*
X010280Y014545D01*
X010280Y014387D02*
X008398Y014387D01*
X008143Y014387D02*
X008137Y014387D01*
X008598Y014228D02*
X009191Y014228D01*
X009045Y014070D02*
X008649Y014070D01*
X008630Y013911D02*
X008979Y013911D01*
X008970Y013753D02*
X008652Y013753D01*
X008730Y013594D02*
X009002Y013594D01*
X009087Y013436D02*
X008730Y013436D01*
X008730Y013277D02*
X009298Y013277D01*
X009743Y013277D02*
X010280Y013277D01*
X010307Y013119D02*
X008717Y013119D01*
X007753Y013119D02*
X006812Y013119D01*
X006812Y013277D02*
X007740Y013277D01*
X007740Y013436D02*
X006812Y013436D01*
X006811Y013594D02*
X007704Y013594D01*
X007657Y013753D02*
X006720Y013753D01*
X007657Y013911D02*
X003968Y013911D01*
X003975Y014070D02*
X007657Y014070D01*
X007657Y014228D02*
X003910Y014228D01*
X002800Y014545D02*
X006274Y014545D01*
X006249Y014704D02*
X002800Y014704D01*
X002800Y014862D02*
X006249Y014862D01*
X006717Y014862D02*
X006872Y014862D01*
X006872Y014704D02*
X006717Y014704D01*
X006717Y014545D02*
X006872Y014545D01*
X005441Y013753D02*
X005281Y013753D01*
X005281Y013594D02*
X005441Y013594D01*
X005441Y013436D02*
X005281Y013436D01*
X005281Y013277D02*
X005441Y013277D01*
X005441Y013119D02*
X005281Y013119D01*
X005281Y012960D02*
X005441Y012960D01*
X005441Y012802D02*
X005281Y012802D01*
X005281Y012643D02*
X005441Y012643D01*
X005441Y012485D02*
X012377Y012485D01*
X012218Y012643D02*
X006812Y012643D01*
X006812Y012802D02*
X012060Y012802D01*
X011901Y012960D02*
X006812Y012960D01*
X006812Y012326D02*
X012535Y012326D01*
X012694Y012168D02*
X006812Y012168D01*
X006812Y012009D02*
X012852Y012009D01*
X013011Y011851D02*
X008730Y011851D01*
X008730Y011692D02*
X013169Y011692D01*
X013328Y011534D02*
X008730Y011534D01*
X008807Y011375D02*
X013486Y011375D01*
X013645Y011217D02*
X008965Y011217D01*
X008624Y010879D02*
X008556Y010851D01*
X008450Y010744D01*
X008392Y010605D01*
X008392Y010455D01*
X008450Y010316D01*
X008556Y010209D01*
X008695Y010152D01*
X008846Y010152D01*
X008985Y010209D01*
X009091Y010316D01*
X009149Y010455D01*
X009149Y010605D01*
X009134Y010640D01*
X010780Y010640D01*
X010780Y009020D01*
X010695Y009055D01*
X010546Y009055D01*
X010408Y008998D01*
X010303Y008892D01*
X010245Y008755D01*
X010245Y008614D01*
X010230Y008578D01*
X010230Y004570D01*
X010153Y004492D01*
X010095Y004355D01*
X010095Y004205D01*
X010153Y004068D01*
X010258Y003962D01*
X010332Y003931D01*
X009701Y003300D01*
X009630Y003330D01*
X009411Y003330D01*
X009209Y003246D01*
X009054Y003092D01*
X008970Y002889D01*
X008970Y002671D01*
X009054Y002468D01*
X009209Y002314D01*
X009411Y002230D01*
X009630Y002230D01*
X009832Y002314D01*
X009987Y002468D01*
X010020Y002550D01*
X010054Y002468D01*
X010209Y002314D01*
X010411Y002230D01*
X010630Y002230D01*
X010832Y002314D01*
X010987Y002468D01*
X011020Y002550D01*
X011054Y002468D01*
X011209Y002314D01*
X011411Y002230D01*
X011630Y002230D01*
X011832Y002314D01*
X011987Y002468D01*
X012020Y002550D01*
X012054Y002468D01*
X012209Y002314D01*
X012411Y002230D01*
X012630Y002230D01*
X012832Y002314D01*
X012987Y002468D01*
X013020Y002550D01*
X013054Y002468D01*
X013209Y002314D01*
X013411Y002230D01*
X013630Y002230D01*
X013832Y002314D01*
X013987Y002468D01*
X014020Y002550D01*
X014054Y002468D01*
X014209Y002314D01*
X014411Y002230D01*
X014630Y002230D01*
X014832Y002314D01*
X014987Y002468D01*
X015020Y002550D01*
X015054Y002468D01*
X015209Y002314D01*
X015411Y002230D01*
X015630Y002230D01*
X015832Y002314D01*
X015987Y002468D01*
X016020Y002550D01*
X016054Y002468D01*
X016209Y002314D01*
X016411Y002230D01*
X016630Y002230D01*
X016832Y002314D01*
X016987Y002468D01*
X017020Y002550D01*
X017054Y002468D01*
X017209Y002314D01*
X017280Y002284D01*
X017280Y001814D01*
X017277Y001801D01*
X017280Y001767D01*
X017280Y001732D01*
X017286Y001720D01*
X017287Y001706D01*
X017304Y001676D01*
X017317Y001644D01*
X017327Y001634D01*
X017333Y001622D01*
X017360Y001601D01*
X017385Y001577D01*
X017397Y001571D01*
X017849Y001210D01*
X009699Y001210D01*
X008463Y002446D01*
X008463Y003420D01*
X008374Y003634D01*
X008211Y003797D01*
X007998Y003885D01*
X007767Y003885D01*
X007554Y003797D01*
X007391Y003634D01*
X007303Y003420D01*
X007303Y003210D01*
X006935Y003210D01*
X006777Y003145D01*
X006656Y003024D01*
X006093Y002460D01*
X006100Y002509D01*
X006100Y002905D01*
X006100Y003301D01*
X006086Y003391D01*
X006058Y003478D01*
X006017Y003559D01*
X005963Y003633D01*
X005898Y003697D01*
X005824Y003751D01*
X005743Y003793D01*
X005656Y003821D01*
X005566Y003835D01*
X005520Y003835D01*
X005475Y003835D01*
X005385Y003821D01*
X005298Y003793D01*
X005216Y003751D01*
X005143Y003697D01*
X005078Y003633D01*
X005024Y003559D01*
X004983Y003478D01*
X004955Y003391D01*
X004940Y003301D01*
X004940Y002905D01*
X004940Y002509D01*
X004955Y002419D01*
X004983Y002332D01*
X005024Y002251D01*
X005078Y002177D01*
X005143Y002113D01*
X005216Y002059D01*
X005298Y002017D01*
X005385Y001989D01*
X005475Y001975D01*
X005520Y001975D01*
X005520Y002905D01*
X004940Y002905D01*
X005520Y002905D01*
X005520Y002905D01*
X005520Y002905D01*
X005520Y003835D01*
X005520Y002905D01*
X005520Y002905D01*
X005520Y001975D01*
X005566Y001975D01*
X005615Y001983D01*
X005342Y001710D01*
X004949Y001710D01*
X003700Y002958D01*
X003700Y006850D01*
X007103Y006850D01*
X007208Y006955D01*
X007208Y007605D01*
X007163Y007650D01*
X008100Y008587D01*
X008137Y008675D01*
X008137Y009471D01*
X008286Y009471D01*
X008392Y009576D01*
X008392Y010434D01*
X008286Y010539D01*
X008137Y010539D01*
X008137Y011169D01*
X008198Y011231D01*
X008273Y011231D01*
X008624Y010879D01*
X008604Y010900D02*
X008137Y010900D01*
X008137Y011058D02*
X008445Y011058D01*
X008287Y011217D02*
X008184Y011217D01*
X008137Y010741D02*
X008449Y010741D01*
X008392Y010583D02*
X008137Y010583D01*
X008392Y010424D02*
X008405Y010424D01*
X008392Y010266D02*
X008500Y010266D01*
X008392Y010107D02*
X010780Y010107D01*
X010780Y009949D02*
X008392Y009949D01*
X008392Y009790D02*
X010780Y009790D01*
X010780Y009632D02*
X008392Y009632D01*
X008289Y009473D02*
X010780Y009473D01*
X010780Y009315D02*
X008137Y009315D01*
X008137Y009156D02*
X010780Y009156D01*
X010408Y008998D02*
X008137Y008998D01*
X008137Y008839D02*
X010280Y008839D01*
X010245Y008681D02*
X008137Y008681D01*
X008035Y008522D02*
X010230Y008522D01*
X010230Y008364D02*
X007876Y008364D01*
X007718Y008205D02*
X010230Y008205D01*
X010230Y008047D02*
X007559Y008047D01*
X007401Y007888D02*
X010230Y007888D01*
X010230Y007730D02*
X008967Y007730D01*
X008960Y007734D02*
X008918Y007751D01*
X008874Y007760D01*
X008321Y007760D01*
X008321Y007325D01*
X008231Y007325D01*
X008231Y007235D01*
X007472Y007235D01*
X007472Y007007D01*
X007480Y006963D01*
X007498Y006921D01*
X007523Y006883D01*
X007555Y006851D01*
X007593Y006826D01*
X007634Y006809D01*
X007679Y006800D01*
X008231Y006800D01*
X008231Y007235D01*
X008321Y007235D01*
X008321Y006800D01*
X008874Y006800D01*
X008918Y006809D01*
X008960Y006826D01*
X008998Y006851D01*
X009030Y006883D01*
X009055Y006921D01*
X009072Y006963D01*
X009081Y007007D01*
X009081Y007235D01*
X008321Y007235D01*
X008321Y007325D01*
X009081Y007325D01*
X009081Y007553D01*
X009072Y007597D01*
X009055Y007639D01*
X009030Y007677D01*
X008998Y007709D01*
X008960Y007734D01*
X009078Y007571D02*
X010230Y007571D01*
X010230Y007413D02*
X009081Y007413D01*
X008321Y007254D02*
X010230Y007254D01*
X010230Y007096D02*
X009081Y007096D01*
X009062Y006937D02*
X010230Y006937D01*
X010230Y006779D02*
X003700Y006779D01*
X003700Y006620D02*
X005031Y006620D01*
X005031Y006673D02*
X005031Y005643D01*
X005078Y005596D01*
X005774Y005596D01*
X005821Y005643D01*
X005821Y006673D01*
X005774Y006720D01*
X005078Y006720D01*
X005031Y006673D01*
X005031Y006462D02*
X004805Y006462D01*
X004805Y006500D02*
X004699Y006606D01*
X003901Y006606D01*
X003795Y006500D01*
X003795Y005001D01*
X003901Y004895D01*
X004699Y004895D01*
X004805Y005001D01*
X004805Y006500D01*
X004805Y006303D02*
X005031Y006303D01*
X005031Y006145D02*
X004805Y006145D01*
X004805Y005986D02*
X005031Y005986D01*
X005031Y005828D02*
X004805Y005828D01*
X004805Y005669D02*
X005031Y005669D01*
X004805Y005511D02*
X010230Y005511D01*
X010230Y005669D02*
X005821Y005669D01*
X005821Y005828D02*
X010230Y005828D01*
X010230Y005986D02*
X005821Y005986D01*
X005821Y006145D02*
X010230Y006145D01*
X010230Y006303D02*
X005821Y006303D01*
X005821Y006462D02*
X010230Y006462D01*
X010230Y006620D02*
X005821Y006620D01*
X007190Y006937D02*
X007491Y006937D01*
X007472Y007096D02*
X007208Y007096D01*
X007208Y007254D02*
X008231Y007254D01*
X008231Y007325D02*
X007472Y007325D01*
X007472Y007553D01*
X007480Y007597D01*
X007498Y007639D01*
X007523Y007677D01*
X007555Y007709D01*
X007593Y007734D01*
X007634Y007751D01*
X007679Y007760D01*
X008231Y007760D01*
X008231Y007325D01*
X008231Y007413D02*
X008321Y007413D01*
X008321Y007571D02*
X008231Y007571D01*
X008231Y007730D02*
X008321Y007730D01*
X007586Y007730D02*
X007242Y007730D01*
X007208Y007571D02*
X007475Y007571D01*
X007472Y007413D02*
X007208Y007413D01*
X008231Y007096D02*
X008321Y007096D01*
X008321Y006937D02*
X008231Y006937D01*
X010710Y006410D02*
X010808Y006312D01*
X010946Y006255D01*
X011095Y006255D01*
X011233Y006312D01*
X011338Y006418D01*
X011395Y006555D01*
X011395Y006705D01*
X011338Y006842D01*
X011260Y006920D01*
X011260Y007685D01*
X011316Y007630D01*
X011725Y007630D01*
X011770Y007675D01*
X011816Y007630D01*
X012225Y007630D01*
X012270Y007675D01*
X012316Y007630D01*
X012725Y007630D01*
X012770Y007675D01*
X012816Y007630D01*
X013225Y007630D01*
X013270Y007675D01*
X013316Y007630D01*
X013502Y007630D01*
X013517Y007594D01*
X015645Y005466D01*
X015645Y005355D01*
X015703Y005218D01*
X015808Y005112D01*
X015946Y005055D01*
X016095Y005055D01*
X016233Y005112D01*
X016338Y005218D01*
X016395Y005355D01*
X016395Y005505D01*
X016338Y005642D01*
X016233Y005748D01*
X016095Y005805D01*
X015985Y005805D01*
X015750Y006040D01*
X016080Y006040D01*
X016158Y005962D01*
X016296Y005905D01*
X016445Y005905D01*
X016583Y005962D01*
X016654Y006033D01*
X016657Y006031D01*
X016698Y006014D01*
X016743Y006005D01*
X016974Y006005D01*
X016974Y006482D01*
X017069Y006482D01*
X017069Y006005D01*
X017300Y006005D01*
X017344Y006014D01*
X017386Y006031D01*
X017424Y006056D01*
X017431Y006063D01*
X017439Y006055D01*
X018100Y006055D01*
X018205Y006160D01*
X018205Y006290D01*
X018400Y006290D01*
X018400Y006220D01*
X018506Y006115D01*
X018686Y006115D01*
X018722Y006091D01*
X018763Y006074D01*
X018808Y006065D01*
X018890Y006065D01*
X018890Y006590D01*
X018890Y007115D01*
X018808Y007115D01*
X018763Y007106D01*
X018722Y007089D01*
X018686Y007065D01*
X018506Y007065D01*
X018400Y006960D01*
X018400Y006770D01*
X018205Y006770D01*
X018205Y006900D01*
X018100Y007005D01*
X017685Y007005D01*
X016510Y008179D01*
X016510Y008978D01*
X016474Y009066D01*
X014150Y011390D01*
X019781Y011390D01*
X019745Y011305D01*
X019745Y011155D01*
X019803Y011018D01*
X019880Y010940D01*
X019880Y010932D01*
X019917Y010844D01*
X019985Y010777D01*
X020073Y010740D01*
X020630Y010740D01*
X020708Y010662D01*
X020846Y010605D01*
X020995Y010605D01*
X021133Y010662D01*
X021238Y010768D01*
X021295Y010905D01*
X021295Y011055D01*
X021238Y011192D01*
X021133Y011298D01*
X021116Y011305D01*
X021133Y011312D01*
X021238Y011418D01*
X021295Y011555D01*
X021295Y011616D01*
X022380Y010531D01*
X022380Y009770D01*
X022295Y009805D01*
X022295Y009905D01*
X022238Y010042D01*
X022176Y010105D01*
X022188Y010118D01*
X022245Y010255D01*
X022245Y010405D01*
X022188Y010542D01*
X022083Y010648D01*
X021945Y010705D01*
X021796Y010705D01*
X021658Y010648D01*
X021580Y010570D01*
X020411Y010570D01*
X020333Y010648D01*
X020195Y010705D01*
X020046Y010705D01*
X019908Y010648D01*
X019803Y010542D01*
X019745Y010405D01*
X019745Y010255D01*
X019803Y010118D01*
X019840Y010080D01*
X019803Y010042D01*
X019745Y009905D01*
X019745Y009805D01*
X019608Y009748D01*
X019503Y009642D01*
X019445Y009505D01*
X019445Y009355D01*
X019503Y009218D01*
X019608Y009112D01*
X019745Y009055D01*
X019745Y008955D01*
X019773Y008889D01*
X019681Y008851D01*
X019575Y008744D01*
X019517Y008605D01*
X019517Y008455D01*
X019521Y008446D01*
X019143Y008446D01*
X019040Y008344D01*
X019027Y008375D01*
X019002Y008413D01*
X018970Y008445D01*
X018933Y008470D01*
X018891Y008487D01*
X018846Y008496D01*
X018666Y008496D01*
X018486Y008496D01*
X018442Y008487D01*
X018400Y008470D01*
X018362Y008445D01*
X018330Y008413D01*
X018305Y008375D01*
X018288Y008333D01*
X018279Y008289D01*
X018279Y008030D01*
X018279Y007771D01*
X018288Y007727D01*
X018305Y007685D01*
X018330Y007647D01*
X018362Y007615D01*
X018400Y007590D01*
X018442Y007573D01*
X018486Y007564D01*
X018666Y007564D01*
X018666Y008030D01*
X018279Y008030D01*
X018666Y008030D01*
X018666Y008030D01*
X018666Y008030D01*
X018666Y008496D01*
X018666Y008030D01*
X018666Y008030D01*
X018666Y007564D01*
X018846Y007564D01*
X018891Y007573D01*
X018910Y007581D01*
X018910Y007115D01*
X018890Y007115D01*
X018890Y006590D01*
X018890Y006590D01*
X018890Y006590D01*
X018890Y006065D01*
X018973Y006065D01*
X019018Y006074D01*
X019059Y006091D01*
X019095Y006115D01*
X019535Y006115D01*
X019640Y006220D01*
X019640Y006811D01*
X019724Y006894D01*
X019760Y006982D01*
X019760Y006985D01*
X019780Y007005D01*
X019780Y006732D01*
X019817Y006644D01*
X020192Y006269D01*
X020260Y006202D01*
X020348Y006165D01*
X020638Y006165D01*
X020696Y006108D01*
X021317Y006108D01*
X021423Y006213D01*
X021423Y006517D01*
X021446Y006553D01*
X021464Y006595D01*
X021473Y006639D01*
X021473Y006739D01*
X021567Y006644D01*
X021618Y006593D01*
X021618Y006213D01*
X021724Y006108D01*
X021795Y006108D01*
X021795Y005196D01*
X021643Y005196D01*
X021540Y005094D01*
X021527Y005125D01*
X021502Y005163D01*
X021470Y005195D01*
X021433Y005220D01*
X021391Y005237D01*
X021346Y005246D01*
X021166Y005246D01*
X020986Y005246D01*
X020942Y005237D01*
X020900Y005220D01*
X020873Y005202D01*
X020938Y005268D01*
X020995Y005405D01*
X020995Y005555D01*
X020938Y005692D01*
X020833Y005798D01*
X020695Y005855D01*
X020546Y005855D01*
X020408Y005798D01*
X020303Y005692D01*
X020245Y005555D01*
X020245Y005405D01*
X020303Y005268D01*
X020380Y005190D01*
X020380Y003317D01*
X020209Y003246D01*
X020054Y003092D01*
X020020Y003010D01*
X019987Y003092D01*
X019832Y003246D01*
X019630Y003330D01*
X019411Y003330D01*
X019209Y003246D01*
X019054Y003092D01*
X019020Y003010D01*
X018987Y003092D01*
X018832Y003246D01*
X018760Y003276D01*
X018760Y003431D01*
X019281Y003952D01*
X019349Y004019D01*
X019385Y004107D01*
X019385Y004445D01*
X019400Y004445D01*
X019400Y004970D01*
X019400Y005495D01*
X019318Y005495D01*
X019273Y005486D01*
X019232Y005469D01*
X019196Y005445D01*
X018845Y005445D01*
X018809Y005469D01*
X018768Y005486D01*
X018723Y005495D01*
X018640Y005495D01*
X018558Y005495D01*
X018513Y005486D01*
X018472Y005469D01*
X018434Y005444D01*
X018402Y005412D01*
X018377Y005374D01*
X018359Y005332D01*
X018350Y005288D01*
X018350Y004970D01*
X018350Y004652D01*
X018359Y004608D01*
X018377Y004566D01*
X018402Y004528D01*
X018434Y004496D01*
X018472Y004471D01*
X018513Y004454D01*
X018558Y004445D01*
X018596Y004445D01*
X017481Y003330D01*
X017411Y003330D01*
X017209Y003246D01*
X017054Y003092D01*
X017020Y003010D01*
X016987Y003092D01*
X016832Y003246D01*
X016630Y003330D01*
X016411Y003330D01*
X016340Y003300D01*
X015906Y003733D01*
X015818Y003770D01*
X015795Y003770D01*
X015797Y003771D01*
X015829Y003803D01*
X015854Y003841D01*
X015872Y003883D01*
X015880Y003927D01*
X015880Y004350D01*
X015880Y004773D01*
X015872Y004817D01*
X015854Y004859D01*
X015829Y004897D01*
X015797Y004929D01*
X015759Y004954D01*
X015718Y004971D01*
X015673Y004980D01*
X015520Y004980D01*
X015368Y004980D01*
X015323Y004971D01*
X015282Y004954D01*
X015244Y004929D01*
X015235Y004920D01*
X015225Y004930D01*
X014816Y004930D01*
X014770Y004885D01*
X014725Y004930D01*
X014316Y004930D01*
X014270Y004885D01*
X014225Y004930D01*
X013816Y004930D01*
X013770Y004885D01*
X013725Y004930D01*
X013316Y004930D01*
X013270Y004885D01*
X013225Y004930D01*
X012816Y004930D01*
X012770Y004885D01*
X012725Y004930D01*
X012316Y004930D01*
X012270Y004885D01*
X012225Y004930D01*
X011816Y004930D01*
X011770Y004885D01*
X011725Y004930D01*
X011316Y004930D01*
X011210Y004825D01*
X011210Y004590D01*
X011043Y004590D01*
X010955Y004553D01*
X010819Y004418D01*
X010788Y004492D01*
X010710Y004570D01*
X010710Y006410D01*
X010710Y006303D02*
X010830Y006303D01*
X010710Y006145D02*
X014967Y006145D01*
X014808Y006303D02*
X011211Y006303D01*
X011357Y006462D02*
X014650Y006462D01*
X014491Y006620D02*
X011395Y006620D01*
X011365Y006779D02*
X014333Y006779D01*
X014174Y006937D02*
X011260Y006937D01*
X011260Y007096D02*
X014016Y007096D01*
X013857Y007254D02*
X011260Y007254D01*
X011260Y007413D02*
X013699Y007413D01*
X013540Y007571D02*
X011260Y007571D01*
X015460Y007571D02*
X016364Y007571D01*
X016282Y007730D02*
X015825Y007730D01*
X015830Y007888D02*
X016123Y007888D01*
X016030Y008047D02*
X015830Y008047D01*
X015830Y008205D02*
X016030Y008205D01*
X016030Y008364D02*
X015830Y008364D01*
X015830Y008522D02*
X016030Y008522D01*
X016030Y008681D02*
X015830Y008681D01*
X016022Y008839D02*
X015560Y008839D01*
X015552Y008998D02*
X015864Y008998D01*
X015705Y009156D02*
X015434Y009156D01*
X015547Y009315D02*
X015275Y009315D01*
X015388Y009473D02*
X015117Y009473D01*
X015230Y009632D02*
X014958Y009632D01*
X015071Y009790D02*
X014800Y009790D01*
X014913Y009949D02*
X014641Y009949D01*
X014754Y010107D02*
X014483Y010107D01*
X014596Y010266D02*
X014324Y010266D01*
X014437Y010424D02*
X014166Y010424D01*
X014279Y010583D02*
X014007Y010583D01*
X014120Y010741D02*
X013849Y010741D01*
X013962Y010900D02*
X013690Y010900D01*
X013803Y011058D02*
X013532Y011058D01*
X014165Y011375D02*
X019775Y011375D01*
X019745Y011217D02*
X014323Y011217D01*
X014482Y011058D02*
X019786Y011058D01*
X019894Y010900D02*
X014640Y010900D01*
X014799Y010741D02*
X020070Y010741D01*
X019843Y010583D02*
X014957Y010583D01*
X015116Y010424D02*
X019754Y010424D01*
X019745Y010266D02*
X015274Y010266D01*
X015433Y010107D02*
X019813Y010107D01*
X019764Y009949D02*
X015591Y009949D01*
X015750Y009790D02*
X019710Y009790D01*
X019498Y009632D02*
X015908Y009632D01*
X016067Y009473D02*
X019445Y009473D01*
X019462Y009315D02*
X016225Y009315D01*
X016384Y009156D02*
X019564Y009156D01*
X019745Y008998D02*
X016502Y008998D01*
X016510Y008839D02*
X019670Y008839D01*
X019549Y008681D02*
X016510Y008681D01*
X016510Y008522D02*
X019517Y008522D01*
X019712Y008197D02*
X019820Y008152D01*
X019971Y008152D01*
X020110Y008209D01*
X020190Y008290D01*
X021471Y008290D01*
X021795Y007966D01*
X021795Y007452D01*
X021724Y007452D01*
X021618Y007347D01*
X021618Y007271D01*
X021531Y007358D01*
X021443Y007395D01*
X021374Y007395D01*
X021317Y007452D01*
X020696Y007452D01*
X020590Y007347D01*
X020590Y007043D01*
X020566Y007007D01*
X020549Y006965D01*
X020540Y006921D01*
X020540Y006780D01*
X020540Y006645D01*
X020495Y006645D01*
X020260Y006879D01*
X020260Y007828D01*
X020224Y007916D01*
X020156Y007983D01*
X020068Y008020D01*
X019724Y008020D01*
X019712Y008032D01*
X019712Y008197D01*
X019712Y008047D02*
X021715Y008047D01*
X021795Y007888D02*
X020236Y007888D01*
X020260Y007730D02*
X021795Y007730D01*
X021795Y007571D02*
X020260Y007571D01*
X020260Y007413D02*
X020656Y007413D01*
X020590Y007254D02*
X020260Y007254D01*
X020260Y007096D02*
X020590Y007096D01*
X020543Y006937D02*
X020260Y006937D01*
X020361Y006779D02*
X020540Y006779D01*
X020540Y006780D02*
X021006Y006780D01*
X021006Y006780D01*
X020540Y006780D01*
X021006Y006780D02*
X021431Y006780D01*
X021431Y006780D01*
X021006Y006780D01*
X021006Y006780D01*
X021469Y006620D02*
X021591Y006620D01*
X021618Y006462D02*
X021423Y006462D01*
X021423Y006303D02*
X021618Y006303D01*
X021687Y006145D02*
X021354Y006145D01*
X021795Y005986D02*
X016607Y005986D01*
X016974Y006145D02*
X017069Y006145D01*
X017069Y006303D02*
X016974Y006303D01*
X016974Y006462D02*
X017069Y006462D01*
X018190Y006145D02*
X018476Y006145D01*
X018890Y006145D02*
X018890Y006145D01*
X018890Y006303D02*
X018890Y006303D01*
X018890Y006462D02*
X018890Y006462D01*
X018890Y006620D02*
X018890Y006620D01*
X018890Y006779D02*
X018890Y006779D01*
X018890Y006937D02*
X018890Y006937D01*
X018890Y007096D02*
X018890Y007096D01*
X018738Y007096D02*
X017594Y007096D01*
X017436Y007254D02*
X018910Y007254D01*
X018910Y007413D02*
X017277Y007413D01*
X017119Y007571D02*
X018450Y007571D01*
X018666Y007571D02*
X018666Y007571D01*
X018666Y007730D02*
X018666Y007730D01*
X018666Y007888D02*
X018666Y007888D01*
X018666Y008047D02*
X018666Y008047D01*
X018666Y008205D02*
X018666Y008205D01*
X018666Y008364D02*
X018666Y008364D01*
X018300Y008364D02*
X016510Y008364D01*
X016510Y008205D02*
X018279Y008205D01*
X018279Y008047D02*
X016643Y008047D01*
X016802Y007888D02*
X018279Y007888D01*
X018287Y007730D02*
X016960Y007730D01*
X016190Y007413D02*
X015527Y007413D01*
X015686Y007254D02*
X016145Y007254D01*
X016170Y007096D02*
X015844Y007096D01*
X018168Y006937D02*
X018400Y006937D01*
X018400Y006779D02*
X018205Y006779D01*
X019640Y006779D02*
X019780Y006779D01*
X019780Y006937D02*
X019742Y006937D01*
X019841Y006620D02*
X019640Y006620D01*
X019640Y006462D02*
X020000Y006462D01*
X020158Y006303D02*
X019640Y006303D01*
X019565Y006145D02*
X020659Y006145D01*
X020761Y005828D02*
X021795Y005828D01*
X021795Y005669D02*
X020948Y005669D01*
X020995Y005511D02*
X021795Y005511D01*
X021795Y005352D02*
X020973Y005352D01*
X021166Y005246D02*
X021166Y004780D01*
X021166Y004780D01*
X021166Y004780D01*
X021166Y004314D01*
X020986Y004314D01*
X020942Y004323D01*
X020900Y004340D01*
X020862Y004365D01*
X020860Y004367D01*
X020860Y003218D01*
X020987Y003092D01*
X021020Y003010D01*
X021054Y003092D01*
X021209Y003246D01*
X021411Y003330D01*
X021630Y003330D01*
X021832Y003246D01*
X021987Y003092D01*
X021995Y003071D01*
X022007Y003094D01*
X022063Y003171D01*
X022130Y003238D01*
X022206Y003293D01*
X022290Y003336D01*
X022380Y003365D01*
X022473Y003380D01*
X022500Y003380D01*
X022500Y002800D01*
X022540Y002800D01*
X022540Y003380D01*
X022568Y003380D01*
X022661Y003365D01*
X022730Y003343D01*
X022730Y003932D01*
X022730Y004028D01*
X022767Y004116D01*
X023079Y004428D01*
X023037Y004469D01*
X023037Y005091D01*
X023143Y005196D01*
X023155Y005196D01*
X023155Y005806D01*
X022451Y006510D01*
X022451Y006213D01*
X022345Y006108D01*
X022275Y006108D01*
X022275Y005020D01*
X022329Y005020D01*
X022329Y005091D01*
X022434Y005196D01*
X022898Y005196D01*
X023004Y005091D01*
X023004Y004469D01*
X022898Y004364D01*
X022434Y004364D01*
X022329Y004469D01*
X022329Y004540D01*
X022212Y004540D01*
X022212Y004469D01*
X022107Y004364D01*
X021643Y004364D01*
X021540Y004466D01*
X021527Y004435D01*
X021502Y004397D01*
X021470Y004365D01*
X021433Y004340D01*
X021391Y004323D01*
X021346Y004314D01*
X021166Y004314D01*
X021166Y004780D01*
X021166Y005246D01*
X021166Y005194D02*
X021166Y005194D01*
X021166Y005035D02*
X021166Y005035D01*
X021166Y004877D02*
X021166Y004877D01*
X021166Y004780D02*
X021537Y004780D01*
X021166Y004780D01*
X021166Y004780D01*
X021166Y004718D02*
X021166Y004718D01*
X021166Y004560D02*
X021166Y004560D01*
X021166Y004401D02*
X021166Y004401D01*
X021505Y004401D02*
X021606Y004401D01*
X022144Y004401D02*
X022397Y004401D01*
X022754Y004084D02*
X020860Y004084D01*
X020860Y003926D02*
X022730Y003926D01*
X022730Y003767D02*
X020860Y003767D01*
X020860Y003609D02*
X022730Y003609D01*
X022730Y003450D02*
X020860Y003450D01*
X020860Y003292D02*
X021318Y003292D01*
X021096Y003133D02*
X020945Y003133D01*
X020318Y003292D02*
X019723Y003292D01*
X019945Y003133D02*
X020096Y003133D01*
X020380Y003450D02*
X018780Y003450D01*
X018760Y003292D02*
X019318Y003292D01*
X019096Y003133D02*
X018945Y003133D01*
X018938Y003609D02*
X020380Y003609D01*
X020380Y003767D02*
X019097Y003767D01*
X019255Y003926D02*
X020380Y003926D01*
X020380Y004084D02*
X019376Y004084D01*
X019385Y004243D02*
X020380Y004243D01*
X020380Y004401D02*
X019385Y004401D01*
X019400Y004445D02*
X019483Y004445D01*
X019528Y004454D01*
X019569Y004471D01*
X019607Y004496D01*
X019639Y004528D01*
X019664Y004566D01*
X019682Y004608D01*
X019690Y004652D01*
X019690Y004970D01*
X019400Y004970D01*
X019400Y004970D01*
X019400Y004970D01*
X019400Y005495D01*
X019483Y005495D01*
X019528Y005486D01*
X019569Y005469D01*
X019607Y005444D01*
X019639Y005412D01*
X019664Y005374D01*
X019682Y005332D01*
X019690Y005288D01*
X019690Y004970D01*
X019400Y004970D01*
X019400Y004445D01*
X019400Y004560D02*
X019400Y004560D01*
X019400Y004718D02*
X019400Y004718D01*
X019400Y004877D02*
X019400Y004877D01*
X019400Y004970D02*
X019400Y004970D01*
X019400Y005035D02*
X019400Y005035D01*
X019400Y005194D02*
X019400Y005194D01*
X019400Y005352D02*
X019400Y005352D01*
X019673Y005352D02*
X020268Y005352D01*
X020245Y005511D02*
X016393Y005511D01*
X016394Y005352D02*
X018368Y005352D01*
X018350Y005194D02*
X016314Y005194D01*
X015843Y004877D02*
X018350Y004877D01*
X018350Y004970D02*
X018640Y004970D01*
X018640Y004970D01*
X018350Y004970D01*
X018350Y005035D02*
X010710Y005035D01*
X010710Y004877D02*
X011262Y004877D01*
X011210Y004718D02*
X010710Y004718D01*
X010721Y004560D02*
X010969Y004560D01*
X010220Y004560D02*
X003700Y004560D01*
X003700Y004718D02*
X010230Y004718D01*
X010230Y004877D02*
X003700Y004877D01*
X003700Y005035D02*
X003795Y005035D01*
X003795Y005194D02*
X003700Y005194D01*
X003700Y005352D02*
X003795Y005352D01*
X003795Y005511D02*
X003700Y005511D01*
X003700Y005669D02*
X003795Y005669D01*
X003795Y005828D02*
X003700Y005828D01*
X003700Y005986D02*
X003795Y005986D01*
X003795Y006145D02*
X003700Y006145D01*
X003700Y006303D02*
X003795Y006303D01*
X003795Y006462D02*
X003700Y006462D01*
X004805Y005352D02*
X010230Y005352D01*
X010230Y005194D02*
X004805Y005194D01*
X004805Y005035D02*
X010230Y005035D01*
X010710Y005194D02*
X015727Y005194D01*
X015647Y005352D02*
X010710Y005352D01*
X010710Y005511D02*
X015601Y005511D01*
X015442Y005669D02*
X010710Y005669D01*
X010710Y005828D02*
X015284Y005828D01*
X015125Y005986D02*
X010710Y005986D01*
X010115Y004401D02*
X003700Y004401D01*
X003700Y004243D02*
X010095Y004243D01*
X010146Y004084D02*
X003700Y004084D01*
X003700Y003926D02*
X010327Y003926D01*
X010168Y003767D02*
X008241Y003767D01*
X008385Y003609D02*
X010010Y003609D01*
X009851Y003450D02*
X008450Y003450D01*
X008463Y003292D02*
X009318Y003292D01*
X009096Y003133D02*
X008463Y003133D01*
X008463Y002975D02*
X009006Y002975D01*
X008970Y002816D02*
X008463Y002816D01*
X008463Y002658D02*
X008976Y002658D01*
X009042Y002499D02*
X008463Y002499D01*
X008568Y002341D02*
X009182Y002341D01*
X008727Y002182D02*
X017280Y002182D01*
X017280Y002024D02*
X008885Y002024D01*
X009044Y001865D02*
X017280Y001865D01*
X017287Y001707D02*
X009202Y001707D01*
X009361Y001548D02*
X017426Y001548D01*
X017624Y001390D02*
X009519Y001390D01*
X009678Y001231D02*
X017823Y001231D01*
X017182Y002341D02*
X016859Y002341D01*
X016999Y002499D02*
X017042Y002499D01*
X016182Y002341D02*
X015859Y002341D01*
X015999Y002499D02*
X016042Y002499D01*
X015182Y002341D02*
X014859Y002341D01*
X014999Y002499D02*
X015042Y002499D01*
X014182Y002341D02*
X013859Y002341D01*
X013999Y002499D02*
X014042Y002499D01*
X013182Y002341D02*
X012859Y002341D01*
X012999Y002499D02*
X013042Y002499D01*
X012182Y002341D02*
X011859Y002341D01*
X011999Y002499D02*
X012042Y002499D01*
X011182Y002341D02*
X010859Y002341D01*
X010999Y002499D02*
X011042Y002499D01*
X010182Y002341D02*
X009859Y002341D01*
X009999Y002499D02*
X010042Y002499D01*
X009132Y000560D02*
X007777Y001915D01*
X007767Y001925D01*
X007767Y001925D01*
X007554Y002013D01*
X007391Y002176D01*
X007319Y002350D01*
X007199Y002350D01*
X006404Y001556D01*
X006721Y001556D01*
X006721Y000976D01*
X006721Y000976D01*
X006721Y001556D01*
X007117Y001556D01*
X007207Y001542D01*
X007294Y001513D01*
X007375Y001472D01*
X007449Y001418D01*
X007514Y001354D01*
X007567Y001280D01*
X007609Y001199D01*
X007637Y001112D01*
X007651Y001022D01*
X007651Y000976D01*
X006721Y000976D01*
X006721Y000976D01*
X007651Y000976D01*
X007651Y000930D01*
X007637Y000840D01*
X007609Y000753D01*
X007567Y000672D01*
X007514Y000598D01*
X007476Y000560D01*
X009132Y000560D01*
X009095Y000597D02*
X007513Y000597D01*
X007610Y000756D02*
X008937Y000756D01*
X008778Y000914D02*
X007649Y000914D01*
X007643Y001073D02*
X008620Y001073D01*
X008461Y001231D02*
X007592Y001231D01*
X007478Y001390D02*
X008303Y001390D01*
X008144Y001548D02*
X007167Y001548D01*
X006721Y001548D02*
X006721Y001548D01*
X006721Y001390D02*
X006721Y001390D01*
X006721Y001231D02*
X006721Y001231D01*
X006721Y001073D02*
X006721Y001073D01*
X005794Y000914D02*
X005761Y000914D01*
X006555Y001707D02*
X007986Y001707D01*
X007827Y001865D02*
X006714Y001865D01*
X006872Y002024D02*
X007544Y002024D01*
X007389Y002182D02*
X007031Y002182D01*
X007189Y002341D02*
X007323Y002341D01*
X006448Y002816D02*
X006100Y002816D01*
X006100Y002905D02*
X005520Y002905D01*
X006100Y002905D01*
X006100Y002975D02*
X006607Y002975D01*
X006765Y003133D02*
X006100Y003133D01*
X006100Y003292D02*
X007303Y003292D01*
X007315Y003450D02*
X006067Y003450D01*
X005981Y003609D02*
X007381Y003609D01*
X007524Y003767D02*
X005793Y003767D01*
X005520Y003767D02*
X005520Y003767D01*
X005520Y003609D02*
X005520Y003609D01*
X005520Y003450D02*
X005520Y003450D01*
X005520Y003292D02*
X005520Y003292D01*
X005520Y003133D02*
X005520Y003133D01*
X005520Y002975D02*
X005520Y002975D01*
X005520Y002905D02*
X005520Y002905D01*
X005520Y002816D02*
X005520Y002816D01*
X005520Y002658D02*
X005520Y002658D01*
X005520Y002499D02*
X005520Y002499D01*
X005520Y002341D02*
X005520Y002341D01*
X005520Y002182D02*
X005520Y002182D01*
X005520Y002024D02*
X005520Y002024D01*
X005497Y001865D02*
X004794Y001865D01*
X004635Y002024D02*
X005286Y002024D01*
X005075Y002182D02*
X004477Y002182D01*
X004318Y002341D02*
X004980Y002341D01*
X004942Y002499D02*
X004160Y002499D01*
X004001Y002658D02*
X004940Y002658D01*
X004940Y002816D02*
X003843Y002816D01*
X003700Y002975D02*
X004940Y002975D01*
X004940Y003133D02*
X003700Y003133D01*
X003700Y003292D02*
X004940Y003292D01*
X004974Y003450D02*
X003700Y003450D01*
X003700Y003609D02*
X005060Y003609D01*
X005248Y003767D02*
X003700Y003767D01*
X006100Y002658D02*
X006290Y002658D01*
X006131Y002499D02*
X006099Y002499D01*
X015520Y004350D02*
X015520Y004980D01*
X015520Y004350D01*
X015520Y004350D01*
X015880Y004350D01*
X015520Y004350D01*
X015520Y004350D01*
X015520Y004401D02*
X015520Y004401D01*
X015520Y004560D02*
X015520Y004560D01*
X015520Y004718D02*
X015520Y004718D01*
X015520Y004877D02*
X015520Y004877D01*
X015880Y004718D02*
X018350Y004718D01*
X018381Y004560D02*
X015880Y004560D01*
X015880Y004401D02*
X018552Y004401D01*
X018394Y004243D02*
X015880Y004243D01*
X015880Y004084D02*
X018235Y004084D01*
X018077Y003926D02*
X015880Y003926D01*
X015825Y003767D02*
X017918Y003767D01*
X017760Y003609D02*
X016031Y003609D01*
X016190Y003450D02*
X017601Y003450D01*
X017318Y003292D02*
X016723Y003292D01*
X016945Y003133D02*
X017096Y003133D01*
X020860Y004243D02*
X022894Y004243D01*
X022935Y004401D02*
X023052Y004401D01*
X023037Y004560D02*
X023004Y004560D01*
X023004Y004718D02*
X023037Y004718D01*
X023037Y004877D02*
X023004Y004877D01*
X023004Y005035D02*
X023037Y005035D01*
X023140Y005194D02*
X022901Y005194D01*
X023155Y005352D02*
X022275Y005352D01*
X022275Y005194D02*
X022431Y005194D01*
X022329Y005035D02*
X022275Y005035D01*
X021640Y005194D02*
X021472Y005194D01*
X021537Y004780D02*
X021537Y004780D01*
X020380Y004718D02*
X019690Y004718D01*
X019690Y004877D02*
X020380Y004877D01*
X020380Y005035D02*
X019690Y005035D01*
X019690Y005194D02*
X020377Y005194D01*
X020293Y005669D02*
X016312Y005669D01*
X016134Y005986D02*
X015804Y005986D01*
X015962Y005828D02*
X020480Y005828D01*
X022275Y005828D02*
X023134Y005828D01*
X023155Y005669D02*
X022275Y005669D01*
X022275Y005511D02*
X023155Y005511D01*
X022975Y005986D02*
X022275Y005986D01*
X022382Y006145D02*
X022817Y006145D01*
X022658Y006303D02*
X022451Y006303D01*
X022451Y006462D02*
X022500Y006462D01*
X022861Y006779D02*
X023535Y006779D01*
X023530Y006781D02*
X023571Y006764D01*
X023616Y006755D01*
X023847Y006755D01*
X023847Y007232D01*
X023942Y007232D01*
X023942Y006791D01*
X023395Y006244D01*
X022835Y006805D01*
X023477Y006805D01*
X023485Y006813D01*
X023492Y006806D01*
X023530Y006781D01*
X023771Y006620D02*
X023020Y006620D01*
X023178Y006462D02*
X023613Y006462D01*
X023454Y006303D02*
X023337Y006303D01*
X023847Y006779D02*
X023930Y006779D01*
X023942Y006937D02*
X023847Y006937D01*
X023847Y007096D02*
X023942Y007096D01*
X023942Y007328D02*
X023847Y007328D01*
X023847Y007805D01*
X023710Y007805D01*
X023710Y008331D01*
X024735Y009355D01*
X024845Y009355D01*
X024930Y009390D01*
X024930Y008220D01*
X024845Y008255D01*
X024696Y008255D01*
X024558Y008198D01*
X024453Y008092D01*
X024395Y007955D01*
X024395Y007844D01*
X024301Y007750D01*
X024297Y007754D01*
X024259Y007779D01*
X024217Y007796D01*
X024173Y007805D01*
X023942Y007805D01*
X023942Y007328D01*
X023942Y007413D02*
X023847Y007413D01*
X023847Y007571D02*
X023942Y007571D01*
X023942Y007730D02*
X023847Y007730D01*
X023710Y007888D02*
X024395Y007888D01*
X024434Y008047D02*
X023710Y008047D01*
X023710Y008205D02*
X024575Y008205D01*
X024930Y008364D02*
X023743Y008364D01*
X023902Y008522D02*
X024930Y008522D01*
X024930Y008681D02*
X024060Y008681D01*
X024219Y008839D02*
X024930Y008839D01*
X024930Y008998D02*
X024377Y008998D01*
X024536Y009156D02*
X024930Y009156D01*
X024930Y009315D02*
X024694Y009315D01*
X022380Y009790D02*
X022331Y009790D01*
X022380Y009949D02*
X022277Y009949D01*
X022178Y010107D02*
X022380Y010107D01*
X022380Y010266D02*
X022245Y010266D01*
X022237Y010424D02*
X022380Y010424D01*
X022329Y010583D02*
X022148Y010583D01*
X022170Y010741D02*
X021212Y010741D01*
X021293Y010900D02*
X022012Y010900D01*
X021853Y011058D02*
X021294Y011058D01*
X021214Y011217D02*
X021695Y011217D01*
X021536Y011375D02*
X021196Y011375D01*
X021286Y011534D02*
X021378Y011534D01*
X021593Y010583D02*
X020398Y010583D01*
X019060Y008364D02*
X019032Y008364D01*
X020099Y008205D02*
X021556Y008205D01*
X021684Y007413D02*
X021357Y007413D01*
X018910Y007571D02*
X018883Y007571D01*
X018640Y005495D02*
X018640Y005340D01*
X018640Y004970D01*
X018640Y005495D01*
X018640Y005352D02*
X018640Y005352D01*
X018640Y005340D02*
X018640Y005340D01*
X018640Y005194D02*
X018640Y005194D01*
X018640Y005035D02*
X018640Y005035D01*
X018640Y004970D02*
X018640Y004970D01*
X019660Y004560D02*
X020380Y004560D01*
X021723Y003292D02*
X022204Y003292D01*
X022035Y003133D02*
X021945Y003133D01*
X022500Y003133D02*
X022540Y003133D01*
X022540Y002975D02*
X022500Y002975D01*
X022500Y002816D02*
X022540Y002816D01*
X022540Y003292D02*
X022500Y003292D01*
X028136Y005387D02*
X028447Y005208D01*
X028700Y004954D01*
X028879Y004644D01*
X028972Y004298D01*
X028972Y003939D01*
X028879Y003593D01*
X028845Y003533D01*
X028892Y003533D01*
X028892Y003605D01*
X028950Y003744D01*
X029056Y003851D01*
X029195Y003908D01*
X029346Y003908D01*
X029485Y003851D01*
X029591Y003744D01*
X029649Y003605D01*
X029649Y003455D01*
X029591Y003316D01*
X029510Y003235D01*
X029510Y002782D01*
X029474Y002694D01*
X029406Y002627D01*
X028550Y001770D01*
X030164Y001770D01*
X030153Y001781D01*
X030097Y001859D01*
X030053Y001945D01*
X030023Y002037D01*
X030008Y002132D01*
X030008Y002132D01*
X030573Y002132D01*
X030573Y002228D01*
X030573Y002792D01*
X030572Y002792D01*
X030477Y002777D01*
X030385Y002748D01*
X030299Y002704D01*
X030221Y002647D01*
X030153Y002579D01*
X030097Y002501D01*
X030053Y002415D01*
X030023Y002323D01*
X030008Y002228D01*
X030008Y002228D01*
X030573Y002228D01*
X030668Y002228D01*
X030668Y002792D01*
X030669Y002792D01*
X030764Y002777D01*
X030856Y002748D01*
X030941Y002704D01*
X031019Y002647D01*
X031088Y002579D01*
X031144Y002501D01*
X031188Y002415D01*
X031218Y002323D01*
X031233Y002228D01*
X031233Y002228D01*
X030668Y002228D01*
X030668Y002132D01*
X031233Y002132D01*
X031233Y002132D01*
X031218Y002037D01*
X031188Y001945D01*
X031144Y001859D01*
X031088Y001781D01*
X031077Y001770D01*
X034164Y001770D01*
X034153Y001781D01*
X034097Y001859D01*
X034053Y001945D01*
X034023Y002037D01*
X034008Y002132D01*
X034008Y002132D01*
X034573Y002132D01*
X034573Y002228D01*
X034573Y002792D01*
X034572Y002792D01*
X034477Y002777D01*
X034385Y002748D01*
X034299Y002704D01*
X034221Y002647D01*
X034153Y002579D01*
X034097Y002501D01*
X034053Y002415D01*
X034023Y002323D01*
X034008Y002228D01*
X034008Y002228D01*
X034573Y002228D01*
X034668Y002228D01*
X034668Y002792D01*
X034669Y002792D01*
X034764Y002777D01*
X034856Y002748D01*
X034941Y002704D01*
X035019Y002647D01*
X035088Y002579D01*
X035144Y002501D01*
X035188Y002415D01*
X035218Y002323D01*
X035233Y002228D01*
X035233Y002228D01*
X034668Y002228D01*
X034668Y002132D01*
X035233Y002132D01*
X035233Y002132D01*
X035218Y002037D01*
X035188Y001945D01*
X035144Y001859D01*
X035088Y001781D01*
X035077Y001770D01*
X037030Y001770D01*
X036971Y001813D01*
X036903Y001881D01*
X036847Y001959D01*
X036803Y002045D01*
X036773Y002137D01*
X036758Y002232D01*
X036758Y002232D01*
X037323Y002232D01*
X037323Y002328D01*
X037323Y002892D01*
X037322Y002892D01*
X037227Y002877D01*
X037135Y002848D01*
X037049Y002804D01*
X036971Y002747D01*
X036903Y002679D01*
X036847Y002601D01*
X036803Y002515D01*
X036773Y002423D01*
X036758Y002328D01*
X036758Y002328D01*
X037323Y002328D01*
X037418Y002328D01*
X037418Y002892D01*
X037419Y002892D01*
X037514Y002877D01*
X037606Y002848D01*
X037691Y002804D01*
X037769Y002747D01*
X037838Y002679D01*
X037894Y002601D01*
X037938Y002515D01*
X037968Y002423D01*
X037983Y002328D01*
X037983Y002328D01*
X037418Y002328D01*
X037418Y002232D01*
X037983Y002232D01*
X037983Y002232D01*
X037968Y002137D01*
X037938Y002045D01*
X037894Y001959D01*
X037838Y001881D01*
X037769Y001813D01*
X037711Y001770D01*
X041030Y001770D01*
X040971Y001813D01*
X040903Y001881D01*
X040847Y001959D01*
X040803Y002045D01*
X040773Y002137D01*
X040758Y002232D01*
X040758Y002232D01*
X041323Y002232D01*
X041323Y002328D01*
X041323Y002892D01*
X041322Y002892D01*
X041227Y002877D01*
X041135Y002848D01*
X041049Y002804D01*
X040971Y002747D01*
X040903Y002679D01*
X040847Y002601D01*
X040803Y002515D01*
X040773Y002423D01*
X040758Y002328D01*
X040758Y002328D01*
X041323Y002328D01*
X041418Y002328D01*
X041418Y002892D01*
X041419Y002892D01*
X041514Y002877D01*
X041606Y002848D01*
X041691Y002804D01*
X041769Y002747D01*
X041838Y002679D01*
X041894Y002601D01*
X041938Y002515D01*
X041968Y002423D01*
X041983Y002328D01*
X041983Y002328D01*
X041418Y002328D01*
X041418Y002232D01*
X041983Y002232D01*
X041983Y002232D01*
X041968Y002137D01*
X041938Y002045D01*
X041894Y001959D01*
X041838Y001881D01*
X041769Y001813D01*
X041711Y001770D01*
X045765Y001770D01*
X045761Y001772D01*
X045582Y001950D01*
X045485Y002184D01*
X045485Y002436D01*
X045582Y002670D01*
X045761Y002848D01*
X045994Y002945D01*
X046247Y002945D01*
X046480Y002848D01*
X046659Y002670D01*
X046755Y002436D01*
X046755Y002184D01*
X046659Y001950D01*
X046480Y001772D01*
X046476Y001770D01*
X052365Y001770D01*
X052361Y001772D01*
X052182Y001950D01*
X052085Y002184D01*
X052085Y002436D01*
X052182Y002670D01*
X052361Y002848D01*
X052594Y002945D01*
X052847Y002945D01*
X053080Y002848D01*
X053259Y002670D01*
X053355Y002436D01*
X053355Y002184D01*
X053259Y001950D01*
X053080Y001772D01*
X053076Y001770D01*
X057471Y001770D01*
X059280Y003579D01*
X059280Y004781D01*
X058521Y005540D01*
X057423Y005540D01*
X057335Y005577D01*
X057135Y005777D01*
X057135Y005777D01*
X057067Y005844D01*
X057030Y005932D01*
X057030Y007690D01*
X056590Y007690D01*
X056590Y008030D01*
X055930Y008030D01*
X055930Y007897D01*
X055939Y007853D01*
X055957Y007811D01*
X055982Y007773D01*
X056014Y007741D01*
X056052Y007716D01*
X056093Y007699D01*
X056138Y007690D01*
X056590Y007690D01*
X056590Y008030D01*
X056590Y008030D01*
X055930Y008030D01*
X055930Y008155D01*
X055860Y008084D01*
X055721Y008027D01*
X055570Y008027D01*
X055431Y008084D01*
X055325Y008191D01*
X055267Y008330D01*
X055267Y008480D01*
X055325Y008619D01*
X055423Y008718D01*
X055325Y008816D01*
X055267Y008955D01*
X055267Y009105D01*
X055325Y009244D01*
X055431Y009351D01*
X055570Y009408D01*
X055721Y009408D01*
X055860Y009351D01*
X055940Y009270D01*
X056036Y009270D01*
X056046Y009280D01*
X055980Y009345D01*
X055980Y009356D01*
X055942Y009394D01*
X055192Y010144D01*
X055155Y010232D01*
X055155Y011828D01*
X055192Y011916D01*
X055260Y011983D01*
X055980Y012704D01*
X055980Y012715D01*
X056086Y012820D01*
X056350Y012820D01*
X056350Y013436D01*
X055597Y014189D01*
X055690Y013963D01*
X055690Y013597D01*
X055550Y013259D01*
X055292Y013000D01*
X054953Y012860D01*
X054587Y012860D01*
X054249Y013000D01*
X053991Y013259D01*
X053850Y013597D01*
X053850Y013963D01*
X053991Y014301D01*
X054249Y014560D01*
X054587Y014700D01*
X054953Y014700D01*
X055180Y014606D01*
X054621Y015165D01*
X025410Y015165D01*
X025410Y014859D01*
X025435Y014883D01*
X025523Y014920D01*
X042918Y014920D01*
X043006Y014883D01*
X043074Y014816D01*
X046161Y011729D01*
X046180Y011737D01*
X046361Y011737D01*
X046529Y011668D01*
X046658Y011539D01*
X046728Y011371D01*
X046728Y011189D01*
X046658Y011021D01*
X046529Y010892D01*
X046401Y010839D01*
X049635Y007605D01*
X049745Y007605D01*
X049883Y007548D01*
X049988Y007442D01*
X050045Y007305D01*
X050045Y007155D01*
X050010Y007070D01*
X050180Y007070D01*
X050180Y009328D01*
X050217Y009416D01*
X050640Y009839D01*
X050512Y009892D01*
X050383Y010021D01*
X050313Y010189D01*
X050313Y010371D01*
X050383Y010539D01*
X050512Y010668D01*
X050680Y010737D01*
X050861Y010737D01*
X051029Y010668D01*
X051030Y010667D01*
X051030Y010885D01*
X051012Y010892D01*
X050883Y011021D01*
X050813Y011189D01*
X050813Y011371D01*
X050883Y011539D01*
X051012Y011668D01*
X051180Y011737D01*
X051361Y011737D01*
X051529Y011668D01*
X051658Y011539D01*
X051728Y011371D01*
X051728Y011189D01*
X051658Y011021D01*
X051529Y010892D01*
X051510Y010885D01*
X051510Y010667D01*
X051512Y010668D01*
X051680Y010737D01*
X051861Y010737D01*
X051980Y010688D01*
X051980Y010923D01*
X051883Y011021D01*
X051813Y011189D01*
X051813Y011371D01*
X051883Y011539D01*
X052012Y011668D01*
X052180Y011737D01*
X052361Y011737D01*
X052529Y011668D01*
X052658Y011539D01*
X052728Y011371D01*
X052728Y011189D01*
X052658Y011021D01*
X052529Y010892D01*
X052460Y010864D01*
X052460Y010617D01*
X052512Y010668D01*
X052680Y010737D01*
X052861Y010737D01*
X053029Y010668D01*
X053030Y010667D01*
X053030Y010885D01*
X053012Y010892D01*
X052883Y011021D01*
X052813Y011189D01*
X052813Y011371D01*
X052883Y011539D01*
X053012Y011668D01*
X053180Y011737D01*
X053361Y011737D01*
X053529Y011668D01*
X053658Y011539D01*
X053728Y011371D01*
X053728Y011189D01*
X053658Y011021D01*
X053529Y010892D01*
X053510Y010885D01*
X053510Y010717D01*
X053576Y010750D01*
X053652Y010775D01*
X053731Y010787D01*
X053762Y010787D01*
X053762Y010289D01*
X053779Y010289D01*
X053779Y010787D01*
X053810Y010787D01*
X053889Y010775D01*
X053965Y010750D01*
X054036Y010714D01*
X054101Y010667D01*
X054157Y010610D01*
X054204Y010546D01*
X054240Y010475D01*
X054265Y010399D01*
X054278Y010320D01*
X054278Y010289D01*
X053779Y010289D01*
X053779Y010271D01*
X053779Y009773D01*
X053810Y009773D01*
X053889Y009785D01*
X053965Y009810D01*
X054036Y009846D01*
X054101Y009893D01*
X054157Y009950D01*
X054204Y010014D01*
X054240Y010085D01*
X054265Y010161D01*
X054278Y010240D01*
X054278Y010271D01*
X053779Y010271D01*
X053762Y010271D01*
X053762Y009773D01*
X053731Y009773D01*
X053652Y009785D01*
X053576Y009810D01*
X053510Y009843D01*
X053510Y007982D01*
X053474Y007894D01*
X053406Y007827D01*
X052045Y006466D01*
X052045Y006355D01*
X051988Y006218D01*
X051883Y006112D01*
X051745Y006055D01*
X051596Y006055D01*
X051458Y006112D01*
X051353Y006218D01*
X051322Y006292D01*
X050671Y005641D01*
X050749Y005628D01*
X050837Y005600D01*
X050918Y005558D01*
X050992Y005504D01*
X051057Y005439D01*
X051111Y005365D01*
X051153Y005284D01*
X051181Y005196D01*
X051195Y005106D01*
X051195Y005098D01*
X050298Y005098D01*
X050298Y005022D01*
X050298Y004478D01*
X050659Y004478D01*
X050749Y004492D01*
X050837Y004520D01*
X050918Y004562D01*
X050992Y004616D01*
X051057Y004681D01*
X051111Y004755D01*
X051153Y004836D01*
X051181Y004924D01*
X051195Y005014D01*
X051195Y005022D01*
X050298Y005022D01*
X050223Y005022D01*
X050223Y004478D01*
X049862Y004478D01*
X049772Y004492D01*
X049684Y004520D01*
X049603Y004562D01*
X049528Y004616D01*
X049464Y004681D01*
X049420Y004740D01*
X049377Y004681D01*
X049312Y004616D01*
X049238Y004562D01*
X049157Y004520D01*
X049069Y004492D01*
X048979Y004478D01*
X048618Y004478D01*
X048618Y005022D01*
X048543Y005022D01*
X048543Y004478D01*
X048182Y004478D01*
X048092Y004492D01*
X048004Y004520D01*
X047923Y004562D01*
X047848Y004616D01*
X047784Y004681D01*
X047730Y004755D01*
X047688Y004836D01*
X047660Y004924D01*
X047645Y005014D01*
X047645Y005022D01*
X048543Y005022D01*
X048543Y005098D01*
X047645Y005098D01*
X047645Y005106D01*
X047660Y005196D01*
X047688Y005284D01*
X047717Y005340D01*
X046820Y005340D01*
X045874Y004394D01*
X045874Y004394D01*
X045806Y004327D01*
X045718Y004290D01*
X040160Y004290D01*
X040160Y003982D01*
X040124Y003894D01*
X039824Y003594D01*
X039756Y003527D01*
X039668Y003490D01*
X035123Y003490D01*
X035035Y003527D01*
X034967Y003594D01*
X034930Y003682D01*
X034930Y005651D01*
X034856Y005612D01*
X034764Y005583D01*
X034669Y005568D01*
X034668Y005568D01*
X034668Y006132D01*
X034573Y006132D01*
X034573Y005567D01*
X034572Y005568D01*
X034477Y005583D01*
X034385Y005612D01*
X034299Y005656D01*
X034221Y005713D01*
X034153Y005781D01*
X034097Y005859D01*
X034053Y005945D01*
X034023Y006037D01*
X034008Y006132D01*
X034008Y006132D01*
X034573Y006132D01*
X034573Y006228D01*
X034573Y006792D01*
X034572Y006792D01*
X034477Y006777D01*
X034385Y006748D01*
X034299Y006704D01*
X034221Y006647D01*
X034153Y006579D01*
X034097Y006501D01*
X034053Y006415D01*
X034023Y006323D01*
X034008Y006228D01*
X034008Y006228D01*
X034573Y006228D01*
X034668Y006228D01*
X034668Y006743D01*
X031261Y010150D01*
X031240Y010085D01*
X031204Y010014D01*
X031157Y009950D01*
X031101Y009893D01*
X031036Y009846D01*
X030965Y009810D01*
X030889Y009785D01*
X030810Y009773D01*
X030779Y009773D01*
X030779Y010271D01*
X030762Y010271D01*
X030762Y009773D01*
X030731Y009773D01*
X030652Y009785D01*
X030576Y009810D01*
X030505Y009846D01*
X030440Y009893D01*
X030407Y009927D01*
X030174Y009694D01*
X030106Y009627D01*
X030018Y009590D01*
X028173Y009590D01*
X028085Y009627D01*
X028017Y009694D01*
X028010Y009710D01*
X028010Y007482D01*
X027974Y007394D01*
X026260Y005681D01*
X026260Y005399D01*
X026396Y005455D01*
X026506Y005455D01*
X028645Y007594D01*
X028645Y007705D01*
X028703Y007842D01*
X028808Y007948D01*
X028946Y008005D01*
X029095Y008005D01*
X029233Y007948D01*
X029338Y007842D01*
X029395Y007705D01*
X029395Y007555D01*
X029338Y007418D01*
X029233Y007312D01*
X029095Y007255D01*
X028985Y007255D01*
X027128Y005398D01*
X027432Y005480D01*
X027790Y005480D01*
X028136Y005387D01*
X028197Y005352D02*
X034930Y005352D01*
X034930Y005194D02*
X028461Y005194D01*
X028619Y005035D02*
X034930Y005035D01*
X034930Y004877D02*
X028745Y004877D01*
X028837Y004718D02*
X032449Y004718D01*
X032509Y004742D02*
X032302Y004657D01*
X032144Y004499D01*
X032058Y004292D01*
X032058Y004068D01*
X032144Y003861D01*
X032302Y003703D01*
X032509Y003618D01*
X032732Y003618D01*
X032939Y003703D01*
X033097Y003861D01*
X033183Y004068D01*
X033183Y004292D01*
X033097Y004499D01*
X032939Y004657D01*
X032732Y004742D01*
X032509Y004742D01*
X032791Y004718D02*
X034930Y004718D01*
X034930Y004560D02*
X033036Y004560D01*
X033138Y004401D02*
X034930Y004401D01*
X034930Y004243D02*
X033183Y004243D01*
X033183Y004084D02*
X034930Y004084D01*
X034930Y003926D02*
X033124Y003926D01*
X033003Y003767D02*
X034930Y003767D01*
X034961Y003609D02*
X029647Y003609D01*
X029647Y003450D02*
X042905Y003450D01*
X042857Y003402D02*
X042775Y003206D01*
X042775Y002994D01*
X042857Y002798D01*
X043006Y002649D01*
X043202Y002568D01*
X044119Y002568D01*
X044315Y002649D01*
X044464Y002798D01*
X044545Y002994D01*
X044545Y003206D01*
X044464Y003402D01*
X044315Y003551D01*
X044119Y003632D01*
X043202Y003632D01*
X043006Y003551D01*
X042857Y003402D01*
X042811Y003292D02*
X029567Y003292D01*
X029510Y003133D02*
X042775Y003133D01*
X042784Y002975D02*
X029510Y002975D01*
X029510Y002816D02*
X037073Y002816D01*
X036888Y002658D02*
X035005Y002658D01*
X035145Y002499D02*
X036798Y002499D01*
X036760Y002341D02*
X035212Y002341D01*
X034668Y002341D02*
X034573Y002341D01*
X034573Y002499D02*
X034668Y002499D01*
X034668Y002658D02*
X034573Y002658D01*
X034236Y002658D02*
X031005Y002658D01*
X031145Y002499D02*
X034096Y002499D01*
X034029Y002341D02*
X031212Y002341D01*
X030668Y002341D02*
X030573Y002341D01*
X030573Y002499D02*
X030668Y002499D01*
X030668Y002658D02*
X030573Y002658D01*
X030236Y002658D02*
X029437Y002658D01*
X029279Y002499D02*
X030096Y002499D01*
X030029Y002341D02*
X029120Y002341D01*
X028962Y002182D02*
X030573Y002182D01*
X030668Y002182D02*
X034573Y002182D01*
X034668Y002182D02*
X036766Y002182D01*
X036814Y002024D02*
X035214Y002024D01*
X035147Y001865D02*
X036919Y001865D01*
X037822Y001865D02*
X040919Y001865D01*
X040814Y002024D02*
X037927Y002024D01*
X037975Y002182D02*
X040766Y002182D01*
X040760Y002341D02*
X037981Y002341D01*
X037943Y002499D02*
X040798Y002499D01*
X040888Y002658D02*
X037853Y002658D01*
X037668Y002816D02*
X041073Y002816D01*
X041323Y002816D02*
X041418Y002816D01*
X041418Y002658D02*
X041323Y002658D01*
X041323Y002499D02*
X041418Y002499D01*
X041418Y002341D02*
X041323Y002341D01*
X041853Y002658D02*
X042997Y002658D01*
X042849Y002816D02*
X041668Y002816D01*
X041943Y002499D02*
X045511Y002499D01*
X045485Y002341D02*
X041981Y002341D01*
X041975Y002182D02*
X045486Y002182D01*
X045552Y002024D02*
X041927Y002024D01*
X041822Y001865D02*
X045667Y001865D01*
X046573Y001865D02*
X052267Y001865D01*
X052152Y002024D02*
X046689Y002024D01*
X046755Y002182D02*
X052086Y002182D01*
X052085Y002341D02*
X046755Y002341D01*
X046730Y002499D02*
X052111Y002499D01*
X052177Y002658D02*
X050924Y002658D01*
X050915Y002649D02*
X051064Y002798D01*
X051145Y002994D01*
X051145Y003206D01*
X051064Y003402D01*
X050915Y003551D01*
X050719Y003632D01*
X049802Y003632D01*
X049606Y003551D01*
X049457Y003402D01*
X049420Y003315D01*
X049384Y003402D01*
X049235Y003551D01*
X049039Y003632D01*
X048122Y003632D01*
X047926Y003551D01*
X047777Y003402D01*
X047695Y003206D01*
X047695Y002994D01*
X047777Y002798D01*
X047926Y002649D01*
X048122Y002568D01*
X049039Y002568D01*
X049235Y002649D01*
X049384Y002798D01*
X049420Y002885D01*
X049457Y002798D01*
X049606Y002649D01*
X049802Y002568D01*
X050719Y002568D01*
X050915Y002649D01*
X051072Y002816D02*
X052328Y002816D01*
X051137Y002975D02*
X054304Y002975D01*
X054295Y002994D02*
X054377Y002798D01*
X054526Y002649D01*
X054722Y002568D01*
X055639Y002568D01*
X055835Y002649D01*
X055984Y002798D01*
X056065Y002994D01*
X056065Y003206D01*
X055984Y003402D01*
X055835Y003551D01*
X055639Y003632D01*
X054722Y003632D01*
X054526Y003551D01*
X054377Y003402D01*
X054295Y003206D01*
X054295Y002994D01*
X054295Y003133D02*
X051145Y003133D01*
X051110Y003292D02*
X054331Y003292D01*
X054425Y003450D02*
X051016Y003450D01*
X050777Y003609D02*
X054664Y003609D01*
X055697Y003609D02*
X056366Y003609D01*
X056370Y003593D02*
X056549Y003283D01*
X056803Y003029D01*
X057113Y002850D01*
X057459Y002757D01*
X057818Y002757D01*
X058164Y002850D01*
X058474Y003029D01*
X058728Y003283D01*
X058907Y003593D01*
X059000Y003939D01*
X059000Y004298D01*
X058907Y004644D01*
X058728Y004954D01*
X058474Y005208D01*
X058164Y005387D01*
X057818Y005480D01*
X057459Y005480D01*
X057113Y005387D01*
X056803Y005208D01*
X056549Y004954D01*
X056370Y004644D01*
X056277Y004298D01*
X056277Y003939D01*
X056370Y003593D01*
X056453Y003450D02*
X055936Y003450D01*
X056030Y003292D02*
X056544Y003292D01*
X056699Y003133D02*
X056065Y003133D01*
X056057Y002975D02*
X056898Y002975D01*
X057241Y002816D02*
X055992Y002816D01*
X055844Y002658D02*
X058359Y002658D01*
X058517Y002816D02*
X058036Y002816D01*
X058379Y002975D02*
X058676Y002975D01*
X058578Y003133D02*
X058834Y003133D01*
X058733Y003292D02*
X058993Y003292D01*
X059151Y003450D02*
X058824Y003450D01*
X058911Y003609D02*
X059280Y003609D01*
X059280Y003767D02*
X058953Y003767D01*
X058996Y003926D02*
X059280Y003926D01*
X059280Y004084D02*
X059000Y004084D01*
X059000Y004243D02*
X059280Y004243D01*
X059280Y004401D02*
X058972Y004401D01*
X058930Y004560D02*
X059280Y004560D01*
X059280Y004718D02*
X058864Y004718D01*
X058773Y004877D02*
X059185Y004877D01*
X059026Y005035D02*
X058647Y005035D01*
X058489Y005194D02*
X058868Y005194D01*
X058709Y005352D02*
X058224Y005352D01*
X058551Y005511D02*
X055904Y005511D01*
X055912Y005504D02*
X055838Y005558D01*
X055757Y005600D01*
X055669Y005628D01*
X055579Y005642D01*
X055218Y005642D01*
X055218Y005098D01*
X055143Y005098D01*
X055143Y005642D01*
X054782Y005642D01*
X054692Y005628D01*
X054604Y005600D01*
X054523Y005558D01*
X054448Y005504D01*
X054384Y005439D01*
X054330Y005365D01*
X054288Y005284D01*
X054260Y005196D01*
X054245Y005106D01*
X054245Y005098D01*
X055143Y005098D01*
X055143Y005022D01*
X055218Y005022D01*
X055218Y004478D01*
X055579Y004478D01*
X055669Y004492D01*
X055757Y004520D01*
X055838Y004562D01*
X055912Y004616D01*
X055977Y004681D01*
X056031Y004755D01*
X056073Y004836D01*
X056101Y004924D01*
X056115Y005014D01*
X056115Y005022D01*
X055218Y005022D01*
X055218Y005098D01*
X056115Y005098D01*
X056115Y005106D01*
X056101Y005196D01*
X056073Y005284D01*
X056031Y005365D01*
X055977Y005439D01*
X055912Y005504D01*
X056038Y005352D02*
X057053Y005352D01*
X056789Y005194D02*
X056102Y005194D01*
X056086Y004877D02*
X056505Y004877D01*
X056413Y004718D02*
X056005Y004718D01*
X055834Y004560D02*
X056348Y004560D01*
X056305Y004401D02*
X045881Y004401D01*
X046039Y004560D02*
X047927Y004560D01*
X047756Y004718D02*
X046198Y004718D01*
X046356Y004877D02*
X047675Y004877D01*
X047659Y005194D02*
X046673Y005194D01*
X046515Y005035D02*
X048543Y005035D01*
X048618Y005035D02*
X050223Y005035D01*
X050223Y005022D02*
X048618Y005022D01*
X048618Y005098D01*
X049325Y005098D01*
X050223Y005098D01*
X050223Y005022D01*
X050298Y005035D02*
X055143Y005035D01*
X055143Y005022D02*
X054245Y005022D01*
X054245Y005014D01*
X054260Y004924D01*
X054288Y004836D01*
X054330Y004755D01*
X054384Y004681D01*
X054448Y004616D01*
X054523Y004562D01*
X054604Y004520D01*
X054692Y004492D01*
X054782Y004478D01*
X055143Y004478D01*
X055143Y005022D01*
X055218Y005035D02*
X056630Y005035D01*
X055218Y004877D02*
X055143Y004877D01*
X055143Y004718D02*
X055218Y004718D01*
X055218Y004560D02*
X055143Y004560D01*
X054527Y004560D02*
X050914Y004560D01*
X051085Y004718D02*
X054356Y004718D01*
X054275Y004877D02*
X051166Y004877D01*
X051182Y005194D02*
X054259Y005194D01*
X054323Y005352D02*
X053121Y005352D01*
X053080Y005312D02*
X053259Y005490D01*
X053355Y005724D01*
X053355Y005976D01*
X053259Y006210D01*
X053080Y006388D01*
X052847Y006485D01*
X052594Y006485D01*
X052361Y006388D01*
X052182Y006210D01*
X052085Y005976D01*
X052085Y005724D01*
X052182Y005490D01*
X052361Y005312D01*
X052594Y005215D01*
X052847Y005215D01*
X053080Y005312D01*
X053267Y005511D02*
X054457Y005511D01*
X055143Y005511D02*
X055218Y005511D01*
X055218Y005352D02*
X055143Y005352D01*
X055143Y005194D02*
X055218Y005194D01*
X053333Y005669D02*
X057242Y005669D01*
X057084Y005828D02*
X053355Y005828D01*
X053351Y005986D02*
X057030Y005986D01*
X057030Y006145D02*
X053286Y006145D01*
X053165Y006303D02*
X057030Y006303D01*
X057030Y006462D02*
X052903Y006462D01*
X052537Y006462D02*
X052045Y006462D01*
X052024Y006303D02*
X052275Y006303D01*
X052155Y006145D02*
X051915Y006145D01*
X052089Y005986D02*
X051016Y005986D01*
X051174Y006145D02*
X051426Y006145D01*
X050857Y005828D02*
X052085Y005828D01*
X052108Y005669D02*
X050699Y005669D01*
X050984Y005511D02*
X052174Y005511D01*
X052320Y005352D02*
X051118Y005352D01*
X050298Y004877D02*
X050223Y004877D01*
X050223Y004718D02*
X050298Y004718D01*
X050298Y004560D02*
X050223Y004560D01*
X049607Y004560D02*
X049234Y004560D01*
X049405Y004718D02*
X049436Y004718D01*
X048618Y004718D02*
X048543Y004718D01*
X048543Y004560D02*
X048618Y004560D01*
X048618Y004877D02*
X048543Y004877D01*
X050171Y005820D02*
X046755Y005820D01*
X046755Y005976D01*
X046659Y006210D01*
X046480Y006388D01*
X046247Y006485D01*
X045994Y006485D01*
X045761Y006388D01*
X045582Y006210D01*
X045485Y005976D01*
X045485Y005724D01*
X045582Y005490D01*
X045761Y005312D01*
X045994Y005215D01*
X046016Y005215D01*
X045571Y004770D01*
X044519Y004770D01*
X044553Y004836D01*
X044581Y004924D01*
X044595Y005014D01*
X044595Y005022D01*
X043698Y005022D01*
X043698Y005098D01*
X043623Y005098D01*
X043623Y005642D01*
X043262Y005642D01*
X043172Y005628D01*
X043084Y005600D01*
X043003Y005558D01*
X042928Y005504D01*
X042864Y005439D01*
X042810Y005365D01*
X042768Y005284D01*
X042740Y005196D01*
X042725Y005106D01*
X042725Y005098D01*
X043623Y005098D01*
X043623Y005022D01*
X042725Y005022D01*
X042725Y005014D01*
X042740Y004924D01*
X042768Y004836D01*
X042802Y004770D01*
X039873Y004770D01*
X039785Y004733D01*
X039749Y004697D01*
X039689Y004757D01*
X039610Y004789D01*
X039610Y005128D01*
X039574Y005216D01*
X039506Y005283D01*
X037060Y007729D01*
X037060Y009872D01*
X037180Y009823D01*
X037361Y009823D01*
X037480Y009872D01*
X037480Y009770D01*
X037403Y009692D01*
X037345Y009555D01*
X037345Y009405D01*
X037403Y009268D01*
X037508Y009162D01*
X037646Y009105D01*
X037795Y009105D01*
X037933Y009162D01*
X038038Y009268D01*
X038095Y009405D01*
X038095Y009555D01*
X038038Y009692D01*
X037960Y009770D01*
X037960Y009878D01*
X038005Y009846D01*
X038076Y009810D01*
X038152Y009785D01*
X038231Y009773D01*
X038262Y009773D01*
X038262Y010271D01*
X038279Y010271D01*
X038279Y009773D01*
X038310Y009773D01*
X038389Y009785D01*
X038465Y009810D01*
X038536Y009846D01*
X038601Y009893D01*
X038657Y009950D01*
X038704Y010014D01*
X038740Y010085D01*
X038765Y010161D01*
X038778Y010240D01*
X038778Y010271D01*
X038279Y010271D01*
X038279Y010289D01*
X038262Y010289D01*
X038262Y010787D01*
X038231Y010787D01*
X038152Y010775D01*
X038076Y010750D01*
X038005Y010714D01*
X037960Y010682D01*
X037960Y010864D01*
X038029Y010892D01*
X038158Y011021D01*
X038228Y011189D01*
X038228Y011371D01*
X038158Y011539D01*
X038029Y011668D01*
X037861Y011737D01*
X037680Y011737D01*
X037512Y011668D01*
X037460Y011617D01*
X037460Y012140D01*
X037538Y012218D01*
X037595Y012355D01*
X037595Y012505D01*
X037560Y012590D01*
X044271Y012590D01*
X045140Y011721D01*
X045012Y011668D01*
X044883Y011539D01*
X044813Y011371D01*
X044813Y011189D01*
X044883Y011021D01*
X045012Y010892D01*
X045030Y010885D01*
X045030Y010667D01*
X045029Y010668D01*
X044861Y010737D01*
X044680Y010737D01*
X044512Y010668D01*
X044383Y010539D01*
X044313Y010371D01*
X044313Y010189D01*
X044369Y010055D01*
X044335Y010055D01*
X044220Y010170D01*
X044228Y010189D01*
X044228Y010371D01*
X044158Y010539D01*
X044029Y010668D01*
X043861Y010737D01*
X043680Y010737D01*
X043512Y010668D01*
X043510Y010667D01*
X043510Y010885D01*
X043529Y010892D01*
X043658Y011021D01*
X043728Y011189D01*
X043728Y011371D01*
X043658Y011539D01*
X043529Y011668D01*
X043361Y011737D01*
X043180Y011737D01*
X043012Y011668D01*
X042883Y011539D01*
X042813Y011371D01*
X042813Y011189D01*
X042883Y011021D01*
X043012Y010892D01*
X043030Y010885D01*
X043030Y010667D01*
X043029Y010668D01*
X042861Y010737D01*
X042680Y010737D01*
X042512Y010668D01*
X042383Y010539D01*
X042313Y010371D01*
X042313Y010189D01*
X042383Y010021D01*
X042512Y009892D01*
X042676Y009824D01*
X041656Y008805D01*
X041546Y008805D01*
X041408Y008748D01*
X041303Y008642D01*
X041245Y008505D01*
X041245Y008355D01*
X041303Y008218D01*
X041408Y008112D01*
X041546Y008055D01*
X041695Y008055D01*
X041833Y008112D01*
X041938Y008218D01*
X041995Y008355D01*
X041995Y008466D01*
X043406Y009877D01*
X043406Y009877D01*
X043467Y009937D01*
X043512Y009892D01*
X043680Y009823D01*
X043861Y009823D01*
X043880Y009831D01*
X043995Y009716D01*
X043995Y009605D01*
X044053Y009468D01*
X044158Y009362D01*
X044232Y009331D01*
X042906Y008005D01*
X042796Y008005D01*
X042658Y007948D01*
X042553Y007842D01*
X042495Y007705D01*
X042495Y007555D01*
X042553Y007418D01*
X042658Y007312D01*
X042796Y007255D01*
X042945Y007255D01*
X043083Y007312D01*
X043188Y007418D01*
X043245Y007555D01*
X043245Y007666D01*
X045406Y009827D01*
X045406Y009827D01*
X045459Y009879D01*
X045505Y009846D01*
X045576Y009810D01*
X045652Y009785D01*
X045731Y009773D01*
X045762Y009773D01*
X045762Y010271D01*
X045779Y010271D01*
X045779Y009773D01*
X045810Y009773D01*
X045889Y009785D01*
X045965Y009810D01*
X046036Y009846D01*
X046101Y009893D01*
X046157Y009950D01*
X046204Y010014D01*
X046240Y010085D01*
X046265Y010161D01*
X046278Y010240D01*
X046278Y010271D01*
X045779Y010271D01*
X045779Y010289D01*
X045779Y010782D01*
X045599Y010962D01*
X045529Y010892D01*
X045510Y010885D01*
X045510Y010717D01*
X045576Y010750D01*
X045652Y010775D01*
X045731Y010787D01*
X045762Y010787D01*
X045762Y010289D01*
X045779Y010289D01*
X046272Y010289D01*
X048982Y007579D01*
X048908Y007548D01*
X048803Y007442D01*
X048745Y007305D01*
X048745Y007155D01*
X048803Y007018D01*
X048908Y006912D01*
X049046Y006855D01*
X049156Y006855D01*
X049317Y006694D01*
X049385Y006627D01*
X049473Y006590D01*
X050468Y006590D01*
X050556Y006627D01*
X050624Y006694D01*
X050660Y006782D01*
X050660Y009181D01*
X051406Y009927D01*
X051442Y009962D01*
X051512Y009892D01*
X051680Y009823D01*
X051780Y009823D01*
X051780Y009770D01*
X051703Y009692D01*
X051645Y009555D01*
X051645Y009405D01*
X051703Y009268D01*
X051808Y009162D01*
X051946Y009105D01*
X052095Y009105D01*
X052180Y009140D01*
X052180Y007829D01*
X050171Y005820D01*
X050179Y005828D02*
X046755Y005828D01*
X046751Y005986D02*
X050337Y005986D01*
X050496Y006145D02*
X046686Y006145D01*
X046565Y006303D02*
X050654Y006303D01*
X050813Y006462D02*
X046303Y006462D01*
X045937Y006462D02*
X041956Y006462D01*
X041968Y006423D02*
X041938Y006515D01*
X041894Y006601D01*
X041838Y006679D01*
X041769Y006747D01*
X041691Y006804D01*
X041606Y006848D01*
X041514Y006877D01*
X041419Y006892D01*
X041418Y006892D01*
X041418Y006328D01*
X041323Y006328D01*
X041323Y006892D01*
X041322Y006892D01*
X041227Y006877D01*
X041135Y006848D01*
X041049Y006804D01*
X040971Y006747D01*
X040903Y006679D01*
X040847Y006601D01*
X040803Y006515D01*
X040773Y006423D01*
X040758Y006328D01*
X040758Y006328D01*
X041323Y006328D01*
X041323Y006232D01*
X041418Y006232D01*
X041418Y005668D01*
X041419Y005668D01*
X041514Y005683D01*
X041606Y005712D01*
X041691Y005756D01*
X041769Y005813D01*
X041838Y005881D01*
X041894Y005959D01*
X041938Y006045D01*
X041968Y006137D01*
X041983Y006232D01*
X041983Y006232D01*
X041418Y006232D01*
X041418Y006328D01*
X041983Y006328D01*
X041968Y006423D01*
X041983Y006328D02*
X041983Y006328D01*
X041969Y006145D02*
X045555Y006145D01*
X045489Y005986D02*
X041908Y005986D01*
X041784Y005828D02*
X045485Y005828D01*
X045508Y005669D02*
X041428Y005669D01*
X041418Y005669D02*
X041323Y005669D01*
X041323Y005667D02*
X041323Y006232D01*
X040758Y006232D01*
X040773Y006137D01*
X040803Y006045D01*
X040847Y005959D01*
X040903Y005881D01*
X040971Y005813D01*
X041049Y005756D01*
X041135Y005712D01*
X041227Y005683D01*
X041322Y005668D01*
X041323Y005667D01*
X041313Y005669D02*
X039121Y005669D01*
X039279Y005511D02*
X042937Y005511D01*
X042803Y005352D02*
X039438Y005352D01*
X039583Y005194D02*
X042739Y005194D01*
X042755Y004877D02*
X039610Y004877D01*
X039610Y005035D02*
X043623Y005035D01*
X043698Y005035D02*
X045836Y005035D01*
X045678Y004877D02*
X044566Y004877D01*
X044595Y005098D02*
X043698Y005098D01*
X043698Y005642D01*
X044059Y005642D01*
X044149Y005628D01*
X044237Y005600D01*
X044318Y005558D01*
X044392Y005504D01*
X044457Y005439D01*
X044511Y005365D01*
X044553Y005284D01*
X044581Y005196D01*
X044595Y005106D01*
X044595Y005098D01*
X044582Y005194D02*
X045995Y005194D01*
X045720Y005352D02*
X044518Y005352D01*
X044384Y005511D02*
X045574Y005511D01*
X043698Y005511D02*
X043623Y005511D01*
X043623Y005352D02*
X043698Y005352D01*
X043698Y005194D02*
X043623Y005194D01*
X041418Y005828D02*
X041323Y005828D01*
X041323Y005986D02*
X041418Y005986D01*
X041418Y006145D02*
X041323Y006145D01*
X041323Y006303D02*
X038487Y006303D01*
X038645Y006145D02*
X040772Y006145D01*
X040758Y006232D02*
X040758Y006232D01*
X040785Y006462D02*
X038328Y006462D01*
X038170Y006620D02*
X040860Y006620D01*
X041015Y006779D02*
X038011Y006779D01*
X037853Y006937D02*
X048883Y006937D01*
X048770Y007096D02*
X037694Y007096D01*
X037536Y007254D02*
X048745Y007254D01*
X048790Y007413D02*
X043183Y007413D01*
X043245Y007571D02*
X048964Y007571D01*
X048832Y007730D02*
X043309Y007730D01*
X043468Y007888D02*
X048673Y007888D01*
X048515Y008047D02*
X043626Y008047D01*
X043785Y008205D02*
X048356Y008205D01*
X048198Y008364D02*
X043943Y008364D01*
X044102Y008522D02*
X048039Y008522D01*
X047881Y008681D02*
X044260Y008681D01*
X044419Y008839D02*
X047722Y008839D01*
X047564Y008998D02*
X044577Y008998D01*
X044736Y009156D02*
X047405Y009156D01*
X047247Y009315D02*
X044894Y009315D01*
X045053Y009473D02*
X047088Y009473D01*
X046930Y009632D02*
X045211Y009632D01*
X045370Y009790D02*
X045637Y009790D01*
X045762Y009790D02*
X045779Y009790D01*
X045904Y009790D02*
X046771Y009790D01*
X046613Y009949D02*
X046156Y009949D01*
X046248Y010107D02*
X046454Y010107D01*
X046296Y010266D02*
X046278Y010266D01*
X045779Y010266D02*
X045762Y010266D01*
X045762Y010424D02*
X045779Y010424D01*
X045762Y010583D02*
X045779Y010583D01*
X045762Y010741D02*
X045779Y010741D01*
X045662Y010900D02*
X045537Y010900D01*
X045558Y010741D02*
X045510Y010741D01*
X045030Y010741D02*
X043510Y010741D01*
X043537Y010900D02*
X044004Y010900D01*
X044012Y010892D02*
X044180Y010823D01*
X044361Y010823D01*
X044529Y010892D01*
X044658Y011021D01*
X044728Y011189D01*
X044728Y011371D01*
X044658Y011539D01*
X044529Y011668D01*
X044361Y011737D01*
X044180Y011737D01*
X044012Y011668D01*
X043883Y011539D01*
X043813Y011371D01*
X043813Y011189D01*
X043883Y011021D01*
X044012Y010892D01*
X043868Y011058D02*
X043673Y011058D01*
X043728Y011217D02*
X043813Y011217D01*
X043815Y011375D02*
X043726Y011375D01*
X043660Y011534D02*
X043881Y011534D01*
X044071Y011692D02*
X043470Y011692D01*
X043071Y011692D02*
X038970Y011692D01*
X039029Y011668D02*
X038861Y011737D01*
X038680Y011737D01*
X038512Y011668D01*
X038383Y011539D01*
X038313Y011371D01*
X038313Y011189D01*
X038383Y011021D01*
X038512Y010892D01*
X038680Y010823D01*
X038861Y010823D01*
X039029Y010892D01*
X039158Y011021D01*
X039228Y011189D01*
X039228Y011371D01*
X039158Y011539D01*
X039029Y011668D01*
X039160Y011534D02*
X042881Y011534D01*
X042815Y011375D02*
X039226Y011375D01*
X039228Y011217D02*
X042813Y011217D01*
X042868Y011058D02*
X039173Y011058D01*
X039037Y010900D02*
X043004Y010900D01*
X043030Y010741D02*
X038483Y010741D01*
X038465Y010750D02*
X038389Y010775D01*
X038310Y010787D01*
X038279Y010787D01*
X038279Y010289D01*
X038778Y010289D01*
X038778Y010320D01*
X038765Y010399D01*
X038740Y010475D01*
X038704Y010546D01*
X038657Y010610D01*
X038601Y010667D01*
X038536Y010714D01*
X038465Y010750D01*
X038504Y010900D02*
X038037Y010900D01*
X038058Y010741D02*
X037960Y010741D01*
X038262Y010741D02*
X038279Y010741D01*
X038262Y010583D02*
X038279Y010583D01*
X038262Y010424D02*
X038279Y010424D01*
X038262Y010266D02*
X038279Y010266D01*
X038262Y010107D02*
X038279Y010107D01*
X038262Y009949D02*
X038279Y009949D01*
X038262Y009790D02*
X038279Y009790D01*
X038404Y009790D02*
X042641Y009790D01*
X042483Y009632D02*
X038064Y009632D01*
X038095Y009473D02*
X042324Y009473D01*
X042166Y009315D02*
X038058Y009315D01*
X037918Y009156D02*
X042007Y009156D01*
X041849Y008998D02*
X037060Y008998D01*
X037060Y009156D02*
X037523Y009156D01*
X037383Y009315D02*
X037060Y009315D01*
X037060Y009473D02*
X037345Y009473D01*
X037377Y009632D02*
X037060Y009632D01*
X037060Y009790D02*
X037480Y009790D01*
X037960Y009790D02*
X038137Y009790D01*
X038656Y009949D02*
X042455Y009949D01*
X042347Y010107D02*
X038748Y010107D01*
X038778Y010266D02*
X042313Y010266D01*
X042335Y010424D02*
X038757Y010424D01*
X038678Y010583D02*
X042426Y010583D01*
X044114Y010583D02*
X044426Y010583D01*
X044335Y010424D02*
X044206Y010424D01*
X044228Y010266D02*
X044313Y010266D01*
X044283Y010107D02*
X044347Y010107D01*
X043921Y009790D02*
X043320Y009790D01*
X043161Y009632D02*
X043995Y009632D01*
X044050Y009473D02*
X043003Y009473D01*
X042844Y009315D02*
X044216Y009315D01*
X044057Y009156D02*
X042686Y009156D01*
X042527Y008998D02*
X043899Y008998D01*
X043740Y008839D02*
X042369Y008839D01*
X042210Y008681D02*
X043582Y008681D01*
X043423Y008522D02*
X042052Y008522D01*
X041995Y008364D02*
X043265Y008364D01*
X043106Y008205D02*
X041926Y008205D01*
X041315Y008205D02*
X037060Y008205D01*
X037060Y008047D02*
X042948Y008047D01*
X042598Y007888D02*
X037060Y007888D01*
X037060Y007730D02*
X042506Y007730D01*
X042495Y007571D02*
X037219Y007571D01*
X037377Y007413D02*
X042558Y007413D01*
X041881Y006620D02*
X049400Y006620D01*
X049233Y006779D02*
X041726Y006779D01*
X041418Y006779D02*
X041323Y006779D01*
X041323Y006620D02*
X041418Y006620D01*
X041418Y006462D02*
X041323Y006462D01*
X041418Y006303D02*
X045675Y006303D01*
X049510Y007730D02*
X050180Y007730D01*
X050180Y007888D02*
X049352Y007888D01*
X049193Y008047D02*
X050180Y008047D01*
X050180Y008205D02*
X049035Y008205D01*
X048876Y008364D02*
X050180Y008364D01*
X050180Y008522D02*
X048718Y008522D01*
X048559Y008681D02*
X050180Y008681D01*
X050180Y008839D02*
X048401Y008839D01*
X048242Y008998D02*
X050180Y008998D01*
X050180Y009156D02*
X048084Y009156D01*
X047925Y009315D02*
X050180Y009315D01*
X050274Y009473D02*
X047767Y009473D01*
X047608Y009632D02*
X050433Y009632D01*
X050591Y009790D02*
X047450Y009790D01*
X047291Y009949D02*
X050455Y009949D01*
X050347Y010107D02*
X047133Y010107D01*
X046974Y010266D02*
X050313Y010266D01*
X050335Y010424D02*
X046816Y010424D01*
X046657Y010583D02*
X050426Y010583D01*
X051030Y010741D02*
X046499Y010741D01*
X046537Y010900D02*
X051004Y010900D01*
X050868Y011058D02*
X046673Y011058D01*
X046728Y011217D02*
X050813Y011217D01*
X050815Y011375D02*
X046726Y011375D01*
X046660Y011534D02*
X050881Y011534D01*
X051071Y011692D02*
X046470Y011692D01*
X046039Y011851D02*
X055165Y011851D01*
X055155Y011692D02*
X054470Y011692D01*
X054529Y011668D02*
X054361Y011737D01*
X054180Y011737D01*
X054012Y011668D01*
X053883Y011539D01*
X053813Y011371D01*
X053813Y011189D01*
X053883Y011021D01*
X054012Y010892D01*
X054180Y010823D01*
X054361Y010823D01*
X054529Y010892D01*
X054658Y011021D01*
X054728Y011189D01*
X054728Y011371D01*
X054658Y011539D01*
X054529Y011668D01*
X054660Y011534D02*
X055155Y011534D01*
X055155Y011375D02*
X054726Y011375D01*
X054728Y011217D02*
X055155Y011217D01*
X055155Y011058D02*
X054673Y011058D01*
X054537Y010900D02*
X055155Y010900D01*
X055155Y010741D02*
X053983Y010741D01*
X054004Y010900D02*
X053537Y010900D01*
X053558Y010741D02*
X053510Y010741D01*
X053762Y010741D02*
X053779Y010741D01*
X053762Y010583D02*
X053779Y010583D01*
X053762Y010424D02*
X053779Y010424D01*
X053762Y010266D02*
X053779Y010266D01*
X053762Y010107D02*
X053779Y010107D01*
X053762Y009949D02*
X053779Y009949D01*
X053762Y009790D02*
X053779Y009790D01*
X053904Y009790D02*
X055546Y009790D01*
X055388Y009949D02*
X054156Y009949D01*
X054248Y010107D02*
X055229Y010107D01*
X055155Y010266D02*
X054278Y010266D01*
X054257Y010424D02*
X055155Y010424D01*
X055155Y010583D02*
X054178Y010583D01*
X053030Y010741D02*
X052460Y010741D01*
X052537Y010900D02*
X053004Y010900D01*
X052868Y011058D02*
X052673Y011058D01*
X052728Y011217D02*
X052813Y011217D01*
X052815Y011375D02*
X052726Y011375D01*
X052660Y011534D02*
X052881Y011534D01*
X053071Y011692D02*
X052470Y011692D01*
X052071Y011692D02*
X051470Y011692D01*
X051660Y011534D02*
X051881Y011534D01*
X051815Y011375D02*
X051726Y011375D01*
X051728Y011217D02*
X051813Y011217D01*
X051868Y011058D02*
X051673Y011058D01*
X051537Y010900D02*
X051980Y010900D01*
X051980Y010741D02*
X051510Y010741D01*
X051455Y009949D02*
X051428Y009949D01*
X051270Y009790D02*
X051780Y009790D01*
X051677Y009632D02*
X051111Y009632D01*
X050953Y009473D02*
X051645Y009473D01*
X051683Y009315D02*
X050794Y009315D01*
X050660Y009156D02*
X051823Y009156D01*
X052180Y008998D02*
X050660Y008998D01*
X050660Y008839D02*
X052180Y008839D01*
X052180Y008681D02*
X050660Y008681D01*
X050660Y008522D02*
X052180Y008522D01*
X052180Y008364D02*
X050660Y008364D01*
X050660Y008205D02*
X052180Y008205D01*
X052180Y008047D02*
X050660Y008047D01*
X050660Y007888D02*
X052180Y007888D01*
X052081Y007730D02*
X050660Y007730D01*
X050660Y007571D02*
X051922Y007571D01*
X051764Y007413D02*
X050660Y007413D01*
X050660Y007254D02*
X051605Y007254D01*
X051447Y007096D02*
X050660Y007096D01*
X050660Y006937D02*
X051288Y006937D01*
X051130Y006779D02*
X050659Y006779D01*
X050541Y006620D02*
X050971Y006620D01*
X050180Y007096D02*
X050021Y007096D01*
X050045Y007254D02*
X050180Y007254D01*
X050180Y007413D02*
X050001Y007413D01*
X049827Y007571D02*
X050180Y007571D01*
X052200Y006620D02*
X057030Y006620D01*
X057030Y006779D02*
X052358Y006779D01*
X052517Y006937D02*
X057030Y006937D01*
X057030Y007096D02*
X052675Y007096D01*
X052834Y007254D02*
X057030Y007254D01*
X057030Y007413D02*
X052992Y007413D01*
X053151Y007571D02*
X057030Y007571D01*
X056590Y007730D02*
X056590Y007730D01*
X056590Y007888D02*
X056590Y007888D01*
X056590Y008030D02*
X056590Y008030D01*
X055930Y008047D02*
X055768Y008047D01*
X055932Y007888D02*
X053468Y007888D01*
X053510Y008047D02*
X055523Y008047D01*
X055319Y008205D02*
X053510Y008205D01*
X053510Y008364D02*
X055267Y008364D01*
X055285Y008522D02*
X053510Y008522D01*
X053510Y008681D02*
X055386Y008681D01*
X055315Y008839D02*
X053510Y008839D01*
X053510Y008998D02*
X055267Y008998D01*
X055288Y009156D02*
X053510Y009156D01*
X053510Y009315D02*
X055395Y009315D01*
X055863Y009473D02*
X053510Y009473D01*
X053510Y009632D02*
X055705Y009632D01*
X056195Y009820D02*
X055635Y010379D01*
X055635Y011681D01*
X055980Y012026D01*
X055980Y011845D01*
X056046Y011780D01*
X055980Y011715D01*
X055980Y011345D01*
X056011Y011315D01*
X055982Y011287D01*
X055957Y011249D01*
X055939Y011207D01*
X055930Y011163D01*
X055930Y011030D01*
X055930Y010897D01*
X055939Y010853D01*
X055957Y010811D01*
X055982Y010773D01*
X056014Y010741D01*
X055635Y010741D01*
X055635Y010583D02*
X057030Y010583D01*
X057030Y010690D02*
X056590Y010690D01*
X056590Y011030D01*
X055930Y011030D01*
X056590Y011030D01*
X056590Y011030D01*
X056590Y011030D01*
X056590Y010690D01*
X056138Y010690D01*
X056093Y010699D01*
X056052Y010716D01*
X056014Y010741D01*
X055930Y010900D02*
X055635Y010900D01*
X055635Y011058D02*
X055930Y011058D01*
X055943Y011217D02*
X055635Y011217D01*
X055635Y011375D02*
X055980Y011375D01*
X055980Y011534D02*
X055635Y011534D01*
X055647Y011692D02*
X055980Y011692D01*
X055980Y011851D02*
X055805Y011851D01*
X055964Y012009D02*
X055980Y012009D01*
X055444Y012168D02*
X045722Y012168D01*
X045564Y012326D02*
X055602Y012326D01*
X055761Y012485D02*
X045405Y012485D01*
X045247Y012643D02*
X055919Y012643D01*
X056067Y012802D02*
X045088Y012802D01*
X044930Y012960D02*
X046346Y012960D01*
X046249Y013000D02*
X046587Y012860D01*
X046953Y012860D01*
X047292Y013000D01*
X047550Y013259D01*
X047690Y013597D01*
X047690Y013963D01*
X047550Y014301D01*
X047292Y014560D01*
X046953Y014700D01*
X046587Y014700D01*
X046249Y014560D01*
X045991Y014301D01*
X045850Y013963D01*
X045850Y013597D01*
X045991Y013259D01*
X046249Y013000D01*
X046131Y013119D02*
X044771Y013119D01*
X044613Y013277D02*
X045983Y013277D01*
X045917Y013436D02*
X044454Y013436D01*
X044296Y013594D02*
X045852Y013594D01*
X045850Y013753D02*
X044137Y013753D01*
X043979Y013911D02*
X045850Y013911D01*
X045895Y014070D02*
X043820Y014070D01*
X043662Y014228D02*
X045960Y014228D01*
X046076Y014387D02*
X043503Y014387D01*
X043345Y014545D02*
X046234Y014545D01*
X047307Y014545D02*
X049734Y014545D01*
X049749Y014560D02*
X049491Y014301D01*
X049350Y013963D01*
X049350Y013597D01*
X049491Y013259D01*
X049749Y013000D01*
X050087Y012860D01*
X050453Y012860D01*
X050792Y013000D01*
X051050Y013259D01*
X051190Y013597D01*
X051190Y013963D01*
X051050Y014301D01*
X050792Y014560D01*
X050453Y014700D01*
X050087Y014700D01*
X049749Y014560D01*
X049576Y014387D02*
X047465Y014387D01*
X047581Y014228D02*
X049460Y014228D01*
X049395Y014070D02*
X047646Y014070D01*
X047690Y013911D02*
X049350Y013911D01*
X049350Y013753D02*
X047690Y013753D01*
X047689Y013594D02*
X049352Y013594D01*
X049417Y013436D02*
X047624Y013436D01*
X047558Y013277D02*
X049483Y013277D01*
X049631Y013119D02*
X047410Y013119D01*
X047195Y012960D02*
X049846Y012960D01*
X050695Y012960D02*
X054346Y012960D01*
X054131Y013119D02*
X050910Y013119D01*
X051058Y013277D02*
X053983Y013277D01*
X053917Y013436D02*
X051124Y013436D01*
X051189Y013594D02*
X053852Y013594D01*
X053850Y013753D02*
X051190Y013753D01*
X051190Y013911D02*
X053850Y013911D01*
X053895Y014070D02*
X051146Y014070D01*
X051081Y014228D02*
X053960Y014228D01*
X054076Y014387D02*
X050965Y014387D01*
X050807Y014545D02*
X054234Y014545D01*
X054924Y014862D02*
X043028Y014862D01*
X043186Y014704D02*
X055083Y014704D01*
X055603Y014862D02*
X056030Y014862D01*
X056030Y014953D02*
X056030Y014434D01*
X054914Y015551D01*
X062945Y015551D01*
X062945Y000560D01*
X058534Y000560D01*
X061264Y003290D01*
X061385Y003411D01*
X061450Y003569D01*
X061450Y004874D01*
X061530Y004907D01*
X061653Y005031D01*
X061720Y005192D01*
X061720Y005368D01*
X061653Y005529D01*
X061530Y005653D01*
X061368Y005720D01*
X060673Y005720D01*
X060511Y005653D01*
X060387Y005529D01*
X060320Y005368D01*
X060320Y005192D01*
X060387Y005031D01*
X060511Y004907D01*
X060590Y004874D01*
X060590Y003833D01*
X060060Y003303D01*
X060060Y005128D01*
X060024Y005216D01*
X059024Y006216D01*
X058956Y006283D01*
X058868Y006320D01*
X057760Y006320D01*
X057760Y007826D01*
X057848Y007790D01*
X057896Y007790D01*
X057946Y007740D01*
X058955Y007740D01*
X058993Y007778D01*
X059058Y007712D01*
X059196Y007655D01*
X059345Y007655D01*
X059483Y007712D01*
X059588Y007818D01*
X059645Y007955D01*
X059645Y008105D01*
X059588Y008242D01*
X059541Y008290D01*
X059818Y008290D01*
X059906Y008327D01*
X060499Y008919D01*
X060511Y008907D01*
X060673Y008840D01*
X061368Y008840D01*
X061530Y008907D01*
X061653Y009031D01*
X061720Y009192D01*
X061720Y009368D01*
X061653Y009529D01*
X061631Y009551D01*
X062380Y010301D01*
X062380Y009479D01*
X061542Y008641D01*
X061530Y008653D01*
X061368Y008720D01*
X060673Y008720D01*
X060511Y008653D01*
X060387Y008529D01*
X060320Y008368D01*
X060320Y008192D01*
X060387Y008031D01*
X060511Y007907D01*
X060673Y007840D01*
X061368Y007840D01*
X061530Y007907D01*
X061653Y008031D01*
X061684Y008104D01*
X061724Y008144D01*
X062824Y009244D01*
X062860Y009332D01*
X062860Y013328D01*
X062824Y013416D01*
X062756Y013483D01*
X061956Y014283D01*
X061868Y014320D01*
X061437Y014320D01*
X061437Y014658D01*
X061331Y014763D01*
X060710Y014763D01*
X060604Y014658D01*
X060604Y014194D01*
X060710Y014088D01*
X060799Y014088D01*
X060817Y014044D01*
X060841Y014020D01*
X060420Y014020D01*
X060341Y014098D01*
X060437Y014194D01*
X060437Y014658D01*
X060331Y014763D01*
X059710Y014763D01*
X059604Y014658D01*
X059604Y014194D01*
X059710Y014088D01*
X059780Y014088D01*
X059780Y014032D01*
X059817Y013944D01*
X059885Y013877D01*
X060141Y013620D01*
X059820Y013620D01*
X059341Y014098D01*
X059437Y014194D01*
X059437Y014658D01*
X059331Y014763D01*
X058710Y014763D01*
X058604Y014658D01*
X058604Y014194D01*
X058710Y014088D01*
X058780Y014088D01*
X058780Y014032D01*
X058800Y013986D01*
X058437Y014349D01*
X058437Y014658D01*
X058331Y014763D01*
X057710Y014763D01*
X057604Y014658D01*
X057604Y014194D01*
X057710Y014088D01*
X058019Y014088D01*
X058212Y013895D01*
X057891Y013895D01*
X057437Y014349D01*
X057437Y014658D01*
X057331Y014763D01*
X056710Y014763D01*
X056604Y014658D01*
X056604Y014286D01*
X056510Y014379D01*
X056510Y014806D01*
X056599Y014894D01*
X056612Y014894D01*
X056710Y014797D01*
X057331Y014797D01*
X057429Y014894D01*
X057612Y014894D01*
X057710Y014797D01*
X058331Y014797D01*
X058429Y014894D01*
X058612Y014894D01*
X058710Y014797D01*
X059331Y014797D01*
X059429Y014894D01*
X059612Y014894D01*
X059710Y014797D01*
X060331Y014797D01*
X060429Y014894D01*
X060612Y014894D01*
X060710Y014797D01*
X061331Y014797D01*
X061437Y014902D01*
X061437Y015366D01*
X061331Y015472D01*
X060710Y015472D01*
X060612Y015374D01*
X060429Y015374D01*
X060331Y015472D01*
X059710Y015472D01*
X059612Y015374D01*
X059429Y015374D01*
X059331Y015472D01*
X058710Y015472D01*
X058612Y015374D01*
X058429Y015374D01*
X058331Y015472D01*
X057710Y015472D01*
X057612Y015374D01*
X057429Y015374D01*
X057331Y015472D01*
X056710Y015472D01*
X056612Y015374D01*
X056452Y015374D01*
X056364Y015338D01*
X056135Y015108D01*
X056067Y015041D01*
X056030Y014953D01*
X056059Y015021D02*
X055444Y015021D01*
X055286Y015179D02*
X056205Y015179D01*
X056364Y015338D02*
X055127Y015338D01*
X054969Y015496D02*
X062945Y015496D01*
X062945Y015338D02*
X061437Y015338D01*
X061437Y015179D02*
X062945Y015179D01*
X062945Y015021D02*
X061437Y015021D01*
X061396Y014862D02*
X062945Y014862D01*
X062945Y014704D02*
X061391Y014704D01*
X061437Y014545D02*
X062945Y014545D01*
X062945Y014387D02*
X061437Y014387D01*
X062012Y014228D02*
X062945Y014228D01*
X062945Y014070D02*
X062170Y014070D01*
X062329Y013911D02*
X062945Y013911D01*
X062945Y013753D02*
X062487Y013753D01*
X062646Y013594D02*
X062945Y013594D01*
X062945Y013436D02*
X062804Y013436D01*
X062860Y013277D02*
X062945Y013277D01*
X062945Y013119D02*
X062860Y013119D01*
X062860Y012960D02*
X062945Y012960D01*
X062945Y012802D02*
X062860Y012802D01*
X062860Y012643D02*
X062945Y012643D01*
X062945Y012485D02*
X062860Y012485D01*
X062860Y012326D02*
X062945Y012326D01*
X062945Y012168D02*
X062860Y012168D01*
X062860Y012009D02*
X062945Y012009D01*
X062945Y011851D02*
X062860Y011851D01*
X062860Y011692D02*
X062945Y011692D01*
X062945Y011534D02*
X062860Y011534D01*
X062860Y011375D02*
X062945Y011375D01*
X062945Y011217D02*
X062860Y011217D01*
X062860Y011058D02*
X062945Y011058D01*
X062945Y010900D02*
X062860Y010900D01*
X062860Y010741D02*
X062945Y010741D01*
X062945Y010583D02*
X062860Y010583D01*
X062860Y010424D02*
X062945Y010424D01*
X062945Y010266D02*
X062860Y010266D01*
X062860Y010107D02*
X062945Y010107D01*
X062945Y009949D02*
X062860Y009949D01*
X062860Y009790D02*
X062945Y009790D01*
X062945Y009632D02*
X062860Y009632D01*
X062860Y009473D02*
X062945Y009473D01*
X062945Y009315D02*
X062853Y009315D01*
X062945Y009156D02*
X062736Y009156D01*
X062577Y008998D02*
X062945Y008998D01*
X062945Y008839D02*
X062419Y008839D01*
X062260Y008681D02*
X062945Y008681D01*
X062945Y008522D02*
X062102Y008522D01*
X061943Y008364D02*
X062945Y008364D01*
X062945Y008205D02*
X061785Y008205D01*
X061660Y008047D02*
X062945Y008047D01*
X062945Y007888D02*
X061484Y007888D01*
X061368Y007720D02*
X061530Y007653D01*
X061653Y007529D01*
X061720Y007368D01*
X061720Y007192D01*
X061653Y007031D01*
X061530Y006907D01*
X061368Y006840D01*
X060673Y006840D01*
X060511Y006907D01*
X060387Y007031D01*
X060320Y007192D01*
X060320Y007368D01*
X060387Y007529D01*
X060511Y007653D01*
X060673Y007720D01*
X061368Y007720D01*
X061612Y007571D02*
X062945Y007571D01*
X062945Y007413D02*
X061702Y007413D01*
X061720Y007254D02*
X062945Y007254D01*
X062945Y007096D02*
X061680Y007096D01*
X061560Y006937D02*
X062945Y006937D01*
X062945Y006779D02*
X057760Y006779D01*
X057760Y006937D02*
X060481Y006937D01*
X060361Y007096D02*
X057760Y007096D01*
X057760Y007254D02*
X060320Y007254D01*
X060339Y007413D02*
X057760Y007413D01*
X057760Y007571D02*
X060429Y007571D01*
X059500Y007730D02*
X062945Y007730D01*
X060557Y007888D02*
X059618Y007888D01*
X059645Y008047D02*
X060381Y008047D01*
X060320Y008205D02*
X059604Y008205D01*
X059943Y008364D02*
X060320Y008364D01*
X060384Y008522D02*
X060102Y008522D01*
X060260Y008681D02*
X060578Y008681D01*
X060419Y008839D02*
X061740Y008839D01*
X061620Y008998D02*
X061899Y008998D01*
X062057Y009156D02*
X061705Y009156D01*
X061720Y009315D02*
X062216Y009315D01*
X062374Y009473D02*
X061677Y009473D01*
X061711Y009632D02*
X062380Y009632D01*
X062380Y009790D02*
X061870Y009790D01*
X062028Y009949D02*
X062380Y009949D01*
X062380Y010107D02*
X062187Y010107D01*
X062345Y010266D02*
X062380Y010266D01*
X061582Y008681D02*
X061463Y008681D01*
X059041Y007730D02*
X057760Y007730D01*
X056032Y007730D02*
X053309Y007730D01*
X057760Y006620D02*
X060408Y006620D01*
X060387Y006599D02*
X060441Y006654D01*
X060504Y006699D01*
X060572Y006734D01*
X060646Y006758D01*
X060722Y006770D01*
X061020Y006770D01*
X061020Y006280D01*
X060270Y006280D01*
X060270Y006241D01*
X060283Y006165D01*
X060306Y006092D01*
X060341Y006023D01*
X060387Y005961D01*
X060441Y005906D01*
X060504Y005861D01*
X060572Y005826D01*
X060646Y005802D01*
X060722Y005790D01*
X061020Y005790D01*
X061020Y006280D01*
X061020Y006280D01*
X060270Y006280D01*
X060270Y006319D01*
X060283Y006395D01*
X060306Y006468D01*
X060341Y006537D01*
X060387Y006599D01*
X060304Y006462D02*
X057760Y006462D01*
X058909Y006303D02*
X060270Y006303D01*
X060289Y006145D02*
X059095Y006145D01*
X059254Y005986D02*
X060368Y005986D01*
X060569Y005828D02*
X059412Y005828D01*
X059571Y005669D02*
X060550Y005669D01*
X060380Y005511D02*
X059729Y005511D01*
X059888Y005352D02*
X060320Y005352D01*
X060320Y005194D02*
X060033Y005194D01*
X060060Y005035D02*
X060386Y005035D01*
X060585Y004877D02*
X060060Y004877D01*
X060060Y004718D02*
X060590Y004718D01*
X060590Y004560D02*
X060060Y004560D01*
X060060Y004401D02*
X060590Y004401D01*
X060590Y004243D02*
X060060Y004243D01*
X060060Y004084D02*
X060590Y004084D01*
X060590Y003926D02*
X060060Y003926D01*
X060060Y003767D02*
X060524Y003767D01*
X060366Y003609D02*
X060060Y003609D01*
X060060Y003450D02*
X060207Y003450D01*
X061107Y003133D02*
X062945Y003133D01*
X062945Y002975D02*
X060948Y002975D01*
X060790Y002816D02*
X062945Y002816D01*
X062945Y002658D02*
X060631Y002658D01*
X060473Y002499D02*
X062945Y002499D01*
X062945Y002341D02*
X060314Y002341D01*
X060156Y002182D02*
X062945Y002182D01*
X062945Y002024D02*
X059997Y002024D01*
X059839Y001865D02*
X062945Y001865D01*
X062945Y001707D02*
X059680Y001707D01*
X059522Y001548D02*
X062945Y001548D01*
X062945Y001390D02*
X059363Y001390D01*
X059205Y001231D02*
X062945Y001231D01*
X062945Y001073D02*
X059046Y001073D01*
X058888Y000914D02*
X062945Y000914D01*
X062945Y000756D02*
X058729Y000756D01*
X058571Y000597D02*
X062945Y000597D01*
X057883Y002182D02*
X053355Y002182D01*
X053355Y002341D02*
X058042Y002341D01*
X058200Y002499D02*
X053330Y002499D01*
X053264Y002658D02*
X054517Y002658D01*
X054369Y002816D02*
X053112Y002816D01*
X053289Y002024D02*
X057725Y002024D01*
X057566Y001865D02*
X053173Y001865D01*
X049597Y002658D02*
X049244Y002658D01*
X049392Y002816D02*
X049449Y002816D01*
X047917Y002658D02*
X046664Y002658D01*
X046512Y002816D02*
X047769Y002816D01*
X047704Y002975D02*
X044537Y002975D01*
X044545Y003133D02*
X047695Y003133D01*
X047731Y003292D02*
X044510Y003292D01*
X044416Y003450D02*
X047825Y003450D01*
X048064Y003609D02*
X044177Y003609D01*
X043144Y003609D02*
X039838Y003609D01*
X039997Y003767D02*
X056324Y003767D01*
X056281Y003926D02*
X040137Y003926D01*
X040160Y004084D02*
X056277Y004084D01*
X056277Y004243D02*
X040160Y004243D01*
X039052Y004757D02*
X038894Y004599D01*
X038808Y004392D01*
X038808Y004168D01*
X038890Y003970D01*
X035410Y003970D01*
X035410Y006628D01*
X035374Y006716D01*
X031267Y010823D01*
X031361Y010823D01*
X031529Y010892D01*
X031658Y011021D01*
X031728Y011189D01*
X031728Y011371D01*
X031714Y011405D01*
X031795Y011405D01*
X031933Y011462D01*
X032038Y011568D01*
X032095Y011705D01*
X032095Y011855D01*
X032038Y011992D01*
X031960Y012070D01*
X031960Y012590D01*
X036881Y012590D01*
X036845Y012505D01*
X036845Y012355D01*
X036903Y012218D01*
X036980Y012140D01*
X036980Y011688D01*
X036861Y011737D01*
X036680Y011737D01*
X036512Y011668D01*
X036383Y011539D01*
X036313Y011371D01*
X036313Y011189D01*
X036383Y011021D01*
X036512Y010892D01*
X036580Y010864D01*
X036580Y010617D01*
X036529Y010668D01*
X036361Y010737D01*
X036180Y010737D01*
X036012Y010668D01*
X035883Y010539D01*
X035813Y010371D01*
X035813Y010189D01*
X035883Y010021D01*
X036012Y009892D01*
X036180Y009823D01*
X036361Y009823D01*
X036529Y009892D01*
X036580Y009943D01*
X036580Y007582D01*
X036617Y007494D01*
X037233Y006878D01*
X037227Y006877D01*
X037135Y006848D01*
X037049Y006804D01*
X036971Y006747D01*
X036903Y006679D01*
X036847Y006601D01*
X036803Y006515D01*
X036773Y006423D01*
X036758Y006328D01*
X036758Y006328D01*
X037323Y006328D01*
X037323Y006232D01*
X037418Y006232D01*
X037418Y005668D01*
X037419Y005668D01*
X037514Y005683D01*
X037606Y005712D01*
X037691Y005756D01*
X037769Y005813D01*
X037838Y005881D01*
X037894Y005959D01*
X037938Y006045D01*
X037968Y006137D01*
X037969Y006142D01*
X039130Y004981D01*
X039130Y004789D01*
X039052Y004757D01*
X039013Y004718D02*
X035410Y004718D01*
X035410Y004560D02*
X038877Y004560D01*
X038812Y004401D02*
X035410Y004401D01*
X035410Y004243D02*
X038808Y004243D01*
X038843Y004084D02*
X035410Y004084D01*
X035410Y004877D02*
X039130Y004877D01*
X039076Y005035D02*
X035410Y005035D01*
X035410Y005194D02*
X038918Y005194D01*
X038759Y005352D02*
X035410Y005352D01*
X035410Y005511D02*
X038601Y005511D01*
X038442Y005669D02*
X037428Y005669D01*
X037418Y005669D02*
X037323Y005669D01*
X037323Y005667D02*
X037323Y006232D01*
X036758Y006232D01*
X036773Y006137D01*
X036803Y006045D01*
X036847Y005959D01*
X036903Y005881D01*
X036971Y005813D01*
X037049Y005756D01*
X037135Y005712D01*
X037227Y005683D01*
X037322Y005668D01*
X037323Y005667D01*
X037313Y005669D02*
X035410Y005669D01*
X035410Y005828D02*
X036957Y005828D01*
X036833Y005986D02*
X035410Y005986D01*
X035410Y006145D02*
X036772Y006145D01*
X036758Y006232D02*
X036758Y006232D01*
X036785Y006462D02*
X035410Y006462D01*
X035410Y006620D02*
X036860Y006620D01*
X037015Y006779D02*
X035311Y006779D01*
X035153Y006937D02*
X037174Y006937D01*
X037016Y007096D02*
X034994Y007096D01*
X034836Y007254D02*
X036857Y007254D01*
X036699Y007413D02*
X034677Y007413D01*
X034519Y007571D02*
X036585Y007571D01*
X036580Y007730D02*
X034360Y007730D01*
X034202Y007888D02*
X036580Y007888D01*
X036580Y008047D02*
X034043Y008047D01*
X033885Y008205D02*
X036580Y008205D01*
X036580Y008364D02*
X033726Y008364D01*
X033568Y008522D02*
X036580Y008522D01*
X036580Y008681D02*
X033409Y008681D01*
X033251Y008839D02*
X036580Y008839D01*
X036580Y008998D02*
X033848Y008998D01*
X033883Y009012D02*
X033988Y009118D01*
X034045Y009255D01*
X034045Y009405D01*
X033988Y009542D01*
X033910Y009620D01*
X033910Y011040D01*
X035375Y011040D01*
X035383Y011021D01*
X035512Y010892D01*
X035680Y010823D01*
X035861Y010823D01*
X036029Y010892D01*
X036158Y011021D01*
X036228Y011189D01*
X036228Y011371D01*
X036158Y011539D01*
X036029Y011668D01*
X035861Y011737D01*
X035680Y011737D01*
X035512Y011668D01*
X035383Y011539D01*
X035375Y011520D01*
X033623Y011520D01*
X033535Y011483D01*
X033467Y011416D01*
X033430Y011328D01*
X033430Y009620D01*
X033353Y009542D01*
X033295Y009405D01*
X033295Y009255D01*
X033353Y009118D01*
X033458Y009012D01*
X033596Y008955D01*
X033745Y008955D01*
X033883Y009012D01*
X034004Y009156D02*
X036580Y009156D01*
X036580Y009315D02*
X034045Y009315D01*
X034017Y009473D02*
X036580Y009473D01*
X036580Y009632D02*
X033910Y009632D01*
X033910Y009790D02*
X036580Y009790D01*
X035955Y009949D02*
X035586Y009949D01*
X035529Y009892D02*
X035658Y010021D01*
X035728Y010189D01*
X035728Y010371D01*
X035658Y010539D01*
X035529Y010668D01*
X035361Y010737D01*
X035180Y010737D01*
X035012Y010668D01*
X034883Y010539D01*
X034813Y010371D01*
X034813Y010189D01*
X034883Y010021D01*
X035012Y009892D01*
X035180Y009823D01*
X035361Y009823D01*
X035529Y009892D01*
X034955Y009949D02*
X033910Y009949D01*
X033910Y010107D02*
X034847Y010107D01*
X034813Y010266D02*
X033910Y010266D01*
X033910Y010424D02*
X034835Y010424D01*
X034926Y010583D02*
X033910Y010583D01*
X033910Y010741D02*
X036580Y010741D01*
X036504Y010900D02*
X036037Y010900D01*
X036173Y011058D02*
X036368Y011058D01*
X036313Y011217D02*
X036228Y011217D01*
X036226Y011375D02*
X036315Y011375D01*
X036381Y011534D02*
X036160Y011534D01*
X035970Y011692D02*
X036571Y011692D01*
X036970Y011692D02*
X036980Y011692D01*
X036980Y011851D02*
X032095Y011851D01*
X032090Y011692D02*
X035571Y011692D01*
X035381Y011534D02*
X032004Y011534D01*
X031726Y011375D02*
X033450Y011375D01*
X033430Y011217D02*
X031728Y011217D01*
X031673Y011058D02*
X033430Y011058D01*
X033430Y010900D02*
X031537Y010900D01*
X031349Y010741D02*
X033430Y010741D01*
X033430Y010583D02*
X031507Y010583D01*
X031666Y010424D02*
X033430Y010424D01*
X033430Y010266D02*
X031824Y010266D01*
X031983Y010107D02*
X033430Y010107D01*
X033430Y009949D02*
X032141Y009949D01*
X032300Y009790D02*
X033430Y009790D01*
X033430Y009632D02*
X032458Y009632D01*
X032617Y009473D02*
X033324Y009473D01*
X033295Y009315D02*
X032775Y009315D01*
X032934Y009156D02*
X033337Y009156D01*
X033493Y008998D02*
X033092Y008998D01*
X032572Y008839D02*
X028010Y008839D01*
X028010Y008681D02*
X032731Y008681D01*
X032889Y008522D02*
X028010Y008522D01*
X028010Y008364D02*
X033048Y008364D01*
X033206Y008205D02*
X028010Y008205D01*
X028010Y008047D02*
X033365Y008047D01*
X033523Y007888D02*
X029293Y007888D01*
X029385Y007730D02*
X033682Y007730D01*
X033840Y007571D02*
X029395Y007571D01*
X029333Y007413D02*
X033999Y007413D01*
X034157Y007254D02*
X028984Y007254D01*
X028825Y007096D02*
X034316Y007096D01*
X034474Y006937D02*
X028667Y006937D01*
X028508Y006779D02*
X030484Y006779D01*
X030477Y006777D02*
X030385Y006748D01*
X030299Y006704D01*
X030221Y006647D01*
X030153Y006579D01*
X030097Y006501D01*
X030053Y006415D01*
X030023Y006323D01*
X030008Y006228D01*
X030008Y006228D01*
X030573Y006228D01*
X030573Y006792D01*
X030572Y006792D01*
X030477Y006777D01*
X030573Y006779D02*
X030668Y006779D01*
X030669Y006792D02*
X030668Y006792D01*
X030668Y006228D01*
X030573Y006228D01*
X030573Y006132D01*
X030668Y006132D01*
X030668Y005568D01*
X030669Y005568D01*
X030764Y005583D01*
X030856Y005612D01*
X030941Y005656D01*
X031019Y005713D01*
X031088Y005781D01*
X031144Y005859D01*
X031188Y005945D01*
X031218Y006037D01*
X031233Y006132D01*
X031233Y006132D01*
X030668Y006132D01*
X030668Y006228D01*
X031233Y006228D01*
X031218Y006323D01*
X031188Y006415D01*
X031144Y006501D01*
X031088Y006579D01*
X031019Y006647D01*
X030941Y006704D01*
X030856Y006748D01*
X030764Y006777D01*
X030669Y006792D01*
X030757Y006779D02*
X034484Y006779D01*
X034573Y006779D02*
X034633Y006779D01*
X034668Y006620D02*
X034573Y006620D01*
X034573Y006462D02*
X034668Y006462D01*
X034668Y006303D02*
X034573Y006303D01*
X034573Y006145D02*
X030668Y006145D01*
X030573Y006145D02*
X027874Y006145D01*
X028033Y006303D02*
X030020Y006303D01*
X030076Y006462D02*
X028191Y006462D01*
X028350Y006620D02*
X030194Y006620D01*
X030573Y006620D02*
X030668Y006620D01*
X030668Y006462D02*
X030573Y006462D01*
X030573Y006303D02*
X030668Y006303D01*
X030573Y006132D02*
X030008Y006132D01*
X030023Y006037D01*
X030053Y005945D01*
X030097Y005859D01*
X030153Y005781D01*
X030221Y005713D01*
X030299Y005656D01*
X030385Y005612D01*
X030477Y005583D01*
X030572Y005568D01*
X030573Y005567D01*
X030573Y006132D01*
X030573Y005986D02*
X030668Y005986D01*
X030668Y005828D02*
X030573Y005828D01*
X030573Y005669D02*
X030668Y005669D01*
X030959Y005669D02*
X034282Y005669D01*
X034119Y005828D02*
X031121Y005828D01*
X031201Y005986D02*
X034039Y005986D01*
X034573Y005986D02*
X034668Y005986D01*
X034668Y005828D02*
X034573Y005828D01*
X034573Y005669D02*
X034668Y005669D01*
X034930Y005511D02*
X027240Y005511D01*
X027399Y005669D02*
X030282Y005669D01*
X030119Y005828D02*
X027557Y005828D01*
X027716Y005986D02*
X030039Y005986D01*
X030008Y006132D02*
X030008Y006132D01*
X031164Y006462D02*
X034076Y006462D01*
X034020Y006303D02*
X031221Y006303D01*
X031233Y006228D02*
X031233Y006228D01*
X031047Y006620D02*
X034194Y006620D01*
X035410Y006303D02*
X037323Y006303D01*
X037323Y006145D02*
X037418Y006145D01*
X037418Y005986D02*
X037323Y005986D01*
X037323Y005828D02*
X037418Y005828D01*
X037784Y005828D02*
X038284Y005828D01*
X038125Y005986D02*
X037908Y005986D01*
X038804Y005986D02*
X040833Y005986D01*
X040957Y005828D02*
X038962Y005828D01*
X039728Y004718D02*
X039769Y004718D01*
X037418Y002816D02*
X037323Y002816D01*
X037323Y002658D02*
X037418Y002658D01*
X037418Y002499D02*
X037323Y002499D01*
X037323Y002341D02*
X037418Y002341D01*
X034094Y001865D02*
X031147Y001865D01*
X031214Y002024D02*
X034027Y002024D01*
X030094Y001865D02*
X028645Y001865D01*
X028803Y002024D02*
X030027Y002024D01*
X028894Y003609D02*
X028883Y003609D01*
X028926Y003767D02*
X028973Y003767D01*
X028968Y003926D02*
X032117Y003926D01*
X032058Y004084D02*
X028972Y004084D01*
X028972Y004243D02*
X032058Y004243D01*
X032103Y004401D02*
X028944Y004401D01*
X028902Y004560D02*
X032204Y004560D01*
X032238Y003767D02*
X029568Y003767D01*
X026562Y005511D02*
X026260Y005511D01*
X026260Y005669D02*
X026720Y005669D01*
X026879Y005828D02*
X026407Y005828D01*
X026566Y005986D02*
X027037Y005986D01*
X027196Y006145D02*
X026724Y006145D01*
X026883Y006303D02*
X027354Y006303D01*
X027513Y006462D02*
X027041Y006462D01*
X027200Y006620D02*
X027671Y006620D01*
X027830Y006779D02*
X027358Y006779D01*
X027517Y006937D02*
X027988Y006937D01*
X028147Y007096D02*
X027675Y007096D01*
X027834Y007254D02*
X028305Y007254D01*
X028464Y007413D02*
X027982Y007413D01*
X028010Y007571D02*
X028622Y007571D01*
X028656Y007730D02*
X028010Y007730D01*
X028010Y007888D02*
X028748Y007888D01*
X028010Y008998D02*
X032414Y008998D01*
X032255Y009156D02*
X028010Y009156D01*
X028010Y009315D02*
X032097Y009315D01*
X031938Y009473D02*
X028010Y009473D01*
X028010Y009632D02*
X028080Y009632D01*
X030111Y009632D02*
X031780Y009632D01*
X031621Y009790D02*
X030904Y009790D01*
X030779Y009790D02*
X030762Y009790D01*
X030637Y009790D02*
X030270Y009790D01*
X030762Y009949D02*
X030779Y009949D01*
X030762Y010107D02*
X030779Y010107D01*
X030762Y010266D02*
X030779Y010266D01*
X031156Y009949D02*
X031463Y009949D01*
X031304Y010107D02*
X031248Y010107D01*
X033910Y010900D02*
X035504Y010900D01*
X035614Y010583D02*
X035926Y010583D01*
X035835Y010424D02*
X035706Y010424D01*
X035728Y010266D02*
X035813Y010266D01*
X035847Y010107D02*
X035694Y010107D01*
X038173Y011058D02*
X038368Y011058D01*
X038313Y011217D02*
X038228Y011217D01*
X038226Y011375D02*
X038315Y011375D01*
X038381Y011534D02*
X038160Y011534D01*
X037970Y011692D02*
X038571Y011692D01*
X037571Y011692D02*
X037460Y011692D01*
X037460Y011851D02*
X045011Y011851D01*
X045071Y011692D02*
X044470Y011692D01*
X044660Y011534D02*
X044881Y011534D01*
X044815Y011375D02*
X044726Y011375D01*
X044728Y011217D02*
X044813Y011217D01*
X044868Y011058D02*
X044673Y011058D01*
X044537Y010900D02*
X045004Y010900D01*
X045762Y010107D02*
X045779Y010107D01*
X045762Y009949D02*
X045779Y009949D01*
X041690Y008839D02*
X037060Y008839D01*
X037060Y008681D02*
X041341Y008681D01*
X041253Y008522D02*
X037060Y008522D01*
X037060Y008364D02*
X041245Y008364D01*
X044852Y012009D02*
X037460Y012009D01*
X037488Y012168D02*
X044694Y012168D01*
X044535Y012326D02*
X037583Y012326D01*
X037595Y012485D02*
X044377Y012485D01*
X045881Y012009D02*
X055285Y012009D01*
X054071Y011692D02*
X053470Y011692D01*
X053660Y011534D02*
X053881Y011534D01*
X053815Y011375D02*
X053726Y011375D01*
X053728Y011217D02*
X053813Y011217D01*
X053868Y011058D02*
X053673Y011058D01*
X055635Y010424D02*
X057030Y010424D01*
X057030Y010266D02*
X055749Y010266D01*
X055908Y010107D02*
X057030Y010107D01*
X057030Y009949D02*
X056066Y009949D01*
X056195Y009820D02*
X057030Y009820D01*
X057030Y010690D01*
X056590Y010741D02*
X056590Y010741D01*
X056590Y010900D02*
X056590Y010900D01*
X053637Y009790D02*
X053510Y009790D01*
X055896Y009315D02*
X056011Y009315D01*
X061020Y006770D02*
X061020Y006280D01*
X061020Y006280D01*
X061020Y006280D01*
X061020Y005790D01*
X061319Y005790D01*
X061395Y005802D01*
X061469Y005826D01*
X061537Y005861D01*
X061600Y005906D01*
X061654Y005961D01*
X061700Y006023D01*
X061735Y006092D01*
X061758Y006165D01*
X061770Y006241D01*
X061770Y006280D01*
X061770Y006319D01*
X061758Y006395D01*
X061735Y006468D01*
X061700Y006537D01*
X061654Y006599D01*
X061600Y006654D01*
X061537Y006699D01*
X061469Y006734D01*
X061395Y006758D01*
X061319Y006770D01*
X061020Y006770D01*
X061020Y006620D02*
X061020Y006620D01*
X061020Y006462D02*
X061020Y006462D01*
X061020Y006303D02*
X061020Y006303D01*
X061020Y006280D02*
X061770Y006280D01*
X061020Y006280D01*
X061020Y006280D01*
X061020Y006145D02*
X061020Y006145D01*
X061020Y005986D02*
X061020Y005986D01*
X061020Y005828D02*
X061020Y005828D01*
X061472Y005828D02*
X062945Y005828D01*
X062945Y005986D02*
X061673Y005986D01*
X061752Y006145D02*
X062945Y006145D01*
X062945Y006303D02*
X061770Y006303D01*
X061737Y006462D02*
X062945Y006462D01*
X062945Y006620D02*
X061633Y006620D01*
X061491Y005669D02*
X062945Y005669D01*
X062945Y005511D02*
X061661Y005511D01*
X061720Y005352D02*
X062945Y005352D01*
X062945Y005194D02*
X061720Y005194D01*
X061655Y005035D02*
X062945Y005035D01*
X062945Y004877D02*
X061456Y004877D01*
X061450Y004718D02*
X062945Y004718D01*
X062945Y004560D02*
X061450Y004560D01*
X061450Y004401D02*
X062945Y004401D01*
X062945Y004243D02*
X061450Y004243D01*
X061450Y004084D02*
X062945Y004084D01*
X062945Y003926D02*
X061450Y003926D01*
X061450Y003767D02*
X062945Y003767D01*
X062945Y003609D02*
X061450Y003609D01*
X061401Y003450D02*
X062945Y003450D01*
X062945Y003292D02*
X061265Y003292D01*
X049744Y003609D02*
X049097Y003609D01*
X049336Y003450D02*
X049505Y003450D01*
X045728Y002816D02*
X044472Y002816D01*
X044324Y002658D02*
X045577Y002658D01*
X036980Y012009D02*
X032022Y012009D01*
X031960Y012168D02*
X036953Y012168D01*
X036858Y012326D02*
X031960Y012326D01*
X031960Y012485D02*
X036845Y012485D01*
X025413Y014862D02*
X025410Y014862D01*
X025410Y015021D02*
X054766Y015021D01*
X055761Y014704D02*
X056030Y014704D01*
X056030Y014545D02*
X055920Y014545D01*
X056510Y014545D02*
X056604Y014545D01*
X056604Y014387D02*
X056510Y014387D01*
X056510Y014704D02*
X056650Y014704D01*
X056645Y014862D02*
X056567Y014862D01*
X057396Y014862D02*
X057645Y014862D01*
X057650Y014704D02*
X057391Y014704D01*
X057437Y014545D02*
X057604Y014545D01*
X057604Y014387D02*
X057437Y014387D01*
X057558Y014228D02*
X057604Y014228D01*
X057716Y014070D02*
X058037Y014070D01*
X058196Y013911D02*
X057875Y013911D01*
X058716Y014070D02*
X058780Y014070D01*
X058604Y014228D02*
X058558Y014228D01*
X058604Y014387D02*
X058437Y014387D01*
X058437Y014545D02*
X058604Y014545D01*
X058650Y014704D02*
X058391Y014704D01*
X058396Y014862D02*
X058645Y014862D01*
X059396Y014862D02*
X059645Y014862D01*
X059650Y014704D02*
X059391Y014704D01*
X059437Y014545D02*
X059604Y014545D01*
X059604Y014387D02*
X059437Y014387D01*
X059437Y014228D02*
X059604Y014228D01*
X059780Y014070D02*
X059370Y014070D01*
X059529Y013911D02*
X059850Y013911D01*
X060009Y013753D02*
X059687Y013753D01*
X060370Y014070D02*
X060806Y014070D01*
X060604Y014228D02*
X060437Y014228D01*
X060437Y014387D02*
X060604Y014387D01*
X060604Y014545D02*
X060437Y014545D01*
X060391Y014704D02*
X060650Y014704D01*
X060645Y014862D02*
X060396Y014862D01*
X056350Y013436D02*
X055624Y013436D01*
X055689Y013594D02*
X056192Y013594D01*
X056034Y013753D02*
X055690Y013753D01*
X055690Y013911D02*
X055875Y013911D01*
X055717Y014070D02*
X055646Y014070D01*
X055558Y013277D02*
X056350Y013277D01*
X056350Y013119D02*
X055410Y013119D01*
X055195Y012960D02*
X056350Y012960D01*
X024930Y014148D02*
X024832Y014246D01*
X024630Y014330D01*
X024411Y014330D01*
X024395Y014324D01*
X024395Y014455D01*
X024338Y014592D01*
X024233Y014698D01*
X024095Y014755D01*
X023946Y014755D01*
X023808Y014698D01*
X023730Y014620D01*
X018473Y014620D01*
X018385Y014583D01*
X018317Y014516D01*
X018280Y014428D01*
X018280Y014276D01*
X018209Y014246D01*
X018054Y014092D01*
X018020Y014010D01*
X017987Y014092D01*
X017832Y014246D01*
X017630Y014330D01*
X017411Y014330D01*
X017209Y014246D01*
X017054Y014092D01*
X017020Y014010D01*
X016987Y014092D01*
X016832Y014246D01*
X016630Y014330D01*
X016411Y014330D01*
X016209Y014246D01*
X016054Y014092D01*
X016020Y014010D01*
X015987Y014092D01*
X015832Y014246D01*
X015630Y014330D01*
X015411Y014330D01*
X015209Y014246D01*
X015054Y014092D01*
X015020Y014010D01*
X014987Y014092D01*
X014832Y014246D01*
X014630Y014330D01*
X014411Y014330D01*
X014209Y014246D01*
X014054Y014092D01*
X014020Y014010D01*
X013987Y014092D01*
X013832Y014246D01*
X013630Y014330D01*
X013411Y014330D01*
X013209Y014246D01*
X013054Y014092D01*
X013020Y014010D01*
X012987Y014092D01*
X012832Y014246D01*
X012630Y014330D01*
X012411Y014330D01*
X012209Y014246D01*
X012054Y014092D01*
X012046Y014071D01*
X012034Y014094D01*
X011978Y014171D01*
X011911Y014238D01*
X011835Y014293D01*
X011751Y014336D01*
X011661Y014365D01*
X011568Y014380D01*
X011540Y014380D01*
X011540Y013800D01*
X011500Y013800D01*
X011500Y014380D01*
X011473Y014380D01*
X011380Y014365D01*
X011290Y014336D01*
X011206Y014293D01*
X011130Y014238D01*
X011063Y014171D01*
X011007Y014094D01*
X010995Y014071D01*
X010987Y014092D01*
X010832Y014246D01*
X010760Y014276D01*
X010760Y014681D01*
X011245Y015165D01*
X024930Y015165D01*
X024930Y014148D01*
X024930Y014228D02*
X024850Y014228D01*
X024930Y014387D02*
X024395Y014387D01*
X024358Y014545D02*
X024930Y014545D01*
X024930Y014704D02*
X024219Y014704D01*
X023822Y014704D02*
X010783Y014704D01*
X010760Y014545D02*
X018346Y014545D01*
X018280Y014387D02*
X010760Y014387D01*
X010850Y014228D02*
X011120Y014228D01*
X011500Y014228D02*
X011540Y014228D01*
X011540Y014070D02*
X011500Y014070D01*
X011500Y013911D02*
X011540Y013911D01*
X011921Y014228D02*
X012191Y014228D01*
X012850Y014228D02*
X013191Y014228D01*
X013045Y014070D02*
X012996Y014070D01*
X013850Y014228D02*
X014191Y014228D01*
X014045Y014070D02*
X013996Y014070D01*
X014850Y014228D02*
X015191Y014228D01*
X015045Y014070D02*
X014996Y014070D01*
X015850Y014228D02*
X016191Y014228D01*
X016045Y014070D02*
X015996Y014070D01*
X016850Y014228D02*
X017191Y014228D01*
X017045Y014070D02*
X016996Y014070D01*
X017850Y014228D02*
X018191Y014228D01*
X018045Y014070D02*
X017996Y014070D01*
X011100Y015021D02*
X024930Y015021D01*
X024930Y014862D02*
X010942Y014862D01*
X010191Y014228D02*
X009850Y014228D01*
X009996Y014070D02*
X010045Y014070D01*
X010087Y013436D02*
X009954Y013436D01*
X005441Y012326D02*
X005281Y012326D01*
X005281Y012168D02*
X005441Y012168D01*
X005441Y012009D02*
X005281Y012009D01*
X005281Y011851D02*
X005441Y011851D01*
X005441Y011692D02*
X005281Y011692D01*
X005281Y011534D02*
X005441Y011534D01*
X005441Y011375D02*
X005281Y011375D01*
X005281Y011217D02*
X005441Y011217D01*
X006812Y011534D02*
X007740Y011534D01*
X007740Y011692D02*
X006812Y011692D01*
X006812Y011851D02*
X007740Y011851D01*
X003322Y010741D02*
X002800Y010741D01*
X002800Y010583D02*
X006422Y010583D01*
X006258Y010424D02*
X002800Y010424D01*
X002800Y010266D02*
X006249Y010266D01*
X007339Y010266D02*
X007402Y010266D01*
X007402Y010424D02*
X007331Y010424D01*
X007339Y010107D02*
X007402Y010107D01*
X009041Y010266D02*
X010780Y010266D01*
X010780Y010424D02*
X009136Y010424D01*
X009149Y010583D02*
X010780Y010583D01*
X003228Y010900D02*
X002800Y010900D01*
X002800Y011058D02*
X003215Y011058D01*
X003885Y013753D02*
X004003Y013753D01*
D32*
X003901Y013709D02*
X003855Y013755D01*
X003901Y013801D01*
X003955Y013933D01*
X003955Y014005D01*
X007095Y014005D01*
X007095Y011005D01*
X003955Y011005D01*
X003955Y011077D01*
X003901Y011209D01*
X003855Y011255D01*
X003901Y011301D01*
X003955Y011433D01*
X003955Y011577D01*
X003901Y011709D01*
X003855Y011755D01*
X003901Y011801D01*
X003955Y011933D01*
X003955Y012077D01*
X003901Y012209D01*
X003855Y012255D01*
X003901Y012301D01*
X003955Y012433D01*
X003955Y012577D01*
X003901Y012709D01*
X003855Y012755D01*
X003901Y012801D01*
X003955Y012933D01*
X003955Y013077D01*
X003901Y013209D01*
X003855Y013255D01*
X003901Y013301D01*
X003955Y013433D01*
X003955Y013577D01*
X003901Y013709D01*
X003917Y013671D02*
X007095Y013671D01*
X007095Y013789D02*
X003889Y013789D01*
X003945Y013908D02*
X007095Y013908D01*
X006770Y014030D02*
X006595Y014005D01*
X006770Y014030D02*
X006770Y014930D01*
X006794Y015005D01*
X007897Y015005D02*
X007897Y013741D01*
X008235Y013403D01*
X008270Y013438D01*
X008270Y014030D01*
X007095Y013552D02*
X003955Y013552D01*
X003955Y013434D02*
X007095Y013434D01*
X007095Y013315D02*
X003906Y013315D01*
X003906Y013197D02*
X007095Y013197D01*
X007095Y013078D02*
X003955Y013078D01*
X003955Y012960D02*
X007095Y012960D01*
X007095Y012841D02*
X003917Y012841D01*
X003887Y012723D02*
X007095Y012723D01*
X007095Y012604D02*
X003944Y012604D01*
X003955Y012486D02*
X007095Y012486D01*
X007095Y012367D02*
X003928Y012367D01*
X003861Y012249D02*
X007095Y012249D01*
X007095Y012130D02*
X003933Y012130D01*
X003955Y012012D02*
X007095Y012012D01*
X007095Y011893D02*
X003939Y011893D01*
X003874Y011775D02*
X007095Y011775D01*
X007095Y011656D02*
X003923Y011656D01*
X003955Y011538D02*
X007095Y011538D01*
X007095Y011419D02*
X003950Y011419D01*
X003900Y011301D02*
X007095Y011301D01*
X007095Y011182D02*
X003912Y011182D01*
X003955Y011064D02*
X007095Y011064D01*
X006770Y010980D02*
X006595Y011005D01*
X006770Y010980D02*
X006770Y010030D01*
X006794Y010005D01*
X007897Y010005D02*
X007897Y008723D01*
X006454Y007280D01*
X010470Y008530D02*
X010620Y008680D01*
X010470Y008530D02*
X010470Y004280D01*
X011090Y004350D02*
X009520Y002780D01*
X010520Y002780D02*
X011395Y003655D01*
X011770Y003655D01*
X012020Y003905D01*
X012020Y004350D01*
X011520Y004350D02*
X011090Y004350D01*
X012520Y004350D02*
X012520Y003780D01*
X011520Y002780D01*
X012520Y002780D02*
X013020Y003280D01*
X013020Y004350D01*
X013520Y004350D02*
X013520Y002780D01*
X014020Y003280D02*
X014520Y002780D01*
X014020Y003280D02*
X014020Y004350D01*
X014520Y004350D02*
X014520Y003780D01*
X015520Y002780D01*
X015770Y003530D02*
X016520Y002780D01*
X017520Y002780D02*
X017520Y001780D01*
X018145Y001280D01*
X057820Y001280D01*
X059820Y003280D01*
X059820Y005080D01*
X058820Y006080D01*
X057570Y006080D01*
X057520Y006130D01*
X057520Y011905D01*
X057395Y012030D01*
X056590Y012030D01*
X056590Y011530D02*
X057270Y011530D01*
X057270Y005980D01*
X057470Y005780D01*
X058620Y005780D01*
X059520Y004880D01*
X059520Y003480D01*
X057570Y001530D01*
X018770Y001530D01*
X018520Y001780D01*
X018520Y002780D01*
X018520Y003530D01*
X019145Y004155D01*
X019145Y004965D01*
X019140Y004970D01*
X019370Y004980D02*
X019370Y005380D01*
X020220Y005380D01*
X020220Y005630D01*
X020470Y005880D01*
X021420Y005880D01*
X021420Y006780D01*
X021006Y006780D01*
X020770Y006780D01*
X020570Y006980D01*
X020570Y007330D01*
X021320Y008080D01*
X021570Y008530D02*
X019895Y008530D01*
X019375Y008030D02*
X019150Y007806D01*
X019150Y006590D01*
X019395Y006595D02*
X019400Y006590D01*
X019395Y006595D02*
X019395Y006905D01*
X019520Y007030D01*
X019520Y007280D01*
X021006Y007154D02*
X021394Y007154D01*
X021395Y007155D01*
X021770Y006780D01*
X022520Y006780D01*
X023395Y005905D01*
X024320Y006830D01*
X024320Y007430D01*
X024770Y007880D01*
X025570Y008030D02*
X027120Y008030D01*
X025870Y008430D02*
X027070Y009630D01*
X027070Y010730D01*
X027970Y010730D01*
X028220Y010480D01*
X028220Y009830D01*
X029970Y009830D01*
X030220Y010080D01*
X030220Y010730D01*
X031020Y010730D01*
X035170Y006580D01*
X035170Y003730D01*
X039620Y003730D01*
X039920Y004030D01*
X039920Y004530D01*
X045670Y004530D01*
X046720Y005580D01*
X050270Y005580D01*
X052420Y007730D01*
X052420Y009930D01*
X052770Y010280D01*
X052220Y010080D02*
X052020Y009880D01*
X052020Y009480D01*
X052220Y010080D02*
X052220Y011230D01*
X052270Y011280D01*
X051270Y011280D02*
X051270Y010130D01*
X050420Y009280D01*
X050420Y006830D01*
X049520Y006830D01*
X049120Y007230D01*
X049670Y007230D02*
X045720Y011180D01*
X045720Y011480D01*
X044370Y012830D01*
X031720Y012830D01*
X031720Y011780D01*
X031270Y011280D02*
X029970Y012580D01*
X029970Y012880D01*
X029870Y012980D01*
X029720Y012580D02*
X028270Y014030D01*
X028270Y014080D01*
X028270Y013380D02*
X027770Y012880D01*
X025570Y012880D01*
X025570Y012980D01*
X025570Y012080D02*
X025570Y010280D01*
X024770Y009730D02*
X023470Y008430D01*
X023470Y007630D01*
X023170Y007330D01*
X023146Y007280D01*
X023020Y007154D01*
X022035Y007154D01*
X022035Y008066D01*
X021570Y008530D01*
X022620Y009080D02*
X023070Y008630D01*
X022620Y009080D02*
X022620Y010630D01*
X021020Y012230D01*
X019070Y012230D01*
X019270Y012580D02*
X019220Y012630D01*
X014520Y012630D01*
X014520Y012580D01*
X014520Y012980D02*
X014520Y013780D01*
X013920Y013380D02*
X013520Y013780D01*
X013920Y013380D02*
X013920Y011630D01*
X020920Y011630D01*
X020120Y011230D02*
X020120Y010980D01*
X020920Y010980D01*
X020120Y010330D02*
X021870Y010330D01*
X021920Y009830D02*
X020120Y009830D01*
X019820Y009430D02*
X022220Y009430D01*
X021920Y009030D02*
X020120Y009030D01*
X019375Y008030D02*
X019625Y007780D01*
X020020Y007780D01*
X020020Y006780D01*
X020395Y006405D01*
X021005Y006405D01*
X021006Y006406D01*
X021420Y005880D02*
X021420Y004580D01*
X021395Y004555D01*
X021170Y004780D01*
X021166Y004780D01*
X021395Y004555D02*
X022520Y003430D01*
X022520Y002780D01*
X021620Y002680D02*
X021620Y002030D01*
X021870Y001780D01*
X028220Y001780D01*
X029270Y002830D01*
X029270Y003530D01*
X028895Y003155D02*
X027920Y002180D01*
X022020Y002180D01*
X021620Y002680D02*
X021520Y002780D01*
X020620Y002880D02*
X020620Y005480D01*
X019370Y005380D02*
X018920Y005830D01*
X018890Y005830D01*
X018890Y005650D01*
X018645Y005405D01*
X018645Y004975D01*
X018895Y004965D02*
X018900Y004970D01*
X018895Y004965D02*
X018895Y004405D01*
X017520Y003030D01*
X017520Y002780D01*
X019520Y002780D02*
X020070Y002230D01*
X020520Y002780D02*
X020620Y002880D01*
X022970Y003330D02*
X022970Y003980D01*
X023370Y004380D01*
X025170Y004380D01*
X025170Y015405D01*
X011145Y015405D01*
X010520Y014780D01*
X010520Y013780D01*
X010520Y013230D01*
X011970Y013230D01*
X016270Y008930D01*
X016270Y008080D01*
X017770Y006580D01*
X017769Y006530D01*
X018580Y006530D01*
X018640Y006590D01*
X018890Y006590D02*
X018890Y007806D01*
X018666Y008030D01*
X016520Y007230D02*
X016520Y006730D01*
X015870Y006730D01*
X015220Y007380D01*
X015220Y007980D01*
X015020Y008180D01*
X015020Y008210D01*
X015320Y008430D02*
X015320Y008930D01*
X013370Y010880D01*
X009020Y010880D01*
X008770Y010630D01*
X008770Y010530D01*
X008963Y010880D02*
X008235Y011607D01*
X007897Y011269D01*
X007897Y010005D01*
X008963Y010880D02*
X009020Y010880D01*
X011020Y010630D02*
X011020Y006630D01*
X013720Y007730D02*
X016020Y005430D01*
X017020Y005905D02*
X015520Y004405D01*
X015520Y004350D01*
X015020Y004350D02*
X015020Y003905D01*
X015395Y003530D01*
X015770Y003530D01*
X017955Y004970D02*
X017020Y005905D01*
X017020Y006529D01*
X017021Y006530D01*
X016370Y006280D02*
X015670Y006280D01*
X014220Y007730D01*
X014220Y007980D01*
X014020Y008180D01*
X014020Y008210D01*
X014320Y008430D02*
X014320Y009580D01*
X013270Y010630D01*
X011020Y010630D01*
X012220Y009330D02*
X013120Y010230D01*
X013220Y009430D02*
X013220Y008430D01*
X013020Y008230D01*
X013020Y008210D01*
X012720Y008430D02*
X012720Y009030D01*
X011720Y009030D02*
X011720Y008430D01*
X011520Y008230D01*
X011520Y008210D01*
X012020Y008230D02*
X012020Y008210D01*
X012020Y008230D02*
X012220Y008430D01*
X012220Y009330D01*
X012720Y008430D02*
X012520Y008230D01*
X012520Y008210D01*
X013520Y008180D02*
X013520Y008210D01*
X013520Y008180D02*
X013720Y007980D01*
X013720Y007730D01*
X014320Y008430D02*
X014520Y008230D01*
X014520Y008210D01*
X015320Y008430D02*
X015520Y008230D01*
X015520Y008210D01*
X022035Y006406D02*
X022035Y004940D01*
X021875Y004780D01*
X022666Y004780D01*
X023375Y004780D02*
X023395Y004801D01*
X023395Y005905D01*
X024320Y006230D02*
X024770Y006680D01*
X024770Y007280D01*
X023894Y007280D02*
X023870Y007280D01*
X023870Y008080D01*
X026020Y005780D02*
X027770Y007530D01*
X027770Y010280D01*
X026670Y010680D02*
X027670Y011680D01*
X028470Y012080D02*
X025570Y012080D01*
X024270Y012030D02*
X022520Y013780D01*
X021520Y013780D02*
X022720Y012580D01*
X021020Y012580D02*
X019270Y012580D01*
X020920Y012980D02*
X014520Y012980D01*
X018520Y013780D02*
X018520Y014380D01*
X024020Y014380D01*
X025570Y014380D02*
X025570Y014680D01*
X042870Y014680D01*
X046270Y011280D01*
X045270Y011280D02*
X045270Y010030D01*
X042870Y007630D01*
X041620Y008430D02*
X043270Y010080D01*
X043270Y011280D01*
X043770Y010280D02*
X044370Y009680D01*
X045520Y010030D02*
X045520Y006930D01*
X043670Y005080D01*
X043660Y005060D01*
X039370Y005080D02*
X039370Y004280D01*
X039370Y005080D02*
X036820Y007630D01*
X036820Y011230D01*
X036770Y011280D01*
X035770Y011280D02*
X033670Y011280D01*
X033670Y009330D01*
X030770Y010280D02*
X030620Y010130D01*
X030620Y006180D01*
X030620Y002180D01*
X034620Y002180D02*
X034620Y006180D01*
X029020Y007630D02*
X026470Y005080D01*
X026020Y004530D02*
X026020Y005780D01*
X023520Y002780D02*
X022970Y003330D01*
X037720Y009480D02*
X037720Y011230D01*
X037770Y011280D01*
X037220Y010330D02*
X037220Y012430D01*
X037220Y010330D02*
X037270Y010280D01*
X029770Y010280D02*
X029720Y010330D01*
X029720Y012580D01*
X028470Y012080D02*
X029270Y011280D01*
X023320Y010280D02*
X021020Y012580D01*
X025170Y015405D02*
X054720Y015405D01*
X056590Y013535D01*
X056590Y012530D01*
X056145Y012530D01*
X055395Y011780D01*
X055395Y010280D01*
X056145Y009530D01*
X056590Y009530D01*
X057770Y009655D02*
X057770Y010905D01*
X057895Y011030D01*
X058450Y011030D01*
X057895Y011030D02*
X057770Y011155D01*
X057770Y012280D01*
X058020Y012530D01*
X058270Y012530D01*
X058450Y012530D01*
X058270Y012530D02*
X058270Y012780D01*
X057020Y014030D01*
X056520Y014030D01*
X056270Y014280D01*
X056270Y014905D01*
X056500Y015134D01*
X058020Y015134D01*
X059020Y015134D01*
X060020Y015134D01*
X061020Y015134D01*
X061020Y014426D02*
X061020Y014180D01*
X061120Y014080D01*
X061820Y014080D01*
X062620Y013280D01*
X062620Y009380D01*
X061520Y008280D01*
X061020Y008280D01*
X060520Y009280D02*
X059770Y008530D01*
X058450Y008530D01*
X057895Y008030D02*
X057770Y008155D01*
X057770Y009280D01*
X058020Y009530D01*
X058450Y009530D01*
X057895Y009530D01*
X057770Y009655D01*
X058450Y009030D02*
X059170Y009030D01*
X060420Y010280D01*
X061020Y010280D01*
X061270Y010280D01*
X062045Y011055D01*
X062045Y013055D01*
X061720Y013380D01*
X059720Y013380D01*
X059020Y014080D01*
X059020Y014426D01*
X060020Y014426D02*
X060020Y014080D01*
X060320Y013780D01*
X061720Y013780D01*
X062320Y013180D01*
X062320Y010580D01*
X061020Y009280D01*
X060520Y009280D01*
X059270Y008030D02*
X058450Y008030D01*
X057895Y008030D01*
X056590Y008030D02*
X056570Y008030D01*
X055245Y008005D01*
X055645Y008405D02*
X055770Y008530D01*
X056590Y008530D01*
X056590Y009030D02*
X055645Y009030D01*
X053270Y008030D02*
X053270Y011280D01*
X055770Y011030D02*
X056590Y011030D01*
X058450Y011530D02*
X060395Y011530D01*
X060645Y011280D01*
X061020Y011280D01*
X061520Y011280D01*
X061795Y011555D01*
X061795Y012805D01*
X061620Y012980D01*
X059466Y012980D01*
X058020Y014426D01*
X057791Y013655D02*
X057020Y014426D01*
X057020Y015134D02*
X058020Y015134D01*
X057791Y013655D02*
X058270Y013655D01*
X059270Y012655D01*
X059520Y012655D01*
X059520Y012030D01*
X060770Y012030D01*
X061020Y012280D01*
X059520Y012030D02*
X058450Y012030D01*
X053270Y008030D02*
X051670Y006430D01*
X050270Y005080D02*
X050260Y005060D01*
X050220Y005080D01*
X048620Y005080D01*
X048580Y005060D01*
X050270Y005080D02*
X055170Y005080D01*
X055180Y005060D02*
X055220Y005080D01*
X045770Y010280D02*
X045520Y010030D01*
X003595Y011005D02*
X003570Y011030D01*
X003570Y011480D01*
X003595Y011505D01*
X003570Y011530D01*
X003570Y011980D01*
X003595Y012005D01*
X003570Y012030D01*
X003570Y012480D01*
X003595Y012505D01*
X003570Y012530D01*
X003570Y012980D01*
X003595Y013005D01*
X003570Y013030D01*
X003570Y013480D01*
X003595Y013505D01*
X003570Y013530D01*
X003570Y013980D01*
X003595Y014005D01*
D33*
X003595Y014005D03*
X004095Y014005D03*
X004595Y014005D03*
X005095Y014005D03*
X005595Y014005D03*
X006095Y014005D03*
X006595Y014005D03*
X007095Y014005D03*
X007095Y013505D03*
X007095Y013005D03*
X007095Y012505D03*
X007095Y012005D03*
X007095Y011505D03*
X007095Y011005D03*
X006595Y011005D03*
X006095Y011005D03*
X005595Y011005D03*
X005095Y011005D03*
X004595Y011005D03*
X004095Y011005D03*
X003595Y011005D03*
X003595Y011505D03*
X003595Y012005D03*
X003595Y012505D03*
X003595Y013005D03*
X003595Y013505D03*
D34*
X013120Y010230D03*
X013220Y009430D03*
X012720Y009030D03*
X011720Y009030D03*
X010620Y008680D03*
X016520Y007230D03*
X016370Y006280D03*
X016020Y005430D03*
X020620Y005480D03*
X024320Y006230D03*
X024770Y007280D03*
X024770Y007880D03*
X025570Y008030D03*
X025870Y008430D03*
X027120Y008030D03*
X029020Y007630D03*
X023870Y008080D03*
X023070Y008630D03*
X021920Y009030D03*
X022220Y009430D03*
X021920Y009830D03*
X020120Y009830D03*
X019820Y009430D03*
X020120Y009030D03*
X021320Y008080D03*
X024770Y009730D03*
X025570Y010280D03*
X026670Y010680D03*
X027670Y011680D03*
X024270Y012030D03*
X022720Y012580D03*
X020920Y012980D03*
X019070Y012230D03*
X020920Y011630D03*
X020120Y011230D03*
X020920Y010980D03*
X020120Y010330D03*
X021870Y010330D03*
X023320Y010280D03*
X031720Y011780D03*
X029870Y012980D03*
X028270Y013380D03*
X028270Y014080D03*
X025570Y014380D03*
X024020Y014380D03*
X025570Y012980D03*
X014520Y012580D03*
X011020Y006630D03*
X010470Y004280D03*
X022020Y002180D03*
X026470Y005080D03*
X033670Y009330D03*
X037720Y009480D03*
X041620Y008430D03*
X042870Y007630D03*
X049120Y007230D03*
X049670Y007230D03*
X051670Y006430D03*
X059270Y008030D03*
X052020Y009480D03*
X055770Y011030D03*
X044370Y009680D03*
X037220Y012430D03*
D35*
X061020Y005280D02*
X061020Y003655D01*
X058145Y000780D01*
X009520Y000780D01*
X008020Y002280D01*
X008020Y002767D01*
X007883Y002905D01*
X007758Y002780D01*
X007020Y002780D01*
X005520Y001280D01*
X004770Y001280D01*
X003270Y002780D01*
X003270Y007280D01*
X006454Y007280D01*
X008276Y007280D02*
X008276Y006536D01*
X005520Y003780D01*
X005520Y002905D01*
D36*
X019520Y007280D03*
X019895Y008530D03*
X008770Y010530D03*
X008270Y014030D03*
X026020Y004530D03*
X029270Y003530D03*
X028895Y003155D03*
X055645Y008405D03*
X055645Y009030D03*
D37*
X057639Y004119D03*
X027611Y004119D03*
M02*
