%
M48
M72
T01C0.0230
T02C0.0236
T03C0.0240
T04C0.0320
T05C0.0354
T06C0.0400
T07C0.0470
T08C0.0510
T09C0.0710
T10C0.1260
T11C0.1280
%
T01
X8130Y4280
X13680Y5430
X14030Y6280
X14180Y7230
X17780Y8430
X18980Y8080
X20730Y8630
X19580Y9030
X19880Y9430
X19580Y9830
X20980Y10280
X19530Y10330
X18580Y10980
X17780Y11230
X18580Y11630
X16730Y12230
X18580Y12980
X20380Y12580
X21930Y12030
X23230Y12980
X25930Y13380
X27530Y12980
X25930Y14080
X23230Y14380
X21680Y14380
X25330Y11680
X24330Y10680
X23230Y10280
X22430Y9730
X23530Y8430
X23230Y8030
X22430Y7880
X21530Y8080
X22430Y7280
X24780Y8030
X27180Y7630
X21980Y6230
X24630Y5080
X23230Y4680
X27380Y3530
X26980Y3230
X19680Y2180
X18280Y5480
X8680Y7630
X8280Y8680
X9380Y9030
X10380Y9030
X10880Y9430
X10780Y10230
X17480Y9430
X17780Y9030
X17780Y9830
X17780Y10330
X12180Y12580
X1830Y8430
X29380Y11780
X34880Y12430
X42030Y9680
X39280Y8430
X40530Y7630
X35380Y9480
X31330Y9330
X46780Y7230
X47330Y7230
X49330Y6430
X56930Y8030
X49680Y9480
X53430Y11030
T02
X53305Y9030
X53305Y8405
X17180Y7280
X880Y13680
T03
X2305Y11655
X2805Y11655
X3305Y11655
X3805Y11655
X4305Y11655
X4805Y11655
X5305Y11655
X5805Y11655
X5805Y11155
X5805Y10655
X5805Y10155
X5805Y9655
X5805Y9155
X5805Y8655
X5305Y8655
X4805Y8655
X4305Y8655
X3805Y8655
X3305Y8655
X2805Y8655
X2305Y8655
X2305Y9155
X2305Y9655
X2305Y10155
X2305Y10655
X2305Y11155
T04
X3180Y5155
X5542Y5155
X4381Y3226
X58680Y5280
X58680Y6280
X58680Y7280
X58680Y8280
X58680Y9280
X58680Y10280
X58680Y11280
X58680Y12280
T05
X51930Y11280
X50930Y11280
X49930Y11280
X48930Y11280
X48430Y10280
X49430Y10280
X50430Y10280
X51430Y10280
X43930Y11280
X42930Y11280
X41930Y11280
X40930Y11280
X40430Y10280
X41430Y10280
X42430Y10280
X43430Y10280
X36430Y11280
X35430Y11280
X34430Y11280
X33430Y11280
X32930Y10280
X33930Y10280
X34930Y10280
X35930Y10280
X28930Y11280
X27930Y11280
X26930Y11280
X25930Y11280
X25430Y10280
X26430Y10280
X27430Y10280
X28430Y10280
T06
X7180Y2780
X8180Y2780
X9180Y2780
X10180Y2780
X11180Y2780
X12180Y2780
X13180Y2780
X14180Y2780
X15180Y2780
X16180Y2780
X17180Y2780
X18180Y2780
X19180Y2780
X20180Y2780
X21180Y2780
X22180Y2780
X22180Y3780
X21180Y3780
X21180Y13780
X20180Y13780
X19180Y13780
X18180Y13780
X17180Y13780
X16180Y13780
X15180Y13780
X14180Y13780
X13180Y13780
X12180Y13780
X11180Y13780
X10180Y13780
X9180Y13780
X8180Y13780
X7180Y13780
X22180Y13780
T07
X41320Y5060
X46240Y5060
X47920Y5060
X52840Y5060
X52840Y3100
X47920Y3100
X46240Y3100
X41320Y3100
T08
X39030Y2280
X35030Y2280
X32280Y2180
X28280Y2180
X30280Y4180
X28280Y6180
X32280Y6180
X35030Y6280
X39030Y6280
X37030Y4280
T09
X43780Y5850
X50380Y5850
X50380Y2310
X43780Y2310
T10
X55298Y4119
X25771Y4119
T11
X24930Y13780
X29430Y13780
X32430Y13780
X36930Y13780
X39930Y13780
X44430Y13780
X47930Y13780
X52430Y13780
M30
