G75*
%MOIN*%
%OFA0B0*%
%FSLAX24Y24*%
%IPPOS*%
%LPD*%
%AMOC8*
5,1,8,0,0,1.08239X$1,22.5*
%
%ADD10R,0.0669X0.0256*%
%ADD11R,0.0800X0.0260*%
%ADD12C,0.0554*%
%ADD13R,0.0512X0.0591*%
%ADD14R,0.2441X0.2126*%
%ADD15R,0.0630X0.0394*%
%ADD16C,0.0520*%
%ADD17C,0.0600*%
%ADD18C,0.0515*%
%ADD19R,0.0591X0.0512*%
%ADD20C,0.0160*%
%ADD21C,0.0400*%
%ADD22C,0.0140*%
%ADD23C,0.0120*%
%ADD24C,0.0500*%
%ADD25C,0.0390*%
%ADD26C,0.0396*%
%ADD27C,0.2362*%
D10*
X027451Y001180D03*
X027451Y001680D03*
X027451Y002180D03*
X027451Y002680D03*
X027451Y003180D03*
X027451Y003680D03*
X027451Y004180D03*
X027451Y004680D03*
X027451Y005180D03*
X027451Y005680D03*
X027451Y006180D03*
X027451Y006680D03*
X027451Y007180D03*
X027451Y007680D03*
X031215Y007680D03*
X031215Y007180D03*
X031215Y006680D03*
X031215Y006180D03*
X031215Y005680D03*
X031215Y005180D03*
X031215Y004680D03*
X031215Y004180D03*
X031215Y003680D03*
X031215Y003180D03*
X031215Y002680D03*
X031215Y002180D03*
X031215Y001680D03*
X031215Y001180D03*
X048451Y001180D03*
X048451Y001680D03*
X048451Y002180D03*
X048451Y002680D03*
X048451Y003180D03*
X048451Y003680D03*
X048451Y004180D03*
X048451Y004680D03*
X048451Y005180D03*
X048451Y005680D03*
X048451Y006180D03*
X048451Y006680D03*
X048451Y007180D03*
X048451Y007680D03*
X052215Y007680D03*
X052215Y007180D03*
X052215Y006680D03*
X052215Y006180D03*
X052215Y005680D03*
X052215Y005180D03*
X052215Y004680D03*
X052215Y004180D03*
X052215Y003680D03*
X052215Y003180D03*
X052215Y002680D03*
X052215Y002180D03*
X052215Y001680D03*
X052215Y001180D03*
D11*
X053903Y001180D03*
X053903Y001680D03*
X053903Y002180D03*
X053903Y002680D03*
X053903Y003180D03*
X053903Y003680D03*
X053903Y004180D03*
X053903Y004680D03*
X053903Y005180D03*
X057763Y005180D03*
X057763Y004680D03*
X057763Y004180D03*
X057763Y003680D03*
X057763Y003180D03*
X057763Y002680D03*
X057763Y002180D03*
X057763Y001680D03*
X057763Y001180D03*
X047263Y001180D03*
X047263Y001680D03*
X047263Y002180D03*
X047263Y002680D03*
X047263Y003180D03*
X047263Y003680D03*
X047263Y004180D03*
X047263Y004680D03*
X047263Y005180D03*
X043403Y005180D03*
X043403Y004680D03*
X043403Y004180D03*
X043403Y003680D03*
X043403Y003180D03*
X043403Y002680D03*
X043403Y002180D03*
X043403Y001680D03*
X043403Y001180D03*
D12*
X043583Y010180D03*
X042583Y010180D03*
X041583Y010180D03*
X044583Y010180D03*
X044083Y011180D03*
X045083Y011180D03*
X043083Y011180D03*
X042083Y011180D03*
X038083Y011180D03*
X037083Y011180D03*
X036083Y011180D03*
X035083Y011180D03*
X034583Y010180D03*
X035583Y010180D03*
X036583Y010180D03*
X037583Y010180D03*
X031083Y011180D03*
X030083Y011180D03*
X029083Y011180D03*
X028083Y011180D03*
X027583Y010180D03*
X028583Y010180D03*
X029583Y010180D03*
X030583Y010180D03*
X024083Y011180D03*
X023083Y011180D03*
X022083Y011180D03*
X021083Y011180D03*
X020583Y010180D03*
X021583Y010180D03*
X022583Y010180D03*
X023583Y010180D03*
X017083Y011180D03*
X016083Y011180D03*
X015083Y011180D03*
X014083Y011180D03*
X013583Y010180D03*
X014583Y010180D03*
X015583Y010180D03*
X016583Y010180D03*
X048583Y010180D03*
X049583Y010180D03*
X050583Y010180D03*
X051583Y010180D03*
X051083Y011180D03*
X050083Y011180D03*
X049083Y011180D03*
X052083Y011180D03*
X055583Y010180D03*
X056583Y010180D03*
X057583Y010180D03*
X058583Y010180D03*
X058083Y011180D03*
X057083Y011180D03*
X056083Y011180D03*
X059083Y011180D03*
X062583Y010180D03*
X063583Y010180D03*
X064583Y010180D03*
X065583Y010180D03*
X065083Y011180D03*
X066083Y011180D03*
X064083Y011180D03*
X063083Y011180D03*
D13*
X047668Y006180D03*
X046999Y006180D03*
X026418Y006180D03*
X025749Y006180D03*
X069749Y005180D03*
X070418Y005180D03*
X070418Y003180D03*
X069749Y003180D03*
D14*
X065849Y004180D03*
D15*
X068723Y003282D03*
X068723Y005078D03*
D16*
X071573Y005180D02*
X072093Y005180D01*
X072093Y006180D02*
X071573Y006180D01*
X071573Y007180D02*
X072093Y007180D01*
X072093Y008180D02*
X071573Y008180D01*
X071573Y009180D02*
X072093Y009180D01*
X072093Y010180D02*
X071573Y010180D01*
X071573Y011180D02*
X072093Y011180D01*
X072093Y012180D02*
X071573Y012180D01*
D17*
X007383Y012180D02*
X006783Y012180D01*
X006783Y011180D02*
X007383Y011180D01*
X007383Y010180D02*
X006783Y010180D01*
X006783Y009180D02*
X007383Y009180D01*
X007383Y008180D02*
X006783Y008180D01*
X006783Y007180D02*
X007383Y007180D01*
X007383Y006180D02*
X006783Y006180D01*
X006783Y005180D02*
X007383Y005180D01*
D18*
X017833Y006180D03*
X018833Y006180D03*
X019833Y006180D03*
X018833Y003180D03*
D19*
X018833Y006806D03*
X017833Y006806D03*
X019833Y006806D03*
X019833Y007554D03*
X018833Y007554D03*
X017833Y007554D03*
D20*
X005613Y014350D02*
X005613Y000460D01*
X075132Y000460D01*
X075132Y014350D01*
X067214Y014350D01*
X067363Y014201D01*
X067503Y013863D01*
X067503Y013497D01*
X067363Y013159D01*
X067104Y012900D01*
X066766Y012760D01*
X066400Y012760D01*
X066062Y012900D01*
X065803Y013159D01*
X065663Y013497D01*
X065663Y013863D01*
X065803Y014201D01*
X065952Y014350D01*
X062714Y014350D01*
X062863Y014201D01*
X063003Y013863D01*
X063003Y013497D01*
X062863Y013159D01*
X062604Y012900D01*
X062266Y012760D01*
X061900Y012760D01*
X061562Y012900D01*
X061303Y013159D01*
X061163Y013497D01*
X061163Y013863D01*
X061303Y014201D01*
X061452Y014350D01*
X060214Y014350D01*
X060363Y014201D01*
X060503Y013863D01*
X060503Y013497D01*
X060363Y013159D01*
X060104Y012900D01*
X059766Y012760D01*
X059400Y012760D01*
X059062Y012900D01*
X058803Y013159D01*
X058663Y013497D01*
X058663Y013863D01*
X058803Y014201D01*
X058952Y014350D01*
X057573Y014350D01*
X057573Y014132D01*
X057537Y014044D01*
X057469Y013977D01*
X054073Y010581D01*
X054073Y007520D01*
X054159Y007555D01*
X054269Y007555D01*
X054893Y008179D01*
X054893Y010928D01*
X054930Y011016D01*
X055680Y011766D01*
X055747Y011833D01*
X055836Y011870D01*
X057631Y011870D01*
X057719Y011833D01*
X057787Y011766D01*
X057823Y011678D01*
X057823Y011567D01*
X057824Y011568D01*
X057992Y011637D01*
X058174Y011637D01*
X058342Y011568D01*
X058471Y011439D01*
X058540Y011271D01*
X058540Y011089D01*
X058471Y010921D01*
X058342Y010792D01*
X058323Y010785D01*
X058323Y010673D01*
X058369Y010696D01*
X058453Y010723D01*
X058539Y010737D01*
X058575Y010737D01*
X058575Y010189D01*
X058592Y010189D01*
X058592Y010737D01*
X058627Y010737D01*
X058714Y010723D01*
X058797Y010696D01*
X058843Y010673D01*
X058843Y010785D01*
X058824Y010792D01*
X058696Y010921D01*
X058626Y011089D01*
X058626Y011271D01*
X058696Y011439D01*
X058824Y011568D01*
X058992Y011637D01*
X059174Y011637D01*
X059342Y011568D01*
X059471Y011439D01*
X059540Y011271D01*
X059540Y011089D01*
X059471Y010921D01*
X059342Y010792D01*
X059323Y010785D01*
X059323Y008432D01*
X059287Y008344D01*
X059219Y008277D01*
X059208Y008266D01*
X059208Y008155D01*
X059151Y008018D01*
X059046Y007912D01*
X058971Y007881D01*
X059287Y007566D01*
X059323Y007478D01*
X059323Y003132D01*
X059287Y003044D01*
X059219Y002977D01*
X059131Y002940D01*
X058308Y002940D01*
X058298Y002930D01*
X058343Y002885D01*
X058343Y002475D01*
X058298Y002430D01*
X058308Y002420D01*
X058393Y002420D01*
X058471Y002498D01*
X058609Y002555D01*
X058758Y002555D01*
X058896Y002498D01*
X059001Y002392D01*
X059058Y002255D01*
X059058Y002105D01*
X059001Y001968D01*
X058896Y001862D01*
X058758Y001805D01*
X058609Y001805D01*
X058471Y001862D01*
X058393Y001940D01*
X058308Y001940D01*
X058298Y001930D01*
X058343Y001885D01*
X058343Y001475D01*
X058298Y001430D01*
X058343Y001385D01*
X058343Y000975D01*
X058238Y000870D01*
X057289Y000870D01*
X057183Y000975D01*
X057183Y000990D01*
X056886Y000990D01*
X056797Y001027D01*
X056730Y001094D01*
X055180Y002644D01*
X055143Y002732D01*
X055143Y007751D01*
X054608Y007216D01*
X054608Y007105D01*
X054551Y006968D01*
X054446Y006862D01*
X054308Y006805D01*
X054159Y006805D01*
X054073Y006840D01*
X054073Y006632D01*
X054037Y006544D01*
X053969Y006477D01*
X053881Y006440D01*
X052692Y006440D01*
X052682Y006430D01*
X052730Y006383D01*
X052730Y006024D01*
X052767Y005986D01*
X052798Y005941D01*
X052819Y005890D01*
X052830Y005836D01*
X052830Y005680D01*
X052215Y005680D01*
X051601Y005680D01*
X051601Y005524D01*
X051611Y005470D01*
X051624Y005440D01*
X050941Y005440D01*
X049981Y006400D01*
X049885Y006440D01*
X049823Y006440D01*
X049823Y009785D01*
X049842Y009792D01*
X049971Y009921D01*
X050040Y010089D01*
X050040Y010271D01*
X049971Y010439D01*
X049842Y010568D01*
X049674Y010637D01*
X049492Y010637D01*
X049324Y010568D01*
X049273Y010517D01*
X049273Y010628D01*
X049237Y010716D01*
X049214Y010739D01*
X049342Y010792D01*
X049471Y010921D01*
X049540Y011089D01*
X049540Y011271D01*
X049471Y011439D01*
X049342Y011568D01*
X049323Y011575D01*
X049323Y011919D01*
X049365Y011818D01*
X049471Y011712D01*
X049609Y011655D01*
X049758Y011655D01*
X049896Y011712D01*
X049974Y011790D01*
X050343Y011790D01*
X050343Y011567D01*
X050342Y011568D01*
X050174Y011637D01*
X049992Y011637D01*
X049824Y011568D01*
X049696Y011439D01*
X049626Y011271D01*
X049626Y011089D01*
X049696Y010921D01*
X049824Y010792D01*
X049992Y010723D01*
X050174Y010723D01*
X050342Y010792D01*
X050343Y010793D01*
X050343Y010575D01*
X050324Y010568D01*
X050196Y010439D01*
X050126Y010271D01*
X050126Y010089D01*
X050196Y009921D01*
X050324Y009792D01*
X050492Y009723D01*
X050674Y009723D01*
X050842Y009792D01*
X050971Y009921D01*
X051036Y010077D01*
X051040Y010050D01*
X051067Y009966D01*
X051107Y009888D01*
X051158Y009817D01*
X051220Y009755D01*
X051291Y009703D01*
X051369Y009664D01*
X051453Y009637D01*
X051539Y009623D01*
X051575Y009623D01*
X051575Y010171D01*
X051592Y010171D01*
X051592Y009623D01*
X051627Y009623D01*
X051714Y009637D01*
X051743Y009646D01*
X051743Y008732D01*
X051780Y008644D01*
X051847Y008577D01*
X052436Y007988D01*
X051806Y007988D01*
X051701Y007883D01*
X051701Y007477D01*
X051748Y007430D01*
X051701Y007383D01*
X051701Y006977D01*
X051748Y006930D01*
X051701Y006883D01*
X051701Y006477D01*
X051748Y006430D01*
X051701Y006383D01*
X051701Y006024D01*
X051663Y005986D01*
X051632Y005941D01*
X051611Y005890D01*
X051601Y005836D01*
X051601Y005680D01*
X052215Y005680D01*
X052215Y005680D01*
X052215Y005680D01*
X052830Y005680D01*
X052830Y005524D01*
X052819Y005470D01*
X052798Y005419D01*
X052767Y005374D01*
X052730Y005336D01*
X052730Y004977D01*
X052692Y004940D01*
X052726Y004940D01*
X053113Y005327D01*
X053186Y005400D01*
X053282Y005440D01*
X053379Y005440D01*
X053429Y005490D01*
X054378Y005490D01*
X054483Y005385D01*
X054483Y004975D01*
X054438Y004930D01*
X054483Y004885D01*
X054483Y004475D01*
X054438Y004430D01*
X054483Y004385D01*
X054483Y003975D01*
X054438Y003930D01*
X054483Y003885D01*
X054483Y003475D01*
X054438Y003430D01*
X054483Y003385D01*
X054483Y002975D01*
X054438Y002930D01*
X054483Y002885D01*
X054483Y002475D01*
X054438Y002430D01*
X054483Y002385D01*
X054483Y001975D01*
X054438Y001930D01*
X054483Y001885D01*
X054483Y001526D01*
X054521Y001488D01*
X054551Y001443D01*
X054573Y001392D01*
X054583Y001338D01*
X054583Y001180D01*
X053903Y001180D01*
X053223Y001180D01*
X053223Y001022D01*
X053234Y000968D01*
X053255Y000917D01*
X053286Y000872D01*
X053325Y000833D01*
X053371Y000802D01*
X053422Y000781D01*
X053476Y000770D01*
X053903Y000770D01*
X053903Y001180D01*
X053903Y001180D01*
X053223Y001180D01*
X053223Y001202D01*
X052981Y000960D01*
X052885Y000920D01*
X052672Y000920D01*
X052624Y000872D01*
X051806Y000872D01*
X051701Y000977D01*
X051701Y001383D01*
X051748Y001430D01*
X051701Y001477D01*
X051701Y001883D01*
X051748Y001930D01*
X051701Y001977D01*
X051701Y002383D01*
X051748Y002430D01*
X051701Y002477D01*
X051701Y002883D01*
X051748Y002930D01*
X051701Y002977D01*
X051701Y003383D01*
X051748Y003430D01*
X051701Y003477D01*
X051701Y003883D01*
X051748Y003930D01*
X051701Y003977D01*
X051701Y004383D01*
X051748Y004430D01*
X051701Y004477D01*
X051701Y004883D01*
X051738Y004920D01*
X050782Y004920D01*
X050686Y004960D01*
X050613Y005033D01*
X049726Y005920D01*
X048929Y005920D01*
X048966Y005883D01*
X048966Y005477D01*
X048919Y005430D01*
X048966Y005383D01*
X048966Y004977D01*
X048919Y004930D01*
X048966Y004883D01*
X048966Y004477D01*
X048919Y004430D01*
X048966Y004383D01*
X048966Y003977D01*
X048919Y003930D01*
X048966Y003883D01*
X048966Y003477D01*
X048919Y003430D01*
X048966Y003383D01*
X048966Y002977D01*
X048919Y002930D01*
X048966Y002883D01*
X048966Y002477D01*
X048919Y002430D01*
X048966Y002383D01*
X048966Y001977D01*
X048919Y001930D01*
X048966Y001883D01*
X048966Y001477D01*
X048919Y001430D01*
X048966Y001383D01*
X048966Y000977D01*
X048861Y000872D01*
X048042Y000872D01*
X047994Y000920D01*
X047788Y000920D01*
X047738Y000870D01*
X046789Y000870D01*
X046683Y000975D01*
X046683Y001385D01*
X046729Y001430D01*
X046683Y001475D01*
X046683Y001885D01*
X046729Y001930D01*
X046683Y001975D01*
X046683Y002385D01*
X046729Y002430D01*
X046683Y002475D01*
X046683Y002885D01*
X046729Y002930D01*
X046683Y002975D01*
X046683Y003385D01*
X046729Y003430D01*
X046683Y003475D01*
X046683Y003885D01*
X046729Y003930D01*
X046683Y003975D01*
X046683Y004385D01*
X046729Y004430D01*
X046683Y004475D01*
X046683Y004834D01*
X046646Y004872D01*
X046615Y004917D01*
X046594Y004968D01*
X046583Y005022D01*
X046583Y005180D01*
X047263Y005180D01*
X047263Y005180D01*
X046583Y005180D01*
X046583Y005338D01*
X046594Y005392D01*
X046615Y005443D01*
X046646Y005488D01*
X046685Y005527D01*
X046731Y005558D01*
X046782Y005579D01*
X046836Y005590D01*
X047263Y005590D01*
X047263Y005180D01*
X047263Y005180D01*
X046999Y005445D01*
X046999Y006180D01*
X047047Y006228D02*
X046951Y006228D01*
X046951Y006755D01*
X046715Y006755D01*
X046673Y006747D01*
X046673Y008240D01*
X046751Y008318D01*
X046797Y008427D01*
X046843Y008381D01*
X046843Y007632D01*
X046880Y007544D01*
X046947Y007477D01*
X047036Y007440D01*
X047113Y007440D01*
X047065Y007392D01*
X047008Y007255D01*
X047008Y007105D01*
X047065Y006968D01*
X047171Y006862D01*
X047309Y006805D01*
X047458Y006805D01*
X047596Y006862D01*
X047674Y006940D01*
X047974Y006940D01*
X047984Y006930D01*
X047937Y006883D01*
X047937Y006655D01*
X047471Y006655D01*
X047433Y006693D01*
X047387Y006723D01*
X047336Y006745D01*
X047282Y006755D01*
X047047Y006755D01*
X047047Y006228D01*
X047047Y006132D02*
X047047Y005605D01*
X047282Y005605D01*
X047336Y005615D01*
X047387Y005637D01*
X047433Y005667D01*
X047471Y005705D01*
X047937Y005705D01*
X047937Y005477D01*
X047984Y005430D01*
X047937Y005383D01*
X047937Y005370D01*
X047933Y005392D01*
X047911Y005443D01*
X047881Y005488D01*
X047842Y005527D01*
X047796Y005558D01*
X047745Y005579D01*
X047691Y005590D01*
X047263Y005590D01*
X047263Y005180D01*
X047263Y005252D02*
X047263Y005252D01*
X047263Y005411D02*
X047263Y005411D01*
X047263Y005569D02*
X047263Y005569D01*
X047047Y005728D02*
X046951Y005728D01*
X046951Y005605D02*
X046951Y006132D01*
X047047Y006132D01*
X047047Y006045D02*
X046951Y006045D01*
X046951Y005886D02*
X047047Y005886D01*
X046951Y005605D02*
X046715Y005605D01*
X046661Y005615D01*
X046610Y005637D01*
X046564Y005667D01*
X046525Y005706D01*
X046495Y005752D01*
X046492Y005758D01*
X046396Y005662D01*
X046258Y005605D01*
X046109Y005605D01*
X045971Y005662D01*
X045908Y005725D01*
X045846Y005662D01*
X045708Y005605D01*
X045559Y005605D01*
X045473Y005640D01*
X045473Y001132D01*
X045437Y001044D01*
X045369Y000977D01*
X045281Y000940D01*
X043948Y000940D01*
X043878Y000870D01*
X042929Y000870D01*
X042823Y000975D01*
X042823Y001385D01*
X042869Y001430D01*
X042859Y001440D01*
X042274Y001440D01*
X042196Y001362D01*
X042101Y001323D01*
X042108Y001305D01*
X042108Y001155D01*
X042051Y001018D01*
X041946Y000912D01*
X041808Y000855D01*
X041659Y000855D01*
X041521Y000912D01*
X041415Y001018D01*
X041358Y001155D01*
X041358Y001266D01*
X040969Y001655D01*
X040859Y001655D01*
X040721Y001712D01*
X040615Y001818D01*
X040558Y001955D01*
X040558Y002105D01*
X040615Y002242D01*
X040721Y002348D01*
X040859Y002405D01*
X041008Y002405D01*
X041093Y002370D01*
X041093Y007781D01*
X041082Y007792D01*
X041051Y007718D01*
X040973Y007640D01*
X040973Y003332D01*
X040937Y003244D01*
X040869Y003177D01*
X040508Y002816D01*
X040508Y002705D01*
X040451Y002568D01*
X040346Y002462D01*
X040208Y002405D01*
X040059Y002405D01*
X039921Y002462D01*
X039815Y002568D01*
X039758Y002705D01*
X039758Y002855D01*
X039815Y002992D01*
X039921Y003098D01*
X040059Y003155D01*
X040169Y003155D01*
X040493Y003479D01*
X040493Y003901D01*
X040469Y003877D01*
X038658Y002066D01*
X038658Y001955D01*
X038601Y001818D01*
X038496Y001712D01*
X038358Y001655D01*
X038358Y001555D01*
X038301Y001418D01*
X038196Y001312D01*
X038058Y001255D01*
X037909Y001255D01*
X037771Y001312D01*
X037665Y001418D01*
X037608Y001555D01*
X037608Y001696D01*
X037593Y001732D01*
X037593Y009623D01*
X037592Y009623D01*
X037592Y010171D01*
X037575Y010171D01*
X037575Y009623D01*
X037539Y009623D01*
X037453Y009637D01*
X037369Y009664D01*
X037323Y009687D01*
X037323Y001578D01*
X037396Y001548D01*
X037501Y001442D01*
X037558Y001305D01*
X037558Y001155D01*
X037501Y001018D01*
X037396Y000912D01*
X037258Y000855D01*
X037109Y000855D01*
X036971Y000912D01*
X036883Y001000D01*
X036796Y000912D01*
X036658Y000855D01*
X036509Y000855D01*
X036371Y000912D01*
X036265Y001018D01*
X036208Y001155D01*
X036208Y001305D01*
X036265Y001442D01*
X036343Y001520D01*
X036343Y002690D01*
X036258Y002655D01*
X036109Y002655D01*
X035971Y002712D01*
X035893Y002790D01*
X033686Y002790D01*
X033597Y002827D01*
X033530Y002894D01*
X033493Y002982D01*
X033493Y008878D01*
X033530Y008966D01*
X033643Y009079D01*
X033643Y010790D01*
X033565Y010868D01*
X033508Y011005D01*
X033508Y011016D01*
X033073Y010581D01*
X033073Y009720D01*
X033159Y009755D01*
X033308Y009755D01*
X033446Y009698D01*
X033551Y009592D01*
X033608Y009455D01*
X033608Y009305D01*
X033551Y009168D01*
X033446Y009062D01*
X033323Y009011D01*
X033323Y001132D01*
X033287Y001044D01*
X033219Y000977D01*
X033131Y000940D01*
X031692Y000940D01*
X031624Y000872D01*
X030806Y000872D01*
X030701Y000977D01*
X030701Y001383D01*
X030748Y001430D01*
X030701Y001477D01*
X030701Y001883D01*
X030748Y001930D01*
X030701Y001977D01*
X030701Y002383D01*
X030748Y002430D01*
X030701Y002477D01*
X030701Y002883D01*
X030748Y002930D01*
X030701Y002977D01*
X030701Y003383D01*
X030748Y003430D01*
X030701Y003477D01*
X030701Y003883D01*
X030748Y003930D01*
X030701Y003977D01*
X030701Y004383D01*
X030748Y004430D01*
X030701Y004477D01*
X030701Y004883D01*
X030748Y004930D01*
X030738Y004940D01*
X029786Y004940D01*
X029697Y004977D01*
X029630Y005044D01*
X028734Y005940D01*
X027929Y005940D01*
X027919Y005930D01*
X027966Y005883D01*
X027966Y005477D01*
X027919Y005430D01*
X027966Y005383D01*
X027966Y004977D01*
X027919Y004930D01*
X027966Y004883D01*
X027966Y004477D01*
X027919Y004430D01*
X027966Y004383D01*
X027966Y003977D01*
X027919Y003930D01*
X027966Y003883D01*
X027966Y003477D01*
X027919Y003430D01*
X027966Y003383D01*
X027966Y002977D01*
X027919Y002930D01*
X027966Y002883D01*
X027966Y002477D01*
X027919Y002430D01*
X027966Y002383D01*
X027966Y001977D01*
X027919Y001930D01*
X027966Y001883D01*
X027966Y001477D01*
X027919Y001430D01*
X027966Y001383D01*
X027966Y000977D01*
X027861Y000872D01*
X027042Y000872D01*
X026974Y000940D01*
X026824Y000940D01*
X026796Y000912D01*
X026658Y000855D01*
X026509Y000855D01*
X026371Y000912D01*
X026265Y001018D01*
X026208Y001155D01*
X026208Y001305D01*
X026265Y001442D01*
X026303Y001480D01*
X026265Y001518D01*
X026208Y001655D01*
X026208Y001805D01*
X026209Y001805D01*
X026208Y001805D01*
X026059Y001805D01*
X025921Y001862D01*
X025815Y001968D01*
X025758Y002105D01*
X025758Y002255D01*
X025815Y002392D01*
X025853Y002430D01*
X025815Y002468D01*
X025758Y002605D01*
X025758Y002755D01*
X025815Y002892D01*
X025878Y002955D01*
X025865Y002968D01*
X025808Y003105D01*
X025808Y003255D01*
X025865Y003392D01*
X025878Y003405D01*
X025815Y003468D01*
X025758Y003605D01*
X025758Y003755D01*
X025815Y003892D01*
X025878Y003955D01*
X025865Y003968D01*
X025808Y004105D01*
X025808Y004255D01*
X025865Y004392D01*
X025928Y004455D01*
X025915Y004468D01*
X025858Y004605D01*
X025858Y004755D01*
X025915Y004892D01*
X025978Y004955D01*
X025965Y004968D01*
X025908Y005105D01*
X025908Y005255D01*
X025965Y005392D01*
X026071Y005498D01*
X026209Y005555D01*
X026358Y005555D01*
X026496Y005498D01*
X026574Y005420D01*
X026974Y005420D01*
X026984Y005430D01*
X026937Y005477D01*
X026937Y005883D01*
X026984Y005930D01*
X026974Y005940D01*
X026854Y005940D01*
X026854Y005810D01*
X026748Y005705D01*
X026221Y005705D01*
X026183Y005667D01*
X026137Y005637D01*
X026086Y005615D01*
X026032Y005605D01*
X025797Y005605D01*
X025797Y006132D01*
X025701Y006132D01*
X025701Y005732D01*
X025723Y005678D01*
X025723Y002382D01*
X025708Y002346D01*
X025708Y002205D01*
X025651Y002068D01*
X025546Y001962D01*
X025408Y001905D01*
X025259Y001905D01*
X025121Y001962D01*
X025015Y002068D01*
X024958Y002205D01*
X024958Y002355D01*
X025015Y002492D01*
X025028Y002505D01*
X025009Y002505D01*
X024871Y002562D01*
X024765Y002668D01*
X024708Y002805D01*
X024708Y002946D01*
X024693Y002982D01*
X024693Y003940D01*
X024608Y003905D01*
X024459Y003905D01*
X024321Y003962D01*
X024215Y004068D01*
X024158Y004205D01*
X024158Y004316D01*
X023947Y004527D01*
X023880Y004594D01*
X023843Y004682D01*
X023843Y009687D01*
X023797Y009664D01*
X023714Y009637D01*
X023627Y009623D01*
X023592Y009623D01*
X023592Y010171D01*
X023575Y010171D01*
X023575Y009623D01*
X023539Y009623D01*
X023453Y009637D01*
X023369Y009664D01*
X023291Y009703D01*
X023220Y009755D01*
X023158Y009817D01*
X023107Y009888D01*
X023067Y009966D01*
X023040Y010050D01*
X023036Y010077D01*
X022971Y009921D01*
X022842Y009792D01*
X022823Y009785D01*
X022823Y007941D01*
X022865Y008042D01*
X022971Y008148D01*
X023109Y008205D01*
X023258Y008205D01*
X023396Y008148D01*
X023501Y008042D01*
X023558Y007905D01*
X023558Y007755D01*
X023501Y007618D01*
X023423Y007540D01*
X023423Y006670D01*
X023501Y006592D01*
X023558Y006455D01*
X023558Y006305D01*
X023501Y006168D01*
X023396Y006062D01*
X023258Y006005D01*
X023109Y006005D01*
X022971Y006062D01*
X022865Y006168D01*
X022823Y006269D01*
X022823Y003979D01*
X023148Y003655D01*
X023258Y003655D01*
X023396Y003598D01*
X023501Y003492D01*
X023558Y003355D01*
X023558Y003205D01*
X023501Y003068D01*
X023396Y002962D01*
X023258Y002905D01*
X023109Y002905D01*
X022971Y002962D01*
X022865Y003068D01*
X022808Y003205D01*
X022808Y003316D01*
X022447Y003677D01*
X022380Y003744D01*
X022343Y003832D01*
X022343Y009785D01*
X022324Y009792D01*
X022196Y009921D01*
X022126Y010089D01*
X022126Y010271D01*
X022196Y010439D01*
X022324Y010568D01*
X022492Y010637D01*
X022674Y010637D01*
X022842Y010568D01*
X022971Y010439D01*
X023036Y010283D01*
X023040Y010310D01*
X023067Y010394D01*
X023107Y010472D01*
X023158Y010543D01*
X023220Y010605D01*
X023291Y010657D01*
X023369Y010696D01*
X023453Y010723D01*
X023539Y010737D01*
X023575Y010737D01*
X023575Y010189D01*
X023592Y010189D01*
X023592Y010737D01*
X023627Y010737D01*
X023714Y010723D01*
X023797Y010696D01*
X023843Y010673D01*
X023843Y010785D01*
X023824Y010792D01*
X023696Y010921D01*
X023626Y011089D01*
X023626Y011271D01*
X023675Y011390D01*
X023491Y011390D01*
X023540Y011271D01*
X023540Y011089D01*
X023471Y010921D01*
X023342Y010792D01*
X023174Y010723D01*
X022992Y010723D01*
X022824Y010792D01*
X022696Y010921D01*
X022626Y011089D01*
X022626Y011271D01*
X022696Y011439D01*
X022824Y011568D01*
X022843Y011575D01*
X022843Y011640D01*
X021323Y011640D01*
X021323Y011575D01*
X021342Y011568D01*
X021471Y011439D01*
X021540Y011271D01*
X021540Y011089D01*
X021471Y010921D01*
X021342Y010792D01*
X021174Y010723D01*
X020992Y010723D01*
X020824Y010792D01*
X020823Y010793D01*
X020823Y010575D01*
X020842Y010568D01*
X020971Y010439D01*
X021040Y010271D01*
X021040Y010089D01*
X020971Y009921D01*
X020842Y009792D01*
X020674Y009723D01*
X020492Y009723D01*
X020324Y009792D01*
X020196Y009921D01*
X020126Y010089D01*
X020126Y010271D01*
X020196Y010439D01*
X020324Y010568D01*
X020343Y010575D01*
X020343Y012178D01*
X020380Y012266D01*
X020447Y012333D01*
X020536Y012370D01*
X024531Y012370D01*
X024619Y012333D01*
X024683Y012270D01*
X029193Y012270D01*
X029271Y012348D01*
X029409Y012405D01*
X029558Y012405D01*
X029696Y012348D01*
X029801Y012242D01*
X029858Y012105D01*
X029858Y011955D01*
X029823Y011870D01*
X030940Y011870D01*
X029202Y013475D01*
X029197Y013477D01*
X029167Y013507D01*
X029135Y013536D01*
X029133Y013541D01*
X029130Y013544D01*
X029113Y013584D01*
X029095Y013623D01*
X029095Y013628D01*
X029093Y013632D01*
X029093Y013675D01*
X029092Y013718D01*
X029093Y013723D01*
X029093Y014350D01*
X027714Y014350D01*
X027863Y014201D01*
X028003Y013863D01*
X028003Y013497D01*
X027863Y013159D01*
X027604Y012900D01*
X027266Y012760D01*
X026900Y012760D01*
X026562Y012900D01*
X026303Y013159D01*
X026163Y013497D01*
X026163Y013863D01*
X026303Y014201D01*
X026452Y014350D01*
X025214Y014350D01*
X025363Y014201D01*
X025503Y013863D01*
X025503Y013497D01*
X025363Y013159D01*
X025104Y012900D01*
X024766Y012760D01*
X024400Y012760D01*
X024062Y012900D01*
X023803Y013159D01*
X023663Y013497D01*
X023663Y013863D01*
X023803Y014201D01*
X023952Y014350D01*
X020714Y014350D01*
X020863Y014201D01*
X021003Y013863D01*
X021003Y013497D01*
X020863Y013159D01*
X020604Y012900D01*
X020266Y012760D01*
X019900Y012760D01*
X019562Y012900D01*
X019303Y013159D01*
X019163Y013497D01*
X019163Y013863D01*
X019303Y014201D01*
X019452Y014350D01*
X018214Y014350D01*
X018363Y014201D01*
X018503Y013863D01*
X018503Y013497D01*
X018363Y013159D01*
X018104Y012900D01*
X017766Y012760D01*
X017400Y012760D01*
X017062Y012900D01*
X016803Y013159D01*
X016663Y013497D01*
X016663Y013863D01*
X016803Y014201D01*
X016952Y014350D01*
X013714Y014350D01*
X013863Y014201D01*
X014003Y013863D01*
X014003Y013497D01*
X013863Y013159D01*
X013604Y012900D01*
X013266Y012760D01*
X012900Y012760D01*
X012562Y012900D01*
X012303Y013159D01*
X012163Y013497D01*
X012163Y013863D01*
X012303Y014201D01*
X012452Y014350D01*
X005613Y014350D01*
X005613Y014287D02*
X012389Y014287D01*
X012273Y014128D02*
X005613Y014128D01*
X005613Y013970D02*
X012207Y013970D01*
X012163Y013811D02*
X005613Y013811D01*
X005613Y013653D02*
X012163Y013653D01*
X012165Y013494D02*
X005613Y013494D01*
X005613Y013336D02*
X012230Y013336D01*
X012296Y013177D02*
X005613Y013177D01*
X005613Y013019D02*
X012444Y013019D01*
X012659Y012860D02*
X005613Y012860D01*
X005613Y012702D02*
X030040Y012702D01*
X030211Y012543D02*
X007699Y012543D01*
X007655Y012587D02*
X007479Y012660D01*
X006688Y012660D01*
X006511Y012587D01*
X006376Y012452D01*
X006303Y012275D01*
X006303Y012085D01*
X006376Y011908D01*
X006511Y011773D01*
X006688Y011700D01*
X007479Y011700D01*
X007655Y011773D01*
X007790Y011908D01*
X007863Y012085D01*
X007863Y012275D01*
X007790Y012452D01*
X007655Y012587D01*
X007818Y012385D02*
X029359Y012385D01*
X029607Y012385D02*
X030383Y012385D01*
X030555Y012226D02*
X029808Y012226D01*
X029858Y012068D02*
X030726Y012068D01*
X030898Y011909D02*
X029839Y011909D01*
X029675Y011390D02*
X029626Y011271D01*
X029626Y011089D01*
X029696Y010921D01*
X029824Y010792D01*
X029992Y010723D01*
X030174Y010723D01*
X030342Y010792D01*
X030471Y010921D01*
X030540Y011089D01*
X030540Y011271D01*
X030491Y011390D01*
X030675Y011390D01*
X030626Y011271D01*
X030626Y011089D01*
X030696Y010921D01*
X030824Y010792D01*
X030992Y010723D01*
X031174Y010723D01*
X031342Y010792D01*
X031471Y010921D01*
X031540Y011089D01*
X031540Y011271D01*
X031510Y011344D01*
X032343Y010575D01*
X032343Y007420D01*
X031692Y007420D01*
X031682Y007430D01*
X031730Y007477D01*
X031730Y007883D01*
X031624Y007988D01*
X030806Y007988D01*
X030701Y007883D01*
X030701Y007477D01*
X030748Y007430D01*
X030701Y007383D01*
X030701Y006977D01*
X030748Y006930D01*
X030701Y006883D01*
X030701Y006477D01*
X030748Y006430D01*
X030701Y006383D01*
X030701Y006024D01*
X030663Y005986D01*
X030632Y005941D01*
X030611Y005890D01*
X030601Y005836D01*
X030601Y005680D01*
X030601Y005524D01*
X030611Y005470D01*
X030632Y005420D01*
X029933Y005420D01*
X028969Y006383D01*
X028881Y006420D01*
X028823Y006420D01*
X028823Y009785D01*
X028842Y009792D01*
X028971Y009921D01*
X029040Y010089D01*
X029040Y010271D01*
X028991Y010390D01*
X029175Y010390D01*
X029126Y010271D01*
X029126Y010089D01*
X029196Y009921D01*
X029324Y009792D01*
X029492Y009723D01*
X029674Y009723D01*
X029842Y009792D01*
X029971Y009921D01*
X030036Y010077D01*
X030040Y010050D01*
X030067Y009966D01*
X030107Y009888D01*
X030158Y009817D01*
X030220Y009755D01*
X030291Y009703D01*
X030369Y009664D01*
X030453Y009637D01*
X030539Y009623D01*
X030575Y009623D01*
X030575Y010171D01*
X030592Y010171D01*
X030592Y009623D01*
X030627Y009623D01*
X030714Y009637D01*
X030797Y009664D01*
X030875Y009703D01*
X030946Y009755D01*
X031008Y009817D01*
X031060Y009888D01*
X031100Y009966D01*
X031127Y010050D01*
X031140Y010136D01*
X031140Y010171D01*
X030592Y010171D01*
X030592Y010189D01*
X030575Y010189D01*
X030575Y010737D01*
X030539Y010737D01*
X030453Y010723D01*
X030369Y010696D01*
X030291Y010657D01*
X030220Y010605D01*
X030158Y010543D01*
X030107Y010472D01*
X030067Y010394D01*
X030040Y010310D01*
X030036Y010283D01*
X029971Y010439D01*
X029842Y010568D01*
X029823Y010575D01*
X029823Y010678D01*
X029787Y010766D01*
X029719Y010833D01*
X029631Y010870D01*
X029420Y010870D01*
X029471Y010921D01*
X029540Y011089D01*
X029540Y011271D01*
X029491Y011390D01*
X029675Y011390D01*
X029628Y011275D02*
X029539Y011275D01*
X029540Y011117D02*
X029626Y011117D01*
X029680Y010958D02*
X029486Y010958D01*
X029753Y010800D02*
X029817Y010800D01*
X029823Y010641D02*
X030270Y010641D01*
X030349Y010800D02*
X030817Y010800D01*
X030797Y010696D02*
X030714Y010723D01*
X030627Y010737D01*
X030592Y010737D01*
X030592Y010189D01*
X031140Y010189D01*
X031140Y010224D01*
X031127Y010310D01*
X031100Y010394D01*
X031060Y010472D01*
X031008Y010543D01*
X030946Y010605D01*
X030875Y010657D01*
X030797Y010696D01*
X030897Y010641D02*
X032272Y010641D01*
X032343Y010483D02*
X031052Y010483D01*
X031122Y010324D02*
X032343Y010324D01*
X032343Y010166D02*
X031140Y010166D01*
X031113Y010007D02*
X032343Y010007D01*
X032343Y009849D02*
X031031Y009849D01*
X030849Y009690D02*
X032343Y009690D01*
X032343Y009532D02*
X028823Y009532D01*
X028823Y009690D02*
X030318Y009690D01*
X030135Y009849D02*
X029898Y009849D01*
X030007Y010007D02*
X030054Y010007D01*
X030575Y010007D02*
X030592Y010007D01*
X030575Y009849D02*
X030592Y009849D01*
X030575Y009690D02*
X030592Y009690D01*
X030575Y010166D02*
X030592Y010166D01*
X030575Y010324D02*
X030592Y010324D01*
X030575Y010483D02*
X030592Y010483D01*
X030575Y010641D02*
X030592Y010641D01*
X030114Y010483D02*
X029927Y010483D01*
X030019Y010324D02*
X030044Y010324D01*
X029148Y010324D02*
X029019Y010324D01*
X029040Y010166D02*
X029126Y010166D01*
X029160Y010007D02*
X029007Y010007D01*
X028898Y009849D02*
X029268Y009849D01*
X028823Y009373D02*
X032343Y009373D01*
X032343Y009215D02*
X028823Y009215D01*
X028823Y009056D02*
X032343Y009056D01*
X032343Y008898D02*
X028823Y008898D01*
X028823Y008739D02*
X032343Y008739D01*
X032343Y008581D02*
X028823Y008581D01*
X028823Y008422D02*
X032343Y008422D01*
X032343Y008264D02*
X028823Y008264D01*
X028823Y008105D02*
X032343Y008105D01*
X032343Y007947D02*
X031666Y007947D01*
X031730Y007788D02*
X032343Y007788D01*
X032343Y007630D02*
X031730Y007630D01*
X031723Y007471D02*
X032343Y007471D01*
X033323Y007471D02*
X033493Y007471D01*
X033493Y007313D02*
X033323Y007313D01*
X033323Y007154D02*
X033493Y007154D01*
X033493Y006996D02*
X033323Y006996D01*
X033323Y006837D02*
X033493Y006837D01*
X033493Y006679D02*
X033323Y006679D01*
X033323Y006520D02*
X033493Y006520D01*
X033493Y006362D02*
X033323Y006362D01*
X033323Y006203D02*
X033493Y006203D01*
X033493Y006045D02*
X033323Y006045D01*
X033323Y005886D02*
X033493Y005886D01*
X033493Y005728D02*
X033323Y005728D01*
X033323Y005569D02*
X033493Y005569D01*
X033493Y005411D02*
X033323Y005411D01*
X033323Y005252D02*
X033493Y005252D01*
X033493Y005094D02*
X033323Y005094D01*
X033323Y004935D02*
X033493Y004935D01*
X033493Y004777D02*
X033323Y004777D01*
X033323Y004618D02*
X033493Y004618D01*
X033493Y004460D02*
X033323Y004460D01*
X033323Y004301D02*
X033493Y004301D01*
X033493Y004143D02*
X033323Y004143D01*
X033323Y003984D02*
X033493Y003984D01*
X033493Y003826D02*
X033323Y003826D01*
X033323Y003667D02*
X033493Y003667D01*
X033493Y003509D02*
X033323Y003509D01*
X033323Y003350D02*
X033493Y003350D01*
X033493Y003192D02*
X033323Y003192D01*
X033323Y003033D02*
X033493Y003033D01*
X033549Y002875D02*
X033323Y002875D01*
X033323Y002716D02*
X035967Y002716D01*
X036343Y002558D02*
X033323Y002558D01*
X033323Y002399D02*
X036343Y002399D01*
X036343Y002241D02*
X033323Y002241D01*
X033323Y002082D02*
X036343Y002082D01*
X036343Y001924D02*
X033323Y001924D01*
X033323Y001765D02*
X036343Y001765D01*
X036343Y001607D02*
X033323Y001607D01*
X033323Y001448D02*
X036271Y001448D01*
X036208Y001290D02*
X033323Y001290D01*
X033323Y001131D02*
X036218Y001131D01*
X036311Y000973D02*
X033210Y000973D01*
X030706Y000973D02*
X027961Y000973D01*
X027966Y001131D02*
X030701Y001131D01*
X030701Y001290D02*
X027966Y001290D01*
X027937Y001448D02*
X030730Y001448D01*
X030701Y001607D02*
X027966Y001607D01*
X027966Y001765D02*
X030701Y001765D01*
X030742Y001924D02*
X027925Y001924D01*
X027966Y002082D02*
X030701Y002082D01*
X030701Y002241D02*
X027966Y002241D01*
X027950Y002399D02*
X030717Y002399D01*
X030701Y002558D02*
X027966Y002558D01*
X027966Y002716D02*
X030701Y002716D01*
X030701Y002875D02*
X027966Y002875D01*
X027966Y003033D02*
X030701Y003033D01*
X030701Y003192D02*
X027966Y003192D01*
X027966Y003350D02*
X030701Y003350D01*
X030701Y003509D02*
X027966Y003509D01*
X027966Y003667D02*
X030701Y003667D01*
X030701Y003826D02*
X027966Y003826D01*
X027966Y003984D02*
X030701Y003984D01*
X030701Y004143D02*
X027966Y004143D01*
X027966Y004301D02*
X030701Y004301D01*
X030719Y004460D02*
X027948Y004460D01*
X027966Y004618D02*
X030701Y004618D01*
X030701Y004777D02*
X027966Y004777D01*
X027924Y004935D02*
X030743Y004935D01*
X031682Y004930D02*
X031692Y004920D01*
X031793Y004920D01*
X031871Y004998D01*
X032009Y005055D01*
X032158Y005055D01*
X032296Y004998D01*
X032401Y004892D01*
X032435Y004812D01*
X032471Y004848D01*
X032609Y004905D01*
X032758Y004905D01*
X032843Y004870D01*
X032843Y006440D01*
X031692Y006440D01*
X031682Y006430D01*
X031730Y006383D01*
X031730Y006024D01*
X031767Y005986D01*
X031798Y005941D01*
X031819Y005890D01*
X031830Y005836D01*
X031830Y005680D01*
X031215Y005680D01*
X030601Y005680D01*
X031215Y005680D01*
X031215Y005680D01*
X031215Y005680D01*
X031830Y005680D01*
X031830Y005524D01*
X031819Y005470D01*
X031798Y005419D01*
X031767Y005374D01*
X031730Y005336D01*
X031730Y004977D01*
X031682Y004930D01*
X031687Y004935D02*
X031808Y004935D01*
X031730Y005094D02*
X032843Y005094D01*
X032843Y005252D02*
X031730Y005252D01*
X031792Y005411D02*
X032843Y005411D01*
X032843Y005569D02*
X031830Y005569D01*
X031830Y005728D02*
X032843Y005728D01*
X032843Y005886D02*
X031820Y005886D01*
X031730Y006045D02*
X032843Y006045D01*
X032843Y006203D02*
X031730Y006203D01*
X031730Y006362D02*
X032843Y006362D01*
X030701Y006362D02*
X028991Y006362D01*
X029150Y006203D02*
X030701Y006203D01*
X030701Y006045D02*
X029308Y006045D01*
X029467Y005886D02*
X030611Y005886D01*
X030601Y005728D02*
X029625Y005728D01*
X029784Y005569D02*
X030601Y005569D01*
X029422Y005252D02*
X027966Y005252D01*
X027966Y005094D02*
X029580Y005094D01*
X029263Y005411D02*
X027938Y005411D01*
X027966Y005569D02*
X029105Y005569D01*
X028946Y005728D02*
X027966Y005728D01*
X027963Y005886D02*
X028788Y005886D01*
X028823Y006520D02*
X030701Y006520D01*
X030701Y006679D02*
X028823Y006679D01*
X028823Y006837D02*
X030701Y006837D01*
X030701Y006996D02*
X028823Y006996D01*
X028823Y007154D02*
X030701Y007154D01*
X030701Y007313D02*
X028823Y007313D01*
X028823Y007471D02*
X030707Y007471D01*
X030701Y007630D02*
X028823Y007630D01*
X028823Y007788D02*
X030701Y007788D01*
X030765Y007947D02*
X028823Y007947D01*
X033323Y007947D02*
X033493Y007947D01*
X033493Y008105D02*
X033323Y008105D01*
X033323Y008264D02*
X033493Y008264D01*
X033493Y008422D02*
X033323Y008422D01*
X033323Y008581D02*
X033493Y008581D01*
X033493Y008739D02*
X033323Y008739D01*
X033323Y008898D02*
X033502Y008898D01*
X033431Y009056D02*
X033620Y009056D01*
X033643Y009215D02*
X033571Y009215D01*
X033608Y009373D02*
X033643Y009373D01*
X033643Y009532D02*
X033576Y009532D01*
X033643Y009690D02*
X033454Y009690D01*
X033643Y009849D02*
X033073Y009849D01*
X033073Y010007D02*
X033643Y010007D01*
X033643Y010166D02*
X033073Y010166D01*
X033073Y010324D02*
X033643Y010324D01*
X033643Y010483D02*
X033073Y010483D01*
X033134Y010641D02*
X033643Y010641D01*
X033633Y010800D02*
X033292Y010800D01*
X033451Y010958D02*
X033528Y010958D01*
X032100Y010800D02*
X031349Y010800D01*
X031486Y010958D02*
X031928Y010958D01*
X031757Y011117D02*
X031540Y011117D01*
X031539Y011275D02*
X031585Y011275D01*
X030628Y011275D02*
X030539Y011275D01*
X030540Y011117D02*
X030626Y011117D01*
X030680Y010958D02*
X030486Y010958D01*
X029868Y012860D02*
X027508Y012860D01*
X027723Y013019D02*
X029696Y013019D01*
X029524Y013177D02*
X027871Y013177D01*
X027936Y013336D02*
X029353Y013336D01*
X029180Y013494D02*
X028002Y013494D01*
X028003Y013653D02*
X029093Y013653D01*
X029093Y013811D02*
X028003Y013811D01*
X027959Y013970D02*
X029093Y013970D01*
X029093Y014128D02*
X027894Y014128D01*
X027778Y014287D02*
X029093Y014287D01*
X026389Y014287D02*
X025278Y014287D01*
X025394Y014128D02*
X026273Y014128D01*
X026207Y013970D02*
X025459Y013970D01*
X025503Y013811D02*
X026163Y013811D01*
X026163Y013653D02*
X025503Y013653D01*
X025502Y013494D02*
X026165Y013494D01*
X026230Y013336D02*
X025436Y013336D01*
X025371Y013177D02*
X026296Y013177D01*
X026444Y013019D02*
X025223Y013019D01*
X025008Y012860D02*
X026659Y012860D01*
X024159Y012860D02*
X020508Y012860D01*
X020723Y013019D02*
X023944Y013019D01*
X023796Y013177D02*
X020871Y013177D01*
X020936Y013336D02*
X023730Y013336D01*
X023665Y013494D02*
X021002Y013494D01*
X021003Y013653D02*
X023663Y013653D01*
X023663Y013811D02*
X021003Y013811D01*
X020959Y013970D02*
X023707Y013970D01*
X023773Y014128D02*
X020894Y014128D01*
X020778Y014287D02*
X023889Y014287D01*
X019659Y012860D02*
X018008Y012860D01*
X018223Y013019D02*
X019444Y013019D01*
X019296Y013177D02*
X018371Y013177D01*
X018436Y013336D02*
X019230Y013336D01*
X019165Y013494D02*
X018502Y013494D01*
X018503Y013653D02*
X019163Y013653D01*
X019163Y013811D02*
X018503Y013811D01*
X018459Y013970D02*
X019207Y013970D01*
X019273Y014128D02*
X018394Y014128D01*
X018278Y014287D02*
X019389Y014287D01*
X016889Y014287D02*
X013778Y014287D01*
X013894Y014128D02*
X016773Y014128D01*
X016707Y013970D02*
X013959Y013970D01*
X014003Y013811D02*
X016663Y013811D01*
X016663Y013653D02*
X014003Y013653D01*
X014002Y013494D02*
X016665Y013494D01*
X016730Y013336D02*
X013936Y013336D01*
X013871Y013177D02*
X016796Y013177D01*
X016944Y013019D02*
X013723Y013019D01*
X013508Y012860D02*
X017159Y012860D01*
X017831Y012120D02*
X016036Y012120D01*
X015947Y012083D01*
X015880Y012016D01*
X015843Y011928D01*
X015843Y011575D01*
X015824Y011568D01*
X015696Y011439D01*
X015626Y011271D01*
X015626Y011089D01*
X015696Y010921D01*
X015824Y010792D01*
X015992Y010723D01*
X016174Y010723D01*
X016342Y010792D01*
X016471Y010921D01*
X016540Y011089D01*
X016540Y011271D01*
X016471Y011439D01*
X016342Y011568D01*
X016323Y011575D01*
X016323Y011640D01*
X017684Y011640D01*
X020093Y009231D01*
X020093Y008090D01*
X019881Y008090D01*
X019881Y007602D01*
X019785Y007602D01*
X019785Y007506D01*
X018881Y007506D01*
X018881Y007602D01*
X018785Y007602D01*
X018785Y007506D01*
X017881Y007506D01*
X017881Y007602D01*
X017785Y007602D01*
X017323Y007602D01*
X017323Y007506D01*
X017785Y007506D01*
X017785Y007602D01*
X017785Y008090D01*
X017510Y008090D01*
X017456Y008079D01*
X017405Y008058D01*
X017360Y008027D01*
X017323Y007991D01*
X017323Y010785D01*
X017342Y010792D01*
X017471Y010921D01*
X017540Y011089D01*
X017540Y011271D01*
X017471Y011439D01*
X017342Y011568D01*
X017174Y011637D01*
X016992Y011637D01*
X016824Y011568D01*
X016696Y011439D01*
X016626Y011271D01*
X016626Y011089D01*
X016696Y010921D01*
X016824Y010792D01*
X016843Y010785D01*
X016843Y010673D01*
X016797Y010696D01*
X016714Y010723D01*
X016627Y010737D01*
X016592Y010737D01*
X016592Y010189D01*
X016575Y010189D01*
X016575Y010737D01*
X016539Y010737D01*
X016453Y010723D01*
X016369Y010696D01*
X016291Y010657D01*
X016220Y010605D01*
X016158Y010543D01*
X016107Y010472D01*
X016067Y010394D01*
X016040Y010310D01*
X016036Y010283D01*
X015971Y010439D01*
X015842Y010568D01*
X015674Y010637D01*
X015492Y010637D01*
X015324Y010568D01*
X015196Y010439D01*
X015126Y010271D01*
X015126Y010089D01*
X015196Y009921D01*
X015324Y009792D01*
X015343Y009785D01*
X015343Y007232D01*
X015380Y007144D01*
X015447Y007077D01*
X017758Y004766D01*
X017758Y004655D01*
X017815Y004518D01*
X017921Y004412D01*
X018059Y004355D01*
X018208Y004355D01*
X018346Y004412D01*
X018451Y004518D01*
X018508Y004655D01*
X018508Y004805D01*
X018451Y004942D01*
X018346Y005048D01*
X018336Y005052D01*
X018401Y005118D01*
X018458Y005255D01*
X018458Y005405D01*
X018401Y005542D01*
X018296Y005648D01*
X018158Y005705D01*
X018048Y005705D01*
X017984Y005769D01*
X018081Y005809D01*
X018204Y005932D01*
X018271Y006093D01*
X018271Y006267D01*
X018221Y006388D01*
X018309Y006476D01*
X018309Y007082D01*
X018333Y007107D01*
X018358Y007082D01*
X018358Y006476D01*
X018446Y006388D01*
X018396Y006267D01*
X018396Y006093D01*
X018462Y005932D01*
X018586Y005809D01*
X018746Y005743D01*
X018920Y005743D01*
X019081Y005809D01*
X019204Y005932D01*
X019271Y006093D01*
X019271Y006267D01*
X019221Y006388D01*
X019309Y006476D01*
X019309Y007082D01*
X019333Y007107D01*
X019358Y007082D01*
X019358Y006476D01*
X019446Y006388D01*
X019396Y006267D01*
X019396Y006093D01*
X019462Y005932D01*
X019586Y005809D01*
X019746Y005743D01*
X019920Y005743D01*
X020081Y005809D01*
X020204Y005932D01*
X020271Y006093D01*
X020271Y006267D01*
X020221Y006388D01*
X020309Y006476D01*
X020309Y006915D01*
X020808Y006416D01*
X020808Y006305D01*
X020865Y006168D01*
X020971Y006062D01*
X021109Y006005D01*
X021258Y006005D01*
X021343Y006040D01*
X021343Y006029D01*
X018928Y003614D01*
X018920Y003617D01*
X018746Y003617D01*
X018586Y003551D01*
X018462Y003428D01*
X018396Y003267D01*
X018396Y003093D01*
X018462Y002932D01*
X018586Y002809D01*
X018746Y002743D01*
X018920Y002743D01*
X019081Y002809D01*
X019204Y002932D01*
X019271Y003093D01*
X019271Y003267D01*
X019268Y003275D01*
X021719Y005727D01*
X021787Y005794D01*
X021823Y005882D01*
X021823Y009785D01*
X021842Y009792D01*
X021971Y009921D01*
X022040Y010089D01*
X022040Y010271D01*
X021971Y010439D01*
X021842Y010568D01*
X021674Y010637D01*
X021492Y010637D01*
X021324Y010568D01*
X021196Y010439D01*
X021126Y010271D01*
X021126Y010089D01*
X021196Y009921D01*
X021324Y009792D01*
X021343Y009785D01*
X021343Y006720D01*
X021258Y006755D01*
X021148Y006755D01*
X020573Y007329D01*
X020573Y009378D01*
X020537Y009466D01*
X017987Y012016D01*
X017919Y012083D01*
X017831Y012120D01*
X017935Y012068D02*
X020343Y012068D01*
X020343Y011909D02*
X018094Y011909D01*
X018252Y011751D02*
X020343Y011751D01*
X020343Y011592D02*
X018411Y011592D01*
X018569Y011434D02*
X020343Y011434D01*
X020343Y011275D02*
X018728Y011275D01*
X018886Y011117D02*
X020343Y011117D01*
X020343Y010958D02*
X019045Y010958D01*
X019203Y010800D02*
X020343Y010800D01*
X020343Y010641D02*
X019362Y010641D01*
X019520Y010483D02*
X020239Y010483D01*
X020148Y010324D02*
X019679Y010324D01*
X019837Y010166D02*
X020126Y010166D01*
X020160Y010007D02*
X019996Y010007D01*
X020154Y009849D02*
X020268Y009849D01*
X020313Y009690D02*
X021343Y009690D01*
X021343Y009532D02*
X020471Y009532D01*
X020573Y009373D02*
X021343Y009373D01*
X021343Y009215D02*
X020573Y009215D01*
X020573Y009056D02*
X021343Y009056D01*
X021343Y008898D02*
X020573Y008898D01*
X020573Y008739D02*
X021343Y008739D01*
X021343Y008581D02*
X020573Y008581D01*
X020573Y008422D02*
X021343Y008422D01*
X021343Y008264D02*
X020573Y008264D01*
X020573Y008105D02*
X021343Y008105D01*
X021343Y007947D02*
X020573Y007947D01*
X020573Y007788D02*
X021343Y007788D01*
X021343Y007630D02*
X020573Y007630D01*
X020573Y007471D02*
X021343Y007471D01*
X021343Y007313D02*
X020590Y007313D01*
X020749Y007154D02*
X021343Y007154D01*
X021343Y006996D02*
X020907Y006996D01*
X021066Y006837D02*
X021343Y006837D01*
X021823Y006837D02*
X022343Y006837D01*
X022343Y006679D02*
X021823Y006679D01*
X021823Y006520D02*
X022343Y006520D01*
X022343Y006362D02*
X021823Y006362D01*
X021823Y006203D02*
X022343Y006203D01*
X022343Y006045D02*
X021823Y006045D01*
X021823Y005886D02*
X022343Y005886D01*
X022343Y005728D02*
X021720Y005728D01*
X021562Y005569D02*
X022343Y005569D01*
X022343Y005411D02*
X021403Y005411D01*
X021245Y005252D02*
X022343Y005252D01*
X022343Y005094D02*
X021086Y005094D01*
X020928Y004935D02*
X022343Y004935D01*
X022343Y004777D02*
X020769Y004777D01*
X020611Y004618D02*
X022343Y004618D01*
X022343Y004460D02*
X020452Y004460D01*
X020294Y004301D02*
X022343Y004301D01*
X022343Y004143D02*
X020135Y004143D01*
X019977Y003984D02*
X022343Y003984D01*
X022346Y003826D02*
X019818Y003826D01*
X019660Y003667D02*
X022457Y003667D01*
X022615Y003509D02*
X019501Y003509D01*
X019343Y003350D02*
X022774Y003350D01*
X022814Y003192D02*
X019271Y003192D01*
X019246Y003033D02*
X022900Y003033D01*
X023467Y003033D02*
X024693Y003033D01*
X024693Y003192D02*
X023553Y003192D01*
X023558Y003350D02*
X024693Y003350D01*
X024693Y003509D02*
X023485Y003509D01*
X023136Y003667D02*
X024693Y003667D01*
X024693Y003826D02*
X022977Y003826D01*
X022823Y003984D02*
X024299Y003984D01*
X024184Y004143D02*
X022823Y004143D01*
X022823Y004301D02*
X024158Y004301D01*
X024014Y004460D02*
X022823Y004460D01*
X022823Y004618D02*
X023870Y004618D01*
X023843Y004777D02*
X022823Y004777D01*
X022823Y004935D02*
X023843Y004935D01*
X023843Y005094D02*
X022823Y005094D01*
X022823Y005252D02*
X023843Y005252D01*
X023843Y005411D02*
X022823Y005411D01*
X022823Y005569D02*
X023843Y005569D01*
X023843Y005728D02*
X022823Y005728D01*
X022823Y005886D02*
X023843Y005886D01*
X023843Y006045D02*
X023353Y006045D01*
X023516Y006203D02*
X023843Y006203D01*
X023843Y006362D02*
X023558Y006362D01*
X023531Y006520D02*
X023843Y006520D01*
X023843Y006679D02*
X023423Y006679D01*
X023423Y006837D02*
X023843Y006837D01*
X023843Y006996D02*
X023423Y006996D01*
X023423Y007154D02*
X023843Y007154D01*
X023843Y007313D02*
X023423Y007313D01*
X023423Y007471D02*
X023843Y007471D01*
X023843Y007630D02*
X023506Y007630D01*
X023558Y007788D02*
X023843Y007788D01*
X023843Y007947D02*
X023541Y007947D01*
X023439Y008105D02*
X023843Y008105D01*
X023843Y008264D02*
X022823Y008264D01*
X022823Y008422D02*
X023843Y008422D01*
X023843Y008581D02*
X022823Y008581D01*
X022823Y008739D02*
X023843Y008739D01*
X023843Y008898D02*
X022823Y008898D01*
X022823Y009056D02*
X023843Y009056D01*
X023843Y009215D02*
X022823Y009215D01*
X022823Y009373D02*
X023843Y009373D01*
X023843Y009532D02*
X022823Y009532D01*
X022823Y009690D02*
X023318Y009690D01*
X023135Y009849D02*
X022898Y009849D01*
X023007Y010007D02*
X023054Y010007D01*
X023575Y010007D02*
X023592Y010007D01*
X023575Y009849D02*
X023592Y009849D01*
X023575Y009690D02*
X023592Y009690D01*
X023575Y010166D02*
X023592Y010166D01*
X023575Y010324D02*
X023592Y010324D01*
X023575Y010483D02*
X023592Y010483D01*
X023575Y010641D02*
X023592Y010641D01*
X023817Y010800D02*
X023349Y010800D01*
X023270Y010641D02*
X020823Y010641D01*
X020927Y010483D02*
X021239Y010483D01*
X021148Y010324D02*
X021019Y010324D01*
X021040Y010166D02*
X021126Y010166D01*
X021160Y010007D02*
X021007Y010007D01*
X020898Y009849D02*
X021268Y009849D01*
X021823Y009690D02*
X022343Y009690D01*
X022343Y009532D02*
X021823Y009532D01*
X021823Y009373D02*
X022343Y009373D01*
X022343Y009215D02*
X021823Y009215D01*
X021823Y009056D02*
X022343Y009056D01*
X022343Y008898D02*
X021823Y008898D01*
X021823Y008739D02*
X022343Y008739D01*
X022343Y008581D02*
X021823Y008581D01*
X021823Y008422D02*
X022343Y008422D01*
X022343Y008264D02*
X021823Y008264D01*
X021823Y008105D02*
X022343Y008105D01*
X022343Y007947D02*
X021823Y007947D01*
X021823Y007788D02*
X022343Y007788D01*
X022343Y007630D02*
X021823Y007630D01*
X021823Y007471D02*
X022343Y007471D01*
X022343Y007313D02*
X021823Y007313D01*
X021823Y007154D02*
X022343Y007154D01*
X022343Y006996D02*
X021823Y006996D01*
X020545Y006679D02*
X020309Y006679D01*
X020309Y006837D02*
X020387Y006837D01*
X020309Y006520D02*
X020704Y006520D01*
X020808Y006362D02*
X020232Y006362D01*
X020271Y006203D02*
X020851Y006203D01*
X021013Y006045D02*
X020251Y006045D01*
X020158Y005886D02*
X021200Y005886D01*
X021041Y005728D02*
X018025Y005728D01*
X018158Y005886D02*
X018509Y005886D01*
X018416Y006045D02*
X018251Y006045D01*
X018271Y006203D02*
X018396Y006203D01*
X018435Y006362D02*
X018232Y006362D01*
X018309Y006520D02*
X018358Y006520D01*
X018358Y006679D02*
X018309Y006679D01*
X018309Y006837D02*
X018358Y006837D01*
X018358Y006996D02*
X018309Y006996D01*
X017833Y006806D02*
X017833Y006180D01*
X018833Y006180D02*
X018833Y006806D01*
X019309Y006837D02*
X019358Y006837D01*
X019358Y006679D02*
X019309Y006679D01*
X019309Y006520D02*
X019358Y006520D01*
X019435Y006362D02*
X019232Y006362D01*
X019271Y006203D02*
X019396Y006203D01*
X019416Y006045D02*
X019251Y006045D01*
X019158Y005886D02*
X019509Y005886D01*
X019833Y006180D02*
X019833Y006806D01*
X019358Y006996D02*
X019309Y006996D01*
X019409Y007602D02*
X018881Y007602D01*
X018881Y008090D01*
X019156Y008090D01*
X019210Y008079D01*
X019261Y008058D01*
X019307Y008027D01*
X019333Y008001D01*
X019360Y008027D01*
X019405Y008058D01*
X019456Y008079D01*
X019510Y008090D01*
X019785Y008090D01*
X019785Y007602D01*
X019409Y007602D01*
X019785Y007630D02*
X019881Y007630D01*
X019881Y007788D02*
X019785Y007788D01*
X019785Y007947D02*
X019881Y007947D01*
X020093Y008105D02*
X017323Y008105D01*
X017323Y008264D02*
X020093Y008264D01*
X020093Y008422D02*
X017323Y008422D01*
X017323Y008581D02*
X020093Y008581D01*
X020093Y008739D02*
X017323Y008739D01*
X017323Y008898D02*
X020093Y008898D01*
X020093Y009056D02*
X017323Y009056D01*
X017323Y009215D02*
X020093Y009215D01*
X019951Y009373D02*
X017323Y009373D01*
X017323Y009532D02*
X019792Y009532D01*
X019634Y009690D02*
X017323Y009690D01*
X017323Y009849D02*
X019475Y009849D01*
X019317Y010007D02*
X017323Y010007D01*
X017323Y010166D02*
X019158Y010166D01*
X019000Y010324D02*
X017323Y010324D01*
X017323Y010483D02*
X018841Y010483D01*
X018683Y010641D02*
X017323Y010641D01*
X017349Y010800D02*
X018524Y010800D01*
X018366Y010958D02*
X017486Y010958D01*
X017540Y011117D02*
X018207Y011117D01*
X018049Y011275D02*
X017539Y011275D01*
X017473Y011434D02*
X017890Y011434D01*
X017732Y011592D02*
X017283Y011592D01*
X016883Y011592D02*
X016323Y011592D01*
X016473Y011434D02*
X016694Y011434D01*
X016628Y011275D02*
X016539Y011275D01*
X016540Y011117D02*
X016626Y011117D01*
X016680Y010958D02*
X016486Y010958D01*
X016349Y010800D02*
X016817Y010800D01*
X016592Y010641D02*
X016575Y010641D01*
X016575Y010483D02*
X016592Y010483D01*
X016575Y010324D02*
X016592Y010324D01*
X016592Y010171D02*
X016592Y009623D01*
X016627Y009623D01*
X016714Y009637D01*
X016797Y009664D01*
X016843Y009687D01*
X016843Y006359D01*
X015823Y007379D01*
X015823Y009785D01*
X015842Y009792D01*
X015971Y009921D01*
X016036Y010077D01*
X016040Y010050D01*
X016067Y009966D01*
X016107Y009888D01*
X016158Y009817D01*
X016220Y009755D01*
X016291Y009703D01*
X016369Y009664D01*
X016453Y009637D01*
X016539Y009623D01*
X016575Y009623D01*
X016575Y010171D01*
X016592Y010171D01*
X016592Y010166D02*
X016575Y010166D01*
X016575Y010007D02*
X016592Y010007D01*
X016575Y009849D02*
X016592Y009849D01*
X016575Y009690D02*
X016592Y009690D01*
X016318Y009690D02*
X015823Y009690D01*
X015823Y009532D02*
X016843Y009532D01*
X016843Y009373D02*
X015823Y009373D01*
X015823Y009215D02*
X016843Y009215D01*
X016843Y009056D02*
X015823Y009056D01*
X015823Y008898D02*
X016843Y008898D01*
X016843Y008739D02*
X015823Y008739D01*
X015823Y008581D02*
X016843Y008581D01*
X016843Y008422D02*
X015823Y008422D01*
X015823Y008264D02*
X016843Y008264D01*
X016843Y008105D02*
X015823Y008105D01*
X015823Y007947D02*
X016843Y007947D01*
X016843Y007788D02*
X015823Y007788D01*
X015823Y007630D02*
X016843Y007630D01*
X016843Y007471D02*
X015823Y007471D01*
X015890Y007313D02*
X016843Y007313D01*
X016843Y007154D02*
X016049Y007154D01*
X016207Y006996D02*
X016843Y006996D01*
X016843Y006837D02*
X016366Y006837D01*
X016524Y006679D02*
X016843Y006679D01*
X016843Y006520D02*
X016683Y006520D01*
X016841Y006362D02*
X016843Y006362D01*
X016479Y006045D02*
X009787Y006045D01*
X009946Y006203D02*
X016321Y006203D01*
X016162Y006362D02*
X010104Y006362D01*
X010263Y006520D02*
X016004Y006520D01*
X015845Y006679D02*
X010421Y006679D01*
X010580Y006837D02*
X015687Y006837D01*
X015528Y006996D02*
X010738Y006996D01*
X010897Y007154D02*
X015376Y007154D01*
X015343Y007313D02*
X011055Y007313D01*
X011214Y007471D02*
X015343Y007471D01*
X015343Y007630D02*
X011372Y007630D01*
X011531Y007788D02*
X015343Y007788D01*
X015343Y007947D02*
X011689Y007947D01*
X011848Y008105D02*
X015343Y008105D01*
X015343Y008264D02*
X012006Y008264D01*
X012165Y008422D02*
X015343Y008422D01*
X015343Y008581D02*
X012323Y008581D01*
X012482Y008739D02*
X015343Y008739D01*
X015343Y008898D02*
X012640Y008898D01*
X012799Y009056D02*
X015343Y009056D01*
X015343Y009215D02*
X012957Y009215D01*
X013116Y009373D02*
X015343Y009373D01*
X015343Y009532D02*
X013274Y009532D01*
X013433Y009690D02*
X015343Y009690D01*
X015268Y009849D02*
X014898Y009849D01*
X014842Y009792D02*
X014971Y009921D01*
X015040Y010089D01*
X015040Y010271D01*
X014971Y010439D01*
X014842Y010568D01*
X014674Y010637D01*
X014492Y010637D01*
X014324Y010568D01*
X014196Y010439D01*
X014126Y010271D01*
X014126Y010089D01*
X014196Y009921D01*
X014324Y009792D01*
X014492Y009723D01*
X014674Y009723D01*
X014842Y009792D01*
X015007Y010007D02*
X015160Y010007D01*
X015126Y010166D02*
X015040Y010166D01*
X015019Y010324D02*
X015148Y010324D01*
X015239Y010483D02*
X014927Y010483D01*
X014239Y010483D02*
X013927Y010483D01*
X013971Y010439D02*
X013842Y010568D01*
X013674Y010637D01*
X013492Y010637D01*
X013324Y010568D01*
X013196Y010439D01*
X013126Y010271D01*
X013126Y010089D01*
X013134Y010070D01*
X008484Y005420D01*
X007803Y005420D01*
X007790Y005452D01*
X007655Y005587D01*
X007558Y005627D01*
X007606Y005642D01*
X007687Y005684D01*
X007761Y005738D01*
X007826Y005802D01*
X007879Y005876D01*
X007921Y005957D01*
X007949Y006044D01*
X007963Y006134D01*
X007963Y006160D01*
X007103Y006160D01*
X007103Y006200D01*
X007963Y006200D01*
X007963Y006226D01*
X007949Y006316D01*
X007921Y006403D01*
X007879Y006484D01*
X007826Y006558D01*
X007761Y006622D01*
X007687Y006676D01*
X007606Y006718D01*
X007558Y006733D01*
X007655Y006773D01*
X007790Y006908D01*
X007863Y007085D01*
X007863Y007275D01*
X007790Y007452D01*
X007655Y007587D01*
X007479Y007660D01*
X006688Y007660D01*
X006511Y007587D01*
X006376Y007452D01*
X006303Y007275D01*
X006303Y007085D01*
X006376Y006908D01*
X006511Y006773D01*
X006608Y006733D01*
X006561Y006718D01*
X006479Y006676D01*
X006405Y006622D01*
X006341Y006558D01*
X006287Y006484D01*
X006246Y006403D01*
X006218Y006316D01*
X006203Y006226D01*
X006203Y006200D01*
X007063Y006200D01*
X007063Y006160D01*
X006203Y006160D01*
X006203Y006134D01*
X006218Y006044D01*
X006246Y005957D01*
X006287Y005876D01*
X006341Y005802D01*
X006405Y005738D01*
X006479Y005684D01*
X006561Y005642D01*
X006608Y005627D01*
X006511Y005587D01*
X006376Y005452D01*
X006303Y005275D01*
X006303Y005085D01*
X006376Y004908D01*
X006511Y004773D01*
X006688Y004700D01*
X007479Y004700D01*
X007655Y004773D01*
X007790Y004908D01*
X007803Y004940D01*
X008631Y004940D01*
X008719Y004977D01*
X008787Y005044D01*
X013473Y009731D01*
X013492Y009723D01*
X013674Y009723D01*
X013842Y009792D01*
X013971Y009921D01*
X014040Y010089D01*
X014040Y010271D01*
X013971Y010439D01*
X014019Y010324D02*
X014148Y010324D01*
X014126Y010166D02*
X014040Y010166D01*
X014007Y010007D02*
X014160Y010007D01*
X014268Y009849D02*
X013898Y009849D01*
X013071Y010007D02*
X007831Y010007D01*
X007863Y010085D02*
X007790Y009908D01*
X007655Y009773D01*
X007479Y009700D01*
X006688Y009700D01*
X006511Y009773D01*
X006376Y009908D01*
X006303Y010085D01*
X006303Y010275D01*
X006376Y010452D01*
X006511Y010587D01*
X006688Y010660D01*
X007479Y010660D01*
X007655Y010587D01*
X007790Y010452D01*
X007863Y010275D01*
X007863Y010085D01*
X007863Y010166D02*
X013126Y010166D01*
X013148Y010324D02*
X007843Y010324D01*
X007760Y010483D02*
X013239Y010483D01*
X013696Y010921D02*
X013824Y010792D01*
X013992Y010723D01*
X014174Y010723D01*
X014342Y010792D01*
X014471Y010921D01*
X014540Y011089D01*
X014540Y011271D01*
X014471Y011439D01*
X014342Y011568D01*
X014174Y011637D01*
X013992Y011637D01*
X013824Y011568D01*
X013696Y011439D01*
X013626Y011271D01*
X013626Y011089D01*
X013696Y010921D01*
X013680Y010958D02*
X007811Y010958D01*
X007790Y010908D02*
X007863Y011085D01*
X007863Y011275D01*
X013628Y011275D01*
X013626Y011117D02*
X007863Y011117D01*
X007863Y011275D02*
X007790Y011452D01*
X007655Y011587D01*
X007479Y011660D01*
X006688Y011660D01*
X006511Y011587D01*
X006376Y011452D01*
X006303Y011275D01*
X005613Y011275D01*
X005613Y011117D02*
X006303Y011117D01*
X006303Y011085D02*
X006376Y010908D01*
X006511Y010773D01*
X006688Y010700D01*
X007479Y010700D01*
X007655Y010773D01*
X007790Y010908D01*
X007682Y010800D02*
X013817Y010800D01*
X014349Y010800D02*
X014817Y010800D01*
X014824Y010792D02*
X014992Y010723D01*
X015174Y010723D01*
X015342Y010792D01*
X015471Y010921D01*
X015540Y011089D01*
X015540Y011271D01*
X015471Y011439D01*
X015342Y011568D01*
X015174Y011637D01*
X014992Y011637D01*
X014824Y011568D01*
X014696Y011439D01*
X014626Y011271D01*
X014626Y011089D01*
X014696Y010921D01*
X014824Y010792D01*
X014680Y010958D02*
X014486Y010958D01*
X014540Y011117D02*
X014626Y011117D01*
X014628Y011275D02*
X014539Y011275D01*
X014473Y011434D02*
X014694Y011434D01*
X014883Y011592D02*
X014283Y011592D01*
X013883Y011592D02*
X007643Y011592D01*
X007601Y011751D02*
X015843Y011751D01*
X015843Y011909D02*
X007791Y011909D01*
X007856Y012068D02*
X015931Y012068D01*
X015843Y011592D02*
X015283Y011592D01*
X015473Y011434D02*
X015694Y011434D01*
X015628Y011275D02*
X015539Y011275D01*
X015540Y011117D02*
X015626Y011117D01*
X015680Y010958D02*
X015486Y010958D01*
X015349Y010800D02*
X015817Y010800D01*
X016270Y010641D02*
X007525Y010641D01*
X006642Y010641D02*
X005613Y010641D01*
X005613Y010483D02*
X006407Y010483D01*
X006323Y010324D02*
X005613Y010324D01*
X005613Y010166D02*
X006303Y010166D01*
X006335Y010007D02*
X005613Y010007D01*
X005613Y009849D02*
X006436Y009849D01*
X006511Y009587D02*
X006688Y009660D01*
X007479Y009660D01*
X007655Y009587D01*
X007790Y009452D01*
X007863Y009275D01*
X007863Y009085D01*
X007790Y008908D01*
X007655Y008773D01*
X007479Y008700D01*
X006688Y008700D01*
X006511Y008773D01*
X006376Y008908D01*
X006303Y009085D01*
X006303Y009275D01*
X006376Y009452D01*
X006511Y009587D01*
X006456Y009532D02*
X005613Y009532D01*
X005613Y009690D02*
X012754Y009690D01*
X012912Y009849D02*
X007731Y009849D01*
X007711Y009532D02*
X012595Y009532D01*
X012437Y009373D02*
X007823Y009373D01*
X007863Y009215D02*
X012278Y009215D01*
X012120Y009056D02*
X007852Y009056D01*
X007780Y008898D02*
X011961Y008898D01*
X011803Y008739D02*
X007573Y008739D01*
X007479Y008660D02*
X007655Y008587D01*
X007790Y008452D01*
X007863Y008275D01*
X007863Y008085D01*
X007790Y007908D01*
X007655Y007773D01*
X007479Y007700D01*
X006688Y007700D01*
X006511Y007773D01*
X006376Y007908D01*
X006303Y008085D01*
X006303Y008275D01*
X006376Y008452D01*
X006511Y008587D01*
X006688Y008660D01*
X007479Y008660D01*
X007662Y008581D02*
X011644Y008581D01*
X011486Y008422D02*
X007803Y008422D01*
X007863Y008264D02*
X011327Y008264D01*
X011169Y008105D02*
X007863Y008105D01*
X007806Y007947D02*
X011010Y007947D01*
X010852Y007788D02*
X007670Y007788D01*
X007552Y007630D02*
X010693Y007630D01*
X010535Y007471D02*
X007771Y007471D01*
X007848Y007313D02*
X010376Y007313D01*
X010218Y007154D02*
X007863Y007154D01*
X007826Y006996D02*
X010059Y006996D01*
X009901Y006837D02*
X007719Y006837D01*
X007683Y006679D02*
X009742Y006679D01*
X009584Y006520D02*
X007853Y006520D01*
X007934Y006362D02*
X009425Y006362D01*
X009267Y006203D02*
X007963Y006203D01*
X007949Y006045D02*
X009108Y006045D01*
X008950Y005886D02*
X007884Y005886D01*
X007747Y005728D02*
X008791Y005728D01*
X008633Y005569D02*
X007673Y005569D01*
X006494Y005569D02*
X005613Y005569D01*
X005613Y005411D02*
X006359Y005411D01*
X006303Y005252D02*
X005613Y005252D01*
X005613Y005094D02*
X006303Y005094D01*
X006365Y004935D02*
X005613Y004935D01*
X005613Y004777D02*
X006508Y004777D01*
X005613Y004618D02*
X010013Y004618D01*
X009970Y004544D02*
X009878Y004198D01*
X009878Y003839D01*
X009970Y003493D01*
X010150Y003183D01*
X010403Y002929D01*
X010713Y002750D01*
X011060Y002657D01*
X011418Y002657D01*
X011764Y002750D01*
X012075Y002929D01*
X012328Y003183D01*
X012507Y003493D01*
X012600Y003839D01*
X012600Y004198D01*
X012507Y004544D01*
X012328Y004854D01*
X012075Y005108D01*
X011764Y005287D01*
X011418Y005380D01*
X011060Y005380D01*
X010713Y005287D01*
X010403Y005108D01*
X010150Y004854D01*
X009970Y004544D01*
X009948Y004460D02*
X005613Y004460D01*
X005613Y004301D02*
X009905Y004301D01*
X009878Y004143D02*
X005613Y004143D01*
X005613Y003984D02*
X009878Y003984D01*
X009881Y003826D02*
X005613Y003826D01*
X005613Y003667D02*
X009924Y003667D01*
X009966Y003509D02*
X005613Y003509D01*
X005613Y003350D02*
X010053Y003350D01*
X010145Y003192D02*
X005613Y003192D01*
X005613Y003033D02*
X010300Y003033D01*
X010498Y002875D02*
X005613Y002875D01*
X005613Y002716D02*
X010841Y002716D01*
X011636Y002716D02*
X024745Y002716D01*
X024708Y002875D02*
X019147Y002875D01*
X018520Y002875D02*
X011979Y002875D01*
X012178Y003033D02*
X018421Y003033D01*
X018396Y003192D02*
X012333Y003192D01*
X012425Y003350D02*
X018430Y003350D01*
X018543Y003509D02*
X012511Y003509D01*
X012554Y003667D02*
X018981Y003667D01*
X019139Y003826D02*
X012596Y003826D01*
X012600Y003984D02*
X019298Y003984D01*
X019456Y004143D02*
X012600Y004143D01*
X012572Y004301D02*
X019615Y004301D01*
X019773Y004460D02*
X018393Y004460D01*
X018493Y004618D02*
X019932Y004618D01*
X020090Y004777D02*
X018508Y004777D01*
X018454Y004935D02*
X020249Y004935D01*
X020407Y005094D02*
X018377Y005094D01*
X018457Y005252D02*
X020566Y005252D01*
X020724Y005411D02*
X018456Y005411D01*
X018375Y005569D02*
X020883Y005569D01*
X022823Y006045D02*
X023013Y006045D01*
X022851Y006203D02*
X022823Y006203D01*
X025701Y006045D02*
X025797Y006045D01*
X025797Y005886D02*
X025701Y005886D01*
X025703Y005728D02*
X025797Y005728D01*
X025723Y005569D02*
X026937Y005569D01*
X026937Y005728D02*
X026771Y005728D01*
X026854Y005886D02*
X026940Y005886D01*
X025984Y005411D02*
X025723Y005411D01*
X025723Y005252D02*
X025908Y005252D01*
X025913Y005094D02*
X025723Y005094D01*
X025723Y004935D02*
X025958Y004935D01*
X025867Y004777D02*
X025723Y004777D01*
X025723Y004618D02*
X025858Y004618D01*
X025923Y004460D02*
X025723Y004460D01*
X025723Y004301D02*
X025828Y004301D01*
X025808Y004143D02*
X025723Y004143D01*
X025723Y003984D02*
X025859Y003984D01*
X025788Y003826D02*
X025723Y003826D01*
X025723Y003667D02*
X025758Y003667D01*
X025723Y003509D02*
X025798Y003509D01*
X025848Y003350D02*
X025723Y003350D01*
X025723Y003192D02*
X025808Y003192D01*
X025838Y003033D02*
X025723Y003033D01*
X025723Y002875D02*
X025808Y002875D01*
X025758Y002716D02*
X025723Y002716D01*
X025723Y002558D02*
X025778Y002558D01*
X025822Y002399D02*
X025723Y002399D01*
X025708Y002241D02*
X025758Y002241D01*
X025768Y002082D02*
X025657Y002082D01*
X025859Y001924D02*
X025453Y001924D01*
X025214Y001924D02*
X005613Y001924D01*
X005613Y002082D02*
X025009Y002082D01*
X024958Y002241D02*
X005613Y002241D01*
X005613Y002399D02*
X024977Y002399D01*
X024882Y002558D02*
X005613Y002558D01*
X005613Y001765D02*
X026208Y001765D01*
X026229Y001607D02*
X005613Y001607D01*
X005613Y001448D02*
X026271Y001448D01*
X026208Y001290D02*
X005613Y001290D01*
X005613Y001131D02*
X026218Y001131D01*
X026311Y000973D02*
X005613Y000973D01*
X005613Y000814D02*
X053353Y000814D01*
X053233Y000973D02*
X052994Y000973D01*
X053152Y001131D02*
X053223Y001131D01*
X052833Y001180D02*
X053333Y001680D01*
X053903Y001680D01*
X054483Y001607D02*
X056217Y001607D01*
X056059Y001765D02*
X054483Y001765D01*
X054444Y001924D02*
X055900Y001924D01*
X055742Y002082D02*
X054483Y002082D01*
X054483Y002241D02*
X055583Y002241D01*
X055425Y002399D02*
X054469Y002399D01*
X054483Y002558D02*
X055266Y002558D01*
X055150Y002716D02*
X054483Y002716D01*
X054483Y002875D02*
X055143Y002875D01*
X055143Y003033D02*
X054483Y003033D01*
X054483Y003192D02*
X055143Y003192D01*
X055143Y003350D02*
X054483Y003350D01*
X054483Y003509D02*
X055143Y003509D01*
X055143Y003667D02*
X054483Y003667D01*
X054483Y003826D02*
X055143Y003826D01*
X055143Y003984D02*
X054483Y003984D01*
X054483Y004143D02*
X055143Y004143D01*
X055143Y004301D02*
X054483Y004301D01*
X054467Y004460D02*
X055143Y004460D01*
X055143Y004618D02*
X054483Y004618D01*
X054483Y004777D02*
X055143Y004777D01*
X055143Y004935D02*
X054443Y004935D01*
X054483Y005094D02*
X055143Y005094D01*
X055143Y005252D02*
X054483Y005252D01*
X054457Y005411D02*
X055143Y005411D01*
X055143Y005569D02*
X052830Y005569D01*
X052830Y005728D02*
X055143Y005728D01*
X055143Y005886D02*
X052820Y005886D01*
X052730Y006045D02*
X055143Y006045D01*
X055143Y006203D02*
X052730Y006203D01*
X052730Y006362D02*
X055143Y006362D01*
X055143Y006520D02*
X054013Y006520D01*
X054073Y006679D02*
X055143Y006679D01*
X055143Y006837D02*
X054385Y006837D01*
X054563Y006996D02*
X055143Y006996D01*
X055143Y007154D02*
X054608Y007154D01*
X054705Y007313D02*
X055143Y007313D01*
X055143Y007471D02*
X054864Y007471D01*
X055022Y007630D02*
X055143Y007630D01*
X054502Y007788D02*
X054073Y007788D01*
X054073Y007630D02*
X054343Y007630D01*
X054073Y007947D02*
X054660Y007947D01*
X054819Y008105D02*
X054073Y008105D01*
X054073Y008264D02*
X054893Y008264D01*
X054893Y008422D02*
X054073Y008422D01*
X054073Y008581D02*
X054893Y008581D01*
X054893Y008739D02*
X054073Y008739D01*
X054073Y008898D02*
X054893Y008898D01*
X054893Y009056D02*
X054073Y009056D01*
X054073Y009215D02*
X054893Y009215D01*
X054893Y009373D02*
X054073Y009373D01*
X054073Y009532D02*
X054893Y009532D01*
X054893Y009690D02*
X054073Y009690D01*
X054073Y009849D02*
X054893Y009849D01*
X054893Y010007D02*
X054073Y010007D01*
X054073Y010166D02*
X054893Y010166D01*
X054893Y010324D02*
X054073Y010324D01*
X054073Y010483D02*
X054893Y010483D01*
X054893Y010641D02*
X054134Y010641D01*
X054292Y010800D02*
X054893Y010800D01*
X054906Y010958D02*
X054451Y010958D01*
X054609Y011117D02*
X055030Y011117D01*
X055189Y011275D02*
X054768Y011275D01*
X054926Y011434D02*
X055347Y011434D01*
X055506Y011592D02*
X055085Y011592D01*
X055243Y011751D02*
X055664Y011751D01*
X055402Y011909D02*
X071222Y011909D01*
X071200Y011931D02*
X071324Y011807D01*
X071486Y011740D01*
X072181Y011740D01*
X072343Y011807D01*
X072466Y011931D01*
X072533Y012092D01*
X072533Y012268D01*
X072466Y012429D01*
X072343Y012553D01*
X072181Y012620D01*
X071486Y012620D01*
X071324Y012553D01*
X071200Y012429D01*
X071133Y012268D01*
X071133Y012092D01*
X071200Y011931D01*
X071144Y012068D02*
X055560Y012068D01*
X055719Y012226D02*
X071133Y012226D01*
X071182Y012385D02*
X055877Y012385D01*
X056036Y012543D02*
X071314Y012543D01*
X072353Y012543D02*
X075132Y012543D01*
X075132Y012385D02*
X072485Y012385D01*
X072533Y012226D02*
X075132Y012226D01*
X075132Y012068D02*
X072523Y012068D01*
X072445Y011909D02*
X075132Y011909D01*
X075132Y011751D02*
X072206Y011751D01*
X072181Y011620D02*
X072343Y011553D01*
X072466Y011429D01*
X072533Y011268D01*
X072533Y011092D01*
X072466Y010931D01*
X072343Y010807D01*
X072181Y010740D01*
X071486Y010740D01*
X071324Y010807D01*
X071200Y010931D01*
X071133Y011092D01*
X071133Y011268D01*
X071200Y011429D01*
X071324Y011553D01*
X071486Y011620D01*
X072181Y011620D01*
X072248Y011592D02*
X075132Y011592D01*
X075132Y011434D02*
X072462Y011434D01*
X072530Y011275D02*
X075132Y011275D01*
X075132Y011117D02*
X072533Y011117D01*
X072478Y010958D02*
X075132Y010958D01*
X075132Y010800D02*
X072325Y010800D01*
X072181Y010620D02*
X071486Y010620D01*
X071324Y010553D01*
X071200Y010429D01*
X071133Y010268D01*
X071133Y010092D01*
X071200Y009931D01*
X071324Y009807D01*
X071486Y009740D01*
X072181Y009740D01*
X072343Y009807D01*
X072466Y009931D01*
X072533Y010092D01*
X072533Y010268D01*
X072466Y010429D01*
X072343Y010553D01*
X072181Y010620D01*
X072413Y010483D02*
X075132Y010483D01*
X075132Y010641D02*
X066773Y010641D01*
X066773Y010483D02*
X071254Y010483D01*
X071157Y010324D02*
X066879Y010324D01*
X066773Y010429D02*
X066773Y011428D01*
X066737Y011516D01*
X066487Y011766D01*
X066419Y011833D01*
X066331Y011870D01*
X062536Y011870D01*
X062447Y011833D01*
X062380Y011766D01*
X062343Y011678D01*
X062343Y010575D01*
X062324Y010568D01*
X062196Y010439D01*
X062126Y010271D01*
X062126Y010089D01*
X062196Y009921D01*
X062324Y009792D01*
X062453Y009739D01*
X061519Y008805D01*
X061409Y008805D01*
X061271Y008748D01*
X061165Y008642D01*
X061108Y008505D01*
X061108Y008355D01*
X061165Y008218D01*
X061271Y008112D01*
X061409Y008055D01*
X061558Y008055D01*
X061696Y008112D01*
X061801Y008218D01*
X061858Y008355D01*
X061858Y008466D01*
X063219Y009827D01*
X063219Y009827D01*
X063255Y009862D01*
X063324Y009792D01*
X063492Y009723D01*
X063674Y009723D01*
X063842Y009792D01*
X063971Y009921D01*
X064040Y010089D01*
X064040Y010271D01*
X063991Y010390D01*
X064175Y010390D01*
X064126Y010271D01*
X064126Y010089D01*
X064196Y009921D01*
X064324Y009792D01*
X064343Y009785D01*
X064343Y007820D01*
X064265Y007742D01*
X064208Y007605D01*
X064208Y007455D01*
X064265Y007318D01*
X064371Y007212D01*
X064509Y007155D01*
X064658Y007155D01*
X064796Y007212D01*
X064901Y007318D01*
X064958Y007455D01*
X064958Y007605D01*
X064901Y007742D01*
X064823Y007820D01*
X064823Y009785D01*
X064842Y009792D01*
X064971Y009921D01*
X065036Y010077D01*
X065040Y010050D01*
X065067Y009966D01*
X065107Y009888D01*
X065158Y009817D01*
X065220Y009755D01*
X065291Y009703D01*
X065369Y009664D01*
X065453Y009637D01*
X065539Y009623D01*
X065575Y009623D01*
X065575Y010171D01*
X065592Y010171D01*
X065592Y009623D01*
X065627Y009623D01*
X065714Y009637D01*
X065797Y009664D01*
X065875Y009703D01*
X065946Y009755D01*
X066008Y009817D01*
X066060Y009888D01*
X066100Y009966D01*
X066114Y010010D01*
X069509Y006615D01*
X069509Y005655D01*
X069418Y005655D01*
X069313Y005550D01*
X069313Y005440D01*
X069127Y005440D01*
X069113Y005454D01*
X068868Y005454D01*
X068827Y005471D01*
X068732Y005469D01*
X068698Y005454D01*
X068334Y005454D01*
X068228Y005349D01*
X068228Y004806D01*
X068334Y004701D01*
X069113Y004701D01*
X069218Y004806D01*
X069218Y004920D01*
X069313Y004920D01*
X069313Y004810D01*
X069418Y004705D01*
X069946Y004705D01*
X069984Y004667D01*
X070029Y004637D01*
X070080Y004615D01*
X070134Y004605D01*
X070370Y004605D01*
X070370Y005132D01*
X070466Y005132D01*
X070466Y005228D01*
X070954Y005228D01*
X070954Y005503D01*
X070943Y005557D01*
X070926Y005598D01*
X071169Y005355D01*
X071133Y005268D01*
X071133Y005092D01*
X071155Y005041D01*
X070950Y004836D01*
X070954Y004857D01*
X070954Y005132D01*
X070466Y005132D01*
X070466Y004605D01*
X070701Y004605D01*
X070723Y004609D01*
X069780Y003666D01*
X069775Y003655D01*
X069418Y003655D01*
X069313Y003550D01*
X069313Y003440D01*
X069218Y003440D01*
X069218Y003554D01*
X069113Y003659D01*
X068334Y003659D01*
X068228Y003554D01*
X068228Y003011D01*
X068334Y002906D01*
X069113Y002906D01*
X069127Y002920D01*
X069313Y002920D01*
X069313Y002810D01*
X069418Y002705D01*
X069946Y002705D01*
X069984Y002667D01*
X070029Y002637D01*
X070080Y002615D01*
X070134Y002605D01*
X070370Y002605D01*
X070370Y003132D01*
X070466Y003132D01*
X070466Y003228D01*
X070954Y003228D01*
X070954Y003503D01*
X070943Y003557D01*
X070922Y003608D01*
X070891Y003654D01*
X070852Y003693D01*
X070807Y003723D01*
X070756Y003745D01*
X070701Y003755D01*
X070548Y003755D01*
X071533Y004740D01*
X072181Y004740D01*
X072343Y004807D01*
X072466Y004931D01*
X072533Y005092D01*
X072533Y005268D01*
X072466Y005429D01*
X072343Y005553D01*
X072181Y005620D01*
X071583Y005620D01*
X071563Y005640D01*
X071833Y005640D01*
X071833Y006180D01*
X071033Y006180D01*
X071033Y006169D01*
X066773Y010429D01*
X067037Y010166D02*
X071133Y010166D01*
X071169Y010007D02*
X067196Y010007D01*
X067354Y009849D02*
X071283Y009849D01*
X071324Y009553D02*
X071200Y009429D01*
X071133Y009268D01*
X071133Y009092D01*
X071200Y008931D01*
X071324Y008807D01*
X071486Y008740D01*
X072181Y008740D01*
X072343Y008807D01*
X072466Y008931D01*
X072533Y009092D01*
X072533Y009268D01*
X072466Y009429D01*
X072343Y009553D01*
X072181Y009620D01*
X071486Y009620D01*
X071324Y009553D01*
X071303Y009532D02*
X067671Y009532D01*
X067513Y009690D02*
X075132Y009690D01*
X075132Y009532D02*
X072364Y009532D01*
X072490Y009373D02*
X075132Y009373D01*
X075132Y009215D02*
X072533Y009215D01*
X072518Y009056D02*
X075132Y009056D01*
X075132Y008898D02*
X072433Y008898D01*
X072276Y008581D02*
X075132Y008581D01*
X075132Y008739D02*
X068464Y008739D01*
X068622Y008581D02*
X071390Y008581D01*
X071324Y008553D02*
X071486Y008620D01*
X072181Y008620D01*
X072343Y008553D01*
X072466Y008429D01*
X072533Y008268D01*
X072533Y008092D01*
X072466Y007931D01*
X072343Y007807D01*
X072181Y007740D01*
X071486Y007740D01*
X071324Y007807D01*
X071200Y007931D01*
X071133Y008092D01*
X071133Y008268D01*
X071200Y008429D01*
X071324Y008553D01*
X071197Y008422D02*
X068781Y008422D01*
X068939Y008264D02*
X071133Y008264D01*
X071133Y008105D02*
X069098Y008105D01*
X069256Y007947D02*
X071194Y007947D01*
X071370Y007788D02*
X069415Y007788D01*
X069573Y007630D02*
X075132Y007630D01*
X075132Y007788D02*
X072297Y007788D01*
X072181Y007620D02*
X071486Y007620D01*
X071324Y007553D01*
X071200Y007429D01*
X071133Y007268D01*
X071133Y007092D01*
X071200Y006931D01*
X071324Y006807D01*
X071486Y006740D01*
X072181Y006740D01*
X072343Y006807D01*
X072466Y006931D01*
X072533Y007092D01*
X072533Y007268D01*
X072466Y007429D01*
X072343Y007553D01*
X072181Y007620D01*
X072425Y007471D02*
X075132Y007471D01*
X075132Y007313D02*
X072515Y007313D01*
X072533Y007154D02*
X075132Y007154D01*
X075132Y006996D02*
X072493Y006996D01*
X072373Y006837D02*
X075132Y006837D01*
X075132Y006679D02*
X072304Y006679D01*
X072301Y006680D02*
X072220Y006707D01*
X072136Y006720D01*
X071833Y006720D01*
X071531Y006720D01*
X071447Y006707D01*
X071366Y006680D01*
X071290Y006642D01*
X071222Y006592D01*
X071161Y006532D01*
X071111Y006463D01*
X071073Y006387D01*
X071047Y006306D01*
X071033Y006222D01*
X071033Y006180D01*
X071833Y006180D01*
X071833Y006180D01*
X071833Y006720D01*
X071833Y006180D01*
X071833Y006180D01*
X071833Y006180D01*
X071833Y005640D01*
X072136Y005640D01*
X072220Y005653D01*
X072301Y005680D01*
X072376Y005718D01*
X072445Y005768D01*
X072505Y005828D01*
X072555Y005897D01*
X072594Y005973D01*
X072620Y006054D01*
X072633Y006138D01*
X072633Y006180D01*
X072633Y006222D01*
X072620Y006306D01*
X072594Y006387D01*
X072555Y006463D01*
X072505Y006532D01*
X072445Y006592D01*
X072376Y006642D01*
X072301Y006680D01*
X072514Y006520D02*
X075132Y006520D01*
X075132Y006362D02*
X072602Y006362D01*
X072633Y006203D02*
X075132Y006203D01*
X075132Y006045D02*
X072617Y006045D01*
X072633Y006180D02*
X071833Y006180D01*
X072633Y006180D01*
X072547Y005886D02*
X075132Y005886D01*
X075132Y005728D02*
X072389Y005728D01*
X072304Y005569D02*
X075132Y005569D01*
X075132Y005411D02*
X072474Y005411D01*
X072533Y005252D02*
X075132Y005252D01*
X075132Y005094D02*
X072533Y005094D01*
X072468Y004935D02*
X075132Y004935D01*
X075132Y004777D02*
X072269Y004777D01*
X071411Y004618D02*
X075132Y004618D01*
X075132Y004460D02*
X071252Y004460D01*
X071094Y004301D02*
X075132Y004301D01*
X075132Y004143D02*
X070935Y004143D01*
X070777Y003984D02*
X075132Y003984D01*
X075132Y003826D02*
X070618Y003826D01*
X070878Y003667D02*
X075132Y003667D01*
X075132Y003509D02*
X070953Y003509D01*
X070954Y003350D02*
X075132Y003350D01*
X075132Y003192D02*
X070466Y003192D01*
X070466Y003132D02*
X070954Y003132D01*
X070954Y002857D01*
X070943Y002803D01*
X070922Y002752D01*
X070891Y002706D01*
X070852Y002667D01*
X070807Y002637D01*
X070756Y002615D01*
X070701Y002605D01*
X070466Y002605D01*
X070466Y003132D01*
X070466Y003033D02*
X070370Y003033D01*
X070370Y002875D02*
X070466Y002875D01*
X070466Y002716D02*
X070370Y002716D01*
X070898Y002716D02*
X075132Y002716D01*
X075132Y002558D02*
X058343Y002558D01*
X058343Y002716D02*
X061629Y002716D01*
X061501Y002750D02*
X061847Y002657D01*
X062205Y002657D01*
X062552Y002750D01*
X062862Y002929D01*
X063115Y003183D01*
X063295Y003493D01*
X063387Y003839D01*
X063387Y004198D01*
X063295Y004544D01*
X063115Y004854D01*
X062862Y005108D01*
X062552Y005287D01*
X062205Y005380D01*
X061847Y005380D01*
X061501Y005287D01*
X061191Y005108D01*
X060937Y004854D01*
X060758Y004544D01*
X060665Y004198D01*
X060665Y003839D01*
X060758Y003493D01*
X060937Y003183D01*
X061191Y002929D01*
X061501Y002750D01*
X061286Y002875D02*
X058343Y002875D01*
X059276Y003033D02*
X061087Y003033D01*
X060932Y003192D02*
X059323Y003192D01*
X059323Y003350D02*
X060841Y003350D01*
X060754Y003509D02*
X059323Y003509D01*
X059323Y003667D02*
X060711Y003667D01*
X060669Y003826D02*
X059323Y003826D01*
X059323Y003984D02*
X060665Y003984D01*
X060665Y004143D02*
X059323Y004143D01*
X059323Y004301D02*
X060693Y004301D01*
X060735Y004460D02*
X059323Y004460D01*
X059323Y004618D02*
X060801Y004618D01*
X060892Y004777D02*
X059323Y004777D01*
X059323Y004935D02*
X061018Y004935D01*
X061176Y005094D02*
X059323Y005094D01*
X059323Y005252D02*
X061440Y005252D01*
X062612Y005252D02*
X064349Y005252D01*
X064333Y005252D02*
X067583Y005252D01*
X067583Y005094D02*
X064333Y005094D01*
X064349Y005094D02*
X062876Y005094D01*
X063035Y004935D02*
X064349Y004935D01*
X064333Y004935D02*
X067583Y004935D01*
X067583Y004777D02*
X064333Y004777D01*
X064349Y004777D02*
X063160Y004777D01*
X063252Y004618D02*
X064349Y004618D01*
X064333Y004618D02*
X067583Y004618D01*
X067583Y004460D02*
X064333Y004460D01*
X064349Y004460D02*
X063317Y004460D01*
X063360Y004301D02*
X064349Y004301D01*
X064333Y004301D02*
X067583Y004301D01*
X067583Y004143D02*
X064333Y004143D01*
X064349Y004100D02*
X064349Y003089D01*
X064359Y003035D01*
X064380Y002984D01*
X064411Y002939D01*
X064450Y002900D01*
X064496Y002869D01*
X064547Y002848D01*
X064601Y002837D01*
X065769Y002837D01*
X065769Y004100D01*
X064349Y004100D01*
X064349Y003984D02*
X063387Y003984D01*
X063387Y004143D02*
X065769Y004143D01*
X065769Y004100D02*
X065769Y004260D01*
X064349Y004260D01*
X064349Y005271D01*
X064359Y005325D01*
X064380Y005376D01*
X064411Y005421D01*
X064450Y005460D01*
X064496Y005491D01*
X064547Y005512D01*
X064601Y005523D01*
X065769Y005523D01*
X065769Y004260D01*
X065929Y004260D01*
X065929Y005523D01*
X067097Y005523D01*
X067151Y005512D01*
X067202Y005491D01*
X067248Y005460D01*
X067287Y005421D01*
X067318Y005376D01*
X067339Y005325D01*
X067350Y005271D01*
X067350Y004260D01*
X065929Y004260D01*
X065929Y004100D01*
X065929Y002837D01*
X067097Y002837D01*
X067151Y002848D01*
X067202Y002869D01*
X067248Y002900D01*
X067287Y002939D01*
X067318Y002984D01*
X067339Y003035D01*
X067350Y003089D01*
X067350Y004100D01*
X065929Y004100D01*
X065769Y004100D01*
X065769Y003984D02*
X065929Y003984D01*
X065929Y003826D02*
X065769Y003826D01*
X065769Y003667D02*
X065929Y003667D01*
X065929Y003509D02*
X065769Y003509D01*
X065769Y003350D02*
X065929Y003350D01*
X065929Y003192D02*
X065769Y003192D01*
X065769Y003033D02*
X065929Y003033D01*
X065929Y002875D02*
X065769Y002875D01*
X065833Y002680D02*
X065833Y002430D01*
X064488Y002875D02*
X062767Y002875D01*
X062966Y003033D02*
X064360Y003033D01*
X064333Y003033D02*
X067583Y003033D01*
X067583Y002875D02*
X064333Y002875D01*
X064333Y002716D02*
X067583Y002716D01*
X067583Y002680D02*
X067583Y005680D01*
X064333Y005680D01*
X064333Y002680D01*
X067583Y002680D01*
X067211Y002875D02*
X069313Y002875D01*
X069407Y002716D02*
X062424Y002716D01*
X063120Y003192D02*
X064349Y003192D01*
X064333Y003192D02*
X067583Y003192D01*
X067583Y003350D02*
X064333Y003350D01*
X064349Y003350D02*
X063212Y003350D01*
X063299Y003509D02*
X064349Y003509D01*
X064333Y003509D02*
X067583Y003509D01*
X067583Y003667D02*
X064333Y003667D01*
X064349Y003667D02*
X063341Y003667D01*
X063384Y003826D02*
X064349Y003826D01*
X064333Y003826D02*
X067583Y003826D01*
X067583Y003984D02*
X064333Y003984D01*
X065769Y004301D02*
X065929Y004301D01*
X065929Y004143D02*
X070256Y004143D01*
X070415Y004301D02*
X067350Y004301D01*
X067350Y004460D02*
X070573Y004460D01*
X070466Y004618D02*
X070370Y004618D01*
X070370Y004777D02*
X070466Y004777D01*
X070466Y004935D02*
X070370Y004935D01*
X070370Y005094D02*
X070466Y005094D01*
X070466Y005228D02*
X070370Y005228D01*
X070370Y005755D01*
X070134Y005755D01*
X070080Y005745D01*
X070029Y005723D01*
X069989Y005696D01*
X069989Y006535D01*
X070796Y005728D01*
X070756Y005745D01*
X070701Y005755D01*
X070466Y005755D01*
X070466Y005228D01*
X070466Y005252D02*
X070370Y005252D01*
X070370Y005411D02*
X070466Y005411D01*
X070466Y005569D02*
X070370Y005569D01*
X070370Y005728D02*
X070466Y005728D01*
X070638Y005886D02*
X069989Y005886D01*
X069989Y005728D02*
X070039Y005728D01*
X069509Y005728D02*
X059323Y005728D01*
X059323Y005886D02*
X069509Y005886D01*
X069509Y006045D02*
X059323Y006045D01*
X059323Y006203D02*
X069509Y006203D01*
X069509Y006362D02*
X059323Y006362D01*
X059323Y006520D02*
X069509Y006520D01*
X069445Y006679D02*
X059323Y006679D01*
X059323Y006837D02*
X069287Y006837D01*
X069128Y006996D02*
X059323Y006996D01*
X059323Y007154D02*
X068970Y007154D01*
X068811Y007313D02*
X064896Y007313D01*
X064958Y007471D02*
X068653Y007471D01*
X068494Y007630D02*
X064948Y007630D01*
X064856Y007788D02*
X068336Y007788D01*
X068177Y007947D02*
X064823Y007947D01*
X064823Y008105D02*
X068019Y008105D01*
X067860Y008264D02*
X064823Y008264D01*
X064823Y008422D02*
X067702Y008422D01*
X067543Y008581D02*
X064823Y008581D01*
X064823Y008739D02*
X067385Y008739D01*
X067226Y008898D02*
X064823Y008898D01*
X064823Y009056D02*
X067068Y009056D01*
X066909Y009215D02*
X064823Y009215D01*
X064823Y009373D02*
X066751Y009373D01*
X066592Y009532D02*
X064823Y009532D01*
X064823Y009690D02*
X065318Y009690D01*
X065135Y009849D02*
X064898Y009849D01*
X065007Y010007D02*
X065054Y010007D01*
X065575Y010007D02*
X065592Y010007D01*
X065575Y009849D02*
X065592Y009849D01*
X065575Y009690D02*
X065592Y009690D01*
X065849Y009690D02*
X066434Y009690D01*
X066275Y009849D02*
X066031Y009849D01*
X066113Y010007D02*
X066117Y010007D01*
X065592Y010166D02*
X065575Y010166D01*
X064343Y009690D02*
X063083Y009690D01*
X063241Y009849D02*
X063268Y009849D01*
X062924Y009532D02*
X064343Y009532D01*
X064343Y009373D02*
X062766Y009373D01*
X062607Y009215D02*
X064343Y009215D01*
X064343Y009056D02*
X062449Y009056D01*
X062290Y008898D02*
X064343Y008898D01*
X064343Y008739D02*
X062132Y008739D01*
X061973Y008581D02*
X064343Y008581D01*
X064343Y008422D02*
X061858Y008422D01*
X061820Y008264D02*
X064343Y008264D01*
X064343Y008105D02*
X061679Y008105D01*
X061288Y008105D02*
X059187Y008105D01*
X059208Y008264D02*
X061146Y008264D01*
X061108Y008422D02*
X059319Y008422D01*
X059323Y008581D02*
X061140Y008581D01*
X061262Y008739D02*
X059323Y008739D01*
X059323Y008898D02*
X061611Y008898D01*
X061770Y009056D02*
X059323Y009056D01*
X059323Y009215D02*
X061928Y009215D01*
X062087Y009373D02*
X059323Y009373D01*
X059323Y009532D02*
X062245Y009532D01*
X062404Y009690D02*
X059323Y009690D01*
X059323Y009849D02*
X062268Y009849D01*
X062160Y010007D02*
X059323Y010007D01*
X059323Y010166D02*
X062126Y010166D01*
X062148Y010324D02*
X059323Y010324D01*
X059323Y010483D02*
X062239Y010483D01*
X062343Y010641D02*
X059323Y010641D01*
X059349Y010800D02*
X062343Y010800D01*
X062343Y010958D02*
X059486Y010958D01*
X059540Y011117D02*
X062343Y011117D01*
X062343Y011275D02*
X059539Y011275D01*
X059473Y011434D02*
X062343Y011434D01*
X062343Y011592D02*
X059283Y011592D01*
X058883Y011592D02*
X058283Y011592D01*
X058473Y011434D02*
X058694Y011434D01*
X058628Y011275D02*
X058539Y011275D01*
X058540Y011117D02*
X058626Y011117D01*
X058680Y010958D02*
X058486Y010958D01*
X058349Y010800D02*
X058817Y010800D01*
X058592Y010641D02*
X058575Y010641D01*
X058575Y010483D02*
X058592Y010483D01*
X058575Y010324D02*
X058592Y010324D01*
X058592Y010171D02*
X058592Y009623D01*
X058627Y009623D01*
X058714Y009637D01*
X058797Y009664D01*
X058843Y009687D01*
X058843Y008605D01*
X058759Y008605D01*
X058621Y008548D01*
X058558Y008485D01*
X058496Y008548D01*
X058358Y008605D01*
X058209Y008605D01*
X058123Y008570D01*
X058123Y009731D01*
X058184Y009791D01*
X058220Y009755D01*
X058291Y009703D01*
X058369Y009664D01*
X058453Y009637D01*
X058539Y009623D01*
X058575Y009623D01*
X058575Y010171D01*
X058592Y010171D01*
X058592Y010166D02*
X058575Y010166D01*
X058575Y010007D02*
X058592Y010007D01*
X058575Y009849D02*
X058592Y009849D01*
X058575Y009690D02*
X058592Y009690D01*
X058318Y009690D02*
X058123Y009690D01*
X058123Y009532D02*
X058843Y009532D01*
X058843Y009373D02*
X058123Y009373D01*
X058123Y009215D02*
X058843Y009215D01*
X058843Y009056D02*
X058123Y009056D01*
X058123Y008898D02*
X058843Y008898D01*
X058843Y008739D02*
X058123Y008739D01*
X058123Y008581D02*
X058150Y008581D01*
X058417Y008581D02*
X058700Y008581D01*
X059080Y007947D02*
X064343Y007947D01*
X064311Y007788D02*
X059065Y007788D01*
X059223Y007630D02*
X064219Y007630D01*
X064208Y007471D02*
X059323Y007471D01*
X059323Y007313D02*
X064270Y007313D01*
X068305Y008898D02*
X071234Y008898D01*
X071148Y009056D02*
X068147Y009056D01*
X067988Y009215D02*
X071133Y009215D01*
X071177Y009373D02*
X067830Y009373D01*
X064268Y009849D02*
X063898Y009849D01*
X064007Y010007D02*
X064160Y010007D01*
X064126Y010166D02*
X064040Y010166D01*
X064019Y010324D02*
X064148Y010324D01*
X066773Y010800D02*
X071342Y010800D01*
X071189Y010958D02*
X066773Y010958D01*
X066773Y011117D02*
X071133Y011117D01*
X071136Y011275D02*
X066773Y011275D01*
X066771Y011434D02*
X071205Y011434D01*
X071418Y011592D02*
X066661Y011592D01*
X066502Y011751D02*
X071460Y011751D01*
X075132Y012702D02*
X056194Y012702D01*
X056353Y012860D02*
X059159Y012860D01*
X058944Y013019D02*
X056511Y013019D01*
X056670Y013177D02*
X058796Y013177D01*
X058730Y013336D02*
X056828Y013336D01*
X056987Y013494D02*
X058665Y013494D01*
X058663Y013653D02*
X057145Y013653D01*
X057304Y013811D02*
X058663Y013811D01*
X058707Y013970D02*
X057462Y013970D01*
X057572Y014128D02*
X058773Y014128D01*
X058889Y014287D02*
X057573Y014287D01*
X060278Y014287D02*
X061389Y014287D01*
X061273Y014128D02*
X060394Y014128D01*
X060459Y013970D02*
X061207Y013970D01*
X061163Y013811D02*
X060503Y013811D01*
X060503Y013653D02*
X061163Y013653D01*
X061165Y013494D02*
X060502Y013494D01*
X060436Y013336D02*
X061230Y013336D01*
X061296Y013177D02*
X060371Y013177D01*
X060223Y013019D02*
X061444Y013019D01*
X061659Y012860D02*
X060008Y012860D01*
X062508Y012860D02*
X066159Y012860D01*
X065944Y013019D02*
X062723Y013019D01*
X062871Y013177D02*
X065796Y013177D01*
X065730Y013336D02*
X062936Y013336D01*
X063002Y013494D02*
X065665Y013494D01*
X065663Y013653D02*
X063003Y013653D01*
X063003Y013811D02*
X065663Y013811D01*
X065707Y013970D02*
X062959Y013970D01*
X062894Y014128D02*
X065773Y014128D01*
X065889Y014287D02*
X062778Y014287D01*
X067008Y012860D02*
X075132Y012860D01*
X075132Y013019D02*
X067223Y013019D01*
X067371Y013177D02*
X075132Y013177D01*
X075132Y013336D02*
X067436Y013336D01*
X067502Y013494D02*
X075132Y013494D01*
X075132Y013653D02*
X067503Y013653D01*
X067503Y013811D02*
X075132Y013811D01*
X075132Y013970D02*
X067459Y013970D01*
X067394Y014128D02*
X075132Y014128D01*
X075132Y014287D02*
X067278Y014287D01*
X062373Y011751D02*
X057793Y011751D01*
X057823Y011592D02*
X057883Y011592D01*
X051592Y010166D02*
X051575Y010166D01*
X051575Y010007D02*
X051592Y010007D01*
X051575Y009849D02*
X051592Y009849D01*
X051575Y009690D02*
X051592Y009690D01*
X051743Y009532D02*
X049823Y009532D01*
X049823Y009690D02*
X051318Y009690D01*
X051135Y009849D02*
X050898Y009849D01*
X051007Y010007D02*
X051054Y010007D01*
X050268Y009849D02*
X049898Y009849D01*
X050007Y010007D02*
X050160Y010007D01*
X050126Y010166D02*
X050040Y010166D01*
X050019Y010324D02*
X050148Y010324D01*
X050239Y010483D02*
X049927Y010483D01*
X050343Y010641D02*
X049268Y010641D01*
X049349Y010800D02*
X049817Y010800D01*
X049680Y010958D02*
X049486Y010958D01*
X049540Y011117D02*
X049626Y011117D01*
X049628Y011275D02*
X049539Y011275D01*
X049473Y011434D02*
X049694Y011434D01*
X049883Y011592D02*
X049323Y011592D01*
X049323Y011751D02*
X049432Y011751D01*
X049328Y011909D02*
X049323Y011909D01*
X049934Y011751D02*
X050343Y011751D01*
X050343Y011592D02*
X050283Y011592D01*
X047443Y011592D02*
X045283Y011592D01*
X045342Y011568D02*
X045174Y011637D01*
X044992Y011637D01*
X044824Y011568D01*
X044696Y011439D01*
X044626Y011271D01*
X044626Y011089D01*
X044696Y010921D01*
X044824Y010792D01*
X044922Y010752D01*
X044947Y010727D01*
X045358Y010316D01*
X045358Y010205D01*
X045379Y010155D01*
X045259Y010155D01*
X045135Y010104D01*
X045140Y010136D01*
X045140Y010171D01*
X044592Y010171D01*
X044592Y009623D01*
X044627Y009623D01*
X044714Y009637D01*
X044797Y009664D01*
X044875Y009703D01*
X044946Y009755D01*
X044958Y009767D01*
X044958Y009744D01*
X044780Y009566D01*
X044743Y009478D01*
X044743Y003420D01*
X043948Y003420D01*
X043938Y003430D01*
X043983Y003475D01*
X043983Y003885D01*
X043938Y003930D01*
X043983Y003975D01*
X043983Y004385D01*
X043938Y004430D01*
X043983Y004475D01*
X043983Y004885D01*
X043938Y004930D01*
X043983Y004975D01*
X043983Y005385D01*
X043878Y005490D01*
X043473Y005490D01*
X043473Y006240D01*
X043559Y006205D01*
X043708Y006205D01*
X043846Y006262D01*
X043951Y006368D01*
X044008Y006505D01*
X044008Y006655D01*
X043951Y006792D01*
X043873Y006870D01*
X043873Y007910D01*
X043971Y007812D01*
X044109Y007755D01*
X044258Y007755D01*
X044396Y007812D01*
X044501Y007918D01*
X044558Y008055D01*
X044558Y008205D01*
X044501Y008342D01*
X044396Y008448D01*
X044323Y008478D01*
X044323Y009687D01*
X044369Y009664D01*
X044453Y009637D01*
X044539Y009623D01*
X044575Y009623D01*
X044575Y010171D01*
X044592Y010171D01*
X044592Y010189D01*
X044575Y010189D01*
X044575Y010737D01*
X044539Y010737D01*
X044453Y010723D01*
X044369Y010696D01*
X044323Y010673D01*
X044323Y010785D01*
X044342Y010792D01*
X044471Y010921D01*
X044540Y011089D01*
X044540Y011271D01*
X044471Y011439D01*
X044342Y011568D01*
X044174Y011637D01*
X043992Y011637D01*
X043870Y011587D01*
X043901Y011618D01*
X043958Y011755D01*
X043958Y011905D01*
X043901Y012042D01*
X043796Y012148D01*
X043694Y012190D01*
X047344Y012190D01*
X047308Y012105D01*
X047308Y011955D01*
X047365Y011818D01*
X047443Y011740D01*
X047443Y011379D01*
X045665Y009601D01*
X045708Y009705D01*
X045708Y009855D01*
X045687Y009905D01*
X045808Y009905D01*
X045946Y009962D01*
X046051Y010068D01*
X046108Y010205D01*
X046108Y010355D01*
X046051Y010492D01*
X045946Y010598D01*
X045808Y010655D01*
X045698Y010655D01*
X045451Y010901D01*
X045471Y010921D01*
X045540Y011089D01*
X045540Y011271D01*
X045471Y011439D01*
X045342Y011568D01*
X045473Y011434D02*
X047443Y011434D01*
X047339Y011275D02*
X045539Y011275D01*
X045540Y011117D02*
X047180Y011117D01*
X047022Y010958D02*
X045486Y010958D01*
X045553Y010800D02*
X046863Y010800D01*
X046705Y010641D02*
X045842Y010641D01*
X046055Y010483D02*
X046546Y010483D01*
X046388Y010324D02*
X046108Y010324D01*
X046092Y010166D02*
X046229Y010166D01*
X046071Y010007D02*
X045991Y010007D01*
X045912Y009849D02*
X045708Y009849D01*
X045702Y009690D02*
X045754Y009690D01*
X044904Y009690D02*
X044849Y009690D01*
X044766Y009532D02*
X044323Y009532D01*
X044323Y009373D02*
X044743Y009373D01*
X044743Y009215D02*
X044323Y009215D01*
X044323Y009056D02*
X044743Y009056D01*
X044743Y008898D02*
X044323Y008898D01*
X044323Y008739D02*
X044743Y008739D01*
X044743Y008581D02*
X044323Y008581D01*
X044422Y008422D02*
X044743Y008422D01*
X044743Y008264D02*
X044534Y008264D01*
X044558Y008105D02*
X044743Y008105D01*
X044743Y007947D02*
X044513Y007947D01*
X044338Y007788D02*
X044743Y007788D01*
X044743Y007630D02*
X043873Y007630D01*
X043873Y007788D02*
X044029Y007788D01*
X043873Y007471D02*
X044743Y007471D01*
X044743Y007313D02*
X043873Y007313D01*
X043873Y007154D02*
X044743Y007154D01*
X044743Y006996D02*
X043873Y006996D01*
X043907Y006837D02*
X044743Y006837D01*
X044743Y006679D02*
X043998Y006679D01*
X044008Y006520D02*
X044743Y006520D01*
X044743Y006362D02*
X043945Y006362D01*
X043473Y006203D02*
X044743Y006203D01*
X044743Y006045D02*
X043473Y006045D01*
X043473Y005886D02*
X044743Y005886D01*
X044743Y005728D02*
X043473Y005728D01*
X043473Y005569D02*
X044743Y005569D01*
X044743Y005411D02*
X043957Y005411D01*
X043983Y005252D02*
X044743Y005252D01*
X044743Y005094D02*
X043983Y005094D01*
X043943Y004935D02*
X044743Y004935D01*
X044743Y004777D02*
X043983Y004777D01*
X043983Y004618D02*
X044743Y004618D01*
X044743Y004460D02*
X043967Y004460D01*
X043983Y004301D02*
X044743Y004301D01*
X044743Y004143D02*
X043983Y004143D01*
X043983Y003984D02*
X044743Y003984D01*
X044743Y003826D02*
X043983Y003826D01*
X043983Y003667D02*
X044743Y003667D01*
X044743Y003509D02*
X043983Y003509D01*
X045473Y003509D02*
X046683Y003509D01*
X046683Y003667D02*
X045473Y003667D01*
X045473Y003826D02*
X046683Y003826D01*
X046683Y003984D02*
X045473Y003984D01*
X045473Y004143D02*
X046683Y004143D01*
X046683Y004301D02*
X045473Y004301D01*
X045473Y004460D02*
X046699Y004460D01*
X046683Y004618D02*
X045473Y004618D01*
X045473Y004777D02*
X046683Y004777D01*
X046608Y004935D02*
X045473Y004935D01*
X045473Y005094D02*
X046583Y005094D01*
X046583Y005252D02*
X045473Y005252D01*
X045473Y005411D02*
X046602Y005411D01*
X046757Y005569D02*
X045473Y005569D01*
X046461Y005728D02*
X046511Y005728D01*
X047668Y006180D02*
X048451Y006180D01*
X049583Y006180D01*
X049833Y006180D01*
X050833Y005180D01*
X052215Y005180D01*
X052730Y005252D02*
X053038Y005252D01*
X052879Y005094D02*
X052730Y005094D01*
X052833Y004680D02*
X053333Y005180D01*
X053903Y005180D01*
X053210Y005411D02*
X052792Y005411D01*
X051601Y005569D02*
X050812Y005569D01*
X050654Y005728D02*
X051601Y005728D01*
X051611Y005886D02*
X050495Y005886D01*
X050337Y006045D02*
X051701Y006045D01*
X051701Y006203D02*
X050178Y006203D01*
X050020Y006362D02*
X051701Y006362D01*
X051701Y006520D02*
X049823Y006520D01*
X049823Y006679D02*
X051701Y006679D01*
X051701Y006837D02*
X049823Y006837D01*
X049823Y006996D02*
X051701Y006996D01*
X051701Y007154D02*
X049823Y007154D01*
X049823Y007313D02*
X051701Y007313D01*
X051707Y007471D02*
X049823Y007471D01*
X049823Y007630D02*
X051701Y007630D01*
X051701Y007788D02*
X049823Y007788D01*
X049823Y007947D02*
X051765Y007947D01*
X052160Y008264D02*
X049823Y008264D01*
X049823Y008422D02*
X052002Y008422D01*
X051843Y008581D02*
X049823Y008581D01*
X049823Y008739D02*
X051743Y008739D01*
X051743Y008898D02*
X049823Y008898D01*
X049823Y009056D02*
X051743Y009056D01*
X051743Y009215D02*
X049823Y009215D01*
X049823Y009373D02*
X051743Y009373D01*
X052319Y008105D02*
X049823Y008105D01*
X047032Y007313D02*
X046673Y007313D01*
X046673Y007471D02*
X046961Y007471D01*
X046844Y007630D02*
X046673Y007630D01*
X046673Y007788D02*
X046843Y007788D01*
X046843Y007947D02*
X046673Y007947D01*
X046673Y008105D02*
X046843Y008105D01*
X046843Y008264D02*
X046697Y008264D01*
X046794Y008422D02*
X046802Y008422D01*
X046673Y007154D02*
X047008Y007154D01*
X047054Y006996D02*
X046673Y006996D01*
X046673Y006837D02*
X047231Y006837D01*
X047047Y006679D02*
X046951Y006679D01*
X046951Y006520D02*
X047047Y006520D01*
X047047Y006362D02*
X046951Y006362D01*
X047447Y006679D02*
X047937Y006679D01*
X047937Y006837D02*
X047535Y006837D01*
X048963Y005886D02*
X049760Y005886D01*
X049918Y005728D02*
X048966Y005728D01*
X048966Y005569D02*
X050077Y005569D01*
X050235Y005411D02*
X048938Y005411D01*
X048966Y005252D02*
X050394Y005252D01*
X050552Y005094D02*
X048966Y005094D01*
X048924Y004935D02*
X050745Y004935D01*
X051701Y004777D02*
X048966Y004777D01*
X048966Y004618D02*
X051701Y004618D01*
X051719Y004460D02*
X048948Y004460D01*
X048966Y004301D02*
X051701Y004301D01*
X051701Y004143D02*
X048966Y004143D01*
X048966Y003984D02*
X051701Y003984D01*
X051701Y003826D02*
X048966Y003826D01*
X048966Y003667D02*
X051701Y003667D01*
X051701Y003509D02*
X048966Y003509D01*
X048966Y003350D02*
X051701Y003350D01*
X051701Y003192D02*
X048966Y003192D01*
X048966Y003033D02*
X051701Y003033D01*
X051701Y002875D02*
X048966Y002875D01*
X048966Y002716D02*
X051701Y002716D01*
X051701Y002558D02*
X048966Y002558D01*
X048950Y002399D02*
X051717Y002399D01*
X051701Y002241D02*
X048966Y002241D01*
X048966Y002082D02*
X051701Y002082D01*
X051742Y001924D02*
X048925Y001924D01*
X048966Y001765D02*
X051701Y001765D01*
X051701Y001607D02*
X048966Y001607D01*
X048937Y001448D02*
X051730Y001448D01*
X051701Y001290D02*
X048966Y001290D01*
X048966Y001131D02*
X051701Y001131D01*
X051706Y000973D02*
X048961Y000973D01*
X048451Y001180D02*
X047263Y001180D01*
X046683Y001131D02*
X045473Y001131D01*
X045473Y001290D02*
X046683Y001290D01*
X046711Y001448D02*
X045473Y001448D01*
X045473Y001607D02*
X046683Y001607D01*
X046683Y001765D02*
X045473Y001765D01*
X045473Y001924D02*
X046722Y001924D01*
X046683Y002082D02*
X045473Y002082D01*
X045473Y002241D02*
X046683Y002241D01*
X046698Y002399D02*
X045473Y002399D01*
X045473Y002558D02*
X046683Y002558D01*
X046683Y002716D02*
X045473Y002716D01*
X045473Y002875D02*
X046683Y002875D01*
X046683Y003033D02*
X045473Y003033D01*
X045473Y003192D02*
X046683Y003192D01*
X046683Y003350D02*
X045473Y003350D01*
X047263Y003180D02*
X048451Y003180D01*
X048451Y002680D02*
X047263Y002680D01*
X047263Y002180D02*
X048451Y002180D01*
X048451Y001680D02*
X047263Y001680D01*
X046686Y000973D02*
X045360Y000973D01*
X042826Y000973D02*
X042006Y000973D01*
X042098Y001131D02*
X042823Y001131D01*
X042823Y001290D02*
X042108Y001290D01*
X041368Y001131D02*
X037548Y001131D01*
X037558Y001290D02*
X037825Y001290D01*
X037653Y001448D02*
X037496Y001448D01*
X037608Y001607D02*
X037323Y001607D01*
X037323Y001765D02*
X037593Y001765D01*
X037593Y001924D02*
X037323Y001924D01*
X037323Y002082D02*
X037593Y002082D01*
X037593Y002241D02*
X037323Y002241D01*
X037323Y002399D02*
X037593Y002399D01*
X037593Y002558D02*
X037323Y002558D01*
X037323Y002716D02*
X037593Y002716D01*
X037593Y002875D02*
X037323Y002875D01*
X037323Y003033D02*
X037593Y003033D01*
X037593Y003192D02*
X037323Y003192D01*
X037323Y003350D02*
X037593Y003350D01*
X037593Y003509D02*
X037323Y003509D01*
X037323Y003667D02*
X037593Y003667D01*
X037593Y003826D02*
X037323Y003826D01*
X037323Y003984D02*
X037593Y003984D01*
X037593Y004143D02*
X037323Y004143D01*
X037323Y004301D02*
X037593Y004301D01*
X037593Y004460D02*
X037323Y004460D01*
X037323Y004618D02*
X037593Y004618D01*
X037593Y004777D02*
X037323Y004777D01*
X037323Y004935D02*
X037593Y004935D01*
X037593Y005094D02*
X037323Y005094D01*
X037323Y005252D02*
X037593Y005252D01*
X037593Y005411D02*
X037323Y005411D01*
X037323Y005569D02*
X037593Y005569D01*
X037593Y005728D02*
X037323Y005728D01*
X037323Y005886D02*
X037593Y005886D01*
X037593Y006045D02*
X037323Y006045D01*
X037323Y006203D02*
X037593Y006203D01*
X037593Y006362D02*
X037323Y006362D01*
X037323Y006520D02*
X037593Y006520D01*
X037593Y006679D02*
X037323Y006679D01*
X037323Y006837D02*
X037593Y006837D01*
X037593Y006996D02*
X037323Y006996D01*
X037323Y007154D02*
X037593Y007154D01*
X037593Y007313D02*
X037323Y007313D01*
X037323Y007471D02*
X037593Y007471D01*
X037593Y007630D02*
X037323Y007630D01*
X037323Y007788D02*
X037593Y007788D01*
X037593Y007947D02*
X037323Y007947D01*
X037323Y008105D02*
X037593Y008105D01*
X037593Y008264D02*
X037323Y008264D01*
X037323Y008422D02*
X037593Y008422D01*
X037593Y008581D02*
X037323Y008581D01*
X037323Y008739D02*
X037593Y008739D01*
X037593Y008898D02*
X037323Y008898D01*
X037323Y009056D02*
X037593Y009056D01*
X037593Y009215D02*
X037323Y009215D01*
X037323Y009373D02*
X037593Y009373D01*
X037593Y009532D02*
X037323Y009532D01*
X037575Y009690D02*
X037592Y009690D01*
X037575Y009849D02*
X037592Y009849D01*
X037575Y010007D02*
X037592Y010007D01*
X037575Y010166D02*
X037592Y010166D01*
X037592Y010189D02*
X037575Y010189D01*
X037575Y010737D01*
X037539Y010737D01*
X037453Y010723D01*
X037369Y010696D01*
X037323Y010673D01*
X037323Y010785D01*
X037342Y010792D01*
X037471Y010921D01*
X037540Y011089D01*
X037540Y011271D01*
X037491Y011390D01*
X037675Y011390D01*
X037626Y011271D01*
X037626Y011089D01*
X037696Y010921D01*
X037824Y010792D01*
X037843Y010785D01*
X037843Y010673D01*
X037797Y010696D01*
X037714Y010723D01*
X037627Y010737D01*
X037592Y010737D01*
X037592Y010189D01*
X037592Y010324D02*
X037575Y010324D01*
X037575Y010483D02*
X037592Y010483D01*
X037575Y010641D02*
X037592Y010641D01*
X037817Y010800D02*
X037349Y010800D01*
X037486Y010958D02*
X037680Y010958D01*
X037626Y011117D02*
X037540Y011117D01*
X037539Y011275D02*
X037628Y011275D01*
X043876Y011592D02*
X043883Y011592D01*
X043956Y011751D02*
X047432Y011751D01*
X047328Y011909D02*
X043956Y011909D01*
X043876Y012068D02*
X047308Y012068D01*
X044883Y011592D02*
X044283Y011592D01*
X044473Y011434D02*
X044694Y011434D01*
X044628Y011275D02*
X044539Y011275D01*
X044540Y011117D02*
X044626Y011117D01*
X044680Y010958D02*
X044486Y010958D01*
X044349Y010800D02*
X044817Y010800D01*
X044797Y010696D02*
X044714Y010723D01*
X044627Y010737D01*
X044592Y010737D01*
X044592Y010189D01*
X045140Y010189D01*
X045140Y010224D01*
X045127Y010310D01*
X045100Y010394D01*
X045060Y010472D01*
X045008Y010543D01*
X044946Y010605D01*
X044875Y010657D01*
X044797Y010696D01*
X044897Y010641D02*
X045033Y010641D01*
X045052Y010483D02*
X045191Y010483D01*
X045122Y010324D02*
X045350Y010324D01*
X045375Y010166D02*
X045140Y010166D01*
X044592Y010166D02*
X044575Y010166D01*
X044575Y010324D02*
X044592Y010324D01*
X044575Y010483D02*
X044592Y010483D01*
X044575Y010641D02*
X044592Y010641D01*
X044575Y010007D02*
X044592Y010007D01*
X044575Y009849D02*
X044592Y009849D01*
X044575Y009690D02*
X044592Y009690D01*
X041086Y007788D02*
X041080Y007788D01*
X041093Y007630D02*
X040973Y007630D01*
X040973Y007471D02*
X041093Y007471D01*
X041093Y007313D02*
X040973Y007313D01*
X040973Y007154D02*
X041093Y007154D01*
X041093Y006996D02*
X040973Y006996D01*
X040973Y006837D02*
X041093Y006837D01*
X041093Y006679D02*
X040973Y006679D01*
X040973Y006520D02*
X041093Y006520D01*
X041093Y006362D02*
X040973Y006362D01*
X040973Y006203D02*
X041093Y006203D01*
X041093Y006045D02*
X040973Y006045D01*
X040973Y005886D02*
X041093Y005886D01*
X041093Y005728D02*
X040973Y005728D01*
X040973Y005569D02*
X041093Y005569D01*
X041093Y005411D02*
X040973Y005411D01*
X040973Y005252D02*
X041093Y005252D01*
X041093Y005094D02*
X040973Y005094D01*
X040973Y004935D02*
X041093Y004935D01*
X041093Y004777D02*
X040973Y004777D01*
X040973Y004618D02*
X041093Y004618D01*
X041093Y004460D02*
X040973Y004460D01*
X040973Y004301D02*
X041093Y004301D01*
X041093Y004143D02*
X040973Y004143D01*
X040973Y003984D02*
X041093Y003984D01*
X041093Y003826D02*
X040973Y003826D01*
X040973Y003667D02*
X041093Y003667D01*
X041093Y003509D02*
X040973Y003509D01*
X040973Y003350D02*
X041093Y003350D01*
X041093Y003192D02*
X040884Y003192D01*
X040726Y003033D02*
X041093Y003033D01*
X041093Y002875D02*
X040567Y002875D01*
X040508Y002716D02*
X041093Y002716D01*
X041093Y002558D02*
X040441Y002558D01*
X040615Y002241D02*
X038833Y002241D01*
X038992Y002399D02*
X040844Y002399D01*
X041022Y002399D02*
X041093Y002399D01*
X040558Y002082D02*
X038675Y002082D01*
X038645Y001924D02*
X040572Y001924D01*
X040668Y001765D02*
X038549Y001765D01*
X038358Y001607D02*
X041017Y001607D01*
X041176Y001448D02*
X038314Y001448D01*
X038141Y001290D02*
X041334Y001290D01*
X041461Y000973D02*
X037456Y000973D01*
X036911Y000973D02*
X036856Y000973D01*
X039150Y002558D02*
X039825Y002558D01*
X039758Y002716D02*
X039309Y002716D01*
X039467Y002875D02*
X039767Y002875D01*
X039856Y003033D02*
X039626Y003033D01*
X039784Y003192D02*
X040205Y003192D01*
X040364Y003350D02*
X039943Y003350D01*
X040101Y003509D02*
X040493Y003509D01*
X040493Y003667D02*
X040260Y003667D01*
X040418Y003826D02*
X040493Y003826D01*
X047263Y003680D02*
X048451Y003680D01*
X048451Y004180D02*
X047263Y004180D01*
X047263Y004680D02*
X048451Y004680D01*
X047965Y005411D02*
X047925Y005411D01*
X047937Y005569D02*
X047770Y005569D01*
X052215Y004680D02*
X052833Y004680D01*
X052833Y004180D02*
X053333Y004680D01*
X053903Y004680D01*
X053903Y004180D02*
X053333Y004180D01*
X052833Y003680D01*
X052215Y003680D01*
X052833Y003180D02*
X053333Y003680D01*
X053903Y003680D01*
X052833Y004180D02*
X052215Y004180D01*
X052215Y003180D02*
X052833Y003180D01*
X052833Y002680D02*
X053333Y003180D01*
X053903Y003180D01*
X053903Y002680D02*
X053333Y002680D01*
X052833Y002180D01*
X052215Y002180D01*
X052833Y001680D02*
X053333Y002180D01*
X053903Y002180D01*
X052833Y002680D02*
X052215Y002680D01*
X052215Y001680D02*
X052833Y001680D01*
X052833Y001180D02*
X052215Y001180D01*
X053903Y001180D02*
X053903Y001180D01*
X053903Y000770D01*
X054331Y000770D01*
X054385Y000781D01*
X054436Y000802D01*
X054482Y000833D01*
X054521Y000872D01*
X054551Y000917D01*
X054573Y000968D01*
X054583Y001022D01*
X054583Y001180D01*
X053903Y001180D01*
X053903Y001180D01*
X053903Y001131D02*
X053903Y001131D01*
X053903Y000973D02*
X053903Y000973D01*
X053903Y000814D02*
X053903Y000814D01*
X054454Y000814D02*
X075132Y000814D01*
X075132Y000656D02*
X005613Y000656D01*
X005613Y000497D02*
X075132Y000497D01*
X075132Y000973D02*
X058340Y000973D01*
X058343Y001131D02*
X075132Y001131D01*
X075132Y001290D02*
X058343Y001290D01*
X058316Y001448D02*
X075132Y001448D01*
X075132Y001607D02*
X058343Y001607D01*
X058343Y001765D02*
X075132Y001765D01*
X075132Y001924D02*
X058957Y001924D01*
X059049Y002082D02*
X075132Y002082D01*
X075132Y002241D02*
X059058Y002241D01*
X058995Y002399D02*
X075132Y002399D01*
X075132Y002875D02*
X070954Y002875D01*
X070954Y003033D02*
X075132Y003033D01*
X070098Y003984D02*
X067350Y003984D01*
X067350Y003826D02*
X069939Y003826D01*
X069781Y003667D02*
X067350Y003667D01*
X067350Y003509D02*
X068228Y003509D01*
X068228Y003350D02*
X067350Y003350D01*
X067350Y003192D02*
X068228Y003192D01*
X068228Y003033D02*
X067338Y003033D01*
X068723Y003282D02*
X068825Y003180D01*
X069749Y003180D01*
X069313Y003509D02*
X069218Y003509D01*
X065929Y004460D02*
X065769Y004460D01*
X065769Y004618D02*
X065929Y004618D01*
X065929Y004777D02*
X065769Y004777D01*
X065769Y004935D02*
X065929Y004935D01*
X065929Y005094D02*
X065769Y005094D01*
X065769Y005252D02*
X065929Y005252D01*
X065929Y005411D02*
X065769Y005411D01*
X064404Y005411D02*
X059323Y005411D01*
X059323Y005569D02*
X069332Y005569D01*
X068290Y005411D02*
X067294Y005411D01*
X067350Y005252D02*
X068228Y005252D01*
X068228Y005094D02*
X067350Y005094D01*
X067350Y004935D02*
X068228Y004935D01*
X068258Y004777D02*
X067350Y004777D01*
X067350Y004618D02*
X070074Y004618D01*
X069346Y004777D02*
X069188Y004777D01*
X068825Y005180D02*
X068723Y005078D01*
X068825Y005180D02*
X069749Y005180D01*
X070954Y005252D02*
X071133Y005252D01*
X071133Y005094D02*
X070954Y005094D01*
X070954Y004935D02*
X071049Y004935D01*
X071113Y005411D02*
X070954Y005411D01*
X070938Y005569D02*
X070955Y005569D01*
X071000Y006203D02*
X071033Y006203D01*
X071065Y006362D02*
X070841Y006362D01*
X070683Y006520D02*
X071153Y006520D01*
X071362Y006679D02*
X070524Y006679D01*
X070366Y006837D02*
X071294Y006837D01*
X071173Y006996D02*
X070207Y006996D01*
X070049Y007154D02*
X071133Y007154D01*
X071152Y007313D02*
X069890Y007313D01*
X069732Y007471D02*
X071242Y007471D01*
X071833Y006679D02*
X071833Y006679D01*
X071833Y006520D02*
X071833Y006520D01*
X071833Y006362D02*
X071833Y006362D01*
X071833Y006203D02*
X071833Y006203D01*
X071833Y006180D02*
X071833Y006180D01*
X071833Y006045D02*
X071833Y006045D01*
X071833Y005886D02*
X071833Y005886D01*
X071833Y005728D02*
X071833Y005728D01*
X070479Y006045D02*
X069989Y006045D01*
X069989Y006203D02*
X070321Y006203D01*
X070162Y006362D02*
X069989Y006362D01*
X069989Y006520D02*
X070004Y006520D01*
X067583Y005569D02*
X064333Y005569D01*
X064333Y005411D02*
X067583Y005411D01*
X072473Y007947D02*
X075132Y007947D01*
X075132Y008105D02*
X072533Y008105D01*
X072533Y008264D02*
X075132Y008264D01*
X075132Y008422D02*
X072469Y008422D01*
X072384Y009849D02*
X075132Y009849D01*
X075132Y010007D02*
X072498Y010007D01*
X072533Y010166D02*
X075132Y010166D01*
X075132Y010324D02*
X072510Y010324D01*
X054081Y006837D02*
X054073Y006837D01*
X058304Y001924D02*
X058409Y001924D01*
X056693Y001131D02*
X054583Y001131D01*
X054583Y001290D02*
X056534Y001290D01*
X056376Y001448D02*
X054548Y001448D01*
X054573Y000973D02*
X057186Y000973D01*
X033493Y007630D02*
X033323Y007630D01*
X033323Y007788D02*
X033493Y007788D01*
X032843Y004935D02*
X032359Y004935D01*
X022928Y008105D02*
X022823Y008105D01*
X022823Y007947D02*
X022826Y007947D01*
X018881Y007947D02*
X018785Y007947D01*
X018785Y008090D02*
X018510Y008090D01*
X018456Y008079D01*
X018405Y008058D01*
X018360Y008027D01*
X018333Y008001D01*
X018307Y008027D01*
X018261Y008058D01*
X018210Y008079D01*
X018156Y008090D01*
X017881Y008090D01*
X017881Y007602D01*
X018409Y007602D01*
X018785Y007602D01*
X018785Y008090D01*
X018785Y007788D02*
X018881Y007788D01*
X018881Y007630D02*
X018785Y007630D01*
X017881Y007630D02*
X017785Y007630D01*
X017785Y007788D02*
X017881Y007788D01*
X017881Y007947D02*
X017785Y007947D01*
X016135Y009849D02*
X015898Y009849D01*
X016007Y010007D02*
X016054Y010007D01*
X016044Y010324D02*
X016019Y010324D01*
X015927Y010483D02*
X016114Y010483D01*
X013694Y011434D02*
X007798Y011434D01*
X006566Y011751D02*
X005613Y011751D01*
X005613Y011909D02*
X006376Y011909D01*
X006310Y012068D02*
X005613Y012068D01*
X005613Y012226D02*
X006303Y012226D01*
X006349Y012385D02*
X005613Y012385D01*
X005613Y012543D02*
X006468Y012543D01*
X007863Y012226D02*
X020363Y012226D01*
X021323Y011592D02*
X021883Y011592D01*
X021824Y011568D02*
X021696Y011439D01*
X021626Y011271D01*
X021626Y011089D01*
X021696Y010921D01*
X021824Y010792D01*
X021992Y010723D01*
X022174Y010723D01*
X022342Y010792D01*
X022471Y010921D01*
X022540Y011089D01*
X022540Y011271D01*
X022471Y011439D01*
X022342Y011568D01*
X022174Y011637D01*
X021992Y011637D01*
X021824Y011568D01*
X021694Y011434D02*
X021473Y011434D01*
X021539Y011275D02*
X021628Y011275D01*
X021626Y011117D02*
X021540Y011117D01*
X021486Y010958D02*
X021680Y010958D01*
X021817Y010800D02*
X021349Y010800D01*
X022349Y010800D02*
X022817Y010800D01*
X022680Y010958D02*
X022486Y010958D01*
X022540Y011117D02*
X022626Y011117D01*
X022628Y011275D02*
X022539Y011275D01*
X022473Y011434D02*
X022694Y011434D01*
X022843Y011592D02*
X022283Y011592D01*
X023539Y011275D02*
X023628Y011275D01*
X023626Y011117D02*
X023540Y011117D01*
X023486Y010958D02*
X023680Y010958D01*
X023114Y010483D02*
X022927Y010483D01*
X023019Y010324D02*
X023044Y010324D01*
X022239Y010483D02*
X021927Y010483D01*
X022019Y010324D02*
X022148Y010324D01*
X022126Y010166D02*
X022040Y010166D01*
X022007Y010007D02*
X022160Y010007D01*
X022268Y009849D02*
X021898Y009849D01*
X016638Y005886D02*
X009629Y005886D01*
X009470Y005728D02*
X016796Y005728D01*
X016955Y005569D02*
X009312Y005569D01*
X009153Y005411D02*
X017113Y005411D01*
X017272Y005252D02*
X011825Y005252D01*
X012089Y005094D02*
X017430Y005094D01*
X017589Y004935D02*
X012247Y004935D01*
X012373Y004777D02*
X017747Y004777D01*
X017774Y004618D02*
X012464Y004618D01*
X012530Y004460D02*
X017873Y004460D01*
X010653Y005252D02*
X008995Y005252D01*
X008836Y005094D02*
X010389Y005094D01*
X010230Y004935D02*
X007801Y004935D01*
X007659Y004777D02*
X010105Y004777D01*
X006419Y005728D02*
X005613Y005728D01*
X005613Y005886D02*
X006282Y005886D01*
X006218Y006045D02*
X005613Y006045D01*
X005613Y006203D02*
X006203Y006203D01*
X006232Y006362D02*
X005613Y006362D01*
X005613Y006520D02*
X006313Y006520D01*
X006484Y006679D02*
X005613Y006679D01*
X005613Y006837D02*
X006448Y006837D01*
X006340Y006996D02*
X005613Y006996D01*
X005613Y007154D02*
X006303Y007154D01*
X006319Y007313D02*
X005613Y007313D01*
X005613Y007471D02*
X006396Y007471D01*
X006614Y007630D02*
X005613Y007630D01*
X005613Y007788D02*
X006496Y007788D01*
X006360Y007947D02*
X005613Y007947D01*
X005613Y008105D02*
X006303Y008105D01*
X006303Y008264D02*
X005613Y008264D01*
X005613Y008422D02*
X006364Y008422D01*
X006505Y008581D02*
X005613Y008581D01*
X005613Y008739D02*
X006594Y008739D01*
X006387Y008898D02*
X005613Y008898D01*
X005613Y009056D02*
X006315Y009056D01*
X006303Y009215D02*
X005613Y009215D01*
X005613Y009373D02*
X006344Y009373D01*
X006485Y010800D02*
X005613Y010800D01*
X005613Y010958D02*
X006356Y010958D01*
X006303Y011085D02*
X006303Y011275D01*
X006369Y011434D02*
X005613Y011434D01*
X005613Y011592D02*
X006524Y011592D01*
D21*
X064208Y005430D03*
X064208Y004930D03*
X064208Y004430D03*
X064208Y003930D03*
X064208Y003430D03*
X064208Y002930D03*
X064333Y002430D03*
X064833Y002430D03*
X065333Y002430D03*
X065833Y002430D03*
X066333Y002430D03*
X066833Y002430D03*
X067333Y002430D03*
X067833Y002430D03*
X067833Y005930D03*
X067333Y005930D03*
X066833Y005930D03*
X066333Y005930D03*
X065833Y005930D03*
X065333Y005930D03*
X064833Y005930D03*
X064333Y005930D03*
D22*
X064208Y005920D01*
X064513Y005740D01*
X064513Y005720D01*
X064583Y005680D01*
X064833Y005680D02*
X064833Y005930D01*
X064873Y005980D01*
X065333Y005930D02*
X065333Y005680D01*
X065833Y005680D02*
X065833Y005930D01*
X066333Y005930D02*
X066333Y005680D01*
X066833Y005680D02*
X066833Y005930D01*
X067333Y005930D02*
X067333Y005680D01*
X067583Y005680D02*
X067653Y005720D01*
X067653Y005740D01*
X067833Y005920D01*
X067833Y005930D01*
X064583Y005420D02*
X064208Y005420D01*
X064208Y005430D01*
X064208Y004930D02*
X064208Y004920D01*
X064583Y004920D01*
X064583Y004420D02*
X064208Y004420D01*
X064208Y004430D01*
X064208Y003930D02*
X064208Y003920D01*
X064583Y003920D01*
X064208Y003430D02*
X064208Y003420D01*
X064583Y003420D01*
X064583Y002920D02*
X064208Y002920D01*
X064208Y002930D01*
X064513Y002640D02*
X064583Y002680D01*
X064513Y002640D02*
X064513Y002620D01*
X064208Y002440D01*
X064333Y002430D01*
X064833Y002430D02*
X064833Y002680D01*
X066333Y002680D02*
X066333Y002430D01*
X066833Y002430D02*
X066833Y002680D01*
X067333Y002680D02*
X067333Y002430D01*
X067583Y002680D02*
X067653Y002640D01*
X067653Y002620D01*
X067833Y002440D01*
X067833Y002430D01*
D23*
X069749Y003180D02*
X069783Y003280D01*
X069983Y003480D01*
X069983Y003530D01*
X071633Y005180D01*
X071833Y005180D01*
X071633Y005230D01*
X066533Y010330D01*
X066533Y011380D01*
X066283Y011630D01*
X062583Y011630D01*
X062583Y010180D01*
X063083Y010030D02*
X063083Y011180D01*
X063583Y010630D02*
X063583Y010180D01*
X063083Y010030D02*
X061483Y008430D01*
X059083Y008480D02*
X059083Y011180D01*
X058883Y011630D02*
X058633Y011380D01*
X058633Y010230D01*
X058583Y010180D01*
X058083Y010030D02*
X058083Y011180D01*
X057583Y011630D02*
X057583Y010180D01*
X057883Y009830D02*
X058083Y010030D01*
X057883Y009830D02*
X057883Y006730D01*
X059083Y007430D02*
X058283Y008230D01*
X058833Y008230D02*
X059083Y008480D01*
X057083Y009030D02*
X056083Y010030D01*
X056083Y011180D01*
X055883Y011630D02*
X055133Y010880D01*
X055133Y008080D01*
X054233Y007180D01*
X053583Y007180D02*
X053583Y010680D01*
X050333Y013930D01*
X050333Y014430D01*
X051483Y012430D02*
X053183Y010730D01*
X053183Y009380D01*
X052383Y009380D02*
X052283Y009480D01*
X052283Y010980D01*
X052083Y011180D01*
X052033Y010380D02*
X051233Y011180D01*
X051083Y011180D01*
X049083Y011180D02*
X049083Y012030D01*
X048233Y012030D01*
X047983Y011780D01*
X047983Y011480D01*
X048033Y011430D01*
X048033Y008630D01*
X048133Y008530D01*
X047083Y008480D02*
X046583Y008980D01*
X045783Y008980D01*
X045783Y006130D01*
X045633Y005980D01*
X046183Y005980D02*
X046433Y006230D01*
X046433Y008530D01*
X047083Y008480D02*
X047083Y007680D01*
X048451Y007680D01*
X048451Y007180D02*
X047383Y007180D01*
X046983Y007230D02*
X046983Y006230D01*
X046999Y006180D01*
X045383Y006430D02*
X045233Y006280D01*
X045233Y001180D01*
X043403Y001180D01*
X043403Y001680D02*
X041983Y001680D01*
X041733Y001230D02*
X040933Y002030D01*
X041333Y002180D02*
X041333Y007880D01*
X040233Y008980D01*
X041583Y008230D02*
X041583Y010180D01*
X043033Y010280D02*
X043033Y007980D01*
X042733Y007680D01*
X042733Y007580D01*
X042233Y007630D02*
X042083Y007480D01*
X042083Y003680D01*
X043403Y003680D01*
X043403Y004180D02*
X042483Y004180D01*
X042483Y004330D01*
X042683Y004680D02*
X042683Y005230D01*
X042483Y005430D01*
X043233Y005330D02*
X043233Y007630D01*
X044583Y007730D02*
X044583Y010180D01*
X043633Y010130D02*
X043583Y010180D01*
X043633Y010130D02*
X043633Y006580D01*
X046833Y007380D02*
X046983Y007230D01*
X048451Y006680D02*
X049033Y006680D01*
X049033Y010580D01*
X048383Y011230D01*
X048383Y011630D01*
X047683Y011280D02*
X047683Y012030D01*
X049683Y012030D02*
X050583Y012030D01*
X050583Y010180D01*
X049583Y010180D02*
X049583Y006180D01*
X051583Y005680D02*
X051583Y010180D01*
X051983Y009930D02*
X052033Y009980D01*
X052033Y010380D01*
X051983Y009930D02*
X051983Y008780D01*
X053183Y007580D01*
X053583Y007180D02*
X052215Y007180D01*
X052215Y006680D02*
X053833Y006680D01*
X053833Y010680D01*
X057333Y014180D01*
X057333Y014680D01*
X051483Y012430D02*
X042683Y012430D01*
X041633Y011380D01*
X041633Y011230D01*
X038233Y007830D01*
X039083Y008080D02*
X039083Y005480D01*
X039933Y004630D01*
X040333Y004080D02*
X040333Y006430D01*
X043233Y005330D02*
X043383Y005180D01*
X043403Y005180D01*
X043403Y004680D02*
X042683Y004680D01*
X040333Y004080D02*
X038283Y002030D01*
X037983Y001630D02*
X037833Y001780D01*
X037833Y009780D01*
X038083Y010030D01*
X038083Y011180D01*
X037083Y011180D02*
X037083Y001330D01*
X037183Y001230D01*
X036583Y001230D02*
X036583Y010180D01*
X037583Y010180D02*
X037583Y000680D01*
X033483Y000680D02*
X033483Y008930D01*
X033633Y009080D01*
X033633Y009780D01*
X033233Y010180D01*
X032833Y010680D02*
X036083Y013930D01*
X036083Y015180D01*
X032583Y010680D02*
X029333Y013680D01*
X029333Y014930D01*
X029483Y012030D02*
X024583Y012030D01*
X024483Y012130D01*
X020583Y012130D01*
X020583Y010180D01*
X021583Y010180D02*
X021583Y005930D01*
X018833Y003180D01*
X018533Y003480D02*
X018383Y003330D01*
X018383Y000680D01*
X023583Y000680D02*
X023583Y010180D01*
X024783Y010380D02*
X024783Y011480D01*
X024383Y011880D01*
X021083Y011880D01*
X021083Y011180D01*
X023083Y011180D02*
X023083Y011630D01*
X024283Y011630D01*
X024533Y011380D01*
X024533Y008330D01*
X025183Y007980D02*
X026133Y008930D01*
X028133Y008930D01*
X028133Y010380D01*
X028383Y010630D01*
X029583Y010630D01*
X029583Y010180D01*
X030583Y010180D02*
X030583Y005680D01*
X031215Y005680D01*
X031215Y005180D02*
X029833Y005180D01*
X028833Y006180D01*
X028583Y006180D01*
X028583Y010180D01*
X027933Y011180D02*
X027133Y010380D01*
X027133Y009380D01*
X027183Y009330D01*
X025433Y009730D02*
X024783Y010380D01*
X022583Y010180D02*
X022583Y003880D01*
X023183Y003280D01*
X024933Y003030D02*
X024933Y008680D01*
X027883Y011630D01*
X031083Y011630D01*
X031083Y011180D01*
X032583Y010680D02*
X032583Y007180D01*
X031215Y007180D01*
X031215Y006680D02*
X032833Y006680D01*
X032833Y010680D01*
X033883Y011080D02*
X033883Y008980D01*
X033733Y008830D01*
X033733Y003030D01*
X036183Y003030D01*
X035933Y003830D02*
X035333Y003830D01*
X035033Y004130D01*
X035533Y004630D02*
X035233Y004930D01*
X035233Y009880D01*
X035083Y010030D01*
X035083Y011180D01*
X034633Y011380D02*
X034283Y011380D01*
X034633Y011380D02*
X034883Y011630D01*
X040133Y011630D01*
X040133Y010280D01*
X043033Y010280D02*
X043533Y010780D01*
X043533Y011780D01*
X043583Y011830D01*
X044083Y011180D02*
X044083Y008230D01*
X044183Y008130D01*
X042083Y008180D02*
X041833Y007930D01*
X041833Y002880D01*
X042083Y002630D01*
X042483Y002680D02*
X042483Y003030D01*
X043403Y003180D02*
X044983Y003180D01*
X044983Y009430D01*
X045333Y009780D01*
X045733Y010280D02*
X045083Y010930D01*
X045083Y011180D01*
X045383Y008980D02*
X047683Y011280D01*
X042083Y011180D02*
X042083Y008180D01*
X040733Y007930D02*
X040733Y003380D01*
X040133Y002780D01*
X041333Y002180D02*
X043403Y002180D01*
X043403Y002680D02*
X042483Y002680D01*
X046683Y000680D02*
X046683Y004880D01*
X047083Y005280D01*
X047263Y005180D01*
X051583Y005680D02*
X052215Y005680D01*
X052233Y005630D01*
X054483Y005630D01*
X054483Y000680D01*
X053933Y000680D02*
X053933Y001180D01*
X053903Y001180D01*
X055383Y002780D02*
X056933Y001230D01*
X057733Y001230D01*
X057763Y001180D01*
X057763Y001680D02*
X056833Y001680D01*
X056833Y003730D01*
X055783Y004780D01*
X055783Y007080D01*
X056183Y006130D02*
X056183Y004730D01*
X057083Y003830D01*
X057083Y002680D01*
X057763Y002680D01*
X057763Y002180D02*
X058683Y002180D01*
X059083Y003180D02*
X057763Y003180D01*
X059083Y003180D02*
X059083Y007430D01*
X058283Y005830D02*
X058283Y005680D01*
X057783Y005180D01*
X057763Y005180D01*
X057763Y004680D02*
X058683Y004680D01*
X058683Y004130D02*
X058683Y003680D01*
X057763Y003680D01*
X057763Y004180D02*
X057083Y004180D01*
X057083Y009030D01*
X055583Y010180D02*
X055383Y009980D01*
X055383Y002780D01*
X059533Y000680D02*
X059533Y011630D01*
X058883Y011630D01*
X057583Y011630D02*
X055883Y011630D01*
X063583Y010630D02*
X065833Y010630D01*
X069749Y006715D01*
X069749Y005180D01*
X068783Y005230D02*
X068723Y005078D01*
X069783Y003230D02*
X069749Y003180D01*
X070418Y003180D02*
X070433Y003180D01*
X065333Y002680D02*
X065333Y002430D01*
X064583Y007530D02*
X064583Y010180D01*
X035933Y007630D02*
X035933Y003830D01*
X032683Y004530D02*
X032683Y002180D01*
X031215Y002180D01*
X031215Y002680D02*
X032283Y002680D01*
X032283Y003180D02*
X031215Y003180D01*
X031215Y003680D02*
X032283Y003680D01*
X032283Y004180D02*
X031215Y004180D01*
X031215Y004680D02*
X032083Y004680D01*
X027451Y004680D02*
X026233Y004680D01*
X026183Y004180D02*
X027451Y004180D01*
X027451Y003680D02*
X026133Y003680D01*
X024533Y004280D02*
X024083Y004730D01*
X024083Y011180D01*
X027933Y011180D02*
X028083Y011180D01*
X034633Y011380D02*
X034633Y010230D01*
X034583Y010180D01*
X033233Y009380D02*
X033083Y009230D01*
X033083Y001180D01*
X031215Y001180D01*
X031215Y001680D02*
X032683Y001680D01*
X032683Y001780D01*
X027451Y001680D02*
X026583Y001680D01*
X026583Y001730D01*
X026133Y002180D02*
X027451Y002180D01*
X027451Y002680D02*
X026133Y002680D01*
X025483Y002430D02*
X025483Y005630D01*
X025183Y005930D01*
X025183Y007980D01*
X025583Y007830D02*
X026133Y007830D01*
X026283Y007680D01*
X027451Y007680D01*
X027333Y007680D01*
X027451Y007180D02*
X025983Y007180D01*
X025983Y007430D01*
X025583Y007030D02*
X025583Y006680D01*
X027451Y006680D01*
X027451Y006180D02*
X026418Y006180D01*
X028583Y006180D01*
X025749Y006180D02*
X025733Y006180D01*
X025733Y000680D01*
X026583Y001180D02*
X026583Y001230D01*
X026583Y001180D02*
X027451Y001180D01*
X025483Y002430D02*
X025333Y002280D01*
X025083Y002880D02*
X024933Y003030D01*
X026183Y003180D02*
X027451Y003180D01*
X027451Y005180D02*
X026283Y005180D01*
X023183Y006380D02*
X023183Y007830D01*
X021183Y006380D02*
X020333Y007230D01*
X020333Y009330D01*
X017783Y011880D01*
X016083Y011880D01*
X016083Y011180D01*
X016633Y011380D02*
X016883Y011630D01*
X017683Y011630D01*
X017683Y007680D01*
X017783Y007580D01*
X017833Y007554D01*
X018333Y007554D01*
X018333Y005630D01*
X018533Y005430D01*
X018533Y003480D01*
X018133Y004730D02*
X015583Y007280D01*
X015583Y010180D01*
X016583Y010180D02*
X016633Y010230D01*
X016633Y011380D01*
X017083Y011180D02*
X017083Y006330D01*
X018083Y005330D01*
X018333Y007554D02*
X018833Y007554D01*
X019833Y007554D01*
X013583Y010180D02*
X008583Y005180D01*
X007083Y005180D01*
X034133Y007680D02*
X034133Y007780D01*
X034133Y007680D02*
X034833Y006980D01*
D24*
X033483Y000680D02*
X025733Y000680D01*
X023583Y000680D01*
X018383Y000680D01*
X010333Y000680D01*
X005833Y003430D01*
X005833Y006180D01*
X007083Y006180D01*
X033483Y000680D02*
X037583Y000680D01*
X046683Y000680D01*
X053933Y000680D01*
X054483Y000680D01*
X059533Y000680D01*
X069833Y000680D01*
X073333Y004180D01*
X073333Y006180D01*
X071833Y006180D01*
D25*
X064583Y007530D03*
X061483Y008430D03*
X058833Y008230D03*
X058283Y008230D03*
X055783Y007080D03*
X054233Y007180D03*
X053183Y007580D03*
X057883Y006730D03*
X056183Y006130D03*
X058283Y005830D03*
X058683Y004680D03*
X058683Y004130D03*
X058683Y002180D03*
X046183Y005980D03*
X045633Y005980D03*
X045383Y006430D03*
X043633Y006580D03*
X046833Y007380D03*
X047383Y007180D03*
X044583Y007730D03*
X044183Y008130D03*
X043233Y007630D03*
X042733Y007580D03*
X042233Y007630D03*
X040733Y007930D03*
X041583Y008230D03*
X040233Y008980D03*
X039083Y008080D03*
X038233Y007830D03*
X035933Y007630D03*
X034133Y007780D03*
X034833Y006980D03*
X040333Y006430D03*
X042483Y005430D03*
X039933Y004630D03*
X042483Y004330D03*
X042483Y003030D03*
X042083Y002630D03*
X040133Y002780D03*
X040933Y002030D03*
X041983Y001680D03*
X041733Y001230D03*
X038283Y002030D03*
X037983Y001630D03*
X037183Y001230D03*
X036583Y001230D03*
X032683Y001780D03*
X032283Y002680D03*
X032283Y003180D03*
X032283Y003680D03*
X032283Y004180D03*
X032683Y004530D03*
X032083Y004680D03*
X035033Y004130D03*
X035533Y004630D03*
X036183Y003030D03*
X026583Y001730D03*
X026133Y002180D03*
X025333Y002280D03*
X026133Y002680D03*
X025083Y002880D03*
X026183Y003180D03*
X026133Y003680D03*
X026183Y004180D03*
X026233Y004680D03*
X024533Y004280D03*
X023183Y003280D03*
X018133Y004730D03*
X018083Y005330D03*
X021183Y006380D03*
X023183Y006380D03*
X025583Y007030D03*
X025983Y007430D03*
X025583Y007830D03*
X024533Y008330D03*
X023183Y007830D03*
X027183Y009330D03*
X025433Y009730D03*
X033233Y009380D03*
X033233Y010180D03*
X033883Y011080D03*
X034283Y011380D03*
X029483Y012030D03*
X040133Y010280D03*
X045333Y009780D03*
X045733Y010280D03*
X048383Y011630D03*
X047683Y012030D03*
X049683Y012030D03*
X043583Y011830D03*
X052383Y009380D03*
X053183Y009380D03*
X048133Y008530D03*
X046433Y008530D03*
X045383Y008980D03*
X026283Y005180D03*
X026583Y001230D03*
D26*
X013333Y003180D03*
X013333Y007180D03*
X029333Y014930D03*
X036083Y015180D03*
X050333Y014430D03*
X057333Y014680D03*
D27*
X062026Y004019D03*
X011239Y004019D03*
M02*
