G75*
%MOIN*%
%OFA0B0*%
%FSLAX24Y24*%
%IPPOS*%
%LPD*%
%AMOC8*
5,1,8,0,0,1.08239X$1,22.5*
%
%ADD10R,0.0749X0.0336*%
%ADD11R,0.0880X0.0340*%
%ADD12C,0.0634*%
%ADD13C,0.1360*%
%ADD14R,0.0592X0.0671*%
%ADD15R,0.2521X0.2206*%
%ADD16R,0.0710X0.0474*%
%ADD17C,0.0600*%
%ADD18C,0.0680*%
%ADD19C,0.0595*%
%ADD20R,0.0671X0.0592*%
%ADD21C,0.0480*%
%ADD22C,0.0470*%
%ADD23C,0.0476*%
%ADD24C,0.2442*%
D10*
X027451Y001180D03*
X027451Y001680D03*
X027451Y002180D03*
X027451Y002680D03*
X027451Y003180D03*
X027451Y003680D03*
X027451Y004180D03*
X027451Y004680D03*
X027451Y005180D03*
X027451Y005680D03*
X027451Y006180D03*
X027451Y006680D03*
X027451Y007180D03*
X027451Y007680D03*
X031215Y007680D03*
X031215Y007180D03*
X031215Y006680D03*
X031215Y006180D03*
X031215Y005680D03*
X031215Y005180D03*
X031215Y004680D03*
X031215Y004180D03*
X031215Y003680D03*
X031215Y003180D03*
X031215Y002680D03*
X031215Y002180D03*
X031215Y001680D03*
X031215Y001180D03*
X048451Y001180D03*
X048451Y001680D03*
X048451Y002180D03*
X048451Y002680D03*
X048451Y003180D03*
X048451Y003680D03*
X048451Y004180D03*
X048451Y004680D03*
X048451Y005180D03*
X048451Y005680D03*
X048451Y006180D03*
X048451Y006680D03*
X048451Y007180D03*
X048451Y007680D03*
X052215Y007680D03*
X052215Y007180D03*
X052215Y006680D03*
X052215Y006180D03*
X052215Y005680D03*
X052215Y005180D03*
X052215Y004680D03*
X052215Y004180D03*
X052215Y003680D03*
X052215Y003180D03*
X052215Y002680D03*
X052215Y002180D03*
X052215Y001680D03*
X052215Y001180D03*
D11*
X053903Y001180D03*
X053903Y001680D03*
X053903Y002180D03*
X053903Y002680D03*
X053903Y003180D03*
X053903Y003680D03*
X053903Y004180D03*
X053903Y004680D03*
X053903Y005180D03*
X057763Y005180D03*
X057763Y004680D03*
X057763Y004180D03*
X057763Y003680D03*
X057763Y003180D03*
X057763Y002680D03*
X057763Y002180D03*
X057763Y001680D03*
X057763Y001180D03*
X047263Y001180D03*
X047263Y001680D03*
X047263Y002180D03*
X047263Y002680D03*
X047263Y003180D03*
X047263Y003680D03*
X047263Y004180D03*
X047263Y004680D03*
X047263Y005180D03*
X043403Y005180D03*
X043403Y004680D03*
X043403Y004180D03*
X043403Y003680D03*
X043403Y003180D03*
X043403Y002680D03*
X043403Y002180D03*
X043403Y001680D03*
X043403Y001180D03*
D12*
X043583Y010180D03*
X042583Y010180D03*
X041583Y010180D03*
X044583Y010180D03*
X044083Y011180D03*
X045083Y011180D03*
X043083Y011180D03*
X042083Y011180D03*
X038083Y011180D03*
X037083Y011180D03*
X036083Y011180D03*
X035083Y011180D03*
X034583Y010180D03*
X035583Y010180D03*
X036583Y010180D03*
X037583Y010180D03*
X031083Y011180D03*
X030083Y011180D03*
X029083Y011180D03*
X028083Y011180D03*
X027583Y010180D03*
X028583Y010180D03*
X029583Y010180D03*
X030583Y010180D03*
X024083Y011180D03*
X023083Y011180D03*
X022083Y011180D03*
X021083Y011180D03*
X020583Y010180D03*
X021583Y010180D03*
X022583Y010180D03*
X023583Y010180D03*
X017083Y011180D03*
X016083Y011180D03*
X015083Y011180D03*
X014083Y011180D03*
X013583Y010180D03*
X014583Y010180D03*
X015583Y010180D03*
X016583Y010180D03*
X048583Y010180D03*
X049583Y010180D03*
X050583Y010180D03*
X051583Y010180D03*
X051083Y011180D03*
X050083Y011180D03*
X049083Y011180D03*
X052083Y011180D03*
X055583Y010180D03*
X056583Y010180D03*
X057583Y010180D03*
X058583Y010180D03*
X058083Y011180D03*
X057083Y011180D03*
X056083Y011180D03*
X059083Y011180D03*
X062583Y010180D03*
X063583Y010180D03*
X064583Y010180D03*
X065583Y010180D03*
X065083Y011180D03*
X066083Y011180D03*
X064083Y011180D03*
X063083Y011180D03*
D13*
X062083Y013680D03*
X059583Y013680D03*
X055083Y013680D03*
X052583Y013680D03*
X048083Y013680D03*
X045583Y013680D03*
X041083Y013680D03*
X038583Y013680D03*
X034083Y013680D03*
X031583Y013680D03*
X027083Y013680D03*
X024583Y013680D03*
X020083Y013680D03*
X017583Y013680D03*
X013083Y013680D03*
X066583Y013680D03*
D14*
X047668Y006180D03*
X046999Y006180D03*
X026418Y006180D03*
X025749Y006180D03*
X069749Y005180D03*
X070418Y005180D03*
X070418Y003180D03*
X069749Y003180D03*
D15*
X065849Y004180D03*
D16*
X068723Y003282D03*
X068723Y005078D03*
D17*
X071573Y005180D02*
X072093Y005180D01*
X072093Y006180D02*
X071573Y006180D01*
X071573Y007180D02*
X072093Y007180D01*
X072093Y008180D02*
X071573Y008180D01*
X071573Y009180D02*
X072093Y009180D01*
X072093Y010180D02*
X071573Y010180D01*
X071573Y011180D02*
X072093Y011180D01*
X072093Y012180D02*
X071573Y012180D01*
D18*
X007383Y012180D02*
X006783Y012180D01*
X006783Y011180D02*
X007383Y011180D01*
X007383Y010180D02*
X006783Y010180D01*
X006783Y009180D02*
X007383Y009180D01*
X007383Y008180D02*
X006783Y008180D01*
X006783Y007180D02*
X007383Y007180D01*
X007383Y006180D02*
X006783Y006180D01*
X006783Y005180D02*
X007383Y005180D01*
D19*
X017833Y006180D03*
X018833Y006180D03*
X019833Y006180D03*
X018833Y003180D03*
D20*
X018833Y006806D03*
X017833Y006806D03*
X019833Y006806D03*
X019833Y007554D03*
X018833Y007554D03*
X017833Y007554D03*
D21*
X064208Y005430D03*
X064208Y004930D03*
X064208Y004430D03*
X064208Y003930D03*
X064208Y003430D03*
X064208Y002930D03*
X064333Y002430D03*
X064833Y002430D03*
X065333Y002430D03*
X065833Y002430D03*
X066333Y002430D03*
X066833Y002430D03*
X067333Y002430D03*
X067833Y002430D03*
X067833Y005930D03*
X067333Y005930D03*
X066833Y005930D03*
X066333Y005930D03*
X065833Y005930D03*
X065333Y005930D03*
X064833Y005930D03*
X064333Y005930D03*
D22*
X064583Y007530D03*
X061483Y008430D03*
X058833Y008230D03*
X058283Y008230D03*
X055783Y007080D03*
X054233Y007180D03*
X053183Y007580D03*
X057883Y006730D03*
X056183Y006130D03*
X058283Y005830D03*
X058683Y004680D03*
X058683Y004130D03*
X058683Y002180D03*
X046183Y005980D03*
X045633Y005980D03*
X045383Y006430D03*
X043633Y006580D03*
X046833Y007380D03*
X047383Y007180D03*
X044583Y007730D03*
X044183Y008130D03*
X043233Y007630D03*
X042733Y007580D03*
X042233Y007630D03*
X040733Y007930D03*
X041583Y008230D03*
X040233Y008980D03*
X039083Y008080D03*
X038233Y007830D03*
X035933Y007630D03*
X034133Y007780D03*
X034833Y006980D03*
X040333Y006430D03*
X042483Y005430D03*
X039933Y004630D03*
X042483Y004330D03*
X042483Y003030D03*
X042083Y002630D03*
X040133Y002780D03*
X040933Y002030D03*
X041983Y001680D03*
X041733Y001230D03*
X038283Y002030D03*
X037983Y001630D03*
X037183Y001230D03*
X036583Y001230D03*
X032683Y001780D03*
X032283Y002680D03*
X032283Y003180D03*
X032283Y003680D03*
X032283Y004180D03*
X032683Y004530D03*
X032083Y004680D03*
X035033Y004130D03*
X035533Y004630D03*
X036183Y003030D03*
X026583Y001730D03*
X026133Y002180D03*
X025333Y002280D03*
X026133Y002680D03*
X025083Y002880D03*
X026183Y003180D03*
X026133Y003680D03*
X026183Y004180D03*
X026233Y004680D03*
X024533Y004280D03*
X023183Y003280D03*
X018133Y004730D03*
X018083Y005330D03*
X021183Y006380D03*
X023183Y006380D03*
X025583Y007030D03*
X025983Y007430D03*
X025583Y007830D03*
X024533Y008330D03*
X023183Y007830D03*
X027183Y009330D03*
X025433Y009730D03*
X033233Y009380D03*
X033233Y010180D03*
X033883Y011080D03*
X034283Y011380D03*
X029483Y012030D03*
X040133Y010280D03*
X045333Y009780D03*
X045733Y010280D03*
X048383Y011630D03*
X047683Y012030D03*
X049683Y012030D03*
X043583Y011830D03*
X052383Y009380D03*
X053183Y009380D03*
X048133Y008530D03*
X046433Y008530D03*
X045383Y008980D03*
X026283Y005180D03*
X026583Y001230D03*
D23*
X013333Y003180D03*
X013333Y007180D03*
X029333Y014930D03*
X036083Y015180D03*
X050333Y014430D03*
X057333Y014680D03*
D24*
X062026Y004019D03*
X011239Y004019D03*
M02*
