%
M48
M72
T01C0.0230
T02C0.0236
T03C0.0240
T04C0.0315
T05C0.0320
T06C0.0354
T07C0.0400
T08C0.1260
T09C0.1280
%
T01
X18133Y4730
X18083Y5330
X21183Y6380
X23183Y6380
X25583Y7030
X25983Y7430
X25583Y7830
X24533Y8330
X23183Y7830
X27183Y9330
X25433Y9730
X33233Y9380
X33233Y10180
X33883Y11080
X34283Y11380
X29483Y12030
X40133Y10280
X45333Y9780
X45733Y10280
X48383Y11630
X47683Y12030
X49683Y12030
X43583Y11830
X52383Y9380
X53183Y9380
X48133Y8530
X46433Y8530
X45383Y8980
X44183Y8130
X44583Y7730
X43233Y7630
X42733Y7580
X42233Y7630
X40733Y7930
X41583Y8230
X40233Y8980
X39083Y8080
X38233Y7830
X35933Y7630
X34133Y7780
X34833Y6980
X40333Y6430
X43633Y6580
X45383Y6430
X45633Y5980
X46183Y5980
X42483Y5430
X39933Y4630
X42483Y4330
X42483Y3030
X42083Y2630
X40133Y2780
X40933Y2030
X41983Y1680
X41733Y1230
X38283Y2030
X37983Y1630
X37183Y1230
X36583Y1230
X32683Y1780
X32283Y2680
X32283Y3180
X32283Y3680
X32283Y4180
X32683Y4530
X32083Y4680
X35033Y4130
X35533Y4630
X36183Y3030
X26583Y1730
X26133Y2180
X25333Y2280
X26133Y2680
X25083Y2880
X26183Y3180
X26133Y3680
X26183Y4180
X26233Y4680
X24533Y4280
X23183Y3280
X26283Y5180
X26583Y1230
X47383Y7180
X46833Y7380
X53183Y7580
X54233Y7180
X55783Y7080
X57883Y6730
X56183Y6130
X58283Y5830
X58683Y4680
X58683Y4130
X58683Y2180
X64583Y7530
X61483Y8430
X58833Y8230
X58283Y8230
T02
X13333Y3180
X13333Y7180
X29333Y14930
X36083Y15180
X50333Y14430
X57333Y14680
T03
X64333Y5930
X64833Y5930
X65333Y5930
X65833Y5930
X66333Y5930
X66833Y5930
X67333Y5930
X67833Y5930
X64208Y5430
X64208Y4930
X64208Y4430
X64208Y3930
X64208Y3430
X64208Y2930
X64333Y2430
X64833Y2430
X65333Y2430
X65833Y2430
X66333Y2430
X66833Y2430
X67333Y2430
X67833Y2430
T04
X19833Y6180
X18833Y6180
X17833Y6180
X18833Y3180
T05
X71833Y5180
X71833Y6180
X71833Y7180
X71833Y8180
X71833Y9180
X71833Y10180
X71833Y11180
X71833Y12180
T06
X66083Y11180
X65083Y11180
X64083Y11180
X63083Y11180
X62583Y10180
X63583Y10180
X64583Y10180
X65583Y10180
X59083Y11180
X58083Y11180
X57083Y11180
X56083Y11180
X55583Y10180
X56583Y10180
X57583Y10180
X58583Y10180
X52083Y11180
X51083Y11180
X50083Y11180
X49083Y11180
X48583Y10180
X49583Y10180
X50583Y10180
X51583Y10180
X45083Y11180
X44083Y11180
X43083Y11180
X42083Y11180
X41583Y10180
X42583Y10180
X43583Y10180
X44583Y10180
X38083Y11180
X37083Y11180
X36083Y11180
X35083Y11180
X34583Y10180
X35583Y10180
X36583Y10180
X37583Y10180
X31083Y11180
X30083Y11180
X29083Y11180
X28083Y11180
X27583Y10180
X28583Y10180
X29583Y10180
X30583Y10180
X24083Y11180
X23083Y11180
X22083Y11180
X21083Y11180
X20583Y10180
X21583Y10180
X22583Y10180
X23583Y10180
X17083Y11180
X16083Y11180
X15083Y11180
X14083Y11180
X13583Y10180
X14583Y10180
X15583Y10180
X16583Y10180
T07
X7083Y10180
X7083Y9180
X7083Y8180
X7083Y7180
X7083Y6180
X7083Y5180
X7083Y11180
X7083Y12180
T08
X11239Y4019
X62026Y4019
T09
X62083Y13680
X59583Y13680
X55083Y13680
X52583Y13680
X48083Y13680
X45583Y13680
X41083Y13680
X38583Y13680
X34083Y13680
X31583Y13680
X27083Y13680
X24583Y13680
X20083Y13680
X17583Y13680
X13083Y13680
X66583Y13680
M30
