G75*
%MOIN*%
%OFA0B0*%
%FSLAX24Y24*%
%IPPOS*%
%LPD*%
%AMOC8*
5,1,8,0,0,1.08239X$1,22.5*
%
%ADD10R,0.0669X0.0256*%
%ADD11R,0.0800X0.0260*%
%ADD12R,0.0512X0.0591*%
%ADD13R,0.2441X0.2126*%
%ADD14R,0.0630X0.0394*%
%ADD15R,0.0591X0.0512*%
D10*
X027451Y001180D03*
X027451Y001680D03*
X027451Y002180D03*
X027451Y002680D03*
X027451Y003180D03*
X027451Y003680D03*
X027451Y004180D03*
X027451Y004680D03*
X027451Y005180D03*
X027451Y005680D03*
X027451Y006180D03*
X027451Y006680D03*
X027451Y007180D03*
X027451Y007680D03*
X031215Y007680D03*
X031215Y007180D03*
X031215Y006680D03*
X031215Y006180D03*
X031215Y005680D03*
X031215Y005180D03*
X031215Y004680D03*
X031215Y004180D03*
X031215Y003680D03*
X031215Y003180D03*
X031215Y002680D03*
X031215Y002180D03*
X031215Y001680D03*
X031215Y001180D03*
X048451Y001180D03*
X048451Y001680D03*
X048451Y002180D03*
X048451Y002680D03*
X048451Y003180D03*
X048451Y003680D03*
X048451Y004180D03*
X048451Y004680D03*
X048451Y005180D03*
X048451Y005680D03*
X048451Y006180D03*
X048451Y006680D03*
X048451Y007180D03*
X048451Y007680D03*
X052215Y007680D03*
X052215Y007180D03*
X052215Y006680D03*
X052215Y006180D03*
X052215Y005680D03*
X052215Y005180D03*
X052215Y004680D03*
X052215Y004180D03*
X052215Y003680D03*
X052215Y003180D03*
X052215Y002680D03*
X052215Y002180D03*
X052215Y001680D03*
X052215Y001180D03*
D11*
X053903Y001180D03*
X053903Y001680D03*
X053903Y002180D03*
X053903Y002680D03*
X053903Y003180D03*
X053903Y003680D03*
X053903Y004180D03*
X053903Y004680D03*
X053903Y005180D03*
X057763Y005180D03*
X057763Y004680D03*
X057763Y004180D03*
X057763Y003680D03*
X057763Y003180D03*
X057763Y002680D03*
X057763Y002180D03*
X057763Y001680D03*
X057763Y001180D03*
X047263Y001180D03*
X047263Y001680D03*
X047263Y002180D03*
X047263Y002680D03*
X047263Y003180D03*
X047263Y003680D03*
X047263Y004180D03*
X047263Y004680D03*
X047263Y005180D03*
X043403Y005180D03*
X043403Y004680D03*
X043403Y004180D03*
X043403Y003680D03*
X043403Y003180D03*
X043403Y002680D03*
X043403Y002180D03*
X043403Y001680D03*
X043403Y001180D03*
D12*
X046999Y006180D03*
X047668Y006180D03*
X026418Y006180D03*
X025749Y006180D03*
X069749Y005180D03*
X070418Y005180D03*
X070418Y003180D03*
X069749Y003180D03*
D13*
X065849Y004180D03*
D14*
X068723Y003282D03*
X068723Y005078D03*
D15*
X017833Y006806D03*
X018833Y006806D03*
X019833Y006806D03*
X019833Y007554D03*
X018833Y007554D03*
X017833Y007554D03*
M02*
