  0
SECTION
  2
HEADER
  9
$ACADVER
  1
AC1024
  9
$ACADMAINTVER
 70
     6
  9
$DWGCODEPAGE
  3
ANSI_1252
  9
$INSBASE
 10
0.0
 20
0.0
 30
0.0
  9
$EXTMIN
 10
1.000000000000000E+20
 20
1.000000000000000E+20
 30
1.000000000000000E+20
  9
$EXTMAX
 10
-1.000000000000000E+20
 20
-1.000000000000000E+20
 30
-1.000000000000000E+20
  9
$LIMMIN
 10
0.0
 20
0.0
  9
$LIMMAX
 10
12.0
 20
9.0
  9
$ORTHOMODE
 70
     0
  9
$REGENMODE
 70
     1
  9
$FILLMODE
 70
     1
  9
$QTEXTMODE
 70
     0
  9
$MIRRTEXT
 70
     1
  9
$LTSCALE
 40
1.0
  9
$ATTMODE
 70
     1
  9
$TEXTSIZE
 40
0.2
  9
$TRACEWID
 40
0.05
  9
$TEXTSTYLE
  7
Standard
  9
$CLAYER
  8
0
  9
$CELTYPE
  6
ByLayer
  9
$CECOLOR
 62
   256
  9
$CELTSCALE
 40
1.0
  9
$DISPSILH
 70
     0
  9
$DIMSCALE
 40
1.0
  9
$DIMASZ
 40
0.18
  9
$DIMEXO
 40
0.0625
  9
$DIMDLI
 40
0.38
  9
$DIMRND
 40
0.0
  9
$DIMDLE
 40
0.0
  9
$DIMEXE
 40
0.18
  9
$DIMTP
 40
0.0
  9
$DIMTM
 40
0.0
  9
$DIMTXT
 40
0.18
  9
$DIMCEN
 40
0.09
  9
$DIMTSZ
 40
0.0
  9
$DIMTOL
 70
     0
  9
$DIMLIM
 70
     0
  9
$DIMTIH
 70
     1
  9
$DIMTOH
 70
     1
  9
$DIMSE1
 70
     0
  9
$DIMSE2
 70
     0
  9
$DIMTAD
 70
     0
  9
$DIMZIN
 70
     0
  9
$DIMBLK
  1

  9
$DIMASO
 70
     1
  9
$DIMSHO
 70
     1
  9
$DIMPOST
  1

  9
$DIMAPOST
  1

  9
$DIMALT
 70
     0
  9
$DIMALTD
 70
     2
  9
$DIMALTF
 40
25.4
  9
$DIMLFAC
 40
1.0
  9
$DIMTOFL
 70
     0
  9
$DIMTVP
 40
0.0
  9
$DIMTIX
 70
     0
  9
$DIMSOXD
 70
     0
  9
$DIMSAH
 70
     0
  9
$DIMBLK1
  1

  9
$DIMBLK2
  1

  9
$DIMSTYLE
  2
Standard
  9
$DIMCLRD
 70
     0
  9
$DIMCLRE
 70
     0
  9
$DIMCLRT
 70
     0
  9
$DIMTFAC
 40
1.0
  9
$DIMGAP
 40
0.09
  9
$DIMJUST
 70
     0
  9
$DIMSD1
 70
     0
  9
$DIMSD2
 70
     0
  9
$DIMTOLJ
 70
     1
  9
$DIMTZIN
 70
     0
  9
$DIMALTZ
 70
     0
  9
$DIMALTTZ
 70
     0
  9
$DIMUPT
 70
     0
  9
$DIMDEC
 70
     4
  9
$DIMTDEC
 70
     4
  9
$DIMALTU
 70
     2
  9
$DIMALTTD
 70
     2
  9
$DIMTXSTY
  7
Standard
  9
$DIMAUNIT
 70
     0
  9
$DIMADEC
 70
     0
  9
$DIMALTRND
 40
0.0
  9
$DIMAZIN
 70
     0
  9
$DIMDSEP
 70
    46
  9
$DIMATFIT
 70
     3
  9
$DIMFRAC
 70
     0
  9
$DIMLDRBLK
  1

  9
$DIMLUNIT
 70
     2
  9
$DIMLWD
 70
    -2
  9
$DIMLWE
 70
    -2
  9
$DIMTMOVE
 70
     0
  9
$DIMFXL
 40
1.0
  9
$DIMFXLON
 70
     0
  9
$DIMJOGANG
 40
0.7853981633974483
  9
$DIMTFILL
 70
     0
  9
$DIMTFILLCLR
 70
     0
  9
$DIMARCSYM
 70
     0
  9
$DIMLTYPE
  6

  9
$DIMLTEX1
  6

  9
$DIMLTEX2
  6

  9
$DIMTXTDIRECTION
 70
     0
  9
$LUNITS
 70
     2
  9
$LUPREC
 70
     4
  9
$SKETCHINC
 40
0.1
  9
$FILLETRAD
 40
0.5
  9
$AUNITS
 70
     0
  9
$AUPREC
 70
     0
  9
$MENU
  1
.
  9
$ELEVATION
 40
0.0
  9
$PELEVATION
 40
0.0
  9
$THICKNESS
 40
0.0
  9
$LIMCHECK
 70
     0
  9
$CHAMFERA
 40
0.5
  9
$CHAMFERB
 40
0.5
  9
$CHAMFERC
 40
1.0
  9
$CHAMFERD
 40
0.0
  9
$SKPOLY
 70
     0
  9
$TDCREATE
 40
2458893.843966134
  9
$TDUCREATE
 40
2458893.843966134
  9
$TDUPDATE
 40
2458893.843966319
  9
$TDUUPDATE
 40
2458893.843966319
  9
$TDINDWG
 40
0.0000000116
  9
$TDUSRTIMER
 40
0.0000000116
  9
$USRTIMER
 70
     1
  9
$ANGBASE
 50
0.0
  9
$ANGDIR
 70
     0
  9
$PDMODE
 70
     0
  9
$PDSIZE
 40
0.0
  9
$PLINEWID
 40
0.0
  9
$SPLFRAME
 70
     0
  9
$SPLINETYPE
 70
     6
  9
$SPLINESEGS
 70
     8
  9
$HANDSEED
  5
86
  9
$SURFTAB1
 70
     6
  9
$SURFTAB2
 70
     6
  9
$SURFTYPE
 70
     6
  9
$SURFU
 70
     6
  9
$SURFV
 70
     6
  9
$UCSBASE
  2

  9
$UCSNAME
  2

  9
$UCSORG
 10
0.0
 20
0.0
 30
0.0
  9
$UCSXDIR
 10
1.0
 20
0.0
 30
0.0
  9
$UCSYDIR
 10
0.0
 20
1.0
 30
0.0
  9
$UCSORTHOREF
  2

  9
$UCSORTHOVIEW
 70
     0
  9
$UCSORGTOP
 10
0.0
 20
0.0
 30
0.0
  9
$UCSORGBOTTOM
 10
0.0
 20
0.0
 30
0.0
  9
$UCSORGLEFT
 10
0.0
 20
0.0
 30
0.0
  9
$UCSORGRIGHT
 10
0.0
 20
0.0
 30
0.0
  9
$UCSORGFRONT
 10
0.0
 20
0.0
 30
0.0
  9
$UCSORGBACK
 10
0.0
 20
0.0
 30
0.0
  9
$PUCSBASE
  2

  9
$PUCSNAME
  2

  9
$PUCSORG
 10
0.0
 20
0.0
 30
0.0
  9
$PUCSXDIR
 10
1.0
 20
0.0
 30
0.0
  9
$PUCSYDIR
 10
0.0
 20
1.0
 30
0.0
  9
$PUCSORTHOREF
  2

  9
$PUCSORTHOVIEW
 70
     0
  9
$PUCSORGTOP
 10
0.0
 20
0.0
 30
0.0
  9
$PUCSORGBOTTOM
 10
0.0
 20
0.0
 30
0.0
  9
$PUCSORGLEFT
 10
0.0
 20
0.0
 30
0.0
  9
$PUCSORGRIGHT
 10
0.0
 20
0.0
 30
0.0
  9
$PUCSORGFRONT
 10
0.0
 20
0.0
 30
0.0
  9
$PUCSORGBACK
 10
0.0
 20
0.0
 30
0.0
  9
$USERI1
 70
     0
  9
$USERI2
 70
     0
  9
$USERI3
 70
     0
  9
$USERI4
 70
     0
  9
$USERI5
 70
     0
  9
$USERR1
 40
0.0
  9
$USERR2
 40
0.0
  9
$USERR3
 40
0.0
  9
$USERR4
 40
0.0
  9
$USERR5
 40
0.0
  9
$WORLDVIEW
 70
     1
  9
$SHADEDGE
 70
     3
  9
$SHADEDIF
 70
    70
  9
$TILEMODE
 70
     1
  9
$MAXACTVP
 70
    64
  9
$PINSBASE
 10
0.0
 20
0.0
 30
0.0
  9
$PLIMCHECK
 70
     0
  9
$PEXTMIN
 10
1.000000000000000E+20
 20
1.000000000000000E+20
 30
1.000000000000000E+20
  9
$PEXTMAX
 10
-1.000000000000000E+20
 20
-1.000000000000000E+20
 30
-1.000000000000000E+20
  9
$PLIMMIN
 10
0.0
 20
0.0
  9
$PLIMMAX
 10
12.0
 20
9.0
  9
$UNITMODE
 70
     0
  9
$VISRETAIN
 70
     1
  9
$PLINEGEN
 70
     0
  9
$PSLTSCALE
 70
     1
  9
$TREEDEPTH
 70
  3020
  9
$CMLSTYLE
  2
Standard
  9
$CMLJUST
 70
     0
  9
$CMLSCALE
 40
1.0
  9
$PROXYGRAPHICS
 70
     1
  9
$MEASUREMENT
 70
     0
  9
$CELWEIGHT
370
    -1
  9
$ENDCAPS
280
     0
  9
$JOINSTYLE
280
     0
  9
$LWDISPLAY
290
     1
  9
$INSUNITS
 70
     4
  9
$HYPERLINKBASE
  1

  9
$STYLESHEET
  1

  9
$XEDIT
290
     1
  9
$CEPSNTYPE
380
     0
  9
$PSTYLEMODE
290
     1
  9
$FINGERPRINTGUID
  2
{3D4ABB22-A1B2-48E0-8BF2-7C65A8C67419}
  9
$VERSIONGUID
  2
{FAEB1C32-E019-11D5-929B-00C0DF256EC4}
  9
$EXTNAMES
290
     1
  9
$PSVPSCALE
 40
0.0
  9
$OLESTARTUP
290
     0
  9
$SORTENTS
280
   127
  9
$INDEXCTL
280
     0
  9
$HIDETEXT
280
     1
  9
$XCLIPFRAME
280
     2
  9
$HALOGAP
280
     0
  9
$OBSCOLOR
 70
   257
  9
$OBSLTYPE
280
     0
  9
$INTERSECTIONDISPLAY
280
     0
  9
$INTERSECTIONCOLOR
 70
   257
  9
$DIMASSOC
280
     2
  9
$PROJECTNAME
  1

  9
$CAMERADISPLAY
290
     0
  9
$LENSLENGTH
 40
50.0
  9
$CAMERAHEIGHT
 40
0.0
  9
$STEPSPERSEC
 40
2.0
  9
$STEPSIZE
 40
6.0
  9
$3DDWFPREC
 40
2.0
  9
$PSOLWIDTH
 40
0.25
  9
$PSOLHEIGHT
 40
4.0
  9
$LOFTANG1
 40
1.570796326794897
  9
$LOFTANG2
 40
1.570796326794897
  9
$LOFTMAG1
 40
0.0
  9
$LOFTMAG2
 40
0.0
  9
$LOFTPARAM
 70
     7
  9
$LOFTNORMALS
280
     1
  9
$LATITUDE
 40
37.795
  9
$LONGITUDE
 40
-122.394
  9
$NORTHDIRECTION
 40
0.0
  9
$TIMEZONE
 70
 -8000
  9
$LIGHTGLYPHDISPLAY
280
     1
  9
$TILEMODELIGHTSYNCH
280
     1
  9
$CMATERIAL
347
3C
  9
$SOLIDHIST
280
     1
  9
$SHOWHIST
280
     1
  9
$DWFFRAME
280
     2
  9
$DGNFRAME
280
     2
  9
$REALWORLDSCALE
290
     1
  9
$INTERFERECOLOR
 62
   256
  9
$CSHADOW
280
     0
  9
$SHADOWPLANELOCATION
 40
0.0
  0
ENDSEC
  0
SECTION
  2
CLASSES
  0
CLASS
  1
ACDBDICTIONARYWDFLT
  2
AcDbDictionaryWithDefault
  3
ObjectDBX Classes
 90
        0
 91
        4
280
     0
281
     0
  0
CLASS
  1
VISUALSTYLE
  2
AcDbVisualStyle
  3
ObjectDBX Classes
 90
     4095
 91
        4
280
     0
281
     0
  0
CLASS
  1
MATERIAL
  2
AcDbMaterial
  3
ObjectDBX Classes
 90
     1153
 91
        4
280
     0
281
     0
  0
CLASS
  1
SUN
  2
AcDbSun
  3
SCENEOE
 90
     1024
 91
        4
280
     0
281
     0
  0
ENDSEC
  0
SECTION
  2
TABLES
  0
TABLE
  2
VPORT
  5
8
330
0
100
AcDbSymbolTable
 70
     1
  0
VPORT
  5
29
330
8
100
AcDbSymbolTableRecord
100
AcDbViewportTableRecord
  2
*Active
 70
     0
 10
0.0
 20
0.0
 11
1.0
 21
1.0
 12
0.0
 22
0.0
 13
0.0
 23
0.0
 14
0.5
 24
0.5
 15
0.5
 25
0.5
 16
0.0
 26
0.0
 36
1.0
 17
89.99999997749269
 27
-159.9999999599951
 37
0.0
 40
319.9999999199902
 41
0.5624999999999716
 42
50.0
 43
0.0
 44
0.0
 50
0.0
 51
0.0
 71
     0
 72
   100
 73
     1
 74
     3
 75
     0
 76
     0
 77
     0
 78
     0
281
     0
 65
     1
110
0.0
120
0.0
130
0.0
111
1.0
121
0.0
131
0.0
112
0.0
122
1.0
132
0.0
 79
     0
146
0.0
 60
     3
 61
     5
292
     1
282
     1
141
0.0
142
0.0
 63
   250
361
3F
  0
ENDTAB
  0
TABLE
  2
LTYPE
  5
5
330
0
100
AcDbSymbolTable
 70
     1
  0
LTYPE
  5
14
330
5
100
AcDbSymbolTableRecord
100
AcDbLinetypeTableRecord
  2
ByBlock
 70
     0
  3

 72
    65
 73
     0
 40
0.0
  0
LTYPE
  5
15
330
5
100
AcDbSymbolTableRecord
100
AcDbLinetypeTableRecord
  2
ByLayer
 70
     0
  3

 72
    65
 73
     0
 40
0.0
  0
LTYPE
  5
16
330
5
100
AcDbSymbolTableRecord
100
AcDbLinetypeTableRecord
  2
Continuous
 70
     0
  3
Solid line
 72
    65
 73
     0
 40
0.0
  0
ENDTAB
  0
TABLE
  2
LAYER
  5
2
330
0
100
AcDbSymbolTable
 70
     2
  0
LAYER
  5
10
330
2
100
AcDbSymbolTableRecord
100
AcDbLayerTableRecord
  2
0
 70
     0
 62
     7
  6
Continuous
370
    -3
390
F
347
3E
  0
LAYER
  5
40
330
2
100
AcDbSymbolTableRecord
100
AcDbLayerTableRecord
  2
Layer 1
 70
     0
 62
     7
  6
Continuous
370
    -3
390
F
347
3E
  0
ENDTAB
  0
TABLE
  2
STYLE
  5
3
330
0
100
AcDbSymbolTable
 70
     1
  0
STYLE
  5
11
330
3
100
AcDbSymbolTableRecord
100
AcDbTextStyleTableRecord
  2
Standard
 70
     0
 40
0.0
 41
1.0
 50
0.0
 71
     0
 42
0.2
  3
txt
  4

  0
ENDTAB
  0
TABLE
  2
VIEW
  5
6
330
0
100
AcDbSymbolTable
 70
     0
  0
ENDTAB
  0
TABLE
  2
UCS
  5
7
330
0
100
AcDbSymbolTable
 70
     0
  0
ENDTAB
  0
TABLE
  2
APPID
  5
9
330
0
100
AcDbSymbolTable
 70
     1
  0
APPID
  5
12
330
9
100
AcDbSymbolTableRecord
100
AcDbRegAppTableRecord
  2
ACAD
 70
     0
  0
ENDTAB
  0
TABLE
  2
DIMSTYLE
  5
A
330
0
100
AcDbSymbolTable
 70
     1
100
AcDbDimStyleTable
  0
DIMSTYLE
105
27
330
A
100
AcDbSymbolTableRecord
100
AcDbDimStyleTableRecord
  2
Standard
 70
     0
178
     0
340
11
  0
ENDTAB
  0
TABLE
  2
BLOCK_RECORD
  5
1
330
0
100
AcDbSymbolTable
 70
     4
  0
BLOCK_RECORD
  5
1F
330
1
100
AcDbSymbolTableRecord
100
AcDbBlockTableRecord
  2
*Model_Space
340
22
 70
     0
280
     1
281
     0
  0
BLOCK_RECORD
  5
1B
330
1
100
AcDbSymbolTableRecord
100
AcDbBlockTableRecord
  2
*Paper_Space
340
1E
 70
     0
280
     1
281
     0
  0
BLOCK_RECORD
  5
23
330
1
100
AcDbSymbolTableRecord
100
AcDbBlockTableRecord
  2
*Paper_Space0
340
26
 70
     0
280
     1
281
     0
  0
BLOCK_RECORD
  5
41
330
1
100
AcDbSymbolTableRecord
100
AcDbBlockTableRecord
  2
block 2
340
0
102
{BLKREFS
331
42
102
}
 70
     0
280
     1
281
     0
  0
BLOCK_RECORD
  5
68
330
1
100
AcDbSymbolTableRecord
100
AcDbBlockTableRecord
  2
block 3
340
0
102
{BLKREFS
331
69
102
}
 70
     0
280
     1
281
     0
  0
BLOCK_RECORD
  5
74
330
1
100
AcDbSymbolTableRecord
100
AcDbBlockTableRecord
  2
block 4
340
0
102
{BLKREFS
331
75
102
}
 70
     0
280
     1
281
     0
  0
ENDTAB
  0
ENDSEC
  0
SECTION
  2
BLOCKS
  0
BLOCK
  5
20
330
1F
100
AcDbEntity
  8
0
100
AcDbBlockBegin
  2
*Model_Space
 70
     0
 10
0.0
 20
0.0
 30
0.0
  3
*Model_Space
  1

  0
ENDBLK
  5
21
330
1F
100
AcDbEntity
  8
0
100
AcDbBlockEnd
  0
BLOCK
  5
1C
330
1B
100
AcDbEntity
 67
     1
  8
0
100
AcDbBlockBegin
  2
*Paper_Space
 70
     0
 10
0.0
 20
0.0
 30
0.0
  3
*Paper_Space
  1

  0
ENDBLK
  5
1D
330
1B
100
AcDbEntity
 67
     1
  8
0
100
AcDbBlockEnd
  0
BLOCK
  5
24
330
23
100
AcDbEntity
  8
0
100
AcDbBlockBegin
  2
*Paper_Space0
 70
     0
 10
0.0
 20
0.0
 30
0.0
  3
*Paper_Space0
  1

  0
ENDBLK
  5
25
330
23
100
AcDbEntity
  8
0
100
AcDbBlockEnd
  0
BLOCK
  5
43
330
41
100
AcDbEntity
  8
0
100
AcDbBlockBegin
  2
block 2
 70
     0
 10
0.0
 20
0.0
 30
0.0
  3
block 2
  1

  0
POLYLINE
  5
45
330
41
100
AcDbEntity
  8
Layer 1
 62
   250
420
  2827298
370
    35
100
AcDb2dPolyline
 66
     1
 10
0.0
 20
0.0
 30
0.0
  0
VERTEX
  5
46
330
45
100
AcDbEntity
  8
Layer 1
 62
   250
420
  2827298
370
    35
100
AcDbVertex
100
AcDb2dVertex
 10
155.2506223203302
 20
-173.0999788866302
 30
0.0
  0
VERTEX
  5
47
330
45
100
AcDbEntity
  8
Layer 1
 62
   250
420
  2827298
370
    35
100
AcDbVertex
100
AcDb2dVertex
 10
149.9508417660999
 20
-173.0999788861547
 30
0.0
  0
VERTEX
  5
48
330
45
100
AcDbEntity
  8
Layer 1
 62
   250
420
  2827298
370
    35
100
AcDbVertex
100
AcDb2dVertex
 10
149.9508417668333
 20
-164.899981442942
 30
0.0
  0
VERTEX
  5
49
330
45
100
AcDbEntity
  8
Layer 1
 62
   250
420
  2827298
370
    35
100
AcDbVertex
100
AcDb2dVertex
 10
155.2506223210643
 20
-164.8999814434175
 30
0.0
  0
VERTEX
  5
4A
330
45
100
AcDbEntity
  8
Layer 1
 62
   250
420
  2827298
370
    35
100
AcDbVertex
100
AcDb2dVertex
 10
155.2506223203302
 20
-173.0999788866302
 30
0.0
  0
SEQEND
  5
4B
330
45
100
AcDbEntity
  8
Layer 1
 62
   250
420
  2827298
370
    35
  0
POLYLINE
  5
4C
330
41
100
AcDbEntity
  8
Layer 1
 62
   250
420
  2827298
370
    35
100
AcDb2dPolyline
 66
     1
 10
0.0
 20
0.0
 30
0.0
  0
VERTEX
  5
4D
330
4C
100
AcDbEntity
  8
Layer 1
 62
   250
420
  2827298
370
    35
100
AcDbVertex
100
AcDb2dVertex
 10
30.0494751800566
 20
-173.0999788753883
 30
0.0
  0
VERTEX
  5
4E
330
4C
100
AcDbEntity
  8
Layer 1
 62
   250
420
  2827298
370
    35
100
AcDbVertex
100
AcDb2dVertex
 10
24.74955364860476
 20
-173.0999788749121
 30
0.0
  0
VERTEX
  5
4F
330
4C
100
AcDbEntity
  8
Layer 1
 62
   250
420
  2827298
370
    35
100
AcDbVertex
100
AcDb2dVertex
 10
24.74955364933887
 20
-164.8999814316994
 30
0.0
  0
VERTEX
  5
50
330
4C
100
AcDbEntity
  8
Layer 1
 62
   250
420
  2827298
370
    35
100
AcDbVertex
100
AcDb2dVertex
 10
30.04947518079392
 20
-164.8999814321756
 30
0.0
  0
VERTEX
  5
51
330
4C
100
AcDbEntity
  8
Layer 1
 62
   250
420
  2827298
370
    35
100
AcDbVertex
100
AcDb2dVertex
 10
30.0494751800566
 20
-173.0999788753883
 30
0.0
  0
SEQEND
  5
52
330
4C
100
AcDbEntity
  8
Layer 1
 62
   250
420
  2827298
370
    35
  0
POLYLINE
  5
53
330
41
100
AcDbEntity
  8
Layer 1
 62
   250
420
  2827298
370
    35
100
AcDb2dPolyline
 66
     1
 10
0.0
 20
0.0
 30
0.0
  0
VERTEX
  5
54
330
53
100
AcDbEntity
  8
Layer 1
 62
   250
420
  2827298
370
    35
100
AcDbVertex
100
AcDb2dVertex
 10
155.2506223327201
 20
-35.09963147586721
 30
0.0
  0
VERTEX
  5
55
330
53
100
AcDbEntity
  8
Layer 1
 62
   250
420
  2827298
370
    35
100
AcDbVertex
100
AcDb2dVertex
 10
149.9508417784891
 20
-35.09963147539107
 30
0.0
  0
VERTEX
  5
56
330
53
100
AcDbEntity
  8
Layer 1
 62
   250
420
  2827298
370
    35
100
AcDbVertex
100
AcDb2dVertex
 10
149.9508417792265
 20
-26.90029981077531
 30
0.0
  0
VERTEX
  5
57
330
53
100
AcDbEntity
  8
Layer 1
 62
   250
420
  2827298
370
    35
100
AcDbVertex
100
AcDb2dVertex
 10
155.2506223334568
 20
-26.90029981125145
 30
0.0
  0
VERTEX
  5
58
330
53
100
AcDbEntity
  8
Layer 1
 62
   250
420
  2827298
370
    35
100
AcDbVertex
100
AcDb2dVertex
 10
155.2506223327201
 20
-35.09963147586721
 30
0.0
  0
SEQEND
  5
59
330
53
100
AcDbEntity
  8
Layer 1
 62
   250
420
  2827298
370
    35
  0
POLYLINE
  5
5A
330
41
100
AcDbEntity
  8
Layer 1
 62
   250
420
  2827298
370
    35
100
AcDb2dPolyline
 66
     1
 10
0.0
 20
0.0
 30
0.0
  0
VERTEX
  5
5B
330
5A
100
AcDbEntity
  8
Layer 1
 62
   250
420
  2827298
370
    35
100
AcDbVertex
100
AcDb2dVertex
 10
30.04947519244974
 20
-35.09963146462529
 30
0.0
  0
VERTEX
  5
5C
330
5A
100
AcDbEntity
  8
Layer 1
 62
   250
420
  2827298
370
    35
100
AcDbVertex
100
AcDb2dVertex
 10
24.74955366099469
 20
-35.09963146414915
 30
0.0
  0
VERTEX
  5
5D
330
5A
100
AcDbEntity
  8
Layer 1
 62
   250
420
  2827298
370
    35
100
AcDbVertex
100
AcDb2dVertex
 10
24.74955366173136
 20
-26.90029979953339
 30
0.0
  0
VERTEX
  5
5E
330
5A
100
AcDbEntity
  8
Layer 1
 62
   250
420
  2827298
370
    35
100
AcDbVertex
100
AcDb2dVertex
 10
30.04947519318705
 20
-26.90029980000953
 30
0.0
  0
VERTEX
  5
5F
330
5A
100
AcDbEntity
  8
Layer 1
 62
   250
420
  2827298
370
    35
100
AcDbVertex
100
AcDb2dVertex
 10
30.04947519244974
 20
-35.09963146462529
 30
0.0
  0
SEQEND
  5
60
330
5A
100
AcDbEntity
  8
Layer 1
 62
   250
420
  2827298
370
    35
  0
POLYLINE
  5
61
330
41
100
AcDbEntity
  8
Layer 1
 62
   250
420
  2827298
370
    35
100
AcDb2dPolyline
 66
     1
 10
0.0
 20
0.0
 30
0.0
  0
VERTEX
  5
62
330
61
100
AcDbEntity
  8
Layer 1
 62
   250
420
  2827298
370
    35
100
AcDbVertex
100
AcDb2dVertex
 10
10.00005623482435
 20
-309.9999781587549
 30
0.0
  0
VERTEX
  5
63
330
61
100
AcDbEntity
  8
Layer 1
 62
   250
420
  2827298
370
    35
100
AcDbVertex
100
AcDb2dVertex
 10
169.9999436932376
 20
-309.9999781731225
 30
0.0
  0
VERTEX
  5
64
330
61
100
AcDbEntity
  8
Layer 1
 62
   250
420
  2827298
370
    35
100
AcDbVertex
100
AcDb2dVertex
 10
169.9999437201755
 20
-10.0000217612446
 30
0.0
  0
VERTEX
  5
65
330
61
100
AcDbEntity
  8
Layer 1
 62
   250
420
  2827298
370
    35
100
AcDbVertex
100
AcDb2dVertex
 10
10.00005626176223
 20
-10.0000217468776
 30
0.0
  0
VERTEX
  5
66
330
61
100
AcDbEntity
  8
Layer 1
 62
   250
420
  2827298
370
    35
100
AcDbVertex
100
AcDb2dVertex
 10
10.00005623482435
 20
-309.9999781587549
 30
0.0
  0
SEQEND
  5
67
330
61
100
AcDbEntity
  8
Layer 1
 62
   250
420
  2827298
370
    35
  0
INSERT
  5
69
330
41
100
AcDbEntity
  8
Layer 1
100
AcDbBlockReference
  2
block 3
 10
0.0
 20
0.0
 30
0.0
  0
INSERT
  5
75
330
41
100
AcDbEntity
  8
Layer 1
100
AcDbBlockReference
  2
block 4
 10
0.0
 20
0.0
 30
0.0
  0
SPLINE
  5
80
330
41
100
AcDbEntity
  8
Layer 1
 62
   250
420
  2827298
370
    35
100
AcDbSpline
210
0.0
220
0.0
230
1.0
 70
    11
 71
     3
 72
    17
 73
    13
 74
     0
 42
0.0000000001
 43
0.0000000001
 12
1.0
 22
0.0
 32
0.0
 13
1.0
 23
0.0
 33
0.0
 40
0.0
 40
0.0
 40
0.0
 40
0.0
 40
1.0
 40
1.0
 40
1.0
 40
2.0
 40
2.0
 40
2.0
 40
3.0
 40
3.0
 40
3.0
 40
4.0
 40
4.0
 40
4.0
 40
4.0
 10
21.99999999450013
 20
-299.9999999250005
 30
0.0
 10
21.99999999450013
 20
-301.1045694243242
 30
0.0
 10
21.104569494324
 20
-301.9999999245
 30
0.0
 10
19.99999999499995
 20
-301.9999999245
 30
0.0
 10
18.89543049567621
 20
-301.9999999245
 30
0.0
 10
17.99999999550008
 20
-301.1045694243242
 30
0.0
 10
17.99999999550008
 20
-299.9999999250005
 30
0.0
 10
17.99999999550008
 20
-298.8954304256761
 30
0.0
 10
18.89543049567621
 20
-297.9999999255003
 30
0.0
 10
19.99999999499995
 20
-297.9999999255003
 30
0.0
 10
21.104569494324
 20
-297.9999999255003
 30
0.0
 10
21.99999999450013
 20
-298.8954304256761
 30
0.0
 10
21.99999999450013
 20
-299.9999999250005
 30
0.0
  0
SPLINE
  5
81
330
41
100
AcDbEntity
  8
Layer 1
 62
   250
420
  2827298
370
    35
100
AcDbSpline
210
0.0
220
0.0
230
1.0
 70
    11
 71
     3
 72
    17
 73
    13
 74
     0
 42
0.0000000001
 43
0.0000000001
 12
1.0
 22
0.0
 32
0.0
 13
1.0
 23
0.0
 33
0.0
 40
0.0
 40
0.0
 40
0.0
 40
0.0
 40
1.0
 40
1.0
 40
1.0
 40
2.0
 40
2.0
 40
2.0
 40
3.0
 40
3.0
 40
3.0
 40
4.0
 40
4.0
 40
4.0
 40
4.0
 10
161.9999999594997
 20
-299.9999999250005
 30
0.0
 10
161.9999999594997
 20
-301.1045694243242
 30
0.0
 10
161.1045694593233
 20
-301.9999999245
 30
0.0
 10
159.9999999600002
 20
-301.9999999245
 30
0.0
 10
158.8954304606765
 20
-301.9999999245
 30
0.0
 10
157.9999999605
 20
-301.1045694243242
 30
0.0
 10
157.9999999605
 20
-299.9999999250005
 30
0.0
 10
157.9999999605
 20
-298.8954304256761
 30
0.0
 10
158.8954304606765
 20
-297.9999999255003
 30
0.0
 10
159.9999999600002
 20
-297.9999999255003
 30
0.0
 10
161.1045694593233
 20
-297.9999999255003
 30
0.0
 10
161.9999999594997
 20
-298.8954304256761
 30
0.0
 10
161.9999999594997
 20
-299.9999999250005
 30
0.0
  0
SPLINE
  5
82
330
41
100
AcDbEntity
  8
Layer 1
 62
   250
420
  2827298
370
    35
100
AcDbSpline
210
0.0
220
0.0
230
1.0
 70
    11
 71
     3
 72
    17
 73
    13
 74
     0
 42
0.0000000001
 43
0.0000000001
 12
1.0
 22
0.0
 32
0.0
 13
1.0
 23
0.0
 33
0.0
 40
0.0
 40
0.0
 40
0.0
 40
0.0
 40
1.0
 40
1.0
 40
1.0
 40
2.0
 40
2.0
 40
2.0
 40
3.0
 40
3.0
 40
3.0
 40
4.0
 40
4.0
 40
4.0
 40
4.0
 10
21.99999999450013
 20
-19.99999999500027
 30
0.0
 10
21.99999999450013
 20
-21.104569494324
 30
0.0
 10
21.104569494324
 20
-21.99999999449981
 30
0.0
 10
19.99999999499995
 20
-21.99999999449981
 30
0.0
 10
18.89543049567621
 20
-21.99999999449981
 30
0.0
 10
17.99999999550008
 20
-21.104569494324
 30
0.0
 10
17.99999999550008
 20
-19.99999999500027
 30
0.0
 10
17.99999999550008
 20
-18.89543049567589
 30
0.0
 10
18.89543049567621
 20
-17.99999999550008
 30
0.0
 10
19.99999999499995
 20
-17.99999999550008
 30
0.0
 10
21.104569494324
 20
-17.99999999550008
 30
0.0
 10
21.99999999450013
 20
-18.89543049567589
 30
0.0
 10
21.99999999450013
 20
-19.99999999500027
 30
0.0
  0
SPLINE
  5
83
330
41
100
AcDbEntity
  8
Layer 1
 62
   250
420
  2827298
370
    35
100
AcDbSpline
210
0.0
220
0.0
230
1.0
 70
    11
 71
     3
 72
    17
 73
    13
 74
     0
 42
0.0000000001
 43
0.0000000001
 12
1.0
 22
0.0
 32
0.0
 13
1.0
 23
0.0
 33
0.0
 40
0.0
 40
0.0
 40
0.0
 40
0.0
 40
1.0
 40
1.0
 40
1.0
 40
2.0
 40
2.0
 40
2.0
 40
3.0
 40
3.0
 40
3.0
 40
4.0
 40
4.0
 40
4.0
 40
4.0
 10
161.9999999594997
 20
-19.99999999500027
 30
0.0
 10
161.9999999594997
 20
-21.104569494324
 30
0.0
 10
161.1045694593233
 20
-21.99999999449981
 30
0.0
 10
159.9999999600002
 20
-21.99999999449981
 30
0.0
 10
158.8954304606765
 20
-21.99999999449981
 30
0.0
 10
157.9999999605
 20
-21.104569494324
 30
0.0
 10
157.9999999605
 20
-19.99999999500027
 30
0.0
 10
157.9999999605
 20
-18.89543049567589
 30
0.0
 10
158.8954304606765
 20
-17.99999999550008
 30
0.0
 10
159.9999999600002
 20
-17.99999999550008
 30
0.0
 10
161.1045694593233
 20
-17.99999999550008
 30
0.0
 10
161.9999999594997
 20
-18.89543049567589
 30
0.0
 10
161.9999999594997
 20
-19.99999999500027
 30
0.0
  0
ENDBLK
  5
44
330
41
100
AcDbEntity
  8
0
100
AcDbBlockEnd
  0
BLOCK
  5
6A
330
68
100
AcDbEntity
  8
0
100
AcDbBlockBegin
  2
block 3
 70
     0
 10
0.0
 20
0.0
 30
0.0
  3
block 3
  1

  0
SPLINE
  5
6C
330
68
100
AcDbEntity
  8
Layer 1
370
     0
100
AcDbSpline
210
0.0
220
0.0
230
1.0
 70
    11
 71
     3
 72
    17
 73
    13
 74
     0
 42
0.0000000001
 43
0.0000000001
 12
1.0
 22
0.0
 32
0.0
 13
1.0
 23
0.0
 33
0.0
 40
0.0
 40
0.0
 40
0.0
 40
0.0
 40
1.0
 40
1.0
 40
1.0
 40
2.0
 40
2.0
 40
2.0
 40
3.0
 40
3.0
 40
3.0
 40
4.0
 40
4.0
 40
4.0
 40
4.0
 10
121.0095216935539
 20
-230.4077729613731
 30
0.0
 10
121.0095216936547
 20
-229.3033428562834
 30
0.0
 10
121.9048007034136
 20
-228.4077572856281
 30
0.0
 10
123.0095205248051
 20
-228.4077572857269
 30
0.0
 10
124.1139593170104
 20
-228.4077572858264
 30
0.0
 10
125.009521690737
 20
-229.3033428566428
 30
0.0
 10
125.0095216906395
 20
-230.4077729617325
 30
0.0
 10
125.0095216905394
 20
-231.5124852891649
 30
0.0
 10
124.113959316653
 20
-232.407757279439
 30
0.0
 10
123.0095205244476
 20
-232.4077572793396
 30
0.0
 10
121.9048007030555
 20
-232.4077572792407
 30
0.0
 10
121.0095216934564
 20
-231.5124852888055
 30
0.0
 10
121.0095216935539
 20
-230.4077729613731
 30
0.0
  0
SPLINE
  5
6D
330
68
100
AcDbEntity
  8
Layer 1
 62
   250
420
  1842203
370
    35
100
AcDbSpline
210
0.0
220
0.0
230
1.0
 70
    11
 71
     3
 72
    17
 73
    13
 74
     0
 42
0.0000000001
 43
0.0000000001
 12
1.0
 22
0.0
 32
0.0
 13
1.0
 23
0.0
 33
0.0
 40
0.0
 40
0.0
 40
0.0
 40
0.0
 40
1.0
 40
1.0
 40
1.0
 40
2.0
 40
2.0
 40
2.0
 40
3.0
 40
3.0
 40
3.0
 40
4.0
 40
4.0
 40
4.0
 40
4.0
 10
121.0095216935539
 20
-230.4077729613731
 30
0.0
 10
121.0095216936547
 20
-229.3033428562834
 30
0.0
 10
121.9048007034136
 20
-228.4077572856281
 30
0.0
 10
123.0095205248051
 20
-228.4077572857269
 30
0.0
 10
124.1139593170104
 20
-228.4077572858264
 30
0.0
 10
125.009521690737
 20
-229.3033428566428
 30
0.0
 10
125.0095216906395
 20
-230.4077729617325
 30
0.0
 10
125.0095216905394
 20
-231.5124852891649
 30
0.0
 10
124.113959316653
 20
-232.407757279439
 30
0.0
 10
123.0095205244476
 20
-232.4077572793396
 30
0.0
 10
121.9048007030555
 20
-232.4077572792407
 30
0.0
 10
121.0095216934564
 20
-231.5124852888055
 30
0.0
 10
121.0095216935539
 20
-230.4077729613731
 30
0.0
  0
SPLINE
  5
6E
330
68
100
AcDbEntity
  8
Layer 1
370
     0
100
AcDbSpline
210
0.0
220
0.0
230
1.0
 70
    11
 71
     3
 72
    17
 73
    13
 74
     0
 42
0.0000000001
 43
0.0000000001
 12
1.0
 22
0.0
 32
0.0
 13
1.0
 23
0.0
 33
0.0
 40
0.0
 40
0.0
 40
0.0
 40
0.0
 40
1.0
 40
1.0
 40
1.0
 40
2.0
 40
2.0
 40
2.0
 40
3.0
 40
3.0
 40
3.0
 40
4.0
 40
4.0
 40
4.0
 40
4.0
 10
121.0095216916397
 20
-253.8605938635321
 30
0.0
 10
121.0095216917398
 20
-252.7562384044746
 30
0.0
 10
121.9048007014988
 20
-251.8606879371733
 30
0.0
 10
123.0095205228909
 20
-251.8606879372728
 30
0.0
 10
124.1139593150956
 20
-251.8606879373722
 30
0.0
 10
125.0095216888222
 20
-252.7562384048339
 30
0.0
 10
125.0095216887253
 20
-253.8605938638914
 30
0.0
 10
125.0095216886245
 20
-254.9649806797586
 30
0.0
 10
124.1139593147388
 20
-255.8606879311049
 30
0.0
 10
123.0095205225328
 20
-255.8606879310055
 30
0.0
 10
121.9048007011414
 20
-255.8606879309066
 30
0.0
 10
121.0095216915416
 20
-254.9649806793992
 30
0.0
 10
121.0095216916397
 20
-253.8605938635321
 30
0.0
  0
SPLINE
  5
6F
330
68
100
AcDbEntity
  8
Layer 1
 62
   250
420
  1842203
370
    35
100
AcDbSpline
210
0.0
220
0.0
230
1.0
 70
    11
 71
     3
 72
    17
 73
    13
 74
     0
 42
0.0000000001
 43
0.0000000001
 12
1.0
 22
0.0
 32
0.0
 13
1.0
 23
0.0
 33
0.0
 40
0.0
 40
0.0
 40
0.0
 40
0.0
 40
1.0
 40
1.0
 40
1.0
 40
2.0
 40
2.0
 40
2.0
 40
3.0
 40
3.0
 40
3.0
 40
4.0
 40
4.0
 40
4.0
 40
4.0
 10
121.0095216916397
 20
-253.8605938635321
 30
0.0
 10
121.0095216917398
 20
-252.7562384044746
 30
0.0
 10
121.9048007014988
 20
-251.8606879371733
 30
0.0
 10
123.0095205228909
 20
-251.8606879372728
 30
0.0
 10
124.1139593150956
 20
-251.8606879373722
 30
0.0
 10
125.0095216888222
 20
-252.7562384048339
 30
0.0
 10
125.0095216887253
 20
-253.8605938638914
 30
0.0
 10
125.0095216886245
 20
-254.9649806797586
 30
0.0
 10
124.1139593147388
 20
-255.8606879311049
 30
0.0
 10
123.0095205225328
 20
-255.8606879310055
 30
0.0
 10
121.9048007011414
 20
-255.8606879309066
 30
0.0
 10
121.0095216915416
 20
-254.9649806793992
 30
0.0
 10
121.0095216916397
 20
-253.8605938635321
 30
0.0
  0
SPLINE
  5
70
330
68
100
AcDbEntity
  8
Layer 1
370
     0
100
AcDbSpline
210
0.0
220
0.0
230
1.0
 70
    11
 71
     3
 72
    17
 73
    13
 74
     0
 42
0.0000000001
 43
0.0000000001
 12
1.0
 22
0.0
 32
0.0
 13
1.0
 23
0.0
 33
0.0
 40
0.0
 40
0.0
 40
0.0
 40
0.0
 40
1.0
 40
1.0
 40
1.0
 40
2.0
 40
2.0
 40
2.0
 40
3.0
 40
3.0
 40
3.0
 40
4.0
 40
4.0
 40
4.0
 40
4.0
 10
55.01183755300185
 20
-230.4077729559854
 30
0.0
 10
55.01183755309874
 20
-229.303342850897
 30
0.0
 10
55.90726843007157
 20
-228.4077572802404
 30
0.0
 10
57.01182322270538
 20
-228.4077572803398
 30
0.0
 10
58.11640937335332
 20
-228.4077572804387
 30
0.0
 10
59.01183755018749
 20
-229.3033428512563
 30
0.0
 10
59.01183755008707
 20
-230.4077729563448
 30
0.0
 10
59.0118375499905
 20
-231.5124852837772
 30
0.0
 10
58.1164093729959
 20
-232.4077572740513
 30
0.0
 10
57.01182322234474
 20
-232.4077572739525
 30
0.0
 10
55.90726842971446
 20
-232.407757273853
 30
0.0
 10
55.01183755290142
 20
-231.5124852834178
 30
0.0
 10
55.01183755300185
 20
-230.4077729559854
 30
0.0
  0
SPLINE
  5
71
330
68
100
AcDbEntity
  8
Layer 1
 62
   250
420
  1842203
370
    35
100
AcDbSpline
210
0.0
220
0.0
230
1.0
 70
    11
 71
     3
 72
    17
 73
    13
 74
     0
 42
0.0000000001
 43
0.0000000001
 12
1.0
 22
0.0
 32
0.0
 13
1.0
 23
0.0
 33
0.0
 40
0.0
 40
0.0
 40
0.0
 40
0.0
 40
1.0
 40
1.0
 40
1.0
 40
2.0
 40
2.0
 40
2.0
 40
3.0
 40
3.0
 40
3.0
 40
4.0
 40
4.0
 40
4.0
 40
4.0
 10
55.01183755300185
 20
-230.4077729559854
 30
0.0
 10
55.01183755309874
 20
-229.303342850897
 30
0.0
 10
55.90726843007157
 20
-228.4077572802404
 30
0.0
 10
57.01182322270538
 20
-228.4077572803398
 30
0.0
 10
58.11640937335332
 20
-228.4077572804387
 30
0.0
 10
59.01183755018749
 20
-229.3033428512563
 30
0.0
 10
59.01183755008707
 20
-230.4077729563448
 30
0.0
 10
59.0118375499905
 20
-231.5124852837772
 30
0.0
 10
58.1164093729959
 20
-232.4077572740513
 30
0.0
 10
57.01182322234474
 20
-232.4077572739525
 30
0.0
 10
55.90726842971446
 20
-232.407757273853
 30
0.0
 10
55.01183755290142
 20
-231.5124852834178
 30
0.0
 10
55.01183755300185
 20
-230.4077729559854
 30
0.0
  0
SPLINE
  5
72
330
68
100
AcDbEntity
  8
Layer 1
370
     0
100
AcDbSpline
210
0.0
220
0.0
230
1.0
 70
    11
 71
     3
 72
    17
 73
    13
 74
     0
 42
0.0000000001
 43
0.0000000001
 12
1.0
 22
0.0
 32
0.0
 13
1.0
 23
0.0
 33
0.0
 40
0.0
 40
0.0
 40
0.0
 40
0.0
 40
1.0
 40
1.0
 40
1.0
 40
2.0
 40
2.0
 40
2.0
 40
3.0
 40
3.0
 40
3.0
 40
4.0
 40
4.0
 40
4.0
 40
4.0
 10
55.01183755108734
 20
-253.860593858265
 30
0.0
 10
55.01183755118424
 20
-252.7562383992069
 30
0.0
 10
55.90726842815705
 20
-251.8606879319063
 30
0.0
 10
57.01182322079087
 20
-251.8606879320057
 30
0.0
 10
58.11640937143881
 20
-251.8606879321045
 30
0.0
 10
59.01183754827299
 20
-252.7562383995662
 30
0.0
 10
59.01183754817256
 20
-253.8605938586244
 30
0.0
 10
59.01183754807599
 20
-254.9649806744915
 30
0.0
 10
58.11640937108107
 20
-255.8606879258379
 30
0.0
 10
57.01182322043024
 20
-255.8606879257384
 30
0.0
 10
55.90726842779963
 20
-255.8606879256396
 30
0.0
 10
55.01183755098691
 20
-254.9649806741322
 30
0.0
 10
55.01183755108734
 20
-253.860593858265
 30
0.0
  0
SPLINE
  5
73
330
68
100
AcDbEntity
  8
Layer 1
 62
   250
420
  1842203
370
    35
100
AcDbSpline
210
0.0
220
0.0
230
1.0
 70
    11
 71
     3
 72
    17
 73
    13
 74
     0
 42
0.0000000001
 43
0.0000000001
 12
1.0
 22
0.0
 32
0.0
 13
1.0
 23
0.0
 33
0.0
 40
0.0
 40
0.0
 40
0.0
 40
0.0
 40
1.0
 40
1.0
 40
1.0
 40
2.0
 40
2.0
 40
2.0
 40
3.0
 40
3.0
 40
3.0
 40
4.0
 40
4.0
 40
4.0
 40
4.0
 10
55.01183755108734
 20
-253.860593858265
 30
0.0
 10
55.01183755118424
 20
-252.7562383992069
 30
0.0
 10
55.90726842815705
 20
-251.8606879319063
 30
0.0
 10
57.01182322079087
 20
-251.8606879320057
 30
0.0
 10
58.11640937143881
 20
-251.8606879321045
 30
0.0
 10
59.01183754827299
 20
-252.7562383995662
 30
0.0
 10
59.01183754817256
 20
-253.8605938586244
 30
0.0
 10
59.01183754807599
 20
-254.9649806744915
 30
0.0
 10
58.11640937108107
 20
-255.8606879258379
 30
0.0
 10
57.01182322043024
 20
-255.8606879257384
 30
0.0
 10
55.90726842779963
 20
-255.8606879256396
 30
0.0
 10
55.01183755098691
 20
-254.9649806741322
 30
0.0
 10
55.01183755108734
 20
-253.860593858265
 30
0.0
  0
ENDBLK
  5
6B
330
68
100
AcDbEntity
  8
0
100
AcDbBlockEnd
  0
BLOCK
  5
76
330
74
100
AcDbEntity
  8
0
100
AcDbBlockBegin
  2
block 4
 70
     0
 10
0.0
 20
0.0
 30
0.0
  3
block 4
  1

  0
SPLINE
  5
78
330
74
100
AcDbEntity
  8
Layer 1
 62
   250
420
  2827298
370
    35
100
AcDbSpline
210
0.0
220
0.0
230
1.0
 70
    11
 71
     3
 72
    17
 73
    13
 74
     0
 42
0.0000000001
 43
0.0000000001
 12
1.0
 22
0.0
 32
0.0
 13
1.0
 23
0.0
 33
0.0
 40
0.0
 40
0.0
 40
0.0
 40
0.0
 40
1.0
 40
1.0
 40
1.0
 40
2.0
 40
2.0
 40
2.0
 40
3.0
 40
3.0
 40
3.0
 40
4.0
 40
4.0
 40
4.0
 40
4.0
 10
144.8499250914091
 20
-282.9938855105215
 30
0.0
 10
144.8499250915092
 20
-281.8894554064502
 30
0.0
 10
145.7452041014722
 20
-280.99386983662
 30
0.0
 10
146.8499250905833
 20
-280.9938698367195
 30
0.0
 10
147.9543638551371
 20
-280.9938698368189
 30
0.0
 10
148.8499250894938
 20
-281.8894554068095
 30
0.0
 10
148.8499250893937
 20
-282.9938855108808
 30
0.0
 10
148.8499250892968
 20
-284.098284256913
 30
0.0
 10
147.9543638547765
 20
-284.9938698267432
 30
0.0
 10
146.8499250902227
 20
-284.9938698266443
 30
0.0
 10
145.7452041011116
 20
-284.9938698265448
 30
0.0
 10
144.8499250913109
 20
-284.0982842565537
 30
0.0
 10
144.8499250914091
 20
-282.9938855105215
 30
0.0
  0
SPLINE
  5
79
330
74
100
AcDbEntity
  8
Layer 1
 62
   250
420
  2827298
370
    35
100
AcDbSpline
210
0.0
220
0.0
230
1.0
 70
    11
 71
     3
 72
    17
 73
    13
 74
     0
 42
0.0000000001
 43
0.0000000001
 12
1.0
 22
0.0
 32
0.0
 13
1.0
 23
0.0
 33
0.0
 40
0.0
 40
0.0
 40
0.0
 40
0.0
 40
1.0
 40
1.0
 40
1.0
 40
2.0
 40
2.0
 40
2.0
 40
3.0
 40
3.0
 40
3.0
 40
4.0
 40
4.0
 40
4.0
 40
4.0
 10
94.84986832758044
 20
-282.9938855065301
 30
0.0
 10
94.84986832768118
 20
-281.8894554024588
 30
0.0
 10
95.74545389970078
 20
-280.9938698326293
 30
0.0
 10
96.84988400627923
 20
-280.9938698327288
 30
0.0
 10
97.95431411285576
 20
-280.9938698328282
 30
0.0
 10
98.8498683266809
 20
-281.8894554028181
 30
0.0
 10
98.8498683265808
 20
-282.9938855068895
 30
0.0
 10
98.84986832648006
 20
-284.0982842529216
 30
0.0
 10
97.95431411249575
 20
-284.9938698227524
 30
0.0
 10
96.8498840059218
 20
-284.9938698226536
 30
0.0
 10
95.745453899344
 20
-284.9938698225541
 30
0.0
 10
94.84986832748353
 20
-284.0982842525623
 30
0.0
 10
94.84986832758044
 20
-282.9938855065301
 30
0.0
  0
SPLINE
  5
7A
330
74
100
AcDbEntity
  8
Layer 1
 62
   250
420
  2827298
370
    35
100
AcDbSpline
210
0.0
220
0.0
230
1.0
 70
    11
 71
     3
 72
    17
 73
    13
 74
     0
 42
0.0000000001
 43
0.0000000001
 12
1.0
 22
0.0
 32
0.0
 13
1.0
 23
0.0
 33
0.0
 40
0.0
 40
0.0
 40
0.0
 40
0.0
 40
1.0
 40
1.0
 40
1.0
 40
2.0
 40
2.0
 40
2.0
 40
3.0
 40
3.0
 40
3.0
 40
4.0
 40
4.0
 40
4.0
 40
4.0
 10
43.85005629535974
 20
-282.9938855024598
 30
0.0
 10
43.85005629545984
 20
-281.8894553983891
 30
0.0
 10
44.74548507729204
 20
-280.993869828559
 30
0.0
 10
45.85007197406078
 20
-280.9938698286578
 30
0.0
 10
46.95462751278877
 20
-280.9938698287573
 30
0.0
 10
47.8500562944599
 20
-281.8894553987485
 30
0.0
 10
47.85005629435947
 20
-282.9938855028192
 30
0.0
 10
47.85005629426289
 20
-284.098284248852
 30
0.0
 10
46.9546275124307
 20
-284.9938698186821
 30
0.0
 10
45.85007197370015
 20
-284.9938698185827
 30
0.0
 10
44.74548507693429
 20
-284.9938698184832
 30
0.0
 10
43.85005629526284
 20
-284.0982842484926
 30
0.0
 10
43.85005629535974
 20
-282.9938855024598
 30
0.0
  0
SPLINE
  5
7B
330
74
100
AcDbEntity
  8
Layer 1
 62
   250
420
  2827298
370
    35
100
AcDbSpline
210
0.0
220
0.0
230
1.0
 70
    11
 71
     3
 72
    17
 73
    13
 74
     0
 42
0.0000000001
 43
0.0000000001
 12
1.0
 22
0.0
 32
0.0
 13
1.0
 23
0.0
 33
0.0
 40
0.0
 40
0.0
 40
0.0
 40
0.0
 40
1.0
 40
1.0
 40
1.0
 40
2.0
 40
2.0
 40
2.0
 40
3.0
 40
3.0
 40
3.0
 40
4.0
 40
4.0
 40
4.0
 40
4.0
 10
132.1499256384137
 20
-282.9938855095076
 30
0.0
 10
132.1499256385138
 20
-281.8894554054363
 30
0.0
 10
133.0452048427057
 20
-280.9938698356067
 30
0.0
 10
134.1499260714875
 20
-280.9938698357056
 30
0.0
 10
135.2543650756479
 20
-280.9938698358044
 30
0.0
 10
136.1499256375142
 20
-281.8894554057956
 30
0.0
 10
136.1499256374135
 20
-282.9938855098669
 30
0.0
 10
136.1499256373166
 20
-284.0982842558991
 30
0.0
 10
135.2543650752899
 20
-284.9938698257286
 30
0.0
 10
134.1499260711275
 20
-284.9938698256304
 30
0.0
 10
133.0452048423483
 20
-284.993869825531
 30
0.0
 10
132.1499256383169
 20
-284.0982842555397
 30
0.0
 10
132.1499256384137
 20
-282.9938855095076
 30
0.0
  0
SPLINE
  5
7C
330
74
100
AcDbEntity
  8
Layer 1
 62
   250
420
  2827298
370
    35
100
AcDbSpline
210
0.0
220
0.0
230
1.0
 70
    11
 71
     3
 72
    17
 73
    13
 74
     0
 42
0.0000000001
 43
0.0000000001
 12
1.0
 22
0.0
 32
0.0
 13
1.0
 23
0.0
 33
0.0
 40
0.0
 40
0.0
 40
0.0
 40
0.0
 40
1.0
 40
1.0
 40
1.0
 40
2.0
 40
2.0
 40
2.0
 40
3.0
 40
3.0
 40
3.0
 40
4.0
 40
4.0
 40
4.0
 40
4.0
 10
144.8499250924249
 20
-270.2942072542557
 30
0.0
 10
144.8499250925211
 20
-269.1898085082229
 30
0.0
 10
145.7452041024854
 20
-268.2942229383928
 30
0.0
 10
146.8499250915959
 20
-268.2942229384922
 30
0.0
 10
147.9543638561504
 20
-268.2942229385911
 30
0.0
 10
148.8499250905064
 20
-269.1898085085822
 30
0.0
 10
148.8499250904088
 20
-270.2942072546151
 30
0.0
 10
148.8499250903087
 20
-271.3986373586858
 30
0.0
 10
147.9543638557898
 20
-272.2942229285159
 30
0.0
 10
146.8499250912346
 20
-272.2942229284171
 30
0.0
 10
145.7452041021235
 20
-272.2942229283176
 30
0.0
 10
144.8499250923242
 20
-271.3986373583264
 30
0.0
 10
144.8499250924249
 20
-270.2942072542557
 30
0.0
  0
SPLINE
  5
7D
330
74
100
AcDbEntity
  8
Layer 1
 62
   250
420
  2827298
370
    35
100
AcDbSpline
210
0.0
220
0.0
230
1.0
 70
    11
 71
     3
 72
    17
 73
    13
 74
     0
 42
0.0000000001
 43
0.0000000001
 12
1.0
 22
0.0
 32
0.0
 13
1.0
 23
0.0
 33
0.0
 40
0.0
 40
0.0
 40
0.0
 40
0.0
 40
1.0
 40
1.0
 40
1.0
 40
2.0
 40
2.0
 40
2.0
 40
3.0
 40
3.0
 40
3.0
 40
4.0
 40
4.0
 40
4.0
 40
4.0
 10
82.14986865158635
 20
-282.9938855055175
 30
0.0
 10
82.14986865168324
 20
-281.8894554014462
 30
0.0
 10
83.04545422370734
 20
-280.9938698316154
 30
0.0
 10
84.14988433028482
 20
-280.9938698317148
 30
0.0
 10
85.25431443685878
 20
-280.9938698318143
 30
0.0
 10
86.14986865068362
 20
-281.8894554018049
 30
0.0
 10
86.14986865058607
 20
-282.9938855058762
 30
0.0
 10
86.14986865048597
 20
-284.0982842519077
 30
0.0
 10
85.25431443650166
 20
-284.9938698217385
 30
0.0
 10
84.14988432992418
 20
-284.9938698216397
 30
0.0
 10
83.04545422334958
 20
-284.9938698215402
 30
0.0
 10
82.14986865148592
 20
-284.098284251549
 30
0.0
 10
82.14986865158635
 20
-282.9938855055175
 30
0.0
  0
SPLINE
  5
7E
330
74
100
AcDbEntity
  8
Layer 1
 62
   250
420
  2827298
370
    35
100
AcDbSpline
210
0.0
220
0.0
230
1.0
 70
    11
 71
     3
 72
    17
 73
    13
 74
     0
 42
0.0000000001
 43
0.0000000001
 12
1.0
 22
0.0
 32
0.0
 13
1.0
 23
0.0
 33
0.0
 40
0.0
 40
0.0
 40
0.0
 40
0.0
 40
1.0
 40
1.0
 40
1.0
 40
2.0
 40
2.0
 40
2.0
 40
3.0
 40
3.0
 40
3.0
 40
4.0
 40
4.0
 40
4.0
 40
4.0
 10
31.15005661993483
 20
-282.9938855014459
 30
0.0
 10
31.15005662003526
 20
-281.8894553973752
 30
0.0
 10
32.0454854016403
 20
-280.9938698275451
 30
0.0
 10
33.15007229812669
 20
-280.9938698276439
 30
0.0
 10
34.25462783657746
 20
-280.9938698277434
 30
0.0
 10
35.15005661802207
 20
-281.8894553977346
 30
0.0
 10
35.15005661792197
 20
-282.9938855018053
 30
0.0
 10
35.15005661782475
 20
-284.0982842478381
 30
0.0
 10
34.25462783622003
 20
-284.9938698176682
 30
0.0
 10
33.15007229776894
 20
-284.9938698175687
 30
0.0
 10
32.04548540127966
 20
-284.9938698174693
 30
0.0
 10
31.15005661983794
 20
-284.0982842474787
 30
0.0
 10
31.15005661993483
 20
-282.9938855014459
 30
0.0
  0
SPLINE
  5
7F
330
74
100
AcDbEntity
  8
Layer 1
 62
   250
420
  2827298
370
    35
100
AcDbSpline
210
0.0
220
0.0
230
1.0
 70
    11
 71
     3
 72
    17
 73
    13
 74
     0
 42
0.0000000001
 43
0.0000000001
 12
1.0
 22
0.0
 32
0.0
 13
1.0
 23
0.0
 33
0.0
 40
0.0
 40
0.0
 40
0.0
 40
0.0
 40
1.0
 40
1.0
 40
1.0
 40
2.0
 40
2.0
 40
2.0
 40
3.0
 40
3.0
 40
3.0
 40
4.0
 40
4.0
 40
4.0
 40
4.0
 10
31.15005662095064
 20
-270.2942072451808
 30
0.0
 10
31.15005662104786
 20
-269.189808499148
 30
0.0
 10
32.04548540265289
 20
-268.2942229293179
 30
0.0
 10
33.15007229913929
 20
-268.2942229294167
 30
0.0
 10
34.25462783758974
 20
-268.2942229295161
 30
0.0
 10
35.15005661903499
 20
-269.1898084995074
 30
0.0
 10
35.15005661893489
 20
-270.2942072455402
 30
0.0
 10
35.15005661883703
 20
-271.3986373496109
 30
0.0
 10
34.25462783723199
 20
-272.294222919441
 30
0.0
 10
33.15007229878218
 20
-272.2942229193415
 30
0.0
 10
32.04548540229547
 20
-272.2942229192427
 30
0.0
 10
31.15005662085086
 20
-271.3986373492515
 30
0.0
 10
31.15005662095064
 20
-270.2942072451808
 30
0.0
  0
ENDBLK
  5
77
330
74
100
AcDbEntity
  8
0
100
AcDbBlockEnd
  0
ENDSEC
  0
SECTION
  2
ENTITIES
  0
INSERT
  5
42
330
1F
100
AcDbEntity
  8
Layer 1
100
AcDbBlockReference
  2
block 2
 10
0.0
 20
0.0
 30
0.0
  0
ENDSEC
  0
SECTION
  2
OBJECTS
  0
DICTIONARY
  5
C
330
0
100
AcDbDictionary
281
     1
  3
ACAD_GROUP
350
D
  3
ACAD_LAYOUT
350
1A
  3
ACAD_MATERIAL
350
3B
  3
ACAD_MLEADERSTYLE
350
85
  3
ACAD_MLINESTYLE
350
17
  3
ACAD_PLOTSETTINGS
350
19
  3
ACAD_PLOTSTYLENAME
350
E
  3
ACAD_TABLESTYLE
350
84
  3
ACAD_VISUALSTYLE
350
2A
  0
SUN
  5
3F
330
29
100
AcDbSun
 90
        1
290
     0
 63
     7
421
 16777215
 40
1.0
291
     1
 91
  2455826
 92
 54000000
292
     0
 70
     2
 71
   256
280
     1
  0
DICTIONARY
  5
D
102
{ACAD_REACTORS
330
C
102
}
330
C
100
AcDbDictionary
281
     1
  0
DICTIONARY
  5
1A
102
{ACAD_REACTORS
330
C
102
}
330
C
100
AcDbDictionary
281
     1
  3
Layout1
350
1E
  3
Layout2
350
26
  3
Model
350
22
  0
DICTIONARY
  5
3B
102
{ACAD_REACTORS
330
C
102
}
330
C
100
AcDbDictionary
281
     1
  3
ByBlock
350
3D
  3
ByLayer
350
3C
  3
Global
350
3E
  0
DICTIONARY
  5
85
102
{ACAD_REACTORS
330
C
102
}
330
C
100
AcDbDictionary
281
     1
  0
DICTIONARY
  5
17
102
{ACAD_REACTORS
330
C
102
}
330
C
100
AcDbDictionary
281
     1
  3
Standard
350
18
  0
DICTIONARY
  5
19
102
{ACAD_REACTORS
330
C
102
}
330
C
100
AcDbDictionary
281
     1
  0
ACDBDICTIONARYWDFLT
  5
E
102
{ACAD_REACTORS
330
C
102
}
330
C
100
AcDbDictionary
281
     1
  3
Normal
350
F
100
AcDbDictionaryWithDefault
340
F
  0
DICTIONARY
  5
84
102
{ACAD_REACTORS
330
C
102
}
330
C
100
AcDbDictionary
281
     1
  0
DICTIONARY
  5
2A
102
{ACAD_REACTORS
330
C
102
}
330
C
100
AcDbDictionary
281
     1
  3
2dWireframe
350
2F
  3
3D Hidden
350
31
  3
3dWireframe
350
30
  3
Basic
350
32
  3
Brighten
350
36
  3
ColorChange
350
3A
  3
Conceptual
350
34
  3
Dim
350
35
  3
Facepattern
350
39
  3
Flat
350
2B
  3
FlatWithEdges
350
2C
  3
Gouraud
350
2D
  3
GouraudWithEdges
350
2E
  3
Linepattern
350
38
  3
Realistic
350
33
  3
Thicken
350
37
  0
LAYOUT
  5
1E
102
{ACAD_REACTORS
330
1A
102
}
330
1A
100
AcDbPlotSettings
  1

  2
none_device
  4

  6

 40
0.0
 41
0.0
 42
0.0
 43
0.0
 44
0.0
 45
0.0
 46
0.0
 47
0.0
 48
0.0
 49
0.0
140
0.0
141
0.0
142
1.0
143
1.0
 70
   688
 72
     0
 73
     0
 74
     5
  7

 75
    16
 76
     0
 77
     2
 78
   300
147
1.0
148
0.0
149
0.0
100
AcDbLayout
  1
Layout1
 70
     1
 71
     1
 10
0.0
 20
0.0
 11
12.0
 21
9.0
 12
0.0
 22
0.0
 32
0.0
 14
1.000000000000000E+20
 24
1.000000000000000E+20
 34
1.000000000000000E+20
 15
-1.000000000000000E+20
 25
-1.000000000000000E+20
 35
-1.000000000000000E+20
146
0.0
 13
0.0
 23
0.0
 33
0.0
 16
1.0
 26
0.0
 36
0.0
 17
0.0
 27
1.0
 37
0.0
 76
     0
330
1B
  0
LAYOUT
  5
26
102
{ACAD_REACTORS
330
1A
102
}
330
1A
100
AcDbPlotSettings
  1

  2
none_device
  4

  6

 40
0.0
 41
0.0
 42
0.0
 43
0.0
 44
0.0
 45
0.0
 46
0.0
 47
0.0
 48
0.0
 49
0.0
140
0.0
141
0.0
142
1.0
143
1.0
 70
   688
 72
     0
 73
     0
 74
     5
  7

 75
    16
 76
     0
 77
     2
 78
   300
147
1.0
148
0.0
149
0.0
100
AcDbLayout
  1
Layout2
 70
     1
 71
     2
 10
0.0
 20
0.0
 11
0.0
 21
0.0
 12
0.0
 22
0.0
 32
0.0
 14
0.0
 24
0.0
 34
0.0
 15
0.0
 25
0.0
 35
0.0
146
0.0
 13
0.0
 23
0.0
 33
0.0
 16
1.0
 26
0.0
 36
0.0
 17
0.0
 27
1.0
 37
0.0
 76
     0
330
23
  0
LAYOUT
  5
22
102
{ACAD_REACTORS
330
1A
102
}
330
1A
100
AcDbPlotSettings
  1

  2
none_device
  4

  6

 40
0.0
 41
0.0
 42
0.0
 43
0.0
 44
0.0
 45
0.0
 46
0.0
 47
0.0
 48
0.0
 49
0.0
140
0.0
141
0.0
142
1.0
143
1.0
 70
  1712
 72
     0
 73
     0
 74
     0
  7

 75
     0
 76
     0
 77
     2
 78
   300
147
1.0
148
0.0
149
0.0
100
AcDbLayout
  1
Model
 70
     1
 71
     0
 10
0.0
 20
0.0
 11
12.0
 21
9.0
 12
0.0
 22
0.0
 32
0.0
 14
1.000000000000000E+20
 24
1.000000000000000E+20
 34
1.000000000000000E+20
 15
-1.000000000000000E+20
 25
-1.000000000000000E+20
 35
-1.000000000000000E+20
146
0.0
 13
0.0
 23
0.0
 33
0.0
 16
1.0
 26
0.0
 36
0.0
 17
0.0
 27
1.0
 37
0.0
 76
     0
330
1F
331
29
  0
MATERIAL
  5
3D
102
{ACAD_REACTORS
330
3B
102
}
330
3B
100
AcDbMaterial
  1
ByBlock
 72
     1
 94
      127
  0
MATERIAL
  5
3C
102
{ACAD_REACTORS
330
3B
102
}
330
3B
100
AcDbMaterial
  1
ByLayer
 72
     1
 94
      127
  0
MATERIAL
  5
3E
102
{ACAD_REACTORS
330
3B
102
}
330
3B
100
AcDbMaterial
  1
Global
 72
     1
 94
      127
  0
MLINESTYLE
  5
18
102
{ACAD_REACTORS
330
17
102
}
330
17
100
AcDbMlineStyle
  2
Standard
 70
     0
  3

 62
   256
 51
90.0
 52
90.0
 71
     2
 49
0.5
 62
   256
  6
BYLAYER
 49
-0.5
 62
   256
  6
BYLAYER
  0
ACDBPLACEHOLDER
  5
F
102
{ACAD_REACTORS
330
E
102
}
330
E
  0
VISUALSTYLE
  5
2F
102
{ACAD_REACTORS
330
2A
102
}
330
2A
100
AcDbVisualStyle
  2
2dWireframe
 70
     4
177
     2
291
     0
 71
     0
176
     1
 72
     2
176
     1
 73
     0
176
     1
 90
        0
176
     1
 40
-0.6
176
     1
 41
-30.0
176
     1
 62
     5
 63
     7
421
 16777215
176
     1
 74
     1
176
     1
 91
        4
176
     1
 64
     7
176
     1
 65
   257
176
     1
 75
     1
176
     1
175
     1
176
     1
 42
1.0
176
     1
 92
        0
176
     1
 66
   257
176
     1
 43
1.0
176
     1
 76
     1
176
     1
 77
     6
176
     1
 78
     2
176
     1
 67
     7
176
     1
 79
     5
176
     1
170
     0
176
     1
171
     0
176
     1
290
     0
176
     1
 93
        1
176
     1
 44
0.0
176
     1
173
     0
176
     1
  0
VISUALSTYLE
  5
31
102
{ACAD_REACTORS
330
2A
102
}
330
2A
100
AcDbVisualStyle
  2
3D Hidden
 70
     6
177
     2
291
     0
 71
     1
176
     1
 72
     2
176
     1
 73
     2
176
     1
 90
        0
176
     1
 40
-0.6
176
     1
 41
-30.0
176
     1
 62
     5
 63
     7
421
 16777215
176
     1
 74
     2
176
     1
 91
        2
176
     1
 64
     7
176
     1
 65
   257
176
     1
 75
     2
176
     1
175
     1
176
     1
 42
40.0
176
     1
 92
        0
176
     1
 66
   257
176
     1
 43
1.0
176
     1
 76
     1
176
     1
 77
     6
176
     1
 78
     2
176
     1
 67
     7
176
     1
 79
     3
176
     1
170
     0
176
     1
171
     0
176
     1
290
     0
176
     1
 93
        1
176
     1
 44
0.0
176
     1
173
     0
176
     1
  0
VISUALSTYLE
  5
30
102
{ACAD_REACTORS
330
2A
102
}
330
2A
100
AcDbVisualStyle
  2
3dWireframe
 70
     5
177
     2
291
     0
 71
     0
176
     1
 72
     2
176
     1
 73
     0
176
     1
 90
        0
176
     1
 40
-0.6
176
     1
 41
-30.0
176
     1
 62
     5
 63
     7
421
 16777215
176
     1
 74
     1
176
     1
 91
        4
176
     1
 64
     7
176
     1
 65
   257
176
     1
 75
     1
176
     1
175
     1
176
     1
 42
1.0
176
     1
 92
        0
176
     1
 66
   257
176
     1
 43
1.0
176
     1
 76
     1
176
     1
 77
     6
176
     1
 78
     2
176
     1
 67
     7
176
     1
 79
     5
176
     1
170
     0
176
     1
171
     0
176
     1
290
     0
176
     1
 93
        1
176
     1
 44
0.0
176
     1
173
     0
176
     1
  0
VISUALSTYLE
  5
32
102
{ACAD_REACTORS
330
2A
102
}
330
2A
100
AcDbVisualStyle
  2
Basic
 70
     7
177
     2
291
     1
 71
     1
176
     1
 72
     0
176
     1
 73
     1
176
     1
 90
        0
176
     1
 40
-0.6
176
     1
 41
-30.0
176
     1
 62
     5
 63
     7
421
 16777215
176
     1
 74
     0
176
     1
 91
        4
176
     1
 64
     7
176
     1
 65
   257
176
     1
 75
     1
176
     1
175
     1
176
     1
 42
1.0
176
     1
 92
        8
176
     1
 66
     7
176
     1
 43
1.0
176
     1
 76
     1
176
     1
 77
     6
176
     1
 78
     2
176
     1
 67
     7
176
     1
 79
     5
176
     1
170
     0
176
     1
171
     0
176
     1
290
     0
176
     1
 93
        1
176
     1
 44
0.0
176
     1
173
     0
176
     1
  0
VISUALSTYLE
  5
36
102
{ACAD_REACTORS
330
2A
102
}
330
2A
100
AcDbVisualStyle
  2
Brighten
 70
    12
177
     2
291
     1
 71
     2
176
     1
 72
     2
176
     1
 73
     0
176
     1
 90
        0
176
     1
 40
-0.6
176
     1
 41
-30.0
176
     1
 62
     5
 63
     7
421
 16777215
176
     1
 74
     1
176
     1
 91
        4
176
     1
 64
     7
176
     1
 65
   257
176
     1
 75
     1
176
     1
175
     1
176
     1
 42
1.0
176
     1
 92
        8
176
     1
 66
     7
176
     1
 43
1.0
176
     1
 76
     1
176
     1
 77
     6
176
     1
 78
     2
176
     1
 67
     7
176
     1
 79
     5
176
     1
170
     0
176
     1
171
     0
176
     1
290
     0
176
     1
 93
        1
176
     1
 44
50.0
176
     1
173
     0
176
     1
  0
VISUALSTYLE
  5
3A
102
{ACAD_REACTORS
330
2A
102
}
330
2A
100
AcDbVisualStyle
  2
ColorChange
 70
    16
177
     2
291
     1
 71
     2
176
     1
 72
     2
176
     1
 73
     3
176
     1
 90
        0
176
     1
 40
-0.6
176
     1
 41
-30.0
176
     1
 62
     5
 63
     8
421
  8421504
176
     1
 74
     1
176
     1
 91
        4
176
     1
 64
     7
176
     1
 65
   257
176
     1
 75
     1
176
     1
175
     1
176
     1
 42
1.0
176
     1
 92
        8
176
     1
 66
     8
424
  8421504
176
     1
 43
1.0
176
     1
 76
     1
176
     1
 77
     6
176
     1
 78
     2
176
     1
 67
     7
176
     1
 79
     5
176
     1
170
     0
176
     1
171
     0
176
     1
290
     0
176
     1
 93
        1
176
     1
 44
0.0
176
     1
173
     0
176
     1
  0
VISUALSTYLE
  5
34
102
{ACAD_REACTORS
330
2A
102
}
330
2A
100
AcDbVisualStyle
  2
Conceptual
 70
     9
177
     2
291
     0
 71
     3
176
     1
 72
     2
176
     1
 73
     0
176
     1
 90
        0
176
     1
 40
-0.6
176
     1
 41
-30.0
176
     1
 62
     5
 63
     7
421
 16777215
176
     1
 74
     2
176
     1
 91
        2
176
     1
 64
     7
176
     1
 65
   257
176
     1
 75
     1
176
     1
175
     1
176
     1
 42
40.0
176
     1
 92
        8
176
     1
 66
     7
176
     1
 43
1.0
176
     1
 76
     1
176
     1
 77
     6
176
     1
 78
     2
176
     1
 67
     7
176
     1
 79
     3
176
     1
170
     0
176
     1
171
     0
176
     1
290
     0
176
     1
 93
        1
176
     1
 44
0.0
176
     1
173
     0
176
     1
  0
VISUALSTYLE
  5
35
102
{ACAD_REACTORS
330
2A
102
}
330
2A
100
AcDbVisualStyle
  2
Dim
 70
    11
177
     2
291
     1
 71
     2
176
     1
 72
     2
176
     1
 73
     0
176
     1
 90
        0
176
     1
 40
-0.6
176
     1
 41
-30.0
176
     1
 62
     5
 63
     7
421
 16777215
176
     1
 74
     1
176
     1
 91
        4
176
     1
 64
     7
176
     1
 65
   257
176
     1
 75
     1
176
     1
175
     1
176
     1
 42
1.0
176
     1
 92
        8
176
     1
 66
     7
176
     1
 43
1.0
176
     1
 76
     1
176
     1
 77
     6
176
     1
 78
     2
176
     1
 67
     7
176
     1
 79
     5
176
     1
170
     0
176
     1
171
     0
176
     1
290
     0
176
     1
 93
        1
176
     1
 44
-50.0
176
     1
173
     0
176
     1
  0
VISUALSTYLE
  5
39
102
{ACAD_REACTORS
330
2A
102
}
330
2A
100
AcDbVisualStyle
  2
Facepattern
 70
    15
177
     2
291
     1
 71
     2
176
     1
 72
     2
176
     1
 73
     0
176
     1
 90
        0
176
     1
 40
-0.6
176
     1
 41
-30.0
176
     1
 62
     5
 63
     7
421
 16777215
176
     1
 74
     1
176
     1
 91
        4
176
     1
 64
     7
176
     1
 65
   257
176
     1
 75
     1
176
     1
175
     1
176
     1
 42
1.0
176
     1
 92
        8
176
     1
 66
     7
176
     1
 43
1.0
176
     1
 76
     1
176
     1
 77
     6
176
     1
 78
     2
176
     1
 67
     7
176
     1
 79
     5
176
     1
170
     0
176
     1
171
     0
176
     1
290
     0
176
     1
 93
        1
176
     1
 44
0.0
176
     1
173
     0
176
     1
  0
VISUALSTYLE
  5
2B
102
{ACAD_REACTORS
330
2A
102
}
330
2A
100
AcDbVisualStyle
  2
Flat
 70
     0
177
     2
291
     1
 71
     2
176
     1
 72
     1
176
     1
 73
     1
176
     1
 90
        2
176
     1
 40
-0.6
176
     1
 41
30.0
176
     1
 62
     5
 63
     7
421
 16777215
176
     1
 74
     0
176
     1
 91
        4
176
     1
 64
     7
176
     1
 65
   257
176
     1
 75
     1
176
     1
175
     1
176
     1
 42
1.0
176
     1
 92
        8
176
     1
 66
     7
176
     1
 43
1.0
176
     1
 76
     1
176
     1
 77
     6
176
     1
 78
     2
176
     1
 67
     7
176
     1
 79
     5
176
     1
170
     0
176
     1
171
     0
176
     1
290
     0
176
     1
 93
       13
176
     1
 44
0.0
176
     1
173
     0
176
     1
  0
VISUALSTYLE
  5
2C
102
{ACAD_REACTORS
330
2A
102
}
330
2A
100
AcDbVisualStyle
  2
FlatWithEdges
 70
     1
177
     2
291
     1
 71
     2
176
     1
 72
     1
176
     1
 73
     1
176
     1
 90
        2
176
     1
 40
-0.6
176
     1
 41
30.0
176
     1
 62
     5
 63
     7
421
 16777215
176
     1
 74
     1
176
     1
 91
        4
176
     1
 64
     7
176
     1
 65
   257
176
     1
 75
     1
176
     1
175
     1
176
     1
 42
1.0
176
     1
 92
        0
176
     1
 66
   257
176
     1
 43
1.0
176
     1
 76
     1
176
     1
 77
     6
176
     1
 78
     2
176
     1
 67
     7
176
     1
 79
     5
176
     1
170
     0
176
     1
171
     0
176
     1
290
     0
176
     1
 93
       13
176
     1
 44
0.0
176
     1
173
     0
176
     1
  0
VISUALSTYLE
  5
2D
102
{ACAD_REACTORS
330
2A
102
}
330
2A
100
AcDbVisualStyle
  2
Gouraud
 70
     2
177
     2
291
     1
 71
     2
176
     1
 72
     2
176
     1
 73
     1
176
     1
 90
        2
176
     1
 40
-0.6
176
     1
 41
30.0
176
     1
 62
     5
 63
     7
421
 16777215
176
     1
 74
     0
176
     1
 91
        4
176
     1
 64
     7
176
     1
 65
   257
176
     1
 75
     1
176
     1
175
     1
176
     1
 42
1.0
176
     1
 92
        0
176
     1
 66
     7
176
     1
 43
1.0
176
     1
 76
     1
176
     1
 77
     6
176
     1
 78
     2
176
     1
 67
     7
176
     1
 79
     5
176
     1
170
     0
176
     1
171
     0
176
     1
290
     0
176
     1
 93
       13
176
     1
 44
0.0
176
     1
173
     0
176
     1
  0
VISUALSTYLE
  5
2E
102
{ACAD_REACTORS
330
2A
102
}
330
2A
100
AcDbVisualStyle
  2
GouraudWithEdges
 70
     3
177
     2
291
     1
 71
     2
176
     1
 72
     2
176
     1
 73
     1
176
     1
 90
        2
176
     1
 40
-0.6
176
     1
 41
30.0
176
     1
 62
     5
 63
     7
421
 16777215
176
     1
 74
     1
176
     1
 91
        4
176
     1
 64
     7
176
     1
 65
   257
176
     1
 75
     1
176
     1
175
     1
176
     1
 42
1.0
176
     1
 92
        0
176
     1
 66
   257
176
     1
 43
1.0
176
     1
 76
     1
176
     1
 77
     6
176
     1
 78
     2
176
     1
 67
     7
176
     1
 79
     5
176
     1
170
     0
176
     1
171
     0
176
     1
290
     0
176
     1
 93
       13
176
     1
 44
0.0
176
     1
173
     0
176
     1
  0
VISUALSTYLE
  5
38
102
{ACAD_REACTORS
330
2A
102
}
330
2A
100
AcDbVisualStyle
  2
Linepattern
 70
    14
177
     2
291
     1
 71
     2
176
     1
 72
     2
176
     1
 73
     0
176
     1
 90
        0
176
     1
 40
-0.6
176
     1
 41
-30.0
176
     1
 62
     5
 63
     7
421
 16777215
176
     1
 74
     1
176
     1
 91
        4
176
     1
 64
     7
176
     1
 65
   257
176
     1
 75
     7
176
     1
175
     7
176
     1
 42
1.0
176
     1
 92
        8
176
     1
 66
     7
176
     1
 43
1.0
176
     1
 76
     1
176
     1
 77
     6
176
     1
 78
     2
176
     1
 67
     7
176
     1
 79
     5
176
     1
170
     0
176
     1
171
     0
176
     1
290
     0
176
     1
 93
        1
176
     1
 44
0.0
176
     1
173
     0
176
     1
  0
VISUALSTYLE
  5
33
102
{ACAD_REACTORS
330
2A
102
}
330
2A
100
AcDbVisualStyle
  2
Realistic
 70
     8
177
     2
291
     0
 71
     2
176
     1
 72
     2
176
     1
 73
     0
176
     1
 90
        0
176
     1
 40
-0.6
176
     1
 41
-30.0
176
     1
 62
     5
 63
     7
421
 16777215
176
     1
 74
     1
176
     1
 91
        0
176
     1
 64
     7
176
     1
 65
   257
176
     1
 75
     1
176
     1
175
     1
176
     1
 42
1.0
176
     1
 92
        8
176
     1
 66
     8
424
  7895160
176
     1
 43
1.0
176
     1
 76
     1
176
     1
 77
     6
176
     1
 78
     2
176
     1
 67
     7
176
     1
 79
     5
176
     1
170
     0
176
     1
171
     0
176
     1
290
     0
176
     1
 93
       13
176
     1
 44
0.0
176
     1
173
     0
176
     1
  0
VISUALSTYLE
  5
37
102
{ACAD_REACTORS
330
2A
102
}
330
2A
100
AcDbVisualStyle
  2
Thicken
 70
    13
177
     2
291
     1
 71
     2
176
     1
 72
     2
176
     1
 73
     0
176
     1
 90
        0
176
     1
 40
-0.6
176
     1
 41
-30.0
176
     1
 62
     5
 63
     7
421
 16777215
176
     1
 74
     1
176
     1
 91
        4
176
     1
 64
     7
176
     1
 65
   257
176
     1
 75
     1
176
     1
175
     1
176
     1
 42
1.0
176
     1
 92
       12
176
     1
 66
     7
176
     1
 43
1.0
176
     1
 76
     1
176
     1
 77
     6
176
     1
 78
     2
176
     1
 67
     7
176
     1
 79
     5
176
     1
170
     0
176
     1
171
     0
176
     1
290
     0
176
     1
 93
        1
176
     1
 44
0.0
176
     1
173
     0
176
     1
  0
ENDSEC
  0
EOF
